<?xml version="1.0" encoding="UTF-8" standalone="no"?>
<!DOCTYPE svg PUBLIC "-//W3C//DTD SVG 1.1//EN"
 "http://www.w3.org/Graphics/SVG/1.1/DTD/svg11.dtd">
<!-- Generated by graphviz version 7.0.4 (20221203.1631)
 -->
<!-- Title: include/SSystem/SComponent/c_API_controller_pad.h Pages: 1 -->
<svg width="4575pt" height="500pt"
 viewBox="0.00 0.00 4574.52 500.00" xmlns="http://www.w3.org/2000/svg" xmlns:xlink="http://www.w3.org/1999/xlink">
<g id="graph0" class="graph" transform="scale(1 1) rotate(0) translate(4 496)">
<title>include/SSystem/SComponent/c_API_controller_pad.h</title>
<!-- Node1 -->
<g id="node1" class="node">
<title>Node1</title>
<g id="a_node1"><a xlink:title=" ">
<polygon fill="#999999" stroke="#666666" points="645.52,-492 496.52,-492 496.52,-462 645.52,-462 645.52,-492"/>
<text text-anchor="start" x="504.52" y="-480" font-family="Helvetica,sans-Serif" font-size="10.00">include/SSystem/SComponent</text>
<text text-anchor="middle" x="571.02" y="-469" font-family="Helvetica,sans-Serif" font-size="10.00">/c_API_controller_pad.h</text>
</a>
</g>
</g>
<!-- Node2 -->
<g id="node2" class="node">
<title>Node2</title>
<g id="a_node2"><a xlink:href="m__Do__controller__pad_8h.html" target="_top" xlink:title=" ">
<polygon fill="white" stroke="#666666" points="401.52,-426 252.52,-426 252.52,-396 401.52,-396 401.52,-426"/>
<text text-anchor="start" x="260.52" y="-414" font-family="Helvetica,sans-Serif" font-size="10.00">include/m_Do/m_Do_controller</text>
<text text-anchor="middle" x="327.02" y="-403" font-family="Helvetica,sans-Serif" font-size="10.00">_pad.h</text>
</a>
</g>
</g>
<!-- Node1&#45;&gt;Node2 -->
<g id="edge1" class="edge">
<title>Node1&#45;&gt;Node2</title>
<path fill="none" stroke="#63b8ff" d="M504.85,-458.64C466.31,-448.53 418.3,-435.94 381.89,-426.39"/>
<polygon fill="#63b8ff" stroke="#63b8ff" points="503.94,-462.02 514.5,-461.17 505.71,-455.25 503.94,-462.02"/>
</g>
<!-- Node109 -->
<g id="node46" class="node">
<title>Node109</title>
<g id="a_node46"><a xlink:href="c__API__controller__pad_8cpp.html" target="_top" xlink:title=" ">
<polygon fill="white" stroke="#666666" points="683.02,-360 549.02,-360 549.02,-330 683.02,-330 683.02,-360"/>
<text text-anchor="start" x="557.02" y="-348" font-family="Helvetica,sans-Serif" font-size="10.00">libs/SSystem/SComponent</text>
<text text-anchor="middle" x="616.02" y="-337" font-family="Helvetica,sans-Serif" font-size="10.00">/c_API_controller_pad.cpp</text>
</a>
</g>
</g>
<!-- Node1&#45;&gt;Node109 -->
<g id="edge69" class="edge">
<title>Node1&#45;&gt;Node109</title>
<path fill="none" stroke="#63b8ff" d="M552.19,-452.26C541.67,-435.94 532.44,-414.04 542.02,-396 550.39,-380.25 566.17,-368.56 581.02,-360.46"/>
<polygon fill="#63b8ff" stroke="#63b8ff" points="549.27,-454.2 557.88,-460.38 555.01,-450.18 549.27,-454.2"/>
</g>
<!-- Node112 -->
<g id="node49" class="node">
<title>Node112</title>
<g id="a_node49"><a xlink:href="m__Do__Reset_8cpp.html" target="_top" xlink:title=" ">
<polygon fill="white" stroke="#666666" points="687.02,-420.5 551.02,-420.5 551.02,-401.5 687.02,-401.5 687.02,-420.5"/>
<text text-anchor="middle" x="619.02" y="-408.5" font-family="Helvetica,sans-Serif" font-size="10.00">src/m_Do/m_Do_Reset.cpp</text>
</a>
</g>
</g>
<!-- Node1&#45;&gt;Node112 -->
<g id="edge70" class="edge">
<title>Node1&#45;&gt;Node112</title>
<path fill="none" stroke="#63b8ff" d="M588.56,-452.61C596.85,-441.56 606.25,-429.03 612.39,-420.84"/>
<polygon fill="#63b8ff" stroke="#63b8ff" points="585.78,-450.49 582.58,-460.59 591.38,-454.69 585.78,-450.49"/>
</g>
<!-- Node113 -->
<g id="node50" class="node">
<title>Node113</title>
<g id="a_node50"><a xlink:href="m__Do__machine_8cpp.html" target="_top" xlink:title=" ">
<polygon fill="white" stroke="#666666" points="852.52,-420.5 705.52,-420.5 705.52,-401.5 852.52,-401.5 852.52,-420.5"/>
<text text-anchor="middle" x="779.02" y="-408.5" font-family="Helvetica,sans-Serif" font-size="10.00">src/m_Do/m_Do_machine.cpp</text>
</a>
</g>
</g>
<!-- Node1&#45;&gt;Node113 -->
<g id="edge71" class="edge">
<title>Node1&#45;&gt;Node113</title>
<path fill="none" stroke="#63b8ff" d="M628.75,-458.24C668.13,-446.12 718.62,-430.59 749.89,-420.96"/>
<polygon fill="#63b8ff" stroke="#63b8ff" points="627.94,-454.83 619.41,-461.11 630,-461.52 627.94,-454.83"/>
</g>
<!-- Node3 -->
<g id="node3" class="node">
<title>Node3</title>
<g id="a_node3"><a xlink:href="d__menu__window_8h.html" target="_top" xlink:title=" ">
<polygon fill="white" stroke="#666666" points="531.02,-360 411.02,-360 411.02,-330 531.02,-330 531.02,-360"/>
<text text-anchor="start" x="419.02" y="-348" font-family="Helvetica,sans-Serif" font-size="10.00">include/d/menu/d_menu</text>
<text text-anchor="middle" x="471.02" y="-337" font-family="Helvetica,sans-Serif" font-size="10.00">_window.h</text>
</a>
</g>
</g>
<!-- Node2&#45;&gt;Node3 -->
<g id="edge2" class="edge">
<title>Node2&#45;&gt;Node3</title>
<path fill="none" stroke="#63b8ff" d="M369.79,-390.99C391.91,-381.16 418.46,-369.36 438.82,-360.31"/>
<polygon fill="#63b8ff" stroke="#63b8ff" points="368.44,-387.76 360.72,-395.02 371.28,-394.16 368.44,-387.76"/>
</g>
<!-- Node106 -->
<g id="node44" class="node">
<title>Node106</title>
<g id="a_node44"><a xlink:href="m__Do__graphic_8cpp.html" target="_top" xlink:title=" ">
<polygon fill="white" stroke="#666666" points="210.02,-96 68.02,-96 68.02,-77 210.02,-77 210.02,-96"/>
<text text-anchor="middle" x="139.02" y="-84" font-family="Helvetica,sans-Serif" font-size="10.00">src/m_Do/m_Do_graphic.cpp</text>
</a>
</g>
</g>
<!-- Node2&#45;&gt;Node106 -->
<g id="edge67" class="edge">
<title>Node2&#45;&gt;Node106</title>
<path fill="none" stroke="#63b8ff" d="M241.39,-400.57C169.35,-387.32 78.02,-355.61 78.02,-280 78.02,-280 78.02,-280 78.02,-217.5 78.02,-167.64 115.26,-116.34 131.54,-96.28"/>
<polygon fill="#63b8ff" stroke="#63b8ff" points="240.37,-403.94 250.82,-402.21 241.57,-397.05 240.37,-403.94"/>
</g>
<!-- Node108 -->
<g id="node45" class="node">
<title>Node108</title>
<g id="a_node45"><a xlink:href="m__Do__main_8cpp.html" target="_top" xlink:title=" ">
<polygon fill="white" stroke="#666666" points="359.52,-96 228.52,-96 228.52,-77 359.52,-77 359.52,-96"/>
<text text-anchor="middle" x="294.02" y="-84" font-family="Helvetica,sans-Serif" font-size="10.00">src/m_Do/m_Do_main.cpp</text>
</a>
</g>
</g>
<!-- Node2&#45;&gt;Node108 -->
<g id="edge68" class="edge">
<title>Node2&#45;&gt;Node108</title>
<path fill="none" stroke="#63b8ff" d="M241.24,-395.19C203.52,-386.76 165.22,-374.9 154.02,-360 83.54,-266.26 238.34,-131.84 282.63,-96.36"/>
<polygon fill="#63b8ff" stroke="#63b8ff" points="240.37,-398.58 250.89,-397.27 241.85,-391.74 240.37,-398.58"/>
</g>
<!-- Node2&#45;&gt;Node109 -->
<g id="edge64" class="edge">
<title>Node2&#45;&gt;Node109</title>
<path fill="none" stroke="#63b8ff" d="M403.36,-393.1C449.34,-382.91 507.26,-370.09 551.04,-360.39"/>
<polygon fill="#63b8ff" stroke="#63b8ff" points="402.73,-389.65 393.72,-395.23 404.24,-396.49 402.73,-389.65"/>
</g>
<!-- Node110 -->
<g id="node47" class="node">
<title>Node110</title>
<g id="a_node47"><a xlink:href="d__lib_8cpp.html" target="_top" xlink:title=" ">
<polygon fill="white" stroke="#666666" points="243.02,-354.5 163.02,-354.5 163.02,-335.5 243.02,-335.5 243.02,-354.5"/>
<text text-anchor="middle" x="203.02" y="-342.5" font-family="Helvetica,sans-Serif" font-size="10.00">src/d/d_lib.cpp</text>
</a>
</g>
</g>
<!-- Node2&#45;&gt;Node110 -->
<g id="edge65" class="edge">
<title>Node2&#45;&gt;Node110</title>
<path fill="none" stroke="#63b8ff" d="M289.1,-390.43C266.22,-378.62 238.16,-364.14 220.43,-354.99"/>
<polygon fill="#63b8ff" stroke="#63b8ff" points="287.36,-393.47 297.85,-394.94 290.57,-387.25 287.36,-393.47"/>
</g>
<!-- Node111 -->
<g id="node48" class="node">
<title>Node111</title>
<g id="a_node48"><a xlink:href="m__Do__controller__pad_8cpp.html" target="_top" xlink:title=" ">
<polygon fill="white" stroke="#666666" points="393.02,-360 261.02,-360 261.02,-330 393.02,-330 393.02,-360"/>
<text text-anchor="start" x="269.02" y="-348" font-family="Helvetica,sans-Serif" font-size="10.00">src/m_Do/m_Do_controller</text>
<text text-anchor="middle" x="327.02" y="-337" font-family="Helvetica,sans-Serif" font-size="10.00">_pad.cpp</text>
</a>
</g>
</g>
<!-- Node2&#45;&gt;Node111 -->
<g id="edge66" class="edge">
<title>Node2&#45;&gt;Node111</title>
<path fill="none" stroke="#63b8ff" d="M327.02,-384.39C327.02,-376.13 327.02,-367.28 327.02,-360.16"/>
<polygon fill="#63b8ff" stroke="#63b8ff" points="323.52,-384.28 327.02,-394.28 330.52,-384.28 323.52,-384.28"/>
</g>
<!-- Node4 -->
<g id="node4" class="node">
<title>Node4</title>
<g id="a_node4"><a xlink:href="d__meter2__info_8h.html" target="_top" xlink:title=" ">
<polygon fill="white" stroke="#666666" points="692.52,-294 565.52,-294 565.52,-264 692.52,-264 692.52,-294"/>
<text text-anchor="start" x="573.52" y="-282" font-family="Helvetica,sans-Serif" font-size="10.00">include/d/meter/d_meter2</text>
<text text-anchor="middle" x="629.02" y="-271" font-family="Helvetica,sans-Serif" font-size="10.00">_info.h</text>
</a>
</g>
</g>
<!-- Node3&#45;&gt;Node4 -->
<g id="edge3" class="edge">
<title>Node3&#45;&gt;Node4</title>
<path fill="none" stroke="#63b8ff" d="M511.05,-325.27C534.5,-315.43 563.98,-303.55 587.66,-294.43"/>
<polygon fill="#63b8ff" stroke="#63b8ff" points="509.98,-321.93 502.14,-329.05 512.71,-328.37 509.98,-321.93"/>
</g>
<!-- Node47 -->
<g id="node22" class="node">
<title>Node47</title>
<g id="a_node22"><a xlink:href="d__menu__window_8cpp.html" target="_top" xlink:title=" ">
<polygon fill="white" stroke="#666666" points="884.52,-24.5 725.52,-24.5 725.52,-5.5 884.52,-5.5 884.52,-24.5"/>
<text text-anchor="middle" x="805.02" y="-12.5" font-family="Helvetica,sans-Serif" font-size="10.00">src/d/menu/d_menu_window.cpp</text>
</a>
</g>
</g>
<!-- Node3&#45;&gt;Node47 -->
<g id="edge62" class="edge">
<title>Node3&#45;&gt;Node47</title>
<path fill="none" stroke="#63b8ff" d="M399.54,-326.88C252.92,-288.73 -58.56,-190.2 59.02,-66 109.29,-12.91 643.32,-37.69 716.02,-30 728.31,-28.7 741.49,-26.87 753.84,-24.96"/>
<polygon fill="#63b8ff" stroke="#63b8ff" points="398.63,-330.26 409.19,-329.37 400.38,-323.48 398.63,-330.26"/>
</g>
<!-- Node48 -->
<g id="node23" class="node">
<title>Node48</title>
<g id="a_node23"><a xlink:href="d__meter__map_8cpp.html" target="_top" xlink:title=" ">
<polygon fill="white" stroke="#666666" points="707.02,-30 603.02,-30 603.02,0 707.02,0 707.02,-30"/>
<text text-anchor="start" x="611.02" y="-18" font-family="Helvetica,sans-Serif" font-size="10.00">src/d/meter/d_meter</text>
<text text-anchor="middle" x="655.02" y="-7" font-family="Helvetica,sans-Serif" font-size="10.00">_map.cpp</text>
</a>
</g>
</g>
<!-- Node3&#45;&gt;Node48 -->
<g id="edge63" class="edge">
<title>Node3&#45;&gt;Node48</title>
<path fill="none" stroke="#63b8ff" d="M399.58,-329.8C289.84,-313.79 2.02,-308.48 2.02,-219.5 2.02,-219.5 2.02,-219.5 2.02,-157 2.02,-115.17 -6.07,-92.82 26.02,-66 69.84,-29.38 459.52,-19.25 602.62,-16.74"/>
<polygon fill="#63b8ff" stroke="#63b8ff" points="398.93,-333.24 409.35,-331.36 400.03,-326.32 398.93,-333.24"/>
</g>
<!-- Node4&#45;&gt;Node3 -->
<g id="edge57" class="edge">
<title>Node4&#45;&gt;Node3</title>
<path fill="none" stroke="#63b8ff" d="M588.84,-298.79C565.36,-308.65 535.87,-320.53 512.22,-329.64"/>
<polygon fill="#63b8ff" stroke="#63b8ff" points="589.92,-302.14 597.77,-295.02 587.19,-295.69 589.92,-302.14"/>
</g>
<!-- Node5 -->
<g id="node5" class="node">
<title>Node5</title>
<g id="a_node5"><a xlink:href="d__a__alink_8h.html" target="_top" xlink:title=" ">
<polygon fill="white" stroke="#666666" points="731.02,-228 615.02,-228 615.02,-209 731.02,-209 731.02,-228"/>
<text text-anchor="middle" x="673.02" y="-216" font-family="Helvetica,sans-Serif" font-size="10.00">include/d/a/d_a_alink.h</text>
</a>
</g>
</g>
<!-- Node4&#45;&gt;Node5 -->
<g id="edge4" class="edge">
<title>Node4&#45;&gt;Node5</title>
<path fill="none" stroke="#63b8ff" d="M646.81,-254.35C653.76,-245.11 661.3,-235.09 666.5,-228.18"/>
<polygon fill="#63b8ff" stroke="#63b8ff" points="644.02,-252.23 640.81,-262.33 649.62,-256.44 644.02,-252.23"/>
</g>
<!-- Node12 -->
<g id="node8" class="node">
<title>Node12</title>
<g id="a_node8"><a xlink:href="d__meter2__info_8cpp.html" target="_top" xlink:title=" ">
<polygon fill="white" stroke="#666666" points="3826.02,-30 3716.02,-30 3716.02,0 3826.02,0 3826.02,-30"/>
<text text-anchor="start" x="3724.02" y="-18" font-family="Helvetica,sans-Serif" font-size="10.00">src/d/meter/d_meter2</text>
<text text-anchor="middle" x="3771.02" y="-7" font-family="Helvetica,sans-Serif" font-size="10.00">_info.cpp</text>
</a>
</g>
</g>
<!-- Node4&#45;&gt;Node12 -->
<g id="edge60" class="edge">
<title>Node4&#45;&gt;Node12</title>
<path fill="none" stroke="#63b8ff" d="M703.8,-277.35C1209.3,-272.59 4110.62,-239.54 4237.02,-107 4249.6,-93.81 4249.2,-79.55 4237.02,-66 4210,-35.93 3944.06,-22.41 3826.46,-17.87"/>
<polygon fill="#63b8ff" stroke="#63b8ff" points="704.13,-273.85 694.17,-277.44 704.2,-280.84 704.13,-273.85"/>
</g>
<!-- Node21 -->
<g id="node13" class="node">
<title>Node21</title>
<g id="a_node13"><a xlink:href="d__com__inf__game_8cpp.html" target="_top" xlink:title=" ">
<polygon fill="white" stroke="#666666" points="4459.02,-30 4351.02,-30 4351.02,0 4459.02,0 4459.02,-30"/>
<text text-anchor="start" x="4359.02" y="-18" font-family="Helvetica,sans-Serif" font-size="10.00">src/d/com/d_com_inf</text>
<text text-anchor="middle" x="4405.02" y="-7" font-family="Helvetica,sans-Serif" font-size="10.00">_game.cpp</text>
</a>
</g>
</g>
<!-- Node4&#45;&gt;Node21 -->
<g id="edge58" class="edge">
<title>Node4&#45;&gt;Node21</title>
<path fill="none" stroke="#63b8ff" d="M704.21,-277.74C1010.6,-276.41 2194.92,-268.79 3168.02,-228 3549.36,-212.02 3645.66,-214.89 4025.02,-173 4212.84,-152.26 4322.22,-250.61 4445.02,-107 4464.76,-83.92 4438.45,-49.56 4420.08,-30.34"/>
<polygon fill="#63b8ff" stroke="#63b8ff" points="704.33,-274.24 694.34,-277.78 704.36,-281.24 704.33,-274.24"/>
</g>
<!-- Node22 -->
<g id="node14" class="node">
<title>Node22</title>
<g id="a_node14"><a xlink:href="d__item_8cpp.html" target="_top" xlink:title=" ">
<polygon fill="white" stroke="#666666" points="4566.52,-24.5 4477.52,-24.5 4477.52,-5.5 4566.52,-5.5 4566.52,-24.5"/>
<text text-anchor="middle" x="4522.02" y="-12.5" font-family="Helvetica,sans-Serif" font-size="10.00">src/d/d_item.cpp</text>
</a>
</g>
</g>
<!-- Node4&#45;&gt;Node22 -->
<g id="edge59" class="edge">
<title>Node4&#45;&gt;Node22</title>
<path fill="none" stroke="#63b8ff" d="M703.91,-277.98C1026.86,-277.62 2332.63,-273.3 3404.02,-228 3771.62,-212.46 3867.52,-235.91 4230.02,-173 4335.65,-154.67 4375.56,-170.38 4462.02,-107 4492.09,-84.96 4511.41,-42.95 4518.72,-24.76"/>
<polygon fill="#63b8ff" stroke="#63b8ff" points="704.34,-274.48 694.35,-277.99 704.35,-281.48 704.34,-274.48"/>
</g>
<!-- Node99 -->
<g id="node43" class="node">
<title>Node99</title>
<g id="a_node43"><a xlink:href="d__save_8cpp.html" target="_top" xlink:title=" ">
<polygon fill="white" stroke="#666666" points="492.52,-96 377.52,-96 377.52,-77 492.52,-77 492.52,-96"/>
<text text-anchor="middle" x="435.02" y="-84" font-family="Helvetica,sans-Serif" font-size="10.00">src/d/save/d_save.cpp</text>
</a>
</g>
</g>
<!-- Node4&#45;&gt;Node99 -->
<g id="edge61" class="edge">
<title>Node4&#45;&gt;Node99</title>
<path fill="none" stroke="#63b8ff" d="M606.33,-255.71C563.58,-213.73 472.83,-124.62 444.01,-96.32"/>
<polygon fill="#63b8ff" stroke="#63b8ff" points="603.77,-258.11 613.36,-262.62 608.68,-253.12 603.77,-258.11"/>
</g>
<!-- Node6 -->
<g id="node6" class="node">
<title>Node6</title>
<g id="a_node6"><a xlink:href="d__com__inf__game_8h.html" target="_top" xlink:title=" ">
<polygon fill="#fff0f0" stroke="red" points="2325.02,-173 2215.02,-173 2215.02,-143 2325.02,-143 2325.02,-173"/>
<text text-anchor="start" x="2223.02" y="-161" font-family="Helvetica,sans-Serif" font-size="10.00">include/d/com/d_com</text>
<text text-anchor="middle" x="2270.02" y="-150" font-family="Helvetica,sans-Serif" font-size="10.00">_inf_game.h</text>
</a>
</g>
</g>
<!-- Node5&#45;&gt;Node6 -->
<g id="edge5" class="edge">
<title>Node5&#45;&gt;Node6</title>
<path fill="none" stroke="#63b8ff" d="M742.78,-214.94C1011.09,-205.12 1973.59,-169.86 2214.87,-161.02"/>
<polygon fill="#63b8ff" stroke="#63b8ff" points="742.66,-211.45 732.79,-215.31 742.91,-218.44 742.66,-211.45"/>
</g>
<!-- Node16 -->
<g id="node11" class="node">
<title>Node16</title>
<g id="a_node11"><a xlink:href="d__a__alink_8cpp.html" target="_top" xlink:title=" ">
<polygon fill="white" stroke="#666666" points="1858.52,-24.5 1749.52,-24.5 1749.52,-5.5 1858.52,-5.5 1858.52,-24.5"/>
<text text-anchor="middle" x="1804.02" y="-12.5" font-family="Helvetica,sans-Serif" font-size="10.00">src/d/a/d_a_alink.cpp</text>
</a>
</g>
</g>
<!-- Node5&#45;&gt;Node16 -->
<g id="edge56" class="edge">
<title>Node5&#45;&gt;Node16</title>
<path fill="none" stroke="#63b8ff" d="M678.77,-197.79C689.79,-163.95 717.43,-95.61 768.02,-66 852.92,-16.32 1547.61,-15.02 1749.31,-15.71"/>
<polygon fill="#63b8ff" stroke="#63b8ff" points="675.49,-196.52 675.89,-207.11 682.18,-198.59 675.49,-196.52"/>
</g>
<!-- Node7 -->
<g id="node7" class="node">
<title>Node7</title>
<g id="a_node7"><a xlink:href="d__a__npc_8h.html" target="_top" xlink:title=" ">
<polygon fill="#fff0f0" stroke="red" points="3868.52,-96 3757.52,-96 3757.52,-77 3868.52,-77 3868.52,-96"/>
<text text-anchor="middle" x="3813.02" y="-84" font-family="Helvetica,sans-Serif" font-size="10.00">include/d/a/d_a_npc.h</text>
</a>
</g>
</g>
<!-- Node6&#45;&gt;Node7 -->
<g id="edge6" class="edge">
<title>Node6&#45;&gt;Node7</title>
<path fill="none" stroke="#63b8ff" d="M2336.85,-156.84C2586.79,-155.91 3466.39,-149.6 3743.02,-107 3757.74,-104.73 3773.76,-100.41 3786.76,-96.41"/>
<polygon fill="#63b8ff" stroke="#63b8ff" points="2336.93,-153.34 2326.94,-156.87 2336.95,-160.34 2336.93,-153.34"/>
</g>
<!-- Node6&#45;&gt;Node12 -->
<g id="edge51" class="edge">
<title>Node6&#45;&gt;Node12</title>
<path fill="none" stroke="#63b8ff" d="M2336.5,-156.37C2611.6,-153.55 3649.37,-140.73 3710.02,-107 3725.57,-98.36 3750.95,-53.78 3763.51,-30.39"/>
<polygon fill="#63b8ff" stroke="#63b8ff" points="2336.6,-152.87 2326.64,-156.47 2336.67,-159.87 2336.6,-152.87"/>
</g>
<!-- Node13 -->
<g id="node9" class="node">
<title>Node13</title>
<g id="a_node9"><a xlink:href="d__cc__uty_8h.html" target="_top" xlink:title=" ">
<polygon fill="#fff0f0" stroke="red" points="3700.52,-96 3581.52,-96 3581.52,-77 3700.52,-77 3700.52,-96"/>
<text text-anchor="middle" x="3641.02" y="-84" font-family="Helvetica,sans-Serif" font-size="10.00">include/d/cc/d_cc_uty.h</text>
</a>
</g>
</g>
<!-- Node6&#45;&gt;Node13 -->
<g id="edge8" class="edge">
<title>Node6&#45;&gt;Node13</title>
<path fill="none" stroke="#63b8ff" d="M2336.38,-156.36C2566.01,-153.85 3325.93,-142.97 3567.02,-107 3582.4,-104.71 3599.18,-100.44 3612.86,-96.48"/>
<polygon fill="#63b8ff" stroke="#63b8ff" points="2336.69,-152.86 2326.73,-156.47 2336.76,-159.86 2336.69,-152.86"/>
</g>
<!-- Node19 -->
<g id="node10" class="node">
<title>Node19</title>
<g id="a_node10"><a xlink:href="d__item_8h.html" target="_top" xlink:title=" ">
<polygon fill="#fff0f0" stroke="red" points="4417.52,-96 4322.52,-96 4322.52,-77 4417.52,-77 4417.52,-96"/>
<text text-anchor="middle" x="4370.02" y="-84" font-family="Helvetica,sans-Serif" font-size="10.00">include/d/d_item.h</text>
</a>
</g>
</g>
<!-- Node6&#45;&gt;Node19 -->
<g id="edge9" class="edge">
<title>Node6&#45;&gt;Node19</title>
<path fill="none" stroke="#63b8ff" d="M2336.35,-156.84C2638.05,-155.86 3882.68,-149.31 4270.02,-107 4290.77,-104.73 4313.64,-100.41 4332.26,-96.41"/>
<polygon fill="#63b8ff" stroke="#63b8ff" points="2336.69,-153.34 2326.7,-156.87 2336.71,-160.34 2336.69,-153.34"/>
</g>
<!-- Node6&#45;&gt;Node16 -->
<g id="edge37" class="edge">
<title>Node6&#45;&gt;Node16</title>
<path fill="none" stroke="#63b8ff" d="M2203.52,-153.77C2086.07,-147.46 1851.66,-131.88 1824.02,-107 1800.34,-85.68 1801.26,-43.28 1802.95,-24.87"/>
<polygon fill="#63b8ff" stroke="#63b8ff" points="2203.17,-157.26 2213.34,-154.29 2203.54,-150.27 2203.17,-157.26"/>
</g>
<!-- Node20 -->
<g id="node12" class="node">
<title>Node20</title>
<g id="a_node12"><a xlink:href="d__a__obj__item_8cpp.html" target="_top" xlink:title=" ">
<polygon fill="white" stroke="#666666" points="4325.52,-24.5 4200.52,-24.5 4200.52,-5.5 4325.52,-5.5 4325.52,-24.5"/>
<text text-anchor="middle" x="4263.02" y="-12.5" font-family="Helvetica,sans-Serif" font-size="10.00">src/d/a/d_a_obj_item.cpp</text>
</a>
</g>
</g>
<!-- Node6&#45;&gt;Node20 -->
<g id="edge40" class="edge">
<title>Node6&#45;&gt;Node20</title>
<path fill="none" stroke="#63b8ff" d="M2336.65,-156.38C2676.1,-153.1 4198.63,-136.73 4237.02,-107 4262.75,-87.08 4264.23,-43.54 4263.59,-24.83"/>
<polygon fill="#63b8ff" stroke="#63b8ff" points="2336.79,-152.88 2326.83,-156.48 2336.86,-159.88 2336.79,-152.88"/>
</g>
<!-- Node6&#45;&gt;Node21 -->
<g id="edge46" class="edge">
<title>Node6&#45;&gt;Node21</title>
<path fill="none" stroke="#63b8ff" d="M2336.77,-156.72C2696.51,-155.08 4389.59,-145.31 4427.02,-107 4447.24,-86.31 4428.71,-50.4 4415.54,-30.43"/>
<polygon fill="#63b8ff" stroke="#63b8ff" points="2336.78,-153.22 2326.79,-156.77 2336.81,-160.22 2336.78,-153.22"/>
</g>
<!-- Node24 -->
<g id="node15" class="node">
<title>Node24</title>
<g id="a_node15"><a xlink:href="d__kantera__icon__meter_8h.html" target="_top" xlink:title=" ">
<polygon fill="#fff0f0" stroke="red" points="3987.52,-101.5 3886.52,-101.5 3886.52,-71.5 3987.52,-71.5 3987.52,-101.5"/>
<text text-anchor="start" x="3894.52" y="-89.5" font-family="Helvetica,sans-Serif" font-size="10.00">include/d/d_kantera</text>
<text text-anchor="middle" x="3937.02" y="-78.5" font-family="Helvetica,sans-Serif" font-size="10.00">_icon_meter.h</text>
</a>
</g>
</g>
<!-- Node6&#45;&gt;Node24 -->
<g id="edge14" class="edge">
<title>Node6&#45;&gt;Node24</title>
<path fill="none" stroke="#63b8ff" d="M2336.82,-157.48C2601.22,-158.98 3574.84,-160.65 3878.02,-107 3884.82,-105.8 3891.91,-103.98 3898.72,-101.92"/>
<polygon fill="#63b8ff" stroke="#63b8ff" points="2337.04,-153.98 2327.02,-157.42 2337,-160.98 2337.04,-153.98"/>
</g>
<!-- Node27 -->
<g id="node16" class="node">
<title>Node27</title>
<g id="a_node16"><a xlink:href="d__model_8h.html" target="_top" xlink:title=" ">
<polygon fill="#fff0f0" stroke="red" points="4108.52,-96 4005.52,-96 4005.52,-77 4108.52,-77 4108.52,-96"/>
<text text-anchor="middle" x="4057.02" y="-84" font-family="Helvetica,sans-Serif" font-size="10.00">include/d/d_model.h</text>
</a>
</g>
</g>
<!-- Node6&#45;&gt;Node27 -->
<g id="edge15" class="edge">
<title>Node6&#45;&gt;Node27</title>
<path fill="none" stroke="#63b8ff" d="M2336.93,-156.19C2634.65,-152.43 3831.6,-135.67 3997.02,-107 4009.76,-104.79 4023.5,-100.48 4034.62,-96.47"/>
<polygon fill="#63b8ff" stroke="#63b8ff" points="2336.96,-152.69 2327,-156.31 2337.05,-159.69 2336.96,-152.69"/>
</g>
<!-- Node29 -->
<g id="node17" class="node">
<title>Node29</title>
<g id="a_node17"><a xlink:href="d__name_8h.html" target="_top" xlink:title=" ">
<polygon fill="#fff0f0" stroke="red" points="4227.52,-96 4126.52,-96 4126.52,-77 4227.52,-77 4227.52,-96"/>
<text text-anchor="middle" x="4177.02" y="-84" font-family="Helvetica,sans-Serif" font-size="10.00">include/d/d_name.h</text>
</a>
</g>
</g>
<!-- Node6&#45;&gt;Node29 -->
<g id="edge16" class="edge">
<title>Node6&#45;&gt;Node29</title>
<path fill="none" stroke="#63b8ff" d="M2337.01,-156.35C2647.62,-153.15 3940.2,-138.1 4118.02,-107 4130.56,-104.81 4144.08,-100.49 4155.01,-96.48"/>
<polygon fill="#63b8ff" stroke="#63b8ff" points="2336.99,-152.85 2327.03,-156.45 2337.07,-159.84 2336.99,-152.85"/>
</g>
<!-- Node31 -->
<g id="node18" class="node">
<title>Node31</title>
<g id="a_node18"><a xlink:href="d__file__sel__info_8h.html" target="_top" xlink:title=" ">
<polygon fill="#fff0f0" stroke="red" points="873.02,-101.5 777.02,-101.5 777.02,-71.5 873.02,-71.5 873.02,-101.5"/>
<text text-anchor="start" x="785.02" y="-89.5" font-family="Helvetica,sans-Serif" font-size="10.00">include/d/file/d_file</text>
<text text-anchor="middle" x="825.02" y="-78.5" font-family="Helvetica,sans-Serif" font-size="10.00">_sel_info.h</text>
</a>
</g>
</g>
<!-- Node6&#45;&gt;Node31 -->
<g id="edge17" class="edge">
<title>Node6&#45;&gt;Node31</title>
<path fill="none" stroke="#63b8ff" d="M2203.4,-157.18C1962.89,-157.44 1140.1,-154.71 882.02,-107 875.54,-105.8 868.8,-104.01 862.32,-102"/>
<polygon fill="#63b8ff" stroke="#63b8ff" points="2203.23,-160.68 2213.23,-157.17 2203.22,-153.68 2203.23,-160.68"/>
</g>
<!-- Node34 -->
<g id="node19" class="node">
<title>Node34</title>
<g id="a_node19"><a xlink:href="d__file__sel__warning_8h.html" target="_top" xlink:title=" ">
<polygon fill="#fff0f0" stroke="red" points="987.02,-101.5 891.02,-101.5 891.02,-71.5 987.02,-71.5 987.02,-101.5"/>
<text text-anchor="start" x="899.02" y="-89.5" font-family="Helvetica,sans-Serif" font-size="10.00">include/d/file/d_file</text>
<text text-anchor="middle" x="939.02" y="-78.5" font-family="Helvetica,sans-Serif" font-size="10.00">_sel_warning.h</text>
</a>
</g>
</g>
<!-- Node6&#45;&gt;Node34 -->
<g id="edge18" class="edge">
<title>Node6&#45;&gt;Node34</title>
<path fill="none" stroke="#63b8ff" d="M2203.24,-156.93C1975.56,-156.29 1230.89,-150.81 996.02,-107 989.55,-105.79 982.81,-104 976.32,-101.98"/>
<polygon fill="#63b8ff" stroke="#63b8ff" points="2203.12,-160.43 2213.13,-156.95 2203.14,-153.43 2203.12,-160.43"/>
</g>
<!-- Node36 -->
<g id="node20" class="node">
<title>Node36</title>
<g id="a_node20"><a xlink:href="d__meter2_8h.html" target="_top" xlink:title=" ">
<polygon fill="#fff0f0" stroke="red" points="645.02,-96 511.02,-96 511.02,-77 645.02,-77 645.02,-96"/>
<text text-anchor="middle" x="578.02" y="-84" font-family="Helvetica,sans-Serif" font-size="10.00">include/d/meter/d_meter2.h</text>
</a>
</g>
</g>
<!-- Node6&#45;&gt;Node36 -->
<g id="edge19" class="edge">
<title>Node6&#45;&gt;Node36</title>
<path fill="none" stroke="#63b8ff" d="M2203.56,-156.05C1943.74,-152.14 996.3,-136.15 697.02,-107 672.75,-104.64 645.92,-100.38 623.9,-96.45"/>
<polygon fill="#63b8ff" stroke="#63b8ff" points="2203.13,-159.54 2213.18,-156.19 2203.23,-152.54 2203.13,-159.54"/>
</g>
<!-- Node38 -->
<g id="node21" class="node">
<title>Node38</title>
<g id="a_node21"><a xlink:href="d__msg__object_8h.html" target="_top" xlink:title=" ">
<polygon fill="#fff0f0" stroke="red" points="1115.02,-101.5 1005.02,-101.5 1005.02,-71.5 1115.02,-71.5 1115.02,-101.5"/>
<text text-anchor="start" x="1013.02" y="-89.5" font-family="Helvetica,sans-Serif" font-size="10.00">include/d/msg/d_msg</text>
<text text-anchor="middle" x="1060.02" y="-78.5" font-family="Helvetica,sans-Serif" font-size="10.00">_object.h</text>
</a>
</g>
</g>
<!-- Node6&#45;&gt;Node38 -->
<g id="edge21" class="edge">
<title>Node6&#45;&gt;Node38</title>
<path fill="none" stroke="#63b8ff" d="M2203.36,-156.25C1991.38,-153.55 1334.52,-142.43 1125.02,-107 1117.71,-105.76 1110.05,-103.95 1102.67,-101.93"/>
<polygon fill="#63b8ff" stroke="#63b8ff" points="2203.04,-159.75 2213.09,-156.38 2203.13,-152.75 2203.04,-159.75"/>
</g>
<!-- Node6&#45;&gt;Node47 -->
<g id="edge50" class="edge">
<title>Node6&#45;&gt;Node47</title>
<path fill="none" stroke="#63b8ff" d="M2203.29,-157.33C1918.68,-158.42 818.54,-159.23 768.02,-107 744.9,-83.1 778.47,-42.81 795.78,-24.97"/>
<polygon fill="#63b8ff" stroke="#63b8ff" points="2203.15,-160.83 2213.14,-157.29 2203.12,-153.83 2203.15,-160.83"/>
</g>
<!-- Node6&#45;&gt;Node48 -->
<g id="edge52" class="edge">
<title>Node6&#45;&gt;Node48</title>
<path fill="none" stroke="#63b8ff" d="M2203.61,-156.08C1920.28,-151.97 823.95,-134.38 756.02,-107 716.18,-90.94 681.94,-51.72 665.48,-30.39"/>
<polygon fill="#63b8ff" stroke="#63b8ff" points="2203.36,-159.57 2213.41,-156.22 2203.46,-152.57 2203.36,-159.57"/>
</g>
<!-- Node54 -->
<g id="node24" class="node">
<title>Node54</title>
<g id="a_node24"><a xlink:href="d__s__logo_8h.html" target="_top" xlink:title=" ">
<polygon fill="#fff0f0" stroke="red" points="1246.52,-96 1133.52,-96 1133.52,-77 1246.52,-77 1246.52,-96"/>
<text text-anchor="middle" x="1190.02" y="-84" font-family="Helvetica,sans-Serif" font-size="10.00">include/d/s/d_s_logo.h</text>
</a>
</g>
</g>
<!-- Node6&#45;&gt;Node54 -->
<g id="edge26" class="edge">
<title>Node6&#45;&gt;Node54</title>
<path fill="none" stroke="#63b8ff" d="M2203.19,-155.78C2007.68,-151.88 1439.08,-138.1 1256.02,-107 1242.24,-104.66 1227.27,-100.38 1215.08,-96.43"/>
<polygon fill="#63b8ff" stroke="#63b8ff" points="2203.12,-159.28 2213.19,-155.98 2203.26,-152.28 2203.12,-159.28"/>
</g>
<!-- Node56 -->
<g id="node25" class="node">
<title>Node56</title>
<g id="a_node25"><a xlink:href="d__s__play_8h.html" target="_top" xlink:title=" ">
<polygon fill="#fff0f0" stroke="red" points="1377.52,-96 1264.52,-96 1264.52,-77 1377.52,-77 1377.52,-96"/>
<text text-anchor="middle" x="1321.02" y="-84" font-family="Helvetica,sans-Serif" font-size="10.00">include/d/s/d_s_play.h</text>
</a>
</g>
</g>
<!-- Node6&#45;&gt;Node56 -->
<g id="edge27" class="edge">
<title>Node6&#45;&gt;Node56</title>
<path fill="none" stroke="#63b8ff" d="M2203.4,-155.22C2025.79,-150.15 1543.84,-134.23 1387.02,-107 1373.37,-104.63 1358.54,-100.4 1346.4,-96.49"/>
<polygon fill="#63b8ff" stroke="#63b8ff" points="2203.04,-158.71 2213.14,-155.49 2203.24,-151.71 2203.04,-158.71"/>
</g>
<!-- Node60 -->
<g id="node26" class="node">
<title>Node60</title>
<g id="a_node26"><a xlink:href="d__msg__scrn__base_8h.html" target="_top" xlink:title=" ">
<polygon fill="#fff0f0" stroke="red" points="1494.52,-101.5 1395.52,-101.5 1395.52,-71.5 1494.52,-71.5 1494.52,-101.5"/>
<text text-anchor="start" x="1403.52" y="-89.5" font-family="Helvetica,sans-Serif" font-size="10.00">include/msg/scrn/d</text>
<text text-anchor="middle" x="1445.02" y="-78.5" font-family="Helvetica,sans-Serif" font-size="10.00">_msg_scrn_base.h</text>
</a>
</g>
</g>
<!-- Node6&#45;&gt;Node60 -->
<g id="edge28" class="edge">
<title>Node6&#45;&gt;Node60</title>
<path fill="none" stroke="#63b8ff" d="M2203.65,-154.83C2043.11,-149.24 1637.2,-132.92 1504.02,-107 1497.46,-105.72 1490.61,-103.92 1484.01,-101.92"/>
<polygon fill="#63b8ff" stroke="#63b8ff" points="2203.15,-158.32 2213.27,-155.16 2203.39,-151.32 2203.15,-158.32"/>
</g>
<!-- Node64 -->
<g id="node27" class="node">
<title>Node64</title>
<g id="a_node27"><a xlink:href="d__a__b__zant_8h.html" target="_top" xlink:title=" ">
<polygon fill="white" stroke="#666666" points="1633.52,-101.5 1512.52,-101.5 1512.52,-71.5 1633.52,-71.5 1633.52,-101.5"/>
<text text-anchor="start" x="1520.52" y="-89.5" font-family="Helvetica,sans-Serif" font-size="10.00">include/rel/d/a/b/d</text>
<text text-anchor="middle" x="1573.02" y="-78.5" font-family="Helvetica,sans-Serif" font-size="10.00">_a_b_zant/d_a_b_zant.h</text>
</a>
</g>
</g>
<!-- Node6&#45;&gt;Node64 -->
<g id="edge29" class="edge">
<title>Node6&#45;&gt;Node64</title>
<path fill="none" stroke="#63b8ff" d="M2203.23,-155.87C2088.04,-153 1844.95,-142.83 1643.02,-107 1635.57,-105.68 1627.77,-103.9 1620.18,-101.96"/>
<polygon fill="#63b8ff" stroke="#63b8ff" points="2203.04,-159.37 2213.12,-156.11 2203.21,-152.37 2203.04,-159.37"/>
</g>
<!-- Node65 -->
<g id="node28" class="node">
<title>Node65</title>
<g id="a_node28"><a xlink:href="d__a__skip__2D_8h.html" target="_top" xlink:title=" ">
<polygon fill="white" stroke="#666666" points="1776.02,-101.5 1652.02,-101.5 1652.02,-71.5 1776.02,-71.5 1776.02,-101.5"/>
<text text-anchor="start" x="1660.02" y="-89.5" font-family="Helvetica,sans-Serif" font-size="10.00">include/rel/d/a/d_a</text>
<text text-anchor="middle" x="1714.02" y="-78.5" font-family="Helvetica,sans-Serif" font-size="10.00">_skip_2D/d_a_skip_2D.h</text>
</a>
</g>
</g>
<!-- Node6&#45;&gt;Node65 -->
<g id="edge30" class="edge">
<title>Node6&#45;&gt;Node65</title>
<path fill="none" stroke="#63b8ff" d="M2203.36,-153.17C2110.27,-147.12 1936.28,-133.23 1790.02,-107 1782.25,-105.61 1774.09,-103.84 1766.13,-101.95"/>
<polygon fill="#63b8ff" stroke="#63b8ff" points="2202.87,-156.65 2213.07,-153.79 2203.31,-149.66 2202.87,-156.65"/>
</g>
<!-- Node66 -->
<g id="node29" class="node">
<title>Node66</title>
<g id="a_node29"><a xlink:href="d__a__spinner_8h.html" target="_top" xlink:title=" ">
<polygon fill="white" stroke="#666666" points="3525.02,-101.5 3409.02,-101.5 3409.02,-71.5 3525.02,-71.5 3525.02,-101.5"/>
<text text-anchor="start" x="3417.02" y="-89.5" font-family="Helvetica,sans-Serif" font-size="10.00">include/rel/d/a/d_a</text>
<text text-anchor="middle" x="3467.02" y="-78.5" font-family="Helvetica,sans-Serif" font-size="10.00">_spinner/d_a_spinner.h</text>
</a>
</g>
</g>
<!-- Node6&#45;&gt;Node66 -->
<g id="edge31" class="edge">
<title>Node6&#45;&gt;Node66</title>
<path fill="none" stroke="#63b8ff" d="M2336.84,-156.14C2547.11,-153.09 3193.47,-141.12 3400.02,-107 3407.55,-105.76 3415.44,-103.94 3423.04,-101.92"/>
<polygon fill="#63b8ff" stroke="#63b8ff" points="2336.85,-152.64 2326.91,-156.28 2336.95,-159.64 2336.85,-152.64"/>
</g>
<!-- Node67 -->
<g id="node30" class="node">
<title>Node67</title>
<g id="a_node30"><a xlink:href="d__a__player_8cpp.html" target="_top" xlink:title=" ">
<polygon fill="white" stroke="#666666" points="3567.02,-24.5 3453.02,-24.5 3453.02,-5.5 3567.02,-5.5 3567.02,-24.5"/>
<text text-anchor="middle" x="3510.02" y="-12.5" font-family="Helvetica,sans-Serif" font-size="10.00">src/d/a/d_a_player.cpp</text>
</a>
</g>
</g>
<!-- Node6&#45;&gt;Node67 -->
<g id="edge41" class="edge">
<title>Node6&#45;&gt;Node67</title>
<path fill="none" stroke="#63b8ff" d="M2336.8,-156.89C2591.84,-156.15 3492.24,-150.47 3534.02,-107 3556.22,-83.91 3530.36,-42.84 3517.02,-24.85"/>
<polygon fill="#63b8ff" stroke="#63b8ff" points="2337.01,-153.39 2327.02,-156.92 2337.03,-160.39 2337.01,-153.39"/>
</g>
<!-- Node68 -->
<g id="node31" class="node">
<title>Node68</title>
<g id="a_node31"><a xlink:href="d__a__obj__yobikusa_8h.html" target="_top" xlink:title=" ">
<polygon fill="white" stroke="#666666" points="1937.52,-107 1832.52,-107 1832.52,-66 1937.52,-66 1937.52,-107"/>
<text text-anchor="start" x="1840.52" y="-95" font-family="Helvetica,sans-Serif" font-size="10.00">include/rel/d/a/obj</text>
<text text-anchor="start" x="1840.52" y="-84" font-family="Helvetica,sans-Serif" font-size="10.00">/d_a_obj_yobikusa/d</text>
<text text-anchor="middle" x="1885.02" y="-73" font-family="Helvetica,sans-Serif" font-size="10.00">_a_obj_yobikusa.h</text>
</a>
</g>
</g>
<!-- Node6&#45;&gt;Node68 -->
<g id="edge34" class="edge">
<title>Node6&#45;&gt;Node68</title>
<path fill="none" stroke="#63b8ff" d="M2203.25,-149.65C2137.54,-141.73 2034.6,-127.43 1947.02,-107 1944.06,-106.31 1941.03,-105.54 1937.98,-104.73"/>
<polygon fill="#63b8ff" stroke="#63b8ff" points="2202.83,-153.13 2213.17,-150.83 2203.65,-146.18 2202.83,-153.13"/>
</g>
<!-- Node69 -->
<g id="node32" class="node">
<title>Node69</title>
<g id="a_node32"><a xlink:href="d__a__tag__telop_8h.html" target="_top" xlink:title=" ">
<polygon fill="white" stroke="#666666" points="2074.02,-107 1956.02,-107 1956.02,-66 2074.02,-66 2074.02,-107"/>
<text text-anchor="start" x="1964.02" y="-95" font-family="Helvetica,sans-Serif" font-size="10.00">include/rel/d/a/tag</text>
<text text-anchor="start" x="1964.02" y="-84" font-family="Helvetica,sans-Serif" font-size="10.00">/d_a_tag_telop/d_a_tag</text>
<text text-anchor="middle" x="2015.02" y="-73" font-family="Helvetica,sans-Serif" font-size="10.00">_telop.h</text>
</a>
</g>
</g>
<!-- Node6&#45;&gt;Node69 -->
<g id="edge35" class="edge">
<title>Node6&#45;&gt;Node69</title>
<path fill="none" stroke="#63b8ff" d="M2204.68,-139.65C2169,-130.13 2124.05,-118.03 2084.02,-107 2080.9,-106.14 2077.71,-105.25 2074.48,-104.35"/>
<polygon fill="#63b8ff" stroke="#63b8ff" points="2203.42,-142.94 2213.98,-142.13 2205.22,-136.18 2203.42,-142.94"/>
</g>
<!-- Node70 -->
<g id="node33" class="node">
<title>Node70</title>
<g id="a_node33"><a xlink:href="c__dylink_8cpp.html" target="_top" xlink:title=" ">
<polygon fill="white" stroke="#666666" points="2187.52,-96 2092.52,-96 2092.52,-77 2187.52,-77 2187.52,-96"/>
<text text-anchor="middle" x="2140.02" y="-84" font-family="Helvetica,sans-Serif" font-size="10.00">src/c/c_dylink.cpp</text>
</a>
</g>
</g>
<!-- Node6&#45;&gt;Node70 -->
<g id="edge36" class="edge">
<title>Node6&#45;&gt;Node70</title>
<path fill="none" stroke="#63b8ff" d="M2233.13,-137.28C2207.95,-123.82 2175.81,-106.63 2156.63,-96.38"/>
<polygon fill="#63b8ff" stroke="#63b8ff" points="2231.28,-140.26 2241.75,-141.89 2234.58,-134.08 2231.28,-140.26"/>
</g>
<!-- Node71 -->
<g id="node34" class="node">
<title>Node71</title>
<g id="a_node34"><a xlink:href="d__a__itembase_8cpp.html" target="_top" xlink:title=" ">
<polygon fill="white" stroke="#666666" points="2334.02,-96 2206.02,-96 2206.02,-77 2334.02,-77 2334.02,-96"/>
<text text-anchor="middle" x="2270.02" y="-84" font-family="Helvetica,sans-Serif" font-size="10.00">src/d/a/d_a_itembase.cpp</text>
</a>
</g>
</g>
<!-- Node6&#45;&gt;Node71 -->
<g id="edge38" class="edge">
<title>Node6&#45;&gt;Node71</title>
<path fill="none" stroke="#63b8ff" d="M2270.02,-131.46C2270.02,-119.07 2270.02,-104.99 2270.02,-96.18"/>
<polygon fill="#63b8ff" stroke="#63b8ff" points="2266.52,-131.09 2270.02,-141.09 2273.52,-131.09 2266.52,-131.09"/>
</g>
<!-- Node72 -->
<g id="node35" class="node">
<title>Node72</title>
<g id="a_node35"><a xlink:href="d__a__obj_8cpp.html" target="_top" xlink:title=" ">
<polygon fill="white" stroke="#666666" points="2453.52,-96 2352.52,-96 2352.52,-77 2453.52,-77 2453.52,-96"/>
<text text-anchor="middle" x="2403.02" y="-84" font-family="Helvetica,sans-Serif" font-size="10.00">src/d/a/d_a_obj.cpp</text>
</a>
</g>
</g>
<!-- Node6&#45;&gt;Node72 -->
<g id="edge39" class="edge">
<title>Node6&#45;&gt;Node72</title>
<path fill="none" stroke="#63b8ff" d="M2307.77,-137.28C2333.53,-123.82 2366.41,-106.63 2386.03,-96.38"/>
<polygon fill="#63b8ff" stroke="#63b8ff" points="2306.16,-134.17 2298.92,-141.9 2309.41,-140.37 2306.16,-134.17"/>
</g>
<!-- Node73 -->
<g id="node36" class="node">
<title>Node73</title>
<g id="a_node36"><a xlink:href="d__bg__s_8cpp.html" target="_top" xlink:title=" ">
<polygon fill="white" stroke="#666666" points="2576.02,-96 2472.02,-96 2472.02,-77 2576.02,-77 2576.02,-96"/>
<text text-anchor="middle" x="2524.02" y="-84" font-family="Helvetica,sans-Serif" font-size="10.00">src/d/bg/d_bg_s.cpp</text>
</a>
</g>
</g>
<!-- Node6&#45;&gt;Node73 -->
<g id="edge42" class="edge">
<title>Node6&#45;&gt;Node73</title>
<path fill="none" stroke="#63b8ff" d="M2335.92,-140.9C2373.33,-131.51 2420.96,-119.16 2463.02,-107 2474.24,-103.76 2486.52,-99.89 2497.1,-96.47"/>
<polygon fill="#63b8ff" stroke="#63b8ff" points="2335.47,-137.4 2326.62,-143.22 2337.17,-144.19 2335.47,-137.4"/>
</g>
<!-- Node74 -->
<g id="node37" class="node">
<title>Node74</title>
<g id="a_node37"><a xlink:href="d__bg__s__movebg__actor_8cpp.html" target="_top" xlink:title=" ">
<polygon fill="white" stroke="#666666" points="2720.02,-101.5 2594.02,-101.5 2594.02,-71.5 2720.02,-71.5 2720.02,-101.5"/>
<text text-anchor="start" x="2602.02" y="-89.5" font-family="Helvetica,sans-Serif" font-size="10.00">src/d/bg/d_bg_s_movebg</text>
<text text-anchor="middle" x="2657.02" y="-78.5" font-family="Helvetica,sans-Serif" font-size="10.00">_actor.cpp</text>
</a>
</g>
</g>
<!-- Node6&#45;&gt;Node74 -->
<g id="edge43" class="edge">
<title>Node6&#45;&gt;Node74</title>
<path fill="none" stroke="#63b8ff" d="M2336.4,-148.57C2400.41,-139.94 2499.85,-125.24 2585.02,-107 2591.99,-105.51 2599.28,-103.76 2606.45,-101.93"/>
<polygon fill="#63b8ff" stroke="#63b8ff" points="2336.22,-145.06 2326.77,-149.86 2337.14,-152 2336.22,-145.06"/>
</g>
<!-- Node75 -->
<g id="node38" class="node">
<title>Node75</title>
<g id="a_node38"><a xlink:href="d__bg__w_8cpp.html" target="_top" xlink:title=" ">
<polygon fill="white" stroke="#666666" points="2845.52,-96 2738.52,-96 2738.52,-77 2845.52,-77 2845.52,-96"/>
<text text-anchor="middle" x="2792.02" y="-84" font-family="Helvetica,sans-Serif" font-size="10.00">src/d/bg/d_bg_w.cpp</text>
</a>
</g>
</g>
<!-- Node6&#45;&gt;Node75 -->
<g id="edge44" class="edge">
<title>Node6&#45;&gt;Node75</title>
<path fill="none" stroke="#63b8ff" d="M2336.69,-153.75C2426.57,-148.46 2591.23,-135.56 2729.02,-107 2741.69,-104.37 2755.45,-100.27 2766.87,-96.5"/>
<polygon fill="#63b8ff" stroke="#63b8ff" points="2336.61,-150.25 2326.82,-154.32 2337.01,-157.24 2336.61,-150.25"/>
</g>
<!-- Node76 -->
<g id="node39" class="node">
<title>Node76</title>
<g id="a_node39"><a xlink:href="d__cc__s_8cpp.html" target="_top" xlink:title=" ">
<polygon fill="white" stroke="#666666" points="2968.02,-96 2864.02,-96 2864.02,-77 2968.02,-77 2968.02,-96"/>
<text text-anchor="middle" x="2916.02" y="-84" font-family="Helvetica,sans-Serif" font-size="10.00">src/d/cc/d_cc_s.cpp</text>
</a>
</g>
</g>
<!-- Node6&#45;&gt;Node76 -->
<g id="edge45" class="edge">
<title>Node6&#45;&gt;Node76</title>
<path fill="none" stroke="#63b8ff" d="M2336.94,-156.14C2446.34,-153.65 2669.86,-144.02 2855.02,-107 2867.56,-104.49 2881.14,-100.3 2892.3,-96.45"/>
<polygon fill="#63b8ff" stroke="#63b8ff" points="2336.88,-152.64 2326.96,-156.35 2337.03,-159.64 2336.88,-152.64"/>
</g>
<!-- Node77 -->
<g id="node40" class="node">
<title>Node77</title>
<g id="a_node40"><a xlink:href="d__com__static_8cpp.html" target="_top" xlink:title=" ">
<polygon fill="white" stroke="#666666" points="3126.02,-96 2986.02,-96 2986.02,-77 3126.02,-77 3126.02,-96"/>
<text text-anchor="middle" x="3056.02" y="-84" font-family="Helvetica,sans-Serif" font-size="10.00">src/d/com/d_com_static.cpp</text>
</a>
</g>
</g>
<!-- Node6&#45;&gt;Node77 -->
<g id="edge47" class="edge">
<title>Node6&#45;&gt;Node77</title>
<path fill="none" stroke="#63b8ff" d="M2336.72,-156.08C2462.63,-153.51 2743.64,-143.78 2977.02,-107 2993.07,-104.47 3010.64,-100.28 3025.13,-96.43"/>
<polygon fill="#63b8ff" stroke="#63b8ff" points="2336.83,-152.58 2326.9,-156.27 2336.97,-159.58 2336.83,-152.58"/>
</g>
<!-- Node78 -->
<g id="node41" class="node">
<title>Node78</title>
<g id="a_node41"><a xlink:href="d__attention_8cpp.html" target="_top" xlink:title=" ">
<polygon fill="white" stroke="#666666" points="3251.52,-96 3144.52,-96 3144.52,-77 3251.52,-77 3251.52,-96"/>
<text text-anchor="middle" x="3198.02" y="-84" font-family="Helvetica,sans-Serif" font-size="10.00">src/d/d_attention.cpp</text>
</a>
</g>
</g>
<!-- Node6&#45;&gt;Node78 -->
<g id="edge48" class="edge">
<title>Node6&#45;&gt;Node78</title>
<path fill="none" stroke="#63b8ff" d="M2336.81,-155.23C2512.04,-150.26 2982.02,-134.68 3135.02,-107 3148.09,-104.64 3162.25,-100.41 3173.83,-96.5"/>
<polygon fill="#63b8ff" stroke="#63b8ff" points="2336.86,-151.73 2326.96,-155.51 2337.06,-158.73 2336.86,-151.73"/>
</g>
<!-- Node79 -->
<g id="node42" class="node">
<title>Node79</title>
<g id="a_node42"><a xlink:href="d__cam__param_8cpp.html" target="_top" xlink:title=" ">
<polygon fill="white" stroke="#666666" points="3390.52,-96 3269.52,-96 3269.52,-77 3390.52,-77 3390.52,-96"/>
<text text-anchor="middle" x="3330.02" y="-84" font-family="Helvetica,sans-Serif" font-size="10.00">src/d/d_cam_param.cpp</text>
</a>
</g>
</g>
<!-- Node6&#45;&gt;Node79 -->
<g id="edge49" class="edge">
<title>Node6&#45;&gt;Node79</title>
<path fill="none" stroke="#63b8ff" d="M2336.66,-155.59C2528.94,-151.22 3082.36,-136.37 3261.02,-107 3275.4,-104.64 3291.04,-100.36 3303.8,-96.41"/>
<polygon fill="#63b8ff" stroke="#63b8ff" points="2336.77,-152.09 2326.85,-155.81 2336.93,-159.09 2336.77,-152.09"/>
</g>
<!-- Node6&#45;&gt;Node99 -->
<g id="edge53" class="edge">
<title>Node6&#45;&gt;Node99</title>
<path fill="none" stroke="#63b8ff" d="M2203.68,-157.38C1923.89,-158.64 839.19,-159.94 502.02,-107 487.9,-104.78 472.56,-100.47 460.13,-96.46"/>
<polygon fill="#63b8ff" stroke="#63b8ff" points="2203.35,-160.88 2213.33,-157.34 2203.32,-153.88 2203.35,-160.88"/>
</g>
<!-- Node6&#45;&gt;Node106 -->
<g id="edge54" class="edge">
<title>Node6&#45;&gt;Node106</title>
<path fill="none" stroke="#63b8ff" d="M2203.48,-157.3C1896.56,-158.37 615.79,-159.57 219.02,-107 202.3,-104.78 184,-100.47 169.12,-96.46"/>
<polygon fill="#63b8ff" stroke="#63b8ff" points="2203.33,-160.8 2213.31,-157.26 2203.3,-153.8 2203.33,-160.8"/>
</g>
<!-- Node6&#45;&gt;Node108 -->
<g id="edge55" class="edge">
<title>Node6&#45;&gt;Node108</title>
<path fill="none" stroke="#63b8ff" d="M2203.57,-157.31C1910.68,-158.37 733.47,-159.23 368.02,-107 352.5,-104.78 335.57,-100.47 321.82,-96.46"/>
<polygon fill="#63b8ff" stroke="#63b8ff" points="2203.33,-160.81 2213.31,-157.28 2203.3,-153.81 2203.33,-160.81"/>
</g>
<!-- Node7&#45;&gt;Node12 -->
<g id="edge7" class="edge">
<title>Node7&#45;&gt;Node12</title>
<path fill="none" stroke="#63b8ff" d="M3801.96,-67.19C3794.98,-55.64 3786.1,-40.95 3779.65,-30.27"/>
<polygon fill="#63b8ff" stroke="#63b8ff" points="3798.75,-68.65 3806.92,-75.4 3804.75,-65.03 3798.75,-68.65"/>
</g>
<!-- Node19&#45;&gt;Node16 -->
<g id="edge10" class="edge">
<title>Node19&#45;&gt;Node16</title>
<path fill="none" stroke="#63b8ff" d="M4310.86,-75.21C4287.88,-71.63 4261.3,-68.02 4237.02,-66 3752.71,-25.68 2173.92,-17.45 1858.98,-16.19"/>
<polygon fill="#63b8ff" stroke="#63b8ff" points="4310.25,-78.65 4320.68,-76.77 4311.35,-71.74 4310.25,-78.65"/>
</g>
<!-- Node19&#45;&gt;Node20 -->
<g id="edge11" class="edge">
<title>Node19&#45;&gt;Node20</title>
<path fill="none" stroke="#63b8ff" d="M4346.86,-70.46C4325.5,-56.58 4294.51,-36.45 4276.8,-24.95"/>
<polygon fill="#63b8ff" stroke="#63b8ff" points="4344.91,-73.36 4355.2,-75.87 4348.72,-67.49 4344.91,-73.36"/>
</g>
<!-- Node19&#45;&gt;Node21 -->
<g id="edge12" class="edge">
<title>Node19&#45;&gt;Node21</title>
<path fill="none" stroke="#63b8ff" d="M4379.61,-66.47C4385.36,-55.04 4392.57,-40.73 4397.84,-30.27"/>
<polygon fill="#63b8ff" stroke="#63b8ff" points="4376.51,-64.84 4375.14,-75.35 4382.76,-67.99 4376.51,-64.84"/>
</g>
<!-- Node19&#45;&gt;Node22 -->
<g id="edge13" class="edge">
<title>Node19&#45;&gt;Node22</title>
<path fill="none" stroke="#63b8ff" d="M4400.01,-71.79C4430.41,-57.89 4476.58,-36.78 4502.54,-24.91"/>
<polygon fill="#63b8ff" stroke="#63b8ff" points="4398.6,-68.59 4390.96,-75.93 4401.51,-74.95 4398.6,-68.59"/>
</g>
<!-- Node36&#45;&gt;Node4 -->
<g id="edge20" class="edge">
<title>Node36&#45;&gt;Node4</title>
<path fill="none" stroke="#63b8ff" d="M580.5,-107.43C584.25,-135.01 592.43,-186.13 606.02,-228 610.1,-240.54 616.46,-254.09 621.46,-263.92"/>
<polygon fill="#63b8ff" stroke="#63b8ff" points="583.99,-107.2 579.24,-97.73 577.05,-108.1 583.99,-107.2"/>
</g>
<!-- Node38&#45;&gt;Node12 -->
<g id="edge24" class="edge">
<title>Node38&#45;&gt;Node12</title>
<path fill="none" stroke="#63b8ff" d="M1112.77,-68.36C1116.88,-67.43 1121,-66.62 1125.02,-66 1394.2,-24.47 3303.92,-41.76 3576.02,-30 3623.16,-27.96 3676.6,-24.01 3715.6,-20.82"/>
<polygon fill="#63b8ff" stroke="#63b8ff" points="1112.25,-64.88 1103.41,-70.71 1113.96,-71.67 1112.25,-64.88"/>
</g>
<!-- Node38&#45;&gt;Node16 -->
<g id="edge22" class="edge">
<title>Node38&#45;&gt;Node16</title>
<path fill="none" stroke="#63b8ff" d="M1114.25,-68.28C1117.88,-67.43 1121.49,-66.65 1125.02,-66 1354.3,-23.69 1633.37,-16.9 1749.38,-16.01"/>
<polygon fill="#63b8ff" stroke="#63b8ff" points="1113.69,-64.81 1104.88,-70.69 1115.43,-71.59 1113.69,-64.81"/>
</g>
<!-- Node38&#45;&gt;Node47 -->
<g id="edge23" class="edge">
<title>Node38&#45;&gt;Node47</title>
<path fill="none" stroke="#63b8ff" d="M1002.4,-67.83C1000.25,-67.2 998.12,-66.59 996.02,-66 942.27,-50.78 879.53,-34.67 841.05,-24.98"/>
<polygon fill="#63b8ff" stroke="#63b8ff" points="1001.22,-71.13 1011.8,-70.59 1003.19,-64.41 1001.22,-71.13"/>
</g>
<!-- Node38&#45;&gt;Node48 -->
<g id="edge25" class="edge">
<title>Node38&#45;&gt;Node48</title>
<path fill="none" stroke="#63b8ff" d="M1005.12,-68.13C1002.05,-67.36 999.01,-66.64 996.02,-66 873.8,-39.69 840.14,-51.79 717.02,-30 713.87,-29.44 710.64,-28.83 707.38,-28.19"/>
<polygon fill="#63b8ff" stroke="#63b8ff" points="1004.18,-71.5 1014.75,-70.7 1005.99,-64.74 1004.18,-71.5"/>
</g>
<!-- Node66&#45;&gt;Node16 -->
<g id="edge32" class="edge">
<title>Node66&#45;&gt;Node16</title>
<path fill="none" stroke="#63b8ff" d="M3412.43,-68.4C3408.26,-67.46 3404.09,-66.65 3400.02,-66 3093.54,-17.4 2102.53,-15.56 1858.64,-15.87"/>
<polygon fill="#63b8ff" stroke="#63b8ff" points="3411.4,-71.75 3421.95,-70.73 3413.07,-64.95 3411.4,-71.75"/>
</g>
<!-- Node66&#45;&gt;Node67 -->
<g id="edge33" class="edge">
<title>Node66&#45;&gt;Node67</title>
<path fill="none" stroke="#63b8ff" d="M3481.88,-61.49C3489.77,-48.74 3498.98,-33.86 3504.65,-24.68"/>
<polygon fill="#63b8ff" stroke="#63b8ff" points="3479.01,-59.47 3476.73,-69.81 3484.97,-63.15 3479.01,-59.47"/>
</g>
</g>
</svg>
