<?xml version="1.0" encoding="UTF-8" standalone="no"?>
<!DOCTYPE svg PUBLIC "-//W3C//DTD SVG 1.1//EN"
 "http://www.w3.org/Graphics/SVG/1.1/DTD/svg11.dtd">
<!-- Generated by graphviz version 7.0.4 (20221203.1631)
 -->
<!-- Title: include/SSystem/SComponent/c_bg_s_gnd_chk.h Pages: 1 -->
<svg width="4154pt" height="632pt"
 viewBox="0.00 0.00 4153.50 632.00" xmlns="http://www.w3.org/2000/svg" xmlns:xlink="http://www.w3.org/1999/xlink">
<g id="graph0" class="graph" transform="scale(1 1) rotate(0) translate(4 628)">
<title>include/SSystem/SComponent/c_bg_s_gnd_chk.h</title>
<!-- Node1 -->
<g id="node1" class="node">
<title>Node1</title>
<g id="a_node1"><a xlink:title=" ">
<polygon fill="#999999" stroke="#666666" points="3934.5,-624 3785.5,-624 3785.5,-594 3934.5,-594 3934.5,-624"/>
<text text-anchor="start" x="3793.5" y="-612" font-family="Helvetica,sans-Serif" font-size="10.00">include/SSystem/SComponent</text>
<text text-anchor="middle" x="3860" y="-601" font-family="Helvetica,sans-Serif" font-size="10.00">/c_bg_s_gnd_chk.h</text>
</a>
</g>
</g>
<!-- Node2 -->
<g id="node2" class="node">
<title>Node2</title>
<g id="a_node2"><a xlink:href="d__bg__s_8h.html" target="_top" xlink:title=" ">
<polygon fill="white" stroke="#666666" points="3591.5,-294 3480.5,-294 3480.5,-275 3591.5,-275 3591.5,-294"/>
<text text-anchor="middle" x="3536" y="-282" font-family="Helvetica,sans-Serif" font-size="10.00">include/d/bg/d_bg_s.h</text>
</a>
</g>
</g>
<!-- Node1&#45;&gt;Node2 -->
<g id="edge1" class="edge">
<title>Node1&#45;&gt;Node2</title>
<path fill="none" stroke="#63b8ff" d="M3774.09,-591.11C3678.1,-569.72 3536,-529.38 3536,-478 3536,-478 3536,-478 3536,-410 3536,-366.55 3536,-314.58 3536,-294.25"/>
<polygon fill="#63b8ff" stroke="#63b8ff" points="3773.26,-594.51 3783.78,-593.24 3774.76,-587.68 3773.26,-594.51"/>
</g>
<!-- Node111 -->
<g id="node40" class="node">
<title>Node111</title>
<g id="a_node40"><a xlink:href="d__bg__s__gnd__chk_8h.html" target="_top" xlink:title=" ">
<polygon fill="white" stroke="#666666" points="3768,-558 3664,-558 3664,-528 3768,-528 3768,-558"/>
<text text-anchor="start" x="3672" y="-546" font-family="Helvetica,sans-Serif" font-size="10.00">include/d/bg/d_bg_s</text>
<text text-anchor="middle" x="3716" y="-535" font-family="Helvetica,sans-Serif" font-size="10.00">_gnd_chk.h</text>
</a>
</g>
</g>
<!-- Node1&#45;&gt;Node111 -->
<g id="edge50" class="edge">
<title>Node1&#45;&gt;Node111</title>
<path fill="none" stroke="#63b8ff" d="M3817.23,-588.99C3795.11,-579.16 3768.57,-567.36 3748.21,-558.31"/>
<polygon fill="#63b8ff" stroke="#63b8ff" points="3815.74,-592.16 3826.3,-593.02 3818.58,-585.76 3815.74,-592.16"/>
</g>
<!-- Node124 -->
<g id="node42" class="node">
<title>Node124</title>
<g id="a_node42"><a xlink:href="d__bg__w_8h.html" target="_top" xlink:title=" ">
<polygon fill="white" stroke="#666666" points="3869.5,-354.5 3756.5,-354.5 3756.5,-335.5 3869.5,-335.5 3869.5,-354.5"/>
<text text-anchor="middle" x="3813" y="-342.5" font-family="Helvetica,sans-Serif" font-size="10.00">include/d/bg/d_bg_w.h</text>
</a>
</g>
</g>
<!-- Node1&#45;&gt;Node124 -->
<g id="edge66" class="edge">
<title>Node1&#45;&gt;Node124</title>
<path fill="none" stroke="#63b8ff" d="M3857.53,-582.62C3854.5,-553.39 3848.78,-504 3841,-462 3833.53,-421.67 3820.87,-374.33 3815.51,-354.95"/>
<polygon fill="#63b8ff" stroke="#63b8ff" points="3854.03,-582.72 3858.51,-592.32 3860.99,-582.02 3854.03,-582.72"/>
</g>
<!-- Node128 -->
<g id="node45" class="node">
<title>Node128</title>
<g id="a_node45"><a xlink:href="d__bg__w__base_8h.html" target="_top" xlink:title=" ">
<polygon fill="white" stroke="#666666" points="3994,-426 3888,-426 3888,-396 3994,-396 3994,-426"/>
<text text-anchor="start" x="3896" y="-414" font-family="Helvetica,sans-Serif" font-size="10.00">include/d/bg/d_bg_w</text>
<text text-anchor="middle" x="3941" y="-403" font-family="Helvetica,sans-Serif" font-size="10.00">_base.h</text>
</a>
</g>
</g>
<!-- Node1&#45;&gt;Node128 -->
<g id="edge67" class="edge">
<title>Node1&#45;&gt;Node128</title>
<path fill="none" stroke="#63b8ff" d="M3870.32,-583.02C3887.48,-541.51 3921.33,-459.59 3935.04,-426.43"/>
<polygon fill="#63b8ff" stroke="#63b8ff" points="3867.12,-581.61 3866.53,-592.19 3873.59,-584.28 3867.12,-581.61"/>
</g>
<!-- Node148 -->
<g id="node50" class="node">
<title>Node148</title>
<g id="a_node50"><a xlink:href="c__bg__s__gnd__chk_8cpp.html" target="_top" xlink:title=" ">
<polygon fill="white" stroke="#666666" points="4060,-558 3926,-558 3926,-528 4060,-528 4060,-558"/>
<text text-anchor="start" x="3934" y="-546" font-family="Helvetica,sans-Serif" font-size="10.00">libs/SSystem/SComponent</text>
<text text-anchor="middle" x="3993" y="-535" font-family="Helvetica,sans-Serif" font-size="10.00">/c_bg_s_gnd_chk.cpp</text>
</a>
</g>
</g>
<!-- Node1&#45;&gt;Node148 -->
<g id="edge68" class="edge">
<title>Node1&#45;&gt;Node148</title>
<path fill="none" stroke="#63b8ff" d="M3900.06,-588.72C3920.37,-578.95 3944.62,-567.28 3963.25,-558.31"/>
<polygon fill="#63b8ff" stroke="#63b8ff" points="3898.7,-585.49 3891.21,-592.98 3901.74,-591.8 3898.7,-585.49"/>
</g>
<!-- Node3 -->
<g id="node3" class="node">
<title>Node3</title>
<g id="a_node3"><a xlink:href="d__a__alink_8h.html" target="_top" xlink:title=" ">
<polygon fill="white" stroke="#666666" points="3579,-233.5 3463,-233.5 3463,-214.5 3579,-214.5 3579,-233.5"/>
<text text-anchor="middle" x="3521" y="-221.5" font-family="Helvetica,sans-Serif" font-size="10.00">include/d/a/d_a_alink.h</text>
</a>
</g>
</g>
<!-- Node2&#45;&gt;Node3 -->
<g id="edge2" class="edge">
<title>Node2&#45;&gt;Node3</title>
<path fill="none" stroke="#63b8ff" d="M3531,-263.99C3528.36,-253.72 3525.26,-241.63 3523.22,-233.67"/>
<polygon fill="#63b8ff" stroke="#63b8ff" points="3527.54,-264.58 3533.41,-273.4 3534.32,-262.85 3527.54,-264.58"/>
</g>
<!-- Node4 -->
<g id="node4" class="node">
<title>Node4</title>
<g id="a_node4"><a xlink:href="d__com__inf__game_8h.html" target="_top" xlink:title=" ">
<polygon fill="#fff0f0" stroke="red" points="2038,-173 1928,-173 1928,-143 2038,-143 2038,-173"/>
<text text-anchor="start" x="1936" y="-161" font-family="Helvetica,sans-Serif" font-size="10.00">include/d/com/d_com</text>
<text text-anchor="middle" x="1983" y="-150" font-family="Helvetica,sans-Serif" font-size="10.00">_inf_game.h</text>
</a>
</g>
</g>
<!-- Node2&#45;&gt;Node4 -->
<g id="edge44" class="edge">
<title>Node2&#45;&gt;Node4</title>
<path fill="none" stroke="#63b8ff" d="M3469.18,-278.14C3210.31,-257.39 2276.13,-182.5 2038.36,-163.44"/>
<polygon fill="#63b8ff" stroke="#63b8ff" points="3468.51,-281.6 3478.76,-278.91 3469.07,-274.62 3468.51,-281.6"/>
</g>
<!-- Node74 -->
<g id="node30" class="node">
<title>Node74</title>
<g id="a_node30"><a xlink:href="d__bg__s_8cpp.html" target="_top" xlink:title=" ">
<polygon fill="white" stroke="#666666" points="3603,-96 3499,-96 3499,-77 3603,-77 3603,-96"/>
<text text-anchor="middle" x="3551" y="-84" font-family="Helvetica,sans-Serif" font-size="10.00">src/d/bg/d_bg_s.cpp</text>
</a>
</g>
</g>
<!-- Node2&#45;&gt;Node74 -->
<g id="edge48" class="edge">
<title>Node2&#45;&gt;Node74</title>
<path fill="none" stroke="#63b8ff" d="M3492.71,-270.38C3477.76,-263.53 3462.61,-253.48 3454,-239 3447.18,-227.54 3449.59,-221.58 3454,-209 3471.4,-159.32 3518.57,-114.83 3540.07,-96.45"/>
<polygon fill="#63b8ff" stroke="#63b8ff" points="3490.97,-273.44 3501.55,-274.03 3493.65,-266.98 3490.97,-273.44"/>
</g>
<!-- Node109 -->
<g id="node38" class="node">
<title>Node109</title>
<g id="a_node38"><a xlink:href="d__a__horse_8h.html" target="_top" xlink:title=" ">
<polygon fill="#fff0f0" stroke="red" points="3763.5,-173 3662.5,-173 3662.5,-143 3763.5,-143 3763.5,-173"/>
<text text-anchor="start" x="3670.5" y="-161" font-family="Helvetica,sans-Serif" font-size="10.00">include/rel/d/a/d_a</text>
<text text-anchor="middle" x="3713" y="-150" font-family="Helvetica,sans-Serif" font-size="10.00">_horse/d_a_horse.h</text>
</a>
</g>
</g>
<!-- Node2&#45;&gt;Node109 -->
<g id="edge45" class="edge">
<title>Node2&#45;&gt;Node109</title>
<path fill="none" stroke="#63b8ff" d="M3554.84,-267.48C3577.03,-248.72 3612.69,-218.93 3627,-209 3645.88,-195.91 3668.35,-182.93 3685.59,-173.47"/>
<polygon fill="#63b8ff" stroke="#63b8ff" points="3552.77,-264.64 3547.41,-273.78 3557.3,-269.98 3552.77,-264.64"/>
</g>
<!-- Node110 -->
<g id="node39" class="node">
<title>Node110</title>
<g id="a_node39"><a xlink:href="d__bg__s__acch_8cpp.html" target="_top" xlink:title=" ">
<polygon fill="white" stroke="#666666" points="3766.5,-233.5 3635.5,-233.5 3635.5,-214.5 3766.5,-214.5 3766.5,-233.5"/>
<text text-anchor="middle" x="3701" y="-221.5" font-family="Helvetica,sans-Serif" font-size="10.00">src/d/bg/d_bg_s_acch.cpp</text>
</a>
</g>
</g>
<!-- Node2&#45;&gt;Node110 -->
<g id="edge49" class="edge">
<title>Node2&#45;&gt;Node110</title>
<path fill="none" stroke="#63b8ff" d="M3571.54,-270.9C3602.91,-259.78 3647.87,-243.84 3675.7,-233.97"/>
<polygon fill="#63b8ff" stroke="#63b8ff" points="3570.74,-267.47 3562.49,-274.11 3573.08,-274.07 3570.74,-267.47"/>
</g>
<!-- Node3&#45;&gt;Node4 -->
<g id="edge3" class="edge">
<title>Node3&#45;&gt;Node4</title>
<path fill="none" stroke="#63b8ff" d="M3451.39,-220.1C3190.45,-209.24 2273.28,-171.08 2038.22,-161.3"/>
<polygon fill="#63b8ff" stroke="#63b8ff" points="3450.94,-223.59 3461.07,-220.51 3451.23,-216.59 3450.94,-223.59"/>
</g>
<!-- Node14 -->
<g id="node8" class="node">
<title>Node14</title>
<g id="a_node8"><a xlink:href="d__a__alink_8cpp.html" target="_top" xlink:title=" ">
<polygon fill="white" stroke="#666666" points="3153.5,-24.5 3044.5,-24.5 3044.5,-5.5 3153.5,-5.5 3153.5,-24.5"/>
<text text-anchor="middle" x="3099" y="-12.5" font-family="Helvetica,sans-Serif" font-size="10.00">src/d/a/d_a_alink.cpp</text>
</a>
</g>
</g>
<!-- Node3&#45;&gt;Node14 -->
<g id="edge43" class="edge">
<title>Node3&#45;&gt;Node14</title>
<path fill="none" stroke="#63b8ff" d="M3541.89,-207.61C3579.94,-177.81 3652.98,-111.17 3612,-66 3581.64,-32.53 3279.79,-20.75 3153.79,-17.27"/>
<polygon fill="#63b8ff" stroke="#63b8ff" points="3540.09,-204.59 3534.27,-213.44 3544.34,-210.15 3540.09,-204.59"/>
</g>
<!-- Node5 -->
<g id="node5" class="node">
<title>Node5</title>
<g id="a_node5"><a xlink:href="d__a__npc_8h.html" target="_top" xlink:title=" ">
<polygon fill="#fff0f0" stroke="red" points="1604.5,-96 1493.5,-96 1493.5,-77 1604.5,-77 1604.5,-96"/>
<text text-anchor="middle" x="1549" y="-84" font-family="Helvetica,sans-Serif" font-size="10.00">include/d/a/d_a_npc.h</text>
</a>
</g>
</g>
<!-- Node4&#45;&gt;Node5 -->
<g id="edge4" class="edge">
<title>Node4&#45;&gt;Node5</title>
<path fill="none" stroke="#63b8ff" d="M1916.59,-151.29C1842.1,-144.12 1717.96,-129.92 1613,-107 1600.29,-104.22 1586.45,-100.14 1574.9,-96.43"/>
<polygon fill="#63b8ff" stroke="#63b8ff" points="1915.87,-154.73 1926.16,-152.19 1916.53,-147.76 1915.87,-154.73"/>
</g>
<!-- Node11 -->
<g id="node6" class="node">
<title>Node11</title>
<g id="a_node6"><a xlink:href="d__cc__uty_8h.html" target="_top" xlink:title=" ">
<polygon fill="#fff0f0" stroke="red" points="1741.5,-96 1622.5,-96 1622.5,-77 1741.5,-77 1741.5,-96"/>
<text text-anchor="middle" x="1682" y="-84" font-family="Helvetica,sans-Serif" font-size="10.00">include/d/cc/d_cc_uty.h</text>
</a>
</g>
</g>
<!-- Node4&#45;&gt;Node11 -->
<g id="edge5" class="edge">
<title>Node4&#45;&gt;Node11</title>
<path fill="none" stroke="#63b8ff" d="M1916.64,-143.13C1871.29,-133.47 1809.88,-120.03 1756,-107 1742.44,-103.72 1727.56,-99.85 1714.71,-96.43"/>
<polygon fill="#63b8ff" stroke="#63b8ff" points="1915.82,-146.53 1926.33,-145.19 1917.28,-139.69 1915.82,-146.53"/>
</g>
<!-- Node17 -->
<g id="node7" class="node">
<title>Node17</title>
<g id="a_node7"><a xlink:href="d__item_8h.html" target="_top" xlink:title=" ">
<polygon fill="#fff0f0" stroke="red" points="291.5,-96 196.5,-96 196.5,-77 291.5,-77 291.5,-96"/>
<text text-anchor="middle" x="244" y="-84" font-family="Helvetica,sans-Serif" font-size="10.00">include/d/d_item.h</text>
</a>
</g>
</g>
<!-- Node4&#45;&gt;Node17 -->
<g id="edge6" class="edge">
<title>Node4&#45;&gt;Node17</title>
<path fill="none" stroke="#63b8ff" d="M1916.33,-156.22C1623.73,-152.63 460.63,-136.63 300,-107 288.05,-104.8 275.22,-100.48 264.86,-96.47"/>
<polygon fill="#63b8ff" stroke="#63b8ff" points="1916.03,-159.72 1926.08,-156.34 1916.12,-152.72 1916.03,-159.72"/>
</g>
<!-- Node4&#45;&gt;Node14 -->
<g id="edge29" class="edge">
<title>Node4&#45;&gt;Node14</title>
<path fill="none" stroke="#63b8ff" d="M2049.66,-157.28C2330.2,-158.13 3402.69,-158.01 3452,-107 3464.66,-93.9 3463.95,-79.76 3452,-66 3414.06,-22.3 3243.19,-15.76 3153.84,-15.42"/>
<polygon fill="#63b8ff" stroke="#63b8ff" points="2049.98,-153.78 2039.97,-157.25 2049.96,-160.78 2049.98,-153.78"/>
</g>
<!-- Node18 -->
<g id="node9" class="node">
<title>Node18</title>
<g id="a_node9"><a xlink:href="d__a__obj__item_8cpp.html" target="_top" xlink:title=" ">
<polygon fill="white" stroke="#666666" points="181.5,-24.5 56.5,-24.5 56.5,-5.5 181.5,-5.5 181.5,-24.5"/>
<text text-anchor="middle" x="119" y="-12.5" font-family="Helvetica,sans-Serif" font-size="10.00">src/d/a/d_a_obj_item.cpp</text>
</a>
</g>
</g>
<!-- Node4&#45;&gt;Node18 -->
<g id="edge32" class="edge">
<title>Node4&#45;&gt;Node18</title>
<path fill="none" stroke="#63b8ff" d="M1916.3,-156.01C1594.31,-151.14 214.5,-129.01 176,-107 143.8,-88.59 127.22,-43.81 121.43,-24.79"/>
<polygon fill="#63b8ff" stroke="#63b8ff" points="1916.19,-159.51 1926.24,-156.16 1916.29,-152.51 1916.19,-159.51"/>
</g>
<!-- Node19 -->
<g id="node10" class="node">
<title>Node19</title>
<g id="a_node10"><a xlink:href="d__com__inf__game_8cpp.html" target="_top" xlink:title=" ">
<polygon fill="white" stroke="#666666" points="308,-30 200,-30 200,0 308,0 308,-30"/>
<text text-anchor="start" x="208" y="-18" font-family="Helvetica,sans-Serif" font-size="10.00">src/d/com/d_com_inf</text>
<text text-anchor="middle" x="254" y="-7" font-family="Helvetica,sans-Serif" font-size="10.00">_game.cpp</text>
</a>
</g>
</g>
<!-- Node4&#45;&gt;Node19 -->
<g id="edge38" class="edge">
<title>Node4&#45;&gt;Node19</title>
<path fill="none" stroke="#63b8ff" d="M1916.3,-155.77C1592.84,-149.72 202.37,-122.81 187,-107 174.3,-93.94 178.83,-82.29 187,-66 194.74,-50.56 209.76,-38.67 223.62,-30.37"/>
<polygon fill="#63b8ff" stroke="#63b8ff" points="1916.22,-159.27 1926.29,-155.95 1916.35,-152.27 1916.22,-159.27"/>
</g>
<!-- Node22 -->
<g id="node11" class="node">
<title>Node22</title>
<g id="a_node11"><a xlink:href="d__kantera__icon__meter_8h.html" target="_top" xlink:title=" ">
<polygon fill="#fff0f0" stroke="red" points="2033.5,-101.5 1932.5,-101.5 1932.5,-71.5 2033.5,-71.5 2033.5,-101.5"/>
<text text-anchor="start" x="1940.5" y="-89.5" font-family="Helvetica,sans-Serif" font-size="10.00">include/d/d_kantera</text>
<text text-anchor="middle" x="1983" y="-78.5" font-family="Helvetica,sans-Serif" font-size="10.00">_icon_meter.h</text>
</a>
</g>
</g>
<!-- Node4&#45;&gt;Node22 -->
<g id="edge10" class="edge">
<title>Node4&#45;&gt;Node22</title>
<path fill="none" stroke="#63b8ff" d="M1983,-131.26C1983,-121.33 1983,-110.36 1983,-101.88"/>
<polygon fill="#63b8ff" stroke="#63b8ff" points="1979.5,-131.09 1983,-141.09 1986.5,-131.09 1979.5,-131.09"/>
</g>
<!-- Node25 -->
<g id="node12" class="node">
<title>Node25</title>
<g id="a_node12"><a xlink:href="d__model_8h.html" target="_top" xlink:title=" ">
<polygon fill="#fff0f0" stroke="red" points="2154.5,-96 2051.5,-96 2051.5,-77 2154.5,-77 2154.5,-96"/>
<text text-anchor="middle" x="2103" y="-84" font-family="Helvetica,sans-Serif" font-size="10.00">include/d/d_model.h</text>
</a>
</g>
</g>
<!-- Node4&#45;&gt;Node25 -->
<g id="edge11" class="edge">
<title>Node4&#45;&gt;Node25</title>
<path fill="none" stroke="#63b8ff" d="M2017.68,-136.92C2040.82,-123.51 2070.12,-106.54 2087.67,-96.38"/>
<polygon fill="#63b8ff" stroke="#63b8ff" points="2016.07,-133.8 2009.17,-141.84 2019.58,-139.86 2016.07,-133.8"/>
</g>
<!-- Node27 -->
<g id="node13" class="node">
<title>Node27</title>
<g id="a_node13"><a xlink:href="d__name_8h.html" target="_top" xlink:title=" ">
<polygon fill="#fff0f0" stroke="red" points="2273.5,-96 2172.5,-96 2172.5,-77 2273.5,-77 2273.5,-96"/>
<text text-anchor="middle" x="2223" y="-84" font-family="Helvetica,sans-Serif" font-size="10.00">include/d/d_name.h</text>
</a>
</g>
</g>
<!-- Node4&#45;&gt;Node27 -->
<g id="edge12" class="edge">
<title>Node4&#45;&gt;Node27</title>
<path fill="none" stroke="#63b8ff" d="M2048.73,-139.69C2083.18,-130.4 2126,-118.52 2164,-107 2174.84,-103.71 2186.71,-99.84 2196.95,-96.42"/>
<polygon fill="#63b8ff" stroke="#63b8ff" points="2048.07,-136.24 2039.32,-142.21 2049.88,-143 2048.07,-136.24"/>
</g>
<!-- Node29 -->
<g id="node14" class="node">
<title>Node29</title>
<g id="a_node14"><a xlink:href="d__file__sel__info_8h.html" target="_top" xlink:title=" ">
<polygon fill="#fff0f0" stroke="red" points="2388,-101.5 2292,-101.5 2292,-71.5 2388,-71.5 2388,-101.5"/>
<text text-anchor="start" x="2300" y="-89.5" font-family="Helvetica,sans-Serif" font-size="10.00">include/d/file/d_file</text>
<text text-anchor="middle" x="2340" y="-78.5" font-family="Helvetica,sans-Serif" font-size="10.00">_sel_info.h</text>
</a>
</g>
</g>
<!-- Node4&#45;&gt;Node29 -->
<g id="edge13" class="edge">
<title>Node4&#45;&gt;Node29</title>
<path fill="none" stroke="#63b8ff" d="M2049.35,-149.13C2110.58,-141.12 2203.72,-127.02 2283,-107 2288.68,-105.57 2294.6,-103.83 2300.39,-101.98"/>
<polygon fill="#63b8ff" stroke="#63b8ff" points="2049.27,-145.61 2039.8,-150.36 2050.17,-152.55 2049.27,-145.61"/>
</g>
<!-- Node32 -->
<g id="node15" class="node">
<title>Node32</title>
<g id="a_node15"><a xlink:href="d__file__sel__warning_8h.html" target="_top" xlink:title=" ">
<polygon fill="#fff0f0" stroke="red" points="2502,-101.5 2406,-101.5 2406,-71.5 2502,-71.5 2502,-101.5"/>
<text text-anchor="start" x="2414" y="-89.5" font-family="Helvetica,sans-Serif" font-size="10.00">include/d/file/d_file</text>
<text text-anchor="middle" x="2454" y="-78.5" font-family="Helvetica,sans-Serif" font-size="10.00">_sel_warning.h</text>
</a>
</g>
</g>
<!-- Node4&#45;&gt;Node32 -->
<g id="edge14" class="edge">
<title>Node4&#45;&gt;Node32</title>
<path fill="none" stroke="#63b8ff" d="M2049.67,-153.26C2132.1,-147.65 2276.3,-134.61 2397,-107 2403.02,-105.62 2409.29,-103.85 2415.37,-101.93"/>
<polygon fill="#63b8ff" stroke="#63b8ff" points="2049.47,-149.76 2039.72,-153.92 2049.93,-156.75 2049.47,-149.76"/>
</g>
<!-- Node34 -->
<g id="node16" class="node">
<title>Node34</title>
<g id="a_node16"><a xlink:href="d__meter2_8h.html" target="_top" xlink:title=" ">
<polygon fill="#fff0f0" stroke="red" points="2654,-96 2520,-96 2520,-77 2654,-77 2654,-96"/>
<text text-anchor="middle" x="2587" y="-84" font-family="Helvetica,sans-Serif" font-size="10.00">include/d/meter/d_meter2.h</text>
</a>
</g>
</g>
<!-- Node4&#45;&gt;Node34 -->
<g id="edge15" class="edge">
<title>Node4&#45;&gt;Node34</title>
<path fill="none" stroke="#63b8ff" d="M2049.69,-154.04C2150.29,-148.82 2346.58,-135.7 2511,-107 2526.16,-104.35 2542.75,-100.24 2556.55,-96.48"/>
<polygon fill="#63b8ff" stroke="#63b8ff" points="2049.81,-150.53 2040,-154.53 2050.17,-157.52 2049.81,-150.53"/>
</g>
<!-- Node41 -->
<g id="node17" class="node">
<title>Node41</title>
<g id="a_node17"><a xlink:href="d__msg__object_8h.html" target="_top" xlink:title=" ">
<polygon fill="#fff0f0" stroke="red" points="2782,-101.5 2672,-101.5 2672,-71.5 2782,-71.5 2782,-101.5"/>
<text text-anchor="start" x="2680" y="-89.5" font-family="Helvetica,sans-Serif" font-size="10.00">include/d/msg/d_msg</text>
<text text-anchor="middle" x="2727" y="-78.5" font-family="Helvetica,sans-Serif" font-size="10.00">_object.h</text>
</a>
</g>
</g>
<!-- Node4&#45;&gt;Node41 -->
<g id="edge16" class="edge">
<title>Node4&#45;&gt;Node41</title>
<path fill="none" stroke="#63b8ff" d="M2049.57,-156.99C2172.05,-155.89 2440.93,-148.46 2663,-107 2669.97,-105.7 2677.24,-103.91 2684.29,-101.94"/>
<polygon fill="#63b8ff" stroke="#63b8ff" points="2049.67,-153.49 2039.69,-157.06 2049.72,-160.49 2049.67,-153.49"/>
</g>
<!-- Node55 -->
<g id="node18" class="node">
<title>Node55</title>
<g id="a_node18"><a xlink:href="d__s__logo_8h.html" target="_top" xlink:title=" ">
<polygon fill="#fff0f0" stroke="red" points="2913.5,-96 2800.5,-96 2800.5,-77 2913.5,-77 2913.5,-96"/>
<text text-anchor="middle" x="2857" y="-84" font-family="Helvetica,sans-Serif" font-size="10.00">include/d/s/d_s_logo.h</text>
</a>
</g>
</g>
<!-- Node4&#45;&gt;Node55 -->
<g id="edge18" class="edge">
<title>Node4&#45;&gt;Node55</title>
<path fill="none" stroke="#63b8ff" d="M2049.44,-154.82C2216.18,-149.04 2649.1,-132.02 2791,-107 2804.65,-104.59 2819.48,-100.36 2831.62,-96.46"/>
<polygon fill="#63b8ff" stroke="#63b8ff" points="2049.76,-151.31 2039.89,-155.15 2050,-158.3 2049.76,-151.31"/>
</g>
<!-- Node57 -->
<g id="node19" class="node">
<title>Node57</title>
<g id="a_node19"><a xlink:href="d__s__play_8h.html" target="_top" xlink:title=" ">
<polygon fill="#fff0f0" stroke="red" points="3044.5,-96 2931.5,-96 2931.5,-77 3044.5,-77 3044.5,-96"/>
<text text-anchor="middle" x="2988" y="-84" font-family="Helvetica,sans-Serif" font-size="10.00">include/d/s/d_s_play.h</text>
</a>
</g>
</g>
<!-- Node4&#45;&gt;Node57 -->
<g id="edge19" class="edge">
<title>Node4&#45;&gt;Node57</title>
<path fill="none" stroke="#63b8ff" d="M2049.68,-155.52C2235.22,-151.06 2754.83,-136.27 2923,-107 2936.58,-104.64 2951.32,-100.36 2963.33,-96.41"/>
<polygon fill="#63b8ff" stroke="#63b8ff" points="2049.64,-152.02 2039.73,-155.75 2049.81,-159.01 2049.64,-152.02"/>
</g>
<!-- Node61 -->
<g id="node20" class="node">
<title>Node61</title>
<g id="a_node20"><a xlink:href="d__msg__scrn__base_8h.html" target="_top" xlink:title=" ">
<polygon fill="#fff0f0" stroke="red" points="3161.5,-101.5 3062.5,-101.5 3062.5,-71.5 3161.5,-71.5 3161.5,-101.5"/>
<text text-anchor="start" x="3070.5" y="-89.5" font-family="Helvetica,sans-Serif" font-size="10.00">include/msg/scrn/d</text>
<text text-anchor="middle" x="3112" y="-78.5" font-family="Helvetica,sans-Serif" font-size="10.00">_msg_scrn_base.h</text>
</a>
</g>
</g>
<!-- Node4&#45;&gt;Node61 -->
<g id="edge20" class="edge">
<title>Node4&#45;&gt;Node61</title>
<path fill="none" stroke="#63b8ff" d="M2049.83,-156.3C2252.8,-153.8 2860.07,-143.39 3054,-107 3060.58,-105.77 3067.43,-103.96 3074.03,-101.93"/>
<polygon fill="#63b8ff" stroke="#63b8ff" points="2049.94,-152.8 2039.98,-156.42 2050.02,-159.8 2049.94,-152.8"/>
</g>
<!-- Node65 -->
<g id="node21" class="node">
<title>Node65</title>
<g id="a_node21"><a xlink:href="d__a__b__zant_8h.html" target="_top" xlink:title=" ">
<polygon fill="white" stroke="#666666" points="3300.5,-101.5 3179.5,-101.5 3179.5,-71.5 3300.5,-71.5 3300.5,-101.5"/>
<text text-anchor="start" x="3187.5" y="-89.5" font-family="Helvetica,sans-Serif" font-size="10.00">include/rel/d/a/b/d</text>
<text text-anchor="middle" x="3240" y="-78.5" font-family="Helvetica,sans-Serif" font-size="10.00">_a_b_zant/d_a_b_zant.h</text>
</a>
</g>
</g>
<!-- Node4&#45;&gt;Node65 -->
<g id="edge21" class="edge">
<title>Node4&#45;&gt;Node65</title>
<path fill="none" stroke="#63b8ff" d="M2049.56,-156.24C2266.63,-153.44 2952.47,-141.98 3171,-107 3178.74,-105.76 3186.86,-103.95 3194.68,-101.92"/>
<polygon fill="#63b8ff" stroke="#63b8ff" points="2049.84,-152.74 2039.88,-156.36 2049.93,-159.74 2049.84,-152.74"/>
</g>
<!-- Node66 -->
<g id="node22" class="node">
<title>Node66</title>
<g id="a_node22"><a xlink:href="d__a__skip__2D_8h.html" target="_top" xlink:title=" ">
<polygon fill="white" stroke="#666666" points="3443,-101.5 3319,-101.5 3319,-71.5 3443,-71.5 3443,-101.5"/>
<text text-anchor="start" x="3327" y="-89.5" font-family="Helvetica,sans-Serif" font-size="10.00">include/rel/d/a/d_a</text>
<text text-anchor="middle" x="3381" y="-78.5" font-family="Helvetica,sans-Serif" font-size="10.00">_skip_2D/d_a_skip_2D.h</text>
</a>
</g>
</g>
<!-- Node4&#45;&gt;Node66 -->
<g id="edge22" class="edge">
<title>Node4&#45;&gt;Node66</title>
<path fill="none" stroke="#63b8ff" d="M2049.71,-156.52C2283.24,-154.51 3063.1,-145.04 3310,-107 3317.96,-105.77 3326.3,-103.97 3334.35,-101.95"/>
<polygon fill="#63b8ff" stroke="#63b8ff" points="2049.84,-153.01 2039.87,-156.6 2049.9,-160.01 2049.84,-153.01"/>
</g>
<!-- Node67 -->
<g id="node23" class="node">
<title>Node67</title>
<g id="a_node23"><a xlink:href="d__a__spinner_8h.html" target="_top" xlink:title=" ">
<polygon fill="white" stroke="#666666" points="1914,-101.5 1798,-101.5 1798,-71.5 1914,-71.5 1914,-101.5"/>
<text text-anchor="start" x="1806" y="-89.5" font-family="Helvetica,sans-Serif" font-size="10.00">include/rel/d/a/d_a</text>
<text text-anchor="middle" x="1856" y="-78.5" font-family="Helvetica,sans-Serif" font-size="10.00">_spinner/d_a_spinner.h</text>
</a>
</g>
</g>
<!-- Node4&#45;&gt;Node67 -->
<g id="edge23" class="edge">
<title>Node4&#45;&gt;Node67</title>
<path fill="none" stroke="#63b8ff" d="M1946.72,-137.15C1926.17,-125.9 1900.92,-112.08 1882.28,-101.88"/>
<polygon fill="#63b8ff" stroke="#63b8ff" points="1944.91,-140.14 1955.36,-141.87 1948.27,-134 1944.91,-140.14"/>
</g>
<!-- Node68 -->
<g id="node24" class="node">
<title>Node68</title>
<g id="a_node24"><a xlink:href="d__a__player_8cpp.html" target="_top" xlink:title=" ">
<polygon fill="white" stroke="#666666" points="1870,-24.5 1756,-24.5 1756,-5.5 1870,-5.5 1870,-24.5"/>
<text text-anchor="middle" x="1813" y="-12.5" font-family="Helvetica,sans-Serif" font-size="10.00">src/d/a/d_a_player.cpp</text>
</a>
</g>
</g>
<!-- Node4&#45;&gt;Node68 -->
<g id="edge33" class="edge">
<title>Node4&#45;&gt;Node68</title>
<path fill="none" stroke="#63b8ff" d="M1916.47,-148.6C1866.73,-140.79 1804.71,-127.28 1789,-107 1769.48,-81.82 1793.62,-42.2 1806.24,-24.75"/>
<polygon fill="#63b8ff" stroke="#63b8ff" points="1915.94,-152.06 1926.35,-150.09 1916.98,-145.13 1915.94,-152.06"/>
</g>
<!-- Node69 -->
<g id="node25" class="node">
<title>Node69</title>
<g id="a_node25"><a xlink:href="d__a__obj__yobikusa_8h.html" target="_top" xlink:title=" ">
<polygon fill="white" stroke="#666666" points="414.5,-107 309.5,-107 309.5,-66 414.5,-66 414.5,-107"/>
<text text-anchor="start" x="317.5" y="-95" font-family="Helvetica,sans-Serif" font-size="10.00">include/rel/d/a/obj</text>
<text text-anchor="start" x="317.5" y="-84" font-family="Helvetica,sans-Serif" font-size="10.00">/d_a_obj_yobikusa/d</text>
<text text-anchor="middle" x="362" y="-73" font-family="Helvetica,sans-Serif" font-size="10.00">_a_obj_yobikusa.h</text>
</a>
</g>
</g>
<!-- Node4&#45;&gt;Node69 -->
<g id="edge26" class="edge">
<title>Node4&#45;&gt;Node69</title>
<path fill="none" stroke="#63b8ff" d="M1916.75,-155.94C1638.56,-151.34 572.36,-132.22 424,-107 421,-106.49 417.94,-105.87 414.87,-105.17"/>
<polygon fill="#63b8ff" stroke="#63b8ff" points="1916.29,-159.43 1926.35,-156.1 1916.41,-152.43 1916.29,-159.43"/>
</g>
<!-- Node70 -->
<g id="node26" class="node">
<title>Node70</title>
<g id="a_node26"><a xlink:href="d__a__tag__telop_8h.html" target="_top" xlink:title=" ">
<polygon fill="white" stroke="#666666" points="551,-107 433,-107 433,-66 551,-66 551,-107"/>
<text text-anchor="start" x="441" y="-95" font-family="Helvetica,sans-Serif" font-size="10.00">include/rel/d/a/tag</text>
<text text-anchor="start" x="441" y="-84" font-family="Helvetica,sans-Serif" font-size="10.00">/d_a_tag_telop/d_a_tag</text>
<text text-anchor="middle" x="492" y="-73" font-family="Helvetica,sans-Serif" font-size="10.00">_telop.h</text>
</a>
</g>
</g>
<!-- Node4&#45;&gt;Node70 -->
<g id="edge27" class="edge">
<title>Node4&#45;&gt;Node70</title>
<path fill="none" stroke="#63b8ff" d="M1916.38,-156.81C1672.16,-155.79 826.32,-149.21 560,-107 557.09,-106.54 554.13,-105.99 551.15,-105.38"/>
<polygon fill="#63b8ff" stroke="#63b8ff" points="1916.03,-160.31 1926.04,-156.85 1916.05,-153.31 1916.03,-160.31"/>
</g>
<!-- Node71 -->
<g id="node27" class="node">
<title>Node71</title>
<g id="a_node27"><a xlink:href="c__dylink_8cpp.html" target="_top" xlink:title=" ">
<polygon fill="white" stroke="#666666" points="664.5,-96 569.5,-96 569.5,-77 664.5,-77 664.5,-96"/>
<text text-anchor="middle" x="617" y="-84" font-family="Helvetica,sans-Serif" font-size="10.00">src/c/c_dylink.cpp</text>
</a>
</g>
</g>
<!-- Node4&#45;&gt;Node71 -->
<g id="edge28" class="edge">
<title>Node4&#45;&gt;Node71</title>
<path fill="none" stroke="#63b8ff" d="M1916.32,-157.01C1684.7,-156.65 916,-152.01 674,-107 661.87,-104.74 648.81,-100.42 638.26,-96.42"/>
<polygon fill="#63b8ff" stroke="#63b8ff" points="1916.07,-160.51 1926.07,-157.02 1916.07,-153.51 1916.07,-160.51"/>
</g>
<!-- Node72 -->
<g id="node28" class="node">
<title>Node72</title>
<g id="a_node28"><a xlink:href="d__a__itembase_8cpp.html" target="_top" xlink:title=" ">
<polygon fill="white" stroke="#666666" points="811,-96 683,-96 683,-77 811,-77 811,-96"/>
<text text-anchor="middle" x="747" y="-84" font-family="Helvetica,sans-Serif" font-size="10.00">src/d/a/d_a_itembase.cpp</text>
</a>
</g>
</g>
<!-- Node4&#45;&gt;Node72 -->
<g id="edge30" class="edge">
<title>Node4&#45;&gt;Node72</title>
<path fill="none" stroke="#63b8ff" d="M1916.44,-156.05C1702.45,-152.68 1033.69,-139.73 820,-107 804.83,-104.68 788.28,-100.4 774.78,-96.45"/>
<polygon fill="#63b8ff" stroke="#63b8ff" points="1916.21,-159.54 1926.27,-156.2 1916.32,-152.54 1916.21,-159.54"/>
</g>
<!-- Node73 -->
<g id="node29" class="node">
<title>Node73</title>
<g id="a_node29"><a xlink:href="d__a__obj_8cpp.html" target="_top" xlink:title=" ">
<polygon fill="white" stroke="#666666" points="930.5,-96 829.5,-96 829.5,-77 930.5,-77 930.5,-96"/>
<text text-anchor="middle" x="880" y="-84" font-family="Helvetica,sans-Serif" font-size="10.00">src/d/a/d_a_obj.cpp</text>
</a>
</g>
</g>
<!-- Node4&#45;&gt;Node73 -->
<g id="edge31" class="edge">
<title>Node4&#45;&gt;Node73</title>
<path fill="none" stroke="#63b8ff" d="M1916.26,-156.12C1716.99,-153.12 1128.5,-141.51 940,-107 927.39,-104.69 913.78,-100.42 902.71,-96.46"/>
<polygon fill="#63b8ff" stroke="#63b8ff" points="1916.13,-159.62 1926.19,-156.27 1916.24,-152.62 1916.13,-159.62"/>
</g>
<!-- Node4&#45;&gt;Node74 -->
<g id="edge34" class="edge">
<title>Node4&#45;&gt;Node74</title>
<path fill="none" stroke="#63b8ff" d="M2049.5,-157.03C2302.18,-156.78 3202.64,-152.65 3485,-107 3498.92,-104.75 3514.03,-100.43 3526.27,-96.43"/>
<polygon fill="#63b8ff" stroke="#63b8ff" points="2049.82,-153.53 2039.83,-157.03 2049.83,-160.53 2049.82,-153.53"/>
</g>
<!-- Node75 -->
<g id="node31" class="node">
<title>Node75</title>
<g id="a_node31"><a xlink:href="d__bg__s__movebg__actor_8cpp.html" target="_top" xlink:title=" ">
<polygon fill="white" stroke="#666666" points="3949,-101.5 3823,-101.5 3823,-71.5 3949,-71.5 3949,-101.5"/>
<text text-anchor="start" x="3831" y="-89.5" font-family="Helvetica,sans-Serif" font-size="10.00">src/d/bg/d_bg_s_movebg</text>
<text text-anchor="middle" x="3886" y="-78.5" font-family="Helvetica,sans-Serif" font-size="10.00">_actor.cpp</text>
</a>
</g>
</g>
<!-- Node4&#45;&gt;Node75 -->
<g id="edge35" class="edge">
<title>Node4&#45;&gt;Node75</title>
<path fill="none" stroke="#63b8ff" d="M2049.69,-156.46C2332.18,-153.96 3431.48,-142.15 3776,-107 3791.15,-105.45 3807.35,-103.02 3822.53,-100.4"/>
<polygon fill="#63b8ff" stroke="#63b8ff" points="2049.9,-152.96 2039.93,-156.54 2049.96,-159.96 2049.9,-152.96"/>
</g>
<!-- Node76 -->
<g id="node32" class="node">
<title>Node76</title>
<g id="a_node32"><a xlink:href="d__bg__w_8cpp.html" target="_top" xlink:title=" ">
<polygon fill="white" stroke="#666666" points="3766.5,-96 3659.5,-96 3659.5,-77 3766.5,-77 3766.5,-96"/>
<text text-anchor="middle" x="3713" y="-84" font-family="Helvetica,sans-Serif" font-size="10.00">src/d/bg/d_bg_w.cpp</text>
</a>
</g>
</g>
<!-- Node4&#45;&gt;Node76 -->
<g id="edge36" class="edge">
<title>Node4&#45;&gt;Node76</title>
<path fill="none" stroke="#63b8ff" d="M2049.61,-156.38C2315.53,-153.68 3301.65,-141.5 3612,-107 3632.77,-104.69 3655.65,-100.42 3674.37,-96.46"/>
<polygon fill="#63b8ff" stroke="#63b8ff" points="2049.71,-152.88 2039.75,-156.48 2049.78,-159.88 2049.71,-152.88"/>
</g>
<!-- Node77 -->
<g id="node33" class="node">
<title>Node77</title>
<g id="a_node33"><a xlink:href="d__cc__s_8cpp.html" target="_top" xlink:title=" ">
<polygon fill="white" stroke="#666666" points="1053,-96 949,-96 949,-77 1053,-77 1053,-96"/>
<text text-anchor="middle" x="1001" y="-84" font-family="Helvetica,sans-Serif" font-size="10.00">src/d/cc/d_cc_s.cpp</text>
</a>
</g>
</g>
<!-- Node4&#45;&gt;Node77 -->
<g id="edge37" class="edge">
<title>Node4&#45;&gt;Node77</title>
<path fill="none" stroke="#63b8ff" d="M1916.35,-155.59C1733.4,-151.36 1226.11,-137.17 1062,-107 1049.21,-104.65 1035.37,-100.37 1024.11,-96.42"/>
<polygon fill="#63b8ff" stroke="#63b8ff" points="1916.08,-159.08 1926.16,-155.81 1916.24,-152.08 1916.08,-159.08"/>
</g>
<!-- Node78 -->
<g id="node34" class="node">
<title>Node78</title>
<g id="a_node34"><a xlink:href="d__com__static_8cpp.html" target="_top" xlink:title=" ">
<polygon fill="white" stroke="#666666" points="1211,-96 1071,-96 1071,-77 1211,-77 1211,-96"/>
<text text-anchor="middle" x="1141" y="-84" font-family="Helvetica,sans-Serif" font-size="10.00">src/d/com/d_com_static.cpp</text>
</a>
</g>
</g>
<!-- Node4&#45;&gt;Node78 -->
<g id="edge39" class="edge">
<title>Node4&#45;&gt;Node78</title>
<path fill="none" stroke="#63b8ff" d="M1916.39,-156.58C1783.28,-154.86 1475.26,-146.55 1220,-107 1203.95,-104.51 1186.37,-100.32 1171.89,-96.47"/>
<polygon fill="#63b8ff" stroke="#63b8ff" points="1916.02,-160.07 1926.07,-156.69 1916.11,-153.07 1916.02,-160.07"/>
</g>
<!-- Node79 -->
<g id="node35" class="node">
<title>Node79</title>
<g id="a_node35"><a xlink:href="d__attention_8cpp.html" target="_top" xlink:title=" ">
<polygon fill="white" stroke="#666666" points="1336.5,-96 1229.5,-96 1229.5,-77 1336.5,-77 1336.5,-96"/>
<text text-anchor="middle" x="1283" y="-84" font-family="Helvetica,sans-Serif" font-size="10.00">src/d/d_attention.cpp</text>
</a>
</g>
</g>
<!-- Node4&#45;&gt;Node79 -->
<g id="edge40" class="edge">
<title>Node4&#45;&gt;Node79</title>
<path fill="none" stroke="#63b8ff" d="M1916.61,-156.72C1799.9,-155.14 1550.84,-146.9 1345,-107 1332.26,-104.53 1318.46,-100.34 1307.11,-96.48"/>
<polygon fill="#63b8ff" stroke="#63b8ff" points="1916.26,-160.22 1926.31,-156.84 1916.35,-153.22 1916.26,-160.22"/>
</g>
<!-- Node80 -->
<g id="node36" class="node">
<title>Node80</title>
<g id="a_node36"><a xlink:href="d__cam__param_8cpp.html" target="_top" xlink:title=" ">
<polygon fill="white" stroke="#666666" points="1475.5,-96 1354.5,-96 1354.5,-77 1475.5,-77 1475.5,-96"/>
<text text-anchor="middle" x="1415" y="-84" font-family="Helvetica,sans-Serif" font-size="10.00">src/d/d_cam_param.cpp</text>
</a>
</g>
</g>
<!-- Node4&#45;&gt;Node80 -->
<g id="edge41" class="edge">
<title>Node4&#45;&gt;Node80</title>
<path fill="none" stroke="#63b8ff" d="M1916.24,-154.04C1820.02,-148.93 1637.09,-136.07 1484,-107 1470.18,-104.38 1455.12,-100.27 1442.6,-96.5"/>
<polygon fill="#63b8ff" stroke="#63b8ff" points="1915.86,-157.52 1926.02,-154.55 1916.22,-150.53 1915.86,-157.52"/>
</g>
<!-- Node81 -->
<g id="node37" class="node">
<title>Node81</title>
<g id="a_node37"><a xlink:href="d__camera_8cpp.html" target="_top" xlink:title=" ">
<polygon fill="white" stroke="#666666" points="102,-96 0,-96 0,-77 102,-77 102,-96"/>
<text text-anchor="middle" x="51" y="-84" font-family="Helvetica,sans-Serif" font-size="10.00">src/d/d_camera.cpp</text>
</a>
</g>
</g>
<!-- Node4&#45;&gt;Node81 -->
<g id="edge42" class="edge">
<title>Node4&#45;&gt;Node81</title>
<path fill="none" stroke="#63b8ff" d="M1916.84,-156.27C1605.78,-152.67 296.36,-135.94 116,-107 102.27,-104.8 87.39,-100.48 75.33,-96.47"/>
<polygon fill="#63b8ff" stroke="#63b8ff" points="1916.35,-159.76 1926.39,-156.38 1916.44,-152.76 1916.35,-159.76"/>
</g>
<!-- Node17&#45;&gt;Node14 -->
<g id="edge7" class="edge">
<title>Node17&#45;&gt;Node14</title>
<path fill="none" stroke="#63b8ff" d="M275.25,-72.66C283.2,-69.95 291.8,-67.46 300,-66 370.11,-53.5 2659.16,-21.96 3044.27,-16.74"/>
<polygon fill="#63b8ff" stroke="#63b8ff" points="274.19,-69.32 266.01,-76.05 276.6,-75.9 274.19,-69.32"/>
</g>
<!-- Node17&#45;&gt;Node18 -->
<g id="edge8" class="edge">
<title>Node17&#45;&gt;Node18</title>
<path fill="none" stroke="#63b8ff" d="M218.01,-71.05C193.01,-57.15 155.99,-36.57 135.02,-24.91"/>
<polygon fill="#63b8ff" stroke="#63b8ff" points="216.15,-74.02 226.59,-75.82 219.55,-67.9 216.15,-74.02"/>
</g>
<!-- Node17&#45;&gt;Node19 -->
<g id="edge9" class="edge">
<title>Node17&#45;&gt;Node19</title>
<path fill="none" stroke="#63b8ff" d="M246.89,-65.39C248.51,-54.15 250.49,-40.41 251.95,-30.27"/>
<polygon fill="#63b8ff" stroke="#63b8ff" points="243.44,-64.8 245.48,-75.2 250.37,-65.8 243.44,-64.8"/>
</g>
<!-- Node41&#45;&gt;Node14 -->
<g id="edge17" class="edge">
<title>Node41&#45;&gt;Node14</title>
<path fill="none" stroke="#63b8ff" d="M2783.58,-68.05C2786.42,-67.33 2789.24,-66.64 2792,-66 2879.35,-45.87 2982.5,-30.82 3044.24,-22.73"/>
<polygon fill="#63b8ff" stroke="#63b8ff" points="2782.82,-64.63 2774.07,-70.61 2784.64,-71.39 2782.82,-64.63"/>
</g>
<!-- Node67&#45;&gt;Node14 -->
<g id="edge24" class="edge">
<title>Node67&#45;&gt;Node14</title>
<path fill="none" stroke="#63b8ff" d="M1911.16,-68.32C1915.14,-67.43 1919.12,-66.64 1923,-66 2143.05,-29.84 2842.64,-19 3044.18,-16.58"/>
<polygon fill="#63b8ff" stroke="#63b8ff" points="1910.33,-64.92 1901.45,-70.71 1912,-71.72 1910.33,-64.92"/>
</g>
<!-- Node67&#45;&gt;Node68 -->
<g id="edge25" class="edge">
<title>Node67&#45;&gt;Node68</title>
<path fill="none" stroke="#63b8ff" d="M1841.14,-61.49C1833.26,-48.74 1824.05,-33.86 1818.37,-24.68"/>
<polygon fill="#63b8ff" stroke="#63b8ff" points="1838.06,-63.15 1846.29,-69.81 1844.01,-59.47 1838.06,-63.15"/>
</g>
<!-- Node109&#45;&gt;Node14 -->
<g id="edge46" class="edge">
<title>Node109&#45;&gt;Node14</title>
<path fill="none" stroke="#63b8ff" d="M3750.35,-136.13C3760.57,-128.41 3770.37,-118.65 3776,-107 3783.93,-90.59 3788.4,-79.35 3776,-66 3733.99,-20.77 3307.34,-16.08 3153.74,-15.87"/>
<polygon fill="#63b8ff" stroke="#63b8ff" points="3748.42,-133.21 3742.19,-141.78 3752.41,-138.96 3748.42,-133.21"/>
</g>
<!-- Node109&#45;&gt;Node76 -->
<g id="edge47" class="edge">
<title>Node109&#45;&gt;Node76</title>
<path fill="none" stroke="#63b8ff" d="M3713,-131.46C3713,-119.07 3713,-104.99 3713,-96.18"/>
<polygon fill="#63b8ff" stroke="#63b8ff" points="3709.5,-131.09 3713,-141.09 3716.5,-131.09 3709.5,-131.09"/>
</g>
<!-- Node112 -->
<g id="node41" class="node">
<title>Node112</title>
<g id="a_node41"><a xlink:href="d__bg__s__acch_8h.html" target="_top" xlink:title=" ">
<polygon fill="#fff0f0" stroke="red" points="3706,-492 3602,-492 3602,-462 3706,-462 3706,-492"/>
<text text-anchor="start" x="3610" y="-480" font-family="Helvetica,sans-Serif" font-size="10.00">include/d/bg/d_bg_s</text>
<text text-anchor="middle" x="3654" y="-469" font-family="Helvetica,sans-Serif" font-size="10.00">_acch.h</text>
</a>
</g>
</g>
<!-- Node111&#45;&gt;Node112 -->
<g id="edge51" class="edge">
<title>Node111&#45;&gt;Node112</title>
<path fill="none" stroke="#63b8ff" d="M3694.5,-519.81C3685.62,-510.64 3675.58,-500.28 3667.72,-492.16"/>
<polygon fill="#63b8ff" stroke="#63b8ff" points="3691.72,-521.96 3701.19,-526.71 3696.74,-517.09 3691.72,-521.96"/>
</g>
<!-- Node142 -->
<g id="node48" class="node">
<title>Node142</title>
<g id="a_node48"><a xlink:href="d__camera_8h.html" target="_top" xlink:title=" ">
<polygon fill="#fff0f0" stroke="red" points="2740.5,-420.5 2631.5,-420.5 2631.5,-401.5 2740.5,-401.5 2740.5,-420.5"/>
<text text-anchor="middle" x="2686" y="-408.5" font-family="Helvetica,sans-Serif" font-size="10.00">include/d/d_camera.h</text>
</a>
</g>
</g>
<!-- Node111&#45;&gt;Node142 -->
<g id="edge63" class="edge">
<title>Node111&#45;&gt;Node142</title>
<path fill="none" stroke="#63b8ff" d="M3652.2,-533.95C3464.53,-510.26 2916.54,-441.1 2740.87,-418.93"/>
<polygon fill="#63b8ff" stroke="#63b8ff" points="3651.64,-537.41 3662,-535.19 3652.52,-530.46 3651.64,-537.41"/>
</g>
<!-- Node147 -->
<g id="node49" class="node">
<title>Node147</title>
<g id="a_node49"><a xlink:href="d__bg__s__gnd__chk_8cpp.html" target="_top" xlink:title=" ">
<polygon fill="white" stroke="#666666" points="3831.5,-492 3724.5,-492 3724.5,-462 3831.5,-462 3831.5,-492"/>
<text text-anchor="start" x="3732.5" y="-480" font-family="Helvetica,sans-Serif" font-size="10.00">src/d/bg/d_bg_s_gnd</text>
<text text-anchor="middle" x="3778" y="-469" font-family="Helvetica,sans-Serif" font-size="10.00">_chk.cpp</text>
</a>
</g>
</g>
<!-- Node111&#45;&gt;Node147 -->
<g id="edge65" class="edge">
<title>Node111&#45;&gt;Node147</title>
<path fill="none" stroke="#63b8ff" d="M3737.5,-519.81C3746.38,-510.64 3756.42,-500.28 3764.28,-492.16"/>
<polygon fill="#63b8ff" stroke="#63b8ff" points="3735.26,-517.09 3730.81,-526.71 3740.28,-521.96 3735.26,-517.09"/>
</g>
<!-- Node112&#45;&gt;Node110 -->
<g id="edge62" class="edge">
<title>Node112&#45;&gt;Node110</title>
<path fill="none" stroke="#63b8ff" d="M3658.74,-450.69C3668.98,-395.98 3692.79,-268.85 3699.32,-233.98"/>
<polygon fill="#63b8ff" stroke="#63b8ff" points="3655.34,-449.82 3656.94,-460.3 3662.22,-451.11 3655.34,-449.82"/>
</g>
<!-- Node112&#45;&gt;Node124 -->
<g id="edge52" class="edge">
<title>Node112&#45;&gt;Node124</title>
<path fill="none" stroke="#63b8ff" d="M3680.49,-454.34C3716.08,-425.24 3777.69,-374.87 3802.35,-354.71"/>
<polygon fill="#63b8ff" stroke="#63b8ff" points="3678.32,-451.59 3672.8,-460.63 3682.75,-457.01 3678.32,-451.59"/>
</g>
<!-- Node112&#45;&gt;Node128 -->
<g id="edge58" class="edge">
<title>Node112&#45;&gt;Node128</title>
<path fill="none" stroke="#63b8ff" d="M3717.63,-461.64C3782.08,-447.21 3844.69,-433.32 3887.8,-423.77"/>
<polygon fill="#63b8ff" stroke="#63b8ff" points="3716.9,-458.22 3707.9,-463.82 3718.43,-465.05 3716.9,-458.22"/>
</g>
<!-- Node124&#45;&gt;Node2 -->
<g id="edge53" class="edge">
<title>Node124&#45;&gt;Node2</title>
<path fill="none" stroke="#63b8ff" d="M3759.46,-332.69C3706.63,-321.54 3626.94,-304.7 3578.37,-294.45"/>
<polygon fill="#63b8ff" stroke="#63b8ff" points="3758.64,-336.1 3769.15,-334.74 3760.09,-329.25 3758.64,-336.1"/>
</g>
<!-- Node124&#45;&gt;Node76 -->
<g id="edge57" class="edge">
<title>Node124&#45;&gt;Node76</title>
<path fill="none" stroke="#63b8ff" d="M3813.01,-323.96C3812.21,-286.15 3806.43,-202.71 3773,-143 3761.77,-122.94 3740.73,-106.05 3726.79,-96.34"/>
<polygon fill="#63b8ff" stroke="#63b8ff" points="3809.51,-323.84 3813.11,-333.81 3816.51,-323.77 3809.51,-323.84"/>
</g>
<!-- Node125 -->
<g id="node43" class="node">
<title>Node125</title>
<g id="a_node43"><a xlink:href="d__bg__s__movebg__actor_8h.html" target="_top" xlink:title=" ">
<polygon fill="white" stroke="#666666" points="3934,-239 3830,-239 3830,-209 3934,-209 3934,-239"/>
<text text-anchor="start" x="3838" y="-227" font-family="Helvetica,sans-Serif" font-size="10.00">include/d/bg/d_bg_s</text>
<text text-anchor="middle" x="3882" y="-216" font-family="Helvetica,sans-Serif" font-size="10.00">_movebg_actor.h</text>
</a>
</g>
</g>
<!-- Node124&#45;&gt;Node125 -->
<g id="edge54" class="edge">
<title>Node124&#45;&gt;Node125</title>
<path fill="none" stroke="#63b8ff" d="M3823.93,-325.14C3837.73,-301.36 3861.14,-260.97 3873.61,-239.47"/>
<polygon fill="#63b8ff" stroke="#63b8ff" points="3820.93,-323.34 3818.95,-333.75 3826.99,-326.85 3820.93,-323.34"/>
</g>
<!-- Node126 -->
<g id="node44" class="node">
<title>Node126</title>
<g id="a_node44"><a xlink:href="d__bg__w__sv_8h.html" target="_top" xlink:title=" ">
<polygon fill="#fff0f0" stroke="red" points="3990.5,-294 3861.5,-294 3861.5,-275 3990.5,-275 3990.5,-294"/>
<text text-anchor="middle" x="3926" y="-282" font-family="Helvetica,sans-Serif" font-size="10.00">include/d/bg/d_bg_w_sv.h</text>
</a>
</g>
</g>
<!-- Node124&#45;&gt;Node126 -->
<g id="edge56" class="edge">
<title>Node124&#45;&gt;Node126</title>
<path fill="none" stroke="#63b8ff" d="M3840.21,-329.92C3861.49,-318.9 3890.44,-303.91 3908.68,-294.47"/>
<polygon fill="#63b8ff" stroke="#63b8ff" points="3838.78,-326.71 3831.51,-334.42 3842,-332.93 3838.78,-326.71"/>
</g>
<!-- Node125&#45;&gt;Node75 -->
<g id="edge55" class="edge">
<title>Node125&#45;&gt;Node75</title>
<path fill="none" stroke="#63b8ff" d="M3882.76,-197.41C3883.59,-169.17 3884.9,-124.71 3885.57,-101.96"/>
<polygon fill="#63b8ff" stroke="#63b8ff" points="3879.26,-197.14 3882.47,-207.24 3886.26,-197.35 3879.26,-197.14"/>
</g>
<!-- Node128&#45;&gt;Node124 -->
<g id="edge59" class="edge">
<title>Node128&#45;&gt;Node124</title>
<path fill="none" stroke="#63b8ff" d="M3902.18,-390.59C3878.5,-378.75 3849.36,-364.18 3830.97,-354.99"/>
<polygon fill="#63b8ff" stroke="#63b8ff" points="3900.41,-393.62 3910.92,-394.96 3903.54,-387.36 3900.41,-393.62"/>
</g>
<!-- Node129 -->
<g id="node46" class="node">
<title>Node129</title>
<g id="a_node46"><a xlink:href="d__bg__w__kcol_8h.html" target="_top" xlink:title=" ">
<polygon fill="#fff0f0" stroke="red" points="3994,-360 3888,-360 3888,-330 3994,-330 3994,-360"/>
<text text-anchor="start" x="3896" y="-348" font-family="Helvetica,sans-Serif" font-size="10.00">include/d/bg/d_bg_w</text>
<text text-anchor="middle" x="3941" y="-337" font-family="Helvetica,sans-Serif" font-size="10.00">_kcol.h</text>
</a>
</g>
</g>
<!-- Node128&#45;&gt;Node129 -->
<g id="edge60" class="edge">
<title>Node128&#45;&gt;Node129</title>
<path fill="none" stroke="#63b8ff" d="M3941,-384.39C3941,-376.13 3941,-367.28 3941,-360.16"/>
<polygon fill="#63b8ff" stroke="#63b8ff" points="3937.5,-384.28 3941,-394.28 3944.5,-384.28 3937.5,-384.28"/>
</g>
<!-- Node131 -->
<g id="node47" class="node">
<title>Node131</title>
<g id="a_node47"><a xlink:href="d__bg__w__base_8cpp.html" target="_top" xlink:title=" ">
<polygon fill="white" stroke="#666666" points="4145.5,-354.5 4012.5,-354.5 4012.5,-335.5 4145.5,-335.5 4145.5,-354.5"/>
<text text-anchor="middle" x="4079" y="-342.5" font-family="Helvetica,sans-Serif" font-size="10.00">src/d/bg/d_bg_w_base.cpp</text>
</a>
</g>
</g>
<!-- Node128&#45;&gt;Node131 -->
<g id="edge61" class="edge">
<title>Node128&#45;&gt;Node131</title>
<path fill="none" stroke="#63b8ff" d="M3982.17,-390.91C4007.82,-379.01 4039.63,-364.26 4059.62,-354.99"/>
<polygon fill="#63b8ff" stroke="#63b8ff" points="3980.94,-387.62 3973.34,-395 3983.89,-393.97 3980.94,-387.62"/>
</g>
<!-- Node142&#45;&gt;Node81 -->
<g id="edge64" class="edge">
<title>Node142&#45;&gt;Node81</title>
<path fill="none" stroke="#63b8ff" d="M2619.85,-408.71C2305.29,-402.15 976,-369.48 976,-285.5 976,-285.5 976,-285.5 976,-223 976,-34.56 321.35,-140.99 136,-107 119.77,-104.02 101.95,-100.05 86.84,-96.46"/>
<polygon fill="#63b8ff" stroke="#63b8ff" points="2619.46,-412.2 2629.53,-408.91 2619.6,-405.2 2619.46,-412.2"/>
</g>
</g>
</svg>
