<?xml version="1.0" encoding="UTF-8" standalone="no"?>
<!DOCTYPE svg PUBLIC "-//W3C//DTD SVG 1.1//EN"
 "http://www.w3.org/Graphics/SVG/1.1/DTD/svg11.dtd">
<!-- Generated by graphviz version 7.0.4 (20221203.1631)
 -->
<!-- Title: include/SSystem/SComponent/c_bg_w.h Pages: 1 -->
<svg width="4107pt" height="489pt"
 viewBox="0.00 0.00 4106.50 489.00" xmlns="http://www.w3.org/2000/svg" xmlns:xlink="http://www.w3.org/1999/xlink">
<g id="graph0" class="graph" transform="scale(1 1) rotate(0) translate(4 485)">
<title>include/SSystem/SComponent/c_bg_w.h</title>
<!-- Node1 -->
<g id="node1" class="node">
<title>Node1</title>
<g id="a_node1"><a xlink:title=" ">
<polygon fill="#999999" stroke="#666666" points="718,-481 569,-481 569,-451 718,-451 718,-481"/>
<text text-anchor="start" x="577" y="-469" font-family="Helvetica,sans-Serif" font-size="10.00">include/SSystem/SComponent</text>
<text text-anchor="middle" x="643.5" y="-458" font-family="Helvetica,sans-Serif" font-size="10.00">/c_bg_w.h</text>
</a>
</g>
</g>
<!-- Node2 -->
<g id="node2" class="node">
<title>Node2</title>
<g id="a_node2"><a xlink:href="d__bg__w__base_8h.html" target="_top" xlink:title=" ">
<polygon fill="white" stroke="#666666" points="627.5,-415 521.5,-415 521.5,-385 627.5,-385 627.5,-415"/>
<text text-anchor="start" x="529.5" y="-403" font-family="Helvetica,sans-Serif" font-size="10.00">include/d/bg/d_bg_w</text>
<text text-anchor="middle" x="574.5" y="-392" font-family="Helvetica,sans-Serif" font-size="10.00">_base.h</text>
</a>
</g>
</g>
<!-- Node1&#45;&gt;Node2 -->
<g id="edge1" class="edge">
<title>Node1&#45;&gt;Node2</title>
<path fill="none" stroke="#63b8ff" d="M619.88,-443.09C609.91,-433.85 598.61,-423.36 589.77,-415.16"/>
<polygon fill="#63b8ff" stroke="#63b8ff" points="617.37,-445.53 627.08,-449.77 622.13,-440.4 617.37,-445.53"/>
</g>
<!-- Node119 -->
<g id="node50" class="node">
<title>Node119</title>
<g id="a_node50"><a xlink:href="c__bg__w_8cpp.html" target="_top" xlink:title=" ">
<polygon fill="white" stroke="#666666" points="779.5,-415 645.5,-415 645.5,-385 779.5,-385 779.5,-415"/>
<text text-anchor="start" x="653.5" y="-403" font-family="Helvetica,sans-Serif" font-size="10.00">libs/SSystem/SComponent</text>
<text text-anchor="middle" x="712.5" y="-392" font-family="Helvetica,sans-Serif" font-size="10.00">/c_bg_w.cpp</text>
</a>
</g>
</g>
<!-- Node1&#45;&gt;Node119 -->
<g id="edge63" class="edge">
<title>Node1&#45;&gt;Node119</title>
<path fill="none" stroke="#63b8ff" d="M667.12,-443.09C677.09,-433.85 688.39,-423.36 697.23,-415.16"/>
<polygon fill="#63b8ff" stroke="#63b8ff" points="664.87,-440.4 659.92,-449.77 669.63,-445.53 664.87,-440.4"/>
</g>
<!-- Node3 -->
<g id="node3" class="node">
<title>Node3</title>
<g id="a_node3"><a xlink:href="d__bg__w_8h.html" target="_top" xlink:title=" ">
<polygon fill="white" stroke="#666666" points="408,-343.5 295,-343.5 295,-324.5 408,-324.5 408,-343.5"/>
<text text-anchor="middle" x="351.5" y="-331.5" font-family="Helvetica,sans-Serif" font-size="10.00">include/d/bg/d_bg_w.h</text>
</a>
</g>
</g>
<!-- Node2&#45;&gt;Node3 -->
<g id="edge2" class="edge">
<title>Node2&#45;&gt;Node3</title>
<path fill="none" stroke="#63b8ff" d="M513.15,-381.39C470.86,-369.26 416.4,-353.63 382.73,-343.96"/>
<polygon fill="#63b8ff" stroke="#63b8ff" points="512.14,-384.75 522.72,-384.14 514.08,-378.02 512.14,-384.75"/>
</g>
<!-- Node116 -->
<g id="node47" class="node">
<title>Node116</title>
<g id="a_node47"><a xlink:href="d__bg__w__kcol_8h.html" target="_top" xlink:title=" ">
<polygon fill="white" stroke="#666666" points="627.5,-349 521.5,-349 521.5,-319 627.5,-319 627.5,-349"/>
<text text-anchor="start" x="529.5" y="-337" font-family="Helvetica,sans-Serif" font-size="10.00">include/d/bg/d_bg_w</text>
<text text-anchor="middle" x="574.5" y="-326" font-family="Helvetica,sans-Serif" font-size="10.00">_kcol.h</text>
</a>
</g>
</g>
<!-- Node2&#45;&gt;Node116 -->
<g id="edge60" class="edge">
<title>Node2&#45;&gt;Node116</title>
<path fill="none" stroke="#63b8ff" d="M574.5,-373.39C574.5,-365.13 574.5,-356.28 574.5,-349.16"/>
<polygon fill="#63b8ff" stroke="#63b8ff" points="571,-373.28 574.5,-383.28 578,-373.28 571,-373.28"/>
</g>
<!-- Node118 -->
<g id="node49" class="node">
<title>Node118</title>
<g id="a_node49"><a xlink:href="d__bg__w__base_8cpp.html" target="_top" xlink:title=" ">
<polygon fill="white" stroke="#666666" points="779,-343.5 646,-343.5 646,-324.5 779,-324.5 779,-343.5"/>
<text text-anchor="middle" x="712.5" y="-331.5" font-family="Helvetica,sans-Serif" font-size="10.00">src/d/bg/d_bg_w_base.cpp</text>
</a>
</g>
</g>
<!-- Node2&#45;&gt;Node118 -->
<g id="edge62" class="edge">
<title>Node2&#45;&gt;Node118</title>
<path fill="none" stroke="#63b8ff" d="M615.67,-379.91C641.32,-368.01 673.13,-353.26 693.12,-343.99"/>
<polygon fill="#63b8ff" stroke="#63b8ff" points="614.44,-376.62 606.84,-384 617.39,-382.97 614.44,-376.62"/>
</g>
<!-- Node4 -->
<g id="node4" class="node">
<title>Node4</title>
<g id="a_node4"><a xlink:href="d__bg__s_8h.html" target="_top" xlink:title=" ">
<polygon fill="white" stroke="#666666" points="588,-283 477,-283 477,-264 588,-264 588,-283"/>
<text text-anchor="middle" x="532.5" y="-271" font-family="Helvetica,sans-Serif" font-size="10.00">include/d/bg/d_bg_s.h</text>
</a>
</g>
</g>
<!-- Node3&#45;&gt;Node4 -->
<g id="edge3" class="edge">
<title>Node3&#45;&gt;Node4</title>
<path fill="none" stroke="#63b8ff" d="M389.59,-320.69C424.04,-309.56 473.95,-293.42 504.75,-283.47"/>
<polygon fill="#63b8ff" stroke="#63b8ff" points="388.87,-317.24 380.43,-323.65 391.02,-323.9 388.87,-317.24"/>
</g>
<!-- Node78 -->
<g id="node35" class="node">
<title>Node78</title>
<g id="a_node35"><a xlink:href="d__bg__w_8cpp.html" target="_top" xlink:title=" ">
<polygon fill="white" stroke="#666666" points="139,-96 32,-96 32,-77 139,-77 139,-96"/>
<text text-anchor="middle" x="85.5" y="-84" font-family="Helvetica,sans-Serif" font-size="10.00">src/d/bg/d_bg_w.cpp</text>
</a>
</g>
</g>
<!-- Node3&#45;&gt;Node78 -->
<g id="edge59" class="edge">
<title>Node3&#45;&gt;Node78</title>
<path fill="none" stroke="#63b8ff" d="M322.57,-318.98C305.19,-309.9 283.12,-297.15 265.5,-283 188.16,-220.89 113.77,-125.21 91.92,-96.16"/>
<polygon fill="#63b8ff" stroke="#63b8ff" points="320.85,-322.03 331.35,-323.45 324.02,-315.79 320.85,-322.03"/>
</g>
<!-- Node113 -->
<g id="node44" class="node">
<title>Node113</title>
<g id="a_node44"><a xlink:href="d__bg__s__movebg__actor_8h.html" target="_top" xlink:title=" ">
<polygon fill="white" stroke="#666666" points="310.5,-173 206.5,-173 206.5,-143 310.5,-143 310.5,-173"/>
<text text-anchor="start" x="214.5" y="-161" font-family="Helvetica,sans-Serif" font-size="10.00">include/d/bg/d_bg_s</text>
<text text-anchor="middle" x="258.5" y="-150" font-family="Helvetica,sans-Serif" font-size="10.00">_movebg_actor.h</text>
</a>
</g>
</g>
<!-- Node3&#45;&gt;Node113 -->
<g id="edge55" class="edge">
<title>Node3&#45;&gt;Node113</title>
<path fill="none" stroke="#63b8ff" d="M319.56,-319.02C304.4,-310.74 287.47,-298.75 277.5,-283 255.6,-248.4 255.62,-197.75 257.17,-173.28"/>
<polygon fill="#63b8ff" stroke="#63b8ff" points="317.81,-322.06 328.31,-323.48 320.98,-315.82 317.81,-322.06"/>
</g>
<!-- Node114 -->
<g id="node45" class="node">
<title>Node114</title>
<g id="a_node45"><a xlink:href="d__bg__w__sv_8h.html" target="_top" xlink:title=" ">
<polygon fill="white" stroke="#666666" points="416,-283 287,-283 287,-264 416,-264 416,-283"/>
<text text-anchor="middle" x="351.5" y="-271" font-family="Helvetica,sans-Serif" font-size="10.00">include/d/bg/d_bg_w_sv.h</text>
</a>
</g>
</g>
<!-- Node3&#45;&gt;Node114 -->
<g id="edge57" class="edge">
<title>Node3&#45;&gt;Node114</title>
<path fill="none" stroke="#63b8ff" d="M351.5,-313.16C351.5,-302.95 351.5,-291.04 351.5,-283.17"/>
<polygon fill="#63b8ff" stroke="#63b8ff" points="348,-312.85 351.5,-322.85 355,-312.85 348,-312.85"/>
</g>
<!-- Node5 -->
<g id="node5" class="node">
<title>Node5</title>
<g id="a_node5"><a xlink:href="d__a__alink_8h.html" target="_top" xlink:title=" ">
<polygon fill="white" stroke="#666666" points="732.5,-228 616.5,-228 616.5,-209 732.5,-209 732.5,-228"/>
<text text-anchor="middle" x="674.5" y="-216" font-family="Helvetica,sans-Serif" font-size="10.00">include/d/a/d_a_alink.h</text>
</a>
</g>
</g>
<!-- Node4&#45;&gt;Node5 -->
<g id="edge4" class="edge">
<title>Node4&#45;&gt;Node5</title>
<path fill="none" stroke="#63b8ff" d="M567.11,-259.58C593.06,-249.9 627.9,-236.89 650.77,-228.36"/>
<polygon fill="#63b8ff" stroke="#63b8ff" points="566.15,-256.2 558.01,-262.98 568.6,-262.76 566.15,-256.2"/>
</g>
<!-- Node6 -->
<g id="node6" class="node">
<title>Node6</title>
<g id="a_node6"><a xlink:href="d__com__inf__game_8h.html" target="_top" xlink:title=" ">
<polygon fill="#fff0f0" stroke="red" points="2057.5,-173 1947.5,-173 1947.5,-143 2057.5,-143 2057.5,-173"/>
<text text-anchor="start" x="1955.5" y="-161" font-family="Helvetica,sans-Serif" font-size="10.00">include/d/com/d_com</text>
<text text-anchor="middle" x="2002.5" y="-150" font-family="Helvetica,sans-Serif" font-size="10.00">_inf_game.h</text>
</a>
</g>
</g>
<!-- Node4&#45;&gt;Node6 -->
<g id="edge49" class="edge">
<title>Node4&#45;&gt;Node6</title>
<path fill="none" stroke="#63b8ff" d="M599.83,-263.82C1130.55,-209.66 1759.62,-172.53 1947.18,-162.03"/>
<polygon fill="#63b8ff" stroke="#63b8ff" points="599.59,-260.32 590,-264.82 600.31,-267.29 599.59,-260.32"/>
</g>
<!-- Node76 -->
<g id="node33" class="node">
<title>Node76</title>
<g id="a_node33"><a xlink:href="d__bg__s_8cpp.html" target="_top" xlink:title=" ">
<polygon fill="white" stroke="#666666" points="4098.5,-96 3994.5,-96 3994.5,-77 4098.5,-77 4098.5,-96"/>
<text text-anchor="middle" x="4046.5" y="-84" font-family="Helvetica,sans-Serif" font-size="10.00">src/d/bg/d_bg_s.cpp</text>
</a>
</g>
</g>
<!-- Node4&#45;&gt;Node76 -->
<g id="edge53" class="edge">
<title>Node4&#45;&gt;Node76</title>
<path fill="none" stroke="#63b8ff" d="M599.88,-263.88C1360.57,-198.11 3219.26,-203.41 3956.5,-107 3974.89,-104.6 3995.09,-100.37 4011.69,-96.46"/>
<polygon fill="#63b8ff" stroke="#63b8ff" points="599.65,-260.39 590,-264.75 600.26,-267.36 599.65,-260.39"/>
</g>
<!-- Node111 -->
<g id="node42" class="node">
<title>Node111</title>
<g id="a_node42"><a xlink:href="d__a__horse_8h.html" target="_top" xlink:title=" ">
<polygon fill="#fff0f0" stroke="red" points="101,-173 0,-173 0,-143 101,-143 101,-173"/>
<text text-anchor="start" x="8" y="-161" font-family="Helvetica,sans-Serif" font-size="10.00">include/rel/d/a/d_a</text>
<text text-anchor="middle" x="50.5" y="-150" font-family="Helvetica,sans-Serif" font-size="10.00">_horse/d_a_horse.h</text>
</a>
</g>
</g>
<!-- Node4&#45;&gt;Node111 -->
<g id="edge50" class="edge">
<title>Node4&#45;&gt;Node111</title>
<path fill="none" stroke="#63b8ff" d="M507.76,-257.94C477.39,-240.18 428.76,-212.1 419.5,-209 306.38,-171.1 271.72,-189.03 153.5,-173 136.51,-170.7 117.95,-168.17 101.32,-165.91"/>
<polygon fill="#63b8ff" stroke="#63b8ff" points="505.94,-260.94 516.34,-262.97 509.49,-254.9 505.94,-260.94"/>
</g>
<!-- Node112 -->
<g id="node43" class="node">
<title>Node112</title>
<g id="a_node43"><a xlink:href="d__bg__s__acch_8cpp.html" target="_top" xlink:title=" ">
<polygon fill="white" stroke="#666666" points="598,-228 467,-228 467,-209 598,-209 598,-228"/>
<text text-anchor="middle" x="532.5" y="-216" font-family="Helvetica,sans-Serif" font-size="10.00">src/d/bg/d_bg_s_acch.cpp</text>
</a>
</g>
</g>
<!-- Node4&#45;&gt;Node112 -->
<g id="edge54" class="edge">
<title>Node4&#45;&gt;Node112</title>
<path fill="none" stroke="#63b8ff" d="M532.5,-252.35C532.5,-244.1 532.5,-234.97 532.5,-228.44"/>
<polygon fill="#63b8ff" stroke="#63b8ff" points="529,-252.23 532.5,-262.23 536,-252.23 529,-252.23"/>
</g>
<!-- Node5&#45;&gt;Node6 -->
<g id="edge5" class="edge">
<title>Node5&#45;&gt;Node6</title>
<path fill="none" stroke="#63b8ff" d="M744.27,-214.43C978.83,-204.09 1736.03,-170.74 1947.31,-161.43"/>
<polygon fill="#63b8ff" stroke="#63b8ff" points="744.19,-210.93 734.36,-214.86 744.5,-217.92 744.19,-210.93"/>
</g>
<!-- Node16 -->
<g id="node10" class="node">
<title>Node16</title>
<g id="a_node10"><a xlink:href="d__a__alink_8cpp.html" target="_top" xlink:title=" ">
<polygon fill="white" stroke="#666666" points="938,-24.5 829,-24.5 829,-5.5 938,-5.5 938,-24.5"/>
<text text-anchor="middle" x="883.5" y="-12.5" font-family="Helvetica,sans-Serif" font-size="10.00">src/d/a/d_a_alink.cpp</text>
</a>
</g>
</g>
<!-- Node5&#45;&gt;Node16 -->
<g id="edge48" class="edge">
<title>Node5&#45;&gt;Node16</title>
<path fill="none" stroke="#63b8ff" d="M604.8,-209.04C526.72,-204.02 229.23,-202.36 197.5,-173 162.41,-140.53 153.93,-100.99 186.5,-66 208.31,-42.56 668.21,-23.78 828.77,-17.91"/>
<polygon fill="#63b8ff" stroke="#63b8ff" points="604.29,-212.51 614.54,-209.83 604.86,-205.53 604.29,-212.51"/>
</g>
<!-- Node7 -->
<g id="node7" class="node">
<title>Node7</title>
<g id="a_node7"><a xlink:href="d__a__npc_8h.html" target="_top" xlink:title=" ">
<polygon fill="#fff0f0" stroke="red" points="3611,-96 3500,-96 3500,-77 3611,-77 3611,-96"/>
<text text-anchor="middle" x="3555.5" y="-84" font-family="Helvetica,sans-Serif" font-size="10.00">include/d/a/d_a_npc.h</text>
</a>
</g>
</g>
<!-- Node6&#45;&gt;Node7 -->
<g id="edge6" class="edge">
<title>Node6&#45;&gt;Node7</title>
<path fill="none" stroke="#63b8ff" d="M2069.18,-157.04C2320.61,-156.83 3211.17,-152.8 3490.5,-107 3504.22,-104.75 3519.1,-100.43 3531.16,-96.43"/>
<polygon fill="#63b8ff" stroke="#63b8ff" points="2069.21,-153.54 2059.21,-157.04 2069.21,-160.54 2069.21,-153.54"/>
</g>
<!-- Node13 -->
<g id="node8" class="node">
<title>Node13</title>
<g id="a_node8"><a xlink:href="d__cc__uty_8h.html" target="_top" xlink:title=" ">
<polygon fill="#fff0f0" stroke="red" points="3748,-96 3629,-96 3629,-77 3748,-77 3748,-96"/>
<text text-anchor="middle" x="3688.5" y="-84" font-family="Helvetica,sans-Serif" font-size="10.00">include/d/cc/d_cc_uty.h</text>
</a>
</g>
</g>
<!-- Node6&#45;&gt;Node13 -->
<g id="edge7" class="edge">
<title>Node6&#45;&gt;Node13</title>
<path fill="none" stroke="#63b8ff" d="M2069.33,-155.91C2354.97,-151.14 3465.85,-131.18 3620.5,-107 3634.82,-104.76 3650.38,-100.44 3663.01,-96.44"/>
<polygon fill="#63b8ff" stroke="#63b8ff" points="2069.38,-152.41 2059.44,-156.08 2069.5,-159.41 2069.38,-152.41"/>
</g>
<!-- Node19 -->
<g id="node9" class="node">
<title>Node19</title>
<g id="a_node9"><a xlink:href="d__item_8h.html" target="_top" xlink:title=" ">
<polygon fill="#fff0f0" stroke="red" points="3900,-96 3805,-96 3805,-77 3900,-77 3900,-96"/>
<text text-anchor="middle" x="3852.5" y="-84" font-family="Helvetica,sans-Serif" font-size="10.00">include/d/d_item.h</text>
</a>
</g>
</g>
<!-- Node6&#45;&gt;Node19 -->
<g id="edge8" class="edge">
<title>Node6&#45;&gt;Node19</title>
<path fill="none" stroke="#63b8ff" d="M2068.79,-156.23C2371.9,-152.57 3618.53,-135.87 3790.5,-107 3803.63,-104.8 3817.83,-100.48 3829.32,-96.47"/>
<polygon fill="#63b8ff" stroke="#63b8ff" points="2069.04,-152.73 2059.08,-156.35 2069.13,-159.73 2069.04,-152.73"/>
</g>
<!-- Node6&#45;&gt;Node16 -->
<g id="edge32" class="edge">
<title>Node6&#45;&gt;Node16</title>
<path fill="none" stroke="#63b8ff" d="M1935.77,-155.16C1767.37,-150.14 1334.33,-134.66 1275.5,-107 1252.74,-96.3 1258.86,-77.51 1236.5,-66 1185.67,-39.82 1024.35,-25.39 938.5,-19.38"/>
<polygon fill="#63b8ff" stroke="#63b8ff" points="1935.58,-158.66 1945.68,-155.45 1935.79,-151.66 1935.58,-158.66"/>
</g>
<!-- Node20 -->
<g id="node11" class="node">
<title>Node20</title>
<g id="a_node11"><a xlink:href="d__a__obj__item_8cpp.html" target="_top" xlink:title=" ">
<polygon fill="white" stroke="#666666" points="3904,-24.5 3779,-24.5 3779,-5.5 3904,-5.5 3904,-24.5"/>
<text text-anchor="middle" x="3841.5" y="-12.5" font-family="Helvetica,sans-Serif" font-size="10.00">src/d/a/d_a_obj_item.cpp</text>
</a>
</g>
</g>
<!-- Node6&#45;&gt;Node20 -->
<g id="edge35" class="edge">
<title>Node6&#45;&gt;Node20</title>
<path fill="none" stroke="#63b8ff" d="M2069.21,-155.88C2404.8,-150.15 3893.1,-123.84 3909.5,-107 3922.22,-93.95 3917.73,-82.26 3909.5,-66 3899.71,-46.65 3878.51,-32.96 3862.37,-24.86"/>
<polygon fill="#63b8ff" stroke="#63b8ff" points="2069.21,-152.38 2059.28,-156.05 2069.33,-159.38 2069.21,-152.38"/>
</g>
<!-- Node21 -->
<g id="node12" class="node">
<title>Node21</title>
<g id="a_node12"><a xlink:href="d__com__inf__game_8cpp.html" target="_top" xlink:title=" ">
<polygon fill="white" stroke="#666666" points="4030.5,-30 3922.5,-30 3922.5,0 4030.5,0 4030.5,-30"/>
<text text-anchor="start" x="3930.5" y="-18" font-family="Helvetica,sans-Serif" font-size="10.00">src/d/com/d_com_inf</text>
<text text-anchor="middle" x="3976.5" y="-7" font-family="Helvetica,sans-Serif" font-size="10.00">_game.cpp</text>
</a>
</g>
</g>
<!-- Node6&#45;&gt;Node21 -->
<g id="edge41" class="edge">
<title>Node6&#45;&gt;Node21</title>
<path fill="none" stroke="#63b8ff" d="M2069.16,-156.17C2403.79,-151.91 3886.01,-131.67 3926.5,-107 3954.36,-90.02 3967.82,-51.56 3973.31,-30.48"/>
<polygon fill="#63b8ff" stroke="#63b8ff" points="2069.22,-152.67 2059.26,-156.3 2069.3,-159.67 2069.22,-152.67"/>
</g>
<!-- Node24 -->
<g id="node13" class="node">
<title>Node24</title>
<g id="a_node13"><a xlink:href="d__kantera__icon__meter_8h.html" target="_top" xlink:title=" ">
<polygon fill="#fff0f0" stroke="red" points="607,-101.5 506,-101.5 506,-71.5 607,-71.5 607,-101.5"/>
<text text-anchor="start" x="514" y="-89.5" font-family="Helvetica,sans-Serif" font-size="10.00">include/d/d_kantera</text>
<text text-anchor="middle" x="556.5" y="-78.5" font-family="Helvetica,sans-Serif" font-size="10.00">_icon_meter.h</text>
</a>
</g>
</g>
<!-- Node6&#45;&gt;Node24 -->
<g id="edge12" class="edge">
<title>Node6&#45;&gt;Node24</title>
<path fill="none" stroke="#63b8ff" d="M1935.99,-157.04C1695.91,-156.82 874.56,-152.67 616.5,-107 609.71,-105.8 602.62,-104.01 595.8,-101.99"/>
<polygon fill="#63b8ff" stroke="#63b8ff" points="1935.8,-160.54 1945.8,-157.05 1935.81,-153.54 1935.8,-160.54"/>
</g>
<!-- Node27 -->
<g id="node14" class="node">
<title>Node27</title>
<g id="a_node14"><a xlink:href="d__model_8h.html" target="_top" xlink:title=" ">
<polygon fill="#fff0f0" stroke="red" points="728,-96 625,-96 625,-77 728,-77 728,-96"/>
<text text-anchor="middle" x="676.5" y="-84" font-family="Helvetica,sans-Serif" font-size="10.00">include/d/d_model.h</text>
</a>
</g>
</g>
<!-- Node6&#45;&gt;Node27 -->
<g id="edge13" class="edge">
<title>Node6&#45;&gt;Node27</title>
<path fill="none" stroke="#63b8ff" d="M1935.83,-156.73C1709.4,-155.45 971,-148.15 737.5,-107 724.58,-104.72 710.61,-100.4 699.3,-96.41"/>
<polygon fill="#63b8ff" stroke="#63b8ff" points="1935.64,-160.23 1945.66,-156.79 1935.68,-153.23 1935.64,-160.23"/>
</g>
<!-- Node29 -->
<g id="node15" class="node">
<title>Node29</title>
<g id="a_node15"><a xlink:href="d__name_8h.html" target="_top" xlink:title=" ">
<polygon fill="#fff0f0" stroke="red" points="847,-96 746,-96 746,-77 847,-77 847,-96"/>
<text text-anchor="middle" x="796.5" y="-84" font-family="Helvetica,sans-Serif" font-size="10.00">include/d/d_name.h</text>
</a>
</g>
</g>
<!-- Node6&#45;&gt;Node29 -->
<g id="edge14" class="edge">
<title>Node6&#45;&gt;Node29</title>
<path fill="none" stroke="#63b8ff" d="M1936.11,-156.46C1724.23,-154.36 1065.89,-144.87 856.5,-107 843.89,-104.72 830.27,-100.45 819.2,-96.49"/>
<polygon fill="#63b8ff" stroke="#63b8ff" points="1935.79,-159.95 1945.83,-156.55 1935.86,-152.95 1935.79,-159.95"/>
</g>
<!-- Node31 -->
<g id="node16" class="node">
<title>Node31</title>
<g id="a_node16"><a xlink:href="d__file__sel__info_8h.html" target="_top" xlink:title=" ">
<polygon fill="#fff0f0" stroke="red" points="961.5,-101.5 865.5,-101.5 865.5,-71.5 961.5,-71.5 961.5,-101.5"/>
<text text-anchor="start" x="873.5" y="-89.5" font-family="Helvetica,sans-Serif" font-size="10.00">include/d/file/d_file</text>
<text text-anchor="middle" x="913.5" y="-78.5" font-family="Helvetica,sans-Serif" font-size="10.00">_sel_info.h</text>
</a>
</g>
</g>
<!-- Node6&#45;&gt;Node31 -->
<g id="edge15" class="edge">
<title>Node6&#45;&gt;Node31</title>
<path fill="none" stroke="#63b8ff" d="M1935.75,-156.21C1737.85,-153.48 1156.52,-142.59 970.5,-107 964.03,-105.76 957.29,-103.95 950.81,-101.93"/>
<polygon fill="#63b8ff" stroke="#63b8ff" points="1935.56,-159.71 1945.6,-156.34 1935.65,-152.71 1935.56,-159.71"/>
</g>
<!-- Node34 -->
<g id="node17" class="node">
<title>Node34</title>
<g id="a_node17"><a xlink:href="d__file__sel__warning_8h.html" target="_top" xlink:title=" ">
<polygon fill="#fff0f0" stroke="red" points="1075.5,-101.5 979.5,-101.5 979.5,-71.5 1075.5,-71.5 1075.5,-101.5"/>
<text text-anchor="start" x="987.5" y="-89.5" font-family="Helvetica,sans-Serif" font-size="10.00">include/d/file/d_file</text>
<text text-anchor="middle" x="1027.5" y="-78.5" font-family="Helvetica,sans-Serif" font-size="10.00">_sel_warning.h</text>
</a>
</g>
</g>
<!-- Node6&#45;&gt;Node34 -->
<g id="edge16" class="edge">
<title>Node6&#45;&gt;Node34</title>
<path fill="none" stroke="#63b8ff" d="M1935.71,-155.74C1753,-151.92 1247.67,-138.72 1084.5,-107 1078.13,-105.76 1071.51,-103.98 1065.12,-101.99"/>
<polygon fill="#63b8ff" stroke="#63b8ff" points="1935.44,-159.24 1945.51,-155.94 1935.58,-152.24 1935.44,-159.24"/>
</g>
<!-- Node36 -->
<g id="node18" class="node">
<title>Node36</title>
<g id="a_node18"><a xlink:href="d__meter2_8h.html" target="_top" xlink:title=" ">
<polygon fill="#fff0f0" stroke="red" points="1227.5,-96 1093.5,-96 1093.5,-77 1227.5,-77 1227.5,-96"/>
<text text-anchor="middle" x="1160.5" y="-84" font-family="Helvetica,sans-Serif" font-size="10.00">include/d/meter/d_meter2.h</text>
</a>
</g>
</g>
<!-- Node6&#45;&gt;Node36 -->
<g id="edge17" class="edge">
<title>Node6&#45;&gt;Node36</title>
<path fill="none" stroke="#63b8ff" d="M1936.09,-156.44C1803.36,-154.47 1496.2,-145.74 1241.5,-107 1225.06,-104.5 1207.04,-100.31 1192.18,-96.45"/>
<polygon fill="#63b8ff" stroke="#63b8ff" points="1935.68,-159.93 1945.73,-156.57 1935.78,-152.93 1935.68,-159.93"/>
</g>
<!-- Node43 -->
<g id="node19" class="node">
<title>Node43</title>
<g id="a_node19"><a xlink:href="d__msg__object_8h.html" target="_top" xlink:title=" ">
<polygon fill="#fff0f0" stroke="red" points="487.5,-101.5 377.5,-101.5 377.5,-71.5 487.5,-71.5 487.5,-101.5"/>
<text text-anchor="start" x="385.5" y="-89.5" font-family="Helvetica,sans-Serif" font-size="10.00">include/d/msg/d_msg</text>
<text text-anchor="middle" x="432.5" y="-78.5" font-family="Helvetica,sans-Serif" font-size="10.00">_object.h</text>
</a>
</g>
</g>
<!-- Node6&#45;&gt;Node43 -->
<g id="edge18" class="edge">
<title>Node6&#45;&gt;Node43</title>
<path fill="none" stroke="#63b8ff" d="M1935.81,-157.11C1682.42,-157.16 779.42,-153.96 496.5,-107 489.28,-105.8 481.74,-104.01 474.47,-102"/>
<polygon fill="#63b8ff" stroke="#63b8ff" points="1935.52,-160.61 1945.52,-157.1 1935.52,-153.61 1935.52,-160.61"/>
</g>
<!-- Node48 -->
<g id="node20" class="node">
<title>Node48</title>
<g id="a_node20"><a xlink:href="d__demo_8cpp.html" target="_top" xlink:title=" ">
<polygon fill="white" stroke="#666666" points="438.5,-24.5 344.5,-24.5 344.5,-5.5 438.5,-5.5 438.5,-24.5"/>
<text text-anchor="middle" x="391.5" y="-12.5" font-family="Helvetica,sans-Serif" font-size="10.00">src/d/d_demo.cpp</text>
</a>
</g>
</g>
<!-- Node6&#45;&gt;Node48 -->
<g id="edge46" class="edge">
<title>Node6&#45;&gt;Node48</title>
<path fill="none" stroke="#63b8ff" d="M1936.08,-156.22C1633.18,-152.5 396.24,-135.6 368.5,-107 346.26,-84.07 371.56,-42.91 384.64,-24.87"/>
<polygon fill="#63b8ff" stroke="#63b8ff" points="1935.74,-159.72 1945.79,-156.34 1935.83,-152.72 1935.74,-159.72"/>
</g>
<!-- Node57 -->
<g id="node21" class="node">
<title>Node57</title>
<g id="a_node21"><a xlink:href="d__s__logo_8h.html" target="_top" xlink:title=" ">
<polygon fill="#fff0f0" stroke="red" points="1397,-96 1284,-96 1284,-77 1397,-77 1397,-96"/>
<text text-anchor="middle" x="1340.5" y="-84" font-family="Helvetica,sans-Serif" font-size="10.00">include/d/s/d_s_logo.h</text>
</a>
</g>
</g>
<!-- Node6&#45;&gt;Node57 -->
<g id="edge21" class="edge">
<title>Node6&#45;&gt;Node57</title>
<path fill="none" stroke="#63b8ff" d="M1936.05,-155.83C1825.33,-152.89 1596.49,-142.65 1406.5,-107 1393,-104.47 1378.31,-100.27 1366.22,-96.42"/>
<polygon fill="#63b8ff" stroke="#63b8ff" points="1935.76,-159.32 1945.84,-156.07 1935.93,-152.32 1935.76,-159.32"/>
</g>
<!-- Node59 -->
<g id="node22" class="node">
<title>Node59</title>
<g id="a_node22"><a xlink:href="d__s__play_8h.html" target="_top" xlink:title=" ">
<polygon fill="#fff0f0" stroke="red" points="1528,-96 1415,-96 1415,-77 1528,-77 1528,-96"/>
<text text-anchor="middle" x="1471.5" y="-84" font-family="Helvetica,sans-Serif" font-size="10.00">include/d/s/d_s_play.h</text>
</a>
</g>
</g>
<!-- Node6&#45;&gt;Node59 -->
<g id="edge22" class="edge">
<title>Node6&#45;&gt;Node59</title>
<path fill="none" stroke="#63b8ff" d="M1936.04,-153.63C1845.27,-148.16 1677.8,-135.03 1537.5,-107 1524.26,-104.35 1509.85,-100.25 1497.88,-96.48"/>
<polygon fill="#63b8ff" stroke="#63b8ff" points="1935.55,-157.1 1945.74,-154.2 1935.96,-150.12 1935.55,-157.1"/>
</g>
<!-- Node63 -->
<g id="node23" class="node">
<title>Node63</title>
<g id="a_node23"><a xlink:href="d__msg__scrn__base_8h.html" target="_top" xlink:title=" ">
<polygon fill="#fff0f0" stroke="red" points="1645,-101.5 1546,-101.5 1546,-71.5 1645,-71.5 1645,-101.5"/>
<text text-anchor="start" x="1554" y="-89.5" font-family="Helvetica,sans-Serif" font-size="10.00">include/msg/scrn/d</text>
<text text-anchor="middle" x="1595.5" y="-78.5" font-family="Helvetica,sans-Serif" font-size="10.00">_msg_scrn_base.h</text>
</a>
</g>
</g>
<!-- Node6&#45;&gt;Node63 -->
<g id="edge23" class="edge">
<title>Node6&#45;&gt;Node63</title>
<path fill="none" stroke="#63b8ff" d="M1935.73,-150.94C1865.19,-143.72 1751.03,-129.7 1654.5,-107 1648.51,-105.59 1642.27,-103.84 1636.18,-101.98"/>
<polygon fill="#63b8ff" stroke="#63b8ff" points="1935.28,-154.42 1945.58,-151.93 1935.99,-147.45 1935.28,-154.42"/>
</g>
<!-- Node67 -->
<g id="node24" class="node">
<title>Node67</title>
<g id="a_node24"><a xlink:href="d__a__b__zant_8h.html" target="_top" xlink:title=" ">
<polygon fill="white" stroke="#666666" points="1784,-101.5 1663,-101.5 1663,-71.5 1784,-71.5 1784,-101.5"/>
<text text-anchor="start" x="1671" y="-89.5" font-family="Helvetica,sans-Serif" font-size="10.00">include/rel/d/a/b/d</text>
<text text-anchor="middle" x="1723.5" y="-78.5" font-family="Helvetica,sans-Serif" font-size="10.00">_a_b_zant/d_a_b_zant.h</text>
</a>
</g>
</g>
<!-- Node6&#45;&gt;Node67 -->
<g id="edge24" class="edge">
<title>Node6&#45;&gt;Node67</title>
<path fill="none" stroke="#63b8ff" d="M1936.37,-141.84C1895.18,-132.23 1841.14,-119.33 1793.5,-107 1787.39,-105.42 1781,-103.71 1774.67,-101.99"/>
<polygon fill="#63b8ff" stroke="#63b8ff" points="1935.35,-145.19 1945.88,-144.05 1936.94,-138.37 1935.35,-145.19"/>
</g>
<!-- Node68 -->
<g id="node25" class="node">
<title>Node68</title>
<g id="a_node25"><a xlink:href="d__a__skip__2D_8h.html" target="_top" xlink:title=" ">
<polygon fill="white" stroke="#666666" points="1926.5,-101.5 1802.5,-101.5 1802.5,-71.5 1926.5,-71.5 1926.5,-101.5"/>
<text text-anchor="start" x="1810.5" y="-89.5" font-family="Helvetica,sans-Serif" font-size="10.00">include/rel/d/a/d_a</text>
<text text-anchor="middle" x="1864.5" y="-78.5" font-family="Helvetica,sans-Serif" font-size="10.00">_skip_2D/d_a_skip_2D.h</text>
</a>
</g>
</g>
<!-- Node6&#45;&gt;Node68 -->
<g id="edge25" class="edge">
<title>Node6&#45;&gt;Node68</title>
<path fill="none" stroke="#63b8ff" d="M1963.69,-137.46C1941.25,-126.15 1913.49,-112.17 1893.06,-101.88"/>
<polygon fill="#63b8ff" stroke="#63b8ff" points="1962.05,-140.55 1972.55,-141.92 1965.2,-134.29 1962.05,-140.55"/>
</g>
<!-- Node69 -->
<g id="node26" class="node">
<title>Node69</title>
<g id="a_node26"><a xlink:href="d__a__spinner_8h.html" target="_top" xlink:title=" ">
<polygon fill="white" stroke="#666666" points="2060.5,-101.5 1944.5,-101.5 1944.5,-71.5 2060.5,-71.5 2060.5,-101.5"/>
<text text-anchor="start" x="1952.5" y="-89.5" font-family="Helvetica,sans-Serif" font-size="10.00">include/rel/d/a/d_a</text>
<text text-anchor="middle" x="2002.5" y="-78.5" font-family="Helvetica,sans-Serif" font-size="10.00">_spinner/d_a_spinner.h</text>
</a>
</g>
</g>
<!-- Node6&#45;&gt;Node69 -->
<g id="edge26" class="edge">
<title>Node6&#45;&gt;Node69</title>
<path fill="none" stroke="#63b8ff" d="M2002.5,-131.26C2002.5,-121.33 2002.5,-110.36 2002.5,-101.88"/>
<polygon fill="#63b8ff" stroke="#63b8ff" points="1999,-131.09 2002.5,-141.09 2006,-131.09 1999,-131.09"/>
</g>
<!-- Node70 -->
<g id="node27" class="node">
<title>Node70</title>
<g id="a_node27"><a xlink:href="d__a__player_8cpp.html" target="_top" xlink:title=" ">
<polygon fill="white" stroke="#666666" points="2904.5,-24.5 2790.5,-24.5 2790.5,-5.5 2904.5,-5.5 2904.5,-24.5"/>
<text text-anchor="middle" x="2847.5" y="-12.5" font-family="Helvetica,sans-Serif" font-size="10.00">src/d/a/d_a_player.cpp</text>
</a>
</g>
</g>
<!-- Node6&#45;&gt;Node70 -->
<g id="edge36" class="edge">
<title>Node6&#45;&gt;Node70</title>
<path fill="none" stroke="#63b8ff" d="M2069.13,-156.36C2386.13,-153.16 3727.53,-137.84 3757.5,-107 3770.2,-93.93 3770.03,-79.23 3757.5,-66 3728.12,-34.96 3099.75,-20.69 2904.72,-17"/>
<polygon fill="#63b8ff" stroke="#63b8ff" points="2069.33,-152.86 2059.37,-156.46 2069.4,-159.86 2069.33,-152.86"/>
</g>
<!-- Node71 -->
<g id="node28" class="node">
<title>Node71</title>
<g id="a_node28"><a xlink:href="d__a__obj__yobikusa_8h.html" target="_top" xlink:title=" ">
<polygon fill="white" stroke="#666666" points="2184,-107 2079,-107 2079,-66 2184,-66 2184,-107"/>
<text text-anchor="start" x="2087" y="-95" font-family="Helvetica,sans-Serif" font-size="10.00">include/rel/d/a/obj</text>
<text text-anchor="start" x="2087" y="-84" font-family="Helvetica,sans-Serif" font-size="10.00">/d_a_obj_yobikusa/d</text>
<text text-anchor="middle" x="2131.5" y="-73" font-family="Helvetica,sans-Serif" font-size="10.00">_a_obj_yobikusa.h</text>
</a>
</g>
</g>
<!-- Node6&#45;&gt;Node71 -->
<g id="edge29" class="edge">
<title>Node6&#45;&gt;Node71</title>
<path fill="none" stroke="#63b8ff" d="M2039.02,-137.33C2056.38,-127.97 2077.11,-116.8 2094.53,-107.42"/>
<polygon fill="#63b8ff" stroke="#63b8ff" points="2037.7,-134.06 2030.56,-141.88 2041.03,-140.22 2037.7,-134.06"/>
</g>
<!-- Node72 -->
<g id="node29" class="node">
<title>Node72</title>
<g id="a_node29"><a xlink:href="d__a__tag__telop_8h.html" target="_top" xlink:title=" ">
<polygon fill="white" stroke="#666666" points="2320.5,-107 2202.5,-107 2202.5,-66 2320.5,-66 2320.5,-107"/>
<text text-anchor="start" x="2210.5" y="-95" font-family="Helvetica,sans-Serif" font-size="10.00">include/rel/d/a/tag</text>
<text text-anchor="start" x="2210.5" y="-84" font-family="Helvetica,sans-Serif" font-size="10.00">/d_a_tag_telop/d_a_tag</text>
<text text-anchor="middle" x="2261.5" y="-73" font-family="Helvetica,sans-Serif" font-size="10.00">_telop.h</text>
</a>
</g>
</g>
<!-- Node6&#45;&gt;Node72 -->
<g id="edge30" class="edge">
<title>Node6&#45;&gt;Node72</title>
<path fill="none" stroke="#63b8ff" d="M2068.84,-140.04C2105.63,-130.53 2152.16,-118.34 2193.5,-107 2196.34,-106.22 2199.25,-105.42 2202.18,-104.6"/>
<polygon fill="#63b8ff" stroke="#63b8ff" points="2068.03,-136.63 2059.22,-142.52 2069.78,-143.41 2068.03,-136.63"/>
</g>
<!-- Node73 -->
<g id="node30" class="node">
<title>Node73</title>
<g id="a_node30"><a xlink:href="c__dylink_8cpp.html" target="_top" xlink:title=" ">
<polygon fill="white" stroke="#666666" points="2434,-96 2339,-96 2339,-77 2434,-77 2434,-96"/>
<text text-anchor="middle" x="2386.5" y="-84" font-family="Helvetica,sans-Serif" font-size="10.00">src/c/c_dylink.cpp</text>
</a>
</g>
</g>
<!-- Node6&#45;&gt;Node73 -->
<g id="edge31" class="edge">
<title>Node6&#45;&gt;Node73</title>
<path fill="none" stroke="#63b8ff" d="M2068.91,-150.35C2135.47,-142.87 2240.53,-128.84 2329.5,-107 2340.88,-104.21 2353.21,-100.13 2363.48,-96.42"/>
<polygon fill="#63b8ff" stroke="#63b8ff" points="2068.82,-146.84 2059.27,-151.42 2069.59,-153.8 2068.82,-146.84"/>
</g>
<!-- Node74 -->
<g id="node31" class="node">
<title>Node74</title>
<g id="a_node31"><a xlink:href="d__a__itembase_8cpp.html" target="_top" xlink:title=" ">
<polygon fill="white" stroke="#666666" points="2580.5,-96 2452.5,-96 2452.5,-77 2580.5,-77 2580.5,-96"/>
<text text-anchor="middle" x="2516.5" y="-84" font-family="Helvetica,sans-Serif" font-size="10.00">src/d/a/d_a_itembase.cpp</text>
</a>
</g>
</g>
<!-- Node6&#45;&gt;Node74 -->
<g id="edge33" class="edge">
<title>Node6&#45;&gt;Node74</title>
<path fill="none" stroke="#63b8ff" d="M2069.15,-152.53C2155.91,-146.01 2311.99,-131.88 2443.5,-107 2457.94,-104.27 2473.71,-100.2 2486.89,-96.48"/>
<polygon fill="#63b8ff" stroke="#63b8ff" points="2069.12,-149.03 2059.4,-153.25 2069.63,-156.01 2069.12,-149.03"/>
</g>
<!-- Node75 -->
<g id="node32" class="node">
<title>Node75</title>
<g id="a_node32"><a xlink:href="d__a__obj_8cpp.html" target="_top" xlink:title=" ">
<polygon fill="white" stroke="#666666" points="2700,-96 2599,-96 2599,-77 2700,-77 2700,-96"/>
<text text-anchor="middle" x="2649.5" y="-84" font-family="Helvetica,sans-Serif" font-size="10.00">src/d/a/d_a_obj.cpp</text>
</a>
</g>
</g>
<!-- Node6&#45;&gt;Node75 -->
<g id="edge34" class="edge">
<title>Node6&#45;&gt;Node75</title>
<path fill="none" stroke="#63b8ff" d="M2068.91,-156.28C2178.43,-153.99 2403.36,-144.66 2589.5,-107 2601.85,-104.5 2615.21,-100.31 2626.18,-96.46"/>
<polygon fill="#63b8ff" stroke="#63b8ff" points="2069.16,-152.77 2059.23,-156.47 2069.3,-159.77 2069.16,-152.77"/>
</g>
<!-- Node6&#45;&gt;Node76 -->
<g id="edge37" class="edge">
<title>Node6&#45;&gt;Node76</title>
<path fill="none" stroke="#63b8ff" d="M2069.38,-156.35C2392.99,-153.06 3788.71,-137.22 3980.5,-107 3994.43,-104.81 4009.54,-100.49 4021.78,-96.48"/>
<polygon fill="#63b8ff" stroke="#63b8ff" points="2069.35,-152.85 2059.39,-156.45 2069.42,-159.85 2069.35,-152.85"/>
</g>
<!-- Node77 -->
<g id="node34" class="node">
<title>Node77</title>
<g id="a_node34"><a xlink:href="d__bg__s__movebg__actor_8cpp.html" target="_top" xlink:title=" ">
<polygon fill="white" stroke="#666666" points="321.5,-101.5 195.5,-101.5 195.5,-71.5 321.5,-71.5 321.5,-101.5"/>
<text text-anchor="start" x="203.5" y="-89.5" font-family="Helvetica,sans-Serif" font-size="10.00">src/d/bg/d_bg_s_movebg</text>
<text text-anchor="middle" x="258.5" y="-78.5" font-family="Helvetica,sans-Serif" font-size="10.00">_actor.cpp</text>
</a>
</g>
</g>
<!-- Node6&#45;&gt;Node77 -->
<g id="edge38" class="edge">
<title>Node6&#45;&gt;Node77</title>
<path fill="none" stroke="#63b8ff" d="M1936.03,-156.94C1666.29,-156.39 652.64,-151.37 335.5,-107 326.9,-105.8 317.86,-104 309.13,-101.99"/>
<polygon fill="#63b8ff" stroke="#63b8ff" points="1935.67,-160.44 1945.68,-156.96 1935.69,-153.44 1935.67,-160.44"/>
</g>
<!-- Node6&#45;&gt;Node78 -->
<g id="edge39" class="edge">
<title>Node6&#45;&gt;Node78</title>
<path fill="none" stroke="#63b8ff" d="M1935.89,-156.62C1651.24,-154.79 535.55,-145.24 186.5,-107 165.73,-104.72 142.85,-100.46 124.12,-96.49"/>
<polygon fill="#63b8ff" stroke="#63b8ff" points="1935.71,-160.12 1945.73,-156.69 1935.76,-153.12 1935.71,-160.12"/>
</g>
<!-- Node79 -->
<g id="node36" class="node">
<title>Node79</title>
<g id="a_node36"><a xlink:href="d__cc__s_8cpp.html" target="_top" xlink:title=" ">
<polygon fill="white" stroke="#666666" points="2822.5,-96 2718.5,-96 2718.5,-77 2822.5,-77 2822.5,-96"/>
<text text-anchor="middle" x="2770.5" y="-84" font-family="Helvetica,sans-Serif" font-size="10.00">src/d/cc/d_cc_s.cpp</text>
</a>
</g>
</g>
<!-- Node6&#45;&gt;Node79 -->
<g id="edge40" class="edge">
<title>Node6&#45;&gt;Node79</title>
<path fill="none" stroke="#63b8ff" d="M2068.98,-157.55C2195.08,-157.45 2477.2,-151.68 2709.5,-107 2722.17,-104.56 2735.88,-100.33 2747.09,-96.43"/>
<polygon fill="#63b8ff" stroke="#63b8ff" points="2069.15,-154.05 2059.14,-157.55 2069.14,-161.05 2069.15,-154.05"/>
</g>
<!-- Node80 -->
<g id="node37" class="node">
<title>Node80</title>
<g id="a_node37"><a xlink:href="d__com__static_8cpp.html" target="_top" xlink:title=" ">
<polygon fill="white" stroke="#666666" points="2980.5,-96 2840.5,-96 2840.5,-77 2980.5,-77 2980.5,-96"/>
<text text-anchor="middle" x="2910.5" y="-84" font-family="Helvetica,sans-Serif" font-size="10.00">src/d/com/d_com_static.cpp</text>
</a>
</g>
</g>
<!-- Node6&#45;&gt;Node80 -->
<g id="edge42" class="edge">
<title>Node6&#45;&gt;Node80</title>
<path fill="none" stroke="#63b8ff" d="M2069.11,-157.07C2210.44,-156.33 2550.4,-149.81 2831.5,-107 2847.7,-104.53 2865.44,-100.3 2880,-96.4"/>
<polygon fill="#63b8ff" stroke="#63b8ff" points="2069.17,-153.57 2059.18,-157.12 2069.2,-160.57 2069.17,-153.57"/>
</g>
<!-- Node81 -->
<g id="node38" class="node">
<title>Node81</title>
<g id="a_node38"><a xlink:href="d__attention_8cpp.html" target="_top" xlink:title=" ">
<polygon fill="white" stroke="#666666" points="3106,-96 2999,-96 2999,-77 3106,-77 3106,-96"/>
<text text-anchor="middle" x="3052.5" y="-84" font-family="Helvetica,sans-Serif" font-size="10.00">src/d/d_attention.cpp</text>
</a>
</g>
</g>
<!-- Node6&#45;&gt;Node81 -->
<g id="edge43" class="edge">
<title>Node6&#45;&gt;Node81</title>
<path fill="none" stroke="#63b8ff" d="M2069.24,-155.79C2261.15,-151.95 2812.04,-138.45 2989.5,-107 3002.69,-104.66 3016.98,-100.39 3028.62,-96.44"/>
<polygon fill="#63b8ff" stroke="#63b8ff" points="2069.38,-152.28 2059.45,-155.98 2069.51,-159.28 2069.38,-152.28"/>
</g>
<!-- Node82 -->
<g id="node39" class="node">
<title>Node82</title>
<g id="a_node39"><a xlink:href="d__cam__param_8cpp.html" target="_top" xlink:title=" ">
<polygon fill="white" stroke="#666666" points="3245,-96 3124,-96 3124,-77 3245,-77 3245,-96"/>
<text text-anchor="middle" x="3184.5" y="-84" font-family="Helvetica,sans-Serif" font-size="10.00">src/d/d_cam_param.cpp</text>
</a>
</g>
</g>
<!-- Node6&#45;&gt;Node82 -->
<g id="edge44" class="edge">
<title>Node6&#45;&gt;Node82</title>
<path fill="none" stroke="#63b8ff" d="M2069.02,-156.02C2276.84,-152.65 2912.16,-139.85 3115.5,-107 3129.88,-104.68 3145.53,-100.4 3158.28,-96.45"/>
<polygon fill="#63b8ff" stroke="#63b8ff" points="2069.15,-152.52 2059.21,-156.18 2069.27,-159.52 2069.15,-152.52"/>
</g>
<!-- Node83 -->
<g id="node40" class="node">
<title>Node83</title>
<g id="a_node40"><a xlink:href="d__camera_8cpp.html" target="_top" xlink:title=" ">
<polygon fill="white" stroke="#666666" points="3365.5,-96 3263.5,-96 3263.5,-77 3365.5,-77 3365.5,-96"/>
<text text-anchor="middle" x="3314.5" y="-84" font-family="Helvetica,sans-Serif" font-size="10.00">src/d/d_camera.cpp</text>
</a>
</g>
</g>
<!-- Node6&#45;&gt;Node83 -->
<g id="edge45" class="edge">
<title>Node6&#45;&gt;Node83</title>
<path fill="none" stroke="#63b8ff" d="M2069.26,-156.74C2294.28,-155.5 3023.77,-148.29 3254.5,-107 3267.22,-104.72 3280.96,-100.4 3292.08,-96.41"/>
<polygon fill="#63b8ff" stroke="#63b8ff" points="2069.48,-153.24 2059.5,-156.79 2069.51,-160.24 2069.48,-153.24"/>
</g>
<!-- Node84 -->
<g id="node41" class="node">
<title>Node84</title>
<g id="a_node41"><a xlink:href="d__eye__hl_8cpp.html" target="_top" xlink:title=" ">
<polygon fill="white" stroke="#666666" points="3481.5,-96 3383.5,-96 3383.5,-77 3481.5,-77 3481.5,-96"/>
<text text-anchor="middle" x="3432.5" y="-84" font-family="Helvetica,sans-Serif" font-size="10.00">src/d/d_eye_hl.cpp</text>
</a>
</g>
</g>
<!-- Node6&#45;&gt;Node84 -->
<g id="edge47" class="edge">
<title>Node6&#45;&gt;Node84</title>
<path fill="none" stroke="#63b8ff" d="M2069.16,-157.1C2307.9,-157.08 3119.57,-153.49 3374.5,-107 3386.83,-104.75 3400.12,-100.43 3410.86,-96.43"/>
<polygon fill="#63b8ff" stroke="#63b8ff" points="2069.41,-153.6 2059.41,-157.1 2069.41,-160.6 2069.41,-153.6"/>
</g>
<!-- Node19&#45;&gt;Node16 -->
<g id="edge9" class="edge">
<title>Node19&#45;&gt;Node16</title>
<path fill="none" stroke="#63b8ff" d="M3805.43,-74.05C3790.23,-70.83 3773.24,-67.74 3757.5,-66 3467.64,-34.01 1310.99,-18.75 938.29,-16.34"/>
<polygon fill="#63b8ff" stroke="#63b8ff" points="3804.66,-77.46 3815.18,-76.19 3806.16,-70.62 3804.66,-77.46"/>
</g>
<!-- Node19&#45;&gt;Node20 -->
<g id="edge10" class="edge">
<title>Node19&#45;&gt;Node20</title>
<path fill="none" stroke="#63b8ff" d="M3849.37,-65.71C3847.24,-52.29 3844.54,-35.2 3842.92,-24.95"/>
<polygon fill="#63b8ff" stroke="#63b8ff" points="3845.85,-65.87 3850.87,-75.2 3852.76,-64.78 3845.85,-65.87"/>
</g>
<!-- Node19&#45;&gt;Node21 -->
<g id="edge11" class="edge">
<title>Node19&#45;&gt;Node21</title>
<path fill="none" stroke="#63b8ff" d="M3878.39,-70.99C3899.6,-59.1 3929.48,-42.35 3950.68,-30.47"/>
<polygon fill="#63b8ff" stroke="#63b8ff" points="3876.79,-67.87 3869.78,-75.82 3880.21,-73.98 3876.79,-67.87"/>
</g>
<!-- Node43&#45;&gt;Node16 -->
<g id="edge19" class="edge">
<title>Node43&#45;&gt;Node16</title>
<path fill="none" stroke="#63b8ff" d="M487.41,-68.13C490.47,-67.36 493.52,-66.64 496.5,-66 613.39,-40.83 753.06,-26.6 828.53,-20.19"/>
<polygon fill="#63b8ff" stroke="#63b8ff" points="486.53,-64.74 477.78,-70.7 488.34,-71.5 486.53,-64.74"/>
</g>
<!-- Node43&#45;&gt;Node48 -->
<g id="edge20" class="edge">
<title>Node43&#45;&gt;Node48</title>
<path fill="none" stroke="#63b8ff" d="M418.33,-61.49C410.81,-48.74 402.03,-33.86 396.62,-24.68"/>
<polygon fill="#63b8ff" stroke="#63b8ff" points="415.14,-62.96 423.24,-69.8 421.17,-59.4 415.14,-62.96"/>
</g>
<!-- Node69&#45;&gt;Node16 -->
<g id="edge27" class="edge">
<title>Node69&#45;&gt;Node16</title>
<path fill="none" stroke="#63b8ff" d="M1947.15,-68.3C1943.23,-67.42 1939.32,-66.64 1935.5,-66 1740.72,-33.5 1125.7,-20.25 938.26,-16.9"/>
<polygon fill="#63b8ff" stroke="#63b8ff" points="1946.13,-71.66 1956.68,-70.65 1947.81,-64.86 1946.13,-71.66"/>
</g>
<!-- Node69&#45;&gt;Node70 -->
<g id="edge28" class="edge">
<title>Node69&#45;&gt;Node70</title>
<path fill="none" stroke="#63b8ff" d="M2058.89,-68.33C2062.8,-67.45 2066.69,-66.66 2070.5,-66 2336.87,-19.79 2661.28,-15.27 2790.46,-15.5"/>
<polygon fill="#63b8ff" stroke="#63b8ff" points="2058.26,-64.89 2049.38,-70.66 2059.92,-71.68 2058.26,-64.89"/>
</g>
<!-- Node111&#45;&gt;Node16 -->
<g id="edge51" class="edge">
<title>Node111&#45;&gt;Node16</title>
<path fill="none" stroke="#63b8ff" d="M32.11,-133.58C18.53,-113.29 5.15,-84.39 22.5,-66 36.39,-51.28 641.19,-25.75 828.68,-18.18"/>
<polygon fill="#63b8ff" stroke="#63b8ff" points="29.13,-135.42 37.78,-141.53 34.83,-131.36 29.13,-135.42"/>
</g>
<!-- Node111&#45;&gt;Node78 -->
<g id="edge52" class="edge">
<title>Node111&#45;&gt;Node78</title>
<path fill="none" stroke="#63b8ff" d="M62.78,-132.61C69.16,-119.94 76.55,-105.27 81.13,-96.18"/>
<polygon fill="#63b8ff" stroke="#63b8ff" points="59.8,-130.74 58.43,-141.25 66.06,-133.89 59.8,-130.74"/>
</g>
<!-- Node113&#45;&gt;Node77 -->
<g id="edge56" class="edge">
<title>Node113&#45;&gt;Node77</title>
<path fill="none" stroke="#63b8ff" d="M258.5,-131.26C258.5,-121.33 258.5,-110.36 258.5,-101.88"/>
<polygon fill="#63b8ff" stroke="#63b8ff" points="255,-131.09 258.5,-141.09 262,-131.09 255,-131.09"/>
</g>
<!-- Node115 -->
<g id="node46" class="node">
<title>Node115</title>
<g id="a_node46"><a xlink:href="d__bg__w__sv_8cpp.html" target="_top" xlink:title=" ">
<polygon fill="white" stroke="#666666" points="410.5,-228 288.5,-228 288.5,-209 410.5,-209 410.5,-228"/>
<text text-anchor="middle" x="349.5" y="-216" font-family="Helvetica,sans-Serif" font-size="10.00">src/d/bg/d_bg_w_sv.cpp</text>
</a>
</g>
</g>
<!-- Node114&#45;&gt;Node115 -->
<g id="edge58" class="edge">
<title>Node114&#45;&gt;Node115</title>
<path fill="none" stroke="#63b8ff" d="M350.74,-252.35C350.43,-244.1 350.08,-234.97 349.84,-228.44"/>
<polygon fill="#63b8ff" stroke="#63b8ff" points="347.24,-252.37 351.11,-262.24 354.23,-252.11 347.24,-252.37"/>
</g>
<!-- Node117 -->
<g id="node48" class="node">
<title>Node117</title>
<g id="a_node48"><a xlink:href="d__bg__w__kcol_8cpp.html" target="_top" xlink:title=" ">
<polygon fill="white" stroke="#666666" points="736.5,-283 606.5,-283 606.5,-264 736.5,-264 736.5,-283"/>
<text text-anchor="middle" x="671.5" y="-271" font-family="Helvetica,sans-Serif" font-size="10.00">src/d/bg/d_bg_w_kcol.cpp</text>
</a>
</g>
</g>
<!-- Node116&#45;&gt;Node117 -->
<g id="edge61" class="edge">
<title>Node116&#45;&gt;Node117</title>
<path fill="none" stroke="#63b8ff" d="M607.92,-312.84C624.59,-302.79 643.91,-291.14 656.83,-283.35"/>
<polygon fill="#63b8ff" stroke="#63b8ff" points="606.53,-309.6 599.77,-317.76 610.14,-315.59 606.53,-309.6"/>
</g>
</g>
</svg>
