<?xml version="1.0" encoding="UTF-8" standalone="no"?>
<!DOCTYPE svg PUBLIC "-//W3C//DTD SVG 1.1//EN"
 "http://www.w3.org/Graphics/SVG/1.1/DTD/svg11.dtd">
<!-- Generated by graphviz version 7.0.4 (20221203.1631)
 -->
<!-- Title: include/SSystem/SComponent/c_bg_s_lin_chk.h Pages: 1 -->
<svg width="4171pt" height="632pt"
 viewBox="0.00 0.00 4171.00 632.00" xmlns="http://www.w3.org/2000/svg" xmlns:xlink="http://www.w3.org/1999/xlink">
<g id="graph0" class="graph" transform="scale(1 1) rotate(0) translate(4 628)">
<title>include/SSystem/SComponent/c_bg_s_lin_chk.h</title>
<!-- Node1 -->
<g id="node1" class="node">
<title>Node1</title>
<g id="a_node1"><a xlink:title=" ">
<polygon fill="#999999" stroke="#666666" points="3790.5,-624 3641.5,-624 3641.5,-594 3790.5,-594 3790.5,-624"/>
<text text-anchor="start" x="3649.5" y="-612" font-family="Helvetica,sans-Serif" font-size="10.00">include/SSystem/SComponent</text>
<text text-anchor="middle" x="3716" y="-601" font-family="Helvetica,sans-Serif" font-size="10.00">/c_bg_s_lin_chk.h</text>
</a>
</g>
</g>
<!-- Node2 -->
<g id="node2" class="node">
<title>Node2</title>
<g id="a_node2"><a xlink:href="d__bg__s_8h.html" target="_top" xlink:title=" ">
<polygon fill="white" stroke="#666666" points="3421.5,-294 3310.5,-294 3310.5,-275 3421.5,-275 3421.5,-294"/>
<text text-anchor="middle" x="3366" y="-282" font-family="Helvetica,sans-Serif" font-size="10.00">include/d/bg/d_bg_s.h</text>
</a>
</g>
</g>
<!-- Node1&#45;&gt;Node2 -->
<g id="edge1" class="edge">
<title>Node1&#45;&gt;Node2</title>
<path fill="none" stroke="#63b8ff" d="M3629.66,-607.47C3537.02,-601.8 3403,-576.57 3403,-478 3403,-478 3403,-478 3403,-410 3403,-364.9 3380.42,-314.28 3370.54,-294.29"/>
<polygon fill="#63b8ff" stroke="#63b8ff" points="3629.34,-610.96 3639.52,-608 3629.72,-603.97 3629.34,-610.96"/>
</g>
<!-- Node111 -->
<g id="node38" class="node">
<title>Node111</title>
<g id="a_node38"><a xlink:href="d__bg__s__lin__chk_8h.html" target="_top" xlink:title=" ">
<polygon fill="white" stroke="#666666" points="3768,-558 3664,-558 3664,-528 3768,-528 3768,-558"/>
<text text-anchor="start" x="3672" y="-546" font-family="Helvetica,sans-Serif" font-size="10.00">include/d/bg/d_bg_s</text>
<text text-anchor="middle" x="3716" y="-535" font-family="Helvetica,sans-Serif" font-size="10.00">_lin_chk.h</text>
</a>
</g>
</g>
<!-- Node1&#45;&gt;Node111 -->
<g id="edge48" class="edge">
<title>Node1&#45;&gt;Node111</title>
<path fill="none" stroke="#63b8ff" d="M3716,-582.39C3716,-574.13 3716,-565.28 3716,-558.16"/>
<polygon fill="#63b8ff" stroke="#63b8ff" points="3712.5,-582.28 3716,-592.28 3719.5,-582.28 3712.5,-582.28"/>
</g>
<!-- Node124 -->
<g id="node40" class="node">
<title>Node124</title>
<g id="a_node40"><a xlink:href="d__bg__w_8h.html" target="_top" xlink:title=" ">
<polygon fill="white" stroke="#666666" points="3599.5,-354.5 3486.5,-354.5 3486.5,-335.5 3599.5,-335.5 3599.5,-354.5"/>
<text text-anchor="middle" x="3543" y="-342.5" font-family="Helvetica,sans-Serif" font-size="10.00">include/d/bg/d_bg_w.h</text>
</a>
</g>
</g>
<!-- Node1&#45;&gt;Node124 -->
<g id="edge67" class="edge">
<title>Node1&#45;&gt;Node124</title>
<path fill="none" stroke="#63b8ff" d="M3672.79,-588.78C3618.37,-561.68 3528.31,-506.4 3498,-426 3493.3,-413.52 3493.22,-408.45 3498,-396 3504.61,-378.77 3520.2,-363.76 3531.17,-354.8"/>
<polygon fill="#63b8ff" stroke="#63b8ff" points="3670.96,-591.78 3681.49,-593 3674.02,-585.48 3670.96,-591.78"/>
</g>
<!-- Node128 -->
<g id="node43" class="node">
<title>Node128</title>
<g id="a_node43"><a xlink:href="d__bg__w__base_8h.html" target="_top" xlink:title=" ">
<polygon fill="white" stroke="#666666" points="3932,-426 3826,-426 3826,-396 3932,-396 3932,-426"/>
<text text-anchor="start" x="3834" y="-414" font-family="Helvetica,sans-Serif" font-size="10.00">include/d/bg/d_bg_w</text>
<text text-anchor="middle" x="3879" y="-403" font-family="Helvetica,sans-Serif" font-size="10.00">_base.h</text>
</a>
</g>
</g>
<!-- Node1&#45;&gt;Node128 -->
<g id="edge68" class="edge">
<title>Node1&#45;&gt;Node128</title>
<path fill="none" stroke="#63b8ff" d="M3801.85,-595.56C3863.47,-581.66 3942.36,-552.54 3982,-492 3989.3,-480.85 3989.08,-473.3 3982,-462 3970.87,-444.23 3951.42,-432.61 3932.4,-425.1"/>
<polygon fill="#63b8ff" stroke="#63b8ff" points="3801.47,-592.06 3792.43,-597.59 3802.94,-598.91 3801.47,-592.06"/>
</g>
<!-- Node148 -->
<g id="node50" class="node">
<title>Node148</title>
<g id="a_node50"><a xlink:href="c__bg__s__lin__chk_8cpp.html" target="_top" xlink:title=" ">
<polygon fill="white" stroke="#666666" points="4163,-558 4029,-558 4029,-528 4163,-528 4163,-558"/>
<text text-anchor="start" x="4037" y="-546" font-family="Helvetica,sans-Serif" font-size="10.00">libs/SSystem/SComponent</text>
<text text-anchor="middle" x="4096" y="-535" font-family="Helvetica,sans-Serif" font-size="10.00">/c_bg_s_lin_chk.cpp</text>
</a>
</g>
</g>
<!-- Node1&#45;&gt;Node148 -->
<g id="edge69" class="edge">
<title>Node1&#45;&gt;Node148</title>
<path fill="none" stroke="#63b8ff" d="M3802.25,-593.71C3861.99,-583.77 3943.35,-570.18 4015,-558 4019.5,-557.23 4024.14,-556.44 4028.82,-555.64"/>
<polygon fill="#63b8ff" stroke="#63b8ff" points="3801.76,-590.24 3792.47,-595.33 3802.91,-597.14 3801.76,-590.24"/>
</g>
<!-- Node3 -->
<g id="node3" class="node">
<title>Node3</title>
<g id="a_node3"><a xlink:href="d__a__alink_8h.html" target="_top" xlink:title=" ">
<polygon fill="white" stroke="#666666" points="3342,-233.5 3226,-233.5 3226,-214.5 3342,-214.5 3342,-233.5"/>
<text text-anchor="middle" x="3284" y="-221.5" font-family="Helvetica,sans-Serif" font-size="10.00">include/d/a/d_a_alink.h</text>
</a>
</g>
</g>
<!-- Node2&#45;&gt;Node3 -->
<g id="edge2" class="edge">
<title>Node2&#45;&gt;Node3</title>
<path fill="none" stroke="#63b8ff" d="M3344.33,-268.04C3329.1,-257.17 3309.26,-243.02 3296.57,-233.97"/>
<polygon fill="#63b8ff" stroke="#63b8ff" points="3342.14,-270.78 3352.31,-273.74 3346.21,-265.08 3342.14,-270.78"/>
</g>
<!-- Node4 -->
<g id="node4" class="node">
<title>Node4</title>
<g id="a_node4"><a xlink:href="d__com__inf__game_8h.html" target="_top" xlink:title=" ">
<polygon fill="#fff0f0" stroke="red" points="1950,-173 1840,-173 1840,-143 1950,-143 1950,-173"/>
<text text-anchor="start" x="1848" y="-161" font-family="Helvetica,sans-Serif" font-size="10.00">include/d/com/d_com</text>
<text text-anchor="middle" x="1895" y="-150" font-family="Helvetica,sans-Serif" font-size="10.00">_inf_game.h</text>
</a>
</g>
</g>
<!-- Node2&#45;&gt;Node4 -->
<g id="edge42" class="edge">
<title>Node2&#45;&gt;Node4</title>
<path fill="none" stroke="#63b8ff" d="M3298.72,-277.81C3049.06,-256.68 2178.4,-182.99 1950.14,-163.67"/>
<polygon fill="#63b8ff" stroke="#63b8ff" points="3298.36,-281.29 3308.62,-278.64 3298.95,-274.31 3298.36,-281.29"/>
</g>
<!-- Node74 -->
<g id="node30" class="node">
<title>Node74</title>
<g id="a_node30"><a xlink:href="d__bg__s_8cpp.html" target="_top" xlink:title=" ">
<polygon fill="white" stroke="#666666" points="104,-96 0,-96 0,-77 104,-77 104,-96"/>
<text text-anchor="middle" x="52" y="-84" font-family="Helvetica,sans-Serif" font-size="10.00">src/d/bg/d_bg_s.cpp</text>
</a>
</g>
</g>
<!-- Node2&#45;&gt;Node74 -->
<g id="edge46" class="edge">
<title>Node2&#45;&gt;Node74</title>
<path fill="none" stroke="#63b8ff" d="M3298.72,-280.18C3152.37,-272.94 2794.1,-255.06 2494,-239 1446.75,-182.94 1176.57,-252.8 138,-107 120.41,-104.53 101.11,-100.3 85.25,-96.4"/>
<polygon fill="#63b8ff" stroke="#63b8ff" points="3298.47,-283.67 3308.63,-280.67 3298.81,-276.68 3298.47,-283.67"/>
</g>
<!-- Node109 -->
<g id="node36" class="node">
<title>Node109</title>
<g id="a_node36"><a xlink:href="d__a__horse_8h.html" target="_top" xlink:title=" ">
<polygon fill="#fff0f0" stroke="red" points="3607.5,-173 3506.5,-173 3506.5,-143 3607.5,-143 3607.5,-173"/>
<text text-anchor="start" x="3514.5" y="-161" font-family="Helvetica,sans-Serif" font-size="10.00">include/rel/d/a/d_a</text>
<text text-anchor="middle" x="3557" y="-150" font-family="Helvetica,sans-Serif" font-size="10.00">_horse/d_a_horse.h</text>
</a>
</g>
</g>
<!-- Node2&#45;&gt;Node109 -->
<g id="edge43" class="edge">
<title>Node2&#45;&gt;Node109</title>
<path fill="none" stroke="#63b8ff" d="M3367.09,-263.57C3369.05,-246.84 3374.43,-223.42 3389,-209 3397.57,-200.52 3459.93,-183.37 3506.18,-171.54"/>
<polygon fill="#63b8ff" stroke="#63b8ff" points="3363.62,-263.04 3366.28,-273.3 3370.59,-263.62 3363.62,-263.04"/>
</g>
<!-- Node110 -->
<g id="node37" class="node">
<title>Node110</title>
<g id="a_node37"><a xlink:href="d__bg__s__acch_8cpp.html" target="_top" xlink:title=" ">
<polygon fill="white" stroke="#666666" points="3795.5,-233.5 3664.5,-233.5 3664.5,-214.5 3795.5,-214.5 3795.5,-233.5"/>
<text text-anchor="middle" x="3730" y="-221.5" font-family="Helvetica,sans-Serif" font-size="10.00">src/d/bg/d_bg_s_acch.cpp</text>
</a>
</g>
</g>
<!-- Node2&#45;&gt;Node110 -->
<g id="edge47" class="edge">
<title>Node2&#45;&gt;Node110</title>
<path fill="none" stroke="#63b8ff" d="M3432.88,-272.75C3502.13,-261.62 3609.1,-244.43 3674.03,-234"/>
<polygon fill="#63b8ff" stroke="#63b8ff" points="3432.49,-269.27 3423.17,-274.31 3433.6,-276.18 3432.49,-269.27"/>
</g>
<!-- Node3&#45;&gt;Node4 -->
<g id="edge3" class="edge">
<title>Node3&#45;&gt;Node4</title>
<path fill="none" stroke="#63b8ff" d="M3214.19,-219.78C2971.74,-208.61 2169.1,-171.63 1950.43,-161.55"/>
<polygon fill="#63b8ff" stroke="#63b8ff" points="3213.98,-223.28 3224.13,-220.24 3214.3,-216.28 3213.98,-223.28"/>
</g>
<!-- Node14 -->
<g id="node8" class="node">
<title>Node14</title>
<g id="a_node8"><a xlink:href="d__a__alink_8cpp.html" target="_top" xlink:title=" ">
<polygon fill="white" stroke="#666666" points="3226.5,-24.5 3117.5,-24.5 3117.5,-5.5 3226.5,-5.5 3226.5,-24.5"/>
<text text-anchor="middle" x="3172" y="-12.5" font-family="Helvetica,sans-Serif" font-size="10.00">src/d/a/d_a_alink.cpp</text>
</a>
</g>
</g>
<!-- Node3&#45;&gt;Node14 -->
<g id="edge41" class="edge">
<title>Node3&#45;&gt;Node14</title>
<path fill="none" stroke="#63b8ff" d="M3328.59,-210.85C3406.62,-187.49 3554.43,-132.69 3497,-66 3461.81,-25.14 3310.27,-38.38 3257,-30 3246.81,-28.4 3235.93,-26.64 3225.49,-24.93"/>
<polygon fill="#63b8ff" stroke="#63b8ff" points="3327.68,-207.47 3319.07,-213.64 3329.65,-214.18 3327.68,-207.47"/>
</g>
<!-- Node5 -->
<g id="node5" class="node">
<title>Node5</title>
<g id="a_node5"><a xlink:href="d__a__npc_8h.html" target="_top" xlink:title=" ">
<polygon fill="#fff0f0" stroke="red" points="2996.5,-96 2885.5,-96 2885.5,-77 2996.5,-77 2996.5,-96"/>
<text text-anchor="middle" x="2941" y="-84" font-family="Helvetica,sans-Serif" font-size="10.00">include/d/a/d_a_npc.h</text>
</a>
</g>
</g>
<!-- Node4&#45;&gt;Node5 -->
<g id="edge4" class="edge">
<title>Node4&#45;&gt;Node5</title>
<path fill="none" stroke="#63b8ff" d="M1961.73,-155.73C2152.95,-151.75 2700.48,-137.9 2877,-107 2890.39,-104.66 2904.91,-100.38 2916.72,-96.43"/>
<polygon fill="#63b8ff" stroke="#63b8ff" points="1961.9,-152.22 1951.98,-155.93 1962.05,-159.22 1961.9,-152.22"/>
</g>
<!-- Node11 -->
<g id="node6" class="node">
<title>Node11</title>
<g id="a_node6"><a xlink:href="d__cc__uty_8h.html" target="_top" xlink:title=" ">
<polygon fill="#fff0f0" stroke="red" points="3133.5,-96 3014.5,-96 3014.5,-77 3133.5,-77 3133.5,-96"/>
<text text-anchor="middle" x="3074" y="-84" font-family="Helvetica,sans-Serif" font-size="10.00">include/d/cc/d_cc_uty.h</text>
</a>
</g>
</g>
<!-- Node4&#45;&gt;Node11 -->
<g id="edge5" class="edge">
<title>Node4&#45;&gt;Node11</title>
<path fill="none" stroke="#63b8ff" d="M1961.77,-156.04C2169.6,-152.75 2803.21,-140.17 3006,-107 3020.18,-104.68 3035.6,-100.41 3048.17,-96.45"/>
<polygon fill="#63b8ff" stroke="#63b8ff" points="1961.9,-152.54 1951.95,-156.2 1962.01,-159.54 1961.9,-152.54"/>
</g>
<!-- Node17 -->
<g id="node7" class="node">
<title>Node17</title>
<g id="a_node7"><a xlink:href="d__item_8h.html" target="_top" xlink:title=" ">
<polygon fill="#fff0f0" stroke="red" points="293.5,-96 198.5,-96 198.5,-77 293.5,-77 293.5,-96"/>
<text text-anchor="middle" x="246" y="-84" font-family="Helvetica,sans-Serif" font-size="10.00">include/d/d_item.h</text>
</a>
</g>
</g>
<!-- Node4&#45;&gt;Node17 -->
<g id="edge6" class="edge">
<title>Node4&#45;&gt;Node17</title>
<path fill="none" stroke="#63b8ff" d="M1828.23,-156.1C1545.36,-152.12 453.36,-135.05 302,-107 290.06,-104.79 277.22,-100.47 266.86,-96.46"/>
<polygon fill="#63b8ff" stroke="#63b8ff" points="1827.96,-159.59 1838.01,-156.24 1828.06,-152.6 1827.96,-159.59"/>
</g>
<!-- Node4&#45;&gt;Node14 -->
<g id="edge29" class="edge">
<title>Node4&#45;&gt;Node14</title>
<path fill="none" stroke="#63b8ff" d="M1961.41,-156.44C2212.99,-154.03 3095.7,-143.04 3143,-107 3169.11,-87.1 3172.18,-43.55 3172.23,-24.83"/>
<polygon fill="#63b8ff" stroke="#63b8ff" points="1961.74,-152.93 1951.77,-156.53 1961.81,-159.93 1961.74,-152.93"/>
</g>
<!-- Node18 -->
<g id="node9" class="node">
<title>Node18</title>
<g id="a_node9"><a xlink:href="d__a__obj__item_8cpp.html" target="_top" xlink:title=" ">
<polygon fill="white" stroke="#666666" points="183.5,-24.5 58.5,-24.5 58.5,-5.5 183.5,-5.5 183.5,-24.5"/>
<text text-anchor="middle" x="121" y="-12.5" font-family="Helvetica,sans-Serif" font-size="10.00">src/d/a/d_a_obj_item.cpp</text>
</a>
</g>
</g>
<!-- Node4&#45;&gt;Node18 -->
<g id="edge32" class="edge">
<title>Node4&#45;&gt;Node18</title>
<path fill="none" stroke="#63b8ff" d="M1828.58,-155.92C1517.09,-150.74 214.45,-127.87 178,-107 145.81,-88.56 129.22,-43.8 123.43,-24.78"/>
<polygon fill="#63b8ff" stroke="#63b8ff" points="1828.1,-159.41 1838.16,-156.08 1828.22,-152.41 1828.1,-159.41"/>
</g>
<!-- Node19 -->
<g id="node10" class="node">
<title>Node19</title>
<g id="a_node10"><a xlink:href="d__com__inf__game_8cpp.html" target="_top" xlink:title=" ">
<polygon fill="white" stroke="#666666" points="310,-30 202,-30 202,0 310,0 310,-30"/>
<text text-anchor="start" x="210" y="-18" font-family="Helvetica,sans-Serif" font-size="10.00">src/d/com/d_com_inf</text>
<text text-anchor="middle" x="256" y="-7" font-family="Helvetica,sans-Serif" font-size="10.00">_game.cpp</text>
</a>
</g>
</g>
<!-- Node4&#45;&gt;Node19 -->
<g id="edge38" class="edge">
<title>Node4&#45;&gt;Node19</title>
<path fill="none" stroke="#63b8ff" d="M1828.7,-156.31C1517.8,-152.91 218.07,-136.94 189,-107 176.31,-93.93 180.83,-82.29 189,-66 196.74,-50.56 211.76,-38.67 225.62,-30.37"/>
<polygon fill="#63b8ff" stroke="#63b8ff" points="1828.22,-159.8 1838.26,-156.41 1828.3,-152.8 1828.22,-159.8"/>
</g>
<!-- Node22 -->
<g id="node11" class="node">
<title>Node22</title>
<g id="a_node11"><a xlink:href="d__kantera__icon__meter_8h.html" target="_top" xlink:title=" ">
<polygon fill="#fff0f0" stroke="red" points="412.5,-101.5 311.5,-101.5 311.5,-71.5 412.5,-71.5 412.5,-101.5"/>
<text text-anchor="start" x="319.5" y="-89.5" font-family="Helvetica,sans-Serif" font-size="10.00">include/d/d_kantera</text>
<text text-anchor="middle" x="362" y="-78.5" font-family="Helvetica,sans-Serif" font-size="10.00">_icon_meter.h</text>
</a>
</g>
</g>
<!-- Node4&#45;&gt;Node22 -->
<g id="edge10" class="edge">
<title>Node4&#45;&gt;Node22</title>
<path fill="none" stroke="#63b8ff" d="M1828.41,-155.86C1559.37,-151.09 560.39,-131.87 421,-107 414.2,-105.79 407.12,-103.96 400.31,-101.91"/>
<polygon fill="#63b8ff" stroke="#63b8ff" points="1827.97,-159.35 1838.03,-156.03 1828.1,-152.35 1827.97,-159.35"/>
</g>
<!-- Node25 -->
<g id="node12" class="node">
<title>Node25</title>
<g id="a_node12"><a xlink:href="d__model_8h.html" target="_top" xlink:title=" ">
<polygon fill="#fff0f0" stroke="red" points="533.5,-96 430.5,-96 430.5,-77 533.5,-77 533.5,-96"/>
<text text-anchor="middle" x="482" y="-84" font-family="Helvetica,sans-Serif" font-size="10.00">include/d/d_model.h</text>
</a>
</g>
</g>
<!-- Node4&#45;&gt;Node25 -->
<g id="edge11" class="edge">
<title>Node4&#45;&gt;Node25</title>
<path fill="none" stroke="#63b8ff" d="M1828.13,-156.97C1591.3,-156.5 793.21,-151.57 542,-107 529.27,-104.74 515.53,-100.42 504.41,-96.42"/>
<polygon fill="#63b8ff" stroke="#63b8ff" points="1828.12,-160.47 1838.12,-156.99 1828.13,-153.47 1828.12,-160.47"/>
</g>
<!-- Node27 -->
<g id="node13" class="node">
<title>Node27</title>
<g id="a_node13"><a xlink:href="d__name_8h.html" target="_top" xlink:title=" ">
<polygon fill="#fff0f0" stroke="red" points="652.5,-96 551.5,-96 551.5,-77 652.5,-77 652.5,-96"/>
<text text-anchor="middle" x="602" y="-84" font-family="Helvetica,sans-Serif" font-size="10.00">include/d/d_name.h</text>
</a>
</g>
</g>
<!-- Node4&#45;&gt;Node27 -->
<g id="edge12" class="edge">
<title>Node4&#45;&gt;Node27</title>
<path fill="none" stroke="#63b8ff" d="M1828.16,-156.69C1605.3,-155.29 888.85,-147.67 662,-107 649.28,-104.72 635.54,-100.4 624.42,-96.4"/>
<polygon fill="#63b8ff" stroke="#63b8ff" points="1828.11,-160.19 1838.13,-156.75 1828.15,-153.19 1828.11,-160.19"/>
</g>
<!-- Node29 -->
<g id="node14" class="node">
<title>Node29</title>
<g id="a_node14"><a xlink:href="d__file__sel__info_8h.html" target="_top" xlink:title=" ">
<polygon fill="#fff0f0" stroke="red" points="767,-101.5 671,-101.5 671,-71.5 767,-71.5 767,-101.5"/>
<text text-anchor="start" x="679" y="-89.5" font-family="Helvetica,sans-Serif" font-size="10.00">include/d/file/d_file</text>
<text text-anchor="middle" x="719" y="-78.5" font-family="Helvetica,sans-Serif" font-size="10.00">_sel_info.h</text>
</a>
</g>
</g>
<!-- Node4&#45;&gt;Node29 -->
<g id="edge13" class="edge">
<title>Node4&#45;&gt;Node29</title>
<path fill="none" stroke="#63b8ff" d="M1828.4,-156.51C1619.59,-154.57 979.58,-145.55 776,-107 769.53,-105.77 762.79,-103.97 756.3,-101.95"/>
<polygon fill="#63b8ff" stroke="#63b8ff" points="1828.23,-160 1838.26,-156.59 1828.29,-153 1828.23,-160"/>
</g>
<!-- Node32 -->
<g id="node15" class="node">
<title>Node32</title>
<g id="a_node15"><a xlink:href="d__file__sel__warning_8h.html" target="_top" xlink:title=" ">
<polygon fill="#fff0f0" stroke="red" points="881,-101.5 785,-101.5 785,-71.5 881,-71.5 881,-101.5"/>
<text text-anchor="start" x="793" y="-89.5" font-family="Helvetica,sans-Serif" font-size="10.00">include/d/file/d_file</text>
<text text-anchor="middle" x="833" y="-78.5" font-family="Helvetica,sans-Serif" font-size="10.00">_sel_warning.h</text>
</a>
</g>
</g>
<!-- Node4&#45;&gt;Node32 -->
<g id="edge14" class="edge">
<title>Node4&#45;&gt;Node32</title>
<path fill="none" stroke="#63b8ff" d="M1828.36,-156.11C1634.08,-153.14 1070.63,-141.68 890,-107 883.53,-105.76 876.79,-103.95 870.31,-101.92"/>
<polygon fill="#63b8ff" stroke="#63b8ff" points="1828.23,-159.61 1838.28,-156.26 1828.34,-152.61 1828.23,-159.61"/>
</g>
<!-- Node34 -->
<g id="node16" class="node">
<title>Node34</title>
<g id="a_node16"><a xlink:href="d__meter2_8h.html" target="_top" xlink:title=" ">
<polygon fill="#fff0f0" stroke="red" points="1033,-96 899,-96 899,-77 1033,-77 1033,-96"/>
<text text-anchor="middle" x="966" y="-84" font-family="Helvetica,sans-Serif" font-size="10.00">include/d/meter/d_meter2.h</text>
</a>
</g>
</g>
<!-- Node4&#45;&gt;Node34 -->
<g id="edge15" class="edge">
<title>Node4&#45;&gt;Node34</title>
<path fill="none" stroke="#63b8ff" d="M1828.47,-157.44C1684.25,-157.45 1332.4,-152.33 1042,-107 1026.39,-104.56 1009.32,-100.33 995.32,-96.43"/>
<polygon fill="#63b8ff" stroke="#63b8ff" points="1828.21,-160.94 1838.21,-157.43 1828.21,-153.94 1828.21,-160.94"/>
</g>
<!-- Node41 -->
<g id="node17" class="node">
<title>Node41</title>
<g id="a_node17"><a xlink:href="d__msg__object_8h.html" target="_top" xlink:title=" ">
<polygon fill="#fff0f0" stroke="red" points="2342,-101.5 2232,-101.5 2232,-71.5 2342,-71.5 2342,-101.5"/>
<text text-anchor="start" x="2240" y="-89.5" font-family="Helvetica,sans-Serif" font-size="10.00">include/d/msg/d_msg</text>
<text text-anchor="middle" x="2287" y="-78.5" font-family="Helvetica,sans-Serif" font-size="10.00">_object.h</text>
</a>
</g>
</g>
<!-- Node4&#45;&gt;Node41 -->
<g id="edge16" class="edge">
<title>Node4&#45;&gt;Node41</title>
<path fill="none" stroke="#63b8ff" d="M1961.47,-149.73C2028.1,-141.77 2133.4,-127.37 2223,-107 2229.34,-105.56 2235.97,-103.81 2242.46,-101.97"/>
<polygon fill="#63b8ff" stroke="#63b8ff" points="1961.32,-146.22 1951.8,-150.87 1962.14,-153.17 1961.32,-146.22"/>
</g>
<!-- Node55 -->
<g id="node18" class="node">
<title>Node55</title>
<g id="a_node18"><a xlink:href="d__s__logo_8h.html" target="_top" xlink:title=" ">
<polygon fill="#fff0f0" stroke="red" points="1164.5,-96 1051.5,-96 1051.5,-77 1164.5,-77 1164.5,-96"/>
<text text-anchor="middle" x="1108" y="-84" font-family="Helvetica,sans-Serif" font-size="10.00">include/d/s/d_s_logo.h</text>
</a>
</g>
</g>
<!-- Node4&#45;&gt;Node55 -->
<g id="edge18" class="edge">
<title>Node4&#45;&gt;Node55</title>
<path fill="none" stroke="#63b8ff" d="M1828.54,-157.31C1700.57,-156.82 1411.48,-150.47 1173,-107 1159.55,-104.55 1144.95,-100.32 1132.99,-96.42"/>
<polygon fill="#63b8ff" stroke="#63b8ff" points="1828.16,-160.81 1838.17,-157.33 1828.18,-153.81 1828.16,-160.81"/>
</g>
<!-- Node57 -->
<g id="node19" class="node">
<title>Node57</title>
<g id="a_node19"><a xlink:href="d__s__play_8h.html" target="_top" xlink:title=" ">
<polygon fill="#fff0f0" stroke="red" points="1295.5,-96 1182.5,-96 1182.5,-77 1295.5,-77 1295.5,-96"/>
<text text-anchor="middle" x="1239" y="-84" font-family="Helvetica,sans-Serif" font-size="10.00">include/d/s/d_s_play.h</text>
</a>
</g>
</g>
<!-- Node4&#45;&gt;Node57 -->
<g id="edge19" class="edge">
<title>Node4&#45;&gt;Node57</title>
<path fill="none" stroke="#63b8ff" d="M1828.66,-155.85C1718.69,-152.95 1492.07,-142.77 1304,-107 1290.69,-104.47 1276.22,-100.28 1264.32,-96.43"/>
<polygon fill="#63b8ff" stroke="#63b8ff" points="1828.3,-159.34 1838.38,-156.09 1828.47,-152.35 1828.3,-159.34"/>
</g>
<!-- Node61 -->
<g id="node20" class="node">
<title>Node61</title>
<g id="a_node20"><a xlink:href="d__msg__scrn__base_8h.html" target="_top" xlink:title=" ">
<polygon fill="#fff0f0" stroke="red" points="1412.5,-101.5 1313.5,-101.5 1313.5,-71.5 1412.5,-71.5 1412.5,-101.5"/>
<text text-anchor="start" x="1321.5" y="-89.5" font-family="Helvetica,sans-Serif" font-size="10.00">include/msg/scrn/d</text>
<text text-anchor="middle" x="1363" y="-78.5" font-family="Helvetica,sans-Serif" font-size="10.00">_msg_scrn_base.h</text>
</a>
</g>
</g>
<!-- Node4&#45;&gt;Node61 -->
<g id="edge20" class="edge">
<title>Node4&#45;&gt;Node61</title>
<path fill="none" stroke="#63b8ff" d="M1828.22,-154.56C1735.78,-150.15 1564.05,-138.2 1421,-107 1414.88,-105.66 1408.49,-103.91 1402.3,-102"/>
<polygon fill="#63b8ff" stroke="#63b8ff" points="1827.97,-158.06 1838.12,-155.02 1828.3,-151.06 1827.97,-158.06"/>
</g>
<!-- Node65 -->
<g id="node21" class="node">
<title>Node65</title>
<g id="a_node21"><a xlink:href="d__a__b__zant_8h.html" target="_top" xlink:title=" ">
<polygon fill="white" stroke="#666666" points="1551.5,-101.5 1430.5,-101.5 1430.5,-71.5 1551.5,-71.5 1551.5,-101.5"/>
<text text-anchor="start" x="1438.5" y="-89.5" font-family="Helvetica,sans-Serif" font-size="10.00">include/rel/d/a/b/d</text>
<text text-anchor="middle" x="1491" y="-78.5" font-family="Helvetica,sans-Serif" font-size="10.00">_a_b_zant/d_a_b_zant.h</text>
</a>
</g>
</g>
<!-- Node4&#45;&gt;Node65 -->
<g id="edge21" class="edge">
<title>Node4&#45;&gt;Node65</title>
<path fill="none" stroke="#63b8ff" d="M1828.32,-149.47C1760.59,-141.25 1652.88,-126.6 1561,-107 1554.09,-105.53 1546.85,-103.76 1539.77,-101.91"/>
<polygon fill="#63b8ff" stroke="#63b8ff" points="1827.81,-152.94 1838.16,-150.65 1828.65,-145.98 1827.81,-152.94"/>
</g>
<!-- Node66 -->
<g id="node22" class="node">
<title>Node66</title>
<g id="a_node22"><a xlink:href="d__a__skip__2D_8h.html" target="_top" xlink:title=" ">
<polygon fill="white" stroke="#666666" points="1694,-101.5 1570,-101.5 1570,-71.5 1694,-71.5 1694,-101.5"/>
<text text-anchor="start" x="1578" y="-89.5" font-family="Helvetica,sans-Serif" font-size="10.00">include/rel/d/a/d_a</text>
<text text-anchor="middle" x="1632" y="-78.5" font-family="Helvetica,sans-Serif" font-size="10.00">_skip_2D/d_a_skip_2D.h</text>
</a>
</g>
</g>
<!-- Node4&#45;&gt;Node66 -->
<g id="edge22" class="edge">
<title>Node4&#45;&gt;Node66</title>
<path fill="none" stroke="#63b8ff" d="M1829.24,-140.1C1792.14,-130.51 1744.95,-118.22 1703,-107 1696.95,-105.38 1690.61,-103.67 1684.32,-101.96"/>
<polygon fill="#63b8ff" stroke="#63b8ff" points="1827.89,-143.37 1838.45,-142.48 1829.64,-136.59 1827.89,-143.37"/>
</g>
<!-- Node67 -->
<g id="node23" class="node">
<title>Node67</title>
<g id="a_node23"><a xlink:href="d__a__spinner_8h.html" target="_top" xlink:title=" ">
<polygon fill="white" stroke="#666666" points="3306,-101.5 3190,-101.5 3190,-71.5 3306,-71.5 3306,-101.5"/>
<text text-anchor="start" x="3198" y="-89.5" font-family="Helvetica,sans-Serif" font-size="10.00">include/rel/d/a/d_a</text>
<text text-anchor="middle" x="3248" y="-78.5" font-family="Helvetica,sans-Serif" font-size="10.00">_spinner/d_a_spinner.h</text>
</a>
</g>
</g>
<!-- Node4&#45;&gt;Node67 -->
<g id="edge23" class="edge">
<title>Node4&#45;&gt;Node67</title>
<path fill="none" stroke="#63b8ff" d="M1961.66,-156.38C2189.82,-153.95 2938.4,-143.34 3176,-107 3184.06,-105.77 3192.52,-103.96 3200.69,-101.94"/>
<polygon fill="#63b8ff" stroke="#63b8ff" points="1961.72,-152.88 1951.75,-156.48 1961.79,-159.88 1961.72,-152.88"/>
</g>
<!-- Node68 -->
<g id="node24" class="node">
<title>Node68</title>
<g id="a_node24"><a xlink:href="d__a__player_8cpp.html" target="_top" xlink:title=" ">
<polygon fill="white" stroke="#666666" points="3380,-24.5 3266,-24.5 3266,-5.5 3380,-5.5 3380,-24.5"/>
<text text-anchor="middle" x="3323" y="-12.5" font-family="Helvetica,sans-Serif" font-size="10.00">src/d/a/d_a_player.cpp</text>
</a>
</g>
</g>
<!-- Node4&#45;&gt;Node68 -->
<g id="edge33" class="edge">
<title>Node4&#45;&gt;Node68</title>
<path fill="none" stroke="#63b8ff" d="M1961.55,-157.08C2235.68,-157.11 3265.38,-154.08 3315,-107 3337.66,-85.5 3330.18,-43.2 3325.53,-24.85"/>
<polygon fill="#63b8ff" stroke="#63b8ff" points="1961.72,-153.58 1951.72,-157.08 1961.72,-160.58 1961.72,-153.58"/>
</g>
<!-- Node69 -->
<g id="node25" class="node">
<title>Node69</title>
<g id="a_node25"><a xlink:href="d__a__obj__yobikusa_8h.html" target="_top" xlink:title=" ">
<polygon fill="white" stroke="#666666" points="1817.5,-107 1712.5,-107 1712.5,-66 1817.5,-66 1817.5,-107"/>
<text text-anchor="start" x="1720.5" y="-95" font-family="Helvetica,sans-Serif" font-size="10.00">include/rel/d/a/obj</text>
<text text-anchor="start" x="1720.5" y="-84" font-family="Helvetica,sans-Serif" font-size="10.00">/d_a_obj_yobikusa/d</text>
<text text-anchor="middle" x="1765" y="-73" font-family="Helvetica,sans-Serif" font-size="10.00">_a_obj_yobikusa.h</text>
</a>
</g>
</g>
<!-- Node4&#45;&gt;Node69 -->
<g id="edge26" class="edge">
<title>Node4&#45;&gt;Node69</title>
<path fill="none" stroke="#63b8ff" d="M1858.2,-137.33C1840.7,-127.97 1819.81,-116.8 1802.25,-107.42"/>
<polygon fill="#63b8ff" stroke="#63b8ff" points="1856.26,-140.26 1866.73,-141.89 1859.56,-134.08 1856.26,-140.26"/>
</g>
<!-- Node70 -->
<g id="node26" class="node">
<title>Node70</title>
<g id="a_node26"><a xlink:href="d__a__tag__telop_8h.html" target="_top" xlink:title=" ">
<polygon fill="white" stroke="#666666" points="1954,-107 1836,-107 1836,-66 1954,-66 1954,-107"/>
<text text-anchor="start" x="1844" y="-95" font-family="Helvetica,sans-Serif" font-size="10.00">include/rel/d/a/tag</text>
<text text-anchor="start" x="1844" y="-84" font-family="Helvetica,sans-Serif" font-size="10.00">/d_a_tag_telop/d_a_tag</text>
<text text-anchor="middle" x="1895" y="-73" font-family="Helvetica,sans-Serif" font-size="10.00">_telop.h</text>
</a>
</g>
</g>
<!-- Node4&#45;&gt;Node70 -->
<g id="edge27" class="edge">
<title>Node4&#45;&gt;Node70</title>
<path fill="none" stroke="#63b8ff" d="M1895,-131.36C1895,-123.45 1895,-114.87 1895,-107.42"/>
<polygon fill="#63b8ff" stroke="#63b8ff" points="1891.5,-131.09 1895,-141.09 1898.5,-131.09 1891.5,-131.09"/>
</g>
<!-- Node71 -->
<g id="node27" class="node">
<title>Node71</title>
<g id="a_node27"><a xlink:href="c__dylink_8cpp.html" target="_top" xlink:title=" ">
<polygon fill="white" stroke="#666666" points="2067.5,-96 1972.5,-96 1972.5,-77 2067.5,-77 2067.5,-96"/>
<text text-anchor="middle" x="2020" y="-84" font-family="Helvetica,sans-Serif" font-size="10.00">src/c/c_dylink.cpp</text>
</a>
</g>
</g>
<!-- Node4&#45;&gt;Node71 -->
<g id="edge28" class="edge">
<title>Node4&#45;&gt;Node71</title>
<path fill="none" stroke="#63b8ff" d="M1930.8,-137.1C1954.96,-123.66 1985.67,-106.59 2004.03,-96.38"/>
<polygon fill="#63b8ff" stroke="#63b8ff" points="1929.26,-133.95 1922.22,-141.86 1932.66,-140.06 1929.26,-133.95"/>
</g>
<!-- Node72 -->
<g id="node28" class="node">
<title>Node72</title>
<g id="a_node28"><a xlink:href="d__a__itembase_8cpp.html" target="_top" xlink:title=" ">
<polygon fill="white" stroke="#666666" points="2214,-96 2086,-96 2086,-77 2214,-77 2214,-96"/>
<text text-anchor="middle" x="2150" y="-84" font-family="Helvetica,sans-Serif" font-size="10.00">src/d/a/d_a_itembase.cpp</text>
</a>
</g>
</g>
<!-- Node4&#45;&gt;Node72 -->
<g id="edge30" class="edge">
<title>Node4&#45;&gt;Node72</title>
<path fill="none" stroke="#63b8ff" d="M1959.23,-139.49C2009.51,-125.79 2077.38,-107.29 2117.14,-96.46"/>
<polygon fill="#63b8ff" stroke="#63b8ff" points="1958.33,-136.11 1949.61,-142.12 1960.17,-142.86 1958.33,-136.11"/>
</g>
<!-- Node73 -->
<g id="node29" class="node">
<title>Node73</title>
<g id="a_node29"><a xlink:href="d__a__obj_8cpp.html" target="_top" xlink:title=" ">
<polygon fill="white" stroke="#666666" points="2461.5,-96 2360.5,-96 2360.5,-77 2461.5,-77 2461.5,-96"/>
<text text-anchor="middle" x="2411" y="-84" font-family="Helvetica,sans-Serif" font-size="10.00">src/d/a/d_a_obj.cpp</text>
</a>
</g>
</g>
<!-- Node4&#45;&gt;Node73 -->
<g id="edge31" class="edge">
<title>Node4&#45;&gt;Node73</title>
<path fill="none" stroke="#63b8ff" d="M1961.66,-153.97C2051.1,-148.94 2214.49,-136.34 2351,-107 2363.21,-104.38 2376.44,-100.22 2387.37,-96.42"/>
<polygon fill="#63b8ff" stroke="#63b8ff" points="1961.64,-150.47 1951.84,-154.51 1962.02,-157.46 1961.64,-150.47"/>
</g>
<!-- Node4&#45;&gt;Node74 -->
<g id="edge34" class="edge">
<title>Node4&#45;&gt;Node74</title>
<path fill="none" stroke="#63b8ff" d="M1828.63,-156.15C1526.57,-152.15 289.06,-134.2 118,-107 104.08,-104.79 88.97,-100.47 76.72,-96.46"/>
<polygon fill="#63b8ff" stroke="#63b8ff" points="1828.26,-159.65 1838.3,-156.28 1828.35,-152.65 1828.26,-159.65"/>
</g>
<!-- Node75 -->
<g id="node31" class="node">
<title>Node75</title>
<g id="a_node31"><a xlink:href="d__bg__s__movebg__actor_8cpp.html" target="_top" xlink:title=" ">
<polygon fill="white" stroke="#666666" points="3488,-101.5 3362,-101.5 3362,-71.5 3488,-71.5 3488,-101.5"/>
<text text-anchor="start" x="3370" y="-89.5" font-family="Helvetica,sans-Serif" font-size="10.00">src/d/bg/d_bg_s_movebg</text>
<text text-anchor="middle" x="3425" y="-78.5" font-family="Helvetica,sans-Serif" font-size="10.00">_actor.cpp</text>
</a>
</g>
</g>
<!-- Node4&#45;&gt;Node75 -->
<g id="edge35" class="edge">
<title>Node4&#45;&gt;Node75</title>
<path fill="none" stroke="#63b8ff" d="M1961.72,-156.59C2209.27,-154.8 3074.95,-145.82 3348,-107 3356.6,-105.78 3365.63,-103.98 3374.36,-101.95"/>
<polygon fill="#63b8ff" stroke="#63b8ff" points="1961.89,-153.09 1951.92,-156.66 1961.94,-160.09 1961.89,-153.09"/>
</g>
<!-- Node76 -->
<g id="node32" class="node">
<title>Node76</title>
<g id="a_node32"><a xlink:href="d__bg__w_8cpp.html" target="_top" xlink:title=" ">
<polygon fill="white" stroke="#666666" points="3689.5,-96 3582.5,-96 3582.5,-77 3689.5,-77 3689.5,-96"/>
<text text-anchor="middle" x="3636" y="-84" font-family="Helvetica,sans-Serif" font-size="10.00">src/d/bg/d_bg_w.cpp</text>
</a>
</g>
</g>
<!-- Node4&#45;&gt;Node76 -->
<g id="edge36" class="edge">
<title>Node4&#45;&gt;Node76</title>
<path fill="none" stroke="#63b8ff" d="M1961.78,-157.5C2181.72,-158.59 2903.22,-157.77 3497,-107 3525.16,-104.59 3556.34,-100.36 3582.02,-96.46"/>
<polygon fill="#63b8ff" stroke="#63b8ff" points="1962,-154 1951.98,-157.45 1961.96,-161 1962,-154"/>
</g>
<!-- Node77 -->
<g id="node33" class="node">
<title>Node77</title>
<g id="a_node33"><a xlink:href="d__cc__s_8cpp.html" target="_top" xlink:title=" ">
<polygon fill="white" stroke="#666666" points="2584,-96 2480,-96 2480,-77 2584,-77 2584,-96"/>
<text text-anchor="middle" x="2532" y="-84" font-family="Helvetica,sans-Serif" font-size="10.00">src/d/cc/d_cc_s.cpp</text>
</a>
</g>
</g>
<!-- Node4&#45;&gt;Node77 -->
<g id="edge37" class="edge">
<title>Node4&#45;&gt;Node77</title>
<path fill="none" stroke="#63b8ff" d="M1961.73,-156.01C2069.76,-153.35 2289.16,-143.48 2471,-107 2483.54,-104.48 2497.12,-100.29 2508.28,-96.44"/>
<polygon fill="#63b8ff" stroke="#63b8ff" points="1961.81,-152.51 1951.89,-156.24 1961.97,-159.51 1961.81,-152.51"/>
</g>
<!-- Node78 -->
<g id="node34" class="node">
<title>Node78</title>
<g id="a_node34"><a xlink:href="d__com__static_8cpp.html" target="_top" xlink:title=" ">
<polygon fill="white" stroke="#666666" points="2742,-96 2602,-96 2602,-77 2742,-77 2742,-96"/>
<text text-anchor="middle" x="2672" y="-84" font-family="Helvetica,sans-Serif" font-size="10.00">src/d/com/d_com_static.cpp</text>
</a>
</g>
</g>
<!-- Node4&#45;&gt;Node78 -->
<g id="edge39" class="edge">
<title>Node4&#45;&gt;Node78</title>
<path fill="none" stroke="#63b8ff" d="M1961.32,-156.01C2085.86,-153.31 2362.88,-143.37 2593,-107 2609.05,-104.46 2626.62,-100.27 2641.11,-96.42"/>
<polygon fill="#63b8ff" stroke="#63b8ff" points="1961.55,-152.5 1951.62,-156.21 1961.69,-159.5 1961.55,-152.5"/>
</g>
<!-- Node79 -->
<g id="node35" class="node">
<title>Node79</title>
<g id="a_node35"><a xlink:href="d__attention_8cpp.html" target="_top" xlink:title=" ">
<polygon fill="white" stroke="#666666" points="2867.5,-96 2760.5,-96 2760.5,-77 2867.5,-77 2867.5,-96"/>
<text text-anchor="middle" x="2814" y="-84" font-family="Helvetica,sans-Serif" font-size="10.00">src/d/d_attention.cpp</text>
</a>
</g>
</g>
<!-- Node4&#45;&gt;Node79 -->
<g id="edge40" class="edge">
<title>Node4&#45;&gt;Node79</title>
<path fill="none" stroke="#63b8ff" d="M1961.71,-155.19C2135.6,-150.13 2599.77,-134.4 2751,-107 2764.07,-104.63 2778.23,-100.41 2789.81,-96.49"/>
<polygon fill="#63b8ff" stroke="#63b8ff" points="1961.84,-151.68 1951.95,-155.47 1962.04,-158.68 1961.84,-151.68"/>
</g>
<!-- Node17&#45;&gt;Node14 -->
<g id="edge7" class="edge">
<title>Node17&#45;&gt;Node14</title>
<path fill="none" stroke="#63b8ff" d="M277.25,-72.66C285.19,-69.94 293.8,-67.46 302,-66 588.71,-14.94 2744.63,-15.44 3117.23,-15.91"/>
<polygon fill="#63b8ff" stroke="#63b8ff" points="276.19,-69.32 268.01,-76.05 278.6,-75.89 276.19,-69.32"/>
</g>
<!-- Node17&#45;&gt;Node18 -->
<g id="edge8" class="edge">
<title>Node17&#45;&gt;Node18</title>
<path fill="none" stroke="#63b8ff" d="M220.01,-71.05C195.01,-57.15 157.99,-36.57 137.02,-24.91"/>
<polygon fill="#63b8ff" stroke="#63b8ff" points="218.15,-74.02 228.59,-75.82 221.55,-67.9 218.15,-74.02"/>
</g>
<!-- Node17&#45;&gt;Node19 -->
<g id="edge9" class="edge">
<title>Node17&#45;&gt;Node19</title>
<path fill="none" stroke="#63b8ff" d="M248.89,-65.39C250.51,-54.15 252.49,-40.41 253.95,-30.27"/>
<polygon fill="#63b8ff" stroke="#63b8ff" points="245.44,-64.8 247.48,-75.2 252.37,-65.8 245.44,-64.8"/>
</g>
<!-- Node41&#45;&gt;Node14 -->
<g id="edge17" class="edge">
<title>Node41&#45;&gt;Node14</title>
<path fill="none" stroke="#63b8ff" d="M2341.04,-68.27C2344.73,-67.41 2348.4,-66.64 2352,-66 2499.7,-39.71 2958.41,-22.86 3117.22,-17.69"/>
<polygon fill="#63b8ff" stroke="#63b8ff" points="2340.31,-64.85 2331.49,-70.71 2342.04,-71.63 2340.31,-64.85"/>
</g>
<!-- Node67&#45;&gt;Node14 -->
<g id="edge24" class="edge">
<title>Node67&#45;&gt;Node14</title>
<path fill="none" stroke="#63b8ff" d="M3223.79,-63.36C3209.43,-50.23 3192.02,-34.31 3181.49,-24.68"/>
<polygon fill="#63b8ff" stroke="#63b8ff" points="3221.39,-65.91 3231.14,-70.08 3226.12,-60.75 3221.39,-65.91"/>
</g>
<!-- Node67&#45;&gt;Node68 -->
<g id="edge25" class="edge">
<title>Node67&#45;&gt;Node68</title>
<path fill="none" stroke="#63b8ff" d="M3271.89,-63.36C3286.06,-50.23 3303.24,-34.31 3313.63,-24.68"/>
<polygon fill="#63b8ff" stroke="#63b8ff" points="3269.61,-60.71 3264.65,-70.07 3274.36,-65.84 3269.61,-60.71"/>
</g>
<!-- Node109&#45;&gt;Node14 -->
<g id="edge44" class="edge">
<title>Node109&#45;&gt;Node14</title>
<path fill="none" stroke="#63b8ff" d="M3556.63,-131.57C3554.87,-110.71 3548.86,-82.1 3530,-66 3483.46,-26.26 3317.53,-38.97 3257,-30 3246.5,-28.44 3235.28,-26.67 3224.56,-24.93"/>
<polygon fill="#63b8ff" stroke="#63b8ff" points="3553.12,-131.49 3557.16,-141.28 3560.11,-131.11 3553.12,-131.49"/>
</g>
<!-- Node109&#45;&gt;Node76 -->
<g id="edge45" class="edge">
<title>Node109&#45;&gt;Node76</title>
<path fill="none" stroke="#63b8ff" d="M3581.74,-135.23C3596.75,-122.03 3615.08,-105.9 3626.13,-96.18"/>
<polygon fill="#63b8ff" stroke="#63b8ff" points="3579.7,-132.37 3574.51,-141.6 3584.33,-137.62 3579.7,-132.37"/>
</g>
<!-- Node112 -->
<g id="node39" class="node">
<title>Node112</title>
<g id="a_node39"><a xlink:href="d__bg__s__acch_8h.html" target="_top" xlink:title=" ">
<polygon fill="#fff0f0" stroke="red" points="3688,-492 3584,-492 3584,-462 3688,-462 3688,-492"/>
<text text-anchor="start" x="3592" y="-480" font-family="Helvetica,sans-Serif" font-size="10.00">include/d/bg/d_bg_s</text>
<text text-anchor="middle" x="3636" y="-469" font-family="Helvetica,sans-Serif" font-size="10.00">_acch.h</text>
</a>
</g>
</g>
<!-- Node111&#45;&gt;Node112 -->
<g id="edge49" class="edge">
<title>Node111&#45;&gt;Node112</title>
<path fill="none" stroke="#63b8ff" d="M3689.37,-520.7C3677.74,-511.4 3664.41,-500.73 3653.98,-492.39"/>
<polygon fill="#63b8ff" stroke="#63b8ff" points="3687.07,-523.34 3697.06,-526.85 3691.44,-517.87 3687.07,-523.34"/>
</g>
<!-- Node138 -->
<g id="node46" class="node">
<title>Node138</title>
<g id="a_node46"><a xlink:href="d__a__arrow_8h.html" target="_top" xlink:title=" ">
<polygon fill="white" stroke="#666666" points="3607.5,-426 3506.5,-426 3506.5,-396 3607.5,-396 3607.5,-426"/>
<text text-anchor="start" x="3514.5" y="-414" font-family="Helvetica,sans-Serif" font-size="10.00">include/rel/d/a/d_a</text>
<text text-anchor="middle" x="3557" y="-403" font-family="Helvetica,sans-Serif" font-size="10.00">_arrow/d_a_arrow.h</text>
</a>
</g>
</g>
<!-- Node111&#45;&gt;Node138 -->
<g id="edge64" class="edge">
<title>Node111&#45;&gt;Node138</title>
<path fill="none" stroke="#63b8ff" d="M3652.62,-533.48C3625.13,-526.64 3594.77,-514.28 3575,-492 3558.75,-473.68 3556.21,-443.87 3556.29,-426.27"/>
<polygon fill="#63b8ff" stroke="#63b8ff" points="3651.78,-536.88 3662.31,-535.68 3653.33,-530.06 3651.78,-536.88"/>
</g>
<!-- Node139 -->
<g id="node47" class="node">
<title>Node139</title>
<g id="a_node47"><a xlink:href="d__a__canoe_8h.html" target="_top" xlink:title=" ">
<polygon fill="white" stroke="#666666" points="3808,-426 3702,-426 3702,-396 3808,-396 3808,-426"/>
<text text-anchor="start" x="3710" y="-414" font-family="Helvetica,sans-Serif" font-size="10.00">include/rel/d/a/d_a</text>
<text text-anchor="middle" x="3755" y="-403" font-family="Helvetica,sans-Serif" font-size="10.00">_canoe/d_a_canoe.h</text>
</a>
</g>
</g>
<!-- Node111&#45;&gt;Node139 -->
<g id="edge65" class="edge">
<title>Node111&#45;&gt;Node139</title>
<path fill="none" stroke="#63b8ff" d="M3721.53,-516.67C3725.18,-500.83 3730.33,-480.07 3736,-462 3739.84,-449.77 3745.06,-436.2 3749.06,-426.28"/>
<polygon fill="#63b8ff" stroke="#63b8ff" points="3718.16,-515.7 3719.37,-526.22 3724.99,-517.23 3718.16,-515.7"/>
</g>
<!-- Node142 -->
<g id="node48" class="node">
<title>Node142</title>
<g id="a_node48"><a xlink:href="d__camera_8h.html" target="_top" xlink:title=" ">
<polygon fill="#fff0f0" stroke="red" points="3853.5,-486.5 3744.5,-486.5 3744.5,-467.5 3853.5,-467.5 3853.5,-486.5"/>
<text text-anchor="middle" x="3799" y="-474.5" font-family="Helvetica,sans-Serif" font-size="10.00">include/d/d_camera.h</text>
</a>
</g>
</g>
<!-- Node111&#45;&gt;Node142 -->
<g id="edge63" class="edge">
<title>Node111&#45;&gt;Node142</title>
<path fill="none" stroke="#63b8ff" d="M3743.32,-520.93C3758.34,-509.35 3776.17,-495.61 3787.53,-486.84"/>
<polygon fill="#63b8ff" stroke="#63b8ff" points="3741.4,-517.99 3735.62,-526.87 3745.68,-523.54 3741.4,-517.99"/>
</g>
<!-- Node147 -->
<g id="node49" class="node">
<title>Node147</title>
<g id="a_node49"><a xlink:href="d__bg__s__lin__chk_8cpp.html" target="_top" xlink:title=" ">
<polygon fill="white" stroke="#666666" points="3972.5,-492 3871.5,-492 3871.5,-462 3972.5,-462 3972.5,-492"/>
<text text-anchor="start" x="3879.5" y="-480" font-family="Helvetica,sans-Serif" font-size="10.00">src/d/bg/d_bg_s_lin</text>
<text text-anchor="middle" x="3922" y="-469" font-family="Helvetica,sans-Serif" font-size="10.00">_chk.cpp</text>
</a>
</g>
</g>
<!-- Node111&#45;&gt;Node147 -->
<g id="edge66" class="edge">
<title>Node111&#45;&gt;Node147</title>
<path fill="none" stroke="#63b8ff" d="M3773.13,-524.25C3805.45,-514.21 3845.33,-501.82 3875.68,-492.39"/>
<polygon fill="#63b8ff" stroke="#63b8ff" points="3772.44,-520.8 3763.93,-527.11 3774.52,-527.48 3772.44,-520.8"/>
</g>
<!-- Node112&#45;&gt;Node110 -->
<g id="edge62" class="edge">
<title>Node112&#45;&gt;Node110</title>
<path fill="none" stroke="#63b8ff" d="M3645.35,-451.03C3665.77,-396.52 3713.55,-268.92 3726.64,-233.98"/>
<polygon fill="#63b8ff" stroke="#63b8ff" points="3642.08,-449.78 3641.85,-460.37 3648.64,-452.23 3642.08,-449.78"/>
</g>
<!-- Node112&#45;&gt;Node124 -->
<g id="edge50" class="edge">
<title>Node112&#45;&gt;Node124</title>
<path fill="none" stroke="#63b8ff" d="M3634.7,-450.57C3632.77,-433.8 3628.1,-412.06 3617,-396 3603.86,-377 3580.95,-363.18 3564.09,-354.94"/>
<polygon fill="#63b8ff" stroke="#63b8ff" points="3631.19,-450.58 3635.55,-460.23 3638.16,-449.96 3631.19,-450.58"/>
</g>
<!-- Node112&#45;&gt;Node128 -->
<g id="edge56" class="edge">
<title>Node112&#45;&gt;Node128</title>
<path fill="none" stroke="#63b8ff" d="M3699.47,-459.28C3738.76,-448.94 3788.62,-435.8 3825.83,-426"/>
<polygon fill="#63b8ff" stroke="#63b8ff" points="3698.67,-455.87 3689.89,-461.81 3700.45,-462.64 3698.67,-455.87"/>
</g>
<!-- Node112&#45;&gt;Node138 -->
<g id="edge60" class="edge">
<title>Node112&#45;&gt;Node138</title>
<path fill="none" stroke="#63b8ff" d="M3609.71,-454.7C3598.22,-445.4 3585.06,-434.73 3574.76,-426.39"/>
<polygon fill="#63b8ff" stroke="#63b8ff" points="3607.32,-457.27 3617.29,-460.84 3611.72,-451.83 3607.32,-457.27"/>
</g>
<!-- Node112&#45;&gt;Node139 -->
<g id="edge61" class="edge">
<title>Node112&#45;&gt;Node139</title>
<path fill="none" stroke="#63b8ff" d="M3672.6,-456.32C3690.62,-446.63 3711.94,-435.16 3728.38,-426.31"/>
<polygon fill="#63b8ff" stroke="#63b8ff" points="3671.19,-453.1 3664.04,-460.92 3674.5,-459.27 3671.19,-453.1"/>
</g>
<!-- Node124&#45;&gt;Node2 -->
<g id="edge51" class="edge">
<title>Node124&#45;&gt;Node2</title>
<path fill="none" stroke="#63b8ff" d="M3505.32,-331.55C3471.64,-320.42 3423.13,-304.38 3393.14,-294.47"/>
<polygon fill="#63b8ff" stroke="#63b8ff" points="3504.09,-334.83 3514.68,-334.64 3506.28,-328.18 3504.09,-334.83"/>
</g>
<!-- Node124&#45;&gt;Node76 -->
<g id="edge55" class="edge">
<title>Node124&#45;&gt;Node76</title>
<path fill="none" stroke="#63b8ff" d="M3575.97,-329.93C3591.06,-321.73 3607.64,-309.83 3617,-294 3656.59,-227.07 3642.9,-126.07 3637.65,-96.15"/>
<polygon fill="#63b8ff" stroke="#63b8ff" points="3574.57,-326.72 3567.21,-334.35 3577.72,-332.97 3574.57,-326.72"/>
</g>
<!-- Node125 -->
<g id="node41" class="node">
<title>Node125</title>
<g id="a_node41"><a xlink:href="d__bg__s__movebg__actor_8h.html" target="_top" xlink:title=" ">
<polygon fill="white" stroke="#666666" points="3502,-239 3398,-239 3398,-209 3502,-209 3502,-239"/>
<text text-anchor="start" x="3406" y="-227" font-family="Helvetica,sans-Serif" font-size="10.00">include/d/bg/d_bg_s</text>
<text text-anchor="middle" x="3450" y="-216" font-family="Helvetica,sans-Serif" font-size="10.00">_movebg_actor.h</text>
</a>
</g>
</g>
<!-- Node124&#45;&gt;Node125 -->
<g id="edge52" class="edge">
<title>Node124&#45;&gt;Node125</title>
<path fill="none" stroke="#63b8ff" d="M3513.21,-329.87C3498.27,-321.39 3481.05,-309.27 3470,-294 3458.16,-277.63 3453.29,-254.35 3451.32,-239.46"/>
<polygon fill="#63b8ff" stroke="#63b8ff" points="3511.29,-332.81 3521.76,-334.44 3514.59,-326.63 3511.29,-332.81"/>
</g>
<!-- Node126 -->
<g id="node42" class="node">
<title>Node126</title>
<g id="a_node42"><a xlink:href="d__bg__w__sv_8h.html" target="_top" xlink:title=" ">
<polygon fill="#fff0f0" stroke="red" points="3607.5,-294 3478.5,-294 3478.5,-275 3607.5,-275 3607.5,-294"/>
<text text-anchor="middle" x="3543" y="-282" font-family="Helvetica,sans-Serif" font-size="10.00">include/d/bg/d_bg_w_sv.h</text>
</a>
</g>
</g>
<!-- Node124&#45;&gt;Node126 -->
<g id="edge54" class="edge">
<title>Node124&#45;&gt;Node126</title>
<path fill="none" stroke="#63b8ff" d="M3543,-324.16C3543,-313.95 3543,-302.04 3543,-294.17"/>
<polygon fill="#63b8ff" stroke="#63b8ff" points="3539.5,-323.85 3543,-333.85 3546.5,-323.85 3539.5,-323.85"/>
</g>
<!-- Node125&#45;&gt;Node75 -->
<g id="edge53" class="edge">
<title>Node125&#45;&gt;Node75</title>
<path fill="none" stroke="#63b8ff" d="M3445.35,-197.79C3440.14,-169.57 3431.88,-124.81 3427.67,-101.96"/>
<polygon fill="#63b8ff" stroke="#63b8ff" points="3441.84,-198.07 3447.1,-207.27 3448.72,-196.8 3441.84,-198.07"/>
</g>
<!-- Node128&#45;&gt;Node124 -->
<g id="edge57" class="edge">
<title>Node128&#45;&gt;Node124</title>
<path fill="none" stroke="#63b8ff" d="M3814.34,-395.5C3732.59,-378.98 3648.76,-364.11 3595.91,-354.98"/>
<polygon fill="#63b8ff" stroke="#63b8ff" points="3813.62,-398.93 3824.11,-397.49 3815.01,-392.07 3813.62,-398.93"/>
</g>
<!-- Node129 -->
<g id="node44" class="node">
<title>Node129</title>
<g id="a_node44"><a xlink:href="d__bg__w__kcol_8h.html" target="_top" xlink:title=" ">
<polygon fill="#fff0f0" stroke="red" points="4015,-360 3909,-360 3909,-330 4015,-330 4015,-360"/>
<text text-anchor="start" x="3917" y="-348" font-family="Helvetica,sans-Serif" font-size="10.00">include/d/bg/d_bg_w</text>
<text text-anchor="middle" x="3962" y="-337" font-family="Helvetica,sans-Serif" font-size="10.00">_kcol.h</text>
</a>
</g>
</g>
<!-- Node128&#45;&gt;Node129 -->
<g id="edge58" class="edge">
<title>Node128&#45;&gt;Node129</title>
<path fill="none" stroke="#63b8ff" d="M3906.27,-388.97C3918.42,-379.61 3932.42,-368.81 3943.34,-360.39"/>
<polygon fill="#63b8ff" stroke="#63b8ff" points="3904.4,-385.99 3898.62,-394.87 3908.68,-391.54 3904.4,-385.99"/>
</g>
<!-- Node131 -->
<g id="node45" class="node">
<title>Node131</title>
<g id="a_node45"><a xlink:href="d__bg__w__base_8cpp.html" target="_top" xlink:title=" ">
<polygon fill="white" stroke="#666666" points="3890.5,-354.5 3757.5,-354.5 3757.5,-335.5 3890.5,-335.5 3890.5,-354.5"/>
<text text-anchor="middle" x="3824" y="-342.5" font-family="Helvetica,sans-Serif" font-size="10.00">src/d/bg/d_bg_w_base.cpp</text>
</a>
</g>
</g>
<!-- Node128&#45;&gt;Node131 -->
<g id="edge59" class="edge">
<title>Node128&#45;&gt;Node131</title>
<path fill="none" stroke="#63b8ff" d="M3859.47,-387.28C3849.84,-376.07 3838.78,-363.19 3831.6,-354.84"/>
<polygon fill="#63b8ff" stroke="#63b8ff" points="3856.64,-389.35 3865.81,-394.65 3861.94,-384.78 3856.64,-389.35"/>
</g>
</g>
</svg>
