<?xml version="1.0" encoding="UTF-8" standalone="no"?>
<!DOCTYPE svg PUBLIC "-//W3C//DTD SVG 1.1//EN"
 "http://www.w3.org/Graphics/SVG/1.1/DTD/svg11.dtd">
<!-- Generated by graphviz version 7.0.4 (20221203.1631)
 -->
<!-- Title: include/SSystem/SComponent/c_cc_s.h Pages: 1 -->
<!--zoomable 313 -->
<svg id="main" version="1.1" xmlns="http://www.w3.org/2000/svg" xmlns:xlink="http://www.w3.org/1999/xlink" xml:space="preserve" onload="init(evt)">
<style type="text/css"><![CDATA[
.edge:hover path { stroke: red; }
.edge:hover polygon { stroke: red; fill: red; }
]]></style>
<script type="text/javascript"><![CDATA[
var edges = document.getElementsByTagName('g');
if (edges && edges.length) {
  for (var i=0;i<edges.length;i++) {
    if (edges[i].id.substr(0,4)=='edge') {
      edges[i].setAttribute('class','edge');
    }
  }
}
]]></script>
        <defs>
                <circle id="rim" cx="0" cy="0" r="7"/>
                <circle id="rim2" cx="0" cy="0" r="3.5"/>
                <g id="zoomPlus">
                        <use xlink:href="#rim" fill="#404040">
                                <set attributeName="fill" to="#808080" begin="zoomplus.mouseover" end="zoomplus.mouseout"/>
                        </use>
                        <path d="M-4,0h8M0,-4v8" fill="none" stroke="white" stroke-width="1.5" pointer-events="none"/>
                </g>
                <g id="zoomMin">
                        <use xlink:href="#rim" fill="#404040">
                                <set attributeName="fill" to="#808080" begin="zoomminus.mouseover" end="zoomminus.mouseout"/>
                        </use>
                        <path d="M-4,0h8" fill="none" stroke="white" stroke-width="1.5" pointer-events="none"/>
                </g>
                <g id="dirArrow">
                        <path fill="none" stroke="white" stroke-width="1.5" d="M0,-3.0v7 M-2.5,-0.5L0,-3.0L2.5,-0.5"/>
                </g>
               <g id="resetDef">
                       <use xlink:href="#rim2" fill="#404040">
                               <set attributeName="fill" to="#808080" begin="reset.mouseover" end="reset.mouseout"/>
                       </use>
               </g>
        </defs>

<script type="text/javascript">
var viewWidth = 5324;
var viewHeight = 313;
var sectionId = 'dynsection-1';
</script>
<script xlink:href="svgpan.js"/>
<svg id="graph" class="graph">
<g id="viewport">
<title>include/SSystem/SComponent/c_cc_s.h</title>
<!-- Node1 -->
<g id="node1" class="node">
<title>Node1</title>
<g id="a_node1"><a xlink:title=" ">
<polygon fill="#999999" stroke="#666666" points="2681.5,-305 2532.5,-305 2532.5,-275 2681.5,-275 2681.5,-305"/>
<text text-anchor="start" x="2540.5" y="-293" font-family="Helvetica,sans-Serif" font-size="10.00">include/SSystem/SComponent</text>
<text text-anchor="middle" x="2607" y="-282" font-family="Helvetica,sans-Serif" font-size="10.00">/c_cc_s.h</text>
</a>
</g>
</g>
<!-- Node2 -->
<g id="node2" class="node">
<title>Node2</title>
<g id="a_node2"><a xlink:href="d__cc__s_8h.html" target="_top" xlink:title=" ">
<polygon fill="white" stroke="#666666" points="2592.5,-233.5 2481.5,-233.5 2481.5,-214.5 2592.5,-214.5 2592.5,-233.5"/>
<text text-anchor="middle" x="2537" y="-221.5" font-family="Helvetica,sans-Serif" font-size="10.00">include/d/cc/d_cc_s.h</text>
</a>
</g>
</g>
<!-- Node1&#45;&gt;Node2 -->
<g id="edge1" class="edge">
<title>Node1&#45;&gt;Node2</title>
<path fill="none" stroke="#63b8ff" d="M2583.24,-267.27C2570.73,-255.84 2556.08,-242.44 2546.67,-233.84"/>
<polygon fill="#63b8ff" stroke="#63b8ff" points="2580.61,-269.61 2590.35,-273.78 2585.33,-264.44 2580.61,-269.61"/>
</g>
<!-- Node109 -->
<g id="node50" class="node">
<title>Node109</title>
<g id="a_node50"><a xlink:href="c__cc__s_8cpp.html" target="_top" xlink:title=" ">
<polygon fill="white" stroke="#666666" points="2745,-239 2611,-239 2611,-209 2745,-209 2745,-239"/>
<text text-anchor="start" x="2619" y="-227" font-family="Helvetica,sans-Serif" font-size="10.00">libs/SSystem/SComponent</text>
<text text-anchor="middle" x="2678" y="-216" font-family="Helvetica,sans-Serif" font-size="10.00">/c_cc_s.cpp</text>
</a>
</g>
</g>
<!-- Node1&#45;&gt;Node109 -->
<g id="edge59" class="edge">
<title>Node1&#45;&gt;Node109</title>
<path fill="none" stroke="#63b8ff" d="M2631.31,-267.09C2641.56,-257.85 2653.19,-247.36 2662.29,-239.16"/>
<polygon fill="#63b8ff" stroke="#63b8ff" points="2628.97,-264.49 2623.88,-273.78 2633.65,-269.69 2628.97,-264.49"/>
</g>
<!-- Node3 -->
<g id="node3" class="node">
<title>Node3</title>
<g id="a_node3"><a xlink:href="d__com__inf__game_8h.html" target="_top" xlink:title=" ">
<polygon fill="#fff0f0" stroke="red" points="2551,-173 2441,-173 2441,-143 2551,-143 2551,-173"/>
<text text-anchor="start" x="2449" y="-161" font-family="Helvetica,sans-Serif" font-size="10.00">include/d/com/d_com</text>
<text text-anchor="middle" x="2496" y="-150" font-family="Helvetica,sans-Serif" font-size="10.00">_inf_game.h</text>
</a>
</g>
</g>
<!-- Node2&#45;&gt;Node3 -->
<g id="edge2" class="edge">
<title>Node2&#45;&gt;Node3</title>
<path fill="none" stroke="#63b8ff" d="M2525.27,-204.7C2518.87,-194.7 2511.06,-182.51 2505.12,-173.23"/>
<polygon fill="#63b8ff" stroke="#63b8ff" points="2522.14,-206.29 2530.48,-212.83 2528.04,-202.52 2522.14,-206.29"/>
</g>
<!-- Node77 -->
<g id="node35" class="node">
<title>Node77</title>
<g id="a_node35"><a xlink:href="d__cc__s_8cpp.html" target="_top" xlink:title=" ">
<polygon fill="white" stroke="#666666" points="5316,-96 5212,-96 5212,-77 5316,-77 5316,-96"/>
<text text-anchor="middle" x="5264" y="-84" font-family="Helvetica,sans-Serif" font-size="10.00">src/d/cc/d_cc_s.cpp</text>
</a>
</g>
</g>
<!-- Node2&#45;&gt;Node77 -->
<g id="edge58" class="edge">
<title>Node2&#45;&gt;Node77</title>
<path fill="none" stroke="#63b8ff" d="M2584.42,-211.8C2590.31,-210.7 2596.28,-209.72 2602,-209 3749.77,-64 4063.64,-307.63 5203,-107 5215.92,-104.72 5229.89,-100.4 5241.2,-96.41"/>
<polygon fill="#63b8ff" stroke="#63b8ff" points="2583.85,-208.34 2574.73,-213.74 2585.23,-215.2 2583.85,-208.34"/>
</g>
<!-- Node4 -->
<g id="node4" class="node">
<title>Node4</title>
<g id="a_node4"><a xlink:href="d__a__npc_8h.html" target="_top" xlink:title=" ">
<polygon fill="#fff0f0" stroke="red" points="5056.5,-96 4945.5,-96 4945.5,-77 5056.5,-77 5056.5,-96"/>
<text text-anchor="middle" x="5001" y="-84" font-family="Helvetica,sans-Serif" font-size="10.00">include/d/a/d_a_npc.h</text>
</a>
</g>
</g>
<!-- Node3&#45;&gt;Node4 -->
<g id="edge3" class="edge">
<title>Node3&#45;&gt;Node4</title>
<path fill="none" stroke="#63b8ff" d="M2562.74,-156.15C2942.33,-151.26 4816.66,-126.19 4937,-107 4950.65,-104.82 4965.44,-100.46 4977.36,-96.41"/>
<polygon fill="#63b8ff" stroke="#63b8ff" points="2562.89,-152.65 2552.94,-156.28 2562.98,-159.65 2562.89,-152.65"/>
</g>
<!-- Node10 -->
<g id="node5" class="node">
<title>Node10</title>
<g id="a_node5"><a xlink:href="d__cc__uty_8h.html" target="_top" xlink:title=" ">
<polygon fill="#fff0f0" stroke="red" points="5193.5,-96 5074.5,-96 5074.5,-77 5193.5,-77 5193.5,-96"/>
<text text-anchor="middle" x="5134" y="-84" font-family="Helvetica,sans-Serif" font-size="10.00">include/d/cc/d_cc_uty.h</text>
</a>
</g>
</g>
<!-- Node3&#45;&gt;Node10 -->
<g id="edge4" class="edge">
<title>Node3&#45;&gt;Node10</title>
<path fill="none" stroke="#63b8ff" d="M2562.78,-156.19C2954.28,-151.38 4938.76,-126.15 5066,-107 5080.45,-104.83 5096.16,-100.46 5108.84,-96.41"/>
<polygon fill="#63b8ff" stroke="#63b8ff" points="2562.86,-152.69 2552.91,-156.31 2562.95,-159.69 2562.86,-152.69"/>
</g>
<!-- Node16 -->
<g id="node6" class="node">
<title>Node16</title>
<g id="a_node6"><a xlink:href="d__item_8h.html" target="_top" xlink:title=" ">
<polygon fill="#fff0f0" stroke="red" points="730.5,-96 635.5,-96 635.5,-77 730.5,-77 730.5,-96"/>
<text text-anchor="middle" x="683" y="-84" font-family="Helvetica,sans-Serif" font-size="10.00">include/d/d_item.h</text>
</a>
</g>
</g>
<!-- Node3&#45;&gt;Node16 -->
<g id="edge5" class="edge">
<title>Node3&#45;&gt;Node16</title>
<path fill="none" stroke="#63b8ff" d="M2429.61,-156.19C2130.22,-152.38 913.13,-135.28 745,-107 731.87,-104.79 717.67,-100.48 706.18,-96.47"/>
<polygon fill="#63b8ff" stroke="#63b8ff" points="2429.14,-159.68 2439.18,-156.31 2429.23,-152.68 2429.14,-159.68"/>
</g>
<!-- Node13 -->
<g id="node7" class="node">
<title>Node13</title>
<g id="a_node7"><a xlink:href="d__a__alink_8cpp.html" target="_top" xlink:title=" ">
<polygon fill="white" stroke="#666666" points="481.5,-24.5 372.5,-24.5 372.5,-5.5 481.5,-5.5 481.5,-24.5"/>
<text text-anchor="middle" x="427" y="-12.5" font-family="Helvetica,sans-Serif" font-size="10.00">src/d/a/d_a_alink.cpp</text>
</a>
</g>
</g>
<!-- Node3&#45;&gt;Node13 -->
<g id="edge31" class="edge">
<title>Node3&#45;&gt;Node13</title>
<path fill="none" stroke="#63b8ff" d="M2429.11,-156.66C2076.88,-154.74 451.99,-143.87 416,-107 394.21,-84.68 412.23,-43.2 421.88,-24.98"/>
<polygon fill="#63b8ff" stroke="#63b8ff" points="2429.08,-160.16 2439.1,-156.72 2429.12,-153.16 2429.08,-160.16"/>
</g>
<!-- Node17 -->
<g id="node8" class="node">
<title>Node17</title>
<g id="a_node8"><a xlink:href="d__a__obj__item_8cpp.html" target="_top" xlink:title=" ">
<polygon fill="white" stroke="#666666" points="757.5,-24.5 632.5,-24.5 632.5,-5.5 757.5,-5.5 757.5,-24.5"/>
<text text-anchor="middle" x="695" y="-12.5" font-family="Helvetica,sans-Serif" font-size="10.00">src/d/a/d_a_obj_item.cpp</text>
</a>
</g>
</g>
<!-- Node3&#45;&gt;Node17 -->
<g id="edge34" class="edge">
<title>Node3&#45;&gt;Node17</title>
<path fill="none" stroke="#63b8ff" d="M2429.32,-156.48C2099.62,-153.76 658.1,-139.97 626,-107 613.29,-93.94 617.72,-82.23 626,-66 635.88,-46.63 657.17,-33.02 673.5,-24.94"/>
<polygon fill="#63b8ff" stroke="#63b8ff" points="2429.04,-159.98 2439.07,-156.56 2429.09,-152.98 2429.04,-159.98"/>
</g>
<!-- Node18 -->
<g id="node9" class="node">
<title>Node18</title>
<g id="a_node9"><a xlink:href="d__com__inf__game_8cpp.html" target="_top" xlink:title=" ">
<polygon fill="white" stroke="#666666" points="884,-30 776,-30 776,0 884,0 884,-30"/>
<text text-anchor="start" x="784" y="-18" font-family="Helvetica,sans-Serif" font-size="10.00">src/d/com/d_com_inf</text>
<text text-anchor="middle" x="830" y="-7" font-family="Helvetica,sans-Serif" font-size="10.00">_game.cpp</text>
</a>
</g>
</g>
<!-- Node3&#45;&gt;Node18 -->
<g id="edge40" class="edge">
<title>Node3&#45;&gt;Node18</title>
<path fill="none" stroke="#63b8ff" d="M2429.75,-156.32C2117.58,-152.98 807.3,-137.16 778,-107 765.3,-93.93 770.86,-82.77 778,-66 784.18,-51.48 796.88,-39.14 808.17,-30.35"/>
<polygon fill="#63b8ff" stroke="#63b8ff" points="2429.31,-159.82 2439.35,-156.43 2429.39,-152.82 2429.31,-159.82"/>
</g>
<!-- Node21 -->
<g id="node10" class="node">
<title>Node21</title>
<g id="a_node10"><a xlink:href="d__kantera__icon__meter_8h.html" target="_top" xlink:title=" ">
<polygon fill="#fff0f0" stroke="red" points="888.5,-101.5 787.5,-101.5 787.5,-71.5 888.5,-71.5 888.5,-101.5"/>
<text text-anchor="start" x="795.5" y="-89.5" font-family="Helvetica,sans-Serif" font-size="10.00">include/d/d_kantera</text>
<text text-anchor="middle" x="838" y="-78.5" font-family="Helvetica,sans-Serif" font-size="10.00">_icon_meter.h</text>
</a>
</g>
</g>
<!-- Node3&#45;&gt;Node21 -->
<g id="edge9" class="edge">
<title>Node3&#45;&gt;Node21</title>
<path fill="none" stroke="#63b8ff" d="M2429.58,-157.46C2166.66,-158.9 1198.48,-160.38 897,-107 890.2,-105.8 883.11,-103.98 876.31,-101.92"/>
<polygon fill="#63b8ff" stroke="#63b8ff" points="2429.34,-160.96 2439.32,-157.41 2429.3,-153.96 2429.34,-160.96"/>
</g>
<!-- Node24 -->
<g id="node11" class="node">
<title>Node24</title>
<g id="a_node11"><a xlink:href="d__model_8h.html" target="_top" xlink:title=" ">
<polygon fill="#fff0f0" stroke="red" points="1009.5,-96 906.5,-96 906.5,-77 1009.5,-77 1009.5,-96"/>
<text text-anchor="middle" x="958" y="-84" font-family="Helvetica,sans-Serif" font-size="10.00">include/d/d_model.h</text>
</a>
</g>
</g>
<!-- Node3&#45;&gt;Node24 -->
<g id="edge10" class="edge">
<title>Node3&#45;&gt;Node24</title>
<path fill="none" stroke="#63b8ff" d="M2429.31,-157.22C2178.87,-157.66 1294.76,-155.66 1018,-107 1005.27,-104.76 991.53,-100.44 980.41,-96.44"/>
<polygon fill="#63b8ff" stroke="#63b8ff" points="2429.25,-160.72 2439.24,-157.2 2429.23,-153.72 2429.25,-160.72"/>
</g>
<!-- Node26 -->
<g id="node12" class="node">
<title>Node26</title>
<g id="a_node12"><a xlink:href="d__name_8h.html" target="_top" xlink:title=" ">
<polygon fill="#fff0f0" stroke="red" points="1128.5,-96 1027.5,-96 1027.5,-77 1128.5,-77 1128.5,-96"/>
<text text-anchor="middle" x="1078" y="-84" font-family="Helvetica,sans-Serif" font-size="10.00">include/d/d_name.h</text>
</a>
</g>
</g>
<!-- Node3&#45;&gt;Node26 -->
<g id="edge11" class="edge">
<title>Node3&#45;&gt;Node26</title>
<path fill="none" stroke="#63b8ff" d="M2429.64,-156.99C2192.88,-156.56 1390.41,-151.76 1138,-107 1125.27,-104.74 1111.53,-100.42 1100.41,-96.42"/>
<polygon fill="#63b8ff" stroke="#63b8ff" points="2429.29,-160.49 2439.29,-157 2429.3,-153.49 2429.29,-160.49"/>
</g>
<!-- Node28 -->
<g id="node13" class="node">
<title>Node28</title>
<g id="a_node13"><a xlink:href="d__file__sel__info_8h.html" target="_top" xlink:title=" ">
<polygon fill="#fff0f0" stroke="red" points="1243,-101.5 1147,-101.5 1147,-71.5 1243,-71.5 1243,-101.5"/>
<text text-anchor="start" x="1155" y="-89.5" font-family="Helvetica,sans-Serif" font-size="10.00">include/d/file/d_file</text>
<text text-anchor="middle" x="1195" y="-78.5" font-family="Helvetica,sans-Serif" font-size="10.00">_sel_info.h</text>
</a>
</g>
</g>
<!-- Node3&#45;&gt;Node28 -->
<g id="edge12" class="edge">
<title>Node3&#45;&gt;Node28</title>
<path fill="none" stroke="#63b8ff" d="M2429.64,-156.86C2205.98,-155.98 1480.93,-149.82 1252,-107 1245.52,-105.79 1238.78,-103.99 1232.3,-101.97"/>
<polygon fill="#63b8ff" stroke="#63b8ff" points="2429.32,-160.36 2439.34,-156.89 2429.35,-153.36 2429.32,-160.36"/>
</g>
<!-- Node31 -->
<g id="node14" class="node">
<title>Node31</title>
<g id="a_node14"><a xlink:href="d__file__sel__warning_8h.html" target="_top" xlink:title=" ">
<polygon fill="#fff0f0" stroke="red" points="1357,-101.5 1261,-101.5 1261,-71.5 1357,-71.5 1357,-101.5"/>
<text text-anchor="start" x="1269" y="-89.5" font-family="Helvetica,sans-Serif" font-size="10.00">include/d/file/d_file</text>
<text text-anchor="middle" x="1309" y="-78.5" font-family="Helvetica,sans-Serif" font-size="10.00">_sel_warning.h</text>
</a>
</g>
</g>
<!-- Node3&#45;&gt;Node31 -->
<g id="edge13" class="edge">
<title>Node3&#45;&gt;Node31</title>
<path fill="none" stroke="#63b8ff" d="M2429.11,-156.54C2218.63,-154.69 1571.71,-145.9 1366,-107 1359.53,-105.78 1352.79,-103.97 1346.3,-101.95"/>
<polygon fill="#63b8ff" stroke="#63b8ff" points="2429.03,-160.04 2439.06,-156.62 2429.09,-153.04 2429.03,-160.04"/>
</g>
<!-- Node33 -->
<g id="node15" class="node">
<title>Node33</title>
<g id="a_node15"><a xlink:href="d__meter2_8h.html" target="_top" xlink:title=" ">
<polygon fill="#fff0f0" stroke="red" points="1509,-96 1375,-96 1375,-77 1509,-77 1509,-96"/>
<text text-anchor="middle" x="1442" y="-84" font-family="Helvetica,sans-Serif" font-size="10.00">include/d/meter/d_meter2.h</text>
</a>
</g>
</g>
<!-- Node3&#45;&gt;Node33 -->
<g id="edge14" class="edge">
<title>Node3&#45;&gt;Node33</title>
<path fill="none" stroke="#63b8ff" d="M2429.27,-155.33C2238.69,-150.28 1694.34,-133.85 1518,-107 1502.38,-104.62 1485.31,-100.39 1471.31,-96.48"/>
<polygon fill="#63b8ff" stroke="#63b8ff" points="2428.9,-158.82 2438.99,-155.58 2429.08,-151.82 2428.9,-158.82"/>
</g>
<!-- Node41 -->
<g id="node16" class="node">
<title>Node41</title>
<g id="a_node16"><a xlink:href="d__msg__object_8h.html" target="_top" xlink:title=" ">
<polygon fill="#fff0f0" stroke="red" points="331,-101.5 221,-101.5 221,-71.5 331,-71.5 331,-101.5"/>
<text text-anchor="start" x="229" y="-89.5" font-family="Helvetica,sans-Serif" font-size="10.00">include/d/msg/d_msg</text>
<text text-anchor="middle" x="276" y="-78.5" font-family="Helvetica,sans-Serif" font-size="10.00">_object.h</text>
</a>
</g>
</g>
<!-- Node3&#45;&gt;Node41 -->
<g id="edge15" class="edge">
<title>Node3&#45;&gt;Node41</title>
<path fill="none" stroke="#63b8ff" d="M2429.15,-156.45C2088.62,-153.51 554.96,-138.59 345,-107 337.12,-105.81 328.87,-104 320.92,-101.95"/>
<polygon fill="#63b8ff" stroke="#63b8ff" points="2428.97,-159.95 2439,-156.53 2429.03,-152.95 2428.97,-159.95"/>
</g>
<!-- Node46 -->
<g id="node17" class="node">
<title>Node46</title>
<g id="a_node17"><a xlink:href="d__demo_8cpp.html" target="_top" xlink:title=" ">
<polygon fill="white" stroke="#666666" points="94,-24.5 0,-24.5 0,-5.5 94,-5.5 94,-24.5"/>
<text text-anchor="middle" x="47" y="-12.5" font-family="Helvetica,sans-Serif" font-size="10.00">src/d/d_demo.cpp</text>
</a>
</g>
</g>
<!-- Node3&#45;&gt;Node46 -->
<g id="edge45" class="edge">
<title>Node3&#45;&gt;Node46</title>
<path fill="none" stroke="#63b8ff" d="M2429.07,-156.63C2060.37,-154.46 289.73,-142.25 180,-107 126.99,-89.97 76.03,-44.43 55.96,-24.99"/>
<polygon fill="#63b8ff" stroke="#63b8ff" points="2429.04,-160.13 2439.06,-156.69 2429.08,-153.13 2429.04,-160.13"/>
</g>
<!-- Node47 -->
<g id="node18" class="node">
<title>Node47</title>
<g id="a_node18"><a xlink:href="d__event_8cpp.html" target="_top" xlink:title=" ">
<polygon fill="white" stroke="#666666" points="233.5,-24.5 112.5,-24.5 112.5,-5.5 233.5,-5.5 233.5,-24.5"/>
<text text-anchor="middle" x="173" y="-12.5" font-family="Helvetica,sans-Serif" font-size="10.00">src/d/event/d_event.cpp</text>
</a>
</g>
</g>
<!-- Node3&#45;&gt;Node47 -->
<g id="edge54" class="edge">
<title>Node3&#45;&gt;Node47</title>
<path fill="none" stroke="#63b8ff" d="M2429.17,-156.53C2057.42,-153.78 259.15,-138.84 212,-107 183.79,-87.96 175.89,-43.93 173.76,-24.96"/>
<polygon fill="#63b8ff" stroke="#63b8ff" points="2428.98,-160.03 2439.01,-156.6 2429.03,-153.03 2428.98,-160.03"/>
</g>
<!-- Node48 -->
<g id="node19" class="node">
<title>Node48</title>
<g id="a_node19"><a xlink:href="d__event__data_8cpp.html" target="_top" xlink:title=" ">
<polygon fill="white" stroke="#666666" points="354.5,-30 251.5,-30 251.5,0 354.5,0 354.5,-30"/>
<text text-anchor="start" x="259.5" y="-18" font-family="Helvetica,sans-Serif" font-size="10.00">src/d/event/d_event</text>
<text text-anchor="middle" x="303" y="-7" font-family="Helvetica,sans-Serif" font-size="10.00">_data.cpp</text>
</a>
</g>
</g>
<!-- Node3&#45;&gt;Node48 -->
<g id="edge55" class="edge">
<title>Node3&#45;&gt;Node48</title>
<path fill="none" stroke="#63b8ff" d="M2429.37,-156.73C2082.78,-155.14 498.07,-145.77 402,-107 362.6,-91.1 329.18,-51.81 313.16,-30.43"/>
<polygon fill="#63b8ff" stroke="#63b8ff" points="2429.17,-160.23 2439.19,-156.77 2429.2,-153.23 2429.17,-160.23"/>
</g>
<!-- Node55 -->
<g id="node20" class="node">
<title>Node55</title>
<g id="a_node20"><a xlink:href="d__s__logo_8h.html" target="_top" xlink:title=" ">
<polygon fill="#fff0f0" stroke="red" points="1640.5,-96 1527.5,-96 1527.5,-77 1640.5,-77 1640.5,-96"/>
<text text-anchor="middle" x="1584" y="-84" font-family="Helvetica,sans-Serif" font-size="10.00">include/d/s/d_s_logo.h</text>
</a>
</g>
</g>
<!-- Node3&#45;&gt;Node55 -->
<g id="edge20" class="edge">
<title>Node3&#45;&gt;Node55</title>
<path fill="none" stroke="#63b8ff" d="M2429.14,-155.06C2256.43,-149.73 1798.5,-133.47 1649,-107 1635.54,-104.62 1620.94,-100.39 1608.98,-96.48"/>
<polygon fill="#63b8ff" stroke="#63b8ff" points="2428.97,-158.56 2439.07,-155.36 2429.18,-151.56 2428.97,-158.56"/>
</g>
<!-- Node57 -->
<g id="node21" class="node">
<title>Node57</title>
<g id="a_node21"><a xlink:href="d__s__play_8h.html" target="_top" xlink:title=" ">
<polygon fill="#fff0f0" stroke="red" points="1771.5,-96 1658.5,-96 1658.5,-77 1771.5,-77 1771.5,-96"/>
<text text-anchor="middle" x="1715" y="-84" font-family="Helvetica,sans-Serif" font-size="10.00">include/d/s/d_s_play.h</text>
</a>
</g>
</g>
<!-- Node3&#45;&gt;Node57 -->
<g id="edge21" class="edge">
<title>Node3&#45;&gt;Node57</title>
<path fill="none" stroke="#63b8ff" d="M2429.23,-157.25C2301.89,-156.64 2015.96,-150.08 1780,-107 1766.56,-104.55 1751.95,-100.31 1739.99,-96.41"/>
<polygon fill="#63b8ff" stroke="#63b8ff" points="2429.16,-160.75 2439.17,-157.28 2429.19,-153.75 2429.16,-160.75"/>
</g>
<!-- Node61 -->
<g id="node22" class="node">
<title>Node61</title>
<g id="a_node22"><a xlink:href="d__msg__scrn__base_8h.html" target="_top" xlink:title=" ">
<polygon fill="#fff0f0" stroke="red" points="1888.5,-101.5 1789.5,-101.5 1789.5,-71.5 1888.5,-71.5 1888.5,-101.5"/>
<text text-anchor="start" x="1797.5" y="-89.5" font-family="Helvetica,sans-Serif" font-size="10.00">include/msg/scrn/d</text>
<text text-anchor="middle" x="1839" y="-78.5" font-family="Helvetica,sans-Serif" font-size="10.00">_msg_scrn_base.h</text>
</a>
</g>
</g>
<!-- Node3&#45;&gt;Node61 -->
<g id="edge22" class="edge">
<title>Node3&#45;&gt;Node61</title>
<path fill="none" stroke="#63b8ff" d="M2429.49,-156.65C2318.16,-154.92 2087.49,-146.37 1897,-107 1890.65,-105.69 1884.04,-103.89 1877.64,-101.92"/>
<polygon fill="#63b8ff" stroke="#63b8ff" points="2429.3,-160.15 2439.35,-156.79 2429.4,-153.15 2429.3,-160.15"/>
</g>
<!-- Node65 -->
<g id="node23" class="node">
<title>Node65</title>
<g id="a_node23"><a xlink:href="d__a__b__zant_8h.html" target="_top" xlink:title=" ">
<polygon fill="white" stroke="#666666" points="2027.5,-101.5 1906.5,-101.5 1906.5,-71.5 2027.5,-71.5 2027.5,-101.5"/>
<text text-anchor="start" x="1914.5" y="-89.5" font-family="Helvetica,sans-Serif" font-size="10.00">include/rel/d/a/b/d</text>
<text text-anchor="middle" x="1967" y="-78.5" font-family="Helvetica,sans-Serif" font-size="10.00">_a_b_zant/d_a_b_zant.h</text>
</a>
</g>
</g>
<!-- Node3&#45;&gt;Node65 -->
<g id="edge23" class="edge">
<title>Node3&#45;&gt;Node65</title>
<path fill="none" stroke="#63b8ff" d="M2429.45,-153.17C2339.7,-147.22 2175.19,-133.59 2037,-107 2029.81,-105.62 2022.29,-103.86 2014.95,-101.97"/>
<polygon fill="#63b8ff" stroke="#63b8ff" points="2429.09,-156.65 2439.3,-153.81 2429.55,-149.67 2429.09,-156.65"/>
</g>
<!-- Node66 -->
<g id="node24" class="node">
<title>Node66</title>
<g id="a_node24"><a xlink:href="d__a__skip__2D_8h.html" target="_top" xlink:title=" ">
<polygon fill="white" stroke="#666666" points="2170,-101.5 2046,-101.5 2046,-71.5 2170,-71.5 2170,-101.5"/>
<text text-anchor="start" x="2054" y="-89.5" font-family="Helvetica,sans-Serif" font-size="10.00">include/rel/d/a/d_a</text>
<text text-anchor="middle" x="2108" y="-78.5" font-family="Helvetica,sans-Serif" font-size="10.00">_skip_2D/d_a_skip_2D.h</text>
</a>
</g>
</g>
<!-- Node3&#45;&gt;Node66 -->
<g id="edge24" class="edge">
<title>Node3&#45;&gt;Node66</title>
<path fill="none" stroke="#63b8ff" d="M2429.47,-148.71C2365.05,-140.16 2264.8,-125.49 2179,-107 2172.13,-105.52 2164.93,-103.77 2157.87,-101.95"/>
<polygon fill="#63b8ff" stroke="#63b8ff" points="2428.81,-152.15 2439.18,-149.98 2429.72,-145.21 2428.81,-152.15"/>
</g>
<!-- Node67 -->
<g id="node25" class="node">
<title>Node67</title>
<g id="a_node25"><a xlink:href="d__a__spinner_8h.html" target="_top" xlink:title=" ">
<polygon fill="white" stroke="#666666" points="541,-101.5 425,-101.5 425,-71.5 541,-71.5 541,-101.5"/>
<text text-anchor="start" x="433" y="-89.5" font-family="Helvetica,sans-Serif" font-size="10.00">include/rel/d/a/d_a</text>
<text text-anchor="middle" x="483" y="-78.5" font-family="Helvetica,sans-Serif" font-size="10.00">_spinner/d_a_spinner.h</text>
</a>
</g>
</g>
<!-- Node3&#45;&gt;Node67 -->
<g id="edge25" class="edge">
<title>Node3&#45;&gt;Node67</title>
<path fill="none" stroke="#63b8ff" d="M2429.34,-156.23C2109.9,-152.4 743.32,-134.52 555,-107 546.8,-105.8 538.2,-103.98 529.91,-101.93"/>
<polygon fill="#63b8ff" stroke="#63b8ff" points="2429.15,-159.73 2439.19,-156.34 2429.23,-152.73 2429.15,-159.73"/>
</g>
<!-- Node68 -->
<g id="node26" class="node">
<title>Node68</title>
<g id="a_node26"><a xlink:href="d__a__player_8cpp.html" target="_top" xlink:title=" ">
<polygon fill="white" stroke="#666666" points="614,-24.5 500,-24.5 500,-5.5 614,-5.5 614,-24.5"/>
<text text-anchor="middle" x="557" y="-12.5" font-family="Helvetica,sans-Serif" font-size="10.00">src/d/a/d_a_player.cpp</text>
</a>
</g>
</g>
<!-- Node3&#45;&gt;Node68 -->
<g id="edge35" class="edge">
<title>Node3&#45;&gt;Node68</title>
<path fill="none" stroke="#63b8ff" d="M2429.77,-156.98C2105.27,-156.64 695.47,-152.54 615,-107 582.55,-88.64 565.5,-43.84 559.52,-24.79"/>
<polygon fill="#63b8ff" stroke="#63b8ff" points="2429.34,-160.48 2439.34,-156.98 2429.34,-153.48 2429.34,-160.48"/>
</g>
<!-- Node69 -->
<g id="node27" class="node">
<title>Node69</title>
<g id="a_node27"><a xlink:href="d__a__obj__yobikusa_8h.html" target="_top" xlink:title=" ">
<polygon fill="white" stroke="#666666" points="2293.5,-107 2188.5,-107 2188.5,-66 2293.5,-66 2293.5,-107"/>
<text text-anchor="start" x="2196.5" y="-95" font-family="Helvetica,sans-Serif" font-size="10.00">include/rel/d/a/obj</text>
<text text-anchor="start" x="2196.5" y="-84" font-family="Helvetica,sans-Serif" font-size="10.00">/d_a_obj_yobikusa/d</text>
<text text-anchor="middle" x="2241" y="-73" font-family="Helvetica,sans-Serif" font-size="10.00">_a_obj_yobikusa.h</text>
</a>
</g>
</g>
<!-- Node3&#45;&gt;Node69 -->
<g id="edge28" class="edge">
<title>Node3&#45;&gt;Node69</title>
<path fill="none" stroke="#63b8ff" d="M2430.13,-140.82C2392.72,-131.42 2345.1,-119.06 2303,-107 2299.96,-106.13 2296.85,-105.22 2293.71,-104.28"/>
<polygon fill="#63b8ff" stroke="#63b8ff" points="2428.87,-144.12 2439.42,-143.15 2430.57,-137.33 2428.87,-144.12"/>
</g>
<!-- Node70 -->
<g id="node28" class="node">
<title>Node70</title>
<g id="a_node28"><a xlink:href="d__a__tag__telop_8h.html" target="_top" xlink:title=" ">
<polygon fill="white" stroke="#666666" points="2430,-107 2312,-107 2312,-66 2430,-66 2430,-107"/>
<text text-anchor="start" x="2320" y="-95" font-family="Helvetica,sans-Serif" font-size="10.00">include/rel/d/a/tag</text>
<text text-anchor="start" x="2320" y="-84" font-family="Helvetica,sans-Serif" font-size="10.00">/d_a_tag_telop/d_a_tag</text>
<text text-anchor="middle" x="2371" y="-73" font-family="Helvetica,sans-Serif" font-size="10.00">_telop.h</text>
</a>
</g>
</g>
<!-- Node3&#45;&gt;Node70 -->
<g id="edge29" class="edge">
<title>Node3&#45;&gt;Node70</title>
<path fill="none" stroke="#63b8ff" d="M2460.14,-137.06C2443.41,-127.76 2423.55,-116.72 2406.82,-107.42"/>
<polygon fill="#63b8ff" stroke="#63b8ff" points="2458.34,-140.06 2468.78,-141.86 2461.74,-133.95 2458.34,-140.06"/>
</g>
<!-- Node71 -->
<g id="node29" class="node">
<title>Node71</title>
<g id="a_node29"><a xlink:href="c__dylink_8cpp.html" target="_top" xlink:title=" ">
<polygon fill="white" stroke="#666666" points="2543.5,-96 2448.5,-96 2448.5,-77 2543.5,-77 2543.5,-96"/>
<text text-anchor="middle" x="2496" y="-84" font-family="Helvetica,sans-Serif" font-size="10.00">src/c/c_dylink.cpp</text>
</a>
</g>
</g>
<!-- Node3&#45;&gt;Node71 -->
<g id="edge30" class="edge">
<title>Node3&#45;&gt;Node71</title>
<path fill="none" stroke="#63b8ff" d="M2496,-131.46C2496,-119.07 2496,-104.99 2496,-96.18"/>
<polygon fill="#63b8ff" stroke="#63b8ff" points="2492.5,-131.09 2496,-141.09 2499.5,-131.09 2492.5,-131.09"/>
</g>
<!-- Node72 -->
<g id="node30" class="node">
<title>Node72</title>
<g id="a_node30"><a xlink:href="d__a__itembase_8cpp.html" target="_top" xlink:title=" ">
<polygon fill="white" stroke="#666666" points="2690,-96 2562,-96 2562,-77 2690,-77 2690,-96"/>
<text text-anchor="middle" x="2626" y="-84" font-family="Helvetica,sans-Serif" font-size="10.00">src/d/a/d_a_itembase.cpp</text>
</a>
</g>
</g>
<!-- Node3&#45;&gt;Node72 -->
<g id="edge32" class="edge">
<title>Node3&#45;&gt;Node72</title>
<path fill="none" stroke="#63b8ff" d="M2532.89,-137.28C2558.07,-123.82 2590.21,-106.63 2609.39,-96.38"/>
<polygon fill="#63b8ff" stroke="#63b8ff" points="2531.44,-134.08 2524.27,-141.89 2534.74,-140.26 2531.44,-134.08"/>
</g>
<!-- Node73 -->
<g id="node31" class="node">
<title>Node73</title>
<g id="a_node31"><a xlink:href="d__a__obj_8cpp.html" target="_top" xlink:title=" ">
<polygon fill="white" stroke="#666666" points="2809.5,-96 2708.5,-96 2708.5,-77 2809.5,-77 2809.5,-96"/>
<text text-anchor="middle" x="2759" y="-84" font-family="Helvetica,sans-Serif" font-size="10.00">src/d/a/d_a_obj.cpp</text>
</a>
</g>
</g>
<!-- Node3&#45;&gt;Node73 -->
<g id="edge33" class="edge">
<title>Node3&#45;&gt;Node73</title>
<path fill="none" stroke="#63b8ff" d="M2562.59,-141.89C2602.37,-132.54 2653.79,-119.9 2699,-107 2710.16,-103.82 2722.37,-99.92 2732.84,-96.46"/>
<polygon fill="#63b8ff" stroke="#63b8ff" points="2561.84,-138.47 2552.9,-144.15 2563.44,-145.28 2561.84,-138.47"/>
</g>
<!-- Node74 -->
<g id="node32" class="node">
<title>Node74</title>
<g id="a_node32"><a xlink:href="d__bg__s_8cpp.html" target="_top" xlink:title=" ">
<polygon fill="white" stroke="#666666" points="2932,-96 2828,-96 2828,-77 2932,-77 2932,-96"/>
<text text-anchor="middle" x="2880" y="-84" font-family="Helvetica,sans-Serif" font-size="10.00">src/d/bg/d_bg_s.cpp</text>
</a>
</g>
</g>
<!-- Node3&#45;&gt;Node74 -->
<g id="edge36" class="edge">
<title>Node3&#45;&gt;Node74</title>
<path fill="none" stroke="#63b8ff" d="M2562.86,-149.6C2628.38,-141.65 2730.82,-127.36 2818,-107 2830.2,-104.15 2843.47,-100.11 2854.6,-96.44"/>
<polygon fill="#63b8ff" stroke="#63b8ff" points="2562.48,-146.12 2552.97,-150.78 2563.31,-153.07 2562.48,-146.12"/>
</g>
<!-- Node75 -->
<g id="node33" class="node">
<title>Node75</title>
<g id="a_node33"><a xlink:href="d__bg__s__movebg__actor_8cpp.html" target="_top" xlink:title=" ">
<polygon fill="white" stroke="#666666" points="3076,-101.5 2950,-101.5 2950,-71.5 3076,-71.5 3076,-101.5"/>
<text text-anchor="start" x="2958" y="-89.5" font-family="Helvetica,sans-Serif" font-size="10.00">src/d/bg/d_bg_s_movebg</text>
<text text-anchor="middle" x="3013" y="-78.5" font-family="Helvetica,sans-Serif" font-size="10.00">_actor.cpp</text>
</a>
</g>
</g>
<!-- Node3&#45;&gt;Node75 -->
<g id="edge37" class="edge">
<title>Node3&#45;&gt;Node75</title>
<path fill="none" stroke="#63b8ff" d="M2562.55,-152.71C2649.97,-146.34 2807.98,-132.33 2941,-107 2948.38,-105.59 2956.11,-103.83 2963.65,-101.93"/>
<polygon fill="#63b8ff" stroke="#63b8ff" points="2562.44,-149.2 2552.72,-153.41 2562.94,-156.19 2562.44,-149.2"/>
</g>
<!-- Node76 -->
<g id="node34" class="node">
<title>Node76</title>
<g id="a_node34"><a xlink:href="d__bg__w_8cpp.html" target="_top" xlink:title=" ">
<polygon fill="white" stroke="#666666" points="3201.5,-96 3094.5,-96 3094.5,-77 3201.5,-77 3201.5,-96"/>
<text text-anchor="middle" x="3148" y="-84" font-family="Helvetica,sans-Serif" font-size="10.00">src/d/bg/d_bg_w.cpp</text>
</a>
</g>
</g>
<!-- Node3&#45;&gt;Node76 -->
<g id="edge38" class="edge">
<title>Node3&#45;&gt;Node76</title>
<path fill="none" stroke="#63b8ff" d="M2562.57,-156C2672.39,-153.32 2897.96,-143.44 3085,-107 3097.92,-104.48 3111.95,-100.29 3123.48,-96.44"/>
<polygon fill="#63b8ff" stroke="#63b8ff" points="2562.79,-152.5 2552.87,-156.23 2562.95,-159.5 2562.79,-152.5"/>
</g>
<!-- Node3&#45;&gt;Node77 -->
<g id="edge39" class="edge">
<title>Node3&#45;&gt;Node77</title>
<path fill="none" stroke="#63b8ff" d="M2562.76,-156.32C2966.5,-152.11 5068.9,-129.18 5203,-107 5216.05,-104.84 5230.15,-100.48 5241.5,-96.42"/>
<polygon fill="#63b8ff" stroke="#63b8ff" points="2562.8,-152.81 2552.83,-156.42 2562.87,-159.81 2562.8,-152.81"/>
</g>
<!-- Node78 -->
<g id="node36" class="node">
<title>Node78</title>
<g id="a_node36"><a xlink:href="d__com__static_8cpp.html" target="_top" xlink:title=" ">
<polygon fill="white" stroke="#666666" points="3360,-96 3220,-96 3220,-77 3360,-77 3360,-96"/>
<text text-anchor="middle" x="3290" y="-84" font-family="Helvetica,sans-Serif" font-size="10.00">src/d/com/d_com_static.cpp</text>
</a>
</g>
</g>
<!-- Node3&#45;&gt;Node78 -->
<g id="edge41" class="edge">
<title>Node3&#45;&gt;Node78</title>
<path fill="none" stroke="#63b8ff" d="M2562.87,-156.08C2689.77,-153.51 2973.95,-143.76 3210,-107 3226.24,-104.47 3244.04,-100.28 3258.71,-96.43"/>
<polygon fill="#63b8ff" stroke="#63b8ff" points="2562.89,-152.58 2552.96,-156.27 2563.03,-159.58 2562.89,-152.58"/>
</g>
<!-- Node79 -->
<g id="node37" class="node">
<title>Node79</title>
<g id="a_node37"><a xlink:href="d__attention_8cpp.html" target="_top" xlink:title=" ">
<polygon fill="white" stroke="#666666" points="3485.5,-96 3378.5,-96 3378.5,-77 3485.5,-77 3485.5,-96"/>
<text text-anchor="middle" x="3432" y="-84" font-family="Helvetica,sans-Serif" font-size="10.00">src/d/d_attention.cpp</text>
</a>
</g>
</g>
<!-- Node3&#45;&gt;Node79 -->
<g id="edge42" class="edge">
<title>Node3&#45;&gt;Node79</title>
<path fill="none" stroke="#63b8ff" d="M2562.78,-155.27C2739.14,-150.38 3214.4,-134.92 3369,-107 3382.07,-104.64 3396.23,-100.41 3407.81,-96.5"/>
<polygon fill="#63b8ff" stroke="#63b8ff" points="2562.76,-151.77 2552.86,-155.55 2562.95,-158.77 2562.76,-151.77"/>
</g>
<!-- Node80 -->
<g id="node38" class="node">
<title>Node80</title>
<g id="a_node38"><a xlink:href="d__cam__param_8cpp.html" target="_top" xlink:title=" ">
<polygon fill="white" stroke="#666666" points="3624.5,-96 3503.5,-96 3503.5,-77 3624.5,-77 3624.5,-96"/>
<text text-anchor="middle" x="3564" y="-84" font-family="Helvetica,sans-Serif" font-size="10.00">src/d/d_cam_param.cpp</text>
</a>
</g>
</g>
<!-- Node3&#45;&gt;Node80 -->
<g id="edge43" class="edge">
<title>Node3&#45;&gt;Node80</title>
<path fill="none" stroke="#63b8ff" d="M2562.76,-155.58C2756.08,-151.18 3313.92,-136.22 3494,-107 3508.57,-104.64 3524.44,-100.36 3537.39,-96.41"/>
<polygon fill="#63b8ff" stroke="#63b8ff" points="2562.81,-152.08 2552.89,-155.81 2562.97,-159.08 2562.81,-152.08"/>
</g>
<!-- Node81 -->
<g id="node39" class="node">
<title>Node81</title>
<g id="a_node39"><a xlink:href="d__camera_8cpp.html" target="_top" xlink:title=" ">
<polygon fill="white" stroke="#666666" points="3745,-96 3643,-96 3643,-77 3745,-77 3745,-96"/>
<text text-anchor="middle" x="3694" y="-84" font-family="Helvetica,sans-Serif" font-size="10.00">src/d/d_camera.cpp</text>
</a>
</g>
</g>
<!-- Node3&#45;&gt;Node81 -->
<g id="edge44" class="edge">
<title>Node3&#45;&gt;Node81</title>
<path fill="none" stroke="#63b8ff" d="M2562.91,-156.38C2774.21,-154.07 3425.51,-144.04 3633,-107 3645.81,-104.71 3659.65,-100.44 3670.9,-96.48"/>
<polygon fill="#63b8ff" stroke="#63b8ff" points="2562.88,-152.88 2552.91,-156.49 2562.95,-159.88 2562.88,-152.88"/>
</g>
<!-- Node82 -->
<g id="node40" class="node">
<title>Node82</title>
<g id="a_node40"><a xlink:href="d__eye__hl_8cpp.html" target="_top" xlink:title=" ">
<polygon fill="white" stroke="#666666" points="3861,-96 3763,-96 3763,-77 3861,-77 3861,-96"/>
<text text-anchor="middle" x="3812" y="-84" font-family="Helvetica,sans-Serif" font-size="10.00">src/d/d_eye_hl.cpp</text>
</a>
</g>
</g>
<!-- Node3&#45;&gt;Node82 -->
<g id="edge46" class="edge">
<title>Node3&#45;&gt;Node82</title>
<path fill="none" stroke="#63b8ff" d="M2562.71,-156.84C2788.41,-155.93 3522.24,-149.66 3754,-107 3766.33,-104.73 3779.61,-100.41 3790.36,-96.41"/>
<polygon fill="#63b8ff" stroke="#63b8ff" points="2562.9,-153.34 2552.91,-156.88 2562.93,-160.34 2562.9,-153.34"/>
</g>
<!-- Node83 -->
<g id="node41" class="node">
<title>Node83</title>
<g id="a_node41"><a xlink:href="d__kyeff_8cpp.html" target="_top" xlink:title=" ">
<polygon fill="white" stroke="#666666" points="3969,-96 3879,-96 3879,-77 3969,-77 3969,-96"/>
<text text-anchor="middle" x="3924" y="-84" font-family="Helvetica,sans-Serif" font-size="10.00">src/d/d_kyeff.cpp</text>
</a>
</g>
</g>
<!-- Node3&#45;&gt;Node83 -->
<g id="edge47" class="edge">
<title>Node3&#45;&gt;Node83</title>
<path fill="none" stroke="#63b8ff" d="M2562.39,-157.3C2801.08,-157.95 3615.08,-156.41 3870,-107 3881.55,-104.76 3893.92,-100.44 3903.91,-96.44"/>
<polygon fill="#63b8ff" stroke="#63b8ff" points="2562.65,-153.8 2552.64,-157.27 2562.63,-160.8 2562.65,-153.8"/>
</g>
<!-- Node84 -->
<g id="node42" class="node">
<title>Node84</title>
<g id="a_node42"><a xlink:href="d__path_8cpp.html" target="_top" xlink:title=" ">
<polygon fill="white" stroke="#666666" points="4076.5,-96 3987.5,-96 3987.5,-77 4076.5,-77 4076.5,-96"/>
<text text-anchor="middle" x="4032" y="-84" font-family="Helvetica,sans-Serif" font-size="10.00">src/d/d_path.cpp</text>
</a>
</g>
</g>
<!-- Node3&#45;&gt;Node84 -->
<g id="edge48" class="edge">
<title>Node3&#45;&gt;Node84</title>
<path fill="none" stroke="#63b8ff" d="M2562.92,-157.51C2814.22,-158.99 3701.31,-160.25 3978,-107 3989.55,-104.78 4001.93,-100.46 4011.91,-96.45"/>
<polygon fill="#63b8ff" stroke="#63b8ff" points="2562.97,-154.01 2552.95,-157.45 2562.93,-161.01 2562.97,-154.01"/>
</g>
<!-- Node85 -->
<g id="node43" class="node">
<title>Node85</title>
<g id="a_node43"><a xlink:href="d__resorce_8cpp.html" target="_top" xlink:title=" ">
<polygon fill="white" stroke="#666666" points="4197,-96 4095,-96 4095,-77 4197,-77 4197,-96"/>
<text text-anchor="middle" x="4146" y="-84" font-family="Helvetica,sans-Serif" font-size="10.00">src/d/d_resorce.cpp</text>
</a>
</g>
</g>
<!-- Node3&#45;&gt;Node85 -->
<g id="edge49" class="edge">
<title>Node3&#45;&gt;Node85</title>
<path fill="none" stroke="#63b8ff" d="M2562.43,-157.36C2824.29,-158.41 3785.32,-158.58 4085,-107 4097.93,-104.77 4111.9,-100.46 4123.2,-96.45"/>
<polygon fill="#63b8ff" stroke="#63b8ff" points="2562.75,-153.86 2552.73,-157.32 2562.72,-160.86 2562.75,-153.86"/>
</g>
<!-- Node86 -->
<g id="node44" class="node">
<title>Node86</title>
<g id="a_node44"><a xlink:href="d__simple__model_8cpp.html" target="_top" xlink:title=" ">
<polygon fill="white" stroke="#666666" points="4345,-96 4215,-96 4215,-77 4345,-77 4345,-96"/>
<text text-anchor="middle" x="4280" y="-84" font-family="Helvetica,sans-Serif" font-size="10.00">src/d/d_simple_model.cpp</text>
</a>
</g>
</g>
<!-- Node3&#45;&gt;Node86 -->
<g id="edge50" class="edge">
<title>Node3&#45;&gt;Node86</title>
<path fill="none" stroke="#63b8ff" d="M2562.81,-157.08C2837.46,-157.11 3880.35,-154.04 4206,-107 4221.52,-104.76 4238.45,-100.44 4252.2,-96.44"/>
<polygon fill="#63b8ff" stroke="#63b8ff" points="2562.97,-153.58 2552.97,-157.08 2562.97,-160.58 2562.97,-153.58"/>
</g>
<!-- Node87 -->
<g id="node45" class="node">
<title>Node87</title>
<g id="a_node45"><a xlink:href="d__stage_8cpp.html" target="_top" xlink:title=" ">
<polygon fill="white" stroke="#666666" points="4457,-96 4363,-96 4363,-77 4457,-77 4457,-96"/>
<text text-anchor="middle" x="4410" y="-84" font-family="Helvetica,sans-Serif" font-size="10.00">src/d/d_stage.cpp</text>
</a>
</g>
</g>
<!-- Node3&#45;&gt;Node87 -->
<g id="edge51" class="edge">
<title>Node3&#45;&gt;Node87</title>
<path fill="none" stroke="#63b8ff" d="M2562.38,-156.42C2872.99,-153.56 4175.28,-139.7 4354,-107 4365.95,-104.81 4378.78,-100.5 4389.14,-96.48"/>
<polygon fill="#63b8ff" stroke="#63b8ff" points="2562.81,-152.92 2552.84,-156.51 2562.87,-159.92 2562.81,-152.92"/>
</g>
<!-- Node88 -->
<g id="node46" class="node">
<title>Node88</title>
<g id="a_node46"><a xlink:href="d__timer_8cpp.html" target="_top" xlink:title=" ">
<polygon fill="white" stroke="#666666" points="4567,-96 4475,-96 4475,-77 4567,-77 4567,-96"/>
<text text-anchor="middle" x="4521" y="-84" font-family="Helvetica,sans-Serif" font-size="10.00">src/d/d_timer.cpp</text>
</a>
</g>
</g>
<!-- Node3&#45;&gt;Node88 -->
<g id="edge52" class="edge">
<title>Node3&#45;&gt;Node88</title>
<path fill="none" stroke="#63b8ff" d="M2562.64,-156.55C2885.12,-154.22 4275.86,-142.2 4466,-107 4477.75,-104.82 4490.36,-100.51 4500.53,-96.49"/>
<polygon fill="#63b8ff" stroke="#63b8ff" points="2562.67,-153.05 2552.69,-156.62 2562.72,-160.05 2562.67,-153.05"/>
</g>
<!-- Node89 -->
<g id="node47" class="node">
<title>Node89</title>
<g id="a_node47"><a xlink:href="d__tresure_8cpp.html" target="_top" xlink:title=" ">
<polygon fill="white" stroke="#666666" points="4685,-96 4585,-96 4585,-77 4685,-77 4685,-96"/>
<text text-anchor="middle" x="4635" y="-84" font-family="Helvetica,sans-Serif" font-size="10.00">src/d/d_tresure.cpp</text>
</a>
</g>
</g>
<!-- Node3&#45;&gt;Node89 -->
<g id="edge53" class="edge">
<title>Node3&#45;&gt;Node89</title>
<path fill="none" stroke="#63b8ff" d="M2562.81,-156.56C2896.46,-154.23 4374.14,-141.99 4576,-107 4588.54,-104.83 4602.06,-100.51 4612.98,-96.5"/>
<polygon fill="#63b8ff" stroke="#63b8ff" points="2562.92,-153.06 2552.95,-156.63 2562.97,-160.06 2562.92,-153.06"/>
</g>
<!-- Node90 -->
<g id="node48" class="node">
<title>Node90</title>
<g id="a_node48"><a xlink:href="d__event__lib_8cpp.html" target="_top" xlink:title=" ">
<polygon fill="white" stroke="#666666" points="4806.5,-101.5 4703.5,-101.5 4703.5,-71.5 4806.5,-71.5 4806.5,-101.5"/>
<text text-anchor="start" x="4711.5" y="-89.5" font-family="Helvetica,sans-Serif" font-size="10.00">src/d/event/d_event</text>
<text text-anchor="middle" x="4755" y="-78.5" font-family="Helvetica,sans-Serif" font-size="10.00">_lib.cpp</text>
</a>
</g>
</g>
<!-- Node3&#45;&gt;Node90 -->
<g id="edge56" class="edge">
<title>Node3&#45;&gt;Node90</title>
<path fill="none" stroke="#63b8ff" d="M2562.67,-156.62C2907.37,-154.5 4479.68,-142.92 4694,-107 4701.02,-105.82 4708.34,-104.02 4715.37,-101.97"/>
<polygon fill="#63b8ff" stroke="#63b8ff" points="2562.9,-153.12 2552.92,-156.68 2562.94,-160.12 2562.9,-153.12"/>
</g>
<!-- Node91 -->
<g id="node49" class="node">
<title>Node91</title>
<g id="a_node49"><a xlink:href="d__event__manager_8cpp.html" target="_top" xlink:title=" ">
<polygon fill="white" stroke="#666666" points="4927.5,-101.5 4824.5,-101.5 4824.5,-71.5 4927.5,-71.5 4927.5,-101.5"/>
<text text-anchor="start" x="4832.5" y="-89.5" font-family="Helvetica,sans-Serif" font-size="10.00">src/d/event/d_event</text>
<text text-anchor="middle" x="4876" y="-78.5" font-family="Helvetica,sans-Serif" font-size="10.00">_manager.cpp</text>
</a>
</g>
</g>
<!-- Node3&#45;&gt;Node91 -->
<g id="edge57" class="edge">
<title>Node3&#45;&gt;Node91</title>
<path fill="none" stroke="#63b8ff" d="M2562.88,-156.72C2919.47,-155.09 4589.13,-145.45 4816,-107 4822.91,-105.83 4830.12,-104.02 4837.04,-101.98"/>
<polygon fill="#63b8ff" stroke="#63b8ff" points="2562.99,-153.22 2553.01,-156.77 2563.02,-160.22 2562.99,-153.22"/>
</g>
<!-- Node16&#45;&gt;Node13 -->
<g id="edge6" class="edge">
<title>Node16&#45;&gt;Node13</title>
<path fill="none" stroke="#63b8ff" d="M639.08,-73.58C588.18,-59.76 505.45,-37.3 459.82,-24.91"/>
<polygon fill="#63b8ff" stroke="#63b8ff" points="638.03,-76.92 648.6,-76.16 639.86,-70.16 638.03,-76.92"/>
</g>
<!-- Node16&#45;&gt;Node17 -->
<g id="edge7" class="edge">
<title>Node16&#45;&gt;Node17</title>
<path fill="none" stroke="#63b8ff" d="M686.42,-65.71C688.73,-52.29 691.69,-35.2 693.45,-24.95"/>
<polygon fill="#63b8ff" stroke="#63b8ff" points="683.03,-64.76 684.78,-75.21 689.93,-65.95 683.03,-64.76"/>
</g>
<!-- Node16&#45;&gt;Node18 -->
<g id="edge8" class="edge">
<title>Node16&#45;&gt;Node18</title>
<path fill="none" stroke="#63b8ff" d="M712.32,-71.64C737.54,-59.71 773.8,-42.57 799.39,-30.47"/>
<polygon fill="#63b8ff" stroke="#63b8ff" points="710.83,-68.47 703.29,-75.91 713.82,-74.8 710.83,-68.47"/>
</g>
<!-- Node41&#45;&gt;Node13 -->
<g id="edge16" class="edge">
<title>Node41&#45;&gt;Node13</title>
<path fill="none" stroke="#63b8ff" d="M317.69,-66.31C347.1,-52.78 385.13,-35.27 407.71,-24.88"/>
<polygon fill="#63b8ff" stroke="#63b8ff" points="316.28,-63.11 308.66,-70.47 319.21,-69.47 316.28,-63.11"/>
</g>
<!-- Node41&#45;&gt;Node46 -->
<g id="edge17" class="edge">
<title>Node41&#45;&gt;Node46</title>
<path fill="none" stroke="#63b8ff" d="M217.46,-67.73C172.4,-54.06 111.99,-35.73 76.51,-24.96"/>
<polygon fill="#63b8ff" stroke="#63b8ff" points="216.24,-71.02 226.82,-70.58 218.27,-64.32 216.24,-71.02"/>
</g>
<!-- Node41&#45;&gt;Node47 -->
<g id="edge18" class="edge">
<title>Node41&#45;&gt;Node47</title>
<path fill="none" stroke="#63b8ff" d="M245.16,-64.69C225.47,-51.41 200.95,-34.86 186.16,-24.88"/>
<polygon fill="#63b8ff" stroke="#63b8ff" points="243.16,-67.56 253.4,-70.25 247.07,-61.76 243.16,-67.56"/>
</g>
<!-- Node41&#45;&gt;Node48 -->
<g id="edge19" class="edge">
<title>Node41&#45;&gt;Node48</title>
<path fill="none" stroke="#63b8ff" d="M285.75,-60.41C289.67,-50.32 294.05,-39.04 297.41,-30.38"/>
<polygon fill="#63b8ff" stroke="#63b8ff" points="282.5,-59.1 282.14,-69.69 289.03,-61.63 282.5,-59.1"/>
</g>
<!-- Node67&#45;&gt;Node13 -->
<g id="edge26" class="edge">
<title>Node67&#45;&gt;Node13</title>
<path fill="none" stroke="#63b8ff" d="M464.26,-62.24C453.86,-49.33 441.53,-34.04 433.99,-24.68"/>
<polygon fill="#63b8ff" stroke="#63b8ff" points="461.45,-64.33 470.45,-69.92 466.9,-59.94 461.45,-64.33"/>
</g>
<!-- Node67&#45;&gt;Node68 -->
<g id="edge27" class="edge">
<title>Node67&#45;&gt;Node68</title>
<path fill="none" stroke="#63b8ff" d="M506.57,-63.36C520.56,-50.23 537.5,-34.31 547.76,-24.68"/>
<polygon fill="#63b8ff" stroke="#63b8ff" points="504.33,-60.67 499.44,-70.06 509.12,-65.77 504.33,-60.67"/>
</g>
</g>
</svg>
        <g id="navigator" transform="translate(0 0)" fill="#404254">
                <rect fill="#f2f5e9" fill-opacity="0.5" stroke="#606060" stroke-width=".5" x="0" y="0" width="60" height="60"/>
                <use id="zoomplus" xlink:href="#zoomPlus" x="17" y="9" onmousedown="handleZoom(evt,'in')"/>
                <use id="zoomminus" xlink:href="#zoomMin" x="42" y="9" onmousedown="handleZoom(evt,'out')"/>
                <use id="reset" xlink:href="#resetDef" x="30" y="36" onmousedown="handleReset()"/>
                <g id="arrowUp" xlink:href="#dirArrow" transform="translate(30 24)" onmousedown="handlePan(0,-1)">
                  <use xlink:href="#rim" fill="#404040">
                        <set attributeName="fill" to="#808080" begin="arrowUp.mouseover" end="arrowUp.mouseout"/>
                  </use>
                  <path fill="none" stroke="white" stroke-width="1.5" d="M0,-3.0v7 M-2.5,-0.5L0,-3.0L2.5,-0.5"/>
                </g>
                <g id="arrowRight" xlink:href="#dirArrow" transform="rotate(90) translate(36 -43)" onmousedown="handlePan(1,0)">
                  <use xlink:href="#rim" fill="#404040">
                        <set attributeName="fill" to="#808080" begin="arrowRight.mouseover" end="arrowRight.mouseout"/>
                  </use>
                  <path fill="none" stroke="white" stroke-width="1.5" d="M0,-3.0v7 M-2.5,-0.5L0,-3.0L2.5,-0.5"/>
                </g>
                <g id="arrowDown" xlink:href="#dirArrow" transform="rotate(180) translate(-30 -48)" onmousedown="handlePan(0,1)">
                  <use xlink:href="#rim" fill="#404040">
                        <set attributeName="fill" to="#808080" begin="arrowDown.mouseover" end="arrowDown.mouseout"/>
                  </use>
                  <path fill="none" stroke="white" stroke-width="1.5" d="M0,-3.0v7 M-2.5,-0.5L0,-3.0L2.5,-0.5"/>
                </g>
                <g id="arrowLeft" xlink:href="#dirArrow" transform="rotate(270) translate(-36 17)" onmousedown="handlePan(-1,0)">
                  <use xlink:href="#rim" fill="#404040">
                        <set attributeName="fill" to="#808080" begin="arrowLeft.mouseover" end="arrowLeft.mouseout"/>
                  </use>
                  <path fill="none" stroke="white" stroke-width="1.5" d="M0,-3.0v7 M-2.5,-0.5L0,-3.0L2.5,-0.5"/>
                </g>
        </g>
        <svg viewBox="0 0 15 15" width="100%" height="30px" preserveAspectRatio="xMaxYMin meet">
         <g id="arrow_out" transform="scale(0.3 0.3)">
          <a xlink:href="c__cc__s_8h__dep__incl_org.svg" target="_base">
           <rect id="button" ry="5" rx="5" y="6" x="6" height="38" width="38"
                fill="#f2f5e9" fill-opacity="0.5" stroke="#606060" stroke-width="1.0"/>
           <path id="arrow"
             d="M 11.500037,31.436501 C 11.940474,20.09759 22.043105,11.32322 32.158766,21.979434 L 37.068811,17.246167 C 37.068811,17.246167 37.088388,32 37.088388,32 L 22.160133,31.978069 C 22.160133,31.978069 26.997745,27.140456 26.997745,27.140456 C 18.528582,18.264221 13.291696,25.230495 11.500037,31.436501 z"
             style="fill:#404040;"/>
          </a>
         </g>
        </svg>
</svg>
