<?xml version="1.0" encoding="UTF-8" standalone="no"?>
<!DOCTYPE svg PUBLIC "-//W3C//DTD SVG 1.1//EN"
 "http://www.w3.org/Graphics/SVG/1.1/DTD/svg11.dtd">
<!-- Generated by graphviz version 7.0.4 (20221203.1631)
 -->
<!-- Title: include/SSystem/SComponent/c_lib.h Pages: 1 -->
<svg width="3811pt" height="511pt"
 viewBox="0.00 0.00 3810.50 511.00" xmlns="http://www.w3.org/2000/svg" xmlns:xlink="http://www.w3.org/1999/xlink">
<g id="graph0" class="graph" transform="scale(1 1) rotate(0) translate(4 507)">
<title>include/SSystem/SComponent/c_lib.h</title>
<!-- Node1 -->
<g id="node1" class="node">
<title>Node1</title>
<g id="a_node1"><a xlink:title=" ">
<polygon fill="#999999" stroke="#666666" points="3276.5,-503 3127.5,-503 3127.5,-473 3276.5,-473 3276.5,-503"/>
<text text-anchor="start" x="3135.5" y="-491" font-family="Helvetica,sans-Serif" font-size="10.00">include/SSystem/SComponent</text>
<text text-anchor="middle" x="3202" y="-480" font-family="Helvetica,sans-Serif" font-size="10.00">/c_lib.h</text>
</a>
</g>
</g>
<!-- Node2 -->
<g id="node2" class="node">
<title>Node2</title>
<g id="a_node2"><a xlink:href="d__a__item__static_8h.html" target="_top" xlink:title=" ">
<polygon fill="white" stroke="#666666" points="3116.5,-437 3009.5,-437 3009.5,-407 3116.5,-407 3116.5,-437"/>
<text text-anchor="start" x="3017.5" y="-425" font-family="Helvetica,sans-Serif" font-size="10.00">include/d/a/d_a_item</text>
<text text-anchor="middle" x="3063" y="-414" font-family="Helvetica,sans-Serif" font-size="10.00">_static.h</text>
</a>
</g>
</g>
<!-- Node1&#45;&gt;Node2 -->
<g id="edge1" class="edge">
<title>Node1&#45;&gt;Node2</title>
<path fill="none" stroke="#63b8ff" d="M3160.42,-467.86C3139.13,-458.05 3113.65,-446.32 3094.09,-437.31"/>
<polygon fill="#63b8ff" stroke="#63b8ff" points="3158.88,-471 3169.43,-472 3161.81,-464.64 3158.88,-471"/>
</g>
<!-- Node6 -->
<g id="node6" class="node">
<title>Node6</title>
<g id="a_node6"><a xlink:href="d__stage_8h.html" target="_top" xlink:title=" ">
<polygon fill="white" stroke="#666666" points="610.5,-431.5 509.5,-431.5 509.5,-412.5 610.5,-412.5 610.5,-431.5"/>
<text text-anchor="middle" x="560" y="-419.5" font-family="Helvetica,sans-Serif" font-size="10.00">include/d/d_stage.h</text>
</a>
</g>
</g>
<!-- Node1&#45;&gt;Node6 -->
<g id="edge5" class="edge">
<title>Node1&#45;&gt;Node6</title>
<path fill="none" stroke="#63b8ff" d="M3115.95,-484.92C2703.33,-474.92 934,-432.06 610.79,-424.23"/>
<polygon fill="#63b8ff" stroke="#63b8ff" points="3115.59,-488.41 3125.67,-485.15 3115.76,-481.41 3115.59,-488.41"/>
</g>
<!-- Node59 -->
<g id="node21" class="node">
<title>Node59</title>
<g id="a_node21"><a xlink:href="d__s__logo_8h.html" target="_top" xlink:title=" ">
<polygon fill="white" stroke="#666666" points="3167.5,-85 3054.5,-85 3054.5,-66 3167.5,-66 3167.5,-85"/>
<text text-anchor="middle" x="3111" y="-73" font-family="Helvetica,sans-Serif" font-size="10.00">include/d/s/d_s_logo.h</text>
</a>
</g>
</g>
<!-- Node1&#45;&gt;Node59 -->
<g id="edge66" class="edge">
<title>Node1&#45;&gt;Node59</title>
<path fill="none" stroke="#63b8ff" d="M3184.5,-463.31C3167.75,-438.23 3145,-396.85 3145,-357 3145,-357 3145,-357 3145,-212 3145,-162.77 3123.62,-106.41 3114.77,-85.19"/>
<polygon fill="#63b8ff" stroke="#63b8ff" points="3181.57,-465.23 3190.15,-471.45 3187.33,-461.24 3181.57,-465.23"/>
</g>
<!-- Node105 -->
<g id="node35" class="node">
<title>Node105</title>
<g id="a_node35"><a xlink:href="f__op__actor__mng_8cpp.html" target="_top" xlink:title=" ">
<polygon fill="white" stroke="#666666" points="2997.5,-90.5 2896.5,-90.5 2896.5,-60.5 2997.5,-60.5 2997.5,-90.5"/>
<text text-anchor="start" x="2904.5" y="-78.5" font-family="Helvetica,sans-Serif" font-size="10.00">src/f_op/f_op_actor</text>
<text text-anchor="middle" x="2947" y="-67.5" font-family="Helvetica,sans-Serif" font-size="10.00">_mng.cpp</text>
</a>
</g>
</g>
<!-- Node1&#45;&gt;Node105 -->
<g id="edge69" class="edge">
<title>Node1&#45;&gt;Node105</title>
<path fill="none" stroke="#63b8ff" d="M3115.94,-483.57C3030.76,-475 2913,-446.9 2913,-357 2913,-357 2913,-357 2913,-212 2913,-166.65 2931.14,-115.25 2940.92,-90.84"/>
<polygon fill="#63b8ff" stroke="#63b8ff" points="3115.41,-487.03 3125.69,-484.47 3116.06,-480.06 3115.41,-487.03"/>
</g>
<!-- Node106 -->
<g id="node36" class="node">
<title>Node106</title>
<g id="a_node36"><a xlink:href="f__op__kankyo__mng_8cpp.html" target="_top" xlink:title=" ">
<polygon fill="white" stroke="#666666" points="3296,-90.5 3186,-90.5 3186,-60.5 3296,-60.5 3296,-90.5"/>
<text text-anchor="start" x="3194" y="-78.5" font-family="Helvetica,sans-Serif" font-size="10.00">src/f_op/f_op_kankyo</text>
<text text-anchor="middle" x="3241" y="-67.5" font-family="Helvetica,sans-Serif" font-size="10.00">_mng.cpp</text>
</a>
</g>
</g>
<!-- Node1&#45;&gt;Node106 -->
<g id="edge70" class="edge">
<title>Node1&#45;&gt;Node106</title>
<path fill="none" stroke="#63b8ff" d="M3196.05,-461.54C3190.47,-435.45 3183,-393.62 3183,-357 3183,-357 3183,-357 3183,-212 3183,-164.4 3213.62,-114.44 3230.36,-90.68"/>
<polygon fill="#63b8ff" stroke="#63b8ff" points="3192.61,-462.19 3198.19,-471.19 3199.44,-460.67 3192.61,-462.19"/>
</g>
<!-- Node110 -->
<g id="node37" class="node">
<title>Node110</title>
<g id="a_node37"><a xlink:href="m__Do__graphic_8cpp.html" target="_top" xlink:title=" ">
<polygon fill="white" stroke="#666666" points="3456,-85 3314,-85 3314,-66 3456,-66 3456,-85"/>
<text text-anchor="middle" x="3385" y="-73" font-family="Helvetica,sans-Serif" font-size="10.00">src/m_Do/m_Do_graphic.cpp</text>
</a>
</g>
</g>
<!-- Node1&#45;&gt;Node110 -->
<g id="edge73" class="edge">
<title>Node1&#45;&gt;Node110</title>
<path fill="none" stroke="#63b8ff" d="M3207.95,-461.54C3213.53,-435.45 3221,-393.62 3221,-357 3221,-357 3221,-357 3221,-212 3221,-142.57 3309.45,-102.04 3356.43,-85.41"/>
<polygon fill="#63b8ff" stroke="#63b8ff" points="3204.56,-460.67 3205.81,-471.19 3211.39,-462.19 3204.56,-460.67"/>
</g>
<!-- Node157 -->
<g id="node47" class="node">
<title>Node157</title>
<g id="a_node47"><a xlink:href="c__lib_8cpp.html" target="_top" xlink:title=" ">
<polygon fill="white" stroke="#666666" points="3383,-437 3249,-437 3249,-407 3383,-407 3383,-437"/>
<text text-anchor="start" x="3257" y="-425" font-family="Helvetica,sans-Serif" font-size="10.00">libs/SSystem/SComponent</text>
<text text-anchor="middle" x="3316" y="-414" font-family="Helvetica,sans-Serif" font-size="10.00">/c_lib.cpp</text>
</a>
</g>
</g>
<!-- Node1&#45;&gt;Node157 -->
<g id="edge67" class="edge">
<title>Node1&#45;&gt;Node157</title>
<path fill="none" stroke="#63b8ff" d="M3237.3,-467.18C3254.51,-457.52 3274.82,-446.12 3290.5,-437.31"/>
<polygon fill="#63b8ff" stroke="#63b8ff" points="3235.91,-463.95 3228.9,-471.9 3239.34,-470.05 3235.91,-463.95"/>
</g>
<!-- Node116 -->
<g id="node48" class="node">
<title>Node116</title>
<g id="a_node48"><a xlink:href="d__a__itembase__static_8cpp.html" target="_top" xlink:title=" ">
<polygon fill="white" stroke="#666666" points="3511,-437 3401,-437 3401,-407 3511,-407 3511,-437"/>
<text text-anchor="start" x="3409" y="-425" font-family="Helvetica,sans-Serif" font-size="10.00">src/d/a/d_a_itembase</text>
<text text-anchor="middle" x="3456" y="-414" font-family="Helvetica,sans-Serif" font-size="10.00">_static.cpp</text>
</a>
</g>
</g>
<!-- Node1&#45;&gt;Node116 -->
<g id="edge68" class="edge">
<title>Node1&#45;&gt;Node116</title>
<path fill="none" stroke="#63b8ff" d="M3270.27,-469.8C3311.11,-459.51 3362.33,-446.6 3400.63,-436.95"/>
<polygon fill="#63b8ff" stroke="#63b8ff" points="3269.63,-466.35 3260.79,-472.19 3271.34,-473.14 3269.63,-466.35"/>
</g>
<!-- Node158 -->
<g id="node49" class="node">
<title>Node158</title>
<g id="a_node49"><a xlink:href="m__Do__controller__pad_8cpp.html" target="_top" xlink:title=" ">
<polygon fill="white" stroke="#666666" points="3661,-437 3529,-437 3529,-407 3661,-407 3661,-437"/>
<text text-anchor="start" x="3537" y="-425" font-family="Helvetica,sans-Serif" font-size="10.00">src/m_Do/m_Do_controller</text>
<text text-anchor="middle" x="3595" y="-414" font-family="Helvetica,sans-Serif" font-size="10.00">_pad.cpp</text>
</a>
</g>
</g>
<!-- Node1&#45;&gt;Node158 -->
<g id="edge71" class="edge">
<title>Node1&#45;&gt;Node158</title>
<path fill="none" stroke="#63b8ff" d="M3288.2,-474.13C3352.24,-464.4 3441.67,-450.47 3520,-437 3522.87,-436.51 3525.8,-435.99 3528.77,-435.47"/>
<polygon fill="#63b8ff" stroke="#63b8ff" points="3287.81,-470.65 3278.45,-475.61 3288.86,-477.57 3287.81,-470.65"/>
</g>
<!-- Node159 -->
<g id="node50" class="node">
<title>Node159</title>
<g id="a_node50"><a xlink:href="m__Do__ext_8cpp.html" target="_top" xlink:title=" ">
<polygon fill="white" stroke="#666666" points="3802.5,-431.5 3679.5,-431.5 3679.5,-412.5 3802.5,-412.5 3802.5,-431.5"/>
<text text-anchor="middle" x="3741" y="-419.5" font-family="Helvetica,sans-Serif" font-size="10.00">src/m_Do/m_Do_ext.cpp</text>
</a>
</g>
</g>
<!-- Node1&#45;&gt;Node159 -->
<g id="edge72" class="edge">
<title>Node1&#45;&gt;Node159</title>
<path fill="none" stroke="#63b8ff" d="M3288.29,-480.08C3382.41,-471.99 3537.38,-457.12 3670,-437 3679.32,-435.59 3689.27,-433.8 3698.68,-431.98"/>
<polygon fill="#63b8ff" stroke="#63b8ff" points="3288.01,-476.59 3278.34,-480.93 3288.6,-483.57 3288.01,-476.59"/>
</g>
<!-- Node3 -->
<g id="node3" class="node">
<title>Node3</title>
<g id="a_node3"><a xlink:href="d__a__obj__item_8h.html" target="_top" xlink:title=" ">
<polygon fill="white" stroke="#666666" points="3113.5,-228 3012.5,-228 3012.5,-198 3113.5,-198 3113.5,-228"/>
<text text-anchor="start" x="3020.5" y="-216" font-family="Helvetica,sans-Serif" font-size="10.00">include/d/a/d_a_obj</text>
<text text-anchor="middle" x="3063" y="-205" font-family="Helvetica,sans-Serif" font-size="10.00">_item.h</text>
</a>
</g>
</g>
<!-- Node2&#45;&gt;Node3 -->
<g id="edge2" class="edge">
<title>Node2&#45;&gt;Node3</title>
<path fill="none" stroke="#63b8ff" d="M3077.32,-396.75C3081.26,-388.81 3085,-379.78 3087,-371 3098.81,-319.11 3079.17,-256.23 3068.79,-228.42"/>
<polygon fill="#63b8ff" stroke="#63b8ff" points="3074.31,-394.96 3072.68,-405.42 3080.48,-398.26 3074.31,-394.96"/>
</g>
<!-- Node5 -->
<g id="node5" class="node">
<title>Node5</title>
<g id="a_node5"><a xlink:href="d__a__item__static_8cpp.html" target="_top" xlink:title=" ">
<polygon fill="white" stroke="#666666" points="3078.5,-365.5 2941.5,-365.5 2941.5,-346.5 3078.5,-346.5 3078.5,-365.5"/>
<text text-anchor="middle" x="3010" y="-353.5" font-family="Helvetica,sans-Serif" font-size="10.00">src/d/a/d_a_item_static.cpp</text>
</a>
</g>
</g>
<!-- Node2&#45;&gt;Node5 -->
<g id="edge4" class="edge">
<title>Node2&#45;&gt;Node5</title>
<path fill="none" stroke="#63b8ff" d="M3043.91,-397.95C3034.69,-386.81 3024.17,-374.11 3017.32,-365.84"/>
<polygon fill="#63b8ff" stroke="#63b8ff" points="3041.2,-400.16 3050.27,-405.63 3046.59,-395.7 3041.2,-400.16"/>
</g>
<!-- Node4 -->
<g id="node4" class="node">
<title>Node4</title>
<g id="a_node4"><a xlink:href="d__a__obj__item_8cpp.html" target="_top" xlink:title=" ">
<polygon fill="white" stroke="#666666" points="1932.5,-19 1807.5,-19 1807.5,0 1932.5,0 1932.5,-19"/>
<text text-anchor="middle" x="1870" y="-7" font-family="Helvetica,sans-Serif" font-size="10.00">src/d/a/d_a_obj_item.cpp</text>
</a>
</g>
</g>
<!-- Node3&#45;&gt;Node4 -->
<g id="edge3" class="edge">
<title>Node3&#45;&gt;Node4</title>
<path fill="none" stroke="#63b8ff" d="M3062,-186.19C3059.07,-150.11 3047.89,-85.6 3006,-55 2962.44,-23.19 2164.77,-13.26 1932.79,-11.03"/>
<polygon fill="#63b8ff" stroke="#63b8ff" points="3058.51,-186.39 3062.64,-196.15 3065.5,-185.95 3058.51,-186.39"/>
</g>
<!-- Node7 -->
<g id="node7" class="node">
<title>Node7</title>
<g id="a_node7"><a xlink:href="d__a__player_8h.html" target="_top" xlink:title=" ">
<polygon fill="white" stroke="#666666" points="995.5,-365.5 874.5,-365.5 874.5,-346.5 995.5,-346.5 995.5,-365.5"/>
<text text-anchor="middle" x="935" y="-353.5" font-family="Helvetica,sans-Serif" font-size="10.00">include/d/a/d_a_player.h</text>
</a>
</g>
</g>
<!-- Node6&#45;&gt;Node7 -->
<g id="edge6" class="edge">
<title>Node6&#45;&gt;Node7</title>
<path fill="none" stroke="#63b8ff" d="M622.22,-410.38C694.94,-397.97 814,-377.65 882.33,-365.99"/>
<polygon fill="#63b8ff" stroke="#63b8ff" points="621.73,-406.91 612.46,-412.05 622.9,-413.82 621.73,-406.91"/>
</g>
<!-- Node9 -->
<g id="node9" class="node">
<title>Node9</title>
<g id="a_node9"><a xlink:href="d__com__inf__game_8h.html" target="_top" xlink:title=" ">
<polygon fill="#fff0f0" stroke="red" points="1597,-162 1487,-162 1487,-132 1597,-132 1597,-162"/>
<text text-anchor="start" x="1495" y="-150" font-family="Helvetica,sans-Serif" font-size="10.00">include/d/com/d_com</text>
<text text-anchor="middle" x="1542" y="-139" font-family="Helvetica,sans-Serif" font-size="10.00">_inf_game.h</text>
</a>
</g>
</g>
<!-- Node6&#45;&gt;Node9 -->
<g id="edge53" class="edge">
<title>Node6&#45;&gt;Node9</title>
<path fill="none" stroke="#63b8ff" d="M583.01,-405.92C641.12,-367.87 789.92,-270.49 801,-264 855.55,-232.04 866.28,-215.58 927,-198 1031.31,-167.8 1356.16,-154.07 1486.78,-149.67"/>
<polygon fill="#63b8ff" stroke="#63b8ff" points="581.29,-402.87 574.84,-411.27 585.13,-408.72 581.29,-402.87"/>
</g>
<!-- Node51 -->
<g id="node20" class="node">
<title>Node51</title>
<g id="a_node20"><a xlink:href="d__event_8cpp.html" target="_top" xlink:title=" ">
<polygon fill="white" stroke="#666666" points="416.5,-19 295.5,-19 295.5,0 416.5,0 416.5,-19"/>
<text text-anchor="middle" x="356" y="-7" font-family="Helvetica,sans-Serif" font-size="10.00">src/d/event/d_event.cpp</text>
</a>
</g>
</g>
<!-- Node6&#45;&gt;Node51 -->
<g id="edge61" class="edge">
<title>Node6&#45;&gt;Node51</title>
<path fill="none" stroke="#63b8ff" d="M497.75,-419.65C385.82,-416.37 155.56,-405.52 84,-371 36.02,-347.86 0,-338.77 0,-285.5 0,-285.5 0,-285.5 0,-146 0,-92.15 32.86,-81.04 80,-55 116,-35.11 225.33,-22.05 295.09,-15.5"/>
<polygon fill="#63b8ff" stroke="#63b8ff" points="497.57,-423.14 507.67,-419.92 497.77,-416.15 497.57,-423.14"/>
</g>
<!-- Node62 -->
<g id="node24" class="node">
<title>Node62</title>
<g id="a_node24"><a xlink:href="f__op__actor_8cpp.html" target="_top" xlink:title=" ">
<polygon fill="white" stroke="#666666" points="1646.5,-19 1527.5,-19 1527.5,0 1646.5,0 1646.5,-19"/>
<text text-anchor="middle" x="1587" y="-7" font-family="Helvetica,sans-Serif" font-size="10.00">src/f_op/f_op_actor.cpp</text>
</a>
</g>
</g>
<!-- Node6&#45;&gt;Node62 -->
<g id="edge64" class="edge">
<title>Node6&#45;&gt;Node62</title>
<path fill="none" stroke="#63b8ff" d="M568.97,-401.81C580.21,-375.97 598,-328.3 598,-285.5 598,-285.5 598,-285.5 598,-146 598,-98.28 613.81,-79.1 655,-55 729.93,-11.15 1332.92,-9.54 1527.04,-10.17"/>
<polygon fill="#63b8ff" stroke="#63b8ff" points="565.9,-400.11 564.98,-410.66 572.28,-402.98 565.9,-400.11"/>
</g>
<!-- Node91 -->
<g id="node33" class="node">
<title>Node91</title>
<g id="a_node33"><a xlink:href="d__stage_8cpp.html" target="_top" xlink:title=" ">
<polygon fill="white" stroke="#666666" points="328,-85 234,-85 234,-66 328,-66 328,-85"/>
<text text-anchor="middle" x="281" y="-73" font-family="Helvetica,sans-Serif" font-size="10.00">src/d/d_stage.cpp</text>
</a>
</g>
</g>
<!-- Node6&#45;&gt;Node91 -->
<g id="edge60" class="edge">
<title>Node6&#45;&gt;Node91</title>
<path fill="none" stroke="#63b8ff" d="M558.25,-400.79C556.09,-383.92 551.35,-359.72 541,-341 474.02,-219.84 336.16,-115.63 293.72,-85.36"/>
<polygon fill="#63b8ff" stroke="#63b8ff" points="554.74,-400.96 559.28,-410.53 561.7,-400.22 554.74,-400.96"/>
</g>
<!-- Node95 -->
<g id="node34" class="node">
<title>Node95</title>
<g id="a_node34"><a xlink:href="d__event__manager_8cpp.html" target="_top" xlink:title=" ">
<polygon fill="white" stroke="#666666" points="215.5,-90.5 112.5,-90.5 112.5,-60.5 215.5,-60.5 215.5,-90.5"/>
<text text-anchor="start" x="120.5" y="-78.5" font-family="Helvetica,sans-Serif" font-size="10.00">src/d/event/d_event</text>
<text text-anchor="middle" x="164" y="-67.5" font-family="Helvetica,sans-Serif" font-size="10.00">_manager.cpp</text>
</a>
</g>
</g>
<!-- Node6&#45;&gt;Node95 -->
<g id="edge62" class="edge">
<title>Node6&#45;&gt;Node95</title>
<path fill="none" stroke="#63b8ff" d="M498,-418.07C387.13,-412.19 164.28,-397.22 141,-371 122.23,-349.86 152.86,-146.65 161.71,-90.7"/>
<polygon fill="#63b8ff" stroke="#63b8ff" points="497.65,-421.56 507.82,-418.58 498.02,-414.57 497.65,-421.56"/>
</g>
<!-- Node6&#45;&gt;Node105 -->
<g id="edge65" class="edge">
<title>Node6&#45;&gt;Node105</title>
<path fill="none" stroke="#63b8ff" d="M622.12,-419.32C926.4,-410.71 2245,-368.58 2245,-285.5 2245,-285.5 2245,-285.5 2245,-212 2245,-67.02 2746.41,-131.38 2887,-96 2892.84,-94.53 2898.94,-92.79 2904.92,-90.97"/>
<polygon fill="#63b8ff" stroke="#63b8ff" points="622.3,-415.82 612.4,-419.6 622.5,-422.81 622.3,-415.82"/>
</g>
<!-- Node121 -->
<g id="node40" class="node">
<title>Node121</title>
<g id="a_node40"><a xlink:href="d__event_8h.html" target="_top" xlink:title=" ">
<polygon fill="white" stroke="#666666" points="754,-222.5 626,-222.5 626,-203.5 754,-203.5 754,-222.5"/>
<text text-anchor="middle" x="690" y="-210.5" font-family="Helvetica,sans-Serif" font-size="10.00">include/d/event/d_event.h</text>
</a>
</g>
</g>
<!-- Node6&#45;&gt;Node121 -->
<g id="edge57" class="edge">
<title>Node6&#45;&gt;Node121</title>
<path fill="none" stroke="#63b8ff" d="M579.56,-405.1C590.06,-395.9 602.72,-383.65 612,-371 649.63,-319.72 677.81,-247.53 686.88,-222.75"/>
<polygon fill="#63b8ff" stroke="#63b8ff" points="577.54,-402.23 572.18,-411.36 582.07,-407.56 577.54,-402.23"/>
</g>
<!-- Node147 -->
<g id="node43" class="node">
<title>Node147</title>
<g id="a_node43"><a xlink:href="d__camera_8h.html" target="_top" xlink:title=" ">
<polygon fill="#fff0f0" stroke="red" points="137.5,-156.5 28.5,-156.5 28.5,-137.5 137.5,-137.5 137.5,-156.5"/>
<text text-anchor="middle" x="83" y="-144.5" font-family="Helvetica,sans-Serif" font-size="10.00">include/d/d_camera.h</text>
</a>
</g>
</g>
<!-- Node6&#45;&gt;Node147 -->
<g id="edge54" class="edge">
<title>Node6&#45;&gt;Node147</title>
<path fill="none" stroke="#63b8ff" d="M497.7,-418.37C380.18,-412.79 135.07,-398.03 108,-371 47.63,-310.72 72.25,-190.38 80.63,-156.85"/>
<polygon fill="#63b8ff" stroke="#63b8ff" points="497.34,-421.85 507.5,-418.82 497.67,-414.86 497.34,-421.85"/>
</g>
<!-- Node152 -->
<g id="node44" class="node">
<title>Node152</title>
<g id="a_node44"><a xlink:href="d__event__data_8h.html" target="_top" xlink:title=" ">
<polygon fill="#fff0f0" stroke="red" points="270,-371 150,-371 150,-341 270,-341 270,-371"/>
<text text-anchor="start" x="158" y="-359" font-family="Helvetica,sans-Serif" font-size="10.00">include/d/event/d_event</text>
<text text-anchor="middle" x="210" y="-348" font-family="Helvetica,sans-Serif" font-size="10.00">_data.h</text>
</a>
</g>
</g>
<!-- Node6&#45;&gt;Node152 -->
<g id="edge58" class="edge">
<title>Node6&#45;&gt;Node152</title>
<path fill="none" stroke="#63b8ff" d="M497.83,-410.38C440.83,-400.54 354.14,-385.31 279,-371 276.12,-370.45 273.17,-369.88 270.19,-369.3"/>
<polygon fill="#63b8ff" stroke="#63b8ff" points="497.23,-413.83 507.68,-412.08 498.42,-406.93 497.23,-413.83"/>
</g>
<!-- Node154 -->
<g id="node45" class="node">
<title>Node154</title>
<g id="a_node45"><a xlink:href="d__map__path__dmap_8h.html" target="_top" xlink:title=" ">
<polygon fill="#fff0f0" stroke="red" points="398,-371 288,-371 288,-341 398,-341 398,-371"/>
<text text-anchor="start" x="296" y="-359" font-family="Helvetica,sans-Serif" font-size="10.00">include/d/map/d_map</text>
<text text-anchor="middle" x="343" y="-348" font-family="Helvetica,sans-Serif" font-size="10.00">_path_dmap.h</text>
</a>
</g>
</g>
<!-- Node6&#45;&gt;Node154 -->
<g id="edge59" class="edge">
<title>Node6&#45;&gt;Node154</title>
<path fill="none" stroke="#63b8ff" d="M519.2,-408.97C483.14,-398.33 430.45,-382.79 392.09,-371.48"/>
<polygon fill="#63b8ff" stroke="#63b8ff" points="517.79,-412.2 528.38,-411.67 519.77,-405.49 517.79,-412.2"/>
</g>
<!-- Node156 -->
<g id="node46" class="node">
<title>Node156</title>
<g id="a_node46"><a xlink:href="d__kankyo__data_8cpp.html" target="_top" xlink:title=" ">
<polygon fill="white" stroke="#666666" points="532,-371 416,-371 416,-341 532,-341 532,-371"/>
<text text-anchor="start" x="424" y="-359" font-family="Helvetica,sans-Serif" font-size="10.00">src/d/kankyo/d_kankyo</text>
<text text-anchor="middle" x="474" y="-348" font-family="Helvetica,sans-Serif" font-size="10.00">_data.cpp</text>
</a>
</g>
</g>
<!-- Node6&#45;&gt;Node156 -->
<g id="edge63" class="edge">
<title>Node6&#45;&gt;Node156</title>
<path fill="none" stroke="#63b8ff" d="M539.2,-405.52C525.28,-395.16 507.08,-381.62 493.45,-371.48"/>
<polygon fill="#63b8ff" stroke="#63b8ff" points="536.72,-408.04 546.83,-411.2 540.9,-402.42 536.72,-408.04"/>
</g>
<!-- Node8 -->
<g id="node8" class="node">
<title>Node8</title>
<g id="a_node8"><a xlink:href="d__a__alink_8h.html" target="_top" xlink:title=" ">
<polygon fill="#fff0f0" stroke="red" points="1107,-222.5 991,-222.5 991,-203.5 1107,-203.5 1107,-222.5"/>
<text text-anchor="middle" x="1049" y="-210.5" font-family="Helvetica,sans-Serif" font-size="10.00">include/d/a/d_a_alink.h</text>
</a>
</g>
</g>
<!-- Node7&#45;&gt;Node8 -->
<g id="edge7" class="edge">
<title>Node7&#45;&gt;Node8</title>
<path fill="none" stroke="#63b8ff" d="M1006.73,-346.63C1032.59,-339.75 1059.26,-327.34 1075,-305 1093.36,-278.94 1068.96,-240.12 1056.07,-222.84"/>
<polygon fill="#63b8ff" stroke="#63b8ff" points="1006.12,-343.17 997.2,-348.9 1007.74,-349.98 1006.12,-343.17"/>
</g>
<!-- Node72 -->
<g id="node29" class="node">
<title>Node72</title>
<g id="a_node29"><a xlink:href="d__a__player_8cpp.html" target="_top" xlink:title=" ">
<polygon fill="white" stroke="#666666" points="693,-19 579,-19 579,0 693,0 693,-19"/>
<text text-anchor="middle" x="636" y="-7" font-family="Helvetica,sans-Serif" font-size="10.00">src/d/a/d_a_player.cpp</text>
</a>
</g>
</g>
<!-- Node7&#45;&gt;Node72 -->
<g id="edge52" class="edge">
<title>Node7&#45;&gt;Node72</title>
<path fill="none" stroke="#63b8ff" d="M870.07,-342.99C845.72,-335.61 819.5,-323.8 801,-305 765.6,-269.03 792.54,-238.92 763,-198 719.81,-138.17 664.4,-162.3 632,-96 619.54,-70.5 627.9,-35.46 632.95,-19.31"/>
<polygon fill="#63b8ff" stroke="#63b8ff" points="869.06,-346.34 879.63,-345.67 870.95,-339.6 869.06,-346.34"/>
</g>
<!-- Node113 -->
<g id="node38" class="node">
<title>Node113</title>
<g id="a_node38"><a xlink:href="d__bg__s__acch_8h.html" target="_top" xlink:title=" ">
<polygon fill="#fff0f0" stroke="red" points="1226,-299.5 1122,-299.5 1122,-269.5 1226,-269.5 1226,-299.5"/>
<text text-anchor="start" x="1130" y="-287.5" font-family="Helvetica,sans-Serif" font-size="10.00">include/d/bg/d_bg_s</text>
<text text-anchor="middle" x="1174" y="-276.5" font-family="Helvetica,sans-Serif" font-size="10.00">_acch.h</text>
</a>
</g>
</g>
<!-- Node7&#45;&gt;Node113 -->
<g id="edge42" class="edge">
<title>Node7&#45;&gt;Node113</title>
<path fill="none" stroke="#63b8ff" d="M977.05,-342.92C1012.09,-332.84 1063.32,-318.06 1108,-305 1113.62,-303.36 1119.51,-301.63 1125.35,-299.91"/>
<polygon fill="#63b8ff" stroke="#63b8ff" points="976.37,-339.48 967.72,-345.6 978.3,-346.2 976.37,-339.48"/>
</g>
<!-- Node143 -->
<g id="node39" class="node">
<title>Node143</title>
<g id="a_node39"><a xlink:href="d__attention_8h.html" target="_top" xlink:title=" ">
<polygon fill="#fff0f0" stroke="red" points="924,-294 810,-294 810,-275 924,-275 924,-294"/>
<text text-anchor="middle" x="867" y="-282" font-family="Helvetica,sans-Serif" font-size="10.00">include/d/d_attention.h</text>
</a>
</g>
</g>
<!-- Node7&#45;&gt;Node143 -->
<g id="edge43" class="edge">
<title>Node7&#45;&gt;Node143</title>
<path fill="none" stroke="#63b8ff" d="M918.39,-338.03C904.93,-324.27 886.5,-305.43 875.76,-294.45"/>
<polygon fill="#63b8ff" stroke="#63b8ff" points="915.83,-340.42 925.33,-345.12 920.84,-335.52 915.83,-340.42"/>
</g>
<!-- Node7&#45;&gt;Node121 -->
<g id="edge46" class="edge">
<title>Node7&#45;&gt;Node121</title>
<path fill="none" stroke="#63b8ff" d="M865.7,-343.55C834.09,-336.07 797.28,-324.04 768,-305 733.81,-282.77 706.25,-241.24 695.21,-222.99"/>
<polygon fill="#63b8ff" stroke="#63b8ff" points="864.64,-346.9 875.17,-345.67 866.18,-340.07 864.64,-346.9"/>
</g>
<!-- Node145 -->
<g id="node41" class="node">
<title>Node145</title>
<g id="a_node41"><a xlink:href="d__a__crod_8h.html" target="_top" xlink:title=" ">
<polygon fill="#fff0f0" stroke="red" points="1340,-299.5 1244,-299.5 1244,-269.5 1340,-269.5 1340,-299.5"/>
<text text-anchor="start" x="1252" y="-287.5" font-family="Helvetica,sans-Serif" font-size="10.00">include/rel/d/a/d_a</text>
<text text-anchor="middle" x="1292" y="-276.5" font-family="Helvetica,sans-Serif" font-size="10.00">_crod/d_a_crod.h</text>
</a>
</g>
</g>
<!-- Node7&#45;&gt;Node145 -->
<g id="edge49" class="edge">
<title>Node7&#45;&gt;Node145</title>
<path fill="none" stroke="#63b8ff" d="M1007.02,-346.38C1068.23,-338.26 1158.13,-324.41 1235,-305 1240.68,-303.57 1246.6,-301.83 1252.39,-299.98"/>
<polygon fill="#63b8ff" stroke="#63b8ff" points="1006.9,-342.87 997.44,-347.64 1007.81,-349.81 1006.9,-342.87"/>
</g>
<!-- Node146 -->
<g id="node42" class="node">
<title>Node146</title>
<g id="a_node42"><a xlink:href="d__a__tag__mmsg_8h.html" target="_top" xlink:title=" ">
<polygon fill="white" stroke="#666666" points="1066,-305 942,-305 942,-264 1066,-264 1066,-305"/>
<text text-anchor="start" x="950" y="-293" font-family="Helvetica,sans-Serif" font-size="10.00">include/rel/d/a/tag</text>
<text text-anchor="start" x="950" y="-282" font-family="Helvetica,sans-Serif" font-size="10.00">/d_a_tag_mmsg/d_a_tag</text>
<text text-anchor="middle" x="1004" y="-271" font-family="Helvetica,sans-Serif" font-size="10.00">_mmsg.h</text>
</a>
</g>
</g>
<!-- Node7&#45;&gt;Node146 -->
<g id="edge50" class="edge">
<title>Node7&#45;&gt;Node146</title>
<path fill="none" stroke="#63b8ff" d="M951.58,-338.3C961.44,-328.37 974,-315.72 984.35,-305.29"/>
<polygon fill="#63b8ff" stroke="#63b8ff" points="949.37,-335.56 944.81,-345.12 954.33,-340.49 949.37,-335.56"/>
</g>
<!-- Node8&#45;&gt;Node9 -->
<g id="edge8" class="edge">
<title>Node8&#45;&gt;Node9</title>
<path fill="none" stroke="#63b8ff" d="M1118.84,-202.93C1217.68,-190.1 1396.35,-166.91 1486.61,-155.19"/>
<polygon fill="#63b8ff" stroke="#63b8ff" points="1118.46,-199.45 1108.99,-204.21 1119.36,-206.4 1118.46,-199.45"/>
</g>
<!-- Node9&#45;&gt;Node4 -->
<g id="edge33" class="edge">
<title>Node9&#45;&gt;Node4</title>
<path fill="none" stroke="#63b8ff" d="M1608.67,-143.65C1688.56,-139.44 1815.94,-127.8 1850,-96 1871.73,-75.72 1871.96,-36.72 1870.84,-19.3"/>
<polygon fill="#63b8ff" stroke="#63b8ff" points="1608.57,-140.15 1598.75,-144.15 1608.91,-147.15 1608.57,-140.15"/>
</g>
<!-- Node10 -->
<g id="node10" class="node">
<title>Node10</title>
<g id="a_node10"><a xlink:href="d__a__npc_8h.html" target="_top" xlink:title=" ">
<polygon fill="#fff0f0" stroke="red" points="2382.5,-85 2271.5,-85 2271.5,-66 2382.5,-66 2382.5,-85"/>
<text text-anchor="middle" x="2327" y="-73" font-family="Helvetica,sans-Serif" font-size="10.00">include/d/a/d_a_npc.h</text>
</a>
</g>
</g>
<!-- Node9&#45;&gt;Node10 -->
<g id="edge9" class="edge">
<title>Node9&#45;&gt;Node10</title>
<path fill="none" stroke="#63b8ff" d="M1608.66,-146.29C1736.47,-145.76 2024.42,-139.33 2262,-96 2275.44,-93.55 2290.05,-89.31 2302.01,-85.42"/>
<polygon fill="#63b8ff" stroke="#63b8ff" points="1608.67,-142.79 1598.68,-146.32 1608.69,-149.79 1608.67,-142.79"/>
</g>
<!-- Node16 -->
<g id="node11" class="node">
<title>Node16</title>
<g id="a_node11"><a xlink:href="d__cc__uty_8h.html" target="_top" xlink:title=" ">
<polygon fill="#fff0f0" stroke="red" points="2519.5,-85 2400.5,-85 2400.5,-66 2519.5,-66 2519.5,-85"/>
<text text-anchor="middle" x="2460" y="-73" font-family="Helvetica,sans-Serif" font-size="10.00">include/d/cc/d_cc_uty.h</text>
</a>
</g>
</g>
<!-- Node9&#45;&gt;Node16 -->
<g id="edge10" class="edge">
<title>Node9&#45;&gt;Node16</title>
<path fill="none" stroke="#63b8ff" d="M1608.69,-143.94C1781.51,-138.3 2240.85,-121.33 2391,-96 2405.24,-93.6 2420.74,-89.37 2433.44,-85.46"/>
<polygon fill="#63b8ff" stroke="#63b8ff" points="1608.63,-140.44 1598.75,-144.26 1608.86,-147.44 1608.63,-140.44"/>
</g>
<!-- Node22 -->
<g id="node12" class="node">
<title>Node22</title>
<g id="a_node12"><a xlink:href="d__item_8h.html" target="_top" xlink:title=" ">
<polygon fill="#fff0f0" stroke="red" points="1841.5,-85 1746.5,-85 1746.5,-66 1841.5,-66 1841.5,-85"/>
<text text-anchor="middle" x="1794" y="-73" font-family="Helvetica,sans-Serif" font-size="10.00">include/d/d_item.h</text>
</a>
</g>
</g>
<!-- Node9&#45;&gt;Node22 -->
<g id="edge11" class="edge">
<title>Node9&#45;&gt;Node22</title>
<path fill="none" stroke="#63b8ff" d="M1608.28,-130.38C1646.17,-121.1 1694.48,-108.7 1737,-96 1747.62,-92.83 1759.22,-88.94 1769.17,-85.47"/>
<polygon fill="#63b8ff" stroke="#63b8ff" points="1607.73,-126.91 1598.84,-132.67 1609.39,-133.71 1607.73,-126.91"/>
</g>
<!-- Node26 -->
<g id="node13" class="node">
<title>Node26</title>
<g id="a_node13"><a xlink:href="d__kantera__icon__meter_8h.html" target="_top" xlink:title=" ">
<polygon fill="#fff0f0" stroke="red" points="2638.5,-90.5 2537.5,-90.5 2537.5,-60.5 2638.5,-60.5 2638.5,-90.5"/>
<text text-anchor="start" x="2545.5" y="-78.5" font-family="Helvetica,sans-Serif" font-size="10.00">include/d/d_kantera</text>
<text text-anchor="middle" x="2588" y="-67.5" font-family="Helvetica,sans-Serif" font-size="10.00">_icon_meter.h</text>
</a>
</g>
</g>
<!-- Node9&#45;&gt;Node26 -->
<g id="edge13" class="edge">
<title>Node9&#45;&gt;Node26</title>
<path fill="none" stroke="#63b8ff" d="M1608.69,-144.9C1800.47,-141.39 2350.95,-128.67 2528,-96 2534.68,-94.77 2541.64,-92.99 2548.36,-91"/>
<polygon fill="#63b8ff" stroke="#63b8ff" points="1608.85,-141.4 1598.91,-145.08 1608.97,-148.4 1608.85,-141.4"/>
</g>
<!-- Node29 -->
<g id="node14" class="node">
<title>Node29</title>
<g id="a_node14"><a xlink:href="d__model_8h.html" target="_top" xlink:title=" ">
<polygon fill="#fff0f0" stroke="red" points="2759.5,-85 2656.5,-85 2656.5,-66 2759.5,-66 2759.5,-85"/>
<text text-anchor="middle" x="2708" y="-73" font-family="Helvetica,sans-Serif" font-size="10.00">include/d/d_model.h</text>
</a>
</g>
</g>
<!-- Node9&#45;&gt;Node29 -->
<g id="edge14" class="edge">
<title>Node9&#45;&gt;Node29</title>
<path fill="none" stroke="#63b8ff" d="M1608.45,-145.29C1815.29,-142.72 2445.83,-132.05 2647,-96 2659.8,-93.71 2673.65,-89.44 2684.9,-85.47"/>
<polygon fill="#63b8ff" stroke="#63b8ff" points="1608.65,-141.79 1598.69,-145.41 1608.73,-148.79 1608.65,-141.79"/>
</g>
<!-- Node31 -->
<g id="node15" class="node">
<title>Node31</title>
<g id="a_node15"><a xlink:href="d__name_8h.html" target="_top" xlink:title=" ">
<polygon fill="#fff0f0" stroke="red" points="2878.5,-85 2777.5,-85 2777.5,-66 2878.5,-66 2878.5,-85"/>
<text text-anchor="middle" x="2828" y="-73" font-family="Helvetica,sans-Serif" font-size="10.00">include/d/d_name.h</text>
</a>
</g>
</g>
<!-- Node9&#45;&gt;Node31 -->
<g id="edge15" class="edge">
<title>Node9&#45;&gt;Node31</title>
<path fill="none" stroke="#63b8ff" d="M1608.5,-144.35C1847.37,-138.28 2653.89,-116.47 2768,-96 2780.72,-93.72 2794.46,-89.4 2805.58,-85.4"/>
<polygon fill="#63b8ff" stroke="#63b8ff" points="1608.65,-140.85 1598.74,-144.6 1608.83,-147.84 1608.65,-140.85"/>
</g>
<!-- Node33 -->
<g id="node16" class="node">
<title>Node33</title>
<g id="a_node16"><a xlink:href="d__file__sel__info_8h.html" target="_top" xlink:title=" ">
<polygon fill="#fff0f0" stroke="red" points="760,-90.5 664,-90.5 664,-60.5 760,-60.5 760,-90.5"/>
<text text-anchor="start" x="672" y="-78.5" font-family="Helvetica,sans-Serif" font-size="10.00">include/d/file/d_file</text>
<text text-anchor="middle" x="712" y="-67.5" font-family="Helvetica,sans-Serif" font-size="10.00">_sel_info.h</text>
</a>
</g>
</g>
<!-- Node9&#45;&gt;Node33 -->
<g id="edge16" class="edge">
<title>Node9&#45;&gt;Node33</title>
<path fill="none" stroke="#63b8ff" d="M1475.3,-143.95C1313.44,-138.62 903.34,-122.83 769,-96 762.64,-94.73 756.02,-92.93 749.63,-90.93"/>
<polygon fill="#63b8ff" stroke="#63b8ff" points="1474.89,-147.44 1485,-144.27 1475.12,-140.45 1474.89,-147.44"/>
</g>
<!-- Node36 -->
<g id="node17" class="node">
<title>Node36</title>
<g id="a_node17"><a xlink:href="d__file__sel__warning_8h.html" target="_top" xlink:title=" ">
<polygon fill="#fff0f0" stroke="red" points="874,-90.5 778,-90.5 778,-60.5 874,-60.5 874,-90.5"/>
<text text-anchor="start" x="786" y="-78.5" font-family="Helvetica,sans-Serif" font-size="10.00">include/d/file/d_file</text>
<text text-anchor="middle" x="826" y="-67.5" font-family="Helvetica,sans-Serif" font-size="10.00">_sel_warning.h</text>
</a>
</g>
</g>
<!-- Node9&#45;&gt;Node36 -->
<g id="edge17" class="edge">
<title>Node9&#45;&gt;Node36</title>
<path fill="none" stroke="#63b8ff" d="M1475.16,-146.49C1355.25,-146.15 1096.19,-139.81 883,-96 876.75,-94.72 870.24,-92.94 863.96,-90.97"/>
<polygon fill="#63b8ff" stroke="#63b8ff" points="1475.15,-149.99 1485.16,-146.51 1475.16,-142.99 1475.15,-149.99"/>
</g>
<!-- Node38 -->
<g id="node18" class="node">
<title>Node38</title>
<g id="a_node18"><a xlink:href="d__meter2_8h.html" target="_top" xlink:title=" ">
<polygon fill="#fff0f0" stroke="red" points="1026,-85 892,-85 892,-66 1026,-66 1026,-85"/>
<text text-anchor="middle" x="959" y="-73" font-family="Helvetica,sans-Serif" font-size="10.00">include/d/meter/d_meter2.h</text>
</a>
</g>
</g>
<!-- Node9&#45;&gt;Node38 -->
<g id="edge18" class="edge">
<title>Node9&#45;&gt;Node38</title>
<path fill="none" stroke="#63b8ff" d="M1475.44,-142.69C1378.11,-137.11 1191.52,-123.63 1035,-96 1019.84,-93.32 1003.26,-89.21 989.46,-85.45"/>
<polygon fill="#63b8ff" stroke="#63b8ff" points="1475.16,-146.18 1485.35,-143.24 1475.56,-139.19 1475.16,-146.18"/>
</g>
<!-- Node45 -->
<g id="node19" class="node">
<title>Node45</title>
<g id="a_node19"><a xlink:href="d__msg__object_8h.html" target="_top" xlink:title=" ">
<polygon fill="#fff0f0" stroke="red" points="494,-90.5 384,-90.5 384,-60.5 494,-60.5 494,-90.5"/>
<text text-anchor="start" x="392" y="-78.5" font-family="Helvetica,sans-Serif" font-size="10.00">include/d/msg/d_msg</text>
<text text-anchor="middle" x="439" y="-67.5" font-family="Helvetica,sans-Serif" font-size="10.00">_object.h</text>
</a>
</g>
</g>
<!-- Node9&#45;&gt;Node45 -->
<g id="edge19" class="edge">
<title>Node9&#45;&gt;Node45</title>
<path fill="none" stroke="#63b8ff" d="M1475.64,-145.65C1315.34,-144.14 894.51,-136.33 546,-96 529.12,-94.05 510.88,-91.06 494.33,-88"/>
<polygon fill="#63b8ff" stroke="#63b8ff" points="1475.18,-149.14 1485.21,-145.73 1475.24,-142.14 1475.18,-149.14"/>
</g>
<!-- Node9&#45;&gt;Node51 -->
<g id="edge36" class="edge">
<title>Node9&#45;&gt;Node51</title>
<path fill="none" stroke="#63b8ff" d="M1475.24,-144.52C1293.71,-140.14 793.9,-125.68 632,-96 572.83,-85.15 560.46,-72.83 503,-55 462.63,-42.48 415.9,-28.4 386.16,-19.5"/>
<polygon fill="#63b8ff" stroke="#63b8ff" points="1475.14,-148.02 1485.22,-144.76 1475.3,-141.02 1475.14,-148.02"/>
</g>
<!-- Node9&#45;&gt;Node59 -->
<g id="edge21" class="edge">
<title>Node9&#45;&gt;Node59</title>
<path fill="none" stroke="#63b8ff" d="M1608.73,-145.05C1857.35,-141.29 2729.61,-126.21 3006,-96 3027.56,-93.64 3051.35,-89.37 3070.82,-85.42"/>
<polygon fill="#63b8ff" stroke="#63b8ff" points="1608.83,-141.55 1598.88,-145.19 1608.93,-148.54 1608.83,-141.55"/>
</g>
<!-- Node61 -->
<g id="node23" class="node">
<title>Node61</title>
<g id="a_node23"><a xlink:href="d__s__play_8h.html" target="_top" xlink:title=" ">
<polygon fill="#fff0f0" stroke="red" points="1728.5,-85 1615.5,-85 1615.5,-66 1728.5,-66 1728.5,-85"/>
<text text-anchor="middle" x="1672" y="-73" font-family="Helvetica,sans-Serif" font-size="10.00">include/d/s/d_s_play.h</text>
</a>
</g>
</g>
<!-- Node9&#45;&gt;Node61 -->
<g id="edge23" class="edge">
<title>Node9&#45;&gt;Node61</title>
<path fill="none" stroke="#63b8ff" d="M1578.89,-126.28C1604.07,-112.82 1636.21,-95.63 1655.39,-85.38"/>
<polygon fill="#63b8ff" stroke="#63b8ff" points="1577.44,-123.08 1570.27,-130.89 1580.74,-129.26 1577.44,-123.08"/>
</g>
<!-- Node9&#45;&gt;Node62 -->
<g id="edge38" class="edge">
<title>Node9&#45;&gt;Node62</title>
<path fill="none" stroke="#63b8ff" d="M1556.35,-121.53C1560.56,-113.58 1564.87,-104.6 1568,-96 1577.83,-68.99 1583.5,-35.26 1585.8,-19.45"/>
<polygon fill="#63b8ff" stroke="#63b8ff" points="1553.29,-119.81 1551.52,-130.26 1559.42,-123.2 1553.29,-119.81"/>
</g>
<!-- Node65 -->
<g id="node25" class="node">
<title>Node65</title>
<g id="a_node25"><a xlink:href="d__msg__scrn__base_8h.html" target="_top" xlink:title=" ">
<polygon fill="#fff0f0" stroke="red" points="1277.5,-90.5 1178.5,-90.5 1178.5,-60.5 1277.5,-60.5 1277.5,-90.5"/>
<text text-anchor="start" x="1186.5" y="-78.5" font-family="Helvetica,sans-Serif" font-size="10.00">include/msg/scrn/d</text>
<text text-anchor="middle" x="1228" y="-67.5" font-family="Helvetica,sans-Serif" font-size="10.00">_msg_scrn_base.h</text>
</a>
</g>
</g>
<!-- Node9&#45;&gt;Node65 -->
<g id="edge25" class="edge">
<title>Node9&#45;&gt;Node65</title>
<path fill="none" stroke="#63b8ff" d="M1475.51,-135.48C1423.52,-126.67 1349.63,-112.83 1286,-96 1280.35,-94.51 1274.45,-92.75 1268.67,-90.92"/>
<polygon fill="#63b8ff" stroke="#63b8ff" points="1474.66,-138.89 1485.1,-137.09 1475.82,-131.99 1474.66,-138.89"/>
</g>
<!-- Node69 -->
<g id="node26" class="node">
<title>Node69</title>
<g id="a_node26"><a xlink:href="d__a__b__zant_8h.html" target="_top" xlink:title=" ">
<polygon fill="white" stroke="#666666" points="1416.5,-90.5 1295.5,-90.5 1295.5,-60.5 1416.5,-60.5 1416.5,-90.5"/>
<text text-anchor="start" x="1303.5" y="-78.5" font-family="Helvetica,sans-Serif" font-size="10.00">include/rel/d/a/b/d</text>
<text text-anchor="middle" x="1356" y="-67.5" font-family="Helvetica,sans-Serif" font-size="10.00">_a_b_zant/d_a_b_zant.h</text>
</a>
</g>
</g>
<!-- Node9&#45;&gt;Node69 -->
<g id="edge26" class="edge">
<title>Node9&#45;&gt;Node69</title>
<path fill="none" stroke="#63b8ff" d="M1492.95,-127.67C1462.16,-116.17 1423.03,-101.55 1394.49,-90.88"/>
<polygon fill="#63b8ff" stroke="#63b8ff" points="1491.45,-130.85 1502.04,-131.07 1493.9,-124.29 1491.45,-130.85"/>
</g>
<!-- Node70 -->
<g id="node27" class="node">
<title>Node70</title>
<g id="a_node27"><a xlink:href="d__a__skip__2D_8h.html" target="_top" xlink:title=" ">
<polygon fill="white" stroke="#666666" points="1559,-90.5 1435,-90.5 1435,-60.5 1559,-60.5 1559,-90.5"/>
<text text-anchor="start" x="1443" y="-78.5" font-family="Helvetica,sans-Serif" font-size="10.00">include/rel/d/a/d_a</text>
<text text-anchor="middle" x="1497" y="-67.5" font-family="Helvetica,sans-Serif" font-size="10.00">_skip_2D/d_a_skip_2D.h</text>
</a>
</g>
</g>
<!-- Node9&#45;&gt;Node70 -->
<g id="edge27" class="edge">
<title>Node9&#45;&gt;Node70</title>
<path fill="none" stroke="#63b8ff" d="M1526.59,-122.2C1519.85,-111.79 1512.16,-99.92 1506.31,-90.88"/>
<polygon fill="#63b8ff" stroke="#63b8ff" points="1523.48,-123.84 1531.85,-130.33 1529.36,-120.03 1523.48,-123.84"/>
</g>
<!-- Node71 -->
<g id="node28" class="node">
<title>Node71</title>
<g id="a_node28"><a xlink:href="d__a__spinner_8h.html" target="_top" xlink:title=" ">
<polygon fill="#fff0f0" stroke="red" points="1160,-90.5 1044,-90.5 1044,-60.5 1160,-60.5 1160,-90.5"/>
<text text-anchor="start" x="1052" y="-78.5" font-family="Helvetica,sans-Serif" font-size="10.00">include/rel/d/a/d_a</text>
<text text-anchor="middle" x="1102" y="-67.5" font-family="Helvetica,sans-Serif" font-size="10.00">_spinner/d_a_spinner.h</text>
</a>
</g>
</g>
<!-- Node9&#45;&gt;Node71 -->
<g id="edge28" class="edge">
<title>Node9&#45;&gt;Node71</title>
<path fill="none" stroke="#63b8ff" d="M1475.43,-140.12C1400.42,-132.79 1275.1,-118.42 1169,-96 1162.24,-94.57 1155.17,-92.81 1148.27,-90.94"/>
<polygon fill="#63b8ff" stroke="#63b8ff" points="1474.78,-143.57 1485.07,-141.05 1475.45,-136.6 1474.78,-143.57"/>
</g>
<!-- Node9&#45;&gt;Node72 -->
<g id="edge34" class="edge">
<title>Node9&#45;&gt;Node72</title>
<path fill="none" stroke="#63b8ff" d="M1475.53,-144.43C1274.74,-139.41 686.17,-122.48 655,-96 632.4,-76.8 633.21,-37.24 634.87,-19.48"/>
<polygon fill="#63b8ff" stroke="#63b8ff" points="1475.19,-147.92 1485.27,-144.67 1475.36,-140.93 1475.19,-147.92"/>
</g>
<!-- Node73 -->
<g id="node30" class="node">
<title>Node73</title>
<g id="a_node30"><a xlink:href="d__a__obj__yobikusa_8h.html" target="_top" xlink:title=" ">
<polygon fill="white" stroke="#666666" points="2003.5,-96 1898.5,-96 1898.5,-55 2003.5,-55 2003.5,-96"/>
<text text-anchor="start" x="1906.5" y="-84" font-family="Helvetica,sans-Serif" font-size="10.00">include/rel/d/a/obj</text>
<text text-anchor="start" x="1906.5" y="-73" font-family="Helvetica,sans-Serif" font-size="10.00">/d_a_obj_yobikusa/d</text>
<text text-anchor="middle" x="1951" y="-62" font-family="Helvetica,sans-Serif" font-size="10.00">_a_obj_yobikusa.h</text>
</a>
</g>
</g>
<!-- Node9&#45;&gt;Node73 -->
<g id="edge30" class="edge">
<title>Node9&#45;&gt;Node73</title>
<path fill="none" stroke="#63b8ff" d="M1608.38,-139.05C1677.64,-131.15 1789.16,-116.63 1884,-96 1888.62,-95 1893.38,-93.84 1898.14,-92.62"/>
<polygon fill="#63b8ff" stroke="#63b8ff" points="1608.26,-135.54 1598.71,-140.13 1609.04,-142.49 1608.26,-135.54"/>
</g>
<!-- Node74 -->
<g id="node31" class="node">
<title>Node74</title>
<g id="a_node31"><a xlink:href="d__a__tag__telop_8h.html" target="_top" xlink:title=" ">
<polygon fill="white" stroke="#666666" points="2140,-96 2022,-96 2022,-55 2140,-55 2140,-96"/>
<text text-anchor="start" x="2030" y="-84" font-family="Helvetica,sans-Serif" font-size="10.00">include/rel/d/a/tag</text>
<text text-anchor="start" x="2030" y="-73" font-family="Helvetica,sans-Serif" font-size="10.00">/d_a_tag_telop/d_a_tag</text>
<text text-anchor="middle" x="2081" y="-62" font-family="Helvetica,sans-Serif" font-size="10.00">_telop.h</text>
</a>
</g>
</g>
<!-- Node9&#45;&gt;Node74 -->
<g id="edge31" class="edge">
<title>Node9&#45;&gt;Node74</title>
<path fill="none" stroke="#63b8ff" d="M1608.76,-142.47C1700.35,-136.81 1869.83,-123.45 2012,-96 2015.18,-95.39 2018.42,-94.7 2021.69,-93.95"/>
<polygon fill="#63b8ff" stroke="#63b8ff" points="1608.72,-138.96 1598.95,-143.06 1609.14,-145.95 1608.72,-138.96"/>
</g>
<!-- Node75 -->
<g id="node32" class="node">
<title>Node75</title>
<g id="a_node32"><a xlink:href="c__dylink_8cpp.html" target="_top" xlink:title=" ">
<polygon fill="white" stroke="#666666" points="2253.5,-85 2158.5,-85 2158.5,-66 2253.5,-66 2253.5,-85"/>
<text text-anchor="middle" x="2206" y="-73" font-family="Helvetica,sans-Serif" font-size="10.00">src/c/c_dylink.cpp</text>
</a>
</g>
</g>
<!-- Node9&#45;&gt;Node75 -->
<g id="edge32" class="edge">
<title>Node9&#45;&gt;Node75</title>
<path fill="none" stroke="#63b8ff" d="M1608.98,-145.86C1721.67,-144.44 1955.81,-136.35 2149,-96 2160.77,-93.54 2173.47,-89.36 2183.89,-85.49"/>
<polygon fill="#63b8ff" stroke="#63b8ff" points="1608.95,-142.36 1598.99,-145.97 1609.03,-149.36 1608.95,-142.36"/>
</g>
<!-- Node9&#45;&gt;Node91 -->
<g id="edge35" class="edge">
<title>Node9&#45;&gt;Node91</title>
<path fill="none" stroke="#63b8ff" d="M1475.28,-144.56C1260.76,-139.71 590.27,-122.76 375,-96 355.81,-93.61 334.72,-89.39 317.38,-85.48"/>
<polygon fill="#63b8ff" stroke="#63b8ff" points="1475.06,-148.06 1485.13,-144.78 1475.22,-141.06 1475.06,-148.06"/>
</g>
<!-- Node9&#45;&gt;Node95 -->
<g id="edge37" class="edge">
<title>Node9&#45;&gt;Node95</title>
<path fill="none" stroke="#63b8ff" d="M1475.34,-145.85C1242.89,-144.97 469.07,-138.82 225,-96 218.1,-94.79 210.9,-92.99 203.97,-90.97"/>
<polygon fill="#63b8ff" stroke="#63b8ff" points="1475.12,-149.35 1485.13,-145.89 1475.14,-142.35 1475.12,-149.35"/>
</g>
<!-- Node9&#45;&gt;Node105 -->
<g id="edge39" class="edge">
<title>Node9&#45;&gt;Node105</title>
<path fill="none" stroke="#63b8ff" d="M1608.52,-144.61C1862.18,-139.15 2760.75,-118.41 2887,-96 2893.79,-94.79 2900.88,-93 2907.7,-90.98"/>
<polygon fill="#63b8ff" stroke="#63b8ff" points="1608.73,-141.1 1598.8,-144.82 1608.88,-148.1 1608.73,-141.1"/>
</g>
<!-- Node9&#45;&gt;Node106 -->
<g id="edge40" class="edge">
<title>Node9&#45;&gt;Node106</title>
<path fill="none" stroke="#63b8ff" d="M1608.49,-146.27C1875.03,-147.01 2866.66,-146.25 3176,-96 3183.44,-94.79 3191.23,-92.97 3198.72,-90.91"/>
<polygon fill="#63b8ff" stroke="#63b8ff" points="1608.61,-142.77 1598.6,-146.24 1608.59,-149.77 1608.61,-142.77"/>
</g>
<!-- Node9&#45;&gt;Node110 -->
<g id="edge41" class="edge">
<title>Node9&#45;&gt;Node110</title>
<path fill="none" stroke="#63b8ff" d="M1608.56,-145.99C1888.07,-145.64 2967.89,-141.35 3305,-96 3321.72,-93.75 3340.02,-89.43 3354.9,-85.43"/>
<polygon fill="#63b8ff" stroke="#63b8ff" points="1608.92,-142.49 1598.92,-146 1608.92,-149.49 1608.92,-142.49"/>
</g>
<!-- Node22&#45;&gt;Node4 -->
<g id="edge12" class="edge">
<title>Node22&#45;&gt;Node4</title>
<path fill="none" stroke="#63b8ff" d="M1813.37,-58.19C1828.05,-45.83 1847.65,-29.32 1859.52,-19.32"/>
<polygon fill="#63b8ff" stroke="#63b8ff" points="1811.12,-55.51 1805.73,-64.63 1815.63,-60.86 1811.12,-55.51"/>
</g>
<!-- Node45&#45;&gt;Node51 -->
<g id="edge20" class="edge">
<title>Node45&#45;&gt;Node51</title>
<path fill="none" stroke="#63b8ff" d="M411.68,-53.43C396.66,-41.85 378.83,-28.11 367.47,-19.34"/>
<polygon fill="#63b8ff" stroke="#63b8ff" points="409.32,-56.04 419.38,-59.37 413.6,-50.49 409.32,-56.04"/>
</g>
<!-- Node60 -->
<g id="node22" class="node">
<title>Node60</title>
<g id="a_node22"><a xlink:href="d__s__logo_8cpp.html" target="_top" xlink:title=" ">
<polygon fill="white" stroke="#666666" points="3164.5,-19 3057.5,-19 3057.5,0 3164.5,0 3164.5,-19"/>
<text text-anchor="middle" x="3111" y="-7" font-family="Helvetica,sans-Serif" font-size="10.00">src/d/s/d_s_logo.cpp</text>
</a>
</g>
</g>
<!-- Node59&#45;&gt;Node60 -->
<g id="edge22" class="edge">
<title>Node59&#45;&gt;Node60</title>
<path fill="none" stroke="#63b8ff" d="M3111,-54.18C3111,-42.44 3111,-28.27 3111,-19.32"/>
<polygon fill="#63b8ff" stroke="#63b8ff" points="3107.5,-54.09 3111,-64.09 3114.5,-54.09 3107.5,-54.09"/>
</g>
<!-- Node61&#45;&gt;Node62 -->
<g id="edge24" class="edge">
<title>Node61&#45;&gt;Node62</title>
<path fill="none" stroke="#63b8ff" d="M1651.27,-58.89C1634.76,-46.46 1612.25,-29.51 1598.72,-19.32"/>
<polygon fill="#63b8ff" stroke="#63b8ff" points="1648.88,-61.47 1658.97,-64.69 1653.09,-55.88 1648.88,-61.47"/>
</g>
<!-- Node71&#45;&gt;Node72 -->
<g id="edge29" class="edge">
<title>Node71&#45;&gt;Node72</title>
<path fill="none" stroke="#63b8ff" d="M1045.18,-57.24C1041.75,-56.42 1038.34,-55.67 1035,-55 914.7,-30.97 771.22,-18.95 693.3,-13.78"/>
<polygon fill="#63b8ff" stroke="#63b8ff" points="1044.1,-60.58 1054.66,-59.65 1045.83,-53.79 1044.1,-60.58"/>
</g>
<!-- Node143&#45;&gt;Node8 -->
<g id="edge44" class="edge">
<title>Node143&#45;&gt;Node8</title>
<path fill="none" stroke="#63b8ff" d="M901,-270.52C937.36,-256.63 994.05,-234.99 1025.67,-222.91"/>
<polygon fill="#63b8ff" stroke="#63b8ff" points="899.93,-267.18 891.83,-274.02 902.43,-273.72 899.93,-267.18"/>
</g>
<!-- Node143&#45;&gt;Node9 -->
<g id="edge45" class="edge">
<title>Node143&#45;&gt;Node9</title>
<path fill="none" stroke="#63b8ff" d="M883.25,-266.71C904.02,-246.45 942.11,-213.21 982,-198 1073.32,-163.19 1364.43,-152.24 1486.89,-149.13"/>
<polygon fill="#63b8ff" stroke="#63b8ff" points="880.87,-264.13 876.28,-273.68 885.83,-269.08 880.87,-264.13"/>
</g>
<!-- Node121&#45;&gt;Node9 -->
<g id="edge47" class="edge">
<title>Node121&#45;&gt;Node9</title>
<path fill="none" stroke="#63b8ff" d="M765.54,-202.3C779,-200.74 792.9,-199.23 806,-198 1059.74,-174.09 1363.73,-157.14 1486.52,-150.78"/>
<polygon fill="#63b8ff" stroke="#63b8ff" points="765.38,-198.8 755.86,-203.45 766.21,-205.75 765.38,-198.8"/>
</g>
<!-- Node121&#45;&gt;Node51 -->
<g id="edge48" class="edge">
<title>Node121&#45;&gt;Node51</title>
<path fill="none" stroke="#63b8ff" d="M650.22,-199.7C569.79,-174.51 393.86,-117.58 375,-96 355.69,-73.9 354.69,-36.53 355.38,-19.47"/>
<polygon fill="#63b8ff" stroke="#63b8ff" points="648.87,-202.95 659.46,-202.59 650.96,-196.27 648.87,-202.95"/>
</g>
<!-- Node146&#45;&gt;Node8 -->
<g id="edge51" class="edge">
<title>Node146&#45;&gt;Node8</title>
<path fill="none" stroke="#63b8ff" d="M1023,-254.15C1030.33,-242.84 1038.16,-230.74 1043.29,-222.82"/>
<polygon fill="#63b8ff" stroke="#63b8ff" points="1020.09,-252.2 1017.6,-262.5 1025.97,-256.01 1020.09,-252.2"/>
</g>
<!-- Node147&#45;&gt;Node51 -->
<g id="edge55" class="edge">
<title>Node147&#45;&gt;Node51</title>
<path fill="none" stroke="#63b8ff" d="M81.47,-125.97C81.06,-105.2 83.95,-73.26 103,-55 129.88,-29.23 229.36,-18.14 295.27,-13.55"/>
<polygon fill="#63b8ff" stroke="#63b8ff" points="77.96,-125.92 81.96,-135.73 84.95,-125.57 77.96,-125.92"/>
</g>
<!-- Node147&#45;&gt;Node95 -->
<g id="edge56" class="edge">
<title>Node147&#45;&gt;Node95</title>
<path fill="none" stroke="#63b8ff" d="M101.92,-129.77C115.69,-117.95 134.16,-102.11 147.36,-90.77"/>
<polygon fill="#63b8ff" stroke="#63b8ff" points="99.72,-127.04 94.41,-136.21 104.28,-132.36 99.72,-127.04"/>
</g>
</g>
</svg>
