<?xml version="1.0" encoding="UTF-8" standalone="no"?>
<!DOCTYPE svg PUBLIC "-//W3C//DTD SVG 1.1//EN"
 "http://www.w3.org/Graphics/SVG/1.1/DTD/svg11.dtd">
<!-- Generated by graphviz version 7.0.5 (20221223.1930)
 -->
<!-- Title: include/SSystem/SComponent/c_list_iter.h Pages: 1 -->
<svg width="3470pt" height="368pt"
 viewBox="0.00 0.00 3469.50 368.00" xmlns="http://www.w3.org/2000/svg" xmlns:xlink="http://www.w3.org/1999/xlink">
<g id="graph0" class="graph" transform="scale(1 1) rotate(0) translate(4 364)">
<title>include/SSystem/SComponent/c_list_iter.h</title>
<!-- Node1 -->
<g id="node1" class="node">
<title>Node1</title>
<g id="a_node1"><a xlink:title=" ">
<polygon fill="#999999" stroke="#666666" points="1106.5,-360 957.5,-360 957.5,-330 1106.5,-330 1106.5,-360"/>
<text text-anchor="start" x="965.5" y="-348" font-family="Helvetica,sans-Serif" font-size="10.00">include/SSystem/SComponent</text>
<text text-anchor="middle" x="1032" y="-337" font-family="Helvetica,sans-Serif" font-size="10.00">/c_list_iter.h</text>
</a>
</g>
</g>
<!-- Node2 -->
<g id="node2" class="node">
<title>Node2</title>
<g id="a_node2"><a xlink:href="f__pc__create__iter_8h.html" target="_top" xlink:title=" ">
<polygon fill="white" stroke="#666666" points="606.5,-294 483.5,-294 483.5,-264 606.5,-264 606.5,-294"/>
<text text-anchor="start" x="491.5" y="-282" font-family="Helvetica,sans-Serif" font-size="10.00">include/f_pc/f_pc_create</text>
<text text-anchor="middle" x="545" y="-271" font-family="Helvetica,sans-Serif" font-size="10.00">_iter.h</text>
</a>
</g>
</g>
<!-- Node1&#45;&gt;Node2 -->
<g id="edge1" class="edge">
<title>Node1&#45;&gt;Node2</title>
<path fill="none" stroke="#63b8ff" d="M945.96,-332.69C848.65,-319.9 692.58,-299.39 606.67,-288.1"/>
<polygon fill="#63b8ff" stroke="#63b8ff" points="945.37,-336.15 955.74,-333.98 946.28,-329.2 945.37,-336.15"/>
</g>
<!-- Node151 -->
<g id="node43" class="node">
<title>Node151</title>
<g id="a_node43"><a xlink:href="f__pc__method__iter_8h.html" target="_top" xlink:title=" ">
<polygon fill="white" stroke="#666666" points="795,-294 667,-294 667,-264 795,-264 795,-294"/>
<text text-anchor="start" x="675" y="-282" font-family="Helvetica,sans-Serif" font-size="10.00">include/f_pc/f_pc_method</text>
<text text-anchor="middle" x="731" y="-271" font-family="Helvetica,sans-Serif" font-size="10.00">_iter.h</text>
</a>
</g>
</g>
<!-- Node1&#45;&gt;Node151 -->
<g id="edge53" class="edge">
<title>Node1&#45;&gt;Node151</title>
<path fill="none" stroke="#63b8ff" d="M952.85,-327.17C903.72,-316.73 841.4,-303.47 795.33,-293.68"/>
<polygon fill="#63b8ff" stroke="#63b8ff" points="952.08,-330.59 962.59,-329.24 953.54,-323.74 952.08,-330.59"/>
</g>
<!-- Node154 -->
<g id="node46" class="node">
<title>Node154</title>
<g id="a_node46"><a xlink:href="c__list__iter_8cpp.html" target="_top" xlink:title=" ">
<polygon fill="white" stroke="#666666" points="947,-294 813,-294 813,-264 947,-264 947,-294"/>
<text text-anchor="start" x="821" y="-282" font-family="Helvetica,sans-Serif" font-size="10.00">libs/SSystem/SComponent</text>
<text text-anchor="middle" x="880" y="-271" font-family="Helvetica,sans-Serif" font-size="10.00">/c_list_iter.cpp</text>
</a>
</g>
</g>
<!-- Node1&#45;&gt;Node154 -->
<g id="edge56" class="edge">
<title>Node1&#45;&gt;Node154</title>
<path fill="none" stroke="#63b8ff" d="M987.53,-325.27C964.14,-315.43 935.92,-303.55 914.26,-294.43"/>
<polygon fill="#63b8ff" stroke="#63b8ff" points="985.92,-328.39 996.49,-329.05 988.64,-321.94 985.92,-328.39"/>
</g>
<!-- Node155 -->
<g id="node47" class="node">
<title>Node155</title>
<g id="a_node47"><a xlink:href="c__tree__iter_8cpp.html" target="_top" xlink:title=" ">
<polygon fill="white" stroke="#666666" points="1099,-294 965,-294 965,-264 1099,-264 1099,-294"/>
<text text-anchor="start" x="973" y="-282" font-family="Helvetica,sans-Serif" font-size="10.00">libs/SSystem/SComponent</text>
<text text-anchor="middle" x="1032" y="-271" font-family="Helvetica,sans-Serif" font-size="10.00">/c_tree_iter.cpp</text>
</a>
</g>
</g>
<!-- Node1&#45;&gt;Node155 -->
<g id="edge57" class="edge">
<title>Node1&#45;&gt;Node155</title>
<path fill="none" stroke="#63b8ff" d="M1032,-318.39C1032,-310.13 1032,-301.28 1032,-294.16"/>
<polygon fill="#63b8ff" stroke="#63b8ff" points="1028.5,-318.28 1032,-328.28 1035.5,-318.28 1028.5,-318.28"/>
</g>
<!-- Node156 -->
<g id="node48" class="node">
<title>Node156</title>
<g id="a_node48"><a xlink:href="f__op__actor__iter_8cpp.html" target="_top" xlink:title=" ">
<polygon fill="white" stroke="#666666" points="1218.5,-294 1117.5,-294 1117.5,-264 1218.5,-264 1218.5,-294"/>
<text text-anchor="start" x="1125.5" y="-282" font-family="Helvetica,sans-Serif" font-size="10.00">src/f_op/f_op_actor</text>
<text text-anchor="middle" x="1168" y="-271" font-family="Helvetica,sans-Serif" font-size="10.00">_iter.cpp</text>
</a>
</g>
</g>
<!-- Node1&#45;&gt;Node156 -->
<g id="edge58" class="edge">
<title>Node1&#45;&gt;Node156</title>
<path fill="none" stroke="#63b8ff" d="M1072.68,-324.86C1093.51,-315.05 1118.44,-303.32 1137.58,-294.31"/>
<polygon fill="#63b8ff" stroke="#63b8ff" points="1071.45,-321.57 1063.89,-328.99 1074.43,-327.9 1071.45,-321.57"/>
</g>
<!-- Node157 -->
<g id="node49" class="node">
<title>Node157</title>
<g id="a_node49"><a xlink:href="f__op__scene__iter_8cpp.html" target="_top" xlink:title=" ">
<polygon fill="white" stroke="#666666" points="1341.5,-294 1236.5,-294 1236.5,-264 1341.5,-264 1341.5,-294"/>
<text text-anchor="start" x="1244.5" y="-282" font-family="Helvetica,sans-Serif" font-size="10.00">src/f_op/f_op_scene</text>
<text text-anchor="middle" x="1289" y="-271" font-family="Helvetica,sans-Serif" font-size="10.00">_iter.cpp</text>
</a>
</g>
</g>
<!-- Node1&#45;&gt;Node157 -->
<g id="edge59" class="edge">
<title>Node1&#45;&gt;Node157</title>
<path fill="none" stroke="#63b8ff" d="M1101.08,-326.8C1143.49,-316.24 1196.97,-302.92 1236.03,-293.19"/>
<polygon fill="#63b8ff" stroke="#63b8ff" points="1100.32,-323.38 1091.46,-329.19 1102.01,-330.17 1100.32,-323.38"/>
</g>
<!-- Node158 -->
<g id="node50" class="node">
<title>Node158</title>
<g id="a_node50"><a xlink:href="f__pc__deletor_8cpp.html" target="_top" xlink:title=" ">
<polygon fill="white" stroke="#666666" points="1486,-288.5 1360,-288.5 1360,-269.5 1486,-269.5 1486,-288.5"/>
<text text-anchor="middle" x="1423" y="-276.5" font-family="Helvetica,sans-Serif" font-size="10.00">src/f_pc/f_pc_deletor.cpp</text>
</a>
</g>
</g>
<!-- Node1&#45;&gt;Node158 -->
<g id="edge60" class="edge">
<title>Node1&#45;&gt;Node158</title>
<path fill="none" stroke="#63b8ff" d="M1118.19,-331.36C1182.46,-321.73 1272.35,-307.81 1351,-294 1359.78,-292.46 1369.14,-290.71 1378.11,-288.99"/>
<polygon fill="#63b8ff" stroke="#63b8ff" points="1117.76,-327.89 1108.39,-332.83 1118.8,-334.81 1117.76,-327.89"/>
</g>
<!-- Node3 -->
<g id="node3" class="node">
<title>Node3</title>
<g id="a_node3"><a xlink:href="f__pc__manager_8h.html" target="_top" xlink:title=" ">
<polygon fill="white" stroke="#666666" points="615.5,-222.5 474.5,-222.5 474.5,-203.5 615.5,-203.5 615.5,-222.5"/>
<text text-anchor="middle" x="545" y="-210.5" font-family="Helvetica,sans-Serif" font-size="10.00">include/f_pc/f_pc_manager.h</text>
</a>
</g>
</g>
<!-- Node2&#45;&gt;Node3 -->
<g id="edge2" class="edge">
<title>Node2&#45;&gt;Node3</title>
<path fill="none" stroke="#63b8ff" d="M545,-252.59C545,-242.06 545,-230.53 545,-222.84"/>
<polygon fill="#63b8ff" stroke="#63b8ff" points="541.5,-252.28 545,-262.28 548.5,-252.28 541.5,-252.28"/>
</g>
<!-- Node110 -->
<g id="node40" class="node">
<title>Node110</title>
<g id="a_node40"><a xlink:href="f__pc__manager_8cpp.html" target="_top" xlink:title=" ">
<polygon fill="white" stroke="#666666" points="1745,-156.5 1611,-156.5 1611,-137.5 1745,-137.5 1745,-156.5"/>
<text text-anchor="middle" x="1678" y="-144.5" font-family="Helvetica,sans-Serif" font-size="10.00">src/f_pc/f_pc_manager.cpp</text>
</a>
</g>
</g>
<!-- Node2&#45;&gt;Node110 -->
<g id="edge52" class="edge">
<title>Node2&#45;&gt;Node110</title>
<path fill="none" stroke="#63b8ff" d="M578.3,-257.86C592.57,-248.99 609.3,-238.27 624,-228 641.92,-215.47 642.44,-205.44 663,-198 761.19,-162.49 1498.22,-173.49 1602,-162 1612.93,-160.79 1624.66,-158.92 1635.55,-156.93"/>
<polygon fill="#63b8ff" stroke="#63b8ff" points="576.84,-254.65 570.16,-262.88 580.51,-260.61 576.84,-254.65"/>
</g>
<!-- Node149 -->
<g id="node41" class="node">
<title>Node149</title>
<g id="a_node41"><a xlink:href="f__pc__create__iter_8cpp.html" target="_top" xlink:title=" ">
<polygon fill="white" stroke="#666666" points="332,-228 226,-228 226,-198 332,-198 332,-228"/>
<text text-anchor="start" x="234" y="-216" font-family="Helvetica,sans-Serif" font-size="10.00">src/f_pc/f_pc_create</text>
<text text-anchor="middle" x="279" y="-205" font-family="Helvetica,sans-Serif" font-size="10.00">_iter.cpp</text>
</a>
</g>
</g>
<!-- Node2&#45;&gt;Node149 -->
<g id="edge50" class="edge">
<title>Node2&#45;&gt;Node149</title>
<path fill="none" stroke="#63b8ff" d="M473.95,-260.9C429.5,-250.21 373.16,-236.66 332.49,-226.87"/>
<polygon fill="#63b8ff" stroke="#63b8ff" points="472.96,-264.27 483.5,-263.2 474.6,-257.46 472.96,-264.27"/>
</g>
<!-- Node150 -->
<g id="node42" class="node">
<title>Node150</title>
<g id="a_node42"><a xlink:href="f__pc__create__req_8cpp.html" target="_top" xlink:title=" ">
<polygon fill="white" stroke="#666666" points="456,-228 350,-228 350,-198 456,-198 456,-228"/>
<text text-anchor="start" x="358" y="-216" font-family="Helvetica,sans-Serif" font-size="10.00">src/f_pc/f_pc_create</text>
<text text-anchor="middle" x="403" y="-205" font-family="Helvetica,sans-Serif" font-size="10.00">_req.cpp</text>
</a>
</g>
</g>
<!-- Node2&#45;&gt;Node150 -->
<g id="edge51" class="edge">
<title>Node2&#45;&gt;Node150</title>
<path fill="none" stroke="#63b8ff" d="M502.82,-258.99C481.02,-249.16 454.84,-237.36 434.76,-228.31"/>
<polygon fill="#63b8ff" stroke="#63b8ff" points="501.2,-262.1 511.75,-263.02 504.07,-255.72 501.2,-262.1"/>
</g>
<!-- Node4 -->
<g id="node4" class="node">
<title>Node4</title>
<g id="a_node4"><a xlink:href="f__op__actor__mng_8h.html" target="_top" xlink:title=" ">
<polygon fill="#fff0f0" stroke="red" points="1593,-162 1475,-162 1475,-132 1593,-132 1593,-162"/>
<text text-anchor="start" x="1483" y="-150" font-family="Helvetica,sans-Serif" font-size="10.00">include/f_op/f_op_actor</text>
<text text-anchor="middle" x="1534" y="-139" font-family="Helvetica,sans-Serif" font-size="10.00">_mng.h</text>
</a>
</g>
</g>
<!-- Node3&#45;&gt;Node4 -->
<g id="edge3" class="edge">
<title>Node3&#45;&gt;Node4</title>
<path fill="none" stroke="#63b8ff" d="M605.11,-201.27C613.45,-200.03 621.93,-198.89 630,-198 947.18,-163.21 1329.77,-152.15 1474.59,-149.07"/>
<polygon fill="#63b8ff" stroke="#63b8ff" points="604.71,-197.79 595.36,-202.79 605.78,-204.71 604.71,-197.79"/>
</g>
<!-- Node139 -->
<g id="node31" class="node">
<title>Node139</title>
<g id="a_node31"><a xlink:href="f__op__kankyo_8h.html" target="_top" xlink:title=" ">
<polygon fill="white" stroke="#666666" points="178,-85 44,-85 44,-66 178,-66 178,-85"/>
<text text-anchor="middle" x="111" y="-73" font-family="Helvetica,sans-Serif" font-size="10.00">include/f_op/f_op_kankyo.h</text>
</a>
</g>
</g>
<!-- Node3&#45;&gt;Node139 -->
<g id="edge37" class="edge">
<title>Node3&#45;&gt;Node139</title>
<path fill="none" stroke="#63b8ff" d="M482.48,-201.04C476.57,-200.01 470.67,-198.98 465,-198 371.69,-181.84 343.86,-194.72 255,-162 201.8,-142.41 146.09,-103.06 122.57,-85.41"/>
<polygon fill="#63b8ff" stroke="#63b8ff" points="481.85,-204.48 492.3,-202.75 483.05,-197.58 481.85,-204.48"/>
</g>
<!-- Node64 -->
<g id="node32" class="node">
<title>Node64</title>
<g id="a_node32"><a xlink:href="f__op__kankyo_8cpp.html" target="_top" xlink:title=" ">
<polygon fill="white" stroke="#666666" points="128,-19 0,-19 0,0 128,0 128,-19"/>
<text text-anchor="middle" x="64" y="-7" font-family="Helvetica,sans-Serif" font-size="10.00">src/f_op/f_op_kankyo.cpp</text>
</a>
</g>
</g>
<!-- Node3&#45;&gt;Node64 -->
<g id="edge44" class="edge">
<title>Node3&#45;&gt;Node64</title>
<path fill="none" stroke="#63b8ff" d="M486.49,-201.14C479.27,-199.99 471.97,-198.9 465,-198 418,-191.91 73.36,-195.66 40,-162 6.49,-128.19 21.44,-100.64 35,-55 39.1,-41.21 48.97,-27.7 56.06,-19.25"/>
<polygon fill="#63b8ff" stroke="#63b8ff" points="485.8,-204.58 496.23,-202.76 486.94,-197.67 485.8,-204.58"/>
</g>
<!-- Node140 -->
<g id="node33" class="node">
<title>Node140</title>
<g id="a_node33"><a xlink:href="f__op__kankyo__mng_8h.html" target="_top" xlink:title=" ">
<polygon fill="#fff0f0" stroke="red" points="176.5,-162 49.5,-162 49.5,-132 176.5,-132 176.5,-162"/>
<text text-anchor="start" x="57.5" y="-150" font-family="Helvetica,sans-Serif" font-size="10.00">include/f_op/f_op_kankyo</text>
<text text-anchor="middle" x="113" y="-139" font-family="Helvetica,sans-Serif" font-size="10.00">_mng.h</text>
</a>
</g>
</g>
<!-- Node3&#45;&gt;Node140 -->
<g id="edge39" class="edge">
<title>Node3&#45;&gt;Node140</title>
<path fill="none" stroke="#63b8ff" d="M484.54,-201.16C477.95,-200.06 471.34,-198.98 465,-198 347.11,-179.71 317,-179.59 199,-162 191.82,-160.93 184.31,-159.77 176.84,-158.59"/>
<polygon fill="#63b8ff" stroke="#63b8ff" points="483.61,-204.56 494.05,-202.78 484.78,-197.65 483.61,-204.56"/>
</g>
<!-- Node141 -->
<g id="node34" class="node">
<title>Node141</title>
<g id="a_node34"><a xlink:href="f__op__scene__mng_8h.html" target="_top" xlink:title=" ">
<polygon fill="#fff0f0" stroke="red" points="405,-162 283,-162 283,-132 405,-132 405,-162"/>
<text text-anchor="start" x="291" y="-150" font-family="Helvetica,sans-Serif" font-size="10.00">include/f_op/f_op_scene</text>
<text text-anchor="middle" x="344" y="-139" font-family="Helvetica,sans-Serif" font-size="10.00">_mng.h</text>
</a>
</g>
</g>
<!-- Node3&#45;&gt;Node141 -->
<g id="edge41" class="edge">
<title>Node3&#45;&gt;Node141</title>
<path fill="none" stroke="#63b8ff" d="M506.34,-199.69C472.96,-189.06 424.7,-173.69 389.47,-162.48"/>
<polygon fill="#63b8ff" stroke="#63b8ff" points="505.02,-202.94 515.61,-202.64 507.14,-196.27 505.02,-202.94"/>
</g>
<!-- Node143 -->
<g id="node35" class="node">
<title>Node143</title>
<g id="a_node35"><a xlink:href="f__ap__game_8cpp.html" target="_top" xlink:title=" ">
<polygon fill="white" stroke="#666666" points="317.5,-85 196.5,-85 196.5,-66 317.5,-66 317.5,-85"/>
<text text-anchor="middle" x="257" y="-73" font-family="Helvetica,sans-Serif" font-size="10.00">src/f_ap/f_ap_game.cpp</text>
</a>
</g>
</g>
<!-- Node3&#45;&gt;Node143 -->
<g id="edge43" class="edge">
<title>Node3&#45;&gt;Node143</title>
<path fill="none" stroke="#63b8ff" d="M483.63,-201.11C404.26,-186.97 275.88,-163.85 274,-162 253.1,-141.38 254.11,-102.91 255.83,-85.49"/>
<polygon fill="#63b8ff" stroke="#63b8ff" points="482.53,-204.47 492.99,-202.78 483.76,-197.58 482.53,-204.47"/>
</g>
<!-- Node145 -->
<g id="node36" class="node">
<title>Node145</title>
<g id="a_node36"><a xlink:href="f__op__overlap__req_8cpp.html" target="_top" xlink:title=" ">
<polygon fill="white" stroke="#666666" points="533,-162 423,-162 423,-132 533,-132 533,-162"/>
<text text-anchor="start" x="431" y="-150" font-family="Helvetica,sans-Serif" font-size="10.00">src/f_op/f_op_overlap</text>
<text text-anchor="middle" x="478" y="-139" font-family="Helvetica,sans-Serif" font-size="10.00">_req.cpp</text>
</a>
</g>
</g>
<!-- Node3&#45;&gt;Node145 -->
<g id="edge45" class="edge">
<title>Node3&#45;&gt;Node145</title>
<path fill="none" stroke="#63b8ff" d="M527.53,-195.31C516.86,-185.12 503.37,-172.23 493.16,-162.48"/>
<polygon fill="#63b8ff" stroke="#63b8ff" points="524.94,-197.68 534.59,-202.06 529.78,-192.62 524.94,-197.68"/>
</g>
<!-- Node146 -->
<g id="node37" class="node">
<title>Node146</title>
<g id="a_node37"><a xlink:href="f__op__scene_8cpp.html" target="_top" xlink:title=" ">
<polygon fill="white" stroke="#666666" points="674.5,-156.5 551.5,-156.5 551.5,-137.5 674.5,-137.5 674.5,-156.5"/>
<text text-anchor="middle" x="613" y="-144.5" font-family="Helvetica,sans-Serif" font-size="10.00">src/f_op/f_op_scene.cpp</text>
</a>
</g>
</g>
<!-- Node3&#45;&gt;Node146 -->
<g id="edge46" class="edge">
<title>Node3&#45;&gt;Node146</title>
<path fill="none" stroke="#63b8ff" d="M562.71,-195.33C575.8,-183.02 593.1,-166.73 603.63,-156.82"/>
<polygon fill="#63b8ff" stroke="#63b8ff" points="560.44,-192.66 555.56,-202.06 565.24,-197.76 560.44,-192.66"/>
</g>
<!-- Node147 -->
<g id="node38" class="node">
<title>Node147</title>
<g id="a_node38"><a xlink:href="f__op__scene__pause_8cpp.html" target="_top" xlink:title=" ">
<polygon fill="white" stroke="#666666" points="797.5,-162 692.5,-162 692.5,-132 797.5,-132 797.5,-162"/>
<text text-anchor="start" x="700.5" y="-150" font-family="Helvetica,sans-Serif" font-size="10.00">src/f_op/f_op_scene</text>
<text text-anchor="middle" x="745" y="-139" font-family="Helvetica,sans-Serif" font-size="10.00">_pause.cpp</text>
</a>
</g>
</g>
<!-- Node3&#45;&gt;Node147 -->
<g id="edge47" class="edge">
<title>Node3&#45;&gt;Node147</title>
<path fill="none" stroke="#63b8ff" d="M583.46,-199.69C616.68,-189.06 664.71,-173.69 699.76,-162.48"/>
<polygon fill="#63b8ff" stroke="#63b8ff" points="582.71,-196.26 574.25,-202.64 584.84,-202.93 582.71,-196.26"/>
</g>
<!-- Node148 -->
<g id="node39" class="node">
<title>Node148</title>
<g id="a_node39"><a xlink:href="f__op__view_8cpp.html" target="_top" xlink:title=" ">
<polygon fill="white" stroke="#666666" points="932.5,-156.5 815.5,-156.5 815.5,-137.5 932.5,-137.5 932.5,-156.5"/>
<text text-anchor="middle" x="874" y="-144.5" font-family="Helvetica,sans-Serif" font-size="10.00">src/f_op/f_op_view.cpp</text>
</a>
</g>
</g>
<!-- Node3&#45;&gt;Node148 -->
<g id="edge48" class="edge">
<title>Node3&#45;&gt;Node148</title>
<path fill="none" stroke="#63b8ff" d="M604.59,-200.93C657.73,-190.99 737.62,-175.87 807,-162 814.92,-160.42 823.37,-158.69 831.49,-157"/>
<polygon fill="#63b8ff" stroke="#63b8ff" points="604.01,-197.48 594.83,-202.76 605.3,-204.36 604.01,-197.48"/>
</g>
<!-- Node3&#45;&gt;Node110 -->
<g id="edge49" class="edge">
<title>Node3&#45;&gt;Node110</title>
<path fill="none" stroke="#63b8ff" d="M604.17,-201.27C612.81,-199.99 621.62,-198.84 630,-198 1060.13,-154.79 1172.3,-209.28 1602,-162 1612.94,-160.8 1624.66,-158.93 1635.55,-156.94"/>
<polygon fill="#63b8ff" stroke="#63b8ff" points="603.8,-197.79 594.45,-202.78 604.87,-204.7 603.8,-197.79"/>
</g>
<!-- Node5 -->
<g id="node5" class="node">
<title>Node5</title>
<g id="a_node5"><a xlink:href="d__a__alink_8h.html" target="_top" xlink:title=" ">
<polygon fill="#fff0f0" stroke="red" points="3342,-85 3226,-85 3226,-66 3342,-66 3342,-85"/>
<text text-anchor="middle" x="3284" y="-73" font-family="Helvetica,sans-Serif" font-size="10.00">include/d/a/d_a_alink.h</text>
</a>
</g>
</g>
<!-- Node4&#45;&gt;Node5 -->
<g id="edge4" class="edge">
<title>Node4&#45;&gt;Node5</title>
<path fill="none" stroke="#63b8ff" d="M1604.65,-131.9C1977.17,-92.84 2865.84,-150.06 3217,-96 3231.13,-93.82 3246.47,-89.51 3258.9,-85.49"/>
<polygon fill="#63b8ff" stroke="#63b8ff" points="1604.3,-128.42 1594.74,-132.98 1605.06,-135.38 1604.3,-128.42"/>
</g>
<!-- Node16 -->
<g id="node6" class="node">
<title>Node16</title>
<g id="a_node6"><a xlink:href="d__a__alink_8cpp.html" target="_top" xlink:title=" ">
<polygon fill="white" stroke="#666666" points="1527.5,-19 1418.5,-19 1418.5,0 1527.5,0 1527.5,-19"/>
<text text-anchor="middle" x="1473" y="-7" font-family="Helvetica,sans-Serif" font-size="10.00">src/d/a/d_a_alink.cpp</text>
</a>
</g>
</g>
<!-- Node4&#45;&gt;Node16 -->
<g id="edge28" class="edge">
<title>Node4&#45;&gt;Node16</title>
<path fill="none" stroke="#63b8ff" d="M1463.32,-143.1C1344.52,-137.48 1115.33,-123.23 1091,-96 1078.86,-82.41 1078.88,-68.61 1091,-55 1112.37,-31 1317.6,-17.93 1418.09,-12.93"/>
<polygon fill="#63b8ff" stroke="#63b8ff" points="1463.15,-146.59 1473.3,-143.56 1463.47,-139.6 1463.15,-146.59"/>
</g>
<!-- Node116 -->
<g id="node7" class="node">
<title>Node116</title>
<g id="a_node7"><a xlink:href="d__a__obj__item_8h.html" target="_top" xlink:title=" ">
<polygon fill="#fff0f0" stroke="red" points="3461.5,-90.5 3360.5,-90.5 3360.5,-60.5 3461.5,-60.5 3461.5,-90.5"/>
<text text-anchor="start" x="3368.5" y="-78.5" font-family="Helvetica,sans-Serif" font-size="10.00">include/d/a/d_a_obj</text>
<text text-anchor="middle" x="3411" y="-67.5" font-family="Helvetica,sans-Serif" font-size="10.00">_item.h</text>
</a>
</g>
</g>
<!-- Node4&#45;&gt;Node116 -->
<g id="edge6" class="edge">
<title>Node4&#45;&gt;Node116</title>
<path fill="none" stroke="#63b8ff" d="M1604.68,-131.9C2006.92,-89.98 2971.34,-160.16 3351,-96 3357.91,-94.83 3365.12,-93.03 3372.04,-90.98"/>
<polygon fill="#63b8ff" stroke="#63b8ff" points="1604.31,-128.42 1594.74,-132.98 1605.06,-135.38 1604.31,-128.42"/>
</g>
<!-- Node117 -->
<g id="node8" class="node">
<title>Node117</title>
<g id="a_node8"><a xlink:href="d__a__obj__ss__base_8h.html" target="_top" xlink:title=" ">
<polygon fill="#fff0f0" stroke="red" points="436.5,-90.5 335.5,-90.5 335.5,-60.5 436.5,-60.5 436.5,-90.5"/>
<text text-anchor="start" x="343.5" y="-78.5" font-family="Helvetica,sans-Serif" font-size="10.00">include/d/a/d_a_obj</text>
<text text-anchor="middle" x="386" y="-67.5" font-family="Helvetica,sans-Serif" font-size="10.00">_ss_base.h</text>
</a>
</g>
</g>
<!-- Node4&#45;&gt;Node117 -->
<g id="edge7" class="edge">
<title>Node4&#45;&gt;Node117</title>
<path fill="none" stroke="#63b8ff" d="M1463.19,-145C1254.89,-141.68 646.65,-129.34 451,-96 443.68,-94.75 436.03,-92.94 428.65,-90.91"/>
<polygon fill="#63b8ff" stroke="#63b8ff" points="1463,-148.49 1473.05,-145.15 1463.11,-141.49 1463,-148.49"/>
</g>
<!-- Node119 -->
<g id="node9" class="node">
<title>Node119</title>
<g id="a_node9"><a xlink:href="d__bomb_8h.html" target="_top" xlink:title=" ">
<polygon fill="white" stroke="#666666" points="919.5,-85 818.5,-85 818.5,-66 919.5,-66 919.5,-85"/>
<text text-anchor="middle" x="869" y="-73" font-family="Helvetica,sans-Serif" font-size="10.00">include/d/d_bomb.h</text>
</a>
</g>
</g>
<!-- Node4&#45;&gt;Node119 -->
<g id="edge8" class="edge">
<title>Node4&#45;&gt;Node119</title>
<path fill="none" stroke="#63b8ff" d="M1463.24,-145.44C1349.53,-143.37 1119.55,-134.3 929,-96 916.65,-93.52 903.29,-89.33 892.32,-85.47"/>
<polygon fill="#63b8ff" stroke="#63b8ff" points="1462.97,-148.94 1473.02,-145.61 1463.08,-141.94 1462.97,-148.94"/>
</g>
<!-- Node120 -->
<g id="node10" class="node">
<title>Node120</title>
<g id="a_node10"><a xlink:href="d__bomb_8cpp.html" target="_top" xlink:title=" ">
<polygon fill="white" stroke="#666666" points="876,-19 782,-19 782,0 876,0 876,-19"/>
<text text-anchor="middle" x="829" y="-7" font-family="Helvetica,sans-Serif" font-size="10.00">src/d/d_bomb.cpp</text>
</a>
</g>
</g>
<!-- Node4&#45;&gt;Node120 -->
<g id="edge33" class="edge">
<title>Node4&#45;&gt;Node120</title>
<path fill="none" stroke="#63b8ff" d="M1463.3,-146.46C1289.81,-146.85 853.96,-143.1 810,-96 789.87,-74.43 811.16,-36.45 822.65,-19.32"/>
<polygon fill="#63b8ff" stroke="#63b8ff" points="1463.08,-149.96 1473.07,-146.43 1463.06,-142.96 1463.08,-149.96"/>
</g>
<!-- Node121 -->
<g id="node11" class="node">
<title>Node121</title>
<g id="a_node11"><a xlink:href="d__a__arrow_8h.html" target="_top" xlink:title=" ">
<polygon fill="white" stroke="#666666" points="761.5,-90.5 660.5,-90.5 660.5,-60.5 761.5,-60.5 761.5,-90.5"/>
<text text-anchor="start" x="668.5" y="-78.5" font-family="Helvetica,sans-Serif" font-size="10.00">include/rel/d/a/d_a</text>
<text text-anchor="middle" x="711" y="-67.5" font-family="Helvetica,sans-Serif" font-size="10.00">_arrow/d_a_arrow.h</text>
</a>
</g>
</g>
<!-- Node4&#45;&gt;Node121 -->
<g id="edge11" class="edge">
<title>Node4&#45;&gt;Node121</title>
<path fill="none" stroke="#63b8ff" d="M1463.62,-146.62C1328.97,-146.66 1026.01,-141.15 776,-96 768.93,-94.72 761.54,-92.95 754.38,-90.98"/>
<polygon fill="#63b8ff" stroke="#63b8ff" points="1463.45,-150.13 1473.45,-146.61 1463.44,-143.13 1463.45,-150.13"/>
</g>
<!-- Node122 -->
<g id="node12" class="node">
<title>Node122</title>
<g id="a_node12"><a xlink:href="d__a__boomerang_8h.html" target="_top" xlink:title=" ">
<polygon fill="white" stroke="#666666" points="642.5,-90.5 493.5,-90.5 493.5,-60.5 642.5,-60.5 642.5,-90.5"/>
<text text-anchor="start" x="501.5" y="-78.5" font-family="Helvetica,sans-Serif" font-size="10.00">include/rel/d/a/d_a</text>
<text text-anchor="middle" x="568" y="-67.5" font-family="Helvetica,sans-Serif" font-size="10.00">_boomerang/d_a_boomerang.h</text>
</a>
</g>
</g>
<!-- Node4&#45;&gt;Node122 -->
<g id="edge12" class="edge">
<title>Node4&#45;&gt;Node122</title>
<path fill="none" stroke="#63b8ff" d="M1463.44,-146.16C1313.2,-145.59 950.91,-139.38 651,-96 642.06,-94.71 632.67,-92.92 623.55,-90.96"/>
<polygon fill="#63b8ff" stroke="#63b8ff" points="1463.22,-149.66 1473.23,-146.19 1463.24,-142.66 1463.22,-149.66"/>
</g>
<!-- Node73 -->
<g id="node13" class="node">
<title>Node73</title>
<g id="a_node13"><a xlink:href="d__a__player_8cpp.html" target="_top" xlink:title=" ">
<polygon fill="white" stroke="#666666" points="573,-19 459,-19 459,0 573,0 573,-19"/>
<text text-anchor="middle" x="516" y="-7" font-family="Helvetica,sans-Serif" font-size="10.00">src/d/a/d_a_player.cpp</text>
</a>
</g>
</g>
<!-- Node4&#45;&gt;Node73 -->
<g id="edge29" class="edge">
<title>Node4&#45;&gt;Node73</title>
<path fill="none" stroke="#63b8ff" d="M1463.52,-143.94C1230.83,-136.98 500.93,-113.76 484,-96 462.89,-73.86 491.8,-36.51 507.3,-19.46"/>
<polygon fill="#63b8ff" stroke="#63b8ff" points="1463.26,-147.43 1473.36,-144.23 1463.47,-140.44 1463.26,-147.43"/>
</g>
<!-- Node123 -->
<g id="node14" class="node">
<title>Node123</title>
<g id="a_node14"><a xlink:href="d__a__canoe_8h.html" target="_top" xlink:title=" ">
<polygon fill="white" stroke="#666666" points="1044,-90.5 938,-90.5 938,-60.5 1044,-60.5 1044,-90.5"/>
<text text-anchor="start" x="946" y="-78.5" font-family="Helvetica,sans-Serif" font-size="10.00">include/rel/d/a/d_a</text>
<text text-anchor="middle" x="991" y="-67.5" font-family="Helvetica,sans-Serif" font-size="10.00">_canoe/d_a_canoe.h</text>
</a>
</g>
</g>
<!-- Node4&#45;&gt;Node123 -->
<g id="edge14" class="edge">
<title>Node4&#45;&gt;Node123</title>
<path fill="none" stroke="#63b8ff" d="M1463.59,-142.54C1370.17,-137.06 1200.45,-123.98 1058,-96 1050.99,-94.62 1043.65,-92.84 1036.5,-90.92"/>
<polygon fill="#63b8ff" stroke="#63b8ff" points="1463.18,-146.02 1473.36,-143.1 1463.58,-139.03 1463.18,-146.02"/>
</g>
<!-- Node124 -->
<g id="node15" class="node">
<title>Node124</title>
<g id="a_node15"><a xlink:href="d__a__crod_8h.html" target="_top" xlink:title=" ">
<polygon fill="white" stroke="#666666" points="1196,-90.5 1100,-90.5 1100,-60.5 1196,-60.5 1196,-90.5"/>
<text text-anchor="start" x="1108" y="-78.5" font-family="Helvetica,sans-Serif" font-size="10.00">include/rel/d/a/d_a</text>
<text text-anchor="middle" x="1148" y="-67.5" font-family="Helvetica,sans-Serif" font-size="10.00">_crod/d_a_crod.h</text>
</a>
</g>
</g>
<!-- Node4&#45;&gt;Node124 -->
<g id="edge15" class="edge">
<title>Node4&#45;&gt;Node124</title>
<path fill="none" stroke="#63b8ff" d="M1463.27,-138.95C1396.15,-131.4 1292.79,-117.5 1205,-96 1199.21,-94.58 1193.17,-92.83 1187.28,-90.96"/>
<polygon fill="#63b8ff" stroke="#63b8ff" points="1462.71,-142.41 1473.04,-140.03 1463.48,-135.46 1462.71,-142.41"/>
</g>
<!-- Node125 -->
<g id="node16" class="node">
<title>Node125</title>
<g id="a_node16"><a xlink:href="d__a__scene__exit_8h.html" target="_top" xlink:title=" ">
<polygon fill="white" stroke="#666666" points="1857.5,-96 1738.5,-96 1738.5,-55 1857.5,-55 1857.5,-96"/>
<text text-anchor="start" x="1746.5" y="-84" font-family="Helvetica,sans-Serif" font-size="10.00">include/rel/d/a/d_a</text>
<text text-anchor="start" x="1746.5" y="-73" font-family="Helvetica,sans-Serif" font-size="10.00">_scene_exit/d_a_scene</text>
<text text-anchor="middle" x="1798" y="-62" font-family="Helvetica,sans-Serif" font-size="10.00">_exit.h</text>
</a>
</g>
</g>
<!-- Node4&#45;&gt;Node125 -->
<g id="edge17" class="edge">
<title>Node4&#45;&gt;Node125</title>
<path fill="none" stroke="#63b8ff" d="M1602.48,-128.88C1639.92,-119.41 1687.08,-107.3 1729,-96 1732,-95.19 1735.08,-94.35 1738.19,-93.5"/>
<polygon fill="#63b8ff" stroke="#63b8ff" points="1602,-125.39 1593.16,-131.23 1603.71,-132.17 1602,-125.39"/>
</g>
<!-- Node126 -->
<g id="node17" class="node">
<title>Node126</title>
<g id="a_node17"><a xlink:href="d__a__tboxSw_8h.html" target="_top" xlink:title=" ">
<polygon fill="white" stroke="#666666" points="1332,-90.5 1214,-90.5 1214,-60.5 1332,-60.5 1332,-90.5"/>
<text text-anchor="start" x="1222" y="-78.5" font-family="Helvetica,sans-Serif" font-size="10.00">include/rel/d/a/d_a</text>
<text text-anchor="middle" x="1273" y="-67.5" font-family="Helvetica,sans-Serif" font-size="10.00">_tboxSw/d_a_tboxSw.h</text>
</a>
</g>
</g>
<!-- Node4&#45;&gt;Node126 -->
<g id="edge19" class="edge">
<title>Node4&#45;&gt;Node126</title>
<path fill="none" stroke="#63b8ff" d="M1465.33,-128.67C1428.42,-119.24 1382.16,-107.23 1341,-96 1335.08,-94.38 1328.87,-92.65 1322.72,-90.92"/>
<polygon fill="#63b8ff" stroke="#63b8ff" points="1464.45,-132.06 1475,-131.14 1466.18,-125.27 1464.45,-132.06"/>
</g>
<!-- Node127 -->
<g id="node18" class="node">
<title>Node127</title>
<g id="a_node18"><a xlink:href="d__a__tag__escape_8h.html" target="_top" xlink:title=" ">
<polygon fill="white" stroke="#666666" points="1460,-96 1350,-96 1350,-55 1460,-55 1460,-96"/>
<text text-anchor="start" x="1358" y="-84" font-family="Helvetica,sans-Serif" font-size="10.00">include/rel/d/a/tag</text>
<text text-anchor="start" x="1358" y="-73" font-family="Helvetica,sans-Serif" font-size="10.00">/d_a_tag_escape/d_a</text>
<text text-anchor="middle" x="1405" y="-62" font-family="Helvetica,sans-Serif" font-size="10.00">_tag_escape.h</text>
</a>
</g>
</g>
<!-- Node4&#45;&gt;Node127 -->
<g id="edge20" class="edge">
<title>Node4&#45;&gt;Node127</title>
<path fill="none" stroke="#63b8ff" d="M1497.48,-126.33C1480.12,-116.97 1459.39,-105.8 1441.97,-96.42"/>
<polygon fill="#63b8ff" stroke="#63b8ff" points="1495.47,-129.22 1505.94,-130.88 1498.8,-123.06 1495.47,-129.22"/>
</g>
<!-- Node128 -->
<g id="node19" class="node">
<title>Node128</title>
<g id="a_node19"><a xlink:href="d__a__tag__instruction_8h.html" target="_top" xlink:title=" ">
<polygon fill="white" stroke="#666666" points="1590,-96 1478,-96 1478,-55 1590,-55 1590,-96"/>
<text text-anchor="start" x="1486" y="-84" font-family="Helvetica,sans-Serif" font-size="10.00">include/rel/d/a/tag</text>
<text text-anchor="start" x="1486" y="-73" font-family="Helvetica,sans-Serif" font-size="10.00">/d_a_tag_instruction</text>
<text text-anchor="middle" x="1534" y="-62" font-family="Helvetica,sans-Serif" font-size="10.00">/d_a_tag_instruction.h</text>
</a>
</g>
</g>
<!-- Node4&#45;&gt;Node128 -->
<g id="edge21" class="edge">
<title>Node4&#45;&gt;Node128</title>
<path fill="none" stroke="#63b8ff" d="M1534,-120.36C1534,-112.45 1534,-103.87 1534,-96.42"/>
<polygon fill="#63b8ff" stroke="#63b8ff" points="1530.5,-120.09 1534,-130.09 1537.5,-120.09 1530.5,-120.09"/>
</g>
<!-- Node129 -->
<g id="node20" class="node">
<title>Node129</title>
<g id="a_node20"><a xlink:href="d__a__tag__lv5soup_8h.html" target="_top" xlink:title=" ">
<polygon fill="white" stroke="#666666" points="1720,-96 1608,-96 1608,-55 1720,-55 1720,-96"/>
<text text-anchor="start" x="1616" y="-84" font-family="Helvetica,sans-Serif" font-size="10.00">include/rel/d/a/tag</text>
<text text-anchor="start" x="1616" y="-73" font-family="Helvetica,sans-Serif" font-size="10.00">/d_a_tag_lv5soup/d_a</text>
<text text-anchor="middle" x="1664" y="-62" font-family="Helvetica,sans-Serif" font-size="10.00">_tag_lv5soup.h</text>
</a>
</g>
</g>
<!-- Node4&#45;&gt;Node129 -->
<g id="edge22" class="edge">
<title>Node4&#45;&gt;Node129</title>
<path fill="none" stroke="#63b8ff" d="M1570.8,-126.33C1588.3,-116.97 1609.19,-105.8 1626.75,-96.42"/>
<polygon fill="#63b8ff" stroke="#63b8ff" points="1569.44,-123.08 1562.27,-130.89 1572.74,-129.26 1569.44,-123.08"/>
</g>
<!-- Node130 -->
<g id="node21" class="node">
<title>Node130</title>
<g id="a_node21"><a xlink:href="d__a__tag__magne_8h.html" target="_top" xlink:title=" ">
<polygon fill="#fff0f0" stroke="red" points="3208,-96 3082,-96 3082,-55 3208,-55 3208,-96"/>
<text text-anchor="start" x="3090" y="-84" font-family="Helvetica,sans-Serif" font-size="10.00">include/rel/d/a/tag</text>
<text text-anchor="start" x="3090" y="-73" font-family="Helvetica,sans-Serif" font-size="10.00">/d_a_tag_magne/d_a_tag</text>
<text text-anchor="middle" x="3145" y="-62" font-family="Helvetica,sans-Serif" font-size="10.00">_magne.h</text>
</a>
</g>
</g>
<!-- Node4&#45;&gt;Node130 -->
<g id="edge23" class="edge">
<title>Node4&#45;&gt;Node130</title>
<path fill="none" stroke="#63b8ff" d="M1604.29,-131.9C2253.72,-59.25 2429.47,-189.63 3073,-96 3075.82,-95.59 3078.69,-95.11 3081.57,-94.56"/>
<polygon fill="#63b8ff" stroke="#63b8ff" points="1604.28,-128.38 1594.74,-132.98 1605.07,-135.34 1604.28,-128.38"/>
</g>
<!-- Node131 -->
<g id="node22" class="node">
<title>Node131</title>
<g id="a_node22"><a xlink:href="d__a__tag__setBall_8h.html" target="_top" xlink:title=" ">
<polygon fill="white" stroke="#666666" points="1984,-96 1876,-96 1876,-55 1984,-55 1984,-96"/>
<text text-anchor="start" x="1884" y="-84" font-family="Helvetica,sans-Serif" font-size="10.00">include/rel/d/a/tag</text>
<text text-anchor="start" x="1884" y="-73" font-family="Helvetica,sans-Serif" font-size="10.00">/d_a_tag_setBall/d_a</text>
<text text-anchor="middle" x="1930" y="-62" font-family="Helvetica,sans-Serif" font-size="10.00">_tag_setBall.h</text>
</a>
</g>
</g>
<!-- Node4&#45;&gt;Node131 -->
<g id="edge25" class="edge">
<title>Node4&#45;&gt;Node131</title>
<path fill="none" stroke="#63b8ff" d="M1604.47,-131.67C1721.17,-112.56 1754.46,-120.88 1867,-96 1869.79,-95.38 1872.64,-94.7 1875.51,-93.97"/>
<polygon fill="#63b8ff" stroke="#63b8ff" points="1604.07,-128.19 1594.79,-133.3 1605.23,-135.09 1604.07,-128.19"/>
</g>
<!-- Node132 -->
<g id="node23" class="node">
<title>Node132</title>
<g id="a_node23"><a xlink:href="d__a__tag__setrestart_8h.html" target="_top" xlink:title=" ">
<polygon fill="white" stroke="#666666" points="2110,-96 2002,-96 2002,-55 2110,-55 2110,-96"/>
<text text-anchor="start" x="2010" y="-84" font-family="Helvetica,sans-Serif" font-size="10.00">include/rel/d/a/tag</text>
<text text-anchor="start" x="2010" y="-73" font-family="Helvetica,sans-Serif" font-size="10.00">/d_a_tag_setrestart</text>
<text text-anchor="middle" x="2056" y="-62" font-family="Helvetica,sans-Serif" font-size="10.00">/d_a_tag_setrestart.h</text>
</a>
</g>
</g>
<!-- Node4&#45;&gt;Node132 -->
<g id="edge26" class="edge">
<title>Node4&#45;&gt;Node132</title>
<path fill="none" stroke="#63b8ff" d="M1604.52,-131.76C1776.66,-107.33 1825.42,-129.27 1993,-96 1995.81,-95.44 1998.67,-94.81 2001.54,-94.12"/>
<polygon fill="#63b8ff" stroke="#63b8ff" points="1604.16,-128.27 1594.77,-133.18 1605.17,-135.2 1604.16,-128.27"/>
</g>
<!-- Node133 -->
<g id="node24" class="node">
<title>Node133</title>
<g id="a_node24"><a xlink:href="d__a__tag__wara__howl_8h.html" target="_top" xlink:title=" ">
<polygon fill="white" stroke="#666666" points="2242,-96 2128,-96 2128,-55 2242,-55 2242,-96"/>
<text text-anchor="start" x="2136" y="-84" font-family="Helvetica,sans-Serif" font-size="10.00">include/rel/d/a/tag</text>
<text text-anchor="start" x="2136" y="-73" font-family="Helvetica,sans-Serif" font-size="10.00">/d_a_tag_wara_howl/d</text>
<text text-anchor="middle" x="2185" y="-62" font-family="Helvetica,sans-Serif" font-size="10.00">_a_tag_wara_howl.h</text>
</a>
</g>
</g>
<!-- Node4&#45;&gt;Node133 -->
<g id="edge27" class="edge">
<title>Node4&#45;&gt;Node133</title>
<path fill="none" stroke="#63b8ff" d="M1604.58,-131.79C1832.24,-101.85 1895.97,-136.22 2119,-96 2121.82,-95.49 2124.69,-94.91 2127.58,-94.26"/>
<polygon fill="#63b8ff" stroke="#63b8ff" points="1604.2,-128.31 1594.76,-133.11 1605.14,-135.25 1604.2,-128.31"/>
</g>
<!-- Node134 -->
<g id="node25" class="node">
<title>Node134</title>
<g id="a_node25"><a xlink:href="d__bg__s__acch_8cpp.html" target="_top" xlink:title=" ">
<polygon fill="white" stroke="#666666" points="2391.5,-85 2260.5,-85 2260.5,-66 2391.5,-66 2391.5,-85"/>
<text text-anchor="middle" x="2326" y="-73" font-family="Helvetica,sans-Serif" font-size="10.00">src/d/bg/d_bg_s_acch.cpp</text>
</a>
</g>
</g>
<!-- Node4&#45;&gt;Node134 -->
<g id="edge30" class="edge">
<title>Node4&#45;&gt;Node134</title>
<path fill="none" stroke="#63b8ff" d="M1604.39,-131.84C1890.47,-95.92 1969.19,-140 2251,-96 2266.42,-93.59 2283.26,-89.36 2297.08,-85.46"/>
<polygon fill="#63b8ff" stroke="#63b8ff" points="1604.23,-128.33 1594.75,-133.07 1605.12,-135.27 1604.23,-128.33"/>
</g>
<!-- Node135 -->
<g id="node26" class="node">
<title>Node135</title>
<g id="a_node26"><a xlink:href="d__bg__s__lin__chk_8cpp.html" target="_top" xlink:title=" ">
<polygon fill="white" stroke="#666666" points="2510.5,-90.5 2409.5,-90.5 2409.5,-60.5 2510.5,-60.5 2510.5,-90.5"/>
<text text-anchor="start" x="2417.5" y="-78.5" font-family="Helvetica,sans-Serif" font-size="10.00">src/d/bg/d_bg_s_lin</text>
<text text-anchor="middle" x="2460" y="-67.5" font-family="Helvetica,sans-Serif" font-size="10.00">_chk.cpp</text>
</a>
</g>
</g>
<!-- Node4&#45;&gt;Node135 -->
<g id="edge31" class="edge">
<title>Node4&#45;&gt;Node135</title>
<path fill="none" stroke="#63b8ff" d="M1604.54,-131.84C1956.8,-89.53 2055.08,-159.7 2401,-96 2407.68,-94.77 2414.65,-92.96 2421.36,-90.94"/>
<polygon fill="#63b8ff" stroke="#63b8ff" points="1604.25,-128.35 1594.75,-133.04 1605.1,-135.3 1604.25,-128.35"/>
</g>
<!-- Node136 -->
<g id="node27" class="node">
<title>Node136</title>
<g id="a_node27"><a xlink:href="d__cc__d__nonmatching_8cpp.html" target="_top" xlink:title=" ">
<polygon fill="white" stroke="#666666" points="2693.5,-85 2528.5,-85 2528.5,-66 2693.5,-66 2693.5,-85"/>
<text text-anchor="middle" x="2611" y="-73" font-family="Helvetica,sans-Serif" font-size="10.00">src/d/cc/d_cc_d_nonmatching.cpp</text>
</a>
</g>
</g>
<!-- Node4&#45;&gt;Node136 -->
<g id="edge32" class="edge">
<title>Node4&#45;&gt;Node136</title>
<path fill="none" stroke="#63b8ff" d="M1604.39,-131.87C2009.29,-83.82 2118.54,-146.5 2520,-96 2538.76,-93.64 2559.38,-89.36 2576.24,-85.42"/>
<polygon fill="#63b8ff" stroke="#63b8ff" points="1604.26,-128.36 1594.75,-133.03 1605.09,-135.31 1604.26,-128.36"/>
</g>
<!-- Node88 -->
<g id="node28" class="node">
<title>Node88</title>
<g id="a_node28"><a xlink:href="d__insect_8cpp.html" target="_top" xlink:title=" ">
<polygon fill="white" stroke="#666666" points="2808,-85 2712,-85 2712,-66 2808,-66 2808,-85"/>
<text text-anchor="middle" x="2760" y="-73" font-family="Helvetica,sans-Serif" font-size="10.00">src/d/d_insect.cpp</text>
</a>
</g>
</g>
<!-- Node4&#45;&gt;Node88 -->
<g id="edge34" class="edge">
<title>Node4&#45;&gt;Node88</title>
<path fill="none" stroke="#63b8ff" d="M1604.42,-131.88C2090.23,-76.08 2225.06,-183.54 2703,-96 2715.14,-93.78 2728.2,-89.46 2738.75,-85.45"/>
<polygon fill="#63b8ff" stroke="#63b8ff" points="1604.27,-128.37 1594.74,-133.01 1605.08,-135.32 1604.27,-128.37"/>
</g>
<!-- Node137 -->
<g id="node29" class="node">
<title>Node137</title>
<g id="a_node29"><a xlink:href="d__jnt__col_8cpp.html" target="_top" xlink:title=" ">
<polygon fill="white" stroke="#666666" points="2924,-85 2826,-85 2826,-66 2924,-66 2924,-85"/>
<text text-anchor="middle" x="2875" y="-73" font-family="Helvetica,sans-Serif" font-size="10.00">src/d/d_jnt_col.cpp</text>
</a>
</g>
</g>
<!-- Node4&#45;&gt;Node137 -->
<g id="edge35" class="edge">
<title>Node4&#45;&gt;Node137</title>
<path fill="none" stroke="#63b8ff" d="M1604.41,-131.93C1888.17,-101.76 2554.61,-142.93 2817,-96 2829.34,-93.79 2842.63,-89.48 2853.37,-85.47"/>
<polygon fill="#63b8ff" stroke="#63b8ff" points="1604.29,-128.42 1594.74,-133.01 1605.07,-135.37 1604.29,-128.42"/>
</g>
<!-- Node51 -->
<g id="node30" class="node">
<title>Node51</title>
<g id="a_node30"><a xlink:href="d__event_8cpp.html" target="_top" xlink:title=" ">
<polygon fill="white" stroke="#666666" points="3063.5,-85 2942.5,-85 2942.5,-66 3063.5,-66 3063.5,-85"/>
<text text-anchor="middle" x="3003" y="-73" font-family="Helvetica,sans-Serif" font-size="10.00">src/d/event/d_event.cpp</text>
</a>
</g>
</g>
<!-- Node4&#45;&gt;Node51 -->
<g id="edge36" class="edge">
<title>Node4&#45;&gt;Node51</title>
<path fill="none" stroke="#63b8ff" d="M1604.55,-131.87C2191.88,-65.59 2351.53,-183.5 2933,-96 2947.72,-93.78 2963.74,-89.47 2976.74,-85.46"/>
<polygon fill="#63b8ff" stroke="#63b8ff" points="1604.28,-128.38 1594.74,-132.99 1605.08,-135.33 1604.28,-128.38"/>
</g>
<!-- Node5&#45;&gt;Node16 -->
<g id="edge5" class="edge">
<title>Node5&#45;&gt;Node16</title>
<path fill="none" stroke="#63b8ff" d="M3248.13,-62.22C3238.17,-59.31 3227.26,-56.6 3217,-55 3046.97,-28.54 1804.53,-13.99 1527.61,-11.06"/>
<polygon fill="#63b8ff" stroke="#63b8ff" points="3246.86,-65.49 3257.45,-65.08 3248.92,-58.8 3246.86,-65.49"/>
</g>
<!-- Node119&#45;&gt;Node16 -->
<g id="edge9" class="edge">
<title>Node119&#45;&gt;Node16</title>
<path fill="none" stroke="#63b8ff" d="M903.2,-61.87C911.54,-59.21 920.51,-56.7 929,-55 1105.53,-19.6 1319.68,-12.23 1418.37,-10.79"/>
<polygon fill="#63b8ff" stroke="#63b8ff" points="902.12,-58.54 893.75,-65.04 904.34,-65.18 902.12,-58.54"/>
</g>
<!-- Node119&#45;&gt;Node120 -->
<g id="edge10" class="edge">
<title>Node119&#45;&gt;Node120</title>
<path fill="none" stroke="#63b8ff" d="M857.46,-56.03C849.91,-43.96 840.41,-28.75 834.51,-19.32"/>
<polygon fill="#63b8ff" stroke="#63b8ff" points="854.37,-57.69 862.64,-64.32 860.3,-53.98 854.37,-57.69"/>
</g>
<!-- Node122&#45;&gt;Node73 -->
<g id="edge13" class="edge">
<title>Node122&#45;&gt;Node73</title>
<path fill="none" stroke="#63b8ff" d="M549.27,-51.45C540.22,-40.31 529.9,-27.61 523.19,-19.34"/>
<polygon fill="#63b8ff" stroke="#63b8ff" points="546.48,-53.57 555.51,-59.12 551.92,-49.15 546.48,-53.57"/>
</g>
<!-- Node124&#45;&gt;Node16 -->
<g id="edge16" class="edge">
<title>Node124&#45;&gt;Node16</title>
<path fill="none" stroke="#63b8ff" d="M1198.53,-56.73C1200.71,-56.12 1202.87,-55.54 1205,-55 1277.71,-36.66 1363.49,-23.93 1418.05,-16.93"/>
<polygon fill="#63b8ff" stroke="#63b8ff" points="1197.63,-53.35 1189.06,-59.58 1199.65,-60.05 1197.63,-53.35"/>
</g>
<!-- Node125&#45;&gt;Node16 -->
<g id="edge18" class="edge">
<title>Node125&#45;&gt;Node16</title>
<path fill="none" stroke="#63b8ff" d="M1727.26,-54.73C1652.69,-38.11 1577.38,-25.82 1527.76,-18.34"/>
<polygon fill="#63b8ff" stroke="#63b8ff" points="1726.26,-58.09 1736.78,-56.88 1727.8,-51.26 1726.26,-58.09"/>
</g>
<!-- Node130&#45;&gt;Node16 -->
<g id="edge24" class="edge">
<title>Node130&#45;&gt;Node16</title>
<path fill="none" stroke="#63b8ff" d="M3070.17,-54.82C2742.08,-9.7 1769.27,-9.61 1527.73,-10.29"/>
<polygon fill="#63b8ff" stroke="#63b8ff" points="3069.68,-58.29 3080.07,-56.23 3070.66,-51.36 3069.68,-58.29"/>
</g>
<!-- Node139&#45;&gt;Node64 -->
<g id="edge38" class="edge">
<title>Node139&#45;&gt;Node64</title>
<path fill="none" stroke="#63b8ff" d="M97.7,-56.4C88.8,-44.27 77.47,-28.84 70.48,-19.32"/>
<polygon fill="#63b8ff" stroke="#63b8ff" points="94.83,-58.39 103.57,-64.38 100.47,-54.25 94.83,-58.39"/>
</g>
<!-- Node140&#45;&gt;Node139 -->
<g id="edge40" class="edge">
<title>Node140&#45;&gt;Node139</title>
<path fill="none" stroke="#63b8ff" d="M112.27,-120.46C111.91,-108.07 111.5,-93.99 111.25,-85.18"/>
<polygon fill="#63b8ff" stroke="#63b8ff" points="108.76,-120.19 112.54,-130.09 115.75,-119.99 108.76,-120.19"/>
</g>
<!-- Node141&#45;&gt;Node143 -->
<g id="edge42" class="edge">
<title>Node141&#45;&gt;Node143</title>
<path fill="none" stroke="#63b8ff" d="M317.27,-124.64C300.75,-111.45 280.44,-95.22 268.11,-85.38"/>
<polygon fill="#63b8ff" stroke="#63b8ff" points="314.79,-127.15 324.79,-130.65 319.16,-121.68 314.79,-127.15"/>
</g>
<!-- Node152 -->
<g id="node44" class="node">
<title>Node152</title>
<g id="a_node44"><a xlink:href="f__pc__layer_8cpp.html" target="_top" xlink:title=" ">
<polygon fill="white" stroke="#666666" points="789.5,-222.5 672.5,-222.5 672.5,-203.5 789.5,-203.5 789.5,-222.5"/>
<text text-anchor="middle" x="731" y="-210.5" font-family="Helvetica,sans-Serif" font-size="10.00">src/f_pc/f_pc_layer.cpp</text>
</a>
</g>
</g>
<!-- Node151&#45;&gt;Node152 -->
<g id="edge54" class="edge">
<title>Node151&#45;&gt;Node152</title>
<path fill="none" stroke="#63b8ff" d="M731,-252.59C731,-242.06 731,-230.53 731,-222.84"/>
<polygon fill="#63b8ff" stroke="#63b8ff" points="727.5,-252.28 731,-262.28 734.5,-252.28 727.5,-252.28"/>
</g>
<!-- Node153 -->
<g id="node45" class="node">
<title>Node153</title>
<g id="a_node45"><a xlink:href="f__pc__method__iter_8cpp.html" target="_top" xlink:title=" ">
<polygon fill="white" stroke="#666666" points="918.5,-228 807.5,-228 807.5,-198 918.5,-198 918.5,-228"/>
<text text-anchor="start" x="815.5" y="-216" font-family="Helvetica,sans-Serif" font-size="10.00">src/f_pc/f_pc_method</text>
<text text-anchor="middle" x="863" y="-205" font-family="Helvetica,sans-Serif" font-size="10.00">_iter.cpp</text>
</a>
</g>
</g>
<!-- Node151&#45;&gt;Node153 -->
<g id="edge55" class="edge">
<title>Node151&#45;&gt;Node153</title>
<path fill="none" stroke="#63b8ff" d="M770.76,-258.72C790.92,-248.95 814.98,-237.28 833.48,-228.31"/>
<polygon fill="#63b8ff" stroke="#63b8ff" points="769.46,-255.46 761.99,-262.98 772.51,-261.76 769.46,-255.46"/>
</g>
</g>
</svg>
