<?xml version="1.0" encoding="UTF-8" standalone="no"?>
<!DOCTYPE svg PUBLIC "-//W3C//DTD SVG 1.1//EN"
 "http://www.w3.org/Graphics/SVG/1.1/DTD/svg11.dtd">
<!-- Generated by graphviz version 7.0.5 (20221223.1930)
 -->
<!-- Title: include/SSystem/SComponent/c_sxyz.h Pages: 1 -->
<svg width="4726pt" height="247pt"
 viewBox="0.00 0.00 4726.00 247.00" xmlns="http://www.w3.org/2000/svg" xmlns:xlink="http://www.w3.org/1999/xlink">
<g id="graph0" class="graph" transform="scale(1 1) rotate(0) translate(4 243)">
<title>include/SSystem/SComponent/c_sxyz.h</title>
<!-- Node1 -->
<g id="node1" class="node">
<title>Node1</title>
<g id="a_node1"><a xlink:title=" ">
<polygon fill="#999999" stroke="#666666" points="2151,-239 2002,-239 2002,-209 2151,-209 2151,-239"/>
<text text-anchor="start" x="2010" y="-227" font-family="Helvetica,sans-Serif" font-size="10.00">include/SSystem/SComponent</text>
<text text-anchor="middle" x="2076.5" y="-216" font-family="Helvetica,sans-Serif" font-size="10.00">/c_sxyz.h</text>
</a>
</g>
</g>
<!-- Node2 -->
<g id="node2" class="node">
<title>Node2</title>
<g id="a_node2"><a xlink:href="d__bg__w_8h.html" target="_top" xlink:title=" ">
<polygon fill="white" stroke="#666666" points="609,-167.5 496,-167.5 496,-148.5 609,-148.5 609,-167.5"/>
<text text-anchor="middle" x="552.5" y="-155.5" font-family="Helvetica,sans-Serif" font-size="10.00">include/d/bg/d_bg_w.h</text>
</a>
</g>
</g>
<!-- Node1&#45;&gt;Node2 -->
<g id="edge1" class="edge">
<title>Node1&#45;&gt;Node2</title>
<path fill="none" stroke="#63b8ff" d="M1990.47,-219.39C1712.04,-207.69 840.13,-171.08 609.13,-161.38"/>
<polygon fill="#63b8ff" stroke="#63b8ff" points="1990.05,-222.87 2000.19,-219.8 1990.35,-215.88 1990.05,-222.87"/>
</g>
<!-- Node11 -->
<g id="node10" class="node">
<title>Node11</title>
<g id="a_node10"><a xlink:href="d__demo_8h.html" target="_top" xlink:title=" ">
<polygon fill="white" stroke="#666666" points="1065,-96 964,-96 964,-77 1065,-77 1065,-96"/>
<text text-anchor="middle" x="1014.5" y="-84" font-family="Helvetica,sans-Serif" font-size="10.00">include/d/d_demo.h</text>
</a>
</g>
</g>
<!-- Node1&#45;&gt;Node11 -->
<g id="edge9" class="edge">
<title>Node1&#45;&gt;Node11</title>
<path fill="none" stroke="#63b8ff" d="M1990.36,-223.01C1848.47,-221.77 1557.14,-213.89 1314.5,-173 1209.83,-155.36 1089.58,-114.61 1038.96,-96.48"/>
<polygon fill="#63b8ff" stroke="#63b8ff" points="1990.02,-226.51 2000.04,-223.09 1990.07,-219.51 1990.02,-226.51"/>
</g>
<!-- Node19 -->
<g id="node18" class="node">
<title>Node19</title>
<g id="a_node18"><a xlink:href="d__jnt__col_8h.html" target="_top" xlink:title=" ">
<polygon fill="white" stroke="#666666" points="1580,-167.5 1475,-167.5 1475,-148.5 1580,-148.5 1580,-167.5"/>
<text text-anchor="middle" x="1527.5" y="-155.5" font-family="Helvetica,sans-Serif" font-size="10.00">include/d/d_jnt_col.h</text>
</a>
</g>
</g>
<!-- Node1&#45;&gt;Node19 -->
<g id="edge17" class="edge">
<title>Node1&#45;&gt;Node19</title>
<path fill="none" stroke="#63b8ff" d="M1990.41,-212.96C1875.49,-199.57 1675.42,-176.24 1580.45,-165.17"/>
<polygon fill="#63b8ff" stroke="#63b8ff" points="1989.76,-216.41 2000.1,-214.09 1990.57,-209.46 1989.76,-216.41"/>
</g>
<!-- Node31 -->
<g id="node24" class="node">
<title>Node31</title>
<g id="a_node24"><a xlink:href="d__kankyo__wether_8h.html" target="_top" xlink:title=" ">
<polygon fill="white" stroke="#666666" points="4457.5,-173 4359.5,-173 4359.5,-143 4457.5,-143 4457.5,-173"/>
<text text-anchor="start" x="4367.5" y="-161" font-family="Helvetica,sans-Serif" font-size="10.00">include/d/kankyo/d</text>
<text text-anchor="middle" x="4408.5" y="-150" font-family="Helvetica,sans-Serif" font-size="10.00">_kankyo_wether.h</text>
</a>
</g>
</g>
<!-- Node1&#45;&gt;Node31 -->
<g id="edge26" class="edge">
<title>Node1&#45;&gt;Node31</title>
<path fill="none" stroke="#63b8ff" d="M2162.91,-220.63C2543.69,-210.18 4065.93,-168.4 4359.4,-160.35"/>
<polygon fill="#63b8ff" stroke="#63b8ff" points="2162.86,-217.13 2152.96,-220.9 2163.05,-224.13 2162.86,-217.13"/>
</g>
<!-- Node321 -->
<g id="node29" class="node">
<title>Node321</title>
<g id="a_node29"><a xlink:href="d__meter__HIO_8h.html" target="_top" xlink:title=" ">
<polygon fill="white" stroke="#666666" points="2544.5,-173 2422.5,-173 2422.5,-143 2544.5,-143 2544.5,-173"/>
<text text-anchor="start" x="2430.5" y="-161" font-family="Helvetica,sans-Serif" font-size="10.00">include/d/meter/d_meter</text>
<text text-anchor="middle" x="2483.5" y="-150" font-family="Helvetica,sans-Serif" font-size="10.00">_HIO.h</text>
</a>
</g>
</g>
<!-- Node1&#45;&gt;Node321 -->
<g id="edge32" class="edge">
<title>Node1&#45;&gt;Node321</title>
<path fill="none" stroke="#63b8ff" d="M2162.38,-209.5C2240.27,-197.25 2353.18,-179.49 2422.28,-168.63"/>
<polygon fill="#63b8ff" stroke="#63b8ff" points="2161.98,-206.02 2152.65,-211.03 2163.07,-212.93 2161.98,-206.02"/>
</g>
<!-- Node323 -->
<g id="node42" class="node">
<title>Node323</title>
<g id="a_node42"><a xlink:href="d__particle__copoly_8h.html" target="_top" xlink:title=" ">
<polygon fill="white" stroke="#666666" points="3863.5,-173 3761.5,-173 3761.5,-143 3863.5,-143 3863.5,-173"/>
<text text-anchor="start" x="3769.5" y="-161" font-family="Helvetica,sans-Serif" font-size="10.00">include/d/particle</text>
<text text-anchor="middle" x="3812.5" y="-150" font-family="Helvetica,sans-Serif" font-size="10.00">/d_particle_copoly.h</text>
</a>
</g>
</g>
<!-- Node1&#45;&gt;Node323 -->
<g id="edge47" class="edge">
<title>Node1&#45;&gt;Node323</title>
<path fill="none" stroke="#63b8ff" d="M2162.47,-219.83C2470.93,-208.46 3516.67,-169.91 3761.1,-160.89"/>
<polygon fill="#63b8ff" stroke="#63b8ff" points="2162.75,-216.32 2152.88,-220.18 2163.01,-223.31 2162.75,-216.32"/>
</g>
<!-- Node325 -->
<g id="node49" class="node">
<title>Node325</title>
<g id="a_node49"><a xlink:href="m__Do__mtx_8h.html" target="_top" xlink:title=" ">
<polygon fill="#fff0f0" stroke="red" points="1457,-167.5 1324,-167.5 1324,-148.5 1457,-148.5 1457,-167.5"/>
<text text-anchor="middle" x="1390.5" y="-155.5" font-family="Helvetica,sans-Serif" font-size="10.00">include/m_Do/m_Do_mtx.h</text>
</a>
</g>
</g>
<!-- Node1&#45;&gt;Node325 -->
<g id="edge55" class="edge">
<title>Node1&#45;&gt;Node325</title>
<path fill="none" stroke="#63b8ff" d="M1990.79,-218.77C1872.32,-212.3 1652,-197.97 1465.5,-173 1455.39,-171.65 1444.58,-169.84 1434.4,-167.98"/>
<polygon fill="#63b8ff" stroke="#63b8ff" points="1990.25,-222.25 2000.42,-219.29 1990.62,-215.26 1990.25,-222.25"/>
</g>
<!-- Node372 -->
<g id="node50" class="node">
<title>Node372</title>
<g id="a_node50"><a xlink:href="c__sxyz_8cpp.html" target="_top" xlink:title=" ">
<polygon fill="white" stroke="#666666" points="4609.5,-173 4475.5,-173 4475.5,-143 4609.5,-143 4609.5,-173"/>
<text text-anchor="start" x="4483.5" y="-161" font-family="Helvetica,sans-Serif" font-size="10.00">libs/SSystem/SComponent</text>
<text text-anchor="middle" x="4542.5" y="-150" font-family="Helvetica,sans-Serif" font-size="10.00">/c_sxyz.cpp</text>
</a>
</g>
</g>
<!-- Node1&#45;&gt;Node372 -->
<g id="edge60" class="edge">
<title>Node1&#45;&gt;Node372</title>
<path fill="none" stroke="#63b8ff" d="M2162.72,-223.06C2534.97,-223.03 4006.24,-219.9 4466.5,-173 4469.3,-172.71 4472.16,-172.38 4475.04,-172.01"/>
<polygon fill="#63b8ff" stroke="#63b8ff" points="2162.76,-219.56 2152.76,-223.06 2162.76,-226.56 2162.76,-219.56"/>
</g>
<!-- Node3 -->
<g id="node3" class="node">
<title>Node3</title>
<g id="a_node3"><a xlink:href="d__bg__w__sv_8h.html" target="_top" xlink:title=" ">
<polygon fill="#fff0f0" stroke="red" points="129,-96 0,-96 0,-77 129,-77 129,-96"/>
<text text-anchor="middle" x="64.5" y="-84" font-family="Helvetica,sans-Serif" font-size="10.00">include/d/bg/d_bg_w_sv.h</text>
</a>
</g>
</g>
<!-- Node2&#45;&gt;Node3 -->
<g id="edge2" class="edge">
<title>Node2&#45;&gt;Node3</title>
<path fill="none" stroke="#63b8ff" d="M484.31,-151.66C401.89,-144.54 259.22,-130.08 138.5,-107 123.88,-104.21 107.89,-100.12 94.53,-96.42"/>
<polygon fill="#63b8ff" stroke="#63b8ff" points="483.76,-155.12 494.03,-152.49 484.36,-148.15 483.76,-155.12"/>
</g>
<!-- Node5 -->
<g id="node4" class="node">
<title>Node5</title>
<g id="a_node4"><a xlink:href="d__a__b__zant__sima_8h.html" target="_top" xlink:title=" ">
<polygon fill="white" stroke="#666666" points="263.5,-107 147.5,-107 147.5,-66 263.5,-66 263.5,-107"/>
<text text-anchor="start" x="155.5" y="-95" font-family="Helvetica,sans-Serif" font-size="10.00">include/rel/d/a/b/d</text>
<text text-anchor="start" x="155.5" y="-84" font-family="Helvetica,sans-Serif" font-size="10.00">_a_b_zant_sima/d_a_b</text>
<text text-anchor="middle" x="205.5" y="-73" font-family="Helvetica,sans-Serif" font-size="10.00">_zant_sima.h</text>
</a>
</g>
</g>
<!-- Node2&#45;&gt;Node5 -->
<g id="edge3" class="edge">
<title>Node2&#45;&gt;Node5</title>
<path fill="none" stroke="#63b8ff" d="M484.53,-146.94C427.57,-138.01 344.28,-123.8 272.5,-107 269.67,-106.34 266.78,-105.63 263.87,-104.89"/>
<polygon fill="#63b8ff" stroke="#63b8ff" points="483.65,-150.34 494.06,-148.42 484.72,-143.43 483.65,-150.34"/>
</g>
<!-- Node6 -->
<g id="node5" class="node">
<title>Node6</title>
<g id="a_node5"><a xlink:href="d__a__bg__obj_8h.html" target="_top" xlink:title=" ">
<polygon fill="white" stroke="#666666" points="391.5,-101.5 281.5,-101.5 281.5,-71.5 391.5,-71.5 391.5,-101.5"/>
<text text-anchor="start" x="289.5" y="-89.5" font-family="Helvetica,sans-Serif" font-size="10.00">include/rel/d/a/d_a</text>
<text text-anchor="middle" x="336.5" y="-78.5" font-family="Helvetica,sans-Serif" font-size="10.00">_bg_obj/d_a_bg_obj.h</text>
</a>
</g>
</g>
<!-- Node2&#45;&gt;Node6 -->
<g id="edge4" class="edge">
<title>Node2&#45;&gt;Node6</title>
<path fill="none" stroke="#63b8ff" d="M513.83,-144.56C476.68,-132.61 420.6,-114.56 381.48,-101.97"/>
<polygon fill="#63b8ff" stroke="#63b8ff" points="512.67,-147.86 523.26,-147.59 514.82,-141.2 512.67,-147.86"/>
</g>
<!-- Node7 -->
<g id="node6" class="node">
<title>Node7</title>
<g id="a_node6"><a xlink:href="d__a__obj__mirror__sand_8h.html" target="_top" xlink:title=" ">
<polygon fill="white" stroke="#666666" points="553,-107 410,-107 410,-66 553,-66 553,-107"/>
<text text-anchor="start" x="418" y="-95" font-family="Helvetica,sans-Serif" font-size="10.00">include/rel/d/a/obj</text>
<text text-anchor="start" x="418" y="-84" font-family="Helvetica,sans-Serif" font-size="10.00">/mirror/d_a_obj_mirror</text>
<text text-anchor="middle" x="481.5" y="-73" font-family="Helvetica,sans-Serif" font-size="10.00">_sand/d_a_obj_mirror_sand.h</text>
</a>
</g>
</g>
<!-- Node2&#45;&gt;Node7 -->
<g id="edge5" class="edge">
<title>Node2&#45;&gt;Node7</title>
<path fill="none" stroke="#63b8ff" d="M535.44,-140.3C525.3,-130.37 512.37,-117.72 501.72,-107.29"/>
<polygon fill="#63b8ff" stroke="#63b8ff" points="532.83,-142.64 542.43,-147.14 537.73,-137.64 532.83,-142.64"/>
</g>
<!-- Node8 -->
<g id="node7" class="node">
<title>Node8</title>
<g id="a_node7"><a xlink:href="d__bg__s_8cpp.html" target="_top" xlink:title=" ">
<polygon fill="white" stroke="#666666" points="675.5,-96 571.5,-96 571.5,-77 675.5,-77 675.5,-96"/>
<text text-anchor="middle" x="623.5" y="-84" font-family="Helvetica,sans-Serif" font-size="10.00">src/d/bg/d_bg_s.cpp</text>
</a>
</g>
</g>
<!-- Node2&#45;&gt;Node8 -->
<g id="edge6" class="edge">
<title>Node2&#45;&gt;Node8</title>
<path fill="none" stroke="#63b8ff" d="M569.44,-140.42C583.53,-126.63 603.04,-107.53 614.36,-96.45"/>
<polygon fill="#63b8ff" stroke="#63b8ff" points="567.27,-137.64 562.57,-147.14 572.17,-142.64 567.27,-137.64"/>
</g>
<!-- Node9 -->
<g id="node8" class="node">
<title>Node9</title>
<g id="a_node8"><a xlink:href="d__bg__s__movebg__actor_8cpp.html" target="_top" xlink:title=" ">
<polygon fill="white" stroke="#666666" points="945.5,-101.5 819.5,-101.5 819.5,-71.5 945.5,-71.5 945.5,-101.5"/>
<text text-anchor="start" x="827.5" y="-89.5" font-family="Helvetica,sans-Serif" font-size="10.00">src/d/bg/d_bg_s_movebg</text>
<text text-anchor="middle" x="882.5" y="-78.5" font-family="Helvetica,sans-Serif" font-size="10.00">_actor.cpp</text>
</a>
</g>
</g>
<!-- Node2&#45;&gt;Node9 -->
<g id="edge7" class="edge">
<title>Node2&#45;&gt;Node9</title>
<path fill="none" stroke="#63b8ff" d="M615.01,-146.08C667.21,-136.67 743.48,-122.22 809.5,-107 816.15,-105.47 823.11,-103.75 829.97,-101.99"/>
<polygon fill="#63b8ff" stroke="#63b8ff" points="614.63,-142.59 605.41,-147.81 615.87,-149.48 614.63,-142.59"/>
</g>
<!-- Node10 -->
<g id="node9" class="node">
<title>Node10</title>
<g id="a_node9"><a xlink:href="d__bg__w_8cpp.html" target="_top" xlink:title=" ">
<polygon fill="white" stroke="#666666" points="801,-96 694,-96 694,-77 801,-77 801,-96"/>
<text text-anchor="middle" x="747.5" y="-84" font-family="Helvetica,sans-Serif" font-size="10.00">src/d/bg/d_bg_w.cpp</text>
</a>
</g>
</g>
<!-- Node2&#45;&gt;Node10 -->
<g id="edge8" class="edge">
<title>Node2&#45;&gt;Node10</title>
<path fill="none" stroke="#63b8ff" d="M588.43,-144.19C627.36,-130.32 688.48,-108.54 722.5,-96.41"/>
<polygon fill="#63b8ff" stroke="#63b8ff" points="587.26,-140.89 579.02,-147.55 589.61,-147.49 587.26,-140.89"/>
</g>
<!-- Node12 -->
<g id="node11" class="node">
<title>Node12</title>
<g id="a_node11"><a xlink:href="Z2WolfHowlMgr_8cpp.html" target="_top" xlink:title=" ">
<polygon fill="white" stroke="#666666" points="1057.5,-30 917.5,-30 917.5,0 1057.5,0 1057.5,-30"/>
<text text-anchor="start" x="925.5" y="-18" font-family="Helvetica,sans-Serif" font-size="10.00">libs/Z2AudioLib/Z2WolfHowl</text>
<text text-anchor="middle" x="987.5" y="-7" font-family="Helvetica,sans-Serif" font-size="10.00">Mgr.cpp</text>
</a>
</g>
</g>
<!-- Node11&#45;&gt;Node12 -->
<g id="edge10" class="edge">
<title>Node11&#45;&gt;Node12</title>
<path fill="none" stroke="#63b8ff" d="M1006.97,-66.12C1002.55,-54.75 997.07,-40.63 993.05,-30.27"/>
<polygon fill="#63b8ff" stroke="#63b8ff" points="1003.65,-67.23 1010.53,-75.29 1010.17,-64.7 1003.65,-67.23"/>
</g>
<!-- Node13 -->
<g id="node12" class="node">
<title>Node13</title>
<g id="a_node12"><a xlink:href="d__com__static_8cpp.html" target="_top" xlink:title=" ">
<polygon fill="white" stroke="#666666" points="1327.5,-24.5 1187.5,-24.5 1187.5,-5.5 1327.5,-5.5 1327.5,-24.5"/>
<text text-anchor="middle" x="1257.5" y="-12.5" font-family="Helvetica,sans-Serif" font-size="10.00">src/d/com/d_com_static.cpp</text>
</a>
</g>
</g>
<!-- Node11&#45;&gt;Node13 -->
<g id="edge11" class="edge">
<title>Node11&#45;&gt;Node13</title>
<path fill="none" stroke="#63b8ff" d="M1051.69,-73.11C1059.22,-70.69 1067.1,-68.21 1074.5,-66 1125.94,-50.62 1186.06,-34.56 1222.96,-24.91"/>
<polygon fill="#63b8ff" stroke="#63b8ff" points="1050.86,-69.7 1042.44,-76.12 1053.03,-76.35 1050.86,-69.7"/>
</g>
<!-- Node14 -->
<g id="node13" class="node">
<title>Node14</title>
<g id="a_node13"><a xlink:href="d__demo_8cpp.html" target="_top" xlink:title=" ">
<polygon fill="white" stroke="#666666" points="1169.5,-24.5 1075.5,-24.5 1075.5,-5.5 1169.5,-5.5 1169.5,-24.5"/>
<text text-anchor="middle" x="1122.5" y="-12.5" font-family="Helvetica,sans-Serif" font-size="10.00">src/d/d_demo.cpp</text>
</a>
</g>
</g>
<!-- Node11&#45;&gt;Node14 -->
<g id="edge12" class="edge">
<title>Node11&#45;&gt;Node14</title>
<path fill="none" stroke="#63b8ff" d="M1037.59,-70.64C1059.15,-56.77 1090.64,-36.5 1108.59,-24.95"/>
<polygon fill="#63b8ff" stroke="#63b8ff" points="1035.97,-67.52 1029.45,-75.88 1039.75,-73.41 1035.97,-67.52"/>
</g>
<!-- Node15 -->
<g id="node14" class="node">
<title>Node15</title>
<g id="a_node14"><a xlink:href="d__event_8cpp.html" target="_top" xlink:title=" ">
<polygon fill="white" stroke="#666666" points="3078,-24.5 2957,-24.5 2957,-5.5 3078,-5.5 3078,-24.5"/>
<text text-anchor="middle" x="3017.5" y="-12.5" font-family="Helvetica,sans-Serif" font-size="10.00">src/d/event/d_event.cpp</text>
</a>
</g>
</g>
<!-- Node11&#45;&gt;Node15 -->
<g id="edge13" class="edge">
<title>Node11&#45;&gt;Node15</title>
<path fill="none" stroke="#63b8ff" d="M1047.69,-72.82C1056.3,-70.06 1065.64,-67.51 1074.5,-66 1404.49,-9.67 2245.87,-39.36 2580.5,-30 2714.8,-26.24 2872.29,-20.99 2956.71,-18.1"/>
<polygon fill="#63b8ff" stroke="#63b8ff" points="1046.67,-69.47 1038.33,-76.02 1048.93,-76.1 1046.67,-69.47"/>
</g>
<!-- Node16 -->
<g id="node15" class="node">
<title>Node16</title>
<g id="a_node15"><a xlink:href="d__meter2_8cpp.html" target="_top" xlink:title=" ">
<polygon fill="white" stroke="#666666" points="1700.5,-24.5 1572.5,-24.5 1572.5,-5.5 1700.5,-5.5 1700.5,-24.5"/>
<text text-anchor="middle" x="1636.5" y="-12.5" font-family="Helvetica,sans-Serif" font-size="10.00">src/d/meter/d_meter2.cpp</text>
</a>
</g>
</g>
<!-- Node11&#45;&gt;Node16 -->
<g id="edge14" class="edge">
<title>Node11&#45;&gt;Node16</title>
<path fill="none" stroke="#63b8ff" d="M1048.71,-72.91C1057.05,-70.26 1066.02,-67.73 1074.5,-66 1252.29,-29.69 1467.06,-19.75 1572.19,-17.02"/>
<polygon fill="#63b8ff" stroke="#63b8ff" points="1047.63,-69.59 1039.26,-76.08 1049.85,-76.22 1047.63,-69.59"/>
</g>
<!-- Node17 -->
<g id="node16" class="node">
<title>Node17</title>
<g id="a_node16"><a xlink:href="d__s__play_8cpp.html" target="_top" xlink:title=" ">
<polygon fill="white" stroke="#666666" points="899.5,-24.5 793.5,-24.5 793.5,-5.5 899.5,-5.5 899.5,-24.5"/>
<text text-anchor="middle" x="846.5" y="-12.5" font-family="Helvetica,sans-Serif" font-size="10.00">src/d/s/d_s_play.cpp</text>
</a>
</g>
</g>
<!-- Node11&#45;&gt;Node17 -->
<g id="edge15" class="edge">
<title>Node11&#45;&gt;Node17</title>
<path fill="none" stroke="#63b8ff" d="M982.68,-72.34C949.1,-58.44 897.1,-36.93 868.04,-24.91"/>
<polygon fill="#63b8ff" stroke="#63b8ff" points="980.9,-75.39 991.48,-75.98 983.58,-68.92 980.9,-75.39"/>
</g>
<!-- Node18 -->
<g id="node17" class="node">
<title>Node18</title>
<g id="a_node17"><a xlink:href="f__op__actor_8cpp.html" target="_top" xlink:title=" ">
<polygon fill="white" stroke="#666666" points="2572,-24.5 2453,-24.5 2453,-5.5 2572,-5.5 2572,-24.5"/>
<text text-anchor="middle" x="2512.5" y="-12.5" font-family="Helvetica,sans-Serif" font-size="10.00">src/f_op/f_op_actor.cpp</text>
</a>
</g>
</g>
<!-- Node11&#45;&gt;Node18 -->
<g id="edge16" class="edge">
<title>Node11&#45;&gt;Node18</title>
<path fill="none" stroke="#63b8ff" d="M1047.7,-72.89C1056.31,-70.12 1065.65,-67.56 1074.5,-66 1211.42,-41.86 2197.69,-21.89 2452.53,-17.1"/>
<polygon fill="#63b8ff" stroke="#63b8ff" points="1046.68,-69.54 1038.34,-76.08 1048.94,-76.16 1046.68,-69.54"/>
</g>
<!-- Node20 -->
<g id="node19" class="node">
<title>Node20</title>
<g id="a_node19"><a xlink:href="d__a__alink_8h.html" target="_top" xlink:title=" ">
<polygon fill="#fff0f0" stroke="red" points="3349.5,-96 3233.5,-96 3233.5,-77 3349.5,-77 3349.5,-96"/>
<text text-anchor="middle" x="3291.5" y="-84" font-family="Helvetica,sans-Serif" font-size="10.00">include/d/a/d_a_alink.h</text>
</a>
</g>
</g>
<!-- Node19&#45;&gt;Node20 -->
<g id="edge18" class="edge">
<title>Node19&#45;&gt;Node20</title>
<path fill="none" stroke="#63b8ff" d="M1591.75,-156.38C1857.14,-153.63 2868.9,-141.07 3186.5,-107 3208.07,-104.69 3231.85,-100.41 3251.33,-96.46"/>
<polygon fill="#63b8ff" stroke="#63b8ff" points="1591.89,-152.88 1581.92,-156.48 1591.96,-159.88 1591.89,-152.88"/>
</g>
<!-- Node27 -->
<g id="node21" class="node">
<title>Node27</title>
<g id="a_node21"><a xlink:href="d__a__obj__carry_8h.html" target="_top" xlink:title=" ">
<polygon fill="#fff0f0" stroke="red" points="1315.5,-107 1199.5,-107 1199.5,-66 1315.5,-66 1315.5,-107"/>
<text text-anchor="start" x="1207.5" y="-95" font-family="Helvetica,sans-Serif" font-size="10.00">include/rel/d/a/obj</text>
<text text-anchor="start" x="1207.5" y="-84" font-family="Helvetica,sans-Serif" font-size="10.00">/d_a_obj_carry/d_a_obj</text>
<text text-anchor="middle" x="1257.5" y="-73" font-family="Helvetica,sans-Serif" font-size="10.00">_carry.h</text>
</a>
</g>
</g>
<!-- Node19&#45;&gt;Node27 -->
<g id="edge22" class="edge">
<title>Node19&#45;&gt;Node27</title>
<path fill="none" stroke="#63b8ff" d="M1478.12,-145.45C1436.92,-135.66 1376.73,-121.03 1324.5,-107 1321.69,-106.25 1318.82,-105.46 1315.93,-104.66"/>
<polygon fill="#63b8ff" stroke="#63b8ff" points="1477.21,-148.83 1487.74,-147.72 1478.82,-142.01 1477.21,-148.83"/>
</g>
<!-- Node29 -->
<g id="node22" class="node">
<title>Node29</title>
<g id="a_node22"><a xlink:href="d__cc__s_8cpp.html" target="_top" xlink:title=" ">
<polygon fill="white" stroke="#666666" points="1437.5,-96 1333.5,-96 1333.5,-77 1437.5,-77 1437.5,-96"/>
<text text-anchor="middle" x="1385.5" y="-84" font-family="Helvetica,sans-Serif" font-size="10.00">src/d/cc/d_cc_s.cpp</text>
</a>
</g>
</g>
<!-- Node19&#45;&gt;Node29 -->
<g id="edge24" class="edge">
<title>Node19&#45;&gt;Node29</title>
<path fill="none" stroke="#63b8ff" d="M1499.11,-143.11C1470.7,-129.2 1427.84,-108.22 1403.7,-96.41"/>
<polygon fill="#63b8ff" stroke="#63b8ff" points="1497.35,-146.14 1507.87,-147.39 1500.42,-139.85 1497.35,-146.14"/>
</g>
<!-- Node30 -->
<g id="node23" class="node">
<title>Node30</title>
<g id="a_node23"><a xlink:href="d__jnt__col_8cpp.html" target="_top" xlink:title=" ">
<polygon fill="white" stroke="#666666" points="1181.5,-96 1083.5,-96 1083.5,-77 1181.5,-77 1181.5,-96"/>
<text text-anchor="middle" x="1132.5" y="-84" font-family="Helvetica,sans-Serif" font-size="10.00">src/d/d_jnt_col.cpp</text>
</a>
</g>
</g>
<!-- Node19&#45;&gt;Node30 -->
<g id="edge25" class="edge">
<title>Node19&#45;&gt;Node30</title>
<path fill="none" stroke="#63b8ff" d="M1479.01,-145.6C1474.45,-144.67 1469.9,-143.78 1465.5,-143 1344.14,-121.4 1310.6,-134.77 1190.5,-107 1178.8,-104.3 1166.13,-100.18 1155.63,-96.42"/>
<polygon fill="#63b8ff" stroke="#63b8ff" points="1478.25,-149.02 1488.76,-147.69 1479.71,-142.17 1478.25,-149.02"/>
</g>
<!-- Node20&#45;&gt;Node15 -->
<g id="edge19" class="edge">
<title>Node20&#45;&gt;Node15</title>
<path fill="none" stroke="#63b8ff" d="M3247.84,-73.51C3238.5,-70.99 3228.68,-68.38 3219.5,-66 3162.15,-51.14 3095.38,-34.8 3054.79,-24.97"/>
<polygon fill="#63b8ff" stroke="#63b8ff" points="3246.9,-76.88 3257.46,-76.12 3248.73,-70.13 3246.9,-76.88"/>
</g>
<!-- Node20&#45;&gt;Node18 -->
<g id="edge21" class="edge">
<title>Node20&#45;&gt;Node18</title>
<path fill="none" stroke="#63b8ff" d="M3252.36,-73.42C3241.79,-70.57 3230.28,-67.82 3219.5,-66 2982,-25.83 2694.34,-17.86 2572.08,-16.33"/>
<polygon fill="#63b8ff" stroke="#63b8ff" points="3251.37,-76.78 3261.94,-76.12 3253.26,-70.04 3251.37,-76.78"/>
</g>
<!-- Node25 -->
<g id="node20" class="node">
<title>Node25</title>
<g id="a_node20"><a xlink:href="d__meter2__draw_8cpp.html" target="_top" xlink:title=" ">
<polygon fill="white" stroke="#666666" points="3389.5,-30 3279.5,-30 3279.5,0 3389.5,0 3389.5,-30"/>
<text text-anchor="start" x="3287.5" y="-18" font-family="Helvetica,sans-Serif" font-size="10.00">src/d/meter/d_meter2</text>
<text text-anchor="middle" x="3334.5" y="-7" font-family="Helvetica,sans-Serif" font-size="10.00">_draw.cpp</text>
</a>
</g>
</g>
<!-- Node20&#45;&gt;Node25 -->
<g id="edge20" class="edge">
<title>Node20&#45;&gt;Node25</title>
<path fill="none" stroke="#63b8ff" d="M3302.83,-67.19C3309.97,-55.64 3319.06,-40.95 3325.67,-30.27"/>
<polygon fill="#63b8ff" stroke="#63b8ff" points="3300.03,-65.07 3297.74,-75.41 3305.98,-68.75 3300.03,-65.07"/>
</g>
<!-- Node27&#45;&gt;Node13 -->
<g id="edge23" class="edge">
<title>Node27&#45;&gt;Node13</title>
<path fill="none" stroke="#63b8ff" d="M1257.5,-54.43C1257.5,-43.63 1257.5,-32.34 1257.5,-24.82"/>
<polygon fill="#63b8ff" stroke="#63b8ff" points="1254,-54.26 1257.5,-64.26 1261,-54.26 1254,-54.26"/>
</g>
<!-- Node32 -->
<g id="node25" class="node">
<title>Node32</title>
<g id="a_node25"><a xlink:href="d__kankyo_8h.html" target="_top" xlink:title=" ">
<polygon fill="#fff0f0" stroke="red" points="4496.5,-101.5 4398.5,-101.5 4398.5,-71.5 4496.5,-71.5 4496.5,-101.5"/>
<text text-anchor="start" x="4406.5" y="-89.5" font-family="Helvetica,sans-Serif" font-size="10.00">include/d/kankyo/d</text>
<text text-anchor="middle" x="4447.5" y="-78.5" font-family="Helvetica,sans-Serif" font-size="10.00">_kankyo.h</text>
</a>
</g>
</g>
<!-- Node31&#45;&gt;Node32 -->
<g id="edge27" class="edge">
<title>Node31&#45;&gt;Node32</title>
<path fill="none" stroke="#63b8ff" d="M4422.03,-132.88C4427.83,-122.55 4434.41,-110.82 4439.43,-101.88"/>
<polygon fill="#63b8ff" stroke="#63b8ff" points="4419.16,-130.85 4417.32,-141.28 4425.27,-134.27 4419.16,-130.85"/>
</g>
<!-- Node174 -->
<g id="node26" class="node">
<title>Node174</title>
<g id="a_node26"><a xlink:href="d__kankyo__wether_8cpp.html" target="_top" xlink:title=" ">
<polygon fill="white" stroke="#666666" points="4466.5,-30 4350.5,-30 4350.5,0 4466.5,0 4466.5,-30"/>
<text text-anchor="start" x="4358.5" y="-18" font-family="Helvetica,sans-Serif" font-size="10.00">src/d/kankyo/d_kankyo</text>
<text text-anchor="middle" x="4408.5" y="-7" font-family="Helvetica,sans-Serif" font-size="10.00">_wether.cpp</text>
</a>
</g>
</g>
<!-- Node31&#45;&gt;Node174 -->
<g id="edge31" class="edge">
<title>Node31&#45;&gt;Node174</title>
<path fill="none" stroke="#63b8ff" d="M4396.93,-131.92C4393.89,-124.1 4391.03,-115.35 4389.5,-107 4386.21,-89.08 4386.21,-83.92 4389.5,-66 4391.78,-53.58 4397,-40.24 4401.39,-30.47"/>
<polygon fill="#63b8ff" stroke="#63b8ff" points="4393.71,-133.27 4400.81,-141.13 4400.16,-130.56 4393.71,-133.27"/>
</g>
<!-- Node158 -->
<g id="node27" class="node">
<title>Node158</title>
<g id="a_node27"><a xlink:href="d__kyeff_8cpp.html" target="_top" xlink:title=" ">
<polygon fill="white" stroke="#666666" points="4604.5,-96 4514.5,-96 4514.5,-77 4604.5,-77 4604.5,-96"/>
<text text-anchor="middle" x="4559.5" y="-84" font-family="Helvetica,sans-Serif" font-size="10.00">src/d/d_kyeff.cpp</text>
</a>
</g>
</g>
<!-- Node31&#45;&gt;Node158 -->
<g id="edge29" class="edge">
<title>Node31&#45;&gt;Node158</title>
<path fill="none" stroke="#63b8ff" d="M4450.19,-137.81C4479.6,-124.28 4517.63,-106.77 4540.21,-96.38"/>
<polygon fill="#63b8ff" stroke="#63b8ff" points="4448.78,-134.61 4441.16,-141.97 4451.71,-140.97 4448.78,-134.61"/>
</g>
<!-- Node320 -->
<g id="node28" class="node">
<title>Node320</title>
<g id="a_node28"><a xlink:href="d__kyeff2_8cpp.html" target="_top" xlink:title=" ">
<polygon fill="white" stroke="#666666" points="4718,-96 4623,-96 4623,-77 4718,-77 4718,-96"/>
<text text-anchor="middle" x="4670.5" y="-84" font-family="Helvetica,sans-Serif" font-size="10.00">src/d/d_kyeff2.cpp</text>
</a>
</g>
</g>
<!-- Node31&#45;&gt;Node320 -->
<g id="edge30" class="edge">
<title>Node31&#45;&gt;Node320</title>
<path fill="none" stroke="#63b8ff" d="M4468.69,-142.46C4526.59,-128.45 4606.4,-109.08 4613.5,-107 4624.24,-103.86 4635.96,-99.94 4645.97,-96.44"/>
<polygon fill="#63b8ff" stroke="#63b8ff" points="4468.16,-138.99 4459.26,-144.74 4469.8,-145.79 4468.16,-138.99"/>
</g>
<!-- Node32&#45;&gt;Node174 -->
<g id="edge28" class="edge">
<title>Node32&#45;&gt;Node174</title>
<path fill="none" stroke="#63b8ff" d="M4433.97,-61.38C4428.17,-51.05 4421.59,-39.32 4416.57,-30.38"/>
<polygon fill="#63b8ff" stroke="#63b8ff" points="4430.73,-62.77 4438.68,-69.78 4436.84,-59.35 4430.73,-62.77"/>
</g>
<!-- Node321&#45;&gt;Node16 -->
<g id="edge43" class="edge">
<title>Node321&#45;&gt;Node16</title>
<path fill="none" stroke="#63b8ff" d="M2556.38,-157.3C2727.59,-157.25 3144.21,-152.4 3186.5,-107 3198.92,-93.67 3199.18,-79.09 3186.5,-66 3160.25,-38.89 1990.62,-20.91 1700.9,-16.87"/>
<polygon fill="#63b8ff" stroke="#63b8ff" points="2556.49,-153.8 2546.49,-157.3 2556.49,-160.8 2556.49,-153.8"/>
</g>
<!-- Node321&#45;&gt;Node25 -->
<g id="edge44" class="edge">
<title>Node321&#45;&gt;Node25</title>
<path fill="none" stroke="#63b8ff" d="M2556.08,-155.54C2761.02,-151.05 3331.1,-136.01 3358.5,-107 3378.47,-85.86 3359.07,-50.12 3345.39,-30.31"/>
<polygon fill="#63b8ff" stroke="#63b8ff" points="2556.29,-152.03 2546.36,-155.75 2556.44,-159.03 2556.29,-152.03"/>
</g>
<!-- Node153 -->
<g id="node30" class="node">
<title>Node153</title>
<g id="a_node30"><a xlink:href="d__gameover_8cpp.html" target="_top" xlink:title=" ">
<polygon fill="white" stroke="#666666" points="3519,-96 3406,-96 3406,-77 3519,-77 3519,-96"/>
<text text-anchor="middle" x="3462.5" y="-84" font-family="Helvetica,sans-Serif" font-size="10.00">src/d/d_gameover.cpp</text>
</a>
</g>
</g>
<!-- Node321&#45;&gt;Node153 -->
<g id="edge33" class="edge">
<title>Node321&#45;&gt;Node153</title>
<path fill="none" stroke="#63b8ff" d="M2556.01,-155C2741.73,-149.56 3231.15,-133.13 3391.5,-107 3406.14,-104.62 3422.08,-100.39 3435.15,-96.48"/>
<polygon fill="#63b8ff" stroke="#63b8ff" points="2556.16,-151.5 2546.27,-155.28 2556.36,-158.49 2556.16,-151.5"/>
</g>
<!-- Node156 -->
<g id="node31" class="node">
<title>Node156</title>
<g id="a_node31"><a xlink:href="d__kantera__icon__meter_8cpp.html" target="_top" xlink:title=" ">
<polygon fill="white" stroke="#666666" points="1871,-101.5 1764,-101.5 1764,-71.5 1871,-71.5 1871,-101.5"/>
<text text-anchor="start" x="1772" y="-89.5" font-family="Helvetica,sans-Serif" font-size="10.00">src/d/d_kantera_icon</text>
<text text-anchor="middle" x="1817.5" y="-78.5" font-family="Helvetica,sans-Serif" font-size="10.00">_meter.cpp</text>
</a>
</g>
</g>
<!-- Node321&#45;&gt;Node156 -->
<g id="edge34" class="edge">
<title>Node321&#45;&gt;Node156</title>
<path fill="none" stroke="#63b8ff" d="M2410.79,-156.05C2296.78,-153.43 2069.44,-143.62 1880.5,-107 1873.76,-105.69 1866.71,-103.93 1859.88,-101.99"/>
<polygon fill="#63b8ff" stroke="#63b8ff" points="2410.55,-159.55 2420.62,-156.27 2410.7,-152.55 2410.55,-159.55"/>
</g>
<!-- Node176 -->
<g id="node32" class="node">
<title>Node176</title>
<g id="a_node32"><a xlink:href="d__map__path__dmap_8cpp.html" target="_top" xlink:title=" ">
<polygon fill="white" stroke="#666666" points="1745.5,-101.5 1629.5,-101.5 1629.5,-71.5 1745.5,-71.5 1745.5,-101.5"/>
<text text-anchor="start" x="1637.5" y="-89.5" font-family="Helvetica,sans-Serif" font-size="10.00">src/d/map/d_map_path</text>
<text text-anchor="middle" x="1687.5" y="-78.5" font-family="Helvetica,sans-Serif" font-size="10.00">_dmap.cpp</text>
</a>
</g>
</g>
<!-- Node321&#45;&gt;Node176 -->
<g id="edge35" class="edge">
<title>Node321&#45;&gt;Node176</title>
<path fill="none" stroke="#63b8ff" d="M2410.98,-157.16C2279.21,-156.3 1992.14,-149.22 1754.5,-107 1747.22,-105.71 1739.61,-103.92 1732.24,-101.96"/>
<polygon fill="#63b8ff" stroke="#63b8ff" points="2410.95,-160.66 2420.97,-157.21 2410.98,-153.66 2410.95,-160.66"/>
</g>
<!-- Node178 -->
<g id="node33" class="node">
<title>Node178</title>
<g id="a_node33"><a xlink:href="d__menu__calibration_8cpp.html" target="_top" xlink:title=" ">
<polygon fill="white" stroke="#666666" points="2059.5,-96 1889.5,-96 1889.5,-77 2059.5,-77 2059.5,-96"/>
<text text-anchor="middle" x="1974.5" y="-84" font-family="Helvetica,sans-Serif" font-size="10.00">src/d/menu/d_menu_calibration.cpp</text>
</a>
</g>
</g>
<!-- Node321&#45;&gt;Node178 -->
<g id="edge36" class="edge">
<title>Node321&#45;&gt;Node178</title>
<path fill="none" stroke="#63b8ff" d="M2410.76,-150.12C2327.69,-141.83 2187.86,-126.53 2068.5,-107 2050.41,-104.04 2030.51,-100.02 2013.69,-96.4"/>
<polygon fill="#63b8ff" stroke="#63b8ff" points="2410.29,-153.59 2420.59,-151.09 2410.98,-146.62 2410.29,-153.59"/>
</g>
<!-- Node179 -->
<g id="node34" class="node">
<title>Node179</title>
<g id="a_node34"><a xlink:href="d__menu__collect_8cpp.html" target="_top" xlink:title=" ">
<polygon fill="white" stroke="#666666" points="1611,-96 1456,-96 1456,-77 1611,-77 1611,-96"/>
<text text-anchor="middle" x="1533.5" y="-84" font-family="Helvetica,sans-Serif" font-size="10.00">src/d/menu/d_menu_collect.cpp</text>
</a>
</g>
</g>
<!-- Node321&#45;&gt;Node179 -->
<g id="edge37" class="edge">
<title>Node321&#45;&gt;Node179</title>
<path fill="none" stroke="#63b8ff" d="M2411,-156.77C2262.12,-155.42 1911.47,-147.76 1620.5,-107 1602.87,-104.53 1583.52,-100.34 1567.56,-96.48"/>
<polygon fill="#63b8ff" stroke="#63b8ff" points="2410.67,-160.27 2420.7,-156.85 2410.73,-153.27 2410.67,-160.27"/>
</g>
<!-- Node180 -->
<g id="node35" class="node">
<title>Node180</title>
<g id="a_node35"><a xlink:href="d__menu__fishing_8cpp.html" target="_top" xlink:title=" ">
<polygon fill="white" stroke="#666666" points="2231.5,-96 2077.5,-96 2077.5,-77 2231.5,-77 2231.5,-96"/>
<text text-anchor="middle" x="2154.5" y="-84" font-family="Helvetica,sans-Serif" font-size="10.00">src/d/menu/d_menu_fishing.cpp</text>
</a>
</g>
</g>
<!-- Node321&#45;&gt;Node180 -->
<g id="edge38" class="edge">
<title>Node321&#45;&gt;Node180</title>
<path fill="none" stroke="#63b8ff" d="M2411.02,-142.48C2362.67,-132.7 2297.72,-119.37 2240.5,-107 2225.09,-103.67 2208.16,-99.86 2193.42,-96.5"/>
<polygon fill="#63b8ff" stroke="#63b8ff" points="2410.03,-145.85 2420.52,-144.4 2411.42,-138.99 2410.03,-145.85"/>
</g>
<!-- Node181 -->
<g id="node36" class="node">
<title>Node181</title>
<g id="a_node36"><a xlink:href="d__menu__insect_8cpp.html" target="_top" xlink:title=" ">
<polygon fill="white" stroke="#666666" points="2401.5,-96 2249.5,-96 2249.5,-77 2401.5,-77 2401.5,-96"/>
<text text-anchor="middle" x="2325.5" y="-84" font-family="Helvetica,sans-Serif" font-size="10.00">src/d/menu/d_menu_insect.cpp</text>
</a>
</g>
</g>
<!-- Node321&#45;&gt;Node181 -->
<g id="edge39" class="edge">
<title>Node321&#45;&gt;Node181</title>
<path fill="none" stroke="#63b8ff" d="M2440.28,-137.99C2409.46,-124.43 2369.41,-106.81 2345.68,-96.38"/>
<polygon fill="#63b8ff" stroke="#63b8ff" points="2438.81,-141.17 2449.38,-141.99 2441.63,-134.76 2438.81,-141.17"/>
</g>
<!-- Node182 -->
<g id="node37" class="node">
<title>Node182</title>
<g id="a_node37"><a xlink:href="d__menu__map__common_8cpp.html" target="_top" xlink:title=" ">
<polygon fill="white" stroke="#666666" points="2547,-101.5 2420,-101.5 2420,-71.5 2547,-71.5 2547,-101.5"/>
<text text-anchor="start" x="2428" y="-89.5" font-family="Helvetica,sans-Serif" font-size="10.00">src/d/menu/d_menu_map</text>
<text text-anchor="middle" x="2483.5" y="-78.5" font-family="Helvetica,sans-Serif" font-size="10.00">_common.cpp</text>
</a>
</g>
</g>
<!-- Node321&#45;&gt;Node182 -->
<g id="edge40" class="edge">
<title>Node321&#45;&gt;Node182</title>
<path fill="none" stroke="#63b8ff" d="M2483.5,-131.26C2483.5,-121.33 2483.5,-110.36 2483.5,-101.88"/>
<polygon fill="#63b8ff" stroke="#63b8ff" points="2480,-131.09 2483.5,-141.09 2487,-131.09 2480,-131.09"/>
</g>
<!-- Node184 -->
<g id="node38" class="node">
<title>Node184</title>
<g id="a_node38"><a xlink:href="d__menu__skill_8cpp.html" target="_top" xlink:title=" ">
<polygon fill="white" stroke="#666666" points="2708,-96 2565,-96 2565,-77 2708,-77 2708,-96"/>
<text text-anchor="middle" x="2636.5" y="-84" font-family="Helvetica,sans-Serif" font-size="10.00">src/d/menu/d_menu_skill.cpp</text>
</a>
</g>
</g>
<!-- Node321&#45;&gt;Node184 -->
<g id="edge41" class="edge">
<title>Node321&#45;&gt;Node184</title>
<path fill="none" stroke="#63b8ff" d="M2525.35,-137.99C2555.2,-124.43 2593.98,-106.81 2616.95,-96.38"/>
<polygon fill="#63b8ff" stroke="#63b8ff" points="2524.24,-134.65 2516.58,-141.97 2527.13,-141.02 2524.24,-134.65"/>
</g>
<!-- Node71 -->
<g id="node39" class="node">
<title>Node71</title>
<g id="a_node39"><a xlink:href="d__menu__window_8cpp.html" target="_top" xlink:title=" ">
<polygon fill="white" stroke="#666666" points="2885,-96 2726,-96 2726,-77 2885,-77 2885,-96"/>
<text text-anchor="middle" x="2805.5" y="-84" font-family="Helvetica,sans-Serif" font-size="10.00">src/d/menu/d_menu_window.cpp</text>
</a>
</g>
</g>
<!-- Node321&#45;&gt;Node71 -->
<g id="edge42" class="edge">
<title>Node321&#45;&gt;Node71</title>
<path fill="none" stroke="#63b8ff" d="M2555.9,-141.55C2601.91,-131.71 2662.71,-118.66 2716.5,-107 2732.27,-103.58 2749.6,-99.79 2764.75,-96.47"/>
<polygon fill="#63b8ff" stroke="#63b8ff" points="2555.36,-138.08 2546.32,-143.6 2556.83,-144.93 2555.36,-138.08"/>
</g>
<!-- Node322 -->
<g id="node40" class="node">
<title>Node322</title>
<g id="a_node40"><a xlink:href="d__meter__HIO_8cpp.html" target="_top" xlink:title=" ">
<polygon fill="white" stroke="#666666" points="3007.5,-101.5 2903.5,-101.5 2903.5,-71.5 3007.5,-71.5 3007.5,-101.5"/>
<text text-anchor="start" x="2911.5" y="-89.5" font-family="Helvetica,sans-Serif" font-size="10.00">src/d/meter/d_meter</text>
<text text-anchor="middle" x="2955.5" y="-78.5" font-family="Helvetica,sans-Serif" font-size="10.00">_HIO.cpp</text>
</a>
</g>
</g>
<!-- Node321&#45;&gt;Node322 -->
<g id="edge45" class="edge">
<title>Node321&#45;&gt;Node322</title>
<path fill="none" stroke="#63b8ff" d="M2556.12,-152.19C2638.6,-145.79 2776.86,-132.23 2893.5,-107 2899.9,-105.62 2906.58,-103.86 2913.08,-101.97"/>
<polygon fill="#63b8ff" stroke="#63b8ff" points="2556.08,-148.68 2546.37,-152.93 2556.61,-155.66 2556.08,-148.68"/>
</g>
<!-- Node39 -->
<g id="node41" class="node">
<title>Node39</title>
<g id="a_node41"><a xlink:href="d__shop__system_8cpp.html" target="_top" xlink:title=" ">
<polygon fill="white" stroke="#666666" points="3177.5,-96 3025.5,-96 3025.5,-77 3177.5,-77 3177.5,-96"/>
<text text-anchor="middle" x="3101.5" y="-84" font-family="Helvetica,sans-Serif" font-size="10.00">src/d/shop/d_shop_system.cpp</text>
</a>
</g>
</g>
<!-- Node321&#45;&gt;Node39 -->
<g id="edge46" class="edge">
<title>Node321&#45;&gt;Node39</title>
<path fill="none" stroke="#63b8ff" d="M2556.17,-153.23C2659.12,-147.2 2853.1,-133.29 3016.5,-107 3033.39,-104.28 3051.93,-100.16 3067.38,-96.41"/>
<polygon fill="#63b8ff" stroke="#63b8ff" points="2556.28,-149.72 2546.49,-153.79 2556.68,-156.71 2556.28,-149.72"/>
</g>
<!-- Node323&#45;&gt;Node20 -->
<g id="edge48" class="edge">
<title>Node323&#45;&gt;Node20</title>
<path fill="none" stroke="#63b8ff" d="M3750.06,-150.76C3668.54,-142.31 3521.49,-126.1 3396.5,-107 3376.71,-103.98 3354.92,-100.03 3336.36,-96.48"/>
<polygon fill="#63b8ff" stroke="#63b8ff" points="3749.31,-154.2 3759.62,-151.74 3750.03,-147.23 3749.31,-154.2"/>
</g>
<!-- Node37 -->
<g id="node43" class="node">
<title>Node37</title>
<g id="a_node43"><a xlink:href="d__a__npc_8h.html" target="_top" xlink:title=" ">
<polygon fill="#fff0f0" stroke="red" points="3648,-96 3537,-96 3537,-77 3648,-77 3648,-96"/>
<text text-anchor="middle" x="3592.5" y="-84" font-family="Helvetica,sans-Serif" font-size="10.00">include/d/a/d_a_npc.h</text>
</a>
</g>
</g>
<!-- Node323&#45;&gt;Node37 -->
<g id="edge49" class="edge">
<title>Node323&#45;&gt;Node37</title>
<path fill="none" stroke="#63b8ff" d="M3755.71,-139.06C3712.48,-125.4 3654.8,-107.18 3620.85,-96.46"/>
<polygon fill="#63b8ff" stroke="#63b8ff" points="3754.62,-142.38 3765.21,-142.06 3756.72,-135.71 3754.62,-142.38"/>
</g>
<!-- Node244 -->
<g id="node44" class="node">
<title>Node244</title>
<g id="a_node44"><a xlink:href="d__a__boomerang_8h.html" target="_top" xlink:title=" ">
<polygon fill="#fff0f0" stroke="red" points="3815,-101.5 3666,-101.5 3666,-71.5 3815,-71.5 3815,-101.5"/>
<text text-anchor="start" x="3674" y="-89.5" font-family="Helvetica,sans-Serif" font-size="10.00">include/rel/d/a/d_a</text>
<text text-anchor="middle" x="3740.5" y="-78.5" font-family="Helvetica,sans-Serif" font-size="10.00">_boomerang/d_a_boomerang.h</text>
</a>
</g>
</g>
<!-- Node323&#45;&gt;Node244 -->
<g id="edge50" class="edge">
<title>Node323&#45;&gt;Node244</title>
<path fill="none" stroke="#63b8ff" d="M3789.5,-134.8C3778.34,-124.02 3765.24,-111.38 3755.4,-101.88"/>
<polygon fill="#63b8ff" stroke="#63b8ff" points="3786.87,-137.12 3796.49,-141.55 3791.73,-132.09 3786.87,-137.12"/>
</g>
<!-- Node84 -->
<g id="node45" class="node">
<title>Node84</title>
<g id="a_node45"><a xlink:href="d__a__cstaF_8h.html" target="_top" xlink:title=" ">
<polygon fill="white" stroke="#666666" points="3936,-101.5 3833,-101.5 3833,-71.5 3936,-71.5 3936,-101.5"/>
<text text-anchor="start" x="3841" y="-89.5" font-family="Helvetica,sans-Serif" font-size="10.00">include/rel/d/a/d_a</text>
<text text-anchor="middle" x="3884.5" y="-78.5" font-family="Helvetica,sans-Serif" font-size="10.00">_cstaF/d_a_cstaF.h</text>
</a>
</g>
</g>
<!-- Node323&#45;&gt;Node84 -->
<g id="edge51" class="edge">
<title>Node323&#45;&gt;Node84</title>
<path fill="none" stroke="#63b8ff" d="M3835.5,-134.8C3846.66,-124.02 3859.76,-111.38 3869.6,-101.88"/>
<polygon fill="#63b8ff" stroke="#63b8ff" points="3833.27,-132.09 3828.51,-141.55 3838.13,-137.12 3833.27,-132.09"/>
</g>
<!-- Node307 -->
<g id="node46" class="node">
<title>Node307</title>
<g id="a_node46"><a xlink:href="d__a__cstatue_8h.html" target="_top" xlink:title=" ">
<polygon fill="white" stroke="#666666" points="4072.5,-101.5 3954.5,-101.5 3954.5,-71.5 4072.5,-71.5 4072.5,-101.5"/>
<text text-anchor="start" x="3962.5" y="-89.5" font-family="Helvetica,sans-Serif" font-size="10.00">include/rel/d/a/d_a</text>
<text text-anchor="middle" x="4013.5" y="-78.5" font-family="Helvetica,sans-Serif" font-size="10.00">_cstatue/d_a_cstatue.h</text>
</a>
</g>
</g>
<!-- Node323&#45;&gt;Node307 -->
<g id="edge52" class="edge">
<title>Node323&#45;&gt;Node307</title>
<path fill="none" stroke="#63b8ff" d="M3864.64,-138.97C3898.03,-127.42 3940.79,-112.64 3971.91,-101.88"/>
<polygon fill="#63b8ff" stroke="#63b8ff" points="3863.88,-135.53 3855.58,-142.1 3866.17,-142.14 3863.88,-135.53"/>
</g>
<!-- Node92 -->
<g id="node47" class="node">
<title>Node92</title>
<g id="a_node47"><a xlink:href="d__a__spinner_8h.html" target="_top" xlink:title=" ">
<polygon fill="#fff0f0" stroke="red" points="4206.5,-101.5 4090.5,-101.5 4090.5,-71.5 4206.5,-71.5 4206.5,-101.5"/>
<text text-anchor="start" x="4098.5" y="-89.5" font-family="Helvetica,sans-Serif" font-size="10.00">include/rel/d/a/d_a</text>
<text text-anchor="middle" x="4148.5" y="-78.5" font-family="Helvetica,sans-Serif" font-size="10.00">_spinner/d_a_spinner.h</text>
</a>
</g>
</g>
<!-- Node323&#45;&gt;Node92 -->
<g id="edge53" class="edge">
<title>Node323&#45;&gt;Node92</title>
<path fill="none" stroke="#63b8ff" d="M3875.15,-147.17C3929.91,-138.15 4011.39,-123.67 4081.5,-107 4087.86,-105.49 4094.52,-103.74 4101.07,-101.94"/>
<polygon fill="#63b8ff" stroke="#63b8ff" points="3874.68,-143.7 3865.38,-148.77 3875.81,-150.61 3874.68,-143.7"/>
</g>
<!-- Node324 -->
<g id="node48" class="node">
<title>Node324</title>
<g id="a_node48"><a xlink:href="d__particle__copoly_8cpp.html" target="_top" xlink:title=" ">
<polygon fill="white" stroke="#666666" points="4342.5,-101.5 4224.5,-101.5 4224.5,-71.5 4342.5,-71.5 4342.5,-101.5"/>
<text text-anchor="start" x="4232.5" y="-89.5" font-family="Helvetica,sans-Serif" font-size="10.00">src/d/particle/d_particle</text>
<text text-anchor="middle" x="4283.5" y="-78.5" font-family="Helvetica,sans-Serif" font-size="10.00">_copoly.cpp</text>
</a>
</g>
</g>
<!-- Node323&#45;&gt;Node324 -->
<g id="edge54" class="edge">
<title>Node323&#45;&gt;Node324</title>
<path fill="none" stroke="#63b8ff" d="M3875.1,-152.28C3954.76,-145.57 4096.33,-131.32 4215.5,-107 4222.36,-105.6 4229.53,-103.86 4236.55,-101.99"/>
<polygon fill="#63b8ff" stroke="#63b8ff" points="3874.99,-148.77 3865.32,-153.09 3875.57,-155.75 3874.99,-148.77"/>
</g>
<!-- Node325&#45;&gt;Node9 -->
<g id="edge56" class="edge">
<title>Node325&#45;&gt;Node9</title>
<path fill="none" stroke="#63b8ff" d="M1312.1,-151.58C1224.4,-144.69 1078.39,-130.74 954.5,-107 947.12,-105.59 939.39,-103.81 931.85,-101.91"/>
<polygon fill="#63b8ff" stroke="#63b8ff" points="1311.8,-155.07 1322.04,-152.35 1312.34,-148.09 1311.8,-155.07"/>
</g>
<!-- Node325&#45;&gt;Node30 -->
<g id="edge57" class="edge">
<title>Node325&#45;&gt;Node30</title>
<path fill="none" stroke="#63b8ff" d="M1339.82,-145.5C1299.21,-136.01 1240.89,-121.75 1190.5,-107 1179.69,-103.84 1167.89,-99.95 1157.77,-96.48"/>
<polygon fill="#63b8ff" stroke="#63b8ff" points="1338.78,-148.86 1349.31,-147.71 1340.36,-142.04 1338.78,-148.86"/>
</g>
<!-- Node325&#45;&gt;Node176 -->
<g id="edge58" class="edge">
<title>Node325&#45;&gt;Node176</title>
<path fill="none" stroke="#63b8ff" d="M1446.51,-145.82C1493.02,-136.28 1560.81,-121.81 1619.5,-107 1625.69,-105.44 1632.17,-103.71 1638.57,-101.94"/>
<polygon fill="#63b8ff" stroke="#63b8ff" points="1446.04,-142.34 1436.94,-147.77 1447.44,-149.2 1446.04,-142.34"/>
</g>
<!-- Node325&#45;&gt;Node179 -->
<g id="edge59" class="edge">
<title>Node325&#45;&gt;Node179</title>
<path fill="none" stroke="#63b8ff" d="M1419.09,-143.11C1447.7,-129.2 1490.86,-108.22 1515.17,-96.41"/>
<polygon fill="#63b8ff" stroke="#63b8ff" points="1417.73,-139.88 1410.26,-147.39 1420.79,-146.17 1417.73,-139.88"/>
</g>
</g>
</svg>
