<?xml version="1.0" encoding="UTF-8" standalone="no"?>
<!DOCTYPE svg PUBLIC "-//W3C//DTD SVG 1.1//EN"
 "http://www.w3.org/Graphics/SVG/1.1/DTD/svg11.dtd">
<!-- Generated by graphviz version 7.0.5 (20221223.1930)
 -->
<!-- Title: include/SSystem/SComponent/c_tag_iter.h Pages: 1 -->
<svg width="4923pt" height="368pt"
 viewBox="0.00 0.00 4923.38 368.00" xmlns="http://www.w3.org/2000/svg" xmlns:xlink="http://www.w3.org/1999/xlink">
<g id="graph0" class="graph" transform="scale(1 1) rotate(0) translate(4 364)">
<title>include/SSystem/SComponent/c_tag_iter.h</title>
<!-- Node1 -->
<g id="node1" class="node">
<title>Node1</title>
<g id="a_node1"><a xlink:title=" ">
<polygon fill="#999999" stroke="#666666" points="4646.88,-360 4497.88,-360 4497.88,-330 4646.88,-330 4646.88,-360"/>
<text text-anchor="start" x="4505.88" y="-348" font-family="Helvetica,sans-Serif" font-size="10.00">include/SSystem/SComponent</text>
<text text-anchor="middle" x="4572.38" y="-337" font-family="Helvetica,sans-Serif" font-size="10.00">/c_tag_iter.h</text>
</a>
</g>
</g>
<!-- Node2 -->
<g id="node2" class="node">
<title>Node2</title>
<g id="a_node2"><a xlink:href="f__pc__create__iter_8h.html" target="_top" xlink:title=" ">
<polygon fill="white" stroke="#666666" points="4290.88,-294 4167.88,-294 4167.88,-264 4290.88,-264 4290.88,-294"/>
<text text-anchor="start" x="4175.88" y="-282" font-family="Helvetica,sans-Serif" font-size="10.00">include/f_pc/f_pc_create</text>
<text text-anchor="middle" x="4229.38" y="-271" font-family="Helvetica,sans-Serif" font-size="10.00">_iter.h</text>
</a>
</g>
</g>
<!-- Node1&#45;&gt;Node2 -->
<g id="edge1" class="edge">
<title>Node1&#45;&gt;Node2</title>
<path fill="none" stroke="#63b8ff" d="M4486.41,-328.49C4432.87,-318.76 4362.58,-305.85 4300.38,-294 4297.42,-293.44 4294.39,-292.85 4291.33,-292.26"/>
<polygon fill="#63b8ff" stroke="#63b8ff" points="4485.62,-331.9 4496.09,-330.25 4486.87,-325.02 4485.62,-331.9"/>
</g>
<!-- Node150 -->
<g id="node46" class="node">
<title>Node150</title>
<g id="a_node46"><a xlink:href="c__tag__iter_8cpp.html" target="_top" xlink:title=" ">
<polygon fill="white" stroke="#666666" points="4443.38,-294 4309.38,-294 4309.38,-264 4443.38,-264 4443.38,-294"/>
<text text-anchor="start" x="4317.38" y="-282" font-family="Helvetica,sans-Serif" font-size="10.00">libs/SSystem/SComponent</text>
<text text-anchor="middle" x="4376.38" y="-271" font-family="Helvetica,sans-Serif" font-size="10.00">/c_tag_iter.cpp</text>
</a>
</g>
</g>
<!-- Node1&#45;&gt;Node150 -->
<g id="edge56" class="edge">
<title>Node1&#45;&gt;Node150</title>
<path fill="none" stroke="#63b8ff" d="M4517.46,-326.07C4486.85,-316.07 4449.24,-303.79 4420.56,-294.43"/>
<polygon fill="#63b8ff" stroke="#63b8ff" points="4516.36,-329.39 4526.95,-329.17 4518.53,-322.74 4516.36,-329.39"/>
</g>
<!-- Node151 -->
<g id="node47" class="node">
<title>Node151</title>
<g id="a_node47"><a xlink:href="f__op__actor__iter_8cpp.html" target="_top" xlink:title=" ">
<polygon fill="white" stroke="#666666" points="4562.88,-294 4461.88,-294 4461.88,-264 4562.88,-264 4562.88,-294"/>
<text text-anchor="start" x="4469.88" y="-282" font-family="Helvetica,sans-Serif" font-size="10.00">src/f_op/f_op_actor</text>
<text text-anchor="middle" x="4512.38" y="-271" font-family="Helvetica,sans-Serif" font-size="10.00">_iter.cpp</text>
</a>
</g>
</g>
<!-- Node1&#45;&gt;Node151 -->
<g id="edge57" class="edge">
<title>Node1&#45;&gt;Node151</title>
<path fill="none" stroke="#63b8ff" d="M4551.31,-321.53C4542.78,-312.43 4533.19,-302.19 4525.66,-294.16"/>
<polygon fill="#63b8ff" stroke="#63b8ff" points="4548.63,-323.79 4558.03,-328.69 4553.74,-319 4548.63,-323.79"/>
</g>
<!-- Node152 -->
<g id="node48" class="node">
<title>Node152</title>
<g id="a_node48"><a xlink:href="f__op__scene__iter_8cpp.html" target="_top" xlink:title=" ">
<polygon fill="white" stroke="#666666" points="4685.88,-294 4580.88,-294 4580.88,-264 4685.88,-264 4685.88,-294"/>
<text text-anchor="start" x="4588.88" y="-282" font-family="Helvetica,sans-Serif" font-size="10.00">src/f_op/f_op_scene</text>
<text text-anchor="middle" x="4633.38" y="-271" font-family="Helvetica,sans-Serif" font-size="10.00">_iter.cpp</text>
</a>
</g>
</g>
<!-- Node1&#45;&gt;Node152 -->
<g id="edge58" class="edge">
<title>Node1&#45;&gt;Node152</title>
<path fill="none" stroke="#63b8ff" d="M4593.8,-321.53C4602.47,-312.43 4612.22,-302.19 4619.88,-294.16"/>
<polygon fill="#63b8ff" stroke="#63b8ff" points="4591.33,-319.05 4586.96,-328.7 4596.39,-323.88 4591.33,-319.05"/>
</g>
<!-- Node153 -->
<g id="node49" class="node">
<title>Node153</title>
<g id="a_node49"><a xlink:href="f__pc__layer__iter_8cpp.html" target="_top" xlink:title=" ">
<polygon fill="white" stroke="#666666" points="4802.88,-294 4703.88,-294 4703.88,-264 4802.88,-264 4802.88,-294"/>
<text text-anchor="start" x="4711.88" y="-282" font-family="Helvetica,sans-Serif" font-size="10.00">src/f_pc/f_pc_layer</text>
<text text-anchor="middle" x="4753.38" y="-271" font-family="Helvetica,sans-Serif" font-size="10.00">_iter.cpp</text>
</a>
</g>
</g>
<!-- Node1&#45;&gt;Node153 -->
<g id="edge59" class="edge">
<title>Node1&#45;&gt;Node153</title>
<path fill="none" stroke="#63b8ff" d="M4623.84,-325.8C4651.97,-315.86 4686.32,-303.71 4712.58,-294.43"/>
<polygon fill="#63b8ff" stroke="#63b8ff" points="4622.69,-322.5 4614.43,-329.13 4625.02,-329.1 4622.69,-322.5"/>
</g>
<!-- Node154 -->
<g id="node50" class="node">
<title>Node154</title>
<g id="a_node50"><a xlink:href="f__pc__line__iter_8cpp.html" target="_top" xlink:title=" ">
<polygon fill="white" stroke="#666666" points="4915.38,-294 4821.38,-294 4821.38,-264 4915.38,-264 4915.38,-294"/>
<text text-anchor="start" x="4829.38" y="-282" font-family="Helvetica,sans-Serif" font-size="10.00">src/f_pc/f_pc_line</text>
<text text-anchor="middle" x="4868.38" y="-271" font-family="Helvetica,sans-Serif" font-size="10.00">_iter.cpp</text>
</a>
</g>
</g>
<!-- Node1&#45;&gt;Node154 -->
<g id="edge60" class="edge">
<title>Node1&#45;&gt;Node154</title>
<path fill="none" stroke="#63b8ff" d="M4656.69,-327.29C4702.78,-317.93 4760.83,-305.81 4812.38,-294 4815.21,-293.35 4818.12,-292.67 4821.05,-291.97"/>
<polygon fill="#63b8ff" stroke="#63b8ff" points="4656.13,-323.83 4647.02,-329.24 4657.52,-330.69 4656.13,-323.83"/>
</g>
<!-- Node3 -->
<g id="node3" class="node">
<title>Node3</title>
<g id="a_node3"><a xlink:href="f__pc__manager_8h.html" target="_top" xlink:title=" ">
<polygon fill="white" stroke="#666666" points="3940.88,-222.5 3799.88,-222.5 3799.88,-203.5 3940.88,-203.5 3940.88,-222.5"/>
<text text-anchor="middle" x="3870.38" y="-210.5" font-family="Helvetica,sans-Serif" font-size="10.00">include/f_pc/f_pc_manager.h</text>
</a>
</g>
</g>
<!-- Node2&#45;&gt;Node3 -->
<g id="edge2" class="edge">
<title>Node2&#45;&gt;Node3</title>
<path fill="none" stroke="#63b8ff" d="M4156.7,-265.04C4086.5,-252.53 3982.02,-233.9 3920.59,-222.95"/>
<polygon fill="#63b8ff" stroke="#63b8ff" points="4155.71,-268.42 4166.17,-266.73 4156.94,-261.53 4155.71,-268.42"/>
</g>
<!-- Node110 -->
<g id="node43" class="node">
<title>Node110</title>
<g id="a_node43"><a xlink:href="f__pc__manager_8cpp.html" target="_top" xlink:title=" ">
<polygon fill="white" stroke="#666666" points="4476.38,-156.5 4342.38,-156.5 4342.38,-137.5 4476.38,-137.5 4476.38,-156.5"/>
<text text-anchor="middle" x="4409.38" y="-144.5" font-family="Helvetica,sans-Serif" font-size="10.00">src/f_pc/f_pc_manager.cpp</text>
</a>
</g>
</g>
<!-- Node2&#45;&gt;Node110 -->
<g id="edge55" class="edge">
<title>Node2&#45;&gt;Node110</title>
<path fill="none" stroke="#63b8ff" d="M4213.05,-253.95C4203.61,-236.8 4195.86,-214.02 4208.38,-198 4217.82,-185.92 4303.84,-167.75 4360.25,-156.97"/>
<polygon fill="#63b8ff" stroke="#63b8ff" points="4210.03,-255.74 4218.19,-262.5 4216.03,-252.13 4210.03,-255.74"/>
</g>
<!-- Node148 -->
<g id="node44" class="node">
<title>Node148</title>
<g id="a_node44"><a xlink:href="f__pc__create__iter_8cpp.html" target="_top" xlink:title=" ">
<polygon fill="white" stroke="#666666" points="4323.38,-228 4217.38,-228 4217.38,-198 4323.38,-198 4323.38,-228"/>
<text text-anchor="start" x="4225.38" y="-216" font-family="Helvetica,sans-Serif" font-size="10.00">src/f_pc/f_pc_create</text>
<text text-anchor="middle" x="4270.38" y="-205" font-family="Helvetica,sans-Serif" font-size="10.00">_iter.cpp</text>
</a>
</g>
</g>
<!-- Node2&#45;&gt;Node148 -->
<g id="edge53" class="edge">
<title>Node2&#45;&gt;Node148</title>
<path fill="none" stroke="#63b8ff" d="M4244.68,-254.11C4250.28,-245.38 4256.43,-235.78 4261.3,-228.16"/>
<polygon fill="#63b8ff" stroke="#63b8ff" points="4241.74,-252.21 4239.29,-262.52 4247.64,-255.99 4241.74,-252.21"/>
</g>
<!-- Node149 -->
<g id="node45" class="node">
<title>Node149</title>
<g id="a_node45"><a xlink:href="f__pc__create__req_8cpp.html" target="_top" xlink:title=" ">
<polygon fill="white" stroke="#666666" points="4447.38,-228 4341.38,-228 4341.38,-198 4447.38,-198 4447.38,-228"/>
<text text-anchor="start" x="4349.38" y="-216" font-family="Helvetica,sans-Serif" font-size="10.00">src/f_pc/f_pc_create</text>
<text text-anchor="middle" x="4394.38" y="-205" font-family="Helvetica,sans-Serif" font-size="10.00">_req.cpp</text>
</a>
</g>
</g>
<!-- Node2&#45;&gt;Node149 -->
<g id="edge54" class="edge">
<title>Node2&#45;&gt;Node149</title>
<path fill="none" stroke="#63b8ff" d="M4276.97,-259.54C4302.48,-249.64 4333.46,-237.63 4357.19,-228.43"/>
<polygon fill="#63b8ff" stroke="#63b8ff" points="4275.88,-256.21 4267.82,-263.09 4278.41,-262.74 4275.88,-256.21"/>
</g>
<!-- Node4 -->
<g id="node4" class="node">
<title>Node4</title>
<g id="a_node4"><a xlink:href="f__op__actor__mng_8h.html" target="_top" xlink:title=" ">
<polygon fill="white" stroke="#666666" points="1713.38,-162 1595.38,-162 1595.38,-132 1713.38,-132 1713.38,-162"/>
<text text-anchor="start" x="1603.38" y="-150" font-family="Helvetica,sans-Serif" font-size="10.00">include/f_op/f_op_actor</text>
<text text-anchor="middle" x="1654.38" y="-139" font-family="Helvetica,sans-Serif" font-size="10.00">_mng.h</text>
</a>
</g>
</g>
<!-- Node3&#45;&gt;Node4 -->
<g id="edge3" class="edge">
<title>Node3&#45;&gt;Node4</title>
<path fill="none" stroke="#63b8ff" d="M3788.22,-209.63C3431.47,-199.32 2020.85,-158.58 1713.65,-149.71"/>
<polygon fill="#63b8ff" stroke="#63b8ff" points="3787.86,-213.12 3797.96,-209.91 3788.06,-206.12 3787.86,-213.12"/>
</g>
<!-- Node139 -->
<g id="node34" class="node">
<title>Node139</title>
<g id="a_node34"><a xlink:href="f__op__kankyo_8h.html" target="_top" xlink:title=" ">
<polygon fill="white" stroke="#666666" points="3679.38,-85 3545.38,-85 3545.38,-66 3679.38,-66 3679.38,-85"/>
<text text-anchor="middle" x="3612.38" y="-73" font-family="Helvetica,sans-Serif" font-size="10.00">include/f_op/f_op_kankyo.h</text>
</a>
</g>
</g>
<!-- Node3&#45;&gt;Node139 -->
<g id="edge40" class="edge">
<title>Node3&#45;&gt;Node139</title>
<path fill="none" stroke="#63b8ff" d="M3788.44,-206.64C3722.94,-200.48 3638.54,-187.7 3616.38,-162 3597.55,-140.17 3604.96,-102.32 3609.66,-85.27"/>
<polygon fill="#63b8ff" stroke="#63b8ff" points="3787.82,-210.1 3798.1,-207.5 3788.45,-203.12 3787.82,-210.1"/>
</g>
<!-- Node64 -->
<g id="node35" class="node">
<title>Node64</title>
<g id="a_node35"><a xlink:href="f__op__kankyo_8cpp.html" target="_top" xlink:title=" ">
<polygon fill="white" stroke="#666666" points="3628.38,-19 3500.38,-19 3500.38,0 3628.38,0 3628.38,-19"/>
<text text-anchor="middle" x="3564.38" y="-7" font-family="Helvetica,sans-Serif" font-size="10.00">src/f_op/f_op_kankyo.cpp</text>
</a>
</g>
</g>
<!-- Node3&#45;&gt;Node64 -->
<g id="edge48" class="edge">
<title>Node3&#45;&gt;Node64</title>
<path fill="none" stroke="#63b8ff" d="M3788.21,-209.5C3732.65,-204.84 3659.17,-192.7 3601.38,-162 3565.02,-142.68 3551.99,-134.1 3536.38,-96 3529.47,-79.14 3531.33,-72.51 3536.38,-55 3540.32,-41.32 3549.86,-27.79 3556.71,-19.3"/>
<polygon fill="#63b8ff" stroke="#63b8ff" points="3787.68,-212.97 3797.92,-210.25 3788.22,-205.99 3787.68,-212.97"/>
</g>
<!-- Node140 -->
<g id="node36" class="node">
<title>Node140</title>
<g id="a_node36"><a xlink:href="f__op__kankyo__mng_8h.html" target="_top" xlink:title=" ">
<polygon fill="#fff0f0" stroke="red" points="3752.88,-162 3625.88,-162 3625.88,-132 3752.88,-132 3752.88,-162"/>
<text text-anchor="start" x="3633.88" y="-150" font-family="Helvetica,sans-Serif" font-size="10.00">include/f_op/f_op_kankyo</text>
<text text-anchor="middle" x="3689.38" y="-139" font-family="Helvetica,sans-Serif" font-size="10.00">_mng.h</text>
</a>
</g>
</g>
<!-- Node3&#45;&gt;Node140 -->
<g id="edge42" class="edge">
<title>Node3&#45;&gt;Node140</title>
<path fill="none" stroke="#63b8ff" d="M3834.39,-199.27C3804.38,-188.66 3761.63,-173.55 3730.32,-162.48"/>
<polygon fill="#63b8ff" stroke="#63b8ff" points="3833.19,-202.56 3843.78,-202.6 3835.52,-195.96 3833.19,-202.56"/>
</g>
<!-- Node141 -->
<g id="node38" class="node">
<title>Node141</title>
<g id="a_node38"><a xlink:href="f__op__scene__mng_8h.html" target="_top" xlink:title=" ">
<polygon fill="#fff0f0" stroke="red" points="3931.38,-162 3809.38,-162 3809.38,-132 3931.38,-132 3931.38,-162"/>
<text text-anchor="start" x="3817.38" y="-150" font-family="Helvetica,sans-Serif" font-size="10.00">include/f_op/f_op_scene</text>
<text text-anchor="middle" x="3870.38" y="-139" font-family="Helvetica,sans-Serif" font-size="10.00">_mng.h</text>
</a>
</g>
</g>
<!-- Node3&#45;&gt;Node141 -->
<g id="edge45" class="edge">
<title>Node3&#45;&gt;Node141</title>
<path fill="none" stroke="#63b8ff" d="M3870.38,-191.78C3870.38,-182.17 3870.38,-170.92 3870.38,-162.23"/>
<polygon fill="#63b8ff" stroke="#63b8ff" points="3866.88,-191.59 3870.38,-201.59 3873.88,-191.59 3866.88,-191.59"/>
</g>
<!-- Node143 -->
<g id="node39" class="node">
<title>Node143</title>
<g id="a_node39"><a xlink:href="f__ap__game_8cpp.html" target="_top" xlink:title=" ">
<polygon fill="white" stroke="#666666" points="3930.88,-85 3809.88,-85 3809.88,-66 3930.88,-66 3930.88,-85"/>
<text text-anchor="middle" x="3870.38" y="-73" font-family="Helvetica,sans-Serif" font-size="10.00">src/f_ap/f_ap_game.cpp</text>
</a>
</g>
</g>
<!-- Node3&#45;&gt;Node143 -->
<g id="edge47" class="edge">
<title>Node3&#45;&gt;Node143</title>
<path fill="none" stroke="#63b8ff" d="M3838.42,-197.8C3824.02,-189.58 3808.46,-177.71 3800.38,-162 3794.28,-150.14 3794.58,-144 3800.38,-132 3810.84,-110.36 3834.29,-94.58 3851.17,-85.49"/>
<polygon fill="#63b8ff" stroke="#63b8ff" points="3836.76,-200.88 3847.24,-202.44 3840.02,-194.68 3836.76,-200.88"/>
</g>
<!-- Node145 -->
<g id="node40" class="node">
<title>Node145</title>
<g id="a_node40"><a xlink:href="f__op__overlap__req_8cpp.html" target="_top" xlink:title=" ">
<polygon fill="white" stroke="#666666" points="4059.38,-162 3949.38,-162 3949.38,-132 4059.38,-132 4059.38,-162"/>
<text text-anchor="start" x="3957.38" y="-150" font-family="Helvetica,sans-Serif" font-size="10.00">src/f_op/f_op_overlap</text>
<text text-anchor="middle" x="4004.38" y="-139" font-family="Helvetica,sans-Serif" font-size="10.00">_req.cpp</text>
</a>
</g>
</g>
<!-- Node3&#45;&gt;Node145 -->
<g id="edge49" class="edge">
<title>Node3&#45;&gt;Node145</title>
<path fill="none" stroke="#63b8ff" d="M3899.11,-198.28C3921.18,-187.73 3951.6,-173.21 3974.07,-162.48"/>
<polygon fill="#63b8ff" stroke="#63b8ff" points="3897.89,-194.98 3890.38,-202.45 3900.91,-201.3 3897.89,-194.98"/>
</g>
<!-- Node146 -->
<g id="node41" class="node">
<title>Node146</title>
<g id="a_node41"><a xlink:href="f__op__scene_8cpp.html" target="_top" xlink:title=" ">
<polygon fill="white" stroke="#666666" points="4200.88,-156.5 4077.88,-156.5 4077.88,-137.5 4200.88,-137.5 4200.88,-156.5"/>
<text text-anchor="middle" x="4139.38" y="-144.5" font-family="Helvetica,sans-Serif" font-size="10.00">src/f_op/f_op_scene.cpp</text>
</a>
</g>
</g>
<!-- Node3&#45;&gt;Node146 -->
<g id="edge50" class="edge">
<title>Node3&#45;&gt;Node146</title>
<path fill="none" stroke="#63b8ff" d="M3919.13,-200.4C3971.7,-187.89 4054.25,-168.25 4101.95,-156.91"/>
<polygon fill="#63b8ff" stroke="#63b8ff" points="3918.46,-196.96 3909.54,-202.68 3920.08,-203.77 3918.46,-196.96"/>
</g>
<!-- Node147 -->
<g id="node42" class="node">
<title>Node147</title>
<g id="a_node42"><a xlink:href="f__op__scene__pause_8cpp.html" target="_top" xlink:title=" ">
<polygon fill="white" stroke="#666666" points="4323.88,-162 4218.88,-162 4218.88,-132 4323.88,-132 4323.88,-162"/>
<text text-anchor="start" x="4226.88" y="-150" font-family="Helvetica,sans-Serif" font-size="10.00">src/f_op/f_op_scene</text>
<text text-anchor="middle" x="4271.38" y="-139" font-family="Helvetica,sans-Serif" font-size="10.00">_pause.cpp</text>
</a>
</g>
</g>
<!-- Node3&#45;&gt;Node147 -->
<g id="edge51" class="edge">
<title>Node3&#45;&gt;Node147</title>
<path fill="none" stroke="#63b8ff" d="M3952.27,-201.69C4021.11,-192.6 4121.99,-178.29 4209.38,-162 4212.42,-161.43 4215.53,-160.82 4218.67,-160.19"/>
<polygon fill="#63b8ff" stroke="#63b8ff" points="3952.04,-198.19 3942.58,-202.96 3952.95,-205.13 3952.04,-198.19"/>
</g>
<!-- Node3&#45;&gt;Node110 -->
<g id="edge52" class="edge">
<title>Node3&#45;&gt;Node110</title>
<path fill="none" stroke="#63b8ff" d="M3952.27,-204.93C4044.79,-196.53 4199.78,-181.2 4332.38,-162 4342.33,-160.56 4352.96,-158.78 4363.05,-156.98"/>
<polygon fill="#63b8ff" stroke="#63b8ff" points="3952.17,-201.43 3942.53,-205.81 3952.8,-208.4 3952.17,-201.43"/>
</g>
<!-- Node5 -->
<g id="node5" class="node">
<title>Node5</title>
<g id="a_node5"><a xlink:href="d__a__alink_8h.html" target="_top" xlink:title=" ">
<polygon fill="#fff0f0" stroke="red" points="138.38,-85 22.38,-85 22.38,-66 138.38,-66 138.38,-85"/>
<text text-anchor="middle" x="80.38" y="-73" font-family="Helvetica,sans-Serif" font-size="10.00">include/d/a/d_a_alink.h</text>
</a>
</g>
</g>
<!-- Node4&#45;&gt;Node5 -->
<g id="edge4" class="edge">
<title>Node4&#45;&gt;Node5</title>
<path fill="none" stroke="#63b8ff" d="M1583.77,-145.99C1325.05,-145.61 429.34,-140.98 147.38,-96 133.26,-93.75 117.92,-89.43 105.49,-85.43"/>
<polygon fill="#63b8ff" stroke="#63b8ff" points="1583.73,-149.49 1593.73,-146.01 1583.74,-142.49 1583.73,-149.49"/>
</g>
<!-- Node16 -->
<g id="node6" class="node">
<title>Node16</title>
<g id="a_node6"><a xlink:href="d__a__alink_8cpp.html" target="_top" xlink:title=" ">
<polygon fill="white" stroke="#666666" points="321.88,-19 212.88,-19 212.88,0 321.88,0 321.88,-19"/>
<text text-anchor="middle" x="267.38" y="-7" font-family="Helvetica,sans-Serif" font-size="10.00">src/d/a/d_a_alink.cpp</text>
</a>
</g>
</g>
<!-- Node4&#45;&gt;Node16 -->
<g id="edge28" class="edge">
<title>Node4&#45;&gt;Node16</title>
<path fill="none" stroke="#63b8ff" d="M1584.07,-145.18C1273.79,-141.4 41.13,-124.61 13.38,-96 -48.01,-32.71 120.66,-16.27 212.44,-12"/>
<polygon fill="#63b8ff" stroke="#63b8ff" points="1583.59,-148.68 1593.63,-145.3 1583.68,-141.68 1583.59,-148.68"/>
</g>
<!-- Node116 -->
<g id="node7" class="node">
<title>Node116</title>
<g id="a_node7"><a xlink:href="d__a__obj__item_8h.html" target="_top" xlink:title=" ">
<polygon fill="#fff0f0" stroke="red" points="811.88,-90.5 710.88,-90.5 710.88,-60.5 811.88,-60.5 811.88,-90.5"/>
<text text-anchor="start" x="718.88" y="-78.5" font-family="Helvetica,sans-Serif" font-size="10.00">include/d/a/d_a_obj</text>
<text text-anchor="middle" x="761.38" y="-67.5" font-family="Helvetica,sans-Serif" font-size="10.00">_item.h</text>
</a>
</g>
</g>
<!-- Node4&#45;&gt;Node116 -->
<g id="edge6" class="edge">
<title>Node4&#45;&gt;Node116</title>
<path fill="none" stroke="#63b8ff" d="M1583.84,-144.12C1410.25,-139.12 965.88,-123.91 820.38,-96 813.81,-94.74 806.96,-92.95 800.36,-90.95"/>
<polygon fill="#63b8ff" stroke="#63b8ff" points="1583.52,-147.61 1593.61,-144.4 1583.72,-140.62 1583.52,-147.61"/>
</g>
<!-- Node117 -->
<g id="node8" class="node">
<title>Node117</title>
<g id="a_node8"><a xlink:href="d__a__obj__ss__base_8h.html" target="_top" xlink:title=" ">
<polygon fill="#fff0f0" stroke="red" points="930.88,-90.5 829.88,-90.5 829.88,-60.5 930.88,-60.5 930.88,-90.5"/>
<text text-anchor="start" x="837.88" y="-78.5" font-family="Helvetica,sans-Serif" font-size="10.00">include/d/a/d_a_obj</text>
<text text-anchor="middle" x="880.38" y="-67.5" font-family="Helvetica,sans-Serif" font-size="10.00">_ss_base.h</text>
</a>
</g>
</g>
<!-- Node4&#45;&gt;Node117 -->
<g id="edge7" class="edge">
<title>Node4&#45;&gt;Node117</title>
<path fill="none" stroke="#63b8ff" d="M1584.08,-146.85C1455.04,-147.15 1172.25,-141.88 939.38,-96 932.92,-94.73 926.19,-92.96 919.69,-90.99"/>
<polygon fill="#63b8ff" stroke="#63b8ff" points="1583.84,-150.35 1593.83,-146.82 1583.81,-143.35 1583.84,-150.35"/>
</g>
<!-- Node119 -->
<g id="node9" class="node">
<title>Node119</title>
<g id="a_node9"><a xlink:href="d__bomb_8h.html" target="_top" xlink:title=" ">
<polygon fill="white" stroke="#666666" points="653.88,-85 552.88,-85 552.88,-66 653.88,-66 653.88,-85"/>
<text text-anchor="middle" x="603.38" y="-73" font-family="Helvetica,sans-Serif" font-size="10.00">include/d/d_bomb.h</text>
</a>
</g>
</g>
<!-- Node4&#45;&gt;Node119 -->
<g id="edge8" class="edge">
<title>Node4&#45;&gt;Node119</title>
<path fill="none" stroke="#63b8ff" d="M1583.93,-144.63C1388.9,-140.48 844.64,-126.45 668.38,-96 654.8,-93.65 640.05,-89.38 628.04,-85.43"/>
<polygon fill="#63b8ff" stroke="#63b8ff" points="1583.58,-148.12 1593.66,-144.83 1583.73,-141.12 1583.58,-148.12"/>
</g>
<!-- Node120 -->
<g id="node10" class="node">
<title>Node120</title>
<g id="a_node10"><a xlink:href="d__bomb_8cpp.html" target="_top" xlink:title=" ">
<polygon fill="white" stroke="#666666" points="689.38,-19 595.38,-19 595.38,0 689.38,0 689.38,-19"/>
<text text-anchor="middle" x="642.38" y="-7" font-family="Helvetica,sans-Serif" font-size="10.00">src/d/d_bomb.cpp</text>
</a>
</g>
</g>
<!-- Node4&#45;&gt;Node120 -->
<g id="edge33" class="edge">
<title>Node4&#45;&gt;Node120</title>
<path fill="none" stroke="#63b8ff" d="M1583.86,-145.86C1376.36,-144.96 777.72,-138.66 701.38,-96 670.36,-78.67 652.14,-37.38 645.39,-19.27"/>
<polygon fill="#63b8ff" stroke="#63b8ff" points="1583.67,-149.36 1593.69,-145.9 1583.7,-142.36 1583.67,-149.36"/>
</g>
<!-- Node121 -->
<g id="node11" class="node">
<title>Node121</title>
<g id="a_node11"><a xlink:href="d__a__arrow_8h.html" target="_top" xlink:title=" ">
<polygon fill="white" stroke="#666666" points="1049.88,-90.5 948.88,-90.5 948.88,-60.5 1049.88,-60.5 1049.88,-90.5"/>
<text text-anchor="start" x="956.88" y="-78.5" font-family="Helvetica,sans-Serif" font-size="10.00">include/rel/d/a/d_a</text>
<text text-anchor="middle" x="999.38" y="-67.5" font-family="Helvetica,sans-Serif" font-size="10.00">_arrow/d_a_arrow.h</text>
</a>
</g>
</g>
<!-- Node4&#45;&gt;Node121 -->
<g id="edge11" class="edge">
<title>Node4&#45;&gt;Node121</title>
<path fill="none" stroke="#63b8ff" d="M1583.82,-144.72C1472.49,-141.66 1249.69,-131.26 1064.38,-96 1057.43,-94.68 1050.17,-92.91 1043.13,-90.97"/>
<polygon fill="#63b8ff" stroke="#63b8ff" points="1583.61,-148.22 1593.7,-144.98 1583.79,-141.22 1583.61,-148.22"/>
</g>
<!-- Node122 -->
<g id="node12" class="node">
<title>Node122</title>
<g id="a_node12"><a xlink:href="d__a__boomerang_8h.html" target="_top" xlink:title=" ">
<polygon fill="white" stroke="#666666" points="1255.88,-90.5 1106.88,-90.5 1106.88,-60.5 1255.88,-60.5 1255.88,-90.5"/>
<text text-anchor="start" x="1114.88" y="-78.5" font-family="Helvetica,sans-Serif" font-size="10.00">include/rel/d/a/d_a</text>
<text text-anchor="middle" x="1181.38" y="-67.5" font-family="Helvetica,sans-Serif" font-size="10.00">_boomerang/d_a_boomerang.h</text>
</a>
</g>
</g>
<!-- Node4&#45;&gt;Node122 -->
<g id="edge12" class="edge">
<title>Node4&#45;&gt;Node122</title>
<path fill="none" stroke="#63b8ff" d="M1583.96,-139.1C1505.79,-130.93 1376.04,-115.9 1265.38,-96 1257.27,-94.54 1248.78,-92.81 1240.42,-90.99"/>
<polygon fill="#63b8ff" stroke="#63b8ff" points="1583.3,-142.55 1593.61,-140.09 1584.02,-135.58 1583.3,-142.55"/>
</g>
<!-- Node73 -->
<g id="node13" class="node">
<title>Node73</title>
<g id="a_node13"><a xlink:href="d__a__player_8cpp.html" target="_top" xlink:title=" ">
<polygon fill="white" stroke="#666666" points="1186.38,-19 1072.38,-19 1072.38,0 1186.38,0 1186.38,-19"/>
<text text-anchor="middle" x="1129.38" y="-7" font-family="Helvetica,sans-Serif" font-size="10.00">src/d/a/d_a_player.cpp</text>
</a>
</g>
</g>
<!-- Node4&#45;&gt;Node73 -->
<g id="edge29" class="edge">
<title>Node4&#45;&gt;Node73</title>
<path fill="none" stroke="#63b8ff" d="M1583.69,-144.87C1441.06,-141.84 1129.59,-131.23 1097.38,-96 1076.74,-73.42 1105.41,-36.29 1120.77,-19.38"/>
<polygon fill="#63b8ff" stroke="#63b8ff" points="1583.32,-148.36 1593.39,-145.06 1583.46,-141.36 1583.32,-148.36"/>
</g>
<!-- Node123 -->
<g id="node14" class="node">
<title>Node123</title>
<g id="a_node14"><a xlink:href="d__a__canoe_8h.html" target="_top" xlink:title=" ">
<polygon fill="white" stroke="#666666" points="1380.38,-90.5 1274.38,-90.5 1274.38,-60.5 1380.38,-60.5 1380.38,-90.5"/>
<text text-anchor="start" x="1282.38" y="-78.5" font-family="Helvetica,sans-Serif" font-size="10.00">include/rel/d/a/d_a</text>
<text text-anchor="middle" x="1327.38" y="-67.5" font-family="Helvetica,sans-Serif" font-size="10.00">_canoe/d_a_canoe.h</text>
</a>
</g>
</g>
<!-- Node4&#45;&gt;Node123 -->
<g id="edge14" class="edge">
<title>Node4&#45;&gt;Node123</title>
<path fill="none" stroke="#63b8ff" d="M1583.89,-135.03C1530.21,-126.12 1454.67,-112.37 1389.38,-96 1383.47,-94.52 1377.29,-92.79 1371.23,-91"/>
<polygon fill="#63b8ff" stroke="#63b8ff" points="1583.07,-138.45 1593.51,-136.62 1584.21,-131.54 1583.07,-138.45"/>
</g>
<!-- Node124 -->
<g id="node15" class="node">
<title>Node124</title>
<g id="a_node15"><a xlink:href="d__a__crod_8h.html" target="_top" xlink:title=" ">
<polygon fill="white" stroke="#666666" points="252.38,-90.5 156.38,-90.5 156.38,-60.5 252.38,-60.5 252.38,-90.5"/>
<text text-anchor="start" x="164.38" y="-78.5" font-family="Helvetica,sans-Serif" font-size="10.00">include/rel/d/a/d_a</text>
<text text-anchor="middle" x="204.38" y="-67.5" font-family="Helvetica,sans-Serif" font-size="10.00">_crod/d_a_crod.h</text>
</a>
</g>
</g>
<!-- Node4&#45;&gt;Node124 -->
<g id="edge15" class="edge">
<title>Node4&#45;&gt;Node124</title>
<path fill="none" stroke="#63b8ff" d="M1583.73,-146.2C1337.64,-146.45 519.05,-143.62 261.38,-96 254.9,-94.8 248.16,-93.01 241.67,-91"/>
<polygon fill="#63b8ff" stroke="#63b8ff" points="1583.51,-149.7 1593.5,-146.18 1583.5,-142.7 1583.51,-149.7"/>
</g>
<!-- Node125 -->
<g id="node16" class="node">
<title>Node125</title>
<g id="a_node16"><a xlink:href="d__a__scene__exit_8h.html" target="_top" xlink:title=" ">
<polygon fill="white" stroke="#666666" points="389.88,-96 270.88,-96 270.88,-55 389.88,-55 389.88,-96"/>
<text text-anchor="start" x="278.88" y="-84" font-family="Helvetica,sans-Serif" font-size="10.00">include/rel/d/a/d_a</text>
<text text-anchor="start" x="278.88" y="-73" font-family="Helvetica,sans-Serif" font-size="10.00">_scene_exit/d_a_scene</text>
<text text-anchor="middle" x="330.38" y="-62" font-family="Helvetica,sans-Serif" font-size="10.00">_exit.h</text>
</a>
</g>
</g>
<!-- Node4&#45;&gt;Node125 -->
<g id="edge17" class="edge">
<title>Node4&#45;&gt;Node125</title>
<path fill="none" stroke="#63b8ff" d="M1583.96,-145.37C1354.54,-142.99 630.21,-132.69 399.38,-96 396.3,-95.51 393.17,-94.93 390.03,-94.29"/>
<polygon fill="#63b8ff" stroke="#63b8ff" points="1583.6,-148.87 1593.63,-145.47 1583.67,-141.87 1583.6,-148.87"/>
</g>
<!-- Node126 -->
<g id="node17" class="node">
<title>Node126</title>
<g id="a_node17"><a xlink:href="d__a__tboxSw_8h.html" target="_top" xlink:title=" ">
<polygon fill="white" stroke="#666666" points="1516.38,-90.5 1398.38,-90.5 1398.38,-60.5 1516.38,-60.5 1516.38,-90.5"/>
<text text-anchor="start" x="1406.38" y="-78.5" font-family="Helvetica,sans-Serif" font-size="10.00">include/rel/d/a/d_a</text>
<text text-anchor="middle" x="1457.38" y="-67.5" font-family="Helvetica,sans-Serif" font-size="10.00">_tboxSw/d_a_tboxSw.h</text>
</a>
</g>
</g>
<!-- Node4&#45;&gt;Node126 -->
<g id="edge19" class="edge">
<title>Node4&#45;&gt;Node126</title>
<path fill="none" stroke="#63b8ff" d="M1602.85,-127.82C1570.18,-116.3 1528.51,-101.59 1498.14,-90.88"/>
<polygon fill="#63b8ff" stroke="#63b8ff" points="1601.54,-131.07 1612.13,-131.1 1603.87,-124.47 1601.54,-131.07"/>
</g>
<!-- Node127 -->
<g id="node18" class="node">
<title>Node127</title>
<g id="a_node18"><a xlink:href="d__a__tag__escape_8h.html" target="_top" xlink:title=" ">
<polygon fill="white" stroke="#666666" points="1644.38,-96 1534.38,-96 1534.38,-55 1644.38,-55 1644.38,-96"/>
<text text-anchor="start" x="1542.38" y="-84" font-family="Helvetica,sans-Serif" font-size="10.00">include/rel/d/a/tag</text>
<text text-anchor="start" x="1542.38" y="-73" font-family="Helvetica,sans-Serif" font-size="10.00">/d_a_tag_escape/d_a</text>
<text text-anchor="middle" x="1589.38" y="-62" font-family="Helvetica,sans-Serif" font-size="10.00">_tag_escape.h</text>
</a>
</g>
</g>
<!-- Node4&#45;&gt;Node127 -->
<g id="edge20" class="edge">
<title>Node4&#45;&gt;Node127</title>
<path fill="none" stroke="#63b8ff" d="M1633.23,-123.39C1625.1,-114.69 1615.88,-104.84 1608,-96.42"/>
<polygon fill="#63b8ff" stroke="#63b8ff" points="1630.49,-125.58 1639.88,-130.49 1635.6,-120.8 1630.49,-125.58"/>
</g>
<!-- Node128 -->
<g id="node19" class="node">
<title>Node128</title>
<g id="a_node19"><a xlink:href="d__a__tag__instruction_8h.html" target="_top" xlink:title=" ">
<polygon fill="white" stroke="#666666" points="1774.38,-96 1662.38,-96 1662.38,-55 1774.38,-55 1774.38,-96"/>
<text text-anchor="start" x="1670.38" y="-84" font-family="Helvetica,sans-Serif" font-size="10.00">include/rel/d/a/tag</text>
<text text-anchor="start" x="1670.38" y="-73" font-family="Helvetica,sans-Serif" font-size="10.00">/d_a_tag_instruction</text>
<text text-anchor="middle" x="1718.38" y="-62" font-family="Helvetica,sans-Serif" font-size="10.00">/d_a_tag_instruction.h</text>
</a>
</g>
</g>
<!-- Node4&#45;&gt;Node128 -->
<g id="edge21" class="edge">
<title>Node4&#45;&gt;Node128</title>
<path fill="none" stroke="#63b8ff" d="M1675.2,-123.39C1683.21,-114.69 1692.28,-104.84 1700.04,-96.42"/>
<polygon fill="#63b8ff" stroke="#63b8ff" points="1672.86,-120.76 1668.66,-130.49 1678.01,-125.5 1672.86,-120.76"/>
</g>
<!-- Node129 -->
<g id="node20" class="node">
<title>Node129</title>
<g id="a_node20"><a xlink:href="d__a__tag__lv5soup_8h.html" target="_top" xlink:title=" ">
<polygon fill="white" stroke="#666666" points="1904.38,-96 1792.38,-96 1792.38,-55 1904.38,-55 1904.38,-96"/>
<text text-anchor="start" x="1800.38" y="-84" font-family="Helvetica,sans-Serif" font-size="10.00">include/rel/d/a/tag</text>
<text text-anchor="start" x="1800.38" y="-73" font-family="Helvetica,sans-Serif" font-size="10.00">/d_a_tag_lv5soup/d_a</text>
<text text-anchor="middle" x="1848.38" y="-62" font-family="Helvetica,sans-Serif" font-size="10.00">_tag_lv5soup.h</text>
</a>
</g>
</g>
<!-- Node4&#45;&gt;Node129 -->
<g id="edge22" class="edge">
<title>Node4&#45;&gt;Node129</title>
<path fill="none" stroke="#63b8ff" d="M1705.31,-127.75C1732.2,-118.12 1765.23,-106.29 1792.79,-96.42"/>
<polygon fill="#63b8ff" stroke="#63b8ff" points="1704.23,-124.42 1696,-131.09 1706.59,-131.01 1704.23,-124.42"/>
</g>
<!-- Node130 -->
<g id="node21" class="node">
<title>Node130</title>
<g id="a_node21"><a xlink:href="d__a__tag__magne_8h.html" target="_top" xlink:title=" ">
<polygon fill="#fff0f0" stroke="red" points="534.38,-96 408.38,-96 408.38,-55 534.38,-55 534.38,-96"/>
<text text-anchor="start" x="416.38" y="-84" font-family="Helvetica,sans-Serif" font-size="10.00">include/rel/d/a/tag</text>
<text text-anchor="start" x="416.38" y="-73" font-family="Helvetica,sans-Serif" font-size="10.00">/d_a_tag_magne/d_a_tag</text>
<text text-anchor="middle" x="471.38" y="-62" font-family="Helvetica,sans-Serif" font-size="10.00">_magne.h</text>
</a>
</g>
</g>
<!-- Node4&#45;&gt;Node130 -->
<g id="edge23" class="edge">
<title>Node4&#45;&gt;Node130</title>
<path fill="none" stroke="#63b8ff" d="M1583.95,-144.85C1372.47,-141.08 745.22,-127.48 543.38,-96 540.56,-95.56 537.7,-95.05 534.82,-94.49"/>
<polygon fill="#63b8ff" stroke="#63b8ff" points="1583.62,-148.35 1593.68,-145.02 1583.74,-141.35 1583.62,-148.35"/>
</g>
<!-- Node131 -->
<g id="node22" class="node">
<title>Node131</title>
<g id="a_node22"><a xlink:href="d__a__tag__setBall_8h.html" target="_top" xlink:title=" ">
<polygon fill="white" stroke="#666666" points="2030.38,-96 1922.38,-96 1922.38,-55 2030.38,-55 2030.38,-96"/>
<text text-anchor="start" x="1930.38" y="-84" font-family="Helvetica,sans-Serif" font-size="10.00">include/rel/d/a/tag</text>
<text text-anchor="start" x="1930.38" y="-73" font-family="Helvetica,sans-Serif" font-size="10.00">/d_a_tag_setBall/d_a</text>
<text text-anchor="middle" x="1976.38" y="-62" font-family="Helvetica,sans-Serif" font-size="10.00">_tag_setBall.h</text>
</a>
</g>
</g>
<!-- Node4&#45;&gt;Node131 -->
<g id="edge25" class="edge">
<title>Node4&#45;&gt;Node131</title>
<path fill="none" stroke="#63b8ff" d="M1724.85,-134.54C1777.19,-125.52 1850.16,-111.84 1913.38,-96 1916.27,-95.28 1919.22,-94.5 1922.19,-93.69"/>
<polygon fill="#63b8ff" stroke="#63b8ff" points="1724.43,-131.06 1715.16,-136.2 1725.61,-137.96 1724.43,-131.06"/>
</g>
<!-- Node132 -->
<g id="node23" class="node">
<title>Node132</title>
<g id="a_node23"><a xlink:href="d__a__tag__setrestart_8h.html" target="_top" xlink:title=" ">
<polygon fill="white" stroke="#666666" points="2156.38,-96 2048.38,-96 2048.38,-55 2156.38,-55 2156.38,-96"/>
<text text-anchor="start" x="2056.38" y="-84" font-family="Helvetica,sans-Serif" font-size="10.00">include/rel/d/a/tag</text>
<text text-anchor="start" x="2056.38" y="-73" font-family="Helvetica,sans-Serif" font-size="10.00">/d_a_tag_setrestart</text>
<text text-anchor="middle" x="2102.38" y="-62" font-family="Helvetica,sans-Serif" font-size="10.00">/d_a_tag_setrestart.h</text>
</a>
</g>
</g>
<!-- Node4&#45;&gt;Node132 -->
<g id="edge26" class="edge">
<title>Node4&#45;&gt;Node132</title>
<path fill="none" stroke="#63b8ff" d="M1724.7,-140.5C1802.36,-133.59 1930.79,-119.67 2039.38,-96 2042.18,-95.39 2045.03,-94.71 2047.89,-93.99"/>
<polygon fill="#63b8ff" stroke="#63b8ff" points="1724.78,-136.98 1715.13,-141.34 1725.39,-143.96 1724.78,-136.98"/>
</g>
<!-- Node133 -->
<g id="node24" class="node">
<title>Node133</title>
<g id="a_node24"><a xlink:href="d__a__tag__wara__howl_8h.html" target="_top" xlink:title=" ">
<polygon fill="white" stroke="#666666" points="2288.38,-96 2174.38,-96 2174.38,-55 2288.38,-55 2288.38,-96"/>
<text text-anchor="start" x="2182.38" y="-84" font-family="Helvetica,sans-Serif" font-size="10.00">include/rel/d/a/tag</text>
<text text-anchor="start" x="2182.38" y="-73" font-family="Helvetica,sans-Serif" font-size="10.00">/d_a_tag_wara_howl/d</text>
<text text-anchor="middle" x="2231.38" y="-62" font-family="Helvetica,sans-Serif" font-size="10.00">_a_tag_wara_howl.h</text>
</a>
</g>
</g>
<!-- Node4&#45;&gt;Node133 -->
<g id="edge27" class="edge">
<title>Node4&#45;&gt;Node133</title>
<path fill="none" stroke="#63b8ff" d="M1724.89,-143.33C1824.03,-138.62 2009.89,-126.29 2165.38,-96 2168.19,-95.45 2171.06,-94.83 2173.94,-94.17"/>
<polygon fill="#63b8ff" stroke="#63b8ff" points="1724.87,-139.83 1715.04,-143.79 1725.19,-146.82 1724.87,-139.83"/>
</g>
<!-- Node134 -->
<g id="node25" class="node">
<title>Node134</title>
<g id="a_node25"><a xlink:href="d__bg__s__acch_8cpp.html" target="_top" xlink:title=" ">
<polygon fill="white" stroke="#666666" points="2437.88,-85 2306.88,-85 2306.88,-66 2437.88,-66 2437.88,-85"/>
<text text-anchor="middle" x="2372.38" y="-73" font-family="Helvetica,sans-Serif" font-size="10.00">src/d/bg/d_bg_s_acch.cpp</text>
</a>
</g>
</g>
<!-- Node4&#45;&gt;Node134 -->
<g id="edge30" class="edge">
<title>Node4&#45;&gt;Node134</title>
<path fill="none" stroke="#63b8ff" d="M1725.21,-144.58C1844.19,-141.28 2091.38,-130.51 2297.38,-96 2312.64,-93.44 2329.32,-89.25 2343.07,-85.4"/>
<polygon fill="#63b8ff" stroke="#63b8ff" points="1725.17,-141.08 1715.27,-144.84 1725.36,-148.07 1725.17,-141.08"/>
</g>
<!-- Node135 -->
<g id="node26" class="node">
<title>Node135</title>
<g id="a_node26"><a xlink:href="d__bg__s__lin__chk_8cpp.html" target="_top" xlink:title=" ">
<polygon fill="white" stroke="#666666" points="2556.88,-90.5 2455.88,-90.5 2455.88,-60.5 2556.88,-60.5 2556.88,-90.5"/>
<text text-anchor="start" x="2463.88" y="-78.5" font-family="Helvetica,sans-Serif" font-size="10.00">src/d/bg/d_bg_s_lin</text>
<text text-anchor="middle" x="2506.38" y="-67.5" font-family="Helvetica,sans-Serif" font-size="10.00">_chk.cpp</text>
</a>
</g>
</g>
<!-- Node4&#45;&gt;Node135 -->
<g id="edge31" class="edge">
<title>Node4&#45;&gt;Node135</title>
<path fill="none" stroke="#63b8ff" d="M1725.15,-143.81C1892.57,-138.26 2309.2,-122.19 2446.38,-96 2453.05,-94.73 2460.01,-92.93 2466.72,-90.93"/>
<polygon fill="#63b8ff" stroke="#63b8ff" points="1725.16,-140.31 1715.28,-144.13 1725.39,-147.3 1725.16,-140.31"/>
</g>
<!-- Node136 -->
<g id="node27" class="node">
<title>Node136</title>
<g id="a_node27"><a xlink:href="d__cc__d__nonmatching_8cpp.html" target="_top" xlink:title=" ">
<polygon fill="white" stroke="#666666" points="2739.88,-85 2574.88,-85 2574.88,-66 2739.88,-66 2739.88,-85"/>
<text text-anchor="middle" x="2657.38" y="-73" font-family="Helvetica,sans-Serif" font-size="10.00">src/d/cc/d_cc_d_nonmatching.cpp</text>
</a>
</g>
</g>
<!-- Node4&#45;&gt;Node136 -->
<g id="edge32" class="edge">
<title>Node4&#45;&gt;Node136</title>
<path fill="none" stroke="#63b8ff" d="M1724.93,-145.82C1878.44,-144.61 2254.02,-137.29 2565.38,-96 2583.99,-93.53 2604.45,-89.35 2621.33,-85.48"/>
<polygon fill="#63b8ff" stroke="#63b8ff" points="1725.31,-142.31 1715.34,-145.89 1725.36,-149.31 1725.31,-142.31"/>
</g>
<!-- Node88 -->
<g id="node28" class="node">
<title>Node88</title>
<g id="a_node28"><a xlink:href="d__insect_8cpp.html" target="_top" xlink:title=" ">
<polygon fill="white" stroke="#666666" points="2854.38,-85 2758.38,-85 2758.38,-66 2854.38,-66 2854.38,-85"/>
<text text-anchor="middle" x="2806.38" y="-73" font-family="Helvetica,sans-Serif" font-size="10.00">src/d/d_insect.cpp</text>
</a>
</g>
</g>
<!-- Node4&#45;&gt;Node88 -->
<g id="edge34" class="edge">
<title>Node4&#45;&gt;Node88</title>
<path fill="none" stroke="#63b8ff" d="M1725.23,-145.33C1935.09,-142.95 2551.09,-132.92 2748.38,-96 2760.6,-93.71 2773.76,-89.44 2784.45,-85.48"/>
<polygon fill="#63b8ff" stroke="#63b8ff" points="1725.24,-141.83 1715.28,-145.44 1725.32,-148.83 1725.24,-141.83"/>
</g>
<!-- Node137 -->
<g id="node29" class="node">
<title>Node137</title>
<g id="a_node29"><a xlink:href="d__jnt__col_8cpp.html" target="_top" xlink:title=" ">
<polygon fill="white" stroke="#666666" points="2970.38,-85 2872.38,-85 2872.38,-66 2970.38,-66 2970.38,-85"/>
<text text-anchor="middle" x="2921.38" y="-73" font-family="Helvetica,sans-Serif" font-size="10.00">src/d/d_jnt_col.cpp</text>
</a>
</g>
</g>
<!-- Node4&#45;&gt;Node137 -->
<g id="edge35" class="edge">
<title>Node4&#45;&gt;Node137</title>
<path fill="none" stroke="#63b8ff" d="M1724.93,-145.7C1949.02,-144.32 2642.82,-136.78 2863.38,-96 2875.7,-93.72 2888.99,-89.4 2899.73,-85.4"/>
<polygon fill="#63b8ff" stroke="#63b8ff" points="1725.16,-142.19 1715.18,-145.75 1725.2,-149.19 1725.16,-142.19"/>
</g>
<!-- Node51 -->
<g id="node30" class="node">
<title>Node51</title>
<g id="a_node30"><a xlink:href="d__event_8cpp.html" target="_top" xlink:title=" ">
<polygon fill="white" stroke="#666666" points="3109.88,-85 2988.88,-85 2988.88,-66 3109.88,-66 3109.88,-85"/>
<text text-anchor="middle" x="3049.38" y="-73" font-family="Helvetica,sans-Serif" font-size="10.00">src/d/event/d_event.cpp</text>
</a>
</g>
</g>
<!-- Node4&#45;&gt;Node51 -->
<g id="edge36" class="edge">
<title>Node4&#45;&gt;Node51</title>
<path fill="none" stroke="#63b8ff" d="M1725.07,-145.51C1963.12,-143.52 2734.33,-134.21 2979.38,-96 2993.96,-93.73 3009.84,-89.46 3022.78,-85.49"/>
<polygon fill="#63b8ff" stroke="#63b8ff" points="1725.29,-142.01 1715.32,-145.59 1725.35,-149.01 1725.29,-142.01"/>
</g>
<!-- Node97 -->
<g id="node31" class="node">
<title>Node97</title>
<g id="a_node31"><a xlink:href="d__event__lib_8cpp.html" target="_top" xlink:title=" ">
<polygon fill="white" stroke="#666666" points="3230.88,-90.5 3127.88,-90.5 3127.88,-60.5 3230.88,-60.5 3230.88,-90.5"/>
<text text-anchor="start" x="3135.88" y="-78.5" font-family="Helvetica,sans-Serif" font-size="10.00">src/d/event/d_event</text>
<text text-anchor="middle" x="3179.38" y="-67.5" font-family="Helvetica,sans-Serif" font-size="10.00">_lib.cpp</text>
</a>
</g>
</g>
<!-- Node4&#45;&gt;Node97 -->
<g id="edge37" class="edge">
<title>Node4&#45;&gt;Node97</title>
<path fill="none" stroke="#63b8ff" d="M1725.15,-146.16C1979.4,-146.31 2845.84,-143.28 3118.38,-96 3125.28,-94.8 3132.48,-93.01 3139.41,-91"/>
<polygon fill="#63b8ff" stroke="#63b8ff" points="1725.39,-142.66 1715.38,-146.15 1725.38,-149.66 1725.39,-142.66"/>
</g>
<!-- Node138 -->
<g id="node32" class="node">
<title>Node138</title>
<g id="a_node32"><a xlink:href="d__shop__item__ctrl_8cpp.html" target="_top" xlink:title=" ">
<polygon fill="white" stroke="#666666" points="3369.88,-90.5 3248.88,-90.5 3248.88,-60.5 3369.88,-60.5 3369.88,-90.5"/>
<text text-anchor="start" x="3256.88" y="-78.5" font-family="Helvetica,sans-Serif" font-size="10.00">src/d/shop/d_shop_item</text>
<text text-anchor="middle" x="3309.38" y="-67.5" font-family="Helvetica,sans-Serif" font-size="10.00">_ctrl.cpp</text>
</a>
</g>
</g>
<!-- Node4&#45;&gt;Node138 -->
<g id="edge38" class="edge">
<title>Node4&#45;&gt;Node138</title>
<path fill="none" stroke="#63b8ff" d="M1725.03,-146.02C1992.27,-145.76 2941.21,-141.55 3239.38,-96 3247.23,-94.8 3255.46,-93.01 3263.41,-90.99"/>
<polygon fill="#63b8ff" stroke="#63b8ff" points="1725.08,-142.52 1715.08,-146.03 1725.08,-149.52 1725.08,-142.52"/>
</g>
<!-- Node108 -->
<g id="node33" class="node">
<title>Node108</title>
<g id="a_node33"><a xlink:href="f__op__actor__mng_8cpp.html" target="_top" xlink:title=" ">
<polygon fill="white" stroke="#666666" points="3488.88,-90.5 3387.88,-90.5 3387.88,-60.5 3488.88,-60.5 3488.88,-90.5"/>
<text text-anchor="start" x="3395.88" y="-78.5" font-family="Helvetica,sans-Serif" font-size="10.00">src/f_op/f_op_actor</text>
<text text-anchor="middle" x="3438.38" y="-67.5" font-family="Helvetica,sans-Serif" font-size="10.00">_mng.cpp</text>
</a>
</g>
</g>
<!-- Node4&#45;&gt;Node108 -->
<g id="edge39" class="edge">
<title>Node4&#45;&gt;Node108</title>
<path fill="none" stroke="#63b8ff" d="M1724.71,-145.14C2027.72,-141.29 3213.89,-124.51 3378.38,-96 3385.29,-94.8 3392.49,-92.99 3399.41,-90.93"/>
<polygon fill="#63b8ff" stroke="#63b8ff" points="1724.93,-141.64 1714.97,-145.27 1725.02,-148.64 1724.93,-141.64"/>
</g>
<!-- Node5&#45;&gt;Node16 -->
<g id="edge5" class="edge">
<title>Node5&#45;&gt;Node16</title>
<path fill="none" stroke="#63b8ff" d="M117.09,-61.93C153.69,-49.41 208.97,-30.49 241.3,-19.43"/>
<polygon fill="#63b8ff" stroke="#63b8ff" points="116.14,-58.56 107.81,-65.11 118.41,-65.18 116.14,-58.56"/>
</g>
<!-- Node119&#45;&gt;Node16 -->
<g id="edge9" class="edge">
<title>Node119&#45;&gt;Node16</title>
<path fill="none" stroke="#63b8ff" d="M567.93,-61.98C559.92,-59.43 551.41,-56.94 543.38,-55 467.66,-36.71 378.4,-23.86 322.34,-16.82"/>
<polygon fill="#63b8ff" stroke="#63b8ff" points="566.78,-65.29 577.37,-65.09 568.97,-58.64 566.78,-65.29"/>
</g>
<!-- Node119&#45;&gt;Node120 -->
<g id="edge10" class="edge">
<title>Node119&#45;&gt;Node120</title>
<path fill="none" stroke="#63b8ff" d="M614.63,-56.03C621.99,-43.96 631.26,-28.75 637,-19.32"/>
<polygon fill="#63b8ff" stroke="#63b8ff" points="611.8,-53.95 609.59,-64.31 617.78,-57.59 611.8,-53.95"/>
</g>
<!-- Node122&#45;&gt;Node73 -->
<g id="edge13" class="edge">
<title>Node122&#45;&gt;Node73</title>
<path fill="none" stroke="#63b8ff" d="M1162.65,-51.45C1153.6,-40.31 1143.28,-27.61 1136.56,-19.34"/>
<polygon fill="#63b8ff" stroke="#63b8ff" points="1159.86,-53.57 1168.88,-59.12 1165.29,-49.15 1159.86,-53.57"/>
</g>
<!-- Node124&#45;&gt;Node16 -->
<g id="edge16" class="edge">
<title>Node124&#45;&gt;Node16</title>
<path fill="none" stroke="#63b8ff" d="M226.42,-52.11C237.53,-40.82 250.37,-27.78 258.67,-19.34"/>
<polygon fill="#63b8ff" stroke="#63b8ff" points="223.94,-49.64 219.42,-59.22 228.93,-54.55 223.94,-49.64"/>
</g>
<!-- Node125&#45;&gt;Node16 -->
<g id="edge18" class="edge">
<title>Node125&#45;&gt;Node16</title>
<path fill="none" stroke="#63b8ff" d="M302.82,-46.51C293.1,-36.63 282.86,-26.23 275.91,-19.16"/>
<polygon fill="#63b8ff" stroke="#63b8ff" points="300.22,-48.85 309.73,-53.52 305.21,-43.94 300.22,-48.85"/>
</g>
<!-- Node130&#45;&gt;Node16 -->
<g id="edge24" class="edge">
<title>Node130&#45;&gt;Node16</title>
<path fill="none" stroke="#63b8ff" d="M397.2,-51.23C361.98,-40.18 321.98,-27.63 295.8,-19.42"/>
<polygon fill="#63b8ff" stroke="#63b8ff" points="395.92,-54.49 406.51,-54.15 398.01,-47.81 395.92,-54.49"/>
</g>
<!-- Node139&#45;&gt;Node64 -->
<g id="edge41" class="edge">
<title>Node139&#45;&gt;Node64</title>
<path fill="none" stroke="#63b8ff" d="M3598.8,-56.4C3589.71,-44.27 3578.14,-28.84 3571,-19.32"/>
<polygon fill="#63b8ff" stroke="#63b8ff" points="3596,-58.49 3604.8,-64.39 3601.6,-54.29 3596,-58.49"/>
</g>
<!-- Node140&#45;&gt;Node139 -->
<g id="edge43" class="edge">
<title>Node140&#45;&gt;Node139</title>
<path fill="none" stroke="#63b8ff" d="M3665.26,-124.23C3650.63,-111.03 3632.77,-94.9 3621.99,-85.18"/>
<polygon fill="#63b8ff" stroke="#63b8ff" points="3662.53,-126.48 3672.3,-130.59 3667.22,-121.29 3662.53,-126.48"/>
</g>
<!-- Node94 -->
<g id="node37" class="node">
<title>Node94</title>
<g id="a_node37"><a xlink:href="d__stage_8cpp.html" target="_top" xlink:title=" ">
<polygon fill="white" stroke="#666666" points="3791.38,-85 3697.38,-85 3697.38,-66 3791.38,-66 3791.38,-85"/>
<text text-anchor="middle" x="3744.38" y="-73" font-family="Helvetica,sans-Serif" font-size="10.00">src/d/d_stage.cpp</text>
</a>
</g>
</g>
<!-- Node140&#45;&gt;Node94 -->
<g id="edge44" class="edge">
<title>Node140&#45;&gt;Node94</title>
<path fill="none" stroke="#63b8ff" d="M3707.79,-122.74C3718,-109.83 3730.1,-94.54 3737.51,-85.18"/>
<polygon fill="#63b8ff" stroke="#63b8ff" points="3705.17,-120.4 3701.71,-130.41 3710.66,-124.74 3705.17,-120.4"/>
</g>
<!-- Node141&#45;&gt;Node143 -->
<g id="edge46" class="edge">
<title>Node141&#45;&gt;Node143</title>
<path fill="none" stroke="#63b8ff" d="M3870.38,-120.46C3870.38,-108.07 3870.38,-93.99 3870.38,-85.18"/>
<polygon fill="#63b8ff" stroke="#63b8ff" points="3866.88,-120.09 3870.38,-130.09 3873.88,-120.09 3866.88,-120.09"/>
</g>
</g>
</svg>
