<?xml version="1.0" encoding="UTF-8" standalone="no"?>
<!DOCTYPE svg PUBLIC "-//W3C//DTD SVG 1.1//EN"
 "http://www.w3.org/Graphics/SVG/1.1/DTD/svg11.dtd">
<!-- Generated by graphviz version 7.0.5 (20221223.1930)
 -->
<!-- Title: include/SSystem/SComponent/c_tag_iter.h Pages: 1 -->
<svg width="3873pt" height="368pt"
 viewBox="0.00 0.00 3873.00 368.00" xmlns="http://www.w3.org/2000/svg" xmlns:xlink="http://www.w3.org/1999/xlink">
<g id="graph0" class="graph" transform="scale(1 1) rotate(0) translate(4 364)">
<title>include/SSystem/SComponent/c_tag_iter.h</title>
<!-- Node1 -->
<g id="node1" class="node">
<title>Node1</title>
<g id="a_node1"><a xlink:title=" ">
<polygon fill="#999999" stroke="#666666" points="1772,-360 1623,-360 1623,-330 1772,-330 1772,-360"/>
<text text-anchor="start" x="1631" y="-348" font-family="Helvetica,sans-Serif" font-size="10.00">include/SSystem/SComponent</text>
<text text-anchor="middle" x="1697.5" y="-337" font-family="Helvetica,sans-Serif" font-size="10.00">/c_tag_iter.h</text>
</a>
</g>
</g>
<!-- Node2 -->
<g id="node2" class="node">
<title>Node2</title>
<g id="a_node2"><a xlink:href="f__pc__create__iter_8h.html" target="_top" xlink:title=" ">
<polygon fill="white" stroke="#666666" points="1416,-294 1293,-294 1293,-264 1416,-264 1416,-294"/>
<text text-anchor="start" x="1301" y="-282" font-family="Helvetica,sans-Serif" font-size="10.00">include/f_pc/f_pc_create</text>
<text text-anchor="middle" x="1354.5" y="-271" font-family="Helvetica,sans-Serif" font-size="10.00">_iter.h</text>
</a>
</g>
</g>
<!-- Node1&#45;&gt;Node2 -->
<g id="edge1" class="edge">
<title>Node1&#45;&gt;Node2</title>
<path fill="none" stroke="#63b8ff" d="M1611.54,-328.49C1557.99,-318.76 1487.7,-305.85 1425.5,-294 1422.54,-293.44 1419.51,-292.85 1416.45,-292.26"/>
<polygon fill="#63b8ff" stroke="#63b8ff" points="1610.74,-331.9 1621.21,-330.25 1612,-325.02 1610.74,-331.9"/>
</g>
<!-- Node151 -->
<g id="node46" class="node">
<title>Node151</title>
<g id="a_node46"><a xlink:href="c__tag__iter_8cpp.html" target="_top" xlink:title=" ">
<polygon fill="white" stroke="#666666" points="1568.5,-294 1434.5,-294 1434.5,-264 1568.5,-264 1568.5,-294"/>
<text text-anchor="start" x="1442.5" y="-282" font-family="Helvetica,sans-Serif" font-size="10.00">libs/SSystem/SComponent</text>
<text text-anchor="middle" x="1501.5" y="-271" font-family="Helvetica,sans-Serif" font-size="10.00">/c_tag_iter.cpp</text>
</a>
</g>
</g>
<!-- Node1&#45;&gt;Node151 -->
<g id="edge56" class="edge">
<title>Node1&#45;&gt;Node151</title>
<path fill="none" stroke="#63b8ff" d="M1642.58,-326.07C1611.98,-316.07 1574.37,-303.79 1545.68,-294.43"/>
<polygon fill="#63b8ff" stroke="#63b8ff" points="1641.48,-329.39 1652.07,-329.17 1643.66,-322.74 1641.48,-329.39"/>
</g>
<!-- Node152 -->
<g id="node47" class="node">
<title>Node152</title>
<g id="a_node47"><a xlink:href="f__op__actor__iter_8cpp.html" target="_top" xlink:title=" ">
<polygon fill="white" stroke="#666666" points="1688,-294 1587,-294 1587,-264 1688,-264 1688,-294"/>
<text text-anchor="start" x="1595" y="-282" font-family="Helvetica,sans-Serif" font-size="10.00">src/f_op/f_op_actor</text>
<text text-anchor="middle" x="1637.5" y="-271" font-family="Helvetica,sans-Serif" font-size="10.00">_iter.cpp</text>
</a>
</g>
</g>
<!-- Node1&#45;&gt;Node152 -->
<g id="edge57" class="edge">
<title>Node1&#45;&gt;Node152</title>
<path fill="none" stroke="#63b8ff" d="M1676.43,-321.53C1667.9,-312.43 1658.31,-302.19 1650.78,-294.16"/>
<polygon fill="#63b8ff" stroke="#63b8ff" points="1673.76,-323.79 1683.15,-328.69 1678.86,-319 1673.76,-323.79"/>
</g>
<!-- Node153 -->
<g id="node48" class="node">
<title>Node153</title>
<g id="a_node48"><a xlink:href="f__op__scene__iter_8cpp.html" target="_top" xlink:title=" ">
<polygon fill="white" stroke="#666666" points="1811,-294 1706,-294 1706,-264 1811,-264 1811,-294"/>
<text text-anchor="start" x="1714" y="-282" font-family="Helvetica,sans-Serif" font-size="10.00">src/f_op/f_op_scene</text>
<text text-anchor="middle" x="1758.5" y="-271" font-family="Helvetica,sans-Serif" font-size="10.00">_iter.cpp</text>
</a>
</g>
</g>
<!-- Node1&#45;&gt;Node153 -->
<g id="edge58" class="edge">
<title>Node1&#45;&gt;Node153</title>
<path fill="none" stroke="#63b8ff" d="M1718.92,-321.53C1727.59,-312.43 1737.35,-302.19 1745,-294.16"/>
<polygon fill="#63b8ff" stroke="#63b8ff" points="1716.45,-319.05 1712.08,-328.7 1721.52,-323.88 1716.45,-319.05"/>
</g>
<!-- Node154 -->
<g id="node49" class="node">
<title>Node154</title>
<g id="a_node49"><a xlink:href="f__pc__layer__iter_8cpp.html" target="_top" xlink:title=" ">
<polygon fill="white" stroke="#666666" points="1928,-294 1829,-294 1829,-264 1928,-264 1928,-294"/>
<text text-anchor="start" x="1837" y="-282" font-family="Helvetica,sans-Serif" font-size="10.00">src/f_pc/f_pc_layer</text>
<text text-anchor="middle" x="1878.5" y="-271" font-family="Helvetica,sans-Serif" font-size="10.00">_iter.cpp</text>
</a>
</g>
</g>
<!-- Node1&#45;&gt;Node154 -->
<g id="edge59" class="edge">
<title>Node1&#45;&gt;Node154</title>
<path fill="none" stroke="#63b8ff" d="M1748.96,-325.8C1777.09,-315.86 1811.44,-303.71 1837.7,-294.43"/>
<polygon fill="#63b8ff" stroke="#63b8ff" points="1747.81,-322.5 1739.55,-329.13 1750.14,-329.1 1747.81,-322.5"/>
</g>
<!-- Node155 -->
<g id="node50" class="node">
<title>Node155</title>
<g id="a_node50"><a xlink:href="f__pc__line__iter_8cpp.html" target="_top" xlink:title=" ">
<polygon fill="white" stroke="#666666" points="2040.5,-294 1946.5,-294 1946.5,-264 2040.5,-264 2040.5,-294"/>
<text text-anchor="start" x="1954.5" y="-282" font-family="Helvetica,sans-Serif" font-size="10.00">src/f_pc/f_pc_line</text>
<text text-anchor="middle" x="1993.5" y="-271" font-family="Helvetica,sans-Serif" font-size="10.00">_iter.cpp</text>
</a>
</g>
</g>
<!-- Node1&#45;&gt;Node155 -->
<g id="edge60" class="edge">
<title>Node1&#45;&gt;Node155</title>
<path fill="none" stroke="#63b8ff" d="M1781.81,-327.29C1827.9,-317.93 1885.95,-305.81 1937.5,-294 1940.33,-293.35 1943.24,-292.67 1946.18,-291.97"/>
<polygon fill="#63b8ff" stroke="#63b8ff" points="1781.25,-323.83 1772.14,-329.24 1782.64,-330.69 1781.25,-323.83"/>
</g>
<!-- Node3 -->
<g id="node3" class="node">
<title>Node3</title>
<g id="a_node3"><a xlink:href="f__pc__manager_8h.html" target="_top" xlink:title=" ">
<polygon fill="white" stroke="#666666" points="617,-222.5 476,-222.5 476,-203.5 617,-203.5 617,-222.5"/>
<text text-anchor="middle" x="546.5" y="-210.5" font-family="Helvetica,sans-Serif" font-size="10.00">include/f_pc/f_pc_manager.h</text>
</a>
</g>
</g>
<!-- Node2&#45;&gt;Node3 -->
<g id="edge2" class="edge">
<title>Node2&#45;&gt;Node3</title>
<path fill="none" stroke="#63b8ff" d="M1281.58,-272.22C1127.37,-260.01 769.84,-231.69 617.41,-219.62"/>
<polygon fill="#63b8ff" stroke="#63b8ff" points="1281.02,-275.69 1291.26,-272.99 1281.57,-268.71 1281.02,-275.69"/>
</g>
<!-- Node110 -->
<g id="node43" class="node">
<title>Node110</title>
<g id="a_node43"><a xlink:href="f__pc__manager_8cpp.html" target="_top" xlink:title=" ">
<polygon fill="white" stroke="#666666" points="2068.5,-156.5 1934.5,-156.5 1934.5,-137.5 2068.5,-137.5 2068.5,-156.5"/>
<text text-anchor="middle" x="2001.5" y="-144.5" font-family="Helvetica,sans-Serif" font-size="10.00">src/f_pc/f_pc_manager.cpp</text>
</a>
</g>
</g>
<!-- Node2&#45;&gt;Node110 -->
<g id="edge55" class="edge">
<title>Node2&#45;&gt;Node110</title>
<path fill="none" stroke="#63b8ff" d="M1337.78,-254.03C1327.72,-236.42 1319.35,-213.04 1333.5,-198 1378.66,-150.01 1860.09,-169.98 1925.5,-162 1936.02,-160.72 1947.29,-158.89 1957.83,-156.98"/>
<polygon fill="#63b8ff" stroke="#63b8ff" points="1334.69,-255.69 1342.94,-262.34 1340.63,-251.99 1334.69,-255.69"/>
</g>
<!-- Node149 -->
<g id="node44" class="node">
<title>Node149</title>
<g id="a_node44"><a xlink:href="f__pc__create__iter_8cpp.html" target="_top" xlink:title=" ">
<polygon fill="white" stroke="#666666" points="1448.5,-228 1342.5,-228 1342.5,-198 1448.5,-198 1448.5,-228"/>
<text text-anchor="start" x="1350.5" y="-216" font-family="Helvetica,sans-Serif" font-size="10.00">src/f_pc/f_pc_create</text>
<text text-anchor="middle" x="1395.5" y="-205" font-family="Helvetica,sans-Serif" font-size="10.00">_iter.cpp</text>
</a>
</g>
</g>
<!-- Node2&#45;&gt;Node149 -->
<g id="edge53" class="edge">
<title>Node2&#45;&gt;Node149</title>
<path fill="none" stroke="#63b8ff" d="M1369.8,-254.11C1375.4,-245.38 1381.55,-235.78 1386.43,-228.16"/>
<polygon fill="#63b8ff" stroke="#63b8ff" points="1366.86,-252.21 1364.42,-262.52 1372.76,-255.99 1366.86,-252.21"/>
</g>
<!-- Node150 -->
<g id="node45" class="node">
<title>Node150</title>
<g id="a_node45"><a xlink:href="f__pc__create__req_8cpp.html" target="_top" xlink:title=" ">
<polygon fill="white" stroke="#666666" points="1572.5,-228 1466.5,-228 1466.5,-198 1572.5,-198 1572.5,-228"/>
<text text-anchor="start" x="1474.5" y="-216" font-family="Helvetica,sans-Serif" font-size="10.00">src/f_pc/f_pc_create</text>
<text text-anchor="middle" x="1519.5" y="-205" font-family="Helvetica,sans-Serif" font-size="10.00">_req.cpp</text>
</a>
</g>
</g>
<!-- Node2&#45;&gt;Node150 -->
<g id="edge54" class="edge">
<title>Node2&#45;&gt;Node150</title>
<path fill="none" stroke="#63b8ff" d="M1402.09,-259.54C1427.61,-249.64 1458.58,-237.63 1482.31,-228.43"/>
<polygon fill="#63b8ff" stroke="#63b8ff" points="1401,-256.21 1392.94,-263.09 1403.53,-262.74 1401,-256.21"/>
</g>
<!-- Node4 -->
<g id="node4" class="node">
<title>Node4</title>
<g id="a_node4"><a xlink:href="f__op__actor__mng_8h.html" target="_top" xlink:title=" ">
<polygon fill="white" stroke="#666666" points="1916.5,-162 1798.5,-162 1798.5,-132 1916.5,-132 1916.5,-162"/>
<text text-anchor="start" x="1806.5" y="-150" font-family="Helvetica,sans-Serif" font-size="10.00">include/f_op/f_op_actor</text>
<text text-anchor="middle" x="1857.5" y="-139" font-family="Helvetica,sans-Serif" font-size="10.00">_mng.h</text>
</a>
</g>
</g>
<!-- Node3&#45;&gt;Node4 -->
<g id="edge3" class="edge">
<title>Node3&#45;&gt;Node4</title>
<path fill="none" stroke="#63b8ff" d="M628.7,-207.99C872.43,-196.09 1587.35,-161.19 1798.27,-150.89"/>
<polygon fill="#63b8ff" stroke="#63b8ff" points="628.78,-204.48 618.96,-208.46 629.12,-211.47 628.78,-204.48"/>
</g>
<!-- Node139 -->
<g id="node34" class="node">
<title>Node139</title>
<g id="a_node34"><a xlink:href="f__op__kankyo_8h.html" target="_top" xlink:title=" ">
<polygon fill="white" stroke="#666666" points="165.5,-85 31.5,-85 31.5,-66 165.5,-66 165.5,-85"/>
<text text-anchor="middle" x="98.5" y="-73" font-family="Helvetica,sans-Serif" font-size="10.00">include/f_op/f_op_kankyo.h</text>
</a>
</g>
</g>
<!-- Node3&#45;&gt;Node139 -->
<g id="edge40" class="edge">
<title>Node3&#45;&gt;Node139</title>
<path fill="none" stroke="#63b8ff" d="M464.43,-207.16C371.81,-200.6 227.77,-186.76 179.5,-162 143.84,-143.71 115.3,-103.31 103.89,-85.37"/>
<polygon fill="#63b8ff" stroke="#63b8ff" points="464.01,-210.64 474.23,-207.84 464.5,-203.66 464.01,-210.64"/>
</g>
<!-- Node64 -->
<g id="node35" class="node">
<title>Node64</title>
<g id="a_node35"><a xlink:href="f__op__kankyo_8cpp.html" target="_top" xlink:title=" ">
<polygon fill="white" stroke="#666666" points="210.5,-19 82.5,-19 82.5,0 210.5,0 210.5,-19"/>
<text text-anchor="middle" x="146.5" y="-7" font-family="Helvetica,sans-Serif" font-size="10.00">src/f_op/f_op_kankyo.cpp</text>
</a>
</g>
</g>
<!-- Node3&#45;&gt;Node64 -->
<g id="edge47" class="edge">
<title>Node3&#45;&gt;Node64</title>
<path fill="none" stroke="#63b8ff" d="M464.52,-204.23C393.03,-196.26 295.7,-182.17 262.5,-162 232.06,-143.51 170.93,-49.22 152.13,-19.49"/>
<polygon fill="#63b8ff" stroke="#63b8ff" points="463.94,-207.69 474.26,-205.29 464.69,-200.73 463.94,-207.69"/>
</g>
<!-- Node140 -->
<g id="node36" class="node">
<title>Node140</title>
<g id="a_node36"><a xlink:href="f__op__kankyo__mng_8h.html" target="_top" xlink:title=" ">
<polygon fill="#fff0f0" stroke="red" points="127,-162 0,-162 0,-132 127,-132 127,-162"/>
<text text-anchor="start" x="8" y="-150" font-family="Helvetica,sans-Serif" font-size="10.00">include/f_op/f_op_kankyo</text>
<text text-anchor="middle" x="63.5" y="-139" font-family="Helvetica,sans-Serif" font-size="10.00">_mng.h</text>
</a>
</g>
</g>
<!-- Node3&#45;&gt;Node140 -->
<g id="edge42" class="edge">
<title>Node3&#45;&gt;Node140</title>
<path fill="none" stroke="#63b8ff" d="M464.5,-203.21C382.56,-194.11 253.06,-178.89 141.5,-162 136.87,-161.3 132.1,-160.54 127.3,-159.75"/>
<polygon fill="#63b8ff" stroke="#63b8ff" points="463.91,-206.67 474.23,-204.29 464.68,-199.71 463.91,-206.67"/>
</g>
<!-- Node141 -->
<g id="node37" class="node">
<title>Node141</title>
<g id="a_node37"><a xlink:href="f__op__scene__mng_8h.html" target="_top" xlink:title=" ">
<polygon fill="#fff0f0" stroke="red" points="406.5,-162 284.5,-162 284.5,-132 406.5,-132 406.5,-162"/>
<text text-anchor="start" x="292.5" y="-150" font-family="Helvetica,sans-Serif" font-size="10.00">include/f_op/f_op_scene</text>
<text text-anchor="middle" x="345.5" y="-139" font-family="Helvetica,sans-Serif" font-size="10.00">_mng.h</text>
</a>
</g>
</g>
<!-- Node3&#45;&gt;Node141 -->
<g id="edge44" class="edge">
<title>Node3&#45;&gt;Node141</title>
<path fill="none" stroke="#63b8ff" d="M507.84,-199.69C474.46,-189.06 426.2,-173.69 390.97,-162.48"/>
<polygon fill="#63b8ff" stroke="#63b8ff" points="506.52,-202.94 517.11,-202.64 508.64,-196.27 506.52,-202.94"/>
</g>
<!-- Node143 -->
<g id="node38" class="node">
<title>Node143</title>
<g id="a_node38"><a xlink:href="f__ap__game_8cpp.html" target="_top" xlink:title=" ">
<polygon fill="white" stroke="#666666" points="343,-85 222,-85 222,-66 343,-66 343,-85"/>
<text text-anchor="middle" x="282.5" y="-73" font-family="Helvetica,sans-Serif" font-size="10.00">src/f_ap/f_ap_game.cpp</text>
</a>
</g>
</g>
<!-- Node3&#45;&gt;Node143 -->
<g id="edge46" class="edge">
<title>Node3&#45;&gt;Node143</title>
<path fill="none" stroke="#63b8ff" d="M464.58,-208.12C393.8,-202.85 299.25,-190.53 275.5,-162 257.11,-139.91 270.43,-102.53 278.1,-85.47"/>
<polygon fill="#63b8ff" stroke="#63b8ff" points="463.99,-211.59 474.22,-208.8 464.49,-204.6 463.99,-211.59"/>
</g>
<!-- Node145 -->
<g id="node39" class="node">
<title>Node145</title>
<g id="a_node39"><a xlink:href="f__op__overlap__req_8cpp.html" target="_top" xlink:title=" ">
<polygon fill="white" stroke="#666666" points="534.5,-162 424.5,-162 424.5,-132 534.5,-132 534.5,-162"/>
<text text-anchor="start" x="432.5" y="-150" font-family="Helvetica,sans-Serif" font-size="10.00">src/f_op/f_op_overlap</text>
<text text-anchor="middle" x="479.5" y="-139" font-family="Helvetica,sans-Serif" font-size="10.00">_req.cpp</text>
</a>
</g>
</g>
<!-- Node3&#45;&gt;Node145 -->
<g id="edge48" class="edge">
<title>Node3&#45;&gt;Node145</title>
<path fill="none" stroke="#63b8ff" d="M529.03,-195.31C518.36,-185.12 504.87,-172.23 494.66,-162.48"/>
<polygon fill="#63b8ff" stroke="#63b8ff" points="526.44,-197.68 536.09,-202.06 531.28,-192.62 526.44,-197.68"/>
</g>
<!-- Node146 -->
<g id="node40" class="node">
<title>Node146</title>
<g id="a_node40"><a xlink:href="f__op__scene_8cpp.html" target="_top" xlink:title=" ">
<polygon fill="white" stroke="#666666" points="676,-156.5 553,-156.5 553,-137.5 676,-137.5 676,-156.5"/>
<text text-anchor="middle" x="614.5" y="-144.5" font-family="Helvetica,sans-Serif" font-size="10.00">src/f_op/f_op_scene.cpp</text>
</a>
</g>
</g>
<!-- Node3&#45;&gt;Node146 -->
<g id="edge49" class="edge">
<title>Node3&#45;&gt;Node146</title>
<path fill="none" stroke="#63b8ff" d="M564.21,-195.33C577.3,-183.02 594.6,-166.73 605.13,-156.82"/>
<polygon fill="#63b8ff" stroke="#63b8ff" points="561.94,-192.66 557.06,-202.06 566.74,-197.76 561.94,-192.66"/>
</g>
<!-- Node147 -->
<g id="node41" class="node">
<title>Node147</title>
<g id="a_node41"><a xlink:href="f__op__scene__pause_8cpp.html" target="_top" xlink:title=" ">
<polygon fill="white" stroke="#666666" points="799,-162 694,-162 694,-132 799,-132 799,-162"/>
<text text-anchor="start" x="702" y="-150" font-family="Helvetica,sans-Serif" font-size="10.00">src/f_op/f_op_scene</text>
<text text-anchor="middle" x="746.5" y="-139" font-family="Helvetica,sans-Serif" font-size="10.00">_pause.cpp</text>
</a>
</g>
</g>
<!-- Node3&#45;&gt;Node147 -->
<g id="edge50" class="edge">
<title>Node3&#45;&gt;Node147</title>
<path fill="none" stroke="#63b8ff" d="M584.96,-199.69C618.18,-189.06 666.21,-173.69 701.26,-162.48"/>
<polygon fill="#63b8ff" stroke="#63b8ff" points="584.21,-196.26 575.75,-202.64 586.34,-202.93 584.21,-196.26"/>
</g>
<!-- Node148 -->
<g id="node42" class="node">
<title>Node148</title>
<g id="a_node42"><a xlink:href="f__op__view_8cpp.html" target="_top" xlink:title=" ">
<polygon fill="white" stroke="#666666" points="934,-156.5 817,-156.5 817,-137.5 934,-137.5 934,-156.5"/>
<text text-anchor="middle" x="875.5" y="-144.5" font-family="Helvetica,sans-Serif" font-size="10.00">src/f_op/f_op_view.cpp</text>
</a>
</g>
</g>
<!-- Node3&#45;&gt;Node148 -->
<g id="edge51" class="edge">
<title>Node3&#45;&gt;Node148</title>
<path fill="none" stroke="#63b8ff" d="M605.37,-200.96C658.29,-190.98 738.15,-175.78 807.5,-162 815.54,-160.4 824.11,-158.67 832.35,-156.98"/>
<polygon fill="#63b8ff" stroke="#63b8ff" points="604.83,-197.5 595.65,-202.79 606.13,-204.38 604.83,-197.5"/>
</g>
<!-- Node3&#45;&gt;Node110 -->
<g id="edge52" class="edge">
<title>Node3&#45;&gt;Node110</title>
<path fill="none" stroke="#63b8ff" d="M628.77,-210.59C885.82,-205.95 1671.91,-189.8 1925.5,-162 1936.44,-160.8 1948.16,-158.93 1959.05,-156.95"/>
<polygon fill="#63b8ff" stroke="#63b8ff" points="628.74,-207.09 618.81,-210.77 628.87,-214.09 628.74,-207.09"/>
</g>
<!-- Node5 -->
<g id="node5" class="node">
<title>Node5</title>
<g id="a_node5"><a xlink:href="d__a__alink_8h.html" target="_top" xlink:title=" ">
<polygon fill="#fff0f0" stroke="red" points="1347.5,-85 1231.5,-85 1231.5,-66 1347.5,-66 1347.5,-85"/>
<text text-anchor="middle" x="1289.5" y="-73" font-family="Helvetica,sans-Serif" font-size="10.00">include/d/a/d_a_alink.h</text>
</a>
</g>
</g>
<!-- Node4&#45;&gt;Node5 -->
<g id="edge4" class="edge">
<title>Node4&#45;&gt;Node5</title>
<path fill="none" stroke="#63b8ff" d="M1786.9,-143.04C1689.36,-138.04 1508.23,-125.39 1356.5,-96 1342.94,-93.37 1328.17,-89.22 1315.96,-85.42"/>
<polygon fill="#63b8ff" stroke="#63b8ff" points="1786.7,-146.54 1796.86,-143.54 1787.05,-139.55 1786.7,-146.54"/>
</g>
<!-- Node16 -->
<g id="node6" class="node">
<title>Node16</title>
<g id="a_node6"><a xlink:href="d__a__alink_8cpp.html" target="_top" xlink:title=" ">
<polygon fill="white" stroke="#666666" points="1649,-19 1540,-19 1540,0 1649,0 1649,-19"/>
<text text-anchor="middle" x="1594.5" y="-7" font-family="Helvetica,sans-Serif" font-size="10.00">src/d/a/d_a_alink.cpp</text>
</a>
</g>
</g>
<!-- Node4&#45;&gt;Node16 -->
<g id="edge28" class="edge">
<title>Node4&#45;&gt;Node16</title>
<path fill="none" stroke="#63b8ff" d="M1874.07,-121.95C1885.67,-101.89 1896.48,-73.65 1880.5,-55 1851.33,-20.94 1723.79,-12.74 1649.24,-10.9"/>
<polygon fill="#63b8ff" stroke="#63b8ff" points="1871.18,-119.98 1868.88,-130.32 1877.13,-123.67 1871.18,-119.98"/>
</g>
<!-- Node116 -->
<g id="node7" class="node">
<title>Node116</title>
<g id="a_node7"><a xlink:href="d__a__obj__item_8h.html" target="_top" xlink:title=" ">
<polygon fill="#fff0f0" stroke="red" points="3865,-90.5 3764,-90.5 3764,-60.5 3865,-60.5 3865,-90.5"/>
<text text-anchor="start" x="3772" y="-78.5" font-family="Helvetica,sans-Serif" font-size="10.00">include/d/a/d_a_obj</text>
<text text-anchor="middle" x="3814.5" y="-67.5" font-family="Helvetica,sans-Serif" font-size="10.00">_item.h</text>
</a>
</g>
</g>
<!-- Node4&#45;&gt;Node116 -->
<g id="edge6" class="edge">
<title>Node4&#45;&gt;Node116</title>
<path fill="none" stroke="#63b8ff" d="M1928.08,-131.91C2348.19,-88.19 3358.2,-163.97 3755.5,-96 3762.31,-94.84 3769.4,-93.03 3776.2,-90.99"/>
<polygon fill="#63b8ff" stroke="#63b8ff" points="1927.81,-128.42 1918.24,-132.98 1928.56,-135.38 1927.81,-128.42"/>
</g>
<!-- Node117 -->
<g id="node8" class="node">
<title>Node117</title>
<g id="a_node8"><a xlink:href="d__a__obj__ss__base_8h.html" target="_top" xlink:title=" ">
<polygon fill="#fff0f0" stroke="red" points="462,-90.5 361,-90.5 361,-60.5 462,-60.5 462,-90.5"/>
<text text-anchor="start" x="369" y="-78.5" font-family="Helvetica,sans-Serif" font-size="10.00">include/d/a/d_a_obj</text>
<text text-anchor="middle" x="411.5" y="-67.5" font-family="Helvetica,sans-Serif" font-size="10.00">_ss_base.h</text>
</a>
</g>
</g>
<!-- Node4&#45;&gt;Node117 -->
<g id="edge7" class="edge">
<title>Node4&#45;&gt;Node117</title>
<path fill="none" stroke="#63b8ff" d="M1787.11,-145.82C1542.83,-144.83 732.66,-138.34 476.5,-96 469.18,-94.79 461.52,-92.99 454.14,-90.97"/>
<polygon fill="#63b8ff" stroke="#63b8ff" points="1786.78,-149.32 1796.79,-145.86 1786.81,-142.32 1786.78,-149.32"/>
</g>
<!-- Node119 -->
<g id="node9" class="node">
<title>Node119</title>
<g id="a_node9"><a xlink:href="d__bomb_8h.html" target="_top" xlink:title=" ">
<polygon fill="white" stroke="#666666" points="945,-85 844,-85 844,-66 945,-66 945,-85"/>
<text text-anchor="middle" x="894.5" y="-73" font-family="Helvetica,sans-Serif" font-size="10.00">include/d/d_bomb.h</text>
</a>
</g>
</g>
<!-- Node4&#45;&gt;Node119 -->
<g id="edge8" class="edge">
<title>Node4&#45;&gt;Node119</title>
<path fill="none" stroke="#63b8ff" d="M1786.68,-144.44C1602.85,-140.03 1113.72,-125.76 954.5,-96 941.9,-93.65 928.29,-89.37 917.22,-85.42"/>
<polygon fill="#63b8ff" stroke="#63b8ff" points="1786.49,-147.94 1796.57,-144.68 1786.65,-140.94 1786.49,-147.94"/>
</g>
<!-- Node120 -->
<g id="node10" class="node">
<title>Node120</title>
<g id="a_node10"><a xlink:href="d__bomb_8cpp.html" target="_top" xlink:title=" ">
<polygon fill="white" stroke="#666666" points="901.5,-19 807.5,-19 807.5,0 901.5,0 901.5,-19"/>
<text text-anchor="middle" x="854.5" y="-7" font-family="Helvetica,sans-Serif" font-size="10.00">src/d/d_bomb.cpp</text>
</a>
</g>
</g>
<!-- Node4&#45;&gt;Node120 -->
<g id="edge33" class="edge">
<title>Node4&#45;&gt;Node120</title>
<path fill="none" stroke="#63b8ff" d="M1786.67,-145.19C1560.31,-142.25 867.31,-130.45 834.5,-96 814.1,-74.58 836.11,-36.53 847.96,-19.35"/>
<polygon fill="#63b8ff" stroke="#63b8ff" points="1786.49,-148.68 1796.53,-145.31 1786.58,-141.69 1786.49,-148.68"/>
</g>
<!-- Node121 -->
<g id="node11" class="node">
<title>Node121</title>
<g id="a_node11"><a xlink:href="d__a__arrow_8h.html" target="_top" xlink:title=" ">
<polygon fill="white" stroke="#666666" points="787,-90.5 686,-90.5 686,-60.5 787,-60.5 787,-90.5"/>
<text text-anchor="start" x="694" y="-78.5" font-family="Helvetica,sans-Serif" font-size="10.00">include/rel/d/a/d_a</text>
<text text-anchor="middle" x="736.5" y="-67.5" font-family="Helvetica,sans-Serif" font-size="10.00">_arrow/d_a_arrow.h</text>
</a>
</g>
</g>
<!-- Node4&#45;&gt;Node121 -->
<g id="edge11" class="edge">
<title>Node4&#45;&gt;Node121</title>
<path fill="none" stroke="#63b8ff" d="M1786.72,-144.9C1582,-141.36 991.72,-128.53 801.5,-96 794.18,-94.75 786.53,-92.93 779.15,-90.9"/>
<polygon fill="#63b8ff" stroke="#63b8ff" points="1786.63,-148.4 1796.69,-145.07 1786.75,-141.4 1786.63,-148.4"/>
</g>
<!-- Node122 -->
<g id="node12" class="node">
<title>Node122</title>
<g id="a_node12"><a xlink:href="d__a__boomerang_8h.html" target="_top" xlink:title=" ">
<polygon fill="white" stroke="#666666" points="668,-90.5 519,-90.5 519,-60.5 668,-60.5 668,-90.5"/>
<text text-anchor="start" x="527" y="-78.5" font-family="Helvetica,sans-Serif" font-size="10.00">include/rel/d/a/d_a</text>
<text text-anchor="middle" x="593.5" y="-67.5" font-family="Helvetica,sans-Serif" font-size="10.00">_boomerang/d_a_boomerang.h</text>
</a>
</g>
</g>
<!-- Node4&#45;&gt;Node122 -->
<g id="edge12" class="edge">
<title>Node4&#45;&gt;Node122</title>
<path fill="none" stroke="#63b8ff" d="M1786.87,-144.76C1566.44,-140.6 892.96,-125.74 676.5,-96 667.41,-94.75 657.85,-92.96 648.59,-90.97"/>
<polygon fill="#63b8ff" stroke="#63b8ff" points="1786.69,-148.25 1796.75,-144.94 1786.82,-141.25 1786.69,-148.25"/>
</g>
<!-- Node73 -->
<g id="node13" class="node">
<title>Node73</title>
<g id="a_node13"><a xlink:href="d__a__player_8cpp.html" target="_top" xlink:title=" ">
<polygon fill="white" stroke="#666666" points="598.5,-19 484.5,-19 484.5,0 598.5,0 598.5,-19"/>
<text text-anchor="middle" x="541.5" y="-7" font-family="Helvetica,sans-Serif" font-size="10.00">src/d/a/d_a_player.cpp</text>
</a>
</g>
</g>
<!-- Node4&#45;&gt;Node73 -->
<g id="edge29" class="edge">
<title>Node4&#45;&gt;Node73</title>
<path fill="none" stroke="#63b8ff" d="M1786.68,-144.69C1512.11,-139.46 531.85,-119.2 509.5,-96 488.27,-73.97 517.24,-36.56 532.78,-19.48"/>
<polygon fill="#63b8ff" stroke="#63b8ff" points="1786.5,-148.19 1796.56,-144.88 1786.63,-141.19 1786.5,-148.19"/>
</g>
<!-- Node123 -->
<g id="node14" class="node">
<title>Node123</title>
<g id="a_node14"><a xlink:href="d__a__canoe_8h.html" target="_top" xlink:title=" ">
<polygon fill="white" stroke="#666666" points="1069.5,-90.5 963.5,-90.5 963.5,-60.5 1069.5,-60.5 1069.5,-90.5"/>
<text text-anchor="start" x="971.5" y="-78.5" font-family="Helvetica,sans-Serif" font-size="10.00">include/rel/d/a/d_a</text>
<text text-anchor="middle" x="1016.5" y="-67.5" font-family="Helvetica,sans-Serif" font-size="10.00">_canoe/d_a_canoe.h</text>
</a>
</g>
</g>
<!-- Node4&#45;&gt;Node123 -->
<g id="edge14" class="edge">
<title>Node4&#45;&gt;Node123</title>
<path fill="none" stroke="#63b8ff" d="M1786.76,-143.64C1621.38,-137.76 1213.24,-121.13 1078.5,-96 1071.62,-94.72 1064.44,-92.91 1057.5,-90.91"/>
<polygon fill="#63b8ff" stroke="#63b8ff" points="1786.62,-147.14 1796.73,-143.99 1786.86,-140.14 1786.62,-147.14"/>
</g>
<!-- Node124 -->
<g id="node15" class="node">
<title>Node124</title>
<g id="a_node15"><a xlink:href="d__a__crod_8h.html" target="_top" xlink:title=" ">
<polygon fill="white" stroke="#666666" points="3608.5,-90.5 3512.5,-90.5 3512.5,-60.5 3608.5,-60.5 3608.5,-90.5"/>
<text text-anchor="start" x="3520.5" y="-78.5" font-family="Helvetica,sans-Serif" font-size="10.00">include/rel/d/a/d_a</text>
<text text-anchor="middle" x="3560.5" y="-67.5" font-family="Helvetica,sans-Serif" font-size="10.00">_crod/d_a_crod.h</text>
</a>
</g>
</g>
<!-- Node4&#45;&gt;Node124 -->
<g id="edge15" class="edge">
<title>Node4&#45;&gt;Node124</title>
<path fill="none" stroke="#63b8ff" d="M1928.16,-131.9C2292.53,-93.83 3161.8,-156.84 3503.5,-96 3510.09,-94.83 3516.95,-93.02 3523.53,-90.97"/>
<polygon fill="#63b8ff" stroke="#63b8ff" points="1927.8,-128.42 1918.24,-132.99 1928.56,-135.38 1927.8,-128.42"/>
</g>
<!-- Node125 -->
<g id="node16" class="node">
<title>Node125</title>
<g id="a_node16"><a xlink:href="d__a__scene__exit_8h.html" target="_top" xlink:title=" ">
<polygon fill="white" stroke="#666666" points="3746,-96 3627,-96 3627,-55 3746,-55 3746,-96"/>
<text text-anchor="start" x="3635" y="-84" font-family="Helvetica,sans-Serif" font-size="10.00">include/rel/d/a/d_a</text>
<text text-anchor="start" x="3635" y="-73" font-family="Helvetica,sans-Serif" font-size="10.00">_scene_exit/d_a_scene</text>
<text text-anchor="middle" x="3686.5" y="-62" font-family="Helvetica,sans-Serif" font-size="10.00">_exit.h</text>
</a>
</g>
</g>
<!-- Node4&#45;&gt;Node125 -->
<g id="edge17" class="edge">
<title>Node4&#45;&gt;Node125</title>
<path fill="none" stroke="#63b8ff" d="M1928.1,-131.91C2317.65,-91.1 3249.18,-151.04 3617.5,-96 3620.58,-95.54 3623.71,-94.98 3626.86,-94.35"/>
<polygon fill="#63b8ff" stroke="#63b8ff" points="1927.8,-128.42 1918.24,-132.98 1928.56,-135.38 1927.8,-128.42"/>
</g>
<!-- Node126 -->
<g id="node17" class="node">
<title>Node126</title>
<g id="a_node17"><a xlink:href="d__a__tboxSw_8h.html" target="_top" xlink:title=" ">
<polygon fill="white" stroke="#666666" points="1483.5,-90.5 1365.5,-90.5 1365.5,-60.5 1483.5,-60.5 1483.5,-90.5"/>
<text text-anchor="start" x="1373.5" y="-78.5" font-family="Helvetica,sans-Serif" font-size="10.00">include/rel/d/a/d_a</text>
<text text-anchor="middle" x="1424.5" y="-67.5" font-family="Helvetica,sans-Serif" font-size="10.00">_tboxSw/d_a_tboxSw.h</text>
</a>
</g>
</g>
<!-- Node4&#45;&gt;Node126 -->
<g id="edge19" class="edge">
<title>Node4&#45;&gt;Node126</title>
<path fill="none" stroke="#63b8ff" d="M1787.25,-139.39C1713.38,-131.74 1594,-117.39 1492.5,-96 1485.65,-94.56 1478.48,-92.79 1471.47,-90.91"/>
<polygon fill="#63b8ff" stroke="#63b8ff" points="1786.45,-142.83 1796.76,-140.37 1787.16,-135.87 1786.45,-142.83"/>
</g>
<!-- Node127 -->
<g id="node18" class="node">
<title>Node127</title>
<g id="a_node18"><a xlink:href="d__a__tag__escape_8h.html" target="_top" xlink:title=" ">
<polygon fill="white" stroke="#666666" points="1611.5,-96 1501.5,-96 1501.5,-55 1611.5,-55 1611.5,-96"/>
<text text-anchor="start" x="1509.5" y="-84" font-family="Helvetica,sans-Serif" font-size="10.00">include/rel/d/a/tag</text>
<text text-anchor="start" x="1509.5" y="-73" font-family="Helvetica,sans-Serif" font-size="10.00">/d_a_tag_escape/d_a</text>
<text text-anchor="middle" x="1556.5" y="-62" font-family="Helvetica,sans-Serif" font-size="10.00">_tag_escape.h</text>
</a>
</g>
</g>
<!-- Node4&#45;&gt;Node127 -->
<g id="edge20" class="edge">
<title>Node4&#45;&gt;Node127</title>
<path fill="none" stroke="#63b8ff" d="M1787.18,-132.85C1739.83,-123.58 1676.11,-110.31 1620.5,-96 1617.69,-95.28 1614.81,-94.51 1611.92,-93.71"/>
<polygon fill="#63b8ff" stroke="#63b8ff" points="1786.27,-136.24 1796.75,-134.71 1787.61,-129.36 1786.27,-136.24"/>
</g>
<!-- Node128 -->
<g id="node19" class="node">
<title>Node128</title>
<g id="a_node19"><a xlink:href="d__a__tag__instruction_8h.html" target="_top" xlink:title=" ">
<polygon fill="white" stroke="#666666" points="1741.5,-96 1629.5,-96 1629.5,-55 1741.5,-55 1741.5,-96"/>
<text text-anchor="start" x="1637.5" y="-84" font-family="Helvetica,sans-Serif" font-size="10.00">include/rel/d/a/tag</text>
<text text-anchor="start" x="1637.5" y="-73" font-family="Helvetica,sans-Serif" font-size="10.00">/d_a_tag_instruction</text>
<text text-anchor="middle" x="1685.5" y="-62" font-family="Helvetica,sans-Serif" font-size="10.00">/d_a_tag_instruction.h</text>
</a>
</g>
</g>
<!-- Node4&#45;&gt;Node128 -->
<g id="edge21" class="edge">
<title>Node4&#45;&gt;Node128</title>
<path fill="none" stroke="#63b8ff" d="M1811.39,-127.37C1787.73,-117.81 1758.89,-106.15 1734.79,-96.42"/>
<polygon fill="#63b8ff" stroke="#63b8ff" points="1809.88,-130.53 1820.46,-131.03 1812.5,-124.04 1809.88,-130.53"/>
</g>
<!-- Node129 -->
<g id="node20" class="node">
<title>Node129</title>
<g id="a_node20"><a xlink:href="d__a__tag__lv5soup_8h.html" target="_top" xlink:title=" ">
<polygon fill="white" stroke="#666666" points="1871.5,-96 1759.5,-96 1759.5,-55 1871.5,-55 1871.5,-96"/>
<text text-anchor="start" x="1767.5" y="-84" font-family="Helvetica,sans-Serif" font-size="10.00">include/rel/d/a/tag</text>
<text text-anchor="start" x="1767.5" y="-73" font-family="Helvetica,sans-Serif" font-size="10.00">/d_a_tag_lv5soup/d_a</text>
<text text-anchor="middle" x="1815.5" y="-62" font-family="Helvetica,sans-Serif" font-size="10.00">_tag_lv5soup.h</text>
</a>
</g>
</g>
<!-- Node4&#45;&gt;Node129 -->
<g id="edge22" class="edge">
<title>Node4&#45;&gt;Node129</title>
<path fill="none" stroke="#63b8ff" d="M1843.01,-122.02C1837.96,-113.67 1832.36,-104.4 1827.54,-96.42"/>
<polygon fill="#63b8ff" stroke="#63b8ff" points="1839.85,-123.56 1848.01,-130.3 1845.84,-119.94 1839.85,-123.56"/>
</g>
<!-- Node130 -->
<g id="node21" class="node">
<title>Node130</title>
<g id="a_node21"><a xlink:href="d__a__tag__magne_8h.html" target="_top" xlink:title=" ">
<polygon fill="#fff0f0" stroke="red" points="1213.5,-96 1087.5,-96 1087.5,-55 1213.5,-55 1213.5,-96"/>
<text text-anchor="start" x="1095.5" y="-84" font-family="Helvetica,sans-Serif" font-size="10.00">include/rel/d/a/tag</text>
<text text-anchor="start" x="1095.5" y="-73" font-family="Helvetica,sans-Serif" font-size="10.00">/d_a_tag_magne/d_a_tag</text>
<text text-anchor="middle" x="1150.5" y="-62" font-family="Helvetica,sans-Serif" font-size="10.00">_magne.h</text>
</a>
</g>
</g>
<!-- Node4&#45;&gt;Node130 -->
<g id="edge23" class="edge">
<title>Node4&#45;&gt;Node130</title>
<path fill="none" stroke="#63b8ff" d="M1787.05,-144.72C1669.32,-141.63 1425.49,-131.17 1222.5,-96 1219.69,-95.51 1216.84,-94.97 1213.96,-94.37"/>
<polygon fill="#63b8ff" stroke="#63b8ff" points="1786.79,-148.21 1796.88,-144.97 1786.97,-141.22 1786.79,-148.21"/>
</g>
<!-- Node131 -->
<g id="node22" class="node">
<title>Node131</title>
<g id="a_node22"><a xlink:href="d__a__tag__setBall_8h.html" target="_top" xlink:title=" ">
<polygon fill="white" stroke="#666666" points="2035.5,-96 1927.5,-96 1927.5,-55 2035.5,-55 2035.5,-96"/>
<text text-anchor="start" x="1935.5" y="-84" font-family="Helvetica,sans-Serif" font-size="10.00">include/rel/d/a/tag</text>
<text text-anchor="start" x="1935.5" y="-73" font-family="Helvetica,sans-Serif" font-size="10.00">/d_a_tag_setBall/d_a</text>
<text text-anchor="middle" x="1981.5" y="-62" font-family="Helvetica,sans-Serif" font-size="10.00">_tag_setBall.h</text>
</a>
</g>
</g>
<!-- Node4&#45;&gt;Node131 -->
<g id="edge25" class="edge">
<title>Node4&#45;&gt;Node131</title>
<path fill="none" stroke="#63b8ff" d="M1893.07,-126.06C1909.67,-116.76 1929.37,-105.72 1945.97,-96.42"/>
<polygon fill="#63b8ff" stroke="#63b8ff" points="1891.53,-122.92 1884.51,-130.86 1894.95,-129.02 1891.53,-122.92"/>
</g>
<!-- Node132 -->
<g id="node23" class="node">
<title>Node132</title>
<g id="a_node23"><a xlink:href="d__a__tag__setrestart_8h.html" target="_top" xlink:title=" ">
<polygon fill="white" stroke="#666666" points="2161.5,-96 2053.5,-96 2053.5,-55 2161.5,-55 2161.5,-96"/>
<text text-anchor="start" x="2061.5" y="-84" font-family="Helvetica,sans-Serif" font-size="10.00">include/rel/d/a/tag</text>
<text text-anchor="start" x="2061.5" y="-73" font-family="Helvetica,sans-Serif" font-size="10.00">/d_a_tag_setrestart</text>
<text text-anchor="middle" x="2107.5" y="-62" font-family="Helvetica,sans-Serif" font-size="10.00">/d_a_tag_setrestart.h</text>
</a>
</g>
</g>
<!-- Node4&#45;&gt;Node132 -->
<g id="edge26" class="edge">
<title>Node4&#45;&gt;Node132</title>
<path fill="none" stroke="#63b8ff" d="M1924.49,-128.76C1960.21,-119.4 2004.85,-107.43 2044.5,-96 2047.36,-95.18 2050.29,-94.32 2053.24,-93.44"/>
<polygon fill="#63b8ff" stroke="#63b8ff" points="1923.96,-125.28 1915.17,-131.2 1925.73,-132.06 1923.96,-125.28"/>
</g>
<!-- Node133 -->
<g id="node24" class="node">
<title>Node133</title>
<g id="a_node24"><a xlink:href="d__a__tag__wara__howl_8h.html" target="_top" xlink:title=" ">
<polygon fill="white" stroke="#666666" points="2293.5,-96 2179.5,-96 2179.5,-55 2293.5,-55 2293.5,-96"/>
<text text-anchor="start" x="2187.5" y="-84" font-family="Helvetica,sans-Serif" font-size="10.00">include/rel/d/a/tag</text>
<text text-anchor="start" x="2187.5" y="-73" font-family="Helvetica,sans-Serif" font-size="10.00">/d_a_tag_wara_howl/d</text>
<text text-anchor="middle" x="2236.5" y="-62" font-family="Helvetica,sans-Serif" font-size="10.00">_a_tag_wara_howl.h</text>
</a>
</g>
</g>
<!-- Node4&#45;&gt;Node133 -->
<g id="edge27" class="edge">
<title>Node4&#45;&gt;Node133</title>
<path fill="none" stroke="#63b8ff" d="M1927.85,-131.67C2035.85,-113.3 2066.48,-118.89 2170.5,-96 2173.3,-95.38 2176.16,-94.71 2179.03,-94"/>
<polygon fill="#63b8ff" stroke="#63b8ff" points="1927.55,-128.17 1918.29,-133.32 1928.74,-135.06 1927.55,-128.17"/>
</g>
<!-- Node134 -->
<g id="node25" class="node">
<title>Node134</title>
<g id="a_node25"><a xlink:href="d__bg__s__acch_8cpp.html" target="_top" xlink:title=" ">
<polygon fill="white" stroke="#666666" points="2443,-85 2312,-85 2312,-66 2443,-66 2443,-85"/>
<text text-anchor="middle" x="2377.5" y="-73" font-family="Helvetica,sans-Serif" font-size="10.00">src/d/bg/d_bg_s_acch.cpp</text>
</a>
</g>
</g>
<!-- Node4&#45;&gt;Node134 -->
<g id="edge30" class="edge">
<title>Node4&#45;&gt;Node134</title>
<path fill="none" stroke="#63b8ff" d="M1927.88,-131.76C2093.93,-107.76 2140.31,-124.64 2302.5,-96 2317.47,-93.36 2333.84,-89.25 2347.45,-85.48"/>
<polygon fill="#63b8ff" stroke="#63b8ff" points="1927.65,-128.26 1918.27,-133.18 1928.67,-135.19 1927.65,-128.26"/>
</g>
<!-- Node135 -->
<g id="node26" class="node">
<title>Node135</title>
<g id="a_node26"><a xlink:href="d__bg__s__lin__chk_8cpp.html" target="_top" xlink:title=" ">
<polygon fill="white" stroke="#666666" points="2562,-90.5 2461,-90.5 2461,-60.5 2562,-60.5 2562,-90.5"/>
<text text-anchor="start" x="2469" y="-78.5" font-family="Helvetica,sans-Serif" font-size="10.00">src/d/bg/d_bg_s_lin</text>
<text text-anchor="middle" x="2511.5" y="-67.5" font-family="Helvetica,sans-Serif" font-size="10.00">_chk.cpp</text>
</a>
</g>
</g>
<!-- Node4&#45;&gt;Node135 -->
<g id="edge31" class="edge">
<title>Node4&#45;&gt;Node135</title>
<path fill="none" stroke="#63b8ff" d="M1927.94,-131.81C2160.15,-101.52 2225.72,-140.49 2452.5,-96 2459.06,-94.71 2465.91,-92.9 2472.51,-90.9"/>
<polygon fill="#63b8ff" stroke="#63b8ff" points="1927.71,-128.31 1918.26,-133.11 1928.63,-135.25 1927.71,-128.31"/>
</g>
<!-- Node136 -->
<g id="node27" class="node">
<title>Node136</title>
<g id="a_node27"><a xlink:href="d__cc__d__nonmatching_8cpp.html" target="_top" xlink:title=" ">
<polygon fill="white" stroke="#666666" points="2745,-85 2580,-85 2580,-66 2745,-66 2745,-85"/>
<text text-anchor="middle" x="2662.5" y="-73" font-family="Helvetica,sans-Serif" font-size="10.00">src/d/cc/d_cc_d_nonmatching.cpp</text>
</a>
</g>
</g>
<!-- Node4&#45;&gt;Node136 -->
<g id="edge32" class="edge">
<title>Node4&#45;&gt;Node136</title>
<path fill="none" stroke="#63b8ff" d="M1927.84,-131.84C2212.61,-95.89 2290.12,-133.76 2571.5,-96 2589.92,-93.53 2610.15,-89.34 2626.85,-85.48"/>
<polygon fill="#63b8ff" stroke="#63b8ff" points="1927.73,-128.33 1918.25,-133.07 1928.62,-135.27 1927.73,-128.33"/>
</g>
<!-- Node88 -->
<g id="node28" class="node">
<title>Node88</title>
<g id="a_node28"><a xlink:href="d__insect_8cpp.html" target="_top" xlink:title=" ">
<polygon fill="white" stroke="#666666" points="2859.5,-85 2763.5,-85 2763.5,-66 2859.5,-66 2859.5,-85"/>
<text text-anchor="middle" x="2811.5" y="-73" font-family="Helvetica,sans-Serif" font-size="10.00">src/d/d_insect.cpp</text>
</a>
</g>
</g>
<!-- Node4&#45;&gt;Node88 -->
<g id="edge34" class="edge">
<title>Node4&#45;&gt;Node88</title>
<path fill="none" stroke="#63b8ff" d="M1927.92,-131.86C2293.54,-88.21 2395.73,-163.7 2754.5,-96 2766.52,-93.73 2779.46,-89.46 2789.97,-85.5"/>
<polygon fill="#63b8ff" stroke="#63b8ff" points="1927.75,-128.36 1918.25,-133.04 1928.6,-135.3 1927.75,-128.36"/>
</g>
<!-- Node137 -->
<g id="node29" class="node">
<title>Node137</title>
<g id="a_node29"><a xlink:href="d__jnt__col_8cpp.html" target="_top" xlink:title=" ">
<polygon fill="white" stroke="#666666" points="2975.5,-85 2877.5,-85 2877.5,-66 2975.5,-66 2975.5,-85"/>
<text text-anchor="middle" x="2926.5" y="-73" font-family="Helvetica,sans-Serif" font-size="10.00">src/d/d_jnt_col.cpp</text>
</a>
</g>
</g>
<!-- Node4&#45;&gt;Node137 -->
<g id="edge35" class="edge">
<title>Node4&#45;&gt;Node137</title>
<path fill="none" stroke="#63b8ff" d="M1927.88,-131.87C2343.9,-83.11 2459.58,-170.94 2868.5,-96 2880.83,-93.74 2894.12,-89.42 2904.86,-85.42"/>
<polygon fill="#63b8ff" stroke="#63b8ff" points="1927.76,-128.36 1918.25,-133.02 1928.59,-135.31 1927.76,-128.36"/>
</g>
<!-- Node51 -->
<g id="node30" class="node">
<title>Node51</title>
<g id="a_node30"><a xlink:href="d__event_8cpp.html" target="_top" xlink:title=" ">
<polygon fill="white" stroke="#666666" points="3115,-85 2994,-85 2994,-66 3115,-66 3115,-85"/>
<text text-anchor="middle" x="3054.5" y="-73" font-family="Helvetica,sans-Serif" font-size="10.00">src/d/event/d_event.cpp</text>
</a>
</g>
</g>
<!-- Node4&#45;&gt;Node51 -->
<g id="edge36" class="edge">
<title>Node4&#45;&gt;Node51</title>
<path fill="none" stroke="#63b8ff" d="M1927.84,-131.88C2395.12,-77.74 2522.69,-167.13 2984.5,-96 2999.21,-93.73 3015.23,-89.41 3028.23,-85.41"/>
<polygon fill="#63b8ff" stroke="#63b8ff" points="1927.77,-128.37 1918.24,-133.01 1928.59,-135.32 1927.77,-128.37"/>
</g>
<!-- Node97 -->
<g id="node31" class="node">
<title>Node97</title>
<g id="a_node31"><a xlink:href="d__event__lib_8cpp.html" target="_top" xlink:title=" ">
<polygon fill="white" stroke="#666666" points="3236,-90.5 3133,-90.5 3133,-60.5 3236,-60.5 3236,-90.5"/>
<text text-anchor="start" x="3141" y="-78.5" font-family="Helvetica,sans-Serif" font-size="10.00">src/d/event/d_event</text>
<text text-anchor="middle" x="3184.5" y="-67.5" font-family="Helvetica,sans-Serif" font-size="10.00">_lib.cpp</text>
</a>
</g>
</g>
<!-- Node4&#45;&gt;Node97 -->
<g id="edge37" class="edge">
<title>Node4&#45;&gt;Node97</title>
<path fill="none" stroke="#63b8ff" d="M1928.18,-131.9C2208.54,-102.1 2865.47,-141.03 3124.5,-96 3131.41,-94.8 3138.61,-92.98 3145.53,-90.93"/>
<polygon fill="#63b8ff" stroke="#63b8ff" points="1927.79,-128.42 1918.24,-133.01 1928.57,-135.37 1927.79,-128.42"/>
</g>
<!-- Node138 -->
<g id="node32" class="node">
<title>Node138</title>
<g id="a_node32"><a xlink:href="d__shop__item__ctrl_8cpp.html" target="_top" xlink:title=" ">
<polygon fill="white" stroke="#666666" points="3375,-90.5 3254,-90.5 3254,-60.5 3375,-60.5 3375,-90.5"/>
<text text-anchor="start" x="3262" y="-78.5" font-family="Helvetica,sans-Serif" font-size="10.00">src/d/shop/d_shop_item</text>
<text text-anchor="middle" x="3314.5" y="-67.5" font-family="Helvetica,sans-Serif" font-size="10.00">_ctrl.cpp</text>
</a>
</g>
</g>
<!-- Node4&#45;&gt;Node138 -->
<g id="edge38" class="edge">
<title>Node4&#45;&gt;Node138</title>
<path fill="none" stroke="#63b8ff" d="M1927.96,-131.88C2510.51,-66.08 2669.01,-183.92 3245.5,-96 3253.38,-94.8 3261.63,-92.98 3269.57,-90.93"/>
<polygon fill="#63b8ff" stroke="#63b8ff" points="1927.78,-128.38 1918.24,-132.99 1928.58,-135.33 1927.78,-128.38"/>
</g>
<!-- Node108 -->
<g id="node33" class="node">
<title>Node108</title>
<g id="a_node33"><a xlink:href="f__op__actor__mng_8cpp.html" target="_top" xlink:title=" ">
<polygon fill="white" stroke="#666666" points="3494,-90.5 3393,-90.5 3393,-60.5 3494,-60.5 3494,-90.5"/>
<text text-anchor="start" x="3401" y="-78.5" font-family="Helvetica,sans-Serif" font-size="10.00">src/f_op/f_op_actor</text>
<text text-anchor="middle" x="3443.5" y="-67.5" font-family="Helvetica,sans-Serif" font-size="10.00">_mng.cpp</text>
</a>
</g>
</g>
<!-- Node4&#45;&gt;Node108 -->
<g id="edge39" class="edge">
<title>Node4&#45;&gt;Node108</title>
<path fill="none" stroke="#63b8ff" d="M1928.07,-131.91C2266.01,-96.4 3068.55,-150.87 3384.5,-96 3391.3,-94.82 3398.39,-93.01 3405.2,-90.96"/>
<polygon fill="#63b8ff" stroke="#63b8ff" points="1927.8,-128.42 1918.24,-132.99 1928.56,-135.38 1927.8,-128.42"/>
</g>
<!-- Node5&#45;&gt;Node16 -->
<g id="edge5" class="edge">
<title>Node5&#45;&gt;Node16</title>
<path fill="none" stroke="#63b8ff" d="M1329.03,-62.3C1338.02,-59.72 1347.55,-57.13 1356.5,-55 1418.86,-40.13 1491.38,-27.19 1539.83,-19.15"/>
<polygon fill="#63b8ff" stroke="#63b8ff" points="1328.09,-58.92 1319.48,-65.1 1330.06,-65.64 1328.09,-58.92"/>
</g>
<!-- Node119&#45;&gt;Node16 -->
<g id="edge9" class="edge">
<title>Node119&#45;&gt;Node16</title>
<path fill="none" stroke="#63b8ff" d="M928.18,-61.96C936.66,-59.24 945.83,-56.68 954.5,-55 1167.98,-13.54 1428.11,-9.44 1539.55,-9.82"/>
<polygon fill="#63b8ff" stroke="#63b8ff" points="927.31,-58.56 918.95,-65.07 929.54,-65.19 927.31,-58.56"/>
</g>
<!-- Node119&#45;&gt;Node120 -->
<g id="edge10" class="edge">
<title>Node119&#45;&gt;Node120</title>
<path fill="none" stroke="#63b8ff" d="M882.96,-56.03C875.41,-43.96 865.91,-28.75 860.01,-19.32"/>
<polygon fill="#63b8ff" stroke="#63b8ff" points="879.87,-57.69 888.14,-64.32 885.8,-53.98 879.87,-57.69"/>
</g>
<!-- Node122&#45;&gt;Node73 -->
<g id="edge13" class="edge">
<title>Node122&#45;&gt;Node73</title>
<path fill="none" stroke="#63b8ff" d="M574.77,-51.45C565.72,-40.31 555.4,-27.61 548.69,-19.34"/>
<polygon fill="#63b8ff" stroke="#63b8ff" points="571.98,-53.57 581.01,-59.12 577.42,-49.15 571.98,-53.57"/>
</g>
<!-- Node124&#45;&gt;Node16 -->
<g id="edge16" class="edge">
<title>Node124&#45;&gt;Node16</title>
<path fill="none" stroke="#63b8ff" d="M3512.57,-56.95C3509.53,-56.19 3506.49,-55.53 3503.5,-55 3317.06,-21.75 1942.55,-12.4 1649.4,-10.78"/>
<polygon fill="#63b8ff" stroke="#63b8ff" points="3511.5,-60.28 3522.07,-59.62 3513.39,-53.54 3511.5,-60.28"/>
</g>
<!-- Node125&#45;&gt;Node16 -->
<g id="edge18" class="edge">
<title>Node125&#45;&gt;Node16</title>
<path fill="none" stroke="#63b8ff" d="M3615.81,-55.14C3371.32,-24.77 1947.1,-13.03 1649.13,-10.88"/>
<polygon fill="#63b8ff" stroke="#63b8ff" points="3614.98,-58.56 3625.36,-56.44 3615.93,-51.62 3614.98,-58.56"/>
</g>
<!-- Node130&#45;&gt;Node16 -->
<g id="edge24" class="edge">
<title>Node130&#45;&gt;Node16</title>
<path fill="none" stroke="#63b8ff" d="M1225.28,-54.6C1342.31,-32.54 1468.95,-20.33 1539.59,-14.56"/>
<polygon fill="#63b8ff" stroke="#63b8ff" points="1224.63,-51.16 1215.47,-56.48 1225.95,-58.04 1224.63,-51.16"/>
</g>
<!-- Node139&#45;&gt;Node64 -->
<g id="edge41" class="edge">
<title>Node139&#45;&gt;Node64</title>
<path fill="none" stroke="#63b8ff" d="M112.08,-56.4C121.17,-44.27 132.74,-28.84 139.88,-19.32"/>
<polygon fill="#63b8ff" stroke="#63b8ff" points="109.28,-54.29 106.08,-64.39 114.88,-58.49 109.28,-54.29"/>
</g>
<!-- Node140&#45;&gt;Node139 -->
<g id="edge43" class="edge">
<title>Node140&#45;&gt;Node139</title>
<path fill="none" stroke="#63b8ff" d="M75.78,-121.61C82.16,-108.94 89.55,-94.27 94.13,-85.18"/>
<polygon fill="#63b8ff" stroke="#63b8ff" points="72.8,-119.74 71.43,-130.25 79.06,-122.89 72.8,-119.74"/>
</g>
<!-- Node141&#45;&gt;Node143 -->
<g id="edge45" class="edge">
<title>Node141&#45;&gt;Node143</title>
<path fill="none" stroke="#63b8ff" d="M324.76,-123.12C312.98,-110.13 298.93,-94.63 290.37,-85.18"/>
<polygon fill="#63b8ff" stroke="#63b8ff" points="322.12,-125.42 331.43,-130.48 327.31,-120.72 322.12,-125.42"/>
</g>
</g>
</svg>
