<?xml version="1.0" encoding="UTF-8" standalone="no"?>
<!DOCTYPE svg PUBLIC "-//W3C//DTD SVG 1.1//EN"
 "http://www.w3.org/Graphics/SVG/1.1/DTD/svg11.dtd">
<!-- Generated by graphviz version 7.0.4 (20221203.1631)
 -->
<!-- Title: include/d/a/d_a_alink.h Pages: 1 -->
<svg width="5372pt" height="236pt"
 viewBox="0.00 0.00 5372.05 236.00" xmlns="http://www.w3.org/2000/svg" xmlns:xlink="http://www.w3.org/1999/xlink">
<g id="graph0" class="graph" transform="scale(1 1) rotate(0) translate(4 232)">
<title>include/d/a/d_a_alink.h</title>
<!-- Node1 -->
<g id="node1" class="node">
<title>Node1</title>
<g id="a_node1"><a xlink:title=" ">
<polygon fill="#999999" stroke="#666666" points="1409.5,-228 1293.5,-228 1293.5,-209 1409.5,-209 1409.5,-228"/>
<text text-anchor="middle" x="1351.5" y="-216" font-family="Helvetica,sans-Serif" font-size="10.00">include/d/a/d_a_alink.h</text>
</a>
</g>
</g>
<!-- Node2 -->
<g id="node2" class="node">
<title>Node2</title>
<g id="a_node2"><a xlink:href="d__com__inf__game_8h.html" target="_top" xlink:title=" ">
<polygon fill="#fff0f0" stroke="red" points="2457.5,-173 2347.5,-173 2347.5,-143 2457.5,-143 2457.5,-173"/>
<text text-anchor="start" x="2355.5" y="-161" font-family="Helvetica,sans-Serif" font-size="10.00">include/d/com/d_com</text>
<text text-anchor="middle" x="2402.5" y="-150" font-family="Helvetica,sans-Serif" font-size="10.00">_inf_game.h</text>
</a>
</g>
</g>
<!-- Node1&#45;&gt;Node2 -->
<g id="edge1" class="edge">
<title>Node1&#45;&gt;Node2</title>
<path fill="none" stroke="#63b8ff" d="M1421.16,-213.62C1617.1,-202.72 2170.28,-171.93 2347.29,-162.07"/>
<polygon fill="#63b8ff" stroke="#63b8ff" points="1421.18,-210.12 1411.39,-214.17 1421.57,-217.11 1421.18,-210.12"/>
</g>
<!-- Node12 -->
<g id="node6" class="node">
<title>Node12</title>
<g id="a_node6"><a xlink:href="d__a__alink_8cpp.html" target="_top" xlink:title=" ">
<polygon fill="white" stroke="#666666" points="431,-24.5 322,-24.5 322,-5.5 431,-5.5 431,-24.5"/>
<text text-anchor="middle" x="376.5" y="-12.5" font-family="Helvetica,sans-Serif" font-size="10.00">src/d/a/d_a_alink.cpp</text>
</a>
</g>
</g>
<!-- Node1&#45;&gt;Node12 -->
<g id="edge60" class="edge">
<title>Node1&#45;&gt;Node12</title>
<path fill="none" stroke="#63b8ff" d="M1281.75,-214.9C1067.88,-206.21 432.13,-174.85 371.5,-107 350.84,-83.88 364.74,-42.82 372.4,-24.84"/>
<polygon fill="#63b8ff" stroke="#63b8ff" points="1281.47,-218.39 1291.6,-215.29 1281.75,-211.4 1281.47,-218.39"/>
</g>
<!-- Node3 -->
<g id="node3" class="node">
<title>Node3</title>
<g id="a_node3"><a xlink:href="d__a__npc_8h.html" target="_top" xlink:title=" ">
<polygon fill="#fff0f0" stroke="red" points="5345,-96 5234,-96 5234,-77 5345,-77 5345,-96"/>
<text text-anchor="middle" x="5289.5" y="-84" font-family="Helvetica,sans-Serif" font-size="10.00">include/d/a/d_a_npc.h</text>
</a>
</g>
</g>
<!-- Node2&#45;&gt;Node3 -->
<g id="edge2" class="edge">
<title>Node2&#45;&gt;Node3</title>
<path fill="none" stroke="#63b8ff" d="M2469.16,-156.91C2869.32,-156.23 4944.7,-150.6 5224.5,-107 5238.35,-104.84 5253.37,-100.48 5265.48,-96.42"/>
<polygon fill="#63b8ff" stroke="#63b8ff" points="2469.32,-153.41 2459.33,-156.93 2469.33,-160.41 2469.32,-153.41"/>
</g>
<!-- Node9 -->
<g id="node4" class="node">
<title>Node9</title>
<g id="a_node4"><a xlink:href="d__cc__uty_8h.html" target="_top" xlink:title=" ">
<polygon fill="#fff0f0" stroke="red" points="159,-96 40,-96 40,-77 159,-77 159,-96"/>
<text text-anchor="middle" x="99.5" y="-84" font-family="Helvetica,sans-Serif" font-size="10.00">include/d/cc/d_cc_uty.h</text>
</a>
</g>
</g>
<!-- Node2&#45;&gt;Node9 -->
<g id="edge3" class="edge">
<title>Node2&#45;&gt;Node9</title>
<path fill="none" stroke="#63b8ff" d="M2335.9,-156.51C1988,-153.83 387.16,-139.8 168.5,-107 153.97,-104.82 138.18,-100.51 125.37,-96.49"/>
<polygon fill="#63b8ff" stroke="#63b8ff" points="2335.72,-160.01 2345.75,-156.59 2335.78,-153.01 2335.72,-160.01"/>
</g>
<!-- Node15 -->
<g id="node5" class="node">
<title>Node15</title>
<g id="a_node5"><a xlink:href="d__item_8h.html" target="_top" xlink:title=" ">
<polygon fill="#fff0f0" stroke="red" points="272,-96 177,-96 177,-77 272,-77 272,-96"/>
<text text-anchor="middle" x="224.5" y="-84" font-family="Helvetica,sans-Serif" font-size="10.00">include/d/d_item.h</text>
</a>
</g>
</g>
<!-- Node2&#45;&gt;Node15 -->
<g id="edge4" class="edge">
<title>Node2&#45;&gt;Node15</title>
<path fill="none" stroke="#63b8ff" d="M2335.64,-156.91C2025.82,-156.25 727.84,-150.86 324.5,-107 303.75,-104.74 280.88,-100.42 262.26,-96.42"/>
<polygon fill="#63b8ff" stroke="#63b8ff" points="2335.57,-160.41 2345.58,-156.93 2335.59,-153.41 2335.57,-160.41"/>
</g>
<!-- Node2&#45;&gt;Node12 -->
<g id="edge31" class="edge">
<title>Node2&#45;&gt;Node12</title>
<path fill="none" stroke="#63b8ff" d="M2335.64,-156.46C1991.54,-153.53 434.74,-138.54 396.5,-107 371.79,-86.62 373.34,-43.33 375.31,-24.76"/>
<polygon fill="#63b8ff" stroke="#63b8ff" points="2335.59,-159.96 2345.62,-156.54 2335.65,-152.96 2335.59,-159.96"/>
</g>
<!-- Node16 -->
<g id="node7" class="node">
<title>Node16</title>
<g id="a_node7"><a xlink:href="d__a__obj__item_8cpp.html" target="_top" xlink:title=" ">
<polygon fill="white" stroke="#666666" points="125,-24.5 0,-24.5 0,-5.5 125,-5.5 125,-24.5"/>
<text text-anchor="middle" x="62.5" y="-12.5" font-family="Helvetica,sans-Serif" font-size="10.00">src/d/a/d_a_obj_item.cpp</text>
</a>
</g>
</g>
<!-- Node2&#45;&gt;Node16 -->
<g id="edge34" class="edge">
<title>Node2&#45;&gt;Node16</title>
<path fill="none" stroke="#63b8ff" d="M2335.93,-156.87C1955.47,-155.96 71.95,-149.33 30.5,-107 7.54,-83.55 38.49,-42.66 54.27,-24.79"/>
<polygon fill="#63b8ff" stroke="#63b8ff" points="2335.74,-160.37 2345.75,-156.89 2335.76,-153.37 2335.74,-160.37"/>
</g>
<!-- Node17 -->
<g id="node8" class="node">
<title>Node17</title>
<g id="a_node8"><a xlink:href="d__com__inf__game_8cpp.html" target="_top" xlink:title=" ">
<polygon fill="white" stroke="#666666" points="290.5,-30 182.5,-30 182.5,0 290.5,0 290.5,-30"/>
<text text-anchor="start" x="190.5" y="-18" font-family="Helvetica,sans-Serif" font-size="10.00">src/d/com/d_com_inf</text>
<text text-anchor="middle" x="236.5" y="-7" font-family="Helvetica,sans-Serif" font-size="10.00">_game.cpp</text>
</a>
</g>
</g>
<!-- Node2&#45;&gt;Node17 -->
<g id="edge40" class="edge">
<title>Node2&#45;&gt;Node17</title>
<path fill="none" stroke="#63b8ff" d="M2335.79,-156.41C1995.69,-153.26 467.02,-137.48 371.5,-107 322.49,-91.36 274.93,-51.97 251.53,-30.5"/>
<polygon fill="#63b8ff" stroke="#63b8ff" points="2335.61,-159.91 2345.64,-156.5 2335.67,-152.91 2335.61,-159.91"/>
</g>
<!-- Node20 -->
<g id="node9" class="node">
<title>Node20</title>
<g id="a_node9"><a xlink:href="d__kantera__icon__meter_8h.html" target="_top" xlink:title=" ">
<polygon fill="#fff0f0" stroke="red" points="506,-101.5 405,-101.5 405,-71.5 506,-71.5 506,-101.5"/>
<text text-anchor="start" x="413" y="-89.5" font-family="Helvetica,sans-Serif" font-size="10.00">include/d/d_kantera</text>
<text text-anchor="middle" x="455.5" y="-78.5" font-family="Helvetica,sans-Serif" font-size="10.00">_icon_meter.h</text>
</a>
</g>
</g>
<!-- Node2&#45;&gt;Node20 -->
<g id="edge8" class="edge">
<title>Node2&#45;&gt;Node20</title>
<path fill="none" stroke="#63b8ff" d="M2336.13,-156.37C2022.61,-153.25 697.55,-138.32 515.5,-107 508.59,-105.81 501.39,-104 494.47,-101.95"/>
<polygon fill="#63b8ff" stroke="#63b8ff" points="2335.74,-159.87 2345.77,-156.47 2335.81,-152.87 2335.74,-159.87"/>
</g>
<!-- Node23 -->
<g id="node10" class="node">
<title>Node23</title>
<g id="a_node10"><a xlink:href="d__model_8h.html" target="_top" xlink:title=" ">
<polygon fill="#fff0f0" stroke="red" points="627,-96 524,-96 524,-77 627,-77 627,-96"/>
<text text-anchor="middle" x="575.5" y="-84" font-family="Helvetica,sans-Serif" font-size="10.00">include/d/d_model.h</text>
</a>
</g>
</g>
<!-- Node2&#45;&gt;Node23 -->
<g id="edge9" class="edge">
<title>Node2&#45;&gt;Node23</title>
<path fill="none" stroke="#63b8ff" d="M2336.03,-156.22C2034.92,-152.55 806.1,-135.91 636.5,-107 623.57,-104.8 609.6,-100.48 598.29,-96.47"/>
<polygon fill="#63b8ff" stroke="#63b8ff" points="2335.63,-159.72 2345.67,-156.34 2335.71,-152.72 2335.63,-159.72"/>
</g>
<!-- Node25 -->
<g id="node11" class="node">
<title>Node25</title>
<g id="a_node11"><a xlink:href="d__name_8h.html" target="_top" xlink:title=" ">
<polygon fill="#fff0f0" stroke="red" points="746,-96 645,-96 645,-77 746,-77 746,-96"/>
<text text-anchor="middle" x="695.5" y="-84" font-family="Helvetica,sans-Serif" font-size="10.00">include/d/d_name.h</text>
</a>
</g>
</g>
<!-- Node2&#45;&gt;Node25 -->
<g id="edge10" class="edge">
<title>Node2&#45;&gt;Node25</title>
<path fill="none" stroke="#63b8ff" d="M2335.89,-156.09C2047.35,-152.01 912.73,-134.36 755.5,-107 742.77,-104.78 729.02,-100.47 717.91,-96.46"/>
<polygon fill="#63b8ff" stroke="#63b8ff" points="2335.84,-159.59 2345.89,-156.23 2335.94,-152.59 2335.84,-159.59"/>
</g>
<!-- Node27 -->
<g id="node12" class="node">
<title>Node27</title>
<g id="a_node12"><a xlink:href="d__file__sel__info_8h.html" target="_top" xlink:title=" ">
<polygon fill="#fff0f0" stroke="red" points="860.5,-101.5 764.5,-101.5 764.5,-71.5 860.5,-71.5 860.5,-101.5"/>
<text text-anchor="start" x="772.5" y="-89.5" font-family="Helvetica,sans-Serif" font-size="10.00">include/d/file/d_file</text>
<text text-anchor="middle" x="812.5" y="-78.5" font-family="Helvetica,sans-Serif" font-size="10.00">_sel_info.h</text>
</a>
</g>
</g>
<!-- Node2&#45;&gt;Node27 -->
<g id="edge11" class="edge">
<title>Node2&#45;&gt;Node27</title>
<path fill="none" stroke="#63b8ff" d="M2335.86,-157.45C2079.54,-158.77 1157.13,-159.67 869.5,-107 862.92,-105.79 856.06,-103.97 849.48,-101.92"/>
<polygon fill="#63b8ff" stroke="#63b8ff" points="2335.71,-160.95 2345.69,-157.4 2335.67,-153.95 2335.71,-160.95"/>
</g>
<!-- Node30 -->
<g id="node13" class="node">
<title>Node30</title>
<g id="a_node13"><a xlink:href="d__file__sel__warning_8h.html" target="_top" xlink:title=" ">
<polygon fill="#fff0f0" stroke="red" points="974.5,-101.5 878.5,-101.5 878.5,-71.5 974.5,-71.5 974.5,-101.5"/>
<text text-anchor="start" x="886.5" y="-89.5" font-family="Helvetica,sans-Serif" font-size="10.00">include/d/file/d_file</text>
<text text-anchor="middle" x="926.5" y="-78.5" font-family="Helvetica,sans-Serif" font-size="10.00">_sel_warning.h</text>
</a>
</g>
</g>
<!-- Node2&#45;&gt;Node30 -->
<g id="edge12" class="edge">
<title>Node2&#45;&gt;Node30</title>
<path fill="none" stroke="#63b8ff" d="M2336,-157.24C2092.2,-157.73 1247.93,-155.78 983.5,-107 976.92,-105.79 970.06,-103.96 963.49,-101.9"/>
<polygon fill="#63b8ff" stroke="#63b8ff" points="2335.64,-160.74 2345.63,-157.22 2335.62,-153.74 2335.64,-160.74"/>
</g>
<!-- Node32 -->
<g id="node14" class="node">
<title>Node32</title>
<g id="a_node14"><a xlink:href="d__meter2_8h.html" target="_top" xlink:title=" ">
<polygon fill="#fff0f0" stroke="red" points="1126.5,-96 992.5,-96 992.5,-77 1126.5,-77 1126.5,-96"/>
<text text-anchor="middle" x="1059.5" y="-84" font-family="Helvetica,sans-Serif" font-size="10.00">include/d/meter/d_meter2.h</text>
</a>
</g>
</g>
<!-- Node2&#45;&gt;Node32 -->
<g id="edge13" class="edge">
<title>Node2&#45;&gt;Node32</title>
<path fill="none" stroke="#63b8ff" d="M2335.7,-156.09C2109.68,-152.72 1374.66,-139.5 1140.5,-107 1123.74,-104.67 1105.38,-100.4 1090.38,-96.45"/>
<polygon fill="#63b8ff" stroke="#63b8ff" points="2335.46,-159.58 2345.51,-156.23 2335.57,-152.58 2335.46,-159.58"/>
</g>
<!-- Node39 -->
<g id="node15" class="node">
<title>Node39</title>
<g id="a_node15"><a xlink:href="d__msg__object_8h.html" target="_top" xlink:title=" ">
<polygon fill="#fff0f0" stroke="red" points="1292.5,-101.5 1182.5,-101.5 1182.5,-71.5 1292.5,-71.5 1292.5,-101.5"/>
<text text-anchor="start" x="1190.5" y="-89.5" font-family="Helvetica,sans-Serif" font-size="10.00">include/d/msg/d_msg</text>
<text text-anchor="middle" x="1237.5" y="-78.5" font-family="Helvetica,sans-Serif" font-size="10.00">_object.h</text>
</a>
</g>
</g>
<!-- Node2&#45;&gt;Node39 -->
<g id="edge14" class="edge">
<title>Node2&#45;&gt;Node39</title>
<path fill="none" stroke="#63b8ff" d="M2335.95,-156.16C2129.56,-153.2 1502.07,-141.55 1301.5,-107 1294.29,-105.76 1286.75,-103.95 1279.48,-101.92"/>
<polygon fill="#63b8ff" stroke="#63b8ff" points="2335.64,-159.65 2345.69,-156.3 2335.74,-152.65 2335.64,-159.65"/>
</g>
<!-- Node44 -->
<g id="node16" class="node">
<title>Node44</title>
<g id="a_node16"><a xlink:href="d__demo_8cpp.html" target="_top" xlink:title=" ">
<polygon fill="white" stroke="#666666" points="1242.5,-24.5 1148.5,-24.5 1148.5,-5.5 1242.5,-5.5 1242.5,-24.5"/>
<text text-anchor="middle" x="1195.5" y="-12.5" font-family="Helvetica,sans-Serif" font-size="10.00">src/d/d_demo.cpp</text>
</a>
</g>
</g>
<!-- Node2&#45;&gt;Node44 -->
<g id="edge45" class="edge">
<title>Node2&#45;&gt;Node44</title>
<path fill="none" stroke="#63b8ff" d="M2335.94,-156.81C2085.78,-155.79 1214.01,-149.2 1173.5,-107 1151.44,-84.02 1176.05,-42.89 1188.8,-24.87"/>
<polygon fill="#63b8ff" stroke="#63b8ff" points="2335.85,-160.31 2345.87,-156.85 2335.88,-153.31 2335.85,-160.31"/>
</g>
<!-- Node45 -->
<g id="node17" class="node">
<title>Node45</title>
<g id="a_node17"><a xlink:href="d__event_8cpp.html" target="_top" xlink:title=" ">
<polygon fill="white" stroke="#666666" points="1469,-24.5 1348,-24.5 1348,-5.5 1469,-5.5 1469,-24.5"/>
<text text-anchor="middle" x="1408.5" y="-12.5" font-family="Helvetica,sans-Serif" font-size="10.00">src/d/event/d_event.cpp</text>
</a>
</g>
</g>
<!-- Node2&#45;&gt;Node45 -->
<g id="edge54" class="edge">
<title>Node2&#45;&gt;Node45</title>
<path fill="none" stroke="#63b8ff" d="M2335.72,-156.7C2135.52,-155.33 1549.53,-147.85 1474.5,-107 1457.1,-97.53 1425.8,-45.86 1413.58,-24.87"/>
<polygon fill="#63b8ff" stroke="#63b8ff" points="2335.68,-160.2 2345.7,-156.76 2335.73,-153.2 2335.68,-160.2"/>
</g>
<!-- Node46 -->
<g id="node18" class="node">
<title>Node46</title>
<g id="a_node18"><a xlink:href="d__event__data_8cpp.html" target="_top" xlink:title=" ">
<polygon fill="white" stroke="#666666" points="1868,-30 1765,-30 1765,0 1868,0 1868,-30"/>
<text text-anchor="start" x="1773" y="-18" font-family="Helvetica,sans-Serif" font-size="10.00">src/d/event/d_event</text>
<text text-anchor="middle" x="1816.5" y="-7" font-family="Helvetica,sans-Serif" font-size="10.00">_data.cpp</text>
</a>
</g>
</g>
<!-- Node2&#45;&gt;Node46 -->
<g id="edge55" class="edge">
<title>Node2&#45;&gt;Node46</title>
<path fill="none" stroke="#63b8ff" d="M2336.09,-154.71C2286.43,-150.32 2218.59,-138.42 2167.5,-107 2147.57,-94.75 2154.75,-77.71 2134.5,-66 2090.18,-40.36 1946.37,-25.81 1868.21,-19.61"/>
<polygon fill="#63b8ff" stroke="#63b8ff" points="2335.59,-158.18 2345.83,-155.49 2336.14,-151.21 2335.59,-158.18"/>
</g>
<!-- Node47 -->
<g id="node19" class="node">
<title>Node47</title>
<g id="a_node19"><a xlink:href="d__kankyo_8cpp.html" target="_top" xlink:title=" ">
<polygon fill="white" stroke="#666666" points="2159.5,-24.5 2025.5,-24.5 2025.5,-5.5 2159.5,-5.5 2159.5,-24.5"/>
<text text-anchor="middle" x="2092.5" y="-12.5" font-family="Helvetica,sans-Serif" font-size="10.00">src/d/kankyo/d_kankyo.cpp</text>
</a>
</g>
</g>
<!-- Node2&#45;&gt;Node47 -->
<g id="edge58" class="edge">
<title>Node2&#45;&gt;Node47</title>
<path fill="none" stroke="#63b8ff" d="M2336.13,-147.92C2297.94,-140.72 2250.04,-128.21 2211.5,-107 2188.08,-94.11 2188.47,-82.58 2167.5,-66 2147.61,-50.28 2122.86,-34.43 2107.37,-24.91"/>
<polygon fill="#63b8ff" stroke="#63b8ff" points="2335.18,-151.31 2345.64,-149.63 2336.42,-144.42 2335.18,-151.31"/>
</g>
<!-- Node53 -->
<g id="node20" class="node">
<title>Node53</title>
<g id="a_node20"><a xlink:href="d__s__logo_8h.html" target="_top" xlink:title=" ">
<polygon fill="#fff0f0" stroke="red" points="1596,-96 1483,-96 1483,-77 1596,-77 1596,-96"/>
<text text-anchor="middle" x="1539.5" y="-84" font-family="Helvetica,sans-Serif" font-size="10.00">include/d/s/d_s_logo.h</text>
</a>
</g>
</g>
<!-- Node2&#45;&gt;Node53 -->
<g id="edge20" class="edge">
<title>Node2&#45;&gt;Node53</title>
<path fill="none" stroke="#63b8ff" d="M2336.27,-157.84C2198.89,-158.49 1873.4,-154.36 1605.5,-107 1591.85,-104.59 1577.02,-100.36 1564.88,-96.45"/>
<polygon fill="#63b8ff" stroke="#63b8ff" points="2335.91,-161.34 2345.89,-157.78 2335.87,-154.34 2335.91,-161.34"/>
</g>
<!-- Node55 -->
<g id="node21" class="node">
<title>Node55</title>
<g id="a_node21"><a xlink:href="d__s__play_8h.html" target="_top" xlink:title=" ">
<polygon fill="#fff0f0" stroke="red" points="1727,-96 1614,-96 1614,-77 1727,-77 1727,-96"/>
<text text-anchor="middle" x="1670.5" y="-84" font-family="Helvetica,sans-Serif" font-size="10.00">include/d/s/d_s_play.h</text>
</a>
</g>
</g>
<!-- Node2&#45;&gt;Node55 -->
<g id="edge21" class="edge">
<title>Node2&#45;&gt;Node55</title>
<path fill="none" stroke="#63b8ff" d="M2335.96,-156.66C2215.42,-155.01 1953.34,-146.71 1736.5,-107 1722.98,-104.53 1708.29,-100.34 1696.21,-96.48"/>
<polygon fill="#63b8ff" stroke="#63b8ff" points="2335.62,-160.16 2345.66,-156.78 2335.71,-153.16 2335.62,-160.16"/>
</g>
<!-- Node59 -->
<g id="node22" class="node">
<title>Node59</title>
<g id="a_node22"><a xlink:href="d__msg__scrn__base_8h.html" target="_top" xlink:title=" ">
<polygon fill="#fff0f0" stroke="red" points="1844,-101.5 1745,-101.5 1745,-71.5 1844,-71.5 1844,-101.5"/>
<text text-anchor="start" x="1753" y="-89.5" font-family="Helvetica,sans-Serif" font-size="10.00">include/msg/scrn/d</text>
<text text-anchor="middle" x="1794.5" y="-78.5" font-family="Helvetica,sans-Serif" font-size="10.00">_msg_scrn_base.h</text>
</a>
</g>
</g>
<!-- Node2&#45;&gt;Node59 -->
<g id="edge22" class="edge">
<title>Node2&#45;&gt;Node59</title>
<path fill="none" stroke="#63b8ff" d="M2336.1,-155.83C2232.14,-152.9 2025.1,-142.68 1853.5,-107 1847.16,-105.68 1840.56,-103.91 1834.15,-101.97"/>
<polygon fill="#63b8ff" stroke="#63b8ff" points="2335.74,-159.32 2345.83,-156.09 2335.93,-152.32 2335.74,-159.32"/>
</g>
<!-- Node63 -->
<g id="node23" class="node">
<title>Node63</title>
<g id="a_node23"><a xlink:href="d__a__b__zant_8h.html" target="_top" xlink:title=" ">
<polygon fill="white" stroke="#666666" points="1983,-101.5 1862,-101.5 1862,-71.5 1983,-71.5 1983,-101.5"/>
<text text-anchor="start" x="1870" y="-89.5" font-family="Helvetica,sans-Serif" font-size="10.00">include/rel/d/a/b/d</text>
<text text-anchor="middle" x="1922.5" y="-78.5" font-family="Helvetica,sans-Serif" font-size="10.00">_a_b_zant/d_a_b_zant.h</text>
</a>
</g>
</g>
<!-- Node2&#45;&gt;Node63 -->
<g id="edge23" class="edge">
<title>Node2&#45;&gt;Node63</title>
<path fill="none" stroke="#63b8ff" d="M2335.95,-151.98C2254.43,-145.12 2112.4,-130.87 1992.5,-107 1985.45,-105.6 1978.07,-103.85 1970.85,-101.99"/>
<polygon fill="#63b8ff" stroke="#63b8ff" points="2335.28,-155.44 2345.53,-152.77 2335.85,-148.46 2335.28,-155.44"/>
</g>
<!-- Node64 -->
<g id="node24" class="node">
<title>Node64</title>
<g id="a_node24"><a xlink:href="d__a__skip__2D_8h.html" target="_top" xlink:title=" ">
<polygon fill="white" stroke="#666666" points="2125.5,-101.5 2001.5,-101.5 2001.5,-71.5 2125.5,-71.5 2125.5,-101.5"/>
<text text-anchor="start" x="2009.5" y="-89.5" font-family="Helvetica,sans-Serif" font-size="10.00">include/rel/d/a/d_a</text>
<text text-anchor="middle" x="2063.5" y="-78.5" font-family="Helvetica,sans-Serif" font-size="10.00">_skip_2D/d_a_skip_2D.h</text>
</a>
</g>
</g>
<!-- Node2&#45;&gt;Node64 -->
<g id="edge24" class="edge">
<title>Node2&#45;&gt;Node64</title>
<path fill="none" stroke="#63b8ff" d="M2336.12,-145.58C2282.8,-136.12 2206.1,-121.86 2139.5,-107 2132.59,-105.46 2125.35,-103.74 2118.2,-101.97"/>
<polygon fill="#63b8ff" stroke="#63b8ff" points="2335.19,-148.97 2345.64,-147.26 2336.4,-142.08 2335.19,-148.97"/>
</g>
<!-- Node65 -->
<g id="node25" class="node">
<title>Node65</title>
<g id="a_node25"><a xlink:href="d__a__spinner_8h.html" target="_top" xlink:title=" ">
<polygon fill="white" stroke="#666666" points="1426.5,-101.5 1310.5,-101.5 1310.5,-71.5 1426.5,-71.5 1426.5,-101.5"/>
<text text-anchor="start" x="1318.5" y="-89.5" font-family="Helvetica,sans-Serif" font-size="10.00">include/rel/d/a/d_a</text>
<text text-anchor="middle" x="1368.5" y="-78.5" font-family="Helvetica,sans-Serif" font-size="10.00">_spinner/d_a_spinner.h</text>
</a>
</g>
</g>
<!-- Node2&#45;&gt;Node65 -->
<g id="edge25" class="edge">
<title>Node2&#45;&gt;Node65</title>
<path fill="none" stroke="#63b8ff" d="M2335.9,-155.38C2147.55,-150.51 1613.49,-134.6 1440.5,-107 1432.57,-105.74 1424.26,-103.94 1416.22,-101.94"/>
<polygon fill="#63b8ff" stroke="#63b8ff" points="2335.67,-158.88 2345.76,-155.63 2335.85,-151.88 2335.67,-158.88"/>
</g>
<!-- Node66 -->
<g id="node26" class="node">
<title>Node66</title>
<g id="a_node26"><a xlink:href="d__a__player_8cpp.html" target="_top" xlink:title=" ">
<polygon fill="white" stroke="#666666" points="3881.5,-24.5 3767.5,-24.5 3767.5,-5.5 3881.5,-5.5 3881.5,-24.5"/>
<text text-anchor="middle" x="3824.5" y="-12.5" font-family="Helvetica,sans-Serif" font-size="10.00">src/d/a/d_a_player.cpp</text>
</a>
</g>
</g>
<!-- Node2&#45;&gt;Node66 -->
<g id="edge35" class="edge">
<title>Node2&#45;&gt;Node66</title>
<path fill="none" stroke="#63b8ff" d="M2469.12,-157.15C2902.24,-157.99 5302.2,-160.2 5354.5,-107 5367.28,-94.01 5367.17,-79.09 5354.5,-66 5302.37,-12.14 4153.67,-14.38 3881.81,-15.67"/>
<polygon fill="#63b8ff" stroke="#63b8ff" points="2469.29,-153.65 2459.28,-157.13 2469.28,-160.65 2469.29,-153.65"/>
</g>
<!-- Node67 -->
<g id="node27" class="node">
<title>Node67</title>
<g id="a_node27"><a xlink:href="d__a__obj__yobikusa_8h.html" target="_top" xlink:title=" ">
<polygon fill="white" stroke="#666666" points="2325,-107 2220,-107 2220,-66 2325,-66 2325,-107"/>
<text text-anchor="start" x="2228" y="-95" font-family="Helvetica,sans-Serif" font-size="10.00">include/rel/d/a/obj</text>
<text text-anchor="start" x="2228" y="-84" font-family="Helvetica,sans-Serif" font-size="10.00">/d_a_obj_yobikusa/d</text>
<text text-anchor="middle" x="2272.5" y="-73" font-family="Helvetica,sans-Serif" font-size="10.00">_a_obj_yobikusa.h</text>
</a>
</g>
</g>
<!-- Node2&#45;&gt;Node67 -->
<g id="edge28" class="edge">
<title>Node2&#45;&gt;Node67</title>
<path fill="none" stroke="#63b8ff" d="M2365.7,-137.33C2348.2,-127.97 2327.31,-116.8 2309.75,-107.42"/>
<polygon fill="#63b8ff" stroke="#63b8ff" points="2363.76,-140.26 2374.23,-141.89 2367.06,-134.08 2363.76,-140.26"/>
</g>
<!-- Node68 -->
<g id="node28" class="node">
<title>Node68</title>
<g id="a_node28"><a xlink:href="d__a__tag__telop_8h.html" target="_top" xlink:title=" ">
<polygon fill="white" stroke="#666666" points="2461.5,-107 2343.5,-107 2343.5,-66 2461.5,-66 2461.5,-107"/>
<text text-anchor="start" x="2351.5" y="-95" font-family="Helvetica,sans-Serif" font-size="10.00">include/rel/d/a/tag</text>
<text text-anchor="start" x="2351.5" y="-84" font-family="Helvetica,sans-Serif" font-size="10.00">/d_a_tag_telop/d_a_tag</text>
<text text-anchor="middle" x="2402.5" y="-73" font-family="Helvetica,sans-Serif" font-size="10.00">_telop.h</text>
</a>
</g>
</g>
<!-- Node2&#45;&gt;Node68 -->
<g id="edge29" class="edge">
<title>Node2&#45;&gt;Node68</title>
<path fill="none" stroke="#63b8ff" d="M2402.5,-131.36C2402.5,-123.45 2402.5,-114.87 2402.5,-107.42"/>
<polygon fill="#63b8ff" stroke="#63b8ff" points="2399,-131.09 2402.5,-141.09 2406,-131.09 2399,-131.09"/>
</g>
<!-- Node69 -->
<g id="node29" class="node">
<title>Node69</title>
<g id="a_node29"><a xlink:href="c__dylink_8cpp.html" target="_top" xlink:title=" ">
<polygon fill="white" stroke="#666666" points="2575,-96 2480,-96 2480,-77 2575,-77 2575,-96"/>
<text text-anchor="middle" x="2527.5" y="-84" font-family="Helvetica,sans-Serif" font-size="10.00">src/c/c_dylink.cpp</text>
</a>
</g>
</g>
<!-- Node2&#45;&gt;Node69 -->
<g id="edge30" class="edge">
<title>Node2&#45;&gt;Node69</title>
<path fill="none" stroke="#63b8ff" d="M2438.3,-137.1C2462.46,-123.66 2493.17,-106.59 2511.53,-96.38"/>
<polygon fill="#63b8ff" stroke="#63b8ff" points="2436.76,-133.95 2429.72,-141.86 2440.16,-140.06 2436.76,-133.95"/>
</g>
<!-- Node70 -->
<g id="node30" class="node">
<title>Node70</title>
<g id="a_node30"><a xlink:href="d__a__itembase_8cpp.html" target="_top" xlink:title=" ">
<polygon fill="white" stroke="#666666" points="2721.5,-96 2593.5,-96 2593.5,-77 2721.5,-77 2721.5,-96"/>
<text text-anchor="middle" x="2657.5" y="-84" font-family="Helvetica,sans-Serif" font-size="10.00">src/d/a/d_a_itembase.cpp</text>
</a>
</g>
</g>
<!-- Node2&#45;&gt;Node70 -->
<g id="edge32" class="edge">
<title>Node2&#45;&gt;Node70</title>
<path fill="none" stroke="#63b8ff" d="M2466.73,-139.49C2517.01,-125.79 2584.88,-107.29 2624.64,-96.46"/>
<polygon fill="#63b8ff" stroke="#63b8ff" points="2465.83,-136.11 2457.11,-142.12 2467.67,-142.86 2465.83,-136.11"/>
</g>
<!-- Node71 -->
<g id="node31" class="node">
<title>Node71</title>
<g id="a_node31"><a xlink:href="d__a__obj_8cpp.html" target="_top" xlink:title=" ">
<polygon fill="white" stroke="#666666" points="2841,-96 2740,-96 2740,-77 2841,-77 2841,-96"/>
<text text-anchor="middle" x="2790.5" y="-84" font-family="Helvetica,sans-Serif" font-size="10.00">src/d/a/d_a_obj.cpp</text>
</a>
</g>
</g>
<!-- Node2&#45;&gt;Node71 -->
<g id="edge33" class="edge">
<title>Node2&#45;&gt;Node71</title>
<path fill="none" stroke="#63b8ff" d="M2469.05,-150.08C2535.75,-142.39 2641.09,-128.19 2730.5,-107 2742.33,-104.2 2755.18,-100.16 2765.94,-96.48"/>
<polygon fill="#63b8ff" stroke="#63b8ff" points="2468.91,-146.57 2459.37,-151.18 2469.7,-153.53 2468.91,-146.57"/>
</g>
<!-- Node72 -->
<g id="node32" class="node">
<title>Node72</title>
<g id="a_node32"><a xlink:href="d__bg__s_8cpp.html" target="_top" xlink:title=" ">
<polygon fill="white" stroke="#666666" points="2963.5,-96 2859.5,-96 2859.5,-77 2963.5,-77 2963.5,-96"/>
<text text-anchor="middle" x="2911.5" y="-84" font-family="Helvetica,sans-Serif" font-size="10.00">src/d/bg/d_bg_s.cpp</text>
</a>
</g>
</g>
<!-- Node2&#45;&gt;Node72 -->
<g id="edge36" class="edge">
<title>Node2&#45;&gt;Node72</title>
<path fill="none" stroke="#63b8ff" d="M2469.32,-153.68C2557.45,-148.37 2717.01,-135.49 2850.5,-107 2862.9,-104.35 2876.35,-100.2 2887.46,-96.4"/>
<polygon fill="#63b8ff" stroke="#63b8ff" points="2469.18,-150.19 2459.4,-154.27 2469.59,-157.17 2469.18,-150.19"/>
</g>
<!-- Node73 -->
<g id="node33" class="node">
<title>Node73</title>
<g id="a_node33"><a xlink:href="d__bg__s__movebg__actor_8cpp.html" target="_top" xlink:title=" ">
<polygon fill="white" stroke="#666666" points="3107.5,-101.5 2981.5,-101.5 2981.5,-71.5 3107.5,-71.5 3107.5,-101.5"/>
<text text-anchor="start" x="2989.5" y="-89.5" font-family="Helvetica,sans-Serif" font-size="10.00">src/d/bg/d_bg_s_movebg</text>
<text text-anchor="middle" x="3044.5" y="-78.5" font-family="Helvetica,sans-Serif" font-size="10.00">_actor.cpp</text>
</a>
</g>
</g>
<!-- Node2&#45;&gt;Node73 -->
<g id="edge37" class="edge">
<title>Node2&#45;&gt;Node73</title>
<path fill="none" stroke="#63b8ff" d="M2469.2,-154.97C2576.14,-150.87 2792.26,-139.05 2972.5,-107 2980.02,-105.66 2987.9,-103.91 2995.57,-101.99"/>
<polygon fill="#63b8ff" stroke="#63b8ff" points="2469.33,-151.47 2459.46,-155.34 2469.59,-158.46 2469.33,-151.47"/>
</g>
<!-- Node74 -->
<g id="node34" class="node">
<title>Node74</title>
<g id="a_node34"><a xlink:href="d__bg__w_8cpp.html" target="_top" xlink:title=" ">
<polygon fill="white" stroke="#666666" points="3233,-96 3126,-96 3126,-77 3233,-77 3233,-96"/>
<text text-anchor="middle" x="3179.5" y="-84" font-family="Helvetica,sans-Serif" font-size="10.00">src/d/bg/d_bg_w.cpp</text>
</a>
</g>
</g>
<!-- Node2&#45;&gt;Node74 -->
<g id="edge38" class="edge">
<title>Node2&#45;&gt;Node74</title>
<path fill="none" stroke="#63b8ff" d="M2469.12,-157.42C2596.17,-157.1 2881.39,-151.01 3116.5,-107 3129.55,-104.56 3143.71,-100.32 3155.3,-96.42"/>
<polygon fill="#63b8ff" stroke="#63b8ff" points="2469.2,-153.92 2459.2,-157.43 2469.2,-160.92 2469.2,-153.92"/>
</g>
<!-- Node75 -->
<g id="node35" class="node">
<title>Node75</title>
<g id="a_node35"><a xlink:href="d__cc__s_8cpp.html" target="_top" xlink:title=" ">
<polygon fill="white" stroke="#666666" points="3355.5,-96 3251.5,-96 3251.5,-77 3355.5,-77 3355.5,-96"/>
<text text-anchor="middle" x="3303.5" y="-84" font-family="Helvetica,sans-Serif" font-size="10.00">src/d/cc/d_cc_s.cpp</text>
</a>
</g>
</g>
<!-- Node2&#45;&gt;Node75 -->
<g id="edge39" class="edge">
<title>Node2&#45;&gt;Node75</title>
<path fill="none" stroke="#63b8ff" d="M2469.14,-155.18C2640.73,-150.16 3094.57,-134.6 3242.5,-107 3255.18,-104.63 3268.89,-100.41 3280.1,-96.5"/>
<polygon fill="#63b8ff" stroke="#63b8ff" points="2469.18,-151.68 2459.28,-155.47 2469.38,-158.68 2469.18,-151.68"/>
</g>
<!-- Node76 -->
<g id="node36" class="node">
<title>Node76</title>
<g id="a_node36"><a xlink:href="d__com__static_8cpp.html" target="_top" xlink:title=" ">
<polygon fill="white" stroke="#666666" points="3513.5,-96 3373.5,-96 3373.5,-77 3513.5,-77 3513.5,-96"/>
<text text-anchor="middle" x="3443.5" y="-84" font-family="Helvetica,sans-Serif" font-size="10.00">src/d/com/d_com_static.cpp</text>
</a>
</g>
</g>
<!-- Node2&#45;&gt;Node76 -->
<g id="edge41" class="edge">
<title>Node2&#45;&gt;Node76</title>
<path fill="none" stroke="#63b8ff" d="M2469.07,-155.19C2657.34,-149.8 3191.21,-132.65 3364.5,-107 3380.71,-104.6 3398.45,-100.37 3413.01,-96.46"/>
<polygon fill="#63b8ff" stroke="#63b8ff" points="2469.11,-151.69 2459.21,-155.47 2469.31,-158.68 2469.11,-151.69"/>
</g>
<!-- Node77 -->
<g id="node37" class="node">
<title>Node77</title>
<g id="a_node37"><a xlink:href="d__attention_8cpp.html" target="_top" xlink:title=" ">
<polygon fill="white" stroke="#666666" points="3639,-96 3532,-96 3532,-77 3639,-77 3639,-96"/>
<text text-anchor="middle" x="3585.5" y="-84" font-family="Helvetica,sans-Serif" font-size="10.00">src/d/d_attention.cpp</text>
</a>
</g>
</g>
<!-- Node2&#45;&gt;Node77 -->
<g id="edge42" class="edge">
<title>Node2&#45;&gt;Node77</title>
<path fill="none" stroke="#63b8ff" d="M2469.11,-156.26C2677.97,-153.57 3318.19,-142.57 3522.5,-107 3535.7,-104.7 3549.99,-100.43 3561.62,-96.47"/>
<polygon fill="#63b8ff" stroke="#63b8ff" points="2469.2,-152.75 2459.25,-156.38 2469.29,-159.75 2469.2,-152.75"/>
</g>
<!-- Node78 -->
<g id="node38" class="node">
<title>Node78</title>
<g id="a_node38"><a xlink:href="d__cam__param_8cpp.html" target="_top" xlink:title=" ">
<polygon fill="white" stroke="#666666" points="3778,-96 3657,-96 3657,-77 3778,-77 3778,-96"/>
<text text-anchor="middle" x="3717.5" y="-84" font-family="Helvetica,sans-Serif" font-size="10.00">src/d/d_cam_param.cpp</text>
</a>
</g>
</g>
<!-- Node2&#45;&gt;Node78 -->
<g id="edge43" class="edge">
<title>Node2&#45;&gt;Node78</title>
<path fill="none" stroke="#63b8ff" d="M2468.88,-156.39C2692.64,-154.03 3418.12,-143.65 3648.5,-107 3662.88,-104.71 3678.53,-100.44 3691.29,-96.48"/>
<polygon fill="#63b8ff" stroke="#63b8ff" points="2469.15,-152.89 2459.18,-156.49 2469.22,-159.89 2469.15,-152.89"/>
</g>
<!-- Node79 -->
<g id="node39" class="node">
<title>Node79</title>
<g id="a_node39"><a xlink:href="d__camera_8cpp.html" target="_top" xlink:title=" ">
<polygon fill="white" stroke="#666666" points="3898.5,-96 3796.5,-96 3796.5,-77 3898.5,-77 3898.5,-96"/>
<text text-anchor="middle" x="3847.5" y="-84" font-family="Helvetica,sans-Serif" font-size="10.00">src/d/d_camera.cpp</text>
</a>
</g>
</g>
<!-- Node2&#45;&gt;Node79 -->
<g id="edge44" class="edge">
<title>Node2&#45;&gt;Node79</title>
<path fill="none" stroke="#63b8ff" d="M2468.96,-157.04C2708.86,-156.81 3529.62,-152.64 3787.5,-107 3800.23,-104.75 3813.97,-100.43 3825.09,-96.43"/>
<polygon fill="#63b8ff" stroke="#63b8ff" points="2469.15,-153.54 2459.16,-157.05 2469.16,-160.54 2469.15,-153.54"/>
</g>
<!-- Node80 -->
<g id="node40" class="node">
<title>Node80</title>
<g id="a_node40"><a xlink:href="d__eye__hl_8cpp.html" target="_top" xlink:title=" ">
<polygon fill="white" stroke="#666666" points="4014.5,-96 3916.5,-96 3916.5,-77 4014.5,-77 4014.5,-96"/>
<text text-anchor="middle" x="3965.5" y="-84" font-family="Helvetica,sans-Serif" font-size="10.00">src/d/d_eye_hl.cpp</text>
</a>
</g>
</g>
<!-- Node2&#45;&gt;Node80 -->
<g id="edge46" class="edge">
<title>Node2&#45;&gt;Node80</title>
<path fill="none" stroke="#63b8ff" d="M2469.19,-157.36C2722.57,-158.31 3625.47,-157.96 3907.5,-107 3919.84,-104.77 3933.12,-100.45 3943.86,-96.45"/>
<polygon fill="#63b8ff" stroke="#63b8ff" points="2469.5,-153.86 2459.48,-157.32 2469.47,-160.86 2469.5,-153.86"/>
</g>
<!-- Node81 -->
<g id="node41" class="node">
<title>Node81</title>
<g id="a_node41"><a xlink:href="d__kyeff_8cpp.html" target="_top" xlink:title=" ">
<polygon fill="white" stroke="#666666" points="4122.5,-96 4032.5,-96 4032.5,-77 4122.5,-77 4122.5,-96"/>
<text text-anchor="middle" x="4077.5" y="-84" font-family="Helvetica,sans-Serif" font-size="10.00">src/d/d_kyeff.cpp</text>
</a>
</g>
</g>
<!-- Node2&#45;&gt;Node81 -->
<g id="edge47" class="edge">
<title>Node2&#45;&gt;Node81</title>
<path fill="none" stroke="#63b8ff" d="M2469.02,-156.18C2754.63,-152.52 3869.38,-136.43 4023.5,-107 4035.05,-104.79 4047.43,-100.48 4057.41,-96.47"/>
<polygon fill="#63b8ff" stroke="#63b8ff" points="2469.1,-152.68 2459.14,-156.31 2469.19,-159.68 2469.1,-152.68"/>
</g>
<!-- Node82 -->
<g id="node42" class="node">
<title>Node82</title>
<g id="a_node42"><a xlink:href="d__path_8cpp.html" target="_top" xlink:title=" ">
<polygon fill="white" stroke="#666666" points="4230,-96 4141,-96 4141,-77 4230,-77 4230,-96"/>
<text text-anchor="middle" x="4185.5" y="-84" font-family="Helvetica,sans-Serif" font-size="10.00">src/d/d_path.cpp</text>
</a>
</g>
</g>
<!-- Node2&#45;&gt;Node82 -->
<g id="edge48" class="edge">
<title>Node2&#45;&gt;Node82</title>
<path fill="none" stroke="#63b8ff" d="M2469.02,-156.32C2766.35,-153.13 3966.28,-138.39 4131.5,-107 4143.06,-104.8 4155.43,-100.49 4165.42,-96.48"/>
<polygon fill="#63b8ff" stroke="#63b8ff" points="2469.07,-152.82 2459.1,-156.43 2469.14,-159.82 2469.07,-152.82"/>
</g>
<!-- Node83 -->
<g id="node43" class="node">
<title>Node83</title>
<g id="a_node43"><a xlink:href="d__resorce_8cpp.html" target="_top" xlink:title=" ">
<polygon fill="white" stroke="#666666" points="4350.5,-96 4248.5,-96 4248.5,-77 4350.5,-77 4350.5,-96"/>
<text text-anchor="middle" x="4299.5" y="-84" font-family="Helvetica,sans-Serif" font-size="10.00">src/d/d_resorce.cpp</text>
</a>
</g>
</g>
<!-- Node2&#45;&gt;Node83 -->
<g id="edge49" class="edge">
<title>Node2&#45;&gt;Node83</title>
<path fill="none" stroke="#63b8ff" d="M2469.08,-156.32C2777.83,-153.01 4062.66,-137.49 4239.5,-107 4252.24,-104.8 4265.98,-100.49 4277.09,-96.48"/>
<polygon fill="#63b8ff" stroke="#63b8ff" points="2469.14,-152.82 2459.17,-156.42 2469.21,-159.82 2469.14,-152.82"/>
</g>
<!-- Node84 -->
<g id="node44" class="node">
<title>Node84</title>
<g id="a_node44"><a xlink:href="d__simple__model_8cpp.html" target="_top" xlink:title=" ">
<polygon fill="white" stroke="#666666" points="4498.5,-96 4368.5,-96 4368.5,-77 4498.5,-77 4498.5,-96"/>
<text text-anchor="middle" x="4433.5" y="-84" font-family="Helvetica,sans-Serif" font-size="10.00">src/d/d_simple_model.cpp</text>
</a>
</g>
</g>
<!-- Node2&#45;&gt;Node84 -->
<g id="edge50" class="edge">
<title>Node2&#45;&gt;Node84</title>
<path fill="none" stroke="#63b8ff" d="M2469.39,-157.37C2768.22,-158.71 3982.85,-160.69 4359.5,-107 4375.02,-104.79 4391.96,-100.47 4405.7,-96.46"/>
<polygon fill="#63b8ff" stroke="#63b8ff" points="2469.44,-153.87 2459.42,-157.33 2469.4,-160.87 2469.44,-153.87"/>
</g>
<!-- Node85 -->
<g id="node45" class="node">
<title>Node85</title>
<g id="a_node45"><a xlink:href="d__stage_8cpp.html" target="_top" xlink:title=" ">
<polygon fill="white" stroke="#666666" points="4610.5,-96 4516.5,-96 4516.5,-77 4610.5,-77 4610.5,-96"/>
<text text-anchor="middle" x="4563.5" y="-84" font-family="Helvetica,sans-Serif" font-size="10.00">src/d/d_stage.cpp</text>
</a>
</g>
</g>
<!-- Node2&#45;&gt;Node85 -->
<g id="edge51" class="edge">
<title>Node2&#45;&gt;Node85</title>
<path fill="none" stroke="#63b8ff" d="M2469.3,-156.65C2805.39,-154.71 4303.33,-144.03 4507.5,-107 4519.55,-104.81 4532.5,-100.45 4542.91,-96.4"/>
<polygon fill="#63b8ff" stroke="#63b8ff" points="2469.34,-153.15 2459.36,-156.7 2469.38,-160.15 2469.34,-153.15"/>
</g>
<!-- Node86 -->
<g id="node46" class="node">
<title>Node86</title>
<g id="a_node46"><a xlink:href="d__timer_8cpp.html" target="_top" xlink:title=" ">
<polygon fill="white" stroke="#666666" points="4720.5,-96 4628.5,-96 4628.5,-77 4720.5,-77 4720.5,-96"/>
<text text-anchor="middle" x="4674.5" y="-84" font-family="Helvetica,sans-Serif" font-size="10.00">src/d/d_timer.cpp</text>
</a>
</g>
</g>
<!-- Node2&#45;&gt;Node86 -->
<g id="edge52" class="edge">
<title>Node2&#45;&gt;Node86</title>
<path fill="none" stroke="#63b8ff" d="M2469.2,-156.76C2815.83,-155.32 4403.81,-146.61 4619.5,-107 4631.36,-104.82 4644.08,-100.46 4654.29,-96.41"/>
<polygon fill="#63b8ff" stroke="#63b8ff" points="2469.37,-153.26 2459.39,-156.8 2469.4,-160.26 2469.37,-153.26"/>
</g>
<!-- Node87 -->
<g id="node47" class="node">
<title>Node87</title>
<g id="a_node47"><a xlink:href="d__tresure_8cpp.html" target="_top" xlink:title=" ">
<polygon fill="white" stroke="#666666" points="4838.5,-96 4738.5,-96 4738.5,-77 4838.5,-77 4838.5,-96"/>
<text text-anchor="middle" x="4788.5" y="-84" font-family="Helvetica,sans-Serif" font-size="10.00">src/d/d_tresure.cpp</text>
</a>
</g>
</g>
<!-- Node2&#45;&gt;Node87 -->
<g id="edge53" class="edge">
<title>Node2&#45;&gt;Node87</title>
<path fill="none" stroke="#63b8ff" d="M2469.3,-156.75C2826.36,-155.24 4501.98,-146.14 4729.5,-107 4742.15,-104.82 4755.79,-100.46 4766.76,-96.41"/>
<polygon fill="#63b8ff" stroke="#63b8ff" points="2469.39,-153.25 2459.41,-156.79 2469.42,-160.25 2469.39,-153.25"/>
</g>
<!-- Node88 -->
<g id="node48" class="node">
<title>Node88</title>
<g id="a_node48"><a xlink:href="d__event__lib_8cpp.html" target="_top" xlink:title=" ">
<polygon fill="white" stroke="#666666" points="4960,-101.5 4857,-101.5 4857,-71.5 4960,-71.5 4960,-101.5"/>
<text text-anchor="start" x="4865" y="-89.5" font-family="Helvetica,sans-Serif" font-size="10.00">src/d/event/d_event</text>
<text text-anchor="middle" x="4908.5" y="-78.5" font-family="Helvetica,sans-Serif" font-size="10.00">_lib.cpp</text>
</a>
</g>
</g>
<!-- Node2&#45;&gt;Node88 -->
<g id="edge56" class="edge">
<title>Node2&#45;&gt;Node88</title>
<path fill="none" stroke="#63b8ff" d="M2469.39,-156.78C2837.4,-155.44 4607.53,-146.94 4847.5,-107 4854.52,-105.83 4861.84,-104.03 4868.88,-101.98"/>
<polygon fill="#63b8ff" stroke="#63b8ff" points="2469.41,-153.28 2459.42,-156.82 2469.43,-160.28 2469.41,-153.28"/>
</g>
<!-- Node89 -->
<g id="node49" class="node">
<title>Node89</title>
<g id="a_node49"><a xlink:href="d__event__manager_8cpp.html" target="_top" xlink:title=" ">
<polygon fill="white" stroke="#666666" points="5081,-101.5 4978,-101.5 4978,-71.5 5081,-71.5 5081,-101.5"/>
<text text-anchor="start" x="4986" y="-89.5" font-family="Helvetica,sans-Serif" font-size="10.00">src/d/event/d_event</text>
<text text-anchor="middle" x="5029.5" y="-78.5" font-family="Helvetica,sans-Serif" font-size="10.00">_manager.cpp</text>
</a>
</g>
</g>
<!-- Node2&#45;&gt;Node89 -->
<g id="edge57" class="edge">
<title>Node2&#45;&gt;Node89</title>
<path fill="none" stroke="#63b8ff" d="M2469.08,-156.87C2847.24,-156 4716.83,-149.55 4969.5,-107 4976.41,-105.84 4983.62,-104.03 4990.54,-101.99"/>
<polygon fill="#63b8ff" stroke="#63b8ff" points="2469.31,-153.37 2459.32,-156.9 2469.33,-160.37 2469.31,-153.37"/>
</g>
<!-- Node90 -->
<g id="node50" class="node">
<title>Node90</title>
<g id="a_node50"><a xlink:href="d__kankyo__rain_8cpp.html" target="_top" xlink:title=" ">
<polygon fill="white" stroke="#666666" points="5215.5,-101.5 5099.5,-101.5 5099.5,-71.5 5215.5,-71.5 5215.5,-101.5"/>
<text text-anchor="start" x="5107.5" y="-89.5" font-family="Helvetica,sans-Serif" font-size="10.00">src/d/kankyo/d_kankyo</text>
<text text-anchor="middle" x="5157.5" y="-78.5" font-family="Helvetica,sans-Serif" font-size="10.00">_rain.cpp</text>
</a>
</g>
</g>
<!-- Node2&#45;&gt;Node90 -->
<g id="edge59" class="edge">
<title>Node2&#45;&gt;Node90</title>
<path fill="none" stroke="#63b8ff" d="M2469.06,-156.81C2857.61,-155.59 4824.54,-147.44 5090.5,-107 5098.17,-105.83 5106.19,-104.03 5113.9,-101.99"/>
<polygon fill="#63b8ff" stroke="#63b8ff" points="2469.26,-153.31 2459.28,-156.85 2469.29,-160.31 2469.26,-153.31"/>
</g>
<!-- Node15&#45;&gt;Node12 -->
<g id="edge5" class="edge">
<title>Node15&#45;&gt;Node12</title>
<path fill="none" stroke="#63b8ff" d="M254.48,-71.79C284.89,-57.89 331.06,-36.78 357.01,-24.91"/>
<polygon fill="#63b8ff" stroke="#63b8ff" points="253.08,-68.59 245.44,-75.93 255.99,-74.95 253.08,-68.59"/>
</g>
<!-- Node15&#45;&gt;Node16 -->
<g id="edge6" class="edge">
<title>Node15&#45;&gt;Node16</title>
<path fill="none" stroke="#63b8ff" d="M193.39,-72.15C161,-58.26 111.17,-36.88 83.27,-24.91"/>
<polygon fill="#63b8ff" stroke="#63b8ff" points="191.69,-75.23 202.26,-75.96 194.45,-68.8 191.69,-75.23"/>
</g>
<!-- Node15&#45;&gt;Node17 -->
<g id="edge7" class="edge">
<title>Node15&#45;&gt;Node17</title>
<path fill="none" stroke="#63b8ff" d="M227.97,-65.39C229.91,-54.15 232.29,-40.41 234.04,-30.27"/>
<polygon fill="#63b8ff" stroke="#63b8ff" points="224.53,-64.76 226.28,-75.21 231.43,-65.95 224.53,-64.76"/>
</g>
<!-- Node39&#45;&gt;Node12 -->
<g id="edge15" class="edge">
<title>Node39&#45;&gt;Node12</title>
<path fill="none" stroke="#63b8ff" d="M1170.98,-71.56C1159.2,-69.44 1147.02,-67.47 1135.5,-66 873.2,-32.42 556.84,-20.78 431.49,-17.3"/>
<polygon fill="#63b8ff" stroke="#63b8ff" points="1170.16,-74.97 1180.63,-73.35 1171.43,-68.08 1170.16,-74.97"/>
</g>
<!-- Node39&#45;&gt;Node44 -->
<g id="edge16" class="edge">
<title>Node39&#45;&gt;Node44</title>
<path fill="none" stroke="#63b8ff" d="M1222.99,-61.49C1215.28,-48.74 1206.29,-33.86 1200.74,-24.68"/>
<polygon fill="#63b8ff" stroke="#63b8ff" points="1219.85,-63.06 1228.01,-69.8 1225.84,-59.44 1219.85,-63.06"/>
</g>
<!-- Node39&#45;&gt;Node45 -->
<g id="edge17" class="edge">
<title>Node39&#45;&gt;Node45</title>
<path fill="none" stroke="#63b8ff" d="M1283.4,-66.84C1316.88,-53.24 1360.75,-35.41 1386.66,-24.88"/>
<polygon fill="#63b8ff" stroke="#63b8ff" points="1282.28,-63.52 1274.33,-70.53 1284.92,-70.01 1282.28,-63.52"/>
</g>
<!-- Node39&#45;&gt;Node46 -->
<g id="edge18" class="edge">
<title>Node39&#45;&gt;Node46</title>
<path fill="none" stroke="#63b8ff" d="M1291.9,-68.13C1295.13,-67.35 1298.35,-66.63 1301.5,-66 1468.9,-32.72 1671.5,-21.3 1764.84,-17.62"/>
<polygon fill="#63b8ff" stroke="#63b8ff" points="1291.18,-64.7 1282.39,-70.62 1292.95,-71.47 1291.18,-64.7"/>
</g>
<!-- Node39&#45;&gt;Node47 -->
<g id="edge19" class="edge">
<title>Node39&#45;&gt;Node47</title>
<path fill="none" stroke="#63b8ff" d="M1290.7,-68.27C1294.33,-67.41 1297.96,-66.64 1301.5,-66 1553.9,-20.31 1621.52,-46.33 1877.5,-30 1926.96,-26.84 1982.82,-23.2 2025.2,-20.43"/>
<polygon fill="#63b8ff" stroke="#63b8ff" points="1290.12,-64.81 1281.31,-70.71 1291.87,-71.59 1290.12,-64.81"/>
</g>
<!-- Node65&#45;&gt;Node12 -->
<g id="edge26" class="edge">
<title>Node65&#45;&gt;Node12</title>
<path fill="none" stroke="#63b8ff" d="M1313.15,-68.33C1309.23,-67.44 1305.32,-66.65 1301.5,-66 1132.55,-37.24 603.8,-21.71 431.43,-17.32"/>
<polygon fill="#63b8ff" stroke="#63b8ff" points="1312.13,-71.68 1322.67,-70.69 1313.81,-64.89 1312.13,-71.68"/>
</g>
<!-- Node65&#45;&gt;Node66 -->
<g id="edge27" class="edge">
<title>Node65&#45;&gt;Node66</title>
<path fill="none" stroke="#63b8ff" d="M1437.87,-71.09C1450.03,-69.04 1462.6,-67.21 1474.5,-66 1939.34,-18.61 3452.99,-15.99 3767.1,-15.97"/>
<polygon fill="#63b8ff" stroke="#63b8ff" points="1437.59,-67.59 1428.34,-72.77 1438.8,-74.48 1437.59,-67.59"/>
</g>
</g>
</svg>
