<?xml version="1.0" encoding="UTF-8" standalone="no"?>
<!DOCTYPE svg PUBLIC "-//W3C//DTD SVG 1.1//EN"
 "http://www.w3.org/Graphics/SVG/1.1/DTD/svg11.dtd">
<!-- Generated by graphviz version 7.0.4 (20221203.1631)
 -->
<!-- Title: include/d/a/d_a_itembase.h Pages: 1 -->
<svg width="4715pt" height="302pt"
 viewBox="0.00 0.00 4714.50 302.00" xmlns="http://www.w3.org/2000/svg" xmlns:xlink="http://www.w3.org/1999/xlink">
<g id="graph0" class="graph" transform="scale(1 1) rotate(0) translate(4 298)">
<title>include/d/a/d_a_itembase.h</title>
<!-- Node1 -->
<g id="node1" class="node">
<title>Node1</title>
<g id="a_node1"><a xlink:title=" ">
<polygon fill="#999999" stroke="#666666" points="4353.5,-294 4218.5,-294 4218.5,-275 4353.5,-275 4353.5,-294"/>
<text text-anchor="middle" x="4286" y="-282" font-family="Helvetica,sans-Serif" font-size="10.00">include/d/a/d_a_itembase.h</text>
</a>
</g>
</g>
<!-- Node2 -->
<g id="node2" class="node">
<title>Node2</title>
<g id="a_node2"><a xlink:href="d__a__item__static_8h.html" target="_top" xlink:title=" ">
<polygon fill="white" stroke="#666666" points="4554.5,-173 4447.5,-173 4447.5,-143 4554.5,-143 4554.5,-173"/>
<text text-anchor="start" x="4455.5" y="-161" font-family="Helvetica,sans-Serif" font-size="10.00">include/d/a/d_a_item</text>
<text text-anchor="middle" x="4501" y="-150" font-family="Helvetica,sans-Serif" font-size="10.00">_static.h</text>
</a>
</g>
</g>
<!-- Node1&#45;&gt;Node2 -->
<g id="edge1" class="edge">
<title>Node1&#45;&gt;Node2</title>
<path fill="none" stroke="#63b8ff" d="M4364.68,-274.61C4393.94,-268.29 4426.06,-257.48 4451,-239 4473.76,-222.13 4488.6,-191.53 4495.82,-173.45"/>
<polygon fill="#63b8ff" stroke="#63b8ff" points="4364.23,-271.13 4355.11,-276.52 4365.6,-278 4364.23,-271.13"/>
</g>
<!-- Node6 -->
<g id="node6" class="node">
<title>Node6</title>
<g id="a_node6"><a xlink:href="d__a__itembase__static_8h.html" target="_top" xlink:title=" ">
<polygon fill="white" stroke="#666666" points="4442,-239 4314,-239 4314,-209 4442,-209 4442,-239"/>
<text text-anchor="start" x="4322" y="-227" font-family="Helvetica,sans-Serif" font-size="10.00">include/d/a/d_a_itembase</text>
<text text-anchor="middle" x="4378" y="-216" font-family="Helvetica,sans-Serif" font-size="10.00">_static.h</text>
</a>
</g>
</g>
<!-- Node1&#45;&gt;Node6 -->
<g id="edge5" class="edge">
<title>Node1&#45;&gt;Node6</title>
<path fill="none" stroke="#63b8ff" d="M4309.45,-268.59C4323.53,-259.64 4341.35,-248.3 4355.29,-239.44"/>
<polygon fill="#63b8ff" stroke="#63b8ff" points="4307.81,-265.48 4301.25,-273.8 4311.57,-271.39 4307.81,-265.48"/>
</g>
<!-- Node8 -->
<g id="node8" class="node">
<title>Node8</title>
<g id="a_node8"><a xlink:href="d__a__shop__item__static_8h.html" target="_top" xlink:title=" ">
<polygon fill="white" stroke="#666666" points="245.5,-239 136.5,-239 136.5,-209 245.5,-209 245.5,-239"/>
<text text-anchor="start" x="144.5" y="-227" font-family="Helvetica,sans-Serif" font-size="10.00">include/d/a/d_a_shop</text>
<text text-anchor="middle" x="191" y="-216" font-family="Helvetica,sans-Serif" font-size="10.00">_item_static.h</text>
</a>
</g>
</g>
<!-- Node1&#45;&gt;Node8 -->
<g id="edge8" class="edge">
<title>Node1&#45;&gt;Node8</title>
<path fill="none" stroke="#63b8ff" d="M4207.1,-282.37C3681,-274.86 688.59,-232.11 245.76,-225.78"/>
<polygon fill="#63b8ff" stroke="#63b8ff" points="4206.78,-285.87 4216.83,-282.51 4206.88,-278.87 4206.78,-285.87"/>
</g>
<!-- Node15 -->
<g id="node13" class="node">
<title>Node15</title>
<g id="a_node13"><a xlink:href="d__event_8h.html" target="_top" xlink:title=" ">
<polygon fill="white" stroke="#666666" points="2402,-233.5 2274,-233.5 2274,-214.5 2402,-214.5 2402,-233.5"/>
<text text-anchor="middle" x="2338" y="-221.5" font-family="Helvetica,sans-Serif" font-size="10.00">include/d/event/d_event.h</text>
</a>
</g>
</g>
<!-- Node1&#45;&gt;Node15 -->
<g id="edge13" class="edge">
<title>Node1&#45;&gt;Node15</title>
<path fill="none" stroke="#63b8ff" d="M4206.63,-281.12C3886.43,-271.5 2692.98,-235.66 2402.19,-226.93"/>
<polygon fill="#63b8ff" stroke="#63b8ff" points="4206.48,-284.61 4216.58,-281.42 4206.69,-277.62 4206.48,-284.61"/>
</g>
<!-- Node81 -->
<g id="node39" class="node">
<title>Node81</title>
<g id="a_node39"><a xlink:href="d__a__itembase_8cpp.html" target="_top" xlink:title=" ">
<polygon fill="white" stroke="#666666" points="4432,-96 4304,-96 4304,-77 4432,-77 4432,-96"/>
<text text-anchor="middle" x="4368" y="-84" font-family="Helvetica,sans-Serif" font-size="10.00">src/d/a/d_a_itembase.cpp</text>
</a>
</g>
</g>
<!-- Node1&#45;&gt;Node81 -->
<g id="edge62" class="edge">
<title>Node1&#45;&gt;Node81</title>
<path fill="none" stroke="#63b8ff" d="M4285.57,-263.46C4285.78,-235.01 4289.26,-182.04 4310,-143 4320.59,-123.06 4341,-106.13 4354.57,-96.39"/>
<polygon fill="#63b8ff" stroke="#63b8ff" points="4282.07,-263.18 4285.64,-273.15 4289.07,-263.13 4282.07,-263.18"/>
</g>
<!-- Node3 -->
<g id="node3" class="node">
<title>Node3</title>
<g id="a_node3"><a xlink:href="d__a__obj__item_8h.html" target="_top" xlink:title=" ">
<polygon fill="white" stroke="#666666" points="4551.5,-101.5 4450.5,-101.5 4450.5,-71.5 4551.5,-71.5 4551.5,-101.5"/>
<text text-anchor="start" x="4458.5" y="-89.5" font-family="Helvetica,sans-Serif" font-size="10.00">include/d/a/d_a_obj</text>
<text text-anchor="middle" x="4501" y="-78.5" font-family="Helvetica,sans-Serif" font-size="10.00">_item.h</text>
</a>
</g>
</g>
<!-- Node2&#45;&gt;Node3 -->
<g id="edge2" class="edge">
<title>Node2&#45;&gt;Node3</title>
<path fill="none" stroke="#63b8ff" d="M4501,-131.26C4501,-121.33 4501,-110.36 4501,-101.88"/>
<polygon fill="#63b8ff" stroke="#63b8ff" points="4497.5,-131.09 4501,-141.09 4504.5,-131.09 4497.5,-131.09"/>
</g>
<!-- Node5 -->
<g id="node5" class="node">
<title>Node5</title>
<g id="a_node5"><a xlink:href="d__a__item__static_8cpp.html" target="_top" xlink:title=" ">
<polygon fill="white" stroke="#666666" points="4706.5,-96 4569.5,-96 4569.5,-77 4706.5,-77 4706.5,-96"/>
<text text-anchor="middle" x="4638" y="-84" font-family="Helvetica,sans-Serif" font-size="10.00">src/d/a/d_a_item_static.cpp</text>
</a>
</g>
</g>
<!-- Node2&#45;&gt;Node5 -->
<g id="edge4" class="edge">
<title>Node2&#45;&gt;Node5</title>
<path fill="none" stroke="#63b8ff" d="M4539.53,-137.46C4566.11,-123.97 4600.2,-106.68 4620.5,-96.38"/>
<polygon fill="#63b8ff" stroke="#63b8ff" points="4538.07,-134.27 4530.74,-141.91 4541.24,-140.51 4538.07,-134.27"/>
</g>
<!-- Node4 -->
<g id="node4" class="node">
<title>Node4</title>
<g id="a_node4"><a xlink:href="d__a__obj__item_8cpp.html" target="_top" xlink:title=" ">
<polygon fill="white" stroke="#666666" points="4338.5,-24.5 4213.5,-24.5 4213.5,-5.5 4338.5,-5.5 4338.5,-24.5"/>
<text text-anchor="middle" x="4276" y="-12.5" font-family="Helvetica,sans-Serif" font-size="10.00">src/d/a/d_a_obj_item.cpp</text>
</a>
</g>
</g>
<!-- Node3&#45;&gt;Node4 -->
<g id="edge3" class="edge">
<title>Node3&#45;&gt;Node4</title>
<path fill="none" stroke="#63b8ff" d="M4445.86,-67.53C4444.22,-67.01 4442.6,-66.5 4441,-66 4394.02,-51.25 4339.29,-34.81 4306.16,-24.94"/>
<polygon fill="#63b8ff" stroke="#63b8ff" points="4444.76,-70.86 4455.35,-70.56 4446.89,-64.19 4444.76,-70.86"/>
</g>
<!-- Node6&#45;&gt;Node2 -->
<g id="edge6" class="edge">
<title>Node6&#45;&gt;Node2</title>
<path fill="none" stroke="#63b8ff" d="M4415.57,-203.45C4434.25,-193.73 4456.41,-182.2 4473.49,-173.31"/>
<polygon fill="#63b8ff" stroke="#63b8ff" points="4414.2,-200.22 4406.95,-207.94 4417.43,-206.43 4414.2,-200.22"/>
</g>
<!-- Node7 -->
<g id="node7" class="node">
<title>Node7</title>
<g id="a_node7"><a xlink:href="d__a__itembase__static_8cpp.html" target="_top" xlink:title=" ">
<polygon fill="white" stroke="#666666" points="4429,-173 4319,-173 4319,-143 4429,-143 4429,-173"/>
<text text-anchor="start" x="4327" y="-161" font-family="Helvetica,sans-Serif" font-size="10.00">src/d/a/d_a_itembase</text>
<text text-anchor="middle" x="4374" y="-150" font-family="Helvetica,sans-Serif" font-size="10.00">_static.cpp</text>
</a>
</g>
</g>
<!-- Node6&#45;&gt;Node7 -->
<g id="edge7" class="edge">
<title>Node6&#45;&gt;Node7</title>
<path fill="none" stroke="#63b8ff" d="M4376.4,-197.39C4375.88,-189.13 4375.33,-180.28 4374.89,-173.16"/>
<polygon fill="#63b8ff" stroke="#63b8ff" points="4372.9,-197.52 4377.02,-207.29 4379.89,-197.09 4372.9,-197.52"/>
</g>
<!-- Node9 -->
<g id="node9" class="node">
<title>Node9</title>
<g id="a_node9"><a xlink:href="d__shop__item__ctrl_8h.html" target="_top" xlink:title=" ">
<polygon fill="white" stroke="#666666" points="248,-173 134,-173 134,-143 248,-143 248,-173"/>
<text text-anchor="start" x="142" y="-161" font-family="Helvetica,sans-Serif" font-size="10.00">include/d/shop/d_shop</text>
<text text-anchor="middle" x="191" y="-150" font-family="Helvetica,sans-Serif" font-size="10.00">_item_ctrl.h</text>
</a>
</g>
</g>
<!-- Node8&#45;&gt;Node9 -->
<g id="edge9" class="edge">
<title>Node8&#45;&gt;Node9</title>
<path fill="none" stroke="#63b8ff" d="M191,-197.39C191,-189.13 191,-180.28 191,-173.16"/>
<polygon fill="#63b8ff" stroke="#63b8ff" points="187.5,-197.28 191,-207.28 194.5,-197.28 187.5,-197.28"/>
</g>
<!-- Node14 -->
<g id="node12" class="node">
<title>Node14</title>
<g id="a_node12"><a xlink:href="d__a__shop__item__static_8cpp.html" target="_top" xlink:title=" ">
<polygon fill="white" stroke="#666666" points="116,-173 0,-173 0,-143 116,-143 116,-173"/>
<text text-anchor="start" x="8" y="-161" font-family="Helvetica,sans-Serif" font-size="10.00">src/d/a/d_a_shop_item</text>
<text text-anchor="middle" x="58" y="-150" font-family="Helvetica,sans-Serif" font-size="10.00">_static.cpp</text>
</a>
</g>
</g>
<!-- Node8&#45;&gt;Node14 -->
<g id="edge12" class="edge">
<title>Node8&#45;&gt;Node14</title>
<path fill="none" stroke="#63b8ff" d="M150.94,-203.72C130.63,-193.95 106.38,-182.28 87.75,-173.31"/>
<polygon fill="#63b8ff" stroke="#63b8ff" points="149.26,-206.8 159.79,-207.98 152.3,-200.49 149.26,-206.8"/>
</g>
<!-- Node10 -->
<g id="node10" class="node">
<title>Node10</title>
<g id="a_node10"><a xlink:href="d__shop__system_8h.html" target="_top" xlink:title=" ">
<polygon fill="#fff0f0" stroke="red" points="283,-30 169,-30 169,0 283,0 283,-30"/>
<text text-anchor="start" x="177" y="-18" font-family="Helvetica,sans-Serif" font-size="10.00">include/d/shop/d_shop</text>
<text text-anchor="middle" x="226" y="-7" font-family="Helvetica,sans-Serif" font-size="10.00">_system.h</text>
</a>
</g>
</g>
<!-- Node9&#45;&gt;Node10 -->
<g id="edge10" class="edge">
<title>Node9&#45;&gt;Node10</title>
<path fill="none" stroke="#63b8ff" d="M195.59,-131.5C199.07,-113.17 204.22,-87.91 210,-66 213.21,-53.84 217.61,-40.26 220.98,-30.32"/>
<polygon fill="#63b8ff" stroke="#63b8ff" points="192.17,-130.75 193.79,-141.22 199.05,-132.03 192.17,-130.75"/>
</g>
<!-- Node13 -->
<g id="node11" class="node">
<title>Node13</title>
<g id="a_node11"><a xlink:href="d__shop__item__ctrl_8cpp.html" target="_top" xlink:title=" ">
<polygon fill="white" stroke="#666666" points="162.5,-101.5 41.5,-101.5 41.5,-71.5 162.5,-71.5 162.5,-101.5"/>
<text text-anchor="start" x="49.5" y="-89.5" font-family="Helvetica,sans-Serif" font-size="10.00">src/d/shop/d_shop_item</text>
<text text-anchor="middle" x="102" y="-78.5" font-family="Helvetica,sans-Serif" font-size="10.00">_ctrl.cpp</text>
</a>
</g>
</g>
<!-- Node9&#45;&gt;Node13 -->
<g id="edge11" class="edge">
<title>Node9&#45;&gt;Node13</title>
<path fill="none" stroke="#63b8ff" d="M163.79,-135.75C149.73,-124.77 132.94,-111.66 120.42,-101.88"/>
<polygon fill="#63b8ff" stroke="#63b8ff" points="161.33,-138.27 171.37,-141.67 165.64,-132.75 161.33,-138.27"/>
</g>
<!-- Node16 -->
<g id="node14" class="node">
<title>Node16</title>
<g id="a_node14"><a xlink:href="d__com__inf__game_8h.html" target="_top" xlink:title=" ">
<polygon fill="#fff0f0" stroke="red" points="2393,-173 2283,-173 2283,-143 2393,-143 2393,-173"/>
<text text-anchor="start" x="2291" y="-161" font-family="Helvetica,sans-Serif" font-size="10.00">include/d/com/d_com</text>
<text text-anchor="middle" x="2338" y="-150" font-family="Helvetica,sans-Serif" font-size="10.00">_inf_game.h</text>
</a>
</g>
</g>
<!-- Node15&#45;&gt;Node16 -->
<g id="edge14" class="edge">
<title>Node15&#45;&gt;Node16</title>
<path fill="none" stroke="#63b8ff" d="M2338,-202.78C2338,-193.17 2338,-181.92 2338,-173.23"/>
<polygon fill="#63b8ff" stroke="#63b8ff" points="2334.5,-202.59 2338,-212.59 2341.5,-202.59 2334.5,-202.59"/>
</g>
<!-- Node56 -->
<g id="node28" class="node">
<title>Node56</title>
<g id="a_node28"><a xlink:href="d__event_8cpp.html" target="_top" xlink:title=" ">
<polygon fill="white" stroke="#666666" points="457.5,-24.5 336.5,-24.5 336.5,-5.5 457.5,-5.5 457.5,-24.5"/>
<text text-anchor="middle" x="397" y="-12.5" font-family="Helvetica,sans-Serif" font-size="10.00">src/d/event/d_event.cpp</text>
</a>
</g>
</g>
<!-- Node15&#45;&gt;Node56 -->
<g id="edge61" class="edge">
<title>Node15&#45;&gt;Node56</title>
<path fill="none" stroke="#63b8ff" d="M2262.22,-221.36C1911.27,-213.38 458.24,-176.25 393,-107 371.75,-84.44 385.38,-43.08 392.94,-24.94"/>
<polygon fill="#63b8ff" stroke="#63b8ff" points="2261.91,-224.85 2271.99,-221.58 2262.07,-217.85 2261.91,-224.85"/>
</g>
<!-- Node16&#45;&gt;Node4 -->
<g id="edge46" class="edge">
<title>Node16&#45;&gt;Node4</title>
<path fill="none" stroke="#63b8ff" d="M2404.88,-156.38C2739.73,-153.13 4219.56,-137.09 4256,-107 4280.7,-86.61 4279.15,-43.32 4277.19,-24.76"/>
<polygon fill="#63b8ff" stroke="#63b8ff" points="2404.93,-152.88 2394.97,-156.47 2405,-159.88 2404.93,-152.88"/>
</g>
<!-- Node17 -->
<g id="node15" class="node">
<title>Node17</title>
<g id="a_node15"><a xlink:href="d__a__npc_8h.html" target="_top" xlink:title=" ">
<polygon fill="#fff0f0" stroke="red" points="330.5,-96 219.5,-96 219.5,-77 330.5,-77 330.5,-96"/>
<text text-anchor="middle" x="275" y="-84" font-family="Helvetica,sans-Serif" font-size="10.00">include/d/a/d_a_npc.h</text>
</a>
</g>
</g>
<!-- Node16&#45;&gt;Node17 -->
<g id="edge15" class="edge">
<title>Node16&#45;&gt;Node17</title>
<path fill="none" stroke="#63b8ff" d="M2271.27,-156.67C1973.11,-154.96 761.09,-145.74 383,-107 360.82,-104.73 336.36,-100.46 316.33,-96.49"/>
<polygon fill="#63b8ff" stroke="#63b8ff" points="2271.19,-160.17 2281.21,-156.72 2271.23,-153.17 2271.19,-160.17"/>
</g>
<!-- Node20 -->
<g id="node16" class="node">
<title>Node20</title>
<g id="a_node16"><a xlink:href="d__cc__uty_8h.html" target="_top" xlink:title=" ">
<polygon fill="#fff0f0" stroke="red" points="4095.5,-96 3976.5,-96 3976.5,-77 4095.5,-77 4095.5,-96"/>
<text text-anchor="middle" x="4036" y="-84" font-family="Helvetica,sans-Serif" font-size="10.00">include/d/cc/d_cc_uty.h</text>
</a>
</g>
</g>
<!-- Node16&#45;&gt;Node20 -->
<g id="edge17" class="edge">
<title>Node16&#45;&gt;Node20</title>
<path fill="none" stroke="#63b8ff" d="M2404.48,-156.96C2669.87,-156.5 3653.93,-151.74 3962,-107 3977.51,-104.75 3994.45,-100.43 4008.2,-96.43"/>
<polygon fill="#63b8ff" stroke="#63b8ff" points="2404.63,-153.46 2394.64,-156.98 2404.64,-160.46 2404.63,-153.46"/>
</g>
<!-- Node26 -->
<g id="node17" class="node">
<title>Node26</title>
<g id="a_node17"><a xlink:href="d__item_8h.html" target="_top" xlink:title=" ">
<polygon fill="#fff0f0" stroke="red" points="4247.5,-96 4152.5,-96 4152.5,-77 4247.5,-77 4247.5,-96"/>
<text text-anchor="middle" x="4200" y="-84" font-family="Helvetica,sans-Serif" font-size="10.00">include/d/d_item.h</text>
</a>
</g>
</g>
<!-- Node16&#45;&gt;Node26 -->
<g id="edge18" class="edge">
<title>Node16&#45;&gt;Node26</title>
<path fill="none" stroke="#63b8ff" d="M2404.74,-156.24C2709.88,-152.61 3964.87,-136.05 4138,-107 4151.13,-104.8 4165.33,-100.48 4176.82,-96.47"/>
<polygon fill="#63b8ff" stroke="#63b8ff" points="2404.91,-152.74 2394.95,-156.35 2404.99,-159.74 2404.91,-152.74"/>
</g>
<!-- Node23 -->
<g id="node18" class="node">
<title>Node23</title>
<g id="a_node18"><a xlink:href="d__a__alink_8cpp.html" target="_top" xlink:title=" ">
<polygon fill="white" stroke="#666666" points="3959.5,-24.5 3850.5,-24.5 3850.5,-5.5 3959.5,-5.5 3959.5,-24.5"/>
<text text-anchor="middle" x="3905" y="-12.5" font-family="Helvetica,sans-Serif" font-size="10.00">src/d/a/d_a_alink.cpp</text>
</a>
</g>
</g>
<!-- Node16&#45;&gt;Node23 -->
<g id="edge43" class="edge">
<title>Node16&#45;&gt;Node23</title>
<path fill="none" stroke="#63b8ff" d="M2404.58,-156.16C2702.76,-152.25 3902.06,-134.8 3929,-107 3951.29,-84 3925.38,-42.88 3912.01,-24.86"/>
<polygon fill="#63b8ff" stroke="#63b8ff" points="2404.58,-152.66 2394.63,-156.29 2404.67,-159.66 2404.58,-152.66"/>
</g>
<!-- Node27 -->
<g id="node19" class="node">
<title>Node27</title>
<g id="a_node19"><a xlink:href="d__com__inf__game_8cpp.html" target="_top" xlink:title=" ">
<polygon fill="white" stroke="#666666" points="4186,-30 4078,-30 4078,0 4186,0 4186,-30"/>
<text text-anchor="start" x="4086" y="-18" font-family="Helvetica,sans-Serif" font-size="10.00">src/d/com/d_com_inf</text>
<text text-anchor="middle" x="4132" y="-7" font-family="Helvetica,sans-Serif" font-size="10.00">_game.cpp</text>
</a>
</g>
</g>
<!-- Node16&#45;&gt;Node27 -->
<g id="edge52" class="edge">
<title>Node16&#45;&gt;Node27</title>
<path fill="none" stroke="#63b8ff" d="M2404.45,-157.27C2717.76,-158.27 4035.2,-159.33 4104,-107 4127.81,-88.89 4131.95,-50.9 4132.33,-30.19"/>
<polygon fill="#63b8ff" stroke="#63b8ff" points="2404.82,-153.77 2394.81,-157.24 2404.8,-160.77 2404.82,-153.77"/>
</g>
<!-- Node30 -->
<g id="node20" class="node">
<title>Node30</title>
<g id="a_node20"><a xlink:href="d__kantera__icon__meter_8h.html" target="_top" xlink:title=" ">
<polygon fill="#fff0f0" stroke="red" points="526.5,-101.5 425.5,-101.5 425.5,-71.5 526.5,-71.5 526.5,-101.5"/>
<text text-anchor="start" x="433.5" y="-89.5" font-family="Helvetica,sans-Serif" font-size="10.00">include/d/d_kantera</text>
<text text-anchor="middle" x="476" y="-78.5" font-family="Helvetica,sans-Serif" font-size="10.00">_icon_meter.h</text>
</a>
</g>
</g>
<!-- Node16&#45;&gt;Node30 -->
<g id="edge22" class="edge">
<title>Node16&#45;&gt;Node30</title>
<path fill="none" stroke="#63b8ff" d="M2271.65,-156.3C1966.83,-152.95 708.29,-137.37 535,-107 528.2,-105.81 521.11,-103.99 514.31,-101.94"/>
<polygon fill="#63b8ff" stroke="#63b8ff" points="2271.38,-159.8 2281.41,-156.41 2271.45,-152.8 2271.38,-159.8"/>
</g>
<!-- Node33 -->
<g id="node21" class="node">
<title>Node33</title>
<g id="a_node21"><a xlink:href="d__model_8h.html" target="_top" xlink:title=" ">
<polygon fill="#fff0f0" stroke="red" points="647.5,-96 544.5,-96 544.5,-77 647.5,-77 647.5,-96"/>
<text text-anchor="middle" x="596" y="-84" font-family="Helvetica,sans-Serif" font-size="10.00">include/d/d_model.h</text>
</a>
</g>
</g>
<!-- Node16&#45;&gt;Node33 -->
<g id="edge23" class="edge">
<title>Node16&#45;&gt;Node33</title>
<path fill="none" stroke="#63b8ff" d="M2271.39,-156.14C1979.02,-152.21 816.84,-134.94 656,-107 643.27,-104.79 629.52,-100.47 618.41,-96.46"/>
<polygon fill="#63b8ff" stroke="#63b8ff" points="2271.08,-159.63 2281.12,-156.27 2271.17,-152.64 2271.08,-159.63"/>
</g>
<!-- Node35 -->
<g id="node22" class="node">
<title>Node35</title>
<g id="a_node22"><a xlink:href="d__name_8h.html" target="_top" xlink:title=" ">
<polygon fill="#fff0f0" stroke="red" points="766.5,-96 665.5,-96 665.5,-77 766.5,-77 766.5,-96"/>
<text text-anchor="middle" x="716" y="-84" font-family="Helvetica,sans-Serif" font-size="10.00">include/d/d_name.h</text>
</a>
</g>
</g>
<!-- Node16&#45;&gt;Node35 -->
<g id="edge24" class="edge">
<title>Node16&#45;&gt;Node35</title>
<path fill="none" stroke="#63b8ff" d="M2271.44,-157.36C2012.21,-158.39 1069.98,-158.41 776,-107 763.27,-104.77 749.53,-100.46 738.41,-96.45"/>
<polygon fill="#63b8ff" stroke="#63b8ff" points="2271.4,-160.86 2281.39,-157.32 2271.38,-153.86 2271.4,-160.86"/>
</g>
<!-- Node37 -->
<g id="node23" class="node">
<title>Node37</title>
<g id="a_node23"><a xlink:href="d__file__sel__info_8h.html" target="_top" xlink:title=" ">
<polygon fill="#fff0f0" stroke="red" points="881,-101.5 785,-101.5 785,-71.5 881,-71.5 881,-101.5"/>
<text text-anchor="start" x="793" y="-89.5" font-family="Helvetica,sans-Serif" font-size="10.00">include/d/file/d_file</text>
<text text-anchor="middle" x="833" y="-78.5" font-family="Helvetica,sans-Serif" font-size="10.00">_sel_info.h</text>
</a>
</g>
</g>
<!-- Node16&#45;&gt;Node37 -->
<g id="edge25" class="edge">
<title>Node16&#45;&gt;Node37</title>
<path fill="none" stroke="#63b8ff" d="M2271.39,-157.3C2024.28,-158 1160.3,-156.77 890,-107 883.42,-105.79 876.56,-103.96 869.98,-101.91"/>
<polygon fill="#63b8ff" stroke="#63b8ff" points="2271.19,-160.8 2281.18,-157.27 2271.17,-153.8 2271.19,-160.8"/>
</g>
<!-- Node40 -->
<g id="node24" class="node">
<title>Node40</title>
<g id="a_node24"><a xlink:href="d__file__sel__warning_8h.html" target="_top" xlink:title=" ">
<polygon fill="#fff0f0" stroke="red" points="995,-101.5 899,-101.5 899,-71.5 995,-71.5 995,-101.5"/>
<text text-anchor="start" x="907" y="-89.5" font-family="Helvetica,sans-Serif" font-size="10.00">include/d/file/d_file</text>
<text text-anchor="middle" x="947" y="-78.5" font-family="Helvetica,sans-Serif" font-size="10.00">_sel_warning.h</text>
</a>
</g>
</g>
<!-- Node16&#45;&gt;Node40 -->
<g id="edge26" class="edge">
<title>Node16&#45;&gt;Node40</title>
<path fill="none" stroke="#63b8ff" d="M2271.25,-157.07C2036.67,-156.9 1251.05,-152.86 1004,-107 997.52,-105.8 990.78,-104.01 984.3,-101.99"/>
<polygon fill="#63b8ff" stroke="#63b8ff" points="2271.13,-160.57 2281.14,-157.07 2271.14,-153.57 2271.13,-160.57"/>
</g>
<!-- Node42 -->
<g id="node25" class="node">
<title>Node42</title>
<g id="a_node25"><a xlink:href="d__meter2_8h.html" target="_top" xlink:title=" ">
<polygon fill="#fff0f0" stroke="red" points="1147,-96 1013,-96 1013,-77 1147,-77 1147,-96"/>
<text text-anchor="middle" x="1080" y="-84" font-family="Helvetica,sans-Serif" font-size="10.00">include/d/meter/d_meter2.h</text>
</a>
</g>
</g>
<!-- Node16&#45;&gt;Node42 -->
<g id="edge27" class="edge">
<title>Node16&#45;&gt;Node42</title>
<path fill="none" stroke="#63b8ff" d="M2271.41,-155.87C2055.75,-151.94 1377.91,-137.42 1161,-107 1144.24,-104.65 1125.88,-100.37 1110.89,-96.42"/>
<polygon fill="#63b8ff" stroke="#63b8ff" points="2271.26,-159.37 2281.33,-156.05 2271.39,-152.37 2271.26,-159.37"/>
</g>
<!-- Node50 -->
<g id="node26" class="node">
<title>Node50</title>
<g id="a_node26"><a xlink:href="d__msg__object_8h.html" target="_top" xlink:title=" ">
<polygon fill="#fff0f0" stroke="red" points="1313,-101.5 1203,-101.5 1203,-71.5 1313,-71.5 1313,-101.5"/>
<text text-anchor="start" x="1211" y="-89.5" font-family="Helvetica,sans-Serif" font-size="10.00">include/d/msg/d_msg</text>
<text text-anchor="middle" x="1258" y="-78.5" font-family="Helvetica,sans-Serif" font-size="10.00">_object.h</text>
</a>
</g>
</g>
<!-- Node16&#45;&gt;Node50 -->
<g id="edge28" class="edge">
<title>Node16&#45;&gt;Node50</title>
<path fill="none" stroke="#63b8ff" d="M2271.32,-155.86C2075.66,-152.18 1505.38,-138.94 1322,-107 1314.91,-105.76 1307.49,-103.98 1300.33,-101.99"/>
<polygon fill="#63b8ff" stroke="#63b8ff" points="2270.98,-159.36 2281.04,-156.04 2271.11,-152.36 2270.98,-159.36"/>
</g>
<!-- Node55 -->
<g id="node27" class="node">
<title>Node55</title>
<g id="a_node27"><a xlink:href="d__demo_8cpp.html" target="_top" xlink:title=" ">
<polygon fill="white" stroke="#666666" points="1263,-24.5 1169,-24.5 1169,-5.5 1263,-5.5 1263,-24.5"/>
<text text-anchor="middle" x="1216" y="-12.5" font-family="Helvetica,sans-Serif" font-size="10.00">src/d/d_demo.cpp</text>
</a>
</g>
</g>
<!-- Node16&#45;&gt;Node55 -->
<g id="edge57" class="edge">
<title>Node16&#45;&gt;Node55</title>
<path fill="none" stroke="#63b8ff" d="M2271.31,-156.6C2032.38,-154.85 1231.41,-146.08 1194,-107 1171.97,-83.99 1196.57,-42.87 1209.31,-24.86"/>
<polygon fill="#63b8ff" stroke="#63b8ff" points="2271.05,-160.1 2281.07,-156.67 2271.1,-153.1 2271.05,-160.1"/>
</g>
<!-- Node16&#45;&gt;Node56 -->
<g id="edge60" class="edge">
<title>Node16&#45;&gt;Node56</title>
<path fill="none" stroke="#63b8ff" d="M2271.25,-156.39C1936.2,-153.2 452.37,-137.35 416,-107 391.47,-86.52 393.52,-43.29 395.71,-24.74"/>
<polygon fill="#63b8ff" stroke="#63b8ff" points="2271.13,-159.89 2281.17,-156.49 2271.2,-152.89 2271.13,-159.89"/>
</g>
<!-- Node64 -->
<g id="node29" class="node">
<title>Node64</title>
<g id="a_node29"><a xlink:href="d__s__logo_8h.html" target="_top" xlink:title=" ">
<polygon fill="#fff0f0" stroke="red" points="1444.5,-96 1331.5,-96 1331.5,-77 1444.5,-77 1444.5,-96"/>
<text text-anchor="middle" x="1388" y="-84" font-family="Helvetica,sans-Serif" font-size="10.00">include/d/s/d_s_logo.h</text>
</a>
</g>
</g>
<!-- Node16&#45;&gt;Node64 -->
<g id="edge32" class="edge">
<title>Node16&#45;&gt;Node64</title>
<path fill="none" stroke="#63b8ff" d="M2271.53,-155.27C2093.76,-150.31 1610.21,-134.63 1453,-107 1439.54,-104.63 1424.93,-100.41 1412.98,-96.49"/>
<polygon fill="#63b8ff" stroke="#63b8ff" points="2271.19,-158.76 2281.28,-155.54 2271.38,-151.76 2271.19,-158.76"/>
</g>
<!-- Node66 -->
<g id="node30" class="node">
<title>Node66</title>
<g id="a_node30"><a xlink:href="d__s__play_8h.html" target="_top" xlink:title=" ">
<polygon fill="#fff0f0" stroke="red" points="1575.5,-96 1462.5,-96 1462.5,-77 1575.5,-77 1575.5,-96"/>
<text text-anchor="middle" x="1519" y="-84" font-family="Helvetica,sans-Serif" font-size="10.00">include/d/s/d_s_play.h</text>
</a>
</g>
</g>
<!-- Node16&#45;&gt;Node66 -->
<g id="edge33" class="edge">
<title>Node16&#45;&gt;Node66</title>
<path fill="none" stroke="#63b8ff" d="M2271.1,-157.59C2138.76,-157.65 1834.63,-152.31 1584,-107 1570.55,-104.57 1555.94,-100.34 1543.99,-96.44"/>
<polygon fill="#63b8ff" stroke="#63b8ff" points="2271.1,-161.09 2281.1,-157.57 2271.09,-154.09 2271.1,-161.09"/>
</g>
<!-- Node70 -->
<g id="node31" class="node">
<title>Node70</title>
<g id="a_node31"><a xlink:href="d__msg__scrn__base_8h.html" target="_top" xlink:title=" ">
<polygon fill="#fff0f0" stroke="red" points="1692.5,-101.5 1593.5,-101.5 1593.5,-71.5 1692.5,-71.5 1692.5,-101.5"/>
<text text-anchor="start" x="1601.5" y="-89.5" font-family="Helvetica,sans-Serif" font-size="10.00">include/msg/scrn/d</text>
<text text-anchor="middle" x="1643" y="-78.5" font-family="Helvetica,sans-Serif" font-size="10.00">_msg_scrn_base.h</text>
</a>
</g>
</g>
<!-- Node16&#45;&gt;Node70 -->
<g id="edge34" class="edge">
<title>Node16&#45;&gt;Node70</title>
<path fill="none" stroke="#63b8ff" d="M2271.63,-157.13C2154.98,-156.18 1906.11,-148.86 1701,-107 1694.65,-105.7 1688.03,-103.92 1681.64,-101.95"/>
<polygon fill="#63b8ff" stroke="#63b8ff" points="2271.3,-160.63 2281.32,-157.19 2271.35,-153.63 2271.3,-160.63"/>
</g>
<!-- Node74 -->
<g id="node32" class="node">
<title>Node74</title>
<g id="a_node32"><a xlink:href="d__a__b__zant_8h.html" target="_top" xlink:title=" ">
<polygon fill="white" stroke="#666666" points="1831.5,-101.5 1710.5,-101.5 1710.5,-71.5 1831.5,-71.5 1831.5,-101.5"/>
<text text-anchor="start" x="1718.5" y="-89.5" font-family="Helvetica,sans-Serif" font-size="10.00">include/rel/d/a/b/d</text>
<text text-anchor="middle" x="1771" y="-78.5" font-family="Helvetica,sans-Serif" font-size="10.00">_a_b_zant/d_a_b_zant.h</text>
</a>
</g>
</g>
<!-- Node16&#45;&gt;Node74 -->
<g id="edge35" class="edge">
<title>Node16&#45;&gt;Node74</title>
<path fill="none" stroke="#63b8ff" d="M2271.52,-153.94C2175.7,-148.71 1993.53,-135.7 1841,-107 1833.69,-105.62 1826.02,-103.85 1818.56,-101.93"/>
<polygon fill="#63b8ff" stroke="#63b8ff" points="2271.09,-157.42 2281.26,-154.46 2271.46,-150.43 2271.09,-157.42"/>
</g>
<!-- Node75 -->
<g id="node33" class="node">
<title>Node75</title>
<g id="a_node33"><a xlink:href="d__a__skip__2D_8h.html" target="_top" xlink:title=" ">
<polygon fill="white" stroke="#666666" points="1974,-101.5 1850,-101.5 1850,-71.5 1974,-71.5 1974,-101.5"/>
<text text-anchor="start" x="1858" y="-89.5" font-family="Helvetica,sans-Serif" font-size="10.00">include/rel/d/a/d_a</text>
<text text-anchor="middle" x="1912" y="-78.5" font-family="Helvetica,sans-Serif" font-size="10.00">_skip_2D/d_a_skip_2D.h</text>
</a>
</g>
</g>
<!-- Node16&#45;&gt;Node75 -->
<g id="edge36" class="edge">
<title>Node16&#45;&gt;Node75</title>
<path fill="none" stroke="#63b8ff" d="M2271.13,-149.65C2200.42,-141.37 2085.8,-126.47 1988,-107 1980.65,-105.54 1972.95,-103.8 1965.39,-101.98"/>
<polygon fill="#63b8ff" stroke="#63b8ff" points="2270.68,-153.12 2281.02,-150.8 2271.49,-146.17 2270.68,-153.12"/>
</g>
<!-- Node76 -->
<g id="node34" class="node">
<title>Node76</title>
<g id="a_node34"><a xlink:href="d__a__spinner_8h.html" target="_top" xlink:title=" ">
<polygon fill="white" stroke="#666666" points="3920,-101.5 3804,-101.5 3804,-71.5 3920,-71.5 3920,-101.5"/>
<text text-anchor="start" x="3812" y="-89.5" font-family="Helvetica,sans-Serif" font-size="10.00">include/rel/d/a/d_a</text>
<text text-anchor="middle" x="3862" y="-78.5" font-family="Helvetica,sans-Serif" font-size="10.00">_spinner/d_a_spinner.h</text>
</a>
</g>
</g>
<!-- Node16&#45;&gt;Node76 -->
<g id="edge37" class="edge">
<title>Node16&#45;&gt;Node76</title>
<path fill="none" stroke="#63b8ff" d="M2404.53,-156.91C2652.37,-156.24 3521.77,-150.75 3795,-107 3802.54,-105.79 3810.42,-104 3818.03,-101.98"/>
<polygon fill="#63b8ff" stroke="#63b8ff" points="2404.71,-153.41 2394.72,-156.94 2404.73,-160.41 2404.71,-153.41"/>
</g>
<!-- Node77 -->
<g id="node35" class="node">
<title>Node77</title>
<g id="a_node35"><a xlink:href="d__a__player_8cpp.html" target="_top" xlink:title=" ">
<polygon fill="white" stroke="#666666" points="2945,-24.5 2831,-24.5 2831,-5.5 2945,-5.5 2945,-24.5"/>
<text text-anchor="middle" x="2888" y="-12.5" font-family="Helvetica,sans-Serif" font-size="10.00">src/d/a/d_a_player.cpp</text>
</a>
</g>
</g>
<!-- Node16&#45;&gt;Node77 -->
<g id="edge47" class="edge">
<title>Node16&#45;&gt;Node77</title>
<path fill="none" stroke="#63b8ff" d="M2271.58,-157.75C2158.13,-156.97 1946.14,-145.3 2021,-66 2048.81,-36.53 2641.44,-21.3 2830.55,-17.17"/>
<polygon fill="#63b8ff" stroke="#63b8ff" points="2271.38,-161.25 2281.4,-157.79 2271.41,-154.25 2271.38,-161.25"/>
</g>
<!-- Node78 -->
<g id="node36" class="node">
<title>Node78</title>
<g id="a_node36"><a xlink:href="d__a__obj__yobikusa_8h.html" target="_top" xlink:title=" ">
<polygon fill="white" stroke="#666666" points="2135.5,-107 2030.5,-107 2030.5,-66 2135.5,-66 2135.5,-107"/>
<text text-anchor="start" x="2038.5" y="-95" font-family="Helvetica,sans-Serif" font-size="10.00">include/rel/d/a/obj</text>
<text text-anchor="start" x="2038.5" y="-84" font-family="Helvetica,sans-Serif" font-size="10.00">/d_a_obj_yobikusa/d</text>
<text text-anchor="middle" x="2083" y="-73" font-family="Helvetica,sans-Serif" font-size="10.00">_a_obj_yobikusa.h</text>
</a>
</g>
</g>
<!-- Node16&#45;&gt;Node78 -->
<g id="edge40" class="edge">
<title>Node16&#45;&gt;Node78</title>
<path fill="none" stroke="#63b8ff" d="M2272.13,-140.82C2234.72,-131.42 2187.1,-119.06 2145,-107 2141.96,-106.13 2138.85,-105.22 2135.71,-104.28"/>
<polygon fill="#63b8ff" stroke="#63b8ff" points="2270.87,-144.12 2281.42,-143.15 2272.57,-137.33 2270.87,-144.12"/>
</g>
<!-- Node79 -->
<g id="node37" class="node">
<title>Node79</title>
<g id="a_node37"><a xlink:href="d__a__tag__telop_8h.html" target="_top" xlink:title=" ">
<polygon fill="white" stroke="#666666" points="2272,-107 2154,-107 2154,-66 2272,-66 2272,-107"/>
<text text-anchor="start" x="2162" y="-95" font-family="Helvetica,sans-Serif" font-size="10.00">include/rel/d/a/tag</text>
<text text-anchor="start" x="2162" y="-84" font-family="Helvetica,sans-Serif" font-size="10.00">/d_a_tag_telop/d_a_tag</text>
<text text-anchor="middle" x="2213" y="-73" font-family="Helvetica,sans-Serif" font-size="10.00">_telop.h</text>
</a>
</g>
</g>
<!-- Node16&#45;&gt;Node79 -->
<g id="edge41" class="edge">
<title>Node16&#45;&gt;Node79</title>
<path fill="none" stroke="#63b8ff" d="M2302.14,-137.06C2285.41,-127.76 2265.55,-116.72 2248.82,-107.42"/>
<polygon fill="#63b8ff" stroke="#63b8ff" points="2300.34,-140.06 2310.78,-141.86 2303.74,-133.95 2300.34,-140.06"/>
</g>
<!-- Node80 -->
<g id="node38" class="node">
<title>Node80</title>
<g id="a_node38"><a xlink:href="c__dylink_8cpp.html" target="_top" xlink:title=" ">
<polygon fill="white" stroke="#666666" points="2385.5,-96 2290.5,-96 2290.5,-77 2385.5,-77 2385.5,-96"/>
<text text-anchor="middle" x="2338" y="-84" font-family="Helvetica,sans-Serif" font-size="10.00">src/c/c_dylink.cpp</text>
</a>
</g>
</g>
<!-- Node16&#45;&gt;Node80 -->
<g id="edge42" class="edge">
<title>Node16&#45;&gt;Node80</title>
<path fill="none" stroke="#63b8ff" d="M2338,-131.46C2338,-119.07 2338,-104.99 2338,-96.18"/>
<polygon fill="#63b8ff" stroke="#63b8ff" points="2334.5,-131.09 2338,-141.09 2341.5,-131.09 2334.5,-131.09"/>
</g>
<!-- Node16&#45;&gt;Node81 -->
<g id="edge44" class="edge">
<title>Node16&#45;&gt;Node81</title>
<path fill="none" stroke="#63b8ff" d="M2404.7,-157.25C2702.7,-158.08 3913.98,-158.19 4290,-107 4306.32,-104.78 4324.17,-100.46 4338.67,-96.45"/>
<polygon fill="#63b8ff" stroke="#63b8ff" points="2404.78,-153.75 2394.77,-157.22 2404.76,-160.75 2404.78,-153.75"/>
</g>
<!-- Node82 -->
<g id="node40" class="node">
<title>Node82</title>
<g id="a_node40"><a xlink:href="d__a__obj_8cpp.html" target="_top" xlink:title=" ">
<polygon fill="white" stroke="#666666" points="2504.5,-96 2403.5,-96 2403.5,-77 2504.5,-77 2504.5,-96"/>
<text text-anchor="middle" x="2454" y="-84" font-family="Helvetica,sans-Serif" font-size="10.00">src/d/a/d_a_obj.cpp</text>
</a>
</g>
</g>
<!-- Node16&#45;&gt;Node82 -->
<g id="edge45" class="edge">
<title>Node16&#45;&gt;Node82</title>
<path fill="none" stroke="#63b8ff" d="M2371.82,-136.74C2394.15,-123.36 2422.29,-106.5 2439.18,-96.38"/>
<polygon fill="#63b8ff" stroke="#63b8ff" points="2370.11,-133.68 2363.33,-141.82 2373.71,-139.68 2370.11,-133.68"/>
</g>
<!-- Node83 -->
<g id="node41" class="node">
<title>Node83</title>
<g id="a_node41"><a xlink:href="d__bg__s_8cpp.html" target="_top" xlink:title=" ">
<polygon fill="white" stroke="#666666" points="2627,-96 2523,-96 2523,-77 2627,-77 2627,-96"/>
<text text-anchor="middle" x="2575" y="-84" font-family="Helvetica,sans-Serif" font-size="10.00">src/d/bg/d_bg_s.cpp</text>
</a>
</g>
</g>
<!-- Node16&#45;&gt;Node83 -->
<g id="edge48" class="edge">
<title>Node16&#45;&gt;Node83</title>
<path fill="none" stroke="#63b8ff" d="M2400.78,-139.5C2434.17,-130.08 2475.88,-118.14 2513,-107 2524.13,-103.66 2536.34,-99.85 2546.96,-96.49"/>
<polygon fill="#63b8ff" stroke="#63b8ff" points="2399.93,-136.1 2391.25,-142.18 2401.82,-142.84 2399.93,-136.1"/>
</g>
<!-- Node84 -->
<g id="node42" class="node">
<title>Node84</title>
<g id="a_node42"><a xlink:href="d__bg__s__movebg__actor_8cpp.html" target="_top" xlink:title=" ">
<polygon fill="white" stroke="#666666" points="2771,-101.5 2645,-101.5 2645,-71.5 2771,-71.5 2771,-101.5"/>
<text text-anchor="start" x="2653" y="-89.5" font-family="Helvetica,sans-Serif" font-size="10.00">src/d/bg/d_bg_s_movebg</text>
<text text-anchor="middle" x="2708" y="-78.5" font-family="Helvetica,sans-Serif" font-size="10.00">_actor.cpp</text>
</a>
</g>
</g>
<!-- Node16&#45;&gt;Node84 -->
<g id="edge49" class="edge">
<title>Node16&#45;&gt;Node84</title>
<path fill="none" stroke="#63b8ff" d="M2404.56,-147.75C2465.19,-138.86 2557.04,-124.27 2636,-107 2642.83,-105.51 2649.98,-103.77 2657.02,-101.97"/>
<polygon fill="#63b8ff" stroke="#63b8ff" points="2404.12,-144.27 2394.73,-149.17 2405.13,-151.2 2404.12,-144.27"/>
</g>
<!-- Node85 -->
<g id="node43" class="node">
<title>Node85</title>
<g id="a_node43"><a xlink:href="d__bg__w_8cpp.html" target="_top" xlink:title=" ">
<polygon fill="white" stroke="#666666" points="2896.5,-96 2789.5,-96 2789.5,-77 2896.5,-77 2896.5,-96"/>
<text text-anchor="middle" x="2843" y="-84" font-family="Helvetica,sans-Serif" font-size="10.00">src/d/bg/d_bg_w.cpp</text>
</a>
</g>
</g>
<!-- Node16&#45;&gt;Node85 -->
<g id="edge50" class="edge">
<title>Node16&#45;&gt;Node85</title>
<path fill="none" stroke="#63b8ff" d="M2404.6,-153.37C2491.66,-147.73 2648.52,-134.53 2780,-107 2792.66,-104.35 2806.42,-100.24 2817.84,-96.47"/>
<polygon fill="#63b8ff" stroke="#63b8ff" points="2404.58,-149.86 2394.82,-153.99 2405.02,-156.85 2404.58,-149.86"/>
</g>
<!-- Node86 -->
<g id="node44" class="node">
<title>Node86</title>
<g id="a_node44"><a xlink:href="d__cc__s_8cpp.html" target="_top" xlink:title=" ">
<polygon fill="white" stroke="#666666" points="3019,-96 2915,-96 2915,-77 3019,-77 3019,-96"/>
<text text-anchor="middle" x="2967" y="-84" font-family="Helvetica,sans-Serif" font-size="10.00">src/d/cc/d_cc_s.cpp</text>
</a>
</g>
</g>
<!-- Node16&#45;&gt;Node86 -->
<g id="edge51" class="edge">
<title>Node16&#45;&gt;Node86</title>
<path fill="none" stroke="#63b8ff" d="M2404.51,-155.79C2511.11,-152.81 2726.39,-142.53 2905,-107 2917.73,-104.47 2931.53,-100.28 2942.88,-96.43"/>
<polygon fill="#63b8ff" stroke="#63b8ff" points="2404.71,-152.28 2394.81,-156.05 2404.9,-159.28 2404.71,-152.28"/>
</g>
<!-- Node87 -->
<g id="node45" class="node">
<title>Node87</title>
<g id="a_node45"><a xlink:href="d__com__static_8cpp.html" target="_top" xlink:title=" ">
<polygon fill="white" stroke="#666666" points="3177,-96 3037,-96 3037,-77 3177,-77 3177,-96"/>
<text text-anchor="middle" x="3107" y="-84" font-family="Helvetica,sans-Serif" font-size="10.00">src/d/com/d_com_static.cpp</text>
</a>
</g>
</g>
<!-- Node16&#45;&gt;Node87 -->
<g id="edge53" class="edge">
<title>Node16&#45;&gt;Node87</title>
<path fill="none" stroke="#63b8ff" d="M2404.87,-155.91C2528.6,-153.08 2801.32,-142.92 3028,-107 3044.05,-104.46 3061.62,-100.26 3076.11,-96.42"/>
<polygon fill="#63b8ff" stroke="#63b8ff" points="2404.8,-152.42 2394.88,-156.13 2404.96,-159.41 2404.8,-152.42"/>
</g>
<!-- Node88 -->
<g id="node46" class="node">
<title>Node88</title>
<g id="a_node46"><a xlink:href="d__attention_8cpp.html" target="_top" xlink:title=" ">
<polygon fill="white" stroke="#666666" points="3302.5,-96 3195.5,-96 3195.5,-77 3302.5,-77 3302.5,-96"/>
<text text-anchor="middle" x="3249" y="-84" font-family="Helvetica,sans-Serif" font-size="10.00">src/d/d_attention.cpp</text>
</a>
</g>
</g>
<!-- Node16&#45;&gt;Node88 -->
<g id="edge54" class="edge">
<title>Node16&#45;&gt;Node88</title>
<path fill="none" stroke="#63b8ff" d="M2404.96,-155.14C2577.9,-149.99 3036.44,-134.14 3186,-107 3199.07,-104.63 3213.23,-100.4 3224.81,-96.49"/>
<polygon fill="#63b8ff" stroke="#63b8ff" points="2404.9,-151.64 2395.01,-155.43 2405.11,-158.63 2404.9,-151.64"/>
</g>
<!-- Node89 -->
<g id="node47" class="node">
<title>Node89</title>
<g id="a_node47"><a xlink:href="d__cam__param_8cpp.html" target="_top" xlink:title=" ">
<polygon fill="white" stroke="#666666" points="3441.5,-96 3320.5,-96 3320.5,-77 3441.5,-77 3441.5,-96"/>
<text text-anchor="middle" x="3381" y="-84" font-family="Helvetica,sans-Serif" font-size="10.00">src/d/d_cam_param.cpp</text>
</a>
</g>
</g>
<!-- Node16&#45;&gt;Node89 -->
<g id="edge55" class="edge">
<title>Node16&#45;&gt;Node89</title>
<path fill="none" stroke="#63b8ff" d="M2404.7,-155.49C2594.64,-150.87 3135.93,-135.52 3311,-107 3325.57,-104.63 3341.44,-100.35 3354.38,-96.4"/>
<polygon fill="#63b8ff" stroke="#63b8ff" points="2404.66,-151.99 2394.75,-155.73 2404.83,-158.98 2404.66,-151.99"/>
</g>
<!-- Node90 -->
<g id="node48" class="node">
<title>Node90</title>
<g id="a_node48"><a xlink:href="d__camera_8cpp.html" target="_top" xlink:title=" ">
<polygon fill="white" stroke="#666666" points="3562,-96 3460,-96 3460,-77 3562,-77 3562,-96"/>
<text text-anchor="middle" x="3511" y="-84" font-family="Helvetica,sans-Serif" font-size="10.00">src/d/d_camera.cpp</text>
</a>
</g>
</g>
<!-- Node16&#45;&gt;Node90 -->
<g id="edge56" class="edge">
<title>Node16&#45;&gt;Node90</title>
<path fill="none" stroke="#63b8ff" d="M2404.51,-156.31C2612.29,-153.8 3247.43,-143.27 3450,-107 3462.8,-104.71 3476.65,-100.44 3487.9,-96.48"/>
<polygon fill="#63b8ff" stroke="#63b8ff" points="2404.66,-152.81 2394.7,-156.43 2404.74,-159.81 2404.66,-152.81"/>
</g>
<!-- Node91 -->
<g id="node49" class="node">
<title>Node91</title>
<g id="a_node49"><a xlink:href="d__eye__hl_8cpp.html" target="_top" xlink:title=" ">
<polygon fill="white" stroke="#666666" points="3678,-96 3580,-96 3580,-77 3678,-77 3678,-96"/>
<text text-anchor="middle" x="3629" y="-84" font-family="Helvetica,sans-Serif" font-size="10.00">src/d/d_eye_hl.cpp</text>
</a>
</g>
</g>
<!-- Node16&#45;&gt;Node91 -->
<g id="edge58" class="edge">
<title>Node16&#45;&gt;Node91</title>
<path fill="none" stroke="#63b8ff" d="M2404.85,-156.78C2627.77,-155.66 3344.36,-148.81 3571,-107 3583.33,-104.73 3596.61,-100.41 3607.36,-96.41"/>
<polygon fill="#63b8ff" stroke="#63b8ff" points="2404.86,-153.28 2394.88,-156.83 2404.9,-160.28 2404.86,-153.28"/>
</g>
<!-- Node92 -->
<g id="node50" class="node">
<title>Node92</title>
<g id="a_node50"><a xlink:href="d__kyeff_8cpp.html" target="_top" xlink:title=" ">
<polygon fill="white" stroke="#666666" points="3786,-96 3696,-96 3696,-77 3786,-77 3786,-96"/>
<text text-anchor="middle" x="3741" y="-84" font-family="Helvetica,sans-Serif" font-size="10.00">src/d/d_kyeff.cpp</text>
</a>
</g>
</g>
<!-- Node16&#45;&gt;Node92 -->
<g id="edge59" class="edge">
<title>Node16&#45;&gt;Node92</title>
<path fill="none" stroke="#63b8ff" d="M2404.73,-157.25C2641.03,-157.7 3437.28,-155.49 3687,-107 3698.55,-104.76 3710.92,-100.44 3720.91,-96.44"/>
<polygon fill="#63b8ff" stroke="#63b8ff" points="2404.76,-153.75 2394.76,-157.23 2404.75,-160.75 2404.76,-153.75"/>
</g>
<!-- Node17&#45;&gt;Node10 -->
<g id="edge16" class="edge">
<title>Node17&#45;&gt;Node10</title>
<path fill="none" stroke="#63b8ff" d="M262.34,-67.54C254.16,-55.94 243.67,-41.06 236.06,-30.27"/>
<polygon fill="#63b8ff" stroke="#63b8ff" points="259.3,-69.3 267.92,-75.46 265.02,-65.27 259.3,-69.3"/>
</g>
<!-- Node26&#45;&gt;Node4 -->
<g id="edge20" class="edge">
<title>Node26&#45;&gt;Node4</title>
<path fill="none" stroke="#63b8ff" d="M4217.71,-69.31C4232.82,-55.49 4253.98,-36.14 4266.21,-24.95"/>
<polygon fill="#63b8ff" stroke="#63b8ff" points="4215.76,-66.35 4210.74,-75.68 4220.48,-71.51 4215.76,-66.35"/>
</g>
<!-- Node26&#45;&gt;Node23 -->
<g id="edge19" class="edge">
<title>Node26&#45;&gt;Node23</title>
<path fill="none" stroke="#63b8ff" d="M4150.86,-73.92C4092.33,-60.13 3995.84,-37.4 3942.82,-24.91"/>
<polygon fill="#63b8ff" stroke="#63b8ff" points="4150.03,-77.32 4160.56,-76.21 4151.63,-70.51 4150.03,-77.32"/>
</g>
<!-- Node26&#45;&gt;Node27 -->
<g id="edge21" class="edge">
<title>Node26&#45;&gt;Node27</title>
<path fill="none" stroke="#63b8ff" d="M4183.45,-68.58C4171.96,-56.85 4156.84,-41.39 4145.97,-30.27"/>
<polygon fill="#63b8ff" stroke="#63b8ff" points="4180.83,-70.92 4190.33,-75.62 4185.84,-66.02 4180.83,-70.92"/>
</g>
<!-- Node50&#45;&gt;Node23 -->
<g id="edge29" class="edge">
<title>Node50&#45;&gt;Node23</title>
<path fill="none" stroke="#63b8ff" d="M1310.47,-68.26C1314.34,-67.37 1318.21,-66.6 1322,-66 1386.65,-55.73 3482.27,-22.6 3850.15,-16.85"/>
<polygon fill="#63b8ff" stroke="#63b8ff" points="1309.91,-64.79 1301.08,-70.64 1311.63,-71.57 1309.91,-64.79"/>
</g>
<!-- Node50&#45;&gt;Node55 -->
<g id="edge30" class="edge">
<title>Node50&#45;&gt;Node55</title>
<path fill="none" stroke="#63b8ff" d="M1243.49,-61.49C1235.78,-48.74 1226.79,-33.86 1221.24,-24.68"/>
<polygon fill="#63b8ff" stroke="#63b8ff" points="1240.35,-63.06 1248.51,-69.8 1246.34,-59.44 1240.35,-63.06"/>
</g>
<!-- Node50&#45;&gt;Node56 -->
<g id="edge31" class="edge">
<title>Node50&#45;&gt;Node56</title>
<path fill="none" stroke="#63b8ff" d="M1191.48,-71.56C1179.7,-69.44 1167.52,-67.47 1156,-66 897.63,-32.92 586.81,-21.13 457.75,-17.46"/>
<polygon fill="#63b8ff" stroke="#63b8ff" points="1190.66,-74.97 1201.13,-73.35 1191.93,-68.08 1190.66,-74.97"/>
</g>
<!-- Node76&#45;&gt;Node23 -->
<g id="edge38" class="edge">
<title>Node76&#45;&gt;Node23</title>
<path fill="none" stroke="#63b8ff" d="M3876.86,-61.49C3884.74,-48.74 3893.95,-33.86 3899.63,-24.68"/>
<polygon fill="#63b8ff" stroke="#63b8ff" points="3873.99,-59.47 3871.71,-69.81 3879.94,-63.15 3873.99,-59.47"/>
</g>
<!-- Node76&#45;&gt;Node77 -->
<g id="edge39" class="edge">
<title>Node76&#45;&gt;Node77</title>
<path fill="none" stroke="#63b8ff" d="M3806.64,-68.33C3802.73,-67.45 3798.82,-66.65 3795,-66 3630.51,-37.91 3118.16,-22.09 2945.48,-17.45"/>
<polygon fill="#63b8ff" stroke="#63b8ff" points="3805.62,-71.69 3816.17,-70.69 3807.31,-64.89 3805.62,-71.69"/>
</g>
</g>
</svg>
