<?xml version="1.0" encoding="UTF-8" standalone="no"?>
<!DOCTYPE svg PUBLIC "-//W3C//DTD SVG 1.1//EN"
 "http://www.w3.org/Graphics/SVG/1.1/DTD/svg11.dtd">
<!-- Generated by graphviz version 7.0.4 (20221203.1631)
 -->
<!-- Title: include/rel/d/a/tag/d_a_tag_mmsg/d_a_tag_mmsg.h Pages: 1 -->
<svg width="5314pt" height="313pt"
 viewBox="0.00 0.00 5313.50 313.00" xmlns="http://www.w3.org/2000/svg" xmlns:xlink="http://www.w3.org/1999/xlink">
<g id="graph0" class="graph" transform="scale(1 1) rotate(0) translate(4 309)">
<title>include/rel/d/a/tag/d_a_tag_mmsg/d_a_tag_mmsg.h</title>
<!-- Node1 -->
<g id="node1" class="node">
<title>Node1</title>
<g id="a_node1"><a xlink:title=" ">
<polygon fill="#999999" stroke="#666666" points="1403,-305 1279,-305 1279,-264 1403,-264 1403,-305"/>
<text text-anchor="start" x="1287" y="-293" font-family="Helvetica,sans-Serif" font-size="10.00">include/rel/d/a/tag</text>
<text text-anchor="start" x="1287" y="-282" font-family="Helvetica,sans-Serif" font-size="10.00">/d_a_tag_mmsg/d_a_tag</text>
<text text-anchor="middle" x="1341" y="-271" font-family="Helvetica,sans-Serif" font-size="10.00">_mmsg.h</text>
</a>
</g>
</g>
<!-- Node2 -->
<g id="node2" class="node">
<title>Node2</title>
<g id="a_node2"><a xlink:href="d__a__alink_8h.html" target="_top" xlink:title=" ">
<polygon fill="white" stroke="#666666" points="1399,-228 1283,-228 1283,-209 1399,-209 1399,-228"/>
<text text-anchor="middle" x="1341" y="-216" font-family="Helvetica,sans-Serif" font-size="10.00">include/d/a/d_a_alink.h</text>
</a>
</g>
</g>
<!-- Node1&#45;&gt;Node2 -->
<g id="edge1" class="edge">
<title>Node1&#45;&gt;Node2</title>
<path fill="none" stroke="#63b8ff" d="M1341,-252.23C1341,-243.38 1341,-234.45 1341,-228.16"/>
<polygon fill="#63b8ff" stroke="#63b8ff" points="1337.5,-252.09 1341,-262.09 1344.5,-252.09 1337.5,-252.09"/>
</g>
<!-- Node3 -->
<g id="node3" class="node">
<title>Node3</title>
<g id="a_node3"><a xlink:href="d__com__inf__game_8h.html" target="_top" xlink:title=" ">
<polygon fill="#fff0f0" stroke="red" points="2356,-173 2246,-173 2246,-143 2356,-143 2356,-173"/>
<text text-anchor="start" x="2254" y="-161" font-family="Helvetica,sans-Serif" font-size="10.00">include/d/com/d_com</text>
<text text-anchor="middle" x="2301" y="-150" font-family="Helvetica,sans-Serif" font-size="10.00">_inf_game.h</text>
</a>
</g>
</g>
<!-- Node2&#45;&gt;Node3 -->
<g id="edge2" class="edge">
<title>Node2&#45;&gt;Node3</title>
<path fill="none" stroke="#63b8ff" d="M1410.53,-213.26C1592.57,-202.17 2080.41,-172.44 2245.51,-162.38"/>
<polygon fill="#63b8ff" stroke="#63b8ff" points="1410.53,-209.76 1400.76,-213.86 1410.95,-216.74 1410.53,-209.76"/>
</g>
<!-- Node13 -->
<g id="node7" class="node">
<title>Node13</title>
<g id="a_node7"><a xlink:href="d__a__alink_8cpp.html" target="_top" xlink:title=" ">
<polygon fill="white" stroke="#666666" points="634.5,-24.5 525.5,-24.5 525.5,-5.5 634.5,-5.5 634.5,-24.5"/>
<text text-anchor="middle" x="580" y="-12.5" font-family="Helvetica,sans-Serif" font-size="10.00">src/d/a/d_a_alink.cpp</text>
</a>
</g>
</g>
<!-- Node2&#45;&gt;Node13 -->
<g id="edge60" class="edge">
<title>Node2&#45;&gt;Node13</title>
<path fill="none" stroke="#63b8ff" d="M1271.18,-213.14C1083.74,-200.74 580.44,-162.51 532,-107 520.02,-93.27 525.2,-82.91 532,-66 539.01,-48.58 555.3,-33.83 566.96,-24.96"/>
<polygon fill="#63b8ff" stroke="#63b8ff" points="1270.81,-216.62 1281.02,-213.79 1271.27,-209.64 1270.81,-216.62"/>
</g>
<!-- Node4 -->
<g id="node4" class="node">
<title>Node4</title>
<g id="a_node4"><a xlink:href="d__a__npc_8h.html" target="_top" xlink:title=" ">
<polygon fill="#fff0f0" stroke="red" points="5305.5,-96 5194.5,-96 5194.5,-77 5305.5,-77 5305.5,-96"/>
<text text-anchor="middle" x="5250" y="-84" font-family="Helvetica,sans-Serif" font-size="10.00">include/d/a/d_a_npc.h</text>
</a>
</g>
</g>
<!-- Node3&#45;&gt;Node4 -->
<g id="edge3" class="edge">
<title>Node3&#45;&gt;Node4</title>
<path fill="none" stroke="#63b8ff" d="M2367.84,-156.96C2773.71,-156.54 4899.74,-152.18 5186,-107 5199.65,-104.85 5214.44,-100.48 5226.36,-96.43"/>
<polygon fill="#63b8ff" stroke="#63b8ff" points="2367.85,-153.46 2357.85,-156.97 2367.86,-160.46 2367.85,-153.46"/>
</g>
<!-- Node10 -->
<g id="node5" class="node">
<title>Node10</title>
<g id="a_node5"><a xlink:href="d__cc__uty_8h.html" target="_top" xlink:title=" ">
<polygon fill="#fff0f0" stroke="red" points="215.5,-96 96.5,-96 96.5,-77 215.5,-77 215.5,-96"/>
<text text-anchor="middle" x="156" y="-84" font-family="Helvetica,sans-Serif" font-size="10.00">include/d/cc/d_cc_uty.h</text>
</a>
</g>
</g>
<!-- Node3&#45;&gt;Node10 -->
<g id="edge4" class="edge">
<title>Node3&#45;&gt;Node10</title>
<path fill="none" stroke="#63b8ff" d="M2234.24,-156.32C1901.69,-152.78 431.91,-135.64 230,-107 214.48,-104.8 197.54,-100.48 183.8,-96.47"/>
<polygon fill="#63b8ff" stroke="#63b8ff" points="2234.04,-159.81 2244.07,-156.42 2234.11,-152.81 2234.04,-159.81"/>
</g>
<!-- Node16 -->
<g id="node6" class="node">
<title>Node16</title>
<g id="a_node6"><a xlink:href="d__item_8h.html" target="_top" xlink:title=" ">
<polygon fill="#fff0f0" stroke="red" points="819.5,-96 724.5,-96 724.5,-77 819.5,-77 819.5,-96"/>
<text text-anchor="middle" x="772" y="-84" font-family="Helvetica,sans-Serif" font-size="10.00">include/d/d_item.h</text>
</a>
</g>
</g>
<!-- Node3&#45;&gt;Node16 -->
<g id="edge5" class="edge">
<title>Node3&#45;&gt;Node16</title>
<path fill="none" stroke="#63b8ff" d="M2234.4,-157.12C1985.31,-157.18 1108.77,-154 834,-107 820.88,-104.76 806.68,-100.44 795.18,-96.43"/>
<polygon fill="#63b8ff" stroke="#63b8ff" points="2234.27,-160.62 2244.27,-157.11 2234.27,-153.62 2234.27,-160.62"/>
</g>
<!-- Node3&#45;&gt;Node13 -->
<g id="edge32" class="edge">
<title>Node3&#45;&gt;Node13</title>
<path fill="none" stroke="#63b8ff" d="M2234.25,-156.36C1916.71,-153.18 573.02,-137.89 543,-107 519.82,-83.15 553.42,-42.84 570.75,-24.98"/>
<polygon fill="#63b8ff" stroke="#63b8ff" points="2234,-159.86 2244.04,-156.46 2234.07,-152.86 2234,-159.86"/>
</g>
<!-- Node17 -->
<g id="node8" class="node">
<title>Node17</title>
<g id="a_node8"><a xlink:href="d__a__obj__item_8cpp.html" target="_top" xlink:title=" ">
<polygon fill="white" stroke="#666666" points="910.5,-24.5 785.5,-24.5 785.5,-5.5 910.5,-5.5 910.5,-24.5"/>
<text text-anchor="middle" x="848" y="-12.5" font-family="Helvetica,sans-Serif" font-size="10.00">src/d/a/d_a_obj_item.cpp</text>
</a>
</g>
</g>
<!-- Node3&#45;&gt;Node17 -->
<g id="edge35" class="edge">
<title>Node3&#45;&gt;Node17</title>
<path fill="none" stroke="#63b8ff" d="M2234.52,-156.52C1963.02,-154.34 949.9,-143.76 893,-107 863.69,-88.07 852.8,-43.98 849.37,-24.98"/>
<polygon fill="#63b8ff" stroke="#63b8ff" points="2234.22,-160.02 2244.25,-156.6 2234.27,-153.02 2234.22,-160.02"/>
</g>
<!-- Node18 -->
<g id="node9" class="node">
<title>Node18</title>
<g id="a_node9"><a xlink:href="d__com__inf__game_8cpp.html" target="_top" xlink:title=" ">
<polygon fill="white" stroke="#666666" points="1037,-30 929,-30 929,0 1037,0 1037,-30"/>
<text text-anchor="start" x="937" y="-18" font-family="Helvetica,sans-Serif" font-size="10.00">src/d/com/d_com_inf</text>
<text text-anchor="middle" x="983" y="-7" font-family="Helvetica,sans-Serif" font-size="10.00">_game.cpp</text>
</a>
</g>
</g>
<!-- Node3&#45;&gt;Node18 -->
<g id="edge41" class="edge">
<title>Node3&#45;&gt;Node18</title>
<path fill="none" stroke="#63b8ff" d="M2234.61,-157.15C1963.51,-157.45 952.6,-155.3 906,-107 893.35,-93.89 897.3,-82.01 906,-66 914.67,-50.03 930.89,-38.37 946.21,-30.35"/>
<polygon fill="#63b8ff" stroke="#63b8ff" points="2234.32,-160.65 2244.31,-157.14 2234.31,-153.65 2234.32,-160.65"/>
</g>
<!-- Node21 -->
<g id="node10" class="node">
<title>Node21</title>
<g id="a_node10"><a xlink:href="d__kantera__icon__meter_8h.html" target="_top" xlink:title=" ">
<polygon fill="#fff0f0" stroke="red" points="1015.5,-101.5 914.5,-101.5 914.5,-71.5 1015.5,-71.5 1015.5,-101.5"/>
<text text-anchor="start" x="922.5" y="-89.5" font-family="Helvetica,sans-Serif" font-size="10.00">include/d/d_kantera</text>
<text text-anchor="middle" x="965" y="-78.5" font-family="Helvetica,sans-Serif" font-size="10.00">_icon_meter.h</text>
</a>
</g>
</g>
<!-- Node3&#45;&gt;Node21 -->
<g id="edge9" class="edge">
<title>Node3&#45;&gt;Node21</title>
<path fill="none" stroke="#63b8ff" d="M2234.14,-156.8C2006.17,-155.74 1260.57,-149.06 1025,-107 1018.21,-105.79 1011.12,-103.99 1004.3,-101.97"/>
<polygon fill="#63b8ff" stroke="#63b8ff" points="2234.02,-160.3 2244.04,-156.84 2234.05,-153.3 2234.02,-160.3"/>
</g>
<!-- Node24 -->
<g id="node11" class="node">
<title>Node24</title>
<g id="a_node11"><a xlink:href="d__model_8h.html" target="_top" xlink:title=" ">
<polygon fill="#fff0f0" stroke="red" points="1136.5,-96 1033.5,-96 1033.5,-77 1136.5,-77 1136.5,-96"/>
<text text-anchor="middle" x="1085" y="-84" font-family="Helvetica,sans-Serif" font-size="10.00">include/d/d_model.h</text>
</a>
</g>
</g>
<!-- Node3&#45;&gt;Node24 -->
<g id="edge10" class="edge">
<title>Node3&#45;&gt;Node24</title>
<path fill="none" stroke="#63b8ff" d="M2234.46,-156.44C2021.34,-154.28 1357.25,-144.64 1146,-107 1133.19,-104.72 1119.35,-100.45 1108.1,-96.49"/>
<polygon fill="#63b8ff" stroke="#63b8ff" points="2234.21,-159.94 2244.25,-156.54 2234.28,-152.94 2234.21,-159.94"/>
</g>
<!-- Node26 -->
<g id="node12" class="node">
<title>Node26</title>
<g id="a_node12"><a xlink:href="d__name_8h.html" target="_top" xlink:title=" ">
<polygon fill="#fff0f0" stroke="red" points="1255.5,-96 1154.5,-96 1154.5,-77 1255.5,-77 1255.5,-96"/>
<text text-anchor="middle" x="1205" y="-84" font-family="Helvetica,sans-Serif" font-size="10.00">include/d/d_name.h</text>
</a>
</g>
</g>
<!-- Node3&#45;&gt;Node26 -->
<g id="edge11" class="edge">
<title>Node3&#45;&gt;Node26</title>
<path fill="none" stroke="#63b8ff" d="M2234.36,-156.09C2036.09,-153.04 1452.12,-141.29 1265,-107 1252.39,-104.69 1238.78,-100.42 1227.71,-96.46"/>
<polygon fill="#63b8ff" stroke="#63b8ff" points="2234.18,-159.59 2244.23,-156.24 2234.29,-152.59 2234.18,-159.59"/>
</g>
<!-- Node28 -->
<g id="node13" class="node">
<title>Node28</title>
<g id="a_node13"><a xlink:href="d__file__sel__info_8h.html" target="_top" xlink:title=" ">
<polygon fill="#fff0f0" stroke="red" points="1370,-101.5 1274,-101.5 1274,-71.5 1370,-71.5 1370,-101.5"/>
<text text-anchor="start" x="1282" y="-89.5" font-family="Helvetica,sans-Serif" font-size="10.00">include/d/file/d_file</text>
<text text-anchor="middle" x="1322" y="-78.5" font-family="Helvetica,sans-Serif" font-size="10.00">_sel_info.h</text>
</a>
</g>
</g>
<!-- Node3&#45;&gt;Node28 -->
<g id="edge12" class="edge">
<title>Node3&#45;&gt;Node28</title>
<path fill="none" stroke="#63b8ff" d="M2234.25,-155.76C2051.01,-151.98 1542.98,-138.86 1379,-107 1372.63,-105.76 1366.01,-103.98 1359.62,-101.99"/>
<polygon fill="#63b8ff" stroke="#63b8ff" points="2234,-159.26 2244.07,-155.96 2234.14,-152.26 2234,-159.26"/>
</g>
<!-- Node31 -->
<g id="node14" class="node">
<title>Node31</title>
<g id="a_node14"><a xlink:href="d__file__sel__warning_8h.html" target="_top" xlink:title=" ">
<polygon fill="#fff0f0" stroke="red" points="1484,-101.5 1388,-101.5 1388,-71.5 1484,-71.5 1484,-101.5"/>
<text text-anchor="start" x="1396" y="-89.5" font-family="Helvetica,sans-Serif" font-size="10.00">include/d/file/d_file</text>
<text text-anchor="middle" x="1436" y="-78.5" font-family="Helvetica,sans-Serif" font-size="10.00">_sel_warning.h</text>
</a>
</g>
</g>
<!-- Node3&#45;&gt;Node31 -->
<g id="edge13" class="edge">
<title>Node3&#45;&gt;Node31</title>
<path fill="none" stroke="#63b8ff" d="M2234.49,-155.18C2067.6,-150.23 1634.34,-135.02 1493,-107 1486.64,-105.74 1480.02,-103.94 1473.63,-101.95"/>
<polygon fill="#63b8ff" stroke="#63b8ff" points="2233.96,-158.66 2244.06,-155.46 2234.16,-151.66 2233.96,-158.66"/>
</g>
<!-- Node33 -->
<g id="node15" class="node">
<title>Node33</title>
<g id="a_node15"><a xlink:href="d__meter2_8h.html" target="_top" xlink:title=" ">
<polygon fill="#fff0f0" stroke="red" points="1636,-96 1502,-96 1502,-77 1636,-77 1636,-96"/>
<text text-anchor="middle" x="1569" y="-84" font-family="Helvetica,sans-Serif" font-size="10.00">include/d/meter/d_meter2.h</text>
</a>
</g>
</g>
<!-- Node3&#45;&gt;Node33 -->
<g id="edge14" class="edge">
<title>Node3&#45;&gt;Node33</title>
<path fill="none" stroke="#63b8ff" d="M2234.43,-155.69C2115.55,-152.51 1859.22,-141.87 1646,-107 1630.35,-104.44 1613.22,-100.25 1599.1,-96.4"/>
<polygon fill="#63b8ff" stroke="#63b8ff" points="2234.25,-159.19 2244.33,-155.94 2234.43,-152.19 2234.25,-159.19"/>
</g>
<!-- Node40 -->
<g id="node16" class="node">
<title>Node40</title>
<g id="a_node16"><a xlink:href="d__msg__object_8h.html" target="_top" xlink:title=" ">
<polygon fill="#fff0f0" stroke="red" points="382,-101.5 272,-101.5 272,-71.5 382,-71.5 382,-101.5"/>
<text text-anchor="start" x="280" y="-89.5" font-family="Helvetica,sans-Serif" font-size="10.00">include/d/msg/d_msg</text>
<text text-anchor="middle" x="327" y="-78.5" font-family="Helvetica,sans-Serif" font-size="10.00">_object.h</text>
</a>
</g>
</g>
<!-- Node3&#45;&gt;Node40 -->
<g id="edge15" class="edge">
<title>Node3&#45;&gt;Node40</title>
<path fill="none" stroke="#63b8ff" d="M2234.54,-156.24C1919.09,-152.49 580.47,-135.04 396,-107 388.12,-105.8 379.87,-103.99 371.93,-101.93"/>
<polygon fill="#63b8ff" stroke="#63b8ff" points="2234.21,-159.73 2244.25,-156.35 2234.29,-152.73 2234.21,-159.73"/>
</g>
<!-- Node45 -->
<g id="node17" class="node">
<title>Node45</title>
<g id="a_node17"><a xlink:href="d__demo_8cpp.html" target="_top" xlink:title=" ">
<polygon fill="white" stroke="#666666" points="94,-24.5 0,-24.5 0,-5.5 94,-5.5 94,-24.5"/>
<text text-anchor="middle" x="47" y="-12.5" font-family="Helvetica,sans-Serif" font-size="10.00">src/d/d_demo.cpp</text>
</a>
</g>
</g>
<!-- Node3&#45;&gt;Node45 -->
<g id="edge46" class="edge">
<title>Node3&#45;&gt;Node45</title>
<path fill="none" stroke="#63b8ff" d="M2234.2,-156.47C1869.4,-153.47 132.75,-137.61 87,-107 58.6,-88 50.2,-43.95 47.86,-24.97"/>
<polygon fill="#63b8ff" stroke="#63b8ff" points="2234.05,-159.97 2244.08,-156.55 2234.11,-152.97 2234.05,-159.97"/>
</g>
<!-- Node46 -->
<g id="node18" class="node">
<title>Node46</title>
<g id="a_node18"><a xlink:href="d__event_8cpp.html" target="_top" xlink:title=" ">
<polygon fill="white" stroke="#666666" points="233.5,-24.5 112.5,-24.5 112.5,-5.5 233.5,-5.5 233.5,-24.5"/>
<text text-anchor="middle" x="173" y="-12.5" font-family="Helvetica,sans-Serif" font-size="10.00">src/d/event/d_event.cpp</text>
</a>
</g>
</g>
<!-- Node3&#45;&gt;Node46 -->
<g id="edge55" class="edge">
<title>Node3&#45;&gt;Node46</title>
<path fill="none" stroke="#63b8ff" d="M2234.2,-156.8C1892.76,-155.57 355,-147.8 263,-107 240.01,-96.8 241.65,-83.92 224,-66 209.56,-51.34 192.4,-34.67 182.12,-24.76"/>
<polygon fill="#63b8ff" stroke="#63b8ff" points="2234.07,-160.3 2244.09,-156.83 2234.1,-153.3 2234.07,-160.3"/>
</g>
<!-- Node47 -->
<g id="node19" class="node">
<title>Node47</title>
<g id="a_node19"><a xlink:href="d__event__data_8cpp.html" target="_top" xlink:title=" ">
<polygon fill="white" stroke="#666666" points="354.5,-30 251.5,-30 251.5,0 354.5,0 354.5,-30"/>
<text text-anchor="start" x="259.5" y="-18" font-family="Helvetica,sans-Serif" font-size="10.00">src/d/event/d_event</text>
<text text-anchor="middle" x="303" y="-7" font-family="Helvetica,sans-Serif" font-size="10.00">_data.cpp</text>
</a>
</g>
</g>
<!-- Node3&#45;&gt;Node47 -->
<g id="edge56" class="edge">
<title>Node3&#45;&gt;Node47</title>
<path fill="none" stroke="#63b8ff" d="M2234.21,-156.96C1925.94,-156.54 648.38,-152.08 476,-107 460.45,-102.93 373.12,-55.02 328.81,-30.41"/>
<polygon fill="#63b8ff" stroke="#63b8ff" points="2234.09,-160.46 2244.1,-156.97 2234.1,-153.46 2234.09,-160.46"/>
</g>
<!-- Node48 -->
<g id="node20" class="node">
<title>Node48</title>
<g id="a_node20"><a xlink:href="d__kankyo_8cpp.html" target="_top" xlink:title=" ">
<polygon fill="white" stroke="#666666" points="507,-24.5 373,-24.5 373,-5.5 507,-5.5 507,-24.5"/>
<text text-anchor="middle" x="440" y="-12.5" font-family="Helvetica,sans-Serif" font-size="10.00">src/d/kankyo/d_kankyo.cpp</text>
</a>
</g>
</g>
<!-- Node3&#45;&gt;Node48 -->
<g id="edge59" class="edge">
<title>Node3&#45;&gt;Node48</title>
<path fill="none" stroke="#63b8ff" d="M2234.38,-156.48C1921.71,-153.89 611.57,-141.03 532,-107 490.89,-89.42 458.1,-44.18 445.54,-24.91"/>
<polygon fill="#63b8ff" stroke="#63b8ff" points="2233.97,-159.98 2244,-156.56 2234.03,-152.98 2233.97,-159.98"/>
</g>
<!-- Node54 -->
<g id="node21" class="node">
<title>Node54</title>
<g id="a_node21"><a xlink:href="d__s__logo_8h.html" target="_top" xlink:title=" ">
<polygon fill="#fff0f0" stroke="red" points="1767.5,-96 1654.5,-96 1654.5,-77 1767.5,-77 1767.5,-96"/>
<text text-anchor="middle" x="1711" y="-84" font-family="Helvetica,sans-Serif" font-size="10.00">include/d/s/d_s_logo.h</text>
</a>
</g>
</g>
<!-- Node3&#45;&gt;Node54 -->
<g id="edge21" class="edge">
<title>Node3&#45;&gt;Node54</title>
<path fill="none" stroke="#63b8ff" d="M2234.38,-154.74C2134.27,-150.42 1939.47,-138.45 1777,-107 1763.63,-104.41 1749.08,-100.26 1737.05,-96.45"/>
<polygon fill="#63b8ff" stroke="#63b8ff" points="2234.16,-158.23 2244.3,-155.15 2234.46,-151.24 2234.16,-158.23"/>
</g>
<!-- Node56 -->
<g id="node22" class="node">
<title>Node56</title>
<g id="a_node22"><a xlink:href="d__s__play_8h.html" target="_top" xlink:title=" ">
<polygon fill="#fff0f0" stroke="red" points="1898.5,-96 1785.5,-96 1785.5,-77 1898.5,-77 1898.5,-96"/>
<text text-anchor="middle" x="1842" y="-84" font-family="Helvetica,sans-Serif" font-size="10.00">include/d/s/d_s_play.h</text>
</a>
</g>
</g>
<!-- Node3&#45;&gt;Node56 -->
<g id="edge22" class="edge">
<title>Node3&#45;&gt;Node56</title>
<path fill="none" stroke="#63b8ff" d="M2234.35,-151.81C2155.74,-144.93 2021.4,-130.8 1908,-107 1894.9,-104.25 1880.63,-100.17 1868.72,-96.46"/>
<polygon fill="#63b8ff" stroke="#63b8ff" points="2233.76,-155.27 2244.03,-152.64 2234.36,-148.3 2233.76,-155.27"/>
</g>
<!-- Node60 -->
<g id="node23" class="node">
<title>Node60</title>
<g id="a_node23"><a xlink:href="d__msg__scrn__base_8h.html" target="_top" xlink:title=" ">
<polygon fill="#fff0f0" stroke="red" points="2015.5,-101.5 1916.5,-101.5 1916.5,-71.5 2015.5,-71.5 2015.5,-101.5"/>
<text text-anchor="start" x="1924.5" y="-89.5" font-family="Helvetica,sans-Serif" font-size="10.00">include/msg/scrn/d</text>
<text text-anchor="middle" x="1966" y="-78.5" font-family="Helvetica,sans-Serif" font-size="10.00">_msg_scrn_base.h</text>
</a>
</g>
</g>
<!-- Node3&#45;&gt;Node60 -->
<g id="edge23" class="edge">
<title>Node3&#45;&gt;Node60</title>
<path fill="none" stroke="#63b8ff" d="M2234.29,-147.59C2178.03,-139.03 2095.64,-124.98 2025,-107 2019.25,-105.54 2013.25,-103.8 2007.37,-101.98"/>
<polygon fill="#63b8ff" stroke="#63b8ff" points="2233.62,-151.03 2244.03,-149.06 2234.66,-144.11 2233.62,-151.03"/>
</g>
<!-- Node64 -->
<g id="node24" class="node">
<title>Node64</title>
<g id="a_node24"><a xlink:href="d__a__b__zant_8h.html" target="_top" xlink:title=" ">
<polygon fill="white" stroke="#666666" points="2154.5,-101.5 2033.5,-101.5 2033.5,-71.5 2154.5,-71.5 2154.5,-101.5"/>
<text text-anchor="start" x="2041.5" y="-89.5" font-family="Helvetica,sans-Serif" font-size="10.00">include/rel/d/a/b/d</text>
<text text-anchor="middle" x="2094" y="-78.5" font-family="Helvetica,sans-Serif" font-size="10.00">_a_b_zant/d_a_b_zant.h</text>
</a>
</g>
</g>
<!-- Node3&#45;&gt;Node64 -->
<g id="edge24" class="edge">
<title>Node3&#45;&gt;Node64</title>
<path fill="none" stroke="#63b8ff" d="M2247.09,-138.9C2212.82,-127.39 2169.04,-112.69 2137.09,-101.97"/>
<polygon fill="#63b8ff" stroke="#63b8ff" points="2245.83,-142.17 2256.42,-142.03 2248.06,-135.53 2245.83,-142.17"/>
</g>
<!-- Node65 -->
<g id="node25" class="node">
<title>Node65</title>
<g id="a_node25"><a xlink:href="d__a__skip__2D_8h.html" target="_top" xlink:title=" ">
<polygon fill="white" stroke="#666666" points="2297,-101.5 2173,-101.5 2173,-71.5 2297,-71.5 2297,-101.5"/>
<text text-anchor="start" x="2181" y="-89.5" font-family="Helvetica,sans-Serif" font-size="10.00">include/rel/d/a/d_a</text>
<text text-anchor="middle" x="2235" y="-78.5" font-family="Helvetica,sans-Serif" font-size="10.00">_skip_2D/d_a_skip_2D.h</text>
</a>
</g>
</g>
<!-- Node3&#45;&gt;Node65 -->
<g id="edge25" class="edge">
<title>Node3&#45;&gt;Node65</title>
<path fill="none" stroke="#63b8ff" d="M2279.62,-134.48C2269.45,-123.78 2257.59,-111.29 2248.66,-101.88"/>
<polygon fill="#63b8ff" stroke="#63b8ff" points="2276.86,-136.66 2286.28,-141.5 2281.93,-131.84 2276.86,-136.66"/>
</g>
<!-- Node66 -->
<g id="node26" class="node">
<title>Node66</title>
<g id="a_node26"><a xlink:href="d__a__spinner_8h.html" target="_top" xlink:title=" ">
<polygon fill="white" stroke="#666666" points="668,-101.5 552,-101.5 552,-71.5 668,-71.5 668,-101.5"/>
<text text-anchor="start" x="560" y="-89.5" font-family="Helvetica,sans-Serif" font-size="10.00">include/rel/d/a/d_a</text>
<text text-anchor="middle" x="610" y="-78.5" font-family="Helvetica,sans-Serif" font-size="10.00">_spinner/d_a_spinner.h</text>
</a>
</g>
</g>
<!-- Node3&#45;&gt;Node66 -->
<g id="edge26" class="edge">
<title>Node3&#45;&gt;Node66</title>
<path fill="none" stroke="#63b8ff" d="M2234.27,-157.01C1969.01,-156.75 988.79,-152.64 682,-107 673.93,-105.8 665.47,-104.01 657.3,-101.99"/>
<polygon fill="#63b8ff" stroke="#63b8ff" points="2234.11,-160.51 2244.11,-157.02 2234.11,-153.51 2234.11,-160.51"/>
</g>
<!-- Node67 -->
<g id="node27" class="node">
<title>Node67</title>
<g id="a_node27"><a xlink:href="d__a__player_8cpp.html" target="_top" xlink:title=" ">
<polygon fill="white" stroke="#666666" points="767,-24.5 653,-24.5 653,-5.5 767,-5.5 767,-24.5"/>
<text text-anchor="middle" x="710" y="-12.5" font-family="Helvetica,sans-Serif" font-size="10.00">src/d/a/d_a_player.cpp</text>
</a>
</g>
</g>
<!-- Node3&#45;&gt;Node67 -->
<g id="edge36" class="edge">
<title>Node3&#45;&gt;Node67</title>
<path fill="none" stroke="#63b8ff" d="M2234.5,-157.38C1940.57,-158.76 770.12,-160.84 715,-107 692.7,-85.22 701.76,-43.07 707.12,-24.8"/>
<polygon fill="#63b8ff" stroke="#63b8ff" points="2234.31,-160.88 2244.29,-157.34 2234.27,-153.88 2234.31,-160.88"/>
</g>
<!-- Node68 -->
<g id="node28" class="node">
<title>Node68</title>
<g id="a_node28"><a xlink:href="d__a__obj__yobikusa_8h.html" target="_top" xlink:title=" ">
<polygon fill="white" stroke="#666666" points="2420.5,-107 2315.5,-107 2315.5,-66 2420.5,-66 2420.5,-107"/>
<text text-anchor="start" x="2323.5" y="-95" font-family="Helvetica,sans-Serif" font-size="10.00">include/rel/d/a/obj</text>
<text text-anchor="start" x="2323.5" y="-84" font-family="Helvetica,sans-Serif" font-size="10.00">/d_a_obj_yobikusa/d</text>
<text text-anchor="middle" x="2368" y="-73" font-family="Helvetica,sans-Serif" font-size="10.00">_a_obj_yobikusa.h</text>
</a>
</g>
</g>
<!-- Node3&#45;&gt;Node68 -->
<g id="edge29" class="edge">
<title>Node3&#45;&gt;Node68</title>
<path fill="none" stroke="#63b8ff" d="M2322.8,-134.39C2331.18,-125.69 2340.68,-115.84 2348.8,-107.42"/>
<polygon fill="#63b8ff" stroke="#63b8ff" points="2320.35,-131.88 2315.93,-141.51 2325.39,-136.74 2320.35,-131.88"/>
</g>
<!-- Node69 -->
<g id="node29" class="node">
<title>Node69</title>
<g id="a_node29"><a xlink:href="d__a__tag__telop_8h.html" target="_top" xlink:title=" ">
<polygon fill="white" stroke="#666666" points="2557,-107 2439,-107 2439,-66 2557,-66 2557,-107"/>
<text text-anchor="start" x="2447" y="-95" font-family="Helvetica,sans-Serif" font-size="10.00">include/rel/d/a/tag</text>
<text text-anchor="start" x="2447" y="-84" font-family="Helvetica,sans-Serif" font-size="10.00">/d_a_tag_telop/d_a_tag</text>
<text text-anchor="middle" x="2498" y="-73" font-family="Helvetica,sans-Serif" font-size="10.00">_telop.h</text>
</a>
</g>
</g>
<!-- Node3&#45;&gt;Node69 -->
<g id="edge30" class="edge">
<title>Node3&#45;&gt;Node69</title>
<path fill="none" stroke="#63b8ff" d="M2352.35,-138.88C2379.72,-129.23 2413.45,-117.33 2441.55,-107.42"/>
<polygon fill="#63b8ff" stroke="#63b8ff" points="2351.51,-135.47 2343.25,-142.1 2353.84,-142.07 2351.51,-135.47"/>
</g>
<!-- Node70 -->
<g id="node30" class="node">
<title>Node70</title>
<g id="a_node30"><a xlink:href="c__dylink_8cpp.html" target="_top" xlink:title=" ">
<polygon fill="white" stroke="#666666" points="2670.5,-96 2575.5,-96 2575.5,-77 2670.5,-77 2670.5,-96"/>
<text text-anchor="middle" x="2623" y="-84" font-family="Helvetica,sans-Serif" font-size="10.00">src/c/c_dylink.cpp</text>
</a>
</g>
</g>
<!-- Node3&#45;&gt;Node70 -->
<g id="edge31" class="edge">
<title>Node3&#45;&gt;Node70</title>
<path fill="none" stroke="#63b8ff" d="M2367.47,-147.17C2421.42,-138.54 2499.23,-124.62 2566,-107 2577.12,-104.06 2589.21,-100.05 2599.38,-96.43"/>
<polygon fill="#63b8ff" stroke="#63b8ff" points="2367.15,-143.67 2357.82,-148.69 2368.25,-150.59 2367.15,-143.67"/>
</g>
<!-- Node71 -->
<g id="node31" class="node">
<title>Node71</title>
<g id="a_node31"><a xlink:href="d__a__itembase_8cpp.html" target="_top" xlink:title=" ">
<polygon fill="white" stroke="#666666" points="2817,-96 2689,-96 2689,-77 2817,-77 2817,-96"/>
<text text-anchor="middle" x="2753" y="-84" font-family="Helvetica,sans-Serif" font-size="10.00">src/d/a/d_a_itembase.cpp</text>
</a>
</g>
</g>
<!-- Node3&#45;&gt;Node71 -->
<g id="edge33" class="edge">
<title>Node3&#45;&gt;Node71</title>
<path fill="none" stroke="#63b8ff" d="M2367.57,-150.86C2443.6,-143.24 2571.49,-128.56 2680,-107 2694.28,-104.16 2709.9,-100.12 2723.02,-96.45"/>
<polygon fill="#63b8ff" stroke="#63b8ff" points="2367.4,-147.36 2357.79,-151.83 2368.09,-154.33 2367.4,-147.36"/>
</g>
<!-- Node72 -->
<g id="node32" class="node">
<title>Node72</title>
<g id="a_node32"><a xlink:href="d__a__obj_8cpp.html" target="_top" xlink:title=" ">
<polygon fill="white" stroke="#666666" points="2936.5,-96 2835.5,-96 2835.5,-77 2936.5,-77 2936.5,-96"/>
<text text-anchor="middle" x="2886" y="-84" font-family="Helvetica,sans-Serif" font-size="10.00">src/d/a/d_a_obj.cpp</text>
</a>
</g>
</g>
<!-- Node3&#45;&gt;Node72 -->
<g id="edge34" class="edge">
<title>Node3&#45;&gt;Node72</title>
<path fill="none" stroke="#63b8ff" d="M2367.86,-155.31C2468.31,-151.73 2663.66,-140.68 2826,-107 2838.33,-104.44 2851.69,-100.25 2862.67,-96.4"/>
<polygon fill="#63b8ff" stroke="#63b8ff" points="2367.78,-151.82 2357.9,-155.65 2368.01,-158.81 2367.78,-151.82"/>
</g>
<!-- Node73 -->
<g id="node33" class="node">
<title>Node73</title>
<g id="a_node33"><a xlink:href="d__bg__s_8cpp.html" target="_top" xlink:title=" ">
<polygon fill="white" stroke="#666666" points="3059,-96 2955,-96 2955,-77 3059,-77 3059,-96"/>
<text text-anchor="middle" x="3007" y="-84" font-family="Helvetica,sans-Serif" font-size="10.00">src/d/bg/d_bg_s.cpp</text>
</a>
</g>
</g>
<!-- Node3&#45;&gt;Node73 -->
<g id="edge37" class="edge">
<title>Node3&#45;&gt;Node73</title>
<path fill="none" stroke="#63b8ff" d="M2367.69,-156.9C2485.51,-155.6 2737.73,-147.79 2946,-107 2958.55,-104.54 2972.13,-100.36 2983.29,-96.49"/>
<polygon fill="#63b8ff" stroke="#63b8ff" points="2367.85,-153.4 2357.88,-156.99 2367.92,-160.4 2367.85,-153.4"/>
</g>
<!-- Node74 -->
<g id="node34" class="node">
<title>Node74</title>
<g id="a_node34"><a xlink:href="d__bg__s__movebg__actor_8cpp.html" target="_top" xlink:title=" ">
<polygon fill="white" stroke="#666666" points="3203,-101.5 3077,-101.5 3077,-71.5 3203,-71.5 3203,-101.5"/>
<text text-anchor="start" x="3085" y="-89.5" font-family="Helvetica,sans-Serif" font-size="10.00">src/d/bg/d_bg_s_movebg</text>
<text text-anchor="middle" x="3140" y="-78.5" font-family="Helvetica,sans-Serif" font-size="10.00">_actor.cpp</text>
</a>
</g>
</g>
<!-- Node3&#45;&gt;Node74 -->
<g id="edge38" class="edge">
<title>Node3&#45;&gt;Node74</title>
<path fill="none" stroke="#63b8ff" d="M2367.54,-157.11C2501.22,-156.34 2811.55,-149.65 3068,-107 3075.79,-105.7 3083.96,-103.92 3091.88,-101.95"/>
<polygon fill="#63b8ff" stroke="#63b8ff" points="2367.8,-153.6 2357.82,-157.15 2367.83,-160.6 2367.8,-153.6"/>
</g>
<!-- Node75 -->
<g id="node35" class="node">
<title>Node75</title>
<g id="a_node35"><a xlink:href="d__bg__w_8cpp.html" target="_top" xlink:title=" ">
<polygon fill="white" stroke="#666666" points="3328.5,-96 3221.5,-96 3221.5,-77 3328.5,-77 3328.5,-96"/>
<text text-anchor="middle" x="3275" y="-84" font-family="Helvetica,sans-Serif" font-size="10.00">src/d/bg/d_bg_w.cpp</text>
</a>
</g>
</g>
<!-- Node3&#45;&gt;Node75 -->
<g id="edge39" class="edge">
<title>Node3&#45;&gt;Node75</title>
<path fill="none" stroke="#63b8ff" d="M2367.82,-155.46C2549.52,-150.92 3049.81,-136.09 3212,-107 3225.19,-104.63 3239.48,-100.36 3251.11,-96.41"/>
<polygon fill="#63b8ff" stroke="#63b8ff" points="2367.74,-151.96 2357.83,-155.7 2367.92,-158.96 2367.74,-151.96"/>
</g>
<!-- Node76 -->
<g id="node36" class="node">
<title>Node76</title>
<g id="a_node36"><a xlink:href="d__cc__s_8cpp.html" target="_top" xlink:title=" ">
<polygon fill="white" stroke="#666666" points="3451,-96 3347,-96 3347,-77 3451,-77 3451,-96"/>
<text text-anchor="middle" x="3399" y="-84" font-family="Helvetica,sans-Serif" font-size="10.00">src/d/cc/d_cc_s.cpp</text>
</a>
</g>
</g>
<!-- Node3&#45;&gt;Node76 -->
<g id="edge40" class="edge">
<title>Node3&#45;&gt;Node76</title>
<path fill="none" stroke="#63b8ff" d="M2367.69,-156.06C2566.13,-152.89 3150.62,-140.86 3338,-107 3350.8,-104.69 3364.64,-100.41 3375.9,-96.46"/>
<polygon fill="#63b8ff" stroke="#63b8ff" points="2367.76,-152.55 2357.81,-156.21 2367.87,-159.55 2367.76,-152.55"/>
</g>
<!-- Node77 -->
<g id="node37" class="node">
<title>Node77</title>
<g id="a_node37"><a xlink:href="d__com__static_8cpp.html" target="_top" xlink:title=" ">
<polygon fill="white" stroke="#666666" points="3609,-96 3469,-96 3469,-77 3609,-77 3609,-96"/>
<text text-anchor="middle" x="3539" y="-84" font-family="Helvetica,sans-Serif" font-size="10.00">src/d/com/d_com_static.cpp</text>
</a>
</g>
</g>
<!-- Node3&#45;&gt;Node77 -->
<g id="edge42" class="edge">
<title>Node3&#45;&gt;Node77</title>
<path fill="none" stroke="#63b8ff" d="M2367.68,-155.87C2581.25,-151.96 3246.87,-137.59 3460,-107 3476.36,-104.65 3494.27,-100.38 3508.89,-96.43"/>
<polygon fill="#63b8ff" stroke="#63b8ff" points="2367.8,-152.36 2357.87,-156.04 2367.93,-159.36 2367.8,-152.36"/>
</g>
<!-- Node78 -->
<g id="node38" class="node">
<title>Node78</title>
<g id="a_node38"><a xlink:href="d__attention_8cpp.html" target="_top" xlink:title=" ">
<polygon fill="white" stroke="#666666" points="3734.5,-96 3627.5,-96 3627.5,-77 3734.5,-77 3734.5,-96"/>
<text text-anchor="middle" x="3681" y="-84" font-family="Helvetica,sans-Serif" font-size="10.00">src/d/d_attention.cpp</text>
</a>
</g>
</g>
<!-- Node3&#45;&gt;Node78 -->
<g id="edge43" class="edge">
<title>Node3&#45;&gt;Node78</title>
<path fill="none" stroke="#63b8ff" d="M2367.65,-156.77C2600.05,-155.63 3373.74,-148.69 3618,-107 3631.32,-104.73 3645.74,-100.41 3657.43,-96.41"/>
<polygon fill="#63b8ff" stroke="#63b8ff" points="2367.84,-153.27 2357.86,-156.82 2367.88,-160.27 2367.84,-153.27"/>
</g>
<!-- Node79 -->
<g id="node39" class="node">
<title>Node79</title>
<g id="a_node39"><a xlink:href="d__cam__param_8cpp.html" target="_top" xlink:title=" ">
<polygon fill="white" stroke="#666666" points="3873.5,-96 3752.5,-96 3752.5,-77 3873.5,-77 3873.5,-96"/>
<text text-anchor="middle" x="3813" y="-84" font-family="Helvetica,sans-Serif" font-size="10.00">src/d/d_cam_param.cpp</text>
</a>
</g>
</g>
<!-- Node3&#45;&gt;Node79 -->
<g id="edge44" class="edge">
<title>Node3&#45;&gt;Node79</title>
<path fill="none" stroke="#63b8ff" d="M2367.71,-156.82C2614.24,-155.81 3473.54,-149.27 3744,-107 3758.51,-104.73 3774.31,-100.41 3787.12,-96.41"/>
<polygon fill="#63b8ff" stroke="#63b8ff" points="2367.94,-153.32 2357.95,-156.85 2367.97,-160.32 2367.94,-153.32"/>
</g>
<!-- Node80 -->
<g id="node40" class="node">
<title>Node80</title>
<g id="a_node40"><a xlink:href="d__camera_8cpp.html" target="_top" xlink:title=" ">
<polygon fill="white" stroke="#666666" points="3994,-96 3892,-96 3892,-77 3994,-77 3994,-96"/>
<text text-anchor="middle" x="3943" y="-84" font-family="Helvetica,sans-Serif" font-size="10.00">src/d/d_camera.cpp</text>
</a>
</g>
</g>
<!-- Node3&#45;&gt;Node80 -->
<g id="edge45" class="edge">
<title>Node3&#45;&gt;Node80</title>
<path fill="none" stroke="#63b8ff" d="M2367.58,-157.39C2628.95,-158.55 3584.93,-159.06 3883,-107 3895.73,-104.78 3909.47,-100.46 3920.59,-96.45"/>
<polygon fill="#63b8ff" stroke="#63b8ff" points="2367.92,-153.9 2357.91,-157.35 2367.89,-160.9 2367.92,-153.9"/>
</g>
<!-- Node81 -->
<g id="node41" class="node">
<title>Node81</title>
<g id="a_node41"><a xlink:href="d__eye__hl_8cpp.html" target="_top" xlink:title=" ">
<polygon fill="white" stroke="#666666" points="4110,-96 4012,-96 4012,-77 4110,-77 4110,-96"/>
<text text-anchor="middle" x="4061" y="-84" font-family="Helvetica,sans-Serif" font-size="10.00">src/d/d_eye_hl.cpp</text>
</a>
</g>
</g>
<!-- Node3&#45;&gt;Node81 -->
<g id="edge47" class="edge">
<title>Node3&#45;&gt;Node81</title>
<path fill="none" stroke="#63b8ff" d="M2367.44,-156.21C2661.69,-152.53 3840.21,-136.09 4003,-107 4015.34,-104.79 4028.63,-100.48 4039.37,-96.47"/>
<polygon fill="#63b8ff" stroke="#63b8ff" points="2367.59,-152.7 2357.63,-156.33 2367.68,-159.7 2367.59,-152.7"/>
</g>
<!-- Node82 -->
<g id="node42" class="node">
<title>Node82</title>
<g id="a_node42"><a xlink:href="d__kyeff_8cpp.html" target="_top" xlink:title=" ">
<polygon fill="white" stroke="#666666" points="4218,-96 4128,-96 4128,-77 4218,-77 4218,-96"/>
<text text-anchor="middle" x="4173" y="-84" font-family="Helvetica,sans-Serif" font-size="10.00">src/d/d_kyeff.cpp</text>
</a>
</g>
</g>
<!-- Node3&#45;&gt;Node82 -->
<g id="edge48" class="edge">
<title>Node3&#45;&gt;Node82</title>
<path fill="none" stroke="#63b8ff" d="M2367.42,-156.43C2673.97,-153.6 3944.6,-140 4119,-107 4130.56,-104.81 4142.93,-100.5 4152.92,-96.48"/>
<polygon fill="#63b8ff" stroke="#63b8ff" points="2367.56,-152.92 2357.59,-156.52 2367.62,-159.92 2367.56,-152.92"/>
</g>
<!-- Node83 -->
<g id="node43" class="node">
<title>Node83</title>
<g id="a_node43"><a xlink:href="d__path_8cpp.html" target="_top" xlink:title=" ">
<polygon fill="white" stroke="#666666" points="4325.5,-96 4236.5,-96 4236.5,-77 4325.5,-77 4325.5,-96"/>
<text text-anchor="middle" x="4281" y="-84" font-family="Helvetica,sans-Serif" font-size="10.00">src/d/d_path.cpp</text>
</a>
</g>
</g>
<!-- Node3&#45;&gt;Node83 -->
<g id="edge49" class="edge">
<title>Node3&#45;&gt;Node83</title>
<path fill="none" stroke="#63b8ff" d="M2367.72,-156.53C2685.91,-154.14 4041.52,-141.95 4227,-107 4238.56,-104.82 4250.93,-100.51 4260.92,-96.49"/>
<polygon fill="#63b8ff" stroke="#63b8ff" points="2367.89,-153.03 2357.91,-156.61 2367.94,-160.03 2367.89,-153.03"/>
</g>
<!-- Node84 -->
<g id="node44" class="node">
<title>Node84</title>
<g id="a_node44"><a xlink:href="d__resorce_8cpp.html" target="_top" xlink:title=" ">
<polygon fill="white" stroke="#666666" points="4446,-96 4344,-96 4344,-77 4446,-77 4446,-96"/>
<text text-anchor="middle" x="4395" y="-84" font-family="Helvetica,sans-Serif" font-size="10.00">src/d/d_resorce.cpp</text>
</a>
</g>
</g>
<!-- Node3&#45;&gt;Node84 -->
<g id="edge50" class="edge">
<title>Node3&#45;&gt;Node84</title>
<path fill="none" stroke="#63b8ff" d="M2367.67,-156.51C2696.52,-153.92 4137.79,-140.73 4335,-107 4347.74,-104.82 4361.48,-100.51 4372.6,-96.49"/>
<polygon fill="#63b8ff" stroke="#63b8ff" points="2367.93,-153 2357.96,-156.58 2367.99,-160 2367.93,-153"/>
</g>
<!-- Node85 -->
<g id="node45" class="node">
<title>Node85</title>
<g id="a_node45"><a xlink:href="d__simple__model_8cpp.html" target="_top" xlink:title=" ">
<polygon fill="white" stroke="#666666" points="4594,-96 4464,-96 4464,-77 4594,-77 4594,-96"/>
<text text-anchor="middle" x="4529" y="-84" font-family="Helvetica,sans-Serif" font-size="10.00">src/d/d_simple_model.cpp</text>
</a>
</g>
</g>
<!-- Node3&#45;&gt;Node85 -->
<g id="edge51" class="edge">
<title>Node3&#45;&gt;Node85</title>
<path fill="none" stroke="#63b8ff" d="M2367.66,-156.38C2708.05,-153.11 4244.42,-136.77 4455,-107 4470.52,-104.81 4487.46,-100.49 4501.21,-96.48"/>
<polygon fill="#63b8ff" stroke="#63b8ff" points="2367.77,-152.88 2357.81,-156.48 2367.84,-159.88 2367.77,-152.88"/>
</g>
<!-- Node86 -->
<g id="node46" class="node">
<title>Node86</title>
<g id="a_node46"><a xlink:href="d__stage_8cpp.html" target="_top" xlink:title=" ">
<polygon fill="white" stroke="#666666" points="4706,-96 4612,-96 4612,-77 4706,-77 4706,-96"/>
<text text-anchor="middle" x="4659" y="-84" font-family="Helvetica,sans-Serif" font-size="10.00">src/d/d_stage.cpp</text>
</a>
</g>
</g>
<!-- Node3&#45;&gt;Node86 -->
<g id="edge52" class="edge">
<title>Node3&#45;&gt;Node86</title>
<path fill="none" stroke="#63b8ff" d="M2367.67,-156.79C2722.17,-155.53 4378.37,-147.51 4603,-107 4615.06,-104.83 4628,-100.46 4638.41,-96.41"/>
<polygon fill="#63b8ff" stroke="#63b8ff" points="2367.84,-153.29 2357.85,-156.83 2367.87,-160.29 2367.84,-153.29"/>
</g>
<!-- Node87 -->
<g id="node47" class="node">
<title>Node87</title>
<g id="a_node47"><a xlink:href="d__timer_8cpp.html" target="_top" xlink:title=" ">
<polygon fill="white" stroke="#666666" points="4816,-96 4724,-96 4724,-77 4816,-77 4816,-96"/>
<text text-anchor="middle" x="4770" y="-84" font-family="Helvetica,sans-Serif" font-size="10.00">src/d/d_timer.cpp</text>
</a>
</g>
</g>
<!-- Node3&#45;&gt;Node87 -->
<g id="edge53" class="edge">
<title>Node3&#45;&gt;Node87</title>
<path fill="none" stroke="#63b8ff" d="M2367.66,-156.89C2732.41,-156.11 4478.85,-150.15 4715,-107 4726.86,-104.83 4739.58,-100.47 4749.79,-96.41"/>
<polygon fill="#63b8ff" stroke="#63b8ff" points="2367.77,-153.39 2357.78,-156.91 2367.79,-160.39 2367.77,-153.39"/>
</g>
<!-- Node88 -->
<g id="node48" class="node">
<title>Node88</title>
<g id="a_node48"><a xlink:href="d__tresure_8cpp.html" target="_top" xlink:title=" ">
<polygon fill="white" stroke="#666666" points="4934,-96 4834,-96 4834,-77 4934,-77 4934,-96"/>
<text text-anchor="middle" x="4884" y="-84" font-family="Helvetica,sans-Serif" font-size="10.00">src/d/d_tresure.cpp</text>
</a>
</g>
</g>
<!-- Node3&#45;&gt;Node88 -->
<g id="edge54" class="edge">
<title>Node3&#45;&gt;Node88</title>
<path fill="none" stroke="#63b8ff" d="M2367.65,-156.87C2742.18,-155.98 4576.94,-149.46 4825,-107 4837.65,-104.83 4851.29,-100.47 4862.27,-96.42"/>
<polygon fill="#63b8ff" stroke="#63b8ff" points="2367.73,-153.37 2357.74,-156.89 2367.74,-160.37 2367.73,-153.37"/>
</g>
<!-- Node89 -->
<g id="node49" class="node">
<title>Node89</title>
<g id="a_node49"><a xlink:href="d__event__lib_8cpp.html" target="_top" xlink:title=" ">
<polygon fill="white" stroke="#666666" points="5055.5,-101.5 4952.5,-101.5 4952.5,-71.5 5055.5,-71.5 5055.5,-101.5"/>
<text text-anchor="start" x="4960.5" y="-89.5" font-family="Helvetica,sans-Serif" font-size="10.00">src/d/event/d_event</text>
<text text-anchor="middle" x="5004" y="-78.5" font-family="Helvetica,sans-Serif" font-size="10.00">_lib.cpp</text>
</a>
</g>
</g>
<!-- Node3&#45;&gt;Node89 -->
<g id="edge57" class="edge">
<title>Node3&#45;&gt;Node89</title>
<path fill="none" stroke="#63b8ff" d="M2367.96,-156.89C2753.53,-156.13 4682.49,-150.16 4943,-107 4950.02,-105.84 4957.34,-104.04 4964.38,-101.99"/>
<polygon fill="#63b8ff" stroke="#63b8ff" points="2367.98,-153.39 2357.99,-156.91 2368,-160.39 2367.98,-153.39"/>
</g>
<!-- Node90 -->
<g id="node50" class="node">
<title>Node90</title>
<g id="a_node50"><a xlink:href="d__event__manager_8cpp.html" target="_top" xlink:title=" ">
<polygon fill="white" stroke="#666666" points="5176.5,-101.5 5073.5,-101.5 5073.5,-71.5 5176.5,-71.5 5176.5,-101.5"/>
<text text-anchor="start" x="5081.5" y="-89.5" font-family="Helvetica,sans-Serif" font-size="10.00">src/d/event/d_event</text>
<text text-anchor="middle" x="5125" y="-78.5" font-family="Helvetica,sans-Serif" font-size="10.00">_manager.cpp</text>
</a>
</g>
</g>
<!-- Node3&#45;&gt;Node90 -->
<g id="edge58" class="edge">
<title>Node3&#45;&gt;Node90</title>
<path fill="none" stroke="#63b8ff" d="M2367.86,-156.97C2763.67,-156.66 4791.83,-152.81 5065,-107 5071.91,-105.84 5079.12,-104.04 5086.04,-102"/>
<polygon fill="#63b8ff" stroke="#63b8ff" points="2367.87,-153.47 2357.87,-156.98 2367.88,-160.47 2367.87,-153.47"/>
</g>
<!-- Node16&#45;&gt;Node13 -->
<g id="edge6" class="edge">
<title>Node16&#45;&gt;Node13</title>
<path fill="none" stroke="#63b8ff" d="M736.62,-72.69C698.29,-58.82 638.12,-37.04 604.61,-24.91"/>
<polygon fill="#63b8ff" stroke="#63b8ff" points="735.28,-75.93 745.87,-76.04 737.66,-69.35 735.28,-75.93"/>
</g>
<!-- Node16&#45;&gt;Node17 -->
<g id="edge7" class="edge">
<title>Node16&#45;&gt;Node17</title>
<path fill="none" stroke="#63b8ff" d="M789.71,-69.31C804.82,-55.49 825.98,-36.14 838.21,-24.95"/>
<polygon fill="#63b8ff" stroke="#63b8ff" points="787.76,-66.35 782.74,-75.68 792.48,-71.51 787.76,-66.35"/>
</g>
<!-- Node16&#45;&gt;Node18 -->
<g id="edge8" class="edge">
<title>Node16&#45;&gt;Node18</title>
<path fill="none" stroke="#63b8ff" d="M809.78,-73.06C846.06,-61.11 900.85,-43.06 939.06,-30.47"/>
<polygon fill="#63b8ff" stroke="#63b8ff" points="808.99,-69.63 800.59,-76.08 811.18,-76.28 808.99,-69.63"/>
</g>
<!-- Node40&#45;&gt;Node13 -->
<g id="edge16" class="edge">
<title>Node40&#45;&gt;Node13</title>
<path fill="none" stroke="#63b8ff" d="M390.73,-67.99C440.61,-54.29 507.95,-35.79 547.4,-24.96"/>
<polygon fill="#63b8ff" stroke="#63b8ff" points="389.9,-64.59 381.19,-70.61 391.76,-71.34 389.9,-64.59"/>
</g>
<!-- Node40&#45;&gt;Node45 -->
<g id="edge17" class="edge">
<title>Node40&#45;&gt;Node45</title>
<path fill="none" stroke="#63b8ff" d="M260.77,-69.13C216.17,-58.1 156.05,-43.2 103,-30 96.48,-28.38 89.54,-26.65 82.85,-24.97"/>
<polygon fill="#63b8ff" stroke="#63b8ff" points="259.74,-72.48 270.29,-71.48 261.42,-65.69 259.74,-72.48"/>
</g>
<!-- Node40&#45;&gt;Node46 -->
<g id="edge18" class="edge">
<title>Node40&#45;&gt;Node46</title>
<path fill="none" stroke="#63b8ff" d="M284.88,-66.49C254.83,-52.93 215.8,-35.31 192.67,-24.88"/>
<polygon fill="#63b8ff" stroke="#63b8ff" points="283.16,-69.55 293.71,-70.48 286.04,-63.17 283.16,-69.55"/>
</g>
<!-- Node40&#45;&gt;Node47 -->
<g id="edge19" class="edge">
<title>Node40&#45;&gt;Node47</title>
<path fill="none" stroke="#63b8ff" d="M318.34,-60.41C314.85,-50.32 310.96,-39.04 307.97,-30.38"/>
<polygon fill="#63b8ff" stroke="#63b8ff" points="314.96,-61.36 321.53,-69.67 321.58,-59.07 314.96,-61.36"/>
</g>
<!-- Node40&#45;&gt;Node48 -->
<g id="edge20" class="edge">
<title>Node40&#45;&gt;Node48</title>
<path fill="none" stroke="#63b8ff" d="M359.95,-65.24C381.7,-51.86 409.11,-35 425.56,-24.88"/>
<polygon fill="#63b8ff" stroke="#63b8ff" points="358.39,-62.09 351.7,-70.31 362.05,-68.05 358.39,-62.09"/>
</g>
<!-- Node66&#45;&gt;Node13 -->
<g id="edge27" class="edge">
<title>Node66&#45;&gt;Node13</title>
<path fill="none" stroke="#63b8ff" d="M599.31,-60.73C593.88,-48.15 587.63,-33.67 583.75,-24.68"/>
<polygon fill="#63b8ff" stroke="#63b8ff" points="596.01,-61.92 603.18,-69.71 602.43,-59.14 596.01,-61.92"/>
</g>
<!-- Node66&#45;&gt;Node67 -->
<g id="edge28" class="edge">
<title>Node66&#45;&gt;Node67</title>
<path fill="none" stroke="#63b8ff" d="M639.94,-64.69C659.06,-51.41 682.86,-34.86 697.23,-24.88"/>
<polygon fill="#63b8ff" stroke="#63b8ff" points="638.18,-61.65 631.96,-70.24 642.17,-67.4 638.18,-61.65"/>
</g>
</g>
</svg>
