<?xml version="1.0" encoding="UTF-8" standalone="no"?>
<!DOCTYPE svg PUBLIC "-//W3C//DTD SVG 1.1//EN"
 "http://www.w3.org/Graphics/SVG/1.1/DTD/svg11.dtd">
<!-- Generated by graphviz version 7.0.4 (20221203.1631)
 -->
<!-- Title: include/d/bg/d_bg_w_base.h Pages: 1 -->
<!--zoomable 423 -->
<svg id="main" version="1.1" xmlns="http://www.w3.org/2000/svg" xmlns:xlink="http://www.w3.org/1999/xlink" xml:space="preserve" onload="init(evt)">
<style type="text/css"><![CDATA[
.edge:hover path { stroke: red; }
.edge:hover polygon { stroke: red; fill: red; }
]]></style>
<script type="text/javascript"><![CDATA[
var edges = document.getElementsByTagName('g');
if (edges && edges.length) {
  for (var i=0;i<edges.length;i++) {
    if (edges[i].id.substr(0,4)=='edge') {
      edges[i].setAttribute('class','edge');
    }
  }
}
]]></script>
        <defs>
                <circle id="rim" cx="0" cy="0" r="7"/>
                <circle id="rim2" cx="0" cy="0" r="3.5"/>
                <g id="zoomPlus">
                        <use xlink:href="#rim" fill="#404040">
                                <set attributeName="fill" to="#808080" begin="zoomplus.mouseover" end="zoomplus.mouseout"/>
                        </use>
                        <path d="M-4,0h8M0,-4v8" fill="none" stroke="white" stroke-width="1.5" pointer-events="none"/>
                </g>
                <g id="zoomMin">
                        <use xlink:href="#rim" fill="#404040">
                                <set attributeName="fill" to="#808080" begin="zoomminus.mouseover" end="zoomminus.mouseout"/>
                        </use>
                        <path d="M-4,0h8" fill="none" stroke="white" stroke-width="1.5" pointer-events="none"/>
                </g>
                <g id="dirArrow">
                        <path fill="none" stroke="white" stroke-width="1.5" d="M0,-3.0v7 M-2.5,-0.5L0,-3.0L2.5,-0.5"/>
                </g>
               <g id="resetDef">
                       <use xlink:href="#rim2" fill="#404040">
                               <set attributeName="fill" to="#808080" begin="reset.mouseover" end="reset.mouseout"/>
                       </use>
               </g>
        </defs>

<script type="text/javascript">
var viewWidth = 4322;
var viewHeight = 423;
var sectionId = 'dynsection-1';
</script>
<script xlink:href="svgpan.js"/>
<svg id="graph" class="graph">
<g id="viewport">
<title>include/d/bg/d_bg_w_base.h</title>
<!-- Node1 -->
<g id="node1" class="node">
<title>Node1</title>
<g id="a_node1"><a xlink:title=" ">
<polygon fill="#999999" stroke="#666666" points="627.5,-415 521.5,-415 521.5,-385 627.5,-385 627.5,-415"/>
<text text-anchor="start" x="529.5" y="-403" font-family="Helvetica,sans-Serif" font-size="10.00">include/d/bg/d_bg_w</text>
<text text-anchor="middle" x="574.5" y="-392" font-family="Helvetica,sans-Serif" font-size="10.00">_base.h</text>
</a>
</g>
</g>
<!-- Node2 -->
<g id="node2" class="node">
<title>Node2</title>
<g id="a_node2"><a xlink:href="d__bg__w_8h.html" target="_top" xlink:title=" ">
<polygon fill="white" stroke="#666666" points="408,-343.5 295,-343.5 295,-324.5 408,-324.5 408,-343.5"/>
<text text-anchor="middle" x="351.5" y="-331.5" font-family="Helvetica,sans-Serif" font-size="10.00">include/d/bg/d_bg_w.h</text>
</a>
</g>
</g>
<!-- Node1&#45;&gt;Node2 -->
<g id="edge1" class="edge">
<title>Node1&#45;&gt;Node2</title>
<path fill="none" stroke="#63b8ff" d="M513.15,-381.39C470.86,-369.26 416.4,-353.63 382.73,-343.96"/>
<polygon fill="#63b8ff" stroke="#63b8ff" points="512.14,-384.75 522.72,-384.14 514.08,-378.02 512.14,-384.75"/>
</g>
<!-- Node115 -->
<g id="node48" class="node">
<title>Node115</title>
<g id="a_node48"><a xlink:href="d__bg__w__kcol_8h.html" target="_top" xlink:title=" ">
<polygon fill="white" stroke="#666666" points="627.5,-349 521.5,-349 521.5,-319 627.5,-319 627.5,-349"/>
<text text-anchor="start" x="529.5" y="-337" font-family="Helvetica,sans-Serif" font-size="10.00">include/d/bg/d_bg_w</text>
<text text-anchor="middle" x="574.5" y="-326" font-family="Helvetica,sans-Serif" font-size="10.00">_kcol.h</text>
</a>
</g>
</g>
<!-- Node1&#45;&gt;Node115 -->
<g id="edge61" class="edge">
<title>Node1&#45;&gt;Node115</title>
<path fill="none" stroke="#63b8ff" d="M574.5,-373.39C574.5,-365.13 574.5,-356.28 574.5,-349.16"/>
<polygon fill="#63b8ff" stroke="#63b8ff" points="571,-373.28 574.5,-383.28 578,-373.28 571,-373.28"/>
</g>
<!-- Node117 -->
<g id="node50" class="node">
<title>Node117</title>
<g id="a_node50"><a xlink:href="d__bg__w__base_8cpp.html" target="_top" xlink:title=" ">
<polygon fill="white" stroke="#666666" points="779,-343.5 646,-343.5 646,-324.5 779,-324.5 779,-343.5"/>
<text text-anchor="middle" x="712.5" y="-331.5" font-family="Helvetica,sans-Serif" font-size="10.00">src/d/bg/d_bg_w_base.cpp</text>
</a>
</g>
</g>
<!-- Node1&#45;&gt;Node117 -->
<g id="edge63" class="edge">
<title>Node1&#45;&gt;Node117</title>
<path fill="none" stroke="#63b8ff" d="M615.67,-379.91C641.32,-368.01 673.13,-353.26 693.12,-343.99"/>
<polygon fill="#63b8ff" stroke="#63b8ff" points="614.44,-376.62 606.84,-384 617.39,-382.97 614.44,-376.62"/>
</g>
<!-- Node3 -->
<g id="node3" class="node">
<title>Node3</title>
<g id="a_node3"><a xlink:href="d__bg__s_8h.html" target="_top" xlink:title=" ">
<polygon fill="white" stroke="#666666" points="588,-283 477,-283 477,-264 588,-264 588,-283"/>
<text text-anchor="middle" x="532.5" y="-271" font-family="Helvetica,sans-Serif" font-size="10.00">include/d/bg/d_bg_s.h</text>
</a>
</g>
</g>
<!-- Node2&#45;&gt;Node3 -->
<g id="edge2" class="edge">
<title>Node2&#45;&gt;Node3</title>
<path fill="none" stroke="#63b8ff" d="M389.59,-320.69C424.04,-309.56 473.95,-293.42 504.75,-283.47"/>
<polygon fill="#63b8ff" stroke="#63b8ff" points="388.87,-317.24 380.43,-323.65 391.02,-323.9 388.87,-317.24"/>
</g>
<!-- Node77 -->
<g id="node34" class="node">
<title>Node77</title>
<g id="a_node34"><a xlink:href="d__bg__w_8cpp.html" target="_top" xlink:title=" ">
<polygon fill="white" stroke="#666666" points="139,-96 32,-96 32,-77 139,-77 139,-96"/>
<text text-anchor="middle" x="85.5" y="-84" font-family="Helvetica,sans-Serif" font-size="10.00">src/d/bg/d_bg_w.cpp</text>
</a>
</g>
</g>
<!-- Node2&#45;&gt;Node77 -->
<g id="edge60" class="edge">
<title>Node2&#45;&gt;Node77</title>
<path fill="none" stroke="#63b8ff" d="M322.57,-318.98C305.19,-309.9 283.12,-297.15 265.5,-283 188.16,-220.89 113.77,-125.21 91.92,-96.16"/>
<polygon fill="#63b8ff" stroke="#63b8ff" points="320.85,-322.03 331.35,-323.45 324.02,-315.79 320.85,-322.03"/>
</g>
<!-- Node112 -->
<g id="node45" class="node">
<title>Node112</title>
<g id="a_node45"><a xlink:href="d__bg__s__movebg__actor_8h.html" target="_top" xlink:title=" ">
<polygon fill="white" stroke="#666666" points="310.5,-173 206.5,-173 206.5,-143 310.5,-143 310.5,-173"/>
<text text-anchor="start" x="214.5" y="-161" font-family="Helvetica,sans-Serif" font-size="10.00">include/d/bg/d_bg_s</text>
<text text-anchor="middle" x="258.5" y="-150" font-family="Helvetica,sans-Serif" font-size="10.00">_movebg_actor.h</text>
</a>
</g>
</g>
<!-- Node2&#45;&gt;Node112 -->
<g id="edge56" class="edge">
<title>Node2&#45;&gt;Node112</title>
<path fill="none" stroke="#63b8ff" d="M319.56,-319.02C304.4,-310.74 287.47,-298.75 277.5,-283 255.6,-248.4 255.62,-197.75 257.17,-173.28"/>
<polygon fill="#63b8ff" stroke="#63b8ff" points="317.81,-322.06 328.31,-323.48 320.98,-315.82 317.81,-322.06"/>
</g>
<!-- Node113 -->
<g id="node46" class="node">
<title>Node113</title>
<g id="a_node46"><a xlink:href="d__bg__w__sv_8h.html" target="_top" xlink:title=" ">
<polygon fill="white" stroke="#666666" points="416,-283 287,-283 287,-264 416,-264 416,-283"/>
<text text-anchor="middle" x="351.5" y="-271" font-family="Helvetica,sans-Serif" font-size="10.00">include/d/bg/d_bg_w_sv.h</text>
</a>
</g>
</g>
<!-- Node2&#45;&gt;Node113 -->
<g id="edge58" class="edge">
<title>Node2&#45;&gt;Node113</title>
<path fill="none" stroke="#63b8ff" d="M351.5,-313.16C351.5,-302.95 351.5,-291.04 351.5,-283.17"/>
<polygon fill="#63b8ff" stroke="#63b8ff" points="348,-312.85 351.5,-322.85 355,-312.85 348,-312.85"/>
</g>
<!-- Node4 -->
<g id="node4" class="node">
<title>Node4</title>
<g id="a_node4"><a xlink:href="d__a__alink_8h.html" target="_top" xlink:title=" ">
<polygon fill="white" stroke="#666666" points="732.5,-228 616.5,-228 616.5,-209 732.5,-209 732.5,-228"/>
<text text-anchor="middle" x="674.5" y="-216" font-family="Helvetica,sans-Serif" font-size="10.00">include/d/a/d_a_alink.h</text>
</a>
</g>
</g>
<!-- Node3&#45;&gt;Node4 -->
<g id="edge3" class="edge">
<title>Node3&#45;&gt;Node4</title>
<path fill="none" stroke="#63b8ff" d="M567.11,-259.58C593.06,-249.9 627.9,-236.89 650.77,-228.36"/>
<polygon fill="#63b8ff" stroke="#63b8ff" points="566.15,-256.2 558.01,-262.98 568.6,-262.76 566.15,-256.2"/>
</g>
<!-- Node5 -->
<g id="node5" class="node">
<title>Node5</title>
<g id="a_node5"><a xlink:href="d__com__inf__game_8h.html" target="_top" xlink:title=" ">
<polygon fill="#fff0f0" stroke="red" points="2186.5,-173 2076.5,-173 2076.5,-143 2186.5,-143 2186.5,-173"/>
<text text-anchor="start" x="2084.5" y="-161" font-family="Helvetica,sans-Serif" font-size="10.00">include/d/com/d_com</text>
<text text-anchor="middle" x="2131.5" y="-150" font-family="Helvetica,sans-Serif" font-size="10.00">_inf_game.h</text>
</a>
</g>
</g>
<!-- Node3&#45;&gt;Node5 -->
<g id="edge50" class="edge">
<title>Node3&#45;&gt;Node5</title>
<path fill="none" stroke="#63b8ff" d="M599.66,-263.85C1183.14,-206.16 1877.42,-170.98 2076.02,-161.56"/>
<polygon fill="#63b8ff" stroke="#63b8ff" points="599.61,-260.33 590,-264.81 600.3,-267.3 599.61,-260.33"/>
</g>
<!-- Node75 -->
<g id="node32" class="node">
<title>Node75</title>
<g id="a_node32"><a xlink:href="d__bg__s_8cpp.html" target="_top" xlink:title=" ">
<polygon fill="white" stroke="#666666" points="4313.5,-96 4209.5,-96 4209.5,-77 4313.5,-77 4313.5,-96"/>
<text text-anchor="middle" x="4261.5" y="-84" font-family="Helvetica,sans-Serif" font-size="10.00">src/d/bg/d_bg_s.cpp</text>
</a>
</g>
</g>
<!-- Node3&#45;&gt;Node75 -->
<g id="edge54" class="edge">
<title>Node3&#45;&gt;Node75</title>
<path fill="none" stroke="#63b8ff" d="M599.71,-263.9C1407.95,-195.08 3386.74,-208.51 4171.5,-107 4189.89,-104.62 4210.1,-100.39 4226.69,-96.48"/>
<polygon fill="#63b8ff" stroke="#63b8ff" points="599.66,-260.39 589.99,-264.74 600.26,-267.37 599.66,-260.39"/>
</g>
<!-- Node110 -->
<g id="node43" class="node">
<title>Node110</title>
<g id="a_node43"><a xlink:href="d__a__horse_8h.html" target="_top" xlink:title=" ">
<polygon fill="#fff0f0" stroke="red" points="101,-173 0,-173 0,-143 101,-143 101,-173"/>
<text text-anchor="start" x="8" y="-161" font-family="Helvetica,sans-Serif" font-size="10.00">include/rel/d/a/d_a</text>
<text text-anchor="middle" x="50.5" y="-150" font-family="Helvetica,sans-Serif" font-size="10.00">_horse/d_a_horse.h</text>
</a>
</g>
</g>
<!-- Node3&#45;&gt;Node110 -->
<g id="edge51" class="edge">
<title>Node3&#45;&gt;Node110</title>
<path fill="none" stroke="#63b8ff" d="M507.76,-257.94C477.39,-240.18 428.76,-212.1 419.5,-209 306.38,-171.1 271.72,-189.03 153.5,-173 136.51,-170.7 117.95,-168.17 101.32,-165.91"/>
<polygon fill="#63b8ff" stroke="#63b8ff" points="505.94,-260.94 516.34,-262.97 509.49,-254.9 505.94,-260.94"/>
</g>
<!-- Node111 -->
<g id="node44" class="node">
<title>Node111</title>
<g id="a_node44"><a xlink:href="d__bg__s__acch_8cpp.html" target="_top" xlink:title=" ">
<polygon fill="white" stroke="#666666" points="598,-228 467,-228 467,-209 598,-209 598,-228"/>
<text text-anchor="middle" x="532.5" y="-216" font-family="Helvetica,sans-Serif" font-size="10.00">src/d/bg/d_bg_s_acch.cpp</text>
</a>
</g>
</g>
<!-- Node3&#45;&gt;Node111 -->
<g id="edge55" class="edge">
<title>Node3&#45;&gt;Node111</title>
<path fill="none" stroke="#63b8ff" d="M532.5,-252.35C532.5,-244.1 532.5,-234.97 532.5,-228.44"/>
<polygon fill="#63b8ff" stroke="#63b8ff" points="529,-252.23 532.5,-262.23 536,-252.23 529,-252.23"/>
</g>
<!-- Node4&#45;&gt;Node5 -->
<g id="edge4" class="edge">
<title>Node4&#45;&gt;Node5</title>
<path fill="none" stroke="#63b8ff" d="M744.1,-214.71C994.95,-204.63 1849.78,-170.31 2076.13,-161.22"/>
<polygon fill="#63b8ff" stroke="#63b8ff" points="744.33,-211.19 734.48,-215.09 744.61,-218.19 744.33,-211.19"/>
</g>
<!-- Node15 -->
<g id="node9" class="node">
<title>Node15</title>
<g id="a_node9"><a xlink:href="d__a__alink_8cpp.html" target="_top" xlink:title=" ">
<polygon fill="white" stroke="#666666" points="1609,-24.5 1500,-24.5 1500,-5.5 1609,-5.5 1609,-24.5"/>
<text text-anchor="middle" x="1554.5" y="-12.5" font-family="Helvetica,sans-Serif" font-size="10.00">src/d/a/d_a_alink.cpp</text>
</a>
</g>
</g>
<!-- Node4&#45;&gt;Node15 -->
<g id="edge49" class="edge">
<title>Node4&#45;&gt;Node15</title>
<path fill="none" stroke="#63b8ff" d="M604.8,-209.04C526.72,-204.02 229.23,-202.36 197.5,-173 162.41,-140.53 153.32,-100.42 186.5,-66 232.79,-17.99 1249.95,-15.73 1499.56,-15.9"/>
<polygon fill="#63b8ff" stroke="#63b8ff" points="604.29,-212.51 614.54,-209.83 604.86,-205.53 604.29,-212.51"/>
</g>
<!-- Node6 -->
<g id="node6" class="node">
<title>Node6</title>
<g id="a_node6"><a xlink:href="d__a__npc_8h.html" target="_top" xlink:title=" ">
<polygon fill="#fff0f0" stroke="red" points="3826,-96 3715,-96 3715,-77 3826,-77 3826,-96"/>
<text text-anchor="middle" x="3770.5" y="-84" font-family="Helvetica,sans-Serif" font-size="10.00">include/d/a/d_a_npc.h</text>
</a>
</g>
</g>
<!-- Node5&#45;&gt;Node6 -->
<g id="edge5" class="edge">
<title>Node5&#45;&gt;Node6</title>
<path fill="none" stroke="#63b8ff" d="M2197.76,-157.22C2457.86,-157.73 3409.29,-156.11 3706.5,-107 3720.02,-104.77 3734.68,-100.45 3746.55,-96.44"/>
<polygon fill="#63b8ff" stroke="#63b8ff" points="2198.14,-153.72 2188.14,-157.2 2198.13,-160.72 2198.14,-153.72"/>
</g>
<!-- Node12 -->
<g id="node7" class="node">
<title>Node12</title>
<g id="a_node7"><a xlink:href="d__cc__uty_8h.html" target="_top" xlink:title=" ">
<polygon fill="#fff0f0" stroke="red" points="3963,-96 3844,-96 3844,-77 3963,-77 3963,-96"/>
<text text-anchor="middle" x="3903.5" y="-84" font-family="Helvetica,sans-Serif" font-size="10.00">include/d/cc/d_cc_uty.h</text>
</a>
</g>
</g>
<!-- Node5&#45;&gt;Node12 -->
<g id="edge6" class="edge">
<title>Node5&#45;&gt;Node12</title>
<path fill="none" stroke="#63b8ff" d="M2197.98,-156.03C2492.46,-151.61 3671.91,-132.45 3835.5,-107 3849.82,-104.77 3865.39,-100.46 3878.01,-96.45"/>
<polygon fill="#63b8ff" stroke="#63b8ff" points="2198.12,-152.53 2188.17,-156.18 2198.22,-159.53 2198.12,-152.53"/>
</g>
<!-- Node18 -->
<g id="node8" class="node">
<title>Node18</title>
<g id="a_node8"><a xlink:href="d__item_8h.html" target="_top" xlink:title=" ">
<polygon fill="#fff0f0" stroke="red" points="4115,-96 4020,-96 4020,-77 4115,-77 4115,-96"/>
<text text-anchor="middle" x="4067.5" y="-84" font-family="Helvetica,sans-Serif" font-size="10.00">include/d/d_item.h</text>
</a>
</g>
</g>
<!-- Node5&#45;&gt;Node18 -->
<g id="edge7" class="edge">
<title>Node5&#45;&gt;Node18</title>
<path fill="none" stroke="#63b8ff" d="M2197.92,-156.32C2510.18,-152.98 3824.66,-137.24 4005.5,-107 4018.63,-104.8 4032.83,-100.49 4044.32,-96.48"/>
<polygon fill="#63b8ff" stroke="#63b8ff" points="2198.28,-152.82 2188.32,-156.42 2198.36,-159.82 2198.28,-152.82"/>
</g>
<!-- Node5&#45;&gt;Node15 -->
<g id="edge31" class="edge">
<title>Node5&#45;&gt;Node15</title>
<path fill="none" stroke="#63b8ff" d="M2065.12,-149.68C2025.35,-143.04 1975.01,-130.5 1935.5,-107 1914.15,-94.3 1919.49,-77.56 1897.5,-66 1848.56,-40.27 1693.16,-25.72 1609.35,-19.55"/>
<polygon fill="#63b8ff" stroke="#63b8ff" points="2064.39,-153.11 2074.81,-151.21 2065.48,-146.19 2064.39,-153.11"/>
</g>
<!-- Node19 -->
<g id="node10" class="node">
<title>Node19</title>
<g id="a_node10"><a xlink:href="d__a__obj__item_8cpp.html" target="_top" xlink:title=" ">
<polygon fill="white" stroke="#666666" points="4119,-24.5 3994,-24.5 3994,-5.5 4119,-5.5 4119,-24.5"/>
<text text-anchor="middle" x="4056.5" y="-12.5" font-family="Helvetica,sans-Serif" font-size="10.00">src/d/a/d_a_obj_item.cpp</text>
</a>
</g>
</g>
<!-- Node5&#45;&gt;Node19 -->
<g id="edge34" class="edge">
<title>Node5&#45;&gt;Node19</title>
<path fill="none" stroke="#63b8ff" d="M2198.15,-155.95C2542.78,-150.47 4107.3,-124.64 4124.5,-107 4137.22,-93.95 4132.73,-82.26 4124.5,-66 4114.71,-46.65 4093.51,-32.96 4077.37,-24.86"/>
<polygon fill="#63b8ff" stroke="#63b8ff" points="2198.34,-152.45 2188.4,-156.11 2198.45,-159.45 2198.34,-152.45"/>
</g>
<!-- Node20 -->
<g id="node11" class="node">
<title>Node20</title>
<g id="a_node11"><a xlink:href="d__com__inf__game_8cpp.html" target="_top" xlink:title=" ">
<polygon fill="white" stroke="#666666" points="4245.5,-30 4137.5,-30 4137.5,0 4245.5,0 4245.5,-30"/>
<text text-anchor="start" x="4145.5" y="-18" font-family="Helvetica,sans-Serif" font-size="10.00">src/d/com/d_com_inf</text>
<text text-anchor="middle" x="4191.5" y="-7" font-family="Helvetica,sans-Serif" font-size="10.00">_game.cpp</text>
</a>
</g>
</g>
<!-- Node5&#45;&gt;Node20 -->
<g id="edge40" class="edge">
<title>Node5&#45;&gt;Node20</title>
<path fill="none" stroke="#63b8ff" d="M2198.34,-156.25C2542.37,-152.26 4099.07,-132.82 4141.5,-107 4169.37,-90.04 4182.83,-51.57 4188.32,-30.49"/>
<polygon fill="#63b8ff" stroke="#63b8ff" points="2198.33,-152.75 2188.37,-156.36 2198.41,-159.75 2198.33,-152.75"/>
</g>
<!-- Node23 -->
<g id="node12" class="node">
<title>Node23</title>
<g id="a_node12"><a xlink:href="d__kantera__icon__meter_8h.html" target="_top" xlink:title=" ">
<polygon fill="#fff0f0" stroke="red" points="607,-101.5 506,-101.5 506,-71.5 607,-71.5 607,-101.5"/>
<text text-anchor="start" x="514" y="-89.5" font-family="Helvetica,sans-Serif" font-size="10.00">include/d/d_kantera</text>
<text text-anchor="middle" x="556.5" y="-78.5" font-family="Helvetica,sans-Serif" font-size="10.00">_icon_meter.h</text>
</a>
</g>
</g>
<!-- Node5&#45;&gt;Node23 -->
<g id="edge11" class="edge">
<title>Node5&#45;&gt;Node23</title>
<path fill="none" stroke="#63b8ff" d="M2064.82,-157.28C1810.4,-157.98 900.82,-156.86 616.5,-107 609.6,-105.79 602.39,-103.96 595.47,-101.91"/>
<polygon fill="#63b8ff" stroke="#63b8ff" points="2064.57,-160.79 2074.56,-157.26 2064.55,-153.79 2064.57,-160.79"/>
</g>
<!-- Node26 -->
<g id="node13" class="node">
<title>Node26</title>
<g id="a_node13"><a xlink:href="d__model_8h.html" target="_top" xlink:title=" ">
<polygon fill="#fff0f0" stroke="red" points="728,-96 625,-96 625,-77 728,-77 728,-96"/>
<text text-anchor="middle" x="676.5" y="-84" font-family="Helvetica,sans-Serif" font-size="10.00">include/d/d_model.h</text>
</a>
</g>
</g>
<!-- Node5&#45;&gt;Node26 -->
<g id="edge12" class="edge">
<title>Node5&#45;&gt;Node26</title>
<path fill="none" stroke="#63b8ff" d="M2064.62,-157.02C1823.18,-156.71 997.17,-152.28 737.5,-107 724.58,-104.75 710.61,-100.43 699.3,-96.43"/>
<polygon fill="#63b8ff" stroke="#63b8ff" points="2064.49,-160.52 2074.49,-157.03 2064.5,-153.52 2064.49,-160.52"/>
</g>
<!-- Node28 -->
<g id="node14" class="node">
<title>Node28</title>
<g id="a_node14"><a xlink:href="d__name_8h.html" target="_top" xlink:title=" ">
<polygon fill="#fff0f0" stroke="red" points="847,-96 746,-96 746,-77 847,-77 847,-96"/>
<text text-anchor="middle" x="796.5" y="-84" font-family="Helvetica,sans-Serif" font-size="10.00">include/d/d_name.h</text>
</a>
</g>
</g>
<!-- Node5&#45;&gt;Node28 -->
<g id="edge13" class="edge">
<title>Node5&#45;&gt;Node28</title>
<path fill="none" stroke="#63b8ff" d="M2064.69,-156.8C1836.9,-155.73 1091.88,-149.03 856.5,-107 843.78,-104.73 830.03,-100.41 818.92,-96.41"/>
<polygon fill="#63b8ff" stroke="#63b8ff" points="2064.57,-160.3 2074.58,-156.84 2064.6,-153.3 2064.57,-160.3"/>
</g>
<!-- Node30 -->
<g id="node15" class="node">
<title>Node30</title>
<g id="a_node15"><a xlink:href="d__file__sel__info_8h.html" target="_top" xlink:title=" ">
<polygon fill="#fff0f0" stroke="red" points="961.5,-101.5 865.5,-101.5 865.5,-71.5 961.5,-71.5 961.5,-101.5"/>
<text text-anchor="start" x="873.5" y="-89.5" font-family="Helvetica,sans-Serif" font-size="10.00">include/d/file/d_file</text>
<text text-anchor="middle" x="913.5" y="-78.5" font-family="Helvetica,sans-Serif" font-size="10.00">_sel_info.h</text>
</a>
</g>
</g>
<!-- Node5&#45;&gt;Node30 -->
<g id="edge14" class="edge">
<title>Node5&#45;&gt;Node30</title>
<path fill="none" stroke="#63b8ff" d="M2064.95,-156.63C1851.02,-155.06 1182.57,-146.98 970.5,-107 964.02,-105.78 957.28,-103.98 950.8,-101.96"/>
<polygon fill="#63b8ff" stroke="#63b8ff" points="2064.75,-160.13 2074.78,-156.7 2064.8,-153.13 2064.75,-160.13"/>
</g>
<!-- Node33 -->
<g id="node16" class="node">
<title>Node33</title>
<g id="a_node16"><a xlink:href="d__file__sel__warning_8h.html" target="_top" xlink:title=" ">
<polygon fill="#fff0f0" stroke="red" points="1075.5,-101.5 979.5,-101.5 979.5,-71.5 1075.5,-71.5 1075.5,-101.5"/>
<text text-anchor="start" x="987.5" y="-89.5" font-family="Helvetica,sans-Serif" font-size="10.00">include/d/file/d_file</text>
<text text-anchor="middle" x="1027.5" y="-78.5" font-family="Helvetica,sans-Serif" font-size="10.00">_sel_warning.h</text>
</a>
</g>
</g>
<!-- Node5&#45;&gt;Node33 -->
<g id="edge15" class="edge">
<title>Node5&#45;&gt;Node33</title>
<path fill="none" stroke="#63b8ff" d="M2064.83,-156.27C1865.06,-153.68 1273.56,-143.1 1084.5,-107 1078.03,-105.76 1071.29,-103.96 1064.81,-101.93"/>
<polygon fill="#63b8ff" stroke="#63b8ff" points="2064.74,-159.76 2074.78,-156.39 2064.82,-152.77 2064.74,-159.76"/>
</g>
<!-- Node35 -->
<g id="node17" class="node">
<title>Node35</title>
<g id="a_node17"><a xlink:href="d__meter2_8h.html" target="_top" xlink:title=" ">
<polygon fill="#fff0f0" stroke="red" points="1227.5,-96 1093.5,-96 1093.5,-77 1227.5,-77 1227.5,-96"/>
<text text-anchor="middle" x="1160.5" y="-84" font-family="Helvetica,sans-Serif" font-size="10.00">include/d/meter/d_meter2.h</text>
</a>
</g>
</g>
<!-- Node5&#45;&gt;Node35 -->
<g id="edge16" class="edge">
<title>Node5&#45;&gt;Node35</title>
<path fill="none" stroke="#63b8ff" d="M2064.99,-157.63C1915.93,-158.09 1544.13,-153.95 1237.5,-107 1221.69,-104.58 1204.4,-100.35 1190.21,-96.44"/>
<polygon fill="#63b8ff" stroke="#63b8ff" points="2064.68,-161.13 2074.67,-157.59 2064.66,-154.13 2064.68,-161.13"/>
</g>
<!-- Node42 -->
<g id="node18" class="node">
<title>Node42</title>
<g id="a_node18"><a xlink:href="d__msg__object_8h.html" target="_top" xlink:title=" ">
<polygon fill="#fff0f0" stroke="red" points="487.5,-101.5 377.5,-101.5 377.5,-71.5 487.5,-71.5 487.5,-101.5"/>
<text text-anchor="start" x="385.5" y="-89.5" font-family="Helvetica,sans-Serif" font-size="10.00">include/d/msg/d_msg</text>
<text text-anchor="middle" x="432.5" y="-78.5" font-family="Helvetica,sans-Serif" font-size="10.00">_object.h</text>
</a>
</g>
</g>
<!-- Node5&#45;&gt;Node42 -->
<g id="edge17" class="edge">
<title>Node5&#45;&gt;Node42</title>
<path fill="none" stroke="#63b8ff" d="M2064.96,-157.31C1798.24,-158.2 805.92,-157.94 496.5,-107 489.16,-105.79 481.5,-103.97 474.12,-101.92"/>
<polygon fill="#63b8ff" stroke="#63b8ff" points="2064.87,-160.81 2074.86,-157.28 2064.85,-153.81 2064.87,-160.81"/>
</g>
<!-- Node47 -->
<g id="node19" class="node">
<title>Node47</title>
<g id="a_node19"><a xlink:href="d__demo_8cpp.html" target="_top" xlink:title=" ">
<polygon fill="white" stroke="#666666" points="438.5,-24.5 344.5,-24.5 344.5,-5.5 438.5,-5.5 438.5,-24.5"/>
<text text-anchor="middle" x="391.5" y="-12.5" font-family="Helvetica,sans-Serif" font-size="10.00">src/d/d_demo.cpp</text>
</a>
</g>
</g>
<!-- Node5&#45;&gt;Node47 -->
<g id="edge45" class="edge">
<title>Node5&#45;&gt;Node47</title>
<path fill="none" stroke="#63b8ff" d="M2065.09,-156.37C1747.59,-153.21 398.62,-137.99 368.5,-107 346.24,-84.1 371.55,-42.92 384.63,-24.88"/>
<polygon fill="#63b8ff" stroke="#63b8ff" points="2064.83,-159.87 2074.87,-156.47 2064.9,-152.87 2064.83,-159.87"/>
</g>
<!-- Node56 -->
<g id="node20" class="node">
<title>Node56</title>
<g id="a_node20"><a xlink:href="d__s__logo_8h.html" target="_top" xlink:title=" ">
<polygon fill="#fff0f0" stroke="red" points="1359,-96 1246,-96 1246,-77 1359,-77 1359,-96"/>
<text text-anchor="middle" x="1302.5" y="-84" font-family="Helvetica,sans-Serif" font-size="10.00">include/d/s/d_s_logo.h</text>
</a>
</g>
</g>
<!-- Node5&#45;&gt;Node56 -->
<g id="edge20" class="edge">
<title>Node5&#45;&gt;Node56</title>
<path fill="none" stroke="#63b8ff" d="M2065.22,-157.57C1932.09,-157.64 1623.11,-152.37 1368.5,-107 1354.86,-104.57 1340.02,-100.34 1327.88,-96.44"/>
<polygon fill="#63b8ff" stroke="#63b8ff" points="2064.9,-161.07 2074.9,-157.56 2064.89,-154.07 2064.9,-161.07"/>
</g>
<!-- Node58 -->
<g id="node21" class="node">
<title>Node58</title>
<g id="a_node21"><a xlink:href="d__s__play_8h.html" target="_top" xlink:title=" ">
<polygon fill="#fff0f0" stroke="red" points="1490,-96 1377,-96 1377,-77 1490,-77 1490,-96"/>
<text text-anchor="middle" x="1433.5" y="-84" font-family="Helvetica,sans-Serif" font-size="10.00">include/d/s/d_s_play.h</text>
</a>
</g>
</g>
<!-- Node5&#45;&gt;Node58 -->
<g id="edge21" class="edge">
<title>Node5&#45;&gt;Node58</title>
<path fill="none" stroke="#63b8ff" d="M2064.56,-156.27C1948.54,-153.99 1703.01,-144.69 1499.5,-107 1485.99,-104.5 1471.3,-100.31 1459.21,-96.45"/>
<polygon fill="#63b8ff" stroke="#63b8ff" points="2064.47,-159.77 2074.53,-156.45 2064.6,-152.77 2064.47,-159.77"/>
</g>
<!-- Node62 -->
<g id="node22" class="node">
<title>Node62</title>
<g id="a_node22"><a xlink:href="d__msg__scrn__base_8h.html" target="_top" xlink:title=" ">
<polygon fill="#fff0f0" stroke="red" points="1607,-101.5 1508,-101.5 1508,-71.5 1607,-71.5 1607,-101.5"/>
<text text-anchor="start" x="1516" y="-89.5" font-family="Helvetica,sans-Serif" font-size="10.00">include/msg/scrn/d</text>
<text text-anchor="middle" x="1557.5" y="-78.5" font-family="Helvetica,sans-Serif" font-size="10.00">_msg_scrn_base.h</text>
</a>
</g>
</g>
<!-- Node5&#45;&gt;Node62 -->
<g id="edge22" class="edge">
<title>Node5&#45;&gt;Node62</title>
<path fill="none" stroke="#63b8ff" d="M2064.7,-155.25C1965.8,-151.59 1775.02,-140.46 1616.5,-107 1610.17,-105.66 1603.56,-103.88 1597.16,-101.94"/>
<polygon fill="#63b8ff" stroke="#63b8ff" points="2064.38,-158.74 2074.5,-155.59 2064.63,-151.74 2064.38,-158.74"/>
</g>
<!-- Node66 -->
<g id="node23" class="node">
<title>Node66</title>
<g id="a_node23"><a xlink:href="d__a__b__zant_8h.html" target="_top" xlink:title=" ">
<polygon fill="white" stroke="#666666" points="1746,-101.5 1625,-101.5 1625,-71.5 1746,-71.5 1746,-101.5"/>
<text text-anchor="start" x="1633" y="-89.5" font-family="Helvetica,sans-Serif" font-size="10.00">include/rel/d/a/b/d</text>
<text text-anchor="middle" x="1685.5" y="-78.5" font-family="Helvetica,sans-Serif" font-size="10.00">_a_b_zant/d_a_b_zant.h</text>
</a>
</g>
</g>
<!-- Node5&#45;&gt;Node66 -->
<g id="edge23" class="edge">
<title>Node5&#45;&gt;Node66</title>
<path fill="none" stroke="#63b8ff" d="M2065.09,-151C1989.59,-143.52 1862.89,-128.99 1755.5,-107 1748.46,-105.56 1741.08,-103.79 1733.86,-101.92"/>
<polygon fill="#63b8ff" stroke="#63b8ff" points="2064.5,-154.46 2074.8,-151.95 2065.18,-147.49 2064.5,-154.46"/>
</g>
<!-- Node67 -->
<g id="node24" class="node">
<title>Node67</title>
<g id="a_node24"><a xlink:href="d__a__skip__2D_8h.html" target="_top" xlink:title=" ">
<polygon fill="white" stroke="#666666" points="1888.5,-101.5 1764.5,-101.5 1764.5,-71.5 1888.5,-71.5 1888.5,-101.5"/>
<text text-anchor="start" x="1772.5" y="-89.5" font-family="Helvetica,sans-Serif" font-size="10.00">include/rel/d/a/d_a</text>
<text text-anchor="middle" x="1826.5" y="-78.5" font-family="Helvetica,sans-Serif" font-size="10.00">_skip_2D/d_a_skip_2D.h</text>
</a>
</g>
</g>
<!-- Node5&#45;&gt;Node67 -->
<g id="edge24" class="edge">
<title>Node5&#45;&gt;Node67</title>
<path fill="none" stroke="#63b8ff" d="M2065.33,-143.21C2019.52,-133.51 1957.18,-119.98 1902.5,-107 1895.74,-105.4 1888.66,-103.66 1881.65,-101.9"/>
<polygon fill="#63b8ff" stroke="#63b8ff" points="2064.32,-146.58 2074.83,-145.22 2065.77,-139.73 2064.32,-146.58"/>
</g>
<!-- Node68 -->
<g id="node25" class="node">
<title>Node68</title>
<g id="a_node25"><a xlink:href="d__a__spinner_8h.html" target="_top" xlink:title=" ">
<polygon fill="white" stroke="#666666" points="2060.5,-101.5 1944.5,-101.5 1944.5,-71.5 2060.5,-71.5 2060.5,-101.5"/>
<text text-anchor="start" x="1952.5" y="-89.5" font-family="Helvetica,sans-Serif" font-size="10.00">include/rel/d/a/d_a</text>
<text text-anchor="middle" x="2002.5" y="-78.5" font-family="Helvetica,sans-Serif" font-size="10.00">_spinner/d_a_spinner.h</text>
</a>
</g>
</g>
<!-- Node5&#45;&gt;Node68 -->
<g id="edge25" class="edge">
<title>Node5&#45;&gt;Node68</title>
<path fill="none" stroke="#63b8ff" d="M2094.65,-137.15C2073.77,-125.9 2048.13,-112.08 2029.19,-101.88"/>
<polygon fill="#63b8ff" stroke="#63b8ff" points="2092.97,-140.22 2103.44,-141.88 2096.3,-134.06 2092.97,-140.22"/>
</g>
<!-- Node69 -->
<g id="node26" class="node">
<title>Node69</title>
<g id="a_node26"><a xlink:href="d__a__player_8cpp.html" target="_top" xlink:title=" ">
<polygon fill="white" stroke="#666666" points="2421.5,-24.5 2307.5,-24.5 2307.5,-5.5 2421.5,-5.5 2421.5,-24.5"/>
<text text-anchor="middle" x="2364.5" y="-12.5" font-family="Helvetica,sans-Serif" font-size="10.00">src/d/a/d_a_player.cpp</text>
</a>
</g>
</g>
<!-- Node5&#45;&gt;Node69 -->
<g id="edge35" class="edge">
<title>Node5&#45;&gt;Node69</title>
<path fill="none" stroke="#63b8ff" d="M2197.67,-156.46C2523.28,-153.62 3940.92,-139.45 3972.5,-107 3985.21,-93.94 3985.18,-79.08 3972.5,-66 3944.95,-37.58 2704.67,-20.28 2421.6,-16.7"/>
<polygon fill="#63b8ff" stroke="#63b8ff" points="2198.04,-152.95 2188.07,-156.54 2198.1,-159.95 2198.04,-152.95"/>
</g>
<!-- Node70 -->
<g id="node27" class="node">
<title>Node70</title>
<g id="a_node27"><a xlink:href="d__a__obj__yobikusa_8h.html" target="_top" xlink:title=" ">
<polygon fill="white" stroke="#666666" points="2184,-107 2079,-107 2079,-66 2184,-66 2184,-107"/>
<text text-anchor="start" x="2087" y="-95" font-family="Helvetica,sans-Serif" font-size="10.00">include/rel/d/a/obj</text>
<text text-anchor="start" x="2087" y="-84" font-family="Helvetica,sans-Serif" font-size="10.00">/d_a_obj_yobikusa/d</text>
<text text-anchor="middle" x="2131.5" y="-73" font-family="Helvetica,sans-Serif" font-size="10.00">_a_obj_yobikusa.h</text>
</a>
</g>
</g>
<!-- Node5&#45;&gt;Node70 -->
<g id="edge28" class="edge">
<title>Node5&#45;&gt;Node70</title>
<path fill="none" stroke="#63b8ff" d="M2131.5,-131.36C2131.5,-123.45 2131.5,-114.87 2131.5,-107.42"/>
<polygon fill="#63b8ff" stroke="#63b8ff" points="2128,-131.09 2131.5,-141.09 2135,-131.09 2128,-131.09"/>
</g>
<!-- Node71 -->
<g id="node28" class="node">
<title>Node71</title>
<g id="a_node28"><a xlink:href="d__a__tag__telop_8h.html" target="_top" xlink:title=" ">
<polygon fill="white" stroke="#666666" points="2320.5,-107 2202.5,-107 2202.5,-66 2320.5,-66 2320.5,-107"/>
<text text-anchor="start" x="2210.5" y="-95" font-family="Helvetica,sans-Serif" font-size="10.00">include/rel/d/a/tag</text>
<text text-anchor="start" x="2210.5" y="-84" font-family="Helvetica,sans-Serif" font-size="10.00">/d_a_tag_telop/d_a_tag</text>
<text text-anchor="middle" x="2261.5" y="-73" font-family="Helvetica,sans-Serif" font-size="10.00">_telop.h</text>
</a>
</g>
</g>
<!-- Node5&#45;&gt;Node71 -->
<g id="edge29" class="edge">
<title>Node5&#45;&gt;Node71</title>
<path fill="none" stroke="#63b8ff" d="M2168.3,-137.33C2185.8,-127.97 2206.69,-116.8 2224.25,-107.42"/>
<polygon fill="#63b8ff" stroke="#63b8ff" points="2166.94,-134.08 2159.77,-141.89 2170.24,-140.26 2166.94,-134.08"/>
</g>
<!-- Node72 -->
<g id="node29" class="node">
<title>Node72</title>
<g id="a_node29"><a xlink:href="c__dylink_8cpp.html" target="_top" xlink:title=" ">
<polygon fill="white" stroke="#666666" points="2434,-96 2339,-96 2339,-77 2434,-77 2434,-96"/>
<text text-anchor="middle" x="2386.5" y="-84" font-family="Helvetica,sans-Serif" font-size="10.00">src/c/c_dylink.cpp</text>
</a>
</g>
</g>
<!-- Node5&#45;&gt;Node72 -->
<g id="edge30" class="edge">
<title>Node5&#45;&gt;Node72</title>
<path fill="none" stroke="#63b8ff" d="M2197.98,-141.66C2236.59,-132.39 2286.04,-119.9 2329.5,-107 2340.13,-103.85 2351.73,-99.96 2361.67,-96.49"/>
<polygon fill="#63b8ff" stroke="#63b8ff" points="2197.27,-138.23 2188.35,-143.95 2198.89,-145.04 2197.27,-138.23"/>
</g>
<!-- Node73 -->
<g id="node30" class="node">
<title>Node73</title>
<g id="a_node30"><a xlink:href="d__a__itembase_8cpp.html" target="_top" xlink:title=" ">
<polygon fill="white" stroke="#666666" points="2580.5,-96 2452.5,-96 2452.5,-77 2580.5,-77 2580.5,-96"/>
<text text-anchor="middle" x="2516.5" y="-84" font-family="Helvetica,sans-Serif" font-size="10.00">src/d/a/d_a_itembase.cpp</text>
</a>
</g>
</g>
<!-- Node5&#45;&gt;Node73 -->
<g id="edge32" class="edge">
<title>Node5&#45;&gt;Node73</title>
<path fill="none" stroke="#63b8ff" d="M2197.8,-148.38C2261.21,-139.66 2359.35,-124.93 2443.5,-107 2457.48,-104.02 2472.79,-100.04 2485.77,-96.46"/>
<polygon fill="#63b8ff" stroke="#63b8ff" points="2197.7,-144.86 2188.27,-149.68 2198.65,-151.79 2197.7,-144.86"/>
</g>
<!-- Node74 -->
<g id="node31" class="node">
<title>Node74</title>
<g id="a_node31"><a xlink:href="d__a__obj_8cpp.html" target="_top" xlink:title=" ">
<polygon fill="white" stroke="#666666" points="2700,-96 2599,-96 2599,-77 2700,-77 2700,-96"/>
<text text-anchor="middle" x="2649.5" y="-84" font-family="Helvetica,sans-Serif" font-size="10.00">src/d/a/d_a_obj.cpp</text>
</a>
</g>
</g>
<!-- Node5&#45;&gt;Node74 -->
<g id="edge33" class="edge">
<title>Node5&#45;&gt;Node74</title>
<path fill="none" stroke="#63b8ff" d="M2198.08,-154.02C2287.83,-149.04 2452.21,-136.48 2589.5,-107 2601.71,-104.38 2614.94,-100.23 2625.87,-96.42"/>
<polygon fill="#63b8ff" stroke="#63b8ff" points="2198.03,-150.52 2188.23,-154.55 2198.4,-157.51 2198.03,-150.52"/>
</g>
<!-- Node5&#45;&gt;Node75 -->
<g id="edge36" class="edge">
<title>Node5&#45;&gt;Node75</title>
<path fill="none" stroke="#63b8ff" d="M2198.32,-156.43C2530.36,-153.43 3994.77,-138.52 4195.5,-107 4209.43,-104.81 4224.54,-100.5 4236.78,-96.48"/>
<polygon fill="#63b8ff" stroke="#63b8ff" points="2198.47,-152.92 2188.51,-156.51 2198.54,-159.92 2198.47,-152.92"/>
</g>
<!-- Node76 -->
<g id="node33" class="node">
<title>Node76</title>
<g id="a_node33"><a xlink:href="d__bg__s__movebg__actor_8cpp.html" target="_top" xlink:title=" ">
<polygon fill="white" stroke="#666666" points="321.5,-101.5 195.5,-101.5 195.5,-71.5 321.5,-71.5 321.5,-101.5"/>
<text text-anchor="start" x="203.5" y="-89.5" font-family="Helvetica,sans-Serif" font-size="10.00">src/d/bg/d_bg_s_movebg</text>
<text text-anchor="middle" x="258.5" y="-78.5" font-family="Helvetica,sans-Serif" font-size="10.00">_actor.cpp</text>
</a>
</g>
</g>
<!-- Node5&#45;&gt;Node76 -->
<g id="edge37" class="edge">
<title>Node5&#45;&gt;Node76</title>
<path fill="none" stroke="#63b8ff" d="M2065.1,-157.11C1782.57,-157.26 679.28,-154.72 335.5,-107 326.76,-105.79 317.57,-103.96 308.72,-101.91"/>
<polygon fill="#63b8ff" stroke="#63b8ff" points="2064.86,-160.61 2074.85,-157.1 2064.85,-153.61 2064.86,-160.61"/>
</g>
<!-- Node5&#45;&gt;Node77 -->
<g id="edge38" class="edge">
<title>Node5&#45;&gt;Node77</title>
<path fill="none" stroke="#63b8ff" d="M2064.6,-156.76C1767.09,-155.48 562.2,-147.82 186.5,-107 165.55,-104.72 142.45,-100.4 123.64,-96.41"/>
<polygon fill="#63b8ff" stroke="#63b8ff" points="2064.51,-160.26 2074.52,-156.8 2064.54,-153.26 2064.51,-160.26"/>
</g>
<!-- Node78 -->
<g id="node35" class="node">
<title>Node78</title>
<g id="a_node35"><a xlink:href="d__cc__s_8cpp.html" target="_top" xlink:title=" ">
<polygon fill="white" stroke="#666666" points="2822.5,-96 2718.5,-96 2718.5,-77 2822.5,-77 2822.5,-96"/>
<text text-anchor="middle" x="2770.5" y="-84" font-family="Helvetica,sans-Serif" font-size="10.00">src/d/cc/d_cc_s.cpp</text>
</a>
</g>
</g>
<!-- Node5&#45;&gt;Node78 -->
<g id="edge39" class="edge">
<title>Node5&#45;&gt;Node78</title>
<path fill="none" stroke="#63b8ff" d="M2198.04,-156.05C2306.29,-153.43 2526.79,-143.63 2709.5,-107 2722.04,-104.49 2735.62,-100.3 2746.78,-96.44"/>
<polygon fill="#63b8ff" stroke="#63b8ff" points="2198.1,-152.55 2188.18,-156.27 2198.25,-159.54 2198.1,-152.55"/>
</g>
<!-- Node79 -->
<g id="node36" class="node">
<title>Node79</title>
<g id="a_node36"><a xlink:href="d__com__static_8cpp.html" target="_top" xlink:title=" ">
<polygon fill="white" stroke="#666666" points="2980.5,-96 2840.5,-96 2840.5,-77 2980.5,-77 2980.5,-96"/>
<text text-anchor="middle" x="2910.5" y="-84" font-family="Helvetica,sans-Serif" font-size="10.00">src/d/com/d_com_static.cpp</text>
</a>
</g>
</g>
<!-- Node5&#45;&gt;Node79 -->
<g id="edge41" class="edge">
<title>Node5&#45;&gt;Node79</title>
<path fill="none" stroke="#63b8ff" d="M2198.01,-156.02C2322.9,-153.35 2600.72,-143.45 2831.5,-107 2847.55,-104.47 2865.12,-100.27 2879.61,-96.42"/>
<polygon fill="#63b8ff" stroke="#63b8ff" points="2198.21,-152.52 2188.28,-156.22 2198.35,-159.51 2198.21,-152.52"/>
</g>
<!-- Node80 -->
<g id="node37" class="node">
<title>Node80</title>
<g id="a_node37"><a xlink:href="d__attention_8cpp.html" target="_top" xlink:title=" ">
<polygon fill="white" stroke="#666666" points="3106,-96 2999,-96 2999,-77 3106,-77 3106,-96"/>
<text text-anchor="middle" x="3052.5" y="-84" font-family="Helvetica,sans-Serif" font-size="10.00">src/d/d_attention.cpp</text>
</a>
</g>
</g>
<!-- Node5&#45;&gt;Node80 -->
<g id="edge42" class="edge">
<title>Node5&#45;&gt;Node80</title>
<path fill="none" stroke="#63b8ff" d="M2198.05,-155.2C2372.11,-150.17 2837.83,-134.47 2989.5,-107 3002.57,-104.63 3016.73,-100.41 3028.31,-96.49"/>
<polygon fill="#63b8ff" stroke="#63b8ff" points="2198.18,-151.7 2188.28,-155.48 2198.38,-158.69 2198.18,-151.7"/>
</g>
<!-- Node81 -->
<g id="node38" class="node">
<title>Node81</title>
<g id="a_node38"><a xlink:href="d__cam__param_8cpp.html" target="_top" xlink:title=" ">
<polygon fill="white" stroke="#666666" points="3245,-96 3124,-96 3124,-77 3245,-77 3245,-96"/>
<text text-anchor="middle" x="3184.5" y="-84" font-family="Helvetica,sans-Serif" font-size="10.00">src/d/d_cam_param.cpp</text>
</a>
</g>
</g>
<!-- Node5&#45;&gt;Node81 -->
<g id="edge43" class="edge">
<title>Node5&#45;&gt;Node81</title>
<path fill="none" stroke="#63b8ff" d="M2198,-155.57C2389.23,-151.14 2938.21,-136.18 3115.5,-107 3129.87,-104.64 3145.52,-100.36 3158.27,-96.41"/>
<polygon fill="#63b8ff" stroke="#63b8ff" points="2198.17,-152.06 2188.25,-155.79 2198.33,-159.06 2198.17,-152.06"/>
</g>
<!-- Node82 -->
<g id="node39" class="node">
<title>Node82</title>
<g id="a_node39"><a xlink:href="d__camera_8cpp.html" target="_top" xlink:title=" ">
<polygon fill="white" stroke="#666666" points="3365.5,-96 3263.5,-96 3263.5,-77 3365.5,-77 3365.5,-96"/>
<text text-anchor="middle" x="3314.5" y="-84" font-family="Helvetica,sans-Serif" font-size="10.00">src/d/d_camera.cpp</text>
</a>
</g>
</g>
<!-- Node5&#45;&gt;Node82 -->
<g id="edge44" class="edge">
<title>Node5&#45;&gt;Node82</title>
<path fill="none" stroke="#63b8ff" d="M2198.31,-156.38C2407.79,-154.08 3049.9,-144.1 3254.5,-107 3267.11,-104.71 3280.73,-100.44 3291.79,-96.48"/>
<polygon fill="#63b8ff" stroke="#63b8ff" points="2198.38,-152.88 2188.42,-156.49 2198.45,-159.88 2198.38,-152.88"/>
</g>
<!-- Node83 -->
<g id="node40" class="node">
<title>Node83</title>
<g id="a_node40"><a xlink:href="d__eye__hl_8cpp.html" target="_top" xlink:title=" ">
<polygon fill="white" stroke="#666666" points="3481.5,-96 3383.5,-96 3383.5,-77 3481.5,-77 3481.5,-96"/>
<text text-anchor="middle" x="3432.5" y="-84" font-family="Helvetica,sans-Serif" font-size="10.00">src/d/d_eye_hl.cpp</text>
</a>
</g>
</g>
<!-- Node5&#45;&gt;Node83 -->
<g id="edge46" class="edge">
<title>Node5&#45;&gt;Node83</title>
<path fill="none" stroke="#63b8ff" d="M2198.18,-156.81C2422.08,-155.77 3145.77,-149.16 3374.5,-107 3386.83,-104.73 3400.11,-100.41 3410.86,-96.41"/>
<polygon fill="#63b8ff" stroke="#63b8ff" points="2198.45,-153.31 2188.47,-156.85 2198.48,-160.31 2198.45,-153.31"/>
</g>
<!-- Node84 -->
<g id="node41" class="node">
<title>Node84</title>
<g id="a_node41"><a xlink:href="d__kyeff_8cpp.html" target="_top" xlink:title=" ">
<polygon fill="white" stroke="#666666" points="3589.5,-96 3499.5,-96 3499.5,-77 3589.5,-77 3589.5,-96"/>
<text text-anchor="middle" x="3544.5" y="-84" font-family="Helvetica,sans-Serif" font-size="10.00">src/d/d_kyeff.cpp</text>
</a>
</g>
</g>
<!-- Node5&#45;&gt;Node84 -->
<g id="edge47" class="edge">
<title>Node5&#45;&gt;Node84</title>
<path fill="none" stroke="#63b8ff" d="M2197.96,-157.27C2435.07,-157.8 3238.66,-155.87 3490.5,-107 3502.05,-104.76 3514.42,-100.44 3524.41,-96.44"/>
<polygon fill="#63b8ff" stroke="#63b8ff" points="2198.3,-153.77 2188.29,-157.24 2198.28,-160.77 2198.3,-153.77"/>
</g>
<!-- Node85 -->
<g id="node42" class="node">
<title>Node85</title>
<g id="a_node42"><a xlink:href="d__path_8cpp.html" target="_top" xlink:title=" ">
<polygon fill="white" stroke="#666666" points="3697,-96 3608,-96 3608,-77 3697,-77 3697,-96"/>
<text text-anchor="middle" x="3652.5" y="-84" font-family="Helvetica,sans-Serif" font-size="10.00">src/d/d_path.cpp</text>
</a>
</g>
</g>
<!-- Node5&#45;&gt;Node85 -->
<g id="edge48" class="edge">
<title>Node5&#45;&gt;Node85</title>
<path fill="none" stroke="#63b8ff" d="M2198.16,-157.48C2447.49,-158.85 3324.77,-159.73 3598.5,-107 3610.05,-104.78 3622.42,-100.46 3632.41,-96.45"/>
<polygon fill="#63b8ff" stroke="#63b8ff" points="2198.3,-153.98 2188.28,-157.42 2198.26,-160.98 2198.3,-153.98"/>
</g>
<!-- Node18&#45;&gt;Node15 -->
<g id="edge8" class="edge">
<title>Node18&#45;&gt;Node15</title>
<path fill="none" stroke="#63b8ff" d="M4020.43,-74.08C4005.23,-70.86 3988.23,-67.76 3972.5,-66 3942.13,-62.6 1966.13,-24.01 1609.38,-17.07"/>
<polygon fill="#63b8ff" stroke="#63b8ff" points="4019.66,-77.49 4030.18,-76.21 4021.16,-70.65 4019.66,-77.49"/>
</g>
<!-- Node18&#45;&gt;Node19 -->
<g id="edge9" class="edge">
<title>Node18&#45;&gt;Node19</title>
<path fill="none" stroke="#63b8ff" d="M4064.37,-65.71C4062.24,-52.29 4059.54,-35.2 4057.92,-24.95"/>
<polygon fill="#63b8ff" stroke="#63b8ff" points="4060.85,-65.87 4065.87,-75.2 4067.76,-64.78 4060.85,-65.87"/>
</g>
<!-- Node18&#45;&gt;Node20 -->
<g id="edge10" class="edge">
<title>Node18&#45;&gt;Node20</title>
<path fill="none" stroke="#63b8ff" d="M4093.39,-70.99C4114.6,-59.1 4144.48,-42.35 4165.68,-30.47"/>
<polygon fill="#63b8ff" stroke="#63b8ff" points="4091.79,-67.87 4084.78,-75.82 4095.21,-73.98 4091.79,-67.87"/>
</g>
<!-- Node42&#45;&gt;Node15 -->
<g id="edge18" class="edge">
<title>Node42&#45;&gt;Node15</title>
<path fill="none" stroke="#63b8ff" d="M485.51,-68.25C489.21,-67.39 492.89,-66.62 496.5,-66 692.3,-32.09 1311.57,-19.8 1499.74,-16.79"/>
<polygon fill="#63b8ff" stroke="#63b8ff" points="484.76,-64.83 475.95,-70.71 486.51,-71.61 484.76,-64.83"/>
</g>
<!-- Node42&#45;&gt;Node47 -->
<g id="edge19" class="edge">
<title>Node42&#45;&gt;Node47</title>
<path fill="none" stroke="#63b8ff" d="M418.33,-61.49C410.81,-48.74 402.03,-33.86 396.62,-24.68"/>
<polygon fill="#63b8ff" stroke="#63b8ff" points="415.14,-62.96 423.24,-69.8 421.17,-59.4 415.14,-62.96"/>
</g>
<!-- Node68&#45;&gt;Node15 -->
<g id="edge26" class="edge">
<title>Node68&#45;&gt;Node15</title>
<path fill="none" stroke="#63b8ff" d="M1941.36,-68.35C1937.69,-67.51 1934.05,-66.71 1930.5,-66 1817.36,-43.26 1682.91,-28.22 1609.36,-21"/>
<polygon fill="#63b8ff" stroke="#63b8ff" points="1940.33,-71.7 1950.88,-70.65 1941.98,-64.9 1940.33,-71.7"/>
</g>
<!-- Node68&#45;&gt;Node69 -->
<g id="edge27" class="edge">
<title>Node68&#45;&gt;Node69</title>
<path fill="none" stroke="#63b8ff" d="M2061.08,-68.26C2064.26,-67.46 2067.41,-66.7 2070.5,-66 2152.03,-47.44 2247.7,-32.4 2307.22,-23.82"/>
<polygon fill="#63b8ff" stroke="#63b8ff" points="2060.51,-64.79 2051.72,-70.7 2062.28,-71.56 2060.51,-64.79"/>
</g>
<!-- Node110&#45;&gt;Node15 -->
<g id="edge52" class="edge">
<title>Node110&#45;&gt;Node15</title>
<path fill="none" stroke="#63b8ff" d="M32,-133.47C18.34,-113.12 4.91,-84.17 22.5,-66 48.71,-38.92 1229.11,-20.6 1499.65,-16.75"/>
<polygon fill="#63b8ff" stroke="#63b8ff" points="29.05,-135.36 37.71,-141.46 34.74,-131.29 29.05,-135.36"/>
</g>
<!-- Node110&#45;&gt;Node77 -->
<g id="edge53" class="edge">
<title>Node110&#45;&gt;Node77</title>
<path fill="none" stroke="#63b8ff" d="M62.78,-132.61C69.16,-119.94 76.55,-105.27 81.13,-96.18"/>
<polygon fill="#63b8ff" stroke="#63b8ff" points="59.8,-130.74 58.43,-141.25 66.06,-133.89 59.8,-130.74"/>
</g>
<!-- Node112&#45;&gt;Node76 -->
<g id="edge57" class="edge">
<title>Node112&#45;&gt;Node76</title>
<path fill="none" stroke="#63b8ff" d="M258.5,-131.26C258.5,-121.33 258.5,-110.36 258.5,-101.88"/>
<polygon fill="#63b8ff" stroke="#63b8ff" points="255,-131.09 258.5,-141.09 262,-131.09 255,-131.09"/>
</g>
<!-- Node114 -->
<g id="node47" class="node">
<title>Node114</title>
<g id="a_node47"><a xlink:href="d__bg__w__sv_8cpp.html" target="_top" xlink:title=" ">
<polygon fill="white" stroke="#666666" points="410.5,-228 288.5,-228 288.5,-209 410.5,-209 410.5,-228"/>
<text text-anchor="middle" x="349.5" y="-216" font-family="Helvetica,sans-Serif" font-size="10.00">src/d/bg/d_bg_w_sv.cpp</text>
</a>
</g>
</g>
<!-- Node113&#45;&gt;Node114 -->
<g id="edge59" class="edge">
<title>Node113&#45;&gt;Node114</title>
<path fill="none" stroke="#63b8ff" d="M350.74,-252.35C350.43,-244.1 350.08,-234.97 349.84,-228.44"/>
<polygon fill="#63b8ff" stroke="#63b8ff" points="347.24,-252.37 351.11,-262.24 354.23,-252.11 347.24,-252.37"/>
</g>
<!-- Node116 -->
<g id="node49" class="node">
<title>Node116</title>
<g id="a_node49"><a xlink:href="d__bg__w__kcol_8cpp.html" target="_top" xlink:title=" ">
<polygon fill="white" stroke="#666666" points="736.5,-283 606.5,-283 606.5,-264 736.5,-264 736.5,-283"/>
<text text-anchor="middle" x="671.5" y="-271" font-family="Helvetica,sans-Serif" font-size="10.00">src/d/bg/d_bg_w_kcol.cpp</text>
</a>
</g>
</g>
<!-- Node115&#45;&gt;Node116 -->
<g id="edge62" class="edge">
<title>Node115&#45;&gt;Node116</title>
<path fill="none" stroke="#63b8ff" d="M607.92,-312.84C624.59,-302.79 643.91,-291.14 656.83,-283.35"/>
<polygon fill="#63b8ff" stroke="#63b8ff" points="606.53,-309.6 599.77,-317.76 610.14,-315.59 606.53,-309.6"/>
</g>
</g>
</svg>
        <g id="navigator" transform="translate(0 0)" fill="#404254">
                <rect fill="#f2f5e9" fill-opacity="0.5" stroke="#606060" stroke-width=".5" x="0" y="0" width="60" height="60"/>
                <use id="zoomplus" xlink:href="#zoomPlus" x="17" y="9" onmousedown="handleZoom(evt,'in')"/>
                <use id="zoomminus" xlink:href="#zoomMin" x="42" y="9" onmousedown="handleZoom(evt,'out')"/>
                <use id="reset" xlink:href="#resetDef" x="30" y="36" onmousedown="handleReset()"/>
                <g id="arrowUp" xlink:href="#dirArrow" transform="translate(30 24)" onmousedown="handlePan(0,-1)">
                  <use xlink:href="#rim" fill="#404040">
                        <set attributeName="fill" to="#808080" begin="arrowUp.mouseover" end="arrowUp.mouseout"/>
                  </use>
                  <path fill="none" stroke="white" stroke-width="1.5" d="M0,-3.0v7 M-2.5,-0.5L0,-3.0L2.5,-0.5"/>
                </g>
                <g id="arrowRight" xlink:href="#dirArrow" transform="rotate(90) translate(36 -43)" onmousedown="handlePan(1,0)">
                  <use xlink:href="#rim" fill="#404040">
                        <set attributeName="fill" to="#808080" begin="arrowRight.mouseover" end="arrowRight.mouseout"/>
                  </use>
                  <path fill="none" stroke="white" stroke-width="1.5" d="M0,-3.0v7 M-2.5,-0.5L0,-3.0L2.5,-0.5"/>
                </g>
                <g id="arrowDown" xlink:href="#dirArrow" transform="rotate(180) translate(-30 -48)" onmousedown="handlePan(0,1)">
                  <use xlink:href="#rim" fill="#404040">
                        <set attributeName="fill" to="#808080" begin="arrowDown.mouseover" end="arrowDown.mouseout"/>
                  </use>
                  <path fill="none" stroke="white" stroke-width="1.5" d="M0,-3.0v7 M-2.5,-0.5L0,-3.0L2.5,-0.5"/>
                </g>
                <g id="arrowLeft" xlink:href="#dirArrow" transform="rotate(270) translate(-36 17)" onmousedown="handlePan(-1,0)">
                  <use xlink:href="#rim" fill="#404040">
                        <set attributeName="fill" to="#808080" begin="arrowLeft.mouseover" end="arrowLeft.mouseout"/>
                  </use>
                  <path fill="none" stroke="white" stroke-width="1.5" d="M0,-3.0v7 M-2.5,-0.5L0,-3.0L2.5,-0.5"/>
                </g>
        </g>
        <svg viewBox="0 0 15 15" width="100%" height="30px" preserveAspectRatio="xMaxYMin meet">
         <g id="arrow_out" transform="scale(0.3 0.3)">
          <a xlink:href="d__bg__w__base_8h__dep__incl_org.svg" target="_base">
           <rect id="button" ry="5" rx="5" y="6" x="6" height="38" width="38"
                fill="#f2f5e9" fill-opacity="0.5" stroke="#606060" stroke-width="1.0"/>
           <path id="arrow"
             d="M 11.500037,31.436501 C 11.940474,20.09759 22.043105,11.32322 32.158766,21.979434 L 37.068811,17.246167 C 37.068811,17.246167 37.088388,32 37.088388,32 L 22.160133,31.978069 C 22.160133,31.978069 26.997745,27.140456 26.997745,27.140456 C 18.528582,18.264221 13.291696,25.230495 11.500037,31.436501 z"
             style="fill:#404040;"/>
          </a>
         </g>
        </svg>
</svg>
