<?xml version="1.0" encoding="UTF-8" standalone="no"?>
<!DOCTYPE svg PUBLIC "-//W3C//DTD SVG 1.1//EN"
 "http://www.w3.org/Graphics/SVG/1.1/DTD/svg11.dtd">
<!-- Generated by graphviz version 7.0.4 (20221203.1631)
 -->
<!-- Title: include/d/cc/d_cc_mass_s.h Pages: 1 -->
<svg width="5012pt" height="302pt"
 viewBox="0.00 0.00 5012.35 302.00" xmlns="http://www.w3.org/2000/svg" xmlns:xlink="http://www.w3.org/1999/xlink">
<g id="graph0" class="graph" transform="scale(1 1) rotate(0) translate(4 298)">
<title>include/d/cc/d_cc_mass_s.h</title>
<!-- Node1 -->
<g id="node1" class="node">
<title>Node1</title>
<g id="a_node1"><a xlink:title=" ">
<polygon fill="#999999" stroke="#666666" points="2597.35,-294 2457.35,-294 2457.35,-275 2597.35,-275 2597.35,-294"/>
<text text-anchor="middle" x="2527.35" y="-282" font-family="Helvetica,sans-Serif" font-size="10.00">include/d/cc/d_cc_mass_s.h</text>
</a>
</g>
</g>
<!-- Node2 -->
<g id="node2" class="node">
<title>Node2</title>
<g id="a_node2"><a xlink:href="d__a__alink_8h.html" target="_top" xlink:title=" ">
<polygon fill="white" stroke="#666666" points="2453.35,-233.5 2337.35,-233.5 2337.35,-214.5 2453.35,-214.5 2453.35,-233.5"/>
<text text-anchor="middle" x="2395.35" y="-221.5" font-family="Helvetica,sans-Serif" font-size="10.00">include/d/a/d_a_alink.h</text>
</a>
</g>
</g>
<!-- Node1&#45;&gt;Node2 -->
<g id="edge1" class="edge">
<title>Node1&#45;&gt;Node2</title>
<path fill="none" stroke="#63b8ff" d="M2496.93,-270.02C2471.95,-258.95 2437.28,-243.58 2415.59,-233.97"/>
<polygon fill="#63b8ff" stroke="#63b8ff" points="2495.36,-273.15 2505.92,-274 2498.2,-266.75 2495.36,-273.15"/>
</g>
<!-- Node108 -->
<g id="node49" class="node">
<title>Node108</title>
<g id="a_node49"><a xlink:href="d__cc__s_8h.html" target="_top" xlink:title=" ">
<polygon fill="white" stroke="#666666" points="2582.85,-233.5 2471.85,-233.5 2471.85,-214.5 2582.85,-214.5 2582.85,-233.5"/>
<text text-anchor="middle" x="2527.35" y="-221.5" font-family="Helvetica,sans-Serif" font-size="10.00">include/d/cc/d_cc_s.h</text>
</a>
</g>
</g>
<!-- Node1&#45;&gt;Node108 -->
<g id="edge58" class="edge">
<title>Node1&#45;&gt;Node108</title>
<path fill="none" stroke="#63b8ff" d="M2527.35,-263.66C2527.35,-253.45 2527.35,-241.54 2527.35,-233.67"/>
<polygon fill="#63b8ff" stroke="#63b8ff" points="2523.85,-263.35 2527.35,-273.35 2530.85,-263.35 2523.85,-263.35"/>
</g>
<!-- Node109 -->
<g id="node50" class="node">
<title>Node109</title>
<g id="a_node50"><a xlink:href="d__cc__mass__s_8cpp.html" target="_top" xlink:title=" ">
<polygon fill="white" stroke="#666666" points="2705.85,-239 2600.85,-239 2600.85,-209 2705.85,-209 2705.85,-239"/>
<text text-anchor="start" x="2608.85" y="-227" font-family="Helvetica,sans-Serif" font-size="10.00">src/d/cc/d_cc_mass</text>
<text text-anchor="middle" x="2653.35" y="-216" font-family="Helvetica,sans-Serif" font-size="10.00">_s.cpp</text>
</a>
</g>
</g>
<!-- Node1&#45;&gt;Node109 -->
<g id="edge61" class="edge">
<title>Node1&#45;&gt;Node109</title>
<path fill="none" stroke="#63b8ff" d="M2556.7,-269.87C2576.37,-260.74 2602.23,-248.74 2622.25,-239.44"/>
<polygon fill="#63b8ff" stroke="#63b8ff" points="2555.46,-266.59 2547.86,-273.98 2558.41,-272.94 2555.46,-266.59"/>
</g>
<!-- Node3 -->
<g id="node3" class="node">
<title>Node3</title>
<g id="a_node3"><a xlink:href="d__com__inf__game_8h.html" target="_top" xlink:title=" ">
<polygon fill="#fff0f0" stroke="red" points="2516.35,-173 2406.35,-173 2406.35,-143 2516.35,-143 2516.35,-173"/>
<text text-anchor="start" x="2414.35" y="-161" font-family="Helvetica,sans-Serif" font-size="10.00">include/d/com/d_com</text>
<text text-anchor="middle" x="2461.35" y="-150" font-family="Helvetica,sans-Serif" font-size="10.00">_inf_game.h</text>
</a>
</g>
</g>
<!-- Node2&#45;&gt;Node3 -->
<g id="edge2" class="edge">
<title>Node2&#45;&gt;Node3</title>
<path fill="none" stroke="#63b8ff" d="M2412.62,-206.25C2423.21,-195.99 2436.61,-183 2446.68,-173.23"/>
<polygon fill="#63b8ff" stroke="#63b8ff" points="2410.36,-203.57 2405.62,-213.05 2415.23,-208.6 2410.36,-203.57"/>
</g>
<!-- Node13 -->
<g id="node7" class="node">
<title>Node13</title>
<g id="a_node7"><a xlink:href="d__a__alink_8cpp.html" target="_top" xlink:title=" ">
<polygon fill="white" stroke="#666666" points="999.85,-24.5 890.85,-24.5 890.85,-5.5 999.85,-5.5 999.85,-24.5"/>
<text text-anchor="middle" x="945.35" y="-12.5" font-family="Helvetica,sans-Serif" font-size="10.00">src/d/a/d_a_alink.cpp</text>
</a>
</g>
</g>
<!-- Node2&#45;&gt;Node13 -->
<g id="edge57" class="edge">
<title>Node2&#45;&gt;Node13</title>
<path fill="none" stroke="#63b8ff" d="M2325.68,-222.27C1942.19,-217.92 102.9,-192.63 21.35,-107 8.79,-93.8 8.74,-79.15 21.35,-66 54.45,-31.49 833.93,-36.13 881.35,-30 890.6,-28.8 900.49,-26.94 909.67,-24.95"/>
<polygon fill="#63b8ff" stroke="#63b8ff" points="2325.57,-225.77 2335.61,-222.38 2325.65,-218.77 2325.57,-225.77"/>
</g>
<!-- Node4 -->
<g id="node4" class="node">
<title>Node4</title>
<g id="a_node4"><a xlink:href="d__a__npc_8h.html" target="_top" xlink:title=" ">
<polygon fill="#fff0f0" stroke="red" points="4516.85,-96 4405.85,-96 4405.85,-77 4516.85,-77 4516.85,-96"/>
<text text-anchor="middle" x="4461.35" y="-84" font-family="Helvetica,sans-Serif" font-size="10.00">include/d/a/d_a_npc.h</text>
</a>
</g>
</g>
<!-- Node3&#45;&gt;Node4 -->
<g id="edge3" class="edge">
<title>Node3&#45;&gt;Node4</title>
<path fill="none" stroke="#63b8ff" d="M2527.86,-156.35C2846.57,-153.07 4209.98,-137.39 4397.35,-107 4410.88,-104.81 4425.54,-100.49 4437.41,-96.48"/>
<polygon fill="#63b8ff" stroke="#63b8ff" points="2528,-152.85 2518.04,-156.45 2528.07,-159.84 2528,-152.85"/>
</g>
<!-- Node10 -->
<g id="node5" class="node">
<title>Node10</title>
<g id="a_node5"><a xlink:href="d__cc__uty_8h.html" target="_top" xlink:title=" ">
<polygon fill="#fff0f0" stroke="red" points="4653.85,-96 4534.85,-96 4534.85,-77 4653.85,-77 4653.85,-96"/>
<text text-anchor="middle" x="4594.35" y="-84" font-family="Helvetica,sans-Serif" font-size="10.00">include/d/cc/d_cc_uty.h</text>
</a>
</g>
</g>
<!-- Node3&#45;&gt;Node10 -->
<g id="edge4" class="edge">
<title>Node3&#45;&gt;Node10</title>
<path fill="none" stroke="#63b8ff" d="M2527.93,-156.4C2859.58,-153.26 4325.35,-137.74 4526.35,-107 4540.68,-104.81 4556.25,-100.5 4568.87,-96.48"/>
<polygon fill="#63b8ff" stroke="#63b8ff" points="2528.1,-152.9 2518.13,-156.49 2528.16,-159.89 2528.1,-152.9"/>
</g>
<!-- Node16 -->
<g id="node6" class="node">
<title>Node16</title>
<g id="a_node6"><a xlink:href="d__item_8h.html" target="_top" xlink:title=" ">
<polygon fill="#fff0f0" stroke="red" points="4843.85,-96 4748.85,-96 4748.85,-77 4843.85,-77 4843.85,-96"/>
<text text-anchor="middle" x="4796.35" y="-84" font-family="Helvetica,sans-Serif" font-size="10.00">include/d/d_item.h</text>
</a>
</g>
</g>
<!-- Node3&#45;&gt;Node16 -->
<g id="edge5" class="edge">
<title>Node3&#45;&gt;Node16</title>
<path fill="none" stroke="#63b8ff" d="M2528.09,-156.06C2891.82,-150.89 4622.86,-125.38 4734.35,-107 4747.6,-104.82 4761.93,-100.45 4773.47,-96.4"/>
<polygon fill="#63b8ff" stroke="#63b8ff" points="2528.19,-152.56 2518.24,-156.2 2528.29,-159.56 2528.19,-152.56"/>
</g>
<!-- Node3&#45;&gt;Node13 -->
<g id="edge31" class="edge">
<title>Node3&#45;&gt;Node13</title>
<path fill="none" stroke="#63b8ff" d="M2394.64,-157.38C2106.26,-158.7 979.05,-160.41 927.35,-107 905.4,-84.32 927.61,-43.03 939.23,-24.92"/>
<polygon fill="#63b8ff" stroke="#63b8ff" points="2394.65,-160.88 2404.63,-157.33 2394.61,-153.88 2394.65,-160.88"/>
</g>
<!-- Node17 -->
<g id="node8" class="node">
<title>Node17</title>
<g id="a_node8"><a xlink:href="d__a__obj__item_8cpp.html" target="_top" xlink:title=" ">
<polygon fill="white" stroke="#666666" points="4786.85,-24.5 4661.85,-24.5 4661.85,-5.5 4786.85,-5.5 4786.85,-24.5"/>
<text text-anchor="middle" x="4724.35" y="-12.5" font-family="Helvetica,sans-Serif" font-size="10.00">src/d/a/d_a_obj_item.cpp</text>
</a>
</g>
</g>
<!-- Node3&#45;&gt;Node17 -->
<g id="edge34" class="edge">
<title>Node3&#45;&gt;Node17</title>
<path fill="none" stroke="#63b8ff" d="M2528.03,-156.46C2893.1,-153.37 4635.05,-137.07 4681.35,-107 4710.37,-88.16 4720.22,-44.03 4723.2,-25"/>
<polygon fill="#63b8ff" stroke="#63b8ff" points="2528.11,-152.96 2518.14,-156.54 2528.17,-159.96 2528.11,-152.96"/>
</g>
<!-- Node18 -->
<g id="node9" class="node">
<title>Node18</title>
<g id="a_node9"><a xlink:href="d__com__inf__game_8cpp.html" target="_top" xlink:title=" ">
<polygon fill="white" stroke="#666666" points="4921.35,-30 4813.35,-30 4813.35,0 4921.35,0 4921.35,-30"/>
<text text-anchor="start" x="4821.35" y="-18" font-family="Helvetica,sans-Serif" font-size="10.00">src/d/com/d_com_inf</text>
<text text-anchor="middle" x="4867.35" y="-7" font-family="Helvetica,sans-Serif" font-size="10.00">_game.cpp</text>
</a>
</g>
</g>
<!-- Node3&#45;&gt;Node18 -->
<g id="edge40" class="edge">
<title>Node3&#45;&gt;Node18</title>
<path fill="none" stroke="#63b8ff" d="M2528.15,-156.19C2912.98,-151.42 4830.87,-126.7 4853.35,-107 4874.99,-88.04 4873.12,-50.75 4870.11,-30.29"/>
<polygon fill="#63b8ff" stroke="#63b8ff" points="2528.15,-152.68 2518.2,-156.31 2528.24,-159.68 2528.15,-152.68"/>
</g>
<!-- Node21 -->
<g id="node10" class="node">
<title>Node21</title>
<g id="a_node10"><a xlink:href="d__kantera__icon__meter_8h.html" target="_top" xlink:title=" ">
<polygon fill="#fff0f0" stroke="red" points="131.85,-101.5 30.85,-101.5 30.85,-71.5 131.85,-71.5 131.85,-101.5"/>
<text text-anchor="start" x="38.85" y="-89.5" font-family="Helvetica,sans-Serif" font-size="10.00">include/d/d_kantera</text>
<text text-anchor="middle" x="81.35" y="-78.5" font-family="Helvetica,sans-Serif" font-size="10.00">_icon_meter.h</text>
</a>
</g>
</g>
<!-- Node3&#45;&gt;Node21 -->
<g id="edge9" class="edge">
<title>Node3&#45;&gt;Node21</title>
<path fill="none" stroke="#63b8ff" d="M2394.73,-156.74C2038.58,-155.22 367.28,-146.04 140.35,-107 133.55,-105.83 126.46,-104.03 119.65,-101.98"/>
<polygon fill="#63b8ff" stroke="#63b8ff" points="2394.58,-160.24 2404.59,-156.79 2394.61,-153.24 2394.58,-160.24"/>
</g>
<!-- Node24 -->
<g id="node11" class="node">
<title>Node24</title>
<g id="a_node11"><a xlink:href="d__model_8h.html" target="_top" xlink:title=" ">
<polygon fill="#fff0f0" stroke="red" points="252.85,-96 149.85,-96 149.85,-77 252.85,-77 252.85,-96"/>
<text text-anchor="middle" x="201.35" y="-84" font-family="Helvetica,sans-Serif" font-size="10.00">include/d/d_model.h</text>
</a>
</g>
</g>
<!-- Node3&#45;&gt;Node24 -->
<g id="edge10" class="edge">
<title>Node3&#45;&gt;Node24</title>
<path fill="none" stroke="#63b8ff" d="M2394.62,-156.64C2049.59,-154.62 475.78,-143.47 261.35,-107 248.5,-104.81 234.64,-100.45 223.47,-96.4"/>
<polygon fill="#63b8ff" stroke="#63b8ff" points="2394.36,-160.14 2404.38,-156.7 2394.4,-153.14 2394.36,-160.14"/>
</g>
<!-- Node26 -->
<g id="node12" class="node">
<title>Node26</title>
<g id="a_node12"><a xlink:href="d__name_8h.html" target="_top" xlink:title=" ">
<polygon fill="#fff0f0" stroke="red" points="371.85,-96 270.85,-96 270.85,-77 371.85,-77 371.85,-96"/>
<text text-anchor="middle" x="321.35" y="-84" font-family="Helvetica,sans-Serif" font-size="10.00">include/d/d_name.h</text>
</a>
</g>
</g>
<!-- Node3&#45;&gt;Node26 -->
<g id="edge11" class="edge">
<title>Node3&#45;&gt;Node26</title>
<path fill="none" stroke="#63b8ff" d="M2394.54,-156.54C2060.91,-154.12 583.3,-141.49 381.35,-107 368.61,-104.82 354.87,-100.51 343.76,-96.49"/>
<polygon fill="#63b8ff" stroke="#63b8ff" points="2394.39,-160.04 2404.41,-156.62 2394.44,-153.04 2394.39,-160.04"/>
</g>
<!-- Node28 -->
<g id="node13" class="node">
<title>Node28</title>
<g id="a_node13"><a xlink:href="d__file__sel__info_8h.html" target="_top" xlink:title=" ">
<polygon fill="#fff0f0" stroke="red" points="486.35,-101.5 390.35,-101.5 390.35,-71.5 486.35,-71.5 486.35,-101.5"/>
<text text-anchor="start" x="398.35" y="-89.5" font-family="Helvetica,sans-Serif" font-size="10.00">include/d/file/d_file</text>
<text text-anchor="middle" x="438.35" y="-78.5" font-family="Helvetica,sans-Serif" font-size="10.00">_sel_info.h</text>
</a>
</g>
</g>
<!-- Node3&#45;&gt;Node28 -->
<g id="edge12" class="edge">
<title>Node3&#45;&gt;Node28</title>
<path fill="none" stroke="#63b8ff" d="M2394.85,-156.51C2073.07,-153.96 685.3,-141.08 495.35,-107 488.77,-105.82 481.91,-104.01 475.33,-101.96"/>
<polygon fill="#63b8ff" stroke="#63b8ff" points="2394.75,-160.01 2404.78,-156.59 2394.81,-153.01 2394.75,-160.01"/>
</g>
<!-- Node31 -->
<g id="node14" class="node">
<title>Node31</title>
<g id="a_node14"><a xlink:href="d__file__sel__warning_8h.html" target="_top" xlink:title=" ">
<polygon fill="#fff0f0" stroke="red" points="600.35,-101.5 504.35,-101.5 504.35,-71.5 600.35,-71.5 600.35,-101.5"/>
<text text-anchor="start" x="512.35" y="-89.5" font-family="Helvetica,sans-Serif" font-size="10.00">include/d/file/d_file</text>
<text text-anchor="middle" x="552.35" y="-78.5" font-family="Helvetica,sans-Serif" font-size="10.00">_sel_warning.h</text>
</a>
</g>
</g>
<!-- Node3&#45;&gt;Node31 -->
<g id="edge13" class="edge">
<title>Node3&#45;&gt;Node31</title>
<path fill="none" stroke="#63b8ff" d="M2394.73,-156.39C2084.32,-153.41 787.49,-139.1 609.35,-107 602.77,-105.81 595.91,-104 589.33,-101.95"/>
<polygon fill="#63b8ff" stroke="#63b8ff" points="2394.66,-159.89 2404.7,-156.49 2394.73,-152.89 2394.66,-159.89"/>
</g>
<!-- Node33 -->
<g id="node15" class="node">
<title>Node33</title>
<g id="a_node15"><a xlink:href="d__meter2_8h.html" target="_top" xlink:title=" ">
<polygon fill="#fff0f0" stroke="red" points="752.35,-96 618.35,-96 618.35,-77 752.35,-77 752.35,-96"/>
<text text-anchor="middle" x="685.35" y="-84" font-family="Helvetica,sans-Serif" font-size="10.00">include/d/meter/d_meter2.h</text>
</a>
</g>
</g>
<!-- Node3&#45;&gt;Node33 -->
<g id="edge14" class="edge">
<title>Node3&#45;&gt;Node33</title>
<path fill="none" stroke="#63b8ff" d="M2394.94,-157.01C2121.93,-156.76 1085.25,-152.74 761.35,-107 745.44,-104.75 728.05,-100.43 713.92,-96.43"/>
<polygon fill="#63b8ff" stroke="#63b8ff" points="2394.71,-160.51 2404.72,-157.02 2394.72,-153.51 2394.71,-160.51"/>
</g>
<!-- Node40 -->
<g id="node16" class="node">
<title>Node40</title>
<g id="a_node16"><a xlink:href="d__msg__object_8h.html" target="_top" xlink:title=" ">
<polygon fill="#fff0f0" stroke="red" points="880.35,-101.5 770.35,-101.5 770.35,-71.5 880.35,-71.5 880.35,-101.5"/>
<text text-anchor="start" x="778.35" y="-89.5" font-family="Helvetica,sans-Serif" font-size="10.00">include/d/msg/d_msg</text>
<text text-anchor="middle" x="825.35" y="-78.5" font-family="Helvetica,sans-Serif" font-size="10.00">_object.h</text>
</a>
</g>
</g>
<!-- Node3&#45;&gt;Node40 -->
<g id="edge15" class="edge">
<title>Node3&#45;&gt;Node40</title>
<path fill="none" stroke="#63b8ff" d="M2394.64,-157.03C2134.79,-156.81 1190.22,-152.83 894.35,-107 886.6,-105.8 878.49,-104.01 870.66,-101.99"/>
<polygon fill="#63b8ff" stroke="#63b8ff" points="2394.61,-160.53 2404.61,-157.04 2394.62,-153.53 2394.61,-160.53"/>
</g>
<!-- Node45 -->
<g id="node17" class="node">
<title>Node45</title>
<g id="a_node17"><a xlink:href="d__demo_8cpp.html" target="_top" xlink:title=" ">
<polygon fill="white" stroke="#666666" points="872.35,-24.5 778.35,-24.5 778.35,-5.5 872.35,-5.5 872.35,-24.5"/>
<text text-anchor="middle" x="825.35" y="-12.5" font-family="Helvetica,sans-Serif" font-size="10.00">src/d/d_demo.cpp</text>
</a>
</g>
</g>
<!-- Node3&#45;&gt;Node45 -->
<g id="edge45" class="edge">
<title>Node3&#45;&gt;Node45</title>
<path fill="none" stroke="#63b8ff" d="M2394.56,-155.85C2208.77,-152.25 1695,-139.45 1626.35,-107 1603.89,-96.38 1610.86,-76.52 1588.35,-66 1445.83,0.6 1036.95,-53.19 881.35,-30 873.23,-28.79 864.56,-26.92 856.53,-24.93"/>
<polygon fill="#63b8ff" stroke="#63b8ff" points="2394.48,-159.35 2404.54,-156.04 2394.61,-152.35 2394.48,-159.35"/>
</g>
<!-- Node46 -->
<g id="node18" class="node">
<title>Node46</title>
<g id="a_node18"><a xlink:href="d__event_8cpp.html" target="_top" xlink:title=" ">
<polygon fill="white" stroke="#666666" points="149.85,-24.5 28.85,-24.5 28.85,-5.5 149.85,-5.5 149.85,-24.5"/>
<text text-anchor="middle" x="89.35" y="-12.5" font-family="Helvetica,sans-Serif" font-size="10.00">src/d/event/d_event.cpp</text>
</a>
</g>
</g>
<!-- Node3&#45;&gt;Node46 -->
<g id="edge54" class="edge">
<title>Node3&#45;&gt;Node46</title>
<path fill="none" stroke="#63b8ff" d="M2394.69,-156.92C2006.31,-156.27 51.31,-150.84 8.35,-107 -4.4,-93.98 -0.52,-81.91 8.35,-66 19.71,-45.65 43.13,-32.55 61.88,-24.89"/>
<polygon fill="#63b8ff" stroke="#63b8ff" points="2394.46,-160.42 2404.47,-156.93 2394.48,-153.42 2394.46,-160.42"/>
</g>
<!-- Node47 -->
<g id="node19" class="node">
<title>Node47</title>
<g id="a_node19"><a xlink:href="d__event__data_8cpp.html" target="_top" xlink:title=" ">
<polygon fill="white" stroke="#666666" points="596.85,-30 493.85,-30 493.85,0 596.85,0 596.85,-30"/>
<text text-anchor="start" x="501.85" y="-18" font-family="Helvetica,sans-Serif" font-size="10.00">src/d/event/d_event</text>
<text text-anchor="middle" x="545.35" y="-7" font-family="Helvetica,sans-Serif" font-size="10.00">_data.cpp</text>
</a>
</g>
</g>
<!-- Node3&#45;&gt;Node47 -->
<g id="edge55" class="edge">
<title>Node3&#45;&gt;Node47</title>
<path fill="none" stroke="#63b8ff" d="M2394.73,-156.91C2007.68,-156.22 64.07,-150.6 21.35,-107 8.6,-93.98 9.1,-79.48 21.35,-66 52.74,-31.47 367.61,-20.21 493.62,-17.07"/>
<polygon fill="#63b8ff" stroke="#63b8ff" points="2394.47,-160.41 2404.47,-156.92 2394.48,-153.41 2394.47,-160.41"/>
</g>
<!-- Node54 -->
<g id="node20" class="node">
<title>Node54</title>
<g id="a_node20"><a xlink:href="d__s__logo_8h.html" target="_top" xlink:title=" ">
<polygon fill="#fff0f0" stroke="red" points="1049.85,-96 936.85,-96 936.85,-77 1049.85,-77 1049.85,-96"/>
<text text-anchor="middle" x="993.35" y="-84" font-family="Helvetica,sans-Serif" font-size="10.00">include/d/s/d_s_logo.h</text>
</a>
</g>
</g>
<!-- Node3&#45;&gt;Node54 -->
<g id="edge20" class="edge">
<title>Node3&#45;&gt;Node54</title>
<path fill="none" stroke="#63b8ff" d="M2394.48,-156.88C2152.1,-156.09 1320.24,-150.22 1058.35,-107 1044.64,-104.74 1029.76,-100.42 1017.7,-96.42"/>
<polygon fill="#63b8ff" stroke="#63b8ff" points="2394.38,-160.38 2404.39,-156.91 2394.4,-153.38 2394.38,-160.38"/>
</g>
<!-- Node56 -->
<g id="node21" class="node">
<title>Node56</title>
<g id="a_node21"><a xlink:href="d__s__play_8h.html" target="_top" xlink:title=" ">
<polygon fill="#fff0f0" stroke="red" points="1180.85,-96 1067.85,-96 1067.85,-77 1180.85,-77 1180.85,-96"/>
<text text-anchor="middle" x="1124.35" y="-84" font-family="Helvetica,sans-Serif" font-size="10.00">include/d/s/d_s_play.h</text>
</a>
</g>
</g>
<!-- Node3&#45;&gt;Node56 -->
<g id="edge21" class="edge">
<title>Node3&#45;&gt;Node56</title>
<path fill="none" stroke="#63b8ff" d="M2394.73,-156.59C2167.6,-154.86 1424.64,-146.27 1189.35,-107 1175.76,-104.73 1161.01,-100.46 1149.01,-96.5"/>
<polygon fill="#63b8ff" stroke="#63b8ff" points="2394.57,-160.09 2404.59,-156.67 2394.62,-153.09 2394.57,-160.09"/>
</g>
<!-- Node60 -->
<g id="node22" class="node">
<title>Node60</title>
<g id="a_node22"><a xlink:href="d__msg__scrn__base_8h.html" target="_top" xlink:title=" ">
<polygon fill="#fff0f0" stroke="red" points="1297.85,-101.5 1198.85,-101.5 1198.85,-71.5 1297.85,-71.5 1297.85,-101.5"/>
<text text-anchor="start" x="1206.85" y="-89.5" font-family="Helvetica,sans-Serif" font-size="10.00">include/msg/scrn/d</text>
<text text-anchor="middle" x="1248.35" y="-78.5" font-family="Helvetica,sans-Serif" font-size="10.00">_msg_scrn_base.h</text>
</a>
</g>
</g>
<!-- Node3&#45;&gt;Node60 -->
<g id="edge22" class="edge">
<title>Node3&#45;&gt;Node60</title>
<path fill="none" stroke="#63b8ff" d="M2394.79,-156.57C2181.6,-154.8 1517.31,-146.22 1306.35,-107 1299.77,-105.78 1292.92,-103.97 1286.33,-101.95"/>
<polygon fill="#63b8ff" stroke="#63b8ff" points="2394.55,-160.07 2404.58,-156.65 2394.61,-153.07 2394.55,-160.07"/>
</g>
<!-- Node64 -->
<g id="node23" class="node">
<title>Node64</title>
<g id="a_node23"><a xlink:href="d__a__b__zant_8h.html" target="_top" xlink:title=" ">
<polygon fill="white" stroke="#666666" points="1436.85,-101.5 1315.85,-101.5 1315.85,-71.5 1436.85,-71.5 1436.85,-101.5"/>
<text text-anchor="start" x="1323.85" y="-89.5" font-family="Helvetica,sans-Serif" font-size="10.00">include/rel/d/a/b/d</text>
<text text-anchor="middle" x="1376.35" y="-78.5" font-family="Helvetica,sans-Serif" font-size="10.00">_a_b_zant/d_a_b_zant.h</text>
</a>
</g>
</g>
<!-- Node3&#45;&gt;Node64 -->
<g id="edge23" class="edge">
<title>Node3&#45;&gt;Node64</title>
<path fill="none" stroke="#63b8ff" d="M2394.77,-155.65C2199.4,-151.39 1629.92,-136.71 1446.35,-107 1438.63,-105.75 1430.55,-103.96 1422.72,-101.97"/>
<polygon fill="#63b8ff" stroke="#63b8ff" points="2394.41,-159.15 2404.48,-155.86 2394.56,-152.15 2394.41,-159.15"/>
</g>
<!-- Node65 -->
<g id="node24" class="node">
<title>Node65</title>
<g id="a_node24"><a xlink:href="d__a__skip__2D_8h.html" target="_top" xlink:title=" ">
<polygon fill="white" stroke="#666666" points="1579.35,-101.5 1455.35,-101.5 1455.35,-71.5 1579.35,-71.5 1579.35,-101.5"/>
<text text-anchor="start" x="1463.35" y="-89.5" font-family="Helvetica,sans-Serif" font-size="10.00">include/rel/d/a/d_a</text>
<text text-anchor="middle" x="1517.35" y="-78.5" font-family="Helvetica,sans-Serif" font-size="10.00">_skip_2D/d_a_skip_2D.h</text>
</a>
</g>
</g>
<!-- Node3&#45;&gt;Node65 -->
<g id="edge24" class="edge">
<title>Node3&#45;&gt;Node65</title>
<path fill="none" stroke="#63b8ff" d="M2394.46,-157.54C2248.22,-157.75 1889.42,-153.06 1593.35,-107 1585.14,-105.72 1576.53,-103.95 1568.17,-101.98"/>
<polygon fill="#63b8ff" stroke="#63b8ff" points="2394.37,-161.04 2404.36,-157.51 2394.35,-154.04 2394.37,-161.04"/>
</g>
<!-- Node66 -->
<g id="node25" class="node">
<title>Node66</title>
<g id="a_node25"><a xlink:href="d__a__spinner_8h.html" target="_top" xlink:title=" ">
<polygon fill="white" stroke="#666666" points="1751.35,-101.5 1635.35,-101.5 1635.35,-71.5 1751.35,-71.5 1751.35,-101.5"/>
<text text-anchor="start" x="1643.35" y="-89.5" font-family="Helvetica,sans-Serif" font-size="10.00">include/rel/d/a/d_a</text>
<text text-anchor="middle" x="1693.35" y="-78.5" font-family="Helvetica,sans-Serif" font-size="10.00">_spinner/d_a_spinner.h</text>
</a>
</g>
</g>
<!-- Node3&#45;&gt;Node66 -->
<g id="edge25" class="edge">
<title>Node3&#45;&gt;Node66</title>
<path fill="none" stroke="#63b8ff" d="M2394.6,-156.93C2269.27,-155.76 1990.66,-148.25 1760.35,-107 1753.08,-105.7 1745.47,-103.91 1738.09,-101.94"/>
<polygon fill="#63b8ff" stroke="#63b8ff" points="2394.34,-160.42 2404.36,-157.01 2394.39,-153.42 2394.34,-160.42"/>
</g>
<!-- Node67 -->
<g id="node26" class="node">
<title>Node67</title>
<g id="a_node26"><a xlink:href="d__a__player_8cpp.html" target="_top" xlink:title=" ">
<polygon fill="white" stroke="#666666" points="3194.35,-24.5 3080.35,-24.5 3080.35,-5.5 3194.35,-5.5 3194.35,-24.5"/>
<text text-anchor="middle" x="3137.35" y="-12.5" font-family="Helvetica,sans-Serif" font-size="10.00">src/d/a/d_a_player.cpp</text>
</a>
</g>
</g>
<!-- Node3&#45;&gt;Node67 -->
<g id="edge35" class="edge">
<title>Node3&#45;&gt;Node67</title>
<path fill="none" stroke="#63b8ff" d="M2528.08,-156.11C2894.28,-151.18 4644.21,-126.59 4663.35,-107 4676.09,-93.97 4676.03,-79.09 4663.35,-66 4611.36,-12.28 3465.66,-14.41 3194.51,-15.68"/>
<polygon fill="#63b8ff" stroke="#63b8ff" points="2528.11,-152.61 2518.15,-156.25 2528.2,-159.61 2528.11,-152.61"/>
</g>
<!-- Node68 -->
<g id="node27" class="node">
<title>Node68</title>
<g id="a_node27"><a xlink:href="d__a__obj__yobikusa_8h.html" target="_top" xlink:title=" ">
<polygon fill="white" stroke="#666666" points="1874.85,-107 1769.85,-107 1769.85,-66 1874.85,-66 1874.85,-107"/>
<text text-anchor="start" x="1777.85" y="-95" font-family="Helvetica,sans-Serif" font-size="10.00">include/rel/d/a/obj</text>
<text text-anchor="start" x="1777.85" y="-84" font-family="Helvetica,sans-Serif" font-size="10.00">/d_a_obj_yobikusa/d</text>
<text text-anchor="middle" x="1822.35" y="-73" font-family="Helvetica,sans-Serif" font-size="10.00">_a_obj_yobikusa.h</text>
</a>
</g>
</g>
<!-- Node3&#45;&gt;Node68 -->
<g id="edge28" class="edge">
<title>Node3&#45;&gt;Node68</title>
<path fill="none" stroke="#63b8ff" d="M2394.52,-155.93C2286.34,-153.14 2066.59,-143.1 1884.35,-107 1881.37,-106.41 1878.32,-105.72 1875.26,-104.97"/>
<polygon fill="#63b8ff" stroke="#63b8ff" points="2394.3,-159.42 2404.38,-156.17 2394.47,-152.42 2394.3,-159.42"/>
</g>
<!-- Node69 -->
<g id="node28" class="node">
<title>Node69</title>
<g id="a_node28"><a xlink:href="d__a__tag__telop_8h.html" target="_top" xlink:title=" ">
<polygon fill="white" stroke="#666666" points="2011.35,-107 1893.35,-107 1893.35,-66 2011.35,-66 2011.35,-107"/>
<text text-anchor="start" x="1901.35" y="-95" font-family="Helvetica,sans-Serif" font-size="10.00">include/rel/d/a/tag</text>
<text text-anchor="start" x="1901.35" y="-84" font-family="Helvetica,sans-Serif" font-size="10.00">/d_a_tag_telop/d_a_tag</text>
<text text-anchor="middle" x="1952.35" y="-73" font-family="Helvetica,sans-Serif" font-size="10.00">_telop.h</text>
</a>
</g>
</g>
<!-- Node3&#45;&gt;Node69 -->
<g id="edge29" class="edge">
<title>Node3&#45;&gt;Node69</title>
<path fill="none" stroke="#63b8ff" d="M2394.63,-152.9C2307.79,-146.79 2151.63,-133.08 2020.35,-107 2017.46,-106.43 2014.52,-105.79 2011.55,-105.1"/>
<polygon fill="#63b8ff" stroke="#63b8ff" points="2394.17,-156.38 2404.39,-153.58 2394.65,-149.4 2394.17,-156.38"/>
</g>
<!-- Node70 -->
<g id="node29" class="node">
<title>Node70</title>
<g id="a_node29"><a xlink:href="c__dylink_8cpp.html" target="_top" xlink:title=" ">
<polygon fill="white" stroke="#666666" points="2124.85,-96 2029.85,-96 2029.85,-77 2124.85,-77 2124.85,-96"/>
<text text-anchor="middle" x="2077.35" y="-84" font-family="Helvetica,sans-Serif" font-size="10.00">src/c/c_dylink.cpp</text>
</a>
</g>
</g>
<!-- Node3&#45;&gt;Node70 -->
<g id="edge30" class="edge">
<title>Node3&#45;&gt;Node70</title>
<path fill="none" stroke="#63b8ff" d="M2394.94,-150.35C2328.39,-142.87 2223.33,-128.84 2134.35,-107 2122.98,-104.21 2110.65,-100.13 2100.37,-96.42"/>
<polygon fill="#63b8ff" stroke="#63b8ff" points="2394.26,-153.8 2404.59,-151.42 2395.03,-146.84 2394.26,-153.8"/>
</g>
<!-- Node71 -->
<g id="node30" class="node">
<title>Node71</title>
<g id="a_node30"><a xlink:href="d__a__itembase_8cpp.html" target="_top" xlink:title=" ">
<polygon fill="white" stroke="#666666" points="2271.35,-96 2143.35,-96 2143.35,-77 2271.35,-77 2271.35,-96"/>
<text text-anchor="middle" x="2207.35" y="-84" font-family="Helvetica,sans-Serif" font-size="10.00">src/d/a/d_a_itembase.cpp</text>
</a>
</g>
</g>
<!-- Node3&#45;&gt;Node71 -->
<g id="edge32" class="edge">
<title>Node3&#45;&gt;Node71</title>
<path fill="none" stroke="#63b8ff" d="M2397.37,-139.49C2347.29,-125.79 2279.69,-107.29 2240.08,-96.46"/>
<polygon fill="#63b8ff" stroke="#63b8ff" points="2396.39,-142.85 2406.96,-142.12 2398.23,-136.1 2396.39,-142.85"/>
</g>
<!-- Node72 -->
<g id="node31" class="node">
<title>Node72</title>
<g id="a_node31"><a xlink:href="d__a__obj_8cpp.html" target="_top" xlink:title=" ">
<polygon fill="white" stroke="#666666" points="2390.85,-96 2289.85,-96 2289.85,-77 2390.85,-77 2390.85,-96"/>
<text text-anchor="middle" x="2340.35" y="-84" font-family="Helvetica,sans-Serif" font-size="10.00">src/d/a/d_a_obj.cpp</text>
</a>
</g>
</g>
<!-- Node3&#45;&gt;Node72 -->
<g id="edge33" class="edge">
<title>Node3&#45;&gt;Node72</title>
<path fill="none" stroke="#63b8ff" d="M2426.39,-136.92C2403.05,-123.51 2373.51,-106.54 2355.81,-96.38"/>
<polygon fill="#63b8ff" stroke="#63b8ff" points="2424.56,-139.9 2434.97,-141.85 2428.04,-133.83 2424.56,-139.9"/>
</g>
<!-- Node73 -->
<g id="node32" class="node">
<title>Node73</title>
<g id="a_node32"><a xlink:href="d__bg__s_8cpp.html" target="_top" xlink:title=" ">
<polygon fill="white" stroke="#666666" points="2513.35,-96 2409.35,-96 2409.35,-77 2513.35,-77 2513.35,-96"/>
<text text-anchor="middle" x="2461.35" y="-84" font-family="Helvetica,sans-Serif" font-size="10.00">src/d/bg/d_bg_s.cpp</text>
</a>
</g>
</g>
<!-- Node3&#45;&gt;Node73 -->
<g id="edge36" class="edge">
<title>Node3&#45;&gt;Node73</title>
<path fill="none" stroke="#63b8ff" d="M2461.35,-131.46C2461.35,-119.07 2461.35,-104.99 2461.35,-96.18"/>
<polygon fill="#63b8ff" stroke="#63b8ff" points="2457.85,-131.09 2461.35,-141.09 2464.85,-131.09 2457.85,-131.09"/>
</g>
<!-- Node74 -->
<g id="node33" class="node">
<title>Node74</title>
<g id="a_node33"><a xlink:href="d__bg__s__movebg__actor_8cpp.html" target="_top" xlink:title=" ">
<polygon fill="white" stroke="#666666" points="2657.35,-101.5 2531.35,-101.5 2531.35,-71.5 2657.35,-71.5 2657.35,-101.5"/>
<text text-anchor="start" x="2539.35" y="-89.5" font-family="Helvetica,sans-Serif" font-size="10.00">src/d/bg/d_bg_s_movebg</text>
<text text-anchor="middle" x="2594.35" y="-78.5" font-family="Helvetica,sans-Serif" font-size="10.00">_actor.cpp</text>
</a>
</g>
</g>
<!-- Node3&#45;&gt;Node74 -->
<g id="edge37" class="edge">
<title>Node3&#45;&gt;Node74</title>
<path fill="none" stroke="#63b8ff" d="M2499.05,-137.3C2520.63,-126.03 2547.22,-112.13 2566.83,-101.88"/>
<polygon fill="#63b8ff" stroke="#63b8ff" points="2497.49,-134.17 2490.25,-141.9 2500.74,-140.37 2497.49,-134.17"/>
</g>
<!-- Node75 -->
<g id="node34" class="node">
<title>Node75</title>
<g id="a_node34"><a xlink:href="d__bg__w_8cpp.html" target="_top" xlink:title=" ">
<polygon fill="white" stroke="#666666" points="2782.85,-96 2675.85,-96 2675.85,-77 2782.85,-77 2782.85,-96"/>
<text text-anchor="middle" x="2729.35" y="-84" font-family="Helvetica,sans-Serif" font-size="10.00">src/d/bg/d_bg_w.cpp</text>
</a>
</g>
</g>
<!-- Node3&#45;&gt;Node75 -->
<g id="edge38" class="edge">
<title>Node3&#45;&gt;Node75</title>
<path fill="none" stroke="#63b8ff" d="M2527.86,-141.86C2568.1,-132.43 2620.36,-119.71 2666.35,-107 2678.05,-103.77 2690.86,-99.87 2701.86,-96.41"/>
<polygon fill="#63b8ff" stroke="#63b8ff" points="2527.26,-138.41 2518.31,-144.09 2528.85,-145.23 2527.26,-138.41"/>
</g>
<!-- Node76 -->
<g id="node35" class="node">
<title>Node76</title>
<g id="a_node35"><a xlink:href="d__cc__s_8cpp.html" target="_top" xlink:title=" ">
<polygon fill="white" stroke="#666666" points="5004.35,-96 4900.35,-96 4900.35,-77 5004.35,-77 5004.35,-96"/>
<text text-anchor="middle" x="4952.35" y="-84" font-family="Helvetica,sans-Serif" font-size="10.00">src/d/cc/d_cc_s.cpp</text>
</a>
</g>
</g>
<!-- Node3&#45;&gt;Node76 -->
<g id="edge39" class="edge">
<title>Node3&#45;&gt;Node76</title>
<path fill="none" stroke="#63b8ff" d="M2527.95,-156.13C2905.74,-151.11 4766.76,-125.56 4886.35,-107 4900.4,-104.82 4915.65,-100.45 4927.95,-96.4"/>
<polygon fill="#63b8ff" stroke="#63b8ff" points="2528.16,-152.62 2518.21,-156.26 2528.25,-159.62 2528.16,-152.62"/>
</g>
<!-- Node77 -->
<g id="node36" class="node">
<title>Node77</title>
<g id="a_node36"><a xlink:href="d__com__static_8cpp.html" target="_top" xlink:title=" ">
<polygon fill="white" stroke="#666666" points="2941.35,-96 2801.35,-96 2801.35,-77 2941.35,-77 2941.35,-96"/>
<text text-anchor="middle" x="2871.35" y="-84" font-family="Helvetica,sans-Serif" font-size="10.00">src/d/com/d_com_static.cpp</text>
</a>
</g>
</g>
<!-- Node3&#45;&gt;Node77 -->
<g id="edge41" class="edge">
<title>Node3&#45;&gt;Node77</title>
<path fill="none" stroke="#63b8ff" d="M2527.91,-148.78C2594.97,-140.06 2701.28,-125.08 2792.35,-107 2807.46,-104 2824.02,-100.02 2838.06,-96.44"/>
<polygon fill="#63b8ff" stroke="#63b8ff" points="2527.65,-145.28 2518.18,-150.03 2528.54,-152.23 2527.65,-145.28"/>
</g>
<!-- Node78 -->
<g id="node37" class="node">
<title>Node78</title>
<g id="a_node37"><a xlink:href="d__attention_8cpp.html" target="_top" xlink:title=" ">
<polygon fill="white" stroke="#666666" points="3066.85,-96 2959.85,-96 2959.85,-77 3066.85,-77 3066.85,-96"/>
<text text-anchor="middle" x="3013.35" y="-84" font-family="Helvetica,sans-Serif" font-size="10.00">src/d/d_attention.cpp</text>
</a>
</g>
</g>
<!-- Node3&#45;&gt;Node78 -->
<g id="edge42" class="edge">
<title>Node3&#45;&gt;Node78</title>
<path fill="none" stroke="#63b8ff" d="M2527.93,-154.38C2622.61,-149.7 2801.25,-137.39 2950.35,-107 2963.14,-104.39 2977.04,-100.24 2988.51,-96.44"/>
<polygon fill="#63b8ff" stroke="#63b8ff" points="2527.86,-150.87 2518.04,-154.85 2528.19,-157.87 2527.86,-150.87"/>
</g>
<!-- Node79 -->
<g id="node38" class="node">
<title>Node79</title>
<g id="a_node38"><a xlink:href="d__cam__param_8cpp.html" target="_top" xlink:title=" ">
<polygon fill="white" stroke="#666666" points="3205.85,-96 3084.85,-96 3084.85,-77 3205.85,-77 3205.85,-96"/>
<text text-anchor="middle" x="3145.35" y="-84" font-family="Helvetica,sans-Serif" font-size="10.00">src/d/d_cam_param.cpp</text>
</a>
</g>
</g>
<!-- Node3&#45;&gt;Node79 -->
<g id="edge43" class="edge">
<title>Node3&#45;&gt;Node79</title>
<path fill="none" stroke="#63b8ff" d="M2527.76,-155.82C2641.12,-152.86 2878.87,-142.58 3076.35,-107 3090.44,-104.46 3105.8,-100.27 3118.44,-96.42"/>
<polygon fill="#63b8ff" stroke="#63b8ff" points="2527.95,-152.31 2518.04,-156.06 2528.13,-159.31 2527.95,-152.31"/>
</g>
<!-- Node80 -->
<g id="node39" class="node">
<title>Node80</title>
<g id="a_node39"><a xlink:href="d__camera_8cpp.html" target="_top" xlink:title=" ">
<polygon fill="white" stroke="#666666" points="3326.35,-96 3224.35,-96 3224.35,-77 3326.35,-77 3326.35,-96"/>
<text text-anchor="middle" x="3275.35" y="-84" font-family="Helvetica,sans-Serif" font-size="10.00">src/d/d_camera.cpp</text>
</a>
</g>
</g>
<!-- Node3&#45;&gt;Node80 -->
<g id="edge44" class="edge">
<title>Node3&#45;&gt;Node80</title>
<path fill="none" stroke="#63b8ff" d="M2528.3,-154.69C2687.4,-148.85 3084.65,-132.17 3215.35,-107 3227.83,-104.6 3241.32,-100.37 3252.34,-96.46"/>
<polygon fill="#63b8ff" stroke="#63b8ff" points="2528.19,-151.19 2518.32,-155.05 2528.44,-158.19 2528.19,-151.19"/>
</g>
<!-- Node81 -->
<g id="node40" class="node">
<title>Node81</title>
<g id="a_node40"><a xlink:href="d__eye__hl_8cpp.html" target="_top" xlink:title=" ">
<polygon fill="white" stroke="#666666" points="3442.35,-96 3344.35,-96 3344.35,-77 3442.35,-77 3442.35,-96"/>
<text text-anchor="middle" x="3393.35" y="-84" font-family="Helvetica,sans-Serif" font-size="10.00">src/d/d_eye_hl.cpp</text>
</a>
</g>
</g>
<!-- Node3&#45;&gt;Node81 -->
<g id="edge46" class="edge">
<title>Node3&#45;&gt;Node81</title>
<path fill="none" stroke="#63b8ff" d="M2528.24,-155.48C2704.9,-151.1 3180.92,-136.82 3335.35,-107 3347.56,-104.64 3360.72,-100.37 3371.42,-96.42"/>
<polygon fill="#63b8ff" stroke="#63b8ff" points="2528.22,-151.98 2518.31,-155.73 2528.39,-158.98 2528.22,-151.98"/>
</g>
<!-- Node82 -->
<g id="node41" class="node">
<title>Node82</title>
<g id="a_node41"><a xlink:href="d__kyeff_8cpp.html" target="_top" xlink:title=" ">
<polygon fill="white" stroke="#666666" points="3550.35,-96 3460.35,-96 3460.35,-77 3550.35,-77 3550.35,-96"/>
<text text-anchor="middle" x="3505.35" y="-84" font-family="Helvetica,sans-Serif" font-size="10.00">src/d/d_kyeff.cpp</text>
</a>
</g>
</g>
<!-- Node3&#45;&gt;Node82 -->
<g id="edge47" class="edge">
<title>Node3&#45;&gt;Node82</title>
<path fill="none" stroke="#63b8ff" d="M2528.04,-156.2C2720.42,-153.47 3274.03,-142.67 3451.35,-107 3462.79,-104.7 3475.05,-100.43 3484.99,-96.47"/>
<polygon fill="#63b8ff" stroke="#63b8ff" points="2528.17,-152.69 2518.22,-156.33 2528.26,-159.69 2528.17,-152.69"/>
</g>
<!-- Node83 -->
<g id="node42" class="node">
<title>Node83</title>
<g id="a_node42"><a xlink:href="d__path_8cpp.html" target="_top" xlink:title=" ">
<polygon fill="white" stroke="#666666" points="3657.85,-96 3568.85,-96 3568.85,-77 3657.85,-77 3657.85,-96"/>
<text text-anchor="middle" x="3613.35" y="-84" font-family="Helvetica,sans-Serif" font-size="10.00">src/d/d_path.cpp</text>
</a>
</g>
</g>
<!-- Node3&#45;&gt;Node83 -->
<g id="edge48" class="edge">
<title>Node3&#45;&gt;Node83</title>
<path fill="none" stroke="#63b8ff" d="M2527.8,-156.59C2733.87,-154.89 3360.27,-146.53 3559.35,-107 3570.79,-104.73 3583.05,-100.46 3593,-96.49"/>
<polygon fill="#63b8ff" stroke="#63b8ff" points="2528.05,-153.08 2518.08,-156.66 2528.11,-160.08 2528.05,-153.08"/>
</g>
<!-- Node84 -->
<g id="node43" class="node">
<title>Node84</title>
<g id="a_node43"><a xlink:href="d__resorce_8cpp.html" target="_top" xlink:title=" ">
<polygon fill="white" stroke="#666666" points="3778.35,-96 3676.35,-96 3676.35,-77 3778.35,-77 3778.35,-96"/>
<text text-anchor="middle" x="3727.35" y="-84" font-family="Helvetica,sans-Serif" font-size="10.00">src/d/d_resorce.cpp</text>
</a>
</g>
</g>
<!-- Node3&#45;&gt;Node84 -->
<g id="edge49" class="edge">
<title>Node3&#45;&gt;Node84</title>
<path fill="none" stroke="#63b8ff" d="M2527.85,-156.62C2747.12,-155.01 3445.86,-146.81 3667.35,-107 3679.97,-104.73 3693.58,-100.47 3704.65,-96.5"/>
<polygon fill="#63b8ff" stroke="#63b8ff" points="2528.04,-153.12 2518.06,-156.69 2528.09,-160.12 2528.04,-153.12"/>
</g>
<!-- Node85 -->
<g id="node44" class="node">
<title>Node85</title>
<g id="a_node44"><a xlink:href="d__simple__model_8cpp.html" target="_top" xlink:title=" ">
<polygon fill="white" stroke="#666666" points="3926.35,-96 3796.35,-96 3796.35,-77 3926.35,-77 3926.35,-96"/>
<text text-anchor="middle" x="3861.35" y="-84" font-family="Helvetica,sans-Serif" font-size="10.00">src/d/d_simple_model.cpp</text>
</a>
</g>
</g>
<!-- Node3&#45;&gt;Node85 -->
<g id="edge50" class="edge">
<title>Node3&#45;&gt;Node85</title>
<path fill="none" stroke="#63b8ff" d="M2528,-156.42C2761.31,-154.1 3540.44,-143.73 3787.35,-107 3802.73,-104.71 3819.51,-100.44 3833.19,-96.48"/>
<polygon fill="#63b8ff" stroke="#63b8ff" points="2528.14,-152.92 2518.17,-156.52 2528.2,-159.92 2528.14,-152.92"/>
</g>
<!-- Node86 -->
<g id="node45" class="node">
<title>Node86</title>
<g id="a_node45"><a xlink:href="d__stage_8cpp.html" target="_top" xlink:title=" ">
<polygon fill="white" stroke="#666666" points="4038.35,-96 3944.35,-96 3944.35,-77 4038.35,-77 4038.35,-96"/>
<text text-anchor="middle" x="3991.35" y="-84" font-family="Helvetica,sans-Serif" font-size="10.00">src/d/d_stage.cpp</text>
</a>
</g>
</g>
<!-- Node3&#45;&gt;Node86 -->
<g id="edge51" class="edge">
<title>Node3&#45;&gt;Node86</title>
<path fill="none" stroke="#63b8ff" d="M2527.89,-157.39C2777.77,-158.46 3659.86,-158.41 3935.35,-107 3947.3,-104.77 3960.13,-100.45 3970.49,-96.45"/>
<polygon fill="#63b8ff" stroke="#63b8ff" points="2528.01,-153.89 2517.99,-157.35 2527.98,-160.89 2528.01,-153.89"/>
</g>
<!-- Node87 -->
<g id="node46" class="node">
<title>Node87</title>
<g id="a_node46"><a xlink:href="d__timer_8cpp.html" target="_top" xlink:title=" ">
<polygon fill="white" stroke="#666666" points="4148.35,-96 4056.35,-96 4056.35,-77 4148.35,-77 4148.35,-96"/>
<text text-anchor="middle" x="4102.35" y="-84" font-family="Helvetica,sans-Serif" font-size="10.00">src/d/d_timer.cpp</text>
</a>
</g>
</g>
<!-- Node3&#45;&gt;Node87 -->
<g id="edge52" class="edge">
<title>Node3&#45;&gt;Node87</title>
<path fill="none" stroke="#63b8ff" d="M2527.83,-156.11C2809.47,-152.2 3896.73,-135.36 4047.35,-107 4059.1,-104.79 4071.71,-100.47 4081.88,-96.46"/>
<polygon fill="#63b8ff" stroke="#63b8ff" points="2528.05,-152.61 2518.1,-156.25 2528.15,-159.61 2528.05,-152.61"/>
</g>
<!-- Node88 -->
<g id="node47" class="node">
<title>Node88</title>
<g id="a_node47"><a xlink:href="d__tresure_8cpp.html" target="_top" xlink:title=" ">
<polygon fill="white" stroke="#666666" points="4266.35,-96 4166.35,-96 4166.35,-77 4266.35,-77 4266.35,-96"/>
<text text-anchor="middle" x="4216.35" y="-84" font-family="Helvetica,sans-Serif" font-size="10.00">src/d/d_tresure.cpp</text>
</a>
</g>
</g>
<!-- Node3&#45;&gt;Node88 -->
<g id="edge53" class="edge">
<title>Node3&#45;&gt;Node88</title>
<path fill="none" stroke="#63b8ff" d="M2528.04,-156.17C2822.05,-152.38 3995.16,-135.57 4157.35,-107 4169.89,-104.79 4183.41,-100.48 4194.33,-96.47"/>
<polygon fill="#63b8ff" stroke="#63b8ff" points="2528.2,-152.67 2518.24,-156.3 2528.29,-159.67 2528.2,-152.67"/>
</g>
<!-- Node89 -->
<g id="node48" class="node">
<title>Node89</title>
<g id="a_node48"><a xlink:href="d__event__lib_8cpp.html" target="_top" xlink:title=" ">
<polygon fill="white" stroke="#666666" points="4387.85,-101.5 4284.85,-101.5 4284.85,-71.5 4387.85,-71.5 4387.85,-101.5"/>
<text text-anchor="start" x="4292.85" y="-89.5" font-family="Helvetica,sans-Serif" font-size="10.00">src/d/event/d_event</text>
<text text-anchor="middle" x="4336.35" y="-78.5" font-family="Helvetica,sans-Serif" font-size="10.00">_lib.cpp</text>
</a>
</g>
</g>
<!-- Node3&#45;&gt;Node89 -->
<g id="edge56" class="edge">
<title>Node3&#45;&gt;Node89</title>
<path fill="none" stroke="#63b8ff" d="M2528.11,-156.27C2834.76,-152.78 4100.85,-136.68 4275.35,-107 4282.37,-105.81 4289.69,-103.99 4296.72,-101.94"/>
<polygon fill="#63b8ff" stroke="#63b8ff" points="2528.23,-152.77 2518.27,-156.38 2528.31,-159.77 2528.23,-152.77"/>
</g>
<!-- Node16&#45;&gt;Node13 -->
<g id="edge6" class="edge">
<title>Node16&#45;&gt;Node13</title>
<path fill="none" stroke="#63b8ff" d="M4737.2,-75.12C4714.22,-71.53 4687.63,-67.93 4663.35,-66 4282.88,-35.68 1432.23,-18.71 1000.16,-16.3"/>
<polygon fill="#63b8ff" stroke="#63b8ff" points="4736.59,-78.56 4747.02,-76.68 4737.69,-71.65 4736.59,-78.56"/>
</g>
<!-- Node16&#45;&gt;Node17 -->
<g id="edge7" class="edge">
<title>Node16&#45;&gt;Node17</title>
<path fill="none" stroke="#63b8ff" d="M4779.18,-68.92C4764.89,-55.13 4745.11,-36.03 4733.63,-24.95"/>
<polygon fill="#63b8ff" stroke="#63b8ff" points="4776.52,-71.22 4786.15,-75.65 4781.38,-66.18 4776.52,-71.22"/>
</g>
<!-- Node16&#45;&gt;Node18 -->
<g id="edge8" class="edge">
<title>Node16&#45;&gt;Node18</title>
<path fill="none" stroke="#63b8ff" d="M4813.29,-68.93C4825.32,-57.15 4841.31,-41.5 4852.77,-30.27"/>
<polygon fill="#63b8ff" stroke="#63b8ff" points="4811.13,-66.14 4806.43,-75.64 4816.02,-71.14 4811.13,-66.14"/>
</g>
<!-- Node40&#45;&gt;Node13 -->
<g id="edge16" class="edge">
<title>Node40&#45;&gt;Node13</title>
<path fill="none" stroke="#63b8ff" d="M860.03,-65.42C883.17,-52.01 912.48,-35.04 930.02,-24.88"/>
<polygon fill="#63b8ff" stroke="#63b8ff" points="858.43,-62.3 851.53,-70.34 861.94,-68.36 858.43,-62.3"/>
</g>
<!-- Node40&#45;&gt;Node45 -->
<g id="edge17" class="edge">
<title>Node40&#45;&gt;Node45</title>
<path fill="none" stroke="#63b8ff" d="M825.35,-59.96C825.35,-47.57 825.35,-33.49 825.35,-24.68"/>
<polygon fill="#63b8ff" stroke="#63b8ff" points="821.85,-59.59 825.35,-69.59 828.85,-59.59 821.85,-59.59"/>
</g>
<!-- Node40&#45;&gt;Node46 -->
<g id="edge18" class="edge">
<title>Node40&#45;&gt;Node46</title>
<path fill="none" stroke="#63b8ff" d="M771.63,-68.2C768.17,-67.38 764.73,-66.63 761.35,-66 538.84,-24.36 268.78,-17.1 150.17,-16.04"/>
<polygon fill="#63b8ff" stroke="#63b8ff" points="770.62,-71.55 781.18,-70.68 772.38,-64.78 770.62,-71.55"/>
</g>
<!-- Node40&#45;&gt;Node47 -->
<g id="edge19" class="edge">
<title>Node40&#45;&gt;Node47</title>
<path fill="none" stroke="#63b8ff" d="M768.29,-67.9C765.95,-67.25 763.63,-66.61 761.35,-66 705.58,-51.07 641.01,-36.47 597.1,-26.94"/>
<polygon fill="#63b8ff" stroke="#63b8ff" points="767.29,-71.25 777.86,-70.65 769.22,-64.52 767.29,-71.25"/>
</g>
<!-- Node66&#45;&gt;Node13 -->
<g id="edge26" class="edge">
<title>Node66&#45;&gt;Node13</title>
<path fill="none" stroke="#63b8ff" d="M1633.78,-68.43C1629.59,-67.52 1625.42,-66.69 1621.35,-66 1392.83,-26.97 1115.71,-18.4 1000.11,-16.52"/>
<polygon fill="#63b8ff" stroke="#63b8ff" points="1632.83,-71.8 1643.36,-70.67 1634.42,-64.98 1632.83,-71.8"/>
</g>
<!-- Node66&#45;&gt;Node67 -->
<g id="edge27" class="edge">
<title>Node66&#45;&gt;Node67</title>
<path fill="none" stroke="#63b8ff" d="M1748.51,-68.29C1752.49,-67.41 1756.47,-66.63 1760.35,-66 2020.59,-24.07 2853.2,-17.28 3079.9,-16.2"/>
<polygon fill="#63b8ff" stroke="#63b8ff" points="1747.68,-64.89 1738.8,-70.67 1749.35,-71.69 1747.68,-64.89"/>
</g>
<!-- Node108&#45;&gt;Node3 -->
<g id="edge59" class="edge">
<title>Node108&#45;&gt;Node3</title>
<path fill="none" stroke="#63b8ff" d="M2510.08,-206.25C2499.5,-195.99 2486.1,-183 2476.03,-173.23"/>
<polygon fill="#63b8ff" stroke="#63b8ff" points="2507.47,-208.6 2517.09,-213.05 2512.35,-203.57 2507.47,-208.6"/>
</g>
<!-- Node108&#45;&gt;Node76 -->
<g id="edge60" class="edge">
<title>Node108&#45;&gt;Node76</title>
<path fill="none" stroke="#63b8ff" d="M2574.78,-211.83C2580.67,-210.72 2586.63,-209.74 2592.35,-209 3599.67,-78.95 3870.53,-255.1 4875.35,-107 4891.32,-104.65 4908.77,-100.37 4923.02,-96.42"/>
<polygon fill="#63b8ff" stroke="#63b8ff" points="2574.21,-208.37 2565.09,-213.77 2575.59,-215.23 2574.21,-208.37"/>
</g>
</g>
</svg>
