<?xml version="1.0" encoding="UTF-8" standalone="no"?>
<!DOCTYPE svg PUBLIC "-//W3C//DTD SVG 1.1//EN"
 "http://www.w3.org/Graphics/SVG/1.1/DTD/svg11.dtd">
<!-- Generated by graphviz version 7.0.4 (20221203.1631)
 -->
<!-- Title: include/d/d_cam_param.h Pages: 1 -->
<svg width="4884pt" height="357pt"
 viewBox="0.00 0.00 4884.13 357.00" xmlns="http://www.w3.org/2000/svg" xmlns:xlink="http://www.w3.org/1999/xlink">
<g id="graph0" class="graph" transform="scale(1 1) rotate(0) translate(4 353)">
<title>include/d/d_cam_param.h</title>
<!-- Node1 -->
<g id="node1" class="node">
<title>Node1</title>
<g id="a_node1"><a xlink:title=" ">
<polygon fill="#999999" stroke="#666666" points="1358.63,-349 1230.63,-349 1230.63,-330 1358.63,-330 1358.63,-349"/>
<text text-anchor="middle" x="1294.63" y="-337" font-family="Helvetica,sans-Serif" font-size="10.00">include/d/d_cam_param.h</text>
</a>
</g>
</g>
<!-- Node2 -->
<g id="node2" class="node">
<title>Node2</title>
<g id="a_node2"><a xlink:href="d__camera_8h.html" target="_top" xlink:title=" ">
<polygon fill="white" stroke="#666666" points="379.13,-294 270.13,-294 270.13,-275 379.13,-275 379.13,-294"/>
<text text-anchor="middle" x="324.63" y="-282" font-family="Helvetica,sans-Serif" font-size="10.00">include/d/d_camera.h</text>
</a>
</g>
</g>
<!-- Node1&#45;&gt;Node2 -->
<g id="edge1" class="edge">
<title>Node1&#45;&gt;Node2</title>
<path fill="none" stroke="#63b8ff" d="M1218.78,-334.36C1030.19,-324.05 543.48,-297.46 379.49,-288.5"/>
<polygon fill="#63b8ff" stroke="#63b8ff" points="1218.54,-337.85 1228.72,-334.9 1218.93,-330.86 1218.54,-337.85"/>
</g>
<!-- Node81 -->
<g id="node39" class="node">
<title>Node81</title>
<g id="a_node39"><a xlink:href="d__cam__param_8cpp.html" target="_top" xlink:title=" ">
<polygon fill="white" stroke="#666666" points="4876.13,-96 4755.13,-96 4755.13,-77 4876.13,-77 4876.13,-96"/>
<text text-anchor="middle" x="4815.63" y="-84" font-family="Helvetica,sans-Serif" font-size="10.00">src/d/d_cam_param.cpp</text>
</a>
</g>
</g>
<!-- Node1&#45;&gt;Node81 -->
<g id="edge63" class="edge">
<title>Node1&#45;&gt;Node81</title>
<path fill="none" stroke="#63b8ff" d="M1370.34,-336.93C1739.09,-328.57 3383.29,-282.69 4716.63,-107 4736.43,-104.39 4758.22,-100.24 4776.31,-96.44"/>
<polygon fill="#63b8ff" stroke="#63b8ff" points="1370.47,-333.43 1360.55,-337.15 1370.63,-340.43 1370.47,-333.43"/>
</g>
<!-- Node3 -->
<g id="node3" class="node">
<title>Node3</title>
<g id="a_node3"><a xlink:href="f__op__camera__mng_8h.html" target="_top" xlink:title=" ">
<polygon fill="white" stroke="#666666" points="1326.63,-239 1198.63,-239 1198.63,-209 1326.63,-209 1326.63,-239"/>
<text text-anchor="start" x="1206.63" y="-227" font-family="Helvetica,sans-Serif" font-size="10.00">include/f_op/f_op_camera</text>
<text text-anchor="middle" x="1262.63" y="-216" font-family="Helvetica,sans-Serif" font-size="10.00">_mng.h</text>
</a>
</g>
</g>
<!-- Node2&#45;&gt;Node3 -->
<g id="edge2" class="edge">
<title>Node2&#45;&gt;Node3</title>
<path fill="none" stroke="#63b8ff" d="M390.91,-279.37C563.93,-268.58 1027.54,-239.66 1198.32,-229.01"/>
<polygon fill="#63b8ff" stroke="#63b8ff" points="390.73,-275.87 380.97,-279.99 391.17,-282.86 390.73,-275.87"/>
</g>
<!-- Node48 -->
<g id="node19" class="node">
<title>Node48</title>
<g id="a_node19"><a xlink:href="d__event_8cpp.html" target="_top" xlink:title=" ">
<polygon fill="white" stroke="#666666" points="286.13,-24.5 165.13,-24.5 165.13,-5.5 286.13,-5.5 286.13,-24.5"/>
<text text-anchor="middle" x="225.63" y="-12.5" font-family="Helvetica,sans-Serif" font-size="10.00">src/d/event/d_event.cpp</text>
</a>
</g>
</g>
<!-- Node2&#45;&gt;Node48 -->
<g id="edge60" class="edge">
<title>Node2&#45;&gt;Node48</title>
<path fill="none" stroke="#63b8ff" d="M269.86,-271.71C194.5,-252.18 61.91,-205.11 6.63,-107 -29,-43.78 88.24,-24.48 164.74,-18.59"/>
<polygon fill="#63b8ff" stroke="#63b8ff" points="268.97,-275.1 279.52,-274.14 270.68,-268.31 268.97,-275.1"/>
</g>
<!-- Node49 -->
<g id="node20" class="node">
<title>Node49</title>
<g id="a_node20"><a xlink:href="d__event__data_8cpp.html" target="_top" xlink:title=" ">
<polygon fill="white" stroke="#666666" points="520.13,-30 417.13,-30 417.13,0 520.13,0 520.13,-30"/>
<text text-anchor="start" x="425.13" y="-18" font-family="Helvetica,sans-Serif" font-size="10.00">src/d/event/d_event</text>
<text text-anchor="middle" x="468.63" y="-7" font-family="Helvetica,sans-Serif" font-size="10.00">_data.cpp</text>
</a>
</g>
</g>
<!-- Node2&#45;&gt;Node49 -->
<g id="edge61" class="edge">
<title>Node2&#45;&gt;Node49</title>
<path fill="none" stroke="#63b8ff" d="M322.44,-263.55C319.01,-222.19 316.9,-125.96 362.63,-66 375.95,-48.53 396.9,-36.9 416.67,-29.29"/>
<polygon fill="#63b8ff" stroke="#63b8ff" points="318.95,-263.81 323.4,-273.43 325.92,-263.14 318.95,-263.81"/>
</g>
<!-- Node82 -->
<g id="node40" class="node">
<title>Node82</title>
<g id="a_node40"><a xlink:href="d__camera_8cpp.html" target="_top" xlink:title=" ">
<polygon fill="white" stroke="#666666" points="117.63,-96 15.63,-96 15.63,-77 117.63,-77 117.63,-96"/>
<text text-anchor="middle" x="66.63" y="-84" font-family="Helvetica,sans-Serif" font-size="10.00">src/d/d_camera.cpp</text>
</a>
</g>
</g>
<!-- Node2&#45;&gt;Node82 -->
<g id="edge59" class="edge">
<title>Node2&#45;&gt;Node82</title>
<path fill="none" stroke="#63b8ff" d="M303.95,-267.79C252.31,-228.56 118.94,-127.24 78.45,-96.48"/>
<polygon fill="#63b8ff" stroke="#63b8ff" points="301.59,-270.39 311.67,-273.65 305.82,-264.82 301.59,-270.39"/>
</g>
<!-- Node92 -->
<g id="node47" class="node">
<title>Node92</title>
<g id="a_node47"><a xlink:href="d__event__manager_8cpp.html" target="_top" xlink:title=" ">
<polygon fill="white" stroke="#666666" points="239.13,-101.5 136.13,-101.5 136.13,-71.5 239.13,-71.5 239.13,-101.5"/>
<text text-anchor="start" x="144.13" y="-89.5" font-family="Helvetica,sans-Serif" font-size="10.00">src/d/event/d_event</text>
<text text-anchor="middle" x="187.63" y="-78.5" font-family="Helvetica,sans-Serif" font-size="10.00">_manager.cpp</text>
</a>
</g>
</g>
<!-- Node2&#45;&gt;Node92 -->
<g id="edge62" class="edge">
<title>Node2&#45;&gt;Node92</title>
<path fill="none" stroke="#63b8ff" d="M312.07,-265.53C285.09,-226.93 222.06,-136.76 197.59,-101.75"/>
<polygon fill="#63b8ff" stroke="#63b8ff" points="308.92,-267.14 317.52,-273.33 314.66,-263.13 308.92,-267.14"/>
</g>
<!-- Node4 -->
<g id="node4" class="node">
<title>Node4</title>
<g id="a_node4"><a xlink:href="d__com__inf__game_8h.html" target="_top" xlink:title=" ">
<polygon fill="#fff0f0" stroke="red" points="2321.63,-173 2211.63,-173 2211.63,-143 2321.63,-143 2321.63,-173"/>
<text text-anchor="start" x="2219.63" y="-161" font-family="Helvetica,sans-Serif" font-size="10.00">include/d/com/d_com</text>
<text text-anchor="middle" x="2266.63" y="-150" font-family="Helvetica,sans-Serif" font-size="10.00">_inf_game.h</text>
</a>
</g>
</g>
<!-- Node3&#45;&gt;Node4 -->
<g id="edge3" class="edge">
<title>Node3&#45;&gt;Node4</title>
<path fill="none" stroke="#63b8ff" d="M1338.43,-218.17C1532.2,-205.82 2042.24,-173.3 2211.3,-162.53"/>
<polygon fill="#63b8ff" stroke="#63b8ff" points="1338.23,-214.67 1328.47,-218.8 1338.67,-221.66 1338.23,-214.67"/>
</g>
<!-- Node110 -->
<g id="node48" class="node">
<title>Node110</title>
<g id="a_node48"><a xlink:href="f__op__camera_8h.html" target="_top" xlink:title=" ">
<polygon fill="#fff0f0" stroke="red" points="1183.63,-167.5 1047.63,-167.5 1047.63,-148.5 1183.63,-148.5 1183.63,-167.5"/>
<text text-anchor="middle" x="1115.63" y="-155.5" font-family="Helvetica,sans-Serif" font-size="10.00">include/f_op/f_op_camera.h</text>
</a>
</g>
</g>
<!-- Node3&#45;&gt;Node110 -->
<g id="edge56" class="edge">
<title>Node3&#45;&gt;Node110</title>
<path fill="none" stroke="#63b8ff" d="M1219.13,-204.06C1191.75,-192.14 1157.66,-177.3 1136.27,-167.99"/>
<polygon fill="#63b8ff" stroke="#63b8ff" points="1217.68,-207.25 1228.25,-208.03 1220.48,-200.83 1217.68,-207.25"/>
</g>
<!-- Node111 -->
<g id="node49" class="node">
<title>Node111</title>
<g id="a_node49"><a xlink:href="f__ap__game_8cpp.html" target="_top" xlink:title=" ">
<polygon fill="white" stroke="#666666" points="1323.13,-167.5 1202.13,-167.5 1202.13,-148.5 1323.13,-148.5 1323.13,-167.5"/>
<text text-anchor="middle" x="1262.63" y="-155.5" font-family="Helvetica,sans-Serif" font-size="10.00">src/f_ap/f_ap_game.cpp</text>
</a>
</g>
</g>
<!-- Node3&#45;&gt;Node111 -->
<g id="edge57" class="edge">
<title>Node3&#45;&gt;Node111</title>
<path fill="none" stroke="#63b8ff" d="M1262.63,-197.59C1262.63,-187.06 1262.63,-175.53 1262.63,-167.84"/>
<polygon fill="#63b8ff" stroke="#63b8ff" points="1259.13,-197.28 1262.63,-207.28 1266.13,-197.28 1259.13,-197.28"/>
</g>
<!-- Node112 -->
<g id="node50" class="node">
<title>Node112</title>
<g id="a_node50"><a xlink:href="f__op__camera__mng_8cpp.html" target="_top" xlink:title=" ">
<polygon fill="white" stroke="#666666" points="1452.13,-173 1341.13,-173 1341.13,-143 1452.13,-143 1452.13,-173"/>
<text text-anchor="start" x="1349.13" y="-161" font-family="Helvetica,sans-Serif" font-size="10.00">src/f_op/f_op_camera</text>
<text text-anchor="middle" x="1396.63" y="-150" font-family="Helvetica,sans-Serif" font-size="10.00">_mng.cpp</text>
</a>
</g>
</g>
<!-- Node3&#45;&gt;Node112 -->
<g id="edge58" class="edge">
<title>Node3&#45;&gt;Node112</title>
<path fill="none" stroke="#63b8ff" d="M1302.99,-203.72C1323.46,-193.95 1347.88,-182.28 1366.66,-173.31"/>
<polygon fill="#63b8ff" stroke="#63b8ff" points="1301.58,-200.52 1294.06,-207.98 1304.6,-206.83 1301.58,-200.52"/>
</g>
<!-- Node5 -->
<g id="node5" class="node">
<title>Node5</title>
<g id="a_node5"><a xlink:href="d__a__npc_8h.html" target="_top" xlink:title=" ">
<polygon fill="#fff0f0" stroke="red" points="4410.13,-96 4299.13,-96 4299.13,-77 4410.13,-77 4410.13,-96"/>
<text text-anchor="middle" x="4354.63" y="-84" font-family="Helvetica,sans-Serif" font-size="10.00">include/d/a/d_a_npc.h</text>
</a>
</g>
</g>
<!-- Node4&#45;&gt;Node5 -->
<g id="edge4" class="edge">
<title>Node4&#45;&gt;Node5</title>
<path fill="none" stroke="#63b8ff" d="M2332.92,-156.41C2659.92,-153.37 4093.12,-138.33 4289.63,-107 4303.36,-104.81 4318.24,-100.5 4330.29,-96.48"/>
<polygon fill="#63b8ff" stroke="#63b8ff" points="2333.24,-152.91 2323.28,-156.5 2333.31,-159.91 2333.24,-152.91"/>
</g>
<!-- Node11 -->
<g id="node6" class="node">
<title>Node11</title>
<g id="a_node6"><a xlink:href="d__cc__uty_8h.html" target="_top" xlink:title=" ">
<polygon fill="#fff0f0" stroke="red" points="4547.13,-96 4428.13,-96 4428.13,-77 4547.13,-77 4547.13,-96"/>
<text text-anchor="middle" x="4487.63" y="-84" font-family="Helvetica,sans-Serif" font-size="10.00">include/d/cc/d_cc_uty.h</text>
</a>
</g>
</g>
<!-- Node4&#45;&gt;Node11 -->
<g id="edge5" class="edge">
<title>Node4&#45;&gt;Node11</title>
<path fill="none" stroke="#63b8ff" d="M2333.27,-156.47C2673.56,-153.61 4209.48,-139.03 4419.63,-107 4433.95,-104.82 4449.52,-100.5 4462.14,-96.49"/>
<polygon fill="#63b8ff" stroke="#63b8ff" points="2333.39,-152.97 2323.42,-156.55 2333.45,-159.97 2333.39,-152.97"/>
</g>
<!-- Node17 -->
<g id="node7" class="node">
<title>Node17</title>
<g id="a_node7"><a xlink:href="d__item_8h.html" target="_top" xlink:title=" ">
<polygon fill="#fff0f0" stroke="red" points="4660.13,-96 4565.13,-96 4565.13,-77 4660.13,-77 4660.13,-96"/>
<text text-anchor="middle" x="4612.63" y="-84" font-family="Helvetica,sans-Serif" font-size="10.00">include/d/d_item.h</text>
</a>
</g>
</g>
<!-- Node4&#45;&gt;Node17 -->
<g id="edge6" class="edge">
<title>Node4&#45;&gt;Node17</title>
<path fill="none" stroke="#63b8ff" d="M2333.28,-156.13C2698.49,-151.3 4444.54,-127.22 4556.63,-107 4568.68,-104.83 4581.63,-100.46 4592.04,-96.41"/>
<polygon fill="#63b8ff" stroke="#63b8ff" points="2333.34,-152.63 2323.39,-156.26 2333.43,-159.63 2333.34,-152.63"/>
</g>
<!-- Node14 -->
<g id="node8" class="node">
<title>Node14</title>
<g id="a_node8"><a xlink:href="d__a__alink_8cpp.html" target="_top" xlink:title=" ">
<polygon fill="white" stroke="#666666" points="1650.13,-24.5 1541.13,-24.5 1541.13,-5.5 1650.13,-5.5 1650.13,-24.5"/>
<text text-anchor="middle" x="1595.63" y="-12.5" font-family="Helvetica,sans-Serif" font-size="10.00">src/d/a/d_a_alink.cpp</text>
</a>
</g>
</g>
<!-- Node4&#45;&gt;Node14 -->
<g id="edge32" class="edge">
<title>Node4&#45;&gt;Node14</title>
<path fill="none" stroke="#63b8ff" d="M2199.95,-156.01C1987.47,-152.55 1338.32,-139.34 1307.63,-107 1237.59,-33.22 1439.1,-19 1540.81,-16.44"/>
<polygon fill="#63b8ff" stroke="#63b8ff" points="2199.66,-159.51 2209.72,-156.17 2199.78,-152.51 2199.66,-159.51"/>
</g>
<!-- Node18 -->
<g id="node9" class="node">
<title>Node18</title>
<g id="a_node9"><a xlink:href="d__a__obj__item_8cpp.html" target="_top" xlink:title=" ">
<polygon fill="white" stroke="#666666" points="4664.13,-24.5 4539.13,-24.5 4539.13,-5.5 4664.13,-5.5 4664.13,-24.5"/>
<text text-anchor="middle" x="4601.63" y="-12.5" font-family="Helvetica,sans-Serif" font-size="10.00">src/d/a/d_a_obj_item.cpp</text>
</a>
</g>
</g>
<!-- Node4&#45;&gt;Node18 -->
<g id="edge35" class="edge">
<title>Node4&#45;&gt;Node18</title>
<path fill="none" stroke="#63b8ff" d="M2333.46,-156.24C2719.61,-151.79 4648.61,-128.46 4669.63,-107 4682.38,-93.98 4677.85,-82.26 4669.63,-66 4659.84,-46.65 4638.64,-32.96 4622.5,-24.86"/>
<polygon fill="#63b8ff" stroke="#63b8ff" points="2333.44,-152.74 2323.48,-156.36 2333.52,-159.74 2333.44,-152.74"/>
</g>
<!-- Node19 -->
<g id="node10" class="node">
<title>Node19</title>
<g id="a_node10"><a xlink:href="d__com__inf__game_8cpp.html" target="_top" xlink:title=" ">
<polygon fill="white" stroke="#666666" points="4790.63,-30 4682.63,-30 4682.63,0 4790.63,0 4790.63,-30"/>
<text text-anchor="start" x="4690.63" y="-18" font-family="Helvetica,sans-Serif" font-size="10.00">src/d/com/d_com_inf</text>
<text text-anchor="middle" x="4736.63" y="-7" font-family="Helvetica,sans-Serif" font-size="10.00">_game.cpp</text>
</a>
</g>
</g>
<!-- Node4&#45;&gt;Node19 -->
<g id="edge41" class="edge">
<title>Node4&#45;&gt;Node19</title>
<path fill="none" stroke="#63b8ff" d="M2333.33,-156.54C2717.71,-153.76 4634.89,-138.33 4686.63,-107 4714.69,-90.01 4728.12,-51.18 4733.54,-30.16"/>
<polygon fill="#63b8ff" stroke="#63b8ff" points="2333.36,-153.04 2323.39,-156.61 2333.42,-160.04 2333.36,-153.04"/>
</g>
<!-- Node22 -->
<g id="node11" class="node">
<title>Node22</title>
<g id="a_node11"><a xlink:href="d__kantera__icon__meter_8h.html" target="_top" xlink:title=" ">
<polygon fill="#fff0f0" stroke="red" points="601.13,-101.5 500.13,-101.5 500.13,-71.5 601.13,-71.5 601.13,-101.5"/>
<text text-anchor="start" x="508.13" y="-89.5" font-family="Helvetica,sans-Serif" font-size="10.00">include/d/d_kantera</text>
<text text-anchor="middle" x="550.63" y="-78.5" font-family="Helvetica,sans-Serif" font-size="10.00">_icon_meter.h</text>
</a>
</g>
</g>
<!-- Node4&#45;&gt;Node22 -->
<g id="edge10" class="edge">
<title>Node4&#45;&gt;Node22</title>
<path fill="none" stroke="#63b8ff" d="M2200.09,-156.11C1910.67,-152.07 768.8,-134.51 610.63,-107 603.72,-105.8 596.52,-103.98 589.6,-101.93"/>
<polygon fill="#63b8ff" stroke="#63b8ff" points="2199.66,-159.6 2209.71,-156.24 2199.76,-152.6 2199.66,-159.6"/>
</g>
<!-- Node25 -->
<g id="node12" class="node">
<title>Node25</title>
<g id="a_node12"><a xlink:href="d__model_8h.html" target="_top" xlink:title=" ">
<polygon fill="#fff0f0" stroke="red" points="722.13,-96 619.13,-96 619.13,-77 722.13,-77 722.13,-96"/>
<text text-anchor="middle" x="670.63" y="-84" font-family="Helvetica,sans-Serif" font-size="10.00">include/d/d_model.h</text>
</a>
</g>
</g>
<!-- Node4&#45;&gt;Node25 -->
<g id="edge11" class="edge">
<title>Node4&#45;&gt;Node25</title>
<path fill="none" stroke="#63b8ff" d="M2200.07,-155.92C1924.11,-151.28 877.41,-132.17 731.63,-107 718.7,-104.77 704.73,-100.45 693.42,-96.44"/>
<polygon fill="#63b8ff" stroke="#63b8ff" points="2199.91,-159.41 2209.97,-156.08 2200.03,-152.42 2199.91,-159.41"/>
</g>
<!-- Node27 -->
<g id="node13" class="node">
<title>Node27</title>
<g id="a_node13"><a xlink:href="d__name_8h.html" target="_top" xlink:title=" ">
<polygon fill="#fff0f0" stroke="red" points="841.13,-96 740.13,-96 740.13,-77 841.13,-77 841.13,-96"/>
<text text-anchor="middle" x="790.63" y="-84" font-family="Helvetica,sans-Serif" font-size="10.00">include/d/d_name.h</text>
</a>
</g>
</g>
<!-- Node4&#45;&gt;Node27 -->
<g id="edge12" class="edge">
<title>Node4&#45;&gt;Node27</title>
<path fill="none" stroke="#63b8ff" d="M2200.1,-155.74C1937.93,-150.63 984.14,-130.57 850.63,-107 837.9,-104.75 824.16,-100.43 813.04,-96.43"/>
<polygon fill="#63b8ff" stroke="#63b8ff" points="2199.74,-159.23 2209.81,-155.93 2199.88,-152.24 2199.74,-159.23"/>
</g>
<!-- Node29 -->
<g id="node14" class="node">
<title>Node29</title>
<g id="a_node14"><a xlink:href="d__file__sel__info_8h.html" target="_top" xlink:title=" ">
<polygon fill="#fff0f0" stroke="red" points="955.63,-101.5 859.63,-101.5 859.63,-71.5 955.63,-71.5 955.63,-101.5"/>
<text text-anchor="start" x="867.63" y="-89.5" font-family="Helvetica,sans-Serif" font-size="10.00">include/d/file/d_file</text>
<text text-anchor="middle" x="907.63" y="-78.5" font-family="Helvetica,sans-Serif" font-size="10.00">_sel_info.h</text>
</a>
</g>
</g>
<!-- Node4&#45;&gt;Node29 -->
<g id="edge13" class="edge">
<title>Node4&#45;&gt;Node29</title>
<path fill="none" stroke="#63b8ff" d="M2199.77,-155.57C1950.9,-150.1 1086.26,-129.64 964.63,-107 958.15,-105.79 951.41,-104 944.92,-101.98"/>
<polygon fill="#63b8ff" stroke="#63b8ff" points="2199.56,-159.07 2209.63,-155.79 2199.71,-152.07 2199.56,-159.07"/>
</g>
<!-- Node32 -->
<g id="node15" class="node">
<title>Node32</title>
<g id="a_node15"><a xlink:href="d__file__sel__warning_8h.html" target="_top" xlink:title=" ">
<polygon fill="#fff0f0" stroke="red" points="1069.63,-101.5 973.63,-101.5 973.63,-71.5 1069.63,-71.5 1069.63,-101.5"/>
<text text-anchor="start" x="981.63" y="-89.5" font-family="Helvetica,sans-Serif" font-size="10.00">include/d/file/d_file</text>
<text text-anchor="middle" x="1021.63" y="-78.5" font-family="Helvetica,sans-Serif" font-size="10.00">_sel_warning.h</text>
</a>
</g>
</g>
<!-- Node4&#45;&gt;Node32 -->
<g id="edge14" class="edge">
<title>Node4&#45;&gt;Node32</title>
<path fill="none" stroke="#63b8ff" d="M2199.98,-156.71C1982.67,-155.36 1296.13,-147.89 1078.63,-107 1072.15,-105.78 1065.41,-103.98 1058.93,-101.96"/>
<polygon fill="#63b8ff" stroke="#63b8ff" points="2199.66,-160.21 2209.68,-156.77 2199.7,-153.21 2199.66,-160.21"/>
</g>
<!-- Node34 -->
<g id="node16" class="node">
<title>Node34</title>
<g id="a_node16"><a xlink:href="d__meter2_8h.html" target="_top" xlink:title=" ">
<polygon fill="#fff0f0" stroke="red" points="1221.63,-96 1087.63,-96 1087.63,-77 1221.63,-77 1221.63,-96"/>
<text text-anchor="middle" x="1154.63" y="-84" font-family="Helvetica,sans-Serif" font-size="10.00">include/d/meter/d_meter2.h</text>
</a>
</g>
</g>
<!-- Node4&#45;&gt;Node34 -->
<g id="edge15" class="edge">
<title>Node4&#45;&gt;Node34</title>
<path fill="none" stroke="#63b8ff" d="M2200.08,-155.41C2002.74,-150.42 1422.92,-133.84 1235.63,-107 1219.02,-104.62 1200.83,-100.39 1185.9,-96.48"/>
<polygon fill="#63b8ff" stroke="#63b8ff" points="2199.81,-158.9 2209.9,-155.65 2199.99,-151.9 2199.81,-158.9"/>
</g>
<!-- Node42 -->
<g id="node17" class="node">
<title>Node42</title>
<g id="a_node17"><a xlink:href="d__msg__object_8h.html" target="_top" xlink:title=" ">
<polygon fill="#fff0f0" stroke="red" points="481.63,-101.5 371.63,-101.5 371.63,-71.5 481.63,-71.5 481.63,-101.5"/>
<text text-anchor="start" x="379.63" y="-89.5" font-family="Helvetica,sans-Serif" font-size="10.00">include/d/msg/d_msg</text>
<text text-anchor="middle" x="426.63" y="-78.5" font-family="Helvetica,sans-Serif" font-size="10.00">_object.h</text>
</a>
</g>
</g>
<!-- Node4&#45;&gt;Node42 -->
<g id="edge16" class="edge">
<title>Node4&#45;&gt;Node42</title>
<path fill="none" stroke="#63b8ff" d="M2200.03,-155.61C1887.46,-149.05 577.36,-120.82 491.63,-107 484.18,-105.8 476.4,-103.98 468.91,-101.93"/>
<polygon fill="#63b8ff" stroke="#63b8ff" points="2199.58,-159.11 2209.65,-155.82 2199.72,-152.11 2199.58,-159.11"/>
</g>
<!-- Node47 -->
<g id="node18" class="node">
<title>Node47</title>
<g id="a_node18"><a xlink:href="d__demo_8cpp.html" target="_top" xlink:title=" ">
<polygon fill="white" stroke="#666666" points="398.63,-24.5 304.63,-24.5 304.63,-5.5 398.63,-5.5 398.63,-24.5"/>
<text text-anchor="middle" x="351.63" y="-12.5" font-family="Helvetica,sans-Serif" font-size="10.00">src/d/d_demo.cpp</text>
</a>
</g>
</g>
<!-- Node4&#45;&gt;Node47 -->
<g id="edge46" class="edge">
<title>Node4&#45;&gt;Node47</title>
<path fill="none" stroke="#63b8ff" d="M2199.79,-155.83C1864.37,-149.9 379.98,-122.79 362.63,-107 339.44,-85.9 345.43,-43.39 349.42,-24.91"/>
<polygon fill="#63b8ff" stroke="#63b8ff" points="2199.66,-159.33 2209.72,-156.01 2199.78,-152.33 2199.66,-159.33"/>
</g>
<!-- Node4&#45;&gt;Node48 -->
<g id="edge53" class="edge">
<title>Node4&#45;&gt;Node48</title>
<path fill="none" stroke="#63b8ff" d="M2199.81,-155.84C1865.25,-149.95 386.25,-123.07 341.63,-107 293.7,-89.75 250.19,-44.33 233.19,-24.96"/>
<polygon fill="#63b8ff" stroke="#63b8ff" points="2199.66,-159.34 2209.72,-156.01 2199.78,-152.34 2199.66,-159.34"/>
</g>
<!-- Node4&#45;&gt;Node49 -->
<g id="edge54" class="edge">
<title>Node4&#45;&gt;Node49</title>
<path fill="none" stroke="#63b8ff" d="M2199.93,-155.74C1993.55,-151.54 1374.12,-136.59 1288.63,-107 1258.8,-96.67 1260.38,-76.54 1230.63,-66 1099.33,-19.49 670.2,-15.65 520.62,-15.76"/>
<polygon fill="#63b8ff" stroke="#63b8ff" points="2199.6,-159.23 2209.67,-155.94 2199.74,-152.23 2199.6,-159.23"/>
</g>
<!-- Node56 -->
<g id="node21" class="node">
<title>Node56</title>
<g id="a_node21"><a xlink:href="d__s__logo_8h.html" target="_top" xlink:title=" ">
<polygon fill="#fff0f0" stroke="red" points="1429.13,-96 1316.13,-96 1316.13,-77 1429.13,-77 1429.13,-96"/>
<text text-anchor="middle" x="1372.63" y="-84" font-family="Helvetica,sans-Serif" font-size="10.00">include/d/s/d_s_logo.h</text>
</a>
</g>
</g>
<!-- Node4&#45;&gt;Node56 -->
<g id="edge21" class="edge">
<title>Node4&#45;&gt;Node56</title>
<path fill="none" stroke="#63b8ff" d="M2200.06,-154.93C2030.33,-149.34 1584.48,-132.61 1438.63,-107 1424.98,-104.6 1410.15,-100.37 1398.01,-96.47"/>
<polygon fill="#63b8ff" stroke="#63b8ff" points="2199.7,-158.42 2209.81,-155.25 2199.93,-151.42 2199.7,-158.42"/>
</g>
<!-- Node58 -->
<g id="node22" class="node">
<title>Node58</title>
<g id="a_node22"><a xlink:href="d__s__play_8h.html" target="_top" xlink:title=" ">
<polygon fill="#fff0f0" stroke="red" points="1560.13,-96 1447.13,-96 1447.13,-77 1560.13,-77 1560.13,-96"/>
<text text-anchor="middle" x="1503.63" y="-84" font-family="Helvetica,sans-Serif" font-size="10.00">include/d/s/d_s_play.h</text>
</a>
</g>
</g>
<!-- Node4&#45;&gt;Node58 -->
<g id="edge22" class="edge">
<title>Node4&#45;&gt;Node58</title>
<path fill="none" stroke="#63b8ff" d="M2200.23,-156.98C2075.6,-155.89 1798.53,-148.52 1569.63,-107 1556.11,-104.55 1541.42,-100.36 1529.33,-96.5"/>
<polygon fill="#63b8ff" stroke="#63b8ff" points="2199.91,-160.48 2209.94,-157.05 2199.97,-153.48 2199.91,-160.48"/>
</g>
<!-- Node62 -->
<g id="node23" class="node">
<title>Node62</title>
<g id="a_node23"><a xlink:href="d__msg__scrn__base_8h.html" target="_top" xlink:title=" ">
<polygon fill="#fff0f0" stroke="red" points="1677.13,-101.5 1578.13,-101.5 1578.13,-71.5 1677.13,-71.5 1677.13,-101.5"/>
<text text-anchor="start" x="1586.13" y="-89.5" font-family="Helvetica,sans-Serif" font-size="10.00">include/msg/scrn/d</text>
<text text-anchor="middle" x="1627.63" y="-78.5" font-family="Helvetica,sans-Serif" font-size="10.00">_msg_scrn_base.h</text>
</a>
</g>
</g>
<!-- Node4&#45;&gt;Node62 -->
<g id="edge23" class="edge">
<title>Node4&#45;&gt;Node62</title>
<path fill="none" stroke="#63b8ff" d="M2199.81,-156.28C2091.13,-153.98 1869.79,-144.62 1686.63,-107 1680.29,-105.7 1673.68,-103.93 1667.27,-102"/>
<polygon fill="#63b8ff" stroke="#63b8ff" points="2199.66,-159.77 2209.72,-156.47 2199.79,-152.78 2199.66,-159.77"/>
</g>
<!-- Node66 -->
<g id="node24" class="node">
<title>Node66</title>
<g id="a_node24"><a xlink:href="d__a__b__zant_8h.html" target="_top" xlink:title=" ">
<polygon fill="white" stroke="#666666" points="1816.13,-101.5 1695.13,-101.5 1695.13,-71.5 1816.13,-71.5 1816.13,-101.5"/>
<text text-anchor="start" x="1703.13" y="-89.5" font-family="Helvetica,sans-Serif" font-size="10.00">include/rel/d/a/b/d</text>
<text text-anchor="middle" x="1755.63" y="-78.5" font-family="Helvetica,sans-Serif" font-size="10.00">_a_b_zant/d_a_b_zant.h</text>
</a>
</g>
</g>
<!-- Node4&#45;&gt;Node66 -->
<g id="edge24" class="edge">
<title>Node4&#45;&gt;Node66</title>
<path fill="none" stroke="#63b8ff" d="M2199.93,-152.75C2113.13,-146.47 1957,-132.58 1825.63,-107 1818.44,-105.6 1810.92,-103.84 1803.59,-101.94"/>
<polygon fill="#63b8ff" stroke="#63b8ff" points="2199.46,-156.23 2209.69,-153.44 2199.96,-149.24 2199.46,-156.23"/>
</g>
<!-- Node67 -->
<g id="node25" class="node">
<title>Node67</title>
<g id="a_node25"><a xlink:href="d__a__skip__2D_8h.html" target="_top" xlink:title=" ">
<polygon fill="white" stroke="#666666" points="1958.63,-101.5 1834.63,-101.5 1834.63,-71.5 1958.63,-71.5 1958.63,-101.5"/>
<text text-anchor="start" x="1842.63" y="-89.5" font-family="Helvetica,sans-Serif" font-size="10.00">include/rel/d/a/d_a</text>
<text text-anchor="middle" x="1896.63" y="-78.5" font-family="Helvetica,sans-Serif" font-size="10.00">_skip_2D/d_a_skip_2D.h</text>
</a>
</g>
</g>
<!-- Node4&#45;&gt;Node67 -->
<g id="edge25" class="edge">
<title>Node4&#45;&gt;Node67</title>
<path fill="none" stroke="#63b8ff" d="M2199.83,-147.83C2138.99,-139 2046.82,-124.45 1967.63,-107 1960.89,-105.51 1953.83,-103.79 1946.89,-101.99"/>
<polygon fill="#63b8ff" stroke="#63b8ff" points="2199.3,-151.29 2209.7,-149.25 2200.3,-144.36 2199.3,-151.29"/>
</g>
<!-- Node68 -->
<g id="node26" class="node">
<title>Node68</title>
<g id="a_node26"><a xlink:href="d__a__spinner_8h.html" target="_top" xlink:title=" ">
<polygon fill="white" stroke="#666666" points="2092.63,-101.5 1976.63,-101.5 1976.63,-71.5 2092.63,-71.5 2092.63,-101.5"/>
<text text-anchor="start" x="1984.63" y="-89.5" font-family="Helvetica,sans-Serif" font-size="10.00">include/rel/d/a/d_a</text>
<text text-anchor="middle" x="2034.63" y="-78.5" font-family="Helvetica,sans-Serif" font-size="10.00">_spinner/d_a_spinner.h</text>
</a>
</g>
</g>
<!-- Node4&#45;&gt;Node68 -->
<g id="edge26" class="edge">
<title>Node4&#45;&gt;Node68</title>
<path fill="none" stroke="#63b8ff" d="M2207.7,-139.35C2169.07,-127.77 2119.2,-112.83 2082.92,-101.97"/>
<polygon fill="#63b8ff" stroke="#63b8ff" points="2206.24,-142.56 2216.82,-142.08 2208.25,-135.86 2206.24,-142.56"/>
</g>
<!-- Node69 -->
<g id="node27" class="node">
<title>Node69</title>
<g id="a_node27"><a xlink:href="d__a__player_8cpp.html" target="_top" xlink:title=" ">
<polygon fill="white" stroke="#666666" points="2134.63,-24.5 2020.63,-24.5 2020.63,-5.5 2134.63,-5.5 2134.63,-24.5"/>
<text text-anchor="middle" x="2077.63" y="-12.5" font-family="Helvetica,sans-Serif" font-size="10.00">src/d/a/d_a_player.cpp</text>
</a>
</g>
</g>
<!-- Node4&#45;&gt;Node69 -->
<g id="edge36" class="edge">
<title>Node4&#45;&gt;Node69</title>
<path fill="none" stroke="#63b8ff" d="M2200.54,-139.04C2179.97,-131.37 2158.12,-120.9 2140.63,-107 2111.14,-83.57 2089.88,-42.67 2081.53,-24.79"/>
<polygon fill="#63b8ff" stroke="#63b8ff" points="2199.13,-142.25 2209.72,-142.29 2201.46,-135.65 2199.13,-142.25"/>
</g>
<!-- Node70 -->
<g id="node28" class="node">
<title>Node70</title>
<g id="a_node28"><a xlink:href="d__a__obj__yobikusa_8h.html" target="_top" xlink:title=" ">
<polygon fill="white" stroke="#666666" points="2254.13,-107 2149.13,-107 2149.13,-66 2254.13,-66 2254.13,-107"/>
<text text-anchor="start" x="2157.13" y="-95" font-family="Helvetica,sans-Serif" font-size="10.00">include/rel/d/a/obj</text>
<text text-anchor="start" x="2157.13" y="-84" font-family="Helvetica,sans-Serif" font-size="10.00">/d_a_obj_yobikusa/d</text>
<text text-anchor="middle" x="2201.63" y="-73" font-family="Helvetica,sans-Serif" font-size="10.00">_a_obj_yobikusa.h</text>
</a>
</g>
</g>
<!-- Node4&#45;&gt;Node70 -->
<g id="edge29" class="edge">
<title>Node4&#45;&gt;Node70</title>
<path fill="none" stroke="#63b8ff" d="M2245.48,-134.39C2237.35,-125.69 2228.13,-115.84 2220.25,-107.42"/>
<polygon fill="#63b8ff" stroke="#63b8ff" points="2242.74,-136.58 2252.13,-141.49 2247.85,-131.8 2242.74,-136.58"/>
</g>
<!-- Node71 -->
<g id="node29" class="node">
<title>Node71</title>
<g id="a_node29"><a xlink:href="d__a__tag__telop_8h.html" target="_top" xlink:title=" ">
<polygon fill="white" stroke="#666666" points="2390.63,-107 2272.63,-107 2272.63,-66 2390.63,-66 2390.63,-107"/>
<text text-anchor="start" x="2280.63" y="-95" font-family="Helvetica,sans-Serif" font-size="10.00">include/rel/d/a/tag</text>
<text text-anchor="start" x="2280.63" y="-84" font-family="Helvetica,sans-Serif" font-size="10.00">/d_a_tag_telop/d_a_tag</text>
<text text-anchor="middle" x="2331.63" y="-73" font-family="Helvetica,sans-Serif" font-size="10.00">_telop.h</text>
</a>
</g>
</g>
<!-- Node4&#45;&gt;Node71 -->
<g id="edge30" class="edge">
<title>Node4&#45;&gt;Node71</title>
<path fill="none" stroke="#63b8ff" d="M2287.78,-134.39C2295.91,-125.69 2305.12,-115.84 2313,-107.42"/>
<polygon fill="#63b8ff" stroke="#63b8ff" points="2285.4,-131.8 2281.13,-141.49 2290.52,-136.58 2285.4,-131.8"/>
</g>
<!-- Node72 -->
<g id="node30" class="node">
<title>Node72</title>
<g id="a_node30"><a xlink:href="c__dylink_8cpp.html" target="_top" xlink:title=" ">
<polygon fill="white" stroke="#666666" points="2504.13,-96 2409.13,-96 2409.13,-77 2504.13,-77 2504.13,-96"/>
<text text-anchor="middle" x="2456.63" y="-84" font-family="Helvetica,sans-Serif" font-size="10.00">src/c/c_dylink.cpp</text>
</a>
</g>
</g>
<!-- Node4&#45;&gt;Node72 -->
<g id="edge31" class="edge">
<title>Node4&#45;&gt;Node72</title>
<path fill="none" stroke="#63b8ff" d="M2316.63,-138.71C2353.83,-125.1 2403.01,-107.11 2432.08,-96.48"/>
<polygon fill="#63b8ff" stroke="#63b8ff" points="2315.61,-135.36 2307.42,-142.08 2318.01,-141.93 2315.61,-135.36"/>
</g>
<!-- Node73 -->
<g id="node31" class="node">
<title>Node73</title>
<g id="a_node31"><a xlink:href="d__a__itembase_8cpp.html" target="_top" xlink:title=" ">
<polygon fill="white" stroke="#666666" points="2650.63,-96 2522.63,-96 2522.63,-77 2650.63,-77 2650.63,-96"/>
<text text-anchor="middle" x="2586.63" y="-84" font-family="Helvetica,sans-Serif" font-size="10.00">src/d/a/d_a_itembase.cpp</text>
</a>
</g>
</g>
<!-- Node4&#45;&gt;Node73 -->
<g id="edge33" class="edge">
<title>Node4&#45;&gt;Node73</title>
<path fill="none" stroke="#63b8ff" d="M2333.05,-144.7C2382.91,-135.19 2452.77,-121.27 2513.63,-107 2527.16,-103.82 2542.01,-99.94 2554.75,-96.47"/>
<polygon fill="#63b8ff" stroke="#63b8ff" points="2332.43,-141.25 2323.26,-146.56 2333.74,-148.13 2332.43,-141.25"/>
</g>
<!-- Node74 -->
<g id="node32" class="node">
<title>Node74</title>
<g id="a_node32"><a xlink:href="d__a__obj_8cpp.html" target="_top" xlink:title=" ">
<polygon fill="white" stroke="#666666" points="2770.13,-96 2669.13,-96 2669.13,-77 2770.13,-77 2770.13,-96"/>
<text text-anchor="middle" x="2719.63" y="-84" font-family="Helvetica,sans-Serif" font-size="10.00">src/d/a/d_a_obj.cpp</text>
</a>
</g>
</g>
<!-- Node4&#45;&gt;Node74 -->
<g id="edge34" class="edge">
<title>Node4&#45;&gt;Node74</title>
<path fill="none" stroke="#63b8ff" d="M2333.06,-152.37C2411.74,-146.01 2546.4,-132.37 2659.63,-107 2671.7,-104.29 2684.81,-100.18 2695.68,-96.42"/>
<polygon fill="#63b8ff" stroke="#63b8ff" points="2333.07,-148.86 2323.38,-153.14 2333.62,-155.84 2333.07,-148.86"/>
</g>
<!-- Node75 -->
<g id="node33" class="node">
<title>Node75</title>
<g id="a_node33"><a xlink:href="d__bg__s_8cpp.html" target="_top" xlink:title=" ">
<polygon fill="white" stroke="#666666" points="2892.63,-96 2788.63,-96 2788.63,-77 2892.63,-77 2892.63,-96"/>
<text text-anchor="middle" x="2840.63" y="-84" font-family="Helvetica,sans-Serif" font-size="10.00">src/d/bg/d_bg_s.cpp</text>
</a>
</g>
</g>
<!-- Node4&#45;&gt;Node75 -->
<g id="edge37" class="edge">
<title>Node4&#45;&gt;Node75</title>
<path fill="none" stroke="#63b8ff" d="M2333.12,-155.02C2431.58,-151.07 2621.56,-139.58 2779.63,-107 2792.04,-104.44 2805.49,-100.29 2816.6,-96.48"/>
<polygon fill="#63b8ff" stroke="#63b8ff" points="2333.23,-151.51 2323.38,-155.39 2333.5,-158.51 2333.23,-151.51"/>
</g>
<!-- Node76 -->
<g id="node34" class="node">
<title>Node76</title>
<g id="a_node34"><a xlink:href="d__bg__s__movebg__actor_8cpp.html" target="_top" xlink:title=" ">
<polygon fill="white" stroke="#666666" points="3036.63,-101.5 2910.63,-101.5 2910.63,-71.5 3036.63,-71.5 3036.63,-101.5"/>
<text text-anchor="start" x="2918.63" y="-89.5" font-family="Helvetica,sans-Serif" font-size="10.00">src/d/bg/d_bg_s_movebg</text>
<text text-anchor="middle" x="2973.63" y="-78.5" font-family="Helvetica,sans-Serif" font-size="10.00">_actor.cpp</text>
</a>
</g>
</g>
<!-- Node4&#45;&gt;Node76 -->
<g id="edge38" class="edge">
<title>Node4&#45;&gt;Node76</title>
<path fill="none" stroke="#63b8ff" d="M2333.35,-155.82C2449.6,-152.85 2696.47,-142.54 2901.63,-107 2909.28,-105.67 2917.31,-103.9 2925.1,-101.96"/>
<polygon fill="#63b8ff" stroke="#63b8ff" points="2333.27,-152.32 2323.35,-156.06 2333.44,-159.31 2333.27,-152.32"/>
</g>
<!-- Node77 -->
<g id="node35" class="node">
<title>Node77</title>
<g id="a_node35"><a xlink:href="d__bg__w_8cpp.html" target="_top" xlink:title=" ">
<polygon fill="white" stroke="#666666" points="3162.13,-96 3055.13,-96 3055.13,-77 3162.13,-77 3162.13,-96"/>
<text text-anchor="middle" x="3108.63" y="-84" font-family="Helvetica,sans-Serif" font-size="10.00">src/d/bg/d_bg_w.cpp</text>
</a>
</g>
</g>
<!-- Node4&#45;&gt;Node77 -->
<g id="edge39" class="edge">
<title>Node4&#45;&gt;Node77</title>
<path fill="none" stroke="#63b8ff" d="M2333.22,-154.75C2495.81,-148.92 2909.7,-132.04 3045.63,-107 3058.69,-104.59 3072.85,-100.37 3084.43,-96.46"/>
<polygon fill="#63b8ff" stroke="#63b8ff" points="2333.33,-151.24 2323.46,-155.09 2333.58,-158.24 2333.33,-151.24"/>
</g>
<!-- Node78 -->
<g id="node36" class="node">
<title>Node78</title>
<g id="a_node36"><a xlink:href="d__cc__s_8cpp.html" target="_top" xlink:title=" ">
<polygon fill="white" stroke="#666666" points="3284.63,-96 3180.63,-96 3180.63,-77 3284.63,-77 3284.63,-96"/>
<text text-anchor="middle" x="3232.63" y="-84" font-family="Helvetica,sans-Serif" font-size="10.00">src/d/cc/d_cc_s.cpp</text>
</a>
</g>
</g>
<!-- Node4&#45;&gt;Node78 -->
<g id="edge40" class="edge">
<title>Node4&#45;&gt;Node78</title>
<path fill="none" stroke="#63b8ff" d="M2333.34,-155.51C2514.15,-151.12 3010.74,-136.66 3171.63,-107 3184.42,-104.64 3198.26,-100.37 3209.52,-96.42"/>
<polygon fill="#63b8ff" stroke="#63b8ff" points="2333.32,-152.01 2323.41,-155.75 2333.49,-159.01 2333.32,-152.01"/>
</g>
<!-- Node79 -->
<g id="node37" class="node">
<title>Node79</title>
<g id="a_node37"><a xlink:href="d__com__static_8cpp.html" target="_top" xlink:title=" ">
<polygon fill="white" stroke="#666666" points="3442.63,-96 3302.63,-96 3302.63,-77 3442.63,-77 3442.63,-96"/>
<text text-anchor="middle" x="3372.63" y="-84" font-family="Helvetica,sans-Serif" font-size="10.00">src/d/com/d_com_static.cpp</text>
</a>
</g>
</g>
<!-- Node4&#45;&gt;Node79 -->
<g id="edge42" class="edge">
<title>Node4&#45;&gt;Node79</title>
<path fill="none" stroke="#63b8ff" d="M2333.27,-155.44C2530.19,-150.56 3107.24,-134.28 3293.63,-107 3309.84,-104.63 3327.58,-100.4 3342.14,-96.49"/>
<polygon fill="#63b8ff" stroke="#63b8ff" points="2333.38,-151.94 2323.47,-155.68 2333.56,-158.93 2333.38,-151.94"/>
</g>
<!-- Node80 -->
<g id="node38" class="node">
<title>Node80</title>
<g id="a_node38"><a xlink:href="d__attention_8cpp.html" target="_top" xlink:title=" ">
<polygon fill="white" stroke="#666666" points="3568.13,-96 3461.13,-96 3461.13,-77 3568.13,-77 3568.13,-96"/>
<text text-anchor="middle" x="3514.63" y="-84" font-family="Helvetica,sans-Serif" font-size="10.00">src/d/d_attention.cpp</text>
</a>
</g>
</g>
<!-- Node4&#45;&gt;Node80 -->
<g id="edge43" class="edge">
<title>Node4&#45;&gt;Node80</title>
<path fill="none" stroke="#63b8ff" d="M2333.38,-156.44C2550.36,-154.28 3234.21,-144.58 3451.63,-107 3464.83,-104.72 3479.12,-100.45 3490.75,-96.49"/>
<polygon fill="#63b8ff" stroke="#63b8ff" points="2333.36,-152.94 2323.4,-156.54 2333.43,-159.94 2333.36,-152.94"/>
</g>
<!-- Node4&#45;&gt;Node81 -->
<g id="edge44" class="edge">
<title>Node4&#45;&gt;Node81</title>
<path fill="none" stroke="#63b8ff" d="M2333.33,-156.09C2715.85,-150.83 4618.18,-123.92 4740.63,-107 4756.35,-104.83 4773.52,-100.51 4787.45,-96.5"/>
<polygon fill="#63b8ff" stroke="#63b8ff" points="2333.39,-152.59 2323.44,-156.23 2333.49,-159.59 2333.39,-152.59"/>
</g>
<!-- Node4&#45;&gt;Node82 -->
<g id="edge45" class="edge">
<title>Node4&#45;&gt;Node82</title>
<path fill="none" stroke="#63b8ff" d="M2199.77,-155.7C1843.15,-148.76 178.95,-115.92 126.63,-107 113.89,-104.83 100.14,-100.52 89.03,-96.5"/>
<polygon fill="#63b8ff" stroke="#63b8ff" points="2199.59,-159.2 2209.66,-155.9 2199.73,-152.2 2199.59,-159.2"/>
</g>
<!-- Node83 -->
<g id="node41" class="node">
<title>Node83</title>
<g id="a_node41"><a xlink:href="d__eye__hl_8cpp.html" target="_top" xlink:title=" ">
<polygon fill="white" stroke="#666666" points="3684.63,-96 3586.63,-96 3586.63,-77 3684.63,-77 3684.63,-96"/>
<text text-anchor="middle" x="3635.63" y="-84" font-family="Helvetica,sans-Serif" font-size="10.00">src/d/d_eye_hl.cpp</text>
</a>
</g>
</g>
<!-- Node4&#45;&gt;Node83 -->
<g id="edge47" class="edge">
<title>Node4&#45;&gt;Node83</title>
<path fill="none" stroke="#63b8ff" d="M2333.4,-156.97C2565.35,-156.47 3335.14,-151.43 3577.63,-107 3589.96,-104.74 3603.24,-100.42 3613.98,-96.42"/>
<polygon fill="#63b8ff" stroke="#63b8ff" points="2333.63,-153.47 2323.63,-156.99 2333.64,-160.47 2333.63,-153.47"/>
</g>
<!-- Node84 -->
<g id="node42" class="node">
<title>Node84</title>
<g id="a_node42"><a xlink:href="d__kyeff_8cpp.html" target="_top" xlink:title=" ">
<polygon fill="white" stroke="#666666" points="3792.63,-96 3702.63,-96 3702.63,-77 3792.63,-77 3792.63,-96"/>
<text text-anchor="middle" x="3747.63" y="-84" font-family="Helvetica,sans-Serif" font-size="10.00">src/d/d_kyeff.cpp</text>
</a>
</g>
</g>
<!-- Node4&#45;&gt;Node84 -->
<g id="edge48" class="edge">
<title>Node4&#45;&gt;Node84</title>
<path fill="none" stroke="#63b8ff" d="M2333.12,-157.4C2577.84,-158.47 3427.98,-158.31 3693.63,-107 3705.18,-104.77 3717.55,-100.45 3727.54,-96.45"/>
<polygon fill="#63b8ff" stroke="#63b8ff" points="2333.46,-153.91 2323.44,-157.36 2333.43,-160.91 2333.46,-153.91"/>
</g>
<!-- Node85 -->
<g id="node43" class="node">
<title>Node85</title>
<g id="a_node43"><a xlink:href="d__path_8cpp.html" target="_top" xlink:title=" ">
<polygon fill="white" stroke="#666666" points="3900.13,-96 3811.13,-96 3811.13,-77 3900.13,-77 3900.13,-96"/>
<text text-anchor="middle" x="3855.63" y="-84" font-family="Helvetica,sans-Serif" font-size="10.00">src/d/d_path.cpp</text>
</a>
</g>
</g>
<!-- Node4&#45;&gt;Node85 -->
<g id="edge49" class="edge">
<title>Node4&#45;&gt;Node85</title>
<path fill="none" stroke="#63b8ff" d="M2333.21,-156.06C2609.27,-152 3656.34,-134.87 3801.63,-107 3813.18,-104.78 3825.55,-100.47 3835.54,-96.46"/>
<polygon fill="#63b8ff" stroke="#63b8ff" points="2333.25,-152.56 2323.31,-156.21 2333.36,-159.56 2333.25,-152.56"/>
</g>
<!-- Node86 -->
<g id="node44" class="node">
<title>Node86</title>
<g id="a_node44"><a xlink:href="d__resorce_8cpp.html" target="_top" xlink:title=" ">
<polygon fill="white" stroke="#666666" points="4020.63,-96 3918.63,-96 3918.63,-77 4020.63,-77 4020.63,-96"/>
<text text-anchor="middle" x="3969.63" y="-84" font-family="Helvetica,sans-Serif" font-size="10.00">src/d/d_resorce.cpp</text>
</a>
</g>
</g>
<!-- Node4&#45;&gt;Node86 -->
<g id="edge50" class="edge">
<title>Node4&#45;&gt;Node86</title>
<path fill="none" stroke="#63b8ff" d="M2333.55,-156.08C2622.16,-151.98 3752.86,-134.29 3909.63,-107 3922.36,-104.78 3936.1,-100.47 3947.22,-96.46"/>
<polygon fill="#63b8ff" stroke="#63b8ff" points="2333.5,-152.58 2323.55,-156.22 2333.6,-159.58 2333.5,-152.58"/>
</g>
<!-- Node87 -->
<g id="node45" class="node">
<title>Node87</title>
<g id="a_node45"><a xlink:href="d__simple__model_8cpp.html" target="_top" xlink:title=" ">
<polygon fill="white" stroke="#666666" points="4168.63,-96 4038.63,-96 4038.63,-77 4168.63,-77 4168.63,-96"/>
<text text-anchor="middle" x="4103.63" y="-84" font-family="Helvetica,sans-Serif" font-size="10.00">src/d/d_simple_model.cpp</text>
</a>
</g>
</g>
<!-- Node4&#45;&gt;Node87 -->
<g id="edge51" class="edge">
<title>Node4&#45;&gt;Node87</title>
<path fill="none" stroke="#63b8ff" d="M2333.21,-157.15C2612.81,-157.47 3692.96,-155.48 4029.63,-107 4045.14,-104.77 4062.08,-100.45 4075.83,-96.44"/>
<polygon fill="#63b8ff" stroke="#63b8ff" points="2333.57,-153.65 2323.57,-157.14 2333.56,-160.65 2333.57,-153.65"/>
</g>
<!-- Node88 -->
<g id="node46" class="node">
<title>Node88</title>
<g id="a_node46"><a xlink:href="d__stage_8cpp.html" target="_top" xlink:title=" ">
<polygon fill="white" stroke="#666666" points="4280.63,-96 4186.63,-96 4186.63,-77 4280.63,-77 4280.63,-96"/>
<text text-anchor="middle" x="4233.63" y="-84" font-family="Helvetica,sans-Serif" font-size="10.00">src/d/d_stage.cpp</text>
</a>
</g>
</g>
<!-- Node4&#45;&gt;Node88 -->
<g id="edge52" class="edge">
<title>Node4&#45;&gt;Node88</title>
<path fill="none" stroke="#63b8ff" d="M2333.33,-156.47C2649.96,-153.81 3993.5,-140.62 4177.63,-107 4189.58,-104.82 4202.41,-100.5 4212.77,-96.49"/>
<polygon fill="#63b8ff" stroke="#63b8ff" points="2333.56,-152.97 2323.58,-156.56 2333.61,-159.97 2333.56,-152.97"/>
</g>
<!-- Node4&#45;&gt;Node92 -->
<g id="edge55" class="edge">
<title>Node4&#45;&gt;Node92</title>
<path fill="none" stroke="#63b8ff" d="M2200.34,-155.84C1863.31,-149.89 351.77,-122.44 253.63,-107 246.07,-105.81 238.17,-104 230.57,-101.95"/>
<polygon fill="#63b8ff" stroke="#63b8ff" points="2199.8,-159.33 2209.86,-156.01 2199.92,-152.33 2199.8,-159.33"/>
</g>
<!-- Node17&#45;&gt;Node14 -->
<g id="edge7" class="edge">
<title>Node17&#45;&gt;Node14</title>
<path fill="none" stroke="#63b8ff" d="M4581.38,-72.64C4573.44,-69.93 4564.83,-67.45 4556.63,-66 4278.12,-16.87 2294.35,-36.76 2011.63,-30 1882.13,-26.91 1730.03,-21.28 1650.46,-18.19"/>
<polygon fill="#63b8ff" stroke="#63b8ff" points="4580.03,-75.87 4590.62,-76.03 4582.44,-69.3 4580.03,-75.87"/>
</g>
<!-- Node17&#45;&gt;Node18 -->
<g id="edge8" class="edge">
<title>Node17&#45;&gt;Node18</title>
<path fill="none" stroke="#63b8ff" d="M4609.49,-65.71C4607.37,-52.29 4604.67,-35.2 4603.04,-24.95"/>
<polygon fill="#63b8ff" stroke="#63b8ff" points="4605.98,-65.87 4611,-75.2 4612.89,-64.78 4605.98,-65.87"/>
</g>
<!-- Node17&#45;&gt;Node19 -->
<g id="edge9" class="edge">
<title>Node17&#45;&gt;Node19</title>
<path fill="none" stroke="#63b8ff" d="M4638.51,-70.99C4659.73,-59.1 4689.61,-42.35 4710.81,-30.47"/>
<polygon fill="#63b8ff" stroke="#63b8ff" points="4636.92,-67.87 4629.9,-75.82 4640.34,-73.98 4636.92,-67.87"/>
</g>
<!-- Node42&#45;&gt;Node14 -->
<g id="edge17" class="edge">
<title>Node42&#45;&gt;Node14</title>
<path fill="none" stroke="#63b8ff" d="M480.12,-68.33C483.99,-67.43 487.85,-66.64 491.63,-66 696.86,-31.12 1347.4,-19.45 1540.86,-16.7"/>
<polygon fill="#63b8ff" stroke="#63b8ff" points="479.58,-64.86 470.74,-70.71 481.3,-71.64 479.58,-64.86"/>
</g>
<!-- Node42&#45;&gt;Node47 -->
<g id="edge18" class="edge">
<title>Node42&#45;&gt;Node47</title>
<path fill="none" stroke="#63b8ff" d="M402.74,-63.36C388.56,-50.23 371.39,-34.31 360.99,-24.68"/>
<polygon fill="#63b8ff" stroke="#63b8ff" points="400.26,-65.84 409.98,-70.07 405.02,-60.71 400.26,-65.84"/>
</g>
<!-- Node42&#45;&gt;Node48 -->
<g id="edge19" class="edge">
<title>Node42&#45;&gt;Node48</title>
<path fill="none" stroke="#63b8ff" d="M374.23,-67.38C334.82,-53.76 282.48,-35.66 251.59,-24.98"/>
<polygon fill="#63b8ff" stroke="#63b8ff" points="372.95,-70.64 383.55,-70.6 375.24,-64.03 372.95,-70.64"/>
</g>
<!-- Node42&#45;&gt;Node49 -->
<g id="edge20" class="edge">
<title>Node42&#45;&gt;Node49</title>
<path fill="none" stroke="#63b8ff" d="M441.2,-61.38C447.45,-51.05 454.53,-39.32 459.94,-30.38"/>
<polygon fill="#63b8ff" stroke="#63b8ff" points="438.29,-59.44 436.11,-69.8 444.28,-63.06 438.29,-59.44"/>
</g>
<!-- Node68&#45;&gt;Node14 -->
<g id="edge27" class="edge">
<title>Node68&#45;&gt;Node14</title>
<path fill="none" stroke="#63b8ff" d="M1977.28,-68.2C1974.03,-67.41 1970.79,-66.67 1967.63,-66 1856.22,-42.44 1723.57,-27.75 1650.59,-20.79"/>
<polygon fill="#63b8ff" stroke="#63b8ff" points="1976.34,-71.57 1986.89,-70.68 1978.08,-64.8 1976.34,-71.57"/>
</g>
<!-- Node68&#45;&gt;Node69 -->
<g id="edge28" class="edge">
<title>Node68&#45;&gt;Node69</title>
<path fill="none" stroke="#63b8ff" d="M2049.48,-61.49C2057.37,-48.74 2066.58,-33.86 2072.26,-24.68"/>
<polygon fill="#63b8ff" stroke="#63b8ff" points="2046.62,-59.47 2044.33,-69.81 2052.57,-63.15 2046.62,-59.47"/>
</g>
</g>
</svg>
