<?xml version="1.0" encoding="UTF-8" standalone="no"?>
<!DOCTYPE svg PUBLIC "-//W3C//DTD SVG 1.1//EN"
 "http://www.w3.org/Graphics/SVG/1.1/DTD/svg11.dtd">
<!-- Generated by graphviz version 7.0.4 (20221203.1631)
 -->
<!-- Title: include/d/cc/d_cc_d.h Pages: 1 -->
<svg width="3951pt" height="379pt"
 viewBox="0.00 0.00 3951.37 379.00" xmlns="http://www.w3.org/2000/svg" xmlns:xlink="http://www.w3.org/1999/xlink">
<g id="graph0" class="graph" transform="scale(1 1) rotate(0) translate(4 375)">
<title>include/d/cc/d_cc_d.h</title>
<!-- Node1 -->
<g id="node1" class="node">
<title>Node1</title>
<g id="a_node1"><a xlink:title=" ">
<polygon fill="#999999" stroke="#666666" points="3309.37,-371 3198.37,-371 3198.37,-352 3309.37,-352 3309.37,-371"/>
<text text-anchor="middle" x="3253.87" y="-359" font-family="Helvetica,sans-Serif" font-size="10.00">include/d/cc/d_cc_d.h</text>
</a>
</g>
</g>
<!-- Node2 -->
<g id="node2" class="node">
<title>Node2</title>
<g id="a_node2"><a xlink:href="d__a__alink_8h.html" target="_top" xlink:title=" ">
<polygon fill="white" stroke="#666666" points="3190.87,-244.5 3074.87,-244.5 3074.87,-225.5 3190.87,-225.5 3190.87,-244.5"/>
<text text-anchor="middle" x="3132.87" y="-232.5" font-family="Helvetica,sans-Serif" font-size="10.00">include/d/a/d_a_alink.h</text>
</a>
</g>
</g>
<!-- Node1&#45;&gt;Node2 -->
<g id="edge1" class="edge">
<title>Node1&#45;&gt;Node2</title>
<path fill="none" stroke="#63b8ff" d="M3201.01,-347.88C3183.09,-341.16 3164.45,-331.05 3151.87,-316 3134.39,-295.08 3132.42,-260.84 3132.54,-244.81"/>
<polygon fill="#63b8ff" stroke="#63b8ff" points="3199.69,-351.13 3210.29,-351.06 3201.96,-344.51 3199.69,-351.13"/>
</g>
<!-- Node108 -->
<g id="node33" class="node">
<title>Node108</title>
<g id="a_node33"><a xlink:href="d__a__itembase_8h.html" target="_top" xlink:title=" ">
<polygon fill="white" stroke="#666666" points="1547.37,-310.5 1412.37,-310.5 1412.37,-291.5 1547.37,-291.5 1547.37,-310.5"/>
<text text-anchor="middle" x="1479.87" y="-298.5" font-family="Helvetica,sans-Serif" font-size="10.00">include/d/a/d_a_itembase.h</text>
</a>
</g>
</g>
<!-- Node1&#45;&gt;Node108 -->
<g id="edge38" class="edge">
<title>Node1&#45;&gt;Node108</title>
<path fill="none" stroke="#63b8ff" d="M3187.17,-358.3C2907.28,-349.07 1829.19,-313.52 1547.52,-304.23"/>
<polygon fill="#63b8ff" stroke="#63b8ff" points="3186.72,-361.79 3196.83,-358.62 3186.95,-354.79 3186.72,-361.79"/>
</g>
<!-- Node119 -->
<g id="node38" class="node">
<title>Node119</title>
<g id="a_node38"><a xlink:href="d__cc__s_8h.html" target="_top" xlink:title=" ">
<polygon fill="white" stroke="#666666" points="1784.37,-244.5 1673.37,-244.5 1673.37,-225.5 1784.37,-225.5 1784.37,-244.5"/>
<text text-anchor="middle" x="1728.87" y="-232.5" font-family="Helvetica,sans-Serif" font-size="10.00">include/d/cc/d_cc_s.h</text>
</a>
</g>
</g>
<!-- Node1&#45;&gt;Node119 -->
<g id="edge46" class="edge">
<title>Node1&#45;&gt;Node119</title>
<path fill="none" stroke="#63b8ff" d="M3186.93,-355.04C2931.43,-334.18 2020.17,-259.78 1784.72,-240.56"/>
<polygon fill="#63b8ff" stroke="#63b8ff" points="3186.48,-358.51 3196.74,-355.84 3187.05,-351.53 3186.48,-358.51"/>
</g>
<!-- Node120 -->
<g id="node39" class="node">
<title>Node120</title>
<g id="a_node39"><a xlink:href="d__bomb_8h.html" target="_top" xlink:title=" ">
<polygon fill="white" stroke="#666666" points="3560.37,-310.5 3459.37,-310.5 3459.37,-291.5 3560.37,-291.5 3560.37,-310.5"/>
<text text-anchor="middle" x="3509.87" y="-298.5" font-family="Helvetica,sans-Serif" font-size="10.00">include/d/d_bomb.h</text>
</a>
</g>
</g>
<!-- Node1&#45;&gt;Node120 -->
<g id="edge49" class="edge">
<title>Node1&#45;&gt;Node120</title>
<path fill="none" stroke="#63b8ff" d="M3304.89,-349.01C3344.46,-340.07 3400.66,-327.33 3449.87,-316 3456.86,-314.39 3464.3,-312.67 3471.47,-311"/>
<polygon fill="#63b8ff" stroke="#63b8ff" points="3304.14,-345.59 3295.16,-351.2 3305.68,-352.41 3304.14,-345.59"/>
</g>
<!-- Node122 -->
<g id="node41" class="node">
<title>Node122</title>
<g id="a_node41"><a xlink:href="d__a__arrow_8h.html" target="_top" xlink:title=" ">
<polygon fill="white" stroke="#666666" points="3104.37,-316 3003.37,-316 3003.37,-286 3104.37,-286 3104.37,-316"/>
<text text-anchor="start" x="3011.37" y="-304" font-family="Helvetica,sans-Serif" font-size="10.00">include/rel/d/a/d_a</text>
<text text-anchor="middle" x="3053.87" y="-293" font-family="Helvetica,sans-Serif" font-size="10.00">_arrow/d_a_arrow.h</text>
</a>
</g>
</g>
<!-- Node1&#45;&gt;Node122 -->
<g id="edge52" class="edge">
<title>Node1&#45;&gt;Node122</title>
<path fill="none" stroke="#63b8ff" d="M3212.81,-348.49C3181.04,-339.2 3136.93,-326.29 3103.24,-316.44"/>
<polygon fill="#63b8ff" stroke="#63b8ff" points="3211.47,-351.74 3222.05,-351.19 3213.43,-345.02 3211.47,-351.74"/>
</g>
<!-- Node123 -->
<g id="node42" class="node">
<title>Node123</title>
<g id="a_node42"><a xlink:href="d__a__boomerang_8h.html" target="_top" xlink:title=" ">
<polygon fill="white" stroke="#666666" points="620.37,-250 471.37,-250 471.37,-220 620.37,-220 620.37,-250"/>
<text text-anchor="start" x="479.37" y="-238" font-family="Helvetica,sans-Serif" font-size="10.00">include/rel/d/a/d_a</text>
<text text-anchor="middle" x="545.87" y="-227" font-family="Helvetica,sans-Serif" font-size="10.00">_boomerang/d_a_boomerang.h</text>
</a>
</g>
</g>
<!-- Node1&#45;&gt;Node123 -->
<g id="edge53" class="edge">
<title>Node1&#45;&gt;Node123</title>
<path fill="none" stroke="#63b8ff" d="M3186.8,-360.56C2945.57,-360.41 2099.44,-356.84 1402.87,-316 1113.1,-299.01 769.65,-261.74 620.83,-244.75"/>
<polygon fill="#63b8ff" stroke="#63b8ff" points="3186.65,-364.06 3196.65,-360.56 3186.65,-357.06 3186.65,-364.06"/>
</g>
<!-- Node124 -->
<g id="node43" class="node">
<title>Node124</title>
<g id="a_node43"><a xlink:href="d__a__canoe_8h.html" target="_top" xlink:title=" ">
<polygon fill="white" stroke="#666666" points="3266.87,-316 3160.87,-316 3160.87,-286 3266.87,-286 3266.87,-316"/>
<text text-anchor="start" x="3168.87" y="-304" font-family="Helvetica,sans-Serif" font-size="10.00">include/rel/d/a/d_a</text>
<text text-anchor="middle" x="3213.87" y="-293" font-family="Helvetica,sans-Serif" font-size="10.00">_canoe/d_a_canoe.h</text>
</a>
</g>
</g>
<!-- Node1&#45;&gt;Node124 -->
<g id="edge55" class="edge">
<title>Node1&#45;&gt;Node124</title>
<path fill="none" stroke="#63b8ff" d="M3241.56,-342.5C3235.76,-334.01 3228.94,-324.04 3223.53,-316.11"/>
<polygon fill="#63b8ff" stroke="#63b8ff" points="3238.58,-344.34 3247.12,-350.62 3244.36,-340.39 3238.58,-344.34"/>
</g>
<!-- Node125 -->
<g id="node44" class="node">
<title>Node125</title>
<g id="a_node44"><a xlink:href="d__a__crod_8h.html" target="_top" xlink:title=" ">
<polygon fill="white" stroke="#666666" points="3792.87,-178.5 3696.87,-178.5 3696.87,-148.5 3792.87,-148.5 3792.87,-178.5"/>
<text text-anchor="start" x="3704.87" y="-166.5" font-family="Helvetica,sans-Serif" font-size="10.00">include/rel/d/a/d_a</text>
<text text-anchor="middle" x="3744.87" y="-155.5" font-family="Helvetica,sans-Serif" font-size="10.00">_crod/d_a_crod.h</text>
</a>
</g>
</g>
<!-- Node1&#45;&gt;Node125 -->
<g id="edge56" class="edge">
<title>Node1&#45;&gt;Node125</title>
<path fill="none" stroke="#63b8ff" d="M3321.11,-356.73C3405.72,-351.11 3545.57,-338.69 3591.87,-316 3658.67,-283.26 3714.07,-209.88 3735.43,-178.82"/>
<polygon fill="#63b8ff" stroke="#63b8ff" points="3321.07,-353.22 3311.32,-357.36 3321.52,-360.21 3321.07,-353.22"/>
</g>
<!-- Node126 -->
<g id="node45" class="node">
<title>Node126</title>
<g id="a_node45"><a xlink:href="d__a__cstatue_8h.html" target="_top" xlink:title=" ">
<polygon fill="white" stroke="#666666" points="3440.87,-316 3322.87,-316 3322.87,-286 3440.87,-286 3440.87,-316"/>
<text text-anchor="start" x="3330.87" y="-304" font-family="Helvetica,sans-Serif" font-size="10.00">include/rel/d/a/d_a</text>
<text text-anchor="middle" x="3381.87" y="-293" font-family="Helvetica,sans-Serif" font-size="10.00">_cstatue/d_a_cstatue.h</text>
</a>
</g>
</g>
<!-- Node1&#45;&gt;Node126 -->
<g id="edge58" class="edge">
<title>Node1&#45;&gt;Node126</title>
<path fill="none" stroke="#63b8ff" d="M3283.69,-346.87C3303.67,-337.74 3329.94,-325.74 3350.28,-316.44"/>
<polygon fill="#63b8ff" stroke="#63b8ff" points="3282.33,-343.65 3274.69,-350.99 3285.24,-350.01 3282.33,-343.65"/>
</g>
<!-- Node127 -->
<g id="node46" class="node">
<title>Node127</title>
<g id="a_node46"><a xlink:href="d__a__horse_8h.html" target="_top" xlink:title=" ">
<polygon fill="white" stroke="#666666" points="3138.37,-178.5 3037.37,-178.5 3037.37,-148.5 3138.37,-148.5 3138.37,-178.5"/>
<text text-anchor="start" x="3045.37" y="-166.5" font-family="Helvetica,sans-Serif" font-size="10.00">include/rel/d/a/d_a</text>
<text text-anchor="middle" x="3087.87" y="-155.5" font-family="Helvetica,sans-Serif" font-size="10.00">_horse/d_a_horse.h</text>
</a>
</g>
</g>
<!-- Node1&#45;&gt;Node127 -->
<g id="edge59" class="edge">
<title>Node1&#45;&gt;Node127</title>
<path fill="none" stroke="#63b8ff" d="M3187.05,-358.48C3118.64,-354.84 3019,-344.63 2994.87,-316 2956.29,-270.22 3029.59,-206.82 3067.36,-178.8"/>
<polygon fill="#63b8ff" stroke="#63b8ff" points="3186.5,-361.96 3196.66,-358.95 3186.84,-354.97 3186.5,-361.96"/>
</g>
<!-- Node128 -->
<g id="node47" class="node">
<title>Node128</title>
<g id="a_node47"><a xlink:href="d__a__mg__rod_8h.html" target="_top" xlink:title=" ">
<polygon fill="white" stroke="#666666" points="3678.87,-178.5 3560.87,-178.5 3560.87,-148.5 3678.87,-148.5 3678.87,-178.5"/>
<text text-anchor="start" x="3568.87" y="-166.5" font-family="Helvetica,sans-Serif" font-size="10.00">include/rel/d/a/d_a</text>
<text text-anchor="middle" x="3619.87" y="-155.5" font-family="Helvetica,sans-Serif" font-size="10.00">_mg_rod/d_a_mg_rod.h</text>
</a>
</g>
</g>
<!-- Node1&#45;&gt;Node128 -->
<g id="edge63" class="edge">
<title>Node1&#45;&gt;Node128</title>
<path fill="none" stroke="#63b8ff" d="M3320.91,-359.17C3402.28,-356.2 3533.17,-346.66 3569.87,-316 3591.45,-297.98 3610.25,-213.27 3617.11,-178.97"/>
<polygon fill="#63b8ff" stroke="#63b8ff" points="3321.16,-355.66 3311.29,-359.5 3321.4,-362.66 3321.16,-355.66"/>
</g>
<!-- Node129 -->
<g id="node48" class="node">
<title>Node129</title>
<g id="a_node48"><a xlink:href="d__a__obj__carry_8h.html" target="_top" xlink:title=" ">
<polygon fill="white" stroke="#666666" points="3352.87,-184 3236.87,-184 3236.87,-143 3352.87,-143 3352.87,-184"/>
<text text-anchor="start" x="3244.87" y="-172" font-family="Helvetica,sans-Serif" font-size="10.00">include/rel/d/a/obj</text>
<text text-anchor="start" x="3244.87" y="-161" font-family="Helvetica,sans-Serif" font-size="10.00">/d_a_obj_carry/d_a_obj</text>
<text text-anchor="middle" x="3294.87" y="-150" font-family="Helvetica,sans-Serif" font-size="10.00">_carry.h</text>
</a>
</g>
</g>
<!-- Node1&#45;&gt;Node129 -->
<g id="edge65" class="edge">
<title>Node1&#45;&gt;Node129</title>
<path fill="none" stroke="#63b8ff" d="M3264.96,-341.62C3269.01,-333.91 3273.24,-324.76 3275.87,-316 3289.68,-270.05 3293.46,-213.34 3294.49,-184.06"/>
<polygon fill="#63b8ff" stroke="#63b8ff" points="3261.9,-339.9 3260.09,-350.34 3268.02,-343.31 3261.9,-339.9"/>
</g>
<!-- Node130 -->
<g id="node49" class="node">
<title>Node130</title>
<g id="a_node49"><a xlink:href="d__cc__d__nonmatching_8cpp.html" target="_top" xlink:title=" ">
<polygon fill="white" stroke="#666666" points="3820.37,-310.5 3655.37,-310.5 3655.37,-291.5 3820.37,-291.5 3820.37,-310.5"/>
<text text-anchor="middle" x="3737.87" y="-298.5" font-family="Helvetica,sans-Serif" font-size="10.00">src/d/cc/d_cc_d_nonmatching.cpp</text>
</a>
</g>
</g>
<!-- Node1&#45;&gt;Node130 -->
<g id="edge69" class="edge">
<title>Node1&#45;&gt;Node130</title>
<path fill="none" stroke="#63b8ff" d="M3320.68,-353.41C3397.88,-345.08 3528.69,-330.54 3640.87,-316 3652.77,-314.46 3665.47,-312.7 3677.63,-310.97"/>
<polygon fill="#63b8ff" stroke="#63b8ff" points="3320.76,-349.88 3311.2,-354.43 3321.51,-356.84 3320.76,-349.88"/>
</g>
<!-- Node131 -->
<g id="node50" class="node">
<title>Node131</title>
<g id="a_node50"><a xlink:href="d__cc__mass__s_8cpp.html" target="_top" xlink:title=" ">
<polygon fill="white" stroke="#666666" points="3943.37,-316 3838.37,-316 3838.37,-286 3943.37,-286 3943.37,-316"/>
<text text-anchor="start" x="3846.37" y="-304" font-family="Helvetica,sans-Serif" font-size="10.00">src/d/cc/d_cc_mass</text>
<text text-anchor="middle" x="3890.87" y="-293" font-family="Helvetica,sans-Serif" font-size="10.00">_s.cpp</text>
</a>
</g>
</g>
<!-- Node1&#45;&gt;Node131 -->
<g id="edge70" class="edge">
<title>Node1&#45;&gt;Node131</title>
<path fill="none" stroke="#63b8ff" d="M3321.14,-358.54C3429.02,-354.67 3647.15,-343.87 3829.87,-316 3832.56,-315.59 3835.3,-315.13 3838.07,-314.63"/>
<polygon fill="#63b8ff" stroke="#63b8ff" points="3321.18,-355.04 3311.3,-358.88 3321.42,-362.03 3321.18,-355.04"/>
</g>
<!-- Node3 -->
<g id="node3" class="node">
<title>Node3</title>
<g id="a_node3"><a xlink:href="d__com__inf__game_8h.html" target="_top" xlink:title=" ">
<polygon fill="#fff0f0" stroke="red" points="1755.87,-178.5 1645.87,-178.5 1645.87,-148.5 1755.87,-148.5 1755.87,-178.5"/>
<text text-anchor="start" x="1653.87" y="-166.5" font-family="Helvetica,sans-Serif" font-size="10.00">include/d/com/d_com</text>
<text text-anchor="middle" x="1700.87" y="-155.5" font-family="Helvetica,sans-Serif" font-size="10.00">_inf_game.h</text>
</a>
</g>
</g>
<!-- Node2&#45;&gt;Node3 -->
<g id="edge2" class="edge">
<title>Node2&#45;&gt;Node3</title>
<path fill="none" stroke="#63b8ff" d="M3063.17,-230.62C2815.37,-218.59 1979.96,-178.04 1756.33,-167.19"/>
<polygon fill="#63b8ff" stroke="#63b8ff" points="3062.85,-234.11 3073.01,-231.09 3063.19,-227.11 3062.85,-234.11"/>
</g>
<!-- Node13 -->
<g id="node8" class="node">
<title>Node13</title>
<g id="a_node8"><a xlink:href="d__a__alink_8cpp.html" target="_top" xlink:title=" ">
<polygon fill="white" stroke="#666666" points="3492.37,-24.5 3383.37,-24.5 3383.37,-5.5 3492.37,-5.5 3492.37,-24.5"/>
<text text-anchor="middle" x="3437.87" y="-12.5" font-family="Helvetica,sans-Serif" font-size="10.00">src/d/a/d_a_alink.cpp</text>
</a>
</g>
</g>
<!-- Node2&#45;&gt;Node13 -->
<g id="edge37" class="edge">
<title>Node2&#45;&gt;Node13</title>
<path fill="none" stroke="#63b8ff" d="M3202.29,-227.81C3249.29,-221.51 3311.72,-208.93 3361.87,-184 3409.01,-160.57 3429.86,-154.82 3451.87,-107 3464.71,-79.12 3450.42,-41.87 3442.47,-24.99"/>
<polygon fill="#63b8ff" stroke="#63b8ff" points="3201.98,-224.32 3192.5,-229.05 3202.86,-231.27 3201.98,-224.32"/>
</g>
<!-- Node4 -->
<g id="node4" class="node">
<title>Node4</title>
<g id="a_node4"><a xlink:href="d__a__npc_8h.html" target="_top" xlink:title=" ">
<polygon fill="#fff0f0" stroke="red" points="1226.37,-96 1115.37,-96 1115.37,-77 1226.37,-77 1226.37,-96"/>
<text text-anchor="middle" x="1170.87" y="-84" font-family="Helvetica,sans-Serif" font-size="10.00">include/d/a/d_a_npc.h</text>
</a>
</g>
</g>
<!-- Node3&#45;&gt;Node4 -->
<g id="edge3" class="edge">
<title>Node3&#45;&gt;Node4</title>
<path fill="none" stroke="#63b8ff" d="M1634.43,-148.08C1624.55,-146.2 1614.47,-144.44 1604.87,-143 1441.92,-118.57 1397.55,-138.82 1235.87,-107 1222.7,-104.41 1208.37,-100.26 1196.52,-96.45"/>
<polygon fill="#63b8ff" stroke="#63b8ff" points="1633.49,-151.46 1643.97,-149.94 1634.83,-144.59 1633.49,-151.46"/>
</g>
<!-- Node10 -->
<g id="node5" class="node">
<title>Node10</title>
<g id="a_node5"><a xlink:href="d__cc__uty_8h.html" target="_top" xlink:title=" ">
<polygon fill="#fff0f0" stroke="red" points="2520.37,-96 2401.37,-96 2401.37,-77 2520.37,-77 2520.37,-96"/>
<text text-anchor="middle" x="2460.87" y="-84" font-family="Helvetica,sans-Serif" font-size="10.00">include/d/cc/d_cc_uty.h</text>
</a>
</g>
</g>
<!-- Node3&#45;&gt;Node10 -->
<g id="edge4" class="edge">
<title>Node3&#45;&gt;Node10</title>
<path fill="none" stroke="#63b8ff" d="M1767.24,-161.56C1891.16,-158.84 2165.76,-148.25 2392.87,-107 2406.77,-104.48 2421.9,-100.28 2434.36,-96.43"/>
<polygon fill="#63b8ff" stroke="#63b8ff" points="1767.51,-158.05 1757.59,-161.76 1767.66,-165.05 1767.51,-158.05"/>
</g>
<!-- Node16 -->
<g id="node7" class="node">
<title>Node16</title>
<g id="a_node7"><a xlink:href="d__item_8h.html" target="_top" xlink:title=" ">
<polygon fill="#fff0f0" stroke="red" points="1512.37,-96 1417.37,-96 1417.37,-77 1512.37,-77 1512.37,-96"/>
<text text-anchor="middle" x="1464.87" y="-84" font-family="Helvetica,sans-Serif" font-size="10.00">include/d/d_item.h</text>
</a>
</g>
</g>
<!-- Node3&#45;&gt;Node16 -->
<g id="edge6" class="edge">
<title>Node3&#45;&gt;Node16</title>
<path fill="none" stroke="#63b8ff" d="M1641.64,-144.82C1606.45,-134.17 1561,-120.17 1520.87,-107 1510.7,-103.66 1499.55,-99.82 1489.9,-96.43"/>
<polygon fill="#63b8ff" stroke="#63b8ff" points="1640.18,-148.04 1650.76,-147.58 1642.2,-141.34 1640.18,-148.04"/>
</g>
<!-- Node3&#45;&gt;Node13 -->
<g id="edge28" class="edge">
<title>Node3&#45;&gt;Node13</title>
<path fill="none" stroke="#63b8ff" d="M1767.42,-161.97C1988.05,-159.82 2686.65,-149.66 2777.87,-107 2800.38,-96.48 2793.52,-76.85 2815.87,-66 2915.17,-17.82 3250.41,-14.66 3383.13,-15.38"/>
<polygon fill="#63b8ff" stroke="#63b8ff" points="1767.53,-158.47 1757.56,-162.06 1767.59,-165.47 1767.53,-158.47"/>
</g>
<!-- Node17 -->
<g id="node9" class="node">
<title>Node17</title>
<g id="a_node9"><a xlink:href="d__a__obj__item_8cpp.html" target="_top" xlink:title=" ">
<polygon fill="white" stroke="#666666" points="1489.37,-24.5 1364.37,-24.5 1364.37,-5.5 1489.37,-5.5 1489.37,-24.5"/>
<text text-anchor="middle" x="1426.87" y="-12.5" font-family="Helvetica,sans-Serif" font-size="10.00">src/d/a/d_a_obj_item.cpp</text>
</a>
</g>
</g>
<!-- Node3&#45;&gt;Node17 -->
<g id="edge31" class="edge">
<title>Node3&#45;&gt;Node17</title>
<path fill="none" stroke="#63b8ff" d="M1634.49,-148.84C1624.57,-146.85 1614.46,-144.85 1604.87,-143 1561.18,-134.57 1436.37,-141.18 1407.87,-107 1387.72,-82.83 1409.29,-42.68 1420.72,-24.92"/>
<polygon fill="#63b8ff" stroke="#63b8ff" points="1633.6,-152.23 1644.09,-150.78 1634.98,-145.37 1633.6,-152.23"/>
</g>
<!-- Node21 -->
<g id="node10" class="node">
<title>Node21</title>
<g id="a_node10"><a xlink:href="d__kantera__icon__meter_8h.html" target="_top" xlink:title=" ">
<polygon fill="#fff0f0" stroke="red" points="1631.37,-101.5 1530.37,-101.5 1530.37,-71.5 1631.37,-71.5 1631.37,-101.5"/>
<text text-anchor="start" x="1538.37" y="-89.5" font-family="Helvetica,sans-Serif" font-size="10.00">include/d/d_kantera</text>
<text text-anchor="middle" x="1580.87" y="-78.5" font-family="Helvetica,sans-Serif" font-size="10.00">_icon_meter.h</text>
</a>
</g>
</g>
<!-- Node3&#45;&gt;Node21 -->
<g id="edge9" class="edge">
<title>Node3&#45;&gt;Node21</title>
<path fill="none" stroke="#63b8ff" d="M1668.23,-142.1C1647.88,-129.38 1622.18,-113.32 1603.94,-101.92"/>
<polygon fill="#63b8ff" stroke="#63b8ff" points="1666.12,-144.91 1676.45,-147.24 1669.83,-138.97 1666.12,-144.91"/>
</g>
<!-- Node24 -->
<g id="node11" class="node">
<title>Node24</title>
<g id="a_node11"><a xlink:href="d__model_8h.html" target="_top" xlink:title=" ">
<polygon fill="#fff0f0" stroke="red" points="1752.37,-96 1649.37,-96 1649.37,-77 1752.37,-77 1752.37,-96"/>
<text text-anchor="middle" x="1700.87" y="-84" font-family="Helvetica,sans-Serif" font-size="10.00">include/d/d_model.h</text>
</a>
</g>
</g>
<!-- Node3&#45;&gt;Node24 -->
<g id="edge10" class="edge">
<title>Node3&#45;&gt;Node24</title>
<path fill="none" stroke="#63b8ff" d="M1700.87,-136.56C1700.87,-122.54 1700.87,-106.13 1700.87,-96.29"/>
<polygon fill="#63b8ff" stroke="#63b8ff" points="1697.37,-136.53 1700.87,-146.53 1704.37,-136.53 1697.37,-136.53"/>
</g>
<!-- Node26 -->
<g id="node12" class="node">
<title>Node26</title>
<g id="a_node12"><a xlink:href="d__name_8h.html" target="_top" xlink:title=" ">
<polygon fill="#fff0f0" stroke="red" points="1871.37,-96 1770.37,-96 1770.37,-77 1871.37,-77 1871.37,-96"/>
<text text-anchor="middle" x="1820.87" y="-84" font-family="Helvetica,sans-Serif" font-size="10.00">include/d/d_name.h</text>
</a>
</g>
</g>
<!-- Node3&#45;&gt;Node26 -->
<g id="edge11" class="edge">
<title>Node3&#45;&gt;Node26</title>
<path fill="none" stroke="#63b8ff" d="M1733.77,-141.94C1757.74,-126.96 1789,-107.42 1806.82,-96.29"/>
<polygon fill="#63b8ff" stroke="#63b8ff" points="1731.92,-138.97 1725.3,-147.24 1735.63,-144.91 1731.92,-138.97"/>
</g>
<!-- Node28 -->
<g id="node13" class="node">
<title>Node28</title>
<g id="a_node13"><a xlink:href="d__file__sel__info_8h.html" target="_top" xlink:title=" ">
<polygon fill="#fff0f0" stroke="red" points="1985.87,-101.5 1889.87,-101.5 1889.87,-71.5 1985.87,-71.5 1985.87,-101.5"/>
<text text-anchor="start" x="1897.87" y="-89.5" font-family="Helvetica,sans-Serif" font-size="10.00">include/d/file/d_file</text>
<text text-anchor="middle" x="1937.87" y="-78.5" font-family="Helvetica,sans-Serif" font-size="10.00">_sel_info.h</text>
</a>
</g>
</g>
<!-- Node3&#45;&gt;Node28 -->
<g id="edge12" class="edge">
<title>Node3&#45;&gt;Node28</title>
<path fill="none" stroke="#63b8ff" d="M1759.71,-144.85C1794.95,-134.16 1840.57,-120.1 1880.87,-107 1885.85,-105.38 1891.05,-103.65 1896.21,-101.92"/>
<polygon fill="#63b8ff" stroke="#63b8ff" points="1759.14,-141.37 1750.58,-147.62 1761.17,-148.07 1759.14,-141.37"/>
</g>
<!-- Node31 -->
<g id="node14" class="node">
<title>Node31</title>
<g id="a_node14"><a xlink:href="d__file__sel__warning_8h.html" target="_top" xlink:title=" ">
<polygon fill="#fff0f0" stroke="red" points="2099.87,-101.5 2003.87,-101.5 2003.87,-71.5 2099.87,-71.5 2099.87,-101.5"/>
<text text-anchor="start" x="2011.87" y="-89.5" font-family="Helvetica,sans-Serif" font-size="10.00">include/d/file/d_file</text>
<text text-anchor="middle" x="2051.87" y="-78.5" font-family="Helvetica,sans-Serif" font-size="10.00">_sel_warning.h</text>
</a>
</g>
</g>
<!-- Node3&#45;&gt;Node31 -->
<g id="edge13" class="edge">
<title>Node3&#45;&gt;Node31</title>
<path fill="none" stroke="#63b8ff" d="M1767.33,-152.74C1827.32,-143.27 1917.73,-127.36 1994.87,-107 2000.44,-105.53 2006.24,-103.79 2011.92,-101.97"/>
<polygon fill="#63b8ff" stroke="#63b8ff" points="1766.96,-149.25 1757.62,-154.26 1768.04,-156.17 1766.96,-149.25"/>
</g>
<!-- Node33 -->
<g id="node15" class="node">
<title>Node33</title>
<g id="a_node15"><a xlink:href="d__meter2_8h.html" target="_top" xlink:title=" ">
<polygon fill="#fff0f0" stroke="red" points="2251.87,-96 2117.87,-96 2117.87,-77 2251.87,-77 2251.87,-96"/>
<text text-anchor="middle" x="2184.87" y="-84" font-family="Helvetica,sans-Serif" font-size="10.00">include/d/meter/d_meter2.h</text>
</a>
</g>
</g>
<!-- Node3&#45;&gt;Node33 -->
<g id="edge14" class="edge">
<title>Node3&#45;&gt;Node33</title>
<path fill="none" stroke="#63b8ff" d="M1767.35,-155.85C1848.42,-147.2 1989.44,-130.36 2108.87,-107 2123.58,-104.12 2139.68,-100.12 2153.26,-96.49"/>
<polygon fill="#63b8ff" stroke="#63b8ff" points="1767.39,-152.33 1757.82,-156.86 1768.13,-159.29 1767.39,-152.33"/>
</g>
<!-- Node40 -->
<g id="node16" class="node">
<title>Node40</title>
<g id="a_node16"><a xlink:href="d__msg__object_8h.html" target="_top" xlink:title=" ">
<polygon fill="#fff0f0" stroke="red" points="2934.87,-101.5 2824.87,-101.5 2824.87,-71.5 2934.87,-71.5 2934.87,-101.5"/>
<text text-anchor="start" x="2832.87" y="-89.5" font-family="Helvetica,sans-Serif" font-size="10.00">include/d/msg/d_msg</text>
<text text-anchor="middle" x="2879.87" y="-78.5" font-family="Helvetica,sans-Serif" font-size="10.00">_object.h</text>
</a>
</g>
</g>
<!-- Node3&#45;&gt;Node40 -->
<g id="edge15" class="edge">
<title>Node3&#45;&gt;Node40</title>
<path fill="none" stroke="#63b8ff" d="M1767.58,-161.14C1975.21,-156.58 2608.24,-140.26 2810.87,-107 2818.49,-105.75 2826.46,-103.96 2834.18,-101.97"/>
<polygon fill="#63b8ff" stroke="#63b8ff" points="1767.7,-157.63 1757.78,-161.35 1767.85,-164.63 1767.7,-157.63"/>
</g>
<!-- Node54 -->
<g id="node17" class="node">
<title>Node54</title>
<g id="a_node17"><a xlink:href="d__s__logo_8h.html" target="_top" xlink:title=" ">
<polygon fill="#fff0f0" stroke="red" points="2383.37,-96 2270.37,-96 2270.37,-77 2383.37,-77 2383.37,-96"/>
<text text-anchor="middle" x="2326.87" y="-84" font-family="Helvetica,sans-Serif" font-size="10.00">include/d/s/d_s_logo.h</text>
</a>
</g>
</g>
<!-- Node3&#45;&gt;Node54 -->
<g id="edge17" class="edge">
<title>Node3&#45;&gt;Node54</title>
<path fill="none" stroke="#63b8ff" d="M1767.64,-159.95C1873.22,-155.01 2084.82,-141.41 2260.87,-107 2274.24,-104.39 2288.79,-100.23 2300.82,-96.43"/>
<polygon fill="#63b8ff" stroke="#63b8ff" points="1767.56,-156.45 1757.73,-160.4 1767.88,-163.44 1767.56,-156.45"/>
</g>
<!-- Node56 -->
<g id="node18" class="node">
<title>Node56</title>
<g id="a_node18"><a xlink:href="d__s__play_8h.html" target="_top" xlink:title=" ">
<polygon fill="#fff0f0" stroke="red" points="2651.37,-96 2538.37,-96 2538.37,-77 2651.37,-77 2651.37,-96"/>
<text text-anchor="middle" x="2594.87" y="-84" font-family="Helvetica,sans-Serif" font-size="10.00">include/d/s/d_s_play.h</text>
</a>
</g>
</g>
<!-- Node3&#45;&gt;Node56 -->
<g id="edge18" class="edge">
<title>Node3&#45;&gt;Node56</title>
<path fill="none" stroke="#63b8ff" d="M1767.68,-163.08C1909.36,-163.22 2249.97,-157.69 2529.87,-107 2543.32,-104.56 2557.93,-100.33 2569.88,-96.43"/>
<polygon fill="#63b8ff" stroke="#63b8ff" points="1767.72,-159.58 1757.72,-163.06 1767.71,-166.58 1767.72,-159.58"/>
</g>
<!-- Node60 -->
<g id="node19" class="node">
<title>Node60</title>
<g id="a_node19"><a xlink:href="d__msg__scrn__base_8h.html" target="_top" xlink:title=" ">
<polygon fill="#fff0f0" stroke="red" points="2768.37,-101.5 2669.37,-101.5 2669.37,-71.5 2768.37,-71.5 2768.37,-101.5"/>
<text text-anchor="start" x="2677.37" y="-89.5" font-family="Helvetica,sans-Serif" font-size="10.00">include/msg/scrn/d</text>
<text text-anchor="middle" x="2718.87" y="-78.5" font-family="Helvetica,sans-Serif" font-size="10.00">_msg_scrn_base.h</text>
</a>
</g>
</g>
<!-- Node3&#45;&gt;Node60 -->
<g id="edge19" class="edge">
<title>Node3&#45;&gt;Node60</title>
<path fill="none" stroke="#63b8ff" d="M1767.75,-160.95C1956.26,-156.21 2489.29,-140.18 2660.87,-107 2667.34,-105.75 2674.08,-103.96 2680.57,-101.97"/>
<polygon fill="#63b8ff" stroke="#63b8ff" points="1767.8,-157.45 1757.89,-161.19 1767.97,-164.45 1767.8,-157.45"/>
</g>
<!-- Node64 -->
<g id="node20" class="node">
<title>Node64</title>
<g id="a_node20"><a xlink:href="d__a__b__zant_8h.html" target="_top" xlink:title=" ">
<polygon fill="white" stroke="#666666" points="424.37,-101.5 303.37,-101.5 303.37,-71.5 424.37,-71.5 424.37,-101.5"/>
<text text-anchor="start" x="311.37" y="-89.5" font-family="Helvetica,sans-Serif" font-size="10.00">include/rel/d/a/b/d</text>
<text text-anchor="middle" x="363.87" y="-78.5" font-family="Helvetica,sans-Serif" font-size="10.00">_a_b_zant/d_a_b_zant.h</text>
</a>
</g>
</g>
<!-- Node3&#45;&gt;Node64 -->
<g id="edge20" class="edge">
<title>Node3&#45;&gt;Node64</title>
<path fill="none" stroke="#63b8ff" d="M1634.51,-147.5C1624.62,-145.71 1614.51,-144.12 1604.87,-143 1087.66,-82.96 948.62,-185.43 433.87,-107 426.02,-105.8 417.79,-104.01 409.85,-102"/>
<polygon fill="#63b8ff" stroke="#63b8ff" points="1633.58,-150.89 1644.06,-149.31 1634.89,-144.01 1633.58,-150.89"/>
</g>
<!-- Node65 -->
<g id="node21" class="node">
<title>Node65</title>
<g id="a_node21"><a xlink:href="d__a__skip__2D_8h.html" target="_top" xlink:title=" ">
<polygon fill="white" stroke="#666666" points="566.87,-101.5 442.87,-101.5 442.87,-71.5 566.87,-71.5 566.87,-101.5"/>
<text text-anchor="start" x="450.87" y="-89.5" font-family="Helvetica,sans-Serif" font-size="10.00">include/rel/d/a/d_a</text>
<text text-anchor="middle" x="504.87" y="-78.5" font-family="Helvetica,sans-Serif" font-size="10.00">_skip_2D/d_a_skip_2D.h</text>
</a>
</g>
</g>
<!-- Node3&#45;&gt;Node65 -->
<g id="edge21" class="edge">
<title>Node3&#45;&gt;Node65</title>
<path fill="none" stroke="#63b8ff" d="M1634.5,-147.54C1624.61,-145.74 1614.51,-144.14 1604.87,-143 1152.64,-89.49 1031.61,-171.97 580.87,-107 572.38,-105.78 563.46,-103.97 554.85,-101.95"/>
<polygon fill="#63b8ff" stroke="#63b8ff" points="1633.57,-150.92 1644.05,-149.36 1634.88,-144.05 1633.57,-150.92"/>
</g>
<!-- Node66 -->
<g id="node22" class="node">
<title>Node66</title>
<g id="a_node22"><a xlink:href="d__a__spinner_8h.html" target="_top" xlink:title=" ">
<polygon fill="white" stroke="#666666" points="1360.87,-101.5 1244.87,-101.5 1244.87,-71.5 1360.87,-71.5 1360.87,-101.5"/>
<text text-anchor="start" x="1252.87" y="-89.5" font-family="Helvetica,sans-Serif" font-size="10.00">include/rel/d/a/d_a</text>
<text text-anchor="middle" x="1302.87" y="-78.5" font-family="Helvetica,sans-Serif" font-size="10.00">_spinner/d_a_spinner.h</text>
</a>
</g>
</g>
<!-- Node3&#45;&gt;Node66 -->
<g id="edge22" class="edge">
<title>Node3&#45;&gt;Node66</title>
<path fill="none" stroke="#63b8ff" d="M1634.54,-148.62C1624.61,-146.66 1614.48,-144.73 1604.87,-143 1503.04,-124.7 1476.07,-128.56 1374.87,-107 1367.91,-105.52 1360.61,-103.77 1353.45,-101.94"/>
<polygon fill="#63b8ff" stroke="#63b8ff" points="1633.65,-152.01 1644.14,-150.54 1635.02,-145.15 1633.65,-152.01"/>
</g>
<!-- Node67 -->
<g id="node23" class="node">
<title>Node67</title>
<g id="a_node23"><a xlink:href="d__a__player_8cpp.html" target="_top" xlink:title=" ">
<polygon fill="white" stroke="#666666" points="651.87,-24.5 537.87,-24.5 537.87,-5.5 651.87,-5.5 651.87,-24.5"/>
<text text-anchor="middle" x="594.87" y="-12.5" font-family="Helvetica,sans-Serif" font-size="10.00">src/d/a/d_a_player.cpp</text>
</a>
</g>
</g>
<!-- Node3&#45;&gt;Node67 -->
<g id="edge32" class="edge">
<title>Node3&#45;&gt;Node67</title>
<path fill="none" stroke="#63b8ff" d="M1634.5,-147.55C1624.61,-145.75 1614.51,-144.15 1604.87,-143 1550.17,-136.49 655.99,-142.52 613.87,-107 589.45,-86.4 591.44,-43.23 593.6,-24.72"/>
<polygon fill="#63b8ff" stroke="#63b8ff" points="1633.57,-150.93 1644.05,-149.37 1634.88,-144.06 1633.57,-150.93"/>
</g>
<!-- Node68 -->
<g id="node24" class="node">
<title>Node68</title>
<g id="a_node24"><a xlink:href="d__a__obj__yobikusa_8h.html" target="_top" xlink:title=" ">
<polygon fill="white" stroke="#666666" points="728.37,-107 623.37,-107 623.37,-66 728.37,-66 728.37,-107"/>
<text text-anchor="start" x="631.37" y="-95" font-family="Helvetica,sans-Serif" font-size="10.00">include/rel/d/a/obj</text>
<text text-anchor="start" x="631.37" y="-84" font-family="Helvetica,sans-Serif" font-size="10.00">/d_a_obj_yobikusa/d</text>
<text text-anchor="middle" x="675.87" y="-73" font-family="Helvetica,sans-Serif" font-size="10.00">_a_obj_yobikusa.h</text>
</a>
</g>
</g>
<!-- Node3&#45;&gt;Node68 -->
<g id="edge25" class="edge">
<title>Node3&#45;&gt;Node68</title>
<path fill="none" stroke="#63b8ff" d="M1634.5,-147.59C1624.61,-145.79 1614.5,-144.17 1604.87,-143 1222.03,-96.47 1117.78,-173.43 737.87,-107 734.87,-106.48 731.82,-105.84 728.75,-105.14"/>
<polygon fill="#63b8ff" stroke="#63b8ff" points="1633.57,-150.98 1644.05,-149.42 1634.88,-144.1 1633.57,-150.98"/>
</g>
<!-- Node69 -->
<g id="node25" class="node">
<title>Node69</title>
<g id="a_node25"><a xlink:href="d__a__tag__telop_8h.html" target="_top" xlink:title=" ">
<polygon fill="white" stroke="#666666" points="864.87,-107 746.87,-107 746.87,-66 864.87,-66 864.87,-107"/>
<text text-anchor="start" x="754.87" y="-95" font-family="Helvetica,sans-Serif" font-size="10.00">include/rel/d/a/tag</text>
<text text-anchor="start" x="754.87" y="-84" font-family="Helvetica,sans-Serif" font-size="10.00">/d_a_tag_telop/d_a_tag</text>
<text text-anchor="middle" x="805.87" y="-73" font-family="Helvetica,sans-Serif" font-size="10.00">_telop.h</text>
</a>
</g>
</g>
<!-- Node3&#45;&gt;Node69 -->
<g id="edge26" class="edge">
<title>Node3&#45;&gt;Node69</title>
<path fill="none" stroke="#63b8ff" d="M1634.49,-147.66C1624.6,-145.84 1614.5,-144.21 1604.87,-143 1282.12,-102.51 1194.78,-160.18 873.87,-107 870.97,-106.52 868.01,-105.96 865.03,-105.33"/>
<polygon fill="#63b8ff" stroke="#63b8ff" points="1633.56,-151.05 1644.04,-149.49 1634.87,-144.17 1633.56,-151.05"/>
</g>
<!-- Node70 -->
<g id="node26" class="node">
<title>Node70</title>
<g id="a_node26"><a xlink:href="c__dylink_8cpp.html" target="_top" xlink:title=" ">
<polygon fill="white" stroke="#666666" points="978.37,-96 883.37,-96 883.37,-77 978.37,-77 978.37,-96"/>
<text text-anchor="middle" x="930.87" y="-84" font-family="Helvetica,sans-Serif" font-size="10.00">src/c/c_dylink.cpp</text>
</a>
</g>
</g>
<!-- Node3&#45;&gt;Node70 -->
<g id="edge27" class="edge">
<title>Node3&#45;&gt;Node70</title>
<path fill="none" stroke="#63b8ff" d="M1634.48,-147.74C1624.59,-145.91 1614.49,-144.25 1604.87,-143 1332.04,-107.53 1256.7,-160.75 986.87,-107 975.06,-104.65 962.35,-100.37 952.03,-96.42"/>
<polygon fill="#63b8ff" stroke="#63b8ff" points="1633.55,-151.12 1644.03,-149.57 1634.87,-144.25 1633.55,-151.12"/>
</g>
<!-- Node71 -->
<g id="node27" class="node">
<title>Node71</title>
<g id="a_node27"><a xlink:href="d__a__itembase_8cpp.html" target="_top" xlink:title=" ">
<polygon fill="white" stroke="#666666" points="162.87,-96 34.87,-96 34.87,-77 162.87,-77 162.87,-96"/>
<text text-anchor="middle" x="98.87" y="-84" font-family="Helvetica,sans-Serif" font-size="10.00">src/d/a/d_a_itembase.cpp</text>
</a>
</g>
</g>
<!-- Node3&#45;&gt;Node71 -->
<g id="edge29" class="edge">
<title>Node3&#45;&gt;Node71</title>
<path fill="none" stroke="#63b8ff" d="M1634.13,-154.32C1598.25,-150.24 1553.21,-145.63 1512.87,-143 1215.4,-123.61 466.9,-149.76 171.87,-107 156.56,-104.78 139.85,-100.46 126.29,-96.45"/>
<polygon fill="#63b8ff" stroke="#63b8ff" points="1633.6,-157.78 1643.94,-155.45 1634.4,-150.83 1633.6,-157.78"/>
</g>
<!-- Node72 -->
<g id="node28" class="node">
<title>Node72</title>
<g id="a_node28"><a xlink:href="d__a__obj_8cpp.html" target="_top" xlink:title=" ">
<polygon fill="white" stroke="#666666" points="1097.37,-96 996.37,-96 996.37,-77 1097.37,-77 1097.37,-96"/>
<text text-anchor="middle" x="1046.87" y="-84" font-family="Helvetica,sans-Serif" font-size="10.00">src/d/a/d_a_obj.cpp</text>
</a>
</g>
</g>
<!-- Node3&#45;&gt;Node72 -->
<g id="edge30" class="edge">
<title>Node3&#45;&gt;Node72</title>
<path fill="none" stroke="#63b8ff" d="M1634.46,-147.86C1624.58,-146.02 1614.48,-144.32 1604.87,-143 1384.58,-112.81 1323.99,-150.22 1105.87,-107 1093.6,-104.57 1080.33,-100.34 1069.5,-96.43"/>
<polygon fill="#63b8ff" stroke="#63b8ff" points="1633.53,-151.24 1644.01,-149.7 1634.85,-144.37 1633.53,-151.24"/>
</g>
<!-- Node75 -->
<g id="node29" class="node">
<title>Node75</title>
<g id="a_node29"><a xlink:href="d__bg__w_8cpp.html" target="_top" xlink:title=" ">
<polygon fill="white" stroke="#666666" points="3060.37,-96 2953.37,-96 2953.37,-77 3060.37,-77 3060.37,-96"/>
<text text-anchor="middle" x="3006.87" y="-84" font-family="Helvetica,sans-Serif" font-size="10.00">src/d/bg/d_bg_w.cpp</text>
</a>
</g>
</g>
<!-- Node3&#45;&gt;Node75 -->
<g id="edge33" class="edge">
<title>Node3&#45;&gt;Node75</title>
<path fill="none" stroke="#63b8ff" d="M1767.52,-161.77C1991.31,-158.95 2714.7,-146.91 2943.87,-107 2957.07,-104.7 2971.37,-100.43 2983,-96.47"/>
<polygon fill="#63b8ff" stroke="#63b8ff" points="1767.77,-158.26 1757.82,-161.89 1767.86,-165.26 1767.77,-158.26"/>
</g>
<!-- Node76 -->
<g id="node30" class="node">
<title>Node76</title>
<g id="a_node30"><a xlink:href="d__cc__s_8cpp.html" target="_top" xlink:title=" ">
<polygon fill="white" stroke="#666666" points="284.87,-96 180.87,-96 180.87,-77 284.87,-77 284.87,-96"/>
<text text-anchor="middle" x="232.87" y="-84" font-family="Helvetica,sans-Serif" font-size="10.00">src/d/cc/d_cc_s.cpp</text>
</a>
</g>
</g>
<!-- Node3&#45;&gt;Node76 -->
<g id="edge34" class="edge">
<title>Node3&#45;&gt;Node76</title>
<path fill="none" stroke="#63b8ff" d="M1634.51,-147.47C1624.62,-145.68 1614.51,-144.1 1604.87,-143 1315.32,-109.87 581.19,-155.86 293.87,-107 280.94,-104.8 266.97,-100.49 255.67,-96.47"/>
<polygon fill="#63b8ff" stroke="#63b8ff" points="1633.58,-150.86 1644.06,-149.28 1634.89,-143.98 1633.58,-150.86"/>
</g>
<!-- Node77 -->
<g id="node31" class="node">
<title>Node77</title>
<g id="a_node31"><a xlink:href="d__com__static_8cpp.html" target="_top" xlink:title=" ">
<polygon fill="white" stroke="#666666" points="3218.87,-96 3078.87,-96 3078.87,-77 3218.87,-77 3218.87,-96"/>
<text text-anchor="middle" x="3148.87" y="-84" font-family="Helvetica,sans-Serif" font-size="10.00">src/d/com/d_com_static.cpp</text>
</a>
</g>
</g>
<!-- Node3&#45;&gt;Node77 -->
<g id="edge35" class="edge">
<title>Node3&#45;&gt;Node77</title>
<path fill="none" stroke="#63b8ff" d="M1767.27,-161.58C2005.1,-158.01 2813.84,-143.41 3069.87,-107 3086.24,-104.67 3104.15,-100.4 3118.77,-96.45"/>
<polygon fill="#63b8ff" stroke="#63b8ff" points="1767.51,-158.08 1757.57,-161.72 1767.62,-165.08 1767.51,-158.08"/>
</g>
<!-- Node38 -->
<g id="node32" class="node">
<title>Node38</title>
<g id="a_node32"><a xlink:href="d__save_8cpp.html" target="_top" xlink:title=" ">
<polygon fill="white" stroke="#666666" points="3352.37,-96 3237.37,-96 3237.37,-77 3352.37,-77 3352.37,-96"/>
<text text-anchor="middle" x="3294.87" y="-84" font-family="Helvetica,sans-Serif" font-size="10.00">src/d/save/d_save.cpp</text>
</a>
</g>
</g>
<!-- Node3&#45;&gt;Node38 -->
<g id="edge36" class="edge">
<title>Node3&#45;&gt;Node38</title>
<path fill="none" stroke="#63b8ff" d="M1767.61,-162.26C2023.29,-161.01 2940.44,-153.32 3227.87,-107 3241.99,-104.73 3257.33,-100.4 3269.76,-96.41"/>
<polygon fill="#63b8ff" stroke="#63b8ff" points="1767.79,-158.76 1757.81,-162.31 1767.83,-165.76 1767.79,-158.76"/>
</g>
<!-- Node11 -->
<g id="node6" class="node">
<title>Node11</title>
<g id="a_node6"><a xlink:href="d__a__e__wb_8h.html" target="_top" xlink:title=" ">
<polygon fill="#fff0f0" stroke="red" points="2949.87,-30 2839.87,-30 2839.87,0 2949.87,0 2949.87,-30"/>
<text text-anchor="start" x="2847.87" y="-18" font-family="Helvetica,sans-Serif" font-size="10.00">include/rel/d/a/e/d</text>
<text text-anchor="middle" x="2894.87" y="-7" font-family="Helvetica,sans-Serif" font-size="10.00">_a_e_wb/d_a_e_wb.h</text>
</a>
</g>
</g>
<!-- Node10&#45;&gt;Node11 -->
<g id="edge5" class="edge">
<title>Node10&#45;&gt;Node11</title>
<path fill="none" stroke="#63b8ff" d="M2500.13,-73.39C2509.79,-70.69 2520.15,-68.03 2529.87,-66 2638.5,-43.33 2767.54,-28.42 2839.43,-21.17"/>
<polygon fill="#63b8ff" stroke="#63b8ff" points="2499.28,-69.99 2490.64,-76.12 2501.22,-76.71 2499.28,-69.99"/>
</g>
<!-- Node16&#45;&gt;Node13 -->
<g id="edge7" class="edge">
<title>Node16&#45;&gt;Node13</title>
<path fill="none" stroke="#63b8ff" d="M1496.34,-72.63C1504.22,-69.94 1512.75,-67.48 1520.87,-66 1678.12,-37.38 2799.11,-34.33 2958.87,-30 3112.52,-25.83 3293.87,-20.39 3382.92,-17.68"/>
<polygon fill="#63b8ff" stroke="#63b8ff" points="1495.35,-69.27 1487.15,-75.99 1497.75,-75.85 1495.35,-69.27"/>
</g>
<!-- Node16&#45;&gt;Node17 -->
<g id="edge8" class="edge">
<title>Node16&#45;&gt;Node17</title>
<path fill="none" stroke="#63b8ff" d="M1454.72,-66.93C1447.29,-53.35 1437.54,-35.51 1431.77,-24.95"/>
<polygon fill="#63b8ff" stroke="#63b8ff" points="1451.47,-68.27 1459.34,-75.37 1457.61,-64.92 1451.47,-68.27"/>
</g>
<!-- Node40&#45;&gt;Node13 -->
<g id="edge16" class="edge">
<title>Node40&#45;&gt;Node13</title>
<path fill="none" stroke="#63b8ff" d="M2935.13,-68.15C2938.41,-67.36 2941.68,-66.64 2944.87,-66 3102.03,-34.75 3291.46,-22.51 3383.02,-18.15"/>
<polygon fill="#63b8ff" stroke="#63b8ff" points="2934.26,-64.76 2925.46,-70.66 2936.02,-71.54 2934.26,-64.76"/>
</g>
<!-- Node66&#45;&gt;Node13 -->
<g id="edge23" class="edge">
<title>Node66&#45;&gt;Node13</title>
<path fill="none" stroke="#63b8ff" d="M1372.39,-70.97C1384.18,-68.97 1396.34,-67.2 1407.87,-66 1750.79,-30.41 2614.23,-39.04 2958.87,-30 3112.52,-25.97 3293.88,-20.47 3382.92,-17.71"/>
<polygon fill="#63b8ff" stroke="#63b8ff" points="1371.95,-67.49 1362.71,-72.68 1373.17,-74.39 1371.95,-67.49"/>
</g>
<!-- Node66&#45;&gt;Node67 -->
<g id="edge24" class="edge">
<title>Node66&#45;&gt;Node67</title>
<path fill="none" stroke="#63b8ff" d="M1245.93,-68.27C1242.21,-67.42 1238.5,-66.65 1234.87,-66 1022.38,-27.63 764.94,-18.7 652.3,-16.63"/>
<polygon fill="#63b8ff" stroke="#63b8ff" points="1245.07,-71.66 1255.61,-70.65 1246.74,-64.86 1245.07,-71.66"/>
</g>
<!-- Node108&#45;&gt;Node71 -->
<g id="edge45" class="edge">
<title>Node108&#45;&gt;Node71</title>
<path fill="none" stroke="#63b8ff" d="M1483.77,-279.89C1489.07,-245.85 1493.87,-177.23 1454.87,-143 1401.29,-95.96 242.44,-117.27 171.87,-107 156.56,-104.77 139.85,-100.45 126.29,-96.45"/>
<polygon fill="#63b8ff" stroke="#63b8ff" points="1480.35,-279.16 1482.07,-289.61 1487.25,-280.37 1480.35,-279.16"/>
</g>
<!-- Node109 -->
<g id="node34" class="node">
<title>Node109</title>
<g id="a_node34"><a xlink:href="d__a__item__static_8h.html" target="_top" xlink:title=" ">
<polygon fill="#fff0f0" stroke="red" points="1446.37,-178.5 1339.37,-178.5 1339.37,-148.5 1446.37,-148.5 1446.37,-178.5"/>
<text text-anchor="start" x="1347.37" y="-166.5" font-family="Helvetica,sans-Serif" font-size="10.00">include/d/a/d_a_item</text>
<text text-anchor="middle" x="1392.87" y="-155.5" font-family="Helvetica,sans-Serif" font-size="10.00">_static.h</text>
</a>
</g>
</g>
<!-- Node108&#45;&gt;Node109 -->
<g id="edge39" class="edge">
<title>Node108&#45;&gt;Node109</title>
<path fill="none" stroke="#63b8ff" d="M1472.43,-280.54C1465.63,-263.82 1454.69,-239.41 1441.87,-220 1431.82,-204.77 1417.84,-189.36 1407.39,-178.65"/>
<polygon fill="#63b8ff" stroke="#63b8ff" points="1469.15,-281.74 1476.07,-289.76 1475.66,-279.18 1469.15,-281.74"/>
</g>
<!-- Node112 -->
<g id="node35" class="node">
<title>Node112</title>
<g id="a_node35"><a xlink:href="d__a__itembase__static_8h.html" target="_top" xlink:title=" ">
<polygon fill="#fff0f0" stroke="red" points="1432.87,-250 1304.87,-250 1304.87,-220 1432.87,-220 1432.87,-250"/>
<text text-anchor="start" x="1312.87" y="-238" font-family="Helvetica,sans-Serif" font-size="10.00">include/d/a/d_a_itembase</text>
<text text-anchor="middle" x="1368.87" y="-227" font-family="Helvetica,sans-Serif" font-size="10.00">_static.h</text>
</a>
</g>
</g>
<!-- Node108&#45;&gt;Node112 -->
<g id="edge40" class="edge">
<title>Node108&#45;&gt;Node112</title>
<path fill="none" stroke="#63b8ff" d="M1454.57,-285.41C1436.42,-274.94 1412.08,-260.91 1393.98,-250.48"/>
<polygon fill="#63b8ff" stroke="#63b8ff" points="1452.72,-288.38 1463.13,-290.35 1456.21,-282.32 1452.72,-288.38"/>
</g>
<!-- Node114 -->
<g id="node36" class="node">
<title>Node114</title>
<g id="a_node36"><a xlink:href="d__a__shop__item__static_8h.html" target="_top" xlink:title=" ">
<polygon fill="#fff0f0" stroke="red" points="1286.37,-250 1177.37,-250 1177.37,-220 1286.37,-220 1286.37,-250"/>
<text text-anchor="start" x="1185.37" y="-238" font-family="Helvetica,sans-Serif" font-size="10.00">include/d/a/d_a_shop</text>
<text text-anchor="middle" x="1231.87" y="-227" font-family="Helvetica,sans-Serif" font-size="10.00">_item_static.h</text>
</a>
</g>
</g>
<!-- Node108&#45;&gt;Node114 -->
<g id="edge42" class="edge">
<title>Node108&#45;&gt;Node114</title>
<path fill="none" stroke="#63b8ff" d="M1434.19,-288.21C1392.47,-277.44 1330.73,-261.51 1286.44,-250.08"/>
<polygon fill="#63b8ff" stroke="#63b8ff" points="1433.11,-291.55 1443.66,-290.66 1434.86,-284.77 1433.11,-291.55"/>
</g>
<!-- Node118 -->
<g id="node37" class="node">
<title>Node118</title>
<g id="a_node37"><a xlink:href="d__event_8h.html" target="_top" xlink:title=" ">
<polygon fill="#fff0f0" stroke="red" points="1654.87,-244.5 1526.87,-244.5 1526.87,-225.5 1654.87,-225.5 1654.87,-244.5"/>
<text text-anchor="middle" x="1590.87" y="-232.5" font-family="Helvetica,sans-Serif" font-size="10.00">include/d/event/d_event.h</text>
</a>
</g>
</g>
<!-- Node108&#45;&gt;Node118 -->
<g id="edge43" class="edge">
<title>Node108&#45;&gt;Node118</title>
<path fill="none" stroke="#63b8ff" d="M1505.15,-285.42C1526.85,-272.92 1557.41,-255.3 1575.57,-244.82"/>
<polygon fill="#63b8ff" stroke="#63b8ff" points="1503.53,-282.32 1496.62,-290.35 1507.03,-288.38 1503.53,-282.32"/>
</g>
<!-- Node112&#45;&gt;Node109 -->
<g id="edge41" class="edge">
<title>Node112&#45;&gt;Node109</title>
<path fill="none" stroke="#63b8ff" d="M1377.54,-208.91C1381.02,-198.82 1384.92,-187.54 1387.91,-178.88"/>
<polygon fill="#63b8ff" stroke="#63b8ff" points="1374.3,-207.57 1374.34,-218.17 1380.91,-209.86 1374.3,-207.57"/>
</g>
<!-- Node118&#45;&gt;Node3 -->
<g id="edge44" class="edge">
<title>Node118&#45;&gt;Node3</title>
<path fill="none" stroke="#63b8ff" d="M1614.44,-219.11C1633.32,-207.18 1659.66,-190.54 1678.28,-178.77"/>
<polygon fill="#63b8ff" stroke="#63b8ff" points="1612.67,-216.09 1606.09,-224.39 1616.41,-222.01 1612.67,-216.09"/>
</g>
<!-- Node119&#45;&gt;Node3 -->
<g id="edge47" class="edge">
<title>Node119&#45;&gt;Node3</title>
<path fill="none" stroke="#63b8ff" d="M1721.07,-214.62C1716.48,-203.25 1710.8,-189.13 1706.63,-178.77"/>
<polygon fill="#63b8ff" stroke="#63b8ff" points="1717.78,-215.83 1724.76,-223.79 1724.27,-213.21 1717.78,-215.83"/>
</g>
<!-- Node119&#45;&gt;Node76 -->
<g id="edge48" class="edge">
<title>Node119&#45;&gt;Node76</title>
<path fill="none" stroke="#63b8ff" d="M1703.24,-219.49C1663.8,-198.05 1585.2,-158.73 1512.87,-143 1248.06,-85.41 561,-152.71 293.87,-107 280.94,-104.79 266.97,-100.47 255.67,-96.46"/>
<polygon fill="#63b8ff" stroke="#63b8ff" points="1701.51,-222.54 1711.96,-224.3 1704.89,-216.41 1701.51,-222.54"/>
</g>
<!-- Node120&#45;&gt;Node13 -->
<g id="edge50" class="edge">
<title>Node120&#45;&gt;Node13</title>
<path fill="none" stroke="#63b8ff" d="M3513.05,-279.76C3515.08,-263.53 3516.83,-240.2 3513.87,-220 3503.54,-149.32 3496.7,-131.36 3467.87,-66 3461.18,-50.81 3450.75,-34.56 3444.12,-24.85"/>
<polygon fill="#63b8ff" stroke="#63b8ff" points="3509.6,-279.18 3511.66,-289.57 3516.53,-280.16 3509.6,-279.18"/>
</g>
<!-- Node121 -->
<g id="node40" class="node">
<title>Node121</title>
<g id="a_node40"><a xlink:href="d__bomb_8cpp.html" target="_top" xlink:title=" ">
<polygon fill="white" stroke="#666666" points="3504.87,-244.5 3410.87,-244.5 3410.87,-225.5 3504.87,-225.5 3504.87,-244.5"/>
<text text-anchor="middle" x="3457.87" y="-232.5" font-family="Helvetica,sans-Serif" font-size="10.00">src/d/d_bomb.cpp</text>
</a>
</g>
</g>
<!-- Node120&#45;&gt;Node121 -->
<g id="edge51" class="edge">
<title>Node120&#45;&gt;Node121</title>
<path fill="none" stroke="#63b8ff" d="M3495.46,-282.26C3485.57,-270.08 3472.86,-254.44 3465.04,-244.82"/>
<polygon fill="#63b8ff" stroke="#63b8ff" points="3492.67,-284.37 3501.69,-289.93 3498.1,-279.96 3492.67,-284.37"/>
</g>
<!-- Node123&#45;&gt;Node67 -->
<g id="edge54" class="edge">
<title>Node123&#45;&gt;Node67</title>
<path fill="none" stroke="#63b8ff" d="M459.75,-233.4C281.44,-229.39 -101.34,-204.88 25.87,-66 59.97,-28.77 399.82,-19.13 537.45,-16.75"/>
<polygon fill="#63b8ff" stroke="#63b8ff" points="459.61,-236.9 469.68,-233.6 459.75,-229.9 459.61,-236.9"/>
</g>
<!-- Node125&#45;&gt;Node13 -->
<g id="edge57" class="edge">
<title>Node125&#45;&gt;Node13</title>
<path fill="none" stroke="#63b8ff" d="M3714.06,-142.07C3681.62,-121.15 3628.58,-88.57 3579.87,-66 3542.76,-48.8 3497.96,-33.95 3468.73,-25"/>
<polygon fill="#63b8ff" stroke="#63b8ff" points="3711.88,-144.83 3722.17,-147.34 3715.7,-138.96 3711.88,-144.83"/>
</g>
<!-- Node127&#45;&gt;Node11 -->
<g id="edge60" class="edge">
<title>Node127&#45;&gt;Node11</title>
<path fill="none" stroke="#63b8ff" d="M3149.53,-154.18C3226.14,-143.21 3348.48,-123.38 3361.87,-107 3373.41,-92.89 3374.05,-79.55 3361.87,-66 3334.76,-35.83 3067.61,-22.35 2949.99,-17.85"/>
<polygon fill="#63b8ff" stroke="#63b8ff" points="3149.49,-150.65 3140.08,-155.52 3150.47,-157.58 3149.49,-150.65"/>
</g>
<!-- Node127&#45;&gt;Node13 -->
<g id="edge61" class="edge">
<title>Node127&#45;&gt;Node13</title>
<path fill="none" stroke="#63b8ff" d="M3149.8,-153.4C3229.8,-141.24 3361.06,-119.75 3379.87,-107 3410.43,-86.29 3428.3,-43.57 3434.92,-24.97"/>
<polygon fill="#63b8ff" stroke="#63b8ff" points="3149.73,-149.87 3140.37,-154.83 3150.78,-156.8 3149.73,-149.87"/>
</g>
<!-- Node127&#45;&gt;Node75 -->
<g id="edge62" class="edge">
<title>Node127&#45;&gt;Node75</title>
<path fill="none" stroke="#63b8ff" d="M3063.92,-140.32C3048,-125.58 3027.96,-107.02 3016.36,-96.29"/>
<polygon fill="#63b8ff" stroke="#63b8ff" points="3061.43,-142.78 3071.15,-147.01 3066.19,-137.65 3061.43,-142.78"/>
</g>
<!-- Node128&#45;&gt;Node13 -->
<g id="edge64" class="edge">
<title>Node128&#45;&gt;Node13</title>
<path fill="none" stroke="#63b8ff" d="M3606.35,-138.39C3593.39,-117.06 3572.1,-86.25 3546.87,-66 3522.85,-46.71 3490.17,-33.01 3466.88,-24.89"/>
<polygon fill="#63b8ff" stroke="#63b8ff" points="3603.33,-140.15 3611.42,-146.99 3609.36,-136.6 3603.33,-140.15"/>
</g>
<!-- Node129&#45;&gt;Node13 -->
<g id="edge66" class="edge">
<title>Node129&#45;&gt;Node13</title>
<path fill="none" stroke="#63b8ff" d="M3364.21,-150.85C3389.94,-142.89 3416.75,-129.5 3432.87,-107 3450.84,-81.92 3444.34,-42.25 3440.22,-24.77"/>
<polygon fill="#63b8ff" stroke="#63b8ff" points="3363.41,-147.44 3354.75,-153.53 3365.32,-154.18 3363.41,-147.44"/>
</g>
<!-- Node129&#45;&gt;Node77 -->
<g id="edge67" class="edge">
<title>Node129&#45;&gt;Node77</title>
<path fill="none" stroke="#63b8ff" d="M3246.24,-137.51C3218.64,-123.34 3185.79,-106.46 3166.17,-96.38"/>
<polygon fill="#63b8ff" stroke="#63b8ff" points="3244.29,-140.45 3254.79,-141.91 3247.49,-134.22 3244.29,-140.45"/>
</g>
<!-- Node129&#45;&gt;Node38 -->
<g id="edge68" class="edge">
<title>Node129&#45;&gt;Node38</title>
<path fill="none" stroke="#63b8ff" d="M3294.87,-131.53C3294.87,-118.74 3294.87,-104.92 3294.87,-96.24"/>
<polygon fill="#63b8ff" stroke="#63b8ff" points="3291.37,-131.28 3294.87,-141.28 3298.37,-131.28 3291.37,-131.28"/>
</g>
</g>
</svg>
