<?xml version="1.0" encoding="UTF-8" standalone="no"?>
<!DOCTYPE svg PUBLIC "-//W3C//DTD SVG 1.1//EN"
 "http://www.w3.org/Graphics/SVG/1.1/DTD/svg11.dtd">
<!-- Generated by graphviz version 7.0.4 (20221203.1631)
 -->
<!-- Title: include/d/d_camera.h Pages: 1 -->
<svg width="5017pt" height="302pt"
 viewBox="0.00 0.00 5016.56 302.00" xmlns="http://www.w3.org/2000/svg" xmlns:xlink="http://www.w3.org/1999/xlink">
<g id="graph0" class="graph" transform="scale(1 1) rotate(0) translate(4 298)">
<title>include/d/d_camera.h</title>
<!-- Node1 -->
<g id="node1" class="node">
<title>Node1</title>
<g id="a_node1"><a xlink:title=" ">
<polygon fill="#999999" stroke="#666666" points="4865,-294 4756,-294 4756,-275 4865,-275 4865,-294"/>
<text text-anchor="middle" x="4810.5" y="-282" font-family="Helvetica,sans-Serif" font-size="10.00">include/d/d_camera.h</text>
</a>
</g>
</g>
<!-- Node2 -->
<g id="node2" class="node">
<title>Node2</title>
<g id="a_node2"><a xlink:href="f__op__camera__mng_8h.html" target="_top" xlink:title=" ">
<polygon fill="white" stroke="#666666" points="2492.5,-239 2364.5,-239 2364.5,-209 2492.5,-209 2492.5,-239"/>
<text text-anchor="start" x="2372.5" y="-227" font-family="Helvetica,sans-Serif" font-size="10.00">include/f_op/f_op_camera</text>
<text text-anchor="middle" x="2428.5" y="-216" font-family="Helvetica,sans-Serif" font-size="10.00">_mng.h</text>
</a>
</g>
</g>
<!-- Node1&#45;&gt;Node2 -->
<g id="edge1" class="edge">
<title>Node1&#45;&gt;Node2</title>
<path fill="none" stroke="#63b8ff" d="M4744.26,-281.87C4401.4,-273.45 2831.17,-234.89 2492.85,-226.58"/>
<polygon fill="#63b8ff" stroke="#63b8ff" points="4744.11,-285.37 4754.19,-282.12 4744.28,-278.37 4744.11,-285.37"/>
</g>
<!-- Node47 -->
<g id="node18" class="node">
<title>Node47</title>
<g id="a_node18"><a xlink:href="d__event_8cpp.html" target="_top" xlink:title=" ">
<polygon fill="white" stroke="#666666" points="121,-24.5 0,-24.5 0,-5.5 121,-5.5 121,-24.5"/>
<text text-anchor="middle" x="60.5" y="-12.5" font-family="Helvetica,sans-Serif" font-size="10.00">src/d/event/d_event.cpp</text>
</a>
</g>
</g>
<!-- Node1&#45;&gt;Node47 -->
<g id="edge60" class="edge">
<title>Node1&#45;&gt;Node47</title>
<path fill="none" stroke="#63b8ff" d="M4744.23,-283.26C4458.5,-282.03 3303.47,-274.96 2355.5,-239 2101.37,-229.36 254.92,-282.11 70.5,-107 47.79,-85.44 54.11,-43.17 58.23,-24.84"/>
<polygon fill="#63b8ff" stroke="#63b8ff" points="4744.08,-286.76 4754.09,-283.3 4744.11,-279.76 4744.08,-286.76"/>
</g>
<!-- Node48 -->
<g id="node19" class="node">
<title>Node48</title>
<g id="a_node19"><a xlink:href="d__event__data_8cpp.html" target="_top" xlink:title=" ">
<polygon fill="white" stroke="#666666" points="4524,-30 4421,-30 4421,0 4524,0 4524,-30"/>
<text text-anchor="start" x="4429" y="-18" font-family="Helvetica,sans-Serif" font-size="10.00">src/d/event/d_event</text>
<text text-anchor="middle" x="4472.5" y="-7" font-family="Helvetica,sans-Serif" font-size="10.00">_data.cpp</text>
</a>
</g>
</g>
<!-- Node1&#45;&gt;Node48 -->
<g id="edge61" class="edge">
<title>Node1&#45;&gt;Node48</title>
<path fill="none" stroke="#63b8ff" d="M4838.62,-269.16C4904.71,-233.7 5059.42,-139.47 4991.5,-66 4956.85,-28.52 4583.96,-37.73 4533.5,-30 4530.49,-29.54 4527.41,-29.01 4524.31,-28.44"/>
<polygon fill="#63b8ff" stroke="#63b8ff" points="4837.01,-266.05 4829.8,-273.81 4840.27,-272.24 4837.01,-266.05"/>
</g>
<!-- Node81 -->
<g id="node39" class="node">
<title>Node81</title>
<g id="a_node39"><a xlink:href="d__camera_8cpp.html" target="_top" xlink:title=" ">
<polygon fill="white" stroke="#666666" points="4861.5,-96 4759.5,-96 4759.5,-77 4861.5,-77 4861.5,-96"/>
<text text-anchor="middle" x="4810.5" y="-84" font-family="Helvetica,sans-Serif" font-size="10.00">src/d/d_camera.cpp</text>
</a>
</g>
</g>
<!-- Node1&#45;&gt;Node81 -->
<g id="edge59" class="edge">
<title>Node1&#45;&gt;Node81</title>
<path fill="none" stroke="#63b8ff" d="M4810.5,-263.14C4810.5,-221.08 4810.5,-126.09 4810.5,-96.48"/>
<polygon fill="#63b8ff" stroke="#63b8ff" points="4807,-263.06 4810.5,-273.06 4814,-263.06 4807,-263.06"/>
</g>
<!-- Node91 -->
<g id="node47" class="node">
<title>Node91</title>
<g id="a_node47"><a xlink:href="d__event__manager_8cpp.html" target="_top" xlink:title=" ">
<polygon fill="white" stroke="#666666" points="4983,-101.5 4880,-101.5 4880,-71.5 4983,-71.5 4983,-101.5"/>
<text text-anchor="start" x="4888" y="-89.5" font-family="Helvetica,sans-Serif" font-size="10.00">src/d/event/d_event</text>
<text text-anchor="middle" x="4931.5" y="-78.5" font-family="Helvetica,sans-Serif" font-size="10.00">_manager.cpp</text>
</a>
</g>
</g>
<!-- Node1&#45;&gt;Node91 -->
<g id="edge62" class="edge">
<title>Node1&#45;&gt;Node91</title>
<path fill="none" stroke="#63b8ff" d="M4822.05,-264.79C4846.13,-225.78 4901.23,-136.54 4922.7,-101.75"/>
<polygon fill="#63b8ff" stroke="#63b8ff" points="4819.08,-262.93 4816.81,-273.28 4825.04,-266.61 4819.08,-262.93"/>
</g>
<!-- Node3 -->
<g id="node3" class="node">
<title>Node3</title>
<g id="a_node3"><a xlink:href="d__com__inf__game_8h.html" target="_top" xlink:title=" ">
<polygon fill="#fff0f0" stroke="red" points="2612.5,-173 2502.5,-173 2502.5,-143 2612.5,-143 2612.5,-173"/>
<text text-anchor="start" x="2510.5" y="-161" font-family="Helvetica,sans-Serif" font-size="10.00">include/d/com/d_com</text>
<text text-anchor="middle" x="2557.5" y="-150" font-family="Helvetica,sans-Serif" font-size="10.00">_inf_game.h</text>
</a>
</g>
</g>
<!-- Node2&#45;&gt;Node3 -->
<g id="edge2" class="edge">
<title>Node2&#45;&gt;Node3</title>
<path fill="none" stroke="#63b8ff" d="M2467.63,-203.59C2487.27,-193.84 2510.66,-182.24 2528.65,-173.31"/>
<polygon fill="#63b8ff" stroke="#63b8ff" points="2466.21,-200.38 2458.81,-207.96 2469.32,-206.66 2466.21,-200.38"/>
</g>
<!-- Node109 -->
<g id="node48" class="node">
<title>Node109</title>
<g id="a_node48"><a xlink:href="f__op__camera_8h.html" target="_top" xlink:title=" ">
<polygon fill="#fff0f0" stroke="red" points="2215.5,-167.5 2079.5,-167.5 2079.5,-148.5 2215.5,-148.5 2215.5,-167.5"/>
<text text-anchor="middle" x="2147.5" y="-155.5" font-family="Helvetica,sans-Serif" font-size="10.00">include/f_op/f_op_camera.h</text>
</a>
</g>
</g>
<!-- Node2&#45;&gt;Node109 -->
<g id="edge56" class="edge">
<title>Node2&#45;&gt;Node109</title>
<path fill="none" stroke="#63b8ff" d="M2353.9,-206.01C2300.25,-193.79 2230,-177.79 2186.85,-167.96"/>
<polygon fill="#63b8ff" stroke="#63b8ff" points="2353.08,-209.41 2363.61,-208.22 2354.64,-202.59 2353.08,-209.41"/>
</g>
<!-- Node110 -->
<g id="node49" class="node">
<title>Node110</title>
<g id="a_node49"><a xlink:href="f__ap__game_8cpp.html" target="_top" xlink:title=" ">
<polygon fill="white" stroke="#666666" points="2355,-167.5 2234,-167.5 2234,-148.5 2355,-148.5 2355,-167.5"/>
<text text-anchor="middle" x="2294.5" y="-155.5" font-family="Helvetica,sans-Serif" font-size="10.00">src/f_ap/f_ap_game.cpp</text>
</a>
</g>
</g>
<!-- Node2&#45;&gt;Node110 -->
<g id="edge57" class="edge">
<title>Node2&#45;&gt;Node110</title>
<path fill="none" stroke="#63b8ff" d="M2388.19,-203.75C2363.34,-191.88 2332.65,-177.22 2313.31,-167.99"/>
<polygon fill="#63b8ff" stroke="#63b8ff" points="2386.53,-206.83 2397.06,-207.98 2389.55,-200.52 2386.53,-206.83"/>
</g>
<!-- Node111 -->
<g id="node50" class="node">
<title>Node111</title>
<g id="a_node50"><a xlink:href="f__op__camera__mng_8cpp.html" target="_top" xlink:title=" ">
<polygon fill="white" stroke="#666666" points="2484,-173 2373,-173 2373,-143 2484,-143 2484,-173"/>
<text text-anchor="start" x="2381" y="-161" font-family="Helvetica,sans-Serif" font-size="10.00">src/f_op/f_op_camera</text>
<text text-anchor="middle" x="2428.5" y="-150" font-family="Helvetica,sans-Serif" font-size="10.00">_mng.cpp</text>
</a>
</g>
</g>
<!-- Node2&#45;&gt;Node111 -->
<g id="edge58" class="edge">
<title>Node2&#45;&gt;Node111</title>
<path fill="none" stroke="#63b8ff" d="M2428.5,-197.39C2428.5,-189.13 2428.5,-180.28 2428.5,-173.16"/>
<polygon fill="#63b8ff" stroke="#63b8ff" points="2425,-197.28 2428.5,-207.28 2432,-197.28 2425,-197.28"/>
</g>
<!-- Node4 -->
<g id="node4" class="node">
<title>Node4</title>
<g id="a_node4"><a xlink:href="d__a__npc_8h.html" target="_top" xlink:title=" ">
<polygon fill="#fff0f0" stroke="red" points="4376,-96 4265,-96 4265,-77 4376,-77 4376,-96"/>
<text text-anchor="middle" x="4320.5" y="-84" font-family="Helvetica,sans-Serif" font-size="10.00">include/d/a/d_a_npc.h</text>
</a>
</g>
</g>
<!-- Node3&#45;&gt;Node4 -->
<g id="edge3" class="edge">
<title>Node3&#45;&gt;Node4</title>
<path fill="none" stroke="#63b8ff" d="M2623.89,-157.36C2896.79,-158.5 3932.97,-159.2 4255.5,-107 4269.22,-104.78 4284.11,-100.46 4296.16,-96.45"/>
<polygon fill="#63b8ff" stroke="#63b8ff" points="2624.13,-153.86 2614.12,-157.32 2624.1,-160.86 2624.13,-153.86"/>
</g>
<!-- Node10 -->
<g id="node5" class="node">
<title>Node10</title>
<g id="a_node5"><a xlink:href="d__cc__uty_8h.html" target="_top" xlink:title=" ">
<polygon fill="#fff0f0" stroke="red" points="4513,-96 4394,-96 4394,-77 4513,-77 4513,-96"/>
<text text-anchor="middle" x="4453.5" y="-84" font-family="Helvetica,sans-Serif" font-size="10.00">include/d/cc/d_cc_uty.h</text>
</a>
</g>
</g>
<!-- Node3&#45;&gt;Node10 -->
<g id="edge4" class="edge">
<title>Node3&#45;&gt;Node10</title>
<path fill="none" stroke="#63b8ff" d="M2624.13,-157.39C2910.15,-158.7 4035.08,-160.31 4384.5,-107 4399.02,-104.78 4414.82,-100.47 4427.62,-96.46"/>
<polygon fill="#63b8ff" stroke="#63b8ff" points="2624.26,-153.89 2614.24,-157.34 2624.22,-160.89 2624.26,-153.89"/>
</g>
<!-- Node16 -->
<g id="node6" class="node">
<title>Node16</title>
<g id="a_node6"><a xlink:href="d__item_8h.html" target="_top" xlink:title=" ">
<polygon fill="#fff0f0" stroke="red" points="4703,-96 4608,-96 4608,-77 4703,-77 4703,-96"/>
<text text-anchor="middle" x="4655.5" y="-84" font-family="Helvetica,sans-Serif" font-size="10.00">include/d/d_item.h</text>
</a>
</g>
</g>
<!-- Node3&#45;&gt;Node16 -->
<g id="edge5" class="edge">
<title>Node3&#45;&gt;Node16</title>
<path fill="none" stroke="#63b8ff" d="M2624.23,-156.47C2953.37,-153.71 4395.94,-139.82 4593.5,-107 4606.63,-104.82 4620.83,-100.5 4632.32,-96.49"/>
<polygon fill="#63b8ff" stroke="#63b8ff" points="2624.48,-152.97 2614.51,-156.55 2624.54,-159.97 2624.48,-152.97"/>
</g>
<!-- Node13 -->
<g id="node7" class="node">
<title>Node13</title>
<g id="a_node7"><a xlink:href="d__a__alink_8cpp.html" target="_top" xlink:title=" ">
<polygon fill="white" stroke="#666666" points="1102,-24.5 993,-24.5 993,-5.5 1102,-5.5 1102,-24.5"/>
<text text-anchor="middle" x="1047.5" y="-12.5" font-family="Helvetica,sans-Serif" font-size="10.00">src/d/a/d_a_alink.cpp</text>
</a>
</g>
</g>
<!-- Node3&#45;&gt;Node13 -->
<g id="edge31" class="edge">
<title>Node3&#45;&gt;Node13</title>
<path fill="none" stroke="#63b8ff" d="M2490.83,-143.68C2347.32,-137.99 1050.92,-135.1 1023.5,-107 1001.13,-84.08 1027.08,-42.91 1040.48,-24.88"/>
<polygon fill="#63b8ff" stroke="#63b8ff" points="2490.6,-147.18 2500.79,-144.28 2491.02,-140.19 2490.6,-147.18"/>
</g>
<!-- Node17 -->
<g id="node8" class="node">
<title>Node17</title>
<g id="a_node8"><a xlink:href="d__a__obj__item_8cpp.html" target="_top" xlink:title=" ">
<polygon fill="white" stroke="#666666" points="4794,-24.5 4669,-24.5 4669,-5.5 4794,-5.5 4794,-24.5"/>
<text text-anchor="middle" x="4731.5" y="-12.5" font-family="Helvetica,sans-Serif" font-size="10.00">src/d/a/d_a_obj_item.cpp</text>
</a>
</g>
</g>
<!-- Node3&#45;&gt;Node17 -->
<g id="edge34" class="edge">
<title>Node3&#45;&gt;Node17</title>
<path fill="none" stroke="#63b8ff" d="M2624.31,-156.58C2983.47,-154.15 4670.22,-140.99 4711.5,-107 4736.23,-86.64 4734.67,-43.34 4732.69,-24.76"/>
<polygon fill="#63b8ff" stroke="#63b8ff" points="2624.33,-153.07 2614.35,-156.64 2624.37,-160.07 2624.33,-153.07"/>
</g>
<!-- Node18 -->
<g id="node9" class="node">
<title>Node18</title>
<g id="a_node9"><a xlink:href="d__com__inf__game_8cpp.html" target="_top" xlink:title=" ">
<polygon fill="white" stroke="#666666" points="4650.5,-30 4542.5,-30 4542.5,0 4650.5,0 4650.5,-30"/>
<text text-anchor="start" x="4550.5" y="-18" font-family="Helvetica,sans-Serif" font-size="10.00">src/d/com/d_com_inf</text>
<text text-anchor="middle" x="4596.5" y="-7" font-family="Helvetica,sans-Serif" font-size="10.00">_game.cpp</text>
</a>
</g>
</g>
<!-- Node3&#45;&gt;Node18 -->
<g id="edge40" class="edge">
<title>Node3&#45;&gt;Node18</title>
<path fill="none" stroke="#63b8ff" d="M2624.24,-157.08C2960.32,-157.28 4454.61,-155.4 4539.5,-107 4568.97,-90.19 4585.35,-51.29 4592.35,-30.2"/>
<polygon fill="#63b8ff" stroke="#63b8ff" points="2624.3,-153.58 2614.29,-157.08 2624.29,-160.58 2624.3,-153.58"/>
</g>
<!-- Node21 -->
<g id="node10" class="node">
<title>Node21</title>
<g id="a_node10"><a xlink:href="d__kantera__icon__meter_8h.html" target="_top" xlink:title=" ">
<polygon fill="#fff0f0" stroke="red" points="228,-101.5 127,-101.5 127,-71.5 228,-71.5 228,-101.5"/>
<text text-anchor="start" x="135" y="-89.5" font-family="Helvetica,sans-Serif" font-size="10.00">include/d/d_kantera</text>
<text text-anchor="middle" x="177.5" y="-78.5" font-family="Helvetica,sans-Serif" font-size="10.00">_icon_meter.h</text>
</a>
</g>
</g>
<!-- Node3&#45;&gt;Node21 -->
<g id="edge9" class="edge">
<title>Node3&#45;&gt;Node21</title>
<path fill="none" stroke="#63b8ff" d="M2491.02,-143.08C1975.89,-87.46 727.25,-190.02 236.5,-107 229.59,-105.83 222.38,-104 215.47,-101.91"/>
<polygon fill="#63b8ff" stroke="#63b8ff" points="2490.47,-146.54 2500.8,-144.17 2491.25,-139.59 2490.47,-146.54"/>
</g>
<!-- Node24 -->
<g id="node11" class="node">
<title>Node24</title>
<g id="a_node11"><a xlink:href="d__model_8h.html" target="_top" xlink:title=" ">
<polygon fill="#fff0f0" stroke="red" points="349,-96 246,-96 246,-77 349,-77 349,-96"/>
<text text-anchor="middle" x="297.5" y="-84" font-family="Helvetica,sans-Serif" font-size="10.00">include/d/d_model.h</text>
</a>
</g>
</g>
<!-- Node3&#45;&gt;Node24 -->
<g id="edge10" class="edge">
<title>Node3&#45;&gt;Node24</title>
<path fill="none" stroke="#63b8ff" d="M2490.9,-143.07C2002.46,-90.28 821.87,-184.58 357.5,-107 344.64,-104.85 330.78,-100.49 319.61,-96.43"/>
<polygon fill="#63b8ff" stroke="#63b8ff" points="2490.47,-146.54 2500.8,-144.18 2491.25,-139.59 2490.47,-146.54"/>
</g>
<!-- Node26 -->
<g id="node12" class="node">
<title>Node26</title>
<g id="a_node12"><a xlink:href="d__name_8h.html" target="_top" xlink:title=" ">
<polygon fill="#fff0f0" stroke="red" points="468,-96 367,-96 367,-77 468,-77 468,-96"/>
<text text-anchor="middle" x="417.5" y="-84" font-family="Helvetica,sans-Serif" font-size="10.00">include/d/d_name.h</text>
</a>
</g>
</g>
<!-- Node3&#45;&gt;Node26 -->
<g id="edge11" class="edge">
<title>Node3&#45;&gt;Node26</title>
<path fill="none" stroke="#63b8ff" d="M2491.18,-143.1C2029.47,-93.04 915.63,-180.43 477.5,-107 464.65,-104.85 450.78,-100.48 439.61,-96.43"/>
<polygon fill="#63b8ff" stroke="#63b8ff" points="2490.47,-146.54 2500.8,-144.18 2491.25,-139.59 2490.47,-146.54"/>
</g>
<!-- Node28 -->
<g id="node13" class="node">
<title>Node28</title>
<g id="a_node13"><a xlink:href="d__file__sel__info_8h.html" target="_top" xlink:title=" ">
<polygon fill="#fff0f0" stroke="red" points="582.5,-101.5 486.5,-101.5 486.5,-71.5 582.5,-71.5 582.5,-101.5"/>
<text text-anchor="start" x="494.5" y="-89.5" font-family="Helvetica,sans-Serif" font-size="10.00">include/d/file/d_file</text>
<text text-anchor="middle" x="534.5" y="-78.5" font-family="Helvetica,sans-Serif" font-size="10.00">_sel_info.h</text>
</a>
</g>
</g>
<!-- Node3&#45;&gt;Node28 -->
<g id="edge12" class="edge">
<title>Node3&#45;&gt;Node28</title>
<path fill="none" stroke="#63b8ff" d="M2491.15,-143.1C2054.64,-95.75 1004.06,-179.64 591.5,-107 584.91,-105.84 578.05,-104.04 571.47,-101.99"/>
<polygon fill="#63b8ff" stroke="#63b8ff" points="2490.47,-146.54 2500.8,-144.18 2491.25,-139.59 2490.47,-146.54"/>
</g>
<!-- Node31 -->
<g id="node14" class="node">
<title>Node31</title>
<g id="a_node14"><a xlink:href="d__file__sel__warning_8h.html" target="_top" xlink:title=" ">
<polygon fill="#fff0f0" stroke="red" points="696.5,-101.5 600.5,-101.5 600.5,-71.5 696.5,-71.5 696.5,-101.5"/>
<text text-anchor="start" x="608.5" y="-89.5" font-family="Helvetica,sans-Serif" font-size="10.00">include/d/file/d_file</text>
<text text-anchor="middle" x="648.5" y="-78.5" font-family="Helvetica,sans-Serif" font-size="10.00">_sel_warning.h</text>
</a>
</g>
</g>
<!-- Node3&#45;&gt;Node31 -->
<g id="edge13" class="edge">
<title>Node3&#45;&gt;Node31</title>
<path fill="none" stroke="#63b8ff" d="M2490.9,-143.07C2079.46,-98.43 1093,-175.47 705.5,-107 698.91,-105.84 692.05,-104.03 685.47,-101.99"/>
<polygon fill="#63b8ff" stroke="#63b8ff" points="2490.47,-146.54 2500.8,-144.19 2491.25,-139.59 2490.47,-146.54"/>
</g>
<!-- Node33 -->
<g id="node15" class="node">
<title>Node33</title>
<g id="a_node15"><a xlink:href="d__meter2_8h.html" target="_top" xlink:title=" ">
<polygon fill="#fff0f0" stroke="red" points="848.5,-96 714.5,-96 714.5,-77 848.5,-77 848.5,-96"/>
<text text-anchor="middle" x="781.5" y="-84" font-family="Helvetica,sans-Serif" font-size="10.00">include/d/meter/d_meter2.h</text>
</a>
</g>
</g>
<!-- Node3&#45;&gt;Node33 -->
<g id="edge14" class="edge">
<title>Node3&#45;&gt;Node33</title>
<path fill="none" stroke="#63b8ff" d="M2491.09,-143.06C1768.64,-59.61 1573.88,-205.46 857.5,-107 841.58,-104.81 824.18,-100.5 810.06,-96.48"/>
<polygon fill="#63b8ff" stroke="#63b8ff" points="2490.46,-146.51 2500.8,-144.19 2491.27,-139.55 2490.46,-146.51"/>
</g>
<!-- Node41 -->
<g id="node16" class="node">
<title>Node41</title>
<g id="a_node16"><a xlink:href="d__msg__object_8h.html" target="_top" xlink:title=" ">
<polygon fill="#fff0f0" stroke="red" points="976.5,-101.5 866.5,-101.5 866.5,-71.5 976.5,-71.5 976.5,-101.5"/>
<text text-anchor="start" x="874.5" y="-89.5" font-family="Helvetica,sans-Serif" font-size="10.00">include/d/msg/d_msg</text>
<text text-anchor="middle" x="921.5" y="-78.5" font-family="Helvetica,sans-Serif" font-size="10.00">_object.h</text>
</a>
</g>
</g>
<!-- Node3&#45;&gt;Node41 -->
<g id="edge15" class="edge">
<title>Node3&#45;&gt;Node41</title>
<path fill="none" stroke="#63b8ff" d="M2490.87,-143.06C2142.55,-104.83 1317.01,-156.25 990.5,-107 982.62,-105.81 974.37,-104 966.42,-101.95"/>
<polygon fill="#63b8ff" stroke="#63b8ff" points="2490.46,-146.54 2500.8,-144.2 2491.26,-139.59 2490.46,-146.54"/>
</g>
<!-- Node46 -->
<g id="node17" class="node">
<title>Node46</title>
<g id="a_node17"><a xlink:href="d__demo_8cpp.html" target="_top" xlink:title=" ">
<polygon fill="white" stroke="#666666" points="625.5,-24.5 531.5,-24.5 531.5,-5.5 625.5,-5.5 625.5,-24.5"/>
<text text-anchor="middle" x="578.5" y="-12.5" font-family="Helvetica,sans-Serif" font-size="10.00">src/d/d_demo.cpp</text>
</a>
</g>
</g>
<!-- Node3&#45;&gt;Node46 -->
<g id="edge45" class="edge">
<title>Node3&#45;&gt;Node46</title>
<path fill="none" stroke="#63b8ff" d="M2491.02,-143.66C2302.69,-136.5 162.51,-152.7 117.5,-107 104.71,-94.02 105.33,-79.56 117.5,-66 144.82,-35.56 419.35,-21.94 531.33,-17.62"/>
<polygon fill="#63b8ff" stroke="#63b8ff" points="2490.6,-147.14 2500.79,-144.25 2491.02,-140.16 2490.6,-147.14"/>
</g>
<!-- Node3&#45;&gt;Node47 -->
<g id="edge53" class="edge">
<title>Node3&#45;&gt;Node47</title>
<path fill="none" stroke="#63b8ff" d="M2490.99,-143.63C2302.16,-135.85 158.88,-141.68 104.5,-107 75.06,-88.22 64.8,-43.65 61.69,-24.73"/>
<polygon fill="#63b8ff" stroke="#63b8ff" points="2490.6,-147.12 2500.79,-144.24 2491.03,-140.13 2490.6,-147.12"/>
</g>
<!-- Node3&#45;&gt;Node48 -->
<g id="edge54" class="edge">
<title>Node3&#45;&gt;Node48</title>
<path fill="none" stroke="#63b8ff" d="M2624.19,-156.57C2963.95,-154.21 4487.66,-141.71 4521.5,-107 4534.22,-93.95 4528.39,-82.87 4521.5,-66 4515.67,-51.71 4503.56,-39.29 4492.84,-30.41"/>
<polygon fill="#63b8ff" stroke="#63b8ff" points="2624.33,-153.07 2614.36,-156.64 2624.38,-160.07 2624.33,-153.07"/>
</g>
<!-- Node55 -->
<g id="node20" class="node">
<title>Node55</title>
<g id="a_node20"><a xlink:href="d__s__logo_8h.html" target="_top" xlink:title=" ">
<polygon fill="#fff0f0" stroke="red" points="1280,-96 1167,-96 1167,-77 1280,-77 1280,-96"/>
<text text-anchor="middle" x="1223.5" y="-84" font-family="Helvetica,sans-Serif" font-size="10.00">include/d/s/d_s_logo.h</text>
</a>
</g>
</g>
<!-- Node3&#45;&gt;Node55 -->
<g id="edge20" class="edge">
<title>Node3&#45;&gt;Node55</title>
<path fill="none" stroke="#63b8ff" d="M2491.25,-143.07C1959.08,-79.92 1813.34,-192.06 1288.5,-107 1274.78,-104.78 1259.89,-100.46 1247.84,-96.45"/>
<polygon fill="#63b8ff" stroke="#63b8ff" points="2490.45,-146.49 2500.8,-144.21 2491.28,-139.54 2490.45,-146.49"/>
</g>
<!-- Node57 -->
<g id="node21" class="node">
<title>Node57</title>
<g id="a_node21"><a xlink:href="d__s__play_8h.html" target="_top" xlink:title=" ">
<polygon fill="#fff0f0" stroke="red" points="1411,-96 1298,-96 1298,-77 1411,-77 1411,-96"/>
<text text-anchor="middle" x="1354.5" y="-84" font-family="Helvetica,sans-Serif" font-size="10.00">include/d/s/d_s_play.h</text>
</a>
</g>
</g>
<!-- Node3&#45;&gt;Node57 -->
<g id="edge21" class="edge">
<title>Node3&#45;&gt;Node57</title>
<path fill="none" stroke="#63b8ff" d="M2491.03,-143.03C2016.91,-86.08 1886.69,-183.59 1419.5,-107 1405.78,-104.75 1390.9,-100.43 1378.84,-96.43"/>
<polygon fill="#63b8ff" stroke="#63b8ff" points="2490.44,-146.49 2500.79,-144.22 2491.29,-139.54 2490.44,-146.49"/>
</g>
<!-- Node61 -->
<g id="node22" class="node">
<title>Node61</title>
<g id="a_node22"><a xlink:href="d__msg__scrn__base_8h.html" target="_top" xlink:title=" ">
<polygon fill="#fff0f0" stroke="red" points="1528,-101.5 1429,-101.5 1429,-71.5 1528,-71.5 1528,-101.5"/>
<text text-anchor="start" x="1437" y="-89.5" font-family="Helvetica,sans-Serif" font-size="10.00">include/msg/scrn/d</text>
<text text-anchor="middle" x="1478.5" y="-78.5" font-family="Helvetica,sans-Serif" font-size="10.00">_msg_scrn_base.h</text>
</a>
</g>
</g>
<!-- Node3&#45;&gt;Node61 -->
<g id="edge22" class="edge">
<title>Node3&#45;&gt;Node61</title>
<path fill="none" stroke="#63b8ff" d="M2490.98,-143.02C2068.56,-91.67 1951.07,-182.86 1536.5,-107 1529.92,-105.8 1523.06,-104 1516.47,-101.98"/>
<polygon fill="#63b8ff" stroke="#63b8ff" points="2490.44,-146.48 2500.79,-144.24 2491.3,-139.54 2490.44,-146.48"/>
</g>
<!-- Node65 -->
<g id="node23" class="node">
<title>Node65</title>
<g id="a_node23"><a xlink:href="d__a__b__zant_8h.html" target="_top" xlink:title=" ">
<polygon fill="white" stroke="#666666" points="1667,-101.5 1546,-101.5 1546,-71.5 1667,-71.5 1667,-101.5"/>
<text text-anchor="start" x="1554" y="-89.5" font-family="Helvetica,sans-Serif" font-size="10.00">include/rel/d/a/b/d</text>
<text text-anchor="middle" x="1606.5" y="-78.5" font-family="Helvetica,sans-Serif" font-size="10.00">_a_b_zant/d_a_b_zant.h</text>
</a>
</g>
</g>
<!-- Node3&#45;&gt;Node65 -->
<g id="edge23" class="edge">
<title>Node3&#45;&gt;Node65</title>
<path fill="none" stroke="#63b8ff" d="M2491,-143.01C2130.43,-97.99 2031.33,-163.49 1676.5,-107 1668.65,-105.75 1660.43,-103.93 1652.49,-101.91"/>
<polygon fill="#63b8ff" stroke="#63b8ff" points="2490.43,-146.47 2500.79,-144.26 2491.31,-139.52 2490.43,-146.47"/>
</g>
<!-- Node66 -->
<g id="node24" class="node">
<title>Node66</title>
<g id="a_node24"><a xlink:href="d__a__skip__2D_8h.html" target="_top" xlink:title=" ">
<polygon fill="white" stroke="#666666" points="1809.5,-101.5 1685.5,-101.5 1685.5,-71.5 1809.5,-71.5 1809.5,-101.5"/>
<text text-anchor="start" x="1693.5" y="-89.5" font-family="Helvetica,sans-Serif" font-size="10.00">include/rel/d/a/d_a</text>
<text text-anchor="middle" x="1747.5" y="-78.5" font-family="Helvetica,sans-Serif" font-size="10.00">_skip_2D/d_a_skip_2D.h</text>
</a>
</g>
</g>
<!-- Node3&#45;&gt;Node66 -->
<g id="edge24" class="edge">
<title>Node3&#45;&gt;Node66</title>
<path fill="none" stroke="#63b8ff" d="M2491.22,-143.03C2195.39,-104.7 2114.22,-151.67 1823.5,-107 1815.15,-105.72 1806.39,-103.91 1797.9,-101.91"/>
<polygon fill="#63b8ff" stroke="#63b8ff" points="2490.41,-146.45 2500.79,-144.29 2491.33,-139.51 2490.41,-146.45"/>
</g>
<!-- Node67 -->
<g id="node25" class="node">
<title>Node67</title>
<g id="a_node25"><a xlink:href="d__a__spinner_8h.html" target="_top" xlink:title=" ">
<polygon fill="white" stroke="#666666" points="1148.5,-101.5 1032.5,-101.5 1032.5,-71.5 1148.5,-71.5 1148.5,-101.5"/>
<text text-anchor="start" x="1040.5" y="-89.5" font-family="Helvetica,sans-Serif" font-size="10.00">include/rel/d/a/d_a</text>
<text text-anchor="middle" x="1090.5" y="-78.5" font-family="Helvetica,sans-Serif" font-size="10.00">_spinner/d_a_spinner.h</text>
</a>
</g>
</g>
<!-- Node3&#45;&gt;Node67 -->
<g id="edge25" class="edge">
<title>Node3&#45;&gt;Node67</title>
<path fill="none" stroke="#63b8ff" d="M2490.94,-143.03C1901.15,-73.81 1740.2,-198.1 1157.5,-107 1149.84,-105.8 1141.82,-103.98 1134.1,-101.93"/>
<polygon fill="#63b8ff" stroke="#63b8ff" points="2490.45,-146.5 2500.8,-144.2 2491.28,-139.55 2490.45,-146.5"/>
</g>
<!-- Node68 -->
<g id="node26" class="node">
<title>Node68</title>
<g id="a_node26"><a xlink:href="d__a__player_8cpp.html" target="_top" xlink:title=" ">
<polygon fill="white" stroke="#666666" points="1543.5,-24.5 1429.5,-24.5 1429.5,-5.5 1543.5,-5.5 1543.5,-24.5"/>
<text text-anchor="middle" x="1486.5" y="-12.5" font-family="Helvetica,sans-Serif" font-size="10.00">src/d/a/d_a_player.cpp</text>
</a>
</g>
</g>
<!-- Node3&#45;&gt;Node68 -->
<g id="edge35" class="edge">
<title>Node3&#45;&gt;Node68</title>
<path fill="none" stroke="#63b8ff" d="M2490.91,-143.11C2334.41,-126.09 1981.45,-165.82 1856.5,-107 1834.02,-96.42 1840.46,-77.61 1818.5,-66 1772,-41.41 1626.02,-26.64 1543.96,-20.06"/>
<polygon fill="#63b8ff" stroke="#63b8ff" points="2490.43,-146.58 2500.78,-144.31 2491.28,-139.63 2490.43,-146.58"/>
</g>
<!-- Node69 -->
<g id="node27" class="node">
<title>Node69</title>
<g id="a_node27"><a xlink:href="d__a__obj__yobikusa_8h.html" target="_top" xlink:title=" ">
<polygon fill="white" stroke="#666666" points="1971,-107 1866,-107 1866,-66 1971,-66 1971,-107"/>
<text text-anchor="start" x="1874" y="-95" font-family="Helvetica,sans-Serif" font-size="10.00">include/rel/d/a/obj</text>
<text text-anchor="start" x="1874" y="-84" font-family="Helvetica,sans-Serif" font-size="10.00">/d_a_obj_yobikusa/d</text>
<text text-anchor="middle" x="1918.5" y="-73" font-family="Helvetica,sans-Serif" font-size="10.00">_a_obj_yobikusa.h</text>
</a>
</g>
</g>
<!-- Node3&#45;&gt;Node69 -->
<g id="edge28" class="edge">
<title>Node3&#45;&gt;Node69</title>
<path fill="none" stroke="#63b8ff" d="M2491.02,-142.98C2264.61,-112.13 2201.01,-148.83 1980.5,-107 1977.51,-106.43 1974.46,-105.77 1971.39,-105.03"/>
<polygon fill="#63b8ff" stroke="#63b8ff" points="2490.39,-146.42 2500.78,-144.34 2491.36,-139.49 2490.39,-146.42"/>
</g>
<!-- Node70 -->
<g id="node28" class="node">
<title>Node70</title>
<g id="a_node28"><a xlink:href="d__a__tag__telop_8h.html" target="_top" xlink:title=" ">
<polygon fill="white" stroke="#666666" points="2107.5,-107 1989.5,-107 1989.5,-66 2107.5,-66 2107.5,-107"/>
<text text-anchor="start" x="1997.5" y="-95" font-family="Helvetica,sans-Serif" font-size="10.00">include/rel/d/a/tag</text>
<text text-anchor="start" x="1997.5" y="-84" font-family="Helvetica,sans-Serif" font-size="10.00">/d_a_tag_telop/d_a_tag</text>
<text text-anchor="middle" x="2048.5" y="-73" font-family="Helvetica,sans-Serif" font-size="10.00">_telop.h</text>
</a>
</g>
</g>
<!-- Node3&#45;&gt;Node70 -->
<g id="edge29" class="edge">
<title>Node3&#45;&gt;Node70</title>
<path fill="none" stroke="#63b8ff" d="M2491.12,-142.95C2324.61,-118.16 2277.89,-137.6 2116.5,-107 2113.6,-106.45 2110.65,-105.83 2107.68,-105.17"/>
<polygon fill="#63b8ff" stroke="#63b8ff" points="2490.35,-146.37 2500.77,-144.42 2491.41,-139.45 2490.35,-146.37"/>
</g>
<!-- Node71 -->
<g id="node29" class="node">
<title>Node71</title>
<g id="a_node29"><a xlink:href="c__dylink_8cpp.html" target="_top" xlink:title=" ">
<polygon fill="white" stroke="#666666" points="2221,-96 2126,-96 2126,-77 2221,-77 2221,-96"/>
<text text-anchor="middle" x="2173.5" y="-84" font-family="Helvetica,sans-Serif" font-size="10.00">src/c/c_dylink.cpp</text>
</a>
</g>
</g>
<!-- Node3&#45;&gt;Node71 -->
<g id="edge30" class="edge">
<title>Node3&#45;&gt;Node71</title>
<path fill="none" stroke="#63b8ff" d="M2491.09,-142.88C2374.74,-123.27 2341.4,-133.33 2230.5,-107 2219,-104.27 2206.55,-100.15 2196.22,-96.4"/>
<polygon fill="#63b8ff" stroke="#63b8ff" points="2490.3,-146.29 2500.75,-144.54 2491.49,-139.39 2490.3,-146.29"/>
</g>
<!-- Node72 -->
<g id="node30" class="node">
<title>Node72</title>
<g id="a_node30"><a xlink:href="d__a__itembase_8cpp.html" target="_top" xlink:title=" ">
<polygon fill="white" stroke="#666666" points="2367.5,-96 2239.5,-96 2239.5,-77 2367.5,-77 2367.5,-96"/>
<text text-anchor="middle" x="2303.5" y="-84" font-family="Helvetica,sans-Serif" font-size="10.00">src/d/a/d_a_itembase.cpp</text>
</a>
</g>
</g>
<!-- Node3&#45;&gt;Node72 -->
<g id="edge32" class="edge">
<title>Node3&#45;&gt;Node72</title>
<path fill="none" stroke="#63b8ff" d="M2493.52,-139.49C2443.44,-125.79 2375.84,-107.29 2336.23,-96.46"/>
<polygon fill="#63b8ff" stroke="#63b8ff" points="2492.53,-142.85 2503.1,-142.12 2494.38,-136.1 2492.53,-142.85"/>
</g>
<!-- Node73 -->
<g id="node31" class="node">
<title>Node73</title>
<g id="a_node31"><a xlink:href="d__a__obj_8cpp.html" target="_top" xlink:title=" ">
<polygon fill="white" stroke="#666666" points="2487,-96 2386,-96 2386,-77 2487,-77 2487,-96"/>
<text text-anchor="middle" x="2436.5" y="-84" font-family="Helvetica,sans-Serif" font-size="10.00">src/d/a/d_a_obj.cpp</text>
</a>
</g>
</g>
<!-- Node3&#45;&gt;Node73 -->
<g id="edge33" class="edge">
<title>Node3&#45;&gt;Node73</title>
<path fill="none" stroke="#63b8ff" d="M2522.53,-136.92C2499.2,-123.51 2469.65,-106.54 2451.96,-96.38"/>
<polygon fill="#63b8ff" stroke="#63b8ff" points="2520.7,-139.9 2531.12,-141.85 2524.19,-133.83 2520.7,-139.9"/>
</g>
<!-- Node74 -->
<g id="node32" class="node">
<title>Node74</title>
<g id="a_node32"><a xlink:href="d__bg__s_8cpp.html" target="_top" xlink:title=" ">
<polygon fill="white" stroke="#666666" points="2609.5,-96 2505.5,-96 2505.5,-77 2609.5,-77 2609.5,-96"/>
<text text-anchor="middle" x="2557.5" y="-84" font-family="Helvetica,sans-Serif" font-size="10.00">src/d/bg/d_bg_s.cpp</text>
</a>
</g>
</g>
<!-- Node3&#45;&gt;Node74 -->
<g id="edge36" class="edge">
<title>Node3&#45;&gt;Node74</title>
<path fill="none" stroke="#63b8ff" d="M2557.5,-131.46C2557.5,-119.07 2557.5,-104.99 2557.5,-96.18"/>
<polygon fill="#63b8ff" stroke="#63b8ff" points="2554,-131.09 2557.5,-141.09 2561,-131.09 2554,-131.09"/>
</g>
<!-- Node75 -->
<g id="node33" class="node">
<title>Node75</title>
<g id="a_node33"><a xlink:href="d__bg__s__movebg__actor_8cpp.html" target="_top" xlink:title=" ">
<polygon fill="white" stroke="#666666" points="2753.5,-101.5 2627.5,-101.5 2627.5,-71.5 2753.5,-71.5 2753.5,-101.5"/>
<text text-anchor="start" x="2635.5" y="-89.5" font-family="Helvetica,sans-Serif" font-size="10.00">src/d/bg/d_bg_s_movebg</text>
<text text-anchor="middle" x="2690.5" y="-78.5" font-family="Helvetica,sans-Serif" font-size="10.00">_actor.cpp</text>
</a>
</g>
</g>
<!-- Node3&#45;&gt;Node75 -->
<g id="edge37" class="edge">
<title>Node3&#45;&gt;Node75</title>
<path fill="none" stroke="#63b8ff" d="M2595.2,-137.3C2616.77,-126.03 2643.37,-112.13 2662.98,-101.88"/>
<polygon fill="#63b8ff" stroke="#63b8ff" points="2593.64,-134.17 2586.4,-141.9 2596.88,-140.37 2593.64,-134.17"/>
</g>
<!-- Node76 -->
<g id="node34" class="node">
<title>Node76</title>
<g id="a_node34"><a xlink:href="d__bg__w_8cpp.html" target="_top" xlink:title=" ">
<polygon fill="white" stroke="#666666" points="2879,-96 2772,-96 2772,-77 2879,-77 2879,-96"/>
<text text-anchor="middle" x="2825.5" y="-84" font-family="Helvetica,sans-Serif" font-size="10.00">src/d/bg/d_bg_w.cpp</text>
</a>
</g>
</g>
<!-- Node3&#45;&gt;Node76 -->
<g id="edge38" class="edge">
<title>Node3&#45;&gt;Node76</title>
<path fill="none" stroke="#63b8ff" d="M2624,-141.86C2664.25,-132.43 2716.51,-119.71 2762.5,-107 2774.2,-103.77 2787.01,-99.87 2798.01,-96.41"/>
<polygon fill="#63b8ff" stroke="#63b8ff" points="2623.4,-138.41 2614.46,-144.09 2624.99,-145.23 2623.4,-138.41"/>
</g>
<!-- Node77 -->
<g id="node35" class="node">
<title>Node77</title>
<g id="a_node35"><a xlink:href="d__cc__s_8cpp.html" target="_top" xlink:title=" ">
<polygon fill="white" stroke="#666666" points="3001.5,-96 2897.5,-96 2897.5,-77 3001.5,-77 3001.5,-96"/>
<text text-anchor="middle" x="2949.5" y="-84" font-family="Helvetica,sans-Serif" font-size="10.00">src/d/cc/d_cc_s.cpp</text>
</a>
</g>
</g>
<!-- Node3&#45;&gt;Node77 -->
<g id="edge39" class="edge">
<title>Node3&#45;&gt;Node77</title>
<path fill="none" stroke="#63b8ff" d="M2624.11,-149.97C2691.17,-142.17 2797.31,-127.88 2887.5,-107 2899.7,-104.17 2912.98,-100.13 2924.1,-96.46"/>
<polygon fill="#63b8ff" stroke="#63b8ff" points="2623.92,-146.47 2614.38,-151.08 2624.72,-153.42 2623.92,-146.47"/>
</g>
<!-- Node78 -->
<g id="node36" class="node">
<title>Node78</title>
<g id="a_node36"><a xlink:href="d__com__static_8cpp.html" target="_top" xlink:title=" ">
<polygon fill="white" stroke="#666666" points="3159.5,-96 3019.5,-96 3019.5,-77 3159.5,-77 3159.5,-96"/>
<text text-anchor="middle" x="3089.5" y="-84" font-family="Helvetica,sans-Serif" font-size="10.00">src/d/com/d_com_static.cpp</text>
</a>
</g>
</g>
<!-- Node3&#45;&gt;Node78 -->
<g id="edge41" class="edge">
<title>Node3&#45;&gt;Node78</title>
<path fill="none" stroke="#63b8ff" d="M2624.16,-152.41C2712.85,-145.68 2874.3,-131.22 3010.5,-107 3026.08,-104.23 3043.15,-100.15 3057.42,-96.44"/>
<polygon fill="#63b8ff" stroke="#63b8ff" points="2624.14,-148.9 2614.43,-153.14 2624.67,-155.88 2624.14,-148.9"/>
</g>
<!-- Node79 -->
<g id="node37" class="node">
<title>Node79</title>
<g id="a_node37"><a xlink:href="d__attention_8cpp.html" target="_top" xlink:title=" ">
<polygon fill="white" stroke="#666666" points="3285,-96 3178,-96 3178,-77 3285,-77 3285,-96"/>
<text text-anchor="middle" x="3231.5" y="-84" font-family="Helvetica,sans-Serif" font-size="10.00">src/d/d_attention.cpp</text>
</a>
</g>
</g>
<!-- Node3&#45;&gt;Node79 -->
<g id="edge42" class="edge">
<title>Node3&#45;&gt;Node79</title>
<path fill="none" stroke="#63b8ff" d="M2624.01,-156.29C2736.95,-154.04 2973.01,-144.78 3168.5,-107 3181.43,-104.5 3195.45,-100.31 3206.98,-96.46"/>
<polygon fill="#63b8ff" stroke="#63b8ff" points="2624.26,-152.79 2614.33,-156.47 2624.39,-159.79 2624.26,-152.79"/>
</g>
<!-- Node80 -->
<g id="node38" class="node">
<title>Node80</title>
<g id="a_node38"><a xlink:href="d__cam__param_8cpp.html" target="_top" xlink:title=" ">
<polygon fill="white" stroke="#666666" points="3424,-96 3303,-96 3303,-77 3424,-77 3424,-96"/>
<text text-anchor="middle" x="3363.5" y="-84" font-family="Helvetica,sans-Serif" font-size="10.00">src/d/d_cam_param.cpp</text>
</a>
</g>
</g>
<!-- Node3&#45;&gt;Node80 -->
<g id="edge43" class="edge">
<title>Node3&#45;&gt;Node80</title>
<path fill="none" stroke="#63b8ff" d="M2624.19,-157C2754.01,-156 3049.35,-148.85 3293.5,-107 3307.8,-104.55 3323.38,-100.37 3336.2,-96.5"/>
<polygon fill="#63b8ff" stroke="#63b8ff" points="2624.38,-153.5 2614.4,-157.06 2624.43,-160.5 2624.38,-153.5"/>
</g>
<!-- Node3&#45;&gt;Node81 -->
<g id="edge44" class="edge">
<title>Node3&#45;&gt;Node81</title>
<path fill="none" stroke="#63b8ff" d="M2624.39,-156.54C2968.55,-154.03 4531.96,-140.84 4745.5,-107 4759.23,-104.82 4774.11,-100.51 4786.17,-96.49"/>
<polygon fill="#63b8ff" stroke="#63b8ff" points="2624.39,-153.04 2614.41,-156.61 2624.44,-160.04 2624.39,-153.04"/>
</g>
<!-- Node82 -->
<g id="node40" class="node">
<title>Node82</title>
<g id="a_node40"><a xlink:href="d__eye__hl_8cpp.html" target="_top" xlink:title=" ">
<polygon fill="white" stroke="#666666" points="3540.5,-96 3442.5,-96 3442.5,-77 3540.5,-77 3540.5,-96"/>
<text text-anchor="middle" x="3491.5" y="-84" font-family="Helvetica,sans-Serif" font-size="10.00">src/d/d_eye_hl.cpp</text>
</a>
</g>
</g>
<!-- Node3&#45;&gt;Node82 -->
<g id="edge46" class="edge">
<title>Node3&#45;&gt;Node82</title>
<path fill="none" stroke="#63b8ff" d="M2624.15,-155.45C2800.73,-150.98 3277.72,-136.47 3432.5,-107 3444.9,-104.64 3458.29,-100.36 3469.17,-96.42"/>
<polygon fill="#63b8ff" stroke="#63b8ff" points="2624.13,-151.95 2614.22,-155.7 2624.3,-158.95 2624.13,-151.95"/>
</g>
<!-- Node83 -->
<g id="node41" class="node">
<title>Node83</title>
<g id="a_node41"><a xlink:href="d__kyeff_8cpp.html" target="_top" xlink:title=" ">
<polygon fill="white" stroke="#666666" points="3648.5,-96 3558.5,-96 3558.5,-77 3648.5,-77 3648.5,-96"/>
<text text-anchor="middle" x="3603.5" y="-84" font-family="Helvetica,sans-Serif" font-size="10.00">src/d/d_kyeff.cpp</text>
</a>
</g>
</g>
<!-- Node3&#45;&gt;Node83 -->
<g id="edge47" class="edge">
<title>Node3&#45;&gt;Node83</title>
<path fill="none" stroke="#63b8ff" d="M2624.32,-156.2C2817.09,-153.5 3371.82,-142.73 3549.5,-107 3560.93,-104.7 3573.2,-100.43 3583.14,-96.47"/>
<polygon fill="#63b8ff" stroke="#63b8ff" points="2624.43,-152.7 2614.47,-156.34 2624.52,-159.7 2624.43,-152.7"/>
</g>
<!-- Node84 -->
<g id="node42" class="node">
<title>Node84</title>
<g id="a_node42"><a xlink:href="d__path_8cpp.html" target="_top" xlink:title=" ">
<polygon fill="white" stroke="#666666" points="3756,-96 3667,-96 3667,-77 3756,-77 3756,-96"/>
<text text-anchor="middle" x="3711.5" y="-84" font-family="Helvetica,sans-Serif" font-size="10.00">src/d/d_path.cpp</text>
</a>
</g>
</g>
<!-- Node3&#45;&gt;Node84 -->
<g id="edge48" class="edge">
<title>Node3&#45;&gt;Node84</title>
<path fill="none" stroke="#63b8ff" d="M2624.07,-156.59C2830.51,-154.91 3458.06,-146.6 3657.5,-107 3668.94,-104.73 3681.2,-100.46 3691.15,-96.5"/>
<polygon fill="#63b8ff" stroke="#63b8ff" points="2624.3,-153.09 2614.33,-156.67 2624.35,-160.09 2624.3,-153.09"/>
</g>
<!-- Node85 -->
<g id="node43" class="node">
<title>Node85</title>
<g id="a_node43"><a xlink:href="d__resorce_8cpp.html" target="_top" xlink:title=" ">
<polygon fill="white" stroke="#666666" points="3876.5,-96 3774.5,-96 3774.5,-77 3876.5,-77 3876.5,-96"/>
<text text-anchor="middle" x="3825.5" y="-84" font-family="Helvetica,sans-Serif" font-size="10.00">src/d/d_resorce.cpp</text>
</a>
</g>
</g>
<!-- Node3&#45;&gt;Node85 -->
<g id="edge49" class="edge">
<title>Node3&#45;&gt;Node85</title>
<path fill="none" stroke="#63b8ff" d="M2624.05,-156.59C2843.47,-154.85 3542.73,-146.3 3764.5,-107 3777.31,-104.73 3791.15,-100.46 3802.41,-96.5"/>
<polygon fill="#63b8ff" stroke="#63b8ff" points="2624.22,-153.08 2614.25,-156.66 2624.27,-160.08 2624.22,-153.08"/>
</g>
<!-- Node86 -->
<g id="node44" class="node">
<title>Node86</title>
<g id="a_node44"><a xlink:href="d__simple__model_8cpp.html" target="_top" xlink:title=" ">
<polygon fill="white" stroke="#666666" points="4024.5,-96 3894.5,-96 3894.5,-77 4024.5,-77 4024.5,-96"/>
<text text-anchor="middle" x="3959.5" y="-84" font-family="Helvetica,sans-Serif" font-size="10.00">src/d/d_simple_model.cpp</text>
</a>
</g>
</g>
<!-- Node3&#45;&gt;Node86 -->
<g id="edge50" class="edge">
<title>Node3&#45;&gt;Node86</title>
<path fill="none" stroke="#63b8ff" d="M2624.25,-156.43C2857.9,-154.12 3638.22,-143.78 3885.5,-107 3900.88,-104.71 3917.65,-100.44 3931.34,-96.48"/>
<polygon fill="#63b8ff" stroke="#63b8ff" points="2624.36,-152.93 2614.4,-156.52 2624.43,-159.93 2624.36,-152.93"/>
</g>
<!-- Node87 -->
<g id="node45" class="node">
<title>Node87</title>
<g id="a_node45"><a xlink:href="d__stage_8cpp.html" target="_top" xlink:title=" ">
<polygon fill="white" stroke="#666666" points="4136.5,-96 4042.5,-96 4042.5,-77 4136.5,-77 4136.5,-96"/>
<text text-anchor="middle" x="4089.5" y="-84" font-family="Helvetica,sans-Serif" font-size="10.00">src/d/d_stage.cpp</text>
</a>
</g>
</g>
<!-- Node3&#45;&gt;Node87 -->
<g id="edge51" class="edge">
<title>Node3&#45;&gt;Node87</title>
<path fill="none" stroke="#63b8ff" d="M2624.13,-157.4C2874.35,-158.48 3757.63,-158.47 4033.5,-107 4045.44,-104.77 4058.27,-100.45 4068.64,-96.45"/>
<polygon fill="#63b8ff" stroke="#63b8ff" points="2624.23,-153.9 2614.21,-157.35 2624.2,-160.9 2624.23,-153.9"/>
</g>
<!-- Node88 -->
<g id="node46" class="node">
<title>Node88</title>
<g id="a_node46"><a xlink:href="d__timer_8cpp.html" target="_top" xlink:title=" ">
<polygon fill="white" stroke="#666666" points="4246.5,-96 4154.5,-96 4154.5,-77 4246.5,-77 4246.5,-96"/>
<text text-anchor="middle" x="4200.5" y="-84" font-family="Helvetica,sans-Serif" font-size="10.00">src/d/d_timer.cpp</text>
</a>
</g>
</g>
<!-- Node3&#45;&gt;Node88 -->
<g id="edge52" class="edge">
<title>Node3&#45;&gt;Node88</title>
<path fill="none" stroke="#63b8ff" d="M2624.06,-156.12C2906.06,-152.21 3994.69,-135.39 4145.5,-107 4157.25,-104.79 4169.85,-100.47 4180.03,-96.46"/>
<polygon fill="#63b8ff" stroke="#63b8ff" points="2624.27,-152.61 2614.32,-156.25 2624.37,-159.61 2624.27,-152.61"/>
</g>
<!-- Node3&#45;&gt;Node91 -->
<g id="edge55" class="edge">
<title>Node3&#45;&gt;Node91</title>
<path fill="none" stroke="#63b8ff" d="M2624.18,-156.7C2979.67,-154.95 4644.23,-144.8 4870.5,-107 4877.52,-105.83 4884.84,-104.02 4891.87,-101.97"/>
<polygon fill="#63b8ff" stroke="#63b8ff" points="2624.32,-153.2 2614.34,-156.75 2624.35,-160.2 2624.32,-153.2"/>
</g>
<!-- Node16&#45;&gt;Node13 -->
<g id="edge6" class="edge">
<title>Node16&#45;&gt;Node13</title>
<path fill="none" stroke="#63b8ff" d="M4596.5,-75.19C4573.21,-71.57 4546.17,-67.93 4521.5,-66 3834.44,-12.26 2109.45,-46.93 1420.5,-30 1307.45,-27.22 1175.21,-21.73 1102.47,-18.51"/>
<polygon fill="#63b8ff" stroke="#63b8ff" points="4595.69,-78.6 4606.11,-76.72 4596.79,-71.69 4595.69,-78.6"/>
</g>
<!-- Node16&#45;&gt;Node17 -->
<g id="edge7" class="edge">
<title>Node16&#45;&gt;Node17</title>
<path fill="none" stroke="#63b8ff" d="M4673.21,-69.31C4688.32,-55.49 4709.48,-36.14 4721.71,-24.95"/>
<polygon fill="#63b8ff" stroke="#63b8ff" points="4671.26,-66.35 4666.24,-75.68 4675.98,-71.51 4671.26,-66.35"/>
</g>
<!-- Node16&#45;&gt;Node18 -->
<g id="edge8" class="edge">
<title>Node16&#45;&gt;Node18</title>
<path fill="none" stroke="#63b8ff" d="M4640.84,-68.24C4630.92,-56.54 4617.96,-41.28 4608.62,-30.27"/>
<polygon fill="#63b8ff" stroke="#63b8ff" points="4637.91,-70.19 4647.05,-75.54 4643.24,-65.66 4637.91,-70.19"/>
</g>
<!-- Node41&#45;&gt;Node13 -->
<g id="edge16" class="edge">
<title>Node41&#45;&gt;Node13</title>
<path fill="none" stroke="#63b8ff" d="M957.58,-65.6C981.94,-52.16 1012.9,-35.09 1031.4,-24.88"/>
<polygon fill="#63b8ff" stroke="#63b8ff" points="956,-62.47 948.93,-70.37 959.38,-68.6 956,-62.47"/>
</g>
<!-- Node41&#45;&gt;Node46 -->
<g id="edge17" class="edge">
<title>Node41&#45;&gt;Node46</title>
<path fill="none" stroke="#63b8ff" d="M865.48,-68.02C862.79,-67.31 860.12,-66.63 857.5,-66 776.89,-46.57 681.52,-31.06 625.75,-22.72"/>
<polygon fill="#63b8ff" stroke="#63b8ff" points="864.55,-71.39 875.12,-70.68 866.41,-64.64 864.55,-71.39"/>
</g>
<!-- Node41&#45;&gt;Node47 -->
<g id="edge18" class="edge">
<title>Node41&#45;&gt;Node47</title>
<path fill="none" stroke="#63b8ff" d="M868.3,-68.28C864.67,-67.41 861.04,-66.64 857.5,-66 716.31,-40.42 282.35,-23.52 121.4,-17.98"/>
<polygon fill="#63b8ff" stroke="#63b8ff" points="867.13,-71.59 877.69,-70.71 868.88,-64.81 867.13,-71.59"/>
</g>
<!-- Node41&#45;&gt;Node48 -->
<g id="edge19" class="edge">
<title>Node41&#45;&gt;Node48</title>
<path fill="none" stroke="#63b8ff" d="M987.96,-71.06C999.75,-69 1011.95,-67.18 1023.5,-66 1375.46,-30.08 4016.55,-17.87 4420.69,-16.2"/>
<polygon fill="#63b8ff" stroke="#63b8ff" points="987.52,-67.59 978.31,-72.83 988.78,-74.47 987.52,-67.59"/>
</g>
<!-- Node67&#45;&gt;Node13 -->
<g id="edge26" class="edge">
<title>Node67&#45;&gt;Node13</title>
<path fill="none" stroke="#63b8ff" d="M1075.64,-61.49C1067.76,-48.74 1058.55,-33.86 1052.87,-24.68"/>
<polygon fill="#63b8ff" stroke="#63b8ff" points="1072.56,-63.15 1080.79,-69.81 1078.51,-59.47 1072.56,-63.15"/>
</g>
<!-- Node67&#45;&gt;Node68 -->
<g id="edge27" class="edge">
<title>Node67&#45;&gt;Node68</title>
<path fill="none" stroke="#63b8ff" d="M1148.03,-68.23C1151.22,-67.43 1154.39,-66.68 1157.5,-66 1251.72,-45.23 1363.02,-30.28 1429.02,-22.39"/>
<polygon fill="#63b8ff" stroke="#63b8ff" points="1147.41,-64.77 1138.62,-70.68 1149.18,-71.54 1147.41,-64.77"/>
</g>
</g>
</svg>
