<?xml version="1.0" encoding="UTF-8" standalone="no"?>
<!DOCTYPE svg PUBLIC "-//W3C//DTD SVG 1.1//EN"
 "http://www.w3.org/Graphics/SVG/1.1/DTD/svg11.dtd">
<!-- Generated by graphviz version 7.0.4 (20221203.1631)
 -->
<!-- Title: include/d/d_eye_hl.h Pages: 1 -->
<svg width="5421pt" height="291pt"
 viewBox="0.00 0.00 5421.00 291.00" xmlns="http://www.w3.org/2000/svg" xmlns:xlink="http://www.w3.org/1999/xlink">
<g id="graph0" class="graph" transform="scale(1 1) rotate(0) translate(4 287)">
<title>include/d/d_eye_hl.h</title>
<!-- Node1 -->
<g id="node1" class="node">
<title>Node1</title>
<g id="a_node1"><a xlink:title=" ">
<polygon fill="#999999" stroke="#666666" points="2844,-283 2740,-283 2740,-264 2844,-264 2844,-283"/>
<text text-anchor="middle" x="2792" y="-271" font-family="Helvetica,sans-Serif" font-size="10.00">include/d/d_eye_hl.h</text>
</a>
</g>
</g>
<!-- Node2 -->
<g id="node2" class="node">
<title>Node2</title>
<g id="a_node2"><a xlink:href="d__a__alink_8h.html" target="_top" xlink:title=" ">
<polygon fill="white" stroke="#666666" points="2807,-228 2691,-228 2691,-209 2807,-209 2807,-228"/>
<text text-anchor="middle" x="2749" y="-216" font-family="Helvetica,sans-Serif" font-size="10.00">include/d/a/d_a_alink.h</text>
</a>
</g>
</g>
<!-- Node1&#45;&gt;Node2 -->
<g id="edge1" class="edge">
<title>Node1&#45;&gt;Node2</title>
<path fill="none" stroke="#63b8ff" d="M2777.75,-254.93C2770.55,-246.06 2762.12,-235.67 2756.25,-228.44"/>
<polygon fill="#63b8ff" stroke="#63b8ff" points="2774.93,-257.01 2783.95,-262.57 2780.36,-252.6 2774.93,-257.01"/>
</g>
<!-- Node81 -->
<g id="node41" class="node">
<title>Node81</title>
<g id="a_node41"><a xlink:href="d__eye__hl_8cpp.html" target="_top" xlink:title=" ">
<polygon fill="white" stroke="#666666" points="5413,-96 5315,-96 5315,-77 5413,-77 5413,-96"/>
<text text-anchor="middle" x="5364" y="-84" font-family="Helvetica,sans-Serif" font-size="10.00">src/d/d_eye_hl.cpp</text>
</a>
</g>
</g>
<!-- Node1&#45;&gt;Node81 -->
<g id="edge61" class="edge">
<title>Node1&#45;&gt;Node81</title>
<path fill="none" stroke="#63b8ff" d="M2855.64,-271.86C3139.78,-268.24 4320.45,-245.21 5277,-107 5294.62,-104.45 5313.96,-100.26 5329.93,-96.41"/>
<polygon fill="#63b8ff" stroke="#63b8ff" points="2855.81,-268.36 2845.85,-271.98 2855.9,-275.36 2855.81,-268.36"/>
</g>
<!-- Node3 -->
<g id="node3" class="node">
<title>Node3</title>
<g id="a_node3"><a xlink:href="d__com__inf__game_8h.html" target="_top" xlink:title=" ">
<polygon fill="#fff0f0" stroke="red" points="2804,-173 2694,-173 2694,-143 2804,-143 2804,-173"/>
<text text-anchor="start" x="2702" y="-161" font-family="Helvetica,sans-Serif" font-size="10.00">include/d/com/d_com</text>
<text text-anchor="middle" x="2749" y="-150" font-family="Helvetica,sans-Serif" font-size="10.00">_inf_game.h</text>
</a>
</g>
</g>
<!-- Node2&#45;&gt;Node3 -->
<g id="edge2" class="edge">
<title>Node2&#45;&gt;Node3</title>
<path fill="none" stroke="#63b8ff" d="M2749,-197.51C2749,-189.49 2749,-180.43 2749,-173.11"/>
<polygon fill="#63b8ff" stroke="#63b8ff" points="2745.5,-197.35 2749,-207.35 2752.5,-197.35 2745.5,-197.35"/>
</g>
<!-- Node13 -->
<g id="node7" class="node">
<title>Node13</title>
<g id="a_node7"><a xlink:href="d__a__alink_8cpp.html" target="_top" xlink:title=" ">
<polygon fill="white" stroke="#666666" points="634.5,-24.5 525.5,-24.5 525.5,-5.5 634.5,-5.5 634.5,-24.5"/>
<text text-anchor="middle" x="580" y="-12.5" font-family="Helvetica,sans-Serif" font-size="10.00">src/d/a/d_a_alink.cpp</text>
</a>
</g>
</g>
<!-- Node2&#45;&gt;Node13 -->
<g id="edge60" class="edge">
<title>Node2&#45;&gt;Node13</title>
<path fill="none" stroke="#63b8ff" d="M2679.21,-216.74C2307.96,-212.38 578.91,-187.78 502,-107 489.44,-93.8 493.26,-81.99 502,-66 512.96,-45.96 535.76,-32.77 553.89,-24.99"/>
<polygon fill="#63b8ff" stroke="#63b8ff" points="2679.01,-220.24 2689.05,-216.86 2679.09,-213.24 2679.01,-220.24"/>
</g>
<!-- Node4 -->
<g id="node4" class="node">
<title>Node4</title>
<g id="a_node4"><a xlink:href="d__a__npc_8h.html" target="_top" xlink:title=" ">
<polygon fill="#fff0f0" stroke="red" points="4931.5,-96 4820.5,-96 4820.5,-77 4931.5,-77 4931.5,-96"/>
<text text-anchor="middle" x="4876" y="-84" font-family="Helvetica,sans-Serif" font-size="10.00">include/d/a/d_a_npc.h</text>
</a>
</g>
</g>
<!-- Node3&#45;&gt;Node4 -->
<g id="edge3" class="edge">
<title>Node3&#45;&gt;Node4</title>
<path fill="none" stroke="#63b8ff" d="M2815.79,-156.46C3147.69,-153.62 4611.5,-139.35 4812,-107 4825.53,-104.82 4840.19,-100.5 4852.05,-96.49"/>
<polygon fill="#63b8ff" stroke="#63b8ff" points="2815.95,-152.96 2805.98,-156.54 2816.01,-159.96 2815.95,-152.96"/>
</g>
<!-- Node10 -->
<g id="node5" class="node">
<title>Node10</title>
<g id="a_node5"><a xlink:href="d__cc__uty_8h.html" target="_top" xlink:title=" ">
<polygon fill="#fff0f0" stroke="red" points="5107.5,-96 4988.5,-96 4988.5,-77 5107.5,-77 5107.5,-96"/>
<text text-anchor="middle" x="5048" y="-84" font-family="Helvetica,sans-Serif" font-size="10.00">include/d/cc/d_cc_uty.h</text>
</a>
</g>
</g>
<!-- Node3&#45;&gt;Node10 -->
<g id="edge4" class="edge">
<title>Node3&#45;&gt;Node10</title>
<path fill="none" stroke="#63b8ff" d="M2815.61,-156.44C3162.64,-153.37 4756,-137.73 4974,-107 4989.52,-104.81 5006.46,-100.5 5020.21,-96.48"/>
<polygon fill="#63b8ff" stroke="#63b8ff" points="2815.75,-152.93 2805.78,-156.52 2815.81,-159.93 2815.75,-152.93"/>
</g>
<!-- Node16 -->
<g id="node6" class="node">
<title>Node16</title>
<g id="a_node6"><a xlink:href="d__item_8h.html" target="_top" xlink:title=" ">
<polygon fill="#fff0f0" stroke="red" points="5220.5,-96 5125.5,-96 5125.5,-77 5220.5,-77 5220.5,-96"/>
<text text-anchor="middle" x="5173" y="-84" font-family="Helvetica,sans-Serif" font-size="10.00">include/d/d_item.h</text>
</a>
</g>
</g>
<!-- Node3&#45;&gt;Node16 -->
<g id="edge5" class="edge">
<title>Node3&#45;&gt;Node16</title>
<path fill="none" stroke="#63b8ff" d="M2815.82,-156.18C3188.82,-151.52 5000.87,-127.9 5117,-107 5129.06,-104.83 5142.01,-100.46 5152.41,-96.41"/>
<polygon fill="#63b8ff" stroke="#63b8ff" points="2815.91,-152.68 2805.95,-156.3 2816,-159.68 2815.91,-152.68"/>
</g>
<!-- Node3&#45;&gt;Node13 -->
<g id="edge32" class="edge">
<title>Node3&#45;&gt;Node13</title>
<path fill="none" stroke="#63b8ff" d="M2682.18,-156.78C2314.42,-155.41 551.9,-146.78 513,-107 500.26,-93.97 504.83,-82.29 513,-66 522.63,-46.8 543.52,-33.09 559.43,-24.94"/>
<polygon fill="#63b8ff" stroke="#63b8ff" points="2682.14,-160.28 2692.15,-156.82 2682.17,-153.28 2682.14,-160.28"/>
</g>
<!-- Node17 -->
<g id="node8" class="node">
<title>Node17</title>
<g id="a_node8"><a xlink:href="d__a__obj__item_8cpp.html" target="_top" xlink:title=" ">
<polygon fill="white" stroke="#666666" points="5224.5,-24.5 5099.5,-24.5 5099.5,-5.5 5224.5,-5.5 5224.5,-24.5"/>
<text text-anchor="middle" x="5162" y="-12.5" font-family="Helvetica,sans-Serif" font-size="10.00">src/d/a/d_a_obj_item.cpp</text>
</a>
</g>
</g>
<!-- Node3&#45;&gt;Node17 -->
<g id="edge35" class="edge">
<title>Node3&#45;&gt;Node17</title>
<path fill="none" stroke="#63b8ff" d="M2815.8,-156.29C3209.27,-152.01 5208.25,-129.19 5230,-107 5242.75,-93.99 5238.23,-82.26 5230,-66 5220.21,-46.65 5199.01,-32.96 5182.87,-24.86"/>
<polygon fill="#63b8ff" stroke="#63b8ff" points="2815.84,-152.79 2805.87,-156.39 2815.91,-159.79 2815.84,-152.79"/>
</g>
<!-- Node18 -->
<g id="node9" class="node">
<title>Node18</title>
<g id="a_node9"><a xlink:href="d__com__inf__game_8cpp.html" target="_top" xlink:title=" ">
<polygon fill="white" stroke="#666666" points="5351,-30 5243,-30 5243,0 5351,0 5351,-30"/>
<text text-anchor="start" x="5251" y="-18" font-family="Helvetica,sans-Serif" font-size="10.00">src/d/com/d_com_inf</text>
<text text-anchor="middle" x="5297" y="-7" font-family="Helvetica,sans-Serif" font-size="10.00">_game.cpp</text>
</a>
</g>
</g>
<!-- Node3&#45;&gt;Node18 -->
<g id="edge41" class="edge">
<title>Node3&#45;&gt;Node18</title>
<path fill="none" stroke="#63b8ff" d="M2815.8,-156.12C3210.39,-150.84 5220.23,-123.2 5247,-107 5275.07,-90.01 5288.5,-51.19 5293.92,-30.16"/>
<polygon fill="#63b8ff" stroke="#63b8ff" points="2815.79,-152.62 2805.84,-156.25 2815.89,-159.62 2815.79,-152.62"/>
</g>
<!-- Node21 -->
<g id="node10" class="node">
<title>Node21</title>
<g id="a_node10"><a xlink:href="d__kantera__icon__meter_8h.html" target="_top" xlink:title=" ">
<polygon fill="#fff0f0" stroke="red" points="757.5,-101.5 656.5,-101.5 656.5,-71.5 757.5,-71.5 757.5,-101.5"/>
<text text-anchor="start" x="664.5" y="-89.5" font-family="Helvetica,sans-Serif" font-size="10.00">include/d/d_kantera</text>
<text text-anchor="middle" x="707" y="-78.5" font-family="Helvetica,sans-Serif" font-size="10.00">_icon_meter.h</text>
</a>
</g>
</g>
<!-- Node3&#45;&gt;Node21 -->
<g id="edge9" class="edge">
<title>Node3&#45;&gt;Node21</title>
<path fill="none" stroke="#63b8ff" d="M2682.46,-156.48C2358.93,-153.81 957.87,-140.37 766,-107 759.2,-105.82 752.11,-104.01 745.3,-101.96"/>
<polygon fill="#63b8ff" stroke="#63b8ff" points="2682.42,-159.98 2692.45,-156.56 2682.48,-152.98 2682.42,-159.98"/>
</g>
<!-- Node24 -->
<g id="node11" class="node">
<title>Node24</title>
<g id="a_node11"><a xlink:href="d__model_8h.html" target="_top" xlink:title=" ">
<polygon fill="#fff0f0" stroke="red" points="878.5,-96 775.5,-96 775.5,-77 878.5,-77 878.5,-96"/>
<text text-anchor="middle" x="827" y="-84" font-family="Helvetica,sans-Serif" font-size="10.00">include/d/d_model.h</text>
</a>
</g>
</g>
<!-- Node3&#45;&gt;Node24 -->
<g id="edge10" class="edge">
<title>Node3&#45;&gt;Node24</title>
<path fill="none" stroke="#63b8ff" d="M2682.49,-156.35C2371.28,-153.13 1066.44,-137.9 887,-107 874.26,-104.81 860.52,-100.49 849.4,-96.48"/>
<polygon fill="#63b8ff" stroke="#63b8ff" points="2682.02,-159.84 2692.05,-156.44 2682.09,-152.84 2682.02,-159.84"/>
</g>
<!-- Node26 -->
<g id="node12" class="node">
<title>Node26</title>
<g id="a_node12"><a xlink:href="d__name_8h.html" target="_top" xlink:title=" ">
<polygon fill="#fff0f0" stroke="red" points="997.5,-96 896.5,-96 896.5,-77 997.5,-77 997.5,-96"/>
<text text-anchor="middle" x="947" y="-84" font-family="Helvetica,sans-Serif" font-size="10.00">include/d/d_name.h</text>
</a>
</g>
</g>
<!-- Node3&#45;&gt;Node26 -->
<g id="edge11" class="edge">
<title>Node3&#45;&gt;Node26</title>
<path fill="none" stroke="#63b8ff" d="M2682,-156.21C2382.53,-152.51 1173.95,-135.91 1007,-107 994.26,-104.79 980.52,-100.48 969.41,-96.47"/>
<polygon fill="#63b8ff" stroke="#63b8ff" points="2681.96,-159.71 2692,-156.33 2682.04,-152.71 2681.96,-159.71"/>
</g>
<!-- Node28 -->
<g id="node13" class="node">
<title>Node28</title>
<g id="a_node13"><a xlink:href="d__file__sel__info_8h.html" target="_top" xlink:title=" ">
<polygon fill="#fff0f0" stroke="red" points="1112,-101.5 1016,-101.5 1016,-71.5 1112,-71.5 1112,-101.5"/>
<text text-anchor="start" x="1024" y="-89.5" font-family="Helvetica,sans-Serif" font-size="10.00">include/d/file/d_file</text>
<text text-anchor="middle" x="1064" y="-78.5" font-family="Helvetica,sans-Serif" font-size="10.00">_sel_info.h</text>
</a>
</g>
</g>
<!-- Node3&#45;&gt;Node28 -->
<g id="edge12" class="edge">
<title>Node3&#45;&gt;Node28</title>
<path fill="none" stroke="#63b8ff" d="M2682.2,-156.13C2395.42,-152.21 1276.03,-135.24 1121,-107 1114.41,-105.8 1107.56,-103.98 1100.98,-101.93"/>
<polygon fill="#63b8ff" stroke="#63b8ff" points="2682.08,-159.62 2692.13,-156.26 2682.18,-152.62 2682.08,-159.62"/>
</g>
<!-- Node31 -->
<g id="node14" class="node">
<title>Node31</title>
<g id="a_node14"><a xlink:href="d__file__sel__warning_8h.html" target="_top" xlink:title=" ">
<polygon fill="#fff0f0" stroke="red" points="1226,-101.5 1130,-101.5 1130,-71.5 1226,-71.5 1226,-101.5"/>
<text text-anchor="start" x="1138" y="-89.5" font-family="Helvetica,sans-Serif" font-size="10.00">include/d/file/d_file</text>
<text text-anchor="middle" x="1178" y="-78.5" font-family="Helvetica,sans-Serif" font-size="10.00">_sel_warning.h</text>
</a>
</g>
</g>
<!-- Node3&#45;&gt;Node31 -->
<g id="edge13" class="edge">
<title>Node3&#45;&gt;Node31</title>
<path fill="none" stroke="#63b8ff" d="M2682.34,-157.42C2428,-158.6 1518.74,-159.02 1235,-107 1228.42,-105.79 1221.56,-103.97 1214.98,-101.92"/>
<polygon fill="#63b8ff" stroke="#63b8ff" points="2682.1,-160.92 2692.08,-157.37 2682.06,-153.92 2682.1,-160.92"/>
</g>
<!-- Node33 -->
<g id="node15" class="node">
<title>Node33</title>
<g id="a_node15"><a xlink:href="d__meter2_8h.html" target="_top" xlink:title=" ">
<polygon fill="#fff0f0" stroke="red" points="1378,-96 1244,-96 1244,-77 1378,-77 1378,-96"/>
<text text-anchor="middle" x="1311" y="-84" font-family="Helvetica,sans-Serif" font-size="10.00">include/d/meter/d_meter2.h</text>
</a>
</g>
</g>
<!-- Node3&#45;&gt;Node33 -->
<g id="edge14" class="edge">
<title>Node3&#45;&gt;Node33</title>
<path fill="none" stroke="#63b8ff" d="M2682.53,-156.45C2445.38,-154.18 1641.45,-143.88 1387,-107 1371.23,-104.71 1354,-100.44 1339.94,-96.48"/>
<polygon fill="#63b8ff" stroke="#63b8ff" points="2682.17,-159.94 2692.21,-156.54 2682.24,-152.94 2682.17,-159.94"/>
</g>
<!-- Node40 -->
<g id="node16" class="node">
<title>Node40</title>
<g id="a_node16"><a xlink:href="d__msg__object_8h.html" target="_top" xlink:title=" ">
<polygon fill="#fff0f0" stroke="red" points="390,-101.5 280,-101.5 280,-71.5 390,-71.5 390,-101.5"/>
<text text-anchor="start" x="288" y="-89.5" font-family="Helvetica,sans-Serif" font-size="10.00">include/d/msg/d_msg</text>
<text text-anchor="middle" x="335" y="-78.5" font-family="Helvetica,sans-Serif" font-size="10.00">_object.h</text>
</a>
</g>
</g>
<!-- Node3&#45;&gt;Node40 -->
<g id="edge15" class="edge">
<title>Node3&#45;&gt;Node40</title>
<path fill="none" stroke="#63b8ff" d="M2682.42,-156.98C2352.79,-156.68 893.51,-152.74 442,-107 425.09,-105.29 406.85,-102.37 390.3,-99.3"/>
<polygon fill="#63b8ff" stroke="#63b8ff" points="2682.15,-160.48 2692.15,-156.99 2682.15,-153.48 2682.15,-160.48"/>
</g>
<!-- Node45 -->
<g id="node17" class="node">
<title>Node45</title>
<g id="a_node17"><a xlink:href="d__demo_8cpp.html" target="_top" xlink:title=" ">
<polygon fill="white" stroke="#666666" points="94,-24.5 0,-24.5 0,-5.5 94,-5.5 94,-24.5"/>
<text text-anchor="middle" x="47" y="-12.5" font-family="Helvetica,sans-Serif" font-size="10.00">src/d/d_demo.cpp</text>
</a>
</g>
</g>
<!-- Node3&#45;&gt;Node45 -->
<g id="edge46" class="edge">
<title>Node3&#45;&gt;Node45</title>
<path fill="none" stroke="#63b8ff" d="M2682.2,-156.62C2292.8,-154.29 328.65,-140.91 206,-107 144.69,-90.05 82.13,-44.04 57.7,-24.72"/>
<polygon fill="#63b8ff" stroke="#63b8ff" points="2682,-160.12 2692.02,-156.68 2682.04,-153.12 2682,-160.12"/>
</g>
<!-- Node46 -->
<g id="node18" class="node">
<title>Node46</title>
<g id="a_node18"><a xlink:href="d__event_8cpp.html" target="_top" xlink:title=" ">
<polygon fill="white" stroke="#666666" points="233.5,-24.5 112.5,-24.5 112.5,-5.5 233.5,-5.5 233.5,-24.5"/>
<text text-anchor="middle" x="173" y="-12.5" font-family="Helvetica,sans-Serif" font-size="10.00">src/d/event/d_event.cpp</text>
</a>
</g>
</g>
<!-- Node3&#45;&gt;Node46 -->
<g id="edge55" class="edge">
<title>Node3&#45;&gt;Node46</title>
<path fill="none" stroke="#63b8ff" d="M2682.23,-157.1C2297.24,-157.51 373.91,-157.05 260,-107 220.18,-89.5 189.7,-44.22 178.1,-24.92"/>
<polygon fill="#63b8ff" stroke="#63b8ff" points="2682.19,-160.6 2692.19,-157.09 2682.18,-153.6 2682.19,-160.6"/>
</g>
<!-- Node47 -->
<g id="node19" class="node">
<title>Node47</title>
<g id="a_node19"><a xlink:href="d__event__data_8cpp.html" target="_top" xlink:title=" ">
<polygon fill="white" stroke="#666666" points="507.5,-30 404.5,-30 404.5,0 507.5,0 507.5,-30"/>
<text text-anchor="start" x="412.5" y="-18" font-family="Helvetica,sans-Serif" font-size="10.00">src/d/event/d_event</text>
<text text-anchor="middle" x="456" y="-7" font-family="Helvetica,sans-Serif" font-size="10.00">_data.cpp</text>
</a>
</g>
</g>
<!-- Node3&#45;&gt;Node47 -->
<g id="edge56" class="edge">
<title>Node3&#45;&gt;Node47</title>
<path fill="none" stroke="#63b8ff" d="M2682.12,-156.45C2313.99,-153.33 549.3,-136.82 502,-107 474.9,-89.91 463.12,-51.5 458.55,-30.46"/>
<polygon fill="#63b8ff" stroke="#63b8ff" points="2682.08,-159.95 2692.11,-156.54 2682.14,-152.95 2682.08,-159.95"/>
</g>
<!-- Node48 -->
<g id="node20" class="node">
<title>Node48</title>
<g id="a_node20"><a xlink:href="d__kankyo_8cpp.html" target="_top" xlink:title=" ">
<polygon fill="white" stroke="#666666" points="386,-24.5 252,-24.5 252,-5.5 386,-5.5 386,-24.5"/>
<text text-anchor="middle" x="319" y="-12.5" font-family="Helvetica,sans-Serif" font-size="10.00">src/d/kankyo/d_kankyo.cpp</text>
</a>
</g>
</g>
<!-- Node3&#45;&gt;Node48 -->
<g id="edge59" class="edge">
<title>Node3&#45;&gt;Node48</title>
<path fill="none" stroke="#63b8ff" d="M2682.28,-156.93C2291.44,-156.36 314.42,-151.31 271,-107 246.62,-82.12 287.23,-42.35 307.97,-24.8"/>
<polygon fill="#63b8ff" stroke="#63b8ff" points="2682.13,-160.43 2692.14,-156.94 2682.14,-153.43 2682.13,-160.43"/>
</g>
<!-- Node54 -->
<g id="node21" class="node">
<title>Node54</title>
<g id="a_node21"><a xlink:href="d__s__logo_8h.html" target="_top" xlink:title=" ">
<polygon fill="#fff0f0" stroke="red" points="1509.5,-96 1396.5,-96 1396.5,-77 1509.5,-77 1509.5,-96"/>
<text text-anchor="middle" x="1453" y="-84" font-family="Helvetica,sans-Serif" font-size="10.00">include/d/s/d_s_logo.h</text>
</a>
</g>
</g>
<!-- Node3&#45;&gt;Node54 -->
<g id="edge21" class="edge">
<title>Node3&#45;&gt;Node54</title>
<path fill="none" stroke="#63b8ff" d="M2682.31,-156.49C2459.91,-154.45 1744.93,-145.03 1518,-107 1504.41,-104.72 1489.66,-100.45 1477.66,-96.49"/>
<polygon fill="#63b8ff" stroke="#63b8ff" points="2682.22,-159.99 2692.25,-156.58 2682.28,-152.99 2682.22,-159.99"/>
</g>
<!-- Node56 -->
<g id="node22" class="node">
<title>Node56</title>
<g id="a_node22"><a xlink:href="d__s__play_8h.html" target="_top" xlink:title=" ">
<polygon fill="#fff0f0" stroke="red" points="1640.5,-96 1527.5,-96 1527.5,-77 1640.5,-77 1640.5,-96"/>
<text text-anchor="middle" x="1584" y="-84" font-family="Helvetica,sans-Serif" font-size="10.00">include/d/s/d_s_play.h</text>
</a>
</g>
</g>
<!-- Node3&#45;&gt;Node56 -->
<g id="edge22" class="edge">
<title>Node3&#45;&gt;Node56</title>
<path fill="none" stroke="#63b8ff" d="M2682.52,-156.12C2476.33,-153.05 1849.46,-141.09 1649,-107 1635.41,-104.69 1620.67,-100.42 1608.66,-96.46"/>
<polygon fill="#63b8ff" stroke="#63b8ff" points="2682.2,-159.61 2692.25,-156.26 2682.3,-152.62 2682.2,-159.61"/>
</g>
<!-- Node60 -->
<g id="node23" class="node">
<title>Node60</title>
<g id="a_node23"><a xlink:href="d__msg__scrn__base_8h.html" target="_top" xlink:title=" ">
<polygon fill="#fff0f0" stroke="red" points="1757.5,-101.5 1658.5,-101.5 1658.5,-71.5 1757.5,-71.5 1757.5,-101.5"/>
<text text-anchor="start" x="1666.5" y="-89.5" font-family="Helvetica,sans-Serif" font-size="10.00">include/msg/scrn/d</text>
<text text-anchor="middle" x="1708" y="-78.5" font-family="Helvetica,sans-Serif" font-size="10.00">_msg_scrn_base.h</text>
</a>
</g>
</g>
<!-- Node3&#45;&gt;Node60 -->
<g id="edge23" class="edge">
<title>Node3&#45;&gt;Node60</title>
<path fill="none" stroke="#63b8ff" d="M2682.49,-155.98C2491.26,-152.68 1942.35,-140.47 1766,-107 1759.42,-105.75 1752.57,-103.94 1745.98,-101.91"/>
<polygon fill="#63b8ff" stroke="#63b8ff" points="2682.19,-159.48 2692.24,-156.15 2682.31,-152.48 2682.19,-159.48"/>
</g>
<!-- Node64 -->
<g id="node24" class="node">
<title>Node64</title>
<g id="a_node24"><a xlink:href="d__a__b__zant_8h.html" target="_top" xlink:title=" ">
<polygon fill="white" stroke="#666666" points="1896.5,-101.5 1775.5,-101.5 1775.5,-71.5 1896.5,-71.5 1896.5,-101.5"/>
<text text-anchor="start" x="1783.5" y="-89.5" font-family="Helvetica,sans-Serif" font-size="10.00">include/rel/d/a/b/d</text>
<text text-anchor="middle" x="1836" y="-78.5" font-family="Helvetica,sans-Serif" font-size="10.00">_a_b_zant/d_a_b_zant.h</text>
</a>
</g>
</g>
<!-- Node3&#45;&gt;Node64 -->
<g id="edge24" class="edge">
<title>Node3&#45;&gt;Node64</title>
<path fill="none" stroke="#63b8ff" d="M2682.65,-157.83C2539.65,-158.57 2192.17,-154.79 1906,-107 1898.41,-105.73 1890.46,-103.96 1882.76,-102"/>
<polygon fill="#63b8ff" stroke="#63b8ff" points="2682.32,-161.33 2692.3,-157.77 2682.28,-154.33 2682.32,-161.33"/>
</g>
<!-- Node65 -->
<g id="node25" class="node">
<title>Node65</title>
<g id="a_node25"><a xlink:href="d__a__skip__2D_8h.html" target="_top" xlink:title=" ">
<polygon fill="white" stroke="#666666" points="2039,-101.5 1915,-101.5 1915,-71.5 2039,-71.5 2039,-101.5"/>
<text text-anchor="start" x="1923" y="-89.5" font-family="Helvetica,sans-Serif" font-size="10.00">include/rel/d/a/d_a</text>
<text text-anchor="middle" x="1977" y="-78.5" font-family="Helvetica,sans-Serif" font-size="10.00">_skip_2D/d_a_skip_2D.h</text>
</a>
</g>
</g>
<!-- Node3&#45;&gt;Node65 -->
<g id="edge25" class="edge">
<title>Node3&#45;&gt;Node65</title>
<path fill="none" stroke="#63b8ff" d="M2682.3,-156.6C2557.07,-154.88 2278.61,-146.5 2048,-107 2040.31,-105.68 2032.26,-103.89 2024.45,-101.91"/>
<polygon fill="#63b8ff" stroke="#63b8ff" points="2682.02,-160.09 2692.06,-156.72 2682.1,-153.09 2682.02,-160.09"/>
</g>
<!-- Node66 -->
<g id="node26" class="node">
<title>Node66</title>
<g id="a_node26"><a xlink:href="d__a__spinner_8h.html" target="_top" xlink:title=" ">
<polygon fill="white" stroke="#666666" points="638,-101.5 522,-101.5 522,-71.5 638,-71.5 638,-101.5"/>
<text text-anchor="start" x="530" y="-89.5" font-family="Helvetica,sans-Serif" font-size="10.00">include/rel/d/a/d_a</text>
<text text-anchor="middle" x="580" y="-78.5" font-family="Helvetica,sans-Serif" font-size="10.00">_spinner/d_a_spinner.h</text>
</a>
</g>
</g>
<!-- Node3&#45;&gt;Node66 -->
<g id="edge26" class="edge">
<title>Node3&#45;&gt;Node66</title>
<path fill="none" stroke="#63b8ff" d="M2682.05,-156.44C2346.07,-153.49 851.72,-138.67 647,-107 639.34,-105.81 631.32,-104 623.6,-101.95"/>
<polygon fill="#63b8ff" stroke="#63b8ff" points="2681.97,-159.94 2692,-156.53 2682.03,-152.94 2681.97,-159.94"/>
</g>
<!-- Node67 -->
<g id="node27" class="node">
<title>Node67</title>
<g id="a_node27"><a xlink:href="d__a__player_8cpp.html" target="_top" xlink:title=" ">
<polygon fill="white" stroke="#666666" points="2892,-24.5 2778,-24.5 2778,-5.5 2892,-5.5 2892,-24.5"/>
<text text-anchor="middle" x="2835" y="-12.5" font-family="Helvetica,sans-Serif" font-size="10.00">src/d/a/d_a_player.cpp</text>
</a>
</g>
</g>
<!-- Node3&#45;&gt;Node67 -->
<g id="edge36" class="edge">
<title>Node3&#45;&gt;Node67</title>
<path fill="none" stroke="#63b8ff" d="M2815.71,-156.11C3180.9,-151.15 4921.95,-126.49 4941,-107 4953.74,-93.97 4953.73,-79.04 4941,-66 4904.19,-28.3 3226.33,-17.96 2892.43,-16.27"/>
<polygon fill="#63b8ff" stroke="#63b8ff" points="2815.77,-152.61 2805.82,-156.24 2815.87,-159.61 2815.77,-152.61"/>
</g>
<!-- Node68 -->
<g id="node28" class="node">
<title>Node68</title>
<g id="a_node28"><a xlink:href="d__a__obj__yobikusa_8h.html" target="_top" xlink:title=" ">
<polygon fill="white" stroke="#666666" points="2162.5,-107 2057.5,-107 2057.5,-66 2162.5,-66 2162.5,-107"/>
<text text-anchor="start" x="2065.5" y="-95" font-family="Helvetica,sans-Serif" font-size="10.00">include/rel/d/a/obj</text>
<text text-anchor="start" x="2065.5" y="-84" font-family="Helvetica,sans-Serif" font-size="10.00">/d_a_obj_yobikusa/d</text>
<text text-anchor="middle" x="2110" y="-73" font-family="Helvetica,sans-Serif" font-size="10.00">_a_obj_yobikusa.h</text>
</a>
</g>
</g>
<!-- Node3&#45;&gt;Node68 -->
<g id="edge29" class="edge">
<title>Node3&#45;&gt;Node68</title>
<path fill="none" stroke="#63b8ff" d="M2682.17,-155.93C2573.99,-153.14 2354.24,-143.1 2172,-107 2169.01,-106.41 2165.96,-105.72 2162.9,-104.97"/>
<polygon fill="#63b8ff" stroke="#63b8ff" points="2681.95,-159.42 2692.03,-156.17 2682.12,-152.42 2681.95,-159.42"/>
</g>
<!-- Node69 -->
<g id="node29" class="node">
<title>Node69</title>
<g id="a_node29"><a xlink:href="d__a__tag__telop_8h.html" target="_top" xlink:title=" ">
<polygon fill="white" stroke="#666666" points="2299,-107 2181,-107 2181,-66 2299,-66 2299,-107"/>
<text text-anchor="start" x="2189" y="-95" font-family="Helvetica,sans-Serif" font-size="10.00">include/rel/d/a/tag</text>
<text text-anchor="start" x="2189" y="-84" font-family="Helvetica,sans-Serif" font-size="10.00">/d_a_tag_telop/d_a_tag</text>
<text text-anchor="middle" x="2240" y="-73" font-family="Helvetica,sans-Serif" font-size="10.00">_telop.h</text>
</a>
</g>
</g>
<!-- Node3&#45;&gt;Node69 -->
<g id="edge30" class="edge">
<title>Node3&#45;&gt;Node69</title>
<path fill="none" stroke="#63b8ff" d="M2682.28,-152.9C2595.44,-146.79 2439.28,-133.08 2308,-107 2305.11,-106.43 2302.16,-105.79 2299.2,-105.1"/>
<polygon fill="#63b8ff" stroke="#63b8ff" points="2681.82,-156.38 2692.03,-153.58 2682.3,-149.4 2681.82,-156.38"/>
</g>
<!-- Node70 -->
<g id="node30" class="node">
<title>Node70</title>
<g id="a_node30"><a xlink:href="c__dylink_8cpp.html" target="_top" xlink:title=" ">
<polygon fill="white" stroke="#666666" points="2412.5,-96 2317.5,-96 2317.5,-77 2412.5,-77 2412.5,-96"/>
<text text-anchor="middle" x="2365" y="-84" font-family="Helvetica,sans-Serif" font-size="10.00">src/c/c_dylink.cpp</text>
</a>
</g>
</g>
<!-- Node3&#45;&gt;Node70 -->
<g id="edge31" class="edge">
<title>Node3&#45;&gt;Node70</title>
<path fill="none" stroke="#63b8ff" d="M2682.59,-150.35C2616.03,-142.87 2510.97,-128.84 2422,-107 2410.62,-104.21 2398.29,-100.13 2388.02,-96.42"/>
<polygon fill="#63b8ff" stroke="#63b8ff" points="2681.91,-153.8 2692.23,-151.42 2682.68,-146.84 2681.91,-153.8"/>
</g>
<!-- Node71 -->
<g id="node31" class="node">
<title>Node71</title>
<g id="a_node31"><a xlink:href="d__a__itembase_8cpp.html" target="_top" xlink:title=" ">
<polygon fill="white" stroke="#666666" points="2559,-96 2431,-96 2431,-77 2559,-77 2559,-96"/>
<text text-anchor="middle" x="2495" y="-84" font-family="Helvetica,sans-Serif" font-size="10.00">src/d/a/d_a_itembase.cpp</text>
</a>
</g>
</g>
<!-- Node3&#45;&gt;Node71 -->
<g id="edge33" class="edge">
<title>Node3&#45;&gt;Node71</title>
<path fill="none" stroke="#63b8ff" d="M2685.02,-139.49C2634.94,-125.79 2567.34,-107.29 2527.73,-96.46"/>
<polygon fill="#63b8ff" stroke="#63b8ff" points="2684.03,-142.85 2694.6,-142.12 2685.88,-136.1 2684.03,-142.85"/>
</g>
<!-- Node72 -->
<g id="node32" class="node">
<title>Node72</title>
<g id="a_node32"><a xlink:href="d__a__obj_8cpp.html" target="_top" xlink:title=" ">
<polygon fill="white" stroke="#666666" points="2678.5,-96 2577.5,-96 2577.5,-77 2678.5,-77 2678.5,-96"/>
<text text-anchor="middle" x="2628" y="-84" font-family="Helvetica,sans-Serif" font-size="10.00">src/d/a/d_a_obj.cpp</text>
</a>
</g>
</g>
<!-- Node3&#45;&gt;Node72 -->
<g id="edge34" class="edge">
<title>Node3&#45;&gt;Node72</title>
<path fill="none" stroke="#63b8ff" d="M2714.03,-136.92C2690.7,-123.51 2661.15,-106.54 2643.46,-96.38"/>
<polygon fill="#63b8ff" stroke="#63b8ff" points="2712.2,-139.9 2722.62,-141.85 2715.69,-133.83 2712.2,-139.9"/>
</g>
<!-- Node73 -->
<g id="node33" class="node">
<title>Node73</title>
<g id="a_node33"><a xlink:href="d__bg__s_8cpp.html" target="_top" xlink:title=" ">
<polygon fill="white" stroke="#666666" points="2801,-96 2697,-96 2697,-77 2801,-77 2801,-96"/>
<text text-anchor="middle" x="2749" y="-84" font-family="Helvetica,sans-Serif" font-size="10.00">src/d/bg/d_bg_s.cpp</text>
</a>
</g>
</g>
<!-- Node3&#45;&gt;Node73 -->
<g id="edge37" class="edge">
<title>Node3&#45;&gt;Node73</title>
<path fill="none" stroke="#63b8ff" d="M2749,-131.46C2749,-119.07 2749,-104.99 2749,-96.18"/>
<polygon fill="#63b8ff" stroke="#63b8ff" points="2745.5,-131.09 2749,-141.09 2752.5,-131.09 2745.5,-131.09"/>
</g>
<!-- Node74 -->
<g id="node34" class="node">
<title>Node74</title>
<g id="a_node34"><a xlink:href="d__bg__s__movebg__actor_8cpp.html" target="_top" xlink:title=" ">
<polygon fill="white" stroke="#666666" points="2945,-101.5 2819,-101.5 2819,-71.5 2945,-71.5 2945,-101.5"/>
<text text-anchor="start" x="2827" y="-89.5" font-family="Helvetica,sans-Serif" font-size="10.00">src/d/bg/d_bg_s_movebg</text>
<text text-anchor="middle" x="2882" y="-78.5" font-family="Helvetica,sans-Serif" font-size="10.00">_actor.cpp</text>
</a>
</g>
</g>
<!-- Node3&#45;&gt;Node74 -->
<g id="edge38" class="edge">
<title>Node3&#45;&gt;Node74</title>
<path fill="none" stroke="#63b8ff" d="M2786.7,-137.3C2808.27,-126.03 2834.87,-112.13 2854.48,-101.88"/>
<polygon fill="#63b8ff" stroke="#63b8ff" points="2785.14,-134.17 2777.9,-141.9 2788.38,-140.37 2785.14,-134.17"/>
</g>
<!-- Node75 -->
<g id="node35" class="node">
<title>Node75</title>
<g id="a_node35"><a xlink:href="d__bg__w_8cpp.html" target="_top" xlink:title=" ">
<polygon fill="white" stroke="#666666" points="3070.5,-96 2963.5,-96 2963.5,-77 3070.5,-77 3070.5,-96"/>
<text text-anchor="middle" x="3017" y="-84" font-family="Helvetica,sans-Serif" font-size="10.00">src/d/bg/d_bg_w.cpp</text>
</a>
</g>
</g>
<!-- Node3&#45;&gt;Node75 -->
<g id="edge39" class="edge">
<title>Node3&#45;&gt;Node75</title>
<path fill="none" stroke="#63b8ff" d="M2815.5,-141.86C2855.75,-132.43 2908.01,-119.71 2954,-107 2965.7,-103.77 2978.51,-99.87 2989.51,-96.41"/>
<polygon fill="#63b8ff" stroke="#63b8ff" points="2814.9,-138.41 2805.96,-144.09 2816.49,-145.23 2814.9,-138.41"/>
</g>
<!-- Node76 -->
<g id="node36" class="node">
<title>Node76</title>
<g id="a_node36"><a xlink:href="d__cc__s_8cpp.html" target="_top" xlink:title=" ">
<polygon fill="white" stroke="#666666" points="3193,-96 3089,-96 3089,-77 3193,-77 3193,-96"/>
<text text-anchor="middle" x="3141" y="-84" font-family="Helvetica,sans-Serif" font-size="10.00">src/d/cc/d_cc_s.cpp</text>
</a>
</g>
</g>
<!-- Node3&#45;&gt;Node76 -->
<g id="edge40" class="edge">
<title>Node3&#45;&gt;Node76</title>
<path fill="none" stroke="#63b8ff" d="M2815.61,-149.97C2882.67,-142.17 2988.81,-127.88 3079,-107 3091.2,-104.17 3104.48,-100.13 3115.6,-96.46"/>
<polygon fill="#63b8ff" stroke="#63b8ff" points="2815.42,-146.47 2805.88,-151.08 2816.22,-153.42 2815.42,-146.47"/>
</g>
<!-- Node77 -->
<g id="node37" class="node">
<title>Node77</title>
<g id="a_node37"><a xlink:href="d__com__static_8cpp.html" target="_top" xlink:title=" ">
<polygon fill="white" stroke="#666666" points="3351,-96 3211,-96 3211,-77 3351,-77 3351,-96"/>
<text text-anchor="middle" x="3281" y="-84" font-family="Helvetica,sans-Serif" font-size="10.00">src/d/com/d_com_static.cpp</text>
</a>
</g>
</g>
<!-- Node3&#45;&gt;Node77 -->
<g id="edge42" class="edge">
<title>Node3&#45;&gt;Node77</title>
<path fill="none" stroke="#63b8ff" d="M2815.66,-152.41C2904.35,-145.68 3065.8,-131.22 3202,-107 3217.58,-104.23 3234.65,-100.15 3248.92,-96.44"/>
<polygon fill="#63b8ff" stroke="#63b8ff" points="2815.64,-148.9 2805.93,-153.14 2816.17,-155.88 2815.64,-148.9"/>
</g>
<!-- Node78 -->
<g id="node38" class="node">
<title>Node78</title>
<g id="a_node38"><a xlink:href="d__attention_8cpp.html" target="_top" xlink:title=" ">
<polygon fill="white" stroke="#666666" points="3476.5,-96 3369.5,-96 3369.5,-77 3476.5,-77 3476.5,-96"/>
<text text-anchor="middle" x="3423" y="-84" font-family="Helvetica,sans-Serif" font-size="10.00">src/d/d_attention.cpp</text>
</a>
</g>
</g>
<!-- Node3&#45;&gt;Node78 -->
<g id="edge43" class="edge">
<title>Node3&#45;&gt;Node78</title>
<path fill="none" stroke="#63b8ff" d="M2815.51,-156.29C2928.45,-154.04 3164.51,-144.78 3360,-107 3372.93,-104.5 3386.95,-100.31 3398.48,-96.46"/>
<polygon fill="#63b8ff" stroke="#63b8ff" points="2815.76,-152.79 2805.83,-156.47 2815.89,-159.79 2815.76,-152.79"/>
</g>
<!-- Node79 -->
<g id="node39" class="node">
<title>Node79</title>
<g id="a_node39"><a xlink:href="d__cam__param_8cpp.html" target="_top" xlink:title=" ">
<polygon fill="white" stroke="#666666" points="3615.5,-96 3494.5,-96 3494.5,-77 3615.5,-77 3615.5,-96"/>
<text text-anchor="middle" x="3555" y="-84" font-family="Helvetica,sans-Serif" font-size="10.00">src/d/d_cam_param.cpp</text>
</a>
</g>
</g>
<!-- Node3&#45;&gt;Node79 -->
<g id="edge44" class="edge">
<title>Node3&#45;&gt;Node79</title>
<path fill="none" stroke="#63b8ff" d="M2815.69,-157C2945.51,-156 3240.85,-148.85 3485,-107 3499.3,-104.55 3514.88,-100.37 3527.7,-96.5"/>
<polygon fill="#63b8ff" stroke="#63b8ff" points="2815.88,-153.5 2805.9,-157.06 2815.93,-160.5 2815.88,-153.5"/>
</g>
<!-- Node80 -->
<g id="node40" class="node">
<title>Node80</title>
<g id="a_node40"><a xlink:href="d__camera_8cpp.html" target="_top" xlink:title=" ">
<polygon fill="white" stroke="#666666" points="3736,-96 3634,-96 3634,-77 3736,-77 3736,-96"/>
<text text-anchor="middle" x="3685" y="-84" font-family="Helvetica,sans-Serif" font-size="10.00">src/d/d_camera.cpp</text>
</a>
</g>
</g>
<!-- Node3&#45;&gt;Node80 -->
<g id="edge45" class="edge">
<title>Node3&#45;&gt;Node80</title>
<path fill="none" stroke="#63b8ff" d="M2815.94,-155.36C2992.74,-150.67 3469.17,-135.69 3624,-107 3636.79,-104.63 3650.63,-100.35 3661.89,-96.41"/>
<polygon fill="#63b8ff" stroke="#63b8ff" points="2815.91,-151.86 2806,-155.62 2816.09,-158.86 2815.91,-151.86"/>
</g>
<!-- Node3&#45;&gt;Node81 -->
<g id="edge47" class="edge">
<title>Node3&#45;&gt;Node81</title>
<path fill="none" stroke="#63b8ff" d="M2815.63,-156.22C3205.17,-151.61 5174.89,-127.34 5301,-107 5314.45,-104.83 5329.01,-100.46 5340.74,-96.41"/>
<polygon fill="#63b8ff" stroke="#63b8ff" points="2815.77,-152.72 2805.81,-156.34 2815.86,-159.72 2815.77,-152.72"/>
</g>
<!-- Node82 -->
<g id="node42" class="node">
<title>Node82</title>
<g id="a_node42"><a xlink:href="d__kyeff_8cpp.html" target="_top" xlink:title=" ">
<polygon fill="white" stroke="#666666" points="3844,-96 3754,-96 3754,-77 3844,-77 3844,-96"/>
<text text-anchor="middle" x="3799" y="-84" font-family="Helvetica,sans-Serif" font-size="10.00">src/d/d_kyeff.cpp</text>
</a>
</g>
</g>
<!-- Node3&#45;&gt;Node82 -->
<g id="edge48" class="edge">
<title>Node3&#45;&gt;Node82</title>
<path fill="none" stroke="#63b8ff" d="M2815.75,-156.22C3008.99,-153.55 3566.49,-142.88 3745,-107 3756.43,-104.7 3768.7,-100.43 3778.64,-96.47"/>
<polygon fill="#63b8ff" stroke="#63b8ff" points="2815.83,-152.72 2805.88,-156.35 2815.93,-159.72 2815.83,-152.72"/>
</g>
<!-- Node83 -->
<g id="node43" class="node">
<title>Node83</title>
<g id="a_node43"><a xlink:href="d__path_8cpp.html" target="_top" xlink:title=" ">
<polygon fill="white" stroke="#666666" points="3951.5,-96 3862.5,-96 3862.5,-77 3951.5,-77 3951.5,-96"/>
<text text-anchor="middle" x="3907" y="-84" font-family="Helvetica,sans-Serif" font-size="10.00">src/d/d_path.cpp</text>
</a>
</g>
</g>
<!-- Node3&#45;&gt;Node83 -->
<g id="edge49" class="edge">
<title>Node3&#45;&gt;Node83</title>
<path fill="none" stroke="#63b8ff" d="M2815.45,-156.6C3022.28,-154.96 3652.71,-146.75 3853,-107 3864.44,-104.73 3876.7,-100.46 3886.65,-96.5"/>
<polygon fill="#63b8ff" stroke="#63b8ff" points="2815.66,-153.1 2805.69,-156.68 2815.72,-160.1 2815.66,-153.1"/>
</g>
<!-- Node84 -->
<g id="node44" class="node">
<title>Node84</title>
<g id="a_node44"><a xlink:href="d__resorce_8cpp.html" target="_top" xlink:title=" ">
<polygon fill="white" stroke="#666666" points="4072,-96 3970,-96 3970,-77 4072,-77 4072,-96"/>
<text text-anchor="middle" x="4021" y="-84" font-family="Helvetica,sans-Serif" font-size="10.00">src/d/d_resorce.cpp</text>
</a>
</g>
</g>
<!-- Node3&#45;&gt;Node84 -->
<g id="edge50" class="edge">
<title>Node3&#45;&gt;Node84</title>
<path fill="none" stroke="#63b8ff" d="M2815.77,-156.59C3035.92,-154.89 3737.49,-146.42 3960,-107 3972.81,-104.73 3986.65,-100.46 3997.91,-96.5"/>
<polygon fill="#63b8ff" stroke="#63b8ff" points="2815.9,-153.09 2805.93,-156.67 2815.96,-160.09 2815.9,-153.09"/>
</g>
<!-- Node85 -->
<g id="node45" class="node">
<title>Node85</title>
<g id="a_node45"><a xlink:href="d__simple__model_8cpp.html" target="_top" xlink:title=" ">
<polygon fill="white" stroke="#666666" points="4220,-96 4090,-96 4090,-77 4220,-77 4220,-96"/>
<text text-anchor="middle" x="4155" y="-84" font-family="Helvetica,sans-Serif" font-size="10.00">src/d/d_simple_model.cpp</text>
</a>
</g>
</g>
<!-- Node3&#45;&gt;Node85 -->
<g id="edge51" class="edge">
<title>Node3&#45;&gt;Node85</title>
<path fill="none" stroke="#63b8ff" d="M2815.55,-156.44C3049.42,-154.16 3832.83,-143.9 4081,-107 4096.38,-104.71 4113.15,-100.44 4126.84,-96.48"/>
<polygon fill="#63b8ff" stroke="#63b8ff" points="2815.66,-152.94 2805.69,-156.53 2815.73,-159.94 2815.66,-152.94"/>
</g>
<!-- Node86 -->
<g id="node46" class="node">
<title>Node86</title>
<g id="a_node46"><a xlink:href="d__stage_8cpp.html" target="_top" xlink:title=" ">
<polygon fill="white" stroke="#666666" points="4332,-96 4238,-96 4238,-77 4332,-77 4332,-96"/>
<text text-anchor="middle" x="4285" y="-84" font-family="Helvetica,sans-Serif" font-size="10.00">src/d/d_stage.cpp</text>
</a>
</g>
</g>
<!-- Node3&#45;&gt;Node86 -->
<g id="edge52" class="edge">
<title>Node3&#45;&gt;Node86</title>
<path fill="none" stroke="#63b8ff" d="M2815.81,-157.41C3066.71,-158.51 3952.39,-158.6 4229,-107 4240.94,-104.77 4253.77,-100.46 4264.14,-96.45"/>
<polygon fill="#63b8ff" stroke="#63b8ff" points="2815.88,-153.91 2805.86,-157.36 2815.85,-160.91 2815.88,-153.91"/>
</g>
<!-- Node87 -->
<g id="node47" class="node">
<title>Node87</title>
<g id="a_node47"><a xlink:href="d__timer_8cpp.html" target="_top" xlink:title=" ">
<polygon fill="white" stroke="#666666" points="4442,-96 4350,-96 4350,-77 4442,-77 4442,-96"/>
<text text-anchor="middle" x="4396" y="-84" font-family="Helvetica,sans-Serif" font-size="10.00">src/d/d_timer.cpp</text>
</a>
</g>
</g>
<!-- Node3&#45;&gt;Node87 -->
<g id="edge53" class="edge">
<title>Node3&#45;&gt;Node87</title>
<path fill="none" stroke="#63b8ff" d="M2815.73,-156.12C3098.44,-152.22 4189.81,-135.46 4341,-107 4352.75,-104.79 4365.35,-100.47 4375.53,-96.46"/>
<polygon fill="#63b8ff" stroke="#63b8ff" points="2815.91,-152.62 2805.96,-156.25 2816.01,-159.62 2815.91,-152.62"/>
</g>
<!-- Node88 -->
<g id="node48" class="node">
<title>Node88</title>
<g id="a_node48"><a xlink:href="d__tresure_8cpp.html" target="_top" xlink:title=" ">
<polygon fill="white" stroke="#666666" points="4560,-96 4460,-96 4460,-77 4560,-77 4560,-96"/>
<text text-anchor="middle" x="4510" y="-84" font-family="Helvetica,sans-Serif" font-size="10.00">src/d/d_tresure.cpp</text>
</a>
</g>
</g>
<!-- Node3&#45;&gt;Node88 -->
<g id="edge54" class="edge">
<title>Node3&#45;&gt;Node88</title>
<path fill="none" stroke="#63b8ff" d="M2815.43,-156.19C3109.67,-152.42 4288.14,-135.68 4451,-107 4463.54,-104.79 4477.05,-100.48 4487.98,-96.47"/>
<polygon fill="#63b8ff" stroke="#63b8ff" points="2815.59,-152.68 2805.63,-156.31 2815.67,-159.68 2815.59,-152.68"/>
</g>
<!-- Node89 -->
<g id="node49" class="node">
<title>Node89</title>
<g id="a_node49"><a xlink:href="d__event__lib_8cpp.html" target="_top" xlink:title=" ">
<polygon fill="white" stroke="#666666" points="4681.5,-101.5 4578.5,-101.5 4578.5,-71.5 4681.5,-71.5 4681.5,-101.5"/>
<text text-anchor="start" x="4586.5" y="-89.5" font-family="Helvetica,sans-Serif" font-size="10.00">src/d/event/d_event</text>
<text text-anchor="middle" x="4630" y="-78.5" font-family="Helvetica,sans-Serif" font-size="10.00">_lib.cpp</text>
</a>
</g>
</g>
<!-- Node3&#45;&gt;Node89 -->
<g id="edge57" class="edge">
<title>Node3&#45;&gt;Node89</title>
<path fill="none" stroke="#63b8ff" d="M2815.47,-156.28C3122.24,-152.82 4393.82,-136.79 4569,-107 4576.01,-105.81 4583.33,-103.99 4590.37,-101.94"/>
<polygon fill="#63b8ff" stroke="#63b8ff" points="2815.59,-152.78 2805.63,-156.39 2815.67,-159.78 2815.59,-152.78"/>
</g>
<!-- Node90 -->
<g id="node50" class="node">
<title>Node90</title>
<g id="a_node50"><a xlink:href="d__event__manager_8cpp.html" target="_top" xlink:title=" ">
<polygon fill="white" stroke="#666666" points="4802.5,-101.5 4699.5,-101.5 4699.5,-71.5 4802.5,-71.5 4802.5,-101.5"/>
<text text-anchor="start" x="4707.5" y="-89.5" font-family="Helvetica,sans-Serif" font-size="10.00">src/d/event/d_event</text>
<text text-anchor="middle" x="4751" y="-78.5" font-family="Helvetica,sans-Serif" font-size="10.00">_manager.cpp</text>
</a>
</g>
</g>
<!-- Node3&#45;&gt;Node90 -->
<g id="edge58" class="edge">
<title>Node3&#45;&gt;Node90</title>
<path fill="none" stroke="#63b8ff" d="M2815.72,-156.42C3135.48,-153.5 4503.33,-139.21 4691,-107 4697.91,-105.81 4705.11,-104 4712.03,-101.95"/>
<polygon fill="#63b8ff" stroke="#63b8ff" points="2815.83,-152.92 2805.87,-156.51 2815.9,-159.92 2815.83,-152.92"/>
</g>
<!-- Node16&#45;&gt;Node13 -->
<g id="edge6" class="edge">
<title>Node16&#45;&gt;Node13</title>
<path fill="none" stroke="#63b8ff" d="M5141.75,-72.62C5133.81,-69.91 5125.2,-67.43 5117,-66 5001,-45.72 1141.12,-19.69 634.63,-16.36"/>
<polygon fill="#63b8ff" stroke="#63b8ff" points="5140.41,-75.86 5151,-76.01 5142.82,-69.28 5140.41,-75.86"/>
</g>
<!-- Node16&#45;&gt;Node17 -->
<g id="edge7" class="edge">
<title>Node16&#45;&gt;Node17</title>
<path fill="none" stroke="#63b8ff" d="M5169.87,-65.71C5167.74,-52.29 5165.04,-35.2 5163.42,-24.95"/>
<polygon fill="#63b8ff" stroke="#63b8ff" points="5166.35,-65.87 5171.37,-75.2 5173.26,-64.78 5166.35,-65.87"/>
</g>
<!-- Node16&#45;&gt;Node18 -->
<g id="edge8" class="edge">
<title>Node16&#45;&gt;Node18</title>
<path fill="none" stroke="#63b8ff" d="M5198.89,-70.99C5220.1,-59.1 5249.98,-42.35 5271.18,-30.47"/>
<polygon fill="#63b8ff" stroke="#63b8ff" points="5197.29,-67.87 5190.28,-75.82 5200.71,-73.98 5197.29,-67.87"/>
</g>
<!-- Node40&#45;&gt;Node13 -->
<g id="edge16" class="edge">
<title>Node40&#45;&gt;Node13</title>
<path fill="none" stroke="#63b8ff" d="M397.02,-67.91C445.3,-54.21 510.3,-35.77 548.43,-24.96"/>
<polygon fill="#63b8ff" stroke="#63b8ff" points="396.18,-64.51 387.52,-70.6 398.09,-71.24 396.18,-64.51"/>
</g>
<!-- Node40&#45;&gt;Node45 -->
<g id="edge17" class="edge">
<title>Node40&#45;&gt;Node45</title>
<path fill="none" stroke="#63b8ff" d="M268.53,-69.79C222.12,-58.77 158.75,-43.64 103,-30 96.38,-28.38 89.33,-26.63 82.54,-24.94"/>
<polygon fill="#63b8ff" stroke="#63b8ff" points="267.64,-73.17 278.18,-72.08 269.25,-66.36 267.64,-73.17"/>
</g>
<!-- Node40&#45;&gt;Node46 -->
<g id="edge18" class="edge">
<title>Node40&#45;&gt;Node46</title>
<path fill="none" stroke="#63b8ff" d="M291.1,-66.67C259.44,-53.08 218.13,-35.36 193.69,-24.88"/>
<polygon fill="#63b8ff" stroke="#63b8ff" points="289.47,-69.78 300.04,-70.5 292.23,-63.34 289.47,-69.78"/>
</g>
<!-- Node40&#45;&gt;Node47 -->
<g id="edge19" class="edge">
<title>Node40&#45;&gt;Node47</title>
<path fill="none" stroke="#63b8ff" d="M369.83,-65.49C389.37,-54.27 413.28,-40.54 430.96,-30.38"/>
<polygon fill="#63b8ff" stroke="#63b8ff" points="368.31,-62.33 361.38,-70.35 371.8,-68.4 368.31,-62.33"/>
</g>
<!-- Node40&#45;&gt;Node48 -->
<g id="edge20" class="edge">
<title>Node40&#45;&gt;Node48</title>
<path fill="none" stroke="#63b8ff" d="M329.12,-59.96C326.27,-47.57 323.03,-33.49 321,-24.68"/>
<polygon fill="#63b8ff" stroke="#63b8ff" points="325.69,-60.66 331.35,-69.62 332.51,-59.09 325.69,-60.66"/>
</g>
<!-- Node66&#45;&gt;Node13 -->
<g id="edge27" class="edge">
<title>Node66&#45;&gt;Node13</title>
<path fill="none" stroke="#63b8ff" d="M580,-59.96C580,-47.57 580,-33.49 580,-24.68"/>
<polygon fill="#63b8ff" stroke="#63b8ff" points="576.5,-59.59 580,-69.59 583.5,-59.59 576.5,-59.59"/>
</g>
<!-- Node66&#45;&gt;Node67 -->
<g id="edge28" class="edge">
<title>Node66&#45;&gt;Node67</title>
<path fill="none" stroke="#63b8ff" d="M634.58,-68.36C638.76,-67.43 642.93,-66.63 647,-66 862.69,-32.73 2453.53,-18.91 2777.51,-16.42"/>
<polygon fill="#63b8ff" stroke="#63b8ff" points="633.95,-64.91 625.07,-70.68 635.62,-71.71 633.95,-64.91"/>
</g>
</g>
</svg>
