<?xml version="1.0" encoding="UTF-8" standalone="no"?>
<!DOCTYPE svg PUBLIC "-//W3C//DTD SVG 1.1//EN"
 "http://www.w3.org/Graphics/SVG/1.1/DTD/svg11.dtd">
<!-- Generated by graphviz version 7.0.4 (20221203.1631)
 -->
<!-- Title: include/d/event/d_event_manager.h Pages: 1 -->
<svg width="5406pt" height="302pt"
 viewBox="0.00 0.00 5406.00 302.00" xmlns="http://www.w3.org/2000/svg" xmlns:xlink="http://www.w3.org/1999/xlink">
<g id="graph0" class="graph" transform="scale(1 1) rotate(0) translate(4 298)">
<title>include/d/event/d_event_manager.h</title>
<!-- Node1 -->
<g id="node1" class="node">
<title>Node1</title>
<g id="a_node1"><a xlink:title=" ">
<polygon fill="#999999" stroke="#666666" points="4053.5,-294 3933.5,-294 3933.5,-264 4053.5,-264 4053.5,-294"/>
<text text-anchor="start" x="3941.5" y="-282" font-family="Helvetica,sans-Serif" font-size="10.00">include/d/event/d_event</text>
<text text-anchor="middle" x="3993.5" y="-271" font-family="Helvetica,sans-Serif" font-size="10.00">_manager.h</text>
</a>
</g>
</g>
<!-- Node2 -->
<g id="node2" class="node">
<title>Node2</title>
<g id="a_node2"><a xlink:href="d__com__inf__game_8h.html" target="_top" xlink:title=" ">
<polygon fill="#fff0f0" stroke="red" points="2659.5,-173 2549.5,-173 2549.5,-143 2659.5,-143 2659.5,-173"/>
<text text-anchor="start" x="2557.5" y="-161" font-family="Helvetica,sans-Serif" font-size="10.00">include/d/com/d_com</text>
<text text-anchor="middle" x="2604.5" y="-150" font-family="Helvetica,sans-Serif" font-size="10.00">_inf_game.h</text>
</a>
</g>
</g>
<!-- Node1&#45;&gt;Node2 -->
<g id="edge1" class="edge">
<title>Node1&#45;&gt;Node2</title>
<path fill="none" stroke="#63b8ff" d="M3922.16,-271.89C3677.8,-250.95 2877.56,-182.39 2659.69,-163.73"/>
<polygon fill="#63b8ff" stroke="#63b8ff" points="3921.6,-275.35 3931.86,-272.72 3922.2,-268.38 3921.6,-275.35"/>
</g>
<!-- Node89 -->
<g id="node48" class="node">
<title>Node89</title>
<g id="a_node48"><a xlink:href="d__event__lib_8cpp.html" target="_top" xlink:title=" ">
<polygon fill="white" stroke="#666666" points="5277,-101.5 5174,-101.5 5174,-71.5 5277,-71.5 5277,-101.5"/>
<text text-anchor="start" x="5182" y="-89.5" font-family="Helvetica,sans-Serif" font-size="10.00">src/d/event/d_event</text>
<text text-anchor="middle" x="5225.5" y="-78.5" font-family="Helvetica,sans-Serif" font-size="10.00">_lib.cpp</text>
</a>
</g>
</g>
<!-- Node1&#45;&gt;Node89 -->
<g id="edge62" class="edge">
<title>Node1&#45;&gt;Node89</title>
<path fill="none" stroke="#63b8ff" d="M4064.97,-269.62C4246.31,-247.88 4738.73,-185.82 5144.5,-107 5154.01,-105.15 5164.1,-102.94 5173.8,-100.67"/>
<polygon fill="#63b8ff" stroke="#63b8ff" points="4064.75,-266.12 4055.23,-270.79 4065.58,-273.08 4064.75,-266.12"/>
</g>
<!-- Node90 -->
<g id="node49" class="node">
<title>Node90</title>
<g id="a_node49"><a xlink:href="d__event__manager_8cpp.html" target="_top" xlink:title=" ">
<polygon fill="white" stroke="#666666" points="5398,-101.5 5295,-101.5 5295,-71.5 5398,-71.5 5398,-101.5"/>
<text text-anchor="start" x="5303" y="-89.5" font-family="Helvetica,sans-Serif" font-size="10.00">src/d/event/d_event</text>
<text text-anchor="middle" x="5346.5" y="-78.5" font-family="Helvetica,sans-Serif" font-size="10.00">_manager.cpp</text>
</a>
</g>
</g>
<!-- Node1&#45;&gt;Node90 -->
<g id="edge63" class="edge">
<title>Node1&#45;&gt;Node90</title>
<path fill="none" stroke="#63b8ff" d="M4065.15,-271.24C4159.04,-262.22 4328.76,-245.36 4473.5,-228 4653.86,-206.37 4698.82,-199.73 4878.5,-173 5060.19,-145.97 5107.96,-150.18 5286.5,-107 5292.46,-105.56 5298.69,-103.81 5304.77,-101.97"/>
<polygon fill="#63b8ff" stroke="#63b8ff" points="4064.94,-267.74 4055.32,-272.18 4065.6,-274.71 4064.94,-267.74"/>
</g>
<!-- Node108 -->
<g id="node50" class="node">
<title>Node108</title>
<g id="a_node50"><a xlink:href="d__event_8h.html" target="_top" xlink:title=" ">
<polygon fill="white" stroke="#666666" points="2668.5,-228 2540.5,-228 2540.5,-209 2668.5,-209 2668.5,-228"/>
<text text-anchor="middle" x="2604.5" y="-216" font-family="Helvetica,sans-Serif" font-size="10.00">include/d/event/d_event.h</text>
</a>
</g>
</g>
<!-- Node1&#45;&gt;Node108 -->
<g id="edge59" class="edge">
<title>Node1&#45;&gt;Node108</title>
<path fill="none" stroke="#63b8ff" d="M3921.95,-274.99C3680.58,-264.82 2898.56,-231.88 2668.64,-222.2"/>
<polygon fill="#63b8ff" stroke="#63b8ff" points="3921.72,-278.48 3931.86,-275.4 3922.01,-271.49 3921.72,-278.48"/>
</g>
<!-- Node3 -->
<g id="node3" class="node">
<title>Node3</title>
<g id="a_node3"><a xlink:href="d__a__npc_8h.html" target="_top" xlink:title=" ">
<polygon fill="#fff0f0" stroke="red" points="4980,-96 4869,-96 4869,-77 4980,-77 4980,-96"/>
<text text-anchor="middle" x="4924.5" y="-84" font-family="Helvetica,sans-Serif" font-size="10.00">include/d/a/d_a_npc.h</text>
</a>
</g>
</g>
<!-- Node2&#45;&gt;Node3 -->
<g id="edge2" class="edge">
<title>Node2&#45;&gt;Node3</title>
<path fill="none" stroke="#63b8ff" d="M2671.17,-156.59C3021.21,-154.3 4638.94,-141.87 4859.5,-107 4873.23,-104.83 4888.11,-100.52 4900.17,-96.5"/>
<polygon fill="#63b8ff" stroke="#63b8ff" points="2671.23,-153.09 2661.25,-156.65 2671.27,-160.09 2671.23,-153.09"/>
</g>
<!-- Node9 -->
<g id="node4" class="node">
<title>Node9</title>
<g id="a_node4"><a xlink:href="d__cc__uty_8h.html" target="_top" xlink:title=" ">
<polygon fill="#fff0f0" stroke="red" points="5117,-96 4998,-96 4998,-77 5117,-77 5117,-96"/>
<text text-anchor="middle" x="5057.5" y="-84" font-family="Helvetica,sans-Serif" font-size="10.00">include/d/cc/d_cc_uty.h</text>
</a>
</g>
</g>
<!-- Node2&#45;&gt;Node9 -->
<g id="edge3" class="edge">
<title>Node2&#45;&gt;Node9</title>
<path fill="none" stroke="#63b8ff" d="M2671.16,-156.61C3033.07,-154.38 4754.21,-141.98 4988.5,-107 5003.03,-104.83 5018.82,-100.52 5031.63,-96.5"/>
<polygon fill="#63b8ff" stroke="#63b8ff" points="2671.35,-153.11 2661.37,-156.67 2671.39,-160.11 2671.35,-153.11"/>
</g>
<!-- Node15 -->
<g id="node5" class="node">
<title>Node15</title>
<g id="a_node5"><a xlink:href="d__item_8h.html" target="_top" xlink:title=" ">
<polygon fill="#fff0f0" stroke="red" points="774,-96 679,-96 679,-77 774,-77 774,-96"/>
<text text-anchor="middle" x="726.5" y="-84" font-family="Helvetica,sans-Serif" font-size="10.00">include/d/d_item.h</text>
</a>
</g>
</g>
<!-- Node2&#45;&gt;Node15 -->
<g id="edge4" class="edge">
<title>Node2&#45;&gt;Node15</title>
<path fill="none" stroke="#63b8ff" d="M2537.68,-156.26C2230.7,-152.69 963.26,-136.3 788.5,-107 775.37,-104.8 761.17,-100.48 749.68,-96.47"/>
<polygon fill="#63b8ff" stroke="#63b8ff" points="2537.49,-159.75 2547.53,-156.37 2537.57,-152.75 2537.49,-159.75"/>
</g>
<!-- Node12 -->
<g id="node6" class="node">
<title>Node12</title>
<g id="a_node6"><a xlink:href="d__a__alink_8cpp.html" target="_top" xlink:title=" ">
<polygon fill="white" stroke="#666666" points="767,-24.5 658,-24.5 658,-5.5 767,-5.5 767,-24.5"/>
<text text-anchor="middle" x="712.5" y="-12.5" font-family="Helvetica,sans-Serif" font-size="10.00">src/d/a/d_a_alink.cpp</text>
</a>
</g>
</g>
<!-- Node2&#45;&gt;Node12 -->
<g id="edge31" class="edge">
<title>Node2&#45;&gt;Node12</title>
<path fill="none" stroke="#63b8ff" d="M2537.72,-156.54C2200.86,-154.07 702.8,-141.17 669.5,-107 645.72,-82.6 683.12,-42.57 702.29,-24.88"/>
<polygon fill="#63b8ff" stroke="#63b8ff" points="2537.67,-160.04 2547.7,-156.61 2537.72,-153.04 2537.67,-160.04"/>
</g>
<!-- Node16 -->
<g id="node7" class="node">
<title>Node16</title>
<g id="a_node7"><a xlink:href="d__a__obj__item_8cpp.html" target="_top" xlink:title=" ">
<polygon fill="white" stroke="#666666" points="910,-24.5 785,-24.5 785,-5.5 910,-5.5 910,-24.5"/>
<text text-anchor="middle" x="847.5" y="-12.5" font-family="Helvetica,sans-Serif" font-size="10.00">src/d/a/d_a_obj_item.cpp</text>
</a>
</g>
</g>
<!-- Node2&#45;&gt;Node16 -->
<g id="edge34" class="edge">
<title>Node2&#45;&gt;Node16</title>
<path fill="none" stroke="#63b8ff" d="M2537.86,-156.39C2217.73,-153.31 851.99,-138.35 821.5,-107 799.05,-83.91 826.22,-42.83 840.19,-24.85"/>
<polygon fill="#63b8ff" stroke="#63b8ff" points="2537.7,-159.89 2547.73,-156.49 2537.76,-152.89 2537.7,-159.89"/>
</g>
<!-- Node17 -->
<g id="node8" class="node">
<title>Node17</title>
<g id="a_node8"><a xlink:href="d__com__inf__game_8cpp.html" target="_top" xlink:title=" ">
<polygon fill="white" stroke="#666666" points="3117.5,-30 3009.5,-30 3009.5,0 3117.5,0 3117.5,-30"/>
<text text-anchor="start" x="3017.5" y="-18" font-family="Helvetica,sans-Serif" font-size="10.00">src/d/com/d_com_inf</text>
<text text-anchor="middle" x="3063.5" y="-7" font-family="Helvetica,sans-Serif" font-size="10.00">_game.cpp</text>
</a>
</g>
</g>
<!-- Node2&#45;&gt;Node17 -->
<g id="edge40" class="edge">
<title>Node2&#45;&gt;Node17</title>
<path fill="none" stroke="#63b8ff" d="M2671.44,-156.95C3066.94,-156.52 5082.27,-152.12 5126.5,-107 5139.26,-93.99 5139.23,-79.04 5126.5,-66 5090.38,-28.99 3440.59,-18.07 3117.91,-16.28"/>
<polygon fill="#63b8ff" stroke="#63b8ff" points="2671.46,-153.45 2661.46,-156.96 2671.46,-160.45 2671.46,-153.45"/>
</g>
<!-- Node20 -->
<g id="node9" class="node">
<title>Node20</title>
<g id="a_node9"><a xlink:href="d__kantera__icon__meter_8h.html" target="_top" xlink:title=" ">
<polygon fill="#fff0f0" stroke="red" points="932,-101.5 831,-101.5 831,-71.5 932,-71.5 932,-101.5"/>
<text text-anchor="start" x="839" y="-89.5" font-family="Helvetica,sans-Serif" font-size="10.00">include/d/d_kantera</text>
<text text-anchor="middle" x="881.5" y="-78.5" font-family="Helvetica,sans-Serif" font-size="10.00">_icon_meter.h</text>
</a>
</g>
</g>
<!-- Node2&#45;&gt;Node20 -->
<g id="edge8" class="edge">
<title>Node2&#45;&gt;Node20</title>
<path fill="none" stroke="#63b8ff" d="M2538.12,-156.14C2248.07,-152.22 1099.46,-135.04 940.5,-107 933.7,-105.8 926.61,-103.98 919.81,-101.93"/>
<polygon fill="#63b8ff" stroke="#63b8ff" points="2537.72,-159.63 2547.76,-156.27 2537.81,-152.63 2537.72,-159.63"/>
</g>
<!-- Node23 -->
<g id="node10" class="node">
<title>Node23</title>
<g id="a_node10"><a xlink:href="d__model_8h.html" target="_top" xlink:title=" ">
<polygon fill="#fff0f0" stroke="red" points="1053,-96 950,-96 950,-77 1053,-77 1053,-96"/>
<text text-anchor="middle" x="1001.5" y="-84" font-family="Helvetica,sans-Serif" font-size="10.00">include/d/d_model.h</text>
</a>
</g>
</g>
<!-- Node2&#45;&gt;Node23 -->
<g id="edge9" class="edge">
<title>Node2&#45;&gt;Node23</title>
<path fill="none" stroke="#63b8ff" d="M2537.89,-157.33C2280.59,-158.22 1351.57,-157.78 1061.5,-107 1048.77,-104.77 1035.03,-100.45 1023.91,-96.45"/>
<polygon fill="#63b8ff" stroke="#63b8ff" points="2537.77,-160.83 2547.76,-157.29 2537.74,-153.83 2537.77,-160.83"/>
</g>
<!-- Node25 -->
<g id="node11" class="node">
<title>Node25</title>
<g id="a_node11"><a xlink:href="d__name_8h.html" target="_top" xlink:title=" ">
<polygon fill="#fff0f0" stroke="red" points="1172,-96 1071,-96 1071,-77 1172,-77 1172,-96"/>
<text text-anchor="middle" x="1121.5" y="-84" font-family="Helvetica,sans-Serif" font-size="10.00">include/d/d_name.h</text>
</a>
</g>
</g>
<!-- Node2&#45;&gt;Node25 -->
<g id="edge10" class="edge">
<title>Node2&#45;&gt;Node25</title>
<path fill="none" stroke="#63b8ff" d="M2537.83,-157.12C2293.43,-157.16 1447.05,-153.86 1181.5,-107 1168.77,-104.75 1155.03,-100.44 1143.91,-96.43"/>
<polygon fill="#63b8ff" stroke="#63b8ff" points="2537.5,-160.62 2547.5,-157.11 2537.5,-153.62 2537.5,-160.62"/>
</g>
<!-- Node27 -->
<g id="node12" class="node">
<title>Node27</title>
<g id="a_node12"><a xlink:href="d__file__sel__info_8h.html" target="_top" xlink:title=" ">
<polygon fill="#fff0f0" stroke="red" points="1286.5,-101.5 1190.5,-101.5 1190.5,-71.5 1286.5,-71.5 1286.5,-101.5"/>
<text text-anchor="start" x="1198.5" y="-89.5" font-family="Helvetica,sans-Serif" font-size="10.00">include/d/file/d_file</text>
<text text-anchor="middle" x="1238.5" y="-78.5" font-family="Helvetica,sans-Serif" font-size="10.00">_sel_info.h</text>
</a>
</g>
</g>
<!-- Node2&#45;&gt;Node27 -->
<g id="edge11" class="edge">
<title>Node2&#45;&gt;Node27</title>
<path fill="none" stroke="#63b8ff" d="M2537.82,-157.01C2306.2,-156.65 1537.5,-152.01 1295.5,-107 1289.02,-105.8 1282.28,-104 1275.8,-101.98"/>
<polygon fill="#63b8ff" stroke="#63b8ff" points="2537.57,-160.51 2547.57,-157.02 2537.57,-153.51 2537.57,-160.51"/>
</g>
<!-- Node30 -->
<g id="node13" class="node">
<title>Node30</title>
<g id="a_node13"><a xlink:href="d__file__sel__warning_8h.html" target="_top" xlink:title=" ">
<polygon fill="#fff0f0" stroke="red" points="1400.5,-101.5 1304.5,-101.5 1304.5,-71.5 1400.5,-71.5 1400.5,-101.5"/>
<text text-anchor="start" x="1312.5" y="-89.5" font-family="Helvetica,sans-Serif" font-size="10.00">include/d/file/d_file</text>
<text text-anchor="middle" x="1352.5" y="-78.5" font-family="Helvetica,sans-Serif" font-size="10.00">_sel_warning.h</text>
</a>
</g>
</g>
<!-- Node2&#45;&gt;Node30 -->
<g id="edge12" class="edge">
<title>Node2&#45;&gt;Node30</title>
<path fill="none" stroke="#63b8ff" d="M2537.84,-156.73C2319.66,-155.44 1628.41,-148.13 1409.5,-107 1403.02,-105.78 1396.28,-103.98 1389.8,-101.96"/>
<polygon fill="#63b8ff" stroke="#63b8ff" points="2537.55,-160.23 2547.57,-156.78 2537.59,-153.23 2537.55,-160.23"/>
</g>
<!-- Node32 -->
<g id="node14" class="node">
<title>Node32</title>
<g id="a_node14"><a xlink:href="d__meter2_8h.html" target="_top" xlink:title=" ">
<polygon fill="#fff0f0" stroke="red" points="1552.5,-96 1418.5,-96 1418.5,-77 1552.5,-77 1552.5,-96"/>
<text text-anchor="middle" x="1485.5" y="-84" font-family="Helvetica,sans-Serif" font-size="10.00">include/d/meter/d_meter2.h</text>
</a>
</g>
</g>
<!-- Node2&#45;&gt;Node32 -->
<g id="edge13" class="edge">
<title>Node2&#45;&gt;Node32</title>
<path fill="none" stroke="#63b8ff" d="M2537.85,-155.58C2338.83,-151.04 1750.99,-135.55 1561.5,-107 1545.74,-104.63 1528.51,-100.35 1514.45,-96.4"/>
<polygon fill="#63b8ff" stroke="#63b8ff" points="2537.68,-159.07 2547.76,-155.8 2537.84,-152.08 2537.68,-159.07"/>
</g>
<!-- Node40 -->
<g id="node15" class="node">
<title>Node40</title>
<g id="a_node15"><a xlink:href="d__msg__object_8h.html" target="_top" xlink:title=" ">
<polygon fill="#fff0f0" stroke="red" points="362.5,-101.5 252.5,-101.5 252.5,-71.5 362.5,-71.5 362.5,-101.5"/>
<text text-anchor="start" x="260.5" y="-89.5" font-family="Helvetica,sans-Serif" font-size="10.00">include/d/msg/d_msg</text>
<text text-anchor="middle" x="307.5" y="-78.5" font-family="Helvetica,sans-Serif" font-size="10.00">_object.h</text>
</a>
</g>
</g>
<!-- Node2&#45;&gt;Node40 -->
<g id="edge14" class="edge">
<title>Node2&#45;&gt;Node40</title>
<path fill="none" stroke="#63b8ff" d="M2537.92,-156.45C2191.04,-153.45 598.35,-138.09 380.5,-107 372.19,-105.81 363.47,-104 355.07,-101.95"/>
<polygon fill="#63b8ff" stroke="#63b8ff" points="2537.71,-159.95 2547.74,-156.53 2537.77,-152.95 2537.71,-159.95"/>
</g>
<!-- Node45 -->
<g id="node16" class="node">
<title>Node45</title>
<g id="a_node16"><a xlink:href="d__demo_8cpp.html" target="_top" xlink:title=" ">
<polygon fill="white" stroke="#666666" points="233.5,-24.5 139.5,-24.5 139.5,-5.5 233.5,-5.5 233.5,-24.5"/>
<text text-anchor="middle" x="186.5" y="-12.5" font-family="Helvetica,sans-Serif" font-size="10.00">src/d/d_demo.cpp</text>
</a>
</g>
</g>
<!-- Node2&#45;&gt;Node45 -->
<g id="edge45" class="edge">
<title>Node2&#45;&gt;Node45</title>
<path fill="none" stroke="#63b8ff" d="M2537.93,-156.46C2159.56,-153.27 294.75,-136.09 243.5,-107 211.24,-88.69 194.69,-43.86 188.92,-24.8"/>
<polygon fill="#63b8ff" stroke="#63b8ff" points="2537.67,-159.96 2547.7,-156.54 2537.73,-152.96 2537.67,-159.96"/>
</g>
<!-- Node46 -->
<g id="node17" class="node">
<title>Node46</title>
<g id="a_node17"><a xlink:href="d__event_8cpp.html" target="_top" xlink:title=" ">
<polygon fill="white" stroke="#666666" points="121,-24.5 0,-24.5 0,-5.5 121,-5.5 121,-24.5"/>
<text text-anchor="middle" x="60.5" y="-12.5" font-family="Helvetica,sans-Serif" font-size="10.00">src/d/event/d_event.cpp</text>
</a>
</g>
</g>
<!-- Node2&#45;&gt;Node46 -->
<g id="edge54" class="edge">
<title>Node2&#45;&gt;Node46</title>
<path fill="none" stroke="#63b8ff" d="M2537.56,-156.62C2160.86,-154.38 318.11,-141.67 203.5,-107 147.17,-89.96 91.57,-44 69.95,-24.71"/>
<polygon fill="#63b8ff" stroke="#63b8ff" points="2537.51,-160.12 2547.54,-156.68 2537.56,-153.12 2537.51,-160.12"/>
</g>
<!-- Node47 -->
<g id="node18" class="node">
<title>Node47</title>
<g id="a_node18"><a xlink:href="d__event__data_8cpp.html" target="_top" xlink:title=" ">
<polygon fill="white" stroke="#666666" points="355,-30 252,-30 252,0 355,0 355,-30"/>
<text text-anchor="start" x="260" y="-18" font-family="Helvetica,sans-Serif" font-size="10.00">src/d/event/d_event</text>
<text text-anchor="middle" x="303.5" y="-7" font-family="Helvetica,sans-Serif" font-size="10.00">_data.cpp</text>
</a>
</g>
</g>
<!-- Node2&#45;&gt;Node47 -->
<g id="edge55" class="edge">
<title>Node2&#45;&gt;Node47</title>
<path fill="none" stroke="#63b8ff" d="M2537.79,-156.44C2185.39,-153.34 552.82,-137.39 450.5,-107 423.53,-98.99 357.21,-53.9 323.65,-30.34"/>
<polygon fill="#63b8ff" stroke="#63b8ff" points="2537.51,-159.93 2547.54,-156.52 2537.57,-152.94 2537.51,-159.93"/>
</g>
<!-- Node48 -->
<g id="node19" class="node">
<title>Node48</title>
<g id="a_node19"><a xlink:href="d__kankyo_8cpp.html" target="_top" xlink:title=" ">
<polygon fill="white" stroke="#666666" points="507.5,-24.5 373.5,-24.5 373.5,-5.5 507.5,-5.5 507.5,-24.5"/>
<text text-anchor="middle" x="440.5" y="-12.5" font-family="Helvetica,sans-Serif" font-size="10.00">src/d/kankyo/d_kankyo.cpp</text>
</a>
</g>
</g>
<!-- Node2&#45;&gt;Node48 -->
<g id="edge58" class="edge">
<title>Node2&#45;&gt;Node48</title>
<path fill="none" stroke="#63b8ff" d="M2537.75,-156.37C2182.67,-152.9 529.81,-135.25 485.5,-107 455.93,-88.15 445.14,-43.62 441.8,-24.72"/>
<polygon fill="#63b8ff" stroke="#63b8ff" points="2537.56,-159.87 2547.59,-156.47 2537.62,-152.87 2537.56,-159.87"/>
</g>
<!-- Node54 -->
<g id="node20" class="node">
<title>Node54</title>
<g id="a_node20"><a xlink:href="d__s__logo_8h.html" target="_top" xlink:title=" ">
<polygon fill="#fff0f0" stroke="red" points="1684,-96 1571,-96 1571,-77 1684,-77 1684,-96"/>
<text text-anchor="middle" x="1627.5" y="-84" font-family="Helvetica,sans-Serif" font-size="10.00">include/d/s/d_s_logo.h</text>
</a>
</g>
</g>
<!-- Node2&#45;&gt;Node54 -->
<g id="edge20" class="edge">
<title>Node2&#45;&gt;Node54</title>
<path fill="none" stroke="#63b8ff" d="M2537.89,-155.39C2356.25,-150.68 1855.07,-135.43 1692.5,-107 1678.92,-104.63 1664.18,-100.35 1652.17,-96.4"/>
<polygon fill="#63b8ff" stroke="#63b8ff" points="2537.53,-158.88 2547.62,-155.64 2537.71,-151.89 2537.53,-158.88"/>
</g>
<!-- Node56 -->
<g id="node21" class="node">
<title>Node56</title>
<g id="a_node21"><a xlink:href="d__s__play_8h.html" target="_top" xlink:title=" ">
<polygon fill="#fff0f0" stroke="red" points="1815,-96 1702,-96 1702,-77 1815,-77 1815,-96"/>
<text text-anchor="middle" x="1758.5" y="-84" font-family="Helvetica,sans-Serif" font-size="10.00">include/d/s/d_s_play.h</text>
</a>
</g>
</g>
<!-- Node2&#45;&gt;Node56 -->
<g id="edge21" class="edge">
<title>Node2&#45;&gt;Node56</title>
<path fill="none" stroke="#63b8ff" d="M2537.66,-157.81C2401.92,-158.34 2084.68,-153.91 1823.5,-107 1810.05,-104.58 1795.44,-100.35 1783.49,-96.45"/>
<polygon fill="#63b8ff" stroke="#63b8ff" points="2537.57,-161.31 2547.55,-157.76 2537.53,-154.31 2537.57,-161.31"/>
</g>
<!-- Node60 -->
<g id="node22" class="node">
<title>Node60</title>
<g id="a_node22"><a xlink:href="d__msg__scrn__base_8h.html" target="_top" xlink:title=" ">
<polygon fill="#fff0f0" stroke="red" points="1932,-101.5 1833,-101.5 1833,-71.5 1932,-71.5 1932,-101.5"/>
<text text-anchor="start" x="1841" y="-89.5" font-family="Helvetica,sans-Serif" font-size="10.00">include/msg/scrn/d</text>
<text text-anchor="middle" x="1882.5" y="-78.5" font-family="Helvetica,sans-Serif" font-size="10.00">_msg_scrn_base.h</text>
</a>
</g>
</g>
<!-- Node2&#45;&gt;Node60 -->
<g id="edge22" class="edge">
<title>Node2&#45;&gt;Node60</title>
<path fill="none" stroke="#63b8ff" d="M2538,-157.43C2417.59,-157.02 2155.91,-150.61 1940.5,-107 1934.15,-105.71 1927.53,-103.93 1921.13,-101.97"/>
<polygon fill="#63b8ff" stroke="#63b8ff" points="2537.69,-160.93 2547.7,-157.45 2537.7,-153.93 2537.69,-160.93"/>
</g>
<!-- Node64 -->
<g id="node23" class="node">
<title>Node64</title>
<g id="a_node23"><a xlink:href="d__a__b__zant_8h.html" target="_top" xlink:title=" ">
<polygon fill="white" stroke="#666666" points="2071,-101.5 1950,-101.5 1950,-71.5 2071,-71.5 2071,-101.5"/>
<text text-anchor="start" x="1958" y="-89.5" font-family="Helvetica,sans-Serif" font-size="10.00">include/rel/d/a/b/d</text>
<text text-anchor="middle" x="2010.5" y="-78.5" font-family="Helvetica,sans-Serif" font-size="10.00">_a_b_zant/d_a_b_zant.h</text>
</a>
</g>
</g>
<!-- Node2&#45;&gt;Node64 -->
<g id="edge23" class="edge">
<title>Node2&#45;&gt;Node64</title>
<path fill="none" stroke="#63b8ff" d="M2537.94,-154.41C2437.91,-149.68 2243.21,-137.18 2080.5,-107 2073.18,-105.64 2065.52,-103.87 2058.06,-101.96"/>
<polygon fill="#63b8ff" stroke="#63b8ff" points="2537.7,-157.91 2547.85,-154.87 2538.02,-150.91 2537.7,-157.91"/>
</g>
<!-- Node65 -->
<g id="node24" class="node">
<title>Node65</title>
<g id="a_node24"><a xlink:href="d__a__skip__2D_8h.html" target="_top" xlink:title=" ">
<polygon fill="white" stroke="#666666" points="2213.5,-101.5 2089.5,-101.5 2089.5,-71.5 2213.5,-71.5 2213.5,-101.5"/>
<text text-anchor="start" x="2097.5" y="-89.5" font-family="Helvetica,sans-Serif" font-size="10.00">include/rel/d/a/d_a</text>
<text text-anchor="middle" x="2151.5" y="-78.5" font-family="Helvetica,sans-Serif" font-size="10.00">_skip_2D/d_a_skip_2D.h</text>
</a>
</g>
</g>
<!-- Node2&#45;&gt;Node65 -->
<g id="edge24" class="edge">
<title>Node2&#45;&gt;Node65</title>
<path fill="none" stroke="#63b8ff" d="M2537.7,-151.07C2461.08,-143.63 2331.95,-129.08 2222.5,-107 2215.36,-105.56 2207.88,-103.79 2200.56,-101.92"/>
<polygon fill="#63b8ff" stroke="#63b8ff" points="2537.28,-154.55 2547.56,-152.02 2537.94,-147.58 2537.28,-154.55"/>
</g>
<!-- Node66 -->
<g id="node25" class="node">
<title>Node66</title>
<g id="a_node25"><a xlink:href="d__a__spinner_8h.html" target="_top" xlink:title=" ">
<polygon fill="white" stroke="#666666" points="622.5,-101.5 506.5,-101.5 506.5,-71.5 622.5,-71.5 622.5,-101.5"/>
<text text-anchor="start" x="514.5" y="-89.5" font-family="Helvetica,sans-Serif" font-size="10.00">include/rel/d/a/d_a</text>
<text text-anchor="middle" x="564.5" y="-78.5" font-family="Helvetica,sans-Serif" font-size="10.00">_spinner/d_a_spinner.h</text>
</a>
</g>
</g>
<!-- Node2&#45;&gt;Node66 -->
<g id="edge25" class="edge">
<title>Node2&#45;&gt;Node66</title>
<path fill="none" stroke="#63b8ff" d="M2537.97,-156.25C2216.06,-152.52 827.65,-134.9 636.5,-107 628.3,-105.8 619.7,-103.99 611.41,-101.93"/>
<polygon fill="#63b8ff" stroke="#63b8ff" points="2537.86,-159.75 2547.9,-156.37 2537.94,-152.75 2537.86,-159.75"/>
</g>
<!-- Node67 -->
<g id="node26" class="node">
<title>Node67</title>
<g id="a_node26"><a xlink:href="d__a__player_8cpp.html" target="_top" xlink:title=" ">
<polygon fill="white" stroke="#666666" points="639.5,-24.5 525.5,-24.5 525.5,-5.5 639.5,-5.5 639.5,-24.5"/>
<text text-anchor="middle" x="582.5" y="-12.5" font-family="Helvetica,sans-Serif" font-size="10.00">src/d/a/d_a_player.cpp</text>
</a>
</g>
</g>
<!-- Node2&#45;&gt;Node67 -->
<g id="edge35" class="edge">
<title>Node2&#45;&gt;Node67</title>
<path fill="none" stroke="#63b8ff" d="M2537.87,-156.69C2183.44,-154.86 534,-144.38 497.5,-107 484.77,-93.96 488.45,-81.82 497.5,-66 509.32,-45.34 533.36,-32.38 552.87,-24.84"/>
<polygon fill="#63b8ff" stroke="#63b8ff" points="2537.67,-160.19 2547.69,-156.74 2537.7,-153.19 2537.67,-160.19"/>
</g>
<!-- Node68 -->
<g id="node27" class="node">
<title>Node68</title>
<g id="a_node27"><a xlink:href="d__a__obj__yobikusa_8h.html" target="_top" xlink:title=" ">
<polygon fill="white" stroke="#666666" points="2337,-107 2232,-107 2232,-66 2337,-66 2337,-107"/>
<text text-anchor="start" x="2240" y="-95" font-family="Helvetica,sans-Serif" font-size="10.00">include/rel/d/a/obj</text>
<text text-anchor="start" x="2240" y="-84" font-family="Helvetica,sans-Serif" font-size="10.00">/d_a_obj_yobikusa/d</text>
<text text-anchor="middle" x="2284.5" y="-73" font-family="Helvetica,sans-Serif" font-size="10.00">_a_obj_yobikusa.h</text>
</a>
</g>
</g>
<!-- Node2&#45;&gt;Node68 -->
<g id="edge28" class="edge">
<title>Node2&#45;&gt;Node68</title>
<path fill="none" stroke="#63b8ff" d="M2538.08,-146.26C2485.71,-137.28 2410.99,-123.33 2346.5,-107 2343.55,-106.25 2340.53,-105.44 2337.49,-104.6"/>
<polygon fill="#63b8ff" stroke="#63b8ff" points="2537.3,-149.68 2547.75,-147.9 2538.48,-142.78 2537.3,-149.68"/>
</g>
<!-- Node69 -->
<g id="node28" class="node">
<title>Node69</title>
<g id="a_node28"><a xlink:href="d__a__tag__telop_8h.html" target="_top" xlink:title=" ">
<polygon fill="white" stroke="#666666" points="2473.5,-107 2355.5,-107 2355.5,-66 2473.5,-66 2473.5,-107"/>
<text text-anchor="start" x="2363.5" y="-95" font-family="Helvetica,sans-Serif" font-size="10.00">include/rel/d/a/tag</text>
<text text-anchor="start" x="2363.5" y="-84" font-family="Helvetica,sans-Serif" font-size="10.00">/d_a_tag_telop/d_a_tag</text>
<text text-anchor="middle" x="2414.5" y="-73" font-family="Helvetica,sans-Serif" font-size="10.00">_telop.h</text>
</a>
</g>
</g>
<!-- Node2&#45;&gt;Node69 -->
<g id="edge29" class="edge">
<title>Node2&#45;&gt;Node69</title>
<path fill="none" stroke="#63b8ff" d="M2554.62,-138.75C2528.29,-129.12 2495.93,-117.29 2468.95,-107.42"/>
<polygon fill="#63b8ff" stroke="#63b8ff" points="2553.12,-141.93 2563.71,-142.08 2555.52,-135.36 2553.12,-141.93"/>
</g>
<!-- Node70 -->
<g id="node29" class="node">
<title>Node70</title>
<g id="a_node29"><a xlink:href="c__dylink_8cpp.html" target="_top" xlink:title=" ">
<polygon fill="white" stroke="#666666" points="2587,-96 2492,-96 2492,-77 2587,-77 2587,-96"/>
<text text-anchor="middle" x="2539.5" y="-84" font-family="Helvetica,sans-Serif" font-size="10.00">src/c/c_dylink.cpp</text>
</a>
</g>
</g>
<!-- Node2&#45;&gt;Node70 -->
<g id="edge30" class="edge">
<title>Node2&#45;&gt;Node70</title>
<path fill="none" stroke="#63b8ff" d="M2583.45,-134.49C2571.23,-121.43 2556.54,-105.72 2547.62,-96.18"/>
<polygon fill="#63b8ff" stroke="#63b8ff" points="2580.61,-136.58 2590,-141.49 2585.72,-131.8 2580.61,-136.58"/>
</g>
<!-- Node71 -->
<g id="node30" class="node">
<title>Node71</title>
<g id="a_node30"><a xlink:href="d__a__itembase_8cpp.html" target="_top" xlink:title=" ">
<polygon fill="white" stroke="#666666" points="2733.5,-96 2605.5,-96 2605.5,-77 2733.5,-77 2733.5,-96"/>
<text text-anchor="middle" x="2669.5" y="-84" font-family="Helvetica,sans-Serif" font-size="10.00">src/d/a/d_a_itembase.cpp</text>
</a>
</g>
</g>
<!-- Node2&#45;&gt;Node71 -->
<g id="edge32" class="edge">
<title>Node2&#45;&gt;Node71</title>
<path fill="none" stroke="#63b8ff" d="M2625.55,-134.49C2637.77,-121.43 2652.46,-105.72 2661.38,-96.18"/>
<polygon fill="#63b8ff" stroke="#63b8ff" points="2623.28,-131.8 2619,-141.49 2628.39,-136.58 2623.28,-131.8"/>
</g>
<!-- Node72 -->
<g id="node31" class="node">
<title>Node72</title>
<g id="a_node31"><a xlink:href="d__a__obj_8cpp.html" target="_top" xlink:title=" ">
<polygon fill="white" stroke="#666666" points="2853,-96 2752,-96 2752,-77 2853,-77 2853,-96"/>
<text text-anchor="middle" x="2802.5" y="-84" font-family="Helvetica,sans-Serif" font-size="10.00">src/d/a/d_a_obj.cpp</text>
</a>
</g>
</g>
<!-- Node2&#45;&gt;Node72 -->
<g id="edge33" class="edge">
<title>Node2&#45;&gt;Node72</title>
<path fill="none" stroke="#63b8ff" d="M2656.11,-138.88C2694.94,-125.26 2746.49,-107.16 2776.92,-96.48"/>
<polygon fill="#63b8ff" stroke="#63b8ff" points="2655.23,-135.48 2646.95,-142.1 2657.55,-142.09 2655.23,-135.48"/>
</g>
<!-- Node73 -->
<g id="node32" class="node">
<title>Node73</title>
<g id="a_node32"><a xlink:href="d__bg__s_8cpp.html" target="_top" xlink:title=" ">
<polygon fill="white" stroke="#666666" points="2975.5,-96 2871.5,-96 2871.5,-77 2975.5,-77 2975.5,-96"/>
<text text-anchor="middle" x="2923.5" y="-84" font-family="Helvetica,sans-Serif" font-size="10.00">src/d/bg/d_bg_s.cpp</text>
</a>
</g>
</g>
<!-- Node2&#45;&gt;Node73 -->
<g id="edge36" class="edge">
<title>Node2&#45;&gt;Node73</title>
<path fill="none" stroke="#63b8ff" d="M2670.91,-146.2C2723.07,-137.2 2797.36,-123.27 2861.5,-107 2873.42,-103.98 2886.43,-99.99 2897.44,-96.41"/>
<polygon fill="#63b8ff" stroke="#63b8ff" points="2670.55,-142.71 2661.29,-147.84 2671.73,-149.61 2670.55,-142.71"/>
</g>
<!-- Node74 -->
<g id="node33" class="node">
<title>Node74</title>
<g id="a_node33"><a xlink:href="d__bg__s__movebg__actor_8cpp.html" target="_top" xlink:title=" ">
<polygon fill="white" stroke="#666666" points="3119.5,-101.5 2993.5,-101.5 2993.5,-71.5 3119.5,-71.5 3119.5,-101.5"/>
<text text-anchor="start" x="3001.5" y="-89.5" font-family="Helvetica,sans-Serif" font-size="10.00">src/d/bg/d_bg_s_movebg</text>
<text text-anchor="middle" x="3056.5" y="-78.5" font-family="Helvetica,sans-Serif" font-size="10.00">_actor.cpp</text>
</a>
</g>
</g>
<!-- Node2&#45;&gt;Node74 -->
<g id="edge37" class="edge">
<title>Node2&#45;&gt;Node74</title>
<path fill="none" stroke="#63b8ff" d="M2671.26,-150.94C2747.5,-143.4 2875.74,-128.78 2984.5,-107 2991.74,-105.55 2999.32,-103.78 3006.74,-101.9"/>
<polygon fill="#63b8ff" stroke="#63b8ff" points="2671.06,-147.45 2661.45,-151.9 2671.74,-154.41 2671.06,-147.45"/>
</g>
<!-- Node75 -->
<g id="node34" class="node">
<title>Node75</title>
<g id="a_node34"><a xlink:href="d__bg__w_8cpp.html" target="_top" xlink:title=" ">
<polygon fill="white" stroke="#666666" points="3245,-96 3138,-96 3138,-77 3245,-77 3245,-96"/>
<text text-anchor="middle" x="3191.5" y="-84" font-family="Helvetica,sans-Serif" font-size="10.00">src/d/bg/d_bg_w.cpp</text>
</a>
</g>
</g>
<!-- Node2&#45;&gt;Node75 -->
<g id="edge38" class="edge">
<title>Node2&#45;&gt;Node75</title>
<path fill="none" stroke="#63b8ff" d="M2671.18,-155.01C2771.35,-151.04 2966.24,-139.5 3128.5,-107 3141.3,-104.44 3155.19,-100.29 3166.67,-96.48"/>
<polygon fill="#63b8ff" stroke="#63b8ff" points="2671.1,-151.51 2661.24,-155.39 2671.37,-158.5 2671.1,-151.51"/>
</g>
<!-- Node76 -->
<g id="node35" class="node">
<title>Node76</title>
<g id="a_node35"><a xlink:href="d__cc__s_8cpp.html" target="_top" xlink:title=" ">
<polygon fill="white" stroke="#666666" points="3367.5,-96 3263.5,-96 3263.5,-77 3367.5,-77 3367.5,-96"/>
<text text-anchor="middle" x="3315.5" y="-84" font-family="Helvetica,sans-Serif" font-size="10.00">src/d/cc/d_cc_s.cpp</text>
</a>
</g>
</g>
<!-- Node2&#45;&gt;Node76 -->
<g id="edge39" class="edge">
<title>Node2&#45;&gt;Node76</title>
<path fill="none" stroke="#63b8ff" d="M2671.13,-156.85C2789.45,-155.47 3043.57,-147.55 3253.5,-107 3266.24,-104.54 3280.05,-100.35 3291.39,-96.49"/>
<polygon fill="#63b8ff" stroke="#63b8ff" points="2671.24,-153.34 2661.28,-156.95 2671.31,-160.34 2671.24,-153.34"/>
</g>
<!-- Node77 -->
<g id="node36" class="node">
<title>Node77</title>
<g id="a_node36"><a xlink:href="d__com__static_8cpp.html" target="_top" xlink:title=" ">
<polygon fill="white" stroke="#666666" points="3525.5,-96 3385.5,-96 3385.5,-77 3525.5,-77 3525.5,-96"/>
<text text-anchor="middle" x="3455.5" y="-84" font-family="Helvetica,sans-Serif" font-size="10.00">src/d/com/d_com_static.cpp</text>
</a>
</g>
</g>
<!-- Node2&#45;&gt;Node77 -->
<g id="edge41" class="edge">
<title>Node2&#45;&gt;Node77</title>
<path fill="none" stroke="#63b8ff" d="M2670.89,-156.65C2805.02,-155.08 3117.59,-147.02 3376.5,-107 3392.56,-104.52 3410.13,-100.33 3424.61,-96.47"/>
<polygon fill="#63b8ff" stroke="#63b8ff" points="2671.1,-153.15 2661.13,-156.76 2671.17,-160.15 2671.1,-153.15"/>
</g>
<!-- Node78 -->
<g id="node37" class="node">
<title>Node78</title>
<g id="a_node37"><a xlink:href="d__attention_8cpp.html" target="_top" xlink:title=" ">
<polygon fill="white" stroke="#666666" points="3651,-96 3544,-96 3544,-77 3651,-77 3651,-96"/>
<text text-anchor="middle" x="3597.5" y="-84" font-family="Helvetica,sans-Serif" font-size="10.00">src/d/d_attention.cpp</text>
</a>
</g>
</g>
<!-- Node2&#45;&gt;Node78 -->
<g id="edge42" class="edge">
<title>Node2&#45;&gt;Node78</title>
<path fill="none" stroke="#63b8ff" d="M2671.14,-155.55C2855.28,-151.2 3368.45,-136.69 3534.5,-107 3547.69,-104.64 3561.98,-100.37 3573.61,-96.42"/>
<polygon fill="#63b8ff" stroke="#63b8ff" points="2671.18,-152.05 2661.26,-155.78 2671.34,-159.04 2671.18,-152.05"/>
</g>
<!-- Node79 -->
<g id="node38" class="node">
<title>Node79</title>
<g id="a_node38"><a xlink:href="d__cam__param_8cpp.html" target="_top" xlink:title=" ">
<polygon fill="white" stroke="#666666" points="3790,-96 3669,-96 3669,-77 3790,-77 3790,-96"/>
<text text-anchor="middle" x="3729.5" y="-84" font-family="Helvetica,sans-Serif" font-size="10.00">src/d/d_cam_param.cpp</text>
</a>
</g>
</g>
<!-- Node2&#45;&gt;Node79 -->
<g id="edge43" class="edge">
<title>Node2&#45;&gt;Node79</title>
<path fill="none" stroke="#63b8ff" d="M2670.95,-155.8C2871.35,-151.87 3467.81,-137.84 3659.5,-107 3674.07,-104.66 3689.95,-100.38 3702.89,-96.43"/>
<polygon fill="#63b8ff" stroke="#63b8ff" points="2671.17,-152.29 2661.24,-155.99 2671.31,-159.29 2671.17,-152.29"/>
</g>
<!-- Node80 -->
<g id="node39" class="node">
<title>Node80</title>
<g id="a_node39"><a xlink:href="d__camera_8cpp.html" target="_top" xlink:title=" ">
<polygon fill="white" stroke="#666666" points="3910.5,-96 3808.5,-96 3808.5,-77 3910.5,-77 3910.5,-96"/>
<text text-anchor="middle" x="3859.5" y="-84" font-family="Helvetica,sans-Serif" font-size="10.00">src/d/d_camera.cpp</text>
</a>
</g>
</g>
<!-- Node2&#45;&gt;Node80 -->
<g id="edge44" class="edge">
<title>Node2&#45;&gt;Node80</title>
<path fill="none" stroke="#63b8ff" d="M2671.08,-156.55C2888.97,-154.71 3579.37,-145.89 3798.5,-107 3811.31,-104.73 3825.15,-100.46 3836.41,-96.49"/>
<polygon fill="#63b8ff" stroke="#63b8ff" points="2671.32,-153.05 2661.35,-156.63 2671.38,-160.05 2671.32,-153.05"/>
</g>
<!-- Node81 -->
<g id="node40" class="node">
<title>Node81</title>
<g id="a_node40"><a xlink:href="d__eye__hl_8cpp.html" target="_top" xlink:title=" ">
<polygon fill="white" stroke="#666666" points="4026.5,-96 3928.5,-96 3928.5,-77 4026.5,-77 4026.5,-96"/>
<text text-anchor="middle" x="3977.5" y="-84" font-family="Helvetica,sans-Serif" font-size="10.00">src/d/d_eye_hl.cpp</text>
</a>
</g>
</g>
<!-- Node2&#45;&gt;Node81 -->
<g id="edge46" class="edge">
<title>Node2&#45;&gt;Node81</title>
<path fill="none" stroke="#63b8ff" d="M2671.08,-156.98C2903.26,-156.52 3676.13,-151.58 3919.5,-107 3931.83,-104.74 3945.12,-100.42 3955.86,-96.42"/>
<polygon fill="#63b8ff" stroke="#63b8ff" points="2671.3,-153.48 2661.31,-157 2671.31,-160.48 2671.3,-153.48"/>
</g>
<!-- Node82 -->
<g id="node41" class="node">
<title>Node82</title>
<g id="a_node41"><a xlink:href="d__kyeff_8cpp.html" target="_top" xlink:title=" ">
<polygon fill="white" stroke="#666666" points="4134.5,-96 4044.5,-96 4044.5,-77 4134.5,-77 4134.5,-96"/>
<text text-anchor="middle" x="4089.5" y="-84" font-family="Helvetica,sans-Serif" font-size="10.00">src/d/d_kyeff.cpp</text>
</a>
</g>
</g>
<!-- Node2&#45;&gt;Node82 -->
<g id="edge47" class="edge">
<title>Node2&#45;&gt;Node82</title>
<path fill="none" stroke="#63b8ff" d="M2671.18,-157.41C2916.59,-158.51 3769.1,-158.44 4035.5,-107 4047.05,-104.77 4059.42,-100.45 4069.41,-96.45"/>
<polygon fill="#63b8ff" stroke="#63b8ff" points="2671.49,-153.91 2661.47,-157.37 2671.45,-160.91 2671.49,-153.91"/>
</g>
<!-- Node83 -->
<g id="node42" class="node">
<title>Node83</title>
<g id="a_node42"><a xlink:href="d__path_8cpp.html" target="_top" xlink:title=" ">
<polygon fill="white" stroke="#666666" points="4242,-96 4153,-96 4153,-77 4242,-77 4242,-96"/>
<text text-anchor="middle" x="4197.5" y="-84" font-family="Helvetica,sans-Serif" font-size="10.00">src/d/d_path.cpp</text>
</a>
</g>
</g>
<!-- Node2&#45;&gt;Node83 -->
<g id="edge48" class="edge">
<title>Node2&#45;&gt;Node83</title>
<path fill="none" stroke="#63b8ff" d="M2671.25,-156.06C2948.04,-152.01 3997.83,-134.94 4143.5,-107 4155.05,-104.78 4167.43,-100.47 4177.41,-96.46"/>
<polygon fill="#63b8ff" stroke="#63b8ff" points="2671.27,-152.56 2661.32,-156.21 2671.37,-159.56 2671.27,-152.56"/>
</g>
<!-- Node84 -->
<g id="node43" class="node">
<title>Node84</title>
<g id="a_node43"><a xlink:href="d__resorce_8cpp.html" target="_top" xlink:title=" ">
<polygon fill="white" stroke="#666666" points="4362.5,-96 4260.5,-96 4260.5,-77 4362.5,-77 4362.5,-96"/>
<text text-anchor="middle" x="4311.5" y="-84" font-family="Helvetica,sans-Serif" font-size="10.00">src/d/d_resorce.cpp</text>
</a>
</g>
</g>
<!-- Node2&#45;&gt;Node84 -->
<g id="edge49" class="edge">
<title>Node2&#45;&gt;Node84</title>
<path fill="none" stroke="#63b8ff" d="M2671.06,-157.45C2938.99,-158.87 3939.18,-160.4 4250.5,-107 4263.43,-104.78 4277.4,-100.47 4288.71,-96.46"/>
<polygon fill="#63b8ff" stroke="#63b8ff" points="2671.13,-153.95 2661.11,-157.39 2671.09,-160.95 2671.13,-153.95"/>
</g>
<!-- Node85 -->
<g id="node44" class="node">
<title>Node85</title>
<g id="a_node44"><a xlink:href="d__simple__model_8cpp.html" target="_top" xlink:title=" ">
<polygon fill="white" stroke="#666666" points="4510.5,-96 4380.5,-96 4380.5,-77 4510.5,-77 4510.5,-96"/>
<text text-anchor="middle" x="4445.5" y="-84" font-family="Helvetica,sans-Serif" font-size="10.00">src/d/d_simple_model.cpp</text>
</a>
</g>
</g>
<!-- Node2&#45;&gt;Node85 -->
<g id="edge50" class="edge">
<title>Node2&#45;&gt;Node85</title>
<path fill="none" stroke="#63b8ff" d="M2670.77,-157.16C2950.27,-157.5 4033.88,-155.6 4371.5,-107 4387.02,-104.77 4403.95,-100.45 4417.7,-96.44"/>
<polygon fill="#63b8ff" stroke="#63b8ff" points="2671.14,-153.66 2661.13,-157.14 2671.13,-160.66 2671.14,-153.66"/>
</g>
<!-- Node86 -->
<g id="node45" class="node">
<title>Node86</title>
<g id="a_node45"><a xlink:href="d__stage_8cpp.html" target="_top" xlink:title=" ">
<polygon fill="white" stroke="#666666" points="4622.5,-96 4528.5,-96 4528.5,-77 4622.5,-77 4622.5,-96"/>
<text text-anchor="middle" x="4575.5" y="-84" font-family="Helvetica,sans-Serif" font-size="10.00">src/d/d_stage.cpp</text>
</a>
</g>
</g>
<!-- Node2&#45;&gt;Node86 -->
<g id="edge51" class="edge">
<title>Node2&#45;&gt;Node86</title>
<path fill="none" stroke="#63b8ff" d="M2670.83,-156.48C2987.16,-153.84 4334.89,-140.71 4519.5,-107 4531.45,-104.82 4544.28,-100.5 4554.64,-96.49"/>
<polygon fill="#63b8ff" stroke="#63b8ff" points="2671.06,-152.98 2661.09,-156.56 2671.12,-159.98 2671.06,-152.98"/>
</g>
<!-- Node87 -->
<g id="node46" class="node">
<title>Node87</title>
<g id="a_node46"><a xlink:href="d__timer_8cpp.html" target="_top" xlink:title=" ">
<polygon fill="white" stroke="#666666" points="4732.5,-96 4640.5,-96 4640.5,-77 4732.5,-77 4732.5,-96"/>
<text text-anchor="middle" x="4686.5" y="-84" font-family="Helvetica,sans-Serif" font-size="10.00">src/d/d_timer.cpp</text>
</a>
</g>
</g>
<!-- Node2&#45;&gt;Node87 -->
<g id="edge52" class="edge">
<title>Node2&#45;&gt;Node87</title>
<path fill="none" stroke="#63b8ff" d="M2670.96,-156.61C2998.76,-154.49 4435.43,-143.22 4631.5,-107 4643.26,-104.83 4655.86,-100.52 4666.03,-96.5"/>
<polygon fill="#63b8ff" stroke="#63b8ff" points="2671.26,-153.1 2661.29,-156.67 2671.31,-160.1 2671.26,-153.1"/>
</g>
<!-- Node88 -->
<g id="node47" class="node">
<title>Node88</title>
<g id="a_node47"><a xlink:href="d__tresure_8cpp.html" target="_top" xlink:title=" ">
<polygon fill="white" stroke="#666666" points="4850.5,-96 4750.5,-96 4750.5,-77 4850.5,-77 4850.5,-96"/>
<text text-anchor="middle" x="4800.5" y="-84" font-family="Helvetica,sans-Serif" font-size="10.00">src/d/d_tresure.cpp</text>
</a>
</g>
</g>
<!-- Node2&#45;&gt;Node88 -->
<g id="edge53" class="edge">
<title>Node2&#45;&gt;Node88</title>
<path fill="none" stroke="#63b8ff" d="M2671.22,-156.61C3010.22,-154.48 4533.7,-142.95 4741.5,-107 4754.04,-104.83 4767.56,-100.52 4778.49,-96.5"/>
<polygon fill="#63b8ff" stroke="#63b8ff" points="2671.39,-153.11 2661.41,-156.67 2671.44,-160.11 2671.39,-153.11"/>
</g>
<!-- Node2&#45;&gt;Node89 -->
<g id="edge56" class="edge">
<title>Node2&#45;&gt;Node89</title>
<path fill="none" stroke="#63b8ff" d="M2671.05,-156.76C3048.05,-155.27 4907.54,-145.96 5159.5,-107 5167.06,-105.83 5174.96,-104.03 5182.56,-101.98"/>
<polygon fill="#63b8ff" stroke="#63b8ff" points="2671.32,-153.26 2661.33,-156.8 2671.35,-160.26 2671.32,-153.26"/>
</g>
<!-- Node2&#45;&gt;Node90 -->
<g id="edge57" class="edge">
<title>Node2&#45;&gt;Node90</title>
<path fill="none" stroke="#63b8ff" d="M2671.24,-156.93C3059.77,-156.39 5021.87,-151.46 5286.5,-107 5293.41,-105.84 5300.62,-104.04 5307.54,-101.99"/>
<polygon fill="#63b8ff" stroke="#63b8ff" points="2671.45,-153.43 2661.46,-156.95 2671.46,-160.43 2671.45,-153.43"/>
</g>
<!-- Node15&#45;&gt;Node12 -->
<g id="edge5" class="edge">
<title>Node15&#45;&gt;Node12</title>
<path fill="none" stroke="#63b8ff" d="M722.51,-65.71C719.81,-52.29 716.37,-35.2 714.3,-24.95"/>
<polygon fill="#63b8ff" stroke="#63b8ff" points="719.02,-66.1 724.43,-75.21 725.88,-64.72 719.02,-66.1"/>
</g>
<!-- Node15&#45;&gt;Node16 -->
<g id="edge6" class="edge">
<title>Node15&#45;&gt;Node16</title>
<path fill="none" stroke="#63b8ff" d="M751.71,-71.02C775.89,-57.13 811.62,-36.61 831.92,-24.95"/>
<polygon fill="#63b8ff" stroke="#63b8ff" points="750.07,-67.93 743.14,-75.94 753.55,-74 750.07,-67.93"/>
</g>
<!-- Node15&#45;&gt;Node17 -->
<g id="edge7" class="edge">
<title>Node15&#45;&gt;Node17</title>
<path fill="none" stroke="#63b8ff" d="M773.57,-74.09C788.78,-70.88 805.77,-67.78 821.5,-66 1264.72,-15.98 2710.53,-15.45 3009.22,-15.88"/>
<polygon fill="#63b8ff" stroke="#63b8ff" points="772.84,-70.67 763.82,-76.23 774.34,-77.51 772.84,-70.67"/>
</g>
<!-- Node40&#45;&gt;Node12 -->
<g id="edge15" class="edge">
<title>Node40&#45;&gt;Node12</title>
<path fill="none" stroke="#63b8ff" d="M373.99,-75.77C442.85,-65.43 553.48,-48.11 648.5,-30 656.43,-28.49 664.89,-26.74 672.97,-25"/>
<polygon fill="#63b8ff" stroke="#63b8ff" points="373.75,-72.26 364.38,-77.2 374.79,-79.18 373.75,-72.26"/>
</g>
<!-- Node40&#45;&gt;Node45 -->
<g id="edge16" class="edge">
<title>Node40&#45;&gt;Node45</title>
<path fill="none" stroke="#63b8ff" d="M272.53,-65.42C249.2,-52.01 219.65,-35.04 201.96,-24.88"/>
<polygon fill="#63b8ff" stroke="#63b8ff" points="270.7,-68.4 281.12,-70.35 274.19,-62.33 270.7,-68.4"/>
</g>
<!-- Node40&#45;&gt;Node46 -->
<g id="edge17" class="edge">
<title>Node40&#45;&gt;Node46</title>
<path fill="none" stroke="#63b8ff" d="M244.98,-67.91C196.3,-54.21 130.76,-35.77 92.33,-24.96"/>
<polygon fill="#63b8ff" stroke="#63b8ff" points="243.99,-71.27 254.56,-70.61 245.89,-64.53 243.99,-71.27"/>
</g>
<!-- Node40&#45;&gt;Node47 -->
<g id="edge18" class="edge">
<title>Node40&#45;&gt;Node47</title>
<path fill="none" stroke="#63b8ff" d="M306.02,-59.76C305.45,-49.83 304.82,-38.86 304.33,-30.38"/>
<polygon fill="#63b8ff" stroke="#63b8ff" points="302.52,-59.81 306.58,-69.59 309.5,-59.4 302.52,-59.81"/>
</g>
<!-- Node40&#45;&gt;Node48 -->
<g id="edge19" class="edge">
<title>Node40&#45;&gt;Node48</title>
<path fill="none" stroke="#63b8ff" d="M345.24,-65.78C371,-52.32 403.89,-35.13 423.51,-24.88"/>
<polygon fill="#63b8ff" stroke="#63b8ff" points="343.64,-62.67 336.4,-70.4 346.88,-68.87 343.64,-62.67"/>
</g>
<!-- Node66&#45;&gt;Node12 -->
<g id="edge26" class="edge">
<title>Node66&#45;&gt;Node12</title>
<path fill="none" stroke="#63b8ff" d="M605.36,-66.31C634.18,-52.78 671.47,-35.27 693.59,-24.88"/>
<polygon fill="#63b8ff" stroke="#63b8ff" points="604.1,-63.04 596.54,-70.46 607.08,-69.37 604.1,-63.04"/>
</g>
<!-- Node66&#45;&gt;Node67 -->
<g id="edge27" class="edge">
<title>Node66&#45;&gt;Node67</title>
<path fill="none" stroke="#63b8ff" d="M571.11,-59.96C574.32,-47.57 577.97,-33.49 580.25,-24.68"/>
<polygon fill="#63b8ff" stroke="#63b8ff" points="567.73,-59.08 568.61,-69.63 574.5,-60.83 567.73,-59.08"/>
</g>
<!-- Node108&#45;&gt;Node2 -->
<g id="edge60" class="edge">
<title>Node108&#45;&gt;Node2</title>
<path fill="none" stroke="#63b8ff" d="M2604.5,-197.51C2604.5,-189.49 2604.5,-180.43 2604.5,-173.11"/>
<polygon fill="#63b8ff" stroke="#63b8ff" points="2601,-197.35 2604.5,-207.35 2608,-197.35 2601,-197.35"/>
</g>
<!-- Node108&#45;&gt;Node46 -->
<g id="edge61" class="edge">
<title>Node108&#45;&gt;Node46</title>
<path fill="none" stroke="#63b8ff" d="M2529.07,-216.04C2124.92,-207.97 230.16,-167.02 122.5,-107 89.27,-88.47 70.24,-43.76 63.41,-24.77"/>
<polygon fill="#63b8ff" stroke="#63b8ff" points="2528.72,-219.53 2538.79,-216.23 2528.86,-212.53 2528.72,-219.53"/>
</g>
</g>
</svg>
