<?xml version="1.0" encoding="UTF-8" standalone="no"?>
<!DOCTYPE svg PUBLIC "-//W3C//DTD SVG 1.1//EN"
 "http://www.w3.org/Graphics/SVG/1.1/DTD/svg11.dtd">
<!-- Generated by graphviz version 7.0.4 (20221203.1631)
 -->
<!-- Title: include/d/event/d_event.h Pages: 1 -->
<svg width="5441pt" height="236pt"
 viewBox="0.00 0.00 5441.00 236.00" xmlns="http://www.w3.org/2000/svg" xmlns:xlink="http://www.w3.org/1999/xlink">
<g id="graph0" class="graph" transform="scale(1 1) rotate(0) translate(4 232)">
<title>include/d/event/d_event.h</title>
<!-- Node1 -->
<g id="node1" class="node">
<title>Node1</title>
<g id="a_node1"><a xlink:title=" ">
<polygon fill="#999999" stroke="#666666" points="1274.5,-228 1146.5,-228 1146.5,-209 1274.5,-209 1274.5,-228"/>
<text text-anchor="middle" x="1210.5" y="-216" font-family="Helvetica,sans-Serif" font-size="10.00">include/d/event/d_event.h</text>
</a>
</g>
</g>
<!-- Node2 -->
<g id="node2" class="node">
<title>Node2</title>
<g id="a_node2"><a xlink:href="d__com__inf__game_8h.html" target="_top" xlink:title=" ">
<polygon fill="#fff0f0" stroke="red" points="2415.5,-173 2305.5,-173 2305.5,-143 2415.5,-143 2415.5,-173"/>
<text text-anchor="start" x="2313.5" y="-161" font-family="Helvetica,sans-Serif" font-size="10.00">include/d/com/d_com</text>
<text text-anchor="middle" x="2360.5" y="-150" font-family="Helvetica,sans-Serif" font-size="10.00">_inf_game.h</text>
</a>
</g>
</g>
<!-- Node1&#45;&gt;Node2 -->
<g id="edge1" class="edge">
<title>Node1&#45;&gt;Node2</title>
<path fill="none" stroke="#63b8ff" d="M1285.98,-213.66C1501.65,-202.69 2117.14,-171.38 2305.23,-161.81"/>
<polygon fill="#63b8ff" stroke="#63b8ff" points="1286.11,-210.15 1276.3,-214.15 1286.47,-217.14 1286.11,-210.15"/>
</g>
<!-- Node46 -->
<g id="node17" class="node">
<title>Node46</title>
<g id="a_node17"><a xlink:href="d__event_8cpp.html" target="_top" xlink:title=" ">
<polygon fill="white" stroke="#666666" points="121,-24.5 0,-24.5 0,-5.5 121,-5.5 121,-24.5"/>
<text text-anchor="middle" x="60.5" y="-12.5" font-family="Helvetica,sans-Serif" font-size="10.00">src/d/event/d_event.cpp</text>
</a>
</g>
</g>
<!-- Node1&#45;&gt;Node46 -->
<g id="edge60" class="edge">
<title>Node1&#45;&gt;Node46</title>
<path fill="none" stroke="#63b8ff" d="M1134.88,-215.31C893.93,-207.62 155.42,-178.38 77.5,-107 54.15,-85.61 56.67,-43.25 59.07,-24.86"/>
<polygon fill="#63b8ff" stroke="#63b8ff" points="1134.7,-218.8 1144.8,-215.62 1134.92,-211.81 1134.7,-218.8"/>
</g>
<!-- Node3 -->
<g id="node3" class="node">
<title>Node3</title>
<g id="a_node3"><a xlink:href="d__a__npc_8h.html" target="_top" xlink:title=" ">
<polygon fill="#fff0f0" stroke="red" points="5433,-96 5322,-96 5322,-77 5433,-77 5433,-96"/>
<text text-anchor="middle" x="5377.5" y="-84" font-family="Helvetica,sans-Serif" font-size="10.00">include/d/a/d_a_npc.h</text>
</a>
</g>
</g>
<!-- Node2&#45;&gt;Node3 -->
<g id="edge2" class="edge">
<title>Node2&#45;&gt;Node3</title>
<path fill="none" stroke="#63b8ff" d="M2427.26,-156.97C2838.43,-156.62 5019.1,-152.6 5312.5,-107 5326.35,-104.85 5341.37,-100.48 5353.48,-96.43"/>
<polygon fill="#63b8ff" stroke="#63b8ff" points="2427.41,-153.47 2417.41,-156.97 2427.41,-160.47 2427.41,-153.47"/>
</g>
<!-- Node9 -->
<g id="node4" class="node">
<title>Node9</title>
<g id="a_node4"><a xlink:href="d__cc__uty_8h.html" target="_top" xlink:title=" ">
<polygon fill="#fff0f0" stroke="red" points="246,-96 127,-96 127,-77 246,-77 246,-96"/>
<text text-anchor="middle" x="186.5" y="-84" font-family="Helvetica,sans-Serif" font-size="10.00">include/d/cc/d_cc_uty.h</text>
</a>
</g>
</g>
<!-- Node2&#45;&gt;Node9 -->
<g id="edge3" class="edge">
<title>Node2&#45;&gt;Node9</title>
<path fill="none" stroke="#63b8ff" d="M2293.63,-156.34C1958.04,-152.89 465.41,-136.03 260.5,-107 244.98,-104.8 228.04,-100.49 214.3,-96.47"/>
<polygon fill="#63b8ff" stroke="#63b8ff" points="2293.53,-159.84 2303.56,-156.44 2293.6,-152.84 2293.53,-159.84"/>
</g>
<!-- Node15 -->
<g id="node5" class="node">
<title>Node15</title>
<g id="a_node5"><a xlink:href="d__item_8h.html" target="_top" xlink:title=" ">
<polygon fill="#fff0f0" stroke="red" points="850,-96 755,-96 755,-77 850,-77 850,-96"/>
<text text-anchor="middle" x="802.5" y="-84" font-family="Helvetica,sans-Serif" font-size="10.00">include/d/d_item.h</text>
</a>
</g>
</g>
<!-- Node2&#45;&gt;Node15 -->
<g id="edge4" class="edge">
<title>Node2&#45;&gt;Node15</title>
<path fill="none" stroke="#63b8ff" d="M2294.24,-157.17C2042.48,-157.44 1145.32,-154.94 864.5,-107 851.38,-104.76 837.18,-100.44 825.68,-96.44"/>
<polygon fill="#63b8ff" stroke="#63b8ff" points="2293.88,-160.67 2303.87,-157.16 2293.87,-153.67 2293.88,-160.67"/>
</g>
<!-- Node12 -->
<g id="node6" class="node">
<title>Node12</title>
<g id="a_node6"><a xlink:href="d__a__alink_8cpp.html" target="_top" xlink:title=" ">
<polygon fill="white" stroke="#666666" points="635,-24.5 526,-24.5 526,-5.5 635,-5.5 635,-24.5"/>
<text text-anchor="middle" x="580.5" y="-12.5" font-family="Helvetica,sans-Serif" font-size="10.00">src/d/a/d_a_alink.cpp</text>
</a>
</g>
</g>
<!-- Node2&#45;&gt;Node12 -->
<g id="edge31" class="edge">
<title>Node2&#45;&gt;Node12</title>
<path fill="none" stroke="#63b8ff" d="M2294.37,-156.44C1970.6,-153.54 566.78,-139.15 535.5,-107 511.53,-82.37 550.19,-42.46 569.97,-24.84"/>
<polygon fill="#63b8ff" stroke="#63b8ff" points="2293.89,-159.94 2303.92,-156.52 2293.95,-152.94 2293.89,-159.94"/>
</g>
<!-- Node16 -->
<g id="node7" class="node">
<title>Node16</title>
<g id="a_node7"><a xlink:href="d__a__obj__item_8cpp.html" target="_top" xlink:title=" ">
<polygon fill="white" stroke="#666666" points="911,-24.5 786,-24.5 786,-5.5 911,-5.5 911,-24.5"/>
<text text-anchor="middle" x="848.5" y="-12.5" font-family="Helvetica,sans-Serif" font-size="10.00">src/d/a/d_a_obj_item.cpp</text>
</a>
</g>
</g>
<!-- Node2&#45;&gt;Node16 -->
<g id="edge34" class="edge">
<title>Node2&#45;&gt;Node16</title>
<path fill="none" stroke="#63b8ff" d="M2293.9,-156.19C1993.01,-152.38 773.86,-135.22 746.5,-107 733.82,-93.92 736.86,-81.46 746.5,-66 759.86,-44.58 785.36,-32.08 807.52,-24.93"/>
<polygon fill="#63b8ff" stroke="#63b8ff" points="2293.5,-159.69 2303.54,-156.31 2293.58,-152.69 2293.5,-159.69"/>
</g>
<!-- Node17 -->
<g id="node8" class="node">
<title>Node17</title>
<g id="a_node8"><a xlink:href="d__com__inf__game_8cpp.html" target="_top" xlink:title=" ">
<polygon fill="white" stroke="#666666" points="1037.5,-30 929.5,-30 929.5,0 1037.5,0 1037.5,-30"/>
<text text-anchor="start" x="937.5" y="-18" font-family="Helvetica,sans-Serif" font-size="10.00">src/d/com/d_com_inf</text>
<text text-anchor="middle" x="983.5" y="-7" font-family="Helvetica,sans-Serif" font-size="10.00">_game.cpp</text>
</a>
</g>
</g>
<!-- Node2&#45;&gt;Node17 -->
<g id="edge40" class="edge">
<title>Node2&#45;&gt;Node17</title>
<path fill="none" stroke="#63b8ff" d="M2294.16,-157.27C2014.95,-158.06 947.57,-157.77 898.5,-107 885.84,-93.9 889.45,-81.82 898.5,-66 907.85,-49.65 924.86,-38.12 941.22,-30.29"/>
<polygon fill="#63b8ff" stroke="#63b8ff" points="2293.8,-160.77 2303.79,-157.24 2293.78,-153.77 2293.8,-160.77"/>
</g>
<!-- Node20 -->
<g id="node9" class="node">
<title>Node20</title>
<g id="a_node9"><a xlink:href="d__kantera__icon__meter_8h.html" target="_top" xlink:title=" ">
<polygon fill="#fff0f0" stroke="red" points="1008,-101.5 907,-101.5 907,-71.5 1008,-71.5 1008,-101.5"/>
<text text-anchor="start" x="915" y="-89.5" font-family="Helvetica,sans-Serif" font-size="10.00">include/d/d_kantera</text>
<text text-anchor="middle" x="957.5" y="-78.5" font-family="Helvetica,sans-Serif" font-size="10.00">_icon_meter.h</text>
</a>
</g>
</g>
<!-- Node2&#45;&gt;Node20 -->
<g id="edge8" class="edge">
<title>Node2&#45;&gt;Node20</title>
<path fill="none" stroke="#63b8ff" d="M2293.72,-156.95C2058.14,-156.41 1266.71,-151.25 1017.5,-107 1010.71,-105.79 1003.62,-104 996.8,-101.98"/>
<polygon fill="#63b8ff" stroke="#63b8ff" points="2293.65,-160.45 2303.66,-156.97 2293.67,-153.45 2293.65,-160.45"/>
</g>
<!-- Node23 -->
<g id="node10" class="node">
<title>Node23</title>
<g id="a_node10"><a xlink:href="d__model_8h.html" target="_top" xlink:title=" ">
<polygon fill="#fff0f0" stroke="red" points="1129,-96 1026,-96 1026,-77 1129,-77 1129,-96"/>
<text text-anchor="middle" x="1077.5" y="-84" font-family="Helvetica,sans-Serif" font-size="10.00">include/d/d_model.h</text>
</a>
</g>
</g>
<!-- Node2&#45;&gt;Node23 -->
<g id="edge9" class="edge">
<title>Node2&#45;&gt;Node23</title>
<path fill="none" stroke="#63b8ff" d="M2293.89,-156.62C2072.6,-155.01 1363.29,-146.78 1138.5,-107 1125.69,-104.73 1111.85,-100.47 1100.59,-96.5"/>
<polygon fill="#63b8ff" stroke="#63b8ff" points="2293.75,-160.12 2303.78,-156.69 2293.8,-153.12 2293.75,-160.12"/>
</g>
<!-- Node25 -->
<g id="node11" class="node">
<title>Node25</title>
<g id="a_node11"><a xlink:href="d__name_8h.html" target="_top" xlink:title=" ">
<polygon fill="#fff0f0" stroke="red" points="1248,-96 1147,-96 1147,-77 1248,-77 1248,-96"/>
<text text-anchor="middle" x="1197.5" y="-84" font-family="Helvetica,sans-Serif" font-size="10.00">include/d/d_name.h</text>
</a>
</g>
</g>
<!-- Node2&#45;&gt;Node25 -->
<g id="edge10" class="edge">
<title>Node2&#45;&gt;Node25</title>
<path fill="none" stroke="#63b8ff" d="M2293.81,-156.32C2086.95,-153.85 1458.1,-143.46 1257.5,-107 1244.89,-104.71 1231.28,-100.44 1220.21,-96.48"/>
<polygon fill="#63b8ff" stroke="#63b8ff" points="2293.53,-159.82 2303.57,-156.44 2293.61,-152.82 2293.53,-159.82"/>
</g>
<!-- Node27 -->
<g id="node12" class="node">
<title>Node27</title>
<g id="a_node12"><a xlink:href="d__file__sel__info_8h.html" target="_top" xlink:title=" ">
<polygon fill="#fff0f0" stroke="red" points="1362.5,-101.5 1266.5,-101.5 1266.5,-71.5 1362.5,-71.5 1362.5,-101.5"/>
<text text-anchor="start" x="1274.5" y="-89.5" font-family="Helvetica,sans-Serif" font-size="10.00">include/d/file/d_file</text>
<text text-anchor="middle" x="1314.5" y="-78.5" font-family="Helvetica,sans-Serif" font-size="10.00">_sel_info.h</text>
</a>
</g>
</g>
<!-- Node2&#45;&gt;Node27 -->
<g id="edge11" class="edge">
<title>Node2&#45;&gt;Node27</title>
<path fill="none" stroke="#63b8ff" d="M2293.91,-156.05C2101.8,-152.92 1548.94,-141.14 1371.5,-107 1365.03,-105.76 1358.29,-103.94 1351.81,-101.92"/>
<polygon fill="#63b8ff" stroke="#63b8ff" points="2293.66,-159.55 2303.72,-156.21 2293.77,-152.55 2293.66,-159.55"/>
</g>
<!-- Node30 -->
<g id="node13" class="node">
<title>Node30</title>
<g id="a_node13"><a xlink:href="d__file__sel__warning_8h.html" target="_top" xlink:title=" ">
<polygon fill="#fff0f0" stroke="red" points="1476.5,-101.5 1380.5,-101.5 1380.5,-71.5 1476.5,-71.5 1476.5,-101.5"/>
<text text-anchor="start" x="1388.5" y="-89.5" font-family="Helvetica,sans-Serif" font-size="10.00">include/d/file/d_file</text>
<text text-anchor="middle" x="1428.5" y="-78.5" font-family="Helvetica,sans-Serif" font-size="10.00">_sel_warning.h</text>
</a>
</g>
</g>
<!-- Node2&#45;&gt;Node30 -->
<g id="edge12" class="edge">
<title>Node2&#45;&gt;Node30</title>
<path fill="none" stroke="#63b8ff" d="M2293.84,-155.54C2117.21,-151.29 1640.12,-137.27 1485.5,-107 1479.14,-105.75 1472.51,-103.97 1466.13,-101.98"/>
<polygon fill="#63b8ff" stroke="#63b8ff" points="2293.69,-159.03 2303.77,-155.77 2293.85,-152.04 2293.69,-159.03"/>
</g>
<!-- Node32 -->
<g id="node14" class="node">
<title>Node32</title>
<g id="a_node14"><a xlink:href="d__meter2_8h.html" target="_top" xlink:title=" ">
<polygon fill="#fff0f0" stroke="red" points="1628.5,-96 1494.5,-96 1494.5,-77 1628.5,-77 1628.5,-96"/>
<text text-anchor="middle" x="1561.5" y="-84" font-family="Helvetica,sans-Serif" font-size="10.00">include/d/meter/d_meter2.h</text>
</a>
</g>
</g>
<!-- Node2&#45;&gt;Node32 -->
<g id="edge13" class="edge">
<title>Node2&#45;&gt;Node32</title>
<path fill="none" stroke="#63b8ff" d="M2293.82,-156.36C2165.93,-154.24 1877.63,-145.24 1638.5,-107 1622.84,-104.5 1605.71,-100.31 1591.59,-96.45"/>
<polygon fill="#63b8ff" stroke="#63b8ff" points="2293.76,-159.85 2303.81,-156.51 2293.86,-152.86 2293.76,-159.85"/>
</g>
<!-- Node40 -->
<g id="node15" class="node">
<title>Node40</title>
<g id="a_node15"><a xlink:href="d__msg__object_8h.html" target="_top" xlink:title=" ">
<polygon fill="#fff0f0" stroke="red" points="412.5,-101.5 302.5,-101.5 302.5,-71.5 412.5,-71.5 412.5,-101.5"/>
<text text-anchor="start" x="310.5" y="-89.5" font-family="Helvetica,sans-Serif" font-size="10.00">include/d/msg/d_msg</text>
<text text-anchor="middle" x="357.5" y="-78.5" font-family="Helvetica,sans-Serif" font-size="10.00">_object.h</text>
</a>
</g>
</g>
<!-- Node2&#45;&gt;Node40 -->
<g id="edge14" class="edge">
<title>Node2&#45;&gt;Node40</title>
<path fill="none" stroke="#63b8ff" d="M2294.08,-156.27C1975.75,-152.62 613.98,-135.46 426.5,-107 418.62,-105.8 410.37,-103.99 402.43,-101.94"/>
<polygon fill="#63b8ff" stroke="#63b8ff" points="2293.84,-159.76 2303.88,-156.38 2293.92,-152.76 2293.84,-159.76"/>
</g>
<!-- Node45 -->
<g id="node16" class="node">
<title>Node45</title>
<g id="a_node16"><a xlink:href="d__demo_8cpp.html" target="_top" xlink:title=" ">
<polygon fill="white" stroke="#666666" points="233.5,-24.5 139.5,-24.5 139.5,-5.5 233.5,-5.5 233.5,-24.5"/>
<text text-anchor="middle" x="186.5" y="-12.5" font-family="Helvetica,sans-Serif" font-size="10.00">src/d/d_demo.cpp</text>
</a>
</g>
</g>
<!-- Node2&#45;&gt;Node45 -->
<g id="edge45" class="edge">
<title>Node2&#45;&gt;Node45</title>
<path fill="none" stroke="#63b8ff" d="M2293.59,-156.82C1948.99,-155.71 386.89,-148.4 293.5,-107 270.51,-96.81 273.37,-82.62 254.5,-66 236.69,-50.31 214.19,-34.45 200.07,-24.93"/>
<polygon fill="#63b8ff" stroke="#63b8ff" points="2293.57,-160.32 2303.58,-156.85 2293.59,-153.32 2293.57,-160.32"/>
</g>
<!-- Node2&#45;&gt;Node46 -->
<g id="edge54" class="edge">
<title>Node2&#45;&gt;Node46</title>
<path fill="none" stroke="#63b8ff" d="M2293.92,-157.29C1932.04,-158.63 214.42,-162.07 117.5,-107 85.25,-88.67 68.69,-43.85 62.92,-24.8"/>
<polygon fill="#63b8ff" stroke="#63b8ff" points="2293.72,-160.79 2303.71,-157.25 2293.69,-153.79 2293.72,-160.79"/>
</g>
<!-- Node47 -->
<g id="node18" class="node">
<title>Node47</title>
<g id="a_node18"><a xlink:href="d__event__data_8cpp.html" target="_top" xlink:title=" ">
<polygon fill="white" stroke="#666666" points="355,-30 252,-30 252,0 355,0 355,-30"/>
<text text-anchor="start" x="260" y="-18" font-family="Helvetica,sans-Serif" font-size="10.00">src/d/event/d_event</text>
<text text-anchor="middle" x="303.5" y="-7" font-family="Helvetica,sans-Serif" font-size="10.00">_data.cpp</text>
</a>
</g>
</g>
<!-- Node2&#45;&gt;Node47 -->
<g id="edge55" class="edge">
<title>Node2&#45;&gt;Node47</title>
<path fill="none" stroke="#63b8ff" d="M2294.24,-156.45C1969.54,-153.61 558.52,-139.42 471.5,-107 444.57,-96.97 446.09,-80.87 421.5,-66 397.61,-51.55 368.78,-39.25 345.6,-30.47"/>
<polygon fill="#63b8ff" stroke="#63b8ff" points="2293.78,-159.95 2303.81,-156.53 2293.84,-152.95 2293.78,-159.95"/>
</g>
<!-- Node48 -->
<g id="node19" class="node">
<title>Node48</title>
<g id="a_node19"><a xlink:href="d__kankyo_8cpp.html" target="_top" xlink:title=" ">
<polygon fill="white" stroke="#666666" points="507.5,-24.5 373.5,-24.5 373.5,-5.5 507.5,-5.5 507.5,-24.5"/>
<text text-anchor="middle" x="440.5" y="-12.5" font-family="Helvetica,sans-Serif" font-size="10.00">src/d/kankyo/d_kankyo.cpp</text>
</a>
</g>
</g>
<!-- Node2&#45;&gt;Node48 -->
<g id="edge58" class="edge">
<title>Node2&#45;&gt;Node48</title>
<path fill="none" stroke="#63b8ff" d="M2293.97,-156.63C1974.11,-154.69 606.5,-144.24 524.5,-107 485.54,-89.31 456.39,-44.13 445.34,-24.89"/>
<polygon fill="#63b8ff" stroke="#63b8ff" points="2293.81,-160.13 2303.83,-156.69 2293.85,-153.13 2293.81,-160.13"/>
</g>
<!-- Node54 -->
<g id="node20" class="node">
<title>Node54</title>
<g id="a_node20"><a xlink:href="d__s__logo_8h.html" target="_top" xlink:title=" ">
<polygon fill="#fff0f0" stroke="red" points="1760,-96 1647,-96 1647,-77 1760,-77 1760,-96"/>
<text text-anchor="middle" x="1703.5" y="-84" font-family="Helvetica,sans-Serif" font-size="10.00">include/d/s/d_s_logo.h</text>
</a>
</g>
</g>
<!-- Node2&#45;&gt;Node54 -->
<g id="edge20" class="edge">
<title>Node2&#45;&gt;Node54</title>
<path fill="none" stroke="#63b8ff" d="M2294.18,-155.76C2184.23,-152.74 1957.65,-142.37 1769.5,-107 1756,-104.46 1741.31,-100.27 1729.22,-96.42"/>
<polygon fill="#63b8ff" stroke="#63b8ff" points="2293.81,-159.25 2303.9,-156.02 2293.99,-152.26 2293.81,-159.25"/>
</g>
<!-- Node56 -->
<g id="node21" class="node">
<title>Node56</title>
<g id="a_node21"><a xlink:href="d__s__play_8h.html" target="_top" xlink:title=" ">
<polygon fill="#fff0f0" stroke="red" points="1891,-96 1778,-96 1778,-77 1891,-77 1891,-96"/>
<text text-anchor="middle" x="1834.5" y="-84" font-family="Helvetica,sans-Serif" font-size="10.00">include/d/s/d_s_play.h</text>
</a>
</g>
</g>
<!-- Node2&#45;&gt;Node56 -->
<g id="edge21" class="edge">
<title>Node2&#45;&gt;Node56</title>
<path fill="none" stroke="#63b8ff" d="M2293.74,-153.5C2203.73,-147.93 2038.78,-134.71 1900.5,-107 1887.26,-104.35 1872.85,-100.24 1860.88,-96.47"/>
<polygon fill="#63b8ff" stroke="#63b8ff" points="2293.43,-156.99 2303.63,-154.1 2293.86,-150 2293.43,-156.99"/>
</g>
<!-- Node60 -->
<g id="node22" class="node">
<title>Node60</title>
<g id="a_node22"><a xlink:href="d__msg__scrn__base_8h.html" target="_top" xlink:title=" ">
<polygon fill="#fff0f0" stroke="red" points="2008,-101.5 1909,-101.5 1909,-71.5 2008,-71.5 2008,-101.5"/>
<text text-anchor="start" x="1917" y="-89.5" font-family="Helvetica,sans-Serif" font-size="10.00">include/msg/scrn/d</text>
<text text-anchor="middle" x="1958.5" y="-78.5" font-family="Helvetica,sans-Serif" font-size="10.00">_msg_scrn_base.h</text>
</a>
</g>
</g>
<!-- Node2&#45;&gt;Node60 -->
<g id="edge22" class="edge">
<title>Node2&#45;&gt;Node60</title>
<path fill="none" stroke="#63b8ff" d="M2294.08,-150.79C2224.51,-143.48 2112.37,-129.41 2017.5,-107 2011.52,-105.59 2005.27,-103.84 1999.18,-101.97"/>
<polygon fill="#63b8ff" stroke="#63b8ff" points="2293.48,-154.25 2303.79,-151.79 2294.2,-147.28 2293.48,-154.25"/>
</g>
<!-- Node64 -->
<g id="node23" class="node">
<title>Node64</title>
<g id="a_node23"><a xlink:href="d__a__b__zant_8h.html" target="_top" xlink:title=" ">
<polygon fill="white" stroke="#666666" points="2147,-101.5 2026,-101.5 2026,-71.5 2147,-71.5 2147,-101.5"/>
<text text-anchor="start" x="2034" y="-89.5" font-family="Helvetica,sans-Serif" font-size="10.00">include/rel/d/a/b/d</text>
<text text-anchor="middle" x="2086.5" y="-78.5" font-family="Helvetica,sans-Serif" font-size="10.00">_a_b_zant/d_a_b_zant.h</text>
</a>
</g>
</g>
<!-- Node2&#45;&gt;Node64 -->
<g id="edge23" class="edge">
<title>Node2&#45;&gt;Node64</title>
<path fill="none" stroke="#63b8ff" d="M2294.45,-141.37C2254.45,-131.76 2202.45,-119.03 2156.5,-107 2150.4,-105.4 2144.01,-103.69 2137.68,-101.96"/>
<polygon fill="#63b8ff" stroke="#63b8ff" points="2293.39,-144.71 2303.93,-143.64 2295.02,-137.9 2293.39,-144.71"/>
</g>
<!-- Node65 -->
<g id="node24" class="node">
<title>Node65</title>
<g id="a_node24"><a xlink:href="d__a__skip__2D_8h.html" target="_top" xlink:title=" ">
<polygon fill="white" stroke="#666666" points="2289.5,-101.5 2165.5,-101.5 2165.5,-71.5 2289.5,-71.5 2289.5,-101.5"/>
<text text-anchor="start" x="2173.5" y="-89.5" font-family="Helvetica,sans-Serif" font-size="10.00">include/rel/d/a/d_a</text>
<text text-anchor="middle" x="2227.5" y="-78.5" font-family="Helvetica,sans-Serif" font-size="10.00">_skip_2D/d_a_skip_2D.h</text>
</a>
</g>
</g>
<!-- Node2&#45;&gt;Node65 -->
<g id="edge24" class="edge">
<title>Node2&#45;&gt;Node65</title>
<path fill="none" stroke="#63b8ff" d="M2322.8,-137.3C2301.23,-126.03 2274.63,-112.13 2255.02,-101.88"/>
<polygon fill="#63b8ff" stroke="#63b8ff" points="2321.12,-140.37 2331.6,-141.9 2324.36,-134.17 2321.12,-140.37"/>
</g>
<!-- Node66 -->
<g id="node25" class="node">
<title>Node66</title>
<g id="a_node25"><a xlink:href="d__a__spinner_8h.html" target="_top" xlink:title=" ">
<polygon fill="white" stroke="#666666" points="660.5,-101.5 544.5,-101.5 544.5,-71.5 660.5,-71.5 660.5,-101.5"/>
<text text-anchor="start" x="552.5" y="-89.5" font-family="Helvetica,sans-Serif" font-size="10.00">include/rel/d/a/d_a</text>
<text text-anchor="middle" x="602.5" y="-78.5" font-family="Helvetica,sans-Serif" font-size="10.00">_spinner/d_a_spinner.h</text>
</a>
</g>
</g>
<!-- Node2&#45;&gt;Node66 -->
<g id="edge25" class="edge">
<title>Node2&#45;&gt;Node66</title>
<path fill="none" stroke="#63b8ff" d="M2294.17,-157.11C2022.64,-157.24 995.24,-154.51 674.5,-107 666.43,-105.8 657.97,-104.02 649.8,-102"/>
<polygon fill="#63b8ff" stroke="#63b8ff" points="2293.88,-160.61 2303.88,-157.1 2293.88,-153.61 2293.88,-160.61"/>
</g>
<!-- Node67 -->
<g id="node26" class="node">
<title>Node67</title>
<g id="a_node26"><a xlink:href="d__a__player_8cpp.html" target="_top" xlink:title=" ">
<polygon fill="white" stroke="#666666" points="767.5,-24.5 653.5,-24.5 653.5,-5.5 767.5,-5.5 767.5,-24.5"/>
<text text-anchor="middle" x="710.5" y="-12.5" font-family="Helvetica,sans-Serif" font-size="10.00">src/d/a/d_a_player.cpp</text>
</a>
</g>
</g>
<!-- Node2&#45;&gt;Node67 -->
<g id="edge35" class="edge">
<title>Node2&#45;&gt;Node67</title>
<path fill="none" stroke="#63b8ff" d="M2293.51,-157.18C1994.67,-157.67 795.18,-156.57 733.5,-107 708.35,-86.79 708.35,-43.4 709.63,-24.78"/>
<polygon fill="#63b8ff" stroke="#63b8ff" points="2293.49,-160.68 2303.49,-157.16 2293.48,-153.68 2293.49,-160.68"/>
</g>
<!-- Node68 -->
<g id="node27" class="node">
<title>Node68</title>
<g id="a_node27"><a xlink:href="d__a__obj__yobikusa_8h.html" target="_top" xlink:title=" ">
<polygon fill="white" stroke="#666666" points="2413,-107 2308,-107 2308,-66 2413,-66 2413,-107"/>
<text text-anchor="start" x="2316" y="-95" font-family="Helvetica,sans-Serif" font-size="10.00">include/rel/d/a/obj</text>
<text text-anchor="start" x="2316" y="-84" font-family="Helvetica,sans-Serif" font-size="10.00">/d_a_obj_yobikusa/d</text>
<text text-anchor="middle" x="2360.5" y="-73" font-family="Helvetica,sans-Serif" font-size="10.00">_a_obj_yobikusa.h</text>
</a>
</g>
</g>
<!-- Node2&#45;&gt;Node68 -->
<g id="edge28" class="edge">
<title>Node2&#45;&gt;Node68</title>
<path fill="none" stroke="#63b8ff" d="M2360.5,-131.36C2360.5,-123.45 2360.5,-114.87 2360.5,-107.42"/>
<polygon fill="#63b8ff" stroke="#63b8ff" points="2357,-131.09 2360.5,-141.09 2364,-131.09 2357,-131.09"/>
</g>
<!-- Node69 -->
<g id="node28" class="node">
<title>Node69</title>
<g id="a_node28"><a xlink:href="d__a__tag__telop_8h.html" target="_top" xlink:title=" ">
<polygon fill="white" stroke="#666666" points="2549.5,-107 2431.5,-107 2431.5,-66 2549.5,-66 2549.5,-107"/>
<text text-anchor="start" x="2439.5" y="-95" font-family="Helvetica,sans-Serif" font-size="10.00">include/rel/d/a/tag</text>
<text text-anchor="start" x="2439.5" y="-84" font-family="Helvetica,sans-Serif" font-size="10.00">/d_a_tag_telop/d_a_tag</text>
<text text-anchor="middle" x="2490.5" y="-73" font-family="Helvetica,sans-Serif" font-size="10.00">_telop.h</text>
</a>
</g>
</g>
<!-- Node2&#45;&gt;Node69 -->
<g id="edge29" class="edge">
<title>Node2&#45;&gt;Node69</title>
<path fill="none" stroke="#63b8ff" d="M2397.3,-137.33C2414.8,-127.97 2435.69,-116.8 2453.25,-107.42"/>
<polygon fill="#63b8ff" stroke="#63b8ff" points="2395.94,-134.08 2388.77,-141.89 2399.24,-140.26 2395.94,-134.08"/>
</g>
<!-- Node70 -->
<g id="node29" class="node">
<title>Node70</title>
<g id="a_node29"><a xlink:href="c__dylink_8cpp.html" target="_top" xlink:title=" ">
<polygon fill="white" stroke="#666666" points="2663,-96 2568,-96 2568,-77 2663,-77 2663,-96"/>
<text text-anchor="middle" x="2615.5" y="-84" font-family="Helvetica,sans-Serif" font-size="10.00">src/c/c_dylink.cpp</text>
</a>
</g>
</g>
<!-- Node2&#45;&gt;Node70 -->
<g id="edge30" class="edge">
<title>Node2&#45;&gt;Node70</title>
<path fill="none" stroke="#63b8ff" d="M2426.98,-141.66C2465.59,-132.39 2515.04,-119.9 2558.5,-107 2569.13,-103.85 2580.73,-99.96 2590.67,-96.49"/>
<polygon fill="#63b8ff" stroke="#63b8ff" points="2426.27,-138.23 2417.35,-143.95 2427.89,-145.04 2426.27,-138.23"/>
</g>
<!-- Node71 -->
<g id="node30" class="node">
<title>Node71</title>
<g id="a_node30"><a xlink:href="d__a__itembase_8cpp.html" target="_top" xlink:title=" ">
<polygon fill="white" stroke="#666666" points="2809.5,-96 2681.5,-96 2681.5,-77 2809.5,-77 2809.5,-96"/>
<text text-anchor="middle" x="2745.5" y="-84" font-family="Helvetica,sans-Serif" font-size="10.00">src/d/a/d_a_itembase.cpp</text>
</a>
</g>
</g>
<!-- Node2&#45;&gt;Node71 -->
<g id="edge32" class="edge">
<title>Node2&#45;&gt;Node71</title>
<path fill="none" stroke="#63b8ff" d="M2426.8,-148.38C2490.21,-139.66 2588.35,-124.93 2672.5,-107 2686.48,-104.02 2701.79,-100.04 2714.77,-96.46"/>
<polygon fill="#63b8ff" stroke="#63b8ff" points="2426.7,-144.86 2417.27,-149.68 2427.65,-151.79 2426.7,-144.86"/>
</g>
<!-- Node72 -->
<g id="node31" class="node">
<title>Node72</title>
<g id="a_node31"><a xlink:href="d__a__obj_8cpp.html" target="_top" xlink:title=" ">
<polygon fill="white" stroke="#666666" points="2929,-96 2828,-96 2828,-77 2929,-77 2929,-96"/>
<text text-anchor="middle" x="2878.5" y="-84" font-family="Helvetica,sans-Serif" font-size="10.00">src/d/a/d_a_obj.cpp</text>
</a>
</g>
</g>
<!-- Node2&#45;&gt;Node72 -->
<g id="edge33" class="edge">
<title>Node2&#45;&gt;Node72</title>
<path fill="none" stroke="#63b8ff" d="M2427.08,-154.02C2516.83,-149.04 2681.21,-136.48 2818.5,-107 2830.71,-104.38 2843.94,-100.23 2854.87,-96.42"/>
<polygon fill="#63b8ff" stroke="#63b8ff" points="2427.03,-150.52 2417.23,-154.55 2427.4,-157.51 2427.03,-150.52"/>
</g>
<!-- Node73 -->
<g id="node32" class="node">
<title>Node73</title>
<g id="a_node32"><a xlink:href="d__bg__s_8cpp.html" target="_top" xlink:title=" ">
<polygon fill="white" stroke="#666666" points="3051.5,-96 2947.5,-96 2947.5,-77 3051.5,-77 3051.5,-96"/>
<text text-anchor="middle" x="2999.5" y="-84" font-family="Helvetica,sans-Serif" font-size="10.00">src/d/bg/d_bg_s.cpp</text>
</a>
</g>
</g>
<!-- Node2&#45;&gt;Node73 -->
<g id="edge36" class="edge">
<title>Node2&#45;&gt;Node73</title>
<path fill="none" stroke="#63b8ff" d="M2427.04,-156.05C2535.29,-153.43 2755.79,-143.63 2938.5,-107 2951.04,-104.49 2964.62,-100.3 2975.78,-96.44"/>
<polygon fill="#63b8ff" stroke="#63b8ff" points="2427.1,-152.55 2417.18,-156.27 2427.25,-159.54 2427.1,-152.55"/>
</g>
<!-- Node74 -->
<g id="node33" class="node">
<title>Node74</title>
<g id="a_node33"><a xlink:href="d__bg__s__movebg__actor_8cpp.html" target="_top" xlink:title=" ">
<polygon fill="white" stroke="#666666" points="3195.5,-101.5 3069.5,-101.5 3069.5,-71.5 3195.5,-71.5 3195.5,-101.5"/>
<text text-anchor="start" x="3077.5" y="-89.5" font-family="Helvetica,sans-Serif" font-size="10.00">src/d/bg/d_bg_s_movebg</text>
<text text-anchor="middle" x="3132.5" y="-78.5" font-family="Helvetica,sans-Serif" font-size="10.00">_actor.cpp</text>
</a>
</g>
</g>
<!-- Node2&#45;&gt;Node74 -->
<g id="edge37" class="edge">
<title>Node2&#45;&gt;Node74</title>
<path fill="none" stroke="#63b8ff" d="M2427.09,-156.51C2552.12,-154.65 2830.15,-146.04 3060.5,-107 3068.29,-105.68 3076.45,-103.88 3084.37,-101.91"/>
<polygon fill="#63b8ff" stroke="#63b8ff" points="2427.3,-153.01 2417.35,-156.64 2427.4,-160.01 2427.3,-153.01"/>
</g>
<!-- Node75 -->
<g id="node34" class="node">
<title>Node75</title>
<g id="a_node34"><a xlink:href="d__bg__w_8cpp.html" target="_top" xlink:title=" ">
<polygon fill="white" stroke="#666666" points="3321,-96 3214,-96 3214,-77 3321,-77 3321,-96"/>
<text text-anchor="middle" x="3267.5" y="-84" font-family="Helvetica,sans-Serif" font-size="10.00">src/d/bg/d_bg_w.cpp</text>
</a>
</g>
</g>
<!-- Node2&#45;&gt;Node75 -->
<g id="edge38" class="edge">
<title>Node2&#45;&gt;Node75</title>
<path fill="none" stroke="#63b8ff" d="M2427.14,-155.13C2599.27,-149.95 3055.65,-134.04 3204.5,-107 3217.57,-104.63 3231.73,-100.4 3243.31,-96.49"/>
<polygon fill="#63b8ff" stroke="#63b8ff" points="2427.14,-151.62 2417.25,-155.42 2427.35,-158.62 2427.14,-151.62"/>
</g>
<!-- Node76 -->
<g id="node35" class="node">
<title>Node76</title>
<g id="a_node35"><a xlink:href="d__cc__s_8cpp.html" target="_top" xlink:title=" ">
<polygon fill="white" stroke="#666666" points="3443.5,-96 3339.5,-96 3339.5,-77 3443.5,-77 3443.5,-96"/>
<text text-anchor="middle" x="3391.5" y="-84" font-family="Helvetica,sans-Serif" font-size="10.00">src/d/cc/d_cc_s.cpp</text>
</a>
</g>
</g>
<!-- Node2&#45;&gt;Node76 -->
<g id="edge39" class="edge">
<title>Node2&#45;&gt;Node76</title>
<path fill="none" stroke="#63b8ff" d="M2427.38,-155.79C2617.18,-152.02 3156.64,-138.72 3330.5,-107 3343.3,-104.67 3357.14,-100.39 3368.4,-96.44"/>
<polygon fill="#63b8ff" stroke="#63b8ff" points="2427.37,-152.29 2417.44,-155.99 2427.51,-159.29 2427.37,-152.29"/>
</g>
<!-- Node77 -->
<g id="node36" class="node">
<title>Node77</title>
<g id="a_node36"><a xlink:href="d__com__static_8cpp.html" target="_top" xlink:title=" ">
<polygon fill="white" stroke="#666666" points="3601.5,-96 3461.5,-96 3461.5,-77 3601.5,-77 3601.5,-96"/>
<text text-anchor="middle" x="3531.5" y="-84" font-family="Helvetica,sans-Serif" font-size="10.00">src/d/com/d_com_static.cpp</text>
</a>
</g>
</g>
<!-- Node2&#45;&gt;Node77 -->
<g id="edge41" class="edge">
<title>Node2&#45;&gt;Node77</title>
<path fill="none" stroke="#63b8ff" d="M2427.44,-155.66C2632.98,-151.26 3253.06,-135.9 3452.5,-107 3468.86,-104.63 3486.76,-100.35 3501.39,-96.41"/>
<polygon fill="#63b8ff" stroke="#63b8ff" points="2427.39,-152.16 2417.46,-155.87 2427.53,-159.16 2427.39,-152.16"/>
</g>
<!-- Node78 -->
<g id="node37" class="node">
<title>Node78</title>
<g id="a_node37"><a xlink:href="d__attention_8cpp.html" target="_top" xlink:title=" ">
<polygon fill="white" stroke="#666666" points="3727,-96 3620,-96 3620,-77 3727,-77 3727,-96"/>
<text text-anchor="middle" x="3673.5" y="-84" font-family="Helvetica,sans-Serif" font-size="10.00">src/d/d_attention.cpp</text>
</a>
</g>
</g>
<!-- Node2&#45;&gt;Node78 -->
<g id="edge42" class="edge">
<title>Node2&#45;&gt;Node78</title>
<path fill="none" stroke="#63b8ff" d="M2427.13,-156.62C2651.73,-154.96 3379.85,-146.61 3610.5,-107 3623.7,-104.73 3638,-100.46 3649.63,-96.5"/>
<polygon fill="#63b8ff" stroke="#63b8ff" points="2427.36,-153.11 2417.39,-156.69 2427.41,-160.11 2427.36,-153.11"/>
</g>
<!-- Node79 -->
<g id="node38" class="node">
<title>Node79</title>
<g id="a_node38"><a xlink:href="d__cam__param_8cpp.html" target="_top" xlink:title=" ">
<polygon fill="white" stroke="#666666" points="3866,-96 3745,-96 3745,-77 3866,-77 3866,-96"/>
<text text-anchor="middle" x="3805.5" y="-84" font-family="Helvetica,sans-Serif" font-size="10.00">src/d/d_cam_param.cpp</text>
</a>
</g>
</g>
<!-- Node2&#45;&gt;Node79 -->
<g id="edge43" class="edge">
<title>Node2&#45;&gt;Node79</title>
<path fill="none" stroke="#63b8ff" d="M2427.28,-156.68C2666.47,-155.23 3479.76,-147.35 3736.5,-107 3751.01,-104.72 3766.8,-100.4 3779.62,-96.4"/>
<polygon fill="#63b8ff" stroke="#63b8ff" points="2427.49,-153.18 2417.51,-156.74 2427.53,-160.18 2427.49,-153.18"/>
</g>
<!-- Node80 -->
<g id="node39" class="node">
<title>Node80</title>
<g id="a_node39"><a xlink:href="d__camera_8cpp.html" target="_top" xlink:title=" ">
<polygon fill="white" stroke="#666666" points="3986.5,-96 3884.5,-96 3884.5,-77 3986.5,-77 3986.5,-96"/>
<text text-anchor="middle" x="3935.5" y="-84" font-family="Helvetica,sans-Serif" font-size="10.00">src/d/d_camera.cpp</text>
</a>
</g>
</g>
<!-- Node2&#45;&gt;Node80 -->
<g id="edge44" class="edge">
<title>Node2&#45;&gt;Node80</title>
<path fill="none" stroke="#63b8ff" d="M2427.18,-157.28C2681.6,-157.98 3591.18,-156.86 3875.5,-107 3888.23,-104.77 3901.97,-100.45 3913.09,-96.44"/>
<polygon fill="#63b8ff" stroke="#63b8ff" points="2427.45,-153.79 2417.44,-157.26 2427.43,-160.79 2427.45,-153.79"/>
</g>
<!-- Node81 -->
<g id="node40" class="node">
<title>Node81</title>
<g id="a_node40"><a xlink:href="d__eye__hl_8cpp.html" target="_top" xlink:title=" ">
<polygon fill="white" stroke="#666666" points="4102.5,-96 4004.5,-96 4004.5,-77 4102.5,-77 4102.5,-96"/>
<text text-anchor="middle" x="4053.5" y="-84" font-family="Helvetica,sans-Serif" font-size="10.00">src/d/d_eye_hl.cpp</text>
</a>
</g>
</g>
<!-- Node2&#45;&gt;Node81 -->
<g id="edge46" class="edge">
<title>Node2&#45;&gt;Node81</title>
<path fill="none" stroke="#63b8ff" d="M2427.1,-156.12C2714.34,-152.15 3839.64,-134.95 3995.5,-107 4007.84,-104.79 4021.13,-100.47 4031.86,-96.46"/>
<polygon fill="#63b8ff" stroke="#63b8ff" points="2427.11,-152.62 2417.16,-156.25 2427.21,-159.62 2427.11,-152.62"/>
</g>
<!-- Node82 -->
<g id="node41" class="node">
<title>Node82</title>
<g id="a_node41"><a xlink:href="d__kyeff_8cpp.html" target="_top" xlink:title=" ">
<polygon fill="white" stroke="#666666" points="4210.5,-96 4120.5,-96 4120.5,-77 4210.5,-77 4210.5,-96"/>
<text text-anchor="middle" x="4165.5" y="-84" font-family="Helvetica,sans-Serif" font-size="10.00">src/d/d_kyeff.cpp</text>
</a>
</g>
</g>
<!-- Node2&#45;&gt;Node82 -->
<g id="edge47" class="edge">
<title>Node2&#45;&gt;Node82</title>
<path fill="none" stroke="#63b8ff" d="M2426.92,-156.35C2726.44,-153.25 3944,-138.79 4111.5,-107 4123.06,-104.81 4135.43,-100.49 4145.42,-96.48"/>
<polygon fill="#63b8ff" stroke="#63b8ff" points="2427.31,-152.85 2417.34,-156.45 2427.38,-159.85 2427.31,-152.85"/>
</g>
<!-- Node83 -->
<g id="node42" class="node">
<title>Node83</title>
<g id="a_node42"><a xlink:href="d__path_8cpp.html" target="_top" xlink:title=" ">
<polygon fill="white" stroke="#666666" points="4318,-96 4229,-96 4229,-77 4318,-77 4318,-96"/>
<text text-anchor="middle" x="4273.5" y="-84" font-family="Helvetica,sans-Serif" font-size="10.00">src/d/d_path.cpp</text>
</a>
</g>
</g>
<!-- Node2&#45;&gt;Node83 -->
<g id="edge48" class="edge">
<title>Node2&#45;&gt;Node83</title>
<path fill="none" stroke="#63b8ff" d="M2426.93,-156.47C2737.74,-153.81 4040.88,-140.74 4219.5,-107 4231.06,-104.82 4243.43,-100.5 4253.42,-96.49"/>
<polygon fill="#63b8ff" stroke="#63b8ff" points="2427.35,-152.96 2417.38,-156.55 2427.41,-159.96 2427.35,-152.96"/>
</g>
<!-- Node84 -->
<g id="node43" class="node">
<title>Node84</title>
<g id="a_node43"><a xlink:href="d__resorce_8cpp.html" target="_top" xlink:title=" ">
<polygon fill="white" stroke="#666666" points="4438.5,-96 4336.5,-96 4336.5,-77 4438.5,-77 4438.5,-96"/>
<text text-anchor="middle" x="4387.5" y="-84" font-family="Helvetica,sans-Serif" font-size="10.00">src/d/d_resorce.cpp</text>
</a>
</g>
</g>
<!-- Node2&#45;&gt;Node84 -->
<g id="edge49" class="edge">
<title>Node2&#45;&gt;Node84</title>
<path fill="none" stroke="#63b8ff" d="M2427.02,-156.45C2748.92,-153.62 4137.2,-139.63 4327.5,-107 4340.24,-104.82 4353.98,-100.5 4365.1,-96.49"/>
<polygon fill="#63b8ff" stroke="#63b8ff" points="2427.06,-152.95 2417.1,-156.53 2427.13,-159.95 2427.06,-152.95"/>
</g>
<!-- Node85 -->
<g id="node44" class="node">
<title>Node85</title>
<g id="a_node44"><a xlink:href="d__simple__model_8cpp.html" target="_top" xlink:title=" ">
<polygon fill="white" stroke="#666666" points="4586.5,-96 4456.5,-96 4456.5,-77 4586.5,-77 4586.5,-96"/>
<text text-anchor="middle" x="4521.5" y="-84" font-family="Helvetica,sans-Serif" font-size="10.00">src/d/d_simple_model.cpp</text>
</a>
</g>
</g>
<!-- Node2&#45;&gt;Node85 -->
<g id="edge50" class="edge">
<title>Node2&#45;&gt;Node85</title>
<path fill="none" stroke="#63b8ff" d="M2427.23,-156.33C2761.28,-152.84 4243.92,-135.86 4447.5,-107 4463.02,-104.8 4479.96,-100.48 4493.7,-96.47"/>
<polygon fill="#63b8ff" stroke="#63b8ff" points="2427.31,-152.83 2417.35,-156.43 2427.38,-159.83 2427.31,-152.83"/>
</g>
<!-- Node86 -->
<g id="node45" class="node">
<title>Node86</title>
<g id="a_node45"><a xlink:href="d__stage_8cpp.html" target="_top" xlink:title=" ">
<polygon fill="white" stroke="#666666" points="4698.5,-96 4604.5,-96 4604.5,-77 4698.5,-77 4698.5,-96"/>
<text text-anchor="middle" x="4651.5" y="-84" font-family="Helvetica,sans-Serif" font-size="10.00">src/d/d_stage.cpp</text>
</a>
</g>
</g>
<!-- Node2&#45;&gt;Node86 -->
<g id="edge51" class="edge">
<title>Node2&#45;&gt;Node86</title>
<path fill="none" stroke="#63b8ff" d="M2427.17,-156.75C2775.42,-155.26 4377.82,-146.32 4595.5,-107 4607.56,-104.82 4620.5,-100.46 4630.91,-96.41"/>
<polygon fill="#63b8ff" stroke="#63b8ff" points="2427.29,-153.25 2417.31,-156.79 2427.32,-160.25 2427.29,-153.25"/>
</g>
<!-- Node87 -->
<g id="node46" class="node">
<title>Node87</title>
<g id="a_node46"><a xlink:href="d__timer_8cpp.html" target="_top" xlink:title=" ">
<polygon fill="white" stroke="#666666" points="4808.5,-96 4716.5,-96 4716.5,-77 4808.5,-77 4808.5,-96"/>
<text text-anchor="middle" x="4762.5" y="-84" font-family="Helvetica,sans-Serif" font-size="10.00">src/d/d_timer.cpp</text>
</a>
</g>
</g>
<!-- Node2&#45;&gt;Node87 -->
<g id="edge52" class="edge">
<title>Node2&#45;&gt;Node87</title>
<path fill="none" stroke="#63b8ff" d="M2427.31,-156.85C2786.27,-155.85 4478.34,-148.94 4707.5,-107 4719.36,-104.83 4732.08,-100.46 4742.29,-96.41"/>
<polygon fill="#63b8ff" stroke="#63b8ff" points="2427.34,-153.35 2417.35,-156.87 2427.36,-160.35 2427.34,-153.35"/>
</g>
<!-- Node88 -->
<g id="node47" class="node">
<title>Node88</title>
<g id="a_node47"><a xlink:href="d__tresure_8cpp.html" target="_top" xlink:title=" ">
<polygon fill="white" stroke="#666666" points="4926.5,-96 4826.5,-96 4826.5,-77 4926.5,-77 4926.5,-96"/>
<text text-anchor="middle" x="4876.5" y="-84" font-family="Helvetica,sans-Serif" font-size="10.00">src/d/d_tresure.cpp</text>
</a>
</g>
</g>
<!-- Node2&#45;&gt;Node88 -->
<g id="edge53" class="edge">
<title>Node2&#45;&gt;Node88</title>
<path fill="none" stroke="#63b8ff" d="M2427.16,-156.83C2795.74,-155.74 4576.42,-148.33 4817.5,-107 4830.15,-104.83 4843.79,-100.46 4854.77,-96.41"/>
<polygon fill="#63b8ff" stroke="#63b8ff" points="2427.41,-153.33 2417.42,-156.86 2427.43,-160.33 2427.41,-153.33"/>
</g>
<!-- Node89 -->
<g id="node48" class="node">
<title>Node89</title>
<g id="a_node48"><a xlink:href="d__event__lib_8cpp.html" target="_top" xlink:title=" ">
<polygon fill="white" stroke="#666666" points="5048,-101.5 4945,-101.5 4945,-71.5 5048,-71.5 5048,-101.5"/>
<text text-anchor="start" x="4953" y="-89.5" font-family="Helvetica,sans-Serif" font-size="10.00">src/d/event/d_event</text>
<text text-anchor="middle" x="4996.5" y="-78.5" font-family="Helvetica,sans-Serif" font-size="10.00">_lib.cpp</text>
</a>
</g>
</g>
<!-- Node2&#45;&gt;Node89 -->
<g id="edge56" class="edge">
<title>Node2&#45;&gt;Node89</title>
<path fill="none" stroke="#63b8ff" d="M2427.28,-156.86C2806.6,-155.9 4681.94,-149.07 4935.5,-107 4942.52,-105.84 4949.84,-104.03 4956.88,-101.99"/>
<polygon fill="#63b8ff" stroke="#63b8ff" points="2427.48,-153.36 2417.49,-156.88 2427.5,-160.36 2427.48,-153.36"/>
</g>
<!-- Node90 -->
<g id="node49" class="node">
<title>Node90</title>
<g id="a_node49"><a xlink:href="d__event__manager_8cpp.html" target="_top" xlink:title=" ">
<polygon fill="white" stroke="#666666" points="5169,-101.5 5066,-101.5 5066,-71.5 5169,-71.5 5169,-101.5"/>
<text text-anchor="start" x="5074" y="-89.5" font-family="Helvetica,sans-Serif" font-size="10.00">src/d/event/d_event</text>
<text text-anchor="middle" x="5117.5" y="-78.5" font-family="Helvetica,sans-Serif" font-size="10.00">_manager.cpp</text>
</a>
</g>
</g>
<!-- Node2&#45;&gt;Node90 -->
<g id="edge57" class="edge">
<title>Node2&#45;&gt;Node90</title>
<path fill="none" stroke="#63b8ff" d="M2427.3,-156.94C2817.26,-156.44 4791.31,-151.7 5057.5,-107 5064.41,-105.84 5071.62,-104.04 5078.54,-101.99"/>
<polygon fill="#63b8ff" stroke="#63b8ff" points="2427.47,-153.44 2417.48,-156.95 2427.48,-160.44 2427.47,-153.44"/>
</g>
<!-- Node91 -->
<g id="node50" class="node">
<title>Node91</title>
<g id="a_node50"><a xlink:href="d__kankyo__rain_8cpp.html" target="_top" xlink:title=" ">
<polygon fill="white" stroke="#666666" points="5303.5,-101.5 5187.5,-101.5 5187.5,-71.5 5303.5,-71.5 5303.5,-101.5"/>
<text text-anchor="start" x="5195.5" y="-89.5" font-family="Helvetica,sans-Serif" font-size="10.00">src/d/kankyo/d_kankyo</text>
<text text-anchor="middle" x="5245.5" y="-78.5" font-family="Helvetica,sans-Serif" font-size="10.00">_rain.cpp</text>
</a>
</g>
</g>
<!-- Node2&#45;&gt;Node91 -->
<g id="edge59" class="edge">
<title>Node2&#45;&gt;Node91</title>
<path fill="none" stroke="#63b8ff" d="M2427.06,-156.88C2826.62,-155.99 4898.92,-149.39 5178.5,-107 5186.17,-105.84 5194.19,-104.04 5201.9,-101.99"/>
<polygon fill="#63b8ff" stroke="#63b8ff" points="2427.24,-153.38 2417.24,-156.9 2427.25,-160.38 2427.24,-153.38"/>
</g>
<!-- Node15&#45;&gt;Node12 -->
<g id="edge5" class="edge">
<title>Node15&#45;&gt;Node12</title>
<path fill="none" stroke="#63b8ff" d="M763.01,-73.14C718.77,-59.29 648.11,-37.17 608.96,-24.91"/>
<polygon fill="#63b8ff" stroke="#63b8ff" points="761.9,-76.46 772.49,-76.1 763.99,-69.78 761.9,-76.46"/>
</g>
<!-- Node15&#45;&gt;Node16 -->
<g id="edge6" class="edge">
<title>Node15&#45;&gt;Node16</title>
<path fill="none" stroke="#63b8ff" d="M814.52,-67.34C823.55,-53.7 835.52,-35.61 842.58,-24.95"/>
<polygon fill="#63b8ff" stroke="#63b8ff" points="811.76,-65.16 809.16,-75.44 817.6,-69.03 811.76,-65.16"/>
</g>
<!-- Node15&#45;&gt;Node17 -->
<g id="edge7" class="edge">
<title>Node15&#45;&gt;Node17</title>
<path fill="none" stroke="#63b8ff" d="M836.53,-72.43C867.65,-60.49 913.59,-42.84 945.81,-30.47"/>
<polygon fill="#63b8ff" stroke="#63b8ff" points="835.29,-69.16 827.2,-76.01 837.8,-75.7 835.29,-69.16"/>
</g>
<!-- Node40&#45;&gt;Node12 -->
<g id="edge15" class="edge">
<title>Node40&#45;&gt;Node12</title>
<path fill="none" stroke="#63b8ff" d="M414.78,-67.65C458.64,-53.98 517.28,-35.7 551.76,-24.96"/>
<polygon fill="#63b8ff" stroke="#63b8ff" points="413.93,-64.25 405.42,-70.56 416.01,-70.93 413.93,-64.25"/>
</g>
<!-- Node40&#45;&gt;Node45 -->
<g id="edge16" class="edge">
<title>Node40&#45;&gt;Node45</title>
<path fill="none" stroke="#63b8ff" d="M311.6,-66.84C278.12,-53.24 234.25,-35.41 208.34,-24.88"/>
<polygon fill="#63b8ff" stroke="#63b8ff" points="310.08,-70.01 320.67,-70.53 312.72,-63.52 310.08,-70.01"/>
</g>
<!-- Node40&#45;&gt;Node46 -->
<g id="edge17" class="edge">
<title>Node40&#45;&gt;Node46</title>
<path fill="none" stroke="#63b8ff" d="M291.23,-69.99C232.06,-56.15 147.47,-36.35 98.85,-24.97"/>
<polygon fill="#63b8ff" stroke="#63b8ff" points="290.32,-73.37 300.86,-72.25 291.92,-66.56 290.32,-73.37"/>
</g>
<!-- Node40&#45;&gt;Node47 -->
<g id="edge18" class="edge">
<title>Node40&#45;&gt;Node47</title>
<path fill="none" stroke="#63b8ff" d="M339.26,-62.03C331.11,-51.54 321.77,-39.51 314.67,-30.38"/>
<polygon fill="#63b8ff" stroke="#63b8ff" points="336.48,-64.16 345.38,-69.9 342.01,-59.86 336.48,-64.16"/>
</g>
<!-- Node40&#45;&gt;Node48 -->
<g id="edge19" class="edge">
<title>Node40&#45;&gt;Node48</title>
<path fill="none" stroke="#63b8ff" d="M383.5,-63.73C399.27,-50.53 418.52,-34.4 430.13,-24.68"/>
<polygon fill="#63b8ff" stroke="#63b8ff" points="381.28,-61.02 375.86,-70.13 385.77,-66.39 381.28,-61.02"/>
</g>
<!-- Node66&#45;&gt;Node12 -->
<g id="edge26" class="edge">
<title>Node66&#45;&gt;Node12</title>
<path fill="none" stroke="#63b8ff" d="M594.54,-60.34C590.59,-47.86 586.07,-33.58 583.25,-24.68"/>
<polygon fill="#63b8ff" stroke="#63b8ff" points="591.13,-61.18 597.48,-69.66 597.8,-59.07 591.13,-61.18"/>
</g>
<!-- Node66&#45;&gt;Node67 -->
<g id="edge27" class="edge">
<title>Node66&#45;&gt;Node67</title>
<path fill="none" stroke="#63b8ff" d="M634.55,-64.87C655.25,-51.56 681.12,-34.9 696.7,-24.88"/>
<polygon fill="#63b8ff" stroke="#63b8ff" points="632.67,-61.93 626.15,-70.28 636.45,-67.81 632.67,-61.93"/>
</g>
</g>
</svg>
