<?xml version="1.0" encoding="UTF-8" standalone="no"?>
<!DOCTYPE svg PUBLIC "-//W3C//DTD SVG 1.1//EN"
 "http://www.w3.org/Graphics/SVG/1.1/DTD/svg11.dtd">
<!-- Generated by graphviz version 7.0.4 (20221203.1631)
 -->
<!-- Title: include/d/event/d_event_data.h Pages: 1 -->
<!--zoomable 368 -->
<svg id="main" version="1.1" xmlns="http://www.w3.org/2000/svg" xmlns:xlink="http://www.w3.org/1999/xlink" xml:space="preserve" onload="init(evt)">
<style type="text/css"><![CDATA[
.edge:hover path { stroke: red; }
.edge:hover polygon { stroke: red; fill: red; }
]]></style>
<script type="text/javascript"><![CDATA[
var edges = document.getElementsByTagName('g');
if (edges && edges.length) {
  for (var i=0;i<edges.length;i++) {
    if (edges[i].id.substr(0,4)=='edge') {
      edges[i].setAttribute('class','edge');
    }
  }
}
]]></script>
        <defs>
                <circle id="rim" cx="0" cy="0" r="7"/>
                <circle id="rim2" cx="0" cy="0" r="3.5"/>
                <g id="zoomPlus">
                        <use xlink:href="#rim" fill="#404040">
                                <set attributeName="fill" to="#808080" begin="zoomplus.mouseover" end="zoomplus.mouseout"/>
                        </use>
                        <path d="M-4,0h8M0,-4v8" fill="none" stroke="white" stroke-width="1.5" pointer-events="none"/>
                </g>
                <g id="zoomMin">
                        <use xlink:href="#rim" fill="#404040">
                                <set attributeName="fill" to="#808080" begin="zoomminus.mouseover" end="zoomminus.mouseout"/>
                        </use>
                        <path d="M-4,0h8" fill="none" stroke="white" stroke-width="1.5" pointer-events="none"/>
                </g>
                <g id="dirArrow">
                        <path fill="none" stroke="white" stroke-width="1.5" d="M0,-3.0v7 M-2.5,-0.5L0,-3.0L2.5,-0.5"/>
                </g>
               <g id="resetDef">
                       <use xlink:href="#rim2" fill="#404040">
                               <set attributeName="fill" to="#808080" begin="reset.mouseover" end="reset.mouseout"/>
                       </use>
               </g>
        </defs>

<script type="text/javascript">
var viewWidth = 5251;
var viewHeight = 368;
var sectionId = 'dynsection-1';
</script>
<script xlink:href="svgpan.js"/>
<svg id="graph" class="graph">
<g id="viewport">
<title>include/d/event/d_event_data.h</title>
<!-- Node1 -->
<g id="node1" class="node">
<title>Node1</title>
<g id="a_node1"><a xlink:title=" ">
<polygon fill="#999999" stroke="#666666" points="5243,-360 5123,-360 5123,-330 5243,-330 5243,-360"/>
<text text-anchor="start" x="5131" y="-348" font-family="Helvetica,sans-Serif" font-size="10.00">include/d/event/d_event</text>
<text text-anchor="middle" x="5183" y="-337" font-family="Helvetica,sans-Serif" font-size="10.00">_data.h</text>
</a>
</g>
</g>
<!-- Node2 -->
<g id="node2" class="node">
<title>Node2</title>
<g id="a_node2"><a xlink:href="d__event__manager_8h.html" target="_top" xlink:title=" ">
<polygon fill="white" stroke="#666666" points="5199,-294 5079,-294 5079,-264 5199,-264 5199,-294"/>
<text text-anchor="start" x="5087" y="-282" font-family="Helvetica,sans-Serif" font-size="10.00">include/d/event/d_event</text>
<text text-anchor="middle" x="5139" y="-271" font-family="Helvetica,sans-Serif" font-size="10.00">_manager.h</text>
</a>
</g>
</g>
<!-- Node1&#45;&gt;Node2 -->
<g id="edge1" class="edge">
<title>Node1&#45;&gt;Node2</title>
<path fill="none" stroke="#63b8ff" d="M5166.77,-320.39C5160.72,-311.59 5154.03,-301.86 5148.74,-294.16"/>
<polygon fill="#63b8ff" stroke="#63b8ff" points="5163.83,-322.29 5172.38,-328.55 5169.6,-318.33 5163.83,-322.29"/>
</g>
<!-- Node48 -->
<g id="node19" class="node">
<title>Node48</title>
<g id="a_node19"><a xlink:href="d__event__data_8cpp.html" target="_top" xlink:title=" ">
<polygon fill="white" stroke="#666666" points="5005.5,-30 4902.5,-30 4902.5,0 5005.5,0 5005.5,-30"/>
<text text-anchor="start" x="4910.5" y="-18" font-family="Helvetica,sans-Serif" font-size="10.00">src/d/event/d_event</text>
<text text-anchor="middle" x="4954" y="-7" font-family="Helvetica,sans-Serif" font-size="10.00">_data.cpp</text>
</a>
</g>
</g>
<!-- Node1&#45;&gt;Node48 -->
<g id="edge63" class="edge">
<title>Node1&#45;&gt;Node48</title>
<path fill="none" stroke="#63b8ff" d="M5197.06,-319.81C5209.94,-295.35 5227,-256.04 5227,-219.5 5227,-219.5 5227,-219.5 5227,-157 5227,-113.17 5222.74,-93.98 5189,-66 5161.63,-43.3 5066.48,-28.66 5005.97,-21.41"/>
<polygon fill="#63b8ff" stroke="#63b8ff" points="5194.14,-317.86 5192.42,-328.31 5200.29,-321.21 5194.14,-317.86"/>
</g>
<!-- Node3 -->
<g id="node3" class="node">
<title>Node3</title>
<g id="a_node3"><a xlink:href="d__com__inf__game_8h.html" target="_top" xlink:title=" ">
<polygon fill="#fff0f0" stroke="red" points="2651,-173 2541,-173 2541,-143 2651,-143 2651,-173"/>
<text text-anchor="start" x="2549" y="-161" font-family="Helvetica,sans-Serif" font-size="10.00">include/d/com/d_com</text>
<text text-anchor="middle" x="2596" y="-150" font-family="Helvetica,sans-Serif" font-size="10.00">_inf_game.h</text>
</a>
</g>
</g>
<!-- Node2&#45;&gt;Node3 -->
<g id="edge2" class="edge">
<title>Node2&#45;&gt;Node3</title>
<path fill="none" stroke="#63b8ff" d="M5067.23,-274.64C4694.29,-257.19 2982.07,-177.07 2651.37,-161.59"/>
<polygon fill="#63b8ff" stroke="#63b8ff" points="5066.98,-278.13 5077.14,-275.11 5067.31,-271.14 5066.98,-278.13"/>
</g>
<!-- Node90 -->
<g id="node48" class="node">
<title>Node90</title>
<g id="a_node48"><a xlink:href="d__event__lib_8cpp.html" target="_top" xlink:title=" ">
<polygon fill="white" stroke="#666666" points="5039.5,-101.5 4936.5,-101.5 4936.5,-71.5 5039.5,-71.5 5039.5,-101.5"/>
<text text-anchor="start" x="4944.5" y="-89.5" font-family="Helvetica,sans-Serif" font-size="10.00">src/d/event/d_event</text>
<text text-anchor="middle" x="4988" y="-78.5" font-family="Helvetica,sans-Serif" font-size="10.00">_lib.cpp</text>
</a>
</g>
</g>
<!-- Node2&#45;&gt;Node90 -->
<g id="edge61" class="edge">
<title>Node2&#45;&gt;Node90</title>
<path fill="none" stroke="#63b8ff" d="M5138.14,-252.12C5136.72,-238.54 5133.43,-222.06 5126,-209 5098.44,-160.59 5044.33,-121.73 5012.67,-101.88"/>
<polygon fill="#63b8ff" stroke="#63b8ff" points="5134.64,-252.36 5138.86,-262.08 5141.63,-251.86 5134.64,-252.36"/>
</g>
<!-- Node91 -->
<g id="node49" class="node">
<title>Node91</title>
<g id="a_node49"><a xlink:href="d__event__manager_8cpp.html" target="_top" xlink:title=" ">
<polygon fill="white" stroke="#666666" points="5160.5,-101.5 5057.5,-101.5 5057.5,-71.5 5160.5,-71.5 5160.5,-101.5"/>
<text text-anchor="start" x="5065.5" y="-89.5" font-family="Helvetica,sans-Serif" font-size="10.00">src/d/event/d_event</text>
<text text-anchor="middle" x="5109" y="-78.5" font-family="Helvetica,sans-Serif" font-size="10.00">_manager.cpp</text>
</a>
</g>
</g>
<!-- Node2&#45;&gt;Node91 -->
<g id="edge62" class="edge">
<title>Node2&#45;&gt;Node91</title>
<path fill="none" stroke="#63b8ff" d="M5151.06,-253.24C5154.3,-245.36 5157.37,-236.49 5159,-228 5166.14,-190.9 5172.54,-178.27 5159,-143 5152.68,-126.53 5138.96,-111.9 5127.49,-101.8"/>
<polygon fill="#63b8ff" stroke="#63b8ff" points="5147.95,-251.63 5147.09,-262.19 5154.35,-254.46 5147.95,-251.63"/>
</g>
<!-- Node109 -->
<g id="node50" class="node">
<title>Node109</title>
<g id="a_node50"><a xlink:href="d__event_8h.html" target="_top" xlink:title=" ">
<polygon fill="white" stroke="#666666" points="5117,-228 4989,-228 4989,-209 5117,-209 5117,-228"/>
<text text-anchor="middle" x="5053" y="-216" font-family="Helvetica,sans-Serif" font-size="10.00">include/d/event/d_event.h</text>
</a>
</g>
</g>
<!-- Node2&#45;&gt;Node109 -->
<g id="edge58" class="edge">
<title>Node2&#45;&gt;Node109</title>
<path fill="none" stroke="#63b8ff" d="M5108.54,-257.28C5093.95,-247.35 5077.25,-236 5066,-228.35"/>
<polygon fill="#63b8ff" stroke="#63b8ff" points="5106.25,-259.96 5116.49,-262.69 5110.19,-254.17 5106.25,-259.96"/>
</g>
<!-- Node4 -->
<g id="node4" class="node">
<title>Node4</title>
<g id="a_node4"><a xlink:href="d__a__npc_8h.html" target="_top" xlink:title=" ">
<polygon fill="#fff0f0" stroke="red" points="176.5,-96 65.5,-96 65.5,-77 176.5,-77 176.5,-96"/>
<text text-anchor="middle" x="121" y="-84" font-family="Helvetica,sans-Serif" font-size="10.00">include/d/a/d_a_npc.h</text>
</a>
</g>
</g>
<!-- Node3&#45;&gt;Node4 -->
<g id="edge3" class="edge">
<title>Node3&#45;&gt;Node4</title>
<path fill="none" stroke="#63b8ff" d="M2529.19,-156.69C2164.57,-154.87 422.69,-144.25 186,-107 172.15,-104.82 157.13,-100.45 145.02,-96.4"/>
<polygon fill="#63b8ff" stroke="#63b8ff" points="2529.05,-160.19 2539.07,-156.74 2529.08,-153.19 2529.05,-160.19"/>
</g>
<!-- Node10 -->
<g id="node5" class="node">
<title>Node10</title>
<g id="a_node5"><a xlink:href="d__cc__uty_8h.html" target="_top" xlink:title=" ">
<polygon fill="#fff0f0" stroke="red" points="448.5,-96 329.5,-96 329.5,-77 448.5,-77 448.5,-96"/>
<text text-anchor="middle" x="389" y="-84" font-family="Helvetica,sans-Serif" font-size="10.00">include/d/cc/d_cc_uty.h</text>
</a>
</g>
</g>
<!-- Node3&#45;&gt;Node10 -->
<g id="edge4" class="edge">
<title>Node3&#45;&gt;Node10</title>
<path fill="none" stroke="#63b8ff" d="M2529.24,-156.46C2190.05,-153.55 665.67,-138.82 457,-107 442.67,-104.82 427.11,-100.5 414.49,-96.49"/>
<polygon fill="#63b8ff" stroke="#63b8ff" points="2529.03,-159.95 2539.05,-156.54 2529.08,-152.95 2529.03,-159.95"/>
</g>
<!-- Node16 -->
<g id="node6" class="node">
<title>Node16</title>
<g id="a_node6"><a xlink:href="d__item_8h.html" target="_top" xlink:title=" ">
<polygon fill="#fff0f0" stroke="red" points="561.5,-96 466.5,-96 466.5,-77 561.5,-77 561.5,-96"/>
<text text-anchor="middle" x="514" y="-84" font-family="Helvetica,sans-Serif" font-size="10.00">include/d/d_item.h</text>
</a>
</g>
</g>
<!-- Node3&#45;&gt;Node16 -->
<g id="edge5" class="edge">
<title>Node3&#45;&gt;Node16</title>
<path fill="none" stroke="#63b8ff" d="M2529.79,-156.46C2203.24,-153.66 772.01,-139.58 576,-107 562.87,-104.82 548.67,-100.5 537.18,-96.49"/>
<polygon fill="#63b8ff" stroke="#63b8ff" points="2529.4,-159.96 2539.43,-156.54 2529.46,-152.96 2529.4,-159.96"/>
</g>
<!-- Node13 -->
<g id="node7" class="node">
<title>Node13</title>
<g id="a_node7"><a xlink:href="d__a__alink_8cpp.html" target="_top" xlink:title=" ">
<polygon fill="white" stroke="#666666" points="682.5,-24.5 573.5,-24.5 573.5,-5.5 682.5,-5.5 682.5,-24.5"/>
<text text-anchor="middle" x="628" y="-12.5" font-family="Helvetica,sans-Serif" font-size="10.00">src/d/a/d_a_alink.cpp</text>
</a>
</g>
</g>
<!-- Node3&#45;&gt;Node13 -->
<g id="edge31" class="edge">
<title>Node3&#45;&gt;Node13</title>
<path fill="none" stroke="#63b8ff" d="M2529.32,-157.17C2199.35,-157.79 753.92,-157.59 674,-107 644.24,-88.16 632.95,-43.62 629.4,-24.72"/>
<polygon fill="#63b8ff" stroke="#63b8ff" points="2529.07,-160.67 2539.07,-157.15 2529.06,-153.67 2529.07,-160.67"/>
</g>
<!-- Node17 -->
<g id="node8" class="node">
<title>Node17</title>
<g id="a_node8"><a xlink:href="d__a__obj__item_8cpp.html" target="_top" xlink:title=" ">
<polygon fill="white" stroke="#666666" points="371.5,-24.5 246.5,-24.5 246.5,-5.5 371.5,-5.5 371.5,-24.5"/>
<text text-anchor="middle" x="309" y="-12.5" font-family="Helvetica,sans-Serif" font-size="10.00">src/d/a/d_a_obj_item.cpp</text>
</a>
</g>
</g>
<!-- Node3&#45;&gt;Node17 -->
<g id="edge34" class="edge">
<title>Node3&#45;&gt;Node17</title>
<path fill="none" stroke="#63b8ff" d="M2529.51,-156.96C2133.44,-156.59 100.59,-152.47 56,-107 -4.21,-45.59 153.3,-25.44 246.33,-18.97"/>
<polygon fill="#63b8ff" stroke="#63b8ff" points="2529.23,-160.46 2539.24,-156.97 2529.24,-153.46 2529.23,-160.46"/>
</g>
<!-- Node18 -->
<g id="node9" class="node">
<title>Node18</title>
<g id="a_node9"><a xlink:href="d__com__inf__game_8cpp.html" target="_top" xlink:title=" ">
<polygon fill="white" stroke="#666666" points="555,-30 447,-30 447,0 555,0 555,-30"/>
<text text-anchor="start" x="455" y="-18" font-family="Helvetica,sans-Serif" font-size="10.00">src/d/com/d_com_inf</text>
<text text-anchor="middle" x="501" y="-7" font-family="Helvetica,sans-Serif" font-size="10.00">_game.cpp</text>
</a>
</g>
</g>
<!-- Node3&#45;&gt;Node18 -->
<g id="edge40" class="edge">
<title>Node3&#45;&gt;Node18</title>
<path fill="none" stroke="#63b8ff" d="M2529.33,-156.33C2196.93,-152.84 730.96,-135.87 639,-107 626.03,-102.93 556.64,-55.02 521.47,-30.41"/>
<polygon fill="#63b8ff" stroke="#63b8ff" points="2529.12,-159.82 2539.16,-156.43 2529.2,-152.83 2529.12,-159.82"/>
</g>
<!-- Node21 -->
<g id="node10" class="node">
<title>Node21</title>
<g id="a_node10"><a xlink:href="d__kantera__icon__meter_8h.html" target="_top" xlink:title=" ">
<polygon fill="#fff0f0" stroke="red" points="923.5,-101.5 822.5,-101.5 822.5,-71.5 923.5,-71.5 923.5,-101.5"/>
<text text-anchor="start" x="830.5" y="-89.5" font-family="Helvetica,sans-Serif" font-size="10.00">include/d/d_kantera</text>
<text text-anchor="middle" x="873" y="-78.5" font-family="Helvetica,sans-Serif" font-size="10.00">_icon_meter.h</text>
</a>
</g>
</g>
<!-- Node3&#45;&gt;Node21 -->
<g id="edge9" class="edge">
<title>Node3&#45;&gt;Node21</title>
<path fill="none" stroke="#63b8ff" d="M2529.62,-156.14C2239.57,-152.22 1090.96,-135.04 932,-107 925.2,-105.8 918.11,-103.98 911.31,-101.93"/>
<polygon fill="#63b8ff" stroke="#63b8ff" points="2529.22,-159.63 2539.26,-156.27 2529.31,-152.63 2529.22,-159.63"/>
</g>
<!-- Node24 -->
<g id="node11" class="node">
<title>Node24</title>
<g id="a_node11"><a xlink:href="d__model_8h.html" target="_top" xlink:title=" ">
<polygon fill="#fff0f0" stroke="red" points="1044.5,-96 941.5,-96 941.5,-77 1044.5,-77 1044.5,-96"/>
<text text-anchor="middle" x="993" y="-84" font-family="Helvetica,sans-Serif" font-size="10.00">include/d/d_model.h</text>
</a>
</g>
</g>
<!-- Node3&#45;&gt;Node24 -->
<g id="edge10" class="edge">
<title>Node3&#45;&gt;Node24</title>
<path fill="none" stroke="#63b8ff" d="M2529.39,-157.33C2272.09,-158.22 1343.07,-157.78 1053,-107 1040.27,-104.77 1026.53,-100.45 1015.41,-96.45"/>
<polygon fill="#63b8ff" stroke="#63b8ff" points="2529.27,-160.83 2539.26,-157.29 2529.24,-153.83 2529.27,-160.83"/>
</g>
<!-- Node26 -->
<g id="node12" class="node">
<title>Node26</title>
<g id="a_node12"><a xlink:href="d__name_8h.html" target="_top" xlink:title=" ">
<polygon fill="#fff0f0" stroke="red" points="1163.5,-96 1062.5,-96 1062.5,-77 1163.5,-77 1163.5,-96"/>
<text text-anchor="middle" x="1113" y="-84" font-family="Helvetica,sans-Serif" font-size="10.00">include/d/d_name.h</text>
</a>
</g>
</g>
<!-- Node3&#45;&gt;Node26 -->
<g id="edge11" class="edge">
<title>Node3&#45;&gt;Node26</title>
<path fill="none" stroke="#63b8ff" d="M2529.33,-157.12C2284.93,-157.16 1438.55,-153.86 1173,-107 1160.27,-104.75 1146.53,-100.44 1135.41,-96.43"/>
<polygon fill="#63b8ff" stroke="#63b8ff" points="2529,-160.62 2539,-157.11 2529,-153.62 2529,-160.62"/>
</g>
<!-- Node28 -->
<g id="node13" class="node">
<title>Node28</title>
<g id="a_node13"><a xlink:href="d__file__sel__info_8h.html" target="_top" xlink:title=" ">
<polygon fill="#fff0f0" stroke="red" points="1278,-101.5 1182,-101.5 1182,-71.5 1278,-71.5 1278,-101.5"/>
<text text-anchor="start" x="1190" y="-89.5" font-family="Helvetica,sans-Serif" font-size="10.00">include/d/file/d_file</text>
<text text-anchor="middle" x="1230" y="-78.5" font-family="Helvetica,sans-Serif" font-size="10.00">_sel_info.h</text>
</a>
</g>
</g>
<!-- Node3&#45;&gt;Node28 -->
<g id="edge12" class="edge">
<title>Node3&#45;&gt;Node28</title>
<path fill="none" stroke="#63b8ff" d="M2529.32,-157.01C2297.7,-156.65 1529,-152.01 1287,-107 1280.52,-105.8 1273.78,-104 1267.3,-101.98"/>
<polygon fill="#63b8ff" stroke="#63b8ff" points="2529.07,-160.51 2539.07,-157.02 2529.07,-153.51 2529.07,-160.51"/>
</g>
<!-- Node31 -->
<g id="node14" class="node">
<title>Node31</title>
<g id="a_node14"><a xlink:href="d__file__sel__warning_8h.html" target="_top" xlink:title=" ">
<polygon fill="#fff0f0" stroke="red" points="1392,-101.5 1296,-101.5 1296,-71.5 1392,-71.5 1392,-101.5"/>
<text text-anchor="start" x="1304" y="-89.5" font-family="Helvetica,sans-Serif" font-size="10.00">include/d/file/d_file</text>
<text text-anchor="middle" x="1344" y="-78.5" font-family="Helvetica,sans-Serif" font-size="10.00">_sel_warning.h</text>
</a>
</g>
</g>
<!-- Node3&#45;&gt;Node31 -->
<g id="edge13" class="edge">
<title>Node3&#45;&gt;Node31</title>
<path fill="none" stroke="#63b8ff" d="M2529.34,-156.73C2311.16,-155.44 1619.91,-148.13 1401,-107 1394.52,-105.78 1387.78,-103.98 1381.3,-101.96"/>
<polygon fill="#63b8ff" stroke="#63b8ff" points="2529.05,-160.23 2539.07,-156.78 2529.09,-153.23 2529.05,-160.23"/>
</g>
<!-- Node33 -->
<g id="node15" class="node">
<title>Node33</title>
<g id="a_node15"><a xlink:href="d__meter2_8h.html" target="_top" xlink:title=" ">
<polygon fill="#fff0f0" stroke="red" points="1544,-96 1410,-96 1410,-77 1544,-77 1544,-96"/>
<text text-anchor="middle" x="1477" y="-84" font-family="Helvetica,sans-Serif" font-size="10.00">include/d/meter/d_meter2.h</text>
</a>
</g>
</g>
<!-- Node3&#45;&gt;Node33 -->
<g id="edge14" class="edge">
<title>Node3&#45;&gt;Node33</title>
<path fill="none" stroke="#63b8ff" d="M2529.35,-155.58C2330.33,-151.04 1742.49,-135.55 1553,-107 1537.24,-104.63 1520.01,-100.35 1505.95,-96.4"/>
<polygon fill="#63b8ff" stroke="#63b8ff" points="2529.18,-159.07 2539.26,-155.8 2529.34,-152.08 2529.18,-159.07"/>
</g>
<!-- Node41 -->
<g id="node16" class="node">
<title>Node41</title>
<g id="a_node16"><a xlink:href="d__msg__object_8h.html" target="_top" xlink:title=" ">
<polygon fill="#fff0f0" stroke="red" points="804,-101.5 694,-101.5 694,-71.5 804,-71.5 804,-101.5"/>
<text text-anchor="start" x="702" y="-89.5" font-family="Helvetica,sans-Serif" font-size="10.00">include/d/msg/d_msg</text>
<text text-anchor="middle" x="749" y="-78.5" font-family="Helvetica,sans-Serif" font-size="10.00">_object.h</text>
</a>
</g>
</g>
<!-- Node3&#45;&gt;Node41 -->
<g id="edge15" class="edge">
<title>Node3&#45;&gt;Node41</title>
<path fill="none" stroke="#63b8ff" d="M2529.4,-156.19C2226.29,-152.34 984.52,-135.01 813,-107 805.66,-105.8 798,-103.98 790.62,-101.93"/>
<polygon fill="#63b8ff" stroke="#63b8ff" points="2529.07,-159.68 2539.11,-156.31 2529.16,-152.68 2529.07,-159.68"/>
</g>
<!-- Node46 -->
<g id="node17" class="node">
<title>Node46</title>
<g id="a_node17"><a xlink:href="d__demo_8cpp.html" target="_top" xlink:title=" ">
<polygon fill="white" stroke="#666666" points="796,-24.5 702,-24.5 702,-5.5 796,-5.5 796,-24.5"/>
<text text-anchor="middle" x="749" y="-12.5" font-family="Helvetica,sans-Serif" font-size="10.00">src/d/d_demo.cpp</text>
</a>
</g>
</g>
<!-- Node3&#45;&gt;Node46 -->
<g id="edge45" class="edge">
<title>Node3&#45;&gt;Node46</title>
<path fill="none" stroke="#63b8ff" d="M2529.23,-156.52C2194.95,-153.95 717.86,-140.73 685,-107 672.28,-93.95 677.01,-82.38 685,-66 694.27,-46.99 714.65,-33.09 729.94,-24.84"/>
<polygon fill="#63b8ff" stroke="#63b8ff" points="2529.1,-160.02 2539.12,-156.59 2529.15,-153.02 2529.1,-160.02"/>
</g>
<!-- Node47 -->
<g id="node18" class="node">
<title>Node47</title>
<g id="a_node18"><a xlink:href="d__event_8cpp.html" target="_top" xlink:title=" ">
<polygon fill="white" stroke="#666666" points="4884.5,-24.5 4763.5,-24.5 4763.5,-5.5 4884.5,-5.5 4884.5,-24.5"/>
<text text-anchor="middle" x="4824" y="-12.5" font-family="Helvetica,sans-Serif" font-size="10.00">src/d/event/d_event.cpp</text>
</a>
</g>
</g>
<!-- Node3&#45;&gt;Node47 -->
<g id="edge54" class="edge">
<title>Node3&#45;&gt;Node47</title>
<path fill="none" stroke="#63b8ff" d="M2662.51,-156.79C3031.48,-155.49 4811.74,-147.14 4851,-107 4873.58,-83.91 4845.76,-42.83 4831.48,-24.85"/>
<polygon fill="#63b8ff" stroke="#63b8ff" points="2662.75,-153.29 2652.76,-156.83 2662.77,-160.29 2662.75,-153.29"/>
</g>
<!-- Node3&#45;&gt;Node48 -->
<g id="edge55" class="edge">
<title>Node3&#45;&gt;Node48</title>
<path fill="none" stroke="#63b8ff" d="M2662.75,-157C3027.5,-156.81 4766.92,-153.49 4870,-107 4905.67,-90.91 4933.08,-51.71 4945.94,-30.38"/>
<polygon fill="#63b8ff" stroke="#63b8ff" points="2662.87,-153.5 2652.87,-157 2662.88,-160.5 2662.87,-153.5"/>
</g>
<!-- Node55 -->
<g id="node20" class="node">
<title>Node55</title>
<g id="a_node20"><a xlink:href="d__s__logo_8h.html" target="_top" xlink:title=" ">
<polygon fill="#fff0f0" stroke="red" points="1675.5,-96 1562.5,-96 1562.5,-77 1675.5,-77 1675.5,-96"/>
<text text-anchor="middle" x="1619" y="-84" font-family="Helvetica,sans-Serif" font-size="10.00">include/d/s/d_s_logo.h</text>
</a>
</g>
</g>
<!-- Node3&#45;&gt;Node55 -->
<g id="edge20" class="edge">
<title>Node3&#45;&gt;Node55</title>
<path fill="none" stroke="#63b8ff" d="M2529.39,-155.39C2347.75,-150.68 1846.57,-135.43 1684,-107 1670.42,-104.63 1655.68,-100.35 1643.67,-96.4"/>
<polygon fill="#63b8ff" stroke="#63b8ff" points="2529.03,-158.88 2539.12,-155.64 2529.21,-151.89 2529.03,-158.88"/>
</g>
<!-- Node57 -->
<g id="node21" class="node">
<title>Node57</title>
<g id="a_node21"><a xlink:href="d__s__play_8h.html" target="_top" xlink:title=" ">
<polygon fill="#fff0f0" stroke="red" points="1806.5,-96 1693.5,-96 1693.5,-77 1806.5,-77 1806.5,-96"/>
<text text-anchor="middle" x="1750" y="-84" font-family="Helvetica,sans-Serif" font-size="10.00">include/d/s/d_s_play.h</text>
</a>
</g>
</g>
<!-- Node3&#45;&gt;Node57 -->
<g id="edge21" class="edge">
<title>Node3&#45;&gt;Node57</title>
<path fill="none" stroke="#63b8ff" d="M2529.16,-157.81C2393.42,-158.34 2076.18,-153.91 1815,-107 1801.55,-104.58 1786.94,-100.35 1774.99,-96.45"/>
<polygon fill="#63b8ff" stroke="#63b8ff" points="2529.07,-161.31 2539.05,-157.76 2529.03,-154.31 2529.07,-161.31"/>
</g>
<!-- Node61 -->
<g id="node22" class="node">
<title>Node61</title>
<g id="a_node22"><a xlink:href="d__msg__scrn__base_8h.html" target="_top" xlink:title=" ">
<polygon fill="#fff0f0" stroke="red" points="1923.5,-101.5 1824.5,-101.5 1824.5,-71.5 1923.5,-71.5 1923.5,-101.5"/>
<text text-anchor="start" x="1832.5" y="-89.5" font-family="Helvetica,sans-Serif" font-size="10.00">include/msg/scrn/d</text>
<text text-anchor="middle" x="1874" y="-78.5" font-family="Helvetica,sans-Serif" font-size="10.00">_msg_scrn_base.h</text>
</a>
</g>
</g>
<!-- Node3&#45;&gt;Node61 -->
<g id="edge22" class="edge">
<title>Node3&#45;&gt;Node61</title>
<path fill="none" stroke="#63b8ff" d="M2529.5,-157.43C2409.09,-157.02 2147.41,-150.61 1932,-107 1925.65,-105.71 1919.03,-103.93 1912.63,-101.97"/>
<polygon fill="#63b8ff" stroke="#63b8ff" points="2529.19,-160.93 2539.2,-157.45 2529.2,-153.93 2529.19,-160.93"/>
</g>
<!-- Node65 -->
<g id="node23" class="node">
<title>Node65</title>
<g id="a_node23"><a xlink:href="d__a__b__zant_8h.html" target="_top" xlink:title=" ">
<polygon fill="white" stroke="#666666" points="2062.5,-101.5 1941.5,-101.5 1941.5,-71.5 2062.5,-71.5 2062.5,-101.5"/>
<text text-anchor="start" x="1949.5" y="-89.5" font-family="Helvetica,sans-Serif" font-size="10.00">include/rel/d/a/b/d</text>
<text text-anchor="middle" x="2002" y="-78.5" font-family="Helvetica,sans-Serif" font-size="10.00">_a_b_zant/d_a_b_zant.h</text>
</a>
</g>
</g>
<!-- Node3&#45;&gt;Node65 -->
<g id="edge23" class="edge">
<title>Node3&#45;&gt;Node65</title>
<path fill="none" stroke="#63b8ff" d="M2529.44,-154.41C2429.41,-149.68 2234.71,-137.18 2072,-107 2064.68,-105.64 2057.02,-103.87 2049.56,-101.96"/>
<polygon fill="#63b8ff" stroke="#63b8ff" points="2529.2,-157.91 2539.35,-154.87 2529.52,-150.91 2529.2,-157.91"/>
</g>
<!-- Node66 -->
<g id="node24" class="node">
<title>Node66</title>
<g id="a_node24"><a xlink:href="d__a__skip__2D_8h.html" target="_top" xlink:title=" ">
<polygon fill="white" stroke="#666666" points="2205,-101.5 2081,-101.5 2081,-71.5 2205,-71.5 2205,-101.5"/>
<text text-anchor="start" x="2089" y="-89.5" font-family="Helvetica,sans-Serif" font-size="10.00">include/rel/d/a/d_a</text>
<text text-anchor="middle" x="2143" y="-78.5" font-family="Helvetica,sans-Serif" font-size="10.00">_skip_2D/d_a_skip_2D.h</text>
</a>
</g>
</g>
<!-- Node3&#45;&gt;Node66 -->
<g id="edge24" class="edge">
<title>Node3&#45;&gt;Node66</title>
<path fill="none" stroke="#63b8ff" d="M2529.2,-151.07C2452.58,-143.63 2323.45,-129.08 2214,-107 2206.86,-105.56 2199.38,-103.79 2192.06,-101.92"/>
<polygon fill="#63b8ff" stroke="#63b8ff" points="2528.78,-154.55 2539.06,-152.02 2529.44,-147.58 2528.78,-154.55"/>
</g>
<!-- Node67 -->
<g id="node25" class="node">
<title>Node67</title>
<g id="a_node25"><a xlink:href="d__a__spinner_8h.html" target="_top" xlink:title=" ">
<polygon fill="white" stroke="#666666" points="311,-101.5 195,-101.5 195,-71.5 311,-71.5 311,-101.5"/>
<text text-anchor="start" x="203" y="-89.5" font-family="Helvetica,sans-Serif" font-size="10.00">include/rel/d/a/d_a</text>
<text text-anchor="middle" x="253" y="-78.5" font-family="Helvetica,sans-Serif" font-size="10.00">_spinner/d_a_spinner.h</text>
</a>
</g>
</g>
<!-- Node3&#45;&gt;Node67 -->
<g id="edge25" class="edge">
<title>Node3&#45;&gt;Node67</title>
<path fill="none" stroke="#63b8ff" d="M2529.26,-156.57C2177.14,-154.18 542.88,-141.28 320,-107 312.34,-105.82 304.32,-104.01 296.6,-101.96"/>
<polygon fill="#63b8ff" stroke="#63b8ff" points="2528.98,-160.07 2539.01,-156.64 2529.03,-153.07 2528.98,-160.07"/>
</g>
<!-- Node68 -->
<g id="node26" class="node">
<title>Node68</title>
<g id="a_node26"><a xlink:href="d__a__player_8cpp.html" target="_top" xlink:title=" ">
<polygon fill="white" stroke="#666666" points="114,-24.5 0,-24.5 0,-5.5 114,-5.5 114,-24.5"/>
<text text-anchor="middle" x="57" y="-12.5" font-family="Helvetica,sans-Serif" font-size="10.00">src/d/a/d_a_player.cpp</text>
</a>
</g>
</g>
<!-- Node3&#45;&gt;Node68 -->
<g id="edge35" class="edge">
<title>Node3&#45;&gt;Node68</title>
<path fill="none" stroke="#63b8ff" d="M2529.39,-156.97C2131.44,-156.65 83.9,-152.79 39,-107 16.9,-84.46 39.19,-43.09 50.86,-24.94"/>
<polygon fill="#63b8ff" stroke="#63b8ff" points="2529.16,-160.47 2539.16,-156.98 2529.17,-153.47 2529.16,-160.47"/>
</g>
<!-- Node69 -->
<g id="node27" class="node">
<title>Node69</title>
<g id="a_node27"><a xlink:href="d__a__obj__yobikusa_8h.html" target="_top" xlink:title=" ">
<polygon fill="white" stroke="#666666" points="2328.5,-107 2223.5,-107 2223.5,-66 2328.5,-66 2328.5,-107"/>
<text text-anchor="start" x="2231.5" y="-95" font-family="Helvetica,sans-Serif" font-size="10.00">include/rel/d/a/obj</text>
<text text-anchor="start" x="2231.5" y="-84" font-family="Helvetica,sans-Serif" font-size="10.00">/d_a_obj_yobikusa/d</text>
<text text-anchor="middle" x="2276" y="-73" font-family="Helvetica,sans-Serif" font-size="10.00">_a_obj_yobikusa.h</text>
</a>
</g>
</g>
<!-- Node3&#45;&gt;Node69 -->
<g id="edge28" class="edge">
<title>Node3&#45;&gt;Node69</title>
<path fill="none" stroke="#63b8ff" d="M2529.58,-146.26C2477.21,-137.28 2402.49,-123.33 2338,-107 2335.05,-106.25 2332.03,-105.44 2328.99,-104.6"/>
<polygon fill="#63b8ff" stroke="#63b8ff" points="2528.8,-149.68 2539.25,-147.9 2529.98,-142.78 2528.8,-149.68"/>
</g>
<!-- Node70 -->
<g id="node28" class="node">
<title>Node70</title>
<g id="a_node28"><a xlink:href="d__a__tag__telop_8h.html" target="_top" xlink:title=" ">
<polygon fill="white" stroke="#666666" points="2465,-107 2347,-107 2347,-66 2465,-66 2465,-107"/>
<text text-anchor="start" x="2355" y="-95" font-family="Helvetica,sans-Serif" font-size="10.00">include/rel/d/a/tag</text>
<text text-anchor="start" x="2355" y="-84" font-family="Helvetica,sans-Serif" font-size="10.00">/d_a_tag_telop/d_a_tag</text>
<text text-anchor="middle" x="2406" y="-73" font-family="Helvetica,sans-Serif" font-size="10.00">_telop.h</text>
</a>
</g>
</g>
<!-- Node3&#45;&gt;Node70 -->
<g id="edge29" class="edge">
<title>Node3&#45;&gt;Node70</title>
<path fill="none" stroke="#63b8ff" d="M2546.12,-138.75C2519.79,-129.12 2487.43,-117.29 2460.45,-107.42"/>
<polygon fill="#63b8ff" stroke="#63b8ff" points="2544.62,-141.93 2555.21,-142.08 2547.02,-135.36 2544.62,-141.93"/>
</g>
<!-- Node71 -->
<g id="node29" class="node">
<title>Node71</title>
<g id="a_node29"><a xlink:href="c__dylink_8cpp.html" target="_top" xlink:title=" ">
<polygon fill="white" stroke="#666666" points="2578.5,-96 2483.5,-96 2483.5,-77 2578.5,-77 2578.5,-96"/>
<text text-anchor="middle" x="2531" y="-84" font-family="Helvetica,sans-Serif" font-size="10.00">src/c/c_dylink.cpp</text>
</a>
</g>
</g>
<!-- Node3&#45;&gt;Node71 -->
<g id="edge30" class="edge">
<title>Node3&#45;&gt;Node71</title>
<path fill="none" stroke="#63b8ff" d="M2574.95,-134.49C2562.73,-121.43 2548.04,-105.72 2539.12,-96.18"/>
<polygon fill="#63b8ff" stroke="#63b8ff" points="2572.11,-136.58 2581.5,-141.49 2577.22,-131.8 2572.11,-136.58"/>
</g>
<!-- Node72 -->
<g id="node30" class="node">
<title>Node72</title>
<g id="a_node30"><a xlink:href="d__a__itembase_8cpp.html" target="_top" xlink:title=" ">
<polygon fill="white" stroke="#666666" points="2725,-96 2597,-96 2597,-77 2725,-77 2725,-96"/>
<text text-anchor="middle" x="2661" y="-84" font-family="Helvetica,sans-Serif" font-size="10.00">src/d/a/d_a_itembase.cpp</text>
</a>
</g>
</g>
<!-- Node3&#45;&gt;Node72 -->
<g id="edge32" class="edge">
<title>Node3&#45;&gt;Node72</title>
<path fill="none" stroke="#63b8ff" d="M2617.05,-134.49C2629.27,-121.43 2643.96,-105.72 2652.88,-96.18"/>
<polygon fill="#63b8ff" stroke="#63b8ff" points="2614.78,-131.8 2610.5,-141.49 2619.89,-136.58 2614.78,-131.8"/>
</g>
<!-- Node73 -->
<g id="node31" class="node">
<title>Node73</title>
<g id="a_node31"><a xlink:href="d__a__obj_8cpp.html" target="_top" xlink:title=" ">
<polygon fill="white" stroke="#666666" points="2844.5,-96 2743.5,-96 2743.5,-77 2844.5,-77 2844.5,-96"/>
<text text-anchor="middle" x="2794" y="-84" font-family="Helvetica,sans-Serif" font-size="10.00">src/d/a/d_a_obj.cpp</text>
</a>
</g>
</g>
<!-- Node3&#45;&gt;Node73 -->
<g id="edge33" class="edge">
<title>Node3&#45;&gt;Node73</title>
<path fill="none" stroke="#63b8ff" d="M2647.61,-138.88C2686.44,-125.26 2737.99,-107.16 2768.42,-96.48"/>
<polygon fill="#63b8ff" stroke="#63b8ff" points="2646.73,-135.48 2638.45,-142.1 2649.05,-142.09 2646.73,-135.48"/>
</g>
<!-- Node74 -->
<g id="node32" class="node">
<title>Node74</title>
<g id="a_node32"><a xlink:href="d__bg__s_8cpp.html" target="_top" xlink:title=" ">
<polygon fill="white" stroke="#666666" points="2967,-96 2863,-96 2863,-77 2967,-77 2967,-96"/>
<text text-anchor="middle" x="2915" y="-84" font-family="Helvetica,sans-Serif" font-size="10.00">src/d/bg/d_bg_s.cpp</text>
</a>
</g>
</g>
<!-- Node3&#45;&gt;Node74 -->
<g id="edge36" class="edge">
<title>Node3&#45;&gt;Node74</title>
<path fill="none" stroke="#63b8ff" d="M2662.41,-146.2C2714.57,-137.2 2788.86,-123.27 2853,-107 2864.92,-103.98 2877.93,-99.99 2888.94,-96.41"/>
<polygon fill="#63b8ff" stroke="#63b8ff" points="2662.05,-142.71 2652.79,-147.84 2663.23,-149.61 2662.05,-142.71"/>
</g>
<!-- Node75 -->
<g id="node33" class="node">
<title>Node75</title>
<g id="a_node33"><a xlink:href="d__bg__s__movebg__actor_8cpp.html" target="_top" xlink:title=" ">
<polygon fill="white" stroke="#666666" points="3111,-101.5 2985,-101.5 2985,-71.5 3111,-71.5 3111,-101.5"/>
<text text-anchor="start" x="2993" y="-89.5" font-family="Helvetica,sans-Serif" font-size="10.00">src/d/bg/d_bg_s_movebg</text>
<text text-anchor="middle" x="3048" y="-78.5" font-family="Helvetica,sans-Serif" font-size="10.00">_actor.cpp</text>
</a>
</g>
</g>
<!-- Node3&#45;&gt;Node75 -->
<g id="edge37" class="edge">
<title>Node3&#45;&gt;Node75</title>
<path fill="none" stroke="#63b8ff" d="M2662.76,-150.94C2739,-143.4 2867.24,-128.78 2976,-107 2983.24,-105.55 2990.82,-103.78 2998.24,-101.9"/>
<polygon fill="#63b8ff" stroke="#63b8ff" points="2662.56,-147.45 2652.95,-151.9 2663.24,-154.41 2662.56,-147.45"/>
</g>
<!-- Node76 -->
<g id="node34" class="node">
<title>Node76</title>
<g id="a_node34"><a xlink:href="d__bg__w_8cpp.html" target="_top" xlink:title=" ">
<polygon fill="white" stroke="#666666" points="3236.5,-96 3129.5,-96 3129.5,-77 3236.5,-77 3236.5,-96"/>
<text text-anchor="middle" x="3183" y="-84" font-family="Helvetica,sans-Serif" font-size="10.00">src/d/bg/d_bg_w.cpp</text>
</a>
</g>
</g>
<!-- Node3&#45;&gt;Node76 -->
<g id="edge38" class="edge">
<title>Node3&#45;&gt;Node76</title>
<path fill="none" stroke="#63b8ff" d="M2662.68,-155.01C2762.85,-151.04 2957.74,-139.5 3120,-107 3132.8,-104.44 3146.69,-100.29 3158.17,-96.48"/>
<polygon fill="#63b8ff" stroke="#63b8ff" points="2662.6,-151.51 2652.74,-155.39 2662.87,-158.5 2662.6,-151.51"/>
</g>
<!-- Node77 -->
<g id="node35" class="node">
<title>Node77</title>
<g id="a_node35"><a xlink:href="d__cc__s_8cpp.html" target="_top" xlink:title=" ">
<polygon fill="white" stroke="#666666" points="3359,-96 3255,-96 3255,-77 3359,-77 3359,-96"/>
<text text-anchor="middle" x="3307" y="-84" font-family="Helvetica,sans-Serif" font-size="10.00">src/d/cc/d_cc_s.cpp</text>
</a>
</g>
</g>
<!-- Node3&#45;&gt;Node77 -->
<g id="edge39" class="edge">
<title>Node3&#45;&gt;Node77</title>
<path fill="none" stroke="#63b8ff" d="M2662.63,-156.85C2780.95,-155.47 3035.07,-147.55 3245,-107 3257.74,-104.54 3271.55,-100.35 3282.89,-96.49"/>
<polygon fill="#63b8ff" stroke="#63b8ff" points="2662.74,-153.34 2652.78,-156.95 2662.81,-160.34 2662.74,-153.34"/>
</g>
<!-- Node78 -->
<g id="node36" class="node">
<title>Node78</title>
<g id="a_node36"><a xlink:href="d__com__static_8cpp.html" target="_top" xlink:title=" ">
<polygon fill="white" stroke="#666666" points="3517,-96 3377,-96 3377,-77 3517,-77 3517,-96"/>
<text text-anchor="middle" x="3447" y="-84" font-family="Helvetica,sans-Serif" font-size="10.00">src/d/com/d_com_static.cpp</text>
</a>
</g>
</g>
<!-- Node3&#45;&gt;Node78 -->
<g id="edge41" class="edge">
<title>Node3&#45;&gt;Node78</title>
<path fill="none" stroke="#63b8ff" d="M2662.39,-156.65C2796.52,-155.08 3109.09,-147.02 3368,-107 3384.06,-104.52 3401.63,-100.33 3416.11,-96.47"/>
<polygon fill="#63b8ff" stroke="#63b8ff" points="2662.6,-153.15 2652.63,-156.76 2662.67,-160.15 2662.6,-153.15"/>
</g>
<!-- Node79 -->
<g id="node37" class="node">
<title>Node79</title>
<g id="a_node37"><a xlink:href="d__attention_8cpp.html" target="_top" xlink:title=" ">
<polygon fill="white" stroke="#666666" points="3642.5,-96 3535.5,-96 3535.5,-77 3642.5,-77 3642.5,-96"/>
<text text-anchor="middle" x="3589" y="-84" font-family="Helvetica,sans-Serif" font-size="10.00">src/d/d_attention.cpp</text>
</a>
</g>
</g>
<!-- Node3&#45;&gt;Node79 -->
<g id="edge42" class="edge">
<title>Node3&#45;&gt;Node79</title>
<path fill="none" stroke="#63b8ff" d="M2662.64,-155.55C2846.78,-151.2 3359.95,-136.69 3526,-107 3539.19,-104.64 3553.48,-100.37 3565.11,-96.42"/>
<polygon fill="#63b8ff" stroke="#63b8ff" points="2662.68,-152.05 2652.76,-155.78 2662.84,-159.04 2662.68,-152.05"/>
</g>
<!-- Node80 -->
<g id="node38" class="node">
<title>Node80</title>
<g id="a_node38"><a xlink:href="d__cam__param_8cpp.html" target="_top" xlink:title=" ">
<polygon fill="white" stroke="#666666" points="3781.5,-96 3660.5,-96 3660.5,-77 3781.5,-77 3781.5,-96"/>
<text text-anchor="middle" x="3721" y="-84" font-family="Helvetica,sans-Serif" font-size="10.00">src/d/d_cam_param.cpp</text>
</a>
</g>
</g>
<!-- Node3&#45;&gt;Node80 -->
<g id="edge43" class="edge">
<title>Node3&#45;&gt;Node80</title>
<path fill="none" stroke="#63b8ff" d="M2662.45,-155.8C2862.85,-151.87 3459.31,-137.84 3651,-107 3665.57,-104.66 3681.45,-100.38 3694.39,-96.43"/>
<polygon fill="#63b8ff" stroke="#63b8ff" points="2662.67,-152.29 2652.74,-155.99 2662.81,-159.29 2662.67,-152.29"/>
</g>
<!-- Node81 -->
<g id="node39" class="node">
<title>Node81</title>
<g id="a_node39"><a xlink:href="d__camera_8cpp.html" target="_top" xlink:title=" ">
<polygon fill="white" stroke="#666666" points="3902,-96 3800,-96 3800,-77 3902,-77 3902,-96"/>
<text text-anchor="middle" x="3851" y="-84" font-family="Helvetica,sans-Serif" font-size="10.00">src/d/d_camera.cpp</text>
</a>
</g>
</g>
<!-- Node3&#45;&gt;Node81 -->
<g id="edge44" class="edge">
<title>Node3&#45;&gt;Node81</title>
<path fill="none" stroke="#63b8ff" d="M2662.58,-156.55C2880.47,-154.71 3570.87,-145.89 3790,-107 3802.81,-104.73 3816.65,-100.46 3827.91,-96.49"/>
<polygon fill="#63b8ff" stroke="#63b8ff" points="2662.82,-153.05 2652.85,-156.63 2662.88,-160.05 2662.82,-153.05"/>
</g>
<!-- Node82 -->
<g id="node40" class="node">
<title>Node82</title>
<g id="a_node40"><a xlink:href="d__eye__hl_8cpp.html" target="_top" xlink:title=" ">
<polygon fill="white" stroke="#666666" points="4018,-96 3920,-96 3920,-77 4018,-77 4018,-96"/>
<text text-anchor="middle" x="3969" y="-84" font-family="Helvetica,sans-Serif" font-size="10.00">src/d/d_eye_hl.cpp</text>
</a>
</g>
</g>
<!-- Node3&#45;&gt;Node82 -->
<g id="edge46" class="edge">
<title>Node3&#45;&gt;Node82</title>
<path fill="none" stroke="#63b8ff" d="M2662.58,-156.98C2894.76,-156.52 3667.63,-151.58 3911,-107 3923.33,-104.74 3936.62,-100.42 3947.36,-96.42"/>
<polygon fill="#63b8ff" stroke="#63b8ff" points="2662.8,-153.48 2652.81,-157 2662.81,-160.48 2662.8,-153.48"/>
</g>
<!-- Node83 -->
<g id="node41" class="node">
<title>Node83</title>
<g id="a_node41"><a xlink:href="d__kyeff_8cpp.html" target="_top" xlink:title=" ">
<polygon fill="white" stroke="#666666" points="4126,-96 4036,-96 4036,-77 4126,-77 4126,-96"/>
<text text-anchor="middle" x="4081" y="-84" font-family="Helvetica,sans-Serif" font-size="10.00">src/d/d_kyeff.cpp</text>
</a>
</g>
</g>
<!-- Node3&#45;&gt;Node83 -->
<g id="edge47" class="edge">
<title>Node3&#45;&gt;Node83</title>
<path fill="none" stroke="#63b8ff" d="M2662.68,-157.41C2908.09,-158.51 3760.6,-158.44 4027,-107 4038.55,-104.77 4050.92,-100.45 4060.91,-96.45"/>
<polygon fill="#63b8ff" stroke="#63b8ff" points="2662.99,-153.91 2652.97,-157.37 2662.95,-160.91 2662.99,-153.91"/>
</g>
<!-- Node84 -->
<g id="node42" class="node">
<title>Node84</title>
<g id="a_node42"><a xlink:href="d__path_8cpp.html" target="_top" xlink:title=" ">
<polygon fill="white" stroke="#666666" points="4233.5,-96 4144.5,-96 4144.5,-77 4233.5,-77 4233.5,-96"/>
<text text-anchor="middle" x="4189" y="-84" font-family="Helvetica,sans-Serif" font-size="10.00">src/d/d_path.cpp</text>
</a>
</g>
</g>
<!-- Node3&#45;&gt;Node84 -->
<g id="edge48" class="edge">
<title>Node3&#45;&gt;Node84</title>
<path fill="none" stroke="#63b8ff" d="M2662.75,-156.06C2939.54,-152.01 3989.33,-134.94 4135,-107 4146.55,-104.78 4158.93,-100.47 4168.91,-96.46"/>
<polygon fill="#63b8ff" stroke="#63b8ff" points="2662.77,-152.56 2652.82,-156.21 2662.87,-159.56 2662.77,-152.56"/>
</g>
<!-- Node85 -->
<g id="node43" class="node">
<title>Node85</title>
<g id="a_node43"><a xlink:href="d__resorce_8cpp.html" target="_top" xlink:title=" ">
<polygon fill="white" stroke="#666666" points="4354,-96 4252,-96 4252,-77 4354,-77 4354,-96"/>
<text text-anchor="middle" x="4303" y="-84" font-family="Helvetica,sans-Serif" font-size="10.00">src/d/d_resorce.cpp</text>
</a>
</g>
</g>
<!-- Node3&#45;&gt;Node85 -->
<g id="edge49" class="edge">
<title>Node3&#45;&gt;Node85</title>
<path fill="none" stroke="#63b8ff" d="M2662.56,-157.45C2930.49,-158.87 3930.68,-160.4 4242,-107 4254.93,-104.78 4268.9,-100.47 4280.21,-96.46"/>
<polygon fill="#63b8ff" stroke="#63b8ff" points="2662.63,-153.95 2652.61,-157.39 2662.59,-160.95 2662.63,-153.95"/>
</g>
<!-- Node86 -->
<g id="node44" class="node">
<title>Node86</title>
<g id="a_node44"><a xlink:href="d__simple__model_8cpp.html" target="_top" xlink:title=" ">
<polygon fill="white" stroke="#666666" points="4502,-96 4372,-96 4372,-77 4502,-77 4502,-96"/>
<text text-anchor="middle" x="4437" y="-84" font-family="Helvetica,sans-Serif" font-size="10.00">src/d/d_simple_model.cpp</text>
</a>
</g>
</g>
<!-- Node3&#45;&gt;Node86 -->
<g id="edge50" class="edge">
<title>Node3&#45;&gt;Node86</title>
<path fill="none" stroke="#63b8ff" d="M2662.27,-157.16C2941.77,-157.5 4025.38,-155.6 4363,-107 4378.52,-104.77 4395.45,-100.45 4409.2,-96.44"/>
<polygon fill="#63b8ff" stroke="#63b8ff" points="2662.64,-153.66 2652.63,-157.14 2662.63,-160.66 2662.64,-153.66"/>
</g>
<!-- Node87 -->
<g id="node45" class="node">
<title>Node87</title>
<g id="a_node45"><a xlink:href="d__stage_8cpp.html" target="_top" xlink:title=" ">
<polygon fill="white" stroke="#666666" points="4614,-96 4520,-96 4520,-77 4614,-77 4614,-96"/>
<text text-anchor="middle" x="4567" y="-84" font-family="Helvetica,sans-Serif" font-size="10.00">src/d/d_stage.cpp</text>
</a>
</g>
</g>
<!-- Node3&#45;&gt;Node87 -->
<g id="edge51" class="edge">
<title>Node3&#45;&gt;Node87</title>
<path fill="none" stroke="#63b8ff" d="M2662.33,-156.48C2978.66,-153.84 4326.39,-140.71 4511,-107 4522.95,-104.82 4535.78,-100.5 4546.14,-96.49"/>
<polygon fill="#63b8ff" stroke="#63b8ff" points="2662.56,-152.98 2652.59,-156.56 2662.62,-159.98 2662.56,-152.98"/>
</g>
<!-- Node88 -->
<g id="node46" class="node">
<title>Node88</title>
<g id="a_node46"><a xlink:href="d__timer_8cpp.html" target="_top" xlink:title=" ">
<polygon fill="white" stroke="#666666" points="4724,-96 4632,-96 4632,-77 4724,-77 4724,-96"/>
<text text-anchor="middle" x="4678" y="-84" font-family="Helvetica,sans-Serif" font-size="10.00">src/d/d_timer.cpp</text>
</a>
</g>
</g>
<!-- Node3&#45;&gt;Node88 -->
<g id="edge52" class="edge">
<title>Node3&#45;&gt;Node88</title>
<path fill="none" stroke="#63b8ff" d="M2662.46,-156.61C2990.26,-154.49 4426.93,-143.22 4623,-107 4634.76,-104.83 4647.36,-100.52 4657.53,-96.5"/>
<polygon fill="#63b8ff" stroke="#63b8ff" points="2662.76,-153.1 2652.79,-156.67 2662.81,-160.1 2662.76,-153.1"/>
</g>
<!-- Node89 -->
<g id="node47" class="node">
<title>Node89</title>
<g id="a_node47"><a xlink:href="d__tresure_8cpp.html" target="_top" xlink:title=" ">
<polygon fill="white" stroke="#666666" points="4842,-96 4742,-96 4742,-77 4842,-77 4842,-96"/>
<text text-anchor="middle" x="4792" y="-84" font-family="Helvetica,sans-Serif" font-size="10.00">src/d/d_tresure.cpp</text>
</a>
</g>
</g>
<!-- Node3&#45;&gt;Node89 -->
<g id="edge53" class="edge">
<title>Node3&#45;&gt;Node89</title>
<path fill="none" stroke="#63b8ff" d="M2662.72,-156.61C3001.72,-154.48 4525.2,-142.95 4733,-107 4745.54,-104.83 4759.06,-100.52 4769.99,-96.5"/>
<polygon fill="#63b8ff" stroke="#63b8ff" points="2662.89,-153.11 2652.91,-156.67 2662.94,-160.11 2662.89,-153.11"/>
</g>
<!-- Node3&#45;&gt;Node90 -->
<g id="edge56" class="edge">
<title>Node3&#45;&gt;Node90</title>
<path fill="none" stroke="#63b8ff" d="M2662.75,-156.62C3019.55,-154.46 4693.99,-142.48 4922,-107 4929.56,-105.82 4937.46,-104.02 4945.06,-101.97"/>
<polygon fill="#63b8ff" stroke="#63b8ff" points="2662.84,-153.12 2652.87,-156.68 2662.89,-160.12 2662.84,-153.12"/>
</g>
<!-- Node3&#45;&gt;Node91 -->
<g id="edge57" class="edge">
<title>Node3&#45;&gt;Node91</title>
<path fill="none" stroke="#63b8ff" d="M2662.79,-156.79C3031.19,-155.47 4807.27,-147.06 5048,-107 5055.02,-105.83 5062.34,-104.03 5069.38,-101.98"/>
<polygon fill="#63b8ff" stroke="#63b8ff" points="2662.79,-153.29 2652.8,-156.82 2662.81,-160.29 2662.79,-153.29"/>
</g>
<!-- Node16&#45;&gt;Node13 -->
<g id="edge6" class="edge">
<title>Node16&#45;&gt;Node13</title>
<path fill="none" stroke="#63b8ff" d="M538.06,-70.83C560.83,-56.95 594.28,-36.56 613.32,-24.95"/>
<polygon fill="#63b8ff" stroke="#63b8ff" points="536.45,-67.72 529.73,-75.91 540.09,-73.69 536.45,-67.72"/>
</g>
<!-- Node16&#45;&gt;Node17 -->
<g id="edge7" class="edge">
<title>Node16&#45;&gt;Node17</title>
<path fill="none" stroke="#63b8ff" d="M477.01,-72.82C470.35,-70.55 463.47,-68.2 457,-66 414.5,-51.55 365.1,-34.89 335.48,-24.91"/>
<polygon fill="#63b8ff" stroke="#63b8ff" points="475.87,-76.13 486.47,-76.06 478.14,-69.51 475.87,-76.13"/>
</g>
<!-- Node16&#45;&gt;Node18 -->
<g id="edge8" class="edge">
<title>Node16&#45;&gt;Node18</title>
<path fill="none" stroke="#63b8ff" d="M510.24,-65.39C508.14,-54.15 505.57,-40.41 503.67,-30.27"/>
<polygon fill="#63b8ff" stroke="#63b8ff" points="506.8,-66.02 512.08,-75.21 513.68,-64.74 506.8,-66.02"/>
</g>
<!-- Node41&#45;&gt;Node13 -->
<g id="edge16" class="edge">
<title>Node41&#45;&gt;Node13</title>
<path fill="none" stroke="#63b8ff" d="M714.03,-65.42C690.7,-52.01 661.15,-35.04 643.46,-24.88"/>
<polygon fill="#63b8ff" stroke="#63b8ff" points="712.2,-68.4 722.62,-70.35 715.69,-62.33 712.2,-68.4"/>
</g>
<!-- Node41&#45;&gt;Node46 -->
<g id="edge17" class="edge">
<title>Node41&#45;&gt;Node46</title>
<path fill="none" stroke="#63b8ff" d="M749,-59.96C749,-47.57 749,-33.49 749,-24.68"/>
<polygon fill="#63b8ff" stroke="#63b8ff" points="745.5,-59.59 749,-69.59 752.5,-59.59 745.5,-59.59"/>
</g>
<!-- Node41&#45;&gt;Node47 -->
<g id="edge18" class="edge">
<title>Node41&#45;&gt;Node47</title>
<path fill="none" stroke="#63b8ff" d="M801.28,-68.27C805.22,-67.37 809.15,-66.6 813,-66 1016.7,-34.36 4275.81,-18.47 4763.21,-16.27"/>
<polygon fill="#63b8ff" stroke="#63b8ff" points="800.56,-64.84 791.73,-70.7 802.28,-71.63 800.56,-64.84"/>
</g>
<!-- Node41&#45;&gt;Node48 -->
<g id="edge19" class="edge">
<title>Node41&#45;&gt;Node48</title>
<path fill="none" stroke="#63b8ff" d="M801.28,-68.25C805.21,-67.36 809.15,-66.59 813,-66 1261.1,2.77 4442.76,-83.02 4893,-30 4896.02,-29.64 4899.11,-29.2 4902.22,-28.69"/>
<polygon fill="#63b8ff" stroke="#63b8ff" points="800.56,-64.83 791.72,-70.67 802.28,-71.61 800.56,-64.83"/>
</g>
<!-- Node67&#45;&gt;Node13 -->
<g id="edge26" class="edge">
<title>Node67&#45;&gt;Node13</title>
<path fill="none" stroke="#63b8ff" d="M310.52,-68.21C313.72,-67.42 316.89,-66.68 320,-66 427.1,-42.63 456.17,-49.72 564,-30 572.17,-28.51 580.88,-26.73 589.16,-24.94"/>
<polygon fill="#63b8ff" stroke="#63b8ff" points="309.91,-64.75 301.11,-70.66 311.67,-71.53 309.91,-64.75"/>
</g>
<!-- Node67&#45;&gt;Node68 -->
<g id="edge27" class="edge">
<title>Node67&#45;&gt;Node68</title>
<path fill="none" stroke="#63b8ff" d="M201.91,-67.38C163.48,-53.76 112.44,-35.66 82.32,-24.98"/>
<polygon fill="#63b8ff" stroke="#63b8ff" points="200.37,-70.55 210.96,-70.59 202.71,-63.95 200.37,-70.55"/>
</g>
<!-- Node109&#45;&gt;Node3 -->
<g id="edge59" class="edge">
<title>Node109&#45;&gt;Node3</title>
<path fill="none" stroke="#63b8ff" d="M4977.11,-215.69C4604.45,-206.82 2973.25,-167.98 2651.3,-160.32"/>
<polygon fill="#63b8ff" stroke="#63b8ff" points="4976.95,-219.19 4987.03,-215.93 4977.12,-212.19 4976.95,-219.19"/>
</g>
<!-- Node109&#45;&gt;Node47 -->
<g id="edge60" class="edge">
<title>Node109&#45;&gt;Node47</title>
<path fill="none" stroke="#63b8ff" d="M5078.96,-202.81C5124.7,-175.14 5210.97,-113.8 5169,-66 5128.19,-19.52 4954.01,-40.16 4893,-30 4884.2,-28.53 4874.81,-26.77 4865.87,-24.99"/>
<polygon fill="#63b8ff" stroke="#63b8ff" points="5077.23,-199.77 5070.4,-207.87 5080.79,-205.79 5077.23,-199.77"/>
</g>
</g>
</svg>
        <g id="navigator" transform="translate(0 0)" fill="#404254">
                <rect fill="#f2f5e9" fill-opacity="0.5" stroke="#606060" stroke-width=".5" x="0" y="0" width="60" height="60"/>
                <use id="zoomplus" xlink:href="#zoomPlus" x="17" y="9" onmousedown="handleZoom(evt,'in')"/>
                <use id="zoomminus" xlink:href="#zoomMin" x="42" y="9" onmousedown="handleZoom(evt,'out')"/>
                <use id="reset" xlink:href="#resetDef" x="30" y="36" onmousedown="handleReset()"/>
                <g id="arrowUp" xlink:href="#dirArrow" transform="translate(30 24)" onmousedown="handlePan(0,-1)">
                  <use xlink:href="#rim" fill="#404040">
                        <set attributeName="fill" to="#808080" begin="arrowUp.mouseover" end="arrowUp.mouseout"/>
                  </use>
                  <path fill="none" stroke="white" stroke-width="1.5" d="M0,-3.0v7 M-2.5,-0.5L0,-3.0L2.5,-0.5"/>
                </g>
                <g id="arrowRight" xlink:href="#dirArrow" transform="rotate(90) translate(36 -43)" onmousedown="handlePan(1,0)">
                  <use xlink:href="#rim" fill="#404040">
                        <set attributeName="fill" to="#808080" begin="arrowRight.mouseover" end="arrowRight.mouseout"/>
                  </use>
                  <path fill="none" stroke="white" stroke-width="1.5" d="M0,-3.0v7 M-2.5,-0.5L0,-3.0L2.5,-0.5"/>
                </g>
                <g id="arrowDown" xlink:href="#dirArrow" transform="rotate(180) translate(-30 -48)" onmousedown="handlePan(0,1)">
                  <use xlink:href="#rim" fill="#404040">
                        <set attributeName="fill" to="#808080" begin="arrowDown.mouseover" end="arrowDown.mouseout"/>
                  </use>
                  <path fill="none" stroke="white" stroke-width="1.5" d="M0,-3.0v7 M-2.5,-0.5L0,-3.0L2.5,-0.5"/>
                </g>
                <g id="arrowLeft" xlink:href="#dirArrow" transform="rotate(270) translate(-36 17)" onmousedown="handlePan(-1,0)">
                  <use xlink:href="#rim" fill="#404040">
                        <set attributeName="fill" to="#808080" begin="arrowLeft.mouseover" end="arrowLeft.mouseout"/>
                  </use>
                  <path fill="none" stroke="white" stroke-width="1.5" d="M0,-3.0v7 M-2.5,-0.5L0,-3.0L2.5,-0.5"/>
                </g>
        </g>
        <svg viewBox="0 0 15 15" width="100%" height="30px" preserveAspectRatio="xMaxYMin meet">
         <g id="arrow_out" transform="scale(0.3 0.3)">
          <a xlink:href="d__event__data_8h__dep__incl_org.svg" target="_base">
           <rect id="button" ry="5" rx="5" y="6" x="6" height="38" width="38"
                fill="#f2f5e9" fill-opacity="0.5" stroke="#606060" stroke-width="1.0"/>
           <path id="arrow"
             d="M 11.500037,31.436501 C 11.940474,20.09759 22.043105,11.32322 32.158766,21.979434 L 37.068811,17.246167 C 37.068811,17.246167 37.088388,32 37.088388,32 L 22.160133,31.978069 C 22.160133,31.978069 26.997745,27.140456 26.997745,27.140456 C 18.528582,18.264221 13.291696,25.230495 11.500037,31.436501 z"
             style="fill:#404040;"/>
          </a>
         </g>
        </svg>
</svg>
