<?xml version="1.0" encoding="UTF-8" standalone="no"?>
<!DOCTYPE svg PUBLIC "-//W3C//DTD SVG 1.1//EN"
 "http://www.w3.org/Graphics/SVG/1.1/DTD/svg11.dtd">
<!-- Generated by graphviz version 7.0.4 (20221203.1631)
 -->
<!-- Title: include/d/meter/d_meter2.h Pages: 1 -->
<svg width="4996pt" height="357pt"
 viewBox="0.00 0.00 4995.50 357.00" xmlns="http://www.w3.org/2000/svg" xmlns:xlink="http://www.w3.org/1999/xlink">
<g id="graph0" class="graph" transform="scale(1 1) rotate(0) translate(4 353)">
<title>include/d/meter/d_meter2.h</title>
<!-- Node1 -->
<g id="node1" class="node">
<title>Node1</title>
<g id="a_node1"><a xlink:title=" ">
<polygon fill="#999999" stroke="#666666" points="3653.5,-349 3519.5,-349 3519.5,-330 3653.5,-330 3653.5,-349"/>
<text text-anchor="middle" x="3586.5" y="-337" font-family="Helvetica,sans-Serif" font-size="10.00">include/d/meter/d_meter2.h</text>
</a>
</g>
</g>
<!-- Node2 -->
<g id="node2" class="node">
<title>Node2</title>
<g id="a_node2"><a xlink:href="d__meter2__info_8h.html" target="_top" xlink:title=" ">
<polygon fill="white" stroke="#666666" points="3986,-294 3859,-294 3859,-264 3986,-264 3986,-294"/>
<text text-anchor="start" x="3867" y="-282" font-family="Helvetica,sans-Serif" font-size="10.00">include/d/meter/d_meter2</text>
<text text-anchor="middle" x="3922.5" y="-271" font-family="Helvetica,sans-Serif" font-size="10.00">_info.h</text>
</a>
</g>
</g>
<!-- Node1&#45;&gt;Node2 -->
<g id="edge1" class="edge">
<title>Node1&#45;&gt;Node2</title>
<path fill="none" stroke="#63b8ff" d="M3649.07,-327.61C3708.87,-317.19 3798.58,-301.58 3858.76,-291.1"/>
<polygon fill="#63b8ff" stroke="#63b8ff" points="3648.64,-324.13 3639.39,-329.29 3649.84,-331.02 3648.64,-324.13"/>
</g>
<!-- Node106 -->
<g id="node50" class="node">
<title>Node106</title>
<g id="a_node50"><a xlink:href="d__meter2_8cpp.html" target="_top" xlink:title=" ">
<polygon fill="white" stroke="#666666" points="3650.5,-288.5 3522.5,-288.5 3522.5,-269.5 3650.5,-269.5 3650.5,-288.5"/>
<text text-anchor="middle" x="3586.5" y="-276.5" font-family="Helvetica,sans-Serif" font-size="10.00">src/d/meter/d_meter2.cpp</text>
</a>
</g>
</g>
<!-- Node1&#45;&gt;Node106 -->
<g id="edge69" class="edge">
<title>Node1&#45;&gt;Node106</title>
<path fill="none" stroke="#63b8ff" d="M3586.5,-318.66C3586.5,-308.45 3586.5,-296.54 3586.5,-288.67"/>
<polygon fill="#63b8ff" stroke="#63b8ff" points="3583,-318.35 3586.5,-328.35 3590,-318.35 3583,-318.35"/>
</g>
<!-- Node3 -->
<g id="node3" class="node">
<title>Node3</title>
<g id="a_node3"><a xlink:href="d__a__alink_8h.html" target="_top" xlink:title=" ">
<polygon fill="white" stroke="#666666" points="3937.5,-228 3821.5,-228 3821.5,-209 3937.5,-209 3937.5,-228"/>
<text text-anchor="middle" x="3879.5" y="-216" font-family="Helvetica,sans-Serif" font-size="10.00">include/d/a/d_a_alink.h</text>
</a>
</g>
</g>
<!-- Node2&#45;&gt;Node3 -->
<g id="edge2" class="edge">
<title>Node2&#45;&gt;Node3</title>
<path fill="none" stroke="#63b8ff" d="M3905.12,-254.35C3898.32,-245.11 3890.96,-235.09 3885.88,-228.18"/>
<polygon fill="#63b8ff" stroke="#63b8ff" points="3902.23,-256.34 3910.97,-262.32 3907.87,-252.19 3902.23,-256.34"/>
</g>
<!-- Node10 -->
<g id="node6" class="node">
<title>Node10</title>
<g id="a_node6"><a xlink:href="d__meter2__info_8cpp.html" target="_top" xlink:title=" ">
<polygon fill="white" stroke="#666666" points="4001.5,-30 3891.5,-30 3891.5,0 4001.5,0 4001.5,-30"/>
<text text-anchor="start" x="3899.5" y="-18" font-family="Helvetica,sans-Serif" font-size="10.00">src/d/meter/d_meter2</text>
<text text-anchor="middle" x="3946.5" y="-7" font-family="Helvetica,sans-Serif" font-size="10.00">_info.cpp</text>
</a>
</g>
</g>
<!-- Node2&#45;&gt;Node10 -->
<g id="edge67" class="edge">
<title>Node2&#45;&gt;Node10</title>
<path fill="none" stroke="#63b8ff" d="M3936.82,-253.75C3940.76,-245.81 3944.5,-236.78 3946.5,-228 3963.04,-155.33 3953.41,-64.98 3948.67,-30.39"/>
<polygon fill="#63b8ff" stroke="#63b8ff" points="3933.81,-251.96 3932.18,-262.42 3939.98,-255.26 3933.81,-251.96"/>
</g>
<!-- Node19 -->
<g id="node11" class="node">
<title>Node19</title>
<g id="a_node11"><a xlink:href="d__com__inf__game_8cpp.html" target="_top" xlink:title=" ">
<polygon fill="white" stroke="#666666" points="215.5,-30 107.5,-30 107.5,0 215.5,0 215.5,-30"/>
<text text-anchor="start" x="115.5" y="-18" font-family="Helvetica,sans-Serif" font-size="10.00">src/d/com/d_com_inf</text>
<text text-anchor="middle" x="161.5" y="-7" font-family="Helvetica,sans-Serif" font-size="10.00">_game.cpp</text>
</a>
</g>
</g>
<!-- Node2&#45;&gt;Node19 -->
<g id="edge65" class="edge">
<title>Node2&#45;&gt;Node19</title>
<path fill="none" stroke="#63b8ff" d="M3847.48,-273.83C3794.87,-270.95 3722.9,-267.1 3659.5,-264 3463.32,-254.42 263.27,-248.94 127.5,-107 106.87,-85.43 131.02,-50.18 147.89,-30.49"/>
<polygon fill="#63b8ff" stroke="#63b8ff" points="3847.05,-277.31 3857.22,-274.37 3847.43,-270.32 3847.05,-277.31"/>
</g>
<!-- Node20 -->
<g id="node12" class="node">
<title>Node20</title>
<g id="a_node12"><a xlink:href="d__item_8cpp.html" target="_top" xlink:title=" ">
<polygon fill="white" stroke="#666666" points="89,-24.5 0,-24.5 0,-5.5 89,-5.5 89,-24.5"/>
<text text-anchor="middle" x="44.5" y="-12.5" font-family="Helvetica,sans-Serif" font-size="10.00">src/d/d_item.cpp</text>
</a>
</g>
</g>
<!-- Node2&#45;&gt;Node20 -->
<g id="edge66" class="edge">
<title>Node2&#45;&gt;Node20</title>
<path fill="none" stroke="#63b8ff" d="M3847.5,-273.23C3794.91,-270.07 3722.94,-266.13 3659.5,-264 2525.36,-225.83 2240.41,-272.4 1106.5,-228 725.56,-213.09 618.83,-271.34 250.5,-173 186.36,-155.87 168.14,-148.72 116.5,-107 85.94,-82.31 60.16,-42.44 49.61,-24.83"/>
<polygon fill="#63b8ff" stroke="#63b8ff" points="3847.05,-276.71 3857.25,-273.82 3847.48,-269.72 3847.05,-276.71"/>
</g>
<!-- Node95 -->
<g id="node48" class="node">
<title>Node95</title>
<g id="a_node48"><a xlink:href="d__save_8cpp.html" target="_top" xlink:title=" ">
<polygon fill="white" stroke="#666666" points="4869,-96 4754,-96 4754,-77 4869,-77 4869,-96"/>
<text text-anchor="middle" x="4811.5" y="-84" font-family="Helvetica,sans-Serif" font-size="10.00">src/d/save/d_save.cpp</text>
</a>
</g>
</g>
<!-- Node2&#45;&gt;Node95 -->
<g id="edge68" class="edge">
<title>Node2&#45;&gt;Node95</title>
<path fill="none" stroke="#63b8ff" d="M3997.38,-264.58C4142.54,-238.1 4472.03,-175.69 4745.5,-107 4757.9,-103.89 4771.46,-99.97 4783.05,-96.46"/>
<polygon fill="#63b8ff" stroke="#63b8ff" points="3997.11,-261.07 3987.9,-266.31 3998.37,-267.96 3997.11,-261.07"/>
</g>
<!-- Node105 -->
<g id="node49" class="node">
<title>Node105</title>
<g id="a_node49"><a xlink:href="d__menu__window_8h.html" target="_top" xlink:title=" ">
<polygon fill="white" stroke="#666666" points="4765.5,-173 4645.5,-173 4645.5,-143 4765.5,-143 4765.5,-173"/>
<text text-anchor="start" x="4653.5" y="-161" font-family="Helvetica,sans-Serif" font-size="10.00">include/d/menu/d_menu</text>
<text text-anchor="middle" x="4705.5" y="-150" font-family="Helvetica,sans-Serif" font-size="10.00">_window.h</text>
</a>
</g>
</g>
<!-- Node2&#45;&gt;Node105 -->
<g id="edge61" class="edge">
<title>Node2&#45;&gt;Node105</title>
<path fill="none" stroke="#63b8ff" d="M3997.88,-274.08C4097.52,-268.26 4278.03,-254.97 4430.5,-228 4508.49,-214.2 4597.18,-189.29 4652.36,-173.47"/>
<polygon fill="#63b8ff" stroke="#63b8ff" points="3997.72,-270.58 3987.94,-274.65 3998.12,-277.57 3997.72,-270.58"/>
</g>
<!-- Node4 -->
<g id="node4" class="node">
<title>Node4</title>
<g id="a_node4"><a xlink:href="d__com__inf__game_8h.html" target="_top" xlink:title=" ">
<polygon fill="#fff0f0" stroke="red" points="2939.5,-173 2829.5,-173 2829.5,-143 2939.5,-143 2939.5,-173"/>
<text text-anchor="start" x="2837.5" y="-161" font-family="Helvetica,sans-Serif" font-size="10.00">include/d/com/d_com</text>
<text text-anchor="middle" x="2884.5" y="-150" font-family="Helvetica,sans-Serif" font-size="10.00">_inf_game.h</text>
</a>
</g>
</g>
<!-- Node3&#45;&gt;Node4 -->
<g id="edge3" class="edge">
<title>Node3&#45;&gt;Node4</title>
<path fill="none" stroke="#63b8ff" d="M3810,-213.41C3622.64,-202.4 3109.75,-172.24 2939.93,-162.26"/>
<polygon fill="#63b8ff" stroke="#63b8ff" points="3809.64,-216.9 3819.83,-213.99 3810.05,-209.91 3809.64,-216.9"/>
</g>
<!-- Node14 -->
<g id="node9" class="node">
<title>Node14</title>
<g id="a_node9"><a xlink:href="d__a__alink_8cpp.html" target="_top" xlink:title=" ">
<polygon fill="white" stroke="#666666" points="3814,-24.5 3705,-24.5 3705,-5.5 3814,-5.5 3814,-24.5"/>
<text text-anchor="middle" x="3759.5" y="-12.5" font-family="Helvetica,sans-Serif" font-size="10.00">src/d/a/d_a_alink.cpp</text>
</a>
</g>
</g>
<!-- Node3&#45;&gt;Node14 -->
<g id="edge60" class="edge">
<title>Node3&#45;&gt;Node14</title>
<path fill="none" stroke="#63b8ff" d="M3891.3,-198.85C3909.05,-168.18 3937.61,-106.47 3908.5,-66 3887.15,-36.32 3847.33,-24.01 3814.22,-19.02"/>
<polygon fill="#63b8ff" stroke="#63b8ff" points="3888.34,-196.99 3886.16,-207.35 3894.33,-200.61 3888.34,-196.99"/>
</g>
<!-- Node4&#45;&gt;Node1 -->
<g id="edge17" class="edge">
<title>Node4&#45;&gt;Node1</title>
<path fill="none" stroke="#63b8ff" d="M2950.87,-175.97C3096.76,-213.27 3441.14,-301.33 3551.69,-329.6"/>
<polygon fill="#63b8ff" stroke="#63b8ff" points="2951.9,-172.62 2941.35,-173.54 2950.17,-179.4 2951.9,-172.62"/>
</g>
<!-- Node5 -->
<g id="node5" class="node">
<title>Node5</title>
<g id="a_node5"><a xlink:href="d__a__npc_8h.html" target="_top" xlink:title=" ">
<polygon fill="#fff0f0" stroke="red" points="3899,-96 3788,-96 3788,-77 3899,-77 3899,-96"/>
<text text-anchor="middle" x="3843.5" y="-84" font-family="Helvetica,sans-Serif" font-size="10.00">include/d/a/d_a_npc.h</text>
</a>
</g>
</g>
<!-- Node4&#45;&gt;Node5 -->
<g id="edge4" class="edge">
<title>Node4&#45;&gt;Node5</title>
<path fill="none" stroke="#63b8ff" d="M2951.24,-155.11C3129.74,-149.76 3615.31,-133.17 3773.5,-107 3787.94,-104.61 3803.66,-100.38 3816.55,-96.47"/>
<polygon fill="#63b8ff" stroke="#63b8ff" points="2951.34,-151.61 2941.44,-155.4 2951.54,-158.6 2951.34,-151.61"/>
</g>
<!-- Node4&#45;&gt;Node10 -->
<g id="edge57" class="edge">
<title>Node4&#45;&gt;Node10</title>
<path fill="none" stroke="#63b8ff" d="M2951.41,-155.69C3172.72,-151.09 3869.32,-134.5 3908.5,-107 3933.86,-89.2 3942.36,-51.08 3945.16,-30.27"/>
<polygon fill="#63b8ff" stroke="#63b8ff" points="2951.43,-152.19 2941.5,-155.89 2951.57,-159.18 2951.43,-152.19"/>
</g>
<!-- Node11 -->
<g id="node7" class="node">
<title>Node11</title>
<g id="a_node7"><a xlink:href="d__cc__uty_8h.html" target="_top" xlink:title=" ">
<polygon fill="#fff0f0" stroke="red" points="2819,-96 2700,-96 2700,-77 2819,-77 2819,-96"/>
<text text-anchor="middle" x="2759.5" y="-84" font-family="Helvetica,sans-Serif" font-size="10.00">include/d/cc/d_cc_uty.h</text>
</a>
</g>
</g>
<!-- Node4&#45;&gt;Node11 -->
<g id="edge6" class="edge">
<title>Node4&#45;&gt;Node11</title>
<path fill="none" stroke="#63b8ff" d="M2848.7,-137.1C2824.54,-123.66 2793.83,-106.59 2775.47,-96.38"/>
<polygon fill="#63b8ff" stroke="#63b8ff" points="2846.84,-140.06 2857.28,-141.86 2850.24,-133.95 2846.84,-140.06"/>
</g>
<!-- Node17 -->
<g id="node8" class="node">
<title>Node17</title>
<g id="a_node8"><a xlink:href="d__item_8h.html" target="_top" xlink:title=" ">
<polygon fill="#fff0f0" stroke="red" points="2932,-96 2837,-96 2837,-77 2932,-77 2932,-96"/>
<text text-anchor="middle" x="2884.5" y="-84" font-family="Helvetica,sans-Serif" font-size="10.00">include/d/d_item.h</text>
</a>
</g>
</g>
<!-- Node4&#45;&gt;Node17 -->
<g id="edge7" class="edge">
<title>Node4&#45;&gt;Node17</title>
<path fill="none" stroke="#63b8ff" d="M2884.5,-131.46C2884.5,-119.07 2884.5,-104.99 2884.5,-96.18"/>
<polygon fill="#63b8ff" stroke="#63b8ff" points="2881,-131.09 2884.5,-141.09 2888,-131.09 2881,-131.09"/>
</g>
<!-- Node4&#45;&gt;Node14 -->
<g id="edge35" class="edge">
<title>Node4&#45;&gt;Node14</title>
<path fill="none" stroke="#63b8ff" d="M2951.19,-157.68C3142.16,-158.99 3681.26,-158.09 3740.5,-107 3764.58,-86.24 3762.85,-43.54 3760.77,-24.96"/>
<polygon fill="#63b8ff" stroke="#63b8ff" points="2951.47,-154.18 2941.44,-157.61 2951.41,-161.18 2951.47,-154.18"/>
</g>
<!-- Node18 -->
<g id="node10" class="node">
<title>Node18</title>
<g id="a_node10"><a xlink:href="d__a__obj__item_8cpp.html" target="_top" xlink:title=" ">
<polygon fill="white" stroke="#666666" points="3038,-24.5 2913,-24.5 2913,-5.5 3038,-5.5 3038,-24.5"/>
<text text-anchor="middle" x="2975.5" y="-12.5" font-family="Helvetica,sans-Serif" font-size="10.00">src/d/a/d_a_obj_item.cpp</text>
</a>
</g>
</g>
<!-- Node4&#45;&gt;Node18 -->
<g id="edge38" class="edge">
<title>Node4&#45;&gt;Node18</title>
<path fill="none" stroke="#63b8ff" d="M2951.07,-150.5C3007.17,-143.49 3081.16,-130.09 3099.5,-107 3110.83,-92.73 3109.69,-81.1 3099.5,-66 3084.76,-44.16 3058.72,-31.86 3034.29,-24.93"/>
<polygon fill="#63b8ff" stroke="#63b8ff" points="2950.77,-147.01 2941.26,-151.68 2951.6,-153.96 2950.77,-147.01"/>
</g>
<!-- Node4&#45;&gt;Node19 -->
<g id="edge44" class="edge">
<title>Node4&#45;&gt;Node19</title>
<path fill="none" stroke="#63b8ff" d="M2817.7,-157.06C2402.21,-157.31 187.91,-156.3 139.5,-107 119.23,-86.36 137.78,-50.43 150.97,-30.45"/>
<polygon fill="#63b8ff" stroke="#63b8ff" points="2817.66,-160.56 2827.66,-157.06 2817.66,-153.56 2817.66,-160.56"/>
</g>
<!-- Node22 -->
<g id="node13" class="node">
<title>Node22</title>
<g id="a_node13"><a xlink:href="d__kantera__icon__meter_8h.html" target="_top" xlink:title=" ">
<polygon fill="#fff0f0" stroke="red" points="3090,-101.5 2989,-101.5 2989,-71.5 3090,-71.5 3090,-101.5"/>
<text text-anchor="start" x="2997" y="-89.5" font-family="Helvetica,sans-Serif" font-size="10.00">include/d/d_kantera</text>
<text text-anchor="middle" x="3039.5" y="-78.5" font-family="Helvetica,sans-Serif" font-size="10.00">_icon_meter.h</text>
</a>
</g>
</g>
<!-- Node4&#45;&gt;Node22 -->
<g id="edge12" class="edge">
<title>Node4&#45;&gt;Node22</title>
<path fill="none" stroke="#63b8ff" d="M2927.07,-137.91C2952.45,-126.53 2984.16,-112.31 3007.43,-101.88"/>
<polygon fill="#63b8ff" stroke="#63b8ff" points="2925.69,-134.7 2918,-141.98 2928.55,-141.08 2925.69,-134.7"/>
</g>
<!-- Node25 -->
<g id="node14" class="node">
<title>Node25</title>
<g id="a_node14"><a xlink:href="d__model_8h.html" target="_top" xlink:title=" ">
<polygon fill="#fff0f0" stroke="red" points="3384,-96 3281,-96 3281,-77 3384,-77 3384,-96"/>
<text text-anchor="middle" x="3332.5" y="-84" font-family="Helvetica,sans-Serif" font-size="10.00">include/d/d_model.h</text>
</a>
</g>
</g>
<!-- Node4&#45;&gt;Node25 -->
<g id="edge13" class="edge">
<title>Node4&#45;&gt;Node25</title>
<path fill="none" stroke="#63b8ff" d="M2950.88,-152.1C3028.47,-145.53 3160.41,-131.72 3271.5,-107 3283.76,-104.27 3297.09,-100.15 3308.14,-96.4"/>
<polygon fill="#63b8ff" stroke="#63b8ff" points="2951.02,-148.58 2941.35,-152.89 2951.6,-155.55 2951.02,-148.58"/>
</g>
<!-- Node27 -->
<g id="node15" class="node">
<title>Node27</title>
<g id="a_node15"><a xlink:href="d__name_8h.html" target="_top" xlink:title=" ">
<polygon fill="#fff0f0" stroke="red" points="3503,-96 3402,-96 3402,-77 3503,-77 3503,-96"/>
<text text-anchor="middle" x="3452.5" y="-84" font-family="Helvetica,sans-Serif" font-size="10.00">include/d/d_name.h</text>
</a>
</g>
</g>
<!-- Node4&#45;&gt;Node27 -->
<g id="edge14" class="edge">
<title>Node4&#45;&gt;Node27</title>
<path fill="none" stroke="#63b8ff" d="M2951.21,-155.14C3049.15,-151.36 3237.19,-140.08 3393.5,-107 3405.53,-104.45 3418.55,-100.31 3429.29,-96.49"/>
<polygon fill="#63b8ff" stroke="#63b8ff" points="2951.09,-151.64 2941.23,-155.51 2951.35,-158.64 2951.09,-151.64"/>
</g>
<!-- Node29 -->
<g id="node16" class="node">
<title>Node29</title>
<g id="a_node16"><a xlink:href="d__file__sel__info_8h.html" target="_top" xlink:title=" ">
<polygon fill="#fff0f0" stroke="red" points="3617.5,-101.5 3521.5,-101.5 3521.5,-71.5 3617.5,-71.5 3617.5,-101.5"/>
<text text-anchor="start" x="3529.5" y="-89.5" font-family="Helvetica,sans-Serif" font-size="10.00">include/d/file/d_file</text>
<text text-anchor="middle" x="3569.5" y="-78.5" font-family="Helvetica,sans-Serif" font-size="10.00">_sel_info.h</text>
</a>
</g>
</g>
<!-- Node4&#45;&gt;Node29 -->
<g id="edge15" class="edge">
<title>Node4&#45;&gt;Node29</title>
<path fill="none" stroke="#63b8ff" d="M2951.2,-157.13C3066.75,-156.16 3311.12,-148.77 3512.5,-107 3518.75,-105.7 3525.25,-103.92 3531.54,-101.95"/>
<polygon fill="#63b8ff" stroke="#63b8ff" points="2951.24,-153.63 2941.27,-157.2 2951.29,-160.63 2951.24,-153.63"/>
</g>
<!-- Node32 -->
<g id="node17" class="node">
<title>Node32</title>
<g id="a_node17"><a xlink:href="d__file__sel__warning_8h.html" target="_top" xlink:title=" ">
<polygon fill="#fff0f0" stroke="red" points="3731.5,-101.5 3635.5,-101.5 3635.5,-71.5 3731.5,-71.5 3731.5,-101.5"/>
<text text-anchor="start" x="3643.5" y="-89.5" font-family="Helvetica,sans-Serif" font-size="10.00">include/d/file/d_file</text>
<text text-anchor="middle" x="3683.5" y="-78.5" font-family="Helvetica,sans-Serif" font-size="10.00">_sel_warning.h</text>
</a>
</g>
</g>
<!-- Node4&#45;&gt;Node32 -->
<g id="edge16" class="edge">
<title>Node4&#45;&gt;Node32</title>
<path fill="none" stroke="#63b8ff" d="M2951.25,-154.74C3108.44,-149.07 3498.3,-132.78 3626.5,-107 3632.86,-105.72 3639.48,-103.92 3645.86,-101.92"/>
<polygon fill="#63b8ff" stroke="#63b8ff" points="2951.28,-151.24 2941.41,-155.1 2951.53,-158.24 2951.28,-151.24"/>
</g>
<!-- Node34 -->
<g id="node18" class="node">
<title>Node34</title>
<g id="a_node18"><a xlink:href="d__msg__object_8h.html" target="_top" xlink:title=" ">
<polygon fill="#fff0f0" stroke="red" points="4141.5,-101.5 4031.5,-101.5 4031.5,-71.5 4141.5,-71.5 4141.5,-101.5"/>
<text text-anchor="start" x="4039.5" y="-89.5" font-family="Helvetica,sans-Serif" font-size="10.00">include/d/msg/d_msg</text>
<text text-anchor="middle" x="4086.5" y="-78.5" font-family="Helvetica,sans-Serif" font-size="10.00">_object.h</text>
</a>
</g>
</g>
<!-- Node4&#45;&gt;Node34 -->
<g id="edge18" class="edge">
<title>Node4&#45;&gt;Node34</title>
<path fill="none" stroke="#63b8ff" d="M2950.97,-155.85C3117.86,-152.53 3567.92,-140.89 3941.5,-107 3971.22,-104.3 4004.21,-99.97 4031.2,-96.08"/>
<polygon fill="#63b8ff" stroke="#63b8ff" points="2951.36,-152.34 2941.43,-156.04 2951.5,-159.34 2951.36,-152.34"/>
</g>
<!-- Node39 -->
<g id="node19" class="node">
<title>Node39</title>
<g id="a_node19"><a xlink:href="d__demo_8cpp.html" target="_top" xlink:title=" ">
<polygon fill="white" stroke="#666666" points="4133.5,-24.5 4039.5,-24.5 4039.5,-5.5 4133.5,-5.5 4133.5,-24.5"/>
<text text-anchor="middle" x="4086.5" y="-12.5" font-family="Helvetica,sans-Serif" font-size="10.00">src/d/d_demo.cpp</text>
</a>
</g>
</g>
<!-- Node4&#45;&gt;Node39 -->
<g id="edge49" class="edge">
<title>Node4&#45;&gt;Node39</title>
<path fill="none" stroke="#63b8ff" d="M2950.95,-156.9C3205.81,-156.18 4108.63,-150.56 4150.5,-107 4163.13,-93.86 4158.49,-82.38 4150.5,-66 4141.23,-46.99 4120.85,-33.09 4105.56,-24.84"/>
<polygon fill="#63b8ff" stroke="#63b8ff" points="2951.17,-153.4 2941.18,-156.92 2951.19,-160.4 2951.17,-153.4"/>
</g>
<!-- Node43 -->
<g id="node20" class="node">
<title>Node43</title>
<g id="a_node20"><a xlink:href="d__menu__window_8cpp.html" target="_top" xlink:title=" ">
<polygon fill="white" stroke="#666666" points="4311,-24.5 4152,-24.5 4152,-5.5 4311,-5.5 4311,-24.5"/>
<text text-anchor="middle" x="4231.5" y="-12.5" font-family="Helvetica,sans-Serif" font-size="10.00">src/d/menu/d_menu_window.cpp</text>
</a>
</g>
</g>
<!-- Node4&#45;&gt;Node43 -->
<g id="edge56" class="edge">
<title>Node4&#45;&gt;Node43</title>
<path fill="none" stroke="#63b8ff" d="M2951.16,-156.04C3206.91,-152.13 4113.72,-136.27 4167.5,-107 4201.26,-88.63 4221.21,-43.83 4228.42,-24.79"/>
<polygon fill="#63b8ff" stroke="#63b8ff" points="2951.3,-152.53 2941.35,-156.19 2951.4,-159.53 2951.3,-152.53"/>
</g>
<!-- Node44 -->
<g id="node21" class="node">
<title>Node44</title>
<g id="a_node21"><a xlink:href="d__meter__map_8cpp.html" target="_top" xlink:title=" ">
<polygon fill="white" stroke="#666666" points="4987.5,-30 4883.5,-30 4883.5,0 4987.5,0 4987.5,-30"/>
<text text-anchor="start" x="4891.5" y="-18" font-family="Helvetica,sans-Serif" font-size="10.00">src/d/meter/d_meter</text>
<text text-anchor="middle" x="4935.5" y="-7" font-family="Helvetica,sans-Serif" font-size="10.00">_map.cpp</text>
</a>
</g>
</g>
<!-- Node4&#45;&gt;Node44 -->
<g id="edge58" class="edge">
<title>Node4&#45;&gt;Node44</title>
<path fill="none" stroke="#63b8ff" d="M2951.37,-157.09C3288.94,-157.34 4793.07,-155.7 4878.5,-107 4907.98,-90.2 4924.35,-51.29 4931.35,-30.2"/>
<polygon fill="#63b8ff" stroke="#63b8ff" points="2951.38,-153.59 2941.37,-157.09 2951.37,-160.59 2951.38,-153.59"/>
</g>
<!-- Node50 -->
<g id="node22" class="node">
<title>Node50</title>
<g id="a_node22"><a xlink:href="d__s__logo_8h.html" target="_top" xlink:title=" ">
<polygon fill="#fff0f0" stroke="red" points="4349,-96 4236,-96 4236,-77 4349,-77 4349,-96"/>
<text text-anchor="middle" x="4292.5" y="-84" font-family="Helvetica,sans-Serif" font-size="10.00">include/d/s/d_s_logo.h</text>
</a>
</g>
</g>
<!-- Node4&#45;&gt;Node50 -->
<g id="edge24" class="edge">
<title>Node4&#45;&gt;Node50</title>
<path fill="none" stroke="#63b8ff" d="M2951.31,-156.54C3186.11,-154.59 3972.59,-145.31 4221.5,-107 4236.28,-104.72 4252.38,-100.46 4265.51,-96.49"/>
<polygon fill="#63b8ff" stroke="#63b8ff" points="2951.38,-153.04 2941.41,-156.62 2951.44,-160.04 2951.38,-153.04"/>
</g>
<!-- Node52 -->
<g id="node23" class="node">
<title>Node52</title>
<g id="a_node23"><a xlink:href="d__s__play_8h.html" target="_top" xlink:title=" ">
<polygon fill="#fff0f0" stroke="red" points="4480,-96 4367,-96 4367,-77 4480,-77 4480,-96"/>
<text text-anchor="middle" x="4423.5" y="-84" font-family="Helvetica,sans-Serif" font-size="10.00">include/d/s/d_s_play.h</text>
</a>
</g>
</g>
<!-- Node4&#45;&gt;Node52 -->
<g id="edge25" class="edge">
<title>Node4&#45;&gt;Node52</title>
<path fill="none" stroke="#63b8ff" d="M2951.4,-157.01C3201.6,-156.71 4082.11,-152.36 4358.5,-107 4372.22,-104.75 4387.1,-100.43 4399.16,-96.43"/>
<polygon fill="#63b8ff" stroke="#63b8ff" points="2951.47,-153.51 2941.48,-157.02 2951.48,-160.51 2951.47,-153.51"/>
</g>
<!-- Node56 -->
<g id="node24" class="node">
<title>Node56</title>
<g id="a_node24"><a xlink:href="d__msg__scrn__base_8h.html" target="_top" xlink:title=" ">
<polygon fill="#fff0f0" stroke="red" points="4597,-101.5 4498,-101.5 4498,-71.5 4597,-71.5 4597,-101.5"/>
<text text-anchor="start" x="4506" y="-89.5" font-family="Helvetica,sans-Serif" font-size="10.00">include/msg/scrn/d</text>
<text text-anchor="middle" x="4547.5" y="-78.5" font-family="Helvetica,sans-Serif" font-size="10.00">_msg_scrn_base.h</text>
</a>
</g>
</g>
<!-- Node4&#45;&gt;Node56 -->
<g id="edge26" class="edge">
<title>Node4&#45;&gt;Node56</title>
<path fill="none" stroke="#63b8ff" d="M2951.29,-156.07C3235.51,-151.97 4336.76,-134.44 4489.5,-107 4496.19,-105.8 4503.16,-103.98 4509.85,-101.92"/>
<polygon fill="#63b8ff" stroke="#63b8ff" points="2951.41,-152.57 2941.46,-156.21 2951.51,-159.57 2951.41,-152.57"/>
</g>
<!-- Node60 -->
<g id="node25" class="node">
<title>Node60</title>
<g id="a_node25"><a xlink:href="d__a__b__zant_8h.html" target="_top" xlink:title=" ">
<polygon fill="white" stroke="#666666" points="4736,-101.5 4615,-101.5 4615,-71.5 4736,-71.5 4736,-101.5"/>
<text text-anchor="start" x="4623" y="-89.5" font-family="Helvetica,sans-Serif" font-size="10.00">include/rel/d/a/b/d</text>
<text text-anchor="middle" x="4675.5" y="-78.5" font-family="Helvetica,sans-Serif" font-size="10.00">_a_b_zant/d_a_b_zant.h</text>
</a>
</g>
</g>
<!-- Node4&#45;&gt;Node60 -->
<g id="edge27" class="edge">
<title>Node4&#45;&gt;Node60</title>
<path fill="none" stroke="#63b8ff" d="M2951.34,-157.26C3227.3,-157.97 4278.81,-157.27 4606.5,-107 4614.37,-105.79 4622.62,-103.97 4630.57,-101.91"/>
<polygon fill="#63b8ff" stroke="#63b8ff" points="2951.46,-153.76 2941.45,-157.23 2951.44,-160.76 2951.46,-153.76"/>
</g>
<!-- Node61 -->
<g id="node26" class="node">
<title>Node61</title>
<g id="a_node26"><a xlink:href="d__a__skip__2D_8h.html" target="_top" xlink:title=" ">
<polygon fill="white" stroke="#666666" points="272.5,-101.5 148.5,-101.5 148.5,-71.5 272.5,-71.5 272.5,-101.5"/>
<text text-anchor="start" x="156.5" y="-89.5" font-family="Helvetica,sans-Serif" font-size="10.00">include/rel/d/a/d_a</text>
<text text-anchor="middle" x="210.5" y="-78.5" font-family="Helvetica,sans-Serif" font-size="10.00">_skip_2D/d_a_skip_2D.h</text>
</a>
</g>
</g>
<!-- Node4&#45;&gt;Node61 -->
<g id="edge28" class="edge">
<title>Node4&#45;&gt;Node61</title>
<path fill="none" stroke="#63b8ff" d="M2817.63,-156.71C2435.76,-154.92 538.78,-144.21 281.5,-107 273.4,-105.83 264.92,-104.02 256.74,-101.98"/>
<polygon fill="#63b8ff" stroke="#63b8ff" points="2817.48,-160.21 2827.5,-156.76 2817.51,-153.21 2817.48,-160.21"/>
</g>
<!-- Node62 -->
<g id="node27" class="node">
<title>Node62</title>
<g id="a_node27"><a xlink:href="d__a__spinner_8h.html" target="_top" xlink:title=" ">
<polygon fill="white" stroke="#666666" points="3262.5,-101.5 3146.5,-101.5 3146.5,-71.5 3262.5,-71.5 3262.5,-101.5"/>
<text text-anchor="start" x="3154.5" y="-89.5" font-family="Helvetica,sans-Serif" font-size="10.00">include/rel/d/a/d_a</text>
<text text-anchor="middle" x="3204.5" y="-78.5" font-family="Helvetica,sans-Serif" font-size="10.00">_spinner/d_a_spinner.h</text>
</a>
</g>
</g>
<!-- Node4&#45;&gt;Node62 -->
<g id="edge29" class="edge">
<title>Node4&#45;&gt;Node62</title>
<path fill="none" stroke="#63b8ff" d="M2950.89,-144.84C3000.98,-135.37 3071.3,-121.44 3132.5,-107 3139.05,-105.45 3145.92,-103.73 3152.69,-101.97"/>
<polygon fill="#63b8ff" stroke="#63b8ff" points="2950.55,-141.34 2941.37,-146.63 2951.85,-148.22 2950.55,-141.34"/>
</g>
<!-- Node63 -->
<g id="node28" class="node">
<title>Node63</title>
<g id="a_node28"><a xlink:href="d__a__player_8cpp.html" target="_top" xlink:title=" ">
<polygon fill="white" stroke="#666666" points="3216.5,-24.5 3102.5,-24.5 3102.5,-5.5 3216.5,-5.5 3216.5,-24.5"/>
<text text-anchor="middle" x="3159.5" y="-12.5" font-family="Helvetica,sans-Serif" font-size="10.00">src/d/a/d_a_player.cpp</text>
</a>
</g>
</g>
<!-- Node4&#45;&gt;Node63 -->
<g id="edge39" class="edge">
<title>Node4&#45;&gt;Node63</title>
<path fill="none" stroke="#63b8ff" d="M2909.52,-135.44C2919.34,-126.77 2930.61,-116.58 2940.5,-107 2958.56,-89.5 2957.94,-78.94 2979.5,-66 3017.04,-43.46 3065.04,-30.79 3102.03,-23.85"/>
<polygon fill="#63b8ff" stroke="#63b8ff" points="2907.35,-132.69 2902.13,-141.9 2911.96,-137.95 2907.35,-132.69"/>
</g>
<!-- Node64 -->
<g id="node29" class="node">
<title>Node64</title>
<g id="a_node29"><a xlink:href="d__a__obj__yobikusa_8h.html" target="_top" xlink:title=" ">
<polygon fill="white" stroke="#666666" points="396,-107 291,-107 291,-66 396,-66 396,-107"/>
<text text-anchor="start" x="299" y="-95" font-family="Helvetica,sans-Serif" font-size="10.00">include/rel/d/a/obj</text>
<text text-anchor="start" x="299" y="-84" font-family="Helvetica,sans-Serif" font-size="10.00">/d_a_obj_yobikusa/d</text>
<text text-anchor="middle" x="343.5" y="-73" font-family="Helvetica,sans-Serif" font-size="10.00">_a_obj_yobikusa.h</text>
</a>
</g>
</g>
<!-- Node4&#45;&gt;Node64 -->
<g id="edge32" class="edge">
<title>Node4&#45;&gt;Node64</title>
<path fill="none" stroke="#63b8ff" d="M2817.86,-156.79C2447.36,-155.45 649.17,-146.93 405.5,-107 402.49,-106.51 399.43,-105.9 396.36,-105.21"/>
<polygon fill="#63b8ff" stroke="#63b8ff" points="2817.64,-160.29 2827.65,-156.82 2817.66,-153.29 2817.64,-160.29"/>
</g>
<!-- Node65 -->
<g id="node30" class="node">
<title>Node65</title>
<g id="a_node30"><a xlink:href="d__a__tag__telop_8h.html" target="_top" xlink:title=" ">
<polygon fill="white" stroke="#666666" points="532.5,-107 414.5,-107 414.5,-66 532.5,-66 532.5,-107"/>
<text text-anchor="start" x="422.5" y="-95" font-family="Helvetica,sans-Serif" font-size="10.00">include/rel/d/a/tag</text>
<text text-anchor="start" x="422.5" y="-84" font-family="Helvetica,sans-Serif" font-size="10.00">/d_a_tag_telop/d_a_tag</text>
<text text-anchor="middle" x="473.5" y="-73" font-family="Helvetica,sans-Serif" font-size="10.00">_telop.h</text>
</a>
</g>
</g>
<!-- Node4&#45;&gt;Node65 -->
<g id="edge33" class="edge">
<title>Node4&#45;&gt;Node65</title>
<path fill="none" stroke="#63b8ff" d="M2817.56,-156.6C2458.8,-154.32 771.39,-141.82 541.5,-107 538.59,-106.56 535.62,-106.03 532.64,-105.43"/>
<polygon fill="#63b8ff" stroke="#63b8ff" points="2817.48,-160.1 2827.5,-156.66 2817.53,-153.1 2817.48,-160.1"/>
</g>
<!-- Node66 -->
<g id="node31" class="node">
<title>Node66</title>
<g id="a_node31"><a xlink:href="c__dylink_8cpp.html" target="_top" xlink:title=" ">
<polygon fill="white" stroke="#666666" points="646,-96 551,-96 551,-77 646,-77 646,-96"/>
<text text-anchor="middle" x="598.5" y="-84" font-family="Helvetica,sans-Serif" font-size="10.00">src/c/c_dylink.cpp</text>
</a>
</g>
</g>
<!-- Node4&#45;&gt;Node66 -->
<g id="edge34" class="edge">
<title>Node4&#45;&gt;Node66</title>
<path fill="none" stroke="#63b8ff" d="M2817.73,-156.72C2469.85,-155.11 872.64,-145.62 655.5,-107 643.25,-104.82 630.07,-100.45 619.47,-96.4"/>
<polygon fill="#63b8ff" stroke="#63b8ff" points="2817.56,-160.22 2827.58,-156.77 2817.6,-153.22 2817.56,-160.22"/>
</g>
<!-- Node67 -->
<g id="node32" class="node">
<title>Node67</title>
<g id="a_node32"><a xlink:href="d__a__itembase_8cpp.html" target="_top" xlink:title=" ">
<polygon fill="white" stroke="#666666" points="792.5,-96 664.5,-96 664.5,-77 792.5,-77 792.5,-96"/>
<text text-anchor="middle" x="728.5" y="-84" font-family="Helvetica,sans-Serif" font-size="10.00">src/d/a/d_a_itembase.cpp</text>
</a>
</g>
</g>
<!-- Node4&#45;&gt;Node67 -->
<g id="edge36" class="edge">
<title>Node4&#45;&gt;Node67</title>
<path fill="none" stroke="#63b8ff" d="M2817.63,-156.34C2483.67,-152.9 1004.59,-136.14 801.5,-107 786.18,-104.8 769.47,-100.49 755.91,-96.47"/>
<polygon fill="#63b8ff" stroke="#63b8ff" points="2817.47,-159.84 2827.5,-156.44 2817.54,-152.84 2817.47,-159.84"/>
</g>
<!-- Node68 -->
<g id="node33" class="node">
<title>Node68</title>
<g id="a_node33"><a xlink:href="d__a__obj_8cpp.html" target="_top" xlink:title=" ">
<polygon fill="white" stroke="#666666" points="912,-96 811,-96 811,-77 912,-77 912,-96"/>
<text text-anchor="middle" x="861.5" y="-84" font-family="Helvetica,sans-Serif" font-size="10.00">src/d/a/d_a_obj.cpp</text>
</a>
</g>
</g>
<!-- Node4&#45;&gt;Node68 -->
<g id="edge37" class="edge">
<title>Node4&#45;&gt;Node68</title>
<path fill="none" stroke="#63b8ff" d="M2817.59,-156.44C2495.35,-153.59 1111.31,-139.55 921.5,-107 908.76,-104.82 895.02,-100.5 883.9,-96.49"/>
<polygon fill="#63b8ff" stroke="#63b8ff" points="2817.5,-159.94 2827.53,-156.53 2817.56,-152.94 2817.5,-159.94"/>
</g>
<!-- Node69 -->
<g id="node34" class="node">
<title>Node69</title>
<g id="a_node34"><a xlink:href="d__bg__s_8cpp.html" target="_top" xlink:title=" ">
<polygon fill="white" stroke="#666666" points="1034.5,-96 930.5,-96 930.5,-77 1034.5,-77 1034.5,-96"/>
<text text-anchor="middle" x="982.5" y="-84" font-family="Helvetica,sans-Serif" font-size="10.00">src/d/bg/d_bg_s.cpp</text>
</a>
</g>
</g>
<!-- Node4&#45;&gt;Node69 -->
<g id="edge40" class="edge">
<title>Node4&#45;&gt;Node69</title>
<path fill="none" stroke="#63b8ff" d="M2817.78,-156.3C2508.37,-152.92 1220.8,-137.12 1043.5,-107 1030.57,-104.8 1016.6,-100.49 1005.29,-96.47"/>
<polygon fill="#63b8ff" stroke="#63b8ff" points="2817.67,-159.8 2827.71,-156.41 2817.75,-152.8 2817.67,-159.8"/>
</g>
<!-- Node70 -->
<g id="node35" class="node">
<title>Node70</title>
<g id="a_node35"><a xlink:href="d__bg__s__movebg__actor_8cpp.html" target="_top" xlink:title=" ">
<polygon fill="white" stroke="#666666" points="1178.5,-101.5 1052.5,-101.5 1052.5,-71.5 1178.5,-71.5 1178.5,-101.5"/>
<text text-anchor="start" x="1060.5" y="-89.5" font-family="Helvetica,sans-Serif" font-size="10.00">src/d/bg/d_bg_s_movebg</text>
<text text-anchor="middle" x="1115.5" y="-78.5" font-family="Helvetica,sans-Serif" font-size="10.00">_actor.cpp</text>
</a>
</g>
</g>
<!-- Node4&#45;&gt;Node70 -->
<g id="edge41" class="edge">
<title>Node4&#45;&gt;Node70</title>
<path fill="none" stroke="#63b8ff" d="M2817.73,-157.13C2544.44,-157.31 1510.33,-154.79 1187.5,-107 1179.3,-105.79 1170.7,-103.96 1162.41,-101.9"/>
<polygon fill="#63b8ff" stroke="#63b8ff" points="2817.52,-160.63 2827.52,-157.12 2817.52,-153.63 2817.52,-160.63"/>
</g>
<!-- Node71 -->
<g id="node36" class="node">
<title>Node71</title>
<g id="a_node36"><a xlink:href="d__bg__w_8cpp.html" target="_top" xlink:title=" ">
<polygon fill="white" stroke="#666666" points="1304,-96 1197,-96 1197,-77 1304,-77 1304,-96"/>
<text text-anchor="middle" x="1250.5" y="-84" font-family="Helvetica,sans-Serif" font-size="10.00">src/d/bg/d_bg_w.cpp</text>
</a>
</g>
</g>
<!-- Node4&#45;&gt;Node71 -->
<g id="edge42" class="edge">
<title>Node4&#45;&gt;Node71</title>
<path fill="none" stroke="#63b8ff" d="M2817.96,-157.25C2557.87,-157.88 1609.68,-156.62 1313.5,-107 1300.18,-104.77 1285.75,-100.45 1274.07,-96.44"/>
<polygon fill="#63b8ff" stroke="#63b8ff" points="2817.6,-160.75 2827.59,-157.23 2817.58,-153.75 2817.6,-160.75"/>
</g>
<!-- Node72 -->
<g id="node37" class="node">
<title>Node72</title>
<g id="a_node37"><a xlink:href="d__cc__s_8cpp.html" target="_top" xlink:title=" ">
<polygon fill="white" stroke="#666666" points="1426.5,-96 1322.5,-96 1322.5,-77 1426.5,-77 1426.5,-96"/>
<text text-anchor="middle" x="1374.5" y="-84" font-family="Helvetica,sans-Serif" font-size="10.00">src/d/cc/d_cc_s.cpp</text>
</a>
</g>
</g>
<!-- Node4&#45;&gt;Node72 -->
<g id="edge43" class="edge">
<title>Node4&#45;&gt;Node72</title>
<path fill="none" stroke="#63b8ff" d="M2817.88,-157.12C2570.7,-157.21 1706.48,-154.06 1435.5,-107 1422.57,-104.76 1408.6,-100.44 1397.3,-96.43"/>
<polygon fill="#63b8ff" stroke="#63b8ff" points="2817.67,-160.62 2827.67,-157.12 2817.66,-153.62 2817.67,-160.62"/>
</g>
<!-- Node73 -->
<g id="node38" class="node">
<title>Node73</title>
<g id="a_node38"><a xlink:href="d__com__static_8cpp.html" target="_top" xlink:title=" ">
<polygon fill="white" stroke="#666666" points="1584.5,-96 1444.5,-96 1444.5,-77 1584.5,-77 1584.5,-96"/>
<text text-anchor="middle" x="1514.5" y="-84" font-family="Helvetica,sans-Serif" font-size="10.00">src/d/com/d_com_static.cpp</text>
</a>
</g>
</g>
<!-- Node4&#45;&gt;Node73 -->
<g id="edge45" class="edge">
<title>Node4&#45;&gt;Node73</title>
<path fill="none" stroke="#63b8ff" d="M2817.74,-156.21C2588.36,-153.2 1833.49,-140.91 1593.5,-107 1577.13,-104.69 1559.23,-100.42 1544.6,-96.46"/>
<polygon fill="#63b8ff" stroke="#63b8ff" points="2817.66,-159.71 2827.71,-156.34 2817.75,-152.71 2817.66,-159.71"/>
</g>
<!-- Node74 -->
<g id="node39" class="node">
<title>Node74</title>
<g id="a_node39"><a xlink:href="d__attention_8cpp.html" target="_top" xlink:title=" ">
<polygon fill="white" stroke="#666666" points="1710,-96 1603,-96 1603,-77 1710,-77 1710,-96"/>
<text text-anchor="middle" x="1656.5" y="-84" font-family="Helvetica,sans-Serif" font-size="10.00">src/d/d_attention.cpp</text>
</a>
</g>
</g>
<!-- Node4&#45;&gt;Node74 -->
<g id="edge46" class="edge">
<title>Node4&#45;&gt;Node74</title>
<path fill="none" stroke="#63b8ff" d="M2817.7,-156.43C2602.97,-154.23 1931.97,-144.48 1718.5,-107 1705.5,-104.72 1691.43,-100.45 1679.99,-96.48"/>
<polygon fill="#63b8ff" stroke="#63b8ff" points="2817.54,-159.93 2827.57,-156.53 2817.61,-152.93 2817.54,-159.93"/>
</g>
<!-- Node75 -->
<g id="node40" class="node">
<title>Node75</title>
<g id="a_node40"><a xlink:href="d__cam__param_8cpp.html" target="_top" xlink:title=" ">
<polygon fill="white" stroke="#666666" points="1849,-96 1728,-96 1728,-77 1849,-77 1849,-96"/>
<text text-anchor="middle" x="1788.5" y="-84" font-family="Helvetica,sans-Serif" font-size="10.00">src/d/d_cam_param.cpp</text>
</a>
</g>
</g>
<!-- Node4&#45;&gt;Node75 -->
<g id="edge47" class="edge">
<title>Node4&#45;&gt;Node75</title>
<path fill="none" stroke="#63b8ff" d="M2817.88,-155.69C2621.05,-151.52 2044.28,-137.02 1858.5,-107 1843.93,-104.65 1828.06,-100.37 1815.11,-96.42"/>
<polygon fill="#63b8ff" stroke="#63b8ff" points="2817.6,-159.19 2827.68,-155.9 2817.75,-152.19 2817.6,-159.19"/>
</g>
<!-- Node76 -->
<g id="node41" class="node">
<title>Node76</title>
<g id="a_node41"><a xlink:href="d__camera_8cpp.html" target="_top" xlink:title=" ">
<polygon fill="white" stroke="#666666" points="1969.5,-96 1867.5,-96 1867.5,-77 1969.5,-77 1969.5,-96"/>
<text text-anchor="middle" x="1918.5" y="-84" font-family="Helvetica,sans-Serif" font-size="10.00">src/d/d_camera.cpp</text>
</a>
</g>
</g>
<!-- Node4&#45;&gt;Node76 -->
<g id="edge48" class="edge">
<title>Node4&#45;&gt;Node76</title>
<path fill="none" stroke="#63b8ff" d="M2817.7,-155.55C2636.68,-151.28 2139.5,-137.08 1978.5,-107 1965.9,-104.65 1952.29,-100.37 1941.22,-96.42"/>
<polygon fill="#63b8ff" stroke="#63b8ff" points="2817.57,-159.05 2827.65,-155.79 2817.73,-152.05 2817.57,-159.05"/>
</g>
<!-- Node77 -->
<g id="node42" class="node">
<title>Node77</title>
<g id="a_node42"><a xlink:href="d__eye__hl_8cpp.html" target="_top" xlink:title=" ">
<polygon fill="white" stroke="#666666" points="2085.5,-96 1987.5,-96 1987.5,-77 2085.5,-77 2085.5,-96"/>
<text text-anchor="middle" x="2036.5" y="-84" font-family="Helvetica,sans-Serif" font-size="10.00">src/d/d_eye_hl.cpp</text>
</a>
</g>
</g>
<!-- Node4&#45;&gt;Node77 -->
<g id="edge50" class="edge">
<title>Node4&#45;&gt;Node77</title>
<path fill="none" stroke="#63b8ff" d="M2817.82,-155.02C2653.46,-149.77 2232.29,-134.04 2094.5,-107 2082.41,-104.63 2069.37,-100.4 2058.72,-96.49"/>
<polygon fill="#63b8ff" stroke="#63b8ff" points="2817.58,-158.51 2827.69,-155.33 2817.8,-151.51 2817.58,-158.51"/>
</g>
<!-- Node78 -->
<g id="node43" class="node">
<title>Node78</title>
<g id="a_node43"><a xlink:href="d__kyeff_8cpp.html" target="_top" xlink:title=" ">
<polygon fill="white" stroke="#666666" points="2193.5,-96 2103.5,-96 2103.5,-77 2193.5,-77 2193.5,-96"/>
<text text-anchor="middle" x="2148.5" y="-84" font-family="Helvetica,sans-Serif" font-size="10.00">src/d/d_kyeff.cpp</text>
</a>
</g>
</g>
<!-- Node4&#45;&gt;Node78 -->
<g id="edge51" class="edge">
<title>Node4&#45;&gt;Node78</title>
<path fill="none" stroke="#63b8ff" d="M2817.9,-154.43C2670.12,-148.36 2318.71,-131.75 2202.5,-107 2191.19,-104.59 2179.04,-100.36 2169.14,-96.46"/>
<polygon fill="#63b8ff" stroke="#63b8ff" points="2817.38,-157.92 2827.51,-154.83 2817.66,-150.92 2817.38,-157.92"/>
</g>
<!-- Node79 -->
<g id="node44" class="node">
<title>Node79</title>
<g id="a_node44"><a xlink:href="d__path_8cpp.html" target="_top" xlink:title=" ">
<polygon fill="white" stroke="#666666" points="2301,-96 2212,-96 2212,-77 2301,-77 2301,-96"/>
<text text-anchor="middle" x="2256.5" y="-84" font-family="Helvetica,sans-Serif" font-size="10.00">src/d/d_path.cpp</text>
</a>
</g>
</g>
<!-- Node4&#45;&gt;Node79 -->
<g id="edge52" class="edge">
<title>Node4&#45;&gt;Node79</title>
<path fill="none" stroke="#63b8ff" d="M2817.83,-156.77C2709.96,-155.16 2491,-146.74 2310.5,-107 2299.31,-104.54 2287.27,-100.35 2277.41,-96.49"/>
<polygon fill="#63b8ff" stroke="#63b8ff" points="2817.62,-160.27 2827.66,-156.9 2817.71,-153.27 2817.62,-160.27"/>
</g>
<!-- Node80 -->
<g id="node45" class="node">
<title>Node80</title>
<g id="a_node45"><a xlink:href="d__resorce_8cpp.html" target="_top" xlink:title=" ">
<polygon fill="white" stroke="#666666" points="2421.5,-96 2319.5,-96 2319.5,-77 2421.5,-77 2421.5,-96"/>
<text text-anchor="middle" x="2370.5" y="-84" font-family="Helvetica,sans-Serif" font-size="10.00">src/d/d_resorce.cpp</text>
</a>
</g>
</g>
<!-- Node4&#45;&gt;Node80 -->
<g id="edge53" class="edge">
<title>Node4&#45;&gt;Node80</title>
<path fill="none" stroke="#63b8ff" d="M2817.77,-153.93C2728.64,-148.85 2566.22,-136.21 2430.5,-107 2418.29,-104.37 2405.06,-100.22 2394.13,-96.42"/>
<polygon fill="#63b8ff" stroke="#63b8ff" points="2817.37,-157.41 2827.55,-154.47 2817.76,-150.42 2817.37,-157.41"/>
</g>
<!-- Node81 -->
<g id="node46" class="node">
<title>Node81</title>
<g id="a_node46"><a xlink:href="d__simple__model_8cpp.html" target="_top" xlink:title=" ">
<polygon fill="white" stroke="#666666" points="2569.5,-96 2439.5,-96 2439.5,-77 2569.5,-77 2569.5,-96"/>
<text text-anchor="middle" x="2504.5" y="-84" font-family="Helvetica,sans-Serif" font-size="10.00">src/d/d_simple_model.cpp</text>
</a>
</g>
</g>
<!-- Node4&#45;&gt;Node81 -->
<g id="edge54" class="edge">
<title>Node4&#45;&gt;Node81</title>
<path fill="none" stroke="#63b8ff" d="M2817.98,-148C2755.76,-139.15 2660.4,-124.44 2578.5,-107 2564.34,-103.98 2548.82,-100 2535.67,-96.42"/>
<polygon fill="#63b8ff" stroke="#63b8ff" points="2817.31,-151.44 2827.7,-149.38 2818.29,-144.51 2817.31,-151.44"/>
</g>
<!-- Node82 -->
<g id="node47" class="node">
<title>Node82</title>
<g id="a_node47"><a xlink:href="d__stage_8cpp.html" target="_top" xlink:title=" ">
<polygon fill="white" stroke="#666666" points="2681.5,-96 2587.5,-96 2587.5,-77 2681.5,-77 2681.5,-96"/>
<text text-anchor="middle" x="2634.5" y="-84" font-family="Helvetica,sans-Serif" font-size="10.00">src/d/d_stage.cpp</text>
</a>
</g>
</g>
<!-- Node4&#45;&gt;Node82 -->
<g id="edge55" class="edge">
<title>Node4&#45;&gt;Node82</title>
<path fill="none" stroke="#63b8ff" d="M2818.54,-141.44C2780.83,-132.18 2732.77,-119.78 2690.5,-107 2680.05,-103.84 2668.66,-99.96 2658.89,-96.49"/>
<polygon fill="#63b8ff" stroke="#63b8ff" points="2817.38,-144.76 2827.92,-143.73 2819.04,-137.96 2817.38,-144.76"/>
</g>
<!-- Node4&#45;&gt;Node95 -->
<g id="edge59" class="edge">
<title>Node4&#45;&gt;Node95</title>
<path fill="none" stroke="#63b8ff" d="M2950.96,-156.24C3261.92,-152.54 4565.76,-135.47 4745.5,-107 4759.43,-104.79 4774.54,-100.48 4786.78,-96.47"/>
<polygon fill="#63b8ff" stroke="#63b8ff" points="2951.36,-152.73 2941.4,-156.35 2951.44,-159.73 2951.36,-152.73"/>
</g>
<!-- Node5&#45;&gt;Node10 -->
<g id="edge5" class="edge">
<title>Node5&#45;&gt;Node10</title>
<path fill="none" stroke="#63b8ff" d="M3866.06,-70.28C3883.7,-58.37 3908.07,-41.93 3925.35,-30.27"/>
<polygon fill="#63b8ff" stroke="#63b8ff" points="3864.13,-67.36 3857.8,-75.85 3868.05,-73.16 3864.13,-67.36"/>
</g>
<!-- Node17&#45;&gt;Node14 -->
<g id="edge8" class="edge">
<title>Node17&#45;&gt;Node14</title>
<path fill="none" stroke="#63b8ff" d="M2933.17,-74.16C2947.98,-71.08 2964.34,-68.03 2979.5,-66 3250.17,-29.72 3577.32,-19.58 3704.87,-16.9"/>
<polygon fill="#63b8ff" stroke="#63b8ff" points="2932.73,-70.68 2923.68,-76.19 2934.19,-77.52 2932.73,-70.68"/>
</g>
<!-- Node17&#45;&gt;Node18 -->
<g id="edge9" class="edge">
<title>Node17&#45;&gt;Node18</title>
<path fill="none" stroke="#63b8ff" d="M2904.7,-70.08C2922.84,-56.22 2948.86,-36.35 2963.78,-24.95"/>
<polygon fill="#63b8ff" stroke="#63b8ff" points="2903.05,-66.93 2897.23,-75.78 2907.3,-72.49 2903.05,-66.93"/>
</g>
<!-- Node17&#45;&gt;Node19 -->
<g id="edge10" class="edge">
<title>Node17&#45;&gt;Node19</title>
<path fill="none" stroke="#63b8ff" d="M2852.95,-72.76C2844.79,-70.01 2835.93,-67.48 2827.5,-66 2561.92,-19.27 571.31,-16.18 215.76,-16.01"/>
<polygon fill="#63b8ff" stroke="#63b8ff" points="2851.51,-75.96 2862.11,-76.06 2853.89,-69.38 2851.51,-75.96"/>
</g>
<!-- Node17&#45;&gt;Node20 -->
<g id="edge11" class="edge">
<title>Node17&#45;&gt;Node20</title>
<path fill="none" stroke="#63b8ff" d="M2852.95,-72.73C2844.8,-69.98 2835.93,-67.46 2827.5,-66 2528.7,-14.28 399.05,-70.34 98.5,-30 90.34,-28.9 81.65,-26.99 73.67,-24.93"/>
<polygon fill="#63b8ff" stroke="#63b8ff" points="2851.52,-75.93 2862.11,-76.03 2853.89,-69.35 2851.52,-75.93"/>
</g>
<!-- Node34&#45;&gt;Node10 -->
<g id="edge22" class="edge">
<title>Node34&#45;&gt;Node10</title>
<path fill="none" stroke="#63b8ff" d="M4047.44,-66.11C4024.62,-54.78 3996.3,-40.72 3975.47,-30.38"/>
<polygon fill="#63b8ff" stroke="#63b8ff" points="4045.62,-69.11 4056.14,-70.43 4048.74,-62.85 4045.62,-69.11"/>
</g>
<!-- Node34&#45;&gt;Node14 -->
<g id="edge19" class="edge">
<title>Node34&#45;&gt;Node14</title>
<path fill="none" stroke="#63b8ff" d="M4026.37,-68.19C4023.38,-67.42 4020.41,-66.69 4017.5,-66 3947.15,-49.27 3865.01,-34.09 3812.65,-24.95"/>
<polygon fill="#63b8ff" stroke="#63b8ff" points="4025.23,-71.51 4035.79,-70.66 4027.01,-64.73 4025.23,-71.51"/>
</g>
<!-- Node34&#45;&gt;Node39 -->
<g id="edge20" class="edge">
<title>Node34&#45;&gt;Node39</title>
<path fill="none" stroke="#63b8ff" d="M4086.5,-59.96C4086.5,-47.57 4086.5,-33.49 4086.5,-24.68"/>
<polygon fill="#63b8ff" stroke="#63b8ff" points="4083,-59.59 4086.5,-69.59 4090,-59.59 4083,-59.59"/>
</g>
<!-- Node34&#45;&gt;Node43 -->
<g id="edge21" class="edge">
<title>Node34&#45;&gt;Node43</title>
<path fill="none" stroke="#63b8ff" d="M4126.9,-66.13C4155.09,-52.62 4191.39,-35.22 4212.98,-24.88"/>
<polygon fill="#63b8ff" stroke="#63b8ff" points="4125.41,-62.97 4117.91,-70.45 4128.44,-69.28 4125.41,-62.97"/>
</g>
<!-- Node34&#45;&gt;Node44 -->
<g id="edge23" class="edge">
<title>Node34&#45;&gt;Node44</title>
<path fill="none" stroke="#63b8ff" d="M4153.22,-75.34C4176.66,-72.02 4203.21,-68.53 4227.5,-66 4472.31,-40.46 4766.13,-24.33 4883.43,-18.48"/>
<polygon fill="#63b8ff" stroke="#63b8ff" points="4152.88,-71.85 4143.48,-76.74 4153.87,-78.78 4152.88,-71.85"/>
</g>
<!-- Node62&#45;&gt;Node14 -->
<g id="edge30" class="edge">
<title>Node62&#45;&gt;Node14</title>
<path fill="none" stroke="#63b8ff" d="M3261.65,-68.33C3265.3,-67.47 3268.94,-66.69 3272.5,-66 3427.51,-36.06 3613.97,-23.25 3704.63,-18.47"/>
<polygon fill="#63b8ff" stroke="#63b8ff" points="3261.01,-64.88 3252.16,-70.7 3262.71,-71.67 3261.01,-64.88"/>
</g>
<!-- Node62&#45;&gt;Node63 -->
<g id="edge31" class="edge">
<title>Node62&#45;&gt;Node63</title>
<path fill="none" stroke="#63b8ff" d="M3188.95,-61.49C3180.7,-48.74 3171.06,-33.86 3165.12,-24.68"/>
<polygon fill="#63b8ff" stroke="#63b8ff" points="3185.98,-63.34 3194.35,-69.83 3191.86,-59.53 3185.98,-63.34"/>
</g>
<!-- Node105&#45;&gt;Node2 -->
<g id="edge62" class="edge">
<title>Node105&#45;&gt;Node2</title>
<path fill="none" stroke="#63b8ff" d="M4654.62,-176.84C4603.1,-192.64 4521.15,-215.15 4448.5,-228 4283.56,-257.18 4085.79,-270.34 3986.23,-275.36"/>
<polygon fill="#63b8ff" stroke="#63b8ff" points="4655.49,-180.23 4664,-173.92 4653.42,-173.54 4655.49,-180.23"/>
</g>
<!-- Node105&#45;&gt;Node43 -->
<g id="edge63" class="edge">
<title>Node105&#45;&gt;Node43</title>
<path fill="none" stroke="#63b8ff" d="M4776.89,-145.26C4818.76,-136.75 4865.87,-123.8 4878.5,-107 4889.45,-92.44 4890.88,-79.37 4878.5,-66 4840.71,-25.18 4476.14,-17.58 4311.5,-16.24"/>
<polygon fill="#63b8ff" stroke="#63b8ff" points="4776.45,-141.78 4767.31,-147.14 4777.8,-148.65 4776.45,-141.78"/>
</g>
<!-- Node105&#45;&gt;Node44 -->
<g id="edge64" class="edge">
<title>Node105&#45;&gt;Node44</title>
<path fill="none" stroke="#63b8ff" d="M4777.04,-152.16C4841.05,-146.16 4928.03,-133.31 4949.5,-107 4967.39,-85.08 4953.85,-49.97 4943.79,-30.39"/>
<polygon fill="#63b8ff" stroke="#63b8ff" points="4776.93,-148.65 4767.28,-153.03 4777.55,-155.63 4776.93,-148.65"/>
</g>
</g>
</svg>
