<?xml version="1.0" encoding="UTF-8" standalone="no"?>
<!DOCTYPE svg PUBLIC "-//W3C//DTD SVG 1.1//EN"
 "http://www.w3.org/Graphics/SVG/1.1/DTD/svg11.dtd">
<!-- Generated by graphviz version 7.0.4 (20221203.1631)
 -->
<!-- Title: include/d/menu/d_menu_collect.h Pages: 1 -->
<svg width="5046pt" height="434pt"
 viewBox="0.00 0.00 5046.32 434.00" xmlns="http://www.w3.org/2000/svg" xmlns:xlink="http://www.w3.org/1999/xlink">
<g id="graph0" class="graph" transform="scale(1 1) rotate(0) translate(4 430)">
<title>include/d/menu/d_menu_collect.h</title>
<!-- Node1 -->
<g id="node1" class="node">
<title>Node1</title>
<g id="a_node1"><a xlink:title=" ">
<polygon fill="#999999" stroke="#666666" points="148.32,-426 28.32,-426 28.32,-396 148.32,-396 148.32,-426"/>
<text text-anchor="start" x="36.32" y="-414" font-family="Helvetica,sans-Serif" font-size="10.00">include/d/menu/d_menu</text>
<text text-anchor="middle" x="88.32" y="-403" font-family="Helvetica,sans-Serif" font-size="10.00">_collect.h</text>
</a>
</g>
</g>
<!-- Node2 -->
<g id="node2" class="node">
<title>Node2</title>
<g id="a_node2"><a xlink:href="d__menu__window_8h.html" target="_top" xlink:title=" ">
<polygon fill="white" stroke="#666666" points="148.32,-360 28.32,-360 28.32,-330 148.32,-330 148.32,-360"/>
<text text-anchor="start" x="36.32" y="-348" font-family="Helvetica,sans-Serif" font-size="10.00">include/d/menu/d_menu</text>
<text text-anchor="middle" x="88.32" y="-337" font-family="Helvetica,sans-Serif" font-size="10.00">_window.h</text>
</a>
</g>
</g>
<!-- Node1&#45;&gt;Node2 -->
<g id="edge1" class="edge">
<title>Node1&#45;&gt;Node2</title>
<path fill="none" stroke="#63b8ff" d="M88.32,-384.39C88.32,-376.13 88.32,-367.28 88.32,-360.16"/>
<polygon fill="#63b8ff" stroke="#63b8ff" points="84.82,-384.28 88.32,-394.28 91.82,-384.28 84.82,-384.28"/>
</g>
<!-- Node46 -->
<g id="node22" class="node">
<title>Node46</title>
<g id="a_node22"><a xlink:href="d__menu__window_8cpp.html" target="_top" xlink:title=" ">
<polygon fill="white" stroke="#666666" points="242.82,-24.5 83.82,-24.5 83.82,-5.5 242.82,-5.5 242.82,-24.5"/>
<text text-anchor="middle" x="163.32" y="-12.5" font-family="Helvetica,sans-Serif" font-size="10.00">src/d/menu/d_menu_window.cpp</text>
</a>
</g>
</g>
<!-- Node1&#45;&gt;Node46 -->
<g id="edge70" class="edge">
<title>Node1&#45;&gt;Node46</title>
<path fill="none" stroke="#63b8ff" d="M50.14,-389.49C38.71,-381.65 27.15,-371.73 19.32,-360 -0.96,-329.6 0.32,-316.54 0.32,-280 0.32,-280 0.32,-280 0.32,-157 0.32,-113.34 6.32,-96.74 37.32,-66 58.88,-44.62 90.7,-32.09 116.98,-24.92"/>
<polygon fill="#63b8ff" stroke="#63b8ff" points="48.05,-392.31 58.36,-394.77 51.83,-386.42 48.05,-392.31"/>
</g>
<!-- Node108 -->
<g id="node50" class="node">
<title>Node108</title>
<g id="a_node50"><a xlink:href="d__menu__collect_8cpp.html" target="_top" xlink:title=" ">
<polygon fill="white" stroke="#666666" points="321.82,-354.5 166.82,-354.5 166.82,-335.5 321.82,-335.5 321.82,-354.5"/>
<text text-anchor="middle" x="244.32" y="-342.5" font-family="Helvetica,sans-Serif" font-size="10.00">src/d/menu/d_menu_collect.cpp</text>
</a>
</g>
</g>
<!-- Node1&#45;&gt;Node108 -->
<g id="edge69" class="edge">
<title>Node1&#45;&gt;Node108</title>
<path fill="none" stroke="#63b8ff" d="M133.71,-391.38C162.89,-379.41 199.51,-364.38 222.42,-354.99"/>
<polygon fill="#63b8ff" stroke="#63b8ff" points="132.65,-388.03 124.73,-395.06 135.31,-394.51 132.65,-388.03"/>
</g>
<!-- Node3 -->
<g id="node3" class="node">
<title>Node3</title>
<g id="a_node3"><a xlink:href="d__meter2__info_8h.html" target="_top" xlink:title=" ">
<polygon fill="white" stroke="#666666" points="620.82,-294 493.82,-294 493.82,-264 620.82,-264 620.82,-294"/>
<text text-anchor="start" x="501.82" y="-282" font-family="Helvetica,sans-Serif" font-size="10.00">include/d/meter/d_meter2</text>
<text text-anchor="middle" x="557.32" y="-271" font-family="Helvetica,sans-Serif" font-size="10.00">_info.h</text>
</a>
</g>
</g>
<!-- Node2&#45;&gt;Node3 -->
<g id="edge2" class="edge">
<title>Node2&#45;&gt;Node3</title>
<path fill="none" stroke="#63b8ff" d="M159.64,-328.17C278.36,-309.16 415.11,-293.76 493.45,-285.83"/>
<polygon fill="#63b8ff" stroke="#63b8ff" points="159.39,-324.66 150.07,-329.72 160.51,-331.57 159.39,-324.66"/>
</g>
<!-- Node2&#45;&gt;Node46 -->
<g id="edge67" class="edge">
<title>Node2&#45;&gt;Node46</title>
<path fill="none" stroke="#63b8ff" d="M72.34,-320.06C57.71,-295.79 38.32,-256.63 38.32,-219.5 38.32,-219.5 38.32,-219.5 38.32,-157 38.32,-115.17 35.87,-98.41 62.32,-66 79.27,-45.23 107,-32.37 129.13,-24.91"/>
<polygon fill="#63b8ff" stroke="#63b8ff" points="69.36,-321.9 77.64,-328.52 75.29,-318.19 69.36,-321.9"/>
</g>
<!-- Node47 -->
<g id="node23" class="node">
<title>Node47</title>
<g id="a_node23"><a xlink:href="d__meter__map_8cpp.html" target="_top" xlink:title=" ">
<polygon fill="white" stroke="#666666" points="490.32,-30 386.32,-30 386.32,0 490.32,0 490.32,-30"/>
<text text-anchor="start" x="394.32" y="-18" font-family="Helvetica,sans-Serif" font-size="10.00">src/d/meter/d_meter</text>
<text text-anchor="middle" x="438.32" y="-7" font-family="Helvetica,sans-Serif" font-size="10.00">_map.cpp</text>
</a>
</g>
</g>
<!-- Node2&#45;&gt;Node47 -->
<g id="edge68" class="edge">
<title>Node2&#45;&gt;Node47</title>
<path fill="none" stroke="#63b8ff" d="M84.46,-318.79C80.95,-293.68 76.32,-254.02 76.32,-219.5 76.32,-219.5 76.32,-219.5 76.32,-157 76.32,-115.68 65.23,-94.31 95.32,-66 116.14,-46.41 295,-28.36 385.83,-20.35"/>
<polygon fill="#63b8ff" stroke="#63b8ff" points="80.95,-318.96 85.85,-328.35 87.87,-317.96 80.95,-318.96"/>
</g>
<!-- Node3&#45;&gt;Node2 -->
<g id="edge62" class="edge">
<title>Node3&#45;&gt;Node2</title>
<path fill="none" stroke="#63b8ff" d="M482.24,-288.4C403.35,-297.15 275.92,-312.06 166.32,-330 160.65,-330.93 154.74,-331.99 148.81,-333.1"/>
<polygon fill="#63b8ff" stroke="#63b8ff" points="482.46,-291.9 492.02,-287.32 481.7,-284.94 482.46,-291.9"/>
</g>
<!-- Node4 -->
<g id="node4" class="node">
<title>Node4</title>
<g id="a_node4"><a xlink:href="d__a__alink_8h.html" target="_top" xlink:title=" ">
<polygon fill="white" stroke="#666666" points="2596.32,-228 2480.32,-228 2480.32,-209 2596.32,-209 2596.32,-228"/>
<text text-anchor="middle" x="2538.32" y="-216" font-family="Helvetica,sans-Serif" font-size="10.00">include/d/a/d_a_alink.h</text>
</a>
</g>
</g>
<!-- Node3&#45;&gt;Node4 -->
<g id="edge3" class="edge">
<title>Node3&#45;&gt;Node4</title>
<path fill="none" stroke="#63b8ff" d="M632.71,-275.77C952.83,-266.32 2196.13,-229.61 2480.27,-221.21"/>
<polygon fill="#63b8ff" stroke="#63b8ff" points="632.67,-272.27 622.78,-276.07 632.88,-279.27 632.67,-272.27"/>
</g>
<!-- Node11 -->
<g id="node7" class="node">
<title>Node11</title>
<g id="a_node7"><a xlink:href="d__meter2__info_8cpp.html" target="_top" xlink:title=" ">
<polygon fill="white" stroke="#666666" points="908.32,-30 798.32,-30 798.32,0 908.32,0 908.32,-30"/>
<text text-anchor="start" x="806.32" y="-18" font-family="Helvetica,sans-Serif" font-size="10.00">src/d/meter/d_meter2</text>
<text text-anchor="middle" x="853.32" y="-7" font-family="Helvetica,sans-Serif" font-size="10.00">_info.cpp</text>
</a>
</g>
</g>
<!-- Node3&#45;&gt;Node11 -->
<g id="edge65" class="edge">
<title>Node3&#45;&gt;Node11</title>
<path fill="none" stroke="#63b8ff" d="M562.66,-252.55C573.4,-207.81 601.93,-115.18 662.32,-66 700.73,-34.72 756.63,-22.82 798.04,-18.39"/>
<polygon fill="#63b8ff" stroke="#63b8ff" points="559.29,-251.57 560.48,-262.1 566.12,-253.13 559.29,-251.57"/>
</g>
<!-- Node20 -->
<g id="node12" class="node">
<title>Node20</title>
<g id="a_node12"><a xlink:href="d__com__inf__game_8cpp.html" target="_top" xlink:title=" ">
<polygon fill="white" stroke="#666666" points="5038.32,-30 4930.32,-30 4930.32,0 5038.32,0 5038.32,-30"/>
<text text-anchor="start" x="4938.32" y="-18" font-family="Helvetica,sans-Serif" font-size="10.00">src/d/com/d_com_inf</text>
<text text-anchor="middle" x="4984.32" y="-7" font-family="Helvetica,sans-Serif" font-size="10.00">_game.cpp</text>
</a>
</g>
</g>
<!-- Node3&#45;&gt;Node20 -->
<g id="edge63" class="edge">
<title>Node3&#45;&gt;Node20</title>
<path fill="none" stroke="#63b8ff" d="M632.48,-278.27C1118.52,-279.7 3822.7,-282.52 4640.32,-173 4771.34,-155.45 4823.47,-184.82 4930.32,-107 4956.9,-87.64 4972.71,-50.86 4979.82,-30.49"/>
<polygon fill="#63b8ff" stroke="#63b8ff" points="632.6,-274.77 622.59,-278.24 632.58,-281.77 632.6,-274.77"/>
</g>
<!-- Node21 -->
<g id="node13" class="node">
<title>Node21</title>
<g id="a_node13"><a xlink:href="d__item_8cpp.html" target="_top" xlink:title=" ">
<polygon fill="white" stroke="#666666" points="4911.82,-24.5 4822.82,-24.5 4822.82,-5.5 4911.82,-5.5 4911.82,-24.5"/>
<text text-anchor="middle" x="4867.32" y="-12.5" font-family="Helvetica,sans-Serif" font-size="10.00">src/d/d_item.cpp</text>
</a>
</g>
</g>
<!-- Node3&#45;&gt;Node21 -->
<g id="edge64" class="edge">
<title>Node3&#45;&gt;Node21</title>
<path fill="none" stroke="#63b8ff" d="M632.27,-276.95C1098.76,-270.24 3609.61,-231.9 4376.32,-173 4616.08,-154.58 4754,-287.11 4913.32,-107 4936.08,-81.28 4897.93,-42.28 4878.11,-24.9"/>
<polygon fill="#63b8ff" stroke="#63b8ff" points="632.45,-273.44 622.5,-277.09 632.55,-280.44 632.45,-273.44"/>
</g>
<!-- Node98 -->
<g id="node49" class="node">
<title>Node98</title>
<g id="a_node49"><a xlink:href="d__save_8cpp.html" target="_top" xlink:title=" ">
<polygon fill="white" stroke="#666666" points="219.82,-96 104.82,-96 104.82,-77 219.82,-77 219.82,-96"/>
<text text-anchor="middle" x="162.32" y="-84" font-family="Helvetica,sans-Serif" font-size="10.00">src/d/save/d_save.cpp</text>
</a>
</g>
</g>
<!-- Node3&#45;&gt;Node98 -->
<g id="edge66" class="edge">
<title>Node3&#45;&gt;Node98</title>
<path fill="none" stroke="#63b8ff" d="M517.11,-258.61C432.84,-217.97 240.6,-125.25 180.57,-96.3"/>
<polygon fill="#63b8ff" stroke="#63b8ff" points="515.42,-261.68 525.94,-262.87 518.46,-255.37 515.42,-261.68"/>
</g>
<!-- Node5 -->
<g id="node5" class="node">
<title>Node5</title>
<g id="a_node5"><a xlink:href="d__com__inf__game_8h.html" target="_top" xlink:title=" ">
<polygon fill="#fff0f0" stroke="red" points="2593.32,-173 2483.32,-173 2483.32,-143 2593.32,-143 2593.32,-173"/>
<text text-anchor="start" x="2491.32" y="-161" font-family="Helvetica,sans-Serif" font-size="10.00">include/d/com/d_com</text>
<text text-anchor="middle" x="2538.32" y="-150" font-family="Helvetica,sans-Serif" font-size="10.00">_inf_game.h</text>
</a>
</g>
</g>
<!-- Node4&#45;&gt;Node5 -->
<g id="edge4" class="edge">
<title>Node4&#45;&gt;Node5</title>
<path fill="none" stroke="#63b8ff" d="M2538.32,-197.51C2538.32,-189.49 2538.32,-180.43 2538.32,-173.11"/>
<polygon fill="#63b8ff" stroke="#63b8ff" points="2534.82,-197.35 2538.32,-207.35 2541.82,-197.35 2534.82,-197.35"/>
</g>
<!-- Node15 -->
<g id="node10" class="node">
<title>Node15</title>
<g id="a_node10"><a xlink:href="d__a__alink_8cpp.html" target="_top" xlink:title=" ">
<polygon fill="white" stroke="#666666" points="4517.82,-24.5 4408.82,-24.5 4408.82,-5.5 4517.82,-5.5 4517.82,-24.5"/>
<text text-anchor="middle" x="4463.32" y="-12.5" font-family="Helvetica,sans-Serif" font-size="10.00">src/d/a/d_a_alink.cpp</text>
</a>
</g>
</g>
<!-- Node4&#45;&gt;Node15 -->
<g id="edge61" class="edge">
<title>Node4&#45;&gt;Node15</title>
<path fill="none" stroke="#63b8ff" d="M2608.23,-216.64C2973.48,-211.82 4648.73,-185.46 4723.32,-107 4786.09,-40.97 4611.47,-22.82 4518,-17.86"/>
<polygon fill="#63b8ff" stroke="#63b8ff" points="2608.26,-213.14 2598.31,-216.77 2608.36,-220.14 2608.26,-213.14"/>
</g>
<!-- Node6 -->
<g id="node6" class="node">
<title>Node6</title>
<g id="a_node6"><a xlink:href="d__a__npc_8h.html" target="_top" xlink:title=" ">
<polygon fill="#fff0f0" stroke="red" points="1828.82,-96 1717.82,-96 1717.82,-77 1828.82,-77 1828.82,-96"/>
<text text-anchor="middle" x="1773.32" y="-84" font-family="Helvetica,sans-Serif" font-size="10.00">include/d/a/d_a_npc.h</text>
</a>
</g>
</g>
<!-- Node5&#45;&gt;Node6 -->
<g id="edge5" class="edge">
<title>Node5&#45;&gt;Node6</title>
<path fill="none" stroke="#63b8ff" d="M2471.63,-157.1C2346.43,-156.21 2068.13,-149.15 1838.32,-107 1824.88,-104.53 1810.27,-100.3 1798.32,-96.41"/>
<polygon fill="#63b8ff" stroke="#63b8ff" points="2471.36,-160.59 2481.38,-157.15 2471.4,-153.59 2471.36,-160.59"/>
</g>
<!-- Node5&#45;&gt;Node11 -->
<g id="edge58" class="edge">
<title>Node5&#45;&gt;Node11</title>
<path fill="none" stroke="#63b8ff" d="M2471.98,-156.17C2191.45,-152.49 1114,-136.49 1048.32,-107 1025.38,-96.7 1030.63,-79.37 1009.32,-66 978.6,-46.73 939.79,-34.25 908.56,-26.58"/>
<polygon fill="#63b8ff" stroke="#63b8ff" points="2471.62,-159.67 2481.67,-156.3 2471.71,-152.67 2471.62,-159.67"/>
</g>
<!-- Node12 -->
<g id="node8" class="node">
<title>Node12</title>
<g id="a_node8"><a xlink:href="d__cc__uty_8h.html" target="_top" xlink:title=" ">
<polygon fill="#fff0f0" stroke="red" points="4300.82,-96 4181.82,-96 4181.82,-77 4300.82,-77 4300.82,-96"/>
<text text-anchor="middle" x="4241.32" y="-84" font-family="Helvetica,sans-Serif" font-size="10.00">include/d/cc/d_cc_uty.h</text>
</a>
</g>
</g>
<!-- Node5&#45;&gt;Node12 -->
<g id="edge7" class="edge">
<title>Node5&#45;&gt;Node12</title>
<path fill="none" stroke="#63b8ff" d="M2605.01,-156.97C2871.21,-156.53 3858.3,-151.86 4167.32,-107 4182.84,-104.75 4199.77,-100.43 4213.52,-96.43"/>
<polygon fill="#63b8ff" stroke="#63b8ff" points="2605.13,-153.47 2595.13,-156.98 2605.14,-160.47 2605.13,-153.47"/>
</g>
<!-- Node18 -->
<g id="node9" class="node">
<title>Node18</title>
<g id="a_node9"><a xlink:href="d__item_8h.html" target="_top" xlink:title=" ">
<polygon fill="#fff0f0" stroke="red" points="4903.82,-96 4808.82,-96 4808.82,-77 4903.82,-77 4903.82,-96"/>
<text text-anchor="middle" x="4856.32" y="-84" font-family="Helvetica,sans-Serif" font-size="10.00">include/d/d_item.h</text>
</a>
</g>
</g>
<!-- Node5&#45;&gt;Node18 -->
<g id="edge8" class="edge">
<title>Node5&#45;&gt;Node18</title>
<path fill="none" stroke="#63b8ff" d="M2604.91,-157.03C2926.81,-156.92 4323.68,-153.72 4756.32,-107 4777.07,-104.76 4799.94,-100.44 4818.56,-96.44"/>
<polygon fill="#63b8ff" stroke="#63b8ff" points="2604.99,-153.53 2594.99,-157.03 2604.99,-160.53 2604.99,-153.53"/>
</g>
<!-- Node5&#45;&gt;Node15 -->
<g id="edge37" class="edge">
<title>Node5&#45;&gt;Node15</title>
<path fill="none" stroke="#63b8ff" d="M2605.06,-156.38C2938.38,-153.12 4408.28,-137.09 4444.32,-107 4468.85,-86.52 4466.8,-43.28 4464.61,-24.74"/>
<polygon fill="#63b8ff" stroke="#63b8ff" points="2605.16,-152.87 2595.2,-156.47 2605.23,-159.87 2605.16,-152.87"/>
</g>
<!-- Node19 -->
<g id="node11" class="node">
<title>Node19</title>
<g id="a_node11"><a xlink:href="d__a__obj__item_8cpp.html" target="_top" xlink:title=" ">
<polygon fill="white" stroke="#666666" points="4804.82,-24.5 4679.82,-24.5 4679.82,-5.5 4804.82,-5.5 4804.82,-24.5"/>
<text text-anchor="middle" x="4742.32" y="-12.5" font-family="Helvetica,sans-Serif" font-size="10.00">src/d/a/d_a_obj_item.cpp</text>
</a>
</g>
</g>
<!-- Node5&#45;&gt;Node19 -->
<g id="edge40" class="edge">
<title>Node5&#45;&gt;Node19</title>
<path fill="none" stroke="#63b8ff" d="M2604.95,-156.61C2966.84,-154.33 4681.58,-141.73 4723.32,-107 4747.89,-86.56 4745.82,-43.3 4743.62,-24.75"/>
<polygon fill="#63b8ff" stroke="#63b8ff" points="2605.13,-153.11 2595.15,-156.67 2605.18,-160.1 2605.13,-153.11"/>
</g>
<!-- Node5&#45;&gt;Node20 -->
<g id="edge46" class="edge">
<title>Node5&#45;&gt;Node20</title>
<path fill="none" stroke="#63b8ff" d="M2605.08,-157.21C2979.68,-158.16 4807.47,-160.06 4913.32,-107 4945.92,-90.66 4968.06,-51.56 4978.13,-30.32"/>
<polygon fill="#63b8ff" stroke="#63b8ff" points="2605.17,-153.71 2595.16,-157.18 2605.15,-160.71 2605.17,-153.71"/>
</g>
<!-- Node23 -->
<g id="node14" class="node">
<title>Node23</title>
<g id="a_node14"><a xlink:href="d__kantera__icon__meter_8h.html" target="_top" xlink:title=" ">
<polygon fill="#fff0f0" stroke="red" points="4592.82,-101.5 4491.82,-101.5 4491.82,-71.5 4592.82,-71.5 4592.82,-101.5"/>
<text text-anchor="start" x="4499.82" y="-89.5" font-family="Helvetica,sans-Serif" font-size="10.00">include/d/d_kantera</text>
<text text-anchor="middle" x="4542.32" y="-78.5" font-family="Helvetica,sans-Serif" font-size="10.00">_icon_meter.h</text>
</a>
</g>
</g>
<!-- Node5&#45;&gt;Node23 -->
<g id="edge13" class="edge">
<title>Node5&#45;&gt;Node23</title>
<path fill="none" stroke="#63b8ff" d="M2604.93,-156.33C2924.12,-152.99 4289.59,-137.03 4477.32,-107 4484.77,-105.81 4492.55,-103.99 4500.04,-101.94"/>
<polygon fill="#63b8ff" stroke="#63b8ff" points="2605.05,-152.83 2595.09,-156.43 2605.13,-159.83 2605.05,-152.83"/>
</g>
<!-- Node26 -->
<g id="node15" class="node">
<title>Node26</title>
<g id="a_node15"><a xlink:href="d__model_8h.html" target="_top" xlink:title=" ">
<polygon fill="#fff0f0" stroke="red" points="4713.82,-96 4610.82,-96 4610.82,-77 4713.82,-77 4713.82,-96"/>
<text text-anchor="middle" x="4662.32" y="-84" font-family="Helvetica,sans-Serif" font-size="10.00">include/d/d_model.h</text>
</a>
</g>
</g>
<!-- Node5&#45;&gt;Node26 -->
<g id="edge14" class="edge">
<title>Node5&#45;&gt;Node26</title>
<path fill="none" stroke="#63b8ff" d="M2604.89,-156.53C2936.48,-154.05 4401.98,-141.23 4602.32,-107 4615.06,-104.82 4628.8,-100.51 4639.92,-96.49"/>
<polygon fill="#63b8ff" stroke="#63b8ff" points="2605.06,-153.03 2595.09,-156.61 2605.12,-160.03 2605.06,-153.03"/>
</g>
<!-- Node28 -->
<g id="node16" class="node">
<title>Node28</title>
<g id="a_node16"><a xlink:href="d__name_8h.html" target="_top" xlink:title=" ">
<polygon fill="#fff0f0" stroke="red" points="771.82,-96 670.82,-96 670.82,-77 771.82,-77 771.82,-96"/>
<text text-anchor="middle" x="721.32" y="-84" font-family="Helvetica,sans-Serif" font-size="10.00">include/d/d_name.h</text>
</a>
</g>
</g>
<!-- Node5&#45;&gt;Node28 -->
<g id="edge15" class="edge">
<title>Node5&#45;&gt;Node28</title>
<path fill="none" stroke="#63b8ff" d="M2472.19,-156.24C2172.6,-152.62 949.98,-136.18 781.32,-107 768.59,-104.8 754.84,-100.48 743.73,-96.47"/>
<polygon fill="#63b8ff" stroke="#63b8ff" points="2471.73,-159.73 2481.77,-156.35 2471.81,-152.73 2471.73,-159.73"/>
</g>
<!-- Node30 -->
<g id="node17" class="node">
<title>Node30</title>
<g id="a_node17"><a xlink:href="d__file__sel__info_8h.html" target="_top" xlink:title=" ">
<polygon fill="#fff0f0" stroke="red" points="886.32,-101.5 790.32,-101.5 790.32,-71.5 886.32,-71.5 886.32,-101.5"/>
<text text-anchor="start" x="798.32" y="-89.5" font-family="Helvetica,sans-Serif" font-size="10.00">include/d/file/d_file</text>
<text text-anchor="middle" x="838.32" y="-78.5" font-family="Helvetica,sans-Serif" font-size="10.00">_sel_info.h</text>
</a>
</g>
</g>
<!-- Node5&#45;&gt;Node30 -->
<g id="edge16" class="edge">
<title>Node5&#45;&gt;Node30</title>
<path fill="none" stroke="#63b8ff" d="M2471.82,-156.15C2183.85,-152.31 1051.95,-135.51 895.32,-107 888.74,-105.8 881.88,-103.98 875.3,-101.93"/>
<polygon fill="#63b8ff" stroke="#63b8ff" points="2471.34,-159.64 2481.39,-156.28 2471.44,-152.64 2471.34,-159.64"/>
</g>
<!-- Node33 -->
<g id="node18" class="node">
<title>Node33</title>
<g id="a_node18"><a xlink:href="d__file__sel__warning_8h.html" target="_top" xlink:title=" ">
<polygon fill="#fff0f0" stroke="red" points="1000.32,-101.5 904.32,-101.5 904.32,-71.5 1000.32,-71.5 1000.32,-101.5"/>
<text text-anchor="start" x="912.32" y="-89.5" font-family="Helvetica,sans-Serif" font-size="10.00">include/d/file/d_file</text>
<text text-anchor="middle" x="952.32" y="-78.5" font-family="Helvetica,sans-Serif" font-size="10.00">_sel_warning.h</text>
</a>
</g>
</g>
<!-- Node5&#45;&gt;Node33 -->
<g id="edge17" class="edge">
<title>Node5&#45;&gt;Node33</title>
<path fill="none" stroke="#63b8ff" d="M2471.69,-157.22C2216.41,-157.67 1300.73,-155.8 1014.32,-107 1007.2,-105.79 999.77,-103.96 992.62,-101.91"/>
<polygon fill="#63b8ff" stroke="#63b8ff" points="2471.48,-160.72 2481.47,-157.2 2471.46,-153.72 2471.48,-160.72"/>
</g>
<!-- Node35 -->
<g id="node19" class="node">
<title>Node35</title>
<g id="a_node19"><a xlink:href="d__meter2_8h.html" target="_top" xlink:title=" ">
<polygon fill="#fff0f0" stroke="red" points="372.32,-96 238.32,-96 238.32,-77 372.32,-77 372.32,-96"/>
<text text-anchor="middle" x="305.32" y="-84" font-family="Helvetica,sans-Serif" font-size="10.00">include/d/meter/d_meter2.h</text>
</a>
</g>
</g>
<!-- Node5&#45;&gt;Node35 -->
<g id="edge18" class="edge">
<title>Node5&#45;&gt;Node35</title>
<path fill="none" stroke="#63b8ff" d="M2471.6,-157.36C2155.21,-158.79 804.07,-161.5 386.32,-107 369.4,-104.79 350.87,-100.48 335.8,-96.47"/>
<polygon fill="#63b8ff" stroke="#63b8ff" points="2471.35,-160.86 2481.34,-157.32 2471.32,-153.86 2471.35,-160.86"/>
</g>
<!-- Node37 -->
<g id="node20" class="node">
<title>Node37</title>
<g id="a_node20"><a xlink:href="d__msg__object_8h.html" target="_top" xlink:title=" ">
<polygon fill="#fff0f0" stroke="red" points="614.32,-101.5 504.32,-101.5 504.32,-71.5 614.32,-71.5 614.32,-101.5"/>
<text text-anchor="start" x="512.32" y="-89.5" font-family="Helvetica,sans-Serif" font-size="10.00">include/d/msg/d_msg</text>
<text text-anchor="middle" x="559.32" y="-78.5" font-family="Helvetica,sans-Serif" font-size="10.00">_object.h</text>
</a>
</g>
</g>
<!-- Node5&#45;&gt;Node37 -->
<g id="edge20" class="edge">
<title>Node5&#45;&gt;Node37</title>
<path fill="none" stroke="#63b8ff" d="M2471.89,-156.66C2181.73,-154.95 1023.96,-145.8 662.32,-107 646.76,-105.33 630.03,-102.58 614.67,-99.67"/>
<polygon fill="#63b8ff" stroke="#63b8ff" points="2471.52,-160.16 2481.54,-156.72 2471.56,-153.16 2471.52,-160.16"/>
</g>
<!-- Node42 -->
<g id="node21" class="node">
<title>Node42</title>
<g id="a_node21"><a xlink:href="d__demo_8cpp.html" target="_top" xlink:title=" ">
<polygon fill="white" stroke="#666666" points="604.32,-24.5 510.32,-24.5 510.32,-5.5 604.32,-5.5 604.32,-24.5"/>
<text text-anchor="middle" x="557.32" y="-12.5" font-family="Helvetica,sans-Serif" font-size="10.00">src/d/d_demo.cpp</text>
</a>
</g>
</g>
<!-- Node5&#45;&gt;Node42 -->
<g id="edge51" class="edge">
<title>Node5&#45;&gt;Node42</title>
<path fill="none" stroke="#63b8ff" d="M2471.49,-156.63C2123.2,-154.57 530.63,-143.18 495.32,-107 482.59,-93.96 487.46,-82.44 495.32,-66 504.27,-47.29 524.02,-33.34 538.84,-24.99"/>
<polygon fill="#63b8ff" stroke="#63b8ff" points="2471.34,-160.13 2481.36,-156.69 2471.38,-153.13 2471.34,-160.13"/>
</g>
<!-- Node5&#45;&gt;Node46 -->
<g id="edge57" class="edge">
<title>Node5&#45;&gt;Node46</title>
<path fill="none" stroke="#63b8ff" d="M2471.63,-156.39C2125.54,-153.11 546.43,-136.56 447.32,-107 414.23,-97.13 413.25,-79.15 381.32,-66 331.59,-45.52 271.86,-32.57 227.51,-24.99"/>
<polygon fill="#63b8ff" stroke="#63b8ff" points="2471.39,-159.89 2481.42,-156.48 2471.46,-152.89 2471.39,-159.89"/>
</g>
<!-- Node5&#45;&gt;Node47 -->
<g id="edge59" class="edge">
<title>Node5&#45;&gt;Node47</title>
<path fill="none" stroke="#63b8ff" d="M2471.54,-157.31C2127.6,-158.64 568.94,-161.63 483.32,-107 456.43,-89.84 445.07,-51.46 440.72,-30.44"/>
<polygon fill="#63b8ff" stroke="#63b8ff" points="2471.52,-160.81 2481.5,-157.27 2471.49,-153.81 2471.52,-160.81"/>
</g>
<!-- Node53 -->
<g id="node24" class="node">
<title>Node53</title>
<g id="a_node24"><a xlink:href="d__s__logo_8h.html" target="_top" xlink:title=" ">
<polygon fill="#fff0f0" stroke="red" points="1169.82,-96 1056.82,-96 1056.82,-77 1169.82,-77 1169.82,-96"/>
<text text-anchor="middle" x="1113.32" y="-84" font-family="Helvetica,sans-Serif" font-size="10.00">include/d/s/d_s_logo.h</text>
</a>
</g>
</g>
<!-- Node5&#45;&gt;Node53 -->
<g id="edge26" class="edge">
<title>Node5&#45;&gt;Node53</title>
<path fill="none" stroke="#63b8ff" d="M2471.95,-156.75C2235.15,-155.54 1432.5,-148.38 1179.32,-107 1165.41,-104.73 1150.3,-100.4 1138.05,-96.41"/>
<polygon fill="#63b8ff" stroke="#63b8ff" points="2471.59,-160.25 2481.61,-156.8 2471.63,-153.25 2471.59,-160.25"/>
</g>
<!-- Node55 -->
<g id="node25" class="node">
<title>Node55</title>
<g id="a_node25"><a xlink:href="d__s__play_8h.html" target="_top" xlink:title=" ">
<polygon fill="#fff0f0" stroke="red" points="1300.82,-96 1187.82,-96 1187.82,-77 1300.82,-77 1300.82,-96"/>
<text text-anchor="middle" x="1244.32" y="-84" font-family="Helvetica,sans-Serif" font-size="10.00">include/d/s/d_s_play.h</text>
</a>
</g>
</g>
<!-- Node5&#45;&gt;Node55 -->
<g id="edge27" class="edge">
<title>Node5&#45;&gt;Node55</title>
<path fill="none" stroke="#63b8ff" d="M2471.41,-156.45C2249.14,-154.26 1536.65,-144.45 1310.32,-107 1296.53,-104.72 1281.56,-100.45 1269.37,-96.49"/>
<polygon fill="#63b8ff" stroke="#63b8ff" points="2471.32,-159.94 2481.36,-156.54 2471.39,-152.95 2471.32,-159.94"/>
</g>
<!-- Node59 -->
<g id="node26" class="node">
<title>Node59</title>
<g id="a_node26"><a xlink:href="d__msg__scrn__base_8h.html" target="_top" xlink:title=" ">
<polygon fill="#fff0f0" stroke="red" points="1417.82,-101.5 1318.82,-101.5 1318.82,-71.5 1417.82,-71.5 1417.82,-101.5"/>
<text text-anchor="start" x="1326.82" y="-89.5" font-family="Helvetica,sans-Serif" font-size="10.00">include/msg/scrn/d</text>
<text text-anchor="middle" x="1368.32" y="-78.5" font-family="Helvetica,sans-Serif" font-size="10.00">_msg_scrn_base.h</text>
</a>
</g>
</g>
<!-- Node5&#45;&gt;Node59 -->
<g id="edge28" class="edge">
<title>Node5&#45;&gt;Node59</title>
<path fill="none" stroke="#63b8ff" d="M2471.5,-156.39C2263.49,-154.11 1629.41,-144.21 1427.32,-107 1420.64,-105.77 1413.67,-103.96 1406.96,-101.94"/>
<polygon fill="#63b8ff" stroke="#63b8ff" points="2471.28,-159.89 2481.32,-156.49 2471.36,-152.89 2471.28,-159.89"/>
</g>
<!-- Node63 -->
<g id="node27" class="node">
<title>Node63</title>
<g id="a_node27"><a xlink:href="d__a__b__zant_8h.html" target="_top" xlink:title=" ">
<polygon fill="white" stroke="#666666" points="1556.82,-101.5 1435.82,-101.5 1435.82,-71.5 1556.82,-71.5 1556.82,-101.5"/>
<text text-anchor="start" x="1443.82" y="-89.5" font-family="Helvetica,sans-Serif" font-size="10.00">include/rel/d/a/b/d</text>
<text text-anchor="middle" x="1496.32" y="-78.5" font-family="Helvetica,sans-Serif" font-size="10.00">_a_b_zant/d_a_b_zant.h</text>
</a>
</g>
</g>
<!-- Node5&#45;&gt;Node63 -->
<g id="edge29" class="edge">
<title>Node5&#45;&gt;Node63</title>
<path fill="none" stroke="#63b8ff" d="M2471.36,-155.48C2281.32,-150.84 1741.11,-135.48 1566.32,-107 1558.6,-105.74 1550.52,-103.95 1542.69,-101.96"/>
<polygon fill="#63b8ff" stroke="#63b8ff" points="2471.23,-158.97 2481.31,-155.72 2471.4,-151.98 2471.23,-158.97"/>
</g>
<!-- Node64 -->
<g id="node28" class="node">
<title>Node64</title>
<g id="a_node28"><a xlink:href="d__a__skip__2D_8h.html" target="_top" xlink:title=" ">
<polygon fill="white" stroke="#666666" points="1699.32,-101.5 1575.32,-101.5 1575.32,-71.5 1699.32,-71.5 1699.32,-101.5"/>
<text text-anchor="start" x="1583.32" y="-89.5" font-family="Helvetica,sans-Serif" font-size="10.00">include/rel/d/a/d_a</text>
<text text-anchor="middle" x="1637.32" y="-78.5" font-family="Helvetica,sans-Serif" font-size="10.00">_skip_2D/d_a_skip_2D.h</text>
</a>
</g>
</g>
<!-- Node5&#45;&gt;Node64 -->
<g id="edge30" class="edge">
<title>Node5&#45;&gt;Node64</title>
<path fill="none" stroke="#63b8ff" d="M2471.63,-157.57C2330.15,-157.78 1989.92,-152.96 1709.32,-107 1701.53,-105.72 1693.36,-103.95 1685.44,-101.98"/>
<polygon fill="#63b8ff" stroke="#63b8ff" points="2471.58,-161.07 2481.57,-157.55 2471.56,-154.07 2471.58,-161.07"/>
</g>
<!-- Node65 -->
<g id="node29" class="node">
<title>Node65</title>
<g id="a_node29"><a xlink:href="d__a__spinner_8h.html" target="_top" xlink:title=" ">
<polygon fill="white" stroke="#666666" points="4435.32,-101.5 4319.32,-101.5 4319.32,-71.5 4435.32,-71.5 4435.32,-101.5"/>
<text text-anchor="start" x="4327.32" y="-89.5" font-family="Helvetica,sans-Serif" font-size="10.00">include/rel/d/a/d_a</text>
<text text-anchor="middle" x="4377.32" y="-78.5" font-family="Helvetica,sans-Serif" font-size="10.00">_spinner/d_a_spinner.h</text>
</a>
</g>
</g>
<!-- Node5&#45;&gt;Node65 -->
<g id="edge31" class="edge">
<title>Node5&#45;&gt;Node65</title>
<path fill="none" stroke="#63b8ff" d="M2604.81,-157.39C2885.24,-158.67 3972.39,-160.05 4310.32,-107 4317.98,-105.8 4326,-103.98 4333.72,-101.92"/>
<polygon fill="#63b8ff" stroke="#63b8ff" points="2605.15,-153.89 2595.14,-157.34 2605.12,-160.89 2605.15,-153.89"/>
</g>
<!-- Node66 -->
<g id="node30" class="node">
<title>Node66</title>
<g id="a_node30"><a xlink:href="d__a__player_8cpp.html" target="_top" xlink:title=" ">
<polygon fill="white" stroke="#666666" points="4300.32,-24.5 4186.32,-24.5 4186.32,-5.5 4300.32,-5.5 4300.32,-24.5"/>
<text text-anchor="middle" x="4243.32" y="-12.5" font-family="Helvetica,sans-Serif" font-size="10.00">src/d/a/d_a_player.cpp</text>
</a>
</g>
</g>
<!-- Node5&#45;&gt;Node66 -->
<g id="edge41" class="edge">
<title>Node5&#45;&gt;Node66</title>
<path fill="none" stroke="#63b8ff" d="M2605,-156.32C2898.45,-153.16 4063.59,-138.66 4134.32,-107 4157.28,-96.73 4154.34,-82.49 4173.32,-66 4191.58,-50.13 4214.77,-34.32 4229.33,-24.86"/>
<polygon fill="#63b8ff" stroke="#63b8ff" points="2605.18,-152.82 2595.22,-156.43 2605.26,-159.82 2605.18,-152.82"/>
</g>
<!-- Node67 -->
<g id="node31" class="node">
<title>Node67</title>
<g id="a_node31"><a xlink:href="d__a__obj__yobikusa_8h.html" target="_top" xlink:title=" ">
<polygon fill="white" stroke="#666666" points="1951.82,-107 1846.82,-107 1846.82,-66 1951.82,-66 1951.82,-107"/>
<text text-anchor="start" x="1854.82" y="-95" font-family="Helvetica,sans-Serif" font-size="10.00">include/rel/d/a/obj</text>
<text text-anchor="start" x="1854.82" y="-84" font-family="Helvetica,sans-Serif" font-size="10.00">/d_a_obj_yobikusa/d</text>
<text text-anchor="middle" x="1899.32" y="-73" font-family="Helvetica,sans-Serif" font-size="10.00">_a_obj_yobikusa.h</text>
</a>
</g>
</g>
<!-- Node5&#45;&gt;Node67 -->
<g id="edge34" class="edge">
<title>Node5&#45;&gt;Node67</title>
<path fill="none" stroke="#63b8ff" d="M2471.49,-155.93C2363.31,-153.14 2143.56,-143.1 1961.32,-107 1958.33,-106.41 1955.28,-105.72 1952.22,-104.97"/>
<polygon fill="#63b8ff" stroke="#63b8ff" points="2471.27,-159.42 2481.35,-156.17 2471.44,-152.42 2471.27,-159.42"/>
</g>
<!-- Node68 -->
<g id="node32" class="node">
<title>Node68</title>
<g id="a_node32"><a xlink:href="d__a__tag__telop_8h.html" target="_top" xlink:title=" ">
<polygon fill="white" stroke="#666666" points="2088.32,-107 1970.32,-107 1970.32,-66 2088.32,-66 2088.32,-107"/>
<text text-anchor="start" x="1978.32" y="-95" font-family="Helvetica,sans-Serif" font-size="10.00">include/rel/d/a/tag</text>
<text text-anchor="start" x="1978.32" y="-84" font-family="Helvetica,sans-Serif" font-size="10.00">/d_a_tag_telop/d_a_tag</text>
<text text-anchor="middle" x="2029.32" y="-73" font-family="Helvetica,sans-Serif" font-size="10.00">_telop.h</text>
</a>
</g>
</g>
<!-- Node5&#45;&gt;Node68 -->
<g id="edge35" class="edge">
<title>Node5&#45;&gt;Node68</title>
<path fill="none" stroke="#63b8ff" d="M2471.76,-152.81C2385.14,-146.6 2229.35,-132.78 2098.32,-107 2095.15,-106.38 2091.9,-105.68 2088.64,-104.92"/>
<polygon fill="#63b8ff" stroke="#63b8ff" points="2471.27,-156.29 2481.49,-153.5 2471.77,-149.31 2471.27,-156.29"/>
</g>
<!-- Node69 -->
<g id="node33" class="node">
<title>Node69</title>
<g id="a_node33"><a xlink:href="c__dylink_8cpp.html" target="_top" xlink:title=" ">
<polygon fill="white" stroke="#666666" points="2201.82,-96 2106.82,-96 2106.82,-77 2201.82,-77 2201.82,-96"/>
<text text-anchor="middle" x="2154.32" y="-84" font-family="Helvetica,sans-Serif" font-size="10.00">src/c/c_dylink.cpp</text>
</a>
</g>
</g>
<!-- Node5&#45;&gt;Node69 -->
<g id="edge36" class="edge">
<title>Node5&#45;&gt;Node69</title>
<path fill="none" stroke="#63b8ff" d="M2471.91,-150.35C2405.36,-142.87 2300.29,-128.84 2211.32,-107 2199.94,-104.21 2187.61,-100.13 2177.34,-96.42"/>
<polygon fill="#63b8ff" stroke="#63b8ff" points="2471.23,-153.8 2481.56,-151.42 2472,-146.84 2471.23,-153.8"/>
</g>
<!-- Node70 -->
<g id="node34" class="node">
<title>Node70</title>
<g id="a_node34"><a xlink:href="d__a__itembase_8cpp.html" target="_top" xlink:title=" ">
<polygon fill="white" stroke="#666666" points="2348.32,-96 2220.32,-96 2220.32,-77 2348.32,-77 2348.32,-96"/>
<text text-anchor="middle" x="2284.32" y="-84" font-family="Helvetica,sans-Serif" font-size="10.00">src/d/a/d_a_itembase.cpp</text>
</a>
</g>
</g>
<!-- Node5&#45;&gt;Node70 -->
<g id="edge38" class="edge">
<title>Node5&#45;&gt;Node70</title>
<path fill="none" stroke="#63b8ff" d="M2474.34,-139.49C2424.26,-125.79 2356.66,-107.29 2317.05,-96.46"/>
<polygon fill="#63b8ff" stroke="#63b8ff" points="2473.35,-142.85 2483.92,-142.12 2475.2,-136.1 2473.35,-142.85"/>
</g>
<!-- Node71 -->
<g id="node35" class="node">
<title>Node71</title>
<g id="a_node35"><a xlink:href="d__a__obj_8cpp.html" target="_top" xlink:title=" ">
<polygon fill="white" stroke="#666666" points="2467.82,-96 2366.82,-96 2366.82,-77 2467.82,-77 2467.82,-96"/>
<text text-anchor="middle" x="2417.32" y="-84" font-family="Helvetica,sans-Serif" font-size="10.00">src/d/a/d_a_obj.cpp</text>
</a>
</g>
</g>
<!-- Node5&#45;&gt;Node71 -->
<g id="edge39" class="edge">
<title>Node5&#45;&gt;Node71</title>
<path fill="none" stroke="#63b8ff" d="M2503.36,-136.92C2480.02,-123.51 2450.47,-106.54 2432.78,-96.38"/>
<polygon fill="#63b8ff" stroke="#63b8ff" points="2501.52,-139.9 2511.94,-141.85 2505.01,-133.83 2501.52,-139.9"/>
</g>
<!-- Node72 -->
<g id="node36" class="node">
<title>Node72</title>
<g id="a_node36"><a xlink:href="d__bg__s_8cpp.html" target="_top" xlink:title=" ">
<polygon fill="white" stroke="#666666" points="2590.32,-96 2486.32,-96 2486.32,-77 2590.32,-77 2590.32,-96"/>
<text text-anchor="middle" x="2538.32" y="-84" font-family="Helvetica,sans-Serif" font-size="10.00">src/d/bg/d_bg_s.cpp</text>
</a>
</g>
</g>
<!-- Node5&#45;&gt;Node72 -->
<g id="edge42" class="edge">
<title>Node5&#45;&gt;Node72</title>
<path fill="none" stroke="#63b8ff" d="M2538.32,-131.46C2538.32,-119.07 2538.32,-104.99 2538.32,-96.18"/>
<polygon fill="#63b8ff" stroke="#63b8ff" points="2534.82,-131.09 2538.32,-141.09 2541.82,-131.09 2534.82,-131.09"/>
</g>
<!-- Node73 -->
<g id="node37" class="node">
<title>Node73</title>
<g id="a_node37"><a xlink:href="d__bg__s__movebg__actor_8cpp.html" target="_top" xlink:title=" ">
<polygon fill="white" stroke="#666666" points="2734.32,-101.5 2608.32,-101.5 2608.32,-71.5 2734.32,-71.5 2734.32,-101.5"/>
<text text-anchor="start" x="2616.32" y="-89.5" font-family="Helvetica,sans-Serif" font-size="10.00">src/d/bg/d_bg_s_movebg</text>
<text text-anchor="middle" x="2671.32" y="-78.5" font-family="Helvetica,sans-Serif" font-size="10.00">_actor.cpp</text>
</a>
</g>
</g>
<!-- Node5&#45;&gt;Node73 -->
<g id="edge43" class="edge">
<title>Node5&#45;&gt;Node73</title>
<path fill="none" stroke="#63b8ff" d="M2576.02,-137.3C2597.6,-126.03 2624.19,-112.13 2643.8,-101.88"/>
<polygon fill="#63b8ff" stroke="#63b8ff" points="2574.46,-134.17 2567.22,-141.9 2577.7,-140.37 2574.46,-134.17"/>
</g>
<!-- Node74 -->
<g id="node38" class="node">
<title>Node74</title>
<g id="a_node38"><a xlink:href="d__bg__w_8cpp.html" target="_top" xlink:title=" ">
<polygon fill="white" stroke="#666666" points="2859.82,-96 2752.82,-96 2752.82,-77 2859.82,-77 2859.82,-96"/>
<text text-anchor="middle" x="2806.32" y="-84" font-family="Helvetica,sans-Serif" font-size="10.00">src/d/bg/d_bg_w.cpp</text>
</a>
</g>
</g>
<!-- Node5&#45;&gt;Node74 -->
<g id="edge44" class="edge">
<title>Node5&#45;&gt;Node74</title>
<path fill="none" stroke="#63b8ff" d="M2604.82,-141.86C2645.07,-132.43 2697.33,-119.71 2743.32,-107 2755.02,-103.77 2767.83,-99.87 2778.83,-96.41"/>
<polygon fill="#63b8ff" stroke="#63b8ff" points="2604.23,-138.41 2595.28,-144.09 2605.82,-145.23 2604.23,-138.41"/>
</g>
<!-- Node75 -->
<g id="node39" class="node">
<title>Node75</title>
<g id="a_node39"><a xlink:href="d__cc__s_8cpp.html" target="_top" xlink:title=" ">
<polygon fill="white" stroke="#666666" points="2982.32,-96 2878.32,-96 2878.32,-77 2982.32,-77 2982.32,-96"/>
<text text-anchor="middle" x="2930.32" y="-84" font-family="Helvetica,sans-Serif" font-size="10.00">src/d/cc/d_cc_s.cpp</text>
</a>
</g>
</g>
<!-- Node5&#45;&gt;Node75 -->
<g id="edge45" class="edge">
<title>Node5&#45;&gt;Node75</title>
<path fill="none" stroke="#63b8ff" d="M2604.86,-150.11C2672.12,-142.41 2778.78,-128.17 2869.32,-107 2881.34,-104.19 2894.4,-100.15 2905.35,-96.48"/>
<polygon fill="#63b8ff" stroke="#63b8ff" points="2604.64,-146.61 2595.1,-151.21 2605.43,-153.57 2604.64,-146.61"/>
</g>
<!-- Node76 -->
<g id="node40" class="node">
<title>Node76</title>
<g id="a_node40"><a xlink:href="d__com__static_8cpp.html" target="_top" xlink:title=" ">
<polygon fill="white" stroke="#666666" points="3140.32,-96 3000.32,-96 3000.32,-77 3140.32,-77 3140.32,-96"/>
<text text-anchor="middle" x="3070.32" y="-84" font-family="Helvetica,sans-Serif" font-size="10.00">src/d/com/d_com_static.cpp</text>
</a>
</g>
</g>
<!-- Node5&#45;&gt;Node76 -->
<g id="edge47" class="edge">
<title>Node5&#45;&gt;Node76</title>
<path fill="none" stroke="#63b8ff" d="M2604.98,-152.41C2693.67,-145.68 2855.12,-131.22 2991.32,-107 3006.9,-104.23 3023.97,-100.15 3038.24,-96.44"/>
<polygon fill="#63b8ff" stroke="#63b8ff" points="2604.97,-148.9 2595.26,-153.14 2605.49,-155.88 2604.97,-148.9"/>
</g>
<!-- Node77 -->
<g id="node41" class="node">
<title>Node77</title>
<g id="a_node41"><a xlink:href="d__attention_8cpp.html" target="_top" xlink:title=" ">
<polygon fill="white" stroke="#666666" points="3265.82,-96 3158.82,-96 3158.82,-77 3265.82,-77 3265.82,-96"/>
<text text-anchor="middle" x="3212.32" y="-84" font-family="Helvetica,sans-Serif" font-size="10.00">src/d/d_attention.cpp</text>
</a>
</g>
</g>
<!-- Node5&#45;&gt;Node77 -->
<g id="edge48" class="edge">
<title>Node5&#45;&gt;Node77</title>
<path fill="none" stroke="#63b8ff" d="M2604.83,-156.29C2717.77,-154.04 2953.83,-144.78 3149.32,-107 3162.25,-104.5 3176.28,-100.31 3187.8,-96.46"/>
<polygon fill="#63b8ff" stroke="#63b8ff" points="2605.08,-152.79 2595.15,-156.47 2605.21,-159.79 2605.08,-152.79"/>
</g>
<!-- Node78 -->
<g id="node42" class="node">
<title>Node78</title>
<g id="a_node42"><a xlink:href="d__cam__param_8cpp.html" target="_top" xlink:title=" ">
<polygon fill="white" stroke="#666666" points="3404.82,-96 3283.82,-96 3283.82,-77 3404.82,-77 3404.82,-96"/>
<text text-anchor="middle" x="3344.32" y="-84" font-family="Helvetica,sans-Serif" font-size="10.00">src/d/d_cam_param.cpp</text>
</a>
</g>
</g>
<!-- Node5&#45;&gt;Node78 -->
<g id="edge49" class="edge">
<title>Node5&#45;&gt;Node78</title>
<path fill="none" stroke="#63b8ff" d="M2605.11,-157.09C2735.13,-156.25 3030.92,-149.35 3275.32,-107 3289.55,-104.53 3305.05,-100.3 3317.75,-96.4"/>
<polygon fill="#63b8ff" stroke="#63b8ff" points="2605.29,-153.59 2595.31,-157.14 2605.33,-160.59 2605.29,-153.59"/>
</g>
<!-- Node79 -->
<g id="node43" class="node">
<title>Node79</title>
<g id="a_node43"><a xlink:href="d__camera_8cpp.html" target="_top" xlink:title=" ">
<polygon fill="white" stroke="#666666" points="3525.32,-96 3423.32,-96 3423.32,-77 3525.32,-77 3525.32,-96"/>
<text text-anchor="middle" x="3474.32" y="-84" font-family="Helvetica,sans-Serif" font-size="10.00">src/d/d_camera.cpp</text>
</a>
</g>
</g>
<!-- Node5&#45;&gt;Node79 -->
<g id="edge50" class="edge">
<title>Node5&#45;&gt;Node79</title>
<path fill="none" stroke="#63b8ff" d="M2605.04,-155.41C2781.8,-150.84 3259.29,-136.11 3414.32,-107 3426.92,-104.63 3440.53,-100.36 3451.6,-96.41"/>
<polygon fill="#63b8ff" stroke="#63b8ff" points="2605,-151.91 2595.1,-155.66 2605.18,-158.91 2605,-151.91"/>
</g>
<!-- Node80 -->
<g id="node44" class="node">
<title>Node80</title>
<g id="a_node44"><a xlink:href="d__eye__hl_8cpp.html" target="_top" xlink:title=" ">
<polygon fill="white" stroke="#666666" points="3641.32,-96 3543.32,-96 3543.32,-77 3641.32,-77 3641.32,-96"/>
<text text-anchor="middle" x="3592.32" y="-84" font-family="Helvetica,sans-Serif" font-size="10.00">src/d/d_eye_hl.cpp</text>
</a>
</g>
</g>
<!-- Node5&#45;&gt;Node80 -->
<g id="edge52" class="edge">
<title>Node5&#45;&gt;Node80</title>
<path fill="none" stroke="#63b8ff" d="M2605.03,-156.03C2798.17,-152.84 3355.43,-140.89 3534.32,-107 3546.53,-104.69 3559.7,-100.41 3570.39,-96.46"/>
<polygon fill="#63b8ff" stroke="#63b8ff" points="2605.11,-152.53 2595.17,-156.19 2605.23,-159.53 2605.11,-152.53"/>
</g>
<!-- Node81 -->
<g id="node45" class="node">
<title>Node81</title>
<g id="a_node45"><a xlink:href="d__kyeff_8cpp.html" target="_top" xlink:title=" ">
<polygon fill="white" stroke="#666666" points="3749.32,-96 3659.32,-96 3659.32,-77 3749.32,-77 3749.32,-96"/>
<text text-anchor="middle" x="3704.32" y="-84" font-family="Helvetica,sans-Serif" font-size="10.00">src/d/d_kyeff.cpp</text>
</a>
</g>
</g>
<!-- Node5&#45;&gt;Node81 -->
<g id="edge53" class="edge">
<title>Node5&#45;&gt;Node81</title>
<path fill="none" stroke="#63b8ff" d="M2604.89,-156.63C2812.85,-155.06 3448.46,-147.02 3650.32,-107 3661.76,-104.73 3674.02,-100.46 3683.97,-96.5"/>
<polygon fill="#63b8ff" stroke="#63b8ff" points="2605.05,-153.13 2595.08,-156.7 2605.1,-160.13 2605.05,-153.13"/>
</g>
<!-- Node82 -->
<g id="node46" class="node">
<title>Node82</title>
<g id="a_node46"><a xlink:href="d__path_8cpp.html" target="_top" xlink:title=" ">
<polygon fill="white" stroke="#666666" points="3856.82,-96 3767.82,-96 3767.82,-77 3856.82,-77 3856.82,-96"/>
<text text-anchor="middle" x="3812.32" y="-84" font-family="Helvetica,sans-Serif" font-size="10.00">src/d/d_path.cpp</text>
</a>
</g>
</g>
<!-- Node5&#45;&gt;Node82 -->
<g id="edge54" class="edge">
<title>Node5&#45;&gt;Node82</title>
<path fill="none" stroke="#63b8ff" d="M2604.88,-156.94C2826,-156.32 3534.67,-150.88 3758.32,-107 3769.86,-104.74 3782.24,-100.42 3792.23,-96.42"/>
<polygon fill="#63b8ff" stroke="#63b8ff" points="2604.99,-153.44 2595,-156.96 2605.01,-160.44 2604.99,-153.44"/>
</g>
<!-- Node83 -->
<g id="node47" class="node">
<title>Node83</title>
<g id="a_node47"><a xlink:href="d__resorce_8cpp.html" target="_top" xlink:title=" ">
<polygon fill="white" stroke="#666666" points="3977.32,-96 3875.32,-96 3875.32,-77 3977.32,-77 3977.32,-96"/>
<text text-anchor="middle" x="3926.32" y="-84" font-family="Helvetica,sans-Serif" font-size="10.00">src/d/d_resorce.cpp</text>
</a>
</g>
</g>
<!-- Node5&#45;&gt;Node83 -->
<g id="edge55" class="edge">
<title>Node5&#45;&gt;Node83</title>
<path fill="none" stroke="#63b8ff" d="M2605.15,-156.92C2839.08,-156.26 3620.18,-150.76 3866.32,-107 3879.05,-104.74 3892.79,-100.42 3903.91,-96.42"/>
<polygon fill="#63b8ff" stroke="#63b8ff" points="2605.28,-153.42 2595.29,-156.95 2605.3,-160.42 2605.28,-153.42"/>
</g>
<!-- Node84 -->
<g id="node48" class="node">
<title>Node84</title>
<g id="a_node48"><a xlink:href="d__simple__model_8cpp.html" target="_top" xlink:title=" ">
<polygon fill="white" stroke="#666666" points="4125.32,-96 3995.32,-96 3995.32,-77 4125.32,-77 4125.32,-96"/>
<text text-anchor="middle" x="4060.32" y="-84" font-family="Helvetica,sans-Serif" font-size="10.00">src/d/d_simple_model.cpp</text>
</a>
</g>
</g>
<!-- Node5&#45;&gt;Node84 -->
<g id="edge56" class="edge">
<title>Node5&#45;&gt;Node84</title>
<path fill="none" stroke="#63b8ff" d="M2604.82,-156.67C2851.57,-155.15 3714.4,-147.01 3986.32,-107 4001.83,-104.72 4018.77,-100.4 4032.52,-96.4"/>
<polygon fill="#63b8ff" stroke="#63b8ff" points="2605.04,-153.17 2595.06,-156.73 2605.08,-160.17 2605.04,-153.17"/>
</g>
<!-- Node5&#45;&gt;Node98 -->
<g id="edge60" class="edge">
<title>Node5&#45;&gt;Node98</title>
<path fill="none" stroke="#63b8ff" d="M2471.48,-156.59C2116.08,-154.3 455.62,-141.77 229.32,-107 215.19,-104.83 199.85,-100.52 187.42,-96.5"/>
<polygon fill="#63b8ff" stroke="#63b8ff" points="2471.31,-160.09 2481.33,-156.66 2471.35,-153.09 2471.31,-160.09"/>
</g>
<!-- Node6&#45;&gt;Node11 -->
<g id="edge6" class="edge">
<title>Node6&#45;&gt;Node11</title>
<path fill="none" stroke="#63b8ff" d="M1737.4,-73.1C1728.04,-70.32 1717.89,-67.69 1708.32,-66 1553.75,-38.68 1072.61,-22.42 908.68,-17.55"/>
<polygon fill="#63b8ff" stroke="#63b8ff" points="1736.31,-76.42 1746.89,-76.07 1738.39,-69.74 1736.31,-76.42"/>
</g>
<!-- Node18&#45;&gt;Node15 -->
<g id="edge9" class="edge">
<title>Node18&#45;&gt;Node15</title>
<path fill="none" stroke="#63b8ff" d="M4819.96,-73.03C4811.61,-70.46 4802.71,-67.94 4794.32,-66 4698.35,-43.8 4584.36,-29.08 4518.28,-21.66"/>
<polygon fill="#63b8ff" stroke="#63b8ff" points="4818.89,-76.37 4829.48,-76.08 4821.02,-69.7 4818.89,-76.37"/>
</g>
<!-- Node18&#45;&gt;Node19 -->
<g id="edge10" class="edge">
<title>Node18&#45;&gt;Node19</title>
<path fill="none" stroke="#63b8ff" d="M4832.26,-70.83C4809.49,-56.95 4776.04,-36.56 4757,-24.95"/>
<polygon fill="#63b8ff" stroke="#63b8ff" points="4830.23,-73.69 4840.59,-75.91 4833.87,-67.72 4830.23,-73.69"/>
</g>
<!-- Node18&#45;&gt;Node20 -->
<g id="edge11" class="edge">
<title>Node18&#45;&gt;Node20</title>
<path fill="none" stroke="#63b8ff" d="M4882.74,-71.15C4904.66,-59.25 4935.68,-42.41 4957.67,-30.47"/>
<polygon fill="#63b8ff" stroke="#63b8ff" points="4881.24,-67.99 4874.12,-75.83 4884.58,-74.14 4881.24,-67.99"/>
</g>
<!-- Node18&#45;&gt;Node21 -->
<g id="edge12" class="edge">
<title>Node18&#45;&gt;Node21</title>
<path fill="none" stroke="#63b8ff" d="M4859.45,-65.71C4861.58,-52.29 4864.28,-35.2 4865.9,-24.95"/>
<polygon fill="#63b8ff" stroke="#63b8ff" points="4856.06,-64.78 4857.95,-75.2 4862.97,-65.87 4856.06,-64.78"/>
</g>
<!-- Node35&#45;&gt;Node3 -->
<g id="edge19" class="edge">
<title>Node35&#45;&gt;Node3</title>
<path fill="none" stroke="#63b8ff" d="M326.13,-103.23C374.17,-139.54 492.22,-228.78 538.38,-263.68"/>
<polygon fill="#63b8ff" stroke="#63b8ff" points="328.29,-100.47 318.2,-97.23 324.07,-106.06 328.29,-100.47"/>
</g>
<!-- Node37&#45;&gt;Node11 -->
<g id="edge24" class="edge">
<title>Node37&#45;&gt;Node11</title>
<path fill="none" stroke="#63b8ff" d="M620.4,-68.04C623.08,-67.34 625.72,-66.65 628.32,-66 685.94,-51.47 752.42,-36.97 798.1,-27.36"/>
<polygon fill="#63b8ff" stroke="#63b8ff" points="619.57,-64.64 610.82,-70.61 621.38,-71.4 619.57,-64.64"/>
</g>
<!-- Node37&#45;&gt;Node15 -->
<g id="edge21" class="edge">
<title>Node37&#45;&gt;Node15</title>
<path fill="none" stroke="#63b8ff" d="M625.65,-71.16C637.79,-69.04 650.4,-67.18 662.32,-66 1468.88,13.69 3499.86,-70.72 4309.32,-30 4342.3,-28.34 4379.14,-25.04 4408.52,-22.07"/>
<polygon fill="#63b8ff" stroke="#63b8ff" points="625.35,-67.65 616.14,-72.89 626.61,-74.54 625.35,-67.65"/>
</g>
<!-- Node37&#45;&gt;Node42 -->
<g id="edge22" class="edge">
<title>Node37&#45;&gt;Node42</title>
<path fill="none" stroke="#63b8ff" d="M558.59,-59.96C558.23,-47.57 557.82,-33.49 557.57,-24.68"/>
<polygon fill="#63b8ff" stroke="#63b8ff" points="555.08,-59.69 558.86,-69.59 562.07,-59.49 555.08,-59.69"/>
</g>
<!-- Node37&#45;&gt;Node46 -->
<g id="edge23" class="edge">
<title>Node37&#45;&gt;Node46</title>
<path fill="none" stroke="#63b8ff" d="M492.63,-73.8C414.09,-60.01 285.36,-37.42 214.34,-24.95"/>
<polygon fill="#63b8ff" stroke="#63b8ff" points="491.9,-77.22 502.35,-75.5 493.11,-70.33 491.9,-77.22"/>
</g>
<!-- Node37&#45;&gt;Node47 -->
<g id="edge25" class="edge">
<title>Node37&#45;&gt;Node47</title>
<path fill="none" stroke="#63b8ff" d="M524.49,-65.49C504.96,-54.27 481.04,-40.54 463.36,-30.38"/>
<polygon fill="#63b8ff" stroke="#63b8ff" points="522.52,-68.4 532.94,-70.35 526.01,-62.33 522.52,-68.4"/>
</g>
<!-- Node65&#45;&gt;Node15 -->
<g id="edge32" class="edge">
<title>Node65&#45;&gt;Node15</title>
<path fill="none" stroke="#63b8ff" d="M4403.75,-64.14C4420.07,-50.95 4440.15,-34.72 4452.34,-24.88"/>
<polygon fill="#63b8ff" stroke="#63b8ff" points="4401.9,-61.14 4396.32,-70.15 4406.3,-66.58 4401.9,-61.14"/>
</g>
<!-- Node65&#45;&gt;Node66 -->
<g id="edge33" class="edge">
<title>Node65&#45;&gt;Node66</title>
<path fill="none" stroke="#63b8ff" d="M4339.64,-65.96C4313.64,-52.47 4280.3,-35.18 4260.44,-24.88"/>
<polygon fill="#63b8ff" stroke="#63b8ff" points="4337.72,-68.91 4348.21,-70.4 4340.95,-62.69 4337.72,-68.91"/>
</g>
</g>
</svg>
