<?xml version="1.0" encoding="UTF-8" standalone="no"?>
<!DOCTYPE svg PUBLIC "-//W3C//DTD SVG 1.1//EN"
 "http://www.w3.org/Graphics/SVG/1.1/DTD/svg11.dtd">
<!-- Generated by graphviz version 7.0.4 (20221203.1631)
 -->
<!-- Title: include/d/map/d_map_path_dmap.h Pages: 1 -->
<svg width="4782pt" height="489pt"
 viewBox="0.00 0.00 4782.00 489.00" xmlns="http://www.w3.org/2000/svg" xmlns:xlink="http://www.w3.org/1999/xlink">
<g id="graph0" class="graph" transform="scale(1 1) rotate(0) translate(4 485)">
<title>include/d/map/d_map_path_dmap.h</title>
<!-- Node1 -->
<g id="node1" class="node">
<title>Node1</title>
<g id="a_node1"><a xlink:title=" ">
<polygon fill="#999999" stroke="#666666" points="4567,-481 4457,-481 4457,-451 4567,-451 4567,-481"/>
<text text-anchor="start" x="4465" y="-469" font-family="Helvetica,sans-Serif" font-size="10.00">include/d/map/d_map</text>
<text text-anchor="middle" x="4512" y="-458" font-family="Helvetica,sans-Serif" font-size="10.00">_path_dmap.h</text>
</a>
</g>
</g>
<!-- Node2 -->
<g id="node2" class="node">
<title>Node2</title>
<g id="a_node2"><a xlink:href="d__meter__map_8h.html" target="_top" xlink:title=" ">
<polygon fill="white" stroke="#666666" points="4268,-415 4146,-415 4146,-385 4268,-385 4268,-415"/>
<text text-anchor="start" x="4154" y="-403" font-family="Helvetica,sans-Serif" font-size="10.00">include/d/meter/d_meter</text>
<text text-anchor="middle" x="4207" y="-392" font-family="Helvetica,sans-Serif" font-size="10.00">_map.h</text>
</a>
</g>
</g>
<!-- Node1&#45;&gt;Node2 -->
<g id="edge1" class="edge">
<title>Node1&#45;&gt;Node2</title>
<path fill="none" stroke="#63b8ff" d="M4445.51,-451.05C4392.79,-439.99 4319.71,-424.65 4268.37,-413.88"/>
<polygon fill="#63b8ff" stroke="#63b8ff" points="4444.78,-454.47 4455.29,-453.1 4446.22,-447.62 4444.78,-454.47"/>
</g>
<!-- Node92 -->
<g id="node47" class="node">
<title>Node92</title>
<g id="a_node47"><a xlink:href="d__map__path__dmap_8cpp.html" target="_top" xlink:title=" ">
<polygon fill="white" stroke="#666666" points="4708,-101.5 4592,-101.5 4592,-71.5 4708,-71.5 4708,-101.5"/>
<text text-anchor="start" x="4600" y="-89.5" font-family="Helvetica,sans-Serif" font-size="10.00">src/d/map/d_map_path</text>
<text text-anchor="middle" x="4650" y="-78.5" font-family="Helvetica,sans-Serif" font-size="10.00">_dmap.cpp</text>
</a>
</g>
</g>
<!-- Node1&#45;&gt;Node92 -->
<g id="edge71" class="edge">
<title>Node1&#45;&gt;Node92</title>
<path fill="none" stroke="#63b8ff" d="M4578.38,-461.53C4656,-453.48 4774,-427.02 4774,-340.5 4774,-340.5 4774,-340.5 4774,-217.5 4774,-162.92 4716.05,-122.21 4679.39,-101.91"/>
<polygon fill="#63b8ff" stroke="#63b8ff" points="4578.37,-458.02 4568.75,-462.45 4579.04,-464.99 4578.37,-458.02"/>
</g>
<!-- Node3 -->
<g id="node3" class="node">
<title>Node3</title>
<g id="a_node3"><a xlink:href="d__meter2_8h.html" target="_top" xlink:title=" ">
<polygon fill="white" stroke="#666666" points="4274,-349 4140,-349 4140,-330 4274,-330 4274,-349"/>
<text text-anchor="middle" x="4207" y="-337" font-family="Helvetica,sans-Serif" font-size="10.00">include/d/meter/d_meter2.h</text>
</a>
</g>
</g>
<!-- Node2&#45;&gt;Node3 -->
<g id="edge2" class="edge">
<title>Node2&#45;&gt;Node3</title>
<path fill="none" stroke="#63b8ff" d="M4207,-373.3C4207,-364.65 4207,-355.58 4207,-349.18"/>
<polygon fill="#63b8ff" stroke="#63b8ff" points="4203.5,-373.03 4207,-383.03 4210.5,-373.03 4203.5,-373.03"/>
</g>
<!-- Node46 -->
<g id="node23" class="node">
<title>Node46</title>
<g id="a_node23"><a xlink:href="d__meter__map_8cpp.html" target="_top" xlink:title=" ">
<polygon fill="white" stroke="#666666" points="104,-30 0,-30 0,0 104,0 104,-30"/>
<text text-anchor="start" x="8" y="-18" font-family="Helvetica,sans-Serif" font-size="10.00">src/d/meter/d_meter</text>
<text text-anchor="middle" x="52" y="-7" font-family="Helvetica,sans-Serif" font-size="10.00">_map.cpp</text>
</a>
</g>
</g>
<!-- Node2&#45;&gt;Node46 -->
<g id="edge70" class="edge">
<title>Node2&#45;&gt;Node46</title>
<path fill="none" stroke="#63b8ff" d="M4134.26,-398.9C3577.58,-397.92 14,-387.42 14,-280 14,-280 14,-280 14,-157 14,-109.34 34.49,-55.64 45.38,-30.47"/>
<polygon fill="#63b8ff" stroke="#63b8ff" points="4134.18,-402.4 4144.19,-398.92 4134.2,-395.4 4134.18,-402.4"/>
</g>
<!-- Node4 -->
<g id="node4" class="node">
<title>Node4</title>
<g id="a_node4"><a xlink:href="d__meter2__info_8h.html" target="_top" xlink:title=" ">
<polygon fill="white" stroke="#666666" points="4270.5,-294 4143.5,-294 4143.5,-264 4270.5,-264 4270.5,-294"/>
<text text-anchor="start" x="4151.5" y="-282" font-family="Helvetica,sans-Serif" font-size="10.00">include/d/meter/d_meter2</text>
<text text-anchor="middle" x="4207" y="-271" font-family="Helvetica,sans-Serif" font-size="10.00">_info.h</text>
</a>
</g>
</g>
<!-- Node3&#45;&gt;Node4 -->
<g id="edge3" class="edge">
<title>Node3&#45;&gt;Node4</title>
<path fill="none" stroke="#63b8ff" d="M4207,-318.51C4207,-310.49 4207,-301.43 4207,-294.11"/>
<polygon fill="#63b8ff" stroke="#63b8ff" points="4203.5,-318.35 4207,-328.35 4210.5,-318.35 4203.5,-318.35"/>
</g>
<!-- Node108 -->
<g id="node50" class="node">
<title>Node108</title>
<g id="a_node50"><a xlink:href="d__meter2_8cpp.html" target="_top" xlink:title=" ">
<polygon fill="white" stroke="#666666" points="4417,-288.5 4289,-288.5 4289,-269.5 4417,-269.5 4417,-288.5"/>
<text text-anchor="middle" x="4353" y="-276.5" font-family="Helvetica,sans-Serif" font-size="10.00">src/d/meter/d_meter2.cpp</text>
</a>
</g>
</g>
<!-- Node3&#45;&gt;Node108 -->
<g id="edge69" class="edge">
<title>Node3&#45;&gt;Node108</title>
<path fill="none" stroke="#63b8ff" d="M4239.54,-325.46C4267.25,-314.36 4306.31,-298.71 4330.62,-288.97"/>
<polygon fill="#63b8ff" stroke="#63b8ff" points="4238.56,-322.08 4230.58,-329.05 4241.16,-328.58 4238.56,-322.08"/>
</g>
<!-- Node5 -->
<g id="node5" class="node">
<title>Node5</title>
<g id="a_node5"><a xlink:href="d__a__alink_8h.html" target="_top" xlink:title=" ">
<polygon fill="white" stroke="#666666" points="4308,-228 4192,-228 4192,-209 4308,-209 4308,-228"/>
<text text-anchor="middle" x="4250" y="-216" font-family="Helvetica,sans-Serif" font-size="10.00">include/d/a/d_a_alink.h</text>
</a>
</g>
</g>
<!-- Node4&#45;&gt;Node5 -->
<g id="edge4" class="edge">
<title>Node4&#45;&gt;Node5</title>
<path fill="none" stroke="#63b8ff" d="M4224.38,-254.35C4231.18,-245.11 4238.54,-235.09 4243.62,-228.18"/>
<polygon fill="#63b8ff" stroke="#63b8ff" points="4221.63,-252.19 4218.53,-262.32 4227.27,-256.34 4221.63,-252.19"/>
</g>
<!-- Node12 -->
<g id="node8" class="node">
<title>Node12</title>
<g id="a_node8"><a xlink:href="d__meter2__info_8cpp.html" target="_top" xlink:title=" ">
<polygon fill="white" stroke="#666666" points="3860,-30 3750,-30 3750,0 3860,0 3860,-30"/>
<text text-anchor="start" x="3758" y="-18" font-family="Helvetica,sans-Serif" font-size="10.00">src/d/meter/d_meter2</text>
<text text-anchor="middle" x="3805" y="-7" font-family="Helvetica,sans-Serif" font-size="10.00">_info.cpp</text>
</a>
</g>
</g>
<!-- Node4&#45;&gt;Node12 -->
<g id="edge67" class="edge">
<title>Node4&#45;&gt;Node12</title>
<path fill="none" stroke="#63b8ff" d="M4195.1,-253.32C4191.23,-245.26 4186.92,-236.25 4183,-228 4148.9,-156.15 4170.4,-114.01 4107,-66 4069.08,-37.29 3936.54,-24.28 3860.24,-19.06"/>
<polygon fill="#63b8ff" stroke="#63b8ff" points="4191.89,-254.72 4199.38,-262.21 4198.2,-251.68 4191.89,-254.72"/>
</g>
<!-- Node21 -->
<g id="node13" class="node">
<title>Node21</title>
<g id="a_node13"><a xlink:href="d__com__inf__game_8cpp.html" target="_top" xlink:title=" ">
<polygon fill="white" stroke="#666666" points="4527,-30 4419,-30 4419,0 4527,0 4527,-30"/>
<text text-anchor="start" x="4427" y="-18" font-family="Helvetica,sans-Serif" font-size="10.00">src/d/com/d_com_inf</text>
<text text-anchor="middle" x="4473" y="-7" font-family="Helvetica,sans-Serif" font-size="10.00">_game.cpp</text>
</a>
</g>
</g>
<!-- Node4&#45;&gt;Node21 -->
<g id="edge65" class="edge">
<title>Node4&#45;&gt;Node21</title>
<path fill="none" stroke="#63b8ff" d="M4272.61,-260.65C4404.31,-225.17 4690.59,-144.51 4717,-107 4765.68,-37.87 4613.04,-21.18 4527.23,-17.2"/>
<polygon fill="#63b8ff" stroke="#63b8ff" points="4272.09,-257.16 4263.34,-263.14 4273.91,-263.92 4272.09,-257.16"/>
</g>
<!-- Node22 -->
<g id="node14" class="node">
<title>Node22</title>
<g id="a_node14"><a xlink:href="d__item_8cpp.html" target="_top" xlink:title=" ">
<polygon fill="white" stroke="#666666" points="4400.5,-24.5 4311.5,-24.5 4311.5,-5.5 4400.5,-5.5 4400.5,-24.5"/>
<text text-anchor="middle" x="4356" y="-12.5" font-family="Helvetica,sans-Serif" font-size="10.00">src/d/d_item.cpp</text>
</a>
</g>
</g>
<!-- Node4&#45;&gt;Node22 -->
<g id="edge66" class="edge">
<title>Node4&#45;&gt;Node22</title>
<path fill="none" stroke="#63b8ff" d="M4264.03,-259.93C4289.03,-251.32 4318.43,-240.22 4344,-228 4438.08,-183.03 4493.69,-197.77 4545,-107 4553.97,-91.14 4556.12,-80.44 4545,-66 4544.4,-65.22 4444.9,-39.18 4390.53,-25"/>
<polygon fill="#63b8ff" stroke="#63b8ff" points="4263.03,-256.57 4254.69,-263.1 4265.28,-263.2 4263.03,-256.57"/>
</g>
<!-- Node97 -->
<g id="node48" class="node">
<title>Node97</title>
<g id="a_node48"><a xlink:href="d__save_8cpp.html" target="_top" xlink:title=" ">
<polygon fill="white" stroke="#666666" points="4535.5,-96 4420.5,-96 4420.5,-77 4535.5,-77 4535.5,-96"/>
<text text-anchor="middle" x="4478" y="-84" font-family="Helvetica,sans-Serif" font-size="10.00">src/d/save/d_save.cpp</text>
</a>
</g>
</g>
<!-- Node4&#45;&gt;Node97 -->
<g id="edge68" class="edge">
<title>Node4&#45;&gt;Node97</title>
<path fill="none" stroke="#63b8ff" d="M4256.38,-259.19C4275.93,-250.83 4298.17,-240.12 4317,-228 4381.57,-186.43 4446.98,-120.22 4469.66,-96.4"/>
<polygon fill="#63b8ff" stroke="#63b8ff" points="4255.12,-255.92 4247.24,-263.01 4257.81,-262.38 4255.12,-255.92"/>
</g>
<!-- Node107 -->
<g id="node49" class="node">
<title>Node107</title>
<g id="a_node49"><a xlink:href="d__menu__window_8h.html" target="_top" xlink:title=" ">
<polygon fill="white" stroke="#666666" points="1290,-173 1170,-173 1170,-143 1290,-143 1290,-173"/>
<text text-anchor="start" x="1178" y="-161" font-family="Helvetica,sans-Serif" font-size="10.00">include/d/menu/d_menu</text>
<text text-anchor="middle" x="1230" y="-150" font-family="Helvetica,sans-Serif" font-size="10.00">_window.h</text>
</a>
</g>
</g>
<!-- Node4&#45;&gt;Node107 -->
<g id="edge61" class="edge">
<title>Node4&#45;&gt;Node107</title>
<path fill="none" stroke="#63b8ff" d="M4131.69,-275.08C3712.13,-258.55 1668.9,-176.87 1290.37,-161.5"/>
<polygon fill="#63b8ff" stroke="#63b8ff" points="4131.41,-278.57 4141.54,-275.47 4131.68,-271.58 4131.41,-278.57"/>
</g>
<!-- Node6 -->
<g id="node6" class="node">
<title>Node6</title>
<g id="a_node6"><a xlink:href="d__com__inf__game_8h.html" target="_top" xlink:title=" ">
<polygon fill="#fff0f0" stroke="red" points="2546,-173 2436,-173 2436,-143 2546,-143 2546,-173"/>
<text text-anchor="start" x="2444" y="-161" font-family="Helvetica,sans-Serif" font-size="10.00">include/d/com/d_com</text>
<text text-anchor="middle" x="2491" y="-150" font-family="Helvetica,sans-Serif" font-size="10.00">_inf_game.h</text>
</a>
</g>
</g>
<!-- Node5&#45;&gt;Node6 -->
<g id="edge5" class="edge">
<title>Node5&#45;&gt;Node6</title>
<path fill="none" stroke="#63b8ff" d="M4180.52,-215.19C3893.68,-205.65 2804.74,-169.43 2546.27,-160.84"/>
<polygon fill="#63b8ff" stroke="#63b8ff" points="4180.35,-218.69 4190.46,-215.52 4180.59,-211.69 4180.35,-218.69"/>
</g>
<!-- Node16 -->
<g id="node11" class="node">
<title>Node16</title>
<g id="a_node11"><a xlink:href="d__a__alink_8cpp.html" target="_top" xlink:title=" ">
<polygon fill="white" stroke="#666666" points="4150.5,-24.5 4041.5,-24.5 4041.5,-5.5 4150.5,-5.5 4150.5,-24.5"/>
<text text-anchor="middle" x="4096" y="-12.5" font-family="Helvetica,sans-Serif" font-size="10.00">src/d/a/d_a_alink.cpp</text>
</a>
</g>
</g>
<!-- Node5&#45;&gt;Node16 -->
<g id="edge60" class="edge">
<title>Node5&#45;&gt;Node16</title>
<path fill="none" stroke="#63b8ff" d="M4244.58,-197.58C4235.3,-166.45 4213.81,-105.74 4178,-66 4161.15,-47.3 4135.64,-33.26 4117.56,-24.89"/>
<polygon fill="#63b8ff" stroke="#63b8ff" points="4241.21,-198.51 4247.32,-207.17 4247.94,-196.6 4241.21,-198.51"/>
</g>
<!-- Node6&#45;&gt;Node3 -->
<g id="edge19" class="edge">
<title>Node6&#45;&gt;Node3</title>
<path fill="none" stroke="#63b8ff" d="M2557.55,-165.96C2830.82,-194.55 3865.14,-302.74 4139.73,-331.46"/>
<polygon fill="#63b8ff" stroke="#63b8ff" points="2558.07,-162.5 2547.76,-164.94 2557.34,-169.46 2558.07,-162.5"/>
</g>
<!-- Node7 -->
<g id="node7" class="node">
<title>Node7</title>
<g id="a_node7"><a xlink:href="d__a__npc_8h.html" target="_top" xlink:title=" ">
<polygon fill="#fff0f0" stroke="red" points="3818.5,-96 3707.5,-96 3707.5,-77 3818.5,-77 3818.5,-96"/>
<text text-anchor="middle" x="3763" y="-84" font-family="Helvetica,sans-Serif" font-size="10.00">include/d/a/d_a_npc.h</text>
</a>
</g>
</g>
<!-- Node6&#45;&gt;Node7 -->
<g id="edge6" class="edge">
<title>Node6&#45;&gt;Node7</title>
<path fill="none" stroke="#63b8ff" d="M2557.58,-156.47C2777.12,-154.37 3476.78,-144.82 3699,-107 3712.4,-104.72 3726.92,-100.45 3738.73,-96.49"/>
<polygon fill="#63b8ff" stroke="#63b8ff" points="2557.74,-152.97 2547.78,-156.56 2557.81,-159.97 2557.74,-152.97"/>
</g>
<!-- Node6&#45;&gt;Node12 -->
<g id="edge57" class="edge">
<title>Node6&#45;&gt;Node12</title>
<path fill="none" stroke="#63b8ff" d="M2557.65,-157.04C2821.87,-156.89 3783.54,-153.15 3828,-107 3848.12,-86.11 3829.14,-50.28 3815.71,-30.38"/>
<polygon fill="#63b8ff" stroke="#63b8ff" points="2557.85,-153.54 2547.85,-157.05 2557.85,-160.54 2557.85,-153.54"/>
</g>
<!-- Node13 -->
<g id="node9" class="node">
<title>Node13</title>
<g id="a_node9"><a xlink:href="d__cc__uty_8h.html" target="_top" xlink:title=" ">
<polygon fill="#fff0f0" stroke="red" points="3689.5,-96 3570.5,-96 3570.5,-77 3689.5,-77 3689.5,-96"/>
<text text-anchor="middle" x="3630" y="-84" font-family="Helvetica,sans-Serif" font-size="10.00">include/d/cc/d_cc_uty.h</text>
</a>
</g>
</g>
<!-- Node6&#45;&gt;Node13 -->
<g id="edge8" class="edge">
<title>Node6&#45;&gt;Node13</title>
<path fill="none" stroke="#63b8ff" d="M2557.69,-155.88C2760.27,-152.16 3366.42,-138.61 3561,-107 3575.38,-104.66 3591.02,-100.39 3603.78,-96.44"/>
<polygon fill="#63b8ff" stroke="#63b8ff" points="2557.8,-152.38 2547.87,-156.06 2557.93,-159.37 2557.8,-152.38"/>
</g>
<!-- Node19 -->
<g id="node10" class="node">
<title>Node19</title>
<g id="a_node10"><a xlink:href="d__item_8h.html" target="_top" xlink:title=" ">
<polygon fill="#fff0f0" stroke="red" points="4363.5,-96 4268.5,-96 4268.5,-77 4363.5,-77 4363.5,-96"/>
<text text-anchor="middle" x="4316" y="-84" font-family="Helvetica,sans-Serif" font-size="10.00">include/d/d_item.h</text>
</a>
</g>
</g>
<!-- Node6&#45;&gt;Node19 -->
<g id="edge9" class="edge">
<title>Node6&#45;&gt;Node19</title>
<path fill="none" stroke="#63b8ff" d="M2557.86,-156.52C2833.92,-154.34 3885.94,-143.71 4216,-107 4236.57,-104.71 4259.22,-100.44 4277.76,-96.48"/>
<polygon fill="#63b8ff" stroke="#63b8ff" points="2557.94,-153.02 2547.96,-156.6 2557.99,-160.02 2557.94,-153.02"/>
</g>
<!-- Node6&#45;&gt;Node16 -->
<g id="edge37" class="edge">
<title>Node6&#45;&gt;Node16</title>
<path fill="none" stroke="#63b8ff" d="M2557.18,-156.2C2857.6,-152.41 4079.59,-135.27 4107,-107 4128.71,-84.61 4110.73,-43.16 4101.11,-24.96"/>
<polygon fill="#63b8ff" stroke="#63b8ff" points="2557.52,-152.69 2547.57,-156.32 2557.61,-159.69 2557.52,-152.69"/>
</g>
<!-- Node20 -->
<g id="node12" class="node">
<title>Node20</title>
<g id="a_node12"><a xlink:href="d__a__obj__item_8cpp.html" target="_top" xlink:title=" ">
<polygon fill="white" stroke="#666666" points="4293.5,-24.5 4168.5,-24.5 4168.5,-5.5 4293.5,-5.5 4293.5,-24.5"/>
<text text-anchor="middle" x="4231" y="-12.5" font-family="Helvetica,sans-Serif" font-size="10.00">src/d/a/d_a_obj_item.cpp</text>
</a>
</g>
</g>
<!-- Node6&#45;&gt;Node20 -->
<g id="edge40" class="edge">
<title>Node6&#45;&gt;Node20</title>
<path fill="none" stroke="#63b8ff" d="M2557.75,-156.21C2855.61,-152.51 4051.93,-135.93 4126,-107 4170.71,-89.54 4209.36,-44.24 4224.35,-24.93"/>
<polygon fill="#63b8ff" stroke="#63b8ff" points="2557.77,-152.71 2547.81,-156.33 2557.86,-159.71 2557.77,-152.71"/>
</g>
<!-- Node6&#45;&gt;Node21 -->
<g id="edge46" class="edge">
<title>Node6&#45;&gt;Node21</title>
<path fill="none" stroke="#63b8ff" d="M2557.1,-156.66C2881.01,-154.8 4288.47,-144.6 4373,-107 4395.98,-96.78 4393.57,-83.12 4412,-66 4425.65,-53.33 4442.01,-40.01 4454.35,-30.31"/>
<polygon fill="#63b8ff" stroke="#63b8ff" points="2557.53,-153.16 2547.55,-156.71 2557.57,-160.16 2557.53,-153.16"/>
</g>
<!-- Node24 -->
<g id="node15" class="node">
<title>Node24</title>
<g id="a_node15"><a xlink:href="d__kantera__icon__meter_8h.html" target="_top" xlink:title=" ">
<polygon fill="#fff0f0" stroke="red" points="3976.5,-101.5 3875.5,-101.5 3875.5,-71.5 3976.5,-71.5 3976.5,-101.5"/>
<text text-anchor="start" x="3883.5" y="-89.5" font-family="Helvetica,sans-Serif" font-size="10.00">include/d/d_kantera</text>
<text text-anchor="middle" x="3926" y="-78.5" font-family="Helvetica,sans-Serif" font-size="10.00">_icon_meter.h</text>
</a>
</g>
</g>
<!-- Node6&#45;&gt;Node24 -->
<g id="edge14" class="edge">
<title>Node6&#45;&gt;Node24</title>
<path fill="none" stroke="#63b8ff" d="M2557.51,-156.81C2795.73,-155.8 3605.71,-149.24 3861,-107 3868.32,-105.79 3875.98,-103.99 3883.36,-101.97"/>
<polygon fill="#63b8ff" stroke="#63b8ff" points="2557.77,-153.31 2547.79,-156.85 2557.8,-160.31 2557.77,-153.31"/>
</g>
<!-- Node27 -->
<g id="node16" class="node">
<title>Node27</title>
<g id="a_node16"><a xlink:href="d__model_8h.html" target="_top" xlink:title=" ">
<polygon fill="#fff0f0" stroke="red" points="4097.5,-96 3994.5,-96 3994.5,-77 4097.5,-77 4097.5,-96"/>
<text text-anchor="middle" x="4046" y="-84" font-family="Helvetica,sans-Serif" font-size="10.00">include/d/d_model.h</text>
</a>
</g>
</g>
<!-- Node6&#45;&gt;Node27 -->
<g id="edge15" class="edge">
<title>Node6&#45;&gt;Node27</title>
<path fill="none" stroke="#63b8ff" d="M2557.65,-157.25C2809.88,-157.81 3705.75,-156.21 3986,-107 3998.73,-104.76 4012.47,-100.45 4023.59,-96.44"/>
<polygon fill="#63b8ff" stroke="#63b8ff" points="2558.01,-153.75 2548,-157.23 2557.99,-160.75 2558.01,-153.75"/>
</g>
<!-- Node29 -->
<g id="node17" class="node">
<title>Node29</title>
<g id="a_node17"><a xlink:href="d__name_8h.html" target="_top" xlink:title=" ">
<polygon fill="#fff0f0" stroke="red" points="295.5,-96 194.5,-96 194.5,-77 295.5,-77 295.5,-96"/>
<text text-anchor="middle" x="245" y="-84" font-family="Helvetica,sans-Serif" font-size="10.00">include/d/d_name.h</text>
</a>
</g>
</g>
<!-- Node6&#45;&gt;Node29 -->
<g id="edge16" class="edge">
<title>Node6&#45;&gt;Node29</title>
<path fill="none" stroke="#63b8ff" d="M2424.27,-156.02C2068.99,-150.73 411.87,-125.19 305,-107 292.15,-104.81 278.28,-100.45 267.12,-96.4"/>
<polygon fill="#63b8ff" stroke="#63b8ff" points="2424.06,-159.52 2434.11,-156.17 2424.16,-152.52 2424.06,-159.52"/>
</g>
<!-- Node31 -->
<g id="node18" class="node">
<title>Node31</title>
<g id="a_node18"><a xlink:href="d__file__sel__info_8h.html" target="_top" xlink:title=" ">
<polygon fill="#fff0f0" stroke="red" points="410,-101.5 314,-101.5 314,-71.5 410,-71.5 410,-101.5"/>
<text text-anchor="start" x="322" y="-89.5" font-family="Helvetica,sans-Serif" font-size="10.00">include/d/file/d_file</text>
<text text-anchor="middle" x="362" y="-78.5" font-family="Helvetica,sans-Serif" font-size="10.00">_sel_info.h</text>
</a>
</g>
</g>
<!-- Node6&#45;&gt;Node31 -->
<g id="edge17" class="edge">
<title>Node6&#45;&gt;Node31</title>
<path fill="none" stroke="#63b8ff" d="M2424.19,-155.96C2080.09,-150.53 519.8,-125.02 419,-107 412.41,-105.82 405.55,-104.01 398.97,-101.97"/>
<polygon fill="#63b8ff" stroke="#63b8ff" points="2424.11,-159.46 2434.17,-156.12 2424.22,-152.46 2424.11,-159.46"/>
</g>
<!-- Node34 -->
<g id="node19" class="node">
<title>Node34</title>
<g id="a_node19"><a xlink:href="d__file__sel__warning_8h.html" target="_top" xlink:title=" ">
<polygon fill="#fff0f0" stroke="red" points="524,-101.5 428,-101.5 428,-71.5 524,-71.5 524,-101.5"/>
<text text-anchor="start" x="436" y="-89.5" font-family="Helvetica,sans-Serif" font-size="10.00">include/d/file/d_file</text>
<text text-anchor="middle" x="476" y="-78.5" font-family="Helvetica,sans-Serif" font-size="10.00">_sel_warning.h</text>
</a>
</g>
</g>
<!-- Node6&#45;&gt;Node34 -->
<g id="edge18" class="edge">
<title>Node6&#45;&gt;Node34</title>
<path fill="none" stroke="#63b8ff" d="M2424.25,-156.5C2102.79,-153.92 722.07,-140.93 533,-107 526.41,-105.82 519.55,-104.01 512.98,-101.96"/>
<polygon fill="#63b8ff" stroke="#63b8ff" points="2424.13,-160 2434.16,-156.58 2424.19,-153 2424.13,-160"/>
</g>
<!-- Node36 -->
<g id="node20" class="node">
<title>Node36</title>
<g id="a_node20"><a xlink:href="d__msg__object_8h.html" target="_top" xlink:title=" ">
<polygon fill="#fff0f0" stroke="red" points="652,-101.5 542,-101.5 542,-71.5 652,-71.5 652,-101.5"/>
<text text-anchor="start" x="550" y="-89.5" font-family="Helvetica,sans-Serif" font-size="10.00">include/d/msg/d_msg</text>
<text text-anchor="middle" x="597" y="-78.5" font-family="Helvetica,sans-Serif" font-size="10.00">_object.h</text>
</a>
</g>
</g>
<!-- Node6&#45;&gt;Node36 -->
<g id="edge20" class="edge">
<title>Node6&#45;&gt;Node36</title>
<path fill="none" stroke="#63b8ff" d="M2424.37,-156.15C2116.85,-152.11 842.14,-133.87 666,-107 658.12,-105.8 649.87,-103.98 641.93,-101.93"/>
<polygon fill="#63b8ff" stroke="#63b8ff" points="2424.19,-159.65 2434.24,-156.28 2424.28,-152.65 2424.19,-159.65"/>
</g>
<!-- Node41 -->
<g id="node21" class="node">
<title>Node41</title>
<g id="a_node21"><a xlink:href="d__demo_8cpp.html" target="_top" xlink:title=" ">
<polygon fill="white" stroke="#666666" points="685,-24.5 591,-24.5 591,-5.5 685,-5.5 685,-24.5"/>
<text text-anchor="middle" x="638" y="-12.5" font-family="Helvetica,sans-Serif" font-size="10.00">src/d/d_demo.cpp</text>
</a>
</g>
</g>
<!-- Node6&#45;&gt;Node41 -->
<g id="edge51" class="edge">
<title>Node6&#45;&gt;Node41</title>
<path fill="none" stroke="#63b8ff" d="M2424.35,-155.97C2104.12,-150.94 737.49,-128.23 699,-107 682.1,-97.68 653.64,-45.92 642.59,-24.89"/>
<polygon fill="#63b8ff" stroke="#63b8ff" points="2424.17,-159.47 2434.22,-156.13 2424.28,-152.47 2424.17,-159.47"/>
</g>
<!-- Node45 -->
<g id="node22" class="node">
<title>Node45</title>
<g id="a_node22"><a xlink:href="d__menu__window_8cpp.html" target="_top" xlink:title=" ">
<polygon fill="white" stroke="#666666" points="281.5,-24.5 122.5,-24.5 122.5,-5.5 281.5,-5.5 281.5,-24.5"/>
<text text-anchor="middle" x="202" y="-12.5" font-family="Helvetica,sans-Serif" font-size="10.00">src/d/menu/d_menu_window.cpp</text>
</a>
</g>
</g>
<!-- Node6&#45;&gt;Node45 -->
<g id="edge56" class="edge">
<title>Node6&#45;&gt;Node45</title>
<path fill="none" stroke="#63b8ff" d="M2424.17,-156.18C2047.45,-151.5 205.11,-127.55 185,-107 162.97,-84.49 184.64,-43.1 196.01,-24.94"/>
<polygon fill="#63b8ff" stroke="#63b8ff" points="2424.11,-159.68 2434.15,-156.31 2424.2,-152.68 2424.11,-159.68"/>
</g>
<!-- Node6&#45;&gt;Node46 -->
<g id="edge58" class="edge">
<title>Node6&#45;&gt;Node46</title>
<path fill="none" stroke="#63b8ff" d="M2424.27,-156.13C2050.02,-151.16 226.59,-126.02 172,-107 160.27,-102.91 99.85,-54.77 69.48,-30.21"/>
<polygon fill="#63b8ff" stroke="#63b8ff" points="2424.13,-159.62 2434.18,-156.26 2424.23,-152.63 2424.13,-159.62"/>
</g>
<!-- Node52 -->
<g id="node24" class="node">
<title>Node52</title>
<g id="a_node24"><a xlink:href="d__s__logo_8h.html" target="_top" xlink:title=" ">
<polygon fill="#fff0f0" stroke="red" points="821.5,-96 708.5,-96 708.5,-77 821.5,-77 821.5,-96"/>
<text text-anchor="middle" x="765" y="-84" font-family="Helvetica,sans-Serif" font-size="10.00">include/d/s/d_s_logo.h</text>
</a>
</g>
</g>
<!-- Node6&#45;&gt;Node52 -->
<g id="edge26" class="edge">
<title>Node6&#45;&gt;Node52</title>
<path fill="none" stroke="#63b8ff" d="M2424.72,-157.31C2155.72,-158.22 1144.96,-158.08 830,-107 816.28,-104.77 801.39,-100.46 789.34,-96.45"/>
<polygon fill="#63b8ff" stroke="#63b8ff" points="2424.34,-160.81 2434.33,-157.28 2424.32,-153.81 2424.34,-160.81"/>
</g>
<!-- Node54 -->
<g id="node25" class="node">
<title>Node54</title>
<g id="a_node25"><a xlink:href="d__s__play_8h.html" target="_top" xlink:title=" ">
<polygon fill="#fff0f0" stroke="red" points="952.5,-96 839.5,-96 839.5,-77 952.5,-77 952.5,-96"/>
<text text-anchor="middle" x="896" y="-84" font-family="Helvetica,sans-Serif" font-size="10.00">include/d/s/d_s_play.h</text>
</a>
</g>
</g>
<!-- Node6&#45;&gt;Node54 -->
<g id="edge27" class="edge">
<title>Node6&#45;&gt;Node54</title>
<path fill="none" stroke="#63b8ff" d="M2424.55,-157.11C2168.94,-157.18 1249.02,-154.09 961,-107 947.28,-104.76 932.4,-100.44 920.34,-96.43"/>
<polygon fill="#63b8ff" stroke="#63b8ff" points="2424.35,-160.61 2434.35,-157.11 2424.35,-153.61 2424.35,-160.61"/>
</g>
<!-- Node58 -->
<g id="node26" class="node">
<title>Node58</title>
<g id="a_node26"><a xlink:href="d__msg__scrn__base_8h.html" target="_top" xlink:title=" ">
<polygon fill="#fff0f0" stroke="red" points="1069.5,-101.5 970.5,-101.5 970.5,-71.5 1069.5,-71.5 1069.5,-101.5"/>
<text text-anchor="start" x="978.5" y="-89.5" font-family="Helvetica,sans-Serif" font-size="10.00">include/msg/scrn/d</text>
<text text-anchor="middle" x="1020" y="-78.5" font-family="Helvetica,sans-Serif" font-size="10.00">_msg_scrn_base.h</text>
</a>
</g>
</g>
<!-- Node6&#45;&gt;Node58 -->
<g id="edge28" class="edge">
<title>Node6&#45;&gt;Node58</title>
<path fill="none" stroke="#63b8ff" d="M2424.01,-157.19C2180.27,-157.47 1341.16,-154.85 1078,-107 1071.42,-105.8 1064.56,-104.01 1057.96,-102"/>
<polygon fill="#63b8ff" stroke="#63b8ff" points="2423.99,-160.69 2433.99,-157.17 2423.98,-153.69 2423.99,-160.69"/>
</g>
<!-- Node62 -->
<g id="node27" class="node">
<title>Node62</title>
<g id="a_node27"><a xlink:href="d__a__b__zant_8h.html" target="_top" xlink:title=" ">
<polygon fill="white" stroke="#666666" points="1208.5,-101.5 1087.5,-101.5 1087.5,-71.5 1208.5,-71.5 1208.5,-101.5"/>
<text text-anchor="start" x="1095.5" y="-89.5" font-family="Helvetica,sans-Serif" font-size="10.00">include/rel/d/a/b/d</text>
<text text-anchor="middle" x="1148" y="-78.5" font-family="Helvetica,sans-Serif" font-size="10.00">_a_b_zant/d_a_b_zant.h</text>
</a>
</g>
</g>
<!-- Node6&#45;&gt;Node62 -->
<g id="edge29" class="edge">
<title>Node6&#45;&gt;Node62</title>
<path fill="none" stroke="#63b8ff" d="M2424.35,-156.42C2197.13,-154.14 1453.85,-143.97 1218,-107 1210.15,-105.77 1201.92,-103.96 1193.98,-101.94"/>
<polygon fill="#63b8ff" stroke="#63b8ff" points="2424.19,-159.92 2434.22,-156.52 2424.25,-152.92 2424.19,-159.92"/>
</g>
<!-- Node63 -->
<g id="node28" class="node">
<title>Node63</title>
<g id="a_node28"><a xlink:href="d__a__skip__2D_8h.html" target="_top" xlink:title=" ">
<polygon fill="white" stroke="#666666" points="1351,-101.5 1227,-101.5 1227,-71.5 1351,-71.5 1351,-101.5"/>
<text text-anchor="start" x="1235" y="-89.5" font-family="Helvetica,sans-Serif" font-size="10.00">include/rel/d/a/d_a</text>
<text text-anchor="middle" x="1289" y="-78.5" font-family="Helvetica,sans-Serif" font-size="10.00">_skip_2D/d_a_skip_2D.h</text>
</a>
</g>
</g>
<!-- Node6&#45;&gt;Node63 -->
<g id="edge30" class="edge">
<title>Node6&#45;&gt;Node63</title>
<path fill="none" stroke="#63b8ff" d="M2424.1,-155.84C2214.33,-151.93 1571.22,-137.7 1365,-107 1356.65,-105.76 1347.88,-103.97 1339.39,-101.98"/>
<polygon fill="#63b8ff" stroke="#63b8ff" points="2423.95,-159.34 2434.01,-156.03 2424.08,-152.34 2423.95,-159.34"/>
</g>
<!-- Node64 -->
<g id="node29" class="node">
<title>Node64</title>
<g id="a_node29"><a xlink:href="d__a__spinner_8h.html" target="_top" xlink:title=" ">
<polygon fill="white" stroke="#666666" points="3552,-101.5 3436,-101.5 3436,-71.5 3552,-71.5 3552,-101.5"/>
<text text-anchor="start" x="3444" y="-89.5" font-family="Helvetica,sans-Serif" font-size="10.00">include/rel/d/a/d_a</text>
<text text-anchor="middle" x="3494" y="-78.5" font-family="Helvetica,sans-Serif" font-size="10.00">_spinner/d_a_spinner.h</text>
</a>
</g>
</g>
<!-- Node6&#45;&gt;Node64 -->
<g id="edge31" class="edge">
<title>Node6&#45;&gt;Node64</title>
<path fill="none" stroke="#63b8ff" d="M2557.71,-155.43C2742.7,-150.75 3259.53,-135.45 3427,-107 3434.4,-105.74 3442.15,-103.95 3449.64,-101.96"/>
<polygon fill="#63b8ff" stroke="#63b8ff" points="2557.7,-151.93 2547.79,-155.68 2557.87,-158.92 2557.7,-151.93"/>
</g>
<!-- Node65 -->
<g id="node30" class="node">
<title>Node65</title>
<g id="a_node30"><a xlink:href="d__a__player_8cpp.html" target="_top" xlink:title=" ">
<polygon fill="white" stroke="#666666" points="2493,-24.5 2379,-24.5 2379,-5.5 2493,-5.5 2493,-24.5"/>
<text text-anchor="middle" x="2436" y="-12.5" font-family="Helvetica,sans-Serif" font-size="10.00">src/d/a/d_a_player.cpp</text>
</a>
</g>
</g>
<!-- Node6&#45;&gt;Node65 -->
<g id="edge41" class="edge">
<title>Node6&#45;&gt;Node65</title>
<path fill="none" stroke="#63b8ff" d="M2424.59,-156.46C2193.06,-154.26 1433.57,-144.23 1398,-107 1385.41,-93.82 1385.43,-79.19 1398,-66 1432.03,-30.29 2165.81,-19.1 2378.63,-16.6"/>
<polygon fill="#63b8ff" stroke="#63b8ff" points="2424.32,-159.96 2434.35,-156.55 2424.38,-152.96 2424.32,-159.96"/>
</g>
<!-- Node66 -->
<g id="node31" class="node">
<title>Node66</title>
<g id="a_node31"><a xlink:href="d__a__obj__yobikusa_8h.html" target="_top" xlink:title=" ">
<polygon fill="white" stroke="#666666" points="1512.5,-107 1407.5,-107 1407.5,-66 1512.5,-66 1512.5,-107"/>
<text text-anchor="start" x="1415.5" y="-95" font-family="Helvetica,sans-Serif" font-size="10.00">include/rel/d/a/obj</text>
<text text-anchor="start" x="1415.5" y="-84" font-family="Helvetica,sans-Serif" font-size="10.00">/d_a_obj_yobikusa/d</text>
<text text-anchor="middle" x="1460" y="-73" font-family="Helvetica,sans-Serif" font-size="10.00">_a_obj_yobikusa.h</text>
</a>
</g>
</g>
<!-- Node6&#45;&gt;Node66 -->
<g id="edge34" class="edge">
<title>Node6&#45;&gt;Node66</title>
<path fill="none" stroke="#63b8ff" d="M2424.19,-155.75C2234.61,-151.86 1695.75,-138.28 1522,-107 1519,-106.46 1515.95,-105.82 1512.88,-105.1"/>
<polygon fill="#63b8ff" stroke="#63b8ff" points="2424.05,-159.25 2434.12,-155.95 2424.2,-152.25 2424.05,-159.25"/>
</g>
<!-- Node67 -->
<g id="node32" class="node">
<title>Node67</title>
<g id="a_node32"><a xlink:href="d__a__tag__telop_8h.html" target="_top" xlink:title=" ">
<polygon fill="white" stroke="#666666" points="1649,-107 1531,-107 1531,-66 1649,-66 1649,-107"/>
<text text-anchor="start" x="1539" y="-95" font-family="Helvetica,sans-Serif" font-size="10.00">include/rel/d/a/tag</text>
<text text-anchor="start" x="1539" y="-84" font-family="Helvetica,sans-Serif" font-size="10.00">/d_a_tag_telop/d_a_tag</text>
<text text-anchor="middle" x="1590" y="-73" font-family="Helvetica,sans-Serif" font-size="10.00">_telop.h</text>
</a>
</g>
</g>
<!-- Node6&#45;&gt;Node67 -->
<g id="edge35" class="edge">
<title>Node6&#45;&gt;Node67</title>
<path fill="none" stroke="#63b8ff" d="M2424.35,-154.89C2253.84,-149.18 1804.92,-132.16 1658,-107 1655.09,-106.5 1652.14,-105.93 1649.16,-105.29"/>
<polygon fill="#63b8ff" stroke="#63b8ff" points="2424.03,-158.38 2434.14,-155.21 2424.26,-151.38 2424.03,-158.38"/>
</g>
<!-- Node68 -->
<g id="node33" class="node">
<title>Node68</title>
<g id="a_node33"><a xlink:href="c__dylink_8cpp.html" target="_top" xlink:title=" ">
<polygon fill="white" stroke="#666666" points="1762.5,-96 1667.5,-96 1667.5,-77 1762.5,-77 1762.5,-96"/>
<text text-anchor="middle" x="1715" y="-84" font-family="Helvetica,sans-Serif" font-size="10.00">src/c/c_dylink.cpp</text>
</a>
</g>
</g>
<!-- Node6&#45;&gt;Node68 -->
<g id="edge36" class="edge">
<title>Node6&#45;&gt;Node68</title>
<path fill="none" stroke="#63b8ff" d="M2424.66,-154.59C2271.27,-148.67 1895.76,-132.03 1772,-107 1760.11,-104.6 1747.29,-100.37 1736.83,-96.46"/>
<polygon fill="#63b8ff" stroke="#63b8ff" points="2424.11,-158.07 2434.23,-154.96 2424.38,-151.08 2424.11,-158.07"/>
</g>
<!-- Node69 -->
<g id="node34" class="node">
<title>Node69</title>
<g id="a_node34"><a xlink:href="d__a__itembase_8cpp.html" target="_top" xlink:title=" ">
<polygon fill="white" stroke="#666666" points="1909,-96 1781,-96 1781,-77 1909,-77 1909,-96"/>
<text text-anchor="middle" x="1845" y="-84" font-family="Helvetica,sans-Serif" font-size="10.00">src/d/a/d_a_itembase.cpp</text>
</a>
</g>
</g>
<!-- Node6&#45;&gt;Node69 -->
<g id="edge38" class="edge">
<title>Node6&#45;&gt;Node69</title>
<path fill="none" stroke="#63b8ff" d="M2424.38,-154.95C2317.04,-150.79 2099.48,-138.91 1918,-107 1903.27,-104.41 1887.18,-100.26 1873.87,-96.45"/>
<polygon fill="#63b8ff" stroke="#63b8ff" points="2424.03,-158.43 2434.16,-155.31 2424.3,-151.44 2424.03,-158.43"/>
</g>
<!-- Node70 -->
<g id="node35" class="node">
<title>Node70</title>
<g id="a_node35"><a xlink:href="d__a__obj_8cpp.html" target="_top" xlink:title=" ">
<polygon fill="white" stroke="#666666" points="2028.5,-96 1927.5,-96 1927.5,-77 2028.5,-77 2028.5,-96"/>
<text text-anchor="middle" x="1978" y="-84" font-family="Helvetica,sans-Serif" font-size="10.00">src/d/a/d_a_obj.cpp</text>
</a>
</g>
</g>
<!-- Node6&#45;&gt;Node70 -->
<g id="edge39" class="edge">
<title>Node6&#45;&gt;Node70</title>
<path fill="none" stroke="#63b8ff" d="M2424.42,-153.91C2335.49,-148.82 2173.42,-136.16 2038,-107 2025.79,-104.37 2012.56,-100.22 2001.64,-96.42"/>
<polygon fill="#63b8ff" stroke="#63b8ff" points="2423.99,-157.39 2434.17,-154.45 2424.38,-150.4 2423.99,-157.39"/>
</g>
<!-- Node71 -->
<g id="node36" class="node">
<title>Node71</title>
<g id="a_node36"><a xlink:href="d__bg__s_8cpp.html" target="_top" xlink:title=" ">
<polygon fill="white" stroke="#666666" points="2151,-96 2047,-96 2047,-77 2151,-77 2151,-96"/>
<text text-anchor="middle" x="2099" y="-84" font-family="Helvetica,sans-Serif" font-size="10.00">src/d/bg/d_bg_s.cpp</text>
</a>
</g>
</g>
<!-- Node6&#45;&gt;Node71 -->
<g id="edge42" class="edge">
<title>Node6&#45;&gt;Node71</title>
<path fill="none" stroke="#63b8ff" d="M2424.46,-150.11C2357.2,-142.41 2250.54,-128.17 2160,-107 2147.98,-104.19 2134.92,-100.15 2123.97,-96.48"/>
<polygon fill="#63b8ff" stroke="#63b8ff" points="2423.9,-153.57 2434.22,-151.21 2424.68,-146.61 2423.9,-153.57"/>
</g>
<!-- Node72 -->
<g id="node37" class="node">
<title>Node72</title>
<g id="a_node37"><a xlink:href="d__bg__s__movebg__actor_8cpp.html" target="_top" xlink:title=" ">
<polygon fill="white" stroke="#666666" points="2295,-101.5 2169,-101.5 2169,-71.5 2295,-71.5 2295,-101.5"/>
<text text-anchor="start" x="2177" y="-89.5" font-family="Helvetica,sans-Serif" font-size="10.00">src/d/bg/d_bg_s_movebg</text>
<text text-anchor="middle" x="2232" y="-78.5" font-family="Helvetica,sans-Serif" font-size="10.00">_actor.cpp</text>
</a>
</g>
</g>
<!-- Node6&#45;&gt;Node72 -->
<g id="edge43" class="edge">
<title>Node6&#45;&gt;Node72</title>
<path fill="none" stroke="#63b8ff" d="M2426.13,-139.71C2390.14,-130.1 2344.58,-117.92 2304,-107 2297.87,-105.35 2291.45,-103.62 2285.08,-101.9"/>
<polygon fill="#63b8ff" stroke="#63b8ff" points="2424.95,-143.02 2435.52,-142.21 2426.76,-136.25 2424.95,-143.02"/>
</g>
<!-- Node73 -->
<g id="node38" class="node">
<title>Node73</title>
<g id="a_node38"><a xlink:href="d__bg__w_8cpp.html" target="_top" xlink:title=" ">
<polygon fill="white" stroke="#666666" points="2420.5,-96 2313.5,-96 2313.5,-77 2420.5,-77 2420.5,-96"/>
<text text-anchor="middle" x="2367" y="-84" font-family="Helvetica,sans-Serif" font-size="10.00">src/d/bg/d_bg_w.cpp</text>
</a>
</g>
</g>
<!-- Node6&#45;&gt;Node73 -->
<g id="edge44" class="edge">
<title>Node6&#45;&gt;Node73</title>
<path fill="none" stroke="#63b8ff" d="M2455.49,-137.1C2431.52,-123.66 2401.05,-106.59 2382.84,-96.38"/>
<polygon fill="#63b8ff" stroke="#63b8ff" points="2453.55,-140.02 2463.99,-141.86 2456.97,-133.92 2453.55,-140.02"/>
</g>
<!-- Node74 -->
<g id="node39" class="node">
<title>Node74</title>
<g id="a_node39"><a xlink:href="d__cc__s_8cpp.html" target="_top" xlink:title=" ">
<polygon fill="white" stroke="#666666" points="2543,-96 2439,-96 2439,-77 2543,-77 2543,-96"/>
<text text-anchor="middle" x="2491" y="-84" font-family="Helvetica,sans-Serif" font-size="10.00">src/d/cc/d_cc_s.cpp</text>
</a>
</g>
</g>
<!-- Node6&#45;&gt;Node74 -->
<g id="edge45" class="edge">
<title>Node6&#45;&gt;Node74</title>
<path fill="none" stroke="#63b8ff" d="M2491,-131.46C2491,-119.07 2491,-104.99 2491,-96.18"/>
<polygon fill="#63b8ff" stroke="#63b8ff" points="2487.5,-131.09 2491,-141.09 2494.5,-131.09 2487.5,-131.09"/>
</g>
<!-- Node75 -->
<g id="node40" class="node">
<title>Node75</title>
<g id="a_node40"><a xlink:href="d__com__static_8cpp.html" target="_top" xlink:title=" ">
<polygon fill="white" stroke="#666666" points="2701,-96 2561,-96 2561,-77 2701,-77 2701,-96"/>
<text text-anchor="middle" x="2631" y="-84" font-family="Helvetica,sans-Serif" font-size="10.00">src/d/com/d_com_static.cpp</text>
</a>
</g>
</g>
<!-- Node6&#45;&gt;Node75 -->
<g id="edge47" class="edge">
<title>Node6&#45;&gt;Node75</title>
<path fill="none" stroke="#63b8ff" d="M2530.01,-137.63C2557.23,-124.12 2592.28,-106.72 2613.12,-96.38"/>
<polygon fill="#63b8ff" stroke="#63b8ff" points="2528.76,-134.35 2521.36,-141.93 2531.88,-140.61 2528.76,-134.35"/>
</g>
<!-- Node76 -->
<g id="node41" class="node">
<title>Node76</title>
<g id="a_node41"><a xlink:href="d__attention_8cpp.html" target="_top" xlink:title=" ">
<polygon fill="white" stroke="#666666" points="2826.5,-96 2719.5,-96 2719.5,-77 2826.5,-77 2826.5,-96"/>
<text text-anchor="middle" x="2773" y="-84" font-family="Helvetica,sans-Serif" font-size="10.00">src/d/d_attention.cpp</text>
</a>
</g>
</g>
<!-- Node6&#45;&gt;Node76 -->
<g id="edge48" class="edge">
<title>Node6&#45;&gt;Node76</title>
<path fill="none" stroke="#63b8ff" d="M2557.23,-143.25C2600.83,-133.86 2659.07,-120.68 2710,-107 2721.72,-103.85 2734.54,-99.97 2745.53,-96.5"/>
<polygon fill="#63b8ff" stroke="#63b8ff" points="2556.71,-139.78 2547.67,-145.29 2558.18,-146.62 2556.71,-139.78"/>
</g>
<!-- Node77 -->
<g id="node42" class="node">
<title>Node77</title>
<g id="a_node42"><a xlink:href="d__cam__param_8cpp.html" target="_top" xlink:title=" ">
<polygon fill="white" stroke="#666666" points="2965.5,-96 2844.5,-96 2844.5,-77 2965.5,-77 2965.5,-96"/>
<text text-anchor="middle" x="2905" y="-84" font-family="Helvetica,sans-Serif" font-size="10.00">src/d/d_cam_param.cpp</text>
</a>
</g>
</g>
<!-- Node6&#45;&gt;Node77 -->
<g id="edge49" class="edge">
<title>Node6&#45;&gt;Node77</title>
<path fill="none" stroke="#63b8ff" d="M2557.72,-149.86C2627.35,-141.8 2739.49,-127.16 2835,-107 2848.58,-104.13 2863.41,-100.13 2875.91,-96.5"/>
<polygon fill="#63b8ff" stroke="#63b8ff" points="2557.53,-146.35 2548,-150.97 2558.33,-153.31 2557.53,-146.35"/>
</g>
<!-- Node78 -->
<g id="node43" class="node">
<title>Node78</title>
<g id="a_node43"><a xlink:href="d__camera_8cpp.html" target="_top" xlink:title=" ">
<polygon fill="white" stroke="#666666" points="3086,-96 2984,-96 2984,-77 3086,-77 3086,-96"/>
<text text-anchor="middle" x="3035" y="-84" font-family="Helvetica,sans-Serif" font-size="10.00">src/d/d_camera.cpp</text>
</a>
</g>
</g>
<!-- Node6&#45;&gt;Node78 -->
<g id="edge50" class="edge">
<title>Node6&#45;&gt;Node78</title>
<path fill="none" stroke="#63b8ff" d="M2557.71,-154.56C2651.69,-150.12 2828.03,-138.11 2975,-107 2987.22,-104.41 3000.45,-100.26 3011.37,-96.46"/>
<polygon fill="#63b8ff" stroke="#63b8ff" points="2557.73,-151.06 2547.9,-155.01 2558.05,-158.05 2557.73,-151.06"/>
</g>
<!-- Node79 -->
<g id="node44" class="node">
<title>Node79</title>
<g id="a_node44"><a xlink:href="d__eye__hl_8cpp.html" target="_top" xlink:title=" ">
<polygon fill="white" stroke="#666666" points="3202,-96 3104,-96 3104,-77 3202,-77 3202,-96"/>
<text text-anchor="middle" x="3153" y="-84" font-family="Helvetica,sans-Serif" font-size="10.00">src/d/d_eye_hl.cpp</text>
</a>
</g>
</g>
<!-- Node6&#45;&gt;Node79 -->
<g id="edge52" class="edge">
<title>Node6&#45;&gt;Node79</title>
<path fill="none" stroke="#63b8ff" d="M2557.62,-156.72C2669.72,-155.08 2902.66,-146.68 3095,-107 3106.96,-104.53 3119.88,-100.35 3130.49,-96.48"/>
<polygon fill="#63b8ff" stroke="#63b8ff" points="2557.65,-153.22 2547.7,-156.85 2557.74,-160.22 2557.65,-153.22"/>
</g>
<!-- Node80 -->
<g id="node45" class="node">
<title>Node80</title>
<g id="a_node45"><a xlink:href="d__kyeff_8cpp.html" target="_top" xlink:title=" ">
<polygon fill="white" stroke="#666666" points="3310,-96 3220,-96 3220,-77 3310,-77 3310,-96"/>
<text text-anchor="middle" x="3265" y="-84" font-family="Helvetica,sans-Serif" font-size="10.00">src/d/d_kyeff.cpp</text>
</a>
</g>
</g>
<!-- Node6&#45;&gt;Node80 -->
<g id="edge53" class="edge">
<title>Node6&#45;&gt;Node80</title>
<path fill="none" stroke="#63b8ff" d="M2557.46,-154.74C2711.13,-149.12 3087.28,-133.1 3211,-107 3222.31,-104.61 3234.46,-100.39 3244.36,-96.48"/>
<polygon fill="#63b8ff" stroke="#63b8ff" points="2557.73,-151.23 2547.87,-155.08 2557.99,-158.22 2557.73,-151.23"/>
</g>
<!-- Node81 -->
<g id="node46" class="node">
<title>Node81</title>
<g id="a_node46"><a xlink:href="d__path_8cpp.html" target="_top" xlink:title=" ">
<polygon fill="white" stroke="#666666" points="3417.5,-96 3328.5,-96 3328.5,-77 3417.5,-77 3417.5,-96"/>
<text text-anchor="middle" x="3373" y="-84" font-family="Helvetica,sans-Serif" font-size="10.00">src/d/d_path.cpp</text>
</a>
</g>
</g>
<!-- Node6&#45;&gt;Node81 -->
<g id="edge54" class="edge">
<title>Node6&#45;&gt;Node81</title>
<path fill="none" stroke="#63b8ff" d="M2557.66,-155.43C2727.63,-151.03 3173.97,-136.92 3319,-107 3330.42,-104.64 3342.68,-100.37 3352.63,-96.42"/>
<polygon fill="#63b8ff" stroke="#63b8ff" points="2557.81,-151.93 2547.9,-155.68 2557.99,-158.92 2557.81,-151.93"/>
</g>
<!-- Node6&#45;&gt;Node92 -->
<g id="edge55" class="edge">
<title>Node6&#45;&gt;Node92</title>
<path fill="none" stroke="#63b8ff" d="M2557.59,-156.81C2864.69,-155.69 4146.35,-148.6 4545,-107 4560.21,-105.41 4576.53,-102.82 4591.65,-100.04"/>
<polygon fill="#63b8ff" stroke="#63b8ff" points="2557.73,-153.31 2547.74,-156.84 2557.75,-160.31 2557.73,-153.31"/>
</g>
<!-- Node6&#45;&gt;Node97 -->
<g id="edge59" class="edge">
<title>Node6&#45;&gt;Node97</title>
<path fill="none" stroke="#63b8ff" d="M2557.43,-157.39C2851.54,-158.77 4038.03,-160.84 4406,-107 4421.12,-104.79 4437.6,-100.47 4450.97,-96.46"/>
<polygon fill="#63b8ff" stroke="#63b8ff" points="2557.66,-153.89 2547.64,-157.34 2557.62,-160.89 2557.66,-153.89"/>
</g>
<!-- Node7&#45;&gt;Node12 -->
<g id="edge7" class="edge">
<title>Node7&#45;&gt;Node12</title>
<path fill="none" stroke="#63b8ff" d="M3774.07,-67.19C3781.04,-55.64 3789.92,-40.95 3796.37,-30.27"/>
<polygon fill="#63b8ff" stroke="#63b8ff" points="3771.28,-65.03 3769.1,-75.4 3777.27,-68.65 3771.28,-65.03"/>
</g>
<!-- Node19&#45;&gt;Node16 -->
<g id="edge10" class="edge">
<title>Node19&#45;&gt;Node16</title>
<path fill="none" stroke="#63b8ff" d="M4276.87,-73.14C4233.02,-59.29 4163,-37.17 4124.2,-24.91"/>
<polygon fill="#63b8ff" stroke="#63b8ff" points="4275.66,-76.43 4286.25,-76.1 4277.76,-69.75 4275.66,-76.43"/>
</g>
<!-- Node19&#45;&gt;Node20 -->
<g id="edge11" class="edge">
<title>Node19&#45;&gt;Node20</title>
<path fill="none" stroke="#63b8ff" d="M4296.67,-69.69C4279.74,-55.85 4255.76,-36.24 4241.95,-24.95"/>
<polygon fill="#63b8ff" stroke="#63b8ff" points="4294.11,-72.12 4304.06,-75.74 4298.54,-66.7 4294.11,-72.12"/>
</g>
<!-- Node19&#45;&gt;Node21 -->
<g id="edge12" class="edge">
<title>Node19&#45;&gt;Node21</title>
<path fill="none" stroke="#63b8ff" d="M4346.59,-71.96C4373.56,-60.02 4412.73,-42.68 4440.31,-30.47"/>
<polygon fill="#63b8ff" stroke="#63b8ff" points="4345.31,-68.7 4337.59,-75.94 4348.15,-75.1 4345.31,-68.7"/>
</g>
<!-- Node19&#45;&gt;Node22 -->
<g id="edge13" class="edge">
<title>Node19&#45;&gt;Node22</title>
<path fill="none" stroke="#63b8ff" d="M4326.69,-66.93C4334.51,-53.35 4344.77,-35.51 4350.85,-24.95"/>
<polygon fill="#63b8ff" stroke="#63b8ff" points="4323.78,-64.97 4321.82,-75.39 4329.84,-68.46 4323.78,-64.97"/>
</g>
<!-- Node36&#45;&gt;Node12 -->
<g id="edge24" class="edge">
<title>Node36&#45;&gt;Node12</title>
<path fill="none" stroke="#63b8ff" d="M663.47,-71.08C675.25,-69.01 687.45,-67.19 699,-66 856.67,-49.78 3344.82,-21.18 3749.56,-16.62"/>
<polygon fill="#63b8ff" stroke="#63b8ff" points="663.02,-67.6 653.82,-72.85 664.28,-74.49 663.02,-67.6"/>
</g>
<!-- Node36&#45;&gt;Node16 -->
<g id="edge21" class="edge">
<title>Node36&#45;&gt;Node16</title>
<path fill="none" stroke="#63b8ff" d="M663.46,-71.03C675.25,-68.97 687.44,-67.16 699,-66 1399.96,4.42 3164.98,-55.69 3869,-30 3927.99,-27.85 3995.5,-23.43 4041.46,-20.14"/>
<polygon fill="#63b8ff" stroke="#63b8ff" points="663.02,-67.56 653.81,-72.8 664.28,-74.44 663.02,-67.56"/>
</g>
<!-- Node36&#45;&gt;Node41 -->
<g id="edge22" class="edge">
<title>Node36&#45;&gt;Node41</title>
<path fill="none" stroke="#63b8ff" d="M611.17,-61.49C618.69,-48.74 627.47,-33.86 632.88,-24.68"/>
<polygon fill="#63b8ff" stroke="#63b8ff" points="608.33,-59.4 606.26,-69.8 614.36,-62.96 608.33,-59.4"/>
</g>
<!-- Node36&#45;&gt;Node45 -->
<g id="edge23" class="edge">
<title>Node36&#45;&gt;Node45</title>
<path fill="none" stroke="#63b8ff" d="M541.46,-68.04C538.61,-67.32 535.78,-66.63 533,-66 448.12,-46.77 349.28,-32.93 281.86,-24.75"/>
<polygon fill="#63b8ff" stroke="#63b8ff" points="540.44,-71.39 551,-70.63 542.26,-64.64 540.44,-71.39"/>
</g>
<!-- Node36&#45;&gt;Node46 -->
<g id="edge25" class="edge">
<title>Node36&#45;&gt;Node46</title>
<path fill="none" stroke="#63b8ff" d="M543.1,-68.2C539.7,-67.39 536.31,-66.64 533,-66 349.04,-30.5 298.09,-59.03 113,-30 110.21,-29.56 107.36,-29.07 104.48,-28.54"/>
<polygon fill="#63b8ff" stroke="#63b8ff" points="541.91,-71.51 552.47,-70.65 543.68,-64.74 541.91,-71.51"/>
</g>
<!-- Node64&#45;&gt;Node16 -->
<g id="edge32" class="edge">
<title>Node64&#45;&gt;Node16</title>
<path fill="none" stroke="#63b8ff" d="M3551.14,-68.29C3554.8,-67.45 3558.44,-66.67 3562,-66 3652.82,-48.88 3923.85,-28.25 4041.03,-19.84"/>
<polygon fill="#63b8ff" stroke="#63b8ff" points="3550.51,-64.84 3541.65,-70.65 3552.2,-71.64 3550.51,-64.84"/>
</g>
<!-- Node64&#45;&gt;Node65 -->
<g id="edge33" class="edge">
<title>Node64&#45;&gt;Node65</title>
<path fill="none" stroke="#63b8ff" d="M3438.65,-68.31C3434.73,-67.43 3430.82,-66.64 3427,-66 3245.44,-35.43 2676.19,-21.05 2493.23,-17.14"/>
<polygon fill="#63b8ff" stroke="#63b8ff" points="3437.63,-71.67 3448.18,-70.66 3439.31,-64.87 3437.63,-71.67"/>
</g>
<!-- Node107&#45;&gt;Node4 -->
<g id="edge62" class="edge">
<title>Node107&#45;&gt;Node4</title>
<path fill="none" stroke="#63b8ff" d="M1301.86,-161.78C1712.29,-177.95 3754.79,-259.59 4143.18,-275.36"/>
<polygon fill="#63b8ff" stroke="#63b8ff" points="1302.12,-158.29 1291.99,-161.39 1301.84,-165.29 1302.12,-158.29"/>
</g>
<!-- Node107&#45;&gt;Node45 -->
<g id="edge63" class="edge">
<title>Node107&#45;&gt;Node45</title>
<path fill="none" stroke="#63b8ff" d="M1158.16,-156.36C922.62,-153.92 186.75,-143.4 152,-107 139.42,-93.82 145.03,-82.84 152,-66 159.33,-48.31 176.29,-33.61 188.43,-24.83"/>
<polygon fill="#63b8ff" stroke="#63b8ff" points="1158.11,-159.86 1168.14,-156.46 1158.18,-152.86 1158.11,-159.86"/>
</g>
<!-- Node107&#45;&gt;Node46 -->
<g id="edge64" class="edge">
<title>Node107&#45;&gt;Node46</title>
<path fill="none" stroke="#63b8ff" d="M1158.06,-156.74C930.09,-155.5 233.26,-148.33 141,-107 104.3,-90.56 74.8,-51.5 60.81,-30.29"/>
<polygon fill="#63b8ff" stroke="#63b8ff" points="1157.99,-160.24 1168.01,-156.79 1158.02,-153.24 1157.99,-160.24"/>
</g>
</g>
</svg>
