<?xml version="1.0" encoding="UTF-8" standalone="no"?>
<!DOCTYPE svg PUBLIC "-//W3C//DTD SVG 1.1//EN"
 "http://www.w3.org/Graphics/SVG/1.1/DTD/svg11.dtd">
<!-- Generated by graphviz version 7.0.4 (20221203.1631)
 -->
<!-- Title: include/d/meter/d_meter_map.h Pages: 1 -->
<svg width="4881pt" height="423pt"
 viewBox="0.00 0.00 4881.30 423.00" xmlns="http://www.w3.org/2000/svg" xmlns:xlink="http://www.w3.org/1999/xlink">
<g id="graph0" class="graph" transform="scale(1 1) rotate(0) translate(4 419)">
<title>include/d/meter/d_meter_map.h</title>
<!-- Node1 -->
<g id="node1" class="node">
<title>Node1</title>
<g id="a_node1"><a xlink:title=" ">
<polygon fill="#999999" stroke="#666666" points="254,-415 132,-415 132,-385 254,-385 254,-415"/>
<text text-anchor="start" x="140" y="-403" font-family="Helvetica,sans-Serif" font-size="10.00">include/d/meter/d_meter</text>
<text text-anchor="middle" x="193" y="-392" font-family="Helvetica,sans-Serif" font-size="10.00">_map.h</text>
</a>
</g>
</g>
<!-- Node2 -->
<g id="node2" class="node">
<title>Node2</title>
<g id="a_node2"><a xlink:href="d__meter2_8h.html" target="_top" xlink:title=" ">
<polygon fill="white" stroke="#666666" points="894,-349 760,-349 760,-330 894,-330 894,-349"/>
<text text-anchor="middle" x="827" y="-337" font-family="Helvetica,sans-Serif" font-size="10.00">include/d/meter/d_meter2.h</text>
</a>
</g>
</g>
<!-- Node1&#45;&gt;Node2 -->
<g id="edge1" class="edge">
<title>Node1&#45;&gt;Node2</title>
<path fill="none" stroke="#63b8ff" d="M265.59,-392.3C389.46,-380.87 639.89,-357.77 759.9,-346.69"/>
<polygon fill="#63b8ff" stroke="#63b8ff" points="265.51,-388.79 255.87,-393.2 266.15,-395.76 265.51,-388.79"/>
</g>
<!-- Node45 -->
<g id="node22" class="node">
<title>Node45</title>
<g id="a_node22"><a xlink:href="d__meter__map_8cpp.html" target="_top" xlink:title=" ">
<polygon fill="white" stroke="#666666" points="104,-30 0,-30 0,0 104,0 104,-30"/>
<text text-anchor="start" x="8" y="-18" font-family="Helvetica,sans-Serif" font-size="10.00">src/d/meter/d_meter</text>
<text text-anchor="middle" x="52" y="-7" font-family="Helvetica,sans-Serif" font-size="10.00">_map.cpp</text>
</a>
</g>
</g>
<!-- Node1&#45;&gt;Node45 -->
<g id="edge70" class="edge">
<title>Node1&#45;&gt;Node45</title>
<path fill="none" stroke="#63b8ff" d="M140.83,-380.1C99.97,-361.55 50,-328.88 50,-280 50,-280 50,-280 50,-157 50,-110.73 51.09,-55.93 51.66,-30.41"/>
<polygon fill="#63b8ff" stroke="#63b8ff" points="139.3,-383.25 149.87,-384.02 142.09,-376.83 139.3,-383.25"/>
</g>
<!-- Node3 -->
<g id="node3" class="node">
<title>Node3</title>
<g id="a_node3"><a xlink:href="d__meter2__info_8h.html" target="_top" xlink:title=" ">
<polygon fill="white" stroke="#666666" points="963.5,-294 836.5,-294 836.5,-264 963.5,-264 963.5,-294"/>
<text text-anchor="start" x="844.5" y="-282" font-family="Helvetica,sans-Serif" font-size="10.00">include/d/meter/d_meter2</text>
<text text-anchor="middle" x="900" y="-271" font-family="Helvetica,sans-Serif" font-size="10.00">_info.h</text>
</a>
</g>
</g>
<!-- Node2&#45;&gt;Node3 -->
<g id="edge2" class="edge">
<title>Node2&#45;&gt;Node3</title>
<path fill="none" stroke="#63b8ff" d="M846.92,-322.53C857.87,-313.76 871.35,-302.96 881.98,-294.44"/>
<polygon fill="#63b8ff" stroke="#63b8ff" points="844.88,-319.68 839.27,-328.67 849.26,-325.15 844.88,-319.68"/>
</g>
<!-- Node107 -->
<g id="node50" class="node">
<title>Node107</title>
<g id="a_node50"><a xlink:href="d__meter2_8cpp.html" target="_top" xlink:title=" ">
<polygon fill="white" stroke="#666666" points="818,-288.5 690,-288.5 690,-269.5 818,-269.5 818,-288.5"/>
<text text-anchor="middle" x="754" y="-276.5" font-family="Helvetica,sans-Serif" font-size="10.00">src/d/meter/d_meter2.cpp</text>
</a>
</g>
</g>
<!-- Node2&#45;&gt;Node107 -->
<g id="edge69" class="edge">
<title>Node2&#45;&gt;Node107</title>
<path fill="none" stroke="#63b8ff" d="M807.32,-322.73C793.81,-311.9 776.38,-297.93 765.19,-288.97"/>
<polygon fill="#63b8ff" stroke="#63b8ff" points="804.74,-325.15 814.73,-328.67 809.12,-319.68 804.74,-325.15"/>
</g>
<!-- Node4 -->
<g id="node4" class="node">
<title>Node4</title>
<g id="a_node4"><a xlink:href="d__a__alink_8h.html" target="_top" xlink:title=" ">
<polygon fill="white" stroke="#666666" points="958,-228 842,-228 842,-209 958,-209 958,-228"/>
<text text-anchor="middle" x="900" y="-216" font-family="Helvetica,sans-Serif" font-size="10.00">include/d/a/d_a_alink.h</text>
</a>
</g>
</g>
<!-- Node3&#45;&gt;Node4 -->
<g id="edge3" class="edge">
<title>Node3&#45;&gt;Node4</title>
<path fill="none" stroke="#63b8ff" d="M900,-252.3C900,-243.65 900,-234.58 900,-228.18"/>
<polygon fill="#63b8ff" stroke="#63b8ff" points="896.5,-252.03 900,-262.03 903.5,-252.03 896.5,-252.03"/>
</g>
<!-- Node11 -->
<g id="node7" class="node">
<title>Node11</title>
<g id="a_node7"><a xlink:href="d__meter2__info_8cpp.html" target="_top" xlink:title=" ">
<polygon fill="white" stroke="#666666" points="522,-30 412,-30 412,0 522,0 522,-30"/>
<text text-anchor="start" x="420" y="-18" font-family="Helvetica,sans-Serif" font-size="10.00">src/d/meter/d_meter2</text>
<text text-anchor="middle" x="467" y="-7" font-family="Helvetica,sans-Serif" font-size="10.00">_info.cpp</text>
</a>
</g>
</g>
<!-- Node3&#45;&gt;Node11 -->
<g id="edge67" class="edge">
<title>Node3&#45;&gt;Node11</title>
<path fill="none" stroke="#63b8ff" d="M832.37,-260.72C746.2,-238.14 602.59,-198.5 554,-173 512.27,-151.1 492.41,-148.99 471,-107 458.5,-82.49 461.15,-49.26 464.12,-30.48"/>
<polygon fill="#63b8ff" stroke="#63b8ff" points="831.33,-264.06 841.89,-263.2 833.1,-257.29 831.33,-264.06"/>
</g>
<!-- Node20 -->
<g id="node12" class="node">
<title>Node20</title>
<g id="a_node12"><a xlink:href="d__com__inf__game_8cpp.html" target="_top" xlink:title=" ">
<polygon fill="white" stroke="#666666" points="4853,-30 4745,-30 4745,0 4853,0 4853,-30"/>
<text text-anchor="start" x="4753" y="-18" font-family="Helvetica,sans-Serif" font-size="10.00">src/d/com/d_com_inf</text>
<text text-anchor="middle" x="4799" y="-7" font-family="Helvetica,sans-Serif" font-size="10.00">_game.cpp</text>
</a>
</g>
</g>
<!-- Node3&#45;&gt;Node20 -->
<g id="edge65" class="edge">
<title>Node3&#45;&gt;Node20</title>
<path fill="none" stroke="#63b8ff" d="M974.88,-278.26C1312.26,-279.12 2725.1,-279.29 3883,-228 4102.88,-218.26 4734.84,-283.74 4866,-107 4876.86,-92.37 4874.17,-82.29 4866,-66 4858.26,-50.56 4843.24,-38.67 4829.38,-30.37"/>
<polygon fill="#63b8ff" stroke="#63b8ff" points="975.32,-274.76 965.31,-278.24 975.3,-281.76 975.32,-274.76"/>
</g>
<!-- Node21 -->
<g id="node13" class="node">
<title>Node21</title>
<g id="a_node13"><a xlink:href="d__item_8cpp.html" target="_top" xlink:title=" ">
<polygon fill="white" stroke="#666666" points="4726.5,-24.5 4637.5,-24.5 4637.5,-5.5 4726.5,-5.5 4726.5,-24.5"/>
<text text-anchor="middle" x="4682" y="-12.5" font-family="Helvetica,sans-Serif" font-size="10.00">src/d/d_item.cpp</text>
</a>
</g>
</g>
<!-- Node3&#45;&gt;Node21 -->
<g id="edge66" class="edge">
<title>Node3&#45;&gt;Node21</title>
<path fill="none" stroke="#63b8ff" d="M975.04,-277.76C1508.81,-275.65 4713.61,-256.77 4848,-107 4860.17,-93.44 4858.87,-80.63 4848,-66 4843.94,-60.53 4762.64,-37.8 4715.35,-24.95"/>
<polygon fill="#63b8ff" stroke="#63b8ff" points="975.16,-274.25 965.17,-277.79 975.19,-281.25 975.16,-274.25"/>
</g>
<!-- Node96 -->
<g id="node48" class="node">
<title>Node96</title>
<g id="a_node48"><a xlink:href="d__save_8cpp.html" target="_top" xlink:title=" ">
<polygon fill="white" stroke="#666666" points="4838.5,-96 4723.5,-96 4723.5,-77 4838.5,-77 4838.5,-96"/>
<text text-anchor="middle" x="4781" y="-84" font-family="Helvetica,sans-Serif" font-size="10.00">src/d/save/d_save.cpp</text>
</a>
</g>
</g>
<!-- Node3&#45;&gt;Node96 -->
<g id="edge68" class="edge">
<title>Node3&#45;&gt;Node96</title>
<path fill="none" stroke="#63b8ff" d="M975.3,-276.87C1442.57,-269.55 3950.93,-225.2 4709,-107 4723.97,-104.67 4740.3,-100.39 4753.61,-96.44"/>
<polygon fill="#63b8ff" stroke="#63b8ff" points="975.45,-273.37 965.51,-277.03 975.56,-280.37 975.45,-273.37"/>
</g>
<!-- Node106 -->
<g id="node49" class="node">
<title>Node106</title>
<g id="a_node49"><a xlink:href="d__menu__window_8h.html" target="_top" xlink:title=" ">
<polygon fill="white" stroke="#666666" points="282,-173 162,-173 162,-143 282,-143 282,-173"/>
<text text-anchor="start" x="170" y="-161" font-family="Helvetica,sans-Serif" font-size="10.00">include/d/menu/d_menu</text>
<text text-anchor="middle" x="222" y="-150" font-family="Helvetica,sans-Serif" font-size="10.00">_window.h</text>
</a>
</g>
</g>
<!-- Node3&#45;&gt;Node106 -->
<g id="edge61" class="edge">
<title>Node3&#45;&gt;Node106</title>
<path fill="none" stroke="#63b8ff" d="M824.99,-264.99C822.63,-264.64 820.3,-264.31 818,-264 609.02,-236.1 547.69,-286.02 345,-228 302.99,-215.97 258.92,-189.75 236.41,-173.32"/>
<polygon fill="#63b8ff" stroke="#63b8ff" points="824.23,-268.42 834.66,-266.54 825.34,-261.5 824.23,-268.42"/>
</g>
<!-- Node5 -->
<g id="node5" class="node">
<title>Node5</title>
<g id="a_node5"><a xlink:href="d__com__inf__game_8h.html" target="_top" xlink:title=" ">
<polygon fill="#fff0f0" stroke="red" points="2364,-173 2254,-173 2254,-143 2364,-143 2364,-173"/>
<text text-anchor="start" x="2262" y="-161" font-family="Helvetica,sans-Serif" font-size="10.00">include/d/com/d_com</text>
<text text-anchor="middle" x="2309" y="-150" font-family="Helvetica,sans-Serif" font-size="10.00">_inf_game.h</text>
</a>
</g>
</g>
<!-- Node4&#45;&gt;Node5 -->
<g id="edge4" class="edge">
<title>Node4&#45;&gt;Node5</title>
<path fill="none" stroke="#63b8ff" d="M969.52,-214.61C1214.26,-204.45 2033.09,-170.46 2253.8,-161.29"/>
<polygon fill="#63b8ff" stroke="#63b8ff" points="969.66,-211.1 959.82,-215.02 969.95,-218.1 969.66,-211.1"/>
</g>
<!-- Node15 -->
<g id="node10" class="node">
<title>Node15</title>
<g id="a_node10"><a xlink:href="d__a__alink_8cpp.html" target="_top" xlink:title=" ">
<polygon fill="white" stroke="#666666" points="704.5,-24.5 595.5,-24.5 595.5,-5.5 704.5,-5.5 704.5,-24.5"/>
<text text-anchor="middle" x="650" y="-12.5" font-family="Helvetica,sans-Serif" font-size="10.00">src/d/a/d_a_alink.cpp</text>
</a>
</g>
</g>
<!-- Node4&#45;&gt;Node15 -->
<g id="edge60" class="edge">
<title>Node4&#45;&gt;Node15</title>
<path fill="none" stroke="#63b8ff" d="M830.3,-208.35C726.89,-193.19 540.74,-159.25 501,-107 489.97,-92.5 490.36,-80.79 501,-66 522.35,-36.32 562.17,-24.01 595.28,-19.02"/>
<polygon fill="#63b8ff" stroke="#63b8ff" points="829.67,-211.8 840.07,-209.76 830.67,-204.87 829.67,-211.8"/>
</g>
<!-- Node5&#45;&gt;Node2 -->
<g id="edge18" class="edge">
<title>Node5&#45;&gt;Node2</title>
<path fill="none" stroke="#63b8ff" d="M2242.39,-167.07C1996.41,-196.86 1140.73,-300.5 894.04,-330.38"/>
<polygon fill="#63b8ff" stroke="#63b8ff" points="2242.63,-170.56 2252.13,-165.89 2241.78,-163.62 2242.63,-170.56"/>
</g>
<!-- Node6 -->
<g id="node6" class="node">
<title>Node6</title>
<g id="a_node6"><a xlink:href="d__a__npc_8h.html" target="_top" xlink:title=" ">
<polygon fill="#fff0f0" stroke="red" points="621.5,-96 510.5,-96 510.5,-77 621.5,-77 621.5,-96"/>
<text text-anchor="middle" x="566" y="-84" font-family="Helvetica,sans-Serif" font-size="10.00">include/d/a/d_a_npc.h</text>
</a>
</g>
</g>
<!-- Node5&#45;&gt;Node6 -->
<g id="edge5" class="edge">
<title>Node5&#45;&gt;Node6</title>
<path fill="none" stroke="#63b8ff" d="M2242.72,-157.16C1972.57,-157.46 953.91,-155.3 636,-107 621.28,-104.76 605.26,-100.45 592.26,-96.44"/>
<polygon fill="#63b8ff" stroke="#63b8ff" points="2242.38,-160.66 2252.38,-157.14 2242.37,-153.66 2242.38,-160.66"/>
</g>
<!-- Node5&#45;&gt;Node11 -->
<g id="edge57" class="edge">
<title>Node5&#45;&gt;Node11</title>
<path fill="none" stroke="#63b8ff" d="M2242.61,-157.23C1925.01,-158.06 573.12,-158.54 501,-107 476.16,-89.25 469.45,-51.11 467.65,-30.29"/>
<polygon fill="#63b8ff" stroke="#63b8ff" points="2242.4,-160.73 2252.39,-157.2 2242.38,-153.73 2242.4,-160.73"/>
</g>
<!-- Node12 -->
<g id="node8" class="node">
<title>Node12</title>
<g id="a_node8"><a xlink:href="d__cc__uty_8h.html" target="_top" xlink:title=" ">
<polygon fill="#fff0f0" stroke="red" points="797.5,-96 678.5,-96 678.5,-77 797.5,-77 797.5,-96"/>
<text text-anchor="middle" x="738" y="-84" font-family="Helvetica,sans-Serif" font-size="10.00">include/d/cc/d_cc_uty.h</text>
</a>
</g>
</g>
<!-- Node5&#45;&gt;Node12 -->
<g id="edge7" class="edge">
<title>Node5&#45;&gt;Node12</title>
<path fill="none" stroke="#63b8ff" d="M2242.47,-156.96C1989.66,-156.46 1088.73,-151.54 806,-107 791.68,-104.74 776.12,-100.43 763.5,-96.42"/>
<polygon fill="#63b8ff" stroke="#63b8ff" points="2242.14,-160.46 2252.15,-156.98 2242.15,-153.46 2242.14,-160.46"/>
</g>
<!-- Node18 -->
<g id="node9" class="node">
<title>Node18</title>
<g id="a_node9"><a xlink:href="d__item_8h.html" target="_top" xlink:title=" ">
<polygon fill="#fff0f0" stroke="red" points="4666.5,-96 4571.5,-96 4571.5,-77 4666.5,-77 4666.5,-96"/>
<text text-anchor="middle" x="4619" y="-84" font-family="Helvetica,sans-Serif" font-size="10.00">include/d/d_item.h</text>
</a>
</g>
</g>
<!-- Node5&#45;&gt;Node18 -->
<g id="edge8" class="edge">
<title>Node5&#45;&gt;Node18</title>
<path fill="none" stroke="#63b8ff" d="M2375.59,-156.05C2736.58,-150.82 4446.8,-125.18 4557,-107 4570.25,-104.81 4584.58,-100.45 4596.12,-96.4"/>
<polygon fill="#63b8ff" stroke="#63b8ff" points="2375.77,-152.55 2365.82,-156.19 2375.87,-159.54 2375.77,-152.55"/>
</g>
<!-- Node5&#45;&gt;Node15 -->
<g id="edge36" class="edge">
<title>Node5&#45;&gt;Node15</title>
<path fill="none" stroke="#63b8ff" d="M2242.86,-157.25C1943.85,-158.09 730.22,-158.33 669,-107 644.51,-86.47 646.54,-43.26 648.71,-24.74"/>
<polygon fill="#63b8ff" stroke="#63b8ff" points="2242.44,-160.75 2252.43,-157.22 2242.42,-153.75 2242.44,-160.75"/>
</g>
<!-- Node19 -->
<g id="node11" class="node">
<title>Node19</title>
<g id="a_node11"><a xlink:href="d__a__obj__item_8cpp.html" target="_top" xlink:title=" ">
<polygon fill="white" stroke="#666666" points="4619.5,-24.5 4494.5,-24.5 4494.5,-5.5 4619.5,-5.5 4619.5,-24.5"/>
<text text-anchor="middle" x="4557" y="-12.5" font-family="Helvetica,sans-Serif" font-size="10.00">src/d/a/d_a_obj_item.cpp</text>
</a>
</g>
</g>
<!-- Node5&#45;&gt;Node19 -->
<g id="edge39" class="edge">
<title>Node5&#45;&gt;Node19</title>
<path fill="none" stroke="#63b8ff" d="M2375.73,-156.36C2738.19,-152.81 4455.93,-134.51 4503,-107 4534.56,-88.55 4549.68,-43.8 4554.85,-24.78"/>
<polygon fill="#63b8ff" stroke="#63b8ff" points="2375.88,-152.86 2365.92,-156.46 2375.95,-159.86 2375.88,-152.86"/>
</g>
<!-- Node5&#45;&gt;Node20 -->
<g id="edge45" class="edge">
<title>Node5&#45;&gt;Node20</title>
<path fill="none" stroke="#63b8ff" d="M2375.65,-156.3C2754.53,-152.21 4621.95,-130.86 4676,-107 4699.01,-96.84 4695.34,-81.69 4715,-66 4732.24,-52.24 4753.64,-39.56 4770.52,-30.41"/>
<polygon fill="#63b8ff" stroke="#63b8ff" points="2375.84,-152.79 2365.87,-156.4 2375.91,-159.79 2375.84,-152.79"/>
</g>
<!-- Node23 -->
<g id="node14" class="node">
<title>Node23</title>
<g id="a_node14"><a xlink:href="d__kantera__icon__meter_8h.html" target="_top" xlink:title=" ">
<polygon fill="#fff0f0" stroke="red" points="916.5,-101.5 815.5,-101.5 815.5,-71.5 916.5,-71.5 916.5,-101.5"/>
<text text-anchor="start" x="823.5" y="-89.5" font-family="Helvetica,sans-Serif" font-size="10.00">include/d/d_kantera</text>
<text text-anchor="middle" x="866" y="-78.5" font-family="Helvetica,sans-Serif" font-size="10.00">_icon_meter.h</text>
</a>
</g>
</g>
<!-- Node5&#45;&gt;Node23 -->
<g id="edge13" class="edge">
<title>Node5&#45;&gt;Node23</title>
<path fill="none" stroke="#63b8ff" d="M2242.18,-157.08C2001.9,-156.99 1182.43,-153.22 925,-107 918.31,-105.8 911.34,-104.01 904.63,-101.99"/>
<polygon fill="#63b8ff" stroke="#63b8ff" points="2242,-160.58 2252,-157.08 2242,-153.58 2242,-160.58"/>
</g>
<!-- Node26 -->
<g id="node15" class="node">
<title>Node26</title>
<g id="a_node15"><a xlink:href="d__model_8h.html" target="_top" xlink:title=" ">
<polygon fill="#fff0f0" stroke="red" points="1037.5,-96 934.5,-96 934.5,-77 1037.5,-77 1037.5,-96"/>
<text text-anchor="middle" x="986" y="-84" font-family="Helvetica,sans-Serif" font-size="10.00">include/d/d_model.h</text>
</a>
</g>
</g>
<!-- Node5&#45;&gt;Node26 -->
<g id="edge14" class="edge">
<title>Node5&#45;&gt;Node26</title>
<path fill="none" stroke="#63b8ff" d="M2242.43,-156.77C2016.34,-155.61 1279.03,-148.66 1046,-107 1033.28,-104.73 1019.54,-100.4 1008.42,-96.41"/>
<polygon fill="#63b8ff" stroke="#63b8ff" points="2242.22,-160.27 2252.24,-156.82 2242.26,-153.27 2242.22,-160.27"/>
</g>
<!-- Node28 -->
<g id="node16" class="node">
<title>Node28</title>
<g id="a_node16"><a xlink:href="d__name_8h.html" target="_top" xlink:title=" ">
<polygon fill="#fff0f0" stroke="red" points="1156.5,-96 1055.5,-96 1055.5,-77 1156.5,-77 1156.5,-96"/>
<text text-anchor="middle" x="1106" y="-84" font-family="Helvetica,sans-Serif" font-size="10.00">include/d/d_name.h</text>
</a>
</g>
</g>
<!-- Node5&#45;&gt;Node28 -->
<g id="edge15" class="edge">
<title>Node5&#45;&gt;Node28</title>
<path fill="none" stroke="#63b8ff" d="M2242.41,-156.45C2030.7,-154.32 1374.72,-144.76 1166,-107 1153.39,-104.72 1139.77,-100.45 1128.7,-96.49"/>
<polygon fill="#63b8ff" stroke="#63b8ff" points="2242.1,-159.94 2252.13,-156.54 2242.16,-152.94 2242.1,-159.94"/>
</g>
<!-- Node30 -->
<g id="node17" class="node">
<title>Node30</title>
<g id="a_node17"><a xlink:href="d__file__sel__info_8h.html" target="_top" xlink:title=" ">
<polygon fill="#fff0f0" stroke="red" points="1271,-101.5 1175,-101.5 1175,-71.5 1271,-71.5 1271,-101.5"/>
<text text-anchor="start" x="1183" y="-89.5" font-family="Helvetica,sans-Serif" font-size="10.00">include/d/file/d_file</text>
<text text-anchor="middle" x="1223" y="-78.5" font-family="Helvetica,sans-Serif" font-size="10.00">_sel_info.h</text>
</a>
</g>
</g>
<!-- Node5&#45;&gt;Node30 -->
<g id="edge16" class="edge">
<title>Node5&#45;&gt;Node30</title>
<path fill="none" stroke="#63b8ff" d="M2242.45,-156.2C2045.12,-153.45 1465.48,-142.5 1280,-107 1273.53,-105.76 1266.79,-103.95 1260.31,-101.93"/>
<polygon fill="#63b8ff" stroke="#63b8ff" points="2242.22,-159.7 2252.26,-156.34 2242.31,-152.7 2242.22,-159.7"/>
</g>
<!-- Node33 -->
<g id="node18" class="node">
<title>Node33</title>
<g id="a_node18"><a xlink:href="d__file__sel__warning_8h.html" target="_top" xlink:title=" ">
<polygon fill="#fff0f0" stroke="red" points="1385,-101.5 1289,-101.5 1289,-71.5 1385,-71.5 1385,-101.5"/>
<text text-anchor="start" x="1297" y="-89.5" font-family="Helvetica,sans-Serif" font-size="10.00">include/d/file/d_file</text>
<text text-anchor="middle" x="1337" y="-78.5" font-family="Helvetica,sans-Serif" font-size="10.00">_sel_warning.h</text>
</a>
</g>
</g>
<!-- Node5&#45;&gt;Node33 -->
<g id="edge17" class="edge">
<title>Node5&#45;&gt;Node33</title>
<path fill="none" stroke="#63b8ff" d="M2242.43,-155.73C2060.32,-151.89 1556.63,-138.63 1394,-107 1387.63,-105.76 1381.01,-103.98 1374.62,-101.99"/>
<polygon fill="#63b8ff" stroke="#63b8ff" points="2242.12,-159.23 2252.19,-155.94 2242.26,-152.23 2242.12,-159.23"/>
</g>
<!-- Node35 -->
<g id="node19" class="node">
<title>Node35</title>
<g id="a_node19"><a xlink:href="d__msg__object_8h.html" target="_top" xlink:title=" ">
<polygon fill="#fff0f0" stroke="red" points="340,-101.5 230,-101.5 230,-71.5 340,-71.5 340,-101.5"/>
<text text-anchor="start" x="238" y="-89.5" font-family="Helvetica,sans-Serif" font-size="10.00">include/d/msg/d_msg</text>
<text text-anchor="middle" x="285" y="-78.5" font-family="Helvetica,sans-Serif" font-size="10.00">_object.h</text>
</a>
</g>
</g>
<!-- Node5&#45;&gt;Node35 -->
<g id="edge19" class="edge">
<title>Node5&#45;&gt;Node35</title>
<path fill="none" stroke="#63b8ff" d="M2242.59,-156.64C1948.58,-154.85 762.29,-145.34 392,-107 375.1,-105.25 356.85,-102.32 340.3,-99.26"/>
<polygon fill="#63b8ff" stroke="#63b8ff" points="2242.36,-160.14 2252.38,-156.7 2242.4,-153.14 2242.36,-160.14"/>
</g>
<!-- Node40 -->
<g id="node20" class="node">
<title>Node40</title>
<g id="a_node20"><a xlink:href="d__demo_8cpp.html" target="_top" xlink:title=" ">
<polygon fill="white" stroke="#666666" points="394,-24.5 300,-24.5 300,-5.5 394,-5.5 394,-24.5"/>
<text text-anchor="middle" x="347" y="-12.5" font-family="Helvetica,sans-Serif" font-size="10.00">src/d/d_demo.cpp</text>
</a>
</g>
</g>
<!-- Node5&#45;&gt;Node40 -->
<g id="edge50" class="edge">
<title>Node5&#45;&gt;Node40</title>
<path fill="none" stroke="#63b8ff" d="M2242.53,-156.3C1922.94,-152.81 556.29,-136.23 471,-107 420.73,-89.77 373.69,-44.34 355.23,-24.96"/>
<polygon fill="#63b8ff" stroke="#63b8ff" points="2242.34,-159.8 2252.38,-156.41 2242.42,-152.8 2242.34,-159.8"/>
</g>
<!-- Node44 -->
<g id="node21" class="node">
<title>Node44</title>
<g id="a_node21"><a xlink:href="d__menu__window_8cpp.html" target="_top" xlink:title=" ">
<polygon fill="white" stroke="#666666" points="281.5,-24.5 122.5,-24.5 122.5,-5.5 281.5,-5.5 281.5,-24.5"/>
<text text-anchor="middle" x="202" y="-12.5" font-family="Helvetica,sans-Serif" font-size="10.00">src/d/menu/d_menu_window.cpp</text>
</a>
</g>
</g>
<!-- Node5&#45;&gt;Node44 -->
<g id="edge56" class="edge">
<title>Node5&#45;&gt;Node44</title>
<path fill="none" stroke="#63b8ff" d="M2242.24,-156.53C1889.86,-153.93 260.75,-140.11 221,-107 196.45,-86.55 198.51,-43.3 200.7,-24.75"/>
<polygon fill="#63b8ff" stroke="#63b8ff" points="2241.97,-160.03 2251.99,-156.6 2242.02,-153.03 2241.97,-160.03"/>
</g>
<!-- Node5&#45;&gt;Node45 -->
<g id="edge58" class="edge">
<title>Node5&#45;&gt;Node45</title>
<path fill="none" stroke="#63b8ff" d="M2242.23,-156.41C1893.99,-153.2 298.09,-136.93 198,-107 145.63,-91.34 93.53,-51.57 68.07,-30.16"/>
<polygon fill="#63b8ff" stroke="#63b8ff" points="2242.07,-159.91 2252.1,-156.5 2242.13,-152.91 2242.07,-159.91"/>
</g>
<!-- Node51 -->
<g id="node23" class="node">
<title>Node51</title>
<g id="a_node23"><a xlink:href="d__s__logo_8h.html" target="_top" xlink:title=" ">
<polygon fill="#fff0f0" stroke="red" points="1516.5,-96 1403.5,-96 1403.5,-77 1516.5,-77 1516.5,-96"/>
<text text-anchor="middle" x="1460" y="-84" font-family="Helvetica,sans-Serif" font-size="10.00">include/d/s/d_s_logo.h</text>
</a>
</g>
</g>
<!-- Node5&#45;&gt;Node51 -->
<g id="edge25" class="edge">
<title>Node5&#45;&gt;Node51</title>
<path fill="none" stroke="#63b8ff" d="M2242.51,-157.73C2106.74,-158.14 1788.28,-153.51 1526,-107 1512.35,-104.58 1497.52,-100.35 1485.38,-96.45"/>
<polygon fill="#63b8ff" stroke="#63b8ff" points="2242.42,-161.23 2252.4,-157.69 2242.39,-154.23 2242.42,-161.23"/>
</g>
<!-- Node53 -->
<g id="node24" class="node">
<title>Node53</title>
<g id="a_node24"><a xlink:href="d__s__play_8h.html" target="_top" xlink:title=" ">
<polygon fill="#fff0f0" stroke="red" points="1647.5,-96 1534.5,-96 1534.5,-77 1647.5,-77 1647.5,-96"/>
<text text-anchor="middle" x="1591" y="-84" font-family="Helvetica,sans-Serif" font-size="10.00">include/d/s/d_s_play.h</text>
</a>
</g>
</g>
<!-- Node5&#45;&gt;Node53 -->
<g id="edge26" class="edge">
<title>Node5&#45;&gt;Node53</title>
<path fill="none" stroke="#63b8ff" d="M2242.14,-156.5C2123.38,-154.59 1868.25,-145.86 1657,-107 1643.49,-104.51 1628.8,-100.33 1616.71,-96.47"/>
<polygon fill="#63b8ff" stroke="#63b8ff" points="2241.98,-160 2252.03,-156.65 2242.08,-153 2241.98,-160"/>
</g>
<!-- Node57 -->
<g id="node25" class="node">
<title>Node57</title>
<g id="a_node25"><a xlink:href="d__msg__scrn__base_8h.html" target="_top" xlink:title=" ">
<polygon fill="#fff0f0" stroke="red" points="1764.5,-101.5 1665.5,-101.5 1665.5,-71.5 1764.5,-71.5 1764.5,-101.5"/>
<text text-anchor="start" x="1673.5" y="-89.5" font-family="Helvetica,sans-Serif" font-size="10.00">include/msg/scrn/d</text>
<text text-anchor="middle" x="1715" y="-78.5" font-family="Helvetica,sans-Serif" font-size="10.00">_msg_scrn_base.h</text>
</a>
</g>
</g>
<!-- Node5&#45;&gt;Node57 -->
<g id="edge27" class="edge">
<title>Node5&#45;&gt;Node57</title>
<path fill="none" stroke="#63b8ff" d="M2242.37,-155.59C2140.45,-152.37 1940.17,-141.76 1774,-107 1767.66,-105.67 1761.06,-103.9 1754.65,-101.96"/>
<polygon fill="#63b8ff" stroke="#63b8ff" points="2242.09,-159.09 2252.19,-155.89 2242.3,-152.09 2242.09,-159.09"/>
</g>
<!-- Node61 -->
<g id="node26" class="node">
<title>Node61</title>
<g id="a_node26"><a xlink:href="d__a__b__zant_8h.html" target="_top" xlink:title=" ">
<polygon fill="white" stroke="#666666" points="1903.5,-101.5 1782.5,-101.5 1782.5,-71.5 1903.5,-71.5 1903.5,-101.5"/>
<text text-anchor="start" x="1790.5" y="-89.5" font-family="Helvetica,sans-Serif" font-size="10.00">include/rel/d/a/b/d</text>
<text text-anchor="middle" x="1843" y="-78.5" font-family="Helvetica,sans-Serif" font-size="10.00">_a_b_zant/d_a_b_zant.h</text>
</a>
</g>
</g>
<!-- Node5&#45;&gt;Node61 -->
<g id="edge28" class="edge">
<title>Node5&#45;&gt;Node61</title>
<path fill="none" stroke="#63b8ff" d="M2242.58,-151.6C2163.52,-144.49 2027.77,-130.1 1913,-107 1905.95,-105.58 1898.57,-103.83 1891.36,-101.96"/>
<polygon fill="#63b8ff" stroke="#63b8ff" points="2242.04,-155.07 2252.31,-152.46 2242.66,-148.09 2242.04,-155.07"/>
</g>
<!-- Node62 -->
<g id="node27" class="node">
<title>Node62</title>
<g id="a_node27"><a xlink:href="d__a__skip__2D_8h.html" target="_top" xlink:title=" ">
<polygon fill="white" stroke="#666666" points="2046,-101.5 1922,-101.5 1922,-71.5 2046,-71.5 2046,-101.5"/>
<text text-anchor="start" x="1930" y="-89.5" font-family="Helvetica,sans-Serif" font-size="10.00">include/rel/d/a/d_a</text>
<text text-anchor="middle" x="1984" y="-78.5" font-family="Helvetica,sans-Serif" font-size="10.00">_skip_2D/d_a_skip_2D.h</text>
</a>
</g>
</g>
<!-- Node5&#45;&gt;Node62 -->
<g id="edge29" class="edge">
<title>Node5&#45;&gt;Node62</title>
<path fill="none" stroke="#63b8ff" d="M2242.75,-145.21C2191.55,-135.78 2119.03,-121.74 2056,-107 2049.44,-105.47 2042.58,-103.75 2035.8,-101.99"/>
<polygon fill="#63b8ff" stroke="#63b8ff" points="2242.03,-148.63 2252.49,-146.99 2243.29,-141.75 2242.03,-148.63"/>
</g>
<!-- Node63 -->
<g id="node28" class="node">
<title>Node63</title>
<g id="a_node28"><a xlink:href="d__a__spinner_8h.html" target="_top" xlink:title=" ">
<polygon fill="white" stroke="#666666" points="4477,-101.5 4361,-101.5 4361,-71.5 4477,-71.5 4477,-101.5"/>
<text text-anchor="start" x="4369" y="-89.5" font-family="Helvetica,sans-Serif" font-size="10.00">include/rel/d/a/d_a</text>
<text text-anchor="middle" x="4419" y="-78.5" font-family="Helvetica,sans-Serif" font-size="10.00">_spinner/d_a_spinner.h</text>
</a>
</g>
</g>
<!-- Node5&#45;&gt;Node63 -->
<g id="edge30" class="edge">
<title>Node5&#45;&gt;Node63</title>
<path fill="none" stroke="#63b8ff" d="M2375.68,-156.39C2705.36,-153.25 4153.36,-137.8 4352,-107 4359.66,-105.81 4367.68,-104 4375.4,-101.95"/>
<polygon fill="#63b8ff" stroke="#63b8ff" points="2375.91,-152.89 2365.94,-156.48 2375.97,-159.89 2375.91,-152.89"/>
</g>
<!-- Node64 -->
<g id="node29" class="node">
<title>Node64</title>
<g id="a_node29"><a xlink:href="d__a__player_8cpp.html" target="_top" xlink:title=" ">
<polygon fill="white" stroke="#666666" points="4476,-24.5 4362,-24.5 4362,-5.5 4476,-5.5 4476,-24.5"/>
<text text-anchor="middle" x="4419" y="-12.5" font-family="Helvetica,sans-Serif" font-size="10.00">src/d/a/d_a_player.cpp</text>
</a>
</g>
</g>
<!-- Node5&#45;&gt;Node64 -->
<g id="edge40" class="edge">
<title>Node5&#45;&gt;Node64</title>
<path fill="none" stroke="#63b8ff" d="M2375.85,-156.1C2739.81,-151.09 4467.09,-126.35 4486,-107 4498.74,-93.97 4494.17,-82.29 4486,-66 4476.37,-46.8 4455.48,-33.09 4439.57,-24.94"/>
<polygon fill="#63b8ff" stroke="#63b8ff" points="2375.94,-152.59 2365.99,-156.23 2376.04,-159.59 2375.94,-152.59"/>
</g>
<!-- Node65 -->
<g id="node30" class="node">
<title>Node65</title>
<g id="a_node30"><a xlink:href="d__a__obj__yobikusa_8h.html" target="_top" xlink:title=" ">
<polygon fill="white" stroke="#666666" points="2169.5,-107 2064.5,-107 2064.5,-66 2169.5,-66 2169.5,-107"/>
<text text-anchor="start" x="2072.5" y="-95" font-family="Helvetica,sans-Serif" font-size="10.00">include/rel/d/a/obj</text>
<text text-anchor="start" x="2072.5" y="-84" font-family="Helvetica,sans-Serif" font-size="10.00">/d_a_obj_yobikusa/d</text>
<text text-anchor="middle" x="2117" y="-73" font-family="Helvetica,sans-Serif" font-size="10.00">_a_obj_yobikusa.h</text>
</a>
</g>
</g>
<!-- Node5&#45;&gt;Node65 -->
<g id="edge33" class="edge">
<title>Node5&#45;&gt;Node65</title>
<path fill="none" stroke="#63b8ff" d="M2258.7,-138.79C2231.36,-128.9 2197.57,-116.67 2169.85,-106.63"/>
<polygon fill="#63b8ff" stroke="#63b8ff" points="2257.2,-141.97 2267.79,-142.08 2259.58,-135.39 2257.2,-141.97"/>
</g>
<!-- Node66 -->
<g id="node31" class="node">
<title>Node66</title>
<g id="a_node31"><a xlink:href="d__a__tag__telop_8h.html" target="_top" xlink:title=" ">
<polygon fill="white" stroke="#666666" points="2306,-107 2188,-107 2188,-66 2306,-66 2306,-107"/>
<text text-anchor="start" x="2196" y="-95" font-family="Helvetica,sans-Serif" font-size="10.00">include/rel/d/a/tag</text>
<text text-anchor="start" x="2196" y="-84" font-family="Helvetica,sans-Serif" font-size="10.00">/d_a_tag_telop/d_a_tag</text>
<text text-anchor="middle" x="2247" y="-73" font-family="Helvetica,sans-Serif" font-size="10.00">_telop.h</text>
</a>
</g>
</g>
<!-- Node5&#45;&gt;Node66 -->
<g id="edge34" class="edge">
<title>Node5&#45;&gt;Node66</title>
<path fill="none" stroke="#63b8ff" d="M2288.58,-134.12C2280.89,-125.49 2272.2,-115.75 2264.77,-107.42"/>
<polygon fill="#63b8ff" stroke="#63b8ff" points="2285.88,-136.34 2295.15,-141.47 2291.1,-131.68 2285.88,-136.34"/>
</g>
<!-- Node67 -->
<g id="node32" class="node">
<title>Node67</title>
<g id="a_node32"><a xlink:href="c__dylink_8cpp.html" target="_top" xlink:title=" ">
<polygon fill="white" stroke="#666666" points="2419.5,-96 2324.5,-96 2324.5,-77 2419.5,-77 2419.5,-96"/>
<text text-anchor="middle" x="2372" y="-84" font-family="Helvetica,sans-Serif" font-size="10.00">src/c/c_dylink.cpp</text>
</a>
</g>
</g>
<!-- Node5&#45;&gt;Node67 -->
<g id="edge35" class="edge">
<title>Node5&#45;&gt;Node67</title>
<path fill="none" stroke="#63b8ff" d="M2329.74,-134.12C2341.52,-121.13 2355.57,-105.63 2364.13,-96.18"/>
<polygon fill="#63b8ff" stroke="#63b8ff" points="2327.19,-131.72 2323.07,-141.48 2332.38,-136.42 2327.19,-131.72"/>
</g>
<!-- Node68 -->
<g id="node33" class="node">
<title>Node68</title>
<g id="a_node33"><a xlink:href="d__a__itembase_8cpp.html" target="_top" xlink:title=" ">
<polygon fill="white" stroke="#666666" points="2566,-96 2438,-96 2438,-77 2566,-77 2566,-96"/>
<text text-anchor="middle" x="2502" y="-84" font-family="Helvetica,sans-Serif" font-size="10.00">src/d/a/d_a_itembase.cpp</text>
</a>
</g>
</g>
<!-- Node5&#45;&gt;Node68 -->
<g id="edge37" class="edge">
<title>Node5&#45;&gt;Node68</title>
<path fill="none" stroke="#63b8ff" d="M2359.79,-138.71C2397.58,-125.1 2447.53,-107.11 2477.07,-96.48"/>
<polygon fill="#63b8ff" stroke="#63b8ff" points="2358.64,-135.41 2350.41,-142.09 2361.01,-141.99 2358.64,-135.41"/>
</g>
<!-- Node69 -->
<g id="node34" class="node">
<title>Node69</title>
<g id="a_node34"><a xlink:href="d__a__obj_8cpp.html" target="_top" xlink:title=" ">
<polygon fill="white" stroke="#666666" points="2685.5,-96 2584.5,-96 2584.5,-77 2685.5,-77 2685.5,-96"/>
<text text-anchor="middle" x="2635" y="-84" font-family="Helvetica,sans-Serif" font-size="10.00">src/d/a/d_a_obj.cpp</text>
</a>
</g>
</g>
<!-- Node5&#45;&gt;Node69 -->
<g id="edge38" class="edge">
<title>Node5&#45;&gt;Node69</title>
<path fill="none" stroke="#63b8ff" d="M2375.65,-146.91C2429.76,-138.14 2507.84,-124.15 2575,-107 2586.57,-104.05 2599.16,-100.07 2609.81,-96.48"/>
<polygon fill="#63b8ff" stroke="#63b8ff" points="2375.29,-143.42 2365.97,-148.46 2376.4,-150.34 2375.29,-143.42"/>
</g>
<!-- Node70 -->
<g id="node35" class="node">
<title>Node70</title>
<g id="a_node35"><a xlink:href="d__bg__s_8cpp.html" target="_top" xlink:title=" ">
<polygon fill="white" stroke="#666666" points="2808,-96 2704,-96 2704,-77 2808,-77 2808,-96"/>
<text text-anchor="middle" x="2756" y="-84" font-family="Helvetica,sans-Serif" font-size="10.00">src/d/bg/d_bg_s.cpp</text>
</a>
</g>
</g>
<!-- Node5&#45;&gt;Node70 -->
<g id="edge41" class="edge">
<title>Node5&#45;&gt;Node70</title>
<path fill="none" stroke="#63b8ff" d="M2375.21,-152.08C2452.6,-145.5 2584.2,-131.67 2695,-107 2707.15,-104.29 2720.35,-100.22 2731.35,-96.5"/>
<polygon fill="#63b8ff" stroke="#63b8ff" points="2375.38,-148.56 2365.7,-152.88 2375.96,-155.53 2375.38,-148.56"/>
</g>
<!-- Node71 -->
<g id="node36" class="node">
<title>Node71</title>
<g id="a_node36"><a xlink:href="d__bg__s__movebg__actor_8cpp.html" target="_top" xlink:title=" ">
<polygon fill="white" stroke="#666666" points="2952,-101.5 2826,-101.5 2826,-71.5 2952,-71.5 2952,-101.5"/>
<text text-anchor="start" x="2834" y="-89.5" font-family="Helvetica,sans-Serif" font-size="10.00">src/d/bg/d_bg_s_movebg</text>
<text text-anchor="middle" x="2889" y="-78.5" font-family="Helvetica,sans-Serif" font-size="10.00">_actor.cpp</text>
</a>
</g>
</g>
<!-- Node5&#45;&gt;Node71 -->
<g id="edge42" class="edge">
<title>Node5&#45;&gt;Node71</title>
<path fill="none" stroke="#63b8ff" d="M2375.74,-153.97C2473.33,-148.75 2660.36,-135.71 2817,-107 2824.52,-105.62 2832.39,-103.84 2840.06,-101.92"/>
<polygon fill="#63b8ff" stroke="#63b8ff" points="2375.61,-150.48 2365.81,-154.49 2375.98,-157.47 2375.61,-150.48"/>
</g>
<!-- Node72 -->
<g id="node37" class="node">
<title>Node72</title>
<g id="a_node37"><a xlink:href="d__bg__w_8cpp.html" target="_top" xlink:title=" ">
<polygon fill="white" stroke="#666666" points="3077.5,-96 2970.5,-96 2970.5,-77 3077.5,-77 3077.5,-96"/>
<text text-anchor="middle" x="3024" y="-84" font-family="Helvetica,sans-Serif" font-size="10.00">src/d/bg/d_bg_w.cpp</text>
</a>
</g>
</g>
<!-- Node5&#45;&gt;Node72 -->
<g id="edge43" class="edge">
<title>Node5&#45;&gt;Node72</title>
<path fill="none" stroke="#63b8ff" d="M2375.46,-156.78C2494.1,-155.32 2749.74,-147.27 2961,-107 2973.93,-104.53 2987.96,-100.35 2999.49,-96.49"/>
<polygon fill="#63b8ff" stroke="#63b8ff" points="2375.54,-153.28 2365.58,-156.89 2375.62,-160.28 2375.54,-153.28"/>
</g>
<!-- Node73 -->
<g id="node38" class="node">
<title>Node73</title>
<g id="a_node38"><a xlink:href="d__cc__s_8cpp.html" target="_top" xlink:title=" ">
<polygon fill="white" stroke="#666666" points="3200,-96 3096,-96 3096,-77 3200,-77 3200,-96"/>
<text text-anchor="middle" x="3148" y="-84" font-family="Helvetica,sans-Serif" font-size="10.00">src/d/cc/d_cc_s.cpp</text>
</a>
</g>
</g>
<!-- Node5&#45;&gt;Node73 -->
<g id="edge44" class="edge">
<title>Node5&#45;&gt;Node73</title>
<path fill="none" stroke="#63b8ff" d="M2375.52,-154.82C2537.94,-149.16 2951.36,-132.64 3087,-107 3099.67,-104.6 3113.39,-100.38 3124.59,-96.47"/>
<polygon fill="#63b8ff" stroke="#63b8ff" points="2375.65,-151.31 2365.78,-155.16 2375.89,-158.31 2375.65,-151.31"/>
</g>
<!-- Node74 -->
<g id="node39" class="node">
<title>Node74</title>
<g id="a_node39"><a xlink:href="d__com__static_8cpp.html" target="_top" xlink:title=" ">
<polygon fill="white" stroke="#666666" points="3358,-96 3218,-96 3218,-77 3358,-77 3358,-96"/>
<text text-anchor="middle" x="3288" y="-84" font-family="Helvetica,sans-Serif" font-size="10.00">src/d/com/d_com_static.cpp</text>
</a>
</g>
</g>
<!-- Node5&#45;&gt;Node74 -->
<g id="edge46" class="edge">
<title>Node5&#45;&gt;Node74</title>
<path fill="none" stroke="#63b8ff" d="M2375.66,-157.53C2525.49,-157.8 2899.98,-153.31 3209,-107 3225.21,-104.57 3242.95,-100.34 3257.5,-96.44"/>
<polygon fill="#63b8ff" stroke="#63b8ff" points="2375.93,-154.03 2365.92,-157.5 2375.91,-161.03 2375.93,-154.03"/>
</g>
<!-- Node75 -->
<g id="node40" class="node">
<title>Node75</title>
<g id="a_node40"><a xlink:href="d__attention_8cpp.html" target="_top" xlink:title=" ">
<polygon fill="white" stroke="#666666" points="3483.5,-96 3376.5,-96 3376.5,-77 3483.5,-77 3483.5,-96"/>
<text text-anchor="middle" x="3430" y="-84" font-family="Helvetica,sans-Serif" font-size="10.00">src/d/d_attention.cpp</text>
</a>
</g>
</g>
<!-- Node5&#45;&gt;Node75 -->
<g id="edge47" class="edge">
<title>Node5&#45;&gt;Node75</title>
<path fill="none" stroke="#63b8ff" d="M2375.68,-156.05C2576.77,-152.84 3175.23,-140.65 3367,-107 3380.19,-104.68 3394.49,-100.41 3406.12,-96.46"/>
<polygon fill="#63b8ff" stroke="#63b8ff" points="2375.88,-152.55 2365.93,-156.2 2375.99,-159.55 2375.88,-152.55"/>
</g>
<!-- Node76 -->
<g id="node41" class="node">
<title>Node76</title>
<g id="a_node41"><a xlink:href="d__cam__param_8cpp.html" target="_top" xlink:title=" ">
<polygon fill="white" stroke="#666666" points="3622.5,-96 3501.5,-96 3501.5,-77 3622.5,-77 3622.5,-96"/>
<text text-anchor="middle" x="3562" y="-84" font-family="Helvetica,sans-Serif" font-size="10.00">src/d/d_cam_param.cpp</text>
</a>
</g>
</g>
<!-- Node5&#45;&gt;Node76 -->
<g id="edge48" class="edge">
<title>Node5&#45;&gt;Node76</title>
<path fill="none" stroke="#63b8ff" d="M2375.66,-156.23C2592.35,-153.4 3275.32,-141.86 3493,-107 3507.38,-104.7 3523.03,-100.43 3535.78,-96.47"/>
<polygon fill="#63b8ff" stroke="#63b8ff" points="2375.65,-152.73 2365.7,-156.36 2375.74,-159.73 2375.65,-152.73"/>
</g>
<!-- Node77 -->
<g id="node42" class="node">
<title>Node77</title>
<g id="a_node42"><a xlink:href="d__camera_8cpp.html" target="_top" xlink:title=" ">
<polygon fill="white" stroke="#666666" points="3743,-96 3641,-96 3641,-77 3743,-77 3743,-96"/>
<text text-anchor="middle" x="3692" y="-84" font-family="Helvetica,sans-Serif" font-size="10.00">src/d/d_camera.cpp</text>
</a>
</g>
</g>
<!-- Node5&#45;&gt;Node77 -->
<g id="edge49" class="edge">
<title>Node5&#45;&gt;Node77</title>
<path fill="none" stroke="#63b8ff" d="M2375.58,-156.91C2608.62,-156.22 3386.78,-150.61 3632,-107 3644.72,-104.74 3658.47,-100.42 3669.58,-96.42"/>
<polygon fill="#63b8ff" stroke="#63b8ff" points="2375.75,-153.41 2365.76,-156.94 2375.77,-160.41 2375.75,-153.41"/>
</g>
<!-- Node78 -->
<g id="node43" class="node">
<title>Node78</title>
<g id="a_node43"><a xlink:href="d__eye__hl_8cpp.html" target="_top" xlink:title=" ">
<polygon fill="white" stroke="#666666" points="3859,-96 3761,-96 3761,-77 3859,-77 3859,-96"/>
<text text-anchor="middle" x="3810" y="-84" font-family="Helvetica,sans-Serif" font-size="10.00">src/d/d_eye_hl.cpp</text>
</a>
</g>
</g>
<!-- Node5&#45;&gt;Node78 -->
<g id="edge51" class="edge">
<title>Node5&#45;&gt;Node78</title>
<path fill="none" stroke="#63b8ff" d="M2375.37,-157.24C2621.6,-157.75 3482.5,-155.9 3752,-107 3764.33,-104.76 3777.62,-100.44 3788.36,-96.44"/>
<polygon fill="#63b8ff" stroke="#63b8ff" points="2375.63,-153.74 2365.62,-157.22 2375.62,-160.74 2375.63,-153.74"/>
</g>
<!-- Node79 -->
<g id="node44" class="node">
<title>Node79</title>
<g id="a_node44"><a xlink:href="d__kyeff_8cpp.html" target="_top" xlink:title=" ">
<polygon fill="white" stroke="#666666" points="3967,-96 3877,-96 3877,-77 3967,-77 3967,-96"/>
<text text-anchor="middle" x="3922" y="-84" font-family="Helvetica,sans-Serif" font-size="10.00">src/d/d_kyeff.cpp</text>
</a>
</g>
</g>
<!-- Node5&#45;&gt;Node79 -->
<g id="edge52" class="edge">
<title>Node5&#45;&gt;Node79</title>
<path fill="none" stroke="#63b8ff" d="M2375.28,-156.1C2653.58,-152.16 3720.2,-135.32 3868,-107 3879.55,-104.79 3891.93,-100.47 3901.91,-96.46"/>
<polygon fill="#63b8ff" stroke="#63b8ff" points="2375.62,-152.6 2365.67,-156.24 2375.72,-159.59 2375.62,-152.6"/>
</g>
<!-- Node80 -->
<g id="node45" class="node">
<title>Node80</title>
<g id="a_node45"><a xlink:href="d__path_8cpp.html" target="_top" xlink:title=" ">
<polygon fill="white" stroke="#666666" points="4074.5,-96 3985.5,-96 3985.5,-77 4074.5,-77 4074.5,-96"/>
<text text-anchor="middle" x="4030" y="-84" font-family="Helvetica,sans-Serif" font-size="10.00">src/d/d_path.cpp</text>
</a>
</g>
</g>
<!-- Node5&#45;&gt;Node80 -->
<g id="edge53" class="edge">
<title>Node5&#45;&gt;Node80</title>
<path fill="none" stroke="#63b8ff" d="M2375.52,-156.25C2666.17,-152.78 3817.16,-137.26 3976,-107 3987.55,-104.8 3999.93,-100.48 4009.91,-96.47"/>
<polygon fill="#63b8ff" stroke="#63b8ff" points="2375.81,-152.74 2365.85,-156.36 2375.89,-159.74 2375.81,-152.74"/>
</g>
<!-- Node81 -->
<g id="node46" class="node">
<title>Node81</title>
<g id="a_node46"><a xlink:href="d__resorce_8cpp.html" target="_top" xlink:title=" ">
<polygon fill="white" stroke="#666666" points="4195,-96 4093,-96 4093,-77 4195,-77 4195,-96"/>
<text text-anchor="middle" x="4144" y="-84" font-family="Helvetica,sans-Serif" font-size="10.00">src/d/d_resorce.cpp</text>
</a>
</g>
</g>
<!-- Node5&#45;&gt;Node81 -->
<g id="edge54" class="edge">
<title>Node5&#45;&gt;Node81</title>
<path fill="none" stroke="#63b8ff" d="M2375.31,-156.25C2677.11,-152.7 3913.51,-136.48 4084,-107 4096.74,-104.8 4110.48,-100.48 4121.59,-96.47"/>
<polygon fill="#63b8ff" stroke="#63b8ff" points="2375.61,-152.75 2365.65,-156.37 2375.69,-159.75 2375.61,-152.75"/>
</g>
<!-- Node82 -->
<g id="node47" class="node">
<title>Node82</title>
<g id="a_node47"><a xlink:href="d__simple__model_8cpp.html" target="_top" xlink:title=" ">
<polygon fill="white" stroke="#666666" points="4343,-96 4213,-96 4213,-77 4343,-77 4343,-96"/>
<text text-anchor="middle" x="4278" y="-84" font-family="Helvetica,sans-Serif" font-size="10.00">src/d/d_simple_model.cpp</text>
</a>
</g>
</g>
<!-- Node5&#45;&gt;Node82 -->
<g id="edge55" class="edge">
<title>Node5&#45;&gt;Node82</title>
<path fill="none" stroke="#63b8ff" d="M2375.62,-156.16C2690.31,-152.05 4020.36,-133.26 4204,-107 4219.52,-104.78 4236.45,-100.46 4250.2,-96.46"/>
<polygon fill="#63b8ff" stroke="#63b8ff" points="2375.89,-152.65 2365.93,-156.28 2375.98,-159.65 2375.89,-152.65"/>
</g>
<!-- Node5&#45;&gt;Node96 -->
<g id="edge59" class="edge">
<title>Node5&#45;&gt;Node96</title>
<path fill="none" stroke="#63b8ff" d="M2375.79,-156.07C2751.66,-150.76 4590.53,-124.02 4709,-107 4724.13,-104.83 4740.61,-100.51 4753.98,-96.5"/>
<polygon fill="#63b8ff" stroke="#63b8ff" points="2375.79,-152.57 2365.84,-156.21 2375.89,-159.57 2375.79,-152.57"/>
</g>
<!-- Node6&#45;&gt;Node11 -->
<g id="edge6" class="edge">
<title>Node6&#45;&gt;Node11</title>
<path fill="none" stroke="#63b8ff" d="M544.32,-70.28C527.36,-58.37 503.94,-41.93 487.33,-30.27"/>
<polygon fill="#63b8ff" stroke="#63b8ff" points="542.03,-72.95 552.22,-75.83 546.05,-67.22 542.03,-72.95"/>
</g>
<!-- Node18&#45;&gt;Node15 -->
<g id="edge9" class="edge">
<title>Node18&#45;&gt;Node15</title>
<path fill="none" stroke="#63b8ff" d="M4559.85,-75.11C4536.87,-71.53 4510.28,-67.93 4486,-66 4092.93,-34.76 1144.55,-18.53 704.79,-16.27"/>
<polygon fill="#63b8ff" stroke="#63b8ff" points="4559.23,-78.56 4569.66,-76.68 4560.34,-71.65 4559.23,-78.56"/>
</g>
<!-- Node18&#45;&gt;Node19 -->
<g id="edge10" class="edge">
<title>Node18&#45;&gt;Node19</title>
<path fill="none" stroke="#63b8ff" d="M4603.51,-68.13C4591.27,-54.41 4574.68,-35.82 4564.98,-24.95"/>
<polygon fill="#63b8ff" stroke="#63b8ff" points="4600.87,-70.44 4610.14,-75.57 4606.09,-65.78 4600.87,-70.44"/>
</g>
<!-- Node18&#45;&gt;Node20 -->
<g id="edge11" class="edge">
<title>Node18&#45;&gt;Node20</title>
<path fill="none" stroke="#63b8ff" d="M4652.84,-72.43C4683.79,-60.49 4729.48,-42.84 4761.52,-30.47"/>
<polygon fill="#63b8ff" stroke="#63b8ff" points="4651.64,-69.14 4643.58,-76.01 4654.16,-75.67 4651.64,-69.14"/>
</g>
<!-- Node18&#45;&gt;Node21 -->
<g id="edge12" class="edge">
<title>Node18&#45;&gt;Node21</title>
<path fill="none" stroke="#63b8ff" d="M4634.39,-68.53C4646.86,-54.77 4663.94,-35.93 4673.89,-24.95"/>
<polygon fill="#63b8ff" stroke="#63b8ff" points="4632.12,-65.82 4628,-75.58 4637.3,-70.52 4632.12,-65.82"/>
</g>
<!-- Node35&#45;&gt;Node11 -->
<g id="edge23" class="edge">
<title>Node35&#45;&gt;Node11</title>
<path fill="none" stroke="#63b8ff" d="M333.39,-67.02C363.45,-55.54 401.53,-41 429.34,-30.38"/>
<polygon fill="#63b8ff" stroke="#63b8ff" points="332.22,-63.72 324.12,-70.56 334.72,-70.26 332.22,-63.72"/>
</g>
<!-- Node35&#45;&gt;Node15 -->
<g id="edge20" class="edge">
<title>Node35&#45;&gt;Node15</title>
<path fill="none" stroke="#63b8ff" d="M351.73,-72.79C424.42,-58.95 538.84,-37.17 602.77,-24.99"/>
<polygon fill="#63b8ff" stroke="#63b8ff" points="351.09,-69.35 341.92,-74.66 352.4,-76.23 351.09,-69.35"/>
</g>
<!-- Node35&#45;&gt;Node40 -->
<g id="edge21" class="edge">
<title>Node35&#45;&gt;Node40</title>
<path fill="none" stroke="#63b8ff" d="M305.42,-62.62C317,-49.63 330.83,-34.13 339.26,-24.68"/>
<polygon fill="#63b8ff" stroke="#63b8ff" points="302.9,-60.18 298.85,-69.97 308.12,-64.84 302.9,-60.18"/>
</g>
<!-- Node35&#45;&gt;Node44 -->
<g id="edge22" class="edge">
<title>Node35&#45;&gt;Node44</title>
<path fill="none" stroke="#63b8ff" d="M259,-63.73C243.23,-50.53 223.98,-34.4 212.37,-24.68"/>
<polygon fill="#63b8ff" stroke="#63b8ff" points="256.73,-66.39 266.64,-70.13 261.22,-61.02 256.73,-66.39"/>
</g>
<!-- Node35&#45;&gt;Node45 -->
<g id="edge24" class="edge">
<title>Node35&#45;&gt;Node45</title>
<path fill="none" stroke="#63b8ff" d="M225.82,-67.85C187.02,-56.27 136.93,-41.33 100.5,-30.47"/>
<polygon fill="#63b8ff" stroke="#63b8ff" points="224.41,-71.08 234.99,-70.58 226.41,-64.37 224.41,-71.08"/>
</g>
<!-- Node63&#45;&gt;Node15 -->
<g id="edge31" class="edge">
<title>Node63&#45;&gt;Node15</title>
<path fill="none" stroke="#63b8ff" d="M4364.62,-68.36C4360.38,-67.42 4356.14,-66.62 4352,-66 3976.24,-9.84 1136.74,-14.77 704.97,-15.85"/>
<polygon fill="#63b8ff" stroke="#63b8ff" points="4363.76,-71.75 4374.3,-70.72 4365.41,-64.95 4363.76,-71.75"/>
</g>
<!-- Node63&#45;&gt;Node64 -->
<g id="edge32" class="edge">
<title>Node63&#45;&gt;Node64</title>
<path fill="none" stroke="#63b8ff" d="M4419,-59.96C4419,-47.57 4419,-33.49 4419,-24.68"/>
<polygon fill="#63b8ff" stroke="#63b8ff" points="4415.5,-59.59 4419,-69.59 4422.5,-59.59 4415.5,-59.59"/>
</g>
<!-- Node106&#45;&gt;Node3 -->
<g id="edge62" class="edge">
<title>Node106&#45;&gt;Node3</title>
<path fill="none" stroke="#63b8ff" d="M258.88,-179.03C286.53,-195.32 325.58,-217.29 363,-228 565.59,-286 626.96,-236.15 835.69,-263.96"/>
<polygon fill="#63b8ff" stroke="#63b8ff" points="260.92,-176.18 250.53,-174.09 257.35,-182.2 260.92,-176.18"/>
</g>
<!-- Node106&#45;&gt;Node44 -->
<g id="edge63" class="edge">
<title>Node106&#45;&gt;Node44</title>
<path fill="none" stroke="#63b8ff" d="M202.1,-133.92C196.4,-125.93 190.94,-116.56 188,-107 179.02,-77.82 191.23,-41.53 198.01,-24.98"/>
<polygon fill="#63b8ff" stroke="#63b8ff" points="199.22,-135.92 208.09,-141.72 204.77,-131.66 199.22,-135.92"/>
</g>
<!-- Node106&#45;&gt;Node45 -->
<g id="edge64" class="edge">
<title>Node106&#45;&gt;Node45</title>
<path fill="none" stroke="#63b8ff" d="M165.06,-138.29C146.83,-130.51 127.4,-120.16 112,-107 86.54,-85.24 67.6,-50.07 58.34,-30.43"/>
<polygon fill="#63b8ff" stroke="#63b8ff" points="163.63,-141.49 174.21,-142.01 166.26,-135 163.63,-141.49"/>
</g>
</g>
</svg>
