<?xml version="1.0" encoding="UTF-8" standalone="no"?>
<!DOCTYPE svg PUBLIC "-//W3C//DTD SVG 1.1//EN"
 "http://www.w3.org/Graphics/SVG/1.1/DTD/svg11.dtd">
<!-- Generated by graphviz version 7.0.4 (20221203.1631)
 -->
<!-- Title: include/d/meter/d_meter2_info.h Pages: 1 -->
<svg width="5231pt" height="302pt"
 viewBox="0.00 0.00 5230.76 302.00" xmlns="http://www.w3.org/2000/svg" xmlns:xlink="http://www.w3.org/1999/xlink">
<g id="graph0" class="graph" transform="scale(1 1) rotate(0) translate(4 298)">
<title>include/d/meter/d_meter2_info.h</title>
<!-- Node1 -->
<g id="node1" class="node">
<title>Node1</title>
<g id="a_node1"><a xlink:title=" ">
<polygon fill="#999999" stroke="#666666" points="4807.5,-294 4680.5,-294 4680.5,-264 4807.5,-264 4807.5,-294"/>
<text text-anchor="start" x="4688.5" y="-282" font-family="Helvetica,sans-Serif" font-size="10.00">include/d/meter/d_meter2</text>
<text text-anchor="middle" x="4744" y="-271" font-family="Helvetica,sans-Serif" font-size="10.00">_info.h</text>
</a>
</g>
</g>
<!-- Node2 -->
<g id="node2" class="node">
<title>Node2</title>
<g id="a_node2"><a xlink:href="d__a__alink_8h.html" target="_top" xlink:title=" ">
<polygon fill="white" stroke="#666666" points="4759,-228 4643,-228 4643,-209 4759,-209 4759,-228"/>
<text text-anchor="middle" x="4701" y="-216" font-family="Helvetica,sans-Serif" font-size="10.00">include/d/a/d_a_alink.h</text>
</a>
</g>
</g>
<!-- Node1&#45;&gt;Node2 -->
<g id="edge1" class="edge">
<title>Node1&#45;&gt;Node2</title>
<path fill="none" stroke="#63b8ff" d="M4726.62,-254.35C4719.82,-245.11 4712.46,-235.09 4707.38,-228.18"/>
<polygon fill="#63b8ff" stroke="#63b8ff" points="4723.73,-256.34 4732.47,-262.32 4729.37,-252.19 4723.73,-256.34"/>
</g>
<!-- Node9 -->
<g id="node5" class="node">
<title>Node9</title>
<g id="a_node5"><a xlink:href="d__meter2__info_8cpp.html" target="_top" xlink:title=" ">
<polygon fill="white" stroke="#666666" points="2658,-30 2548,-30 2548,0 2658,0 2658,-30"/>
<text text-anchor="start" x="2556" y="-18" font-family="Helvetica,sans-Serif" font-size="10.00">src/d/meter/d_meter2</text>
<text text-anchor="middle" x="2603" y="-7" font-family="Helvetica,sans-Serif" font-size="10.00">_info.cpp</text>
</a>
</g>
</g>
<!-- Node1&#45;&gt;Node9 -->
<g id="edge68" class="edge">
<title>Node1&#45;&gt;Node9</title>
<path fill="none" stroke="#63b8ff" d="M4669.15,-278.13C4088.29,-278.79 318.35,-276.55 155,-107 142.36,-93.88 142.25,-79.02 155,-66 176.66,-43.9 2185.7,-20.62 2547.5,-16.61"/>
<polygon fill="#63b8ff" stroke="#63b8ff" points="4668.78,-281.63 4678.78,-278.12 4668.78,-274.63 4668.78,-281.63"/>
</g>
<!-- Node18 -->
<g id="node10" class="node">
<title>Node18</title>
<g id="a_node10"><a xlink:href="d__com__inf__game_8cpp.html" target="_top" xlink:title=" ">
<polygon fill="white" stroke="#666666" points="4945,-30 4837,-30 4837,0 4945,0 4945,-30"/>
<text text-anchor="start" x="4845" y="-18" font-family="Helvetica,sans-Serif" font-size="10.00">src/d/com/d_com_inf</text>
<text text-anchor="middle" x="4891" y="-7" font-family="Helvetica,sans-Serif" font-size="10.00">_game.cpp</text>
</a>
</g>
</g>
<!-- Node1&#45;&gt;Node18 -->
<g id="edge66" class="edge">
<title>Node1&#45;&gt;Node18</title>
<path fill="none" stroke="#63b8ff" d="M4819.27,-274.4C4924.09,-264.86 5110.73,-230.42 5196,-107 5206.36,-92.01 5207.8,-79.89 5196,-66 5179.98,-47.14 5028.63,-29.49 4945.34,-21.11"/>
<polygon fill="#63b8ff" stroke="#63b8ff" points="4819.01,-270.91 4809.34,-275.24 4819.6,-277.88 4819.01,-270.91"/>
</g>
<!-- Node19 -->
<g id="node11" class="node">
<title>Node19</title>
<g id="a_node11"><a xlink:href="d__item_8cpp.html" target="_top" xlink:title=" ">
<polygon fill="white" stroke="#666666" points="5174.5,-24.5 5085.5,-24.5 5085.5,-5.5 5174.5,-5.5 5174.5,-24.5"/>
<text text-anchor="middle" x="5130" y="-12.5" font-family="Helvetica,sans-Serif" font-size="10.00">src/d/d_item.cpp</text>
</a>
</g>
</g>
<!-- Node1&#45;&gt;Node19 -->
<g id="edge67" class="edge">
<title>Node1&#45;&gt;Node19</title>
<path fill="none" stroke="#63b8ff" d="M4819.01,-273.92C4885.06,-268.55 4983.06,-256.21 5064,-228 5110.8,-211.69 5123.26,-205.12 5161,-173 5201.42,-138.61 5240.23,-112.14 5214,-66 5202.34,-45.49 5178.58,-32.51 5159.29,-24.93"/>
<polygon fill="#63b8ff" stroke="#63b8ff" points="4819.08,-270.41 4809.38,-274.67 4819.62,-277.39 4819.08,-270.41"/>
</g>
<!-- Node96 -->
<g id="node49" class="node">
<title>Node96</title>
<g id="a_node49"><a xlink:href="d__save_8cpp.html" target="_top" xlink:title=" ">
<polygon fill="white" stroke="#666666" points="5034.5,-96 4919.5,-96 4919.5,-77 5034.5,-77 5034.5,-96"/>
<text text-anchor="middle" x="4977" y="-84" font-family="Helvetica,sans-Serif" font-size="10.00">src/d/save/d_save.cpp</text>
</a>
</g>
</g>
<!-- Node1&#45;&gt;Node96 -->
<g id="edge69" class="edge">
<title>Node1&#45;&gt;Node96</title>
<path fill="none" stroke="#63b8ff" d="M4770.3,-256.5C4821.24,-214.85 4931.38,-124.8 4966.21,-96.32"/>
<polygon fill="#63b8ff" stroke="#63b8ff" points="4768.21,-253.68 4762.68,-262.72 4772.64,-259.1 4768.21,-253.68"/>
</g>
<!-- Node106 -->
<g id="node50" class="node">
<title>Node106</title>
<g id="a_node50"><a xlink:href="d__menu__window_8h.html" target="_top" xlink:title=" ">
<polygon fill="white" stroke="#666666" points="120,-173 0,-173 0,-143 120,-143 120,-173"/>
<text text-anchor="start" x="8" y="-161" font-family="Helvetica,sans-Serif" font-size="10.00">include/d/menu/d_menu</text>
<text text-anchor="middle" x="60" y="-150" font-family="Helvetica,sans-Serif" font-size="10.00">_window.h</text>
</a>
</g>
</g>
<!-- Node1&#45;&gt;Node106 -->
<g id="edge62" class="edge">
<title>Node1&#45;&gt;Node106</title>
<path fill="none" stroke="#63b8ff" d="M4668.72,-277.94C4079.99,-277.37 234.89,-271.98 125,-228 97.28,-216.91 73.74,-190.12 63.69,-173.37"/>
<polygon fill="#63b8ff" stroke="#63b8ff" points="4668.49,-281.44 4678.49,-277.95 4668.5,-274.44 4668.49,-281.44"/>
</g>
<!-- Node3 -->
<g id="node3" class="node">
<title>Node3</title>
<g id="a_node3"><a xlink:href="d__com__inf__game_8h.html" target="_top" xlink:title=" ">
<polygon fill="#fff0f0" stroke="red" points="2886,-173 2776,-173 2776,-143 2886,-143 2886,-173"/>
<text text-anchor="start" x="2784" y="-161" font-family="Helvetica,sans-Serif" font-size="10.00">include/d/com/d_com</text>
<text text-anchor="middle" x="2831" y="-150" font-family="Helvetica,sans-Serif" font-size="10.00">_inf_game.h</text>
</a>
</g>
</g>
<!-- Node2&#45;&gt;Node3 -->
<g id="edge2" class="edge">
<title>Node2&#45;&gt;Node3</title>
<path fill="none" stroke="#63b8ff" d="M4631.63,-215.33C4332.57,-205.97 3156.54,-169.18 2886.48,-160.74"/>
<polygon fill="#63b8ff" stroke="#63b8ff" points="4631.11,-218.82 4641.21,-215.63 4631.33,-211.82 4631.11,-218.82"/>
</g>
<!-- Node13 -->
<g id="node8" class="node">
<title>Node13</title>
<g id="a_node8"><a xlink:href="d__a__alink_8cpp.html" target="_top" xlink:title=" ">
<polygon fill="white" stroke="#666666" points="4597.5,-24.5 4488.5,-24.5 4488.5,-5.5 4597.5,-5.5 4597.5,-24.5"/>
<text text-anchor="middle" x="4543" y="-12.5" font-family="Helvetica,sans-Serif" font-size="10.00">src/d/a/d_a_alink.cpp</text>
</a>
</g>
</g>
<!-- Node2&#45;&gt;Node13 -->
<g id="edge61" class="edge">
<title>Node2&#45;&gt;Node13</title>
<path fill="none" stroke="#63b8ff" d="M4704.36,-197.61C4708.52,-166.05 4711.68,-104.16 4681,-66 4660.8,-40.88 4626.87,-28.38 4597.71,-22.15"/>
<polygon fill="#63b8ff" stroke="#63b8ff" points="4700.93,-196.88 4702.9,-207.29 4707.86,-197.93 4700.93,-196.88"/>
</g>
<!-- Node4 -->
<g id="node4" class="node">
<title>Node4</title>
<g id="a_node4"><a xlink:href="d__a__npc_8h.html" target="_top" xlink:title=" ">
<polygon fill="#fff0f0" stroke="red" points="4166.5,-96 4055.5,-96 4055.5,-77 4166.5,-77 4166.5,-96"/>
<text text-anchor="middle" x="4111" y="-84" font-family="Helvetica,sans-Serif" font-size="10.00">include/d/a/d_a_npc.h</text>
</a>
</g>
</g>
<!-- Node3&#45;&gt;Node4 -->
<g id="edge3" class="edge">
<title>Node3&#45;&gt;Node4</title>
<path fill="none" stroke="#63b8ff" d="M2897.58,-156.45C3117.95,-154.29 3822.28,-144.55 4046,-107 4059.59,-104.72 4074.34,-100.45 4086.34,-96.49"/>
<polygon fill="#63b8ff" stroke="#63b8ff" points="2897.7,-152.95 2887.74,-156.55 2897.77,-159.95 2897.7,-152.95"/>
</g>
<!-- Node3&#45;&gt;Node9 -->
<g id="edge58" class="edge">
<title>Node3&#45;&gt;Node9</title>
<path fill="none" stroke="#63b8ff" d="M2897.58,-157.36C3184.09,-158.58 4299.81,-159.9 4351,-107 4363.67,-93.9 4363.7,-79.07 4351,-66 4320.78,-34.91 2951.88,-19.48 2658.13,-16.53"/>
<polygon fill="#63b8ff" stroke="#63b8ff" points="2897.68,-153.86 2887.66,-157.31 2897.65,-160.86 2897.68,-153.86"/>
</g>
<!-- Node10 -->
<g id="node6" class="node">
<title>Node10</title>
<g id="a_node6"><a xlink:href="d__cc__uty_8h.html" target="_top" xlink:title=" ">
<polygon fill="#fff0f0" stroke="red" points="4342.5,-96 4223.5,-96 4223.5,-77 4342.5,-77 4342.5,-96"/>
<text text-anchor="middle" x="4283" y="-84" font-family="Helvetica,sans-Serif" font-size="10.00">include/d/cc/d_cc_uty.h</text>
</a>
</g>
</g>
<!-- Node3&#45;&gt;Node10 -->
<g id="edge5" class="edge">
<title>Node3&#45;&gt;Node10</title>
<path fill="none" stroke="#63b8ff" d="M2897.45,-156.54C3136.38,-154.56 3951.39,-145.13 4209,-107 4224.38,-104.72 4241.16,-100.46 4254.84,-96.49"/>
<polygon fill="#63b8ff" stroke="#63b8ff" points="2897.66,-153.03 2887.69,-156.61 2897.72,-160.03 2897.66,-153.03"/>
</g>
<!-- Node16 -->
<g id="node7" class="node">
<title>Node16</title>
<g id="a_node7"><a xlink:href="d__item_8h.html" target="_top" xlink:title=" ">
<polygon fill="#fff0f0" stroke="red" points="4862.5,-96 4767.5,-96 4767.5,-77 4862.5,-77 4862.5,-96"/>
<text text-anchor="middle" x="4815" y="-84" font-family="Helvetica,sans-Serif" font-size="10.00">include/d/d_item.h</text>
</a>
</g>
</g>
<!-- Node3&#45;&gt;Node16 -->
<g id="edge6" class="edge">
<title>Node3&#45;&gt;Node16</title>
<path fill="none" stroke="#63b8ff" d="M2897.55,-156.37C3214.94,-153.21 4567.22,-138 4753,-107 4766.13,-104.81 4780.33,-100.49 4791.82,-96.48"/>
<polygon fill="#63b8ff" stroke="#63b8ff" points="2897.74,-152.87 2887.77,-156.46 2897.81,-159.87 2897.74,-152.87"/>
</g>
<!-- Node3&#45;&gt;Node13 -->
<g id="edge35" class="edge">
<title>Node3&#45;&gt;Node13</title>
<path fill="none" stroke="#63b8ff" d="M2897.75,-157.32C3203.81,-158.49 4460.67,-160.04 4524,-107 4548.5,-86.48 4546.47,-43.27 4544.29,-24.74"/>
<polygon fill="#63b8ff" stroke="#63b8ff" points="2897.95,-153.82 2887.94,-157.28 2897.92,-160.82 2897.95,-153.82"/>
</g>
<!-- Node17 -->
<g id="node9" class="node">
<title>Node17</title>
<g id="a_node9"><a xlink:href="d__a__obj__item_8cpp.html" target="_top" xlink:title=" ">
<polygon fill="white" stroke="#666666" points="4809.5,-24.5 4684.5,-24.5 4684.5,-5.5 4809.5,-5.5 4809.5,-24.5"/>
<text text-anchor="middle" x="4747" y="-12.5" font-family="Helvetica,sans-Serif" font-size="10.00">src/d/a/d_a_obj_item.cpp</text>
</a>
</g>
</g>
<!-- Node3&#45;&gt;Node17 -->
<g id="edge38" class="edge">
<title>Node3&#45;&gt;Node17</title>
<path fill="none" stroke="#63b8ff" d="M2897.61,-156.85C3219.38,-155.89 4600.68,-149.34 4681,-107 4715.36,-88.89 4736.18,-43.95 4743.75,-24.83"/>
<polygon fill="#63b8ff" stroke="#63b8ff" points="2897.67,-153.35 2887.68,-156.87 2897.69,-160.35 2897.67,-153.35"/>
</g>
<!-- Node3&#45;&gt;Node18 -->
<g id="edge44" class="edge">
<title>Node3&#45;&gt;Node18</title>
<path fill="none" stroke="#63b8ff" d="M2897.6,-156.49C3244.7,-153.68 4832.05,-139.11 4871,-107 4893.47,-88.48 4894.23,-51.01 4892.7,-30.4"/>
<polygon fill="#63b8ff" stroke="#63b8ff" points="2897.74,-152.99 2887.77,-156.57 2897.8,-159.99 2897.74,-152.99"/>
</g>
<!-- Node21 -->
<g id="node12" class="node">
<title>Node21</title>
<g id="a_node12"><a xlink:href="d__kantera__icon__meter_8h.html" target="_top" xlink:title=" ">
<polygon fill="#fff0f0" stroke="red" points="4672.5,-101.5 4571.5,-101.5 4571.5,-71.5 4672.5,-71.5 4672.5,-101.5"/>
<text text-anchor="start" x="4579.5" y="-89.5" font-family="Helvetica,sans-Serif" font-size="10.00">include/d/d_kantera</text>
<text text-anchor="middle" x="4622" y="-78.5" font-family="Helvetica,sans-Serif" font-size="10.00">_icon_meter.h</text>
</a>
</g>
</g>
<!-- Node3&#45;&gt;Node21 -->
<g id="edge11" class="edge">
<title>Node3&#45;&gt;Node21</title>
<path fill="none" stroke="#63b8ff" d="M2897.56,-157.4C3173.54,-158.7 4228.78,-160.04 4557,-107 4564.44,-105.8 4572.23,-103.98 4579.72,-101.92"/>
<polygon fill="#63b8ff" stroke="#63b8ff" points="2897.68,-153.9 2887.67,-157.35 2897.65,-160.9 2897.68,-153.9"/>
</g>
<!-- Node24 -->
<g id="node13" class="node">
<title>Node24</title>
<g id="a_node13"><a xlink:href="d__model_8h.html" target="_top" xlink:title=" ">
<polygon fill="#fff0f0" stroke="red" points="267.5,-96 164.5,-96 164.5,-77 267.5,-77 267.5,-96"/>
<text text-anchor="middle" x="216" y="-84" font-family="Helvetica,sans-Serif" font-size="10.00">include/d/d_model.h</text>
</a>
</g>
</g>
<!-- Node3&#45;&gt;Node24 -->
<g id="edge12" class="edge">
<title>Node3&#45;&gt;Node24</title>
<path fill="none" stroke="#63b8ff" d="M2764.43,-156.87C2387.34,-155.96 527.42,-149.36 276,-107 263.15,-104.83 249.28,-100.47 238.12,-96.42"/>
<polygon fill="#63b8ff" stroke="#63b8ff" points="2764.15,-160.37 2774.15,-156.89 2764.16,-153.37 2764.15,-160.37"/>
</g>
<!-- Node26 -->
<g id="node14" class="node">
<title>Node26</title>
<g id="a_node14"><a xlink:href="d__name_8h.html" target="_top" xlink:title=" ">
<polygon fill="#fff0f0" stroke="red" points="386.5,-96 285.5,-96 285.5,-77 386.5,-77 386.5,-96"/>
<text text-anchor="middle" x="336" y="-84" font-family="Helvetica,sans-Serif" font-size="10.00">include/d/d_name.h</text>
</a>
</g>
</g>
<!-- Node3&#45;&gt;Node26 -->
<g id="edge13" class="edge">
<title>Node3&#45;&gt;Node26</title>
<path fill="none" stroke="#63b8ff" d="M2764.08,-156.8C2396.91,-155.53 634.83,-147.35 396,-107 383.15,-104.83 369.28,-100.46 358.12,-96.41"/>
<polygon fill="#63b8ff" stroke="#63b8ff" points="2764.02,-160.3 2774.03,-156.83 2764.04,-153.3 2764.02,-160.3"/>
</g>
<!-- Node28 -->
<g id="node15" class="node">
<title>Node28</title>
<g id="a_node15"><a xlink:href="d__file__sel__info_8h.html" target="_top" xlink:title=" ">
<polygon fill="#fff0f0" stroke="red" points="501,-101.5 405,-101.5 405,-71.5 501,-71.5 501,-101.5"/>
<text text-anchor="start" x="413" y="-89.5" font-family="Helvetica,sans-Serif" font-size="10.00">include/d/file/d_file</text>
<text text-anchor="middle" x="453" y="-78.5" font-family="Helvetica,sans-Serif" font-size="10.00">_sel_info.h</text>
</a>
</g>
</g>
<!-- Node3&#45;&gt;Node28 -->
<g id="edge14" class="edge">
<title>Node3&#45;&gt;Node28</title>
<path fill="none" stroke="#63b8ff" d="M2764.37,-156.79C2408.19,-155.48 736.72,-147.22 510,-107 503.41,-105.83 496.55,-104.03 489.97,-101.98"/>
<polygon fill="#63b8ff" stroke="#63b8ff" points="2764.22,-160.29 2774.23,-156.82 2764.24,-153.29 2764.22,-160.29"/>
</g>
<!-- Node31 -->
<g id="node16" class="node">
<title>Node31</title>
<g id="a_node16"><a xlink:href="d__file__sel__warning_8h.html" target="_top" xlink:title=" ">
<polygon fill="#fff0f0" stroke="red" points="615,-101.5 519,-101.5 519,-71.5 615,-71.5 615,-101.5"/>
<text text-anchor="start" x="527" y="-89.5" font-family="Helvetica,sans-Serif" font-size="10.00">include/d/file/d_file</text>
<text text-anchor="middle" x="567" y="-78.5" font-family="Helvetica,sans-Serif" font-size="10.00">_sel_warning.h</text>
</a>
</g>
</g>
<!-- Node3&#45;&gt;Node31 -->
<g id="edge15" class="edge">
<title>Node3&#45;&gt;Node31</title>
<path fill="none" stroke="#63b8ff" d="M2764.49,-156.61C2419.76,-154.41 843.85,-142.49 629,-107 621.87,-105.82 614.44,-104.02 607.29,-101.97"/>
<polygon fill="#63b8ff" stroke="#63b8ff" points="2764.22,-160.1 2774.25,-156.67 2764.27,-153.1 2764.22,-160.1"/>
</g>
<!-- Node33 -->
<g id="node17" class="node">
<title>Node33</title>
<g id="a_node17"><a xlink:href="d__meter2_8h.html" target="_top" xlink:title=" ">
<polygon fill="#fff0f0" stroke="red" points="5187,-96 5053,-96 5053,-77 5187,-77 5187,-96"/>
<text text-anchor="middle" x="5120" y="-84" font-family="Helvetica,sans-Serif" font-size="10.00">include/d/meter/d_meter2.h</text>
</a>
</g>
</g>
<!-- Node3&#45;&gt;Node33 -->
<g id="edge16" class="edge">
<title>Node3&#45;&gt;Node33</title>
<path fill="none" stroke="#63b8ff" d="M2897.81,-156.4C3244.1,-153.17 4827.2,-136.86 5044,-107 5059.92,-104.81 5077.31,-100.49 5091.44,-96.48"/>
<polygon fill="#63b8ff" stroke="#63b8ff" points="2897.97,-152.9 2888,-156.49 2898.04,-159.9 2897.97,-152.9"/>
</g>
<!-- Node35 -->
<g id="node18" class="node">
<title>Node35</title>
<g id="a_node18"><a xlink:href="d__msg__object_8h.html" target="_top" xlink:title=" ">
<polygon fill="#fff0f0" stroke="red" points="819,-101.5 709,-101.5 709,-71.5 819,-71.5 819,-101.5"/>
<text text-anchor="start" x="717" y="-89.5" font-family="Helvetica,sans-Serif" font-size="10.00">include/d/msg/d_msg</text>
<text text-anchor="middle" x="764" y="-78.5" font-family="Helvetica,sans-Serif" font-size="10.00">_object.h</text>
</a>
</g>
</g>
<!-- Node3&#45;&gt;Node35 -->
<g id="edge18" class="edge">
<title>Node3&#45;&gt;Node35</title>
<path fill="none" stroke="#63b8ff" d="M2764.82,-156.41C2440.03,-153.38 1022.39,-138.44 828,-107 820.66,-105.81 812.99,-104 805.62,-101.95"/>
<polygon fill="#63b8ff" stroke="#63b8ff" points="2764.37,-159.91 2774.4,-156.5 2764.43,-152.91 2764.37,-159.91"/>
</g>
<!-- Node40 -->
<g id="node19" class="node">
<title>Node40</title>
<g id="a_node19"><a xlink:href="d__demo_8cpp.html" target="_top" xlink:title=" ">
<polygon fill="white" stroke="#666666" points="769,-24.5 675,-24.5 675,-5.5 769,-5.5 769,-24.5"/>
<text text-anchor="middle" x="722" y="-12.5" font-family="Helvetica,sans-Serif" font-size="10.00">src/d/d_demo.cpp</text>
</a>
</g>
</g>
<!-- Node3&#45;&gt;Node40 -->
<g id="edge49" class="edge">
<title>Node3&#45;&gt;Node40</title>
<path fill="none" stroke="#63b8ff" d="M2764.19,-156.7C2406.95,-154.96 736.94,-144.82 700,-107 677.74,-84.21 702.46,-42.98 715.27,-24.9"/>
<polygon fill="#63b8ff" stroke="#63b8ff" points="2764.08,-160.2 2774.09,-156.75 2764.11,-153.2 2764.08,-160.2"/>
</g>
<!-- Node44 -->
<g id="node20" class="node">
<title>Node44</title>
<g id="a_node20"><a xlink:href="d__menu__window_8cpp.html" target="_top" xlink:title=" ">
<polygon fill="white" stroke="#666666" points="656.5,-24.5 497.5,-24.5 497.5,-5.5 656.5,-5.5 656.5,-24.5"/>
<text text-anchor="middle" x="577" y="-12.5" font-family="Helvetica,sans-Serif" font-size="10.00">src/d/menu/d_menu_window.cpp</text>
</a>
</g>
</g>
<!-- Node3&#45;&gt;Node44 -->
<g id="edge57" class="edge">
<title>Node3&#45;&gt;Node44</title>
<path fill="none" stroke="#63b8ff" d="M2764,-156.66C2411.87,-154.74 787.52,-143.89 688,-107 664.28,-98.21 608.38,-46.14 586.25,-24.96"/>
<polygon fill="#63b8ff" stroke="#63b8ff" points="2763.97,-160.16 2773.99,-156.72 2764.01,-153.16 2763.97,-160.16"/>
</g>
<!-- Node45 -->
<g id="node21" class="node">
<title>Node45</title>
<g id="a_node21"><a xlink:href="d__meter__map_8cpp.html" target="_top" xlink:title=" ">
<polygon fill="white" stroke="#666666" points="891,-30 787,-30 787,0 891,0 891,-30"/>
<text text-anchor="start" x="795" y="-18" font-family="Helvetica,sans-Serif" font-size="10.00">src/d/meter/d_meter</text>
<text text-anchor="middle" x="839" y="-7" font-family="Helvetica,sans-Serif" font-size="10.00">_map.cpp</text>
</a>
</g>
</g>
<!-- Node3&#45;&gt;Node45 -->
<g id="edge59" class="edge">
<title>Node3&#45;&gt;Node45</title>
<path fill="none" stroke="#63b8ff" d="M2764.3,-157.41C2514.07,-158.57 1639.72,-158.81 1527,-107 1504.43,-96.62 1511.37,-76.81 1489,-66 1435.75,-40.27 1036.21,-23.23 891.3,-17.84"/>
<polygon fill="#63b8ff" stroke="#63b8ff" points="2764.24,-160.91 2774.22,-157.37 2764.21,-153.92 2764.24,-160.91"/>
</g>
<!-- Node51 -->
<g id="node22" class="node">
<title>Node51</title>
<g id="a_node22"><a xlink:href="d__s__logo_8h.html" target="_top" xlink:title=" ">
<polygon fill="#fff0f0" stroke="red" points="950.5,-96 837.5,-96 837.5,-77 950.5,-77 950.5,-96"/>
<text text-anchor="middle" x="894" y="-84" font-family="Helvetica,sans-Serif" font-size="10.00">include/d/s/d_s_logo.h</text>
</a>
</g>
</g>
<!-- Node3&#45;&gt;Node51 -->
<g id="edge24" class="edge">
<title>Node3&#45;&gt;Node51</title>
<path fill="none" stroke="#63b8ff" d="M2764.66,-156.27C2452.77,-152.69 1139.84,-136.01 959,-107 945.27,-104.8 930.39,-100.48 918.33,-96.47"/>
<polygon fill="#63b8ff" stroke="#63b8ff" points="2764.21,-159.76 2774.25,-156.38 2764.29,-152.76 2764.21,-159.76"/>
</g>
<!-- Node53 -->
<g id="node23" class="node">
<title>Node53</title>
<g id="a_node23"><a xlink:href="d__s__play_8h.html" target="_top" xlink:title=" ">
<polygon fill="#fff0f0" stroke="red" points="1081.5,-96 968.5,-96 968.5,-77 1081.5,-77 1081.5,-96"/>
<text text-anchor="middle" x="1025" y="-84" font-family="Helvetica,sans-Serif" font-size="10.00">include/d/s/d_s_play.h</text>
</a>
</g>
</g>
<!-- Node3&#45;&gt;Node53 -->
<g id="edge25" class="edge">
<title>Node3&#45;&gt;Node53</title>
<path fill="none" stroke="#63b8ff" d="M2764.33,-157.42C2486.67,-158.81 1421.26,-160.49 1090,-107 1076.28,-104.78 1061.39,-100.47 1049.34,-96.46"/>
<polygon fill="#63b8ff" stroke="#63b8ff" points="2764.3,-160.92 2774.29,-157.37 2764.27,-153.92 2764.3,-160.92"/>
</g>
<!-- Node57 -->
<g id="node24" class="node">
<title>Node57</title>
<g id="a_node24"><a xlink:href="d__msg__scrn__base_8h.html" target="_top" xlink:title=" ">
<polygon fill="#fff0f0" stroke="red" points="1198.5,-101.5 1099.5,-101.5 1099.5,-71.5 1198.5,-71.5 1198.5,-101.5"/>
<text text-anchor="start" x="1107.5" y="-89.5" font-family="Helvetica,sans-Serif" font-size="10.00">include/msg/scrn/d</text>
<text text-anchor="middle" x="1149" y="-78.5" font-family="Helvetica,sans-Serif" font-size="10.00">_msg_scrn_base.h</text>
</a>
</g>
</g>
<!-- Node3&#45;&gt;Node57 -->
<g id="edge26" class="edge">
<title>Node3&#45;&gt;Node57</title>
<path fill="none" stroke="#63b8ff" d="M2764.37,-156.1C2478.3,-152.09 1361.72,-134.76 1207,-107 1200.31,-105.8 1193.34,-103.98 1186.64,-101.93"/>
<polygon fill="#63b8ff" stroke="#63b8ff" points="2764.22,-159.6 2774.27,-156.24 2764.32,-152.6 2764.22,-159.6"/>
</g>
<!-- Node61 -->
<g id="node25" class="node">
<title>Node61</title>
<g id="a_node25"><a xlink:href="d__a__b__zant_8h.html" target="_top" xlink:title=" ">
<polygon fill="white" stroke="#666666" points="1337.5,-101.5 1216.5,-101.5 1216.5,-71.5 1337.5,-71.5 1337.5,-101.5"/>
<text text-anchor="start" x="1224.5" y="-89.5" font-family="Helvetica,sans-Serif" font-size="10.00">include/rel/d/a/b/d</text>
<text text-anchor="middle" x="1277" y="-78.5" font-family="Helvetica,sans-Serif" font-size="10.00">_a_b_zant/d_a_b_zant.h</text>
</a>
</g>
</g>
<!-- Node3&#45;&gt;Node61 -->
<g id="edge27" class="edge">
<title>Node3&#45;&gt;Node61</title>
<path fill="none" stroke="#63b8ff" d="M2764.1,-156.86C2512.87,-156 1625.86,-149.91 1347,-107 1339.14,-105.79 1330.92,-104 1322.97,-101.98"/>
<polygon fill="#63b8ff" stroke="#63b8ff" points="2764.06,-160.36 2774.07,-156.89 2764.08,-153.36 2764.06,-160.36"/>
</g>
<!-- Node62 -->
<g id="node26" class="node">
<title>Node62</title>
<g id="a_node26"><a xlink:href="d__a__skip__2D_8h.html" target="_top" xlink:title=" ">
<polygon fill="white" stroke="#666666" points="1480,-101.5 1356,-101.5 1356,-71.5 1480,-71.5 1480,-101.5"/>
<text text-anchor="start" x="1364" y="-89.5" font-family="Helvetica,sans-Serif" font-size="10.00">include/rel/d/a/d_a</text>
<text text-anchor="middle" x="1418" y="-78.5" font-family="Helvetica,sans-Serif" font-size="10.00">_skip_2D/d_a_skip_2D.h</text>
</a>
</g>
</g>
<!-- Node3&#45;&gt;Node62 -->
<g id="edge28" class="edge">
<title>Node3&#45;&gt;Node62</title>
<path fill="none" stroke="#63b8ff" d="M2764.21,-156.39C2529.49,-153.95 1743.22,-143.21 1494,-107 1485.51,-105.77 1476.59,-103.96 1467.98,-101.93"/>
<polygon fill="#63b8ff" stroke="#63b8ff" points="2764.07,-159.89 2774.11,-156.49 2764.14,-152.89 2764.07,-159.89"/>
</g>
<!-- Node63 -->
<g id="node27" class="node">
<title>Node63</title>
<g id="a_node27"><a xlink:href="d__a__spinner_8h.html" target="_top" xlink:title=" ">
<polygon fill="white" stroke="#666666" points="4515,-101.5 4399,-101.5 4399,-71.5 4515,-71.5 4515,-101.5"/>
<text text-anchor="start" x="4407" y="-89.5" font-family="Helvetica,sans-Serif" font-size="10.00">include/rel/d/a/d_a</text>
<text text-anchor="middle" x="4457" y="-78.5" font-family="Helvetica,sans-Serif" font-size="10.00">_spinner/d_a_spinner.h</text>
</a>
</g>
</g>
<!-- Node3&#45;&gt;Node63 -->
<g id="edge29" class="edge">
<title>Node3&#45;&gt;Node63</title>
<path fill="none" stroke="#63b8ff" d="M2897.58,-156.91C3155.84,-156.26 4091.51,-150.85 4385,-107 4393.07,-105.79 4401.53,-104 4409.69,-101.98"/>
<polygon fill="#63b8ff" stroke="#63b8ff" points="2897.67,-153.41 2887.67,-156.94 2897.68,-160.41 2897.67,-153.41"/>
</g>
<!-- Node64 -->
<g id="node28" class="node">
<title>Node64</title>
<g id="a_node28"><a xlink:href="d__a__player_8cpp.html" target="_top" xlink:title=" ">
<polygon fill="white" stroke="#666666" points="4361,-24.5 4247,-24.5 4247,-5.5 4361,-5.5 4361,-24.5"/>
<text text-anchor="middle" x="4304" y="-12.5" font-family="Helvetica,sans-Serif" font-size="10.00">src/d/a/d_a_player.cpp</text>
</a>
</g>
</g>
<!-- Node3&#45;&gt;Node64 -->
<g id="edge39" class="edge">
<title>Node3&#45;&gt;Node64</title>
<path fill="none" stroke="#63b8ff" d="M2897.62,-157.45C3152.6,-158.78 4058.14,-159.72 4175,-107 4197.92,-96.66 4194.11,-81.39 4214,-66 4236.19,-48.82 4265.01,-33.91 4283.99,-24.94"/>
<polygon fill="#63b8ff" stroke="#63b8ff" points="2897.86,-153.95 2887.84,-157.4 2897.82,-160.95 2897.86,-153.95"/>
</g>
<!-- Node65 -->
<g id="node29" class="node">
<title>Node65</title>
<g id="a_node29"><a xlink:href="d__a__obj__yobikusa_8h.html" target="_top" xlink:title=" ">
<polygon fill="white" stroke="#666666" points="1641.5,-107 1536.5,-107 1536.5,-66 1641.5,-66 1641.5,-107"/>
<text text-anchor="start" x="1544.5" y="-95" font-family="Helvetica,sans-Serif" font-size="10.00">include/rel/d/a/obj</text>
<text text-anchor="start" x="1544.5" y="-84" font-family="Helvetica,sans-Serif" font-size="10.00">/d_a_obj_yobikusa/d</text>
<text text-anchor="middle" x="1589" y="-73" font-family="Helvetica,sans-Serif" font-size="10.00">_a_obj_yobikusa.h</text>
</a>
</g>
</g>
<!-- Node3&#45;&gt;Node65 -->
<g id="edge32" class="edge">
<title>Node3&#45;&gt;Node65</title>
<path fill="none" stroke="#63b8ff" d="M2764.15,-156.47C2547.65,-154.39 1867.29,-144.91 1651,-107 1648,-106.47 1644.94,-105.84 1641.87,-105.13"/>
<polygon fill="#63b8ff" stroke="#63b8ff" points="2764.07,-159.97 2774.11,-156.56 2764.14,-152.97 2764.07,-159.97"/>
</g>
<!-- Node66 -->
<g id="node30" class="node">
<title>Node66</title>
<g id="a_node30"><a xlink:href="d__a__tag__telop_8h.html" target="_top" xlink:title=" ">
<polygon fill="white" stroke="#666666" points="1778,-107 1660,-107 1660,-66 1778,-66 1778,-107"/>
<text text-anchor="start" x="1668" y="-95" font-family="Helvetica,sans-Serif" font-size="10.00">include/rel/d/a/tag</text>
<text text-anchor="start" x="1668" y="-84" font-family="Helvetica,sans-Serif" font-size="10.00">/d_a_tag_telop/d_a_tag</text>
<text text-anchor="middle" x="1719" y="-73" font-family="Helvetica,sans-Serif" font-size="10.00">_telop.h</text>
</a>
</g>
</g>
<!-- Node3&#45;&gt;Node66 -->
<g id="edge33" class="edge">
<title>Node3&#45;&gt;Node66</title>
<path fill="none" stroke="#63b8ff" d="M2764.25,-155.82C2564.93,-151.98 1976.25,-138.23 1787,-107 1784.09,-106.52 1781.13,-105.96 1778.15,-105.34"/>
<polygon fill="#63b8ff" stroke="#63b8ff" points="2764.11,-159.32 2774.18,-156.01 2764.24,-152.32 2764.11,-159.32"/>
</g>
<!-- Node67 -->
<g id="node31" class="node">
<title>Node67</title>
<g id="a_node31"><a xlink:href="c__dylink_8cpp.html" target="_top" xlink:title=" ">
<polygon fill="white" stroke="#666666" points="1891.5,-96 1796.5,-96 1796.5,-77 1891.5,-77 1891.5,-96"/>
<text text-anchor="middle" x="1844" y="-84" font-family="Helvetica,sans-Serif" font-size="10.00">src/c/c_dylink.cpp</text>
</a>
</g>
</g>
<!-- Node3&#45;&gt;Node67 -->
<g id="edge34" class="edge">
<title>Node3&#45;&gt;Node67</title>
<path fill="none" stroke="#63b8ff" d="M2764.32,-155.8C2580.05,-152.1 2066.6,-139.13 1901,-107 1888.99,-104.67 1876.05,-100.4 1865.54,-96.44"/>
<polygon fill="#63b8ff" stroke="#63b8ff" points="2764.13,-159.3 2774.2,-155.99 2764.27,-152.3 2764.13,-159.3"/>
</g>
<!-- Node68 -->
<g id="node32" class="node">
<title>Node68</title>
<g id="a_node32"><a xlink:href="d__a__itembase_8cpp.html" target="_top" xlink:title=" ">
<polygon fill="white" stroke="#666666" points="2038,-96 1910,-96 1910,-77 2038,-77 2038,-96"/>
<text text-anchor="middle" x="1974" y="-84" font-family="Helvetica,sans-Serif" font-size="10.00">src/d/a/d_a_itembase.cpp</text>
</a>
</g>
</g>
<!-- Node3&#45;&gt;Node68 -->
<g id="edge36" class="edge">
<title>Node3&#45;&gt;Node68</title>
<path fill="none" stroke="#63b8ff" d="M2764.53,-157.16C2628.76,-156.54 2310.2,-150.11 2047,-107 2031.98,-104.54 2015.59,-100.31 2002.14,-96.41"/>
<polygon fill="#63b8ff" stroke="#63b8ff" points="2764.4,-160.66 2774.41,-157.2 2764.43,-153.66 2764.4,-160.66"/>
</g>
<!-- Node69 -->
<g id="node33" class="node">
<title>Node69</title>
<g id="a_node33"><a xlink:href="d__a__obj_8cpp.html" target="_top" xlink:title=" ">
<polygon fill="white" stroke="#666666" points="2157.5,-96 2056.5,-96 2056.5,-77 2157.5,-77 2157.5,-96"/>
<text text-anchor="middle" x="2107" y="-84" font-family="Helvetica,sans-Serif" font-size="10.00">src/d/a/d_a_obj.cpp</text>
</a>
</g>
</g>
<!-- Node3&#45;&gt;Node69 -->
<g id="edge37" class="edge">
<title>Node3&#45;&gt;Node69</title>
<path fill="none" stroke="#63b8ff" d="M2764.55,-157.22C2644.2,-156.46 2382.63,-149.52 2167,-107 2154.53,-104.54 2141.05,-100.31 2130.02,-96.41"/>
<polygon fill="#63b8ff" stroke="#63b8ff" points="2764.22,-160.72 2774.23,-157.27 2764.25,-153.72 2764.22,-160.72"/>
</g>
<!-- Node70 -->
<g id="node34" class="node">
<title>Node70</title>
<g id="a_node34"><a xlink:href="d__bg__s_8cpp.html" target="_top" xlink:title=" ">
<polygon fill="white" stroke="#666666" points="2280,-96 2176,-96 2176,-77 2280,-77 2280,-96"/>
<text text-anchor="middle" x="2228" y="-84" font-family="Helvetica,sans-Serif" font-size="10.00">src/d/bg/d_bg_s.cpp</text>
</a>
</g>
</g>
<!-- Node3&#45;&gt;Node70 -->
<g id="edge40" class="edge">
<title>Node3&#45;&gt;Node70</title>
<path fill="none" stroke="#63b8ff" d="M2764.36,-155.5C2661.42,-152.15 2457.97,-141.37 2289,-107 2276.47,-104.45 2262.89,-100.26 2251.73,-96.41"/>
<polygon fill="#63b8ff" stroke="#63b8ff" points="2764.19,-159 2774.29,-155.81 2764.4,-152 2764.19,-159"/>
</g>
<!-- Node71 -->
<g id="node35" class="node">
<title>Node71</title>
<g id="a_node35"><a xlink:href="d__bg__s__movebg__actor_8cpp.html" target="_top" xlink:title=" ">
<polygon fill="white" stroke="#666666" points="2424,-101.5 2298,-101.5 2298,-71.5 2424,-71.5 2424,-101.5"/>
<text text-anchor="start" x="2306" y="-89.5" font-family="Helvetica,sans-Serif" font-size="10.00">src/d/bg/d_bg_s_movebg</text>
<text text-anchor="middle" x="2361" y="-78.5" font-family="Helvetica,sans-Serif" font-size="10.00">_actor.cpp</text>
</a>
</g>
</g>
<!-- Node3&#45;&gt;Node71 -->
<g id="edge41" class="edge">
<title>Node3&#45;&gt;Node71</title>
<path fill="none" stroke="#63b8ff" d="M2764.27,-151.48C2684.84,-144.26 2548.43,-129.77 2433,-107 2425.76,-105.57 2418.17,-103.81 2410.75,-101.94"/>
<polygon fill="#63b8ff" stroke="#63b8ff" points="2763.78,-154.95 2774.06,-152.36 2764.41,-147.98 2763.78,-154.95"/>
</g>
<!-- Node72 -->
<g id="node36" class="node">
<title>Node72</title>
<g id="a_node36"><a xlink:href="d__bg__w_8cpp.html" target="_top" xlink:title=" ">
<polygon fill="white" stroke="#666666" points="2549.5,-96 2442.5,-96 2442.5,-77 2549.5,-77 2549.5,-96"/>
<text text-anchor="middle" x="2496" y="-84" font-family="Helvetica,sans-Serif" font-size="10.00">src/d/bg/d_bg_w.cpp</text>
</a>
</g>
</g>
<!-- Node3&#45;&gt;Node72 -->
<g id="edge42" class="edge">
<title>Node3&#45;&gt;Node72</title>
<path fill="none" stroke="#63b8ff" d="M2764.56,-147.04C2709.2,-138.21 2628.47,-124.07 2559,-107 2546.88,-104.02 2533.66,-100.04 2522.47,-96.46"/>
<polygon fill="#63b8ff" stroke="#63b8ff" points="2763.71,-150.45 2774.14,-148.56 2764.81,-143.54 2763.71,-150.45"/>
</g>
<!-- Node73 -->
<g id="node37" class="node">
<title>Node73</title>
<g id="a_node37"><a xlink:href="d__cc__s_8cpp.html" target="_top" xlink:title=" ">
<polygon fill="white" stroke="#666666" points="2672,-96 2568,-96 2568,-77 2672,-77 2672,-96"/>
<text text-anchor="middle" x="2620" y="-84" font-family="Helvetica,sans-Serif" font-size="10.00">src/d/cc/d_cc_s.cpp</text>
</a>
</g>
</g>
<!-- Node3&#45;&gt;Node73 -->
<g id="edge43" class="edge">
<title>Node3&#45;&gt;Node73</title>
<path fill="none" stroke="#63b8ff" d="M2776.27,-138.97C2734.83,-125.32 2679.68,-107.16 2647.19,-96.46"/>
<polygon fill="#63b8ff" stroke="#63b8ff" points="2774.99,-142.24 2785.59,-142.04 2777.18,-135.59 2774.99,-142.24"/>
</g>
<!-- Node74 -->
<g id="node38" class="node">
<title>Node74</title>
<g id="a_node38"><a xlink:href="d__com__static_8cpp.html" target="_top" xlink:title=" ">
<polygon fill="white" stroke="#666666" points="2830,-96 2690,-96 2690,-77 2830,-77 2830,-96"/>
<text text-anchor="middle" x="2760" y="-84" font-family="Helvetica,sans-Serif" font-size="10.00">src/d/com/d_com_static.cpp</text>
</a>
</g>
</g>
<!-- Node3&#45;&gt;Node74 -->
<g id="edge45" class="edge">
<title>Node3&#45;&gt;Node74</title>
<path fill="none" stroke="#63b8ff" d="M2808.38,-134.86C2794.97,-121.73 2778.71,-105.81 2768.87,-96.18"/>
<polygon fill="#63b8ff" stroke="#63b8ff" points="2805.61,-137.05 2815.21,-141.54 2810.51,-132.04 2805.61,-137.05"/>
</g>
<!-- Node75 -->
<g id="node39" class="node">
<title>Node75</title>
<g id="a_node39"><a xlink:href="d__attention_8cpp.html" target="_top" xlink:title=" ">
<polygon fill="white" stroke="#666666" points="2955.5,-96 2848.5,-96 2848.5,-77 2955.5,-77 2955.5,-96"/>
<text text-anchor="middle" x="2902" y="-84" font-family="Helvetica,sans-Serif" font-size="10.00">src/d/d_attention.cpp</text>
</a>
</g>
</g>
<!-- Node3&#45;&gt;Node75 -->
<g id="edge46" class="edge">
<title>Node3&#45;&gt;Node75</title>
<path fill="none" stroke="#63b8ff" d="M2853.62,-134.86C2867.03,-121.73 2883.29,-105.81 2893.13,-96.18"/>
<polygon fill="#63b8ff" stroke="#63b8ff" points="2851.49,-132.04 2846.79,-141.54 2856.39,-137.05 2851.49,-132.04"/>
</g>
<!-- Node76 -->
<g id="node40" class="node">
<title>Node76</title>
<g id="a_node40"><a xlink:href="d__cam__param_8cpp.html" target="_top" xlink:title=" ">
<polygon fill="white" stroke="#666666" points="3094.5,-96 2973.5,-96 2973.5,-77 3094.5,-77 3094.5,-96"/>
<text text-anchor="middle" x="3034" y="-84" font-family="Helvetica,sans-Serif" font-size="10.00">src/d/d_cam_param.cpp</text>
</a>
</g>
</g>
<!-- Node3&#45;&gt;Node76 -->
<g id="edge47" class="edge">
<title>Node3&#45;&gt;Node76</title>
<path fill="none" stroke="#63b8ff" d="M2883.91,-138.88C2923.72,-125.26 2976.58,-107.16 3007.77,-96.48"/>
<polygon fill="#63b8ff" stroke="#63b8ff" points="2882.82,-135.56 2874.49,-142.11 2885.09,-142.18 2882.82,-135.56"/>
</g>
<!-- Node77 -->
<g id="node41" class="node">
<title>Node77</title>
<g id="a_node41"><a xlink:href="d__camera_8cpp.html" target="_top" xlink:title=" ">
<polygon fill="white" stroke="#666666" points="3215,-96 3113,-96 3113,-77 3215,-77 3215,-96"/>
<text text-anchor="middle" x="3164" y="-84" font-family="Helvetica,sans-Serif" font-size="10.00">src/d/d_camera.cpp</text>
</a>
</g>
</g>
<!-- Node3&#45;&gt;Node77 -->
<g id="edge48" class="edge">
<title>Node3&#45;&gt;Node77</title>
<path fill="none" stroke="#63b8ff" d="M2897.48,-147.21C2952.86,-138.48 3033.61,-124.39 3103,-107 3114.76,-104.05 3127.56,-100.08 3138.39,-96.49"/>
<polygon fill="#63b8ff" stroke="#63b8ff" points="2897.24,-143.71 2887.9,-148.71 2898.32,-150.62 2897.24,-143.71"/>
</g>
<!-- Node78 -->
<g id="node42" class="node">
<title>Node78</title>
<g id="a_node42"><a xlink:href="d__eye__hl_8cpp.html" target="_top" xlink:title=" ">
<polygon fill="white" stroke="#666666" points="3331,-96 3233,-96 3233,-77 3331,-77 3331,-96"/>
<text text-anchor="middle" x="3282" y="-84" font-family="Helvetica,sans-Serif" font-size="10.00">src/d/d_eye_hl.cpp</text>
</a>
</g>
</g>
<!-- Node3&#45;&gt;Node78 -->
<g id="edge50" class="edge">
<title>Node3&#45;&gt;Node78</title>
<path fill="none" stroke="#63b8ff" d="M2897.48,-152.57C2976.2,-146.4 3110.9,-132.94 3224,-107 3235.7,-104.32 3248.37,-100.2 3258.88,-96.44"/>
<polygon fill="#63b8ff" stroke="#63b8ff" points="2897.49,-149.06 2887.79,-153.31 2898.03,-156.04 2897.49,-149.06"/>
</g>
<!-- Node79 -->
<g id="node43" class="node">
<title>Node79</title>
<g id="a_node43"><a xlink:href="d__kyeff_8cpp.html" target="_top" xlink:title=" ">
<polygon fill="white" stroke="#666666" points="3439,-96 3349,-96 3349,-77 3439,-77 3439,-96"/>
<text text-anchor="middle" x="3394" y="-84" font-family="Helvetica,sans-Serif" font-size="10.00">src/d/d_kyeff.cpp</text>
</a>
</g>
</g>
<!-- Node3&#45;&gt;Node79 -->
<g id="edge51" class="edge">
<title>Node3&#45;&gt;Node79</title>
<path fill="none" stroke="#63b8ff" d="M2897.83,-155.71C2995.93,-152.63 3184.16,-142.21 3340,-107 3351.18,-104.47 3363.21,-100.28 3373.08,-96.43"/>
<polygon fill="#63b8ff" stroke="#63b8ff" points="2897.73,-152.21 2887.84,-156 2897.94,-159.21 2897.73,-152.21"/>
</g>
<!-- Node80 -->
<g id="node44" class="node">
<title>Node80</title>
<g id="a_node44"><a xlink:href="d__path_8cpp.html" target="_top" xlink:title=" ">
<polygon fill="white" stroke="#666666" points="3546.5,-96 3457.5,-96 3457.5,-77 3546.5,-77 3546.5,-96"/>
<text text-anchor="middle" x="3502" y="-84" font-family="Helvetica,sans-Serif" font-size="10.00">src/d/d_path.cpp</text>
</a>
</g>
</g>
<!-- Node3&#45;&gt;Node80 -->
<g id="edge52" class="edge">
<title>Node3&#45;&gt;Node80</title>
<path fill="none" stroke="#63b8ff" d="M2897.48,-157.36C3011.48,-156.7 3251.02,-149.75 3448,-107 3459.3,-104.55 3471.45,-100.31 3481.35,-96.42"/>
<polygon fill="#63b8ff" stroke="#63b8ff" points="2897.69,-153.85 2887.7,-157.4 2897.72,-160.85 2897.69,-153.85"/>
</g>
<!-- Node81 -->
<g id="node45" class="node">
<title>Node81</title>
<g id="a_node45"><a xlink:href="d__resorce_8cpp.html" target="_top" xlink:title=" ">
<polygon fill="white" stroke="#666666" points="3667,-96 3565,-96 3565,-77 3667,-77 3667,-96"/>
<text text-anchor="middle" x="3616" y="-84" font-family="Helvetica,sans-Serif" font-size="10.00">src/d/d_resorce.cpp</text>
</a>
</g>
</g>
<!-- Node3&#45;&gt;Node81 -->
<g id="edge53" class="edge">
<title>Node3&#45;&gt;Node81</title>
<path fill="none" stroke="#63b8ff" d="M2897.23,-157.71C3025.44,-157.93 3315.96,-152.77 3555,-107 3567.67,-104.57 3581.38,-100.34 3592.59,-96.44"/>
<polygon fill="#63b8ff" stroke="#63b8ff" points="2897.59,-154.21 2887.58,-157.68 2897.57,-161.21 2897.59,-154.21"/>
</g>
<!-- Node82 -->
<g id="node46" class="node">
<title>Node82</title>
<g id="a_node46"><a xlink:href="d__simple__model_8cpp.html" target="_top" xlink:title=" ">
<polygon fill="white" stroke="#666666" points="3815,-96 3685,-96 3685,-77 3815,-77 3815,-96"/>
<text text-anchor="middle" x="3750" y="-84" font-family="Helvetica,sans-Serif" font-size="10.00">src/d/d_simple_model.cpp</text>
</a>
</g>
</g>
<!-- Node3&#45;&gt;Node82 -->
<g id="edge54" class="edge">
<title>Node3&#45;&gt;Node82</title>
<path fill="none" stroke="#63b8ff" d="M2897.46,-157.53C3040.7,-157.7 3388.82,-152.87 3676,-107 3691.22,-104.57 3707.84,-100.34 3721.47,-96.44"/>
<polygon fill="#63b8ff" stroke="#63b8ff" points="2897.8,-154.03 2887.79,-157.51 2897.78,-161.03 2897.8,-154.03"/>
</g>
<!-- Node83 -->
<g id="node47" class="node">
<title>Node83</title>
<g id="a_node47"><a xlink:href="d__stage_8cpp.html" target="_top" xlink:title=" ">
<polygon fill="white" stroke="#666666" points="3927,-96 3833,-96 3833,-77 3927,-77 3927,-96"/>
<text text-anchor="middle" x="3880" y="-84" font-family="Helvetica,sans-Serif" font-size="10.00">src/d/d_stage.cpp</text>
</a>
</g>
</g>
<!-- Node3&#45;&gt;Node83 -->
<g id="edge55" class="edge">
<title>Node3&#45;&gt;Node83</title>
<path fill="none" stroke="#63b8ff" d="M2897.53,-156.11C3090.13,-153.15 3645.83,-141.76 3824,-107 3835.82,-104.69 3848.54,-100.42 3858.86,-96.46"/>
<polygon fill="#63b8ff" stroke="#63b8ff" points="2897.64,-152.61 2887.7,-156.26 2897.75,-159.61 2897.64,-152.61"/>
</g>
<!-- Node84 -->
<g id="node48" class="node">
<title>Node84</title>
<g id="a_node48"><a xlink:href="d__timer_8cpp.html" target="_top" xlink:title=" ">
<polygon fill="white" stroke="#666666" points="4037,-96 3945,-96 3945,-77 4037,-77 4037,-96"/>
<text text-anchor="middle" x="3991" y="-84" font-family="Helvetica,sans-Serif" font-size="10.00">src/d/d_timer.cpp</text>
</a>
</g>
</g>
<!-- Node3&#45;&gt;Node84 -->
<g id="edge56" class="edge">
<title>Node3&#45;&gt;Node84</title>
<path fill="none" stroke="#63b8ff" d="M2897.5,-156.56C3104.49,-154.78 3735.42,-146.19 3936,-107 3947.63,-104.73 3960.12,-100.46 3970.25,-96.49"/>
<polygon fill="#63b8ff" stroke="#63b8ff" points="2897.7,-153.06 2887.73,-156.64 2897.76,-160.06 2897.7,-153.06"/>
</g>
<!-- Node3&#45;&gt;Node96 -->
<g id="edge60" class="edge">
<title>Node3&#45;&gt;Node96</title>
<path fill="none" stroke="#63b8ff" d="M2897.86,-156.34C3230.91,-152.94 4702.89,-136.37 4905,-107 4920.12,-104.8 4936.6,-100.49 4949.97,-96.47"/>
<polygon fill="#63b8ff" stroke="#63b8ff" points="2897.97,-152.84 2888.01,-156.44 2898.05,-159.84 2897.97,-152.84"/>
</g>
<!-- Node4&#45;&gt;Node9 -->
<g id="edge4" class="edge">
<title>Node4&#45;&gt;Node9</title>
<path fill="none" stroke="#63b8ff" d="M4075.9,-73.18C4066.32,-70.31 4055.86,-67.62 4046,-66 3771.6,-20.86 2888.91,-16.41 2658.46,-16.02"/>
<polygon fill="#63b8ff" stroke="#63b8ff" points="4074.62,-76.45 4085.21,-76.12 4076.73,-69.77 4074.62,-76.45"/>
</g>
<!-- Node16&#45;&gt;Node13 -->
<g id="edge7" class="edge">
<title>Node16&#45;&gt;Node13</title>
<path fill="none" stroke="#63b8ff" d="M4769.02,-73.75C4714.99,-59.95 4626.55,-37.35 4577.87,-24.91"/>
<polygon fill="#63b8ff" stroke="#63b8ff" points="4767.98,-77.1 4778.53,-76.18 4769.71,-70.31 4767.98,-77.1"/>
</g>
<!-- Node16&#45;&gt;Node17 -->
<g id="edge8" class="edge">
<title>Node16&#45;&gt;Node17</title>
<path fill="none" stroke="#63b8ff" d="M4798.39,-68.53C4784.93,-54.77 4766.5,-35.93 4755.76,-24.95"/>
<polygon fill="#63b8ff" stroke="#63b8ff" points="4795.83,-70.92 4805.33,-75.62 4800.84,-66.02 4795.83,-70.92"/>
</g>
<!-- Node16&#45;&gt;Node18 -->
<g id="edge9" class="edge">
<title>Node16&#45;&gt;Node18</title>
<path fill="none" stroke="#63b8ff" d="M4832.75,-69.27C4845.67,-57.45 4863,-41.61 4875.39,-30.27"/>
<polygon fill="#63b8ff" stroke="#63b8ff" points="4830.76,-66.35 4825.74,-75.68 4835.48,-71.51 4830.76,-66.35"/>
</g>
<!-- Node16&#45;&gt;Node19 -->
<g id="edge10" class="edge">
<title>Node16&#45;&gt;Node19</title>
<path fill="none" stroke="#63b8ff" d="M4866.67,-74.1C4929,-60.35 5032.46,-37.52 5089.37,-24.96"/>
<polygon fill="#63b8ff" stroke="#63b8ff" points="4866.02,-70.66 4857.01,-76.23 4867.53,-77.49 4866.02,-70.66"/>
</g>
<!-- Node33&#45;&gt;Node1 -->
<g id="edge17" class="edge">
<title>Node33&#45;&gt;Node1</title>
<path fill="none" stroke="#63b8ff" d="M5092.53,-101.42C5023.41,-136.44 4842.85,-227.92 4772.57,-263.53"/>
<polygon fill="#63b8ff" stroke="#63b8ff" points="5093.94,-104.63 5101.28,-96.99 5090.77,-98.38 5093.94,-104.63"/>
</g>
<!-- Node35&#45;&gt;Node9 -->
<g id="edge22" class="edge">
<title>Node35&#45;&gt;Node9</title>
<path fill="none" stroke="#63b8ff" d="M816.47,-68.3C820.35,-67.4 824.22,-66.62 828,-66 1000.95,-37.74 2266.92,-20.24 2547.87,-16.68"/>
<polygon fill="#63b8ff" stroke="#63b8ff" points="815.91,-64.83 807.09,-70.69 817.64,-71.61 815.91,-64.83"/>
</g>
<!-- Node35&#45;&gt;Node13 -->
<g id="edge19" class="edge">
<title>Node35&#45;&gt;Node13</title>
<path fill="none" stroke="#63b8ff" d="M816.28,-68.26C820.22,-67.37 824.15,-66.59 828,-66 1216.98,-6.03 3976.83,-47.88 4370,-30 4409.58,-28.2 4454.15,-24.55 4488.13,-21.44"/>
<polygon fill="#63b8ff" stroke="#63b8ff" points="815.56,-64.83 806.72,-70.68 817.28,-71.62 815.56,-64.83"/>
</g>
<!-- Node35&#45;&gt;Node40 -->
<g id="edge20" class="edge">
<title>Node35&#45;&gt;Node40</title>
<path fill="none" stroke="#63b8ff" d="M749.49,-61.49C741.78,-48.74 732.79,-33.86 727.24,-24.68"/>
<polygon fill="#63b8ff" stroke="#63b8ff" points="746.35,-63.06 754.51,-69.8 752.34,-59.44 746.35,-63.06"/>
</g>
<!-- Node35&#45;&gt;Node44 -->
<g id="edge21" class="edge">
<title>Node35&#45;&gt;Node44</title>
<path fill="none" stroke="#63b8ff" d="M714.79,-67.21C678.17,-53.6 629.77,-35.61 601.16,-24.98"/>
<polygon fill="#63b8ff" stroke="#63b8ff" points="713.24,-70.37 723.83,-70.57 715.68,-63.81 713.24,-70.37"/>
</g>
<!-- Node35&#45;&gt;Node45 -->
<g id="edge23" class="edge">
<title>Node35&#45;&gt;Node45</title>
<path fill="none" stroke="#63b8ff" d="M787.95,-63.3C799.59,-52.52 813.23,-39.88 823.48,-30.38"/>
<polygon fill="#63b8ff" stroke="#63b8ff" points="785.61,-60.71 780.65,-70.07 790.36,-65.84 785.61,-60.71"/>
</g>
<!-- Node63&#45;&gt;Node13 -->
<g id="edge30" class="edge">
<title>Node63&#45;&gt;Node13</title>
<path fill="none" stroke="#63b8ff" d="M4483.43,-64.14C4499.75,-50.95 4519.83,-34.72 4532.01,-24.88"/>
<polygon fill="#63b8ff" stroke="#63b8ff" points="4481.57,-61.14 4476,-70.15 4485.97,-66.58 4481.57,-61.14"/>
</g>
<!-- Node63&#45;&gt;Node64 -->
<g id="edge31" class="edge">
<title>Node63&#45;&gt;Node64</title>
<path fill="none" stroke="#63b8ff" d="M4415.15,-66.49C4385.3,-52.93 4346.52,-35.31 4323.55,-24.88"/>
<polygon fill="#63b8ff" stroke="#63b8ff" points="4413.37,-69.52 4423.92,-70.47 4416.26,-63.15 4413.37,-69.52"/>
</g>
<!-- Node106&#45;&gt;Node1 -->
<g id="edge63" class="edge">
<title>Node106&#45;&gt;Node1</title>
<path fill="none" stroke="#63b8ff" d="M84.19,-181.86C99.2,-198.11 119.61,-218.64 143,-228 253.39,-272.17 4132.85,-277.42 4680.1,-277.95"/>
<polygon fill="#63b8ff" stroke="#63b8ff" points="86.78,-179.5 77.44,-174.49 81.61,-184.23 86.78,-179.5"/>
</g>
<!-- Node106&#45;&gt;Node44 -->
<g id="edge64" class="edge">
<title>Node106&#45;&gt;Node44</title>
<path fill="none" stroke="#63b8ff" d="M59.34,-131.5C60.3,-110.6 65.31,-81.97 84,-66 114.7,-39.77 365.54,-25.12 497.11,-19.17"/>
<polygon fill="#63b8ff" stroke="#63b8ff" points="55.85,-131.19 59.2,-141.24 62.85,-131.29 55.85,-131.19"/>
</g>
<!-- Node106&#45;&gt;Node45 -->
<g id="edge65" class="edge">
<title>Node106&#45;&gt;Node45</title>
<path fill="none" stroke="#63b8ff" d="M73.26,-132.68C87.03,-108.41 108.44,-73.65 122,-66 185.57,-30.12 705.72,-40.2 778,-30 780.8,-29.61 783.66,-29.15 786.53,-28.64"/>
<polygon fill="#63b8ff" stroke="#63b8ff" points="70.25,-130.89 68.43,-141.32 76.36,-134.3 70.25,-130.89"/>
</g>
</g>
</svg>
