<?xml version="1.0" encoding="UTF-8" standalone="no"?>
<!DOCTYPE svg PUBLIC "-//W3C//DTD SVG 1.1//EN"
 "http://www.w3.org/Graphics/SVG/1.1/DTD/svg11.dtd">
<!-- Generated by graphviz version 7.0.4 (20221203.1631)
 -->
<!-- Title: include/d/particle/d_particle_copoly.h Pages: 1 -->
<svg width="5061pt" height="313pt"
 viewBox="0.00 0.00 5061.00 313.00" xmlns="http://www.w3.org/2000/svg" xmlns:xlink="http://www.w3.org/1999/xlink">
<g id="graph0" class="graph" transform="scale(1 1) rotate(0) translate(4 309)">
<title>include/d/particle/d_particle_copoly.h</title>
<!-- Node1 -->
<g id="node1" class="node">
<title>Node1</title>
<g id="a_node1"><a xlink:title=" ">
<polygon fill="#999999" stroke="#666666" points="2639,-305 2537,-305 2537,-275 2639,-275 2639,-305"/>
<text text-anchor="start" x="2545" y="-293" font-family="Helvetica,sans-Serif" font-size="10.00">include/d/particle</text>
<text text-anchor="middle" x="2588" y="-282" font-family="Helvetica,sans-Serif" font-size="10.00">/d_particle_copoly.h</text>
</a>
</g>
</g>
<!-- Node2 -->
<g id="node2" class="node">
<title>Node2</title>
<g id="a_node2"><a xlink:href="d__a__alink_8h.html" target="_top" xlink:title=" ">
<polygon fill="white" stroke="#666666" points="2486,-233.5 2370,-233.5 2370,-214.5 2486,-214.5 2486,-233.5"/>
<text text-anchor="middle" x="2428" y="-221.5" font-family="Helvetica,sans-Serif" font-size="10.00">include/d/a/d_a_alink.h</text>
</a>
</g>
</g>
<!-- Node1&#45;&gt;Node2 -->
<g id="edge1" class="edge">
<title>Node1&#45;&gt;Node2</title>
<path fill="none" stroke="#63b8ff" d="M2541.45,-270.38C2511.52,-258.41 2473.96,-243.38 2450.46,-233.99"/>
<polygon fill="#63b8ff" stroke="#63b8ff" points="2540.1,-273.61 2550.69,-274.08 2542.7,-267.11 2540.1,-273.61"/>
</g>
<!-- Node108 -->
<g id="node48" class="node">
<title>Node108</title>
<g id="a_node48"><a xlink:href="d__a__boomerang_8h.html" target="_top" xlink:title=" ">
<polygon fill="white" stroke="#666666" points="3909.5,-173 3760.5,-173 3760.5,-143 3909.5,-143 3909.5,-173"/>
<text text-anchor="start" x="3768.5" y="-161" font-family="Helvetica,sans-Serif" font-size="10.00">include/rel/d/a/d_a</text>
<text text-anchor="middle" x="3835" y="-150" font-family="Helvetica,sans-Serif" font-size="10.00">_boomerang/d_a_boomerang.h</text>
</a>
</g>
</g>
<!-- Node1&#45;&gt;Node108 -->
<g id="edge57" class="edge">
<title>Node1&#45;&gt;Node108</title>
<path fill="none" stroke="#63b8ff" d="M2570.19,-265.52C2559.08,-247.85 2549.42,-224.17 2564,-209 2605.61,-165.72 3493.97,-159.89 3760.23,-159.12"/>
<polygon fill="#63b8ff" stroke="#63b8ff" points="2567,-267.06 2575.51,-273.37 2572.79,-263.13 2567,-267.06"/>
</g>
<!-- Node109 -->
<g id="node49" class="node">
<title>Node109</title>
<g id="a_node49"><a xlink:href="d__a__cstatue_8h.html" target="_top" xlink:title=" ">
<polygon fill="white" stroke="#666666" points="2691,-239 2573,-239 2573,-209 2691,-209 2691,-239"/>
<text text-anchor="start" x="2581" y="-227" font-family="Helvetica,sans-Serif" font-size="10.00">include/rel/d/a/d_a</text>
<text text-anchor="middle" x="2632" y="-216" font-family="Helvetica,sans-Serif" font-size="10.00">_cstatue/d_a_cstatue.h</text>
</a>
</g>
</g>
<!-- Node1&#45;&gt;Node109 -->
<g id="edge59" class="edge">
<title>Node1&#45;&gt;Node109</title>
<path fill="none" stroke="#63b8ff" d="M2604.23,-265.39C2610.28,-256.59 2616.97,-246.86 2622.26,-239.16"/>
<polygon fill="#63b8ff" stroke="#63b8ff" points="2601.4,-263.33 2598.62,-273.55 2607.17,-267.29 2601.4,-263.33"/>
</g>
<!-- Node110 -->
<g id="node50" class="node">
<title>Node110</title>
<g id="a_node50"><a xlink:href="d__particle__copoly_8cpp.html" target="_top" xlink:title=" ">
<polygon fill="white" stroke="#666666" points="2827,-239 2709,-239 2709,-209 2827,-209 2827,-239"/>
<text text-anchor="start" x="2717" y="-227" font-family="Helvetica,sans-Serif" font-size="10.00">src/d/particle/d_particle</text>
<text text-anchor="middle" x="2768" y="-216" font-family="Helvetica,sans-Serif" font-size="10.00">_copoly.cpp</text>
</a>
</g>
</g>
<!-- Node1&#45;&gt;Node110 -->
<g id="edge60" class="edge">
<title>Node1&#45;&gt;Node110</title>
<path fill="none" stroke="#63b8ff" d="M2639.17,-270.8C2667.15,-260.86 2701.31,-248.71 2727.43,-239.43"/>
<polygon fill="#63b8ff" stroke="#63b8ff" points="2638.07,-267.48 2629.82,-274.13 2640.42,-274.08 2638.07,-267.48"/>
</g>
<!-- Node3 -->
<g id="node3" class="node">
<title>Node3</title>
<g id="a_node3"><a xlink:href="d__com__inf__game_8h.html" target="_top" xlink:title=" ">
<polygon fill="#fff0f0" stroke="red" points="2483,-173 2373,-173 2373,-143 2483,-143 2483,-173"/>
<text text-anchor="start" x="2381" y="-161" font-family="Helvetica,sans-Serif" font-size="10.00">include/d/com/d_com</text>
<text text-anchor="middle" x="2428" y="-150" font-family="Helvetica,sans-Serif" font-size="10.00">_inf_game.h</text>
</a>
</g>
</g>
<!-- Node2&#45;&gt;Node3 -->
<g id="edge2" class="edge">
<title>Node2&#45;&gt;Node3</title>
<path fill="none" stroke="#63b8ff" d="M2428,-202.78C2428,-193.17 2428,-181.92 2428,-173.23"/>
<polygon fill="#63b8ff" stroke="#63b8ff" points="2424.5,-202.59 2428,-212.59 2431.5,-202.59 2424.5,-202.59"/>
</g>
<!-- Node13 -->
<g id="node7" class="node">
<title>Node13</title>
<g id="a_node7"><a xlink:href="d__a__alink_8cpp.html" target="_top" xlink:title=" ">
<polygon fill="white" stroke="#666666" points="1086.5,-24.5 977.5,-24.5 977.5,-5.5 1086.5,-5.5 1086.5,-24.5"/>
<text text-anchor="middle" x="1032" y="-12.5" font-family="Helvetica,sans-Serif" font-size="10.00">src/d/a/d_a_alink.cpp</text>
</a>
</g>
</g>
<!-- Node2&#45;&gt;Node13 -->
<g id="edge56" class="edge">
<title>Node2&#45;&gt;Node13</title>
<path fill="none" stroke="#63b8ff" d="M2358.17,-221.91C1996.1,-215.92 346.4,-184.45 273,-107 260.47,-93.77 260.55,-79.3 273,-66 285.04,-53.14 804.91,-26.95 977.18,-18.61"/>
<polygon fill="#63b8ff" stroke="#63b8ff" points="2357.93,-225.41 2367.99,-222.07 2358.05,-218.41 2357.93,-225.41"/>
</g>
<!-- Node4 -->
<g id="node4" class="node">
<title>Node4</title>
<g id="a_node4"><a xlink:href="d__a__npc_8h.html" target="_top" xlink:title=" ">
<polygon fill="#fff0f0" stroke="red" points="4545.5,-96 4434.5,-96 4434.5,-77 4545.5,-77 4545.5,-96"/>
<text text-anchor="middle" x="4490" y="-84" font-family="Helvetica,sans-Serif" font-size="10.00">include/d/a/d_a_npc.h</text>
</a>
</g>
</g>
<!-- Node3&#45;&gt;Node4 -->
<g id="edge3" class="edge">
<title>Node3&#45;&gt;Node4</title>
<path fill="none" stroke="#63b8ff" d="M2494.51,-156.39C2819.33,-153.25 4231.23,-137.92 4425,-107 4438.73,-104.81 4453.61,-100.5 4465.67,-96.48"/>
<polygon fill="#63b8ff" stroke="#63b8ff" points="2494.89,-152.88 2484.93,-156.48 2494.96,-159.88 2494.89,-152.88"/>
</g>
<!-- Node10 -->
<g id="node5" class="node">
<title>Node10</title>
<g id="a_node5"><a xlink:href="d__cc__uty_8h.html" target="_top" xlink:title=" ">
<polygon fill="#fff0f0" stroke="red" points="4682.5,-96 4563.5,-96 4563.5,-77 4682.5,-77 4682.5,-96"/>
<text text-anchor="middle" x="4623" y="-84" font-family="Helvetica,sans-Serif" font-size="10.00">include/d/cc/d_cc_uty.h</text>
</a>
</g>
</g>
<!-- Node3&#45;&gt;Node10 -->
<g id="edge4" class="edge">
<title>Node3&#45;&gt;Node10</title>
<path fill="none" stroke="#63b8ff" d="M2494.41,-156.45C2831.74,-153.51 4347.51,-138.65 4555,-107 4569.33,-104.81 4584.89,-100.5 4597.51,-96.48"/>
<polygon fill="#63b8ff" stroke="#63b8ff" points="2494.86,-152.94 2484.89,-156.53 2494.92,-159.94 2494.86,-152.94"/>
</g>
<!-- Node16 -->
<g id="node6" class="node">
<title>Node16</title>
<g id="a_node6"><a xlink:href="d__item_8h.html" target="_top" xlink:title=" ">
<polygon fill="#fff0f0" stroke="red" points="4795.5,-96 4700.5,-96 4700.5,-77 4795.5,-77 4795.5,-96"/>
<text text-anchor="middle" x="4748" y="-84" font-family="Helvetica,sans-Serif" font-size="10.00">include/d/d_item.h</text>
</a>
</g>
</g>
<!-- Node3&#45;&gt;Node16 -->
<g id="edge5" class="edge">
<title>Node3&#45;&gt;Node16</title>
<path fill="none" stroke="#63b8ff" d="M2494.77,-156.11C2857.75,-151.22 4581.27,-126.99 4692,-107 4704.06,-104.82 4717,-100.46 4727.41,-96.41"/>
<polygon fill="#63b8ff" stroke="#63b8ff" points="2494.9,-152.61 2484.95,-156.25 2495,-159.61 2494.9,-152.61"/>
</g>
<!-- Node3&#45;&gt;Node13 -->
<g id="edge31" class="edge">
<title>Node3&#45;&gt;Node13</title>
<path fill="none" stroke="#63b8ff" d="M2361.43,-156.84C2092.92,-155.92 1101.57,-149.65 1051,-107 1026.57,-86.4 1028.57,-43.23 1030.72,-24.72"/>
<polygon fill="#63b8ff" stroke="#63b8ff" points="2361.39,-160.34 2371.4,-156.88 2361.41,-153.34 2361.39,-160.34"/>
</g>
<!-- Node17 -->
<g id="node8" class="node">
<title>Node17</title>
<g id="a_node8"><a xlink:href="d__a__obj__item_8cpp.html" target="_top" xlink:title=" ">
<polygon fill="white" stroke="#666666" points="4848.5,-24.5 4723.5,-24.5 4723.5,-5.5 4848.5,-5.5 4848.5,-24.5"/>
<text text-anchor="middle" x="4786" y="-12.5" font-family="Helvetica,sans-Serif" font-size="10.00">src/d/a/d_a_obj_item.cpp</text>
</a>
</g>
</g>
<!-- Node3&#45;&gt;Node17 -->
<g id="edge34" class="edge">
<title>Node3&#45;&gt;Node17</title>
<path fill="none" stroke="#63b8ff" d="M2494.73,-156.23C2878.13,-151.71 4784.22,-128.22 4805,-107 4827.13,-84.4 4804.24,-43.06 4792.29,-24.93"/>
<polygon fill="#63b8ff" stroke="#63b8ff" points="2494.78,-152.73 2484.82,-156.34 2494.86,-159.73 2494.78,-152.73"/>
</g>
<!-- Node18 -->
<g id="node9" class="node">
<title>Node18</title>
<g id="a_node9"><a xlink:href="d__com__inf__game_8cpp.html" target="_top" xlink:title=" ">
<polygon fill="white" stroke="#666666" points="3245,-30 3137,-30 3137,0 3245,0 3245,-30"/>
<text text-anchor="start" x="3145" y="-18" font-family="Helvetica,sans-Serif" font-size="10.00">src/d/com/d_com_inf</text>
<text text-anchor="middle" x="3191" y="-7" font-family="Helvetica,sans-Serif" font-size="10.00">_game.cpp</text>
</a>
</g>
</g>
<!-- Node3&#45;&gt;Node18 -->
<g id="edge40" class="edge">
<title>Node3&#45;&gt;Node18</title>
<path fill="none" stroke="#63b8ff" d="M2361.26,-156.79C2205.13,-155.61 1826.34,-148.46 1788,-107 1775.63,-93.62 1775.35,-79.11 1788,-66 1835.63,-16.65 2884.48,-15.43 3136.78,-15.85"/>
<polygon fill="#63b8ff" stroke="#63b8ff" points="2361.02,-160.29 2371.04,-156.86 2361.06,-153.29 2361.02,-160.29"/>
</g>
<!-- Node21 -->
<g id="node10" class="node">
<title>Node21</title>
<g id="a_node10"><a xlink:href="d__kantera__icon__meter_8h.html" target="_top" xlink:title=" ">
<polygon fill="#fff0f0" stroke="red" points="383.5,-101.5 282.5,-101.5 282.5,-71.5 383.5,-71.5 383.5,-101.5"/>
<text text-anchor="start" x="290.5" y="-89.5" font-family="Helvetica,sans-Serif" font-size="10.00">include/d/d_kantera</text>
<text text-anchor="middle" x="333" y="-78.5" font-family="Helvetica,sans-Serif" font-size="10.00">_icon_meter.h</text>
</a>
</g>
</g>
<!-- Node3&#45;&gt;Node21 -->
<g id="edge9" class="edge">
<title>Node3&#45;&gt;Node21</title>
<path fill="none" stroke="#63b8ff" d="M2361.8,-156.53C2033.65,-154.05 589.43,-141.27 392,-107 385.2,-105.82 378.11,-104.01 371.3,-101.96"/>
<polygon fill="#63b8ff" stroke="#63b8ff" points="2361.45,-160.03 2371.48,-156.6 2361.51,-153.03 2361.45,-160.03"/>
</g>
<!-- Node24 -->
<g id="node11" class="node">
<title>Node24</title>
<g id="a_node11"><a xlink:href="d__model_8h.html" target="_top" xlink:title=" ">
<polygon fill="#fff0f0" stroke="red" points="504.5,-96 401.5,-96 401.5,-77 504.5,-77 504.5,-96"/>
<text text-anchor="middle" x="453" y="-84" font-family="Helvetica,sans-Serif" font-size="10.00">include/d/d_model.h</text>
</a>
</g>
</g>
<!-- Node3&#45;&gt;Node24 -->
<g id="edge10" class="edge">
<title>Node3&#45;&gt;Node24</title>
<path fill="none" stroke="#63b8ff" d="M2361.69,-156.4C2045.42,-153.39 697.96,-138.78 513,-107 500.26,-104.81 486.52,-100.5 475.4,-96.48"/>
<polygon fill="#63b8ff" stroke="#63b8ff" points="2361.39,-159.9 2371.42,-156.49 2361.46,-152.9 2361.39,-159.9"/>
</g>
<!-- Node26 -->
<g id="node12" class="node">
<title>Node26</title>
<g id="a_node12"><a xlink:href="d__name_8h.html" target="_top" xlink:title=" ">
<polygon fill="#fff0f0" stroke="red" points="623.5,-96 522.5,-96 522.5,-77 623.5,-77 623.5,-96"/>
<text text-anchor="middle" x="573" y="-84" font-family="Helvetica,sans-Serif" font-size="10.00">include/d/d_name.h</text>
</a>
</g>
</g>
<!-- Node3&#45;&gt;Node26 -->
<g id="edge11" class="edge">
<title>Node3&#45;&gt;Node26</title>
<path fill="none" stroke="#63b8ff" d="M2361.44,-156.27C2057.12,-152.8 805.5,-136.8 633,-107 620.26,-104.8 606.52,-100.49 595.41,-96.47"/>
<polygon fill="#63b8ff" stroke="#63b8ff" points="2361.16,-159.77 2371.2,-156.38 2361.24,-152.77 2361.16,-159.77"/>
</g>
<!-- Node28 -->
<g id="node13" class="node">
<title>Node28</title>
<g id="a_node13"><a xlink:href="d__file__sel__info_8h.html" target="_top" xlink:title=" ">
<polygon fill="#fff0f0" stroke="red" points="738,-101.5 642,-101.5 642,-71.5 738,-71.5 738,-101.5"/>
<text text-anchor="start" x="650" y="-89.5" font-family="Helvetica,sans-Serif" font-size="10.00">include/d/file/d_file</text>
<text text-anchor="middle" x="690" y="-78.5" font-family="Helvetica,sans-Serif" font-size="10.00">_sel_info.h</text>
</a>
</g>
</g>
<!-- Node3&#45;&gt;Node28 -->
<g id="edge12" class="edge">
<title>Node3&#45;&gt;Node28</title>
<path fill="none" stroke="#63b8ff" d="M2361.42,-156.2C2069.18,-152.52 907.52,-136.16 747,-107 740.41,-105.8 733.56,-103.99 726.98,-101.93"/>
<polygon fill="#63b8ff" stroke="#63b8ff" points="2361.1,-159.69 2371.15,-156.32 2361.19,-152.69 2361.1,-159.69"/>
</g>
<!-- Node31 -->
<g id="node14" class="node">
<title>Node31</title>
<g id="a_node14"><a xlink:href="d__file__sel__warning_8h.html" target="_top" xlink:title=" ">
<polygon fill="#fff0f0" stroke="red" points="852,-101.5 756,-101.5 756,-71.5 852,-71.5 852,-101.5"/>
<text text-anchor="start" x="764" y="-89.5" font-family="Helvetica,sans-Serif" font-size="10.00">include/d/file/d_file</text>
<text text-anchor="middle" x="804" y="-78.5" font-family="Helvetica,sans-Serif" font-size="10.00">_sel_warning.h</text>
</a>
</g>
</g>
<!-- Node3&#45;&gt;Node31 -->
<g id="edge13" class="edge">
<title>Node3&#45;&gt;Node31</title>
<path fill="none" stroke="#63b8ff" d="M2361.4,-156.04C2081.71,-151.86 1009.8,-134.19 861,-107 854.42,-105.8 847.56,-103.98 840.98,-101.92"/>
<polygon fill="#63b8ff" stroke="#63b8ff" points="2361,-159.54 2371.05,-156.19 2361.11,-152.54 2361,-159.54"/>
</g>
<!-- Node33 -->
<g id="node15" class="node">
<title>Node33</title>
<g id="a_node15"><a xlink:href="d__meter2_8h.html" target="_top" xlink:title=" ">
<polygon fill="#fff0f0" stroke="red" points="1004,-96 870,-96 870,-77 1004,-77 1004,-96"/>
<text text-anchor="middle" x="937" y="-84" font-family="Helvetica,sans-Serif" font-size="10.00">include/d/meter/d_meter2.h</text>
</a>
</g>
</g>
<!-- Node3&#45;&gt;Node33 -->
<g id="edge14" class="edge">
<title>Node3&#45;&gt;Node33</title>
<path fill="none" stroke="#63b8ff" d="M2361.28,-156.41C2118.48,-153.99 1282.45,-143.15 1018,-107 1001.23,-104.71 982.87,-100.44 967.88,-96.48"/>
<polygon fill="#63b8ff" stroke="#63b8ff" points="2361.17,-159.91 2371.21,-156.51 2361.24,-152.91 2361.17,-159.91"/>
</g>
<!-- Node40 -->
<g id="node16" class="node">
<title>Node40</title>
<g id="a_node16"><a xlink:href="d__msg__object_8h.html" target="_top" xlink:title=" ">
<polygon fill="#fff0f0" stroke="red" points="226,-101.5 116,-101.5 116,-71.5 226,-71.5 226,-101.5"/>
<text text-anchor="start" x="124" y="-89.5" font-family="Helvetica,sans-Serif" font-size="10.00">include/d/msg/d_msg</text>
<text text-anchor="middle" x="171" y="-78.5" font-family="Helvetica,sans-Serif" font-size="10.00">_object.h</text>
</a>
</g>
</g>
<!-- Node3&#45;&gt;Node40 -->
<g id="edge15" class="edge">
<title>Node3&#45;&gt;Node40</title>
<path fill="none" stroke="#63b8ff" d="M2361.76,-156.94C2046.12,-156.44 692.74,-151.68 273,-107 257.76,-105.38 241.4,-102.68 226.33,-99.81"/>
<polygon fill="#63b8ff" stroke="#63b8ff" points="2361.46,-160.44 2371.46,-156.96 2361.47,-153.44 2361.46,-160.44"/>
</g>
<!-- Node45 -->
<g id="node17" class="node">
<title>Node45</title>
<g id="a_node17"><a xlink:href="d__demo_8cpp.html" target="_top" xlink:title=" ">
<polygon fill="white" stroke="#666666" points="94,-24.5 0,-24.5 0,-5.5 94,-5.5 94,-24.5"/>
<text text-anchor="middle" x="47" y="-12.5" font-family="Helvetica,sans-Serif" font-size="10.00">src/d/d_demo.cpp</text>
</a>
</g>
</g>
<!-- Node3&#45;&gt;Node45 -->
<g id="edge45" class="edge">
<title>Node3&#45;&gt;Node45</title>
<path fill="none" stroke="#63b8ff" d="M2361.04,-156.49C1984.45,-153.5 145.6,-137.35 96,-107 65.54,-88.36 52.83,-43.71 48.68,-24.75"/>
<polygon fill="#63b8ff" stroke="#63b8ff" points="2360.98,-159.99 2371.01,-156.57 2361.04,-152.99 2360.98,-159.99"/>
</g>
<!-- Node46 -->
<g id="node18" class="node">
<title>Node46</title>
<g id="a_node18"><a xlink:href="d__event_8cpp.html" target="_top" xlink:title=" ">
<polygon fill="white" stroke="#666666" points="233.5,-24.5 112.5,-24.5 112.5,-5.5 233.5,-5.5 233.5,-24.5"/>
<text text-anchor="middle" x="173" y="-12.5" font-family="Helvetica,sans-Serif" font-size="10.00">src/d/event/d_event.cpp</text>
</a>
</g>
</g>
<!-- Node3&#45;&gt;Node46 -->
<g id="edge54" class="edge">
<title>Node3&#45;&gt;Node46</title>
<path fill="none" stroke="#63b8ff" d="M2361.07,-156.84C1984.72,-155.75 147.48,-148.36 107,-107 94.25,-93.98 98.89,-82.32 107,-66 116.53,-46.82 137.33,-33.03 153.04,-24.85"/>
<polygon fill="#63b8ff" stroke="#63b8ff" points="2361.03,-160.34 2371.04,-156.86 2361.05,-153.34 2361.03,-160.34"/>
</g>
<!-- Node47 -->
<g id="node19" class="node">
<title>Node47</title>
<g id="a_node19"><a xlink:href="d__event__data_8cpp.html" target="_top" xlink:title=" ">
<polygon fill="white" stroke="#666666" points="657.5,-30 554.5,-30 554.5,0 657.5,0 657.5,-30"/>
<text text-anchor="start" x="562.5" y="-18" font-family="Helvetica,sans-Serif" font-size="10.00">src/d/event/d_event</text>
<text text-anchor="middle" x="606" y="-7" font-family="Helvetica,sans-Serif" font-size="10.00">_data.cpp</text>
</a>
</g>
</g>
<!-- Node3&#45;&gt;Node47 -->
<g id="edge55" class="edge">
<title>Node3&#45;&gt;Node47</title>
<path fill="none" stroke="#63b8ff" d="M2361.47,-156.07C2217.66,-153.39 1882.21,-143.32 1775,-107 1743.36,-96.28 1743.8,-76.22 1712,-66 1686.6,-57.83 872.61,-26.2 657.64,-17.97"/>
<polygon fill="#63b8ff" stroke="#63b8ff" points="2361.15,-159.57 2371.21,-156.25 2361.27,-152.57 2361.15,-159.57"/>
</g>
<!-- Node54 -->
<g id="node20" class="node">
<title>Node54</title>
<g id="a_node20"><a xlink:href="d__s__logo_8h.html" target="_top" xlink:title=" ">
<polygon fill="#fff0f0" stroke="red" points="1173.5,-96 1060.5,-96 1060.5,-77 1173.5,-77 1173.5,-96"/>
<text text-anchor="middle" x="1117" y="-84" font-family="Helvetica,sans-Serif" font-size="10.00">include/d/s/d_s_logo.h</text>
</a>
</g>
</g>
<!-- Node3&#45;&gt;Node54 -->
<g id="edge20" class="edge">
<title>Node3&#45;&gt;Node54</title>
<path fill="none" stroke="#63b8ff" d="M2361.6,-156.53C2137.76,-154.61 1412.08,-145.5 1182,-107 1168.4,-104.73 1153.66,-100.46 1141.65,-96.49"/>
<polygon fill="#63b8ff" stroke="#63b8ff" points="2361.27,-160.03 2371.3,-156.61 2361.33,-153.03 2361.27,-160.03"/>
</g>
<!-- Node56 -->
<g id="node21" class="node">
<title>Node56</title>
<g id="a_node21"><a xlink:href="d__s__play_8h.html" target="_top" xlink:title=" ">
<polygon fill="#fff0f0" stroke="red" points="1304.5,-96 1191.5,-96 1191.5,-77 1304.5,-77 1304.5,-96"/>
<text text-anchor="middle" x="1248" y="-84" font-family="Helvetica,sans-Serif" font-size="10.00">include/d/s/d_s_play.h</text>
</a>
</g>
</g>
<!-- Node3&#45;&gt;Node56 -->
<g id="edge21" class="edge">
<title>Node3&#45;&gt;Node56</title>
<path fill="none" stroke="#63b8ff" d="M2361.34,-156.16C2153.08,-153.21 1516.43,-141.53 1313,-107 1299.41,-104.69 1284.66,-100.42 1272.66,-96.46"/>
<polygon fill="#63b8ff" stroke="#63b8ff" points="2361.12,-159.66 2371.17,-156.3 2361.22,-152.66 2361.12,-159.66"/>
</g>
<!-- Node60 -->
<g id="node22" class="node">
<title>Node60</title>
<g id="a_node22"><a xlink:href="d__msg__scrn__base_8h.html" target="_top" xlink:title=" ">
<polygon fill="#fff0f0" stroke="red" points="1421.5,-101.5 1322.5,-101.5 1322.5,-71.5 1421.5,-71.5 1421.5,-101.5"/>
<text text-anchor="start" x="1330.5" y="-89.5" font-family="Helvetica,sans-Serif" font-size="10.00">include/msg/scrn/d</text>
<text text-anchor="middle" x="1372" y="-78.5" font-family="Helvetica,sans-Serif" font-size="10.00">_msg_scrn_base.h</text>
</a>
</g>
</g>
<!-- Node3&#45;&gt;Node60 -->
<g id="edge22" class="edge">
<title>Node3&#45;&gt;Node60</title>
<path fill="none" stroke="#63b8ff" d="M2361.16,-156.04C2167.63,-152.87 1609.25,-140.95 1430,-107 1423.42,-105.75 1416.57,-103.94 1409.98,-101.91"/>
<polygon fill="#63b8ff" stroke="#63b8ff" points="2360.98,-159.53 2371.04,-156.19 2361.1,-152.53 2360.98,-159.53"/>
</g>
<!-- Node64 -->
<g id="node23" class="node">
<title>Node64</title>
<g id="a_node23"><a xlink:href="d__a__b__zant_8h.html" target="_top" xlink:title=" ">
<polygon fill="white" stroke="#666666" points="1560.5,-101.5 1439.5,-101.5 1439.5,-71.5 1560.5,-71.5 1560.5,-101.5"/>
<text text-anchor="start" x="1447.5" y="-89.5" font-family="Helvetica,sans-Serif" font-size="10.00">include/rel/d/a/b/d</text>
<text text-anchor="middle" x="1500" y="-78.5" font-family="Helvetica,sans-Serif" font-size="10.00">_a_b_zant/d_a_b_zant.h</text>
</a>
</g>
</g>
<!-- Node3&#45;&gt;Node64 -->
<g id="edge23" class="edge">
<title>Node3&#45;&gt;Node64</title>
<path fill="none" stroke="#63b8ff" d="M2361.49,-154.96C2187.53,-149.33 1722.05,-132.31 1570,-107 1562.28,-105.72 1554.2,-103.91 1546.38,-101.91"/>
<polygon fill="#63b8ff" stroke="#63b8ff" points="2361.14,-158.45 2371.25,-155.27 2361.37,-151.46 2361.14,-158.45"/>
</g>
<!-- Node65 -->
<g id="node24" class="node">
<title>Node65</title>
<g id="a_node24"><a xlink:href="d__a__skip__2D_8h.html" target="_top" xlink:title=" ">
<polygon fill="white" stroke="#666666" points="1703,-101.5 1579,-101.5 1579,-71.5 1703,-71.5 1703,-101.5"/>
<text text-anchor="start" x="1587" y="-89.5" font-family="Helvetica,sans-Serif" font-size="10.00">include/rel/d/a/d_a</text>
<text text-anchor="middle" x="1641" y="-78.5" font-family="Helvetica,sans-Serif" font-size="10.00">_skip_2D/d_a_skip_2D.h</text>
</a>
</g>
</g>
<!-- Node3&#45;&gt;Node65 -->
<g id="edge24" class="edge">
<title>Node3&#45;&gt;Node65</title>
<path fill="none" stroke="#63b8ff" d="M2361.37,-156.32C2234.93,-154.15 1951.83,-145.06 1717,-107 1708.93,-105.69 1700.47,-103.93 1692.24,-101.99"/>
<polygon fill="#63b8ff" stroke="#63b8ff" points="2361.18,-159.82 2371.23,-156.48 2361.29,-152.82 2361.18,-159.82"/>
</g>
<!-- Node66 -->
<g id="node25" class="node">
<title>Node66</title>
<g id="a_node25"><a xlink:href="d__a__spinner_8h.html" target="_top" xlink:title=" ">
<polygon fill="white" stroke="#666666" points="4968,-101.5 4852,-101.5 4852,-71.5 4968,-71.5 4968,-101.5"/>
<text text-anchor="start" x="4860" y="-89.5" font-family="Helvetica,sans-Serif" font-size="10.00">include/rel/d/a/d_a</text>
<text text-anchor="middle" x="4910" y="-78.5" font-family="Helvetica,sans-Serif" font-size="10.00">_spinner/d_a_spinner.h</text>
</a>
</g>
</g>
<!-- Node3&#45;&gt;Node66 -->
<g id="edge25" class="edge">
<title>Node3&#45;&gt;Node66</title>
<path fill="none" stroke="#63b8ff" d="M2494.76,-156.07C2871.51,-150.79 4719,-124.09 4838,-107 4846.2,-105.82 4854.81,-104.01 4863.09,-101.97"/>
<polygon fill="#63b8ff" stroke="#63b8ff" points="2494.74,-152.57 2484.79,-156.21 2494.84,-159.57 2494.74,-152.57"/>
</g>
<!-- Node67 -->
<g id="node26" class="node">
<title>Node67</title>
<g id="a_node26"><a xlink:href="d__a__player_8cpp.html" target="_top" xlink:title=" ">
<polygon fill="white" stroke="#666666" points="5053,-24.5 4939,-24.5 4939,-5.5 5053,-5.5 5053,-24.5"/>
<text text-anchor="middle" x="4996" y="-12.5" font-family="Helvetica,sans-Serif" font-size="10.00">src/d/a/d_a_player.cpp</text>
</a>
</g>
</g>
<!-- Node3&#45;&gt;Node67 -->
<g id="edge35" class="edge">
<title>Node3&#45;&gt;Node67</title>
<path fill="none" stroke="#63b8ff" d="M2494.66,-156.26C2893.93,-151.73 4952.39,-127.41 4977,-107 5001.6,-86.6 4999.51,-43.32 4997.3,-24.76"/>
<polygon fill="#63b8ff" stroke="#63b8ff" points="2494.8,-152.75 2484.84,-156.37 2494.88,-159.75 2494.8,-152.75"/>
</g>
<!-- Node68 -->
<g id="node27" class="node">
<title>Node68</title>
<g id="a_node27"><a xlink:href="d__a__obj__yobikusa_8h.html" target="_top" xlink:title=" ">
<polygon fill="white" stroke="#666666" points="1902.5,-107 1797.5,-107 1797.5,-66 1902.5,-66 1902.5,-107"/>
<text text-anchor="start" x="1805.5" y="-95" font-family="Helvetica,sans-Serif" font-size="10.00">include/rel/d/a/obj</text>
<text text-anchor="start" x="1805.5" y="-84" font-family="Helvetica,sans-Serif" font-size="10.00">/d_a_obj_yobikusa/d</text>
<text text-anchor="middle" x="1850" y="-73" font-family="Helvetica,sans-Serif" font-size="10.00">_a_obj_yobikusa.h</text>
</a>
</g>
</g>
<!-- Node3&#45;&gt;Node68 -->
<g id="edge28" class="edge">
<title>Node3&#45;&gt;Node68</title>
<path fill="none" stroke="#63b8ff" d="M2361.53,-154.97C2262.63,-150.97 2071.28,-139.4 1912,-107 1909.01,-106.39 1905.97,-105.7 1902.91,-104.94"/>
<polygon fill="#63b8ff" stroke="#63b8ff" points="2361.2,-158.46 2371.33,-155.36 2361.47,-151.47 2361.2,-158.46"/>
</g>
<!-- Node69 -->
<g id="node28" class="node">
<title>Node69</title>
<g id="a_node28"><a xlink:href="d__a__tag__telop_8h.html" target="_top" xlink:title=" ">
<polygon fill="white" stroke="#666666" points="2039,-107 1921,-107 1921,-66 2039,-66 2039,-107"/>
<text text-anchor="start" x="1929" y="-95" font-family="Helvetica,sans-Serif" font-size="10.00">include/rel/d/a/tag</text>
<text text-anchor="start" x="1929" y="-84" font-family="Helvetica,sans-Serif" font-size="10.00">/d_a_tag_telop/d_a_tag</text>
<text text-anchor="middle" x="1980" y="-73" font-family="Helvetica,sans-Serif" font-size="10.00">_telop.h</text>
</a>
</g>
</g>
<!-- Node3&#45;&gt;Node69 -->
<g id="edge29" class="edge">
<title>Node3&#45;&gt;Node69</title>
<path fill="none" stroke="#63b8ff" d="M2361.37,-151.15C2285.29,-143.78 2157.35,-129.34 2049,-107 2045.83,-106.35 2042.59,-105.62 2039.33,-104.86"/>
<polygon fill="#63b8ff" stroke="#63b8ff" points="2360.87,-154.61 2371.16,-152.08 2361.54,-147.65 2360.87,-154.61"/>
</g>
<!-- Node70 -->
<g id="node29" class="node">
<title>Node70</title>
<g id="a_node29"><a xlink:href="c__dylink_8cpp.html" target="_top" xlink:title=" ">
<polygon fill="white" stroke="#666666" points="2152.5,-96 2057.5,-96 2057.5,-77 2152.5,-77 2152.5,-96"/>
<text text-anchor="middle" x="2105" y="-84" font-family="Helvetica,sans-Serif" font-size="10.00">src/c/c_dylink.cpp</text>
</a>
</g>
</g>
<!-- Node3&#45;&gt;Node70 -->
<g id="edge30" class="edge">
<title>Node3&#45;&gt;Node70</title>
<path fill="none" stroke="#63b8ff" d="M2361.54,-147.23C2307.37,-138.62 2229.13,-124.69 2162,-107 2150.88,-104.07 2138.79,-100.06 2128.62,-96.43"/>
<polygon fill="#63b8ff" stroke="#63b8ff" points="2360.8,-150.66 2371.23,-148.75 2361.89,-143.74 2360.8,-150.66"/>
</g>
<!-- Node71 -->
<g id="node30" class="node">
<title>Node71</title>
<g id="a_node30"><a xlink:href="d__a__itembase_8cpp.html" target="_top" xlink:title=" ">
<polygon fill="white" stroke="#666666" points="2299,-96 2171,-96 2171,-77 2299,-77 2299,-96"/>
<text text-anchor="middle" x="2235" y="-84" font-family="Helvetica,sans-Serif" font-size="10.00">src/d/a/d_a_itembase.cpp</text>
</a>
</g>
</g>
<!-- Node3&#45;&gt;Node71 -->
<g id="edge32" class="edge">
<title>Node3&#45;&gt;Node71</title>
<path fill="none" stroke="#63b8ff" d="M2377.21,-138.71C2339.42,-125.1 2289.47,-107.11 2259.93,-96.48"/>
<polygon fill="#63b8ff" stroke="#63b8ff" points="2375.99,-141.99 2386.59,-142.09 2378.36,-135.41 2375.99,-141.99"/>
</g>
<!-- Node72 -->
<g id="node31" class="node">
<title>Node72</title>
<g id="a_node31"><a xlink:href="d__a__obj_8cpp.html" target="_top" xlink:title=" ">
<polygon fill="white" stroke="#666666" points="2418.5,-96 2317.5,-96 2317.5,-77 2418.5,-77 2418.5,-96"/>
<text text-anchor="middle" x="2368" y="-84" font-family="Helvetica,sans-Serif" font-size="10.00">src/d/a/d_a_obj.cpp</text>
</a>
</g>
</g>
<!-- Node3&#45;&gt;Node72 -->
<g id="edge33" class="edge">
<title>Node3&#45;&gt;Node72</title>
<path fill="none" stroke="#63b8ff" d="M2408.24,-134.12C2397.03,-121.13 2383.65,-105.63 2375.49,-96.18"/>
<polygon fill="#63b8ff" stroke="#63b8ff" points="2405.39,-136.17 2414.58,-141.45 2410.69,-131.6 2405.39,-136.17"/>
</g>
<!-- Node73 -->
<g id="node32" class="node">
<title>Node73</title>
<g id="a_node32"><a xlink:href="d__bg__s_8cpp.html" target="_top" xlink:title=" ">
<polygon fill="white" stroke="#666666" points="2541,-96 2437,-96 2437,-77 2541,-77 2541,-96"/>
<text text-anchor="middle" x="2489" y="-84" font-family="Helvetica,sans-Serif" font-size="10.00">src/d/bg/d_bg_s.cpp</text>
</a>
</g>
</g>
<!-- Node3&#45;&gt;Node73 -->
<g id="edge36" class="edge">
<title>Node3&#45;&gt;Node73</title>
<path fill="none" stroke="#63b8ff" d="M2448.09,-134.12C2459.48,-121.13 2473.09,-105.63 2481.38,-96.18"/>
<polygon fill="#63b8ff" stroke="#63b8ff" points="2445.6,-131.64 2441.64,-141.46 2450.86,-136.26 2445.6,-131.64"/>
</g>
<!-- Node74 -->
<g id="node33" class="node">
<title>Node74</title>
<g id="a_node33"><a xlink:href="d__bg__s__movebg__actor_8cpp.html" target="_top" xlink:title=" ">
<polygon fill="white" stroke="#666666" points="2685,-101.5 2559,-101.5 2559,-71.5 2685,-71.5 2685,-101.5"/>
<text text-anchor="start" x="2567" y="-89.5" font-family="Helvetica,sans-Serif" font-size="10.00">src/d/bg/d_bg_s_movebg</text>
<text text-anchor="middle" x="2622" y="-78.5" font-family="Helvetica,sans-Serif" font-size="10.00">_actor.cpp</text>
</a>
</g>
</g>
<!-- Node3&#45;&gt;Node74 -->
<g id="edge37" class="edge">
<title>Node3&#45;&gt;Node74</title>
<path fill="none" stroke="#63b8ff" d="M2478.74,-138.82C2510.91,-127.3 2551.95,-112.59 2581.85,-101.88"/>
<polygon fill="#63b8ff" stroke="#63b8ff" points="2477.86,-135.42 2469.62,-142.09 2480.22,-142.01 2477.86,-135.42"/>
</g>
<!-- Node75 -->
<g id="node34" class="node">
<title>Node75</title>
<g id="a_node34"><a xlink:href="d__bg__w_8cpp.html" target="_top" xlink:title=" ">
<polygon fill="white" stroke="#666666" points="2810.5,-96 2703.5,-96 2703.5,-77 2810.5,-77 2810.5,-96"/>
<text text-anchor="middle" x="2757" y="-84" font-family="Helvetica,sans-Serif" font-size="10.00">src/d/bg/d_bg_w.cpp</text>
</a>
</g>
</g>
<!-- Node3&#45;&gt;Node75 -->
<g id="edge38" class="edge">
<title>Node3&#45;&gt;Node75</title>
<path fill="none" stroke="#63b8ff" d="M2494.58,-146.66C2548.66,-137.74 2626.72,-123.68 2694,-107 2706.11,-104 2719.33,-100.02 2730.52,-96.43"/>
<polygon fill="#63b8ff" stroke="#63b8ff" points="2494.22,-143.17 2484.91,-148.24 2495.34,-150.08 2494.22,-143.17"/>
</g>
<!-- Node76 -->
<g id="node35" class="node">
<title>Node76</title>
<g id="a_node35"><a xlink:href="d__cc__s_8cpp.html" target="_top" xlink:title=" ">
<polygon fill="white" stroke="#666666" points="2933,-96 2829,-96 2829,-77 2933,-77 2933,-96"/>
<text text-anchor="middle" x="2881" y="-84" font-family="Helvetica,sans-Serif" font-size="10.00">src/d/cc/d_cc_s.cpp</text>
</a>
</g>
</g>
<!-- Node3&#45;&gt;Node76 -->
<g id="edge39" class="edge">
<title>Node3&#45;&gt;Node76</title>
<path fill="none" stroke="#63b8ff" d="M2494.57,-152.23C2573.08,-145.76 2707.16,-132.01 2820,-107 2832.27,-104.28 2845.59,-100.16 2856.65,-96.41"/>
<polygon fill="#63b8ff" stroke="#63b8ff" points="2494.6,-148.72 2484.91,-153.01 2495.16,-155.7 2494.6,-148.72"/>
</g>
<!-- Node77 -->
<g id="node36" class="node">
<title>Node77</title>
<g id="a_node36"><a xlink:href="d__com__static_8cpp.html" target="_top" xlink:title=" ">
<polygon fill="white" stroke="#666666" points="3091,-96 2951,-96 2951,-77 3091,-77 3091,-96"/>
<text text-anchor="middle" x="3021" y="-84" font-family="Helvetica,sans-Serif" font-size="10.00">src/d/com/d_com_static.cpp</text>
</a>
</g>
</g>
<!-- Node3&#45;&gt;Node77 -->
<g id="edge41" class="edge">
<title>Node3&#45;&gt;Node77</title>
<path fill="none" stroke="#63b8ff" d="M2494.75,-153.6C2593.19,-147.9 2782.82,-134.24 2942,-107 2957.73,-104.31 2974.97,-100.19 2989.32,-96.44"/>
<polygon fill="#63b8ff" stroke="#63b8ff" points="2494.79,-150.1 2485.01,-154.16 2495.19,-157.09 2494.79,-150.1"/>
</g>
<!-- Node78 -->
<g id="node37" class="node">
<title>Node78</title>
<g id="a_node37"><a xlink:href="d__attention_8cpp.html" target="_top" xlink:title=" ">
<polygon fill="white" stroke="#666666" points="3216.5,-96 3109.5,-96 3109.5,-77 3216.5,-77 3216.5,-96"/>
<text text-anchor="middle" x="3163" y="-84" font-family="Helvetica,sans-Serif" font-size="10.00">src/d/d_attention.cpp</text>
</a>
</g>
</g>
<!-- Node3&#45;&gt;Node78 -->
<g id="edge42" class="edge">
<title>Node3&#45;&gt;Node78</title>
<path fill="none" stroke="#63b8ff" d="M2494.73,-157C2616.22,-155.9 2881.19,-148.45 3100,-107 3112.94,-104.55 3126.96,-100.37 3138.49,-96.5"/>
<polygon fill="#63b8ff" stroke="#63b8ff" points="2494.91,-153.5 2484.94,-157.08 2494.97,-160.5 2494.91,-153.5"/>
</g>
<!-- Node79 -->
<g id="node38" class="node">
<title>Node79</title>
<g id="a_node38"><a xlink:href="d__cam__param_8cpp.html" target="_top" xlink:title=" ">
<polygon fill="white" stroke="#666666" points="3355.5,-96 3234.5,-96 3234.5,-77 3355.5,-77 3355.5,-96"/>
<text text-anchor="middle" x="3295" y="-84" font-family="Helvetica,sans-Serif" font-size="10.00">src/d/d_cam_param.cpp</text>
</a>
</g>
</g>
<!-- Node3&#45;&gt;Node79 -->
<g id="edge43" class="edge">
<title>Node3&#45;&gt;Node79</title>
<path fill="none" stroke="#63b8ff" d="M2494.27,-157.59C2631.73,-157.77 2957.48,-152.82 3226,-107 3240.23,-104.57 3255.74,-100.34 3268.43,-96.44"/>
<polygon fill="#63b8ff" stroke="#63b8ff" points="2494.65,-154.09 2484.64,-157.57 2494.63,-161.09 2494.65,-154.09"/>
</g>
<!-- Node80 -->
<g id="node39" class="node">
<title>Node80</title>
<g id="a_node39"><a xlink:href="d__camera_8cpp.html" target="_top" xlink:title=" ">
<polygon fill="white" stroke="#666666" points="3476,-96 3374,-96 3374,-77 3476,-77 3476,-96"/>
<text text-anchor="middle" x="3425" y="-84" font-family="Helvetica,sans-Serif" font-size="10.00">src/d/d_camera.cpp</text>
</a>
</g>
</g>
<!-- Node3&#45;&gt;Node80 -->
<g id="edge44" class="edge">
<title>Node3&#45;&gt;Node80</title>
<path fill="none" stroke="#63b8ff" d="M2494.83,-155.7C2680.14,-151.72 3197.81,-138.07 3365,-107 3377.6,-104.66 3391.21,-100.38 3402.29,-96.43"/>
<polygon fill="#63b8ff" stroke="#63b8ff" points="2494.81,-152.2 2484.89,-155.91 2494.96,-159.19 2494.81,-152.2"/>
</g>
<!-- Node81 -->
<g id="node40" class="node">
<title>Node81</title>
<g id="a_node40"><a xlink:href="d__eye__hl_8cpp.html" target="_top" xlink:title=" ">
<polygon fill="white" stroke="#666666" points="3592,-96 3494,-96 3494,-77 3592,-77 3592,-96"/>
<text text-anchor="middle" x="3543" y="-84" font-family="Helvetica,sans-Serif" font-size="10.00">src/d/d_eye_hl.cpp</text>
</a>
</g>
</g>
<!-- Node3&#45;&gt;Node81 -->
<g id="edge46" class="edge">
<title>Node3&#45;&gt;Node81</title>
<path fill="none" stroke="#63b8ff" d="M2494.65,-156.26C2695.66,-153.63 3293.83,-142.93 3485,-107 3497.22,-104.7 3510.38,-100.43 3521.07,-96.47"/>
<polygon fill="#63b8ff" stroke="#63b8ff" points="2494.87,-152.75 2484.91,-156.38 2494.96,-159.75 2494.87,-152.75"/>
</g>
<!-- Node82 -->
<g id="node41" class="node">
<title>Node82</title>
<g id="a_node41"><a xlink:href="d__kyeff_8cpp.html" target="_top" xlink:title=" ">
<polygon fill="white" stroke="#666666" points="3700,-96 3610,-96 3610,-77 3700,-77 3700,-96"/>
<text text-anchor="middle" x="3655" y="-84" font-family="Helvetica,sans-Serif" font-size="10.00">src/d/d_kyeff.cpp</text>
</a>
</g>
</g>
<!-- Node3&#45;&gt;Node82 -->
<g id="edge47" class="edge">
<title>Node3&#45;&gt;Node82</title>
<path fill="none" stroke="#63b8ff" d="M2494.89,-156.81C2710.72,-155.78 3386.95,-149.18 3601,-107 3612.54,-104.73 3624.91,-100.41 3634.9,-96.41"/>
<polygon fill="#63b8ff" stroke="#63b8ff" points="2494.95,-153.31 2484.97,-156.85 2494.98,-160.31 2494.95,-153.31"/>
</g>
<!-- Node83 -->
<g id="node42" class="node">
<title>Node83</title>
<g id="a_node42"><a xlink:href="d__path_8cpp.html" target="_top" xlink:title=" ">
<polygon fill="white" stroke="#666666" points="3807.5,-96 3718.5,-96 3718.5,-77 3807.5,-77 3807.5,-96"/>
<text text-anchor="middle" x="3763" y="-84" font-family="Helvetica,sans-Serif" font-size="10.00">src/d/d_path.cpp</text>
</a>
</g>
</g>
<!-- Node3&#45;&gt;Node83 -->
<g id="edge48" class="edge">
<title>Node3&#45;&gt;Node83</title>
<path fill="none" stroke="#63b8ff" d="M2494.79,-157.09C2723.35,-156.99 3473.09,-153.05 3709,-107 3720.54,-104.75 3732.92,-100.43 3742.91,-96.43"/>
<polygon fill="#63b8ff" stroke="#63b8ff" points="2494.86,-153.59 2484.86,-157.09 2494.86,-160.59 2494.86,-153.59"/>
</g>
<!-- Node84 -->
<g id="node43" class="node">
<title>Node84</title>
<g id="a_node43"><a xlink:href="d__resorce_8cpp.html" target="_top" xlink:title=" ">
<polygon fill="white" stroke="#666666" points="3928,-96 3826,-96 3826,-77 3928,-77 3928,-96"/>
<text text-anchor="middle" x="3877" y="-84" font-family="Helvetica,sans-Serif" font-size="10.00">src/d/d_resorce.cpp</text>
</a>
</g>
</g>
<!-- Node3&#45;&gt;Node84 -->
<g id="edge49" class="edge">
<title>Node3&#45;&gt;Node84</title>
<path fill="none" stroke="#63b8ff" d="M2494.65,-157.05C2735.25,-156.85 3558.38,-152.76 3817,-107 3829.73,-104.75 3843.47,-100.43 3854.59,-96.43"/>
<polygon fill="#63b8ff" stroke="#63b8ff" points="2494.81,-153.55 2484.82,-157.06 2494.82,-160.55 2494.81,-153.55"/>
</g>
<!-- Node85 -->
<g id="node44" class="node">
<title>Node85</title>
<g id="a_node44"><a xlink:href="d__simple__model_8cpp.html" target="_top" xlink:title=" ">
<polygon fill="white" stroke="#666666" points="4076,-96 3946,-96 3946,-77 4076,-77 4076,-96"/>
<text text-anchor="middle" x="4011" y="-84" font-family="Helvetica,sans-Serif" font-size="10.00">src/d/d_simple_model.cpp</text>
</a>
</g>
</g>
<!-- Node3&#45;&gt;Node85 -->
<g id="edge50" class="edge">
<title>Node3&#45;&gt;Node85</title>
<path fill="none" stroke="#63b8ff" d="M2494.34,-156.78C2747.46,-155.64 3652.51,-148.66 3937,-107 3952.51,-104.73 3969.45,-100.41 3983.2,-96.41"/>
<polygon fill="#63b8ff" stroke="#63b8ff" points="2494.64,-153.28 2484.65,-156.82 2494.67,-160.28 2494.64,-153.28"/>
</g>
<!-- Node86 -->
<g id="node45" class="node">
<title>Node86</title>
<g id="a_node45"><a xlink:href="d__stage_8cpp.html" target="_top" xlink:title=" ">
<polygon fill="white" stroke="#666666" points="4188,-96 4094,-96 4094,-77 4188,-77 4188,-96"/>
<text text-anchor="middle" x="4141" y="-84" font-family="Helvetica,sans-Serif" font-size="10.00">src/d/d_stage.cpp</text>
</a>
</g>
</g>
<!-- Node3&#45;&gt;Node86 -->
<g id="edge51" class="edge">
<title>Node3&#45;&gt;Node86</title>
<path fill="none" stroke="#63b8ff" d="M2494.59,-156.19C2784.25,-152.49 3927.03,-136.17 4085,-107 4096.95,-104.79 4109.78,-100.48 4120.14,-96.47"/>
<polygon fill="#63b8ff" stroke="#63b8ff" points="2494.91,-152.68 2484.96,-156.31 2495,-159.68 2494.91,-152.68"/>
</g>
<!-- Node87 -->
<g id="node46" class="node">
<title>Node87</title>
<g id="a_node46"><a xlink:href="d__timer_8cpp.html" target="_top" xlink:title=" ">
<polygon fill="white" stroke="#666666" points="4298,-96 4206,-96 4206,-77 4298,-77 4298,-96"/>
<text text-anchor="middle" x="4252" y="-84" font-family="Helvetica,sans-Serif" font-size="10.00">src/d/d_timer.cpp</text>
</a>
</g>
</g>
<!-- Node3&#45;&gt;Node87 -->
<g id="edge52" class="edge">
<title>Node3&#45;&gt;Node87</title>
<path fill="none" stroke="#63b8ff" d="M2494.6,-156.35C2796.32,-153.22 4027.59,-138.61 4197,-107 4208.75,-104.81 4221.36,-100.49 4231.53,-96.48"/>
<polygon fill="#63b8ff" stroke="#63b8ff" points="2494.91,-152.84 2484.94,-156.45 2494.98,-159.84 2494.91,-152.84"/>
</g>
<!-- Node88 -->
<g id="node47" class="node">
<title>Node88</title>
<g id="a_node47"><a xlink:href="d__tresure_8cpp.html" target="_top" xlink:title=" ">
<polygon fill="white" stroke="#666666" points="4416,-96 4316,-96 4316,-77 4416,-77 4416,-96"/>
<text text-anchor="middle" x="4366" y="-84" font-family="Helvetica,sans-Serif" font-size="10.00">src/d/d_tresure.cpp</text>
</a>
</g>
</g>
<!-- Node3&#45;&gt;Node88 -->
<g id="edge53" class="edge">
<title>Node3&#45;&gt;Node88</title>
<path fill="none" stroke="#63b8ff" d="M2494.61,-156.38C2807.75,-153.32 4125.9,-138.63 4307,-107 4319.54,-104.81 4333.06,-100.5 4343.98,-96.48"/>
<polygon fill="#63b8ff" stroke="#63b8ff" points="2494.94,-152.88 2484.97,-156.47 2495.01,-159.88 2494.94,-152.88"/>
</g>
<!-- Node16&#45;&gt;Node13 -->
<g id="edge6" class="edge">
<title>Node16&#45;&gt;Node13</title>
<path fill="none" stroke="#63b8ff" d="M4716.75,-72.64C4708.81,-69.92 4700.2,-67.44 4692,-66 4506.64,-33.35 1529.17,-18.31 1086.78,-16.25"/>
<polygon fill="#63b8ff" stroke="#63b8ff" points="4715.4,-75.87 4726,-76.03 4717.81,-69.3 4715.4,-75.87"/>
</g>
<!-- Node16&#45;&gt;Node17 -->
<g id="edge7" class="edge">
<title>Node16&#45;&gt;Node17</title>
<path fill="none" stroke="#63b8ff" d="M4758.15,-66.93C4765.58,-53.35 4775.33,-35.51 4781.11,-24.95"/>
<polygon fill="#63b8ff" stroke="#63b8ff" points="4755.27,-64.92 4753.54,-75.37 4761.41,-68.27 4755.27,-64.92"/>
</g>
<!-- Node16&#45;&gt;Node18 -->
<g id="edge8" class="edge">
<title>Node16&#45;&gt;Node18</title>
<path fill="none" stroke="#63b8ff" d="M4716.53,-72.68C4708.64,-69.99 4700.12,-67.51 4692,-66 4406.2,-12.75 3479.35,-14.33 3245.15,-15.62"/>
<polygon fill="#63b8ff" stroke="#63b8ff" points="4715.12,-75.89 4725.71,-76.03 4717.52,-69.32 4715.12,-75.89"/>
</g>
<!-- Node40&#45;&gt;Node13 -->
<g id="edge16" class="edge">
<title>Node40&#45;&gt;Node13</title>
<path fill="none" stroke="#63b8ff" d="M228.22,-68.33C232.19,-67.45 236.14,-66.66 240,-66 382.26,-41.69 822.09,-23.68 977.18,-17.94"/>
<polygon fill="#63b8ff" stroke="#63b8ff" points="227.46,-64.92 218.56,-70.67 229.1,-71.72 227.46,-64.92"/>
</g>
<!-- Node40&#45;&gt;Node45 -->
<g id="edge17" class="edge">
<title>Node40&#45;&gt;Node45</title>
<path fill="none" stroke="#63b8ff" d="M135.49,-65.6C111.52,-52.16 81.05,-35.09 62.84,-24.88"/>
<polygon fill="#63b8ff" stroke="#63b8ff" points="133.55,-68.52 143.99,-70.36 136.97,-62.42 133.55,-68.52"/>
</g>
<!-- Node40&#45;&gt;Node46 -->
<g id="edge18" class="edge">
<title>Node40&#45;&gt;Node46</title>
<path fill="none" stroke="#63b8ff" d="M171.73,-59.96C172.09,-47.57 172.5,-33.49 172.75,-24.68"/>
<polygon fill="#63b8ff" stroke="#63b8ff" points="168.25,-59.49 171.46,-69.59 175.24,-59.69 168.25,-59.49"/>
</g>
<!-- Node40&#45;&gt;Node47 -->
<g id="edge19" class="edge">
<title>Node40&#45;&gt;Node47</title>
<path fill="none" stroke="#63b8ff" d="M229.73,-68.31C233.19,-67.48 236.64,-66.7 240,-66 350.81,-42.89 482.8,-27.88 554.09,-20.79"/>
<polygon fill="#63b8ff" stroke="#63b8ff" points="228.98,-64.89 220.14,-70.73 230.69,-71.67 228.98,-64.89"/>
</g>
<!-- Node66&#45;&gt;Node13 -->
<g id="edge26" class="edge">
<title>Node66&#45;&gt;Node13</title>
<path fill="none" stroke="#63b8ff" d="M4840.5,-70.87C4828.7,-68.88 4816.54,-67.14 4805,-66 4611.72,-46.91 1537.75,-20.27 1087,-16.46"/>
<polygon fill="#63b8ff" stroke="#63b8ff" points="4839.72,-74.29 4850.17,-72.58 4840.93,-67.4 4839.72,-74.29"/>
</g>
<!-- Node66&#45;&gt;Node67 -->
<g id="edge27" class="edge">
<title>Node66&#45;&gt;Node67</title>
<path fill="none" stroke="#63b8ff" d="M4936.43,-64.14C4952.75,-50.95 4972.83,-34.72 4985.01,-24.88"/>
<polygon fill="#63b8ff" stroke="#63b8ff" points="4934.57,-61.14 4929,-70.15 4938.97,-66.58 4934.57,-61.14"/>
</g>
<!-- Node108&#45;&gt;Node67 -->
<g id="edge58" class="edge">
<title>Node108&#45;&gt;Node67</title>
<path fill="none" stroke="#63b8ff" d="M3921.2,-156.56C4186.06,-154.78 4972.44,-146.2 5010,-107 5031.68,-84.38 5011.95,-43.05 5001.52,-24.93"/>
<polygon fill="#63b8ff" stroke="#63b8ff" points="3921.23,-153.06 3911.25,-156.62 3921.28,-160.06 3921.23,-153.06"/>
</g>
</g>
</svg>
