<?xml version="1.0" encoding="UTF-8" standalone="no"?>
<!DOCTYPE svg PUBLIC "-//W3C//DTD SVG 1.1//EN"
 "http://www.w3.org/Graphics/SVG/1.1/DTD/svg11.dtd">
<!-- Generated by graphviz version 7.0.4 (20221203.1631)
 -->
<!-- Title: include/d/particle/d_particle_name.h Pages: 1 -->
<svg width="4819pt" height="379pt"
 viewBox="0.00 0.00 4819.31 379.00" xmlns="http://www.w3.org/2000/svg" xmlns:xlink="http://www.w3.org/1999/xlink">
<g id="graph0" class="graph" transform="scale(1 1) rotate(0) translate(4 375)">
<title>include/d/particle/d_particle_name.h</title>
<!-- Node1 -->
<g id="node1" class="node">
<title>Node1</title>
<g id="a_node1"><a xlink:title=" ">
<polygon fill="#999999" stroke="#666666" points="4208,-371 4110,-371 4110,-341 4208,-341 4208,-371"/>
<text text-anchor="start" x="4118" y="-359" font-family="Helvetica,sans-Serif" font-size="10.00">include/d/particle</text>
<text text-anchor="middle" x="4159" y="-348" font-family="Helvetica,sans-Serif" font-size="10.00">/d_particle_name.h</text>
</a>
</g>
</g>
<!-- Node2 -->
<g id="node2" class="node">
<title>Node2</title>
<g id="a_node2"><a xlink:href="d__particle_8h.html" target="_top" xlink:title=" ">
<polygon fill="white" stroke="#666666" points="4143,-305 4053,-305 4053,-275 4143,-275 4143,-305"/>
<text text-anchor="start" x="4061" y="-293" font-family="Helvetica,sans-Serif" font-size="10.00">include/d/particle</text>
<text text-anchor="middle" x="4098" y="-282" font-family="Helvetica,sans-Serif" font-size="10.00">/d_particle.h</text>
</a>
</g>
</g>
<!-- Node1&#45;&gt;Node2 -->
<g id="edge1" class="edge">
<title>Node1&#45;&gt;Node2</title>
<path fill="none" stroke="#63b8ff" d="M4137.58,-332.53C4128.91,-323.43 4119.15,-313.19 4111.5,-305.16"/>
<polygon fill="#63b8ff" stroke="#63b8ff" points="4134.98,-334.88 4144.42,-339.7 4140.05,-330.05 4134.98,-334.88"/>
</g>
<!-- Node113 -->
<g id="node50" class="node">
<title>Node113</title>
<g id="a_node50"><a xlink:href="d__particle__name_8cpp.html" target="_top" xlink:title=" ">
<polygon fill="white" stroke="#666666" points="4279,-305 4161,-305 4161,-275 4279,-275 4279,-305"/>
<text text-anchor="start" x="4169" y="-293" font-family="Helvetica,sans-Serif" font-size="10.00">src/d/particle/d_particle</text>
<text text-anchor="middle" x="4220" y="-282" font-family="Helvetica,sans-Serif" font-size="10.00">_name.cpp</text>
</a>
</g>
</g>
<!-- Node1&#45;&gt;Node113 -->
<g id="edge60" class="edge">
<title>Node1&#45;&gt;Node113</title>
<path fill="none" stroke="#63b8ff" d="M4180.42,-332.53C4189.09,-323.43 4198.85,-313.19 4206.5,-305.16"/>
<polygon fill="#63b8ff" stroke="#63b8ff" points="4177.95,-330.05 4173.58,-339.7 4183.02,-334.88 4177.95,-330.05"/>
</g>
<!-- Node3 -->
<g id="node3" class="node">
<title>Node3</title>
<g id="a_node3"><a xlink:href="d__a__alink_8h.html" target="_top" xlink:title=" ">
<polygon fill="white" stroke="#666666" points="2376,-233.5 2260,-233.5 2260,-214.5 2376,-214.5 2376,-233.5"/>
<text text-anchor="middle" x="2318" y="-221.5" font-family="Helvetica,sans-Serif" font-size="10.00">include/d/a/d_a_alink.h</text>
</a>
</g>
</g>
<!-- Node2&#45;&gt;Node3 -->
<g id="edge2" class="edge">
<title>Node2&#45;&gt;Node3</title>
<path fill="none" stroke="#63b8ff" d="M4041.34,-286.96C3774.61,-277.37 2645.75,-236.78 2376.05,-227.09"/>
<polygon fill="#63b8ff" stroke="#63b8ff" points="4041.03,-290.45 4051.15,-287.32 4041.28,-283.46 4041.03,-290.45"/>
</g>
<!-- Node4 -->
<g id="node4" class="node">
<title>Node4</title>
<g id="a_node4"><a xlink:href="d__com__inf__game_8h.html" target="_top" xlink:title=" ">
<polygon fill="#fff0f0" stroke="red" points="2373,-173 2263,-173 2263,-143 2373,-143 2373,-173"/>
<text text-anchor="start" x="2271" y="-161" font-family="Helvetica,sans-Serif" font-size="10.00">include/d/com/d_com</text>
<text text-anchor="middle" x="2318" y="-150" font-family="Helvetica,sans-Serif" font-size="10.00">_inf_game.h</text>
</a>
</g>
</g>
<!-- Node2&#45;&gt;Node4 -->
<g id="edge57" class="edge">
<title>Node2&#45;&gt;Node4</title>
<path fill="none" stroke="#63b8ff" d="M4041.3,-284.86C3773.6,-265.31 2638.1,-182.38 2373.34,-163.04"/>
<polygon fill="#63b8ff" stroke="#63b8ff" points="4040.92,-288.34 4051.15,-285.58 4041.43,-281.36 4040.92,-288.34"/>
</g>
<!-- Node97 -->
<g id="node45" class="node">
<title>Node97</title>
<g id="a_node45"><a xlink:href="d__particle_8cpp.html" target="_top" xlink:title=" ">
<polygon fill="white" stroke="#666666" points="4794,-96 4658,-96 4658,-77 4794,-77 4794,-96"/>
<text text-anchor="middle" x="4726" y="-84" font-family="Helvetica,sans-Serif" font-size="10.00">src/d/particle/d_particle.cpp</text>
</a>
</g>
</g>
<!-- Node2&#45;&gt;Node97 -->
<g id="edge59" class="edge">
<title>Node2&#45;&gt;Node97</title>
<path fill="none" stroke="#63b8ff" d="M4092.96,-263.84C4087.98,-230.88 4085.22,-173.67 4118,-143 4159.97,-103.73 4577.08,-114.98 4634,-107 4652.43,-104.42 4672.69,-100.27 4689.5,-96.46"/>
<polygon fill="#63b8ff" stroke="#63b8ff" points="4089.44,-264.04 4094.58,-273.3 4096.34,-262.86 4089.44,-264.04"/>
</g>
<!-- Node109 -->
<g id="node46" class="node">
<title>Node109</title>
<g id="a_node46"><a xlink:href="d__a__item__static_8h.html" target="_top" xlink:title=" ">
<polygon fill="white" stroke="#666666" points="4240.5,-239 4133.5,-239 4133.5,-209 4240.5,-209 4240.5,-239"/>
<text text-anchor="start" x="4141.5" y="-227" font-family="Helvetica,sans-Serif" font-size="10.00">include/d/a/d_a_item</text>
<text text-anchor="middle" x="4187" y="-216" font-family="Helvetica,sans-Serif" font-size="10.00">_static.h</text>
</a>
</g>
</g>
<!-- Node2&#45;&gt;Node109 -->
<g id="edge53" class="edge">
<title>Node2&#45;&gt;Node109</title>
<path fill="none" stroke="#63b8ff" d="M4126.86,-268.25C4139.97,-258.82 4155.16,-247.9 4167,-239.39"/>
<polygon fill="#63b8ff" stroke="#63b8ff" points="4125.06,-265.23 4118.98,-273.91 4129.14,-270.92 4125.06,-265.23"/>
</g>
<!-- Node112 -->
<g id="node49" class="node">
<title>Node112</title>
<g id="a_node49"><a xlink:href="d__a__arrow_8h.html" target="_top" xlink:title=" ">
<polygon fill="white" stroke="#666666" points="4359.5,-239 4258.5,-239 4258.5,-209 4359.5,-209 4359.5,-239"/>
<text text-anchor="start" x="4266.5" y="-227" font-family="Helvetica,sans-Serif" font-size="10.00">include/rel/d/a/d_a</text>
<text text-anchor="middle" x="4309" y="-216" font-family="Helvetica,sans-Serif" font-size="10.00">_arrow/d_a_arrow.h</text>
</a>
</g>
</g>
<!-- Node2&#45;&gt;Node112 -->
<g id="edge58" class="edge">
<title>Node2&#45;&gt;Node112</title>
<path fill="none" stroke="#63b8ff" d="M4154.23,-271.94C4187.61,-261.82 4229.48,-249.12 4261.25,-239.48"/>
<polygon fill="#63b8ff" stroke="#63b8ff" points="4153.27,-268.58 4144.71,-274.83 4155.3,-275.28 4153.27,-268.58"/>
</g>
<!-- Node3&#45;&gt;Node4 -->
<g id="edge3" class="edge">
<title>Node3&#45;&gt;Node4</title>
<path fill="none" stroke="#63b8ff" d="M2318,-202.78C2318,-193.17 2318,-181.92 2318,-173.23"/>
<polygon fill="#63b8ff" stroke="#63b8ff" points="2314.5,-202.59 2318,-212.59 2321.5,-202.59 2314.5,-202.59"/>
</g>
<!-- Node14 -->
<g id="node8" class="node">
<title>Node14</title>
<g id="a_node8"><a xlink:href="d__a__alink_8cpp.html" target="_top" xlink:title=" ">
<polygon fill="white" stroke="#666666" points="244.5,-24.5 135.5,-24.5 135.5,-5.5 244.5,-5.5 244.5,-24.5"/>
<text text-anchor="middle" x="190" y="-12.5" font-family="Helvetica,sans-Serif" font-size="10.00">src/d/a/d_a_alink.cpp</text>
</a>
</g>
</g>
<!-- Node3&#45;&gt;Node14 -->
<g id="edge52" class="edge">
<title>Node3&#45;&gt;Node14</title>
<path fill="none" stroke="#63b8ff" d="M2248.25,-222.12C1874.3,-217.04 120.86,-188.93 43,-107 30.45,-93.79 32.39,-80.82 43,-66 55.32,-48.8 107.82,-33.89 146.58,-24.93"/>
<polygon fill="#63b8ff" stroke="#63b8ff" points="2248.12,-225.61 2258.17,-222.25 2248.22,-218.61 2248.12,-225.61"/>
</g>
<!-- Node5 -->
<g id="node5" class="node">
<title>Node5</title>
<g id="a_node5"><a xlink:href="d__a__npc_8h.html" target="_top" xlink:title=" ">
<polygon fill="#fff0f0" stroke="red" points="463.5,-96 352.5,-96 352.5,-77 463.5,-77 463.5,-96"/>
<text text-anchor="middle" x="408" y="-84" font-family="Helvetica,sans-Serif" font-size="10.00">include/d/a/d_a_npc.h</text>
</a>
</g>
</g>
<!-- Node4&#45;&gt;Node5 -->
<g id="edge4" class="edge">
<title>Node4&#45;&gt;Node5</title>
<path fill="none" stroke="#63b8ff" d="M2251.38,-157.37C1964.12,-158.62 830.2,-160.02 478,-107 463.28,-104.78 447.26,-100.47 434.26,-96.46"/>
<polygon fill="#63b8ff" stroke="#63b8ff" points="2251.33,-160.87 2261.31,-157.32 2251.3,-153.87 2251.33,-160.87"/>
</g>
<!-- Node11 -->
<g id="node6" class="node">
<title>Node11</title>
<g id="a_node6"><a xlink:href="d__cc__uty_8h.html" target="_top" xlink:title=" ">
<polygon fill="#fff0f0" stroke="red" points="4601.5,-96 4482.5,-96 4482.5,-77 4601.5,-77 4601.5,-96"/>
<text text-anchor="middle" x="4542" y="-84" font-family="Helvetica,sans-Serif" font-size="10.00">include/d/cc/d_cc_uty.h</text>
</a>
</g>
</g>
<!-- Node4&#45;&gt;Node11 -->
<g id="edge5" class="edge">
<title>Node4&#45;&gt;Node11</title>
<path fill="none" stroke="#63b8ff" d="M2384.7,-156.45C2725.3,-153.53 4262.59,-138.65 4473,-107 4487.53,-104.81 4503.32,-100.5 4516.13,-96.49"/>
<polygon fill="#63b8ff" stroke="#63b8ff" points="2384.81,-152.95 2374.84,-156.54 2384.87,-159.95 2384.81,-152.95"/>
</g>
<!-- Node17 -->
<g id="node7" class="node">
<title>Node17</title>
<g id="a_node7"><a xlink:href="d__item_8h.html" target="_top" xlink:title=" ">
<polygon fill="#fff0f0" stroke="red" points="615.5,-96 520.5,-96 520.5,-77 615.5,-77 615.5,-96"/>
<text text-anchor="middle" x="568" y="-84" font-family="Helvetica,sans-Serif" font-size="10.00">include/d/d_item.h</text>
</a>
</g>
</g>
<!-- Node4&#45;&gt;Node17 -->
<g id="edge6" class="edge">
<title>Node4&#45;&gt;Node17</title>
<path fill="none" stroke="#63b8ff" d="M2251.64,-156.11C1959.06,-152.05 791.63,-134.27 630,-107 616.87,-104.78 602.67,-100.47 591.18,-96.46"/>
<polygon fill="#63b8ff" stroke="#63b8ff" points="2251.33,-159.61 2261.38,-156.25 2251.43,-152.61 2251.33,-159.61"/>
</g>
<!-- Node4&#45;&gt;Node14 -->
<g id="edge30" class="edge">
<title>Node4&#45;&gt;Node14</title>
<path fill="none" stroke="#63b8ff" d="M2251.43,-156.55C1897.32,-154.02 249.19,-140.46 209,-107 184.44,-86.55 186.51,-43.3 188.7,-24.75"/>
<polygon fill="#63b8ff" stroke="#63b8ff" points="2251.21,-160.05 2261.24,-156.62 2251.26,-153.05 2251.21,-160.05"/>
</g>
<!-- Node18 -->
<g id="node9" class="node">
<title>Node18</title>
<g id="a_node9"><a xlink:href="d__a__obj__item_8cpp.html" target="_top" xlink:title=" ">
<polygon fill="white" stroke="#666666" points="4692.5,-24.5 4567.5,-24.5 4567.5,-5.5 4692.5,-5.5 4692.5,-24.5"/>
<text text-anchor="middle" x="4630" y="-12.5" font-family="Helvetica,sans-Serif" font-size="10.00">src/d/a/d_a_obj_item.cpp</text>
</a>
</g>
</g>
<!-- Node4&#45;&gt;Node18 -->
<g id="edge33" class="edge">
<title>Node4&#45;&gt;Node18</title>
<path fill="none" stroke="#63b8ff" d="M2384.6,-156.68C2757.07,-154.75 4567.05,-143.52 4611,-107 4635.58,-86.58 4633.5,-43.31 4631.3,-24.75"/>
<polygon fill="#63b8ff" stroke="#63b8ff" points="2384.73,-153.18 2374.74,-156.73 2384.76,-160.18 2384.73,-153.18"/>
</g>
<!-- Node19 -->
<g id="node10" class="node">
<title>Node19</title>
<g id="a_node10"><a xlink:href="d__com__inf__game_8cpp.html" target="_top" xlink:title=" ">
<polygon fill="white" stroke="#666666" points="660,-30 552,-30 552,0 660,0 660,-30"/>
<text text-anchor="start" x="560" y="-18" font-family="Helvetica,sans-Serif" font-size="10.00">src/d/com/d_com_inf</text>
<text text-anchor="middle" x="606" y="-7" font-family="Helvetica,sans-Serif" font-size="10.00">_game.cpp</text>
</a>
</g>
</g>
<!-- Node4&#45;&gt;Node19 -->
<g id="edge39" class="edge">
<title>Node4&#45;&gt;Node19</title>
<path fill="none" stroke="#63b8ff" d="M2251.63,-156.74C1951.53,-155.32 732.93,-147.11 663,-107 633.57,-90.12 617.18,-51.25 610.16,-30.18"/>
<polygon fill="#63b8ff" stroke="#63b8ff" points="2251.22,-160.23 2261.23,-156.78 2251.25,-153.23 2251.22,-160.23"/>
</g>
<!-- Node22 -->
<g id="node11" class="node">
<title>Node22</title>
<g id="a_node11"><a xlink:href="d__kantera__icon__meter_8h.html" target="_top" xlink:title=" ">
<polygon fill="#fff0f0" stroke="red" points="773.5,-101.5 672.5,-101.5 672.5,-71.5 773.5,-71.5 773.5,-101.5"/>
<text text-anchor="start" x="680.5" y="-89.5" font-family="Helvetica,sans-Serif" font-size="10.00">include/d/d_kantera</text>
<text text-anchor="middle" x="723" y="-78.5" font-family="Helvetica,sans-Serif" font-size="10.00">_icon_meter.h</text>
</a>
</g>
</g>
<!-- Node4&#45;&gt;Node22 -->
<g id="edge10" class="edge">
<title>Node4&#45;&gt;Node22</title>
<path fill="none" stroke="#63b8ff" d="M2251.25,-157.36C1994.48,-158.37 1070.47,-158.26 782,-107 775.2,-105.79 768.12,-103.97 761.31,-101.91"/>
<polygon fill="#63b8ff" stroke="#63b8ff" points="2251.11,-160.86 2261.1,-157.32 2251.08,-153.86 2251.11,-160.86"/>
</g>
<!-- Node25 -->
<g id="node12" class="node">
<title>Node25</title>
<g id="a_node12"><a xlink:href="d__model_8h.html" target="_top" xlink:title=" ">
<polygon fill="#fff0f0" stroke="red" points="894.5,-96 791.5,-96 791.5,-77 894.5,-77 894.5,-96"/>
<text text-anchor="middle" x="843" y="-84" font-family="Helvetica,sans-Serif" font-size="10.00">include/d/d_model.h</text>
</a>
</g>
</g>
<!-- Node4&#45;&gt;Node25 -->
<g id="edge11" class="edge">
<title>Node4&#45;&gt;Node25</title>
<path fill="none" stroke="#63b8ff" d="M2251.34,-157.1C2007.85,-157.09 1166.92,-153.6 903,-107 890.27,-104.75 876.53,-100.43 865.41,-96.43"/>
<polygon fill="#63b8ff" stroke="#63b8ff" points="2251.31,-160.6 2261.31,-157.1 2251.31,-153.6 2251.31,-160.6"/>
</g>
<!-- Node27 -->
<g id="node13" class="node">
<title>Node27</title>
<g id="a_node13"><a xlink:href="d__name_8h.html" target="_top" xlink:title=" ">
<polygon fill="#fff0f0" stroke="red" points="1013.5,-96 912.5,-96 912.5,-77 1013.5,-77 1013.5,-96"/>
<text text-anchor="middle" x="963" y="-84" font-family="Helvetica,sans-Serif" font-size="10.00">include/d/d_name.h</text>
</a>
</g>
</g>
<!-- Node4&#45;&gt;Node27 -->
<g id="edge12" class="edge">
<title>Node4&#45;&gt;Node27</title>
<path fill="none" stroke="#63b8ff" d="M2251.32,-156.85C2021.37,-155.94 1262.49,-149.69 1023,-107 1010.28,-104.73 996.53,-100.41 985.42,-96.41"/>
<polygon fill="#63b8ff" stroke="#63b8ff" points="2251.3,-160.35 2261.32,-156.88 2251.33,-153.35 2251.3,-160.35"/>
</g>
<!-- Node29 -->
<g id="node14" class="node">
<title>Node29</title>
<g id="a_node14"><a xlink:href="d__file__sel__info_8h.html" target="_top" xlink:title=" ">
<polygon fill="#fff0f0" stroke="red" points="1128,-101.5 1032,-101.5 1032,-71.5 1128,-71.5 1128,-101.5"/>
<text text-anchor="start" x="1040" y="-89.5" font-family="Helvetica,sans-Serif" font-size="10.00">include/d/file/d_file</text>
<text text-anchor="middle" x="1080" y="-78.5" font-family="Helvetica,sans-Serif" font-size="10.00">_sel_info.h</text>
</a>
</g>
</g>
<!-- Node4&#45;&gt;Node29 -->
<g id="edge13" class="edge">
<title>Node4&#45;&gt;Node29</title>
<path fill="none" stroke="#63b8ff" d="M2251.05,-156.69C2034.25,-155.27 1352.98,-147.64 1137,-107 1130.52,-105.78 1123.78,-103.98 1117.3,-101.96"/>
<polygon fill="#63b8ff" stroke="#63b8ff" points="2251.01,-160.19 2261.03,-156.75 2251.05,-153.19 2251.01,-160.19"/>
</g>
<!-- Node32 -->
<g id="node15" class="node">
<title>Node32</title>
<g id="a_node15"><a xlink:href="d__file__sel__warning_8h.html" target="_top" xlink:title=" ">
<polygon fill="#fff0f0" stroke="red" points="1242,-101.5 1146,-101.5 1146,-71.5 1242,-71.5 1242,-101.5"/>
<text text-anchor="start" x="1154" y="-89.5" font-family="Helvetica,sans-Serif" font-size="10.00">include/d/file/d_file</text>
<text text-anchor="middle" x="1194" y="-78.5" font-family="Helvetica,sans-Serif" font-size="10.00">_sel_warning.h</text>
</a>
</g>
</g>
<!-- Node4&#45;&gt;Node32 -->
<g id="edge14" class="edge">
<title>Node4&#45;&gt;Node32</title>
<path fill="none" stroke="#63b8ff" d="M2251.41,-156.34C2049.17,-153.93 1444.11,-143.78 1251,-107 1244.53,-105.77 1237.79,-103.96 1231.31,-101.94"/>
<polygon fill="#63b8ff" stroke="#63b8ff" points="2251.18,-159.83 2261.22,-156.45 2251.26,-152.83 2251.18,-159.83"/>
</g>
<!-- Node34 -->
<g id="node16" class="node">
<title>Node34</title>
<g id="a_node16"><a xlink:href="d__meter2_8h.html" target="_top" xlink:title=" ">
<polygon fill="#fff0f0" stroke="red" points="1394,-96 1260,-96 1260,-77 1394,-77 1394,-96"/>
<text text-anchor="middle" x="1327" y="-84" font-family="Helvetica,sans-Serif" font-size="10.00">include/d/meter/d_meter2.h</text>
</a>
</g>
</g>
<!-- Node4&#45;&gt;Node34 -->
<g id="edge15" class="edge">
<title>Node4&#45;&gt;Node34</title>
<path fill="none" stroke="#63b8ff" d="M2251.31,-157.82C2099.67,-158.72 1717.72,-155.49 1403,-107 1387.38,-104.59 1370.31,-100.36 1356.32,-96.46"/>
<polygon fill="#63b8ff" stroke="#63b8ff" points="2251.2,-161.32 2261.18,-157.76 2251.15,-154.32 2251.2,-161.32"/>
</g>
<!-- Node41 -->
<g id="node17" class="node">
<title>Node41</title>
<g id="a_node17"><a xlink:href="d__msg__object_8h.html" target="_top" xlink:title=" ">
<polygon fill="#fff0f0" stroke="red" points="162,-101.5 52,-101.5 52,-71.5 162,-71.5 162,-101.5"/>
<text text-anchor="start" x="60" y="-89.5" font-family="Helvetica,sans-Serif" font-size="10.00">include/d/msg/d_msg</text>
<text text-anchor="middle" x="107" y="-78.5" font-family="Helvetica,sans-Serif" font-size="10.00">_object.h</text>
</a>
</g>
</g>
<!-- Node4&#45;&gt;Node41 -->
<g id="edge16" class="edge">
<title>Node4&#45;&gt;Node41</title>
<path fill="none" stroke="#63b8ff" d="M2251.42,-156.44C1912.33,-153.48 385.08,-138.47 176,-107 168.12,-105.81 159.87,-104 151.92,-101.95"/>
<polygon fill="#63b8ff" stroke="#63b8ff" points="2251.21,-159.94 2261.24,-156.53 2251.27,-152.94 2251.21,-159.94"/>
</g>
<!-- Node46 -->
<g id="node18" class="node">
<title>Node46</title>
<g id="a_node18"><a xlink:href="d__demo_8cpp.html" target="_top" xlink:title=" ">
<polygon fill="white" stroke="#666666" points="94,-24.5 0,-24.5 0,-5.5 94,-5.5 94,-24.5"/>
<text text-anchor="middle" x="47" y="-12.5" font-family="Helvetica,sans-Serif" font-size="10.00">src/d/d_demo.cpp</text>
</a>
</g>
</g>
<!-- Node4&#45;&gt;Node46 -->
<g id="edge44" class="edge">
<title>Node4&#45;&gt;Node46</title>
<path fill="none" stroke="#63b8ff" d="M2251.2,-156.81C1879.63,-155.57 82.63,-147.51 43,-107 21.21,-84.73 35.33,-42.85 42.99,-24.72"/>
<polygon fill="#63b8ff" stroke="#63b8ff" points="2251.02,-160.31 2261.03,-156.84 2251.04,-153.31 2251.02,-160.31"/>
</g>
<!-- Node55 -->
<g id="node19" class="node">
<title>Node55</title>
<g id="a_node19"><a xlink:href="d__s__logo_8h.html" target="_top" xlink:title=" ">
<polygon fill="#fff0f0" stroke="red" points="1525.5,-96 1412.5,-96 1412.5,-77 1525.5,-77 1525.5,-96"/>
<text text-anchor="middle" x="1469" y="-84" font-family="Helvetica,sans-Serif" font-size="10.00">include/d/s/d_s_logo.h</text>
</a>
</g>
</g>
<!-- Node4&#45;&gt;Node55 -->
<g id="edge19" class="edge">
<title>Node4&#45;&gt;Node55</title>
<path fill="none" stroke="#63b8ff" d="M2251.41,-157.83C2115.44,-158.42 1796.51,-154.11 1534,-107 1520.55,-104.59 1505.94,-100.36 1493.99,-96.45"/>
<polygon fill="#63b8ff" stroke="#63b8ff" points="2251.34,-161.33 2261.32,-157.78 2251.3,-154.33 2251.34,-161.33"/>
</g>
<!-- Node57 -->
<g id="node20" class="node">
<title>Node57</title>
<g id="a_node20"><a xlink:href="d__s__play_8h.html" target="_top" xlink:title=" ">
<polygon fill="#fff0f0" stroke="red" points="1656.5,-96 1543.5,-96 1543.5,-77 1656.5,-77 1656.5,-96"/>
<text text-anchor="middle" x="1600" y="-84" font-family="Helvetica,sans-Serif" font-size="10.00">include/d/s/d_s_play.h</text>
</a>
</g>
</g>
<!-- Node4&#45;&gt;Node57 -->
<g id="edge20" class="edge">
<title>Node4&#45;&gt;Node57</title>
<path fill="none" stroke="#63b8ff" d="M2251.47,-156.61C2132.7,-154.87 1876.76,-146.4 1665,-107 1651.68,-104.52 1637.21,-100.34 1625.31,-96.47"/>
<polygon fill="#63b8ff" stroke="#63b8ff" points="2251.32,-160.11 2261.36,-156.74 2251.41,-153.11 2251.32,-160.11"/>
</g>
<!-- Node61 -->
<g id="node21" class="node">
<title>Node61</title>
<g id="a_node21"><a xlink:href="d__msg__scrn__base_8h.html" target="_top" xlink:title=" ">
<polygon fill="#fff0f0" stroke="red" points="1773.5,-101.5 1674.5,-101.5 1674.5,-71.5 1773.5,-71.5 1773.5,-101.5"/>
<text text-anchor="start" x="1682.5" y="-89.5" font-family="Helvetica,sans-Serif" font-size="10.00">include/msg/scrn/d</text>
<text text-anchor="middle" x="1724" y="-78.5" font-family="Helvetica,sans-Serif" font-size="10.00">_msg_scrn_base.h</text>
</a>
</g>
</g>
<!-- Node4&#45;&gt;Node61 -->
<g id="edge21" class="edge">
<title>Node4&#45;&gt;Node61</title>
<path fill="none" stroke="#63b8ff" d="M2251.22,-155.71C2149.09,-152.64 1948.39,-142.24 1782,-107 1775.76,-105.68 1769.27,-103.91 1762.97,-101.97"/>
<polygon fill="#63b8ff" stroke="#63b8ff" points="2250.98,-159.21 2261.07,-155.99 2251.18,-152.21 2250.98,-159.21"/>
</g>
<!-- Node65 -->
<g id="node22" class="node">
<title>Node65</title>
<g id="a_node22"><a xlink:href="d__a__b__zant_8h.html" target="_top" xlink:title=" ">
<polygon fill="white" stroke="#666666" points="1912.5,-101.5 1791.5,-101.5 1791.5,-71.5 1912.5,-71.5 1912.5,-101.5"/>
<text text-anchor="start" x="1799.5" y="-89.5" font-family="Helvetica,sans-Serif" font-size="10.00">include/rel/d/a/b/d</text>
<text text-anchor="middle" x="1852" y="-78.5" font-family="Helvetica,sans-Serif" font-size="10.00">_a_b_zant/d_a_b_zant.h</text>
</a>
</g>
</g>
<!-- Node4&#45;&gt;Node65 -->
<g id="edge22" class="edge">
<title>Node4&#45;&gt;Node65</title>
<path fill="none" stroke="#63b8ff" d="M2251.58,-151.6C2172.52,-144.49 2036.77,-130.1 1922,-107 1914.95,-105.58 1907.57,-103.83 1900.36,-101.96"/>
<polygon fill="#63b8ff" stroke="#63b8ff" points="2251.04,-155.07 2261.31,-152.46 2251.66,-148.09 2251.04,-155.07"/>
</g>
<!-- Node66 -->
<g id="node23" class="node">
<title>Node66</title>
<g id="a_node23"><a xlink:href="d__a__skip__2D_8h.html" target="_top" xlink:title=" ">
<polygon fill="white" stroke="#666666" points="2055,-101.5 1931,-101.5 1931,-71.5 2055,-71.5 2055,-101.5"/>
<text text-anchor="start" x="1939" y="-89.5" font-family="Helvetica,sans-Serif" font-size="10.00">include/rel/d/a/d_a</text>
<text text-anchor="middle" x="1993" y="-78.5" font-family="Helvetica,sans-Serif" font-size="10.00">_skip_2D/d_a_skip_2D.h</text>
</a>
</g>
</g>
<!-- Node4&#45;&gt;Node66 -->
<g id="edge23" class="edge">
<title>Node4&#45;&gt;Node66</title>
<path fill="none" stroke="#63b8ff" d="M2251.47,-145.29C2200.06,-135.91 2127.24,-121.89 2064,-107 2057.41,-105.45 2050.5,-103.7 2043.69,-101.91"/>
<polygon fill="#63b8ff" stroke="#63b8ff" points="2250.8,-148.72 2261.26,-147.07 2252.05,-141.84 2250.8,-148.72"/>
</g>
<!-- Node67 -->
<g id="node24" class="node">
<title>Node67</title>
<g id="a_node24"><a xlink:href="d__a__spinner_8h.html" target="_top" xlink:title=" ">
<polygon fill="white" stroke="#666666" points="334,-101.5 218,-101.5 218,-71.5 334,-71.5 334,-101.5"/>
<text text-anchor="start" x="226" y="-89.5" font-family="Helvetica,sans-Serif" font-size="10.00">include/rel/d/a/d_a</text>
<text text-anchor="middle" x="276" y="-78.5" font-family="Helvetica,sans-Serif" font-size="10.00">_spinner/d_a_spinner.h</text>
</a>
</g>
</g>
<!-- Node4&#45;&gt;Node67 -->
<g id="edge24" class="edge">
<title>Node4&#45;&gt;Node67</title>
<path fill="none" stroke="#63b8ff" d="M2251.23,-156.33C1928.11,-152.96 534.56,-136.79 343,-107 335.34,-105.81 327.32,-103.99 319.6,-101.94"/>
<polygon fill="#63b8ff" stroke="#63b8ff" points="2251.16,-159.83 2261.2,-156.43 2251.23,-152.83 2251.16,-159.83"/>
</g>
<!-- Node68 -->
<g id="node25" class="node">
<title>Node68</title>
<g id="a_node25"><a xlink:href="d__a__player_8cpp.html" target="_top" xlink:title=" ">
<polygon fill="white" stroke="#666666" points="475,-24.5 361,-24.5 361,-5.5 475,-5.5 475,-24.5"/>
<text text-anchor="middle" x="418" y="-12.5" font-family="Helvetica,sans-Serif" font-size="10.00">src/d/a/d_a_player.cpp</text>
</a>
</g>
</g>
<!-- Node4&#45;&gt;Node68 -->
<g id="edge34" class="edge">
<title>Node4&#45;&gt;Node68</title>
<path fill="none" stroke="#63b8ff" d="M2251.49,-156.58C1934.84,-154.39 591.88,-143.03 511,-107 488.03,-96.77 489.9,-83.66 472,-66 456.9,-51.1 438.68,-34.5 427.73,-24.67"/>
<polygon fill="#63b8ff" stroke="#63b8ff" points="2251.22,-160.08 2261.25,-156.65 2251.27,-153.08 2251.22,-160.08"/>
</g>
<!-- Node69 -->
<g id="node26" class="node">
<title>Node69</title>
<g id="a_node26"><a xlink:href="d__a__obj__yobikusa_8h.html" target="_top" xlink:title=" ">
<polygon fill="white" stroke="#666666" points="2178.5,-107 2073.5,-107 2073.5,-66 2178.5,-66 2178.5,-107"/>
<text text-anchor="start" x="2081.5" y="-95" font-family="Helvetica,sans-Serif" font-size="10.00">include/rel/d/a/obj</text>
<text text-anchor="start" x="2081.5" y="-84" font-family="Helvetica,sans-Serif" font-size="10.00">/d_a_obj_yobikusa/d</text>
<text text-anchor="middle" x="2126" y="-73" font-family="Helvetica,sans-Serif" font-size="10.00">_a_obj_yobikusa.h</text>
</a>
</g>
</g>
<!-- Node4&#45;&gt;Node69 -->
<g id="edge27" class="edge">
<title>Node4&#45;&gt;Node69</title>
<path fill="none" stroke="#63b8ff" d="M2267.7,-138.79C2240.36,-128.9 2206.57,-116.67 2178.85,-106.63"/>
<polygon fill="#63b8ff" stroke="#63b8ff" points="2266.2,-141.97 2276.79,-142.08 2268.58,-135.39 2266.2,-141.97"/>
</g>
<!-- Node70 -->
<g id="node27" class="node">
<title>Node70</title>
<g id="a_node27"><a xlink:href="d__a__tag__telop_8h.html" target="_top" xlink:title=" ">
<polygon fill="white" stroke="#666666" points="2315,-107 2197,-107 2197,-66 2315,-66 2315,-107"/>
<text text-anchor="start" x="2205" y="-95" font-family="Helvetica,sans-Serif" font-size="10.00">include/rel/d/a/tag</text>
<text text-anchor="start" x="2205" y="-84" font-family="Helvetica,sans-Serif" font-size="10.00">/d_a_tag_telop/d_a_tag</text>
<text text-anchor="middle" x="2256" y="-73" font-family="Helvetica,sans-Serif" font-size="10.00">_telop.h</text>
</a>
</g>
</g>
<!-- Node4&#45;&gt;Node70 -->
<g id="edge28" class="edge">
<title>Node4&#45;&gt;Node70</title>
<path fill="none" stroke="#63b8ff" d="M2297.58,-134.12C2289.89,-125.49 2281.2,-115.75 2273.77,-107.42"/>
<polygon fill="#63b8ff" stroke="#63b8ff" points="2294.88,-136.34 2304.15,-141.47 2300.1,-131.68 2294.88,-136.34"/>
</g>
<!-- Node71 -->
<g id="node28" class="node">
<title>Node71</title>
<g id="a_node28"><a xlink:href="c__dylink_8cpp.html" target="_top" xlink:title=" ">
<polygon fill="white" stroke="#666666" points="2428.5,-96 2333.5,-96 2333.5,-77 2428.5,-77 2428.5,-96"/>
<text text-anchor="middle" x="2381" y="-84" font-family="Helvetica,sans-Serif" font-size="10.00">src/c/c_dylink.cpp</text>
</a>
</g>
</g>
<!-- Node4&#45;&gt;Node71 -->
<g id="edge29" class="edge">
<title>Node4&#45;&gt;Node71</title>
<path fill="none" stroke="#63b8ff" d="M2338.74,-134.12C2350.52,-121.13 2364.57,-105.63 2373.13,-96.18"/>
<polygon fill="#63b8ff" stroke="#63b8ff" points="2336.19,-131.72 2332.07,-141.48 2341.38,-136.42 2336.19,-131.72"/>
</g>
<!-- Node72 -->
<g id="node29" class="node">
<title>Node72</title>
<g id="a_node29"><a xlink:href="d__a__itembase_8cpp.html" target="_top" xlink:title=" ">
<polygon fill="white" stroke="#666666" points="2575,-96 2447,-96 2447,-77 2575,-77 2575,-96"/>
<text text-anchor="middle" x="2511" y="-84" font-family="Helvetica,sans-Serif" font-size="10.00">src/d/a/d_a_itembase.cpp</text>
</a>
</g>
</g>
<!-- Node4&#45;&gt;Node72 -->
<g id="edge31" class="edge">
<title>Node4&#45;&gt;Node72</title>
<path fill="none" stroke="#63b8ff" d="M2368.79,-138.71C2406.58,-125.1 2456.53,-107.11 2486.07,-96.48"/>
<polygon fill="#63b8ff" stroke="#63b8ff" points="2367.64,-135.41 2359.41,-142.09 2370.01,-141.99 2367.64,-135.41"/>
</g>
<!-- Node73 -->
<g id="node30" class="node">
<title>Node73</title>
<g id="a_node30"><a xlink:href="d__a__obj_8cpp.html" target="_top" xlink:title=" ">
<polygon fill="white" stroke="#666666" points="2694.5,-96 2593.5,-96 2593.5,-77 2694.5,-77 2694.5,-96"/>
<text text-anchor="middle" x="2644" y="-84" font-family="Helvetica,sans-Serif" font-size="10.00">src/d/a/d_a_obj.cpp</text>
</a>
</g>
</g>
<!-- Node4&#45;&gt;Node73 -->
<g id="edge32" class="edge">
<title>Node4&#45;&gt;Node73</title>
<path fill="none" stroke="#63b8ff" d="M2384.65,-146.91C2438.76,-138.14 2516.84,-124.15 2584,-107 2595.57,-104.05 2608.16,-100.07 2618.81,-96.48"/>
<polygon fill="#63b8ff" stroke="#63b8ff" points="2384.29,-143.42 2374.97,-148.46 2385.4,-150.34 2384.29,-143.42"/>
</g>
<!-- Node74 -->
<g id="node31" class="node">
<title>Node74</title>
<g id="a_node31"><a xlink:href="d__bg__s_8cpp.html" target="_top" xlink:title=" ">
<polygon fill="white" stroke="#666666" points="2817,-96 2713,-96 2713,-77 2817,-77 2817,-96"/>
<text text-anchor="middle" x="2765" y="-84" font-family="Helvetica,sans-Serif" font-size="10.00">src/d/bg/d_bg_s.cpp</text>
</a>
</g>
</g>
<!-- Node4&#45;&gt;Node74 -->
<g id="edge35" class="edge">
<title>Node4&#45;&gt;Node74</title>
<path fill="none" stroke="#63b8ff" d="M2384.21,-152.08C2461.6,-145.5 2593.2,-131.67 2704,-107 2716.15,-104.29 2729.35,-100.22 2740.35,-96.5"/>
<polygon fill="#63b8ff" stroke="#63b8ff" points="2384.38,-148.56 2374.7,-152.88 2384.96,-155.53 2384.38,-148.56"/>
</g>
<!-- Node75 -->
<g id="node32" class="node">
<title>Node75</title>
<g id="a_node32"><a xlink:href="d__bg__s__movebg__actor_8cpp.html" target="_top" xlink:title=" ">
<polygon fill="white" stroke="#666666" points="2961,-101.5 2835,-101.5 2835,-71.5 2961,-71.5 2961,-101.5"/>
<text text-anchor="start" x="2843" y="-89.5" font-family="Helvetica,sans-Serif" font-size="10.00">src/d/bg/d_bg_s_movebg</text>
<text text-anchor="middle" x="2898" y="-78.5" font-family="Helvetica,sans-Serif" font-size="10.00">_actor.cpp</text>
</a>
</g>
</g>
<!-- Node4&#45;&gt;Node75 -->
<g id="edge36" class="edge">
<title>Node4&#45;&gt;Node75</title>
<path fill="none" stroke="#63b8ff" d="M2384.74,-153.97C2482.33,-148.75 2669.36,-135.71 2826,-107 2833.52,-105.62 2841.39,-103.84 2849.06,-101.92"/>
<polygon fill="#63b8ff" stroke="#63b8ff" points="2384.61,-150.48 2374.81,-154.49 2384.98,-157.47 2384.61,-150.48"/>
</g>
<!-- Node76 -->
<g id="node33" class="node">
<title>Node76</title>
<g id="a_node33"><a xlink:href="d__bg__w_8cpp.html" target="_top" xlink:title=" ">
<polygon fill="white" stroke="#666666" points="3086.5,-96 2979.5,-96 2979.5,-77 3086.5,-77 3086.5,-96"/>
<text text-anchor="middle" x="3033" y="-84" font-family="Helvetica,sans-Serif" font-size="10.00">src/d/bg/d_bg_w.cpp</text>
</a>
</g>
</g>
<!-- Node4&#45;&gt;Node76 -->
<g id="edge37" class="edge">
<title>Node4&#45;&gt;Node76</title>
<path fill="none" stroke="#63b8ff" d="M2384.46,-156.78C2503.1,-155.32 2758.74,-147.27 2970,-107 2982.93,-104.53 2996.96,-100.35 3008.49,-96.49"/>
<polygon fill="#63b8ff" stroke="#63b8ff" points="2384.54,-153.28 2374.58,-156.89 2384.62,-160.28 2384.54,-153.28"/>
</g>
<!-- Node77 -->
<g id="node34" class="node">
<title>Node77</title>
<g id="a_node34"><a xlink:href="d__cc__s_8cpp.html" target="_top" xlink:title=" ">
<polygon fill="white" stroke="#666666" points="3209,-96 3105,-96 3105,-77 3209,-77 3209,-96"/>
<text text-anchor="middle" x="3157" y="-84" font-family="Helvetica,sans-Serif" font-size="10.00">src/d/cc/d_cc_s.cpp</text>
</a>
</g>
</g>
<!-- Node4&#45;&gt;Node77 -->
<g id="edge38" class="edge">
<title>Node4&#45;&gt;Node77</title>
<path fill="none" stroke="#63b8ff" d="M2384.52,-154.82C2546.94,-149.16 2960.36,-132.64 3096,-107 3108.67,-104.6 3122.39,-100.38 3133.59,-96.47"/>
<polygon fill="#63b8ff" stroke="#63b8ff" points="2384.65,-151.31 2374.78,-155.16 2384.89,-158.31 2384.65,-151.31"/>
</g>
<!-- Node78 -->
<g id="node35" class="node">
<title>Node78</title>
<g id="a_node35"><a xlink:href="d__com__static_8cpp.html" target="_top" xlink:title=" ">
<polygon fill="white" stroke="#666666" points="3367,-96 3227,-96 3227,-77 3367,-77 3367,-96"/>
<text text-anchor="middle" x="3297" y="-84" font-family="Helvetica,sans-Serif" font-size="10.00">src/d/com/d_com_static.cpp</text>
</a>
</g>
</g>
<!-- Node4&#45;&gt;Node78 -->
<g id="edge40" class="edge">
<title>Node4&#45;&gt;Node78</title>
<path fill="none" stroke="#63b8ff" d="M2384.66,-157.53C2534.49,-157.8 2908.98,-153.31 3218,-107 3234.21,-104.57 3251.95,-100.34 3266.5,-96.44"/>
<polygon fill="#63b8ff" stroke="#63b8ff" points="2384.93,-154.03 2374.92,-157.5 2384.91,-161.03 2384.93,-154.03"/>
</g>
<!-- Node79 -->
<g id="node36" class="node">
<title>Node79</title>
<g id="a_node36"><a xlink:href="d__attention_8cpp.html" target="_top" xlink:title=" ">
<polygon fill="white" stroke="#666666" points="3492.5,-96 3385.5,-96 3385.5,-77 3492.5,-77 3492.5,-96"/>
<text text-anchor="middle" x="3439" y="-84" font-family="Helvetica,sans-Serif" font-size="10.00">src/d/d_attention.cpp</text>
</a>
</g>
</g>
<!-- Node4&#45;&gt;Node79 -->
<g id="edge41" class="edge">
<title>Node4&#45;&gt;Node79</title>
<path fill="none" stroke="#63b8ff" d="M2384.68,-156.05C2585.77,-152.84 3184.23,-140.65 3376,-107 3389.19,-104.68 3403.49,-100.41 3415.12,-96.46"/>
<polygon fill="#63b8ff" stroke="#63b8ff" points="2384.88,-152.55 2374.93,-156.2 2384.99,-159.55 2384.88,-152.55"/>
</g>
<!-- Node80 -->
<g id="node37" class="node">
<title>Node80</title>
<g id="a_node37"><a xlink:href="d__cam__param_8cpp.html" target="_top" xlink:title=" ">
<polygon fill="white" stroke="#666666" points="3631.5,-96 3510.5,-96 3510.5,-77 3631.5,-77 3631.5,-96"/>
<text text-anchor="middle" x="3571" y="-84" font-family="Helvetica,sans-Serif" font-size="10.00">src/d/d_cam_param.cpp</text>
</a>
</g>
</g>
<!-- Node4&#45;&gt;Node80 -->
<g id="edge42" class="edge">
<title>Node4&#45;&gt;Node80</title>
<path fill="none" stroke="#63b8ff" d="M2384.66,-156.23C2601.35,-153.4 3284.32,-141.86 3502,-107 3516.38,-104.7 3532.03,-100.43 3544.78,-96.47"/>
<polygon fill="#63b8ff" stroke="#63b8ff" points="2384.65,-152.73 2374.7,-156.36 2384.74,-159.73 2384.65,-152.73"/>
</g>
<!-- Node81 -->
<g id="node38" class="node">
<title>Node81</title>
<g id="a_node38"><a xlink:href="d__camera_8cpp.html" target="_top" xlink:title=" ">
<polygon fill="white" stroke="#666666" points="3752,-96 3650,-96 3650,-77 3752,-77 3752,-96"/>
<text text-anchor="middle" x="3701" y="-84" font-family="Helvetica,sans-Serif" font-size="10.00">src/d/d_camera.cpp</text>
</a>
</g>
</g>
<!-- Node4&#45;&gt;Node81 -->
<g id="edge43" class="edge">
<title>Node4&#45;&gt;Node81</title>
<path fill="none" stroke="#63b8ff" d="M2384.58,-156.91C2617.62,-156.22 3395.78,-150.61 3641,-107 3653.72,-104.74 3667.47,-100.42 3678.58,-96.42"/>
<polygon fill="#63b8ff" stroke="#63b8ff" points="2384.75,-153.41 2374.76,-156.94 2384.77,-160.41 2384.75,-153.41"/>
</g>
<!-- Node82 -->
<g id="node39" class="node">
<title>Node82</title>
<g id="a_node39"><a xlink:href="d__eye__hl_8cpp.html" target="_top" xlink:title=" ">
<polygon fill="white" stroke="#666666" points="3868,-96 3770,-96 3770,-77 3868,-77 3868,-96"/>
<text text-anchor="middle" x="3819" y="-84" font-family="Helvetica,sans-Serif" font-size="10.00">src/d/d_eye_hl.cpp</text>
</a>
</g>
</g>
<!-- Node4&#45;&gt;Node82 -->
<g id="edge45" class="edge">
<title>Node4&#45;&gt;Node82</title>
<path fill="none" stroke="#63b8ff" d="M2384.37,-157.24C2630.6,-157.75 3491.5,-155.9 3761,-107 3773.33,-104.76 3786.62,-100.44 3797.36,-96.44"/>
<polygon fill="#63b8ff" stroke="#63b8ff" points="2384.63,-153.74 2374.62,-157.22 2384.62,-160.74 2384.63,-153.74"/>
</g>
<!-- Node83 -->
<g id="node40" class="node">
<title>Node83</title>
<g id="a_node40"><a xlink:href="d__kyeff_8cpp.html" target="_top" xlink:title=" ">
<polygon fill="white" stroke="#666666" points="3976,-96 3886,-96 3886,-77 3976,-77 3976,-96"/>
<text text-anchor="middle" x="3931" y="-84" font-family="Helvetica,sans-Serif" font-size="10.00">src/d/d_kyeff.cpp</text>
</a>
</g>
</g>
<!-- Node4&#45;&gt;Node83 -->
<g id="edge46" class="edge">
<title>Node4&#45;&gt;Node83</title>
<path fill="none" stroke="#63b8ff" d="M2384.28,-156.1C2662.58,-152.16 3729.2,-135.32 3877,-107 3888.55,-104.79 3900.93,-100.47 3910.91,-96.46"/>
<polygon fill="#63b8ff" stroke="#63b8ff" points="2384.62,-152.6 2374.67,-156.24 2384.72,-159.59 2384.62,-152.6"/>
</g>
<!-- Node84 -->
<g id="node41" class="node">
<title>Node84</title>
<g id="a_node41"><a xlink:href="d__path_8cpp.html" target="_top" xlink:title=" ">
<polygon fill="white" stroke="#666666" points="4083.5,-96 3994.5,-96 3994.5,-77 4083.5,-77 4083.5,-96"/>
<text text-anchor="middle" x="4039" y="-84" font-family="Helvetica,sans-Serif" font-size="10.00">src/d/d_path.cpp</text>
</a>
</g>
</g>
<!-- Node4&#45;&gt;Node84 -->
<g id="edge47" class="edge">
<title>Node4&#45;&gt;Node84</title>
<path fill="none" stroke="#63b8ff" d="M2384.52,-156.25C2675.17,-152.78 3826.16,-137.26 3985,-107 3996.55,-104.8 4008.93,-100.48 4018.91,-96.47"/>
<polygon fill="#63b8ff" stroke="#63b8ff" points="2384.81,-152.74 2374.85,-156.36 2384.89,-159.74 2384.81,-152.74"/>
</g>
<!-- Node85 -->
<g id="node42" class="node">
<title>Node85</title>
<g id="a_node42"><a xlink:href="d__resorce_8cpp.html" target="_top" xlink:title=" ">
<polygon fill="white" stroke="#666666" points="4204,-96 4102,-96 4102,-77 4204,-77 4204,-96"/>
<text text-anchor="middle" x="4153" y="-84" font-family="Helvetica,sans-Serif" font-size="10.00">src/d/d_resorce.cpp</text>
</a>
</g>
</g>
<!-- Node4&#45;&gt;Node85 -->
<g id="edge48" class="edge">
<title>Node4&#45;&gt;Node85</title>
<path fill="none" stroke="#63b8ff" d="M2384.31,-156.25C2686.11,-152.7 3922.51,-136.48 4093,-107 4105.74,-104.8 4119.48,-100.48 4130.59,-96.47"/>
<polygon fill="#63b8ff" stroke="#63b8ff" points="2384.61,-152.75 2374.65,-156.37 2384.69,-159.75 2384.61,-152.75"/>
</g>
<!-- Node86 -->
<g id="node43" class="node">
<title>Node86</title>
<g id="a_node43"><a xlink:href="d__simple__model_8cpp.html" target="_top" xlink:title=" ">
<polygon fill="white" stroke="#666666" points="4352,-96 4222,-96 4222,-77 4352,-77 4352,-96"/>
<text text-anchor="middle" x="4287" y="-84" font-family="Helvetica,sans-Serif" font-size="10.00">src/d/d_simple_model.cpp</text>
</a>
</g>
</g>
<!-- Node4&#45;&gt;Node86 -->
<g id="edge49" class="edge">
<title>Node4&#45;&gt;Node86</title>
<path fill="none" stroke="#63b8ff" d="M2384.7,-157.31C2677.32,-158.33 3849.1,-159.03 4213,-107 4228.52,-104.78 4245.45,-100.46 4259.2,-96.46"/>
<polygon fill="#63b8ff" stroke="#63b8ff" points="2384.97,-153.81 2374.96,-157.27 2384.94,-160.81 2384.97,-153.81"/>
</g>
<!-- Node87 -->
<g id="node44" class="node">
<title>Node87</title>
<g id="a_node44"><a xlink:href="d__stage_8cpp.html" target="_top" xlink:title=" ">
<polygon fill="white" stroke="#666666" points="4464,-96 4370,-96 4370,-77 4464,-77 4464,-96"/>
<text text-anchor="middle" x="4417" y="-84" font-family="Helvetica,sans-Serif" font-size="10.00">src/d/d_stage.cpp</text>
</a>
</g>
</g>
<!-- Node4&#45;&gt;Node87 -->
<g id="edge50" class="edge">
<title>Node4&#45;&gt;Node87</title>
<path fill="none" stroke="#63b8ff" d="M2384.71,-156.6C2714.56,-154.43 4163.23,-142.94 4361,-107 4372.95,-104.83 4385.78,-100.52 4396.14,-96.5"/>
<polygon fill="#63b8ff" stroke="#63b8ff" points="2384.94,-153.09 2374.97,-156.66 2384.99,-160.09 2384.94,-153.09"/>
</g>
<!-- Node4&#45;&gt;Node97 -->
<g id="edge51" class="edge">
<title>Node4&#45;&gt;Node97</title>
<path fill="none" stroke="#63b8ff" d="M2384.72,-156.41C2741.36,-153.14 4415.11,-136.34 4644,-107 4661.13,-104.8 4679.89,-100.49 4695.14,-96.48"/>
<polygon fill="#63b8ff" stroke="#63b8ff" points="2384.81,-152.91 2374.84,-156.5 2384.87,-159.91 2384.81,-152.91"/>
</g>
<!-- Node17&#45;&gt;Node14 -->
<g id="edge7" class="edge">
<title>Node17&#45;&gt;Node14</title>
<path fill="none" stroke="#63b8ff" d="M513.85,-74.25C500.2,-71.49 485.57,-68.58 472,-66 392.26,-50.83 299.54,-34.68 242.83,-24.96"/>
<polygon fill="#63b8ff" stroke="#63b8ff" points="513.05,-77.66 523.55,-76.23 514.45,-70.81 513.05,-77.66"/>
</g>
<!-- Node17&#45;&gt;Node18 -->
<g id="edge8" class="edge">
<title>Node17&#45;&gt;Node18</title>
<path fill="none" stroke="#63b8ff" d="M614.23,-74.18C629.64,-70.89 646.97,-67.73 663,-66 1066.6,-22.43 4091.08,-16.71 4567.04,-16.07"/>
<polygon fill="#63b8ff" stroke="#63b8ff" points="613.87,-70.67 604.86,-76.24 615.38,-77.51 613.87,-70.67"/>
</g>
<!-- Node17&#45;&gt;Node19 -->
<g id="edge9" class="edge">
<title>Node17&#45;&gt;Node19</title>
<path fill="none" stroke="#63b8ff" d="M578.21,-66.83C584.49,-55.34 592.42,-40.84 598.2,-30.27"/>
<polygon fill="#63b8ff" stroke="#63b8ff" points="575.27,-64.92 573.54,-75.37 581.41,-68.27 575.27,-64.92"/>
</g>
<!-- Node41&#45;&gt;Node14 -->
<g id="edge17" class="edge">
<title>Node41&#45;&gt;Node14</title>
<path fill="none" stroke="#63b8ff" d="M133,-63.73C148.77,-50.53 168.02,-34.4 179.63,-24.68"/>
<polygon fill="#63b8ff" stroke="#63b8ff" points="130.78,-61.02 125.36,-70.13 135.27,-66.39 130.78,-61.02"/>
</g>
<!-- Node41&#45;&gt;Node46 -->
<g id="edge18" class="edge">
<title>Node41&#45;&gt;Node46</title>
<path fill="none" stroke="#63b8ff" d="M87.24,-62.62C76.03,-49.63 62.65,-34.13 54.49,-24.68"/>
<polygon fill="#63b8ff" stroke="#63b8ff" points="84.39,-64.67 93.58,-69.95 89.69,-60.1 84.39,-64.67"/>
</g>
<!-- Node67&#45;&gt;Node14 -->
<g id="edge25" class="edge">
<title>Node67&#45;&gt;Node14</title>
<path fill="none" stroke="#63b8ff" d="M249.57,-64.14C233.25,-50.95 213.17,-34.72 200.99,-24.88"/>
<polygon fill="#63b8ff" stroke="#63b8ff" points="247.03,-66.58 257,-70.15 251.43,-61.14 247.03,-66.58"/>
</g>
<!-- Node67&#45;&gt;Node68 -->
<g id="edge26" class="edge">
<title>Node67&#45;&gt;Node68</title>
<path fill="none" stroke="#63b8ff" d="M315.57,-66.13C343.17,-52.62 378.72,-35.22 399.86,-24.88"/>
<polygon fill="#63b8ff" stroke="#63b8ff" points="314.23,-62.89 306.78,-70.43 317.3,-69.18 314.23,-62.89"/>
</g>
<!-- Node110 -->
<g id="node47" class="node">
<title>Node110</title>
<g id="a_node47"><a xlink:href="d__a__obj__item_8h.html" target="_top" xlink:title=" ">
<polygon fill="white" stroke="#666666" points="4658.5,-173 4557.5,-173 4557.5,-143 4658.5,-143 4658.5,-173"/>
<text text-anchor="start" x="4565.5" y="-161" font-family="Helvetica,sans-Serif" font-size="10.00">include/d/a/d_a_obj</text>
<text text-anchor="middle" x="4608" y="-150" font-family="Helvetica,sans-Serif" font-size="10.00">_item.h</text>
</a>
</g>
</g>
<!-- Node109&#45;&gt;Node110 -->
<g id="edge54" class="edge">
<title>Node109&#45;&gt;Node110</title>
<path fill="none" stroke="#63b8ff" d="M4251.99,-208.74C4366.83,-188.33 4489.68,-172.79 4557.11,-164.81"/>
<polygon fill="#63b8ff" stroke="#63b8ff" points="4251.61,-205.25 4242.39,-210.46 4252.85,-212.14 4251.61,-205.25"/>
</g>
<!-- Node111 -->
<g id="node48" class="node">
<title>Node111</title>
<g id="a_node48"><a xlink:href="d__a__item__static_8cpp.html" target="_top" xlink:title=" ">
<polygon fill="white" stroke="#666666" points="4263.5,-167.5 4126.5,-167.5 4126.5,-148.5 4263.5,-148.5 4263.5,-167.5"/>
<text text-anchor="middle" x="4195" y="-155.5" font-family="Helvetica,sans-Serif" font-size="10.00">src/d/a/d_a_item_static.cpp</text>
</a>
</g>
</g>
<!-- Node109&#45;&gt;Node111 -->
<g id="edge56" class="edge">
<title>Node109&#45;&gt;Node111</title>
<path fill="none" stroke="#63b8ff" d="M4190.18,-197.59C4191.49,-187.06 4192.93,-175.53 4193.89,-167.84"/>
<polygon fill="#63b8ff" stroke="#63b8ff" points="4186.73,-196.94 4188.96,-207.29 4193.68,-197.81 4186.73,-196.94"/>
</g>
<!-- Node110&#45;&gt;Node18 -->
<g id="edge55" class="edge">
<title>Node110&#45;&gt;Node18</title>
<path fill="none" stroke="#63b8ff" d="M4669.87,-149.41C4720.62,-141.76 4786.67,-128.05 4803,-107 4814.17,-92.6 4813.95,-80.56 4803,-66 4788.91,-47.26 4731.94,-33.31 4687.17,-24.98"/>
<polygon fill="#63b8ff" stroke="#63b8ff" points="4669.53,-145.92 4660.14,-150.82 4670.54,-152.85 4669.53,-145.92"/>
</g>
</g>
</svg>
