<?xml version="1.0" encoding="UTF-8" standalone="no"?>
<!DOCTYPE svg PUBLIC "-//W3C//DTD SVG 1.1//EN"
 "http://www.w3.org/Graphics/SVG/1.1/DTD/svg11.dtd">
<!-- Generated by graphviz version 7.0.4 (20221203.1631)
 -->
<!-- Title: include/d/particle/d_particle.h Pages: 1 -->
<!--zoomable 313 -->
<svg id="main" version="1.1" xmlns="http://www.w3.org/2000/svg" xmlns:xlink="http://www.w3.org/1999/xlink" xml:space="preserve" onload="init(evt)">
<style type="text/css"><![CDATA[
.edge:hover path { stroke: red; }
.edge:hover polygon { stroke: red; fill: red; }
]]></style>
<script type="text/javascript"><![CDATA[
var edges = document.getElementsByTagName('g');
if (edges && edges.length) {
  for (var i=0;i<edges.length;i++) {
    if (edges[i].id.substr(0,4)=='edge') {
      edges[i].setAttribute('class','edge');
    }
  }
}
]]></script>
        <defs>
                <circle id="rim" cx="0" cy="0" r="7"/>
                <circle id="rim2" cx="0" cy="0" r="3.5"/>
                <g id="zoomPlus">
                        <use xlink:href="#rim" fill="#404040">
                                <set attributeName="fill" to="#808080" begin="zoomplus.mouseover" end="zoomplus.mouseout"/>
                        </use>
                        <path d="M-4,0h8M0,-4v8" fill="none" stroke="white" stroke-width="1.5" pointer-events="none"/>
                </g>
                <g id="zoomMin">
                        <use xlink:href="#rim" fill="#404040">
                                <set attributeName="fill" to="#808080" begin="zoomminus.mouseover" end="zoomminus.mouseout"/>
                        </use>
                        <path d="M-4,0h8" fill="none" stroke="white" stroke-width="1.5" pointer-events="none"/>
                </g>
                <g id="dirArrow">
                        <path fill="none" stroke="white" stroke-width="1.5" d="M0,-3.0v7 M-2.5,-0.5L0,-3.0L2.5,-0.5"/>
                </g>
               <g id="resetDef">
                       <use xlink:href="#rim2" fill="#404040">
                               <set attributeName="fill" to="#808080" begin="reset.mouseover" end="reset.mouseout"/>
                       </use>
               </g>
        </defs>

<script type="text/javascript">
var viewWidth = 5047;
var viewHeight = 313;
var sectionId = 'dynsection-1';
</script>
<script xlink:href="svgpan.js"/>
<svg id="graph" class="graph">
<g id="viewport">
<title>include/d/particle/d_particle.h</title>
<!-- Node1 -->
<g id="node1" class="node">
<title>Node1</title>
<g id="a_node1"><a xlink:title=" ">
<polygon fill="#999999" stroke="#666666" points="4348,-305 4258,-305 4258,-275 4348,-275 4348,-305"/>
<text text-anchor="start" x="4266" y="-293" font-family="Helvetica,sans-Serif" font-size="10.00">include/d/particle</text>
<text text-anchor="middle" x="4303" y="-282" font-family="Helvetica,sans-Serif" font-size="10.00">/d_particle.h</text>
</a>
</g>
</g>
<!-- Node2 -->
<g id="node2" class="node">
<title>Node2</title>
<g id="a_node2"><a xlink:href="d__a__alink_8h.html" target="_top" xlink:title=" ">
<polygon fill="white" stroke="#666666" points="2504,-233.5 2388,-233.5 2388,-214.5 2504,-214.5 2504,-233.5"/>
<text text-anchor="middle" x="2446" y="-221.5" font-family="Helvetica,sans-Serif" font-size="10.00">include/d/a/d_a_alink.h</text>
</a>
</g>
</g>
<!-- Node1&#45;&gt;Node2 -->
<g id="edge1" class="edge">
<title>Node1&#45;&gt;Node2</title>
<path fill="none" stroke="#63b8ff" d="M4246.3,-287.05C3971.81,-277.59 2782.78,-236.61 2504.45,-227.01"/>
<polygon fill="#63b8ff" stroke="#63b8ff" points="4245.93,-290.54 4256.04,-287.38 4246.17,-283.54 4245.93,-290.54"/>
</g>
<!-- Node3 -->
<g id="node3" class="node">
<title>Node3</title>
<g id="a_node3"><a xlink:href="d__com__inf__game_8h.html" target="_top" xlink:title=" ">
<polygon fill="#fff0f0" stroke="red" points="2501,-173 2391,-173 2391,-143 2501,-143 2501,-173"/>
<text text-anchor="start" x="2399" y="-161" font-family="Helvetica,sans-Serif" font-size="10.00">include/d/com/d_com</text>
<text text-anchor="middle" x="2446" y="-150" font-family="Helvetica,sans-Serif" font-size="10.00">_inf_game.h</text>
</a>
</g>
</g>
<!-- Node1&#45;&gt;Node3 -->
<g id="edge58" class="edge">
<title>Node1&#45;&gt;Node3</title>
<path fill="none" stroke="#63b8ff" d="M4246.25,-285.03C3970.59,-265.73 2773.42,-181.92 2501.21,-162.86"/>
<polygon fill="#63b8ff" stroke="#63b8ff" points="4245.83,-288.51 4256.05,-285.71 4246.32,-281.52 4245.83,-288.51"/>
</g>
<!-- Node96 -->
<g id="node46" class="node">
<title>Node96</title>
<g id="a_node46"><a xlink:href="d__particle_8cpp.html" target="_top" xlink:title=" ">
<polygon fill="white" stroke="#666666" points="5022,-96 4886,-96 4886,-77 5022,-77 5022,-96"/>
<text text-anchor="middle" x="4954" y="-84" font-family="Helvetica,sans-Serif" font-size="10.00">src/d/particle/d_particle.cpp</text>
</a>
</g>
</g>
<!-- Node1&#45;&gt;Node96 -->
<g id="edge60" class="edge">
<title>Node1&#45;&gt;Node96</title>
<path fill="none" stroke="#63b8ff" d="M4297.95,-263.83C4292.95,-230.85 4290.18,-173.62 4323,-143 4366.89,-102.06 4802.55,-115.24 4862,-107 4880.44,-104.44 4900.7,-100.3 4917.5,-96.48"/>
<polygon fill="#63b8ff" stroke="#63b8ff" points="4294.43,-264.03 4299.57,-273.3 4301.33,-262.85 4294.43,-264.03"/>
</g>
<!-- Node108 -->
<g id="node47" class="node">
<title>Node108</title>
<g id="a_node47"><a xlink:href="d__a__item__static_8h.html" target="_top" xlink:title=" ">
<polygon fill="white" stroke="#666666" points="4445.5,-239 4338.5,-239 4338.5,-209 4445.5,-209 4445.5,-239"/>
<text text-anchor="start" x="4346.5" y="-227" font-family="Helvetica,sans-Serif" font-size="10.00">include/d/a/d_a_item</text>
<text text-anchor="middle" x="4392" y="-216" font-family="Helvetica,sans-Serif" font-size="10.00">_static.h</text>
</a>
</g>
</g>
<!-- Node1&#45;&gt;Node108 -->
<g id="edge54" class="edge">
<title>Node1&#45;&gt;Node108</title>
<path fill="none" stroke="#63b8ff" d="M4331.86,-268.25C4344.97,-258.82 4360.16,-247.9 4372,-239.39"/>
<polygon fill="#63b8ff" stroke="#63b8ff" points="4330.06,-265.23 4323.98,-273.91 4334.14,-270.92 4330.06,-265.23"/>
</g>
<!-- Node111 -->
<g id="node50" class="node">
<title>Node111</title>
<g id="a_node50"><a xlink:href="d__a__arrow_8h.html" target="_top" xlink:title=" ">
<polygon fill="white" stroke="#666666" points="4564.5,-239 4463.5,-239 4463.5,-209 4564.5,-209 4564.5,-239"/>
<text text-anchor="start" x="4471.5" y="-227" font-family="Helvetica,sans-Serif" font-size="10.00">include/rel/d/a/d_a</text>
<text text-anchor="middle" x="4514" y="-216" font-family="Helvetica,sans-Serif" font-size="10.00">_arrow/d_a_arrow.h</text>
</a>
</g>
</g>
<!-- Node1&#45;&gt;Node111 -->
<g id="edge59" class="edge">
<title>Node1&#45;&gt;Node111</title>
<path fill="none" stroke="#63b8ff" d="M4359.23,-271.94C4392.61,-261.82 4434.48,-249.12 4466.25,-239.48"/>
<polygon fill="#63b8ff" stroke="#63b8ff" points="4358.27,-268.58 4349.71,-274.83 4360.3,-275.28 4358.27,-268.58"/>
</g>
<!-- Node2&#45;&gt;Node3 -->
<g id="edge2" class="edge">
<title>Node2&#45;&gt;Node3</title>
<path fill="none" stroke="#63b8ff" d="M2446,-202.78C2446,-193.17 2446,-181.92 2446,-173.23"/>
<polygon fill="#63b8ff" stroke="#63b8ff" points="2442.5,-202.59 2446,-212.59 2449.5,-202.59 2442.5,-202.59"/>
</g>
<!-- Node13 -->
<g id="node7" class="node">
<title>Node13</title>
<g id="a_node7"><a xlink:href="d__a__alink_8cpp.html" target="_top" xlink:title=" ">
<polygon fill="white" stroke="#666666" points="244.5,-24.5 135.5,-24.5 135.5,-5.5 244.5,-5.5 244.5,-24.5"/>
<text text-anchor="middle" x="190" y="-12.5" font-family="Helvetica,sans-Serif" font-size="10.00">src/d/a/d_a_alink.cpp</text>
</a>
</g>
</g>
<!-- Node2&#45;&gt;Node13 -->
<g id="edge53" class="edge">
<title>Node2&#45;&gt;Node13</title>
<path fill="none" stroke="#63b8ff" d="M2376.39,-222.31C1990.23,-218.17 125.63,-193.72 43,-107 30.43,-93.81 32.39,-80.82 43,-66 55.32,-48.8 107.82,-33.89 146.58,-24.93"/>
<polygon fill="#63b8ff" stroke="#63b8ff" points="2376.09,-225.81 2386.13,-222.42 2376.17,-218.81 2376.09,-225.81"/>
</g>
<!-- Node4 -->
<g id="node4" class="node">
<title>Node4</title>
<g id="a_node4"><a xlink:href="d__a__npc_8h.html" target="_top" xlink:title=" ">
<polygon fill="#fff0f0" stroke="red" points="463.5,-96 352.5,-96 352.5,-77 463.5,-77 463.5,-96"/>
<text text-anchor="middle" x="408" y="-84" font-family="Helvetica,sans-Serif" font-size="10.00">include/d/a/d_a_npc.h</text>
</a>
</g>
</g>
<!-- Node3&#45;&gt;Node4 -->
<g id="edge3" class="edge">
<title>Node3&#45;&gt;Node4</title>
<path fill="none" stroke="#63b8ff" d="M2379.47,-156.28C2057.53,-152.68 669.05,-135.59 478,-107 463.28,-104.8 447.26,-100.48 434.26,-96.47"/>
<polygon fill="#63b8ff" stroke="#63b8ff" points="2379.36,-159.78 2389.4,-156.39 2379.44,-152.78 2379.36,-159.78"/>
</g>
<!-- Node10 -->
<g id="node5" class="node">
<title>Node10</title>
<g id="a_node5"><a xlink:href="d__cc__uty_8h.html" target="_top" xlink:title=" ">
<polygon fill="#fff0f0" stroke="red" points="4829.5,-96 4710.5,-96 4710.5,-77 4829.5,-77 4829.5,-96"/>
<text text-anchor="middle" x="4770" y="-84" font-family="Helvetica,sans-Serif" font-size="10.00">include/d/cc/d_cc_uty.h</text>
</a>
</g>
</g>
<!-- Node3&#45;&gt;Node10 -->
<g id="edge4" class="edge">
<title>Node3&#45;&gt;Node10</title>
<path fill="none" stroke="#63b8ff" d="M2512.94,-156.53C2863.52,-153.9 4480.23,-140.1 4701,-107 4715.53,-104.82 4731.32,-100.51 4744.13,-96.49"/>
<polygon fill="#63b8ff" stroke="#63b8ff" points="2512.98,-153.02 2503.01,-156.6 2513.03,-160.02 2512.98,-153.02"/>
</g>
<!-- Node16 -->
<g id="node6" class="node">
<title>Node16</title>
<g id="a_node6"><a xlink:href="d__item_8h.html" target="_top" xlink:title=" ">
<polygon fill="#fff0f0" stroke="red" points="615.5,-96 520.5,-96 520.5,-77 615.5,-77 615.5,-96"/>
<text text-anchor="middle" x="568" y="-84" font-family="Helvetica,sans-Serif" font-size="10.00">include/d/d_item.h</text>
</a>
</g>
</g>
<!-- Node3&#45;&gt;Node16 -->
<g id="edge5" class="edge">
<title>Node3&#45;&gt;Node16</title>
<path fill="none" stroke="#63b8ff" d="M2379.18,-156.26C2072.2,-152.69 804.76,-136.3 630,-107 616.87,-104.8 602.67,-100.48 591.18,-96.47"/>
<polygon fill="#63b8ff" stroke="#63b8ff" points="2378.99,-159.75 2389.03,-156.37 2379.07,-152.75 2378.99,-159.75"/>
</g>
<!-- Node3&#45;&gt;Node13 -->
<g id="edge29" class="edge">
<title>Node3&#45;&gt;Node13</title>
<path fill="none" stroke="#63b8ff" d="M2379.28,-156.64C2012.03,-154.53 251.8,-142.59 209,-107 184.43,-86.57 186.5,-43.31 188.7,-24.75"/>
<polygon fill="#63b8ff" stroke="#63b8ff" points="2379.22,-160.14 2389.24,-156.7 2379.26,-153.14 2379.22,-160.14"/>
</g>
<!-- Node17 -->
<g id="node8" class="node">
<title>Node17</title>
<g id="a_node8"><a xlink:href="d__a__obj__item_8cpp.html" target="_top" xlink:title=" ">
<polygon fill="white" stroke="#666666" points="4920.5,-24.5 4795.5,-24.5 4795.5,-5.5 4920.5,-5.5 4920.5,-24.5"/>
<text text-anchor="middle" x="4858" y="-12.5" font-family="Helvetica,sans-Serif" font-size="10.00">src/d/a/d_a_obj_item.cpp</text>
</a>
</g>
</g>
<!-- Node3&#45;&gt;Node17 -->
<g id="edge32" class="edge">
<title>Node3&#45;&gt;Node17</title>
<path fill="none" stroke="#63b8ff" d="M2512.73,-156.74C2895.13,-155.13 4793.01,-145.19 4839,-107 4863.59,-86.59 4861.51,-43.31 4859.3,-24.75"/>
<polygon fill="#63b8ff" stroke="#63b8ff" points="2512.83,-153.24 2502.85,-156.78 2512.86,-160.24 2512.83,-153.24"/>
</g>
<!-- Node18 -->
<g id="node9" class="node">
<title>Node18</title>
<g id="a_node9"><a xlink:href="d__com__inf__game_8cpp.html" target="_top" xlink:title=" ">
<polygon fill="white" stroke="#666666" points="660,-30 552,-30 552,0 660,0 660,-30"/>
<text text-anchor="start" x="560" y="-18" font-family="Helvetica,sans-Serif" font-size="10.00">src/d/com/d_com_inf</text>
<text text-anchor="middle" x="606" y="-7" font-family="Helvetica,sans-Serif" font-size="10.00">_game.cpp</text>
</a>
</g>
</g>
<!-- Node3&#45;&gt;Node18 -->
<g id="edge38" class="edge">
<title>Node3&#45;&gt;Node18</title>
<path fill="none" stroke="#63b8ff" d="M2379.7,-156.89C2065.53,-156.13 738.8,-150.36 663,-107 633.55,-90.15 617.16,-51.27 610.15,-30.19"/>
<polygon fill="#63b8ff" stroke="#63b8ff" points="2379.35,-160.39 2389.36,-156.91 2379.37,-153.39 2379.35,-160.39"/>
</g>
<!-- Node21 -->
<g id="node10" class="node">
<title>Node21</title>
<g id="a_node10"><a xlink:href="d__kantera__icon__meter_8h.html" target="_top" xlink:title=" ">
<polygon fill="#fff0f0" stroke="red" points="773.5,-101.5 672.5,-101.5 672.5,-71.5 773.5,-71.5 773.5,-101.5"/>
<text text-anchor="start" x="680.5" y="-89.5" font-family="Helvetica,sans-Serif" font-size="10.00">include/d/d_kantera</text>
<text text-anchor="middle" x="723" y="-78.5" font-family="Helvetica,sans-Serif" font-size="10.00">_icon_meter.h</text>
</a>
</g>
</g>
<!-- Node3&#45;&gt;Node21 -->
<g id="edge9" class="edge">
<title>Node3&#45;&gt;Node21</title>
<path fill="none" stroke="#63b8ff" d="M2379.62,-156.14C2089.57,-152.22 940.96,-135.04 782,-107 775.2,-105.8 768.11,-103.98 761.31,-101.93"/>
<polygon fill="#63b8ff" stroke="#63b8ff" points="2379.22,-159.63 2389.26,-156.27 2379.31,-152.63 2379.22,-159.63"/>
</g>
<!-- Node24 -->
<g id="node11" class="node">
<title>Node24</title>
<g id="a_node11"><a xlink:href="d__model_8h.html" target="_top" xlink:title=" ">
<polygon fill="#fff0f0" stroke="red" points="894.5,-96 791.5,-96 791.5,-77 894.5,-77 894.5,-96"/>
<text text-anchor="middle" x="843" y="-84" font-family="Helvetica,sans-Serif" font-size="10.00">include/d/d_model.h</text>
</a>
</g>
</g>
<!-- Node3&#45;&gt;Node24 -->
<g id="edge10" class="edge">
<title>Node3&#45;&gt;Node24</title>
<path fill="none" stroke="#63b8ff" d="M2379.39,-157.33C2122.09,-158.22 1193.07,-157.78 903,-107 890.27,-104.77 876.53,-100.45 865.41,-96.45"/>
<polygon fill="#63b8ff" stroke="#63b8ff" points="2379.27,-160.83 2389.26,-157.29 2379.24,-153.83 2379.27,-160.83"/>
</g>
<!-- Node26 -->
<g id="node12" class="node">
<title>Node26</title>
<g id="a_node12"><a xlink:href="d__name_8h.html" target="_top" xlink:title=" ">
<polygon fill="#fff0f0" stroke="red" points="1013.5,-96 912.5,-96 912.5,-77 1013.5,-77 1013.5,-96"/>
<text text-anchor="middle" x="963" y="-84" font-family="Helvetica,sans-Serif" font-size="10.00">include/d/d_name.h</text>
</a>
</g>
</g>
<!-- Node3&#45;&gt;Node26 -->
<g id="edge11" class="edge">
<title>Node3&#45;&gt;Node26</title>
<path fill="none" stroke="#63b8ff" d="M2379.33,-157.12C2134.93,-157.16 1288.55,-153.86 1023,-107 1010.27,-104.75 996.53,-100.44 985.41,-96.43"/>
<polygon fill="#63b8ff" stroke="#63b8ff" points="2379,-160.62 2389,-157.11 2379,-153.62 2379,-160.62"/>
</g>
<!-- Node28 -->
<g id="node13" class="node">
<title>Node28</title>
<g id="a_node13"><a xlink:href="d__file__sel__info_8h.html" target="_top" xlink:title=" ">
<polygon fill="#fff0f0" stroke="red" points="1128,-101.5 1032,-101.5 1032,-71.5 1128,-71.5 1128,-101.5"/>
<text text-anchor="start" x="1040" y="-89.5" font-family="Helvetica,sans-Serif" font-size="10.00">include/d/file/d_file</text>
<text text-anchor="middle" x="1080" y="-78.5" font-family="Helvetica,sans-Serif" font-size="10.00">_sel_info.h</text>
</a>
</g>
</g>
<!-- Node3&#45;&gt;Node28 -->
<g id="edge12" class="edge">
<title>Node3&#45;&gt;Node28</title>
<path fill="none" stroke="#63b8ff" d="M2379.32,-157.01C2147.7,-156.65 1379,-152.01 1137,-107 1130.52,-105.8 1123.78,-104 1117.3,-101.98"/>
<polygon fill="#63b8ff" stroke="#63b8ff" points="2379.07,-160.51 2389.07,-157.02 2379.07,-153.51 2379.07,-160.51"/>
</g>
<!-- Node31 -->
<g id="node14" class="node">
<title>Node31</title>
<g id="a_node14"><a xlink:href="d__file__sel__warning_8h.html" target="_top" xlink:title=" ">
<polygon fill="#fff0f0" stroke="red" points="1242,-101.5 1146,-101.5 1146,-71.5 1242,-71.5 1242,-101.5"/>
<text text-anchor="start" x="1154" y="-89.5" font-family="Helvetica,sans-Serif" font-size="10.00">include/d/file/d_file</text>
<text text-anchor="middle" x="1194" y="-78.5" font-family="Helvetica,sans-Serif" font-size="10.00">_sel_warning.h</text>
</a>
</g>
</g>
<!-- Node3&#45;&gt;Node31 -->
<g id="edge13" class="edge">
<title>Node3&#45;&gt;Node31</title>
<path fill="none" stroke="#63b8ff" d="M2379.34,-156.73C2161.16,-155.44 1469.91,-148.13 1251,-107 1244.52,-105.78 1237.78,-103.98 1231.3,-101.96"/>
<polygon fill="#63b8ff" stroke="#63b8ff" points="2379.05,-160.23 2389.07,-156.78 2379.09,-153.23 2379.05,-160.23"/>
</g>
<!-- Node33 -->
<g id="node15" class="node">
<title>Node33</title>
<g id="a_node15"><a xlink:href="d__meter2_8h.html" target="_top" xlink:title=" ">
<polygon fill="#fff0f0" stroke="red" points="1394,-96 1260,-96 1260,-77 1394,-77 1394,-96"/>
<text text-anchor="middle" x="1327" y="-84" font-family="Helvetica,sans-Serif" font-size="10.00">include/d/meter/d_meter2.h</text>
</a>
</g>
</g>
<!-- Node3&#45;&gt;Node33 -->
<g id="edge14" class="edge">
<title>Node3&#45;&gt;Node33</title>
<path fill="none" stroke="#63b8ff" d="M2379.35,-155.58C2180.33,-151.04 1592.49,-135.55 1403,-107 1387.24,-104.63 1370.01,-100.35 1355.95,-96.4"/>
<polygon fill="#63b8ff" stroke="#63b8ff" points="2379.18,-159.07 2389.26,-155.8 2379.34,-152.08 2379.18,-159.07"/>
</g>
<!-- Node40 -->
<g id="node16" class="node">
<title>Node40</title>
<g id="a_node16"><a xlink:href="d__msg__object_8h.html" target="_top" xlink:title=" ">
<polygon fill="#fff0f0" stroke="red" points="162,-101.5 52,-101.5 52,-71.5 162,-71.5 162,-101.5"/>
<text text-anchor="start" x="60" y="-89.5" font-family="Helvetica,sans-Serif" font-size="10.00">include/d/msg/d_msg</text>
<text text-anchor="middle" x="107" y="-78.5" font-family="Helvetica,sans-Serif" font-size="10.00">_object.h</text>
</a>
</g>
</g>
<!-- Node3&#45;&gt;Node40 -->
<g id="edge15" class="edge">
<title>Node3&#45;&gt;Node40</title>
<path fill="none" stroke="#63b8ff" d="M2379.18,-156.54C2027.47,-153.96 398.36,-140.32 176,-107 168.12,-105.82 159.87,-104.01 151.92,-101.96"/>
<polygon fill="#63b8ff" stroke="#63b8ff" points="2379.13,-160.04 2389.16,-156.61 2379.18,-153.04 2379.13,-160.04"/>
</g>
<!-- Node45 -->
<g id="node17" class="node">
<title>Node45</title>
<g id="a_node17"><a xlink:href="d__demo_8cpp.html" target="_top" xlink:title=" ">
<polygon fill="white" stroke="#666666" points="94,-24.5 0,-24.5 0,-5.5 94,-5.5 94,-24.5"/>
<text text-anchor="middle" x="47" y="-12.5" font-family="Helvetica,sans-Serif" font-size="10.00">src/d/d_demo.cpp</text>
</a>
</g>
</g>
<!-- Node3&#45;&gt;Node45 -->
<g id="edge43" class="edge">
<title>Node3&#45;&gt;Node45</title>
<path fill="none" stroke="#63b8ff" d="M2379.18,-156.89C1995.18,-156.08 85.02,-149.9 43,-107 21.2,-84.74 35.32,-42.85 42.99,-24.73"/>
<polygon fill="#63b8ff" stroke="#63b8ff" points="2379.1,-160.39 2389.1,-156.91 2379.11,-153.39 2379.1,-160.39"/>
</g>
<!-- Node54 -->
<g id="node18" class="node">
<title>Node54</title>
<g id="a_node18"><a xlink:href="d__s__logo_8h.html" target="_top" xlink:title=" ">
<polygon fill="#fff0f0" stroke="red" points="1525.5,-96 1412.5,-96 1412.5,-77 1525.5,-77 1525.5,-96"/>
<text text-anchor="middle" x="1469" y="-84" font-family="Helvetica,sans-Serif" font-size="10.00">include/d/s/d_s_logo.h</text>
</a>
</g>
</g>
<!-- Node3&#45;&gt;Node54 -->
<g id="edge18" class="edge">
<title>Node3&#45;&gt;Node54</title>
<path fill="none" stroke="#63b8ff" d="M2379.39,-155.39C2197.75,-150.68 1696.57,-135.43 1534,-107 1520.42,-104.63 1505.68,-100.35 1493.67,-96.4"/>
<polygon fill="#63b8ff" stroke="#63b8ff" points="2379.03,-158.88 2389.12,-155.64 2379.21,-151.89 2379.03,-158.88"/>
</g>
<!-- Node56 -->
<g id="node19" class="node">
<title>Node56</title>
<g id="a_node19"><a xlink:href="d__s__play_8h.html" target="_top" xlink:title=" ">
<polygon fill="#fff0f0" stroke="red" points="1656.5,-96 1543.5,-96 1543.5,-77 1656.5,-77 1656.5,-96"/>
<text text-anchor="middle" x="1600" y="-84" font-family="Helvetica,sans-Serif" font-size="10.00">include/d/s/d_s_play.h</text>
</a>
</g>
</g>
<!-- Node3&#45;&gt;Node56 -->
<g id="edge19" class="edge">
<title>Node3&#45;&gt;Node56</title>
<path fill="none" stroke="#63b8ff" d="M2379.16,-157.81C2243.42,-158.34 1926.18,-153.91 1665,-107 1651.55,-104.58 1636.94,-100.35 1624.99,-96.45"/>
<polygon fill="#63b8ff" stroke="#63b8ff" points="2379.07,-161.31 2389.05,-157.76 2379.03,-154.31 2379.07,-161.31"/>
</g>
<!-- Node60 -->
<g id="node20" class="node">
<title>Node60</title>
<g id="a_node20"><a xlink:href="d__msg__scrn__base_8h.html" target="_top" xlink:title=" ">
<polygon fill="#fff0f0" stroke="red" points="1773.5,-101.5 1674.5,-101.5 1674.5,-71.5 1773.5,-71.5 1773.5,-101.5"/>
<text text-anchor="start" x="1682.5" y="-89.5" font-family="Helvetica,sans-Serif" font-size="10.00">include/msg/scrn/d</text>
<text text-anchor="middle" x="1724" y="-78.5" font-family="Helvetica,sans-Serif" font-size="10.00">_msg_scrn_base.h</text>
</a>
</g>
</g>
<!-- Node3&#45;&gt;Node60 -->
<g id="edge20" class="edge">
<title>Node3&#45;&gt;Node60</title>
<path fill="none" stroke="#63b8ff" d="M2379.5,-157.43C2259.09,-157.02 1997.41,-150.61 1782,-107 1775.65,-105.71 1769.03,-103.93 1762.63,-101.97"/>
<polygon fill="#63b8ff" stroke="#63b8ff" points="2379.19,-160.93 2389.2,-157.45 2379.2,-153.93 2379.19,-160.93"/>
</g>
<!-- Node64 -->
<g id="node21" class="node">
<title>Node64</title>
<g id="a_node21"><a xlink:href="d__a__b__zant_8h.html" target="_top" xlink:title=" ">
<polygon fill="white" stroke="#666666" points="1912.5,-101.5 1791.5,-101.5 1791.5,-71.5 1912.5,-71.5 1912.5,-101.5"/>
<text text-anchor="start" x="1799.5" y="-89.5" font-family="Helvetica,sans-Serif" font-size="10.00">include/rel/d/a/b/d</text>
<text text-anchor="middle" x="1852" y="-78.5" font-family="Helvetica,sans-Serif" font-size="10.00">_a_b_zant/d_a_b_zant.h</text>
</a>
</g>
</g>
<!-- Node3&#45;&gt;Node64 -->
<g id="edge21" class="edge">
<title>Node3&#45;&gt;Node64</title>
<path fill="none" stroke="#63b8ff" d="M2379.44,-154.41C2279.41,-149.68 2084.71,-137.18 1922,-107 1914.68,-105.64 1907.02,-103.87 1899.56,-101.96"/>
<polygon fill="#63b8ff" stroke="#63b8ff" points="2379.2,-157.91 2389.35,-154.87 2379.52,-150.91 2379.2,-157.91"/>
</g>
<!-- Node65 -->
<g id="node22" class="node">
<title>Node65</title>
<g id="a_node22"><a xlink:href="d__a__skip__2D_8h.html" target="_top" xlink:title=" ">
<polygon fill="white" stroke="#666666" points="2055,-101.5 1931,-101.5 1931,-71.5 2055,-71.5 2055,-101.5"/>
<text text-anchor="start" x="1939" y="-89.5" font-family="Helvetica,sans-Serif" font-size="10.00">include/rel/d/a/d_a</text>
<text text-anchor="middle" x="1993" y="-78.5" font-family="Helvetica,sans-Serif" font-size="10.00">_skip_2D/d_a_skip_2D.h</text>
</a>
</g>
</g>
<!-- Node3&#45;&gt;Node65 -->
<g id="edge22" class="edge">
<title>Node3&#45;&gt;Node65</title>
<path fill="none" stroke="#63b8ff" d="M2379.2,-151.07C2302.58,-143.63 2173.45,-129.08 2064,-107 2056.86,-105.56 2049.38,-103.79 2042.06,-101.92"/>
<polygon fill="#63b8ff" stroke="#63b8ff" points="2378.78,-154.55 2389.06,-152.02 2379.44,-147.58 2378.78,-154.55"/>
</g>
<!-- Node66 -->
<g id="node23" class="node">
<title>Node66</title>
<g id="a_node23"><a xlink:href="d__a__spinner_8h.html" target="_top" xlink:title=" ">
<polygon fill="white" stroke="#666666" points="334,-101.5 218,-101.5 218,-71.5 334,-71.5 334,-101.5"/>
<text text-anchor="start" x="226" y="-89.5" font-family="Helvetica,sans-Serif" font-size="10.00">include/rel/d/a/d_a</text>
<text text-anchor="middle" x="276" y="-78.5" font-family="Helvetica,sans-Serif" font-size="10.00">_spinner/d_a_spinner.h</text>
</a>
</g>
</g>
<!-- Node3&#45;&gt;Node66 -->
<g id="edge23" class="edge">
<title>Node3&#45;&gt;Node66</title>
<path fill="none" stroke="#63b8ff" d="M2379.29,-156.44C2043.69,-153.5 547.87,-138.7 343,-107 335.34,-105.81 327.32,-104 319.6,-101.95"/>
<polygon fill="#63b8ff" stroke="#63b8ff" points="2379.2,-159.94 2389.23,-156.53 2379.26,-152.94 2379.2,-159.94"/>
</g>
<!-- Node67 -->
<g id="node24" class="node">
<title>Node67</title>
<g id="a_node24"><a xlink:href="d__a__player_8cpp.html" target="_top" xlink:title=" ">
<polygon fill="white" stroke="#666666" points="475,-24.5 361,-24.5 361,-5.5 475,-5.5 475,-24.5"/>
<text text-anchor="middle" x="418" y="-12.5" font-family="Helvetica,sans-Serif" font-size="10.00">src/d/a/d_a_player.cpp</text>
</a>
</g>
</g>
<!-- Node3&#45;&gt;Node67 -->
<g id="edge33" class="edge">
<title>Node3&#45;&gt;Node67</title>
<path fill="none" stroke="#63b8ff" d="M2379.39,-156.71C2048.96,-155.06 598.04,-145.67 511,-107 488.02,-96.79 489.9,-83.66 472,-66 456.9,-51.1 438.68,-34.5 427.73,-24.67"/>
<polygon fill="#63b8ff" stroke="#63b8ff" points="2379.14,-160.2 2389.16,-156.75 2379.17,-153.2 2379.14,-160.2"/>
</g>
<!-- Node68 -->
<g id="node25" class="node">
<title>Node68</title>
<g id="a_node25"><a xlink:href="d__a__obj__yobikusa_8h.html" target="_top" xlink:title=" ">
<polygon fill="white" stroke="#666666" points="2178.5,-107 2073.5,-107 2073.5,-66 2178.5,-66 2178.5,-107"/>
<text text-anchor="start" x="2081.5" y="-95" font-family="Helvetica,sans-Serif" font-size="10.00">include/rel/d/a/obj</text>
<text text-anchor="start" x="2081.5" y="-84" font-family="Helvetica,sans-Serif" font-size="10.00">/d_a_obj_yobikusa/d</text>
<text text-anchor="middle" x="2126" y="-73" font-family="Helvetica,sans-Serif" font-size="10.00">_a_obj_yobikusa.h</text>
</a>
</g>
</g>
<!-- Node3&#45;&gt;Node68 -->
<g id="edge26" class="edge">
<title>Node3&#45;&gt;Node68</title>
<path fill="none" stroke="#63b8ff" d="M2379.58,-146.26C2327.21,-137.28 2252.49,-123.33 2188,-107 2185.05,-106.25 2182.03,-105.44 2178.99,-104.6"/>
<polygon fill="#63b8ff" stroke="#63b8ff" points="2378.8,-149.68 2389.25,-147.9 2379.98,-142.78 2378.8,-149.68"/>
</g>
<!-- Node69 -->
<g id="node26" class="node">
<title>Node69</title>
<g id="a_node26"><a xlink:href="d__a__tag__telop_8h.html" target="_top" xlink:title=" ">
<polygon fill="white" stroke="#666666" points="2315,-107 2197,-107 2197,-66 2315,-66 2315,-107"/>
<text text-anchor="start" x="2205" y="-95" font-family="Helvetica,sans-Serif" font-size="10.00">include/rel/d/a/tag</text>
<text text-anchor="start" x="2205" y="-84" font-family="Helvetica,sans-Serif" font-size="10.00">/d_a_tag_telop/d_a_tag</text>
<text text-anchor="middle" x="2256" y="-73" font-family="Helvetica,sans-Serif" font-size="10.00">_telop.h</text>
</a>
</g>
</g>
<!-- Node3&#45;&gt;Node69 -->
<g id="edge27" class="edge">
<title>Node3&#45;&gt;Node69</title>
<path fill="none" stroke="#63b8ff" d="M2396.12,-138.75C2369.79,-129.12 2337.43,-117.29 2310.45,-107.42"/>
<polygon fill="#63b8ff" stroke="#63b8ff" points="2394.62,-141.93 2405.21,-142.08 2397.02,-135.36 2394.62,-141.93"/>
</g>
<!-- Node70 -->
<g id="node27" class="node">
<title>Node70</title>
<g id="a_node27"><a xlink:href="c__dylink_8cpp.html" target="_top" xlink:title=" ">
<polygon fill="white" stroke="#666666" points="2428.5,-96 2333.5,-96 2333.5,-77 2428.5,-77 2428.5,-96"/>
<text text-anchor="middle" x="2381" y="-84" font-family="Helvetica,sans-Serif" font-size="10.00">src/c/c_dylink.cpp</text>
</a>
</g>
</g>
<!-- Node3&#45;&gt;Node70 -->
<g id="edge28" class="edge">
<title>Node3&#45;&gt;Node70</title>
<path fill="none" stroke="#63b8ff" d="M2424.95,-134.49C2412.73,-121.43 2398.04,-105.72 2389.12,-96.18"/>
<polygon fill="#63b8ff" stroke="#63b8ff" points="2422.11,-136.58 2431.5,-141.49 2427.22,-131.8 2422.11,-136.58"/>
</g>
<!-- Node71 -->
<g id="node28" class="node">
<title>Node71</title>
<g id="a_node28"><a xlink:href="d__a__itembase_8cpp.html" target="_top" xlink:title=" ">
<polygon fill="white" stroke="#666666" points="2575,-96 2447,-96 2447,-77 2575,-77 2575,-96"/>
<text text-anchor="middle" x="2511" y="-84" font-family="Helvetica,sans-Serif" font-size="10.00">src/d/a/d_a_itembase.cpp</text>
</a>
</g>
</g>
<!-- Node3&#45;&gt;Node71 -->
<g id="edge30" class="edge">
<title>Node3&#45;&gt;Node71</title>
<path fill="none" stroke="#63b8ff" d="M2467.05,-134.49C2479.27,-121.43 2493.96,-105.72 2502.88,-96.18"/>
<polygon fill="#63b8ff" stroke="#63b8ff" points="2464.78,-131.8 2460.5,-141.49 2469.89,-136.58 2464.78,-131.8"/>
</g>
<!-- Node72 -->
<g id="node29" class="node">
<title>Node72</title>
<g id="a_node29"><a xlink:href="d__a__obj_8cpp.html" target="_top" xlink:title=" ">
<polygon fill="white" stroke="#666666" points="2694.5,-96 2593.5,-96 2593.5,-77 2694.5,-77 2694.5,-96"/>
<text text-anchor="middle" x="2644" y="-84" font-family="Helvetica,sans-Serif" font-size="10.00">src/d/a/d_a_obj.cpp</text>
</a>
</g>
</g>
<!-- Node3&#45;&gt;Node72 -->
<g id="edge31" class="edge">
<title>Node3&#45;&gt;Node72</title>
<path fill="none" stroke="#63b8ff" d="M2497.61,-138.88C2536.44,-125.26 2587.99,-107.16 2618.42,-96.48"/>
<polygon fill="#63b8ff" stroke="#63b8ff" points="2496.73,-135.48 2488.45,-142.1 2499.05,-142.09 2496.73,-135.48"/>
</g>
<!-- Node73 -->
<g id="node30" class="node">
<title>Node73</title>
<g id="a_node30"><a xlink:href="d__bg__s_8cpp.html" target="_top" xlink:title=" ">
<polygon fill="white" stroke="#666666" points="2817,-96 2713,-96 2713,-77 2817,-77 2817,-96"/>
<text text-anchor="middle" x="2765" y="-84" font-family="Helvetica,sans-Serif" font-size="10.00">src/d/bg/d_bg_s.cpp</text>
</a>
</g>
</g>
<!-- Node3&#45;&gt;Node73 -->
<g id="edge34" class="edge">
<title>Node3&#45;&gt;Node73</title>
<path fill="none" stroke="#63b8ff" d="M2512.44,-146.35C2564.83,-137.41 2639.55,-123.48 2704,-107 2715.74,-104 2728.54,-100.02 2739.37,-96.43"/>
<polygon fill="#63b8ff" stroke="#63b8ff" points="2512.05,-142.86 2502.77,-147.98 2513.21,-149.76 2512.05,-142.86"/>
</g>
<!-- Node74 -->
<g id="node31" class="node">
<title>Node74</title>
<g id="a_node31"><a xlink:href="d__bg__s__movebg__actor_8cpp.html" target="_top" xlink:title=" ">
<polygon fill="white" stroke="#666666" points="2961,-101.5 2835,-101.5 2835,-71.5 2961,-71.5 2961,-101.5"/>
<text text-anchor="start" x="2843" y="-89.5" font-family="Helvetica,sans-Serif" font-size="10.00">src/d/bg/d_bg_s_movebg</text>
<text text-anchor="middle" x="2898" y="-78.5" font-family="Helvetica,sans-Serif" font-size="10.00">_actor.cpp</text>
</a>
</g>
</g>
<!-- Node3&#45;&gt;Node74 -->
<g id="edge35" class="edge">
<title>Node3&#45;&gt;Node74</title>
<path fill="none" stroke="#63b8ff" d="M2512.76,-150.94C2589,-143.4 2717.24,-128.78 2826,-107 2833.24,-105.55 2840.82,-103.78 2848.24,-101.9"/>
<polygon fill="#63b8ff" stroke="#63b8ff" points="2512.56,-147.45 2502.95,-151.9 2513.24,-154.41 2512.56,-147.45"/>
</g>
<!-- Node75 -->
<g id="node32" class="node">
<title>Node75</title>
<g id="a_node32"><a xlink:href="d__bg__w_8cpp.html" target="_top" xlink:title=" ">
<polygon fill="white" stroke="#666666" points="3086.5,-96 2979.5,-96 2979.5,-77 3086.5,-77 3086.5,-96"/>
<text text-anchor="middle" x="3033" y="-84" font-family="Helvetica,sans-Serif" font-size="10.00">src/d/bg/d_bg_w.cpp</text>
</a>
</g>
</g>
<!-- Node3&#45;&gt;Node75 -->
<g id="edge36" class="edge">
<title>Node3&#45;&gt;Node75</title>
<path fill="none" stroke="#63b8ff" d="M2512.68,-155.01C2612.85,-151.04 2807.74,-139.5 2970,-107 2982.8,-104.44 2996.69,-100.29 3008.17,-96.48"/>
<polygon fill="#63b8ff" stroke="#63b8ff" points="2512.6,-151.51 2502.74,-155.39 2512.87,-158.5 2512.6,-151.51"/>
</g>
<!-- Node76 -->
<g id="node33" class="node">
<title>Node76</title>
<g id="a_node33"><a xlink:href="d__cc__s_8cpp.html" target="_top" xlink:title=" ">
<polygon fill="white" stroke="#666666" points="3209,-96 3105,-96 3105,-77 3209,-77 3209,-96"/>
<text text-anchor="middle" x="3157" y="-84" font-family="Helvetica,sans-Serif" font-size="10.00">src/d/cc/d_cc_s.cpp</text>
</a>
</g>
</g>
<!-- Node3&#45;&gt;Node76 -->
<g id="edge37" class="edge">
<title>Node3&#45;&gt;Node76</title>
<path fill="none" stroke="#63b8ff" d="M2512.75,-156.96C2631.29,-155.76 2885.84,-148.09 3096,-107 3108.55,-104.55 3122.13,-100.36 3133.29,-96.5"/>
<polygon fill="#63b8ff" stroke="#63b8ff" points="2512.85,-153.46 2502.88,-157.04 2512.91,-160.46 2512.85,-153.46"/>
</g>
<!-- Node77 -->
<g id="node34" class="node">
<title>Node77</title>
<g id="a_node34"><a xlink:href="d__com__static_8cpp.html" target="_top" xlink:title=" ">
<polygon fill="white" stroke="#666666" points="3367,-96 3227,-96 3227,-77 3367,-77 3367,-96"/>
<text text-anchor="middle" x="3297" y="-84" font-family="Helvetica,sans-Serif" font-size="10.00">src/d/com/d_com_static.cpp</text>
</a>
</g>
</g>
<!-- Node3&#45;&gt;Node77 -->
<g id="edge39" class="edge">
<title>Node3&#45;&gt;Node77</title>
<path fill="none" stroke="#63b8ff" d="M2512.39,-156.65C2646.52,-155.08 2959.09,-147.02 3218,-107 3234.06,-104.52 3251.63,-100.33 3266.11,-96.47"/>
<polygon fill="#63b8ff" stroke="#63b8ff" points="2512.6,-153.15 2502.63,-156.76 2512.67,-160.15 2512.6,-153.15"/>
</g>
<!-- Node78 -->
<g id="node35" class="node">
<title>Node78</title>
<g id="a_node35"><a xlink:href="d__attention_8cpp.html" target="_top" xlink:title=" ">
<polygon fill="white" stroke="#666666" points="3492.5,-96 3385.5,-96 3385.5,-77 3492.5,-77 3492.5,-96"/>
<text text-anchor="middle" x="3439" y="-84" font-family="Helvetica,sans-Serif" font-size="10.00">src/d/d_attention.cpp</text>
</a>
</g>
</g>
<!-- Node3&#45;&gt;Node78 -->
<g id="edge40" class="edge">
<title>Node3&#45;&gt;Node78</title>
<path fill="none" stroke="#63b8ff" d="M2512.64,-155.55C2696.78,-151.2 3209.95,-136.69 3376,-107 3389.19,-104.64 3403.48,-100.37 3415.11,-96.42"/>
<polygon fill="#63b8ff" stroke="#63b8ff" points="2512.68,-152.05 2502.76,-155.78 2512.84,-159.04 2512.68,-152.05"/>
</g>
<!-- Node79 -->
<g id="node36" class="node">
<title>Node79</title>
<g id="a_node36"><a xlink:href="d__cam__param_8cpp.html" target="_top" xlink:title=" ">
<polygon fill="white" stroke="#666666" points="3631.5,-96 3510.5,-96 3510.5,-77 3631.5,-77 3631.5,-96"/>
<text text-anchor="middle" x="3571" y="-84" font-family="Helvetica,sans-Serif" font-size="10.00">src/d/d_cam_param.cpp</text>
</a>
</g>
</g>
<!-- Node3&#45;&gt;Node79 -->
<g id="edge41" class="edge">
<title>Node3&#45;&gt;Node79</title>
<path fill="none" stroke="#63b8ff" d="M2512.51,-155.83C2713.13,-152 3310.19,-138.22 3502,-107 3516.38,-104.66 3532.02,-100.39 3544.78,-96.43"/>
<polygon fill="#63b8ff" stroke="#63b8ff" points="2512.73,-152.33 2502.8,-156.02 2512.86,-159.33 2512.73,-152.33"/>
</g>
<!-- Node80 -->
<g id="node37" class="node">
<title>Node80</title>
<g id="a_node37"><a xlink:href="d__camera_8cpp.html" target="_top" xlink:title=" ">
<polygon fill="white" stroke="#666666" points="3752,-96 3650,-96 3650,-77 3752,-77 3752,-96"/>
<text text-anchor="middle" x="3701" y="-84" font-family="Helvetica,sans-Serif" font-size="10.00">src/d/d_camera.cpp</text>
</a>
</g>
</g>
<!-- Node3&#45;&gt;Node80 -->
<g id="edge42" class="edge">
<title>Node3&#45;&gt;Node80</title>
<path fill="none" stroke="#63b8ff" d="M2512.64,-156.59C2730.74,-154.89 3421.78,-146.44 3641,-107 3653.61,-104.73 3667.23,-100.46 3678.3,-96.5"/>
<polygon fill="#63b8ff" stroke="#63b8ff" points="2512.88,-153.09 2502.91,-156.67 2512.93,-160.09 2512.88,-153.09"/>
</g>
<!-- Node81 -->
<g id="node38" class="node">
<title>Node81</title>
<g id="a_node38"><a xlink:href="d__eye__hl_8cpp.html" target="_top" xlink:title=" ">
<polygon fill="white" stroke="#666666" points="3868,-96 3770,-96 3770,-77 3868,-77 3868,-96"/>
<text text-anchor="middle" x="3819" y="-84" font-family="Helvetica,sans-Serif" font-size="10.00">src/d/d_eye_hl.cpp</text>
</a>
</g>
</g>
<!-- Node3&#45;&gt;Node81 -->
<g id="edge44" class="edge">
<title>Node3&#45;&gt;Node81</title>
<path fill="none" stroke="#63b8ff" d="M2512.58,-156.98C2744.76,-156.52 3517.63,-151.58 3761,-107 3773.33,-104.74 3786.62,-100.42 3797.36,-96.42"/>
<polygon fill="#63b8ff" stroke="#63b8ff" points="2512.8,-153.48 2502.81,-157 2512.81,-160.48 2512.8,-153.48"/>
</g>
<!-- Node82 -->
<g id="node39" class="node">
<title>Node82</title>
<g id="a_node39"><a xlink:href="d__kyeff_8cpp.html" target="_top" xlink:title=" ">
<polygon fill="white" stroke="#666666" points="3976,-96 3886,-96 3886,-77 3976,-77 3976,-96"/>
<text text-anchor="middle" x="3931" y="-84" font-family="Helvetica,sans-Serif" font-size="10.00">src/d/d_kyeff.cpp</text>
</a>
</g>
</g>
<!-- Node3&#45;&gt;Node82 -->
<g id="edge45" class="edge">
<title>Node3&#45;&gt;Node82</title>
<path fill="none" stroke="#63b8ff" d="M2512.68,-157.41C2758.09,-158.51 3610.6,-158.44 3877,-107 3888.55,-104.77 3900.92,-100.45 3910.91,-96.45"/>
<polygon fill="#63b8ff" stroke="#63b8ff" points="2512.99,-153.91 2502.97,-157.37 2512.95,-160.91 2512.99,-153.91"/>
</g>
<!-- Node83 -->
<g id="node40" class="node">
<title>Node83</title>
<g id="a_node40"><a xlink:href="d__path_8cpp.html" target="_top" xlink:title=" ">
<polygon fill="white" stroke="#666666" points="4083.5,-96 3994.5,-96 3994.5,-77 4083.5,-77 4083.5,-96"/>
<text text-anchor="middle" x="4039" y="-84" font-family="Helvetica,sans-Serif" font-size="10.00">src/d/d_path.cpp</text>
</a>
</g>
</g>
<!-- Node3&#45;&gt;Node83 -->
<g id="edge46" class="edge">
<title>Node3&#45;&gt;Node83</title>
<path fill="none" stroke="#63b8ff" d="M2512.75,-156.06C2789.54,-152.01 3839.33,-134.94 3985,-107 3996.55,-104.78 4008.93,-100.47 4018.91,-96.46"/>
<polygon fill="#63b8ff" stroke="#63b8ff" points="2512.77,-152.56 2502.82,-156.21 2512.87,-159.56 2512.77,-152.56"/>
</g>
<!-- Node84 -->
<g id="node41" class="node">
<title>Node84</title>
<g id="a_node41"><a xlink:href="d__resorce_8cpp.html" target="_top" xlink:title=" ">
<polygon fill="white" stroke="#666666" points="4204,-96 4102,-96 4102,-77 4204,-77 4204,-96"/>
<text text-anchor="middle" x="4153" y="-84" font-family="Helvetica,sans-Serif" font-size="10.00">src/d/d_resorce.cpp</text>
</a>
</g>
</g>
<!-- Node3&#45;&gt;Node84 -->
<g id="edge47" class="edge">
<title>Node3&#45;&gt;Node84</title>
<path fill="none" stroke="#63b8ff" d="M2512.61,-156.09C2801.15,-152.01 3935.77,-134.36 4093,-107 4105.73,-104.78 4119.48,-100.47 4130.59,-96.46"/>
<polygon fill="#63b8ff" stroke="#63b8ff" points="2512.56,-152.59 2502.61,-156.23 2512.66,-159.59 2512.56,-152.59"/>
</g>
<!-- Node85 -->
<g id="node42" class="node">
<title>Node85</title>
<g id="a_node42"><a xlink:href="d__simple__model_8cpp.html" target="_top" xlink:title=" ">
<polygon fill="white" stroke="#666666" points="4352,-96 4222,-96 4222,-77 4352,-77 4352,-96"/>
<text text-anchor="middle" x="4287" y="-84" font-family="Helvetica,sans-Serif" font-size="10.00">src/d/d_simple_model.cpp</text>
</a>
</g>
</g>
<!-- Node3&#45;&gt;Node85 -->
<g id="edge48" class="edge">
<title>Node3&#45;&gt;Node85</title>
<path fill="none" stroke="#63b8ff" d="M2512.27,-157.16C2791.77,-157.5 3875.38,-155.6 4213,-107 4228.52,-104.77 4245.45,-100.45 4259.2,-96.44"/>
<polygon fill="#63b8ff" stroke="#63b8ff" points="2512.64,-153.66 2502.63,-157.14 2512.63,-160.66 2512.64,-153.66"/>
</g>
<!-- Node86 -->
<g id="node43" class="node">
<title>Node86</title>
<g id="a_node43"><a xlink:href="d__stage_8cpp.html" target="_top" xlink:title=" ">
<polygon fill="white" stroke="#666666" points="4464,-96 4370,-96 4370,-77 4464,-77 4464,-96"/>
<text text-anchor="middle" x="4417" y="-84" font-family="Helvetica,sans-Serif" font-size="10.00">src/d/d_stage.cpp</text>
</a>
</g>
</g>
<!-- Node3&#45;&gt;Node86 -->
<g id="edge49" class="edge">
<title>Node3&#45;&gt;Node86</title>
<path fill="none" stroke="#63b8ff" d="M2512.33,-156.48C2828.66,-153.84 4176.39,-140.71 4361,-107 4372.95,-104.82 4385.78,-100.5 4396.14,-96.49"/>
<polygon fill="#63b8ff" stroke="#63b8ff" points="2512.56,-152.98 2502.59,-156.56 2512.62,-159.98 2512.56,-152.98"/>
</g>
<!-- Node87 -->
<g id="node44" class="node">
<title>Node87</title>
<g id="a_node44"><a xlink:href="d__timer_8cpp.html" target="_top" xlink:title=" ">
<polygon fill="white" stroke="#666666" points="4574,-96 4482,-96 4482,-77 4574,-77 4574,-96"/>
<text text-anchor="middle" x="4528" y="-84" font-family="Helvetica,sans-Serif" font-size="10.00">src/d/d_timer.cpp</text>
</a>
</g>
</g>
<!-- Node3&#45;&gt;Node87 -->
<g id="edge50" class="edge">
<title>Node3&#45;&gt;Node87</title>
<path fill="none" stroke="#63b8ff" d="M2512.46,-156.61C2840.26,-154.49 4276.93,-143.22 4473,-107 4484.76,-104.83 4497.36,-100.52 4507.53,-96.5"/>
<polygon fill="#63b8ff" stroke="#63b8ff" points="2512.76,-153.1 2502.79,-156.67 2512.81,-160.1 2512.76,-153.1"/>
</g>
<!-- Node88 -->
<g id="node45" class="node">
<title>Node88</title>
<g id="a_node45"><a xlink:href="d__tresure_8cpp.html" target="_top" xlink:title=" ">
<polygon fill="white" stroke="#666666" points="4692,-96 4592,-96 4592,-77 4692,-77 4692,-96"/>
<text text-anchor="middle" x="4642" y="-84" font-family="Helvetica,sans-Serif" font-size="10.00">src/d/d_tresure.cpp</text>
</a>
</g>
</g>
<!-- Node3&#45;&gt;Node88 -->
<g id="edge51" class="edge">
<title>Node3&#45;&gt;Node88</title>
<path fill="none" stroke="#63b8ff" d="M2512.72,-156.61C2851.72,-154.48 4375.2,-142.95 4583,-107 4595.54,-104.83 4609.06,-100.52 4619.99,-96.5"/>
<polygon fill="#63b8ff" stroke="#63b8ff" points="2512.89,-153.11 2502.91,-156.67 2512.94,-160.11 2512.89,-153.11"/>
</g>
<!-- Node3&#45;&gt;Node96 -->
<g id="edge52" class="edge">
<title>Node3&#45;&gt;Node96</title>
<path fill="none" stroke="#63b8ff" d="M2512.92,-156.47C2879.14,-153.47 4632.69,-137.57 4872,-107 4889.13,-104.81 4907.89,-100.5 4923.14,-96.48"/>
<polygon fill="#63b8ff" stroke="#63b8ff" points="2512.97,-152.97 2503,-156.55 2513.03,-159.97 2512.97,-152.97"/>
</g>
<!-- Node16&#45;&gt;Node13 -->
<g id="edge6" class="edge">
<title>Node16&#45;&gt;Node13</title>
<path fill="none" stroke="#63b8ff" d="M513.85,-74.25C500.2,-71.49 485.57,-68.58 472,-66 392.26,-50.83 299.54,-34.68 242.83,-24.96"/>
<polygon fill="#63b8ff" stroke="#63b8ff" points="513.05,-77.66 523.55,-76.23 514.45,-70.81 513.05,-77.66"/>
</g>
<!-- Node16&#45;&gt;Node17 -->
<g id="edge7" class="edge">
<title>Node16&#45;&gt;Node17</title>
<path fill="none" stroke="#63b8ff" d="M614.23,-74.17C629.64,-70.89 646.97,-67.72 663,-66 1090.94,-19.95 4305.09,-16.31 4795.37,-16.02"/>
<polygon fill="#63b8ff" stroke="#63b8ff" points="613.87,-70.66 604.86,-76.24 615.38,-77.5 613.87,-70.66"/>
</g>
<!-- Node16&#45;&gt;Node18 -->
<g id="edge8" class="edge">
<title>Node16&#45;&gt;Node18</title>
<path fill="none" stroke="#63b8ff" d="M578.21,-66.83C584.49,-55.34 592.42,-40.84 598.2,-30.27"/>
<polygon fill="#63b8ff" stroke="#63b8ff" points="575.27,-64.92 573.54,-75.37 581.41,-68.27 575.27,-64.92"/>
</g>
<!-- Node40&#45;&gt;Node13 -->
<g id="edge16" class="edge">
<title>Node40&#45;&gt;Node13</title>
<path fill="none" stroke="#63b8ff" d="M133,-63.73C148.77,-50.53 168.02,-34.4 179.63,-24.68"/>
<polygon fill="#63b8ff" stroke="#63b8ff" points="130.78,-61.02 125.36,-70.13 135.27,-66.39 130.78,-61.02"/>
</g>
<!-- Node40&#45;&gt;Node45 -->
<g id="edge17" class="edge">
<title>Node40&#45;&gt;Node45</title>
<path fill="none" stroke="#63b8ff" d="M87.24,-62.62C76.03,-49.63 62.65,-34.13 54.49,-24.68"/>
<polygon fill="#63b8ff" stroke="#63b8ff" points="84.39,-64.67 93.58,-69.95 89.69,-60.1 84.39,-64.67"/>
</g>
<!-- Node66&#45;&gt;Node13 -->
<g id="edge24" class="edge">
<title>Node66&#45;&gt;Node13</title>
<path fill="none" stroke="#63b8ff" d="M249.57,-64.14C233.25,-50.95 213.17,-34.72 200.99,-24.88"/>
<polygon fill="#63b8ff" stroke="#63b8ff" points="247.03,-66.58 257,-70.15 251.43,-61.14 247.03,-66.58"/>
</g>
<!-- Node66&#45;&gt;Node67 -->
<g id="edge25" class="edge">
<title>Node66&#45;&gt;Node67</title>
<path fill="none" stroke="#63b8ff" d="M315.57,-66.13C343.17,-52.62 378.72,-35.22 399.86,-24.88"/>
<polygon fill="#63b8ff" stroke="#63b8ff" points="314.23,-62.89 306.78,-70.43 317.3,-69.18 314.23,-62.89"/>
</g>
<!-- Node109 -->
<g id="node48" class="node">
<title>Node109</title>
<g id="a_node48"><a xlink:href="d__a__obj__item_8h.html" target="_top" xlink:title=" ">
<polygon fill="white" stroke="#666666" points="4876.5,-173 4775.5,-173 4775.5,-143 4876.5,-143 4876.5,-173"/>
<text text-anchor="start" x="4783.5" y="-161" font-family="Helvetica,sans-Serif" font-size="10.00">include/d/a/d_a_obj</text>
<text text-anchor="middle" x="4826" y="-150" font-family="Helvetica,sans-Serif" font-size="10.00">_item.h</text>
</a>
</g>
</g>
<!-- Node108&#45;&gt;Node109 -->
<g id="edge55" class="edge">
<title>Node108&#45;&gt;Node109</title>
<path fill="none" stroke="#63b8ff" d="M4457.08,-208.73C4576.83,-187.76 4705.56,-172.26 4775.08,-164.48"/>
<polygon fill="#63b8ff" stroke="#63b8ff" points="4456.62,-205.26 4447.39,-210.44 4457.84,-212.15 4456.62,-205.26"/>
</g>
<!-- Node110 -->
<g id="node49" class="node">
<title>Node110</title>
<g id="a_node49"><a xlink:href="d__a__item__static_8cpp.html" target="_top" xlink:title=" ">
<polygon fill="white" stroke="#666666" points="4468.5,-167.5 4331.5,-167.5 4331.5,-148.5 4468.5,-148.5 4468.5,-167.5"/>
<text text-anchor="middle" x="4400" y="-155.5" font-family="Helvetica,sans-Serif" font-size="10.00">src/d/a/d_a_item_static.cpp</text>
</a>
</g>
</g>
<!-- Node108&#45;&gt;Node110 -->
<g id="edge57" class="edge">
<title>Node108&#45;&gt;Node110</title>
<path fill="none" stroke="#63b8ff" d="M4395.18,-197.59C4396.49,-187.06 4397.93,-175.53 4398.89,-167.84"/>
<polygon fill="#63b8ff" stroke="#63b8ff" points="4391.73,-196.94 4393.96,-207.29 4398.68,-197.81 4391.73,-196.94"/>
</g>
<!-- Node109&#45;&gt;Node17 -->
<g id="edge56" class="edge">
<title>Node109&#45;&gt;Node17</title>
<path fill="none" stroke="#63b8ff" d="M4887.9,-150.28C4941.6,-143.03 5013.41,-129.39 5031,-107 5042.26,-92.67 5041.95,-80.56 5031,-66 5016.91,-47.26 4959.94,-33.31 4915.17,-24.98"/>
<polygon fill="#63b8ff" stroke="#63b8ff" points="4887.71,-146.78 4878.24,-151.54 4888.61,-153.72 4887.71,-146.78"/>
</g>
</g>
</svg>
        <g id="navigator" transform="translate(0 0)" fill="#404254">
                <rect fill="#f2f5e9" fill-opacity="0.5" stroke="#606060" stroke-width=".5" x="0" y="0" width="60" height="60"/>
                <use id="zoomplus" xlink:href="#zoomPlus" x="17" y="9" onmousedown="handleZoom(evt,'in')"/>
                <use id="zoomminus" xlink:href="#zoomMin" x="42" y="9" onmousedown="handleZoom(evt,'out')"/>
                <use id="reset" xlink:href="#resetDef" x="30" y="36" onmousedown="handleReset()"/>
                <g id="arrowUp" xlink:href="#dirArrow" transform="translate(30 24)" onmousedown="handlePan(0,-1)">
                  <use xlink:href="#rim" fill="#404040">
                        <set attributeName="fill" to="#808080" begin="arrowUp.mouseover" end="arrowUp.mouseout"/>
                  </use>
                  <path fill="none" stroke="white" stroke-width="1.5" d="M0,-3.0v7 M-2.5,-0.5L0,-3.0L2.5,-0.5"/>
                </g>
                <g id="arrowRight" xlink:href="#dirArrow" transform="rotate(90) translate(36 -43)" onmousedown="handlePan(1,0)">
                  <use xlink:href="#rim" fill="#404040">
                        <set attributeName="fill" to="#808080" begin="arrowRight.mouseover" end="arrowRight.mouseout"/>
                  </use>
                  <path fill="none" stroke="white" stroke-width="1.5" d="M0,-3.0v7 M-2.5,-0.5L0,-3.0L2.5,-0.5"/>
                </g>
                <g id="arrowDown" xlink:href="#dirArrow" transform="rotate(180) translate(-30 -48)" onmousedown="handlePan(0,1)">
                  <use xlink:href="#rim" fill="#404040">
                        <set attributeName="fill" to="#808080" begin="arrowDown.mouseover" end="arrowDown.mouseout"/>
                  </use>
                  <path fill="none" stroke="white" stroke-width="1.5" d="M0,-3.0v7 M-2.5,-0.5L0,-3.0L2.5,-0.5"/>
                </g>
                <g id="arrowLeft" xlink:href="#dirArrow" transform="rotate(270) translate(-36 17)" onmousedown="handlePan(-1,0)">
                  <use xlink:href="#rim" fill="#404040">
                        <set attributeName="fill" to="#808080" begin="arrowLeft.mouseover" end="arrowLeft.mouseout"/>
                  </use>
                  <path fill="none" stroke="white" stroke-width="1.5" d="M0,-3.0v7 M-2.5,-0.5L0,-3.0L2.5,-0.5"/>
                </g>
        </g>
        <svg viewBox="0 0 15 15" width="100%" height="30px" preserveAspectRatio="xMaxYMin meet">
         <g id="arrow_out" transform="scale(0.3 0.3)">
          <a xlink:href="d__particle_8h__dep__incl_org.svg" target="_base">
           <rect id="button" ry="5" rx="5" y="6" x="6" height="38" width="38"
                fill="#f2f5e9" fill-opacity="0.5" stroke="#606060" stroke-width="1.0"/>
           <path id="arrow"
             d="M 11.500037,31.436501 C 11.940474,20.09759 22.043105,11.32322 32.158766,21.979434 L 37.068811,17.246167 C 37.068811,17.246167 37.088388,32 37.088388,32 L 22.160133,31.978069 C 22.160133,31.978069 26.997745,27.140456 26.997745,27.140456 C 18.528582,18.264221 13.291696,25.230495 11.500037,31.436501 z"
             style="fill:#404040;"/>
          </a>
         </g>
        </svg>
</svg>
