<?xml version="1.0" encoding="UTF-8" standalone="no"?>
<!DOCTYPE svg PUBLIC "-//W3C//DTD SVG 1.1//EN"
 "http://www.w3.org/Graphics/SVG/1.1/DTD/svg11.dtd">
<!-- Generated by graphviz version 7.0.4 (20221203.1631)
 -->
<!-- Title: include/d/d_simple_model.h Pages: 1 -->
<svg width="5571pt" height="247pt"
 viewBox="0.00 0.00 5571.00 247.00" xmlns="http://www.w3.org/2000/svg" xmlns:xlink="http://www.w3.org/1999/xlink">
<g id="graph0" class="graph" transform="scale(1 1) rotate(0) translate(4 243)">
<title>include/d/d_simple_model.h</title>
<!-- Node1 -->
<g id="node1" class="node">
<title>Node1</title>
<g id="a_node1"><a xlink:title=" ">
<polygon fill="#999999" stroke="#666666" points="2698,-239 2600,-239 2600,-209 2698,-209 2698,-239"/>
<text text-anchor="start" x="2608" y="-227" font-family="Helvetica,sans-Serif" font-size="10.00">include/d/d_simple</text>
<text text-anchor="middle" x="2649" y="-216" font-family="Helvetica,sans-Serif" font-size="10.00">_model.h</text>
</a>
</g>
</g>
<!-- Node2 -->
<g id="node2" class="node">
<title>Node2</title>
<g id="a_node2"><a xlink:href="d__com__inf__game_8h.html" target="_top" xlink:title=" ">
<polygon fill="#fff0f0" stroke="red" points="2663,-173 2553,-173 2553,-143 2663,-143 2663,-173"/>
<text text-anchor="start" x="2561" y="-161" font-family="Helvetica,sans-Serif" font-size="10.00">include/d/com/d_com</text>
<text text-anchor="middle" x="2608" y="-150" font-family="Helvetica,sans-Serif" font-size="10.00">_inf_game.h</text>
</a>
</g>
</g>
<!-- Node1&#45;&gt;Node2 -->
<g id="edge1" class="edge">
<title>Node1&#45;&gt;Node2</title>
<path fill="none" stroke="#63b8ff" d="M2633.7,-199.11C2628.1,-190.38 2621.95,-180.78 2617.07,-173.16"/>
<polygon fill="#63b8ff" stroke="#63b8ff" points="2630.74,-200.99 2639.08,-207.52 2636.64,-197.21 2630.74,-200.99"/>
</g>
<!-- Node85 -->
<g id="node44" class="node">
<title>Node85</title>
<g id="a_node44"><a xlink:href="d__simple__model_8cpp.html" target="_top" xlink:title=" ">
<polygon fill="white" stroke="#666666" points="5563,-96 5433,-96 5433,-77 5563,-77 5563,-96"/>
<text text-anchor="middle" x="5498" y="-84" font-family="Helvetica,sans-Serif" font-size="10.00">src/d/d_simple_model.cpp</text>
</a>
</g>
</g>
<!-- Node1&#45;&gt;Node85 -->
<g id="edge60" class="edge">
<title>Node1&#45;&gt;Node85</title>
<path fill="none" stroke="#63b8ff" d="M2709.75,-222.24C3064.79,-217.56 4874.49,-189.89 5424,-107 5439.37,-104.68 5456.15,-100.41 5469.84,-96.45"/>
<polygon fill="#63b8ff" stroke="#63b8ff" points="2709.93,-218.74 2699.97,-222.37 2710.02,-225.74 2709.93,-218.74"/>
</g>
<!-- Node3 -->
<g id="node3" class="node">
<title>Node3</title>
<g id="a_node3"><a xlink:href="d__a__npc_8h.html" target="_top" xlink:title=" ">
<polygon fill="#fff0f0" stroke="red" points="5277.5,-96 5166.5,-96 5166.5,-77 5277.5,-77 5277.5,-96"/>
<text text-anchor="middle" x="5222" y="-84" font-family="Helvetica,sans-Serif" font-size="10.00">include/d/a/d_a_npc.h</text>
</a>
</g>
</g>
<!-- Node2&#45;&gt;Node3 -->
<g id="edge2" class="edge">
<title>Node2&#45;&gt;Node3</title>
<path fill="none" stroke="#63b8ff" d="M2674.55,-156.21C3063.61,-151.49 5030.95,-126.76 5157,-107 5170.85,-104.83 5185.87,-100.46 5197.98,-96.41"/>
<polygon fill="#63b8ff" stroke="#63b8ff" points="2674.7,-152.7 2664.75,-156.32 2674.79,-159.7 2674.7,-152.7"/>
</g>
<!-- Node9 -->
<g id="node4" class="node">
<title>Node9</title>
<g id="a_node4"><a xlink:href="d__cc__uty_8h.html" target="_top" xlink:title=" ">
<polygon fill="#fff0f0" stroke="red" points="5414.5,-96 5295.5,-96 5295.5,-77 5414.5,-77 5414.5,-96"/>
<text text-anchor="middle" x="5355" y="-84" font-family="Helvetica,sans-Serif" font-size="10.00">include/d/cc/d_cc_uty.h</text>
</a>
</g>
</g>
<!-- Node2&#45;&gt;Node9 -->
<g id="edge3" class="edge">
<title>Node2&#45;&gt;Node9</title>
<path fill="none" stroke="#63b8ff" d="M2674.71,-156.25C3075.8,-151.65 5154.04,-126.95 5287,-107 5301.45,-104.83 5317.16,-100.46 5329.84,-96.41"/>
<polygon fill="#63b8ff" stroke="#63b8ff" points="2674.81,-152.74 2664.85,-156.36 2674.89,-159.74 2674.81,-152.74"/>
</g>
<!-- Node15 -->
<g id="node5" class="node">
<title>Node15</title>
<g id="a_node5"><a xlink:href="d__item_8h.html" target="_top" xlink:title=" ">
<polygon fill="#fff0f0" stroke="red" points="804.5,-96 709.5,-96 709.5,-77 804.5,-77 804.5,-96"/>
<text text-anchor="middle" x="757" y="-84" font-family="Helvetica,sans-Serif" font-size="10.00">include/d/d_item.h</text>
</a>
</g>
</g>
<!-- Node2&#45;&gt;Node15 -->
<g id="edge4" class="edge">
<title>Node2&#45;&gt;Node15</title>
<path fill="none" stroke="#63b8ff" d="M2541.67,-156.23C2238.39,-152.57 991.07,-135.89 819,-107 805.87,-104.8 791.67,-100.48 780.18,-96.47"/>
<polygon fill="#63b8ff" stroke="#63b8ff" points="2541.34,-159.73 2551.39,-156.35 2541.43,-152.73 2541.34,-159.73"/>
</g>
<!-- Node12 -->
<g id="node6" class="node">
<title>Node12</title>
<g id="a_node6"><a xlink:href="d__a__alink_8cpp.html" target="_top" xlink:title=" ">
<polygon fill="white" stroke="#666666" points="634.5,-24.5 525.5,-24.5 525.5,-5.5 634.5,-5.5 634.5,-24.5"/>
<text text-anchor="middle" x="580" y="-12.5" font-family="Helvetica,sans-Serif" font-size="10.00">src/d/a/d_a_alink.cpp</text>
</a>
</g>
</g>
<!-- Node2&#45;&gt;Node12 -->
<g id="edge31" class="edge">
<title>Node2&#45;&gt;Node12</title>
<path fill="none" stroke="#63b8ff" d="M2541.11,-156.66C2188.88,-154.74 563.99,-143.87 528,-107 515.27,-93.96 520.86,-82.77 528,-66 535.65,-48.02 553.29,-33.39 565.9,-24.7"/>
<polygon fill="#63b8ff" stroke="#63b8ff" points="2541.08,-160.16 2551.1,-156.72 2541.12,-153.16 2541.08,-160.16"/>
</g>
<!-- Node16 -->
<g id="node7" class="node">
<title>Node16</title>
<g id="a_node7"><a xlink:href="d__a__obj__item_8cpp.html" target="_top" xlink:title=" ">
<polygon fill="white" stroke="#666666" points="910.5,-24.5 785.5,-24.5 785.5,-5.5 910.5,-5.5 910.5,-24.5"/>
<text text-anchor="middle" x="848" y="-12.5" font-family="Helvetica,sans-Serif" font-size="10.00">src/d/a/d_a_obj_item.cpp</text>
</a>
</g>
</g>
<!-- Node2&#45;&gt;Node16 -->
<g id="edge34" class="edge">
<title>Node2&#45;&gt;Node16</title>
<path fill="none" stroke="#63b8ff" d="M2541.46,-157.2C2232,-157.86 945.78,-157.53 878,-107 851.59,-87.31 848.09,-43.64 847.86,-24.87"/>
<polygon fill="#63b8ff" stroke="#63b8ff" points="2541.4,-160.7 2551.39,-157.18 2541.38,-153.7 2541.4,-160.7"/>
</g>
<!-- Node17 -->
<g id="node8" class="node">
<title>Node17</title>
<g id="a_node8"><a xlink:href="d__com__inf__game_8cpp.html" target="_top" xlink:title=" ">
<polygon fill="white" stroke="#666666" points="1037,-30 929,-30 929,0 1037,0 1037,-30"/>
<text text-anchor="start" x="937" y="-18" font-family="Helvetica,sans-Serif" font-size="10.00">src/d/com/d_com_inf</text>
<text text-anchor="middle" x="983" y="-7" font-family="Helvetica,sans-Serif" font-size="10.00">_game.cpp</text>
</a>
</g>
</g>
<!-- Node2&#45;&gt;Node17 -->
<g id="edge40" class="edge">
<title>Node2&#45;&gt;Node17</title>
<path fill="none" stroke="#63b8ff" d="M2541.75,-156.32C2229.58,-152.98 919.3,-137.16 890,-107 877.3,-93.93 880.65,-81.64 890,-66 899.88,-49.48 917.3,-38.1 934.41,-30.42"/>
<polygon fill="#63b8ff" stroke="#63b8ff" points="2541.31,-159.82 2551.35,-156.43 2541.39,-152.82 2541.31,-159.82"/>
</g>
<!-- Node20 -->
<g id="node9" class="node">
<title>Node20</title>
<g id="a_node9"><a xlink:href="d__kantera__icon__meter_8h.html" target="_top" xlink:title=" ">
<polygon fill="#fff0f0" stroke="red" points="1000.5,-101.5 899.5,-101.5 899.5,-71.5 1000.5,-71.5 1000.5,-101.5"/>
<text text-anchor="start" x="907.5" y="-89.5" font-family="Helvetica,sans-Serif" font-size="10.00">include/d/d_kantera</text>
<text text-anchor="middle" x="950" y="-78.5" font-family="Helvetica,sans-Serif" font-size="10.00">_icon_meter.h</text>
</a>
</g>
</g>
<!-- Node2&#45;&gt;Node20 -->
<g id="edge8" class="edge">
<title>Node2&#45;&gt;Node20</title>
<path fill="none" stroke="#63b8ff" d="M2541.58,-157.46C2278.66,-158.9 1310.48,-160.38 1009,-107 1002.2,-105.8 995.11,-103.98 988.31,-101.92"/>
<polygon fill="#63b8ff" stroke="#63b8ff" points="2541.34,-160.96 2551.32,-157.41 2541.3,-153.96 2541.34,-160.96"/>
</g>
<!-- Node23 -->
<g id="node10" class="node">
<title>Node23</title>
<g id="a_node10"><a xlink:href="d__model_8h.html" target="_top" xlink:title=" ">
<polygon fill="#fff0f0" stroke="red" points="1121.5,-96 1018.5,-96 1018.5,-77 1121.5,-77 1121.5,-96"/>
<text text-anchor="middle" x="1070" y="-84" font-family="Helvetica,sans-Serif" font-size="10.00">include/d/d_model.h</text>
</a>
</g>
</g>
<!-- Node2&#45;&gt;Node23 -->
<g id="edge9" class="edge">
<title>Node2&#45;&gt;Node23</title>
<path fill="none" stroke="#63b8ff" d="M2541.31,-157.22C2290.87,-157.66 1406.76,-155.66 1130,-107 1117.27,-104.76 1103.53,-100.44 1092.41,-96.44"/>
<polygon fill="#63b8ff" stroke="#63b8ff" points="2541.25,-160.72 2551.24,-157.2 2541.23,-153.72 2541.25,-160.72"/>
</g>
<!-- Node25 -->
<g id="node11" class="node">
<title>Node25</title>
<g id="a_node11"><a xlink:href="d__name_8h.html" target="_top" xlink:title=" ">
<polygon fill="#fff0f0" stroke="red" points="1240.5,-96 1139.5,-96 1139.5,-77 1240.5,-77 1240.5,-96"/>
<text text-anchor="middle" x="1190" y="-84" font-family="Helvetica,sans-Serif" font-size="10.00">include/d/d_name.h</text>
</a>
</g>
</g>
<!-- Node2&#45;&gt;Node25 -->
<g id="edge10" class="edge">
<title>Node2&#45;&gt;Node25</title>
<path fill="none" stroke="#63b8ff" d="M2541.64,-156.99C2304.88,-156.56 1502.41,-151.76 1250,-107 1237.27,-104.74 1223.53,-100.42 1212.41,-96.42"/>
<polygon fill="#63b8ff" stroke="#63b8ff" points="2541.29,-160.49 2551.29,-157 2541.3,-153.49 2541.29,-160.49"/>
</g>
<!-- Node27 -->
<g id="node12" class="node">
<title>Node27</title>
<g id="a_node12"><a xlink:href="d__file__sel__info_8h.html" target="_top" xlink:title=" ">
<polygon fill="#fff0f0" stroke="red" points="1355,-101.5 1259,-101.5 1259,-71.5 1355,-71.5 1355,-101.5"/>
<text text-anchor="start" x="1267" y="-89.5" font-family="Helvetica,sans-Serif" font-size="10.00">include/d/file/d_file</text>
<text text-anchor="middle" x="1307" y="-78.5" font-family="Helvetica,sans-Serif" font-size="10.00">_sel_info.h</text>
</a>
</g>
</g>
<!-- Node2&#45;&gt;Node27 -->
<g id="edge11" class="edge">
<title>Node2&#45;&gt;Node27</title>
<path fill="none" stroke="#63b8ff" d="M2541.64,-156.86C2317.98,-155.98 1592.93,-149.82 1364,-107 1357.52,-105.79 1350.78,-103.99 1344.3,-101.97"/>
<polygon fill="#63b8ff" stroke="#63b8ff" points="2541.32,-160.36 2551.34,-156.89 2541.35,-153.36 2541.32,-160.36"/>
</g>
<!-- Node30 -->
<g id="node13" class="node">
<title>Node30</title>
<g id="a_node13"><a xlink:href="d__file__sel__warning_8h.html" target="_top" xlink:title=" ">
<polygon fill="#fff0f0" stroke="red" points="1469,-101.5 1373,-101.5 1373,-71.5 1469,-71.5 1469,-101.5"/>
<text text-anchor="start" x="1381" y="-89.5" font-family="Helvetica,sans-Serif" font-size="10.00">include/d/file/d_file</text>
<text text-anchor="middle" x="1421" y="-78.5" font-family="Helvetica,sans-Serif" font-size="10.00">_sel_warning.h</text>
</a>
</g>
</g>
<!-- Node2&#45;&gt;Node30 -->
<g id="edge12" class="edge">
<title>Node2&#45;&gt;Node30</title>
<path fill="none" stroke="#63b8ff" d="M2541.11,-156.54C2330.63,-154.69 1683.71,-145.9 1478,-107 1471.53,-105.78 1464.79,-103.97 1458.3,-101.95"/>
<polygon fill="#63b8ff" stroke="#63b8ff" points="2541.03,-160.04 2551.06,-156.62 2541.09,-153.04 2541.03,-160.04"/>
</g>
<!-- Node32 -->
<g id="node14" class="node">
<title>Node32</title>
<g id="a_node14"><a xlink:href="d__meter2_8h.html" target="_top" xlink:title=" ">
<polygon fill="#fff0f0" stroke="red" points="1621,-96 1487,-96 1487,-77 1621,-77 1621,-96"/>
<text text-anchor="middle" x="1554" y="-84" font-family="Helvetica,sans-Serif" font-size="10.00">include/d/meter/d_meter2.h</text>
</a>
</g>
</g>
<!-- Node2&#45;&gt;Node32 -->
<g id="edge13" class="edge">
<title>Node2&#45;&gt;Node32</title>
<path fill="none" stroke="#63b8ff" d="M2541.27,-155.33C2350.69,-150.28 1806.34,-133.85 1630,-107 1614.38,-104.62 1597.31,-100.39 1583.31,-96.48"/>
<polygon fill="#63b8ff" stroke="#63b8ff" points="2540.9,-158.82 2550.99,-155.58 2541.08,-151.82 2540.9,-158.82"/>
</g>
<!-- Node40 -->
<g id="node15" class="node">
<title>Node40</title>
<g id="a_node15"><a xlink:href="d__msg__object_8h.html" target="_top" xlink:title=" ">
<polygon fill="#fff0f0" stroke="red" points="362,-101.5 252,-101.5 252,-71.5 362,-71.5 362,-101.5"/>
<text text-anchor="start" x="260" y="-89.5" font-family="Helvetica,sans-Serif" font-size="10.00">include/d/msg/d_msg</text>
<text text-anchor="middle" x="307" y="-78.5" font-family="Helvetica,sans-Serif" font-size="10.00">_object.h</text>
</a>
</g>
</g>
<!-- Node2&#45;&gt;Node40 -->
<g id="edge14" class="edge">
<title>Node2&#45;&gt;Node40</title>
<path fill="none" stroke="#63b8ff" d="M2541.27,-156.35C2194.5,-152.84 605.76,-135.33 388,-107 378.82,-105.81 369.17,-103.99 359.85,-101.94"/>
<polygon fill="#63b8ff" stroke="#63b8ff" points="2541.06,-159.84 2551.09,-156.45 2541.13,-152.85 2541.06,-159.84"/>
</g>
<!-- Node45 -->
<g id="node16" class="node">
<title>Node45</title>
<g id="a_node16"><a xlink:href="d__demo_8cpp.html" target="_top" xlink:title=" ">
<polygon fill="white" stroke="#666666" points="94,-24.5 0,-24.5 0,-5.5 94,-5.5 94,-24.5"/>
<text text-anchor="middle" x="47" y="-12.5" font-family="Helvetica,sans-Serif" font-size="10.00">src/d/d_demo.cpp</text>
</a>
</g>
</g>
<!-- Node2&#45;&gt;Node45 -->
<g id="edge45" class="edge">
<title>Node2&#45;&gt;Node45</title>
<path fill="none" stroke="#63b8ff" d="M2541.37,-156.59C2164.49,-154.17 312.51,-140.59 197,-107 138.51,-89.99 79.86,-44.02 57,-24.72"/>
<polygon fill="#63b8ff" stroke="#63b8ff" points="2541.07,-160.09 2551.1,-156.66 2541.12,-153.09 2541.07,-160.09"/>
</g>
<!-- Node46 -->
<g id="node17" class="node">
<title>Node46</title>
<g id="a_node17"><a xlink:href="d__event_8cpp.html" target="_top" xlink:title=" ">
<polygon fill="white" stroke="#666666" points="233.5,-24.5 112.5,-24.5 112.5,-5.5 233.5,-5.5 233.5,-24.5"/>
<text text-anchor="middle" x="173" y="-12.5" font-family="Helvetica,sans-Serif" font-size="10.00">src/d/event/d_event.cpp</text>
</a>
</g>
</g>
<!-- Node2&#45;&gt;Node46 -->
<g id="edge54" class="edge">
<title>Node2&#45;&gt;Node46</title>
<path fill="none" stroke="#63b8ff" d="M2541.22,-157.21C2167.48,-158.19 348.2,-160.19 243,-107 207.6,-89.1 184.94,-44.04 176.6,-24.86"/>
<polygon fill="#63b8ff" stroke="#63b8ff" points="2541.12,-160.71 2551.11,-157.18 2541.1,-153.71 2541.12,-160.71"/>
</g>
<!-- Node47 -->
<g id="node18" class="node">
<title>Node47</title>
<g id="a_node18"><a xlink:href="d__event__data_8cpp.html" target="_top" xlink:title=" ">
<polygon fill="white" stroke="#666666" points="354.5,-30 251.5,-30 251.5,0 354.5,0 354.5,-30"/>
<text text-anchor="start" x="259.5" y="-18" font-family="Helvetica,sans-Serif" font-size="10.00">src/d/event/d_event</text>
<text text-anchor="middle" x="303" y="-7" font-family="Helvetica,sans-Serif" font-size="10.00">_data.cpp</text>
</a>
</g>
</g>
<!-- Node2&#45;&gt;Node47 -->
<g id="edge55" class="edge">
<title>Node2&#45;&gt;Node47</title>
<path fill="none" stroke="#63b8ff" d="M2541.3,-157.33C2201.6,-158.76 671.93,-162.06 468,-107 410.2,-91.4 350.72,-51.6 321.5,-30.17"/>
<polygon fill="#63b8ff" stroke="#63b8ff" points="2541.15,-160.83 2551.13,-157.29 2541.12,-153.83 2541.15,-160.83"/>
</g>
<!-- Node48 -->
<g id="node19" class="node">
<title>Node48</title>
<g id="a_node19"><a xlink:href="d__kankyo_8cpp.html" target="_top" xlink:title=" ">
<polygon fill="white" stroke="#666666" points="507,-24.5 373,-24.5 373,-5.5 507,-5.5 507,-24.5"/>
<text text-anchor="middle" x="440" y="-12.5" font-family="Helvetica,sans-Serif" font-size="10.00">src/d/kankyo/d_kankyo.cpp</text>
</a>
</g>
</g>
<!-- Node2&#45;&gt;Node48 -->
<g id="edge58" class="edge">
<title>Node2&#45;&gt;Node48</title>
<path fill="none" stroke="#63b8ff" d="M2541.38,-156.94C2194.8,-156.43 610.32,-151.65 517,-107 479.85,-89.23 453.93,-44.1 444.23,-24.88"/>
<polygon fill="#63b8ff" stroke="#63b8ff" points="2541.18,-160.44 2551.19,-156.95 2541.19,-153.44 2541.18,-160.44"/>
</g>
<!-- Node54 -->
<g id="node20" class="node">
<title>Node54</title>
<g id="a_node20"><a xlink:href="d__s__logo_8h.html" target="_top" xlink:title=" ">
<polygon fill="#fff0f0" stroke="red" points="1752.5,-96 1639.5,-96 1639.5,-77 1752.5,-77 1752.5,-96"/>
<text text-anchor="middle" x="1696" y="-84" font-family="Helvetica,sans-Serif" font-size="10.00">include/d/s/d_s_logo.h</text>
</a>
</g>
</g>
<!-- Node2&#45;&gt;Node54 -->
<g id="edge20" class="edge">
<title>Node2&#45;&gt;Node54</title>
<path fill="none" stroke="#63b8ff" d="M2541.14,-155.06C2368.43,-149.73 1910.5,-133.47 1761,-107 1747.54,-104.62 1732.94,-100.39 1720.98,-96.48"/>
<polygon fill="#63b8ff" stroke="#63b8ff" points="2540.97,-158.56 2551.07,-155.36 2541.18,-151.56 2540.97,-158.56"/>
</g>
<!-- Node56 -->
<g id="node21" class="node">
<title>Node56</title>
<g id="a_node21"><a xlink:href="d__s__play_8h.html" target="_top" xlink:title=" ">
<polygon fill="#fff0f0" stroke="red" points="1883.5,-96 1770.5,-96 1770.5,-77 1883.5,-77 1883.5,-96"/>
<text text-anchor="middle" x="1827" y="-84" font-family="Helvetica,sans-Serif" font-size="10.00">include/d/s/d_s_play.h</text>
</a>
</g>
</g>
<!-- Node2&#45;&gt;Node56 -->
<g id="edge21" class="edge">
<title>Node2&#45;&gt;Node56</title>
<path fill="none" stroke="#63b8ff" d="M2541.23,-157.25C2413.89,-156.64 2127.96,-150.08 1892,-107 1878.56,-104.55 1863.95,-100.31 1851.99,-96.41"/>
<polygon fill="#63b8ff" stroke="#63b8ff" points="2541.16,-160.75 2551.17,-157.28 2541.19,-153.75 2541.16,-160.75"/>
</g>
<!-- Node60 -->
<g id="node22" class="node">
<title>Node60</title>
<g id="a_node22"><a xlink:href="d__msg__scrn__base_8h.html" target="_top" xlink:title=" ">
<polygon fill="#fff0f0" stroke="red" points="2000.5,-101.5 1901.5,-101.5 1901.5,-71.5 2000.5,-71.5 2000.5,-101.5"/>
<text text-anchor="start" x="1909.5" y="-89.5" font-family="Helvetica,sans-Serif" font-size="10.00">include/msg/scrn/d</text>
<text text-anchor="middle" x="1951" y="-78.5" font-family="Helvetica,sans-Serif" font-size="10.00">_msg_scrn_base.h</text>
</a>
</g>
</g>
<!-- Node2&#45;&gt;Node60 -->
<g id="edge22" class="edge">
<title>Node2&#45;&gt;Node60</title>
<path fill="none" stroke="#63b8ff" d="M2541.49,-156.65C2430.16,-154.92 2199.49,-146.37 2009,-107 2002.65,-105.69 1996.04,-103.89 1989.64,-101.92"/>
<polygon fill="#63b8ff" stroke="#63b8ff" points="2541.3,-160.15 2551.35,-156.79 2541.4,-153.15 2541.3,-160.15"/>
</g>
<!-- Node64 -->
<g id="node23" class="node">
<title>Node64</title>
<g id="a_node23"><a xlink:href="d__a__b__zant_8h.html" target="_top" xlink:title=" ">
<polygon fill="white" stroke="#666666" points="2139.5,-101.5 2018.5,-101.5 2018.5,-71.5 2139.5,-71.5 2139.5,-101.5"/>
<text text-anchor="start" x="2026.5" y="-89.5" font-family="Helvetica,sans-Serif" font-size="10.00">include/rel/d/a/b/d</text>
<text text-anchor="middle" x="2079" y="-78.5" font-family="Helvetica,sans-Serif" font-size="10.00">_a_b_zant/d_a_b_zant.h</text>
</a>
</g>
</g>
<!-- Node2&#45;&gt;Node64 -->
<g id="edge23" class="edge">
<title>Node2&#45;&gt;Node64</title>
<path fill="none" stroke="#63b8ff" d="M2541.45,-153.17C2451.7,-147.22 2287.19,-133.59 2149,-107 2141.81,-105.62 2134.29,-103.86 2126.95,-101.97"/>
<polygon fill="#63b8ff" stroke="#63b8ff" points="2541.09,-156.65 2551.3,-153.81 2541.55,-149.67 2541.09,-156.65"/>
</g>
<!-- Node65 -->
<g id="node24" class="node">
<title>Node65</title>
<g id="a_node24"><a xlink:href="d__a__skip__2D_8h.html" target="_top" xlink:title=" ">
<polygon fill="white" stroke="#666666" points="2282,-101.5 2158,-101.5 2158,-71.5 2282,-71.5 2282,-101.5"/>
<text text-anchor="start" x="2166" y="-89.5" font-family="Helvetica,sans-Serif" font-size="10.00">include/rel/d/a/d_a</text>
<text text-anchor="middle" x="2220" y="-78.5" font-family="Helvetica,sans-Serif" font-size="10.00">_skip_2D/d_a_skip_2D.h</text>
</a>
</g>
</g>
<!-- Node2&#45;&gt;Node65 -->
<g id="edge24" class="edge">
<title>Node2&#45;&gt;Node65</title>
<path fill="none" stroke="#63b8ff" d="M2541.47,-148.71C2477.05,-140.16 2376.8,-125.49 2291,-107 2284.13,-105.52 2276.93,-103.77 2269.87,-101.95"/>
<polygon fill="#63b8ff" stroke="#63b8ff" points="2540.81,-152.15 2551.18,-149.98 2541.72,-145.21 2540.81,-152.15"/>
</g>
<!-- Node66 -->
<g id="node25" class="node">
<title>Node66</title>
<g id="a_node25"><a xlink:href="d__a__spinner_8h.html" target="_top" xlink:title=" ">
<polygon fill="white" stroke="#666666" points="653,-101.5 537,-101.5 537,-71.5 653,-71.5 653,-101.5"/>
<text text-anchor="start" x="545" y="-89.5" font-family="Helvetica,sans-Serif" font-size="10.00">include/rel/d/a/d_a</text>
<text text-anchor="middle" x="595" y="-78.5" font-family="Helvetica,sans-Serif" font-size="10.00">_spinner/d_a_spinner.h</text>
</a>
</g>
</g>
<!-- Node2&#45;&gt;Node66 -->
<g id="edge25" class="edge">
<title>Node2&#45;&gt;Node66</title>
<path fill="none" stroke="#63b8ff" d="M2541.34,-156.23C2221.9,-152.4 855.32,-134.52 667,-107 658.8,-105.8 650.2,-103.98 641.91,-101.93"/>
<polygon fill="#63b8ff" stroke="#63b8ff" points="2541.15,-159.73 2551.19,-156.34 2541.23,-152.73 2541.15,-159.73"/>
</g>
<!-- Node67 -->
<g id="node26" class="node">
<title>Node67</title>
<g id="a_node26"><a xlink:href="d__a__player_8cpp.html" target="_top" xlink:title=" ">
<polygon fill="white" stroke="#666666" points="767,-24.5 653,-24.5 653,-5.5 767,-5.5 767,-24.5"/>
<text text-anchor="middle" x="710" y="-12.5" font-family="Helvetica,sans-Serif" font-size="10.00">src/d/a/d_a_player.cpp</text>
</a>
</g>
</g>
<!-- Node2&#45;&gt;Node67 -->
<g id="edge35" class="edge">
<title>Node2&#45;&gt;Node67</title>
<path fill="none" stroke="#63b8ff" d="M2541.34,-156.52C2207.58,-153.94 732.8,-140.67 700,-107 678.26,-84.69 695.67,-43.2 705.03,-24.98"/>
<polygon fill="#63b8ff" stroke="#63b8ff" points="2541.19,-160.02 2551.21,-156.59 2541.24,-153.02 2541.19,-160.02"/>
</g>
<!-- Node68 -->
<g id="node27" class="node">
<title>Node68</title>
<g id="a_node27"><a xlink:href="d__a__obj__yobikusa_8h.html" target="_top" xlink:title=" ">
<polygon fill="white" stroke="#666666" points="2405.5,-107 2300.5,-107 2300.5,-66 2405.5,-66 2405.5,-107"/>
<text text-anchor="start" x="2308.5" y="-95" font-family="Helvetica,sans-Serif" font-size="10.00">include/rel/d/a/obj</text>
<text text-anchor="start" x="2308.5" y="-84" font-family="Helvetica,sans-Serif" font-size="10.00">/d_a_obj_yobikusa/d</text>
<text text-anchor="middle" x="2353" y="-73" font-family="Helvetica,sans-Serif" font-size="10.00">_a_obj_yobikusa.h</text>
</a>
</g>
</g>
<!-- Node2&#45;&gt;Node68 -->
<g id="edge28" class="edge">
<title>Node2&#45;&gt;Node68</title>
<path fill="none" stroke="#63b8ff" d="M2542.13,-140.82C2504.72,-131.42 2457.1,-119.06 2415,-107 2411.96,-106.13 2408.85,-105.22 2405.71,-104.28"/>
<polygon fill="#63b8ff" stroke="#63b8ff" points="2540.87,-144.12 2551.42,-143.15 2542.57,-137.33 2540.87,-144.12"/>
</g>
<!-- Node69 -->
<g id="node28" class="node">
<title>Node69</title>
<g id="a_node28"><a xlink:href="d__a__tag__telop_8h.html" target="_top" xlink:title=" ">
<polygon fill="white" stroke="#666666" points="2542,-107 2424,-107 2424,-66 2542,-66 2542,-107"/>
<text text-anchor="start" x="2432" y="-95" font-family="Helvetica,sans-Serif" font-size="10.00">include/rel/d/a/tag</text>
<text text-anchor="start" x="2432" y="-84" font-family="Helvetica,sans-Serif" font-size="10.00">/d_a_tag_telop/d_a_tag</text>
<text text-anchor="middle" x="2483" y="-73" font-family="Helvetica,sans-Serif" font-size="10.00">_telop.h</text>
</a>
</g>
</g>
<!-- Node2&#45;&gt;Node69 -->
<g id="edge29" class="edge">
<title>Node2&#45;&gt;Node69</title>
<path fill="none" stroke="#63b8ff" d="M2572.14,-137.06C2555.41,-127.76 2535.55,-116.72 2518.82,-107.42"/>
<polygon fill="#63b8ff" stroke="#63b8ff" points="2570.34,-140.06 2580.78,-141.86 2573.74,-133.95 2570.34,-140.06"/>
</g>
<!-- Node70 -->
<g id="node29" class="node">
<title>Node70</title>
<g id="a_node29"><a xlink:href="c__dylink_8cpp.html" target="_top" xlink:title=" ">
<polygon fill="white" stroke="#666666" points="2655.5,-96 2560.5,-96 2560.5,-77 2655.5,-77 2655.5,-96"/>
<text text-anchor="middle" x="2608" y="-84" font-family="Helvetica,sans-Serif" font-size="10.00">src/c/c_dylink.cpp</text>
</a>
</g>
</g>
<!-- Node2&#45;&gt;Node70 -->
<g id="edge30" class="edge">
<title>Node2&#45;&gt;Node70</title>
<path fill="none" stroke="#63b8ff" d="M2608,-131.46C2608,-119.07 2608,-104.99 2608,-96.18"/>
<polygon fill="#63b8ff" stroke="#63b8ff" points="2604.5,-131.09 2608,-141.09 2611.5,-131.09 2604.5,-131.09"/>
</g>
<!-- Node71 -->
<g id="node30" class="node">
<title>Node71</title>
<g id="a_node30"><a xlink:href="d__a__itembase_8cpp.html" target="_top" xlink:title=" ">
<polygon fill="white" stroke="#666666" points="2802,-96 2674,-96 2674,-77 2802,-77 2802,-96"/>
<text text-anchor="middle" x="2738" y="-84" font-family="Helvetica,sans-Serif" font-size="10.00">src/d/a/d_a_itembase.cpp</text>
</a>
</g>
</g>
<!-- Node2&#45;&gt;Node71 -->
<g id="edge32" class="edge">
<title>Node2&#45;&gt;Node71</title>
<path fill="none" stroke="#63b8ff" d="M2644.89,-137.28C2670.07,-123.82 2702.21,-106.63 2721.39,-96.38"/>
<polygon fill="#63b8ff" stroke="#63b8ff" points="2643.44,-134.08 2636.27,-141.89 2646.74,-140.26 2643.44,-134.08"/>
</g>
<!-- Node72 -->
<g id="node31" class="node">
<title>Node72</title>
<g id="a_node31"><a xlink:href="d__a__obj_8cpp.html" target="_top" xlink:title=" ">
<polygon fill="white" stroke="#666666" points="2921.5,-96 2820.5,-96 2820.5,-77 2921.5,-77 2921.5,-96"/>
<text text-anchor="middle" x="2871" y="-84" font-family="Helvetica,sans-Serif" font-size="10.00">src/d/a/d_a_obj.cpp</text>
</a>
</g>
</g>
<!-- Node2&#45;&gt;Node72 -->
<g id="edge33" class="edge">
<title>Node2&#45;&gt;Node72</title>
<path fill="none" stroke="#63b8ff" d="M2674.59,-141.89C2714.37,-132.54 2765.79,-119.9 2811,-107 2822.16,-103.82 2834.37,-99.92 2844.84,-96.46"/>
<polygon fill="#63b8ff" stroke="#63b8ff" points="2673.84,-138.47 2664.9,-144.15 2675.44,-145.28 2673.84,-138.47"/>
</g>
<!-- Node73 -->
<g id="node32" class="node">
<title>Node73</title>
<g id="a_node32"><a xlink:href="d__bg__s_8cpp.html" target="_top" xlink:title=" ">
<polygon fill="white" stroke="#666666" points="3044,-96 2940,-96 2940,-77 3044,-77 3044,-96"/>
<text text-anchor="middle" x="2992" y="-84" font-family="Helvetica,sans-Serif" font-size="10.00">src/d/bg/d_bg_s.cpp</text>
</a>
</g>
</g>
<!-- Node2&#45;&gt;Node73 -->
<g id="edge36" class="edge">
<title>Node2&#45;&gt;Node73</title>
<path fill="none" stroke="#63b8ff" d="M2674.86,-149.6C2740.38,-141.65 2842.82,-127.36 2930,-107 2942.2,-104.15 2955.47,-100.11 2966.6,-96.44"/>
<polygon fill="#63b8ff" stroke="#63b8ff" points="2674.48,-146.12 2664.97,-150.78 2675.31,-153.07 2674.48,-146.12"/>
</g>
<!-- Node74 -->
<g id="node33" class="node">
<title>Node74</title>
<g id="a_node33"><a xlink:href="d__bg__s__movebg__actor_8cpp.html" target="_top" xlink:title=" ">
<polygon fill="white" stroke="#666666" points="3188,-101.5 3062,-101.5 3062,-71.5 3188,-71.5 3188,-101.5"/>
<text text-anchor="start" x="3070" y="-89.5" font-family="Helvetica,sans-Serif" font-size="10.00">src/d/bg/d_bg_s_movebg</text>
<text text-anchor="middle" x="3125" y="-78.5" font-family="Helvetica,sans-Serif" font-size="10.00">_actor.cpp</text>
</a>
</g>
</g>
<!-- Node2&#45;&gt;Node74 -->
<g id="edge37" class="edge">
<title>Node2&#45;&gt;Node74</title>
<path fill="none" stroke="#63b8ff" d="M2674.55,-152.71C2761.97,-146.34 2919.98,-132.33 3053,-107 3060.38,-105.59 3068.11,-103.83 3075.65,-101.93"/>
<polygon fill="#63b8ff" stroke="#63b8ff" points="2674.44,-149.2 2664.72,-153.41 2674.94,-156.19 2674.44,-149.2"/>
</g>
<!-- Node75 -->
<g id="node34" class="node">
<title>Node75</title>
<g id="a_node34"><a xlink:href="d__bg__w_8cpp.html" target="_top" xlink:title=" ">
<polygon fill="white" stroke="#666666" points="3313.5,-96 3206.5,-96 3206.5,-77 3313.5,-77 3313.5,-96"/>
<text text-anchor="middle" x="3260" y="-84" font-family="Helvetica,sans-Serif" font-size="10.00">src/d/bg/d_bg_w.cpp</text>
</a>
</g>
</g>
<!-- Node2&#45;&gt;Node75 -->
<g id="edge38" class="edge">
<title>Node2&#45;&gt;Node75</title>
<path fill="none" stroke="#63b8ff" d="M2674.57,-156C2784.39,-153.32 3009.96,-143.44 3197,-107 3209.92,-104.48 3223.95,-100.29 3235.48,-96.44"/>
<polygon fill="#63b8ff" stroke="#63b8ff" points="2674.79,-152.5 2664.87,-156.23 2674.95,-159.5 2674.79,-152.5"/>
</g>
<!-- Node76 -->
<g id="node35" class="node">
<title>Node76</title>
<g id="a_node35"><a xlink:href="d__cc__s_8cpp.html" target="_top" xlink:title=" ">
<polygon fill="white" stroke="#666666" points="3436,-96 3332,-96 3332,-77 3436,-77 3436,-96"/>
<text text-anchor="middle" x="3384" y="-84" font-family="Helvetica,sans-Serif" font-size="10.00">src/d/cc/d_cc_s.cpp</text>
</a>
</g>
</g>
<!-- Node2&#45;&gt;Node76 -->
<g id="edge39" class="edge">
<title>Node2&#45;&gt;Node76</title>
<path fill="none" stroke="#63b8ff" d="M2674.64,-157.52C2801.72,-157.37 3086.99,-151.54 3322,-107 3334.86,-104.56 3348.8,-100.33 3360.19,-96.43"/>
<polygon fill="#63b8ff" stroke="#63b8ff" points="2674.72,-154.02 2664.72,-157.52 2674.72,-161.02 2674.72,-154.02"/>
</g>
<!-- Node77 -->
<g id="node36" class="node">
<title>Node77</title>
<g id="a_node36"><a xlink:href="d__com__static_8cpp.html" target="_top" xlink:title=" ">
<polygon fill="white" stroke="#666666" points="3594,-96 3454,-96 3454,-77 3594,-77 3594,-96"/>
<text text-anchor="middle" x="3524" y="-84" font-family="Helvetica,sans-Serif" font-size="10.00">src/d/com/d_com_static.cpp</text>
</a>
</g>
</g>
<!-- Node2&#45;&gt;Node77 -->
<g id="edge41" class="edge">
<title>Node2&#45;&gt;Node77</title>
<path fill="none" stroke="#63b8ff" d="M2674.56,-157.13C2816.83,-156.51 3160.72,-150.21 3445,-107 3461.2,-104.54 3478.94,-100.3 3493.5,-96.41"/>
<polygon fill="#63b8ff" stroke="#63b8ff" points="2674.95,-153.63 2664.97,-157.16 2674.98,-160.63 2674.95,-153.63"/>
</g>
<!-- Node78 -->
<g id="node37" class="node">
<title>Node78</title>
<g id="a_node37"><a xlink:href="d__attention_8cpp.html" target="_top" xlink:title=" ">
<polygon fill="white" stroke="#666666" points="3719.5,-96 3612.5,-96 3612.5,-77 3719.5,-77 3719.5,-96"/>
<text text-anchor="middle" x="3666" y="-84" font-family="Helvetica,sans-Serif" font-size="10.00">src/d/d_attention.cpp</text>
</a>
</g>
</g>
<!-- Node2&#45;&gt;Node78 -->
<g id="edge42" class="edge">
<title>Node2&#45;&gt;Node78</title>
<path fill="none" stroke="#63b8ff" d="M2674.61,-155.82C2867.45,-152.06 3423.89,-138.7 3603,-107 3616.19,-104.67 3630.48,-100.39 3642.12,-96.44"/>
<polygon fill="#63b8ff" stroke="#63b8ff" points="2674.69,-152.32 2664.76,-156.01 2674.83,-159.32 2674.69,-152.32"/>
</g>
<!-- Node79 -->
<g id="node38" class="node">
<title>Node79</title>
<g id="a_node38"><a xlink:href="d__cam__param_8cpp.html" target="_top" xlink:title=" ">
<polygon fill="white" stroke="#666666" points="3858.5,-96 3737.5,-96 3737.5,-77 3858.5,-77 3858.5,-96"/>
<text text-anchor="middle" x="3798" y="-84" font-family="Helvetica,sans-Serif" font-size="10.00">src/d/d_cam_param.cpp</text>
</a>
</g>
</g>
<!-- Node2&#45;&gt;Node79 -->
<g id="edge43" class="edge">
<title>Node2&#45;&gt;Node79</title>
<path fill="none" stroke="#63b8ff" d="M2674.57,-156.01C2883.31,-152.59 3523.2,-139.66 3728,-107 3742.58,-104.68 3758.45,-100.4 3771.39,-96.45"/>
<polygon fill="#63b8ff" stroke="#63b8ff" points="2674.66,-152.51 2664.72,-156.17 2674.77,-159.51 2674.66,-152.51"/>
</g>
<!-- Node80 -->
<g id="node39" class="node">
<title>Node80</title>
<g id="a_node39"><a xlink:href="d__camera_8cpp.html" target="_top" xlink:title=" ">
<polygon fill="white" stroke="#666666" points="3979,-96 3877,-96 3877,-77 3979,-77 3979,-96"/>
<text text-anchor="middle" x="3928" y="-84" font-family="Helvetica,sans-Serif" font-size="10.00">src/d/d_camera.cpp</text>
</a>
</g>
</g>
<!-- Node2&#45;&gt;Node80 -->
<g id="edge44" class="edge">
<title>Node2&#45;&gt;Node80</title>
<path fill="none" stroke="#63b8ff" d="M2674.74,-156.72C2900.54,-155.39 3634.74,-147.96 3867,-107 3879.92,-104.72 3893.89,-100.4 3905.2,-96.4"/>
<polygon fill="#63b8ff" stroke="#63b8ff" points="2674.92,-153.22 2664.94,-156.77 2674.96,-160.22 2674.92,-153.22"/>
</g>
<!-- Node81 -->
<g id="node40" class="node">
<title>Node81</title>
<g id="a_node40"><a xlink:href="d__eye__hl_8cpp.html" target="_top" xlink:title=" ">
<polygon fill="white" stroke="#666666" points="4095,-96 3997,-96 3997,-77 4095,-77 4095,-96"/>
<text text-anchor="middle" x="4046" y="-84" font-family="Helvetica,sans-Serif" font-size="10.00">src/d/d_eye_hl.cpp</text>
</a>
</g>
</g>
<!-- Node2&#45;&gt;Node81 -->
<g id="edge46" class="edge">
<title>Node2&#45;&gt;Node81</title>
<path fill="none" stroke="#63b8ff" d="M2674.64,-157.12C2914.25,-157.15 3731.43,-153.76 3988,-107 4000.33,-104.75 4013.62,-100.43 4024.36,-96.43"/>
<polygon fill="#63b8ff" stroke="#63b8ff" points="2674.85,-153.62 2664.85,-157.12 2674.85,-160.62 2674.85,-153.62"/>
</g>
<!-- Node82 -->
<g id="node41" class="node">
<title>Node82</title>
<g id="a_node41"><a xlink:href="d__kyeff_8cpp.html" target="_top" xlink:title=" ">
<polygon fill="white" stroke="#666666" points="4203,-96 4113,-96 4113,-77 4203,-77 4203,-96"/>
<text text-anchor="middle" x="4158" y="-84" font-family="Helvetica,sans-Serif" font-size="10.00">src/d/d_kyeff.cpp</text>
</a>
</g>
</g>
<!-- Node2&#45;&gt;Node82 -->
<g id="edge47" class="edge">
<title>Node2&#45;&gt;Node82</title>
<path fill="none" stroke="#63b8ff" d="M2674.69,-156C2946.47,-151.75 3962.72,-134.17 4104,-107 4115.55,-104.78 4127.93,-100.46 4137.91,-96.45"/>
<polygon fill="#63b8ff" stroke="#63b8ff" points="2674.9,-152.49 2664.96,-156.15 2675.01,-159.49 2674.9,-152.49"/>
</g>
<!-- Node83 -->
<g id="node42" class="node">
<title>Node83</title>
<g id="a_node42"><a xlink:href="d__path_8cpp.html" target="_top" xlink:title=" ">
<polygon fill="white" stroke="#666666" points="4310.5,-96 4221.5,-96 4221.5,-77 4310.5,-77 4310.5,-96"/>
<text text-anchor="middle" x="4266" y="-84" font-family="Helvetica,sans-Serif" font-size="10.00">src/d/d_path.cpp</text>
</a>
</g>
</g>
<!-- Node2&#45;&gt;Node83 -->
<g id="edge48" class="edge">
<title>Node2&#45;&gt;Node83</title>
<path fill="none" stroke="#63b8ff" d="M2674.77,-156.16C2958.87,-152.41 4059.67,-136.11 4212,-107 4223.55,-104.79 4235.93,-100.48 4245.91,-96.47"/>
<polygon fill="#63b8ff" stroke="#63b8ff" points="2674.89,-152.66 2664.94,-156.29 2674.98,-159.66 2674.89,-152.66"/>
</g>
<!-- Node84 -->
<g id="node43" class="node">
<title>Node84</title>
<g id="a_node43"><a xlink:href="d__resorce_8cpp.html" target="_top" xlink:title=" ">
<polygon fill="white" stroke="#666666" points="4431,-96 4329,-96 4329,-77 4431,-77 4431,-96"/>
<text text-anchor="middle" x="4380" y="-84" font-family="Helvetica,sans-Serif" font-size="10.00">src/d/d_resorce.cpp</text>
</a>
</g>
</g>
<!-- Node2&#45;&gt;Node84 -->
<g id="edge49" class="edge">
<title>Node2&#45;&gt;Node84</title>
<path fill="none" stroke="#63b8ff" d="M2674.78,-156.15C2970.54,-152.25 4155.14,-135.01 4319,-107 4331.93,-104.79 4345.9,-100.47 4357.21,-96.46"/>
<polygon fill="#63b8ff" stroke="#63b8ff" points="2674.87,-152.65 2664.92,-156.28 2674.96,-159.65 2674.87,-152.65"/>
</g>
<!-- Node2&#45;&gt;Node85 -->
<g id="edge50" class="edge">
<title>Node2&#45;&gt;Node85</title>
<path fill="none" stroke="#63b8ff" d="M2674.79,-156.27C3088.06,-151.68 5283.64,-126.45 5424,-107 5439.66,-104.83 5456.75,-100.46 5470.56,-96.41"/>
<polygon fill="#63b8ff" stroke="#63b8ff" points="2674.84,-152.77 2664.88,-156.38 2674.92,-159.77 2674.84,-152.77"/>
</g>
<!-- Node86 -->
<g id="node45" class="node">
<title>Node86</title>
<g id="a_node45"><a xlink:href="d__stage_8cpp.html" target="_top" xlink:title=" ">
<polygon fill="white" stroke="#666666" points="4543,-96 4449,-96 4449,-77 4543,-77 4543,-96"/>
<text text-anchor="middle" x="4496" y="-84" font-family="Helvetica,sans-Serif" font-size="10.00">src/d/d_stage.cpp</text>
</a>
</g>
</g>
<!-- Node2&#45;&gt;Node86 -->
<g id="edge51" class="edge">
<title>Node2&#45;&gt;Node86</title>
<path fill="none" stroke="#63b8ff" d="M2674.92,-156.39C2983.8,-153.42 4264.07,-139.23 4440,-107 4451.95,-104.81 4464.78,-100.5 4475.14,-96.48"/>
<polygon fill="#63b8ff" stroke="#63b8ff" points="2674.97,-152.89 2665.01,-156.49 2675.04,-159.89 2674.97,-152.89"/>
</g>
<!-- Node87 -->
<g id="node46" class="node">
<title>Node87</title>
<g id="a_node46"><a xlink:href="d__timer_8cpp.html" target="_top" xlink:title=" ">
<polygon fill="white" stroke="#666666" points="4653,-96 4561,-96 4561,-77 4653,-77 4653,-96"/>
<text text-anchor="middle" x="4607" y="-84" font-family="Helvetica,sans-Serif" font-size="10.00">src/d/d_timer.cpp</text>
</a>
</g>
</g>
<!-- Node2&#45;&gt;Node87 -->
<g id="edge52" class="edge">
<title>Node2&#45;&gt;Node87</title>
<path fill="none" stroke="#63b8ff" d="M2674.81,-156.53C2994.98,-154.1 4364.58,-141.73 4552,-107 4563.75,-104.82 4576.36,-100.51 4586.53,-96.49"/>
<polygon fill="#63b8ff" stroke="#63b8ff" points="2674.91,-153.03 2664.94,-156.6 2674.96,-160.03 2674.91,-153.03"/>
</g>
<!-- Node88 -->
<g id="node47" class="node">
<title>Node88</title>
<g id="a_node47"><a xlink:href="d__tresure_8cpp.html" target="_top" xlink:title=" ">
<polygon fill="white" stroke="#666666" points="4771,-96 4671,-96 4671,-77 4771,-77 4771,-96"/>
<text text-anchor="middle" x="4721" y="-84" font-family="Helvetica,sans-Serif" font-size="10.00">src/d/d_tresure.cpp</text>
</a>
</g>
</g>
<!-- Node2&#45;&gt;Node88 -->
<g id="edge53" class="edge">
<title>Node2&#45;&gt;Node88</title>
<path fill="none" stroke="#63b8ff" d="M2674.79,-156.54C3005.84,-154.12 4462.83,-141.55 4662,-107 4674.54,-104.82 4688.06,-100.51 4698.98,-96.49"/>
<polygon fill="#63b8ff" stroke="#63b8ff" points="2674.98,-153.04 2665.01,-156.61 2675.03,-160.04 2674.98,-153.04"/>
</g>
<!-- Node89 -->
<g id="node48" class="node">
<title>Node89</title>
<g id="a_node48"><a xlink:href="d__event__lib_8cpp.html" target="_top" xlink:title=" ">
<polygon fill="white" stroke="#666666" points="4892.5,-101.5 4789.5,-101.5 4789.5,-71.5 4892.5,-71.5 4892.5,-101.5"/>
<text text-anchor="start" x="4797.5" y="-89.5" font-family="Helvetica,sans-Serif" font-size="10.00">src/d/event/d_event</text>
<text text-anchor="middle" x="4841" y="-78.5" font-family="Helvetica,sans-Serif" font-size="10.00">_lib.cpp</text>
</a>
</g>
</g>
<!-- Node2&#45;&gt;Node89 -->
<g id="edge56" class="edge">
<title>Node2&#45;&gt;Node89</title>
<path fill="none" stroke="#63b8ff" d="M2674.69,-156.6C3016.95,-154.39 4568.39,-142.5 4780,-107 4787.02,-105.82 4794.34,-104.02 4801.37,-101.97"/>
<polygon fill="#63b8ff" stroke="#63b8ff" points="2674.76,-153.1 2664.78,-156.66 2674.8,-160.1 2674.76,-153.1"/>
</g>
<!-- Node90 -->
<g id="node49" class="node">
<title>Node90</title>
<g id="a_node49"><a xlink:href="d__event__manager_8cpp.html" target="_top" xlink:title=" ">
<polygon fill="white" stroke="#666666" points="5013.5,-101.5 4910.5,-101.5 4910.5,-71.5 5013.5,-71.5 5013.5,-101.5"/>
<text text-anchor="start" x="4918.5" y="-89.5" font-family="Helvetica,sans-Serif" font-size="10.00">src/d/event/d_event</text>
<text text-anchor="middle" x="4962" y="-78.5" font-family="Helvetica,sans-Serif" font-size="10.00">_manager.cpp</text>
</a>
</g>
</g>
<!-- Node2&#45;&gt;Node90 -->
<g id="edge57" class="edge">
<title>Node2&#45;&gt;Node90</title>
<path fill="none" stroke="#63b8ff" d="M2674.71,-156.71C3028.51,-155 4677.8,-145.03 4902,-107 4908.91,-105.83 4916.12,-104.02 4923.04,-101.98"/>
<polygon fill="#63b8ff" stroke="#63b8ff" points="2674.9,-153.21 2664.92,-156.75 2674.93,-160.21 2674.9,-153.21"/>
</g>
<!-- Node91 -->
<g id="node50" class="node">
<title>Node91</title>
<g id="a_node50"><a xlink:href="d__kankyo__rain_8cpp.html" target="_top" xlink:title=" ">
<polygon fill="white" stroke="#666666" points="5148,-101.5 5032,-101.5 5032,-71.5 5148,-71.5 5148,-101.5"/>
<text text-anchor="start" x="5040" y="-89.5" font-family="Helvetica,sans-Serif" font-size="10.00">src/d/kankyo/d_kankyo</text>
<text text-anchor="middle" x="5090" y="-78.5" font-family="Helvetica,sans-Serif" font-size="10.00">_rain.cpp</text>
</a>
</g>
</g>
<!-- Node2&#45;&gt;Node91 -->
<g id="edge59" class="edge">
<title>Node2&#45;&gt;Node91</title>
<path fill="none" stroke="#63b8ff" d="M2674.65,-156.66C3039.35,-154.68 4785.6,-143.36 5023,-107 5030.66,-105.83 5038.68,-104.02 5046.4,-101.97"/>
<polygon fill="#63b8ff" stroke="#63b8ff" points="2674.75,-153.16 2664.77,-156.72 2674.79,-160.16 2674.75,-153.16"/>
</g>
<!-- Node15&#45;&gt;Node12 -->
<g id="edge5" class="edge">
<title>Node15&#45;&gt;Node12</title>
<path fill="none" stroke="#63b8ff" d="M723.93,-72.52C688.57,-58.63 633.44,-36.99 602.69,-24.91"/>
<polygon fill="#63b8ff" stroke="#63b8ff" points="722.23,-75.61 732.81,-76 724.78,-69.09 722.23,-75.61"/>
</g>
<!-- Node15&#45;&gt;Node16 -->
<g id="edge6" class="edge">
<title>Node15&#45;&gt;Node16</title>
<path fill="none" stroke="#63b8ff" d="M777.2,-70.08C795.34,-56.22 821.36,-36.35 836.28,-24.95"/>
<polygon fill="#63b8ff" stroke="#63b8ff" points="775.55,-66.93 769.73,-75.78 779.8,-72.49 775.55,-66.93"/>
</g>
<!-- Node15&#45;&gt;Node17 -->
<g id="edge7" class="edge">
<title>Node15&#45;&gt;Node17</title>
<path fill="none" stroke="#63b8ff" d="M796.96,-73.21C835.82,-61.26 894.83,-43.11 935.94,-30.47"/>
<polygon fill="#63b8ff" stroke="#63b8ff" points="796.06,-69.83 787.53,-76.11 798.12,-76.52 796.06,-69.83"/>
</g>
<!-- Node40&#45;&gt;Node12 -->
<g id="edge15" class="edge">
<title>Node40&#45;&gt;Node12</title>
<path fill="none" stroke="#63b8ff" d="M373.11,-68.67C427.17,-54.91 501.49,-35.99 544.77,-24.97"/>
<polygon fill="#63b8ff" stroke="#63b8ff" points="372.54,-65.2 363.71,-71.06 374.27,-71.99 372.54,-65.2"/>
</g>
<!-- Node40&#45;&gt;Node45 -->
<g id="edge16" class="edge">
<title>Node40&#45;&gt;Node45</title>
<path fill="none" stroke="#63b8ff" d="M241.83,-68.08C190.53,-54.37 121.13,-35.82 80.5,-24.96"/>
<polygon fill="#63b8ff" stroke="#63b8ff" points="240.79,-71.42 251.35,-70.62 242.59,-64.66 240.79,-71.42"/>
</g>
<!-- Node40&#45;&gt;Node46 -->
<g id="edge17" class="edge">
<title>Node40&#45;&gt;Node46</title>
<path fill="none" stroke="#63b8ff" d="M269.32,-65.96C243.32,-52.47 209.98,-35.18 190.12,-24.88"/>
<polygon fill="#63b8ff" stroke="#63b8ff" points="267.4,-68.91 277.89,-70.4 270.63,-62.69 267.4,-68.91"/>
</g>
<!-- Node40&#45;&gt;Node47 -->
<g id="edge18" class="edge">
<title>Node40&#45;&gt;Node47</title>
<path fill="none" stroke="#63b8ff" d="M305.52,-59.76C304.95,-49.83 304.32,-38.86 303.83,-30.38"/>
<polygon fill="#63b8ff" stroke="#63b8ff" points="302.02,-59.81 306.08,-69.59 309,-59.4 302.02,-59.81"/>
</g>
<!-- Node40&#45;&gt;Node48 -->
<g id="edge19" class="edge">
<title>Node40&#45;&gt;Node48</title>
<path fill="none" stroke="#63b8ff" d="M344.74,-65.78C370.5,-52.32 403.39,-35.13 423.01,-24.88"/>
<polygon fill="#63b8ff" stroke="#63b8ff" points="343.14,-62.67 335.9,-70.4 346.38,-68.87 343.14,-62.67"/>
</g>
<!-- Node66&#45;&gt;Node12 -->
<g id="edge26" class="edge">
<title>Node66&#45;&gt;Node12</title>
<path fill="none" stroke="#63b8ff" d="M589.49,-59.96C586.81,-47.57 583.78,-33.49 581.87,-24.68"/>
<polygon fill="#63b8ff" stroke="#63b8ff" points="586.04,-60.58 591.57,-69.62 592.88,-59.11 586.04,-60.58"/>
</g>
<!-- Node66&#45;&gt;Node67 -->
<g id="edge27" class="edge">
<title>Node66&#45;&gt;Node67</title>
<path fill="none" stroke="#63b8ff" d="M628.53,-65.24C650.66,-51.86 678.57,-35 695.31,-24.88"/>
<polygon fill="#63b8ff" stroke="#63b8ff" points="626.87,-62.15 620.12,-70.32 630.49,-68.14 626.87,-62.15"/>
</g>
</g>
</svg>
