<?xml version="1.0" encoding="UTF-8" standalone="no"?>
<!DOCTYPE svg PUBLIC "-//W3C//DTD SVG 1.1//EN"
 "http://www.w3.org/Graphics/SVG/1.1/DTD/svg11.dtd">
<!-- Generated by graphviz version 7.0.4 (20221203.1631)
 -->
<!-- Title: include/d/d_vibration.h Pages: 1 -->
<!--zoomable 236 -->
<svg id="main" version="1.1" xmlns="http://www.w3.org/2000/svg" xmlns:xlink="http://www.w3.org/1999/xlink" xml:space="preserve" onload="init(evt)">
<style type="text/css"><![CDATA[
.edge:hover path { stroke: red; }
.edge:hover polygon { stroke: red; fill: red; }
]]></style>
<script type="text/javascript"><![CDATA[
var edges = document.getElementsByTagName('g');
if (edges && edges.length) {
  for (var i=0;i<edges.length;i++) {
    if (edges[i].id.substr(0,4)=='edge') {
      edges[i].setAttribute('class','edge');
    }
  }
}
]]></script>
        <defs>
                <circle id="rim" cx="0" cy="0" r="7"/>
                <circle id="rim2" cx="0" cy="0" r="3.5"/>
                <g id="zoomPlus">
                        <use xlink:href="#rim" fill="#404040">
                                <set attributeName="fill" to="#808080" begin="zoomplus.mouseover" end="zoomplus.mouseout"/>
                        </use>
                        <path d="M-4,0h8M0,-4v8" fill="none" stroke="white" stroke-width="1.5" pointer-events="none"/>
                </g>
                <g id="zoomMin">
                        <use xlink:href="#rim" fill="#404040">
                                <set attributeName="fill" to="#808080" begin="zoomminus.mouseover" end="zoomminus.mouseout"/>
                        </use>
                        <path d="M-4,0h8" fill="none" stroke="white" stroke-width="1.5" pointer-events="none"/>
                </g>
                <g id="dirArrow">
                        <path fill="none" stroke="white" stroke-width="1.5" d="M0,-3.0v7 M-2.5,-0.5L0,-3.0L2.5,-0.5"/>
                </g>
               <g id="resetDef">
                       <use xlink:href="#rim2" fill="#404040">
                               <set attributeName="fill" to="#808080" begin="reset.mouseover" end="reset.mouseout"/>
                       </use>
               </g>
        </defs>

<script type="text/javascript">
var viewWidth = 5217;
var viewHeight = 236;
var sectionId = 'dynsection-1';
</script>
<script xlink:href="svgpan.js"/>
<svg id="graph" class="graph">
<g id="viewport">
<title>include/d/d_vibration.h</title>
<!-- Node1 -->
<g id="node1" class="node">
<title>Node1</title>
<g id="a_node1"><a xlink:title=" ">
<polygon fill="#999999" stroke="#666666" points="2387,-228 2274,-228 2274,-209 2387,-209 2387,-228"/>
<text text-anchor="middle" x="2330.5" y="-216" font-family="Helvetica,sans-Serif" font-size="10.00">include/d/d_vibration.h</text>
</a>
</g>
</g>
<!-- Node2 -->
<g id="node2" class="node">
<title>Node2</title>
<g id="a_node2"><a xlink:href="d__com__inf__game_8h.html" target="_top" xlink:title=" ">
<polygon fill="#fff0f0" stroke="red" points="2322.5,-173 2212.5,-173 2212.5,-143 2322.5,-143 2322.5,-173"/>
<text text-anchor="start" x="2220.5" y="-161" font-family="Helvetica,sans-Serif" font-size="10.00">include/d/com/d_com</text>
<text text-anchor="middle" x="2267.5" y="-150" font-family="Helvetica,sans-Serif" font-size="10.00">_inf_game.h</text>
</a>
</g>
</g>
<!-- Node1&#45;&gt;Node2 -->
<g id="edge1" class="edge">
<title>Node1&#45;&gt;Node2</title>
<path fill="none" stroke="#63b8ff" d="M2312.73,-201C2303.39,-192.32 2292.04,-181.79 2283.05,-173.44"/>
<polygon fill="#63b8ff" stroke="#63b8ff" points="2310.11,-203.35 2319.82,-207.59 2314.88,-198.22 2310.11,-203.35"/>
</g>
<!-- Node108 -->
<g id="node50" class="node">
<title>Node108</title>
<g id="a_node50"><a xlink:href="d__vibration_8cpp.html" target="_top" xlink:title=" ">
<polygon fill="white" stroke="#666666" points="2448,-167.5 2341,-167.5 2341,-148.5 2448,-148.5 2448,-167.5"/>
<text text-anchor="middle" x="2394.5" y="-155.5" font-family="Helvetica,sans-Serif" font-size="10.00">src/d/d_vibration.cpp</text>
</a>
</g>
</g>
<!-- Node1&#45;&gt;Node108 -->
<g id="edge59" class="edge">
<title>Node1&#45;&gt;Node108</title>
<path fill="none" stroke="#63b8ff" d="M2348.44,-201.1C2360.18,-190.37 2375.07,-176.76 2384.69,-167.97"/>
<polygon fill="#63b8ff" stroke="#63b8ff" points="2346.36,-198.26 2341.34,-207.59 2351.08,-203.43 2346.36,-198.26"/>
</g>
<!-- Node3 -->
<g id="node3" class="node">
<title>Node3</title>
<g id="a_node3"><a xlink:href="d__a__npc_8h.html" target="_top" xlink:title=" ">
<polygon fill="#fff0f0" stroke="red" points="111,-96 0,-96 0,-77 111,-77 111,-96"/>
<text text-anchor="middle" x="55.5" y="-84" font-family="Helvetica,sans-Serif" font-size="10.00">include/d/a/d_a_npc.h</text>
</a>
</g>
</g>
<!-- Node2&#45;&gt;Node3 -->
<g id="edge2" class="edge">
<title>Node2&#45;&gt;Node3</title>
<path fill="none" stroke="#63b8ff" d="M2200.73,-156.53C1860.62,-153.97 328.83,-140.68 119.5,-107 105.97,-104.82 91.31,-100.51 79.45,-96.49"/>
<polygon fill="#63b8ff" stroke="#63b8ff" points="2200.54,-160.03 2210.57,-156.6 2200.6,-153.03 2200.54,-160.03"/>
</g>
<!-- Node9 -->
<g id="node4" class="node">
<title>Node9</title>
<g id="a_node4"><a xlink:href="d__cc__uty_8h.html" target="_top" xlink:title=" ">
<polygon fill="#fff0f0" stroke="red" points="248,-96 129,-96 129,-77 248,-77 248,-96"/>
<text text-anchor="middle" x="188.5" y="-84" font-family="Helvetica,sans-Serif" font-size="10.00">include/d/cc/d_cc_uty.h</text>
</a>
</g>
</g>
<!-- Node2&#45;&gt;Node9 -->
<g id="edge3" class="edge">
<title>Node2&#45;&gt;Node9</title>
<path fill="none" stroke="#63b8ff" d="M2201.28,-156.26C1876.27,-152.53 457.65,-134.76 262.5,-107 246.98,-104.79 230.04,-100.48 216.3,-96.47"/>
<polygon fill="#63b8ff" stroke="#63b8ff" points="2200.82,-159.76 2210.86,-156.37 2200.9,-152.76 2200.82,-159.76"/>
</g>
<!-- Node15 -->
<g id="node5" class="node">
<title>Node15</title>
<g id="a_node5"><a xlink:href="d__item_8h.html" target="_top" xlink:title=" ">
<polygon fill="#fff0f0" stroke="red" points="890,-96 795,-96 795,-77 890,-77 890,-96"/>
<text text-anchor="middle" x="842.5" y="-84" font-family="Helvetica,sans-Serif" font-size="10.00">include/d/d_item.h</text>
</a>
</g>
</g>
<!-- Node2&#45;&gt;Node15 -->
<g id="edge4" class="edge">
<title>Node2&#45;&gt;Node15</title>
<path fill="none" stroke="#63b8ff" d="M2200.91,-156.91C1963.33,-156.24 1158.05,-150.71 904.5,-107 891.38,-104.74 877.18,-100.42 865.69,-96.42"/>
<polygon fill="#63b8ff" stroke="#63b8ff" points="2200.59,-160.41 2210.6,-156.94 2200.61,-153.41 2200.59,-160.41"/>
</g>
<!-- Node12 -->
<g id="node6" class="node">
<title>Node12</title>
<g id="a_node6"><a xlink:href="d__a__alink_8cpp.html" target="_top" xlink:title=" ">
<polygon fill="white" stroke="#666666" points="675,-24.5 566,-24.5 566,-5.5 675,-5.5 675,-24.5"/>
<text text-anchor="middle" x="620.5" y="-12.5" font-family="Helvetica,sans-Serif" font-size="10.00">src/d/a/d_a_alink.cpp</text>
</a>
</g>
</g>
<!-- Node2&#45;&gt;Node12 -->
<g id="edge31" class="edge">
<title>Node2&#45;&gt;Node12</title>
<path fill="none" stroke="#63b8ff" d="M2200.78,-156.29C1890.71,-152.82 604.3,-136.66 575.5,-107 551.56,-82.34 590.2,-42.45 609.97,-24.84"/>
<polygon fill="#63b8ff" stroke="#63b8ff" points="2200.7,-159.79 2210.74,-156.4 2200.78,-152.79 2200.7,-159.79"/>
</g>
<!-- Node16 -->
<g id="node7" class="node">
<title>Node16</title>
<g id="a_node7"><a xlink:href="d__a__obj__item_8cpp.html" target="_top" xlink:title=" ">
<polygon fill="white" stroke="#666666" points="951,-24.5 826,-24.5 826,-5.5 951,-5.5 951,-24.5"/>
<text text-anchor="middle" x="888.5" y="-12.5" font-family="Helvetica,sans-Serif" font-size="10.00">src/d/a/d_a_obj_item.cpp</text>
</a>
</g>
</g>
<!-- Node2&#45;&gt;Node16 -->
<g id="edge34" class="edge">
<title>Node2&#45;&gt;Node16</title>
<path fill="none" stroke="#63b8ff" d="M2200.76,-157.3C1918.66,-158.23 836.24,-158.45 786.5,-107 773.83,-93.9 776.86,-81.46 786.5,-66 799.86,-44.58 825.36,-32.08 847.52,-24.93"/>
<polygon fill="#63b8ff" stroke="#63b8ff" points="2200.53,-160.8 2210.51,-157.26 2200.5,-153.8 2200.53,-160.8"/>
</g>
<!-- Node17 -->
<g id="node8" class="node">
<title>Node17</title>
<g id="a_node8"><a xlink:href="d__com__inf__game_8cpp.html" target="_top" xlink:title=" ">
<polygon fill="white" stroke="#666666" points="1077.5,-30 969.5,-30 969.5,0 1077.5,0 1077.5,-30"/>
<text text-anchor="start" x="977.5" y="-18" font-family="Helvetica,sans-Serif" font-size="10.00">src/d/com/d_com_inf</text>
<text text-anchor="middle" x="1023.5" y="-7" font-family="Helvetica,sans-Serif" font-size="10.00">_game.cpp</text>
</a>
</g>
</g>
<!-- Node2&#45;&gt;Node17 -->
<g id="edge40" class="edge">
<title>Node2&#45;&gt;Node17</title>
<path fill="none" stroke="#63b8ff" d="M2200.81,-157.03C1937.54,-156.81 982.67,-152.86 938.5,-107 925.86,-93.87 929.45,-81.82 938.5,-66 947.85,-49.65 964.86,-38.12 981.22,-30.29"/>
<polygon fill="#63b8ff" stroke="#63b8ff" points="2200.57,-160.53 2210.57,-157.03 2200.57,-153.53 2200.57,-160.53"/>
</g>
<!-- Node20 -->
<g id="node9" class="node">
<title>Node20</title>
<g id="a_node9"><a xlink:href="d__kantera__icon__meter_8h.html" target="_top" xlink:title=" ">
<polygon fill="#fff0f0" stroke="red" points="1048,-101.5 947,-101.5 947,-71.5 1048,-71.5 1048,-101.5"/>
<text text-anchor="start" x="955" y="-89.5" font-family="Helvetica,sans-Serif" font-size="10.00">include/d/d_kantera</text>
<text text-anchor="middle" x="997.5" y="-78.5" font-family="Helvetica,sans-Serif" font-size="10.00">_icon_meter.h</text>
</a>
</g>
</g>
<!-- Node2&#45;&gt;Node20 -->
<g id="edge8" class="edge">
<title>Node2&#45;&gt;Node20</title>
<path fill="none" stroke="#63b8ff" d="M2200.78,-156.63C1980.79,-155.05 1279.73,-146.93 1057.5,-107 1050.71,-105.78 1043.63,-103.98 1036.81,-101.96"/>
<polygon fill="#63b8ff" stroke="#63b8ff" points="2200.58,-160.13 2210.61,-156.7 2200.63,-153.13 2200.58,-160.13"/>
</g>
<!-- Node23 -->
<g id="node10" class="node">
<title>Node23</title>
<g id="a_node10"><a xlink:href="d__model_8h.html" target="_top" xlink:title=" ">
<polygon fill="#fff0f0" stroke="red" points="1169,-96 1066,-96 1066,-77 1169,-77 1169,-96"/>
<text text-anchor="middle" x="1117.5" y="-84" font-family="Helvetica,sans-Serif" font-size="10.00">include/d/d_model.h</text>
</a>
</g>
</g>
<!-- Node2&#45;&gt;Node23 -->
<g id="edge9" class="edge">
<title>Node2&#45;&gt;Node23</title>
<path fill="none" stroke="#63b8ff" d="M2200.65,-156.23C1995.4,-153.52 1376.31,-142.51 1178.5,-107 1165.7,-104.7 1151.85,-100.43 1140.6,-96.47"/>
<polygon fill="#63b8ff" stroke="#63b8ff" points="2200.57,-159.73 2210.61,-156.36 2200.66,-152.73 2200.57,-159.73"/>
</g>
<!-- Node25 -->
<g id="node11" class="node">
<title>Node25</title>
<g id="a_node11"><a xlink:href="d__name_8h.html" target="_top" xlink:title=" ">
<polygon fill="#fff0f0" stroke="red" points="1288,-96 1187,-96 1187,-77 1288,-77 1288,-96"/>
<text text-anchor="middle" x="1237.5" y="-84" font-family="Helvetica,sans-Serif" font-size="10.00">include/d/d_name.h</text>
</a>
</g>
</g>
<!-- Node2&#45;&gt;Node25 -->
<g id="edge10" class="edge">
<title>Node2&#45;&gt;Node25</title>
<path fill="none" stroke="#63b8ff" d="M2200.61,-155.84C2010.79,-152.17 1471.28,-139.14 1297.5,-107 1284.9,-104.67 1271.28,-100.4 1260.21,-96.44"/>
<polygon fill="#63b8ff" stroke="#63b8ff" points="2200.49,-159.33 2210.55,-156.02 2200.62,-152.33 2200.49,-159.33"/>
</g>
<!-- Node27 -->
<g id="node12" class="node">
<title>Node27</title>
<g id="a_node12"><a xlink:href="d__file__sel__info_8h.html" target="_top" xlink:title=" ">
<polygon fill="#fff0f0" stroke="red" points="1402.5,-101.5 1306.5,-101.5 1306.5,-71.5 1402.5,-71.5 1402.5,-101.5"/>
<text text-anchor="start" x="1314.5" y="-89.5" font-family="Helvetica,sans-Serif" font-size="10.00">include/d/file/d_file</text>
<text text-anchor="middle" x="1354.5" y="-78.5" font-family="Helvetica,sans-Serif" font-size="10.00">_sel_info.h</text>
</a>
</g>
</g>
<!-- Node2&#45;&gt;Node27 -->
<g id="edge11" class="edge">
<title>Node2&#45;&gt;Node27</title>
<path fill="none" stroke="#63b8ff" d="M2200.75,-155.44C2026.73,-150.99 1562.31,-136.63 1411.5,-107 1405.14,-105.75 1398.51,-103.96 1392.13,-101.97"/>
<polygon fill="#63b8ff" stroke="#63b8ff" points="2200.43,-158.93 2210.51,-155.68 2200.61,-151.93 2200.43,-158.93"/>
</g>
<!-- Node30 -->
<g id="node13" class="node">
<title>Node30</title>
<g id="a_node13"><a xlink:href="d__file__sel__warning_8h.html" target="_top" xlink:title=" ">
<polygon fill="#fff0f0" stroke="red" points="1516.5,-101.5 1420.5,-101.5 1420.5,-71.5 1516.5,-71.5 1516.5,-101.5"/>
<text text-anchor="start" x="1428.5" y="-89.5" font-family="Helvetica,sans-Serif" font-size="10.00">include/d/file/d_file</text>
<text text-anchor="middle" x="1468.5" y="-78.5" font-family="Helvetica,sans-Serif" font-size="10.00">_sel_warning.h</text>
</a>
</g>
</g>
<!-- Node2&#45;&gt;Node30 -->
<g id="edge12" class="edge">
<title>Node2&#45;&gt;Node30</title>
<path fill="none" stroke="#63b8ff" d="M2200.75,-154.74C2043.56,-149.07 1653.7,-132.78 1525.5,-107 1519.14,-105.72 1512.52,-103.92 1506.14,-101.92"/>
<polygon fill="#63b8ff" stroke="#63b8ff" points="2200.47,-158.24 2210.59,-155.1 2200.72,-151.24 2200.47,-158.24"/>
</g>
<!-- Node32 -->
<g id="node14" class="node">
<title>Node32</title>
<g id="a_node14"><a xlink:href="d__meter2_8h.html" target="_top" xlink:title=" ">
<polygon fill="#fff0f0" stroke="red" points="1668.5,-96 1534.5,-96 1534.5,-77 1668.5,-77 1668.5,-96"/>
<text text-anchor="middle" x="1601.5" y="-84" font-family="Helvetica,sans-Serif" font-size="10.00">include/d/meter/d_meter2.h</text>
</a>
</g>
</g>
<!-- Node2&#45;&gt;Node32 -->
<g id="edge13" class="edge">
<title>Node2&#45;&gt;Node32</title>
<path fill="none" stroke="#63b8ff" d="M2201.13,-154.9C2091.6,-150.64 1866.42,-138.55 1678.5,-107 1663,-104.4 1646.03,-100.25 1631.98,-96.44"/>
<polygon fill="#63b8ff" stroke="#63b8ff" points="2200.68,-158.38 2210.8,-155.26 2200.94,-151.39 2200.68,-158.38"/>
</g>
<!-- Node40 -->
<g id="node15" class="node">
<title>Node40</title>
<g id="a_node15"><a xlink:href="d__msg__object_8h.html" target="_top" xlink:title=" ">
<polygon fill="#fff0f0" stroke="red" points="452.5,-101.5 342.5,-101.5 342.5,-71.5 452.5,-71.5 452.5,-101.5"/>
<text text-anchor="start" x="350.5" y="-89.5" font-family="Helvetica,sans-Serif" font-size="10.00">include/d/msg/d_msg</text>
<text text-anchor="middle" x="397.5" y="-78.5" font-family="Helvetica,sans-Serif" font-size="10.00">_object.h</text>
</a>
</g>
</g>
<!-- Node2&#45;&gt;Node40 -->
<g id="edge14" class="edge">
<title>Node2&#45;&gt;Node40</title>
<path fill="none" stroke="#63b8ff" d="M2200.88,-157.35C1917.42,-158.52 810.56,-159.56 466.5,-107 458.62,-105.8 450.37,-103.98 442.43,-101.92"/>
<polygon fill="#63b8ff" stroke="#63b8ff" points="2200.69,-160.86 2210.67,-157.31 2200.66,-153.86 2200.69,-160.86"/>
</g>
<!-- Node45 -->
<g id="node16" class="node">
<title>Node45</title>
<g id="a_node16"><a xlink:href="d__demo_8cpp.html" target="_top" xlink:title=" ">
<polygon fill="white" stroke="#666666" points="134.5,-24.5 40.5,-24.5 40.5,-5.5 134.5,-5.5 134.5,-24.5"/>
<text text-anchor="middle" x="87.5" y="-12.5" font-family="Helvetica,sans-Serif" font-size="10.00">src/d/d_demo.cpp</text>
</a>
</g>
</g>
<!-- Node2&#45;&gt;Node45 -->
<g id="edge45" class="edge">
<title>Node2&#45;&gt;Node45</title>
<path fill="none" stroke="#63b8ff" d="M2200.77,-156.86C1865.57,-155.95 378.17,-149.55 290.5,-107 269.2,-96.66 276.26,-79.03 256.5,-66 245.1,-58.48 167.43,-37.14 121.45,-24.91"/>
<polygon fill="#63b8ff" stroke="#63b8ff" points="2200.68,-160.36 2210.69,-156.88 2200.7,-153.36 2200.68,-160.36"/>
</g>
<!-- Node46 -->
<g id="node17" class="node">
<title>Node46</title>
<g id="a_node17"><a xlink:href="d__event_8cpp.html" target="_top" xlink:title=" ">
<polygon fill="white" stroke="#666666" points="274,-24.5 153,-24.5 153,-5.5 274,-5.5 274,-24.5"/>
<text text-anchor="middle" x="213.5" y="-12.5" font-family="Helvetica,sans-Serif" font-size="10.00">src/d/event/d_event.cpp</text>
</a>
</g>
</g>
<!-- Node2&#45;&gt;Node46 -->
<g id="edge54" class="edge">
<title>Node2&#45;&gt;Node46</title>
<path fill="none" stroke="#63b8ff" d="M2200.96,-156.62C1870.87,-154.57 421.42,-143.52 333.5,-107 309.11,-96.87 311.22,-82.37 290.5,-66 270.37,-50.09 245.1,-34.42 229.12,-24.97"/>
<polygon fill="#63b8ff" stroke="#63b8ff" points="2200.69,-160.12 2210.72,-156.68 2200.74,-153.12 2200.69,-160.12"/>
</g>
<!-- Node47 -->
<g id="node18" class="node">
<title>Node47</title>
<g id="a_node18"><a xlink:href="d__event__data_8cpp.html" target="_top" xlink:title=" ">
<polygon fill="white" stroke="#666666" points="395,-30 292,-30 292,0 395,0 395,-30"/>
<text text-anchor="start" x="300" y="-18" font-family="Helvetica,sans-Serif" font-size="10.00">src/d/event/d_event</text>
<text text-anchor="middle" x="343.5" y="-7" font-family="Helvetica,sans-Serif" font-size="10.00">_data.cpp</text>
</a>
</g>
</g>
<!-- Node2&#45;&gt;Node47 -->
<g id="edge55" class="edge">
<title>Node2&#45;&gt;Node47</title>
<path fill="none" stroke="#63b8ff" d="M2200.97,-156.31C1890.06,-152.93 591.93,-137.06 511.5,-107 484.58,-96.94 486.09,-80.87 461.5,-66 437.61,-51.55 408.78,-39.25 385.6,-30.47"/>
<polygon fill="#63b8ff" stroke="#63b8ff" points="2200.92,-159.81 2210.96,-156.42 2201,-152.81 2200.92,-159.81"/>
</g>
<!-- Node48 -->
<g id="node19" class="node">
<title>Node48</title>
<g id="a_node19"><a xlink:href="d__kankyo_8cpp.html" target="_top" xlink:title=" ">
<polygon fill="white" stroke="#666666" points="547.5,-24.5 413.5,-24.5 413.5,-5.5 547.5,-5.5 547.5,-24.5"/>
<text text-anchor="middle" x="480.5" y="-12.5" font-family="Helvetica,sans-Serif" font-size="10.00">src/d/kankyo/d_kankyo.cpp</text>
</a>
</g>
</g>
<!-- Node2&#45;&gt;Node48 -->
<g id="edge58" class="edge">
<title>Node2&#45;&gt;Node48</title>
<path fill="none" stroke="#63b8ff" d="M2200.89,-156.49C1895.4,-153.95 640.12,-141.44 564.5,-107 525.56,-89.27 496.4,-44.12 485.35,-24.89"/>
<polygon fill="#63b8ff" stroke="#63b8ff" points="2200.65,-159.98 2210.68,-156.57 2200.71,-152.98 2200.65,-159.98"/>
</g>
<!-- Node54 -->
<g id="node20" class="node">
<title>Node54</title>
<g id="a_node20"><a xlink:href="d__s__logo_8h.html" target="_top" xlink:title=" ">
<polygon fill="#fff0f0" stroke="red" points="1800,-96 1687,-96 1687,-77 1800,-77 1800,-96"/>
<text text-anchor="middle" x="1743.5" y="-84" font-family="Helvetica,sans-Serif" font-size="10.00">include/d/s/d_s_logo.h</text>
</a>
</g>
</g>
<!-- Node2&#45;&gt;Node54 -->
<g id="edge20" class="edge">
<title>Node2&#45;&gt;Node54</title>
<path fill="none" stroke="#63b8ff" d="M2200.66,-153.45C2110.96,-147.84 1946.99,-134.59 1809.5,-107 1796.26,-104.34 1781.85,-100.23 1769.88,-96.47"/>
<polygon fill="#63b8ff" stroke="#63b8ff" points="2200.32,-156.94 2210.51,-154.05 2200.74,-149.95 2200.32,-156.94"/>
</g>
<!-- Node56 -->
<g id="node21" class="node">
<title>Node56</title>
<g id="a_node21"><a xlink:href="d__s__play_8h.html" target="_top" xlink:title=" ">
<polygon fill="#fff0f0" stroke="red" points="1931,-96 1818,-96 1818,-77 1931,-77 1931,-96"/>
<text text-anchor="middle" x="1874.5" y="-84" font-family="Helvetica,sans-Serif" font-size="10.00">include/d/s/d_s_play.h</text>
</a>
</g>
</g>
<!-- Node2&#45;&gt;Node56 -->
<g id="edge21" class="edge">
<title>Node2&#45;&gt;Node56</title>
<path fill="none" stroke="#63b8ff" d="M2200.98,-149.51C2134.56,-141.41 2029.78,-126.92 1940.5,-107 1927.56,-104.11 1913.43,-100.06 1901.58,-96.4"/>
<polygon fill="#63b8ff" stroke="#63b8ff" points="2200.26,-152.95 2210.61,-150.67 2201.1,-146 2200.26,-152.95"/>
</g>
<!-- Node60 -->
<g id="node22" class="node">
<title>Node60</title>
<g id="a_node22"><a xlink:href="d__msg__scrn__base_8h.html" target="_top" xlink:title=" ">
<polygon fill="#fff0f0" stroke="red" points="2048,-101.5 1949,-101.5 1949,-71.5 2048,-71.5 2048,-101.5"/>
<text text-anchor="start" x="1957" y="-89.5" font-family="Helvetica,sans-Serif" font-size="10.00">include/msg/scrn/d</text>
<text text-anchor="middle" x="1998.5" y="-78.5" font-family="Helvetica,sans-Serif" font-size="10.00">_msg_scrn_base.h</text>
</a>
</g>
</g>
<!-- Node2&#45;&gt;Node60 -->
<g id="edge22" class="edge">
<title>Node2&#45;&gt;Node60</title>
<path fill="none" stroke="#63b8ff" d="M2201.26,-142.75C2159.74,-133.45 2105.22,-120.54 2057.5,-107 2052.1,-105.47 2046.46,-103.75 2040.91,-102"/>
<polygon fill="#63b8ff" stroke="#63b8ff" points="2200.34,-146.13 2210.86,-144.89 2201.86,-139.3 2200.34,-146.13"/>
</g>
<!-- Node64 -->
<g id="node23" class="node">
<title>Node64</title>
<g id="a_node23"><a xlink:href="d__a__b__zant_8h.html" target="_top" xlink:title=" ">
<polygon fill="white" stroke="#666666" points="2187,-101.5 2066,-101.5 2066,-71.5 2187,-71.5 2187,-101.5"/>
<text text-anchor="start" x="2074" y="-89.5" font-family="Helvetica,sans-Serif" font-size="10.00">include/rel/d/a/b/d</text>
<text text-anchor="middle" x="2126.5" y="-78.5" font-family="Helvetica,sans-Serif" font-size="10.00">_a_b_zant/d_a_b_zant.h</text>
</a>
</g>
</g>
<!-- Node2&#45;&gt;Node64 -->
<g id="edge23" class="edge">
<title>Node2&#45;&gt;Node64</title>
<path fill="none" stroke="#63b8ff" d="M2228.16,-137.61C2205.17,-126.28 2176.65,-112.22 2155.68,-101.88"/>
<polygon fill="#63b8ff" stroke="#63b8ff" points="2226.41,-140.65 2236.93,-141.93 2229.5,-134.37 2226.41,-140.65"/>
</g>
<!-- Node65 -->
<g id="node24" class="node">
<title>Node65</title>
<g id="a_node24"><a xlink:href="d__a__skip__2D_8h.html" target="_top" xlink:title=" ">
<polygon fill="white" stroke="#666666" points="2329.5,-101.5 2205.5,-101.5 2205.5,-71.5 2329.5,-71.5 2329.5,-101.5"/>
<text text-anchor="start" x="2213.5" y="-89.5" font-family="Helvetica,sans-Serif" font-size="10.00">include/rel/d/a/d_a</text>
<text text-anchor="middle" x="2267.5" y="-78.5" font-family="Helvetica,sans-Serif" font-size="10.00">_skip_2D/d_a_skip_2D.h</text>
</a>
</g>
</g>
<!-- Node2&#45;&gt;Node65 -->
<g id="edge24" class="edge">
<title>Node2&#45;&gt;Node65</title>
<path fill="none" stroke="#63b8ff" d="M2267.5,-131.26C2267.5,-121.33 2267.5,-110.36 2267.5,-101.88"/>
<polygon fill="#63b8ff" stroke="#63b8ff" points="2264,-131.09 2267.5,-141.09 2271,-131.09 2264,-131.09"/>
</g>
<!-- Node66 -->
<g id="node25" class="node">
<title>Node66</title>
<g id="a_node25"><a xlink:href="d__a__spinner_8h.html" target="_top" xlink:title=" ">
<polygon fill="white" stroke="#666666" points="700.5,-101.5 584.5,-101.5 584.5,-71.5 700.5,-71.5 700.5,-101.5"/>
<text text-anchor="start" x="592.5" y="-89.5" font-family="Helvetica,sans-Serif" font-size="10.00">include/rel/d/a/d_a</text>
<text text-anchor="middle" x="642.5" y="-78.5" font-family="Helvetica,sans-Serif" font-size="10.00">_spinner/d_a_spinner.h</text>
</a>
</g>
</g>
<!-- Node2&#45;&gt;Node66 -->
<g id="edge25" class="edge">
<title>Node2&#45;&gt;Node66</title>
<path fill="none" stroke="#63b8ff" d="M2200.96,-156.91C1942.87,-156.25 1007.8,-150.83 714.5,-107 706.43,-105.79 697.97,-104 689.81,-101.98"/>
<polygon fill="#63b8ff" stroke="#63b8ff" points="2200.85,-160.41 2210.86,-156.94 2200.87,-153.41 2200.85,-160.41"/>
</g>
<!-- Node67 -->
<g id="node26" class="node">
<title>Node67</title>
<g id="a_node26"><a xlink:href="d__a__player_8cpp.html" target="_top" xlink:title=" ">
<polygon fill="white" stroke="#666666" points="807.5,-24.5 693.5,-24.5 693.5,-5.5 807.5,-5.5 807.5,-24.5"/>
<text text-anchor="middle" x="750.5" y="-12.5" font-family="Helvetica,sans-Serif" font-size="10.00">src/d/a/d_a_player.cpp</text>
</a>
</g>
</g>
<!-- Node2&#45;&gt;Node67 -->
<g id="edge35" class="edge">
<title>Node2&#45;&gt;Node67</title>
<path fill="none" stroke="#63b8ff" d="M2200.96,-156.98C1918.38,-156.63 829.74,-152.33 773.5,-107 748.38,-86.75 748.36,-43.39 749.64,-24.78"/>
<polygon fill="#63b8ff" stroke="#63b8ff" points="2200.72,-160.48 2210.72,-156.99 2200.73,-153.48 2200.72,-160.48"/>
</g>
<!-- Node68 -->
<g id="node27" class="node">
<title>Node68</title>
<g id="a_node27"><a xlink:href="d__a__obj__yobikusa_8h.html" target="_top" xlink:title=" ">
<polygon fill="white" stroke="#666666" points="2453,-107 2348,-107 2348,-66 2453,-66 2453,-107"/>
<text text-anchor="start" x="2356" y="-95" font-family="Helvetica,sans-Serif" font-size="10.00">include/rel/d/a/obj</text>
<text text-anchor="start" x="2356" y="-84" font-family="Helvetica,sans-Serif" font-size="10.00">/d_a_obj_yobikusa/d</text>
<text text-anchor="middle" x="2400.5" y="-73" font-family="Helvetica,sans-Serif" font-size="10.00">_a_obj_yobikusa.h</text>
</a>
</g>
</g>
<!-- Node2&#45;&gt;Node68 -->
<g id="edge28" class="edge">
<title>Node2&#45;&gt;Node68</title>
<path fill="none" stroke="#63b8ff" d="M2305.15,-137.33C2323.05,-127.97 2344.42,-116.8 2362.39,-107.42"/>
<polygon fill="#63b8ff" stroke="#63b8ff" points="2303.64,-134.17 2296.4,-141.9 2306.88,-140.37 2303.64,-134.17"/>
</g>
<!-- Node69 -->
<g id="node28" class="node">
<title>Node69</title>
<g id="a_node28"><a xlink:href="d__a__tag__telop_8h.html" target="_top" xlink:title=" ">
<polygon fill="white" stroke="#666666" points="2589.5,-107 2471.5,-107 2471.5,-66 2589.5,-66 2589.5,-107"/>
<text text-anchor="start" x="2479.5" y="-95" font-family="Helvetica,sans-Serif" font-size="10.00">include/rel/d/a/tag</text>
<text text-anchor="start" x="2479.5" y="-84" font-family="Helvetica,sans-Serif" font-size="10.00">/d_a_tag_telop/d_a_tag</text>
<text text-anchor="middle" x="2530.5" y="-73" font-family="Helvetica,sans-Serif" font-size="10.00">_telop.h</text>
</a>
</g>
</g>
<!-- Node2&#45;&gt;Node69 -->
<g id="edge29" class="edge">
<title>Node2&#45;&gt;Node69</title>
<path fill="none" stroke="#63b8ff" d="M2333.54,-140.56C2371.36,-131.02 2419.68,-118.63 2462.5,-107 2465.34,-106.23 2468.25,-105.43 2471.19,-104.61"/>
<polygon fill="#63b8ff" stroke="#63b8ff" points="2332.97,-137.09 2324.13,-142.93 2334.68,-143.88 2332.97,-137.09"/>
</g>
<!-- Node70 -->
<g id="node29" class="node">
<title>Node70</title>
<g id="a_node29"><a xlink:href="c__dylink_8cpp.html" target="_top" xlink:title=" ">
<polygon fill="white" stroke="#666666" points="2703,-96 2608,-96 2608,-77 2703,-77 2703,-96"/>
<text text-anchor="middle" x="2655.5" y="-84" font-family="Helvetica,sans-Serif" font-size="10.00">src/c/c_dylink.cpp</text>
</a>
</g>
</g>
<!-- Node2&#45;&gt;Node70 -->
<g id="edge30" class="edge">
<title>Node2&#45;&gt;Node70</title>
<path fill="none" stroke="#63b8ff" d="M2334.06,-142.85C2452.05,-123.12 2485.91,-133.61 2598.5,-107 2610,-104.28 2622.46,-100.16 2632.78,-96.41"/>
<polygon fill="#63b8ff" stroke="#63b8ff" points="2333.52,-139.4 2324.25,-144.54 2334.7,-146.29 2333.52,-139.4"/>
</g>
<!-- Node71 -->
<g id="node30" class="node">
<title>Node71</title>
<g id="a_node30"><a xlink:href="d__a__itembase_8cpp.html" target="_top" xlink:title=" ">
<polygon fill="white" stroke="#666666" points="2849.5,-96 2721.5,-96 2721.5,-77 2849.5,-77 2849.5,-96"/>
<text text-anchor="middle" x="2785.5" y="-84" font-family="Helvetica,sans-Serif" font-size="10.00">src/d/a/d_a_itembase.cpp</text>
</a>
</g>
</g>
<!-- Node2&#45;&gt;Node71 -->
<g id="edge32" class="edge">
<title>Node2&#45;&gt;Node71</title>
<path fill="none" stroke="#63b8ff" d="M2333.99,-142.93C2502.16,-117.93 2549.11,-136.35 2712.5,-107 2727.22,-104.36 2743.3,-100.2 2756.62,-96.4"/>
<polygon fill="#63b8ff" stroke="#63b8ff" points="2333.59,-139.45 2324.23,-144.41 2334.64,-146.37 2333.59,-139.45"/>
</g>
<!-- Node72 -->
<g id="node31" class="node">
<title>Node72</title>
<g id="a_node31"><a xlink:href="d__a__obj_8cpp.html" target="_top" xlink:title=" ">
<polygon fill="white" stroke="#666666" points="2969,-96 2868,-96 2868,-77 2969,-77 2969,-96"/>
<text text-anchor="middle" x="2918.5" y="-84" font-family="Helvetica,sans-Serif" font-size="10.00">src/d/a/d_a_obj.cpp</text>
</a>
</g>
</g>
<!-- Node2&#45;&gt;Node72 -->
<g id="edge33" class="edge">
<title>Node2&#45;&gt;Node72</title>
<path fill="none" stroke="#63b8ff" d="M2333.93,-142.99C2566.56,-111.52 2632.04,-150.85 2858.5,-107 2870.97,-104.58 2884.46,-100.35 2895.49,-96.45"/>
<polygon fill="#63b8ff" stroke="#63b8ff" points="2333.65,-139.49 2324.22,-144.33 2334.61,-146.43 2333.65,-139.49"/>
</g>
<!-- Node73 -->
<g id="node32" class="node">
<title>Node73</title>
<g id="a_node32"><a xlink:href="d__bg__s_8cpp.html" target="_top" xlink:title=" ">
<polygon fill="white" stroke="#666666" points="3091.5,-96 2987.5,-96 2987.5,-77 3091.5,-77 3091.5,-96"/>
<text text-anchor="middle" x="3039.5" y="-84" font-family="Helvetica,sans-Serif" font-size="10.00">src/d/bg/d_bg_s.cpp</text>
</a>
</g>
</g>
<!-- Node2&#45;&gt;Node73 -->
<g id="edge36" class="edge">
<title>Node2&#45;&gt;Node73</title>
<path fill="none" stroke="#63b8ff" d="M2333.84,-143.02C2619.5,-105.98 2699.31,-158.54 2978.5,-107 2991.29,-104.64 3005.13,-100.36 3016.39,-96.42"/>
<polygon fill="#63b8ff" stroke="#63b8ff" points="2333.67,-139.51 2324.22,-144.29 2334.59,-146.45 2333.67,-139.51"/>
</g>
<!-- Node74 -->
<g id="node33" class="node">
<title>Node74</title>
<g id="a_node33"><a xlink:href="d__bg__s__movebg__actor_8cpp.html" target="_top" xlink:title=" ">
<polygon fill="white" stroke="#666666" points="3235.5,-101.5 3109.5,-101.5 3109.5,-71.5 3235.5,-71.5 3235.5,-101.5"/>
<text text-anchor="start" x="3117.5" y="-89.5" font-family="Helvetica,sans-Serif" font-size="10.00">src/d/bg/d_bg_s_movebg</text>
<text text-anchor="middle" x="3172.5" y="-78.5" font-family="Helvetica,sans-Serif" font-size="10.00">_actor.cpp</text>
</a>
</g>
</g>
<!-- Node2&#45;&gt;Node74 -->
<g id="edge37" class="edge">
<title>Node2&#45;&gt;Node74</title>
<path fill="none" stroke="#63b8ff" d="M2334.11,-142.99C2673.39,-100.2 2766.63,-159.4 3100.5,-107 3108.43,-105.76 3116.75,-103.97 3124.79,-101.98"/>
<polygon fill="#63b8ff" stroke="#63b8ff" points="2333.68,-139.52 2324.21,-144.27 2334.58,-146.46 2333.68,-139.52"/>
</g>
<!-- Node75 -->
<g id="node34" class="node">
<title>Node75</title>
<g id="a_node34"><a xlink:href="d__bg__w_8cpp.html" target="_top" xlink:title=" ">
<polygon fill="white" stroke="#666666" points="3361,-96 3254,-96 3254,-77 3361,-77 3361,-96"/>
<text text-anchor="middle" x="3307.5" y="-84" font-family="Helvetica,sans-Serif" font-size="10.00">src/d/bg/d_bg_w.cpp</text>
</a>
</g>
</g>
<!-- Node2&#45;&gt;Node75 -->
<g id="edge38" class="edge">
<title>Node2&#45;&gt;Node75</title>
<path fill="none" stroke="#63b8ff" d="M2334.1,-143.01C2737,-93.64 2848.39,-174.92 3244.5,-107 3257.82,-104.72 3272.24,-100.4 3283.92,-96.4"/>
<polygon fill="#63b8ff" stroke="#63b8ff" points="2333.7,-139.53 2324.21,-144.24 2334.56,-146.48 2333.7,-139.53"/>
</g>
<!-- Node76 -->
<g id="node35" class="node">
<title>Node76</title>
<g id="a_node35"><a xlink:href="d__cc__s_8cpp.html" target="_top" xlink:title=" ">
<polygon fill="white" stroke="#666666" points="3483.5,-96 3379.5,-96 3379.5,-77 3483.5,-77 3483.5,-96"/>
<text text-anchor="middle" x="3431.5" y="-84" font-family="Helvetica,sans-Serif" font-size="10.00">src/d/cc/d_cc_s.cpp</text>
</a>
</g>
</g>
<!-- Node2&#45;&gt;Node76 -->
<g id="edge39" class="edge">
<title>Node2&#45;&gt;Node76</title>
<path fill="none" stroke="#63b8ff" d="M2333.95,-143.04C2792.64,-87.78 2919.37,-185.39 3370.5,-107 3383.43,-104.75 3397.4,-100.44 3408.7,-96.43"/>
<polygon fill="#63b8ff" stroke="#63b8ff" points="2333.71,-139.54 2324.21,-144.23 2334.56,-146.49 2333.71,-139.54"/>
</g>
<!-- Node77 -->
<g id="node36" class="node">
<title>Node77</title>
<g id="a_node36"><a xlink:href="d__com__static_8cpp.html" target="_top" xlink:title=" ">
<polygon fill="white" stroke="#666666" points="3641.5,-96 3501.5,-96 3501.5,-77 3641.5,-77 3641.5,-96"/>
<text text-anchor="middle" x="3571.5" y="-84" font-family="Helvetica,sans-Serif" font-size="10.00">src/d/com/d_com_static.cpp</text>
</a>
</g>
</g>
<!-- Node2&#45;&gt;Node77 -->
<g id="edge41" class="edge">
<title>Node2&#45;&gt;Node77</title>
<path fill="none" stroke="#63b8ff" d="M2334.11,-143.02C2846.52,-81.85 2985.24,-176.68 3492.5,-107 3509.01,-104.73 3527.09,-100.41 3541.78,-96.41"/>
<polygon fill="#63b8ff" stroke="#63b8ff" points="2333.71,-139.54 2324.21,-144.22 2334.55,-146.49 2333.71,-139.54"/>
</g>
<!-- Node78 -->
<g id="node37" class="node">
<title>Node78</title>
<g id="a_node37"><a xlink:href="d__attention_8cpp.html" target="_top" xlink:title=" ">
<polygon fill="white" stroke="#666666" points="3767,-96 3660,-96 3660,-77 3767,-77 3767,-96"/>
<text text-anchor="middle" x="3713.5" y="-84" font-family="Helvetica,sans-Serif" font-size="10.00">src/d/d_attention.cpp</text>
</a>
</g>
</g>
<!-- Node2&#45;&gt;Node78 -->
<g id="edge42" class="edge">
<title>Node2&#45;&gt;Node78</title>
<path fill="none" stroke="#63b8ff" d="M2333.91,-143.09C2641.35,-109.13 3364.95,-154.18 3650.5,-107 3663.83,-104.8 3678.26,-100.48 3689.94,-96.47"/>
<polygon fill="#63b8ff" stroke="#63b8ff" points="2333.74,-139.59 2324.2,-144.21 2334.54,-146.54 2333.74,-139.59"/>
</g>
<!-- Node79 -->
<g id="node38" class="node">
<title>Node79</title>
<g id="a_node38"><a xlink:href="d__cam__param_8cpp.html" target="_top" xlink:title=" ">
<polygon fill="white" stroke="#666666" points="3906,-96 3785,-96 3785,-77 3906,-77 3906,-96"/>
<text text-anchor="middle" x="3845.5" y="-84" font-family="Helvetica,sans-Serif" font-size="10.00">src/d/d_cam_param.cpp</text>
</a>
</g>
</g>
<!-- Node2&#45;&gt;Node79 -->
<g id="edge43" class="edge">
<title>Node2&#45;&gt;Node79</title>
<path fill="none" stroke="#63b8ff" d="M2334.03,-143.04C2972,-68.67 3145.47,-202.48 3776.5,-107 3791.02,-104.8 3806.82,-100.49 3819.63,-96.47"/>
<polygon fill="#63b8ff" stroke="#63b8ff" points="2333.72,-139.55 2324.2,-144.2 2334.54,-146.5 2333.72,-139.55"/>
</g>
<!-- Node80 -->
<g id="node39" class="node">
<title>Node80</title>
<g id="a_node39"><a xlink:href="d__camera_8cpp.html" target="_top" xlink:title=" ">
<polygon fill="white" stroke="#666666" points="4026.5,-96 3924.5,-96 3924.5,-77 4026.5,-77 4026.5,-96"/>
<text text-anchor="middle" x="3975.5" y="-84" font-family="Helvetica,sans-Serif" font-size="10.00">src/d/d_camera.cpp</text>
</a>
</g>
</g>
<!-- Node2&#45;&gt;Node80 -->
<g id="edge44" class="edge">
<title>Node2&#45;&gt;Node80</title>
<path fill="none" stroke="#63b8ff" d="M2333.92,-143.09C2700.07,-103.08 3572.17,-165.4 3915.5,-107 3928.35,-104.81 3942.22,-100.45 3953.38,-96.4"/>
<polygon fill="#63b8ff" stroke="#63b8ff" points="2333.74,-139.59 2324.2,-144.2 2334.53,-146.54 2333.74,-139.59"/>
</g>
<!-- Node81 -->
<g id="node40" class="node">
<title>Node81</title>
<g id="a_node40"><a xlink:href="d__eye__hl_8cpp.html" target="_top" xlink:title=" ">
<polygon fill="white" stroke="#666666" points="4142.5,-96 4044.5,-96 4044.5,-77 4142.5,-77 4142.5,-96"/>
<text text-anchor="middle" x="4093.5" y="-84" font-family="Helvetica,sans-Serif" font-size="10.00">src/d/d_eye_hl.cpp</text>
</a>
</g>
</g>
<!-- Node2&#45;&gt;Node81 -->
<g id="edge46" class="edge">
<title>Node2&#45;&gt;Node81</title>
<path fill="none" stroke="#63b8ff" d="M2333.87,-143.1C2726.57,-100.33 3666.15,-171.44 4035.5,-107 4047.95,-104.83 4061.36,-100.46 4072.15,-96.41"/>
<polygon fill="#63b8ff" stroke="#63b8ff" points="2333.74,-139.59 2324.2,-144.19 2334.53,-146.54 2333.74,-139.59"/>
</g>
<!-- Node82 -->
<g id="node41" class="node">
<title>Node82</title>
<g id="a_node41"><a xlink:href="d__kyeff_8cpp.html" target="_top" xlink:title=" ">
<polygon fill="white" stroke="#666666" points="4250.5,-96 4160.5,-96 4160.5,-77 4250.5,-77 4250.5,-96"/>
<text text-anchor="middle" x="4205.5" y="-84" font-family="Helvetica,sans-Serif" font-size="10.00">src/d/d_kyeff.cpp</text>
</a>
</g>
</g>
<!-- Node2&#45;&gt;Node82 -->
<g id="edge47" class="edge">
<title>Node2&#45;&gt;Node82</title>
<path fill="none" stroke="#63b8ff" d="M2333.99,-143.08C2752.46,-97.73 3757.55,-179.97 4151.5,-107 4163.16,-104.84 4175.65,-100.47 4185.68,-96.42"/>
<polygon fill="#63b8ff" stroke="#63b8ff" points="2333.75,-139.59 2324.2,-144.19 2334.53,-146.55 2333.75,-139.59"/>
</g>
<!-- Node83 -->
<g id="node42" class="node">
<title>Node83</title>
<g id="a_node42"><a xlink:href="d__path_8cpp.html" target="_top" xlink:title=" ">
<polygon fill="white" stroke="#666666" points="4358,-96 4269,-96 4269,-77 4358,-77 4358,-96"/>
<text text-anchor="middle" x="4313.5" y="-84" font-family="Helvetica,sans-Serif" font-size="10.00">src/d/d_path.cpp</text>
</a>
</g>
</g>
<!-- Node2&#45;&gt;Node83 -->
<g id="edge48" class="edge">
<title>Node2&#45;&gt;Node83</title>
<path fill="none" stroke="#63b8ff" d="M2334,-143.08C2776.36,-95.22 3841.92,-184.11 4259.5,-107 4271.16,-104.85 4283.65,-100.48 4293.68,-96.43"/>
<polygon fill="#63b8ff" stroke="#63b8ff" points="2333.75,-139.59 2324.2,-144.18 2334.53,-146.55 2333.75,-139.59"/>
</g>
<!-- Node84 -->
<g id="node43" class="node">
<title>Node84</title>
<g id="a_node43"><a xlink:href="d__resorce_8cpp.html" target="_top" xlink:title=" ">
<polygon fill="white" stroke="#666666" points="4478.5,-96 4376.5,-96 4376.5,-77 4478.5,-77 4478.5,-96"/>
<text text-anchor="middle" x="4427.5" y="-84" font-family="Helvetica,sans-Serif" font-size="10.00">src/d/d_resorce.cpp</text>
</a>
</g>
</g>
<!-- Node2&#45;&gt;Node84 -->
<g id="edge49" class="edge">
<title>Node2&#45;&gt;Node84</title>
<path fill="none" stroke="#63b8ff" d="M2333.93,-143.09C2800.13,-92.59 3925.02,-181.12 4367.5,-107 4380.35,-104.85 4394.22,-100.48 4405.39,-96.43"/>
<polygon fill="#63b8ff" stroke="#63b8ff" points="2333.75,-139.59 2324.2,-144.18 2334.53,-146.54 2333.75,-139.59"/>
</g>
<!-- Node85 -->
<g id="node44" class="node">
<title>Node85</title>
<g id="a_node44"><a xlink:href="d__simple__model_8cpp.html" target="_top" xlink:title=" ">
<polygon fill="white" stroke="#666666" points="4626.5,-96 4496.5,-96 4496.5,-77 4626.5,-77 4626.5,-96"/>
<text text-anchor="middle" x="4561.5" y="-84" font-family="Helvetica,sans-Serif" font-size="10.00">src/d/d_simple_model.cpp</text>
</a>
</g>
</g>
<!-- Node2&#45;&gt;Node85 -->
<g id="edge50" class="edge">
<title>Node2&#45;&gt;Node85</title>
<path fill="none" stroke="#63b8ff" d="M2333.85,-143.1C2826.52,-89.58 4016.63,-172 4487.5,-107 4503.16,-104.84 4520.25,-100.47 4534.06,-96.42"/>
<polygon fill="#63b8ff" stroke="#63b8ff" points="2333.75,-139.58 2324.2,-144.18 2334.53,-146.54 2333.75,-139.58"/>
</g>
<!-- Node86 -->
<g id="node45" class="node">
<title>Node86</title>
<g id="a_node45"><a xlink:href="d__stage_8cpp.html" target="_top" xlink:title=" ">
<polygon fill="white" stroke="#666666" points="4738.5,-96 4644.5,-96 4644.5,-77 4738.5,-77 4738.5,-96"/>
<text text-anchor="middle" x="4691.5" y="-84" font-family="Helvetica,sans-Serif" font-size="10.00">src/d/d_stage.cpp</text>
</a>
</g>
</g>
<!-- Node2&#45;&gt;Node86 -->
<g id="edge51" class="edge">
<title>Node2&#45;&gt;Node86</title>
<path fill="none" stroke="#63b8ff" d="M2333.93,-143.17C2633.87,-114.9 4386.83,-151.06 4635.5,-107 4647.56,-104.86 4660.51,-100.5 4670.92,-96.44"/>
<polygon fill="#63b8ff" stroke="#63b8ff" points="2333.79,-139.67 2324.2,-144.18 2334.51,-146.63 2333.79,-139.67"/>
</g>
<!-- Node87 -->
<g id="node46" class="node">
<title>Node87</title>
<g id="a_node46"><a xlink:href="d__timer_8cpp.html" target="_top" xlink:title=" ">
<polygon fill="white" stroke="#666666" points="4848.5,-96 4756.5,-96 4756.5,-77 4848.5,-77 4848.5,-96"/>
<text text-anchor="middle" x="4802.5" y="-84" font-family="Helvetica,sans-Serif" font-size="10.00">src/d/d_timer.cpp</text>
</a>
</g>
</g>
<!-- Node2&#45;&gt;Node87 -->
<g id="edge52" class="edge">
<title>Node2&#45;&gt;Node87</title>
<path fill="none" stroke="#63b8ff" d="M2333.99,-143.16C2646.72,-113.65 4486.72,-153.86 4747.5,-107 4759.37,-104.87 4772.08,-100.5 4782.3,-96.44"/>
<polygon fill="#63b8ff" stroke="#63b8ff" points="2333.79,-139.67 2324.2,-144.18 2334.51,-146.63 2333.79,-139.67"/>
</g>
<!-- Node88 -->
<g id="node47" class="node">
<title>Node88</title>
<g id="a_node47"><a xlink:href="d__tresure_8cpp.html" target="_top" xlink:title=" ">
<polygon fill="white" stroke="#666666" points="4966.5,-96 4866.5,-96 4866.5,-77 4966.5,-77 4966.5,-96"/>
<text text-anchor="middle" x="4916.5" y="-84" font-family="Helvetica,sans-Serif" font-size="10.00">src/d/d_tresure.cpp</text>
</a>
</g>
</g>
<!-- Node2&#45;&gt;Node88 -->
<g id="edge53" class="edge">
<title>Node2&#45;&gt;Node88</title>
<path fill="none" stroke="#63b8ff" d="M2334.01,-143.16C2659.12,-112.32 4584.18,-153 4857.5,-107 4870.16,-104.87 4883.8,-100.51 4894.77,-96.45"/>
<polygon fill="#63b8ff" stroke="#63b8ff" points="2333.79,-139.66 2324.2,-144.18 2334.51,-146.63 2333.79,-139.66"/>
</g>
<!-- Node89 -->
<g id="node48" class="node">
<title>Node89</title>
<g id="a_node48"><a xlink:href="d__event__lib_8cpp.html" target="_top" xlink:title=" ">
<polygon fill="white" stroke="#666666" points="5088,-101.5 4985,-101.5 4985,-71.5 5088,-71.5 5088,-101.5"/>
<text text-anchor="start" x="4993" y="-89.5" font-family="Helvetica,sans-Serif" font-size="10.00">src/d/event/d_event</text>
<text text-anchor="middle" x="5036.5" y="-78.5" font-family="Helvetica,sans-Serif" font-size="10.00">_lib.cpp</text>
</a>
</g>
</g>
<!-- Node2&#45;&gt;Node89 -->
<g id="edge56" class="edge">
<title>Node2&#45;&gt;Node89</title>
<path fill="none" stroke="#63b8ff" d="M2334.02,-143.15C2672.39,-110.94 4689.03,-153.68 4975.5,-107 4982.63,-105.84 4990.08,-104.01 4997.21,-101.93"/>
<polygon fill="#63b8ff" stroke="#63b8ff" points="2333.78,-139.66 2324.2,-144.18 2334.51,-146.62 2333.78,-139.66"/>
</g>
<!-- Node90 -->
<g id="node49" class="node">
<title>Node90</title>
<g id="a_node49"><a xlink:href="d__event__manager_8cpp.html" target="_top" xlink:title=" ">
<polygon fill="white" stroke="#666666" points="5209,-101.5 5106,-101.5 5106,-71.5 5209,-71.5 5209,-101.5"/>
<text text-anchor="start" x="5114" y="-89.5" font-family="Helvetica,sans-Serif" font-size="10.00">src/d/event/d_event</text>
<text text-anchor="middle" x="5157.5" y="-78.5" font-family="Helvetica,sans-Serif" font-size="10.00">_manager.cpp</text>
</a>
</g>
</g>
<!-- Node2&#45;&gt;Node90 -->
<g id="edge57" class="edge">
<title>Node2&#45;&gt;Node90</title>
<path fill="none" stroke="#63b8ff" d="M2334,-143.15C2686.01,-109.56 4797.76,-156.49 5097.5,-107 5104.52,-105.84 5111.85,-104.01 5118.87,-101.93"/>
<polygon fill="#63b8ff" stroke="#63b8ff" points="2333.78,-139.66 2324.2,-144.17 2334.51,-146.62 2333.78,-139.66"/>
</g>
<!-- Node15&#45;&gt;Node12 -->
<g id="edge5" class="edge">
<title>Node15&#45;&gt;Node12</title>
<path fill="none" stroke="#63b8ff" d="M803.01,-73.14C758.77,-59.29 688.11,-37.17 648.96,-24.91"/>
<polygon fill="#63b8ff" stroke="#63b8ff" points="801.9,-76.46 812.49,-76.1 803.99,-69.78 801.9,-76.46"/>
</g>
<!-- Node15&#45;&gt;Node16 -->
<g id="edge6" class="edge">
<title>Node15&#45;&gt;Node16</title>
<path fill="none" stroke="#63b8ff" d="M854.52,-67.34C863.55,-53.7 875.52,-35.61 882.58,-24.95"/>
<polygon fill="#63b8ff" stroke="#63b8ff" points="851.76,-65.16 849.16,-75.44 857.6,-69.03 851.76,-65.16"/>
</g>
<!-- Node15&#45;&gt;Node17 -->
<g id="edge7" class="edge">
<title>Node15&#45;&gt;Node17</title>
<path fill="none" stroke="#63b8ff" d="M876.53,-72.43C907.65,-60.49 953.59,-42.84 985.81,-30.47"/>
<polygon fill="#63b8ff" stroke="#63b8ff" points="875.29,-69.16 867.2,-76.01 877.8,-75.7 875.29,-69.16"/>
</g>
<!-- Node40&#45;&gt;Node12 -->
<g id="edge15" class="edge">
<title>Node40&#45;&gt;Node12</title>
<path fill="none" stroke="#63b8ff" d="M454.78,-67.65C498.64,-53.98 557.28,-35.7 591.76,-24.96"/>
<polygon fill="#63b8ff" stroke="#63b8ff" points="453.93,-64.25 445.42,-70.56 456.01,-70.93 453.93,-64.25"/>
</g>
<!-- Node40&#45;&gt;Node45 -->
<g id="edge16" class="edge">
<title>Node40&#45;&gt;Node45</title>
<path fill="none" stroke="#63b8ff" d="M331.13,-71.57C279.81,-60.65 207.03,-44.88 143.5,-30 136.77,-28.42 129.6,-26.68 122.71,-24.97"/>
<polygon fill="#63b8ff" stroke="#63b8ff" points="330.41,-74.99 340.91,-73.64 331.86,-68.14 330.41,-74.99"/>
</g>
<!-- Node40&#45;&gt;Node46 -->
<g id="edge17" class="edge">
<title>Node40&#45;&gt;Node46</title>
<path fill="none" stroke="#63b8ff" d="M348.61,-67.03C312.64,-53.45 265.31,-35.57 237.27,-24.98"/>
<polygon fill="#63b8ff" stroke="#63b8ff" points="347.37,-70.31 357.96,-70.56 349.84,-63.76 347.37,-70.31"/>
</g>
<!-- Node40&#45;&gt;Node47 -->
<g id="edge18" class="edge">
<title>Node40&#45;&gt;Node47</title>
<path fill="none" stroke="#63b8ff" d="M379.26,-62.03C371.11,-51.54 361.77,-39.51 354.67,-30.38"/>
<polygon fill="#63b8ff" stroke="#63b8ff" points="376.48,-64.16 385.38,-69.9 382.01,-59.86 376.48,-64.16"/>
</g>
<!-- Node40&#45;&gt;Node48 -->
<g id="edge19" class="edge">
<title>Node40&#45;&gt;Node48</title>
<path fill="none" stroke="#63b8ff" d="M423.5,-63.73C439.27,-50.53 458.52,-34.4 470.13,-24.68"/>
<polygon fill="#63b8ff" stroke="#63b8ff" points="421.28,-61.02 415.86,-70.13 425.77,-66.39 421.28,-61.02"/>
</g>
<!-- Node66&#45;&gt;Node12 -->
<g id="edge26" class="edge">
<title>Node66&#45;&gt;Node12</title>
<path fill="none" stroke="#63b8ff" d="M634.54,-60.34C630.59,-47.86 626.07,-33.58 623.25,-24.68"/>
<polygon fill="#63b8ff" stroke="#63b8ff" points="631.13,-61.18 637.48,-69.66 637.8,-59.07 631.13,-61.18"/>
</g>
<!-- Node66&#45;&gt;Node67 -->
<g id="edge27" class="edge">
<title>Node66&#45;&gt;Node67</title>
<path fill="none" stroke="#63b8ff" d="M674.55,-64.87C695.25,-51.56 721.12,-34.9 736.7,-24.88"/>
<polygon fill="#63b8ff" stroke="#63b8ff" points="672.67,-61.93 666.15,-70.28 676.45,-67.81 672.67,-61.93"/>
</g>
</g>
</svg>
        <g id="navigator" transform="translate(0 0)" fill="#404254">
                <rect fill="#f2f5e9" fill-opacity="0.5" stroke="#606060" stroke-width=".5" x="0" y="0" width="60" height="60"/>
                <use id="zoomplus" xlink:href="#zoomPlus" x="17" y="9" onmousedown="handleZoom(evt,'in')"/>
                <use id="zoomminus" xlink:href="#zoomMin" x="42" y="9" onmousedown="handleZoom(evt,'out')"/>
                <use id="reset" xlink:href="#resetDef" x="30" y="36" onmousedown="handleReset()"/>
                <g id="arrowUp" xlink:href="#dirArrow" transform="translate(30 24)" onmousedown="handlePan(0,-1)">
                  <use xlink:href="#rim" fill="#404040">
                        <set attributeName="fill" to="#808080" begin="arrowUp.mouseover" end="arrowUp.mouseout"/>
                  </use>
                  <path fill="none" stroke="white" stroke-width="1.5" d="M0,-3.0v7 M-2.5,-0.5L0,-3.0L2.5,-0.5"/>
                </g>
                <g id="arrowRight" xlink:href="#dirArrow" transform="rotate(90) translate(36 -43)" onmousedown="handlePan(1,0)">
                  <use xlink:href="#rim" fill="#404040">
                        <set attributeName="fill" to="#808080" begin="arrowRight.mouseover" end="arrowRight.mouseout"/>
                  </use>
                  <path fill="none" stroke="white" stroke-width="1.5" d="M0,-3.0v7 M-2.5,-0.5L0,-3.0L2.5,-0.5"/>
                </g>
                <g id="arrowDown" xlink:href="#dirArrow" transform="rotate(180) translate(-30 -48)" onmousedown="handlePan(0,1)">
                  <use xlink:href="#rim" fill="#404040">
                        <set attributeName="fill" to="#808080" begin="arrowDown.mouseover" end="arrowDown.mouseout"/>
                  </use>
                  <path fill="none" stroke="white" stroke-width="1.5" d="M0,-3.0v7 M-2.5,-0.5L0,-3.0L2.5,-0.5"/>
                </g>
                <g id="arrowLeft" xlink:href="#dirArrow" transform="rotate(270) translate(-36 17)" onmousedown="handlePan(-1,0)">
                  <use xlink:href="#rim" fill="#404040">
                        <set attributeName="fill" to="#808080" begin="arrowLeft.mouseover" end="arrowLeft.mouseout"/>
                  </use>
                  <path fill="none" stroke="white" stroke-width="1.5" d="M0,-3.0v7 M-2.5,-0.5L0,-3.0L2.5,-0.5"/>
                </g>
        </g>
        <svg viewBox="0 0 15 15" width="100%" height="30px" preserveAspectRatio="xMaxYMin meet">
         <g id="arrow_out" transform="scale(0.3 0.3)">
          <a xlink:href="d__vibration_8h__dep__incl_org.svg" target="_base">
           <rect id="button" ry="5" rx="5" y="6" x="6" height="38" width="38"
                fill="#f2f5e9" fill-opacity="0.5" stroke="#606060" stroke-width="1.0"/>
           <path id="arrow"
             d="M 11.500037,31.436501 C 11.940474,20.09759 22.043105,11.32322 32.158766,21.979434 L 37.068811,17.246167 C 37.068811,17.246167 37.088388,32 37.088388,32 L 22.160133,31.978069 C 22.160133,31.978069 26.997745,27.140456 26.997745,27.140456 C 18.528582,18.264221 13.291696,25.230495 11.500037,31.436501 z"
             style="fill:#404040;"/>
          </a>
         </g>
        </svg>
</svg>
