<?xml version="1.0" encoding="UTF-8" standalone="no"?>
<!DOCTYPE svg PUBLIC "-//W3C//DTD SVG 1.1//EN"
 "http://www.w3.org/Graphics/SVG/1.1/DTD/svg11.dtd">
<!-- Generated by graphviz version 7.0.4 (20221203.1631)
 -->
<!-- Title: include/f_op/f_op_camera_mng.h Pages: 1 -->
<!--zoomable 247 -->
<svg id="main" version="1.1" xmlns="http://www.w3.org/2000/svg" xmlns:xlink="http://www.w3.org/1999/xlink" xml:space="preserve" onload="init(evt)">
<style type="text/css"><![CDATA[
.edge:hover path { stroke: red; }
.edge:hover polygon { stroke: red; fill: red; }
]]></style>
<script type="text/javascript"><![CDATA[
var edges = document.getElementsByTagName('g');
if (edges && edges.length) {
  for (var i=0;i<edges.length;i++) {
    if (edges[i].id.substr(0,4)=='edge') {
      edges[i].setAttribute('class','edge');
    }
  }
}
]]></script>
        <defs>
                <circle id="rim" cx="0" cy="0" r="7"/>
                <circle id="rim2" cx="0" cy="0" r="3.5"/>
                <g id="zoomPlus">
                        <use xlink:href="#rim" fill="#404040">
                                <set attributeName="fill" to="#808080" begin="zoomplus.mouseover" end="zoomplus.mouseout"/>
                        </use>
                        <path d="M-4,0h8M0,-4v8" fill="none" stroke="white" stroke-width="1.5" pointer-events="none"/>
                </g>
                <g id="zoomMin">
                        <use xlink:href="#rim" fill="#404040">
                                <set attributeName="fill" to="#808080" begin="zoomminus.mouseover" end="zoomminus.mouseout"/>
                        </use>
                        <path d="M-4,0h8" fill="none" stroke="white" stroke-width="1.5" pointer-events="none"/>
                </g>
                <g id="dirArrow">
                        <path fill="none" stroke="white" stroke-width="1.5" d="M0,-3.0v7 M-2.5,-0.5L0,-3.0L2.5,-0.5"/>
                </g>
               <g id="resetDef">
                       <use xlink:href="#rim2" fill="#404040">
                               <set attributeName="fill" to="#808080" begin="reset.mouseover" end="reset.mouseout"/>
                       </use>
               </g>
        </defs>

<script type="text/javascript">
var viewWidth = 5058;
var viewHeight = 247;
var sectionId = 'dynsection-1';
</script>
<script xlink:href="svgpan.js"/>
<svg id="graph" class="graph">
<g id="viewport">
<title>include/f_op/f_op_camera_mng.h</title>
<!-- Node1 -->
<g id="node1" class="node">
<title>Node1</title>
<g id="a_node1"><a xlink:title=" ">
<polygon fill="#999999" stroke="#666666" points="2507.5,-239 2379.5,-239 2379.5,-209 2507.5,-209 2507.5,-239"/>
<text text-anchor="start" x="2387.5" y="-227" font-family="Helvetica,sans-Serif" font-size="10.00">include/f_op/f_op_camera</text>
<text text-anchor="middle" x="2443.5" y="-216" font-family="Helvetica,sans-Serif" font-size="10.00">_mng.h</text>
</a>
</g>
</g>
<!-- Node2 -->
<g id="node2" class="node">
<title>Node2</title>
<g id="a_node2"><a xlink:href="d__com__inf__game_8h.html" target="_top" xlink:title=" ">
<polygon fill="#fff0f0" stroke="red" points="2284.5,-173 2174.5,-173 2174.5,-143 2284.5,-143 2284.5,-173"/>
<text text-anchor="start" x="2182.5" y="-161" font-family="Helvetica,sans-Serif" font-size="10.00">include/d/com/d_com</text>
<text text-anchor="middle" x="2229.5" y="-150" font-family="Helvetica,sans-Serif" font-size="10.00">_inf_game.h</text>
</a>
</g>
</g>
<!-- Node1&#45;&gt;Node2 -->
<g id="edge1" class="edge">
<title>Node1&#45;&gt;Node2</title>
<path fill="none" stroke="#63b8ff" d="M2384.59,-205.38C2350.94,-195.32 2309.28,-182.86 2277.62,-173.39"/>
<polygon fill="#63b8ff" stroke="#63b8ff" points="2383.17,-208.61 2393.76,-208.12 2385.18,-201.91 2383.17,-208.61"/>
</g>
<!-- Node108 -->
<g id="node48" class="node">
<title>Node108</title>
<g id="a_node48"><a xlink:href="f__op__camera_8h.html" target="_top" xlink:title=" ">
<polygon fill="#fff0f0" stroke="red" points="2438.5,-167.5 2302.5,-167.5 2302.5,-148.5 2438.5,-148.5 2438.5,-167.5"/>
<text text-anchor="middle" x="2370.5" y="-155.5" font-family="Helvetica,sans-Serif" font-size="10.00">include/f_op/f_op_camera.h</text>
</a>
</g>
</g>
<!-- Node1&#45;&gt;Node108 -->
<g id="edge56" class="edge">
<title>Node1&#45;&gt;Node108</title>
<path fill="none" stroke="#63b8ff" d="M2418.72,-201.27C2405.67,-189.84 2390.39,-176.44 2380.59,-167.84"/>
<polygon fill="#63b8ff" stroke="#63b8ff" points="2416.33,-203.84 2426.16,-207.8 2420.95,-198.57 2416.33,-203.84"/>
</g>
<!-- Node109 -->
<g id="node49" class="node">
<title>Node109</title>
<g id="a_node49"><a xlink:href="f__ap__game_8cpp.html" target="_top" xlink:title=" ">
<polygon fill="white" stroke="#666666" points="2578,-167.5 2457,-167.5 2457,-148.5 2578,-148.5 2578,-167.5"/>
<text text-anchor="middle" x="2517.5" y="-155.5" font-family="Helvetica,sans-Serif" font-size="10.00">src/f_ap/f_ap_game.cpp</text>
</a>
</g>
</g>
<!-- Node1&#45;&gt;Node109 -->
<g id="edge57" class="edge">
<title>Node1&#45;&gt;Node109</title>
<path fill="none" stroke="#63b8ff" d="M2468.62,-201.27C2481.84,-189.84 2497.33,-176.44 2507.27,-167.84"/>
<polygon fill="#63b8ff" stroke="#63b8ff" points="2466.34,-198.62 2461.07,-207.81 2470.92,-203.91 2466.34,-198.62"/>
</g>
<!-- Node110 -->
<g id="node50" class="node">
<title>Node110</title>
<g id="a_node50"><a xlink:href="f__op__camera__mng_8cpp.html" target="_top" xlink:title=" ">
<polygon fill="white" stroke="#666666" points="2707,-173 2596,-173 2596,-143 2707,-143 2707,-173"/>
<text text-anchor="start" x="2604" y="-161" font-family="Helvetica,sans-Serif" font-size="10.00">src/f_op/f_op_camera</text>
<text text-anchor="middle" x="2651.5" y="-150" font-family="Helvetica,sans-Serif" font-size="10.00">_mng.cpp</text>
</a>
</g>
</g>
<!-- Node1&#45;&gt;Node110 -->
<g id="edge58" class="edge">
<title>Node1&#45;&gt;Node110</title>
<path fill="none" stroke="#63b8ff" d="M2501.19,-205.25C2533.82,-195.21 2574.09,-182.82 2604.73,-173.39"/>
<polygon fill="#63b8ff" stroke="#63b8ff" points="2500.41,-201.83 2491.89,-208.11 2502.47,-208.52 2500.41,-201.83"/>
</g>
<!-- Node3 -->
<g id="node3" class="node">
<title>Node3</title>
<g id="a_node3"><a xlink:href="d__a__npc_8h.html" target="_top" xlink:title=" ">
<polygon fill="#fff0f0" stroke="red" points="111,-96 0,-96 0,-77 111,-77 111,-96"/>
<text text-anchor="middle" x="55.5" y="-84" font-family="Helvetica,sans-Serif" font-size="10.00">include/d/a/d_a_npc.h</text>
</a>
</g>
</g>
<!-- Node2&#45;&gt;Node3 -->
<g id="edge2" class="edge">
<title>Node2&#45;&gt;Node3</title>
<path fill="none" stroke="#63b8ff" d="M2162.56,-156.5C1825.8,-153.81 324.85,-140.08 119.5,-107 105.97,-104.82 91.31,-100.51 79.45,-96.49"/>
<polygon fill="#63b8ff" stroke="#63b8ff" points="2162.51,-160 2172.54,-156.57 2162.56,-153 2162.51,-160"/>
</g>
<!-- Node9 -->
<g id="node4" class="node">
<title>Node9</title>
<g id="a_node4"><a xlink:href="d__cc__uty_8h.html" target="_top" xlink:title=" ">
<polygon fill="#fff0f0" stroke="red" points="248,-96 129,-96 129,-77 248,-77 248,-96"/>
<text text-anchor="middle" x="188.5" y="-84" font-family="Helvetica,sans-Serif" font-size="10.00">include/d/cc/d_cc_uty.h</text>
</a>
</g>
</g>
<!-- Node2&#45;&gt;Node9 -->
<g id="edge3" class="edge">
<title>Node2&#45;&gt;Node9</title>
<path fill="none" stroke="#63b8ff" d="M2162.76,-157.38C1863.26,-158.77 641.28,-160.97 262.5,-107 246.98,-104.79 230.04,-100.47 216.3,-96.46"/>
<polygon fill="#63b8ff" stroke="#63b8ff" points="2162.77,-160.88 2172.76,-157.33 2162.74,-153.88 2162.77,-160.88"/>
</g>
<!-- Node15 -->
<g id="node5" class="node">
<title>Node15</title>
<g id="a_node5"><a xlink:href="d__item_8h.html" target="_top" xlink:title=" ">
<polygon fill="#fff0f0" stroke="red" points="852,-96 757,-96 757,-77 852,-77 852,-96"/>
<text text-anchor="middle" x="804.5" y="-84" font-family="Helvetica,sans-Serif" font-size="10.00">include/d/d_item.h</text>
</a>
</g>
</g>
<!-- Node2&#45;&gt;Node15 -->
<g id="edge4" class="edge">
<title>Node2&#45;&gt;Node15</title>
<path fill="none" stroke="#63b8ff" d="M2162.91,-156.91C1925.33,-156.24 1120.05,-150.71 866.5,-107 853.38,-104.74 839.18,-100.42 827.69,-96.42"/>
<polygon fill="#63b8ff" stroke="#63b8ff" points="2162.59,-160.41 2172.6,-156.94 2162.61,-153.41 2162.59,-160.41"/>
</g>
<!-- Node12 -->
<g id="node6" class="node">
<title>Node12</title>
<g id="a_node6"><a xlink:href="d__a__alink_8cpp.html" target="_top" xlink:title=" ">
<polygon fill="white" stroke="#666666" points="603,-24.5 494,-24.5 494,-5.5 603,-5.5 603,-24.5"/>
<text text-anchor="middle" x="548.5" y="-12.5" font-family="Helvetica,sans-Serif" font-size="10.00">src/d/a/d_a_alink.cpp</text>
</a>
</g>
</g>
<!-- Node2&#45;&gt;Node12 -->
<g id="edge30" class="edge">
<title>Node2&#45;&gt;Node12</title>
<path fill="none" stroke="#63b8ff" d="M2162.78,-156.29C1852.71,-152.82 566.3,-136.66 537.5,-107 515.77,-84.62 533.76,-43.17 543.39,-24.97"/>
<polygon fill="#63b8ff" stroke="#63b8ff" points="2162.7,-159.79 2172.74,-156.4 2162.78,-152.79 2162.7,-159.79"/>
</g>
<!-- Node16 -->
<g id="node7" class="node">
<title>Node16</title>
<g id="a_node7"><a xlink:href="d__a__obj__item_8cpp.html" target="_top" xlink:title=" ">
<polygon fill="white" stroke="#666666" points="879,-24.5 754,-24.5 754,-5.5 879,-5.5 879,-24.5"/>
<text text-anchor="middle" x="816.5" y="-12.5" font-family="Helvetica,sans-Serif" font-size="10.00">src/d/a/d_a_obj_item.cpp</text>
</a>
</g>
</g>
<!-- Node2&#45;&gt;Node16 -->
<g id="edge33" class="edge">
<title>Node2&#45;&gt;Node16</title>
<path fill="none" stroke="#63b8ff" d="M2162.76,-157.3C1880.66,-158.23 798.24,-158.45 748.5,-107 735.83,-93.9 740.27,-82.26 748.5,-66 758.29,-46.65 779.49,-32.96 795.63,-24.86"/>
<polygon fill="#63b8ff" stroke="#63b8ff" points="2162.53,-160.8 2172.51,-157.26 2162.5,-153.8 2162.53,-160.8"/>
</g>
<!-- Node17 -->
<g id="node8" class="node">
<title>Node17</title>
<g id="a_node8"><a xlink:href="d__com__inf__game_8cpp.html" target="_top" xlink:title=" ">
<polygon fill="white" stroke="#666666" points="1005.5,-30 897.5,-30 897.5,0 1005.5,0 1005.5,-30"/>
<text text-anchor="start" x="905.5" y="-18" font-family="Helvetica,sans-Serif" font-size="10.00">src/d/com/d_com_inf</text>
<text text-anchor="middle" x="951.5" y="-7" font-family="Helvetica,sans-Serif" font-size="10.00">_game.cpp</text>
</a>
</g>
</g>
<!-- Node2&#45;&gt;Node17 -->
<g id="edge39" class="edge">
<title>Node2&#45;&gt;Node17</title>
<path fill="none" stroke="#63b8ff" d="M2162.81,-157.03C1899.54,-156.81 944.67,-152.86 900.5,-107 887.86,-93.87 893.44,-82.8 900.5,-66 906.55,-51.6 919,-39.26 930.08,-30.44"/>
<polygon fill="#63b8ff" stroke="#63b8ff" points="2162.57,-160.53 2172.57,-157.03 2162.57,-153.53 2162.57,-160.53"/>
</g>
<!-- Node20 -->
<g id="node9" class="node">
<title>Node20</title>
<g id="a_node9"><a xlink:href="d__kantera__icon__meter_8h.html" target="_top" xlink:title=" ">
<polygon fill="#fff0f0" stroke="red" points="1010,-101.5 909,-101.5 909,-71.5 1010,-71.5 1010,-101.5"/>
<text text-anchor="start" x="917" y="-89.5" font-family="Helvetica,sans-Serif" font-size="10.00">include/d/d_kantera</text>
<text text-anchor="middle" x="959.5" y="-78.5" font-family="Helvetica,sans-Serif" font-size="10.00">_icon_meter.h</text>
</a>
</g>
</g>
<!-- Node2&#45;&gt;Node20 -->
<g id="edge8" class="edge">
<title>Node2&#45;&gt;Node20</title>
<path fill="none" stroke="#63b8ff" d="M2162.78,-156.63C1942.79,-155.05 1241.73,-146.93 1019.5,-107 1012.71,-105.78 1005.63,-103.98 998.81,-101.96"/>
<polygon fill="#63b8ff" stroke="#63b8ff" points="2162.58,-160.13 2172.61,-156.7 2162.63,-153.13 2162.58,-160.13"/>
</g>
<!-- Node23 -->
<g id="node10" class="node">
<title>Node23</title>
<g id="a_node10"><a xlink:href="d__model_8h.html" target="_top" xlink:title=" ">
<polygon fill="#fff0f0" stroke="red" points="1131,-96 1028,-96 1028,-77 1131,-77 1131,-96"/>
<text text-anchor="middle" x="1079.5" y="-84" font-family="Helvetica,sans-Serif" font-size="10.00">include/d/d_model.h</text>
</a>
</g>
</g>
<!-- Node2&#45;&gt;Node23 -->
<g id="edge9" class="edge">
<title>Node2&#45;&gt;Node23</title>
<path fill="none" stroke="#63b8ff" d="M2162.65,-156.23C1957.4,-153.52 1338.31,-142.51 1140.5,-107 1127.7,-104.7 1113.85,-100.43 1102.6,-96.47"/>
<polygon fill="#63b8ff" stroke="#63b8ff" points="2162.57,-159.73 2172.61,-156.36 2162.66,-152.73 2162.57,-159.73"/>
</g>
<!-- Node25 -->
<g id="node11" class="node">
<title>Node25</title>
<g id="a_node11"><a xlink:href="d__name_8h.html" target="_top" xlink:title=" ">
<polygon fill="#fff0f0" stroke="red" points="1250,-96 1149,-96 1149,-77 1250,-77 1250,-96"/>
<text text-anchor="middle" x="1199.5" y="-84" font-family="Helvetica,sans-Serif" font-size="10.00">include/d/d_name.h</text>
</a>
</g>
</g>
<!-- Node2&#45;&gt;Node25 -->
<g id="edge10" class="edge">
<title>Node2&#45;&gt;Node25</title>
<path fill="none" stroke="#63b8ff" d="M2162.61,-155.84C1972.79,-152.17 1433.28,-139.14 1259.5,-107 1246.9,-104.67 1233.28,-100.4 1222.21,-96.44"/>
<polygon fill="#63b8ff" stroke="#63b8ff" points="2162.49,-159.33 2172.55,-156.02 2162.62,-152.33 2162.49,-159.33"/>
</g>
<!-- Node27 -->
<g id="node12" class="node">
<title>Node27</title>
<g id="a_node12"><a xlink:href="d__file__sel__info_8h.html" target="_top" xlink:title=" ">
<polygon fill="#fff0f0" stroke="red" points="1364.5,-101.5 1268.5,-101.5 1268.5,-71.5 1364.5,-71.5 1364.5,-101.5"/>
<text text-anchor="start" x="1276.5" y="-89.5" font-family="Helvetica,sans-Serif" font-size="10.00">include/d/file/d_file</text>
<text text-anchor="middle" x="1316.5" y="-78.5" font-family="Helvetica,sans-Serif" font-size="10.00">_sel_info.h</text>
</a>
</g>
</g>
<!-- Node2&#45;&gt;Node27 -->
<g id="edge11" class="edge">
<title>Node2&#45;&gt;Node27</title>
<path fill="none" stroke="#63b8ff" d="M2162.75,-155.44C1988.73,-150.99 1524.31,-136.63 1373.5,-107 1367.14,-105.75 1360.51,-103.96 1354.13,-101.97"/>
<polygon fill="#63b8ff" stroke="#63b8ff" points="2162.43,-158.93 2172.51,-155.68 2162.61,-151.93 2162.43,-158.93"/>
</g>
<!-- Node30 -->
<g id="node13" class="node">
<title>Node30</title>
<g id="a_node13"><a xlink:href="d__file__sel__warning_8h.html" target="_top" xlink:title=" ">
<polygon fill="#fff0f0" stroke="red" points="1478.5,-101.5 1382.5,-101.5 1382.5,-71.5 1478.5,-71.5 1478.5,-101.5"/>
<text text-anchor="start" x="1390.5" y="-89.5" font-family="Helvetica,sans-Serif" font-size="10.00">include/d/file/d_file</text>
<text text-anchor="middle" x="1430.5" y="-78.5" font-family="Helvetica,sans-Serif" font-size="10.00">_sel_warning.h</text>
</a>
</g>
</g>
<!-- Node2&#45;&gt;Node30 -->
<g id="edge12" class="edge">
<title>Node2&#45;&gt;Node30</title>
<path fill="none" stroke="#63b8ff" d="M2162.75,-154.74C2005.56,-149.07 1615.7,-132.78 1487.5,-107 1481.14,-105.72 1474.52,-103.92 1468.14,-101.92"/>
<polygon fill="#63b8ff" stroke="#63b8ff" points="2162.47,-158.24 2172.59,-155.1 2162.72,-151.24 2162.47,-158.24"/>
</g>
<!-- Node32 -->
<g id="node14" class="node">
<title>Node32</title>
<g id="a_node14"><a xlink:href="d__meter2_8h.html" target="_top" xlink:title=" ">
<polygon fill="#fff0f0" stroke="red" points="1630.5,-96 1496.5,-96 1496.5,-77 1630.5,-77 1630.5,-96"/>
<text text-anchor="middle" x="1563.5" y="-84" font-family="Helvetica,sans-Serif" font-size="10.00">include/d/meter/d_meter2.h</text>
</a>
</g>
</g>
<!-- Node2&#45;&gt;Node32 -->
<g id="edge13" class="edge">
<title>Node2&#45;&gt;Node32</title>
<path fill="none" stroke="#63b8ff" d="M2163.13,-154.9C2053.6,-150.64 1828.42,-138.55 1640.5,-107 1625,-104.4 1608.03,-100.25 1593.98,-96.44"/>
<polygon fill="#63b8ff" stroke="#63b8ff" points="2162.68,-158.38 2172.8,-155.26 2162.94,-151.39 2162.68,-158.38"/>
</g>
<!-- Node40 -->
<g id="node15" class="node">
<title>Node40</title>
<g id="a_node15"><a xlink:href="d__msg__object_8h.html" target="_top" xlink:title=" ">
<polygon fill="#fff0f0" stroke="red" points="452.5,-101.5 342.5,-101.5 342.5,-71.5 452.5,-71.5 452.5,-101.5"/>
<text text-anchor="start" x="350.5" y="-89.5" font-family="Helvetica,sans-Serif" font-size="10.00">include/d/msg/d_msg</text>
<text text-anchor="middle" x="397.5" y="-78.5" font-family="Helvetica,sans-Serif" font-size="10.00">_object.h</text>
</a>
</g>
</g>
<!-- Node2&#45;&gt;Node40 -->
<g id="edge14" class="edge">
<title>Node2&#45;&gt;Node40</title>
<path fill="none" stroke="#63b8ff" d="M2162.89,-157.31C1883.2,-158.26 802.73,-158.47 466.5,-107 458.62,-105.79 450.37,-103.97 442.43,-101.92"/>
<polygon fill="#63b8ff" stroke="#63b8ff" points="2162.55,-160.81 2172.54,-157.27 2162.53,-153.81 2162.55,-160.81"/>
</g>
<!-- Node45 -->
<g id="node16" class="node">
<title>Node45</title>
<g id="a_node16"><a xlink:href="d__demo_8cpp.html" target="_top" xlink:title=" ">
<polygon fill="white" stroke="#666666" points="215.5,-24.5 121.5,-24.5 121.5,-5.5 215.5,-5.5 215.5,-24.5"/>
<text text-anchor="middle" x="168.5" y="-12.5" font-family="Helvetica,sans-Serif" font-size="10.00">src/d/d_demo.cpp</text>
</a>
</g>
</g>
<!-- Node2&#45;&gt;Node45 -->
<g id="edge44" class="edge">
<title>Node2&#45;&gt;Node45</title>
<path fill="none" stroke="#63b8ff" d="M2162.92,-156.58C1833.41,-154.31 389.52,-142.41 301.5,-107 276.4,-96.9 278.4,-81.89 256.5,-66 233.75,-49.49 205.06,-34.08 186.74,-24.85"/>
<polygon fill="#63b8ff" stroke="#63b8ff" points="2162.63,-160.07 2172.65,-156.64 2162.67,-153.07 2162.63,-160.07"/>
</g>
<!-- Node46 -->
<g id="node17" class="node">
<title>Node46</title>
<g id="a_node17"><a xlink:href="d__event_8cpp.html" target="_top" xlink:title=" ">
<polygon fill="white" stroke="#666666" points="355,-24.5 234,-24.5 234,-5.5 355,-5.5 355,-24.5"/>
<text text-anchor="middle" x="294.5" y="-12.5" font-family="Helvetica,sans-Serif" font-size="10.00">src/d/event/d_event.cpp</text>
</a>
</g>
</g>
<!-- Node2&#45;&gt;Node46 -->
<g id="edge53" class="edge">
<title>Node2&#45;&gt;Node46</title>
<path fill="none" stroke="#63b8ff" d="M2163.12,-157.25C1836.29,-158.2 410.67,-159.36 333.5,-107 305.34,-87.89 297.41,-43.91 295.26,-24.95"/>
<polygon fill="#63b8ff" stroke="#63b8ff" points="2162.78,-160.75 2172.77,-157.22 2162.75,-153.75 2162.78,-160.75"/>
</g>
<!-- Node47 -->
<g id="node18" class="node">
<title>Node47</title>
<g id="a_node18"><a xlink:href="d__event__data_8cpp.html" target="_top" xlink:title=" ">
<polygon fill="white" stroke="#666666" points="476,-30 373,-30 373,0 476,0 476,-30"/>
<text text-anchor="start" x="381" y="-18" font-family="Helvetica,sans-Serif" font-size="10.00">src/d/event/d_event</text>
<text text-anchor="middle" x="424.5" y="-7" font-family="Helvetica,sans-Serif" font-size="10.00">_data.cpp</text>
</a>
</g>
</g>
<!-- Node2&#45;&gt;Node47 -->
<g id="edge54" class="edge">
<title>Node2&#45;&gt;Node47</title>
<path fill="none" stroke="#63b8ff" d="M2162.83,-156.35C1857.08,-153.19 600.6,-138.36 523.5,-107 484.14,-90.99 450.71,-51.75 434.67,-30.4"/>
<polygon fill="#63b8ff" stroke="#63b8ff" points="2162.6,-159.85 2172.63,-156.45 2162.67,-152.85 2162.6,-159.85"/>
</g>
<!-- Node54 -->
<g id="node19" class="node">
<title>Node54</title>
<g id="a_node19"><a xlink:href="d__s__logo_8h.html" target="_top" xlink:title=" ">
<polygon fill="#fff0f0" stroke="red" points="1762,-96 1649,-96 1649,-77 1762,-77 1762,-96"/>
<text text-anchor="middle" x="1705.5" y="-84" font-family="Helvetica,sans-Serif" font-size="10.00">include/d/s/d_s_logo.h</text>
</a>
</g>
</g>
<!-- Node2&#45;&gt;Node54 -->
<g id="edge19" class="edge">
<title>Node2&#45;&gt;Node54</title>
<path fill="none" stroke="#63b8ff" d="M2162.66,-153.45C2072.96,-147.84 1908.99,-134.59 1771.5,-107 1758.26,-104.34 1743.85,-100.23 1731.88,-96.47"/>
<polygon fill="#63b8ff" stroke="#63b8ff" points="2162.32,-156.94 2172.51,-154.05 2162.74,-149.95 2162.32,-156.94"/>
</g>
<!-- Node56 -->
<g id="node20" class="node">
<title>Node56</title>
<g id="a_node20"><a xlink:href="d__s__play_8h.html" target="_top" xlink:title=" ">
<polygon fill="#fff0f0" stroke="red" points="1893,-96 1780,-96 1780,-77 1893,-77 1893,-96"/>
<text text-anchor="middle" x="1836.5" y="-84" font-family="Helvetica,sans-Serif" font-size="10.00">include/d/s/d_s_play.h</text>
</a>
</g>
</g>
<!-- Node2&#45;&gt;Node56 -->
<g id="edge20" class="edge">
<title>Node2&#45;&gt;Node56</title>
<path fill="none" stroke="#63b8ff" d="M2162.98,-149.51C2096.56,-141.41 1991.78,-126.92 1902.5,-107 1889.56,-104.11 1875.43,-100.06 1863.58,-96.4"/>
<polygon fill="#63b8ff" stroke="#63b8ff" points="2162.26,-152.95 2172.61,-150.67 2163.1,-146 2162.26,-152.95"/>
</g>
<!-- Node60 -->
<g id="node21" class="node">
<title>Node60</title>
<g id="a_node21"><a xlink:href="d__msg__scrn__base_8h.html" target="_top" xlink:title=" ">
<polygon fill="#fff0f0" stroke="red" points="2010,-101.5 1911,-101.5 1911,-71.5 2010,-71.5 2010,-101.5"/>
<text text-anchor="start" x="1919" y="-89.5" font-family="Helvetica,sans-Serif" font-size="10.00">include/msg/scrn/d</text>
<text text-anchor="middle" x="1960.5" y="-78.5" font-family="Helvetica,sans-Serif" font-size="10.00">_msg_scrn_base.h</text>
</a>
</g>
</g>
<!-- Node2&#45;&gt;Node60 -->
<g id="edge21" class="edge">
<title>Node2&#45;&gt;Node60</title>
<path fill="none" stroke="#63b8ff" d="M2163.26,-142.75C2121.74,-133.45 2067.22,-120.54 2019.5,-107 2014.1,-105.47 2008.46,-103.75 2002.91,-102"/>
<polygon fill="#63b8ff" stroke="#63b8ff" points="2162.34,-146.13 2172.86,-144.89 2163.86,-139.3 2162.34,-146.13"/>
</g>
<!-- Node64 -->
<g id="node22" class="node">
<title>Node64</title>
<g id="a_node22"><a xlink:href="d__a__b__zant_8h.html" target="_top" xlink:title=" ">
<polygon fill="white" stroke="#666666" points="2149,-101.5 2028,-101.5 2028,-71.5 2149,-71.5 2149,-101.5"/>
<text text-anchor="start" x="2036" y="-89.5" font-family="Helvetica,sans-Serif" font-size="10.00">include/rel/d/a/b/d</text>
<text text-anchor="middle" x="2088.5" y="-78.5" font-family="Helvetica,sans-Serif" font-size="10.00">_a_b_zant/d_a_b_zant.h</text>
</a>
</g>
</g>
<!-- Node2&#45;&gt;Node64 -->
<g id="edge22" class="edge">
<title>Node2&#45;&gt;Node64</title>
<path fill="none" stroke="#63b8ff" d="M2190.16,-137.61C2167.17,-126.28 2138.65,-112.22 2117.68,-101.88"/>
<polygon fill="#63b8ff" stroke="#63b8ff" points="2188.41,-140.65 2198.93,-141.93 2191.5,-134.37 2188.41,-140.65"/>
</g>
<!-- Node65 -->
<g id="node23" class="node">
<title>Node65</title>
<g id="a_node23"><a xlink:href="d__a__skip__2D_8h.html" target="_top" xlink:title=" ">
<polygon fill="white" stroke="#666666" points="2291.5,-101.5 2167.5,-101.5 2167.5,-71.5 2291.5,-71.5 2291.5,-101.5"/>
<text text-anchor="start" x="2175.5" y="-89.5" font-family="Helvetica,sans-Serif" font-size="10.00">include/rel/d/a/d_a</text>
<text text-anchor="middle" x="2229.5" y="-78.5" font-family="Helvetica,sans-Serif" font-size="10.00">_skip_2D/d_a_skip_2D.h</text>
</a>
</g>
</g>
<!-- Node2&#45;&gt;Node65 -->
<g id="edge23" class="edge">
<title>Node2&#45;&gt;Node65</title>
<path fill="none" stroke="#63b8ff" d="M2229.5,-131.26C2229.5,-121.33 2229.5,-110.36 2229.5,-101.88"/>
<polygon fill="#63b8ff" stroke="#63b8ff" points="2226,-131.09 2229.5,-141.09 2233,-131.09 2226,-131.09"/>
</g>
<!-- Node66 -->
<g id="node24" class="node">
<title>Node66</title>
<g id="a_node24"><a xlink:href="d__a__spinner_8h.html" target="_top" xlink:title=" ">
<polygon fill="white" stroke="#666666" points="662.5,-101.5 546.5,-101.5 546.5,-71.5 662.5,-71.5 662.5,-101.5"/>
<text text-anchor="start" x="554.5" y="-89.5" font-family="Helvetica,sans-Serif" font-size="10.00">include/rel/d/a/d_a</text>
<text text-anchor="middle" x="604.5" y="-78.5" font-family="Helvetica,sans-Serif" font-size="10.00">_spinner/d_a_spinner.h</text>
</a>
</g>
</g>
<!-- Node2&#45;&gt;Node66 -->
<g id="edge24" class="edge">
<title>Node2&#45;&gt;Node66</title>
<path fill="none" stroke="#63b8ff" d="M2162.96,-156.91C1904.87,-156.25 969.8,-150.83 676.5,-107 668.43,-105.79 659.97,-104 651.81,-101.98"/>
<polygon fill="#63b8ff" stroke="#63b8ff" points="2162.85,-160.41 2172.86,-156.94 2162.87,-153.41 2162.85,-160.41"/>
</g>
<!-- Node67 -->
<g id="node25" class="node">
<title>Node67</title>
<g id="a_node25"><a xlink:href="d__a__player_8cpp.html" target="_top" xlink:title=" ">
<polygon fill="white" stroke="#666666" points="735.5,-24.5 621.5,-24.5 621.5,-5.5 735.5,-5.5 735.5,-24.5"/>
<text text-anchor="middle" x="678.5" y="-12.5" font-family="Helvetica,sans-Serif" font-size="10.00">src/d/a/d_a_player.cpp</text>
</a>
</g>
</g>
<!-- Node2&#45;&gt;Node67 -->
<g id="edge34" class="edge">
<title>Node2&#45;&gt;Node67</title>
<path fill="none" stroke="#63b8ff" d="M2162.86,-156.49C1881.11,-154.13 799.16,-142.75 736.5,-107 704.12,-88.53 687.03,-43.79 681.03,-24.78"/>
<polygon fill="#63b8ff" stroke="#63b8ff" points="2162.57,-159.99 2172.6,-156.57 2162.63,-152.99 2162.57,-159.99"/>
</g>
<!-- Node68 -->
<g id="node26" class="node">
<title>Node68</title>
<g id="a_node26"><a xlink:href="d__a__obj__yobikusa_8h.html" target="_top" xlink:title=" ">
<polygon fill="white" stroke="#666666" points="2415,-107 2310,-107 2310,-66 2415,-66 2415,-107"/>
<text text-anchor="start" x="2318" y="-95" font-family="Helvetica,sans-Serif" font-size="10.00">include/rel/d/a/obj</text>
<text text-anchor="start" x="2318" y="-84" font-family="Helvetica,sans-Serif" font-size="10.00">/d_a_obj_yobikusa/d</text>
<text text-anchor="middle" x="2362.5" y="-73" font-family="Helvetica,sans-Serif" font-size="10.00">_a_obj_yobikusa.h</text>
</a>
</g>
</g>
<!-- Node2&#45;&gt;Node68 -->
<g id="edge27" class="edge">
<title>Node2&#45;&gt;Node68</title>
<path fill="none" stroke="#63b8ff" d="M2267.15,-137.33C2285.05,-127.97 2306.42,-116.8 2324.39,-107.42"/>
<polygon fill="#63b8ff" stroke="#63b8ff" points="2265.64,-134.17 2258.4,-141.9 2268.88,-140.37 2265.64,-134.17"/>
</g>
<!-- Node69 -->
<g id="node27" class="node">
<title>Node69</title>
<g id="a_node27"><a xlink:href="d__a__tag__telop_8h.html" target="_top" xlink:title=" ">
<polygon fill="white" stroke="#666666" points="2551.5,-107 2433.5,-107 2433.5,-66 2551.5,-66 2551.5,-107"/>
<text text-anchor="start" x="2441.5" y="-95" font-family="Helvetica,sans-Serif" font-size="10.00">include/rel/d/a/tag</text>
<text text-anchor="start" x="2441.5" y="-84" font-family="Helvetica,sans-Serif" font-size="10.00">/d_a_tag_telop/d_a_tag</text>
<text text-anchor="middle" x="2492.5" y="-73" font-family="Helvetica,sans-Serif" font-size="10.00">_telop.h</text>
</a>
</g>
</g>
<!-- Node2&#45;&gt;Node69 -->
<g id="edge28" class="edge">
<title>Node2&#45;&gt;Node69</title>
<path fill="none" stroke="#63b8ff" d="M2295.54,-140.56C2333.36,-131.02 2381.68,-118.63 2424.5,-107 2427.34,-106.23 2430.25,-105.43 2433.19,-104.61"/>
<polygon fill="#63b8ff" stroke="#63b8ff" points="2294.97,-137.09 2286.13,-142.93 2296.68,-143.88 2294.97,-137.09"/>
</g>
<!-- Node70 -->
<g id="node28" class="node">
<title>Node70</title>
<g id="a_node28"><a xlink:href="c__dylink_8cpp.html" target="_top" xlink:title=" ">
<polygon fill="white" stroke="#666666" points="2665,-96 2570,-96 2570,-77 2665,-77 2665,-96"/>
<text text-anchor="middle" x="2617.5" y="-84" font-family="Helvetica,sans-Serif" font-size="10.00">src/c/c_dylink.cpp</text>
</a>
</g>
</g>
<!-- Node2&#45;&gt;Node70 -->
<g id="edge29" class="edge">
<title>Node2&#45;&gt;Node70</title>
<path fill="none" stroke="#63b8ff" d="M2296.18,-142.64C2413.47,-122.9 2447.49,-133.68 2560.5,-107 2572,-104.28 2584.46,-100.17 2594.78,-96.41"/>
<polygon fill="#63b8ff" stroke="#63b8ff" points="2295.7,-139.17 2286.44,-144.32 2296.89,-146.07 2295.7,-139.17"/>
</g>
<!-- Node71 -->
<g id="node29" class="node">
<title>Node71</title>
<g id="a_node29"><a xlink:href="d__a__itembase_8cpp.html" target="_top" xlink:title=" ">
<polygon fill="white" stroke="#666666" points="2811.5,-96 2683.5,-96 2683.5,-77 2811.5,-77 2811.5,-96"/>
<text text-anchor="middle" x="2747.5" y="-84" font-family="Helvetica,sans-Serif" font-size="10.00">src/d/a/d_a_itembase.cpp</text>
</a>
</g>
</g>
<!-- Node2&#45;&gt;Node71 -->
<g id="edge31" class="edge">
<title>Node2&#45;&gt;Node71</title>
<path fill="none" stroke="#63b8ff" d="M2296.13,-142.73C2463.57,-117.63 2510.69,-136.41 2674.5,-107 2689.22,-104.36 2705.31,-100.2 2718.62,-96.4"/>
<polygon fill="#63b8ff" stroke="#63b8ff" points="2295.78,-139.24 2286.42,-144.22 2296.84,-146.16 2295.78,-139.24"/>
</g>
<!-- Node72 -->
<g id="node30" class="node">
<title>Node72</title>
<g id="a_node30"><a xlink:href="d__a__obj_8cpp.html" target="_top" xlink:title=" ">
<polygon fill="white" stroke="#666666" points="2931,-96 2830,-96 2830,-77 2931,-77 2931,-96"/>
<text text-anchor="middle" x="2880.5" y="-84" font-family="Helvetica,sans-Serif" font-size="10.00">src/d/a/d_a_obj.cpp</text>
</a>
</g>
</g>
<!-- Node2&#45;&gt;Node72 -->
<g id="edge32" class="edge">
<title>Node2&#45;&gt;Node72</title>
<path fill="none" stroke="#63b8ff" d="M2296.08,-142.79C2527.96,-111.11 2593.61,-150.92 2820.5,-107 2832.97,-104.59 2846.46,-100.36 2857.49,-96.45"/>
<polygon fill="#63b8ff" stroke="#63b8ff" points="2295.83,-139.29 2286.41,-144.15 2296.8,-146.23 2295.83,-139.29"/>
</g>
<!-- Node73 -->
<g id="node31" class="node">
<title>Node73</title>
<g id="a_node31"><a xlink:href="d__bg__s_8cpp.html" target="_top" xlink:title=" ">
<polygon fill="white" stroke="#666666" points="3053.5,-96 2949.5,-96 2949.5,-77 3053.5,-77 3053.5,-96"/>
<text text-anchor="middle" x="3001.5" y="-84" font-family="Helvetica,sans-Serif" font-size="10.00">src/d/bg/d_bg_s.cpp</text>
</a>
</g>
</g>
<!-- Node2&#45;&gt;Node73 -->
<g id="edge35" class="edge">
<title>Node2&#45;&gt;Node73</title>
<path fill="none" stroke="#63b8ff" d="M2296,-142.83C2580.89,-105.49 2660.88,-158.6 2940.5,-107 2953.29,-104.64 2967.13,-100.36 2978.39,-96.42"/>
<polygon fill="#63b8ff" stroke="#63b8ff" points="2295.85,-139.31 2286.41,-144.11 2296.78,-146.25 2295.85,-139.31"/>
</g>
<!-- Node74 -->
<g id="node32" class="node">
<title>Node74</title>
<g id="a_node32"><a xlink:href="d__bg__s__movebg__actor_8cpp.html" target="_top" xlink:title=" ">
<polygon fill="white" stroke="#666666" points="3197.5,-101.5 3071.5,-101.5 3071.5,-71.5 3197.5,-71.5 3197.5,-101.5"/>
<text text-anchor="start" x="3079.5" y="-89.5" font-family="Helvetica,sans-Serif" font-size="10.00">src/d/bg/d_bg_s_movebg</text>
<text text-anchor="middle" x="3134.5" y="-78.5" font-family="Helvetica,sans-Serif" font-size="10.00">_actor.cpp</text>
</a>
</g>
</g>
<!-- Node2&#45;&gt;Node74 -->
<g id="edge36" class="edge">
<title>Node2&#45;&gt;Node74</title>
<path fill="none" stroke="#63b8ff" d="M2296.27,-142.8C2634.76,-99.63 2728.2,-159.45 3062.5,-107 3070.43,-105.76 3078.75,-103.97 3086.79,-101.98"/>
<polygon fill="#63b8ff" stroke="#63b8ff" points="2295.87,-139.33 2286.4,-144.09 2296.77,-146.27 2295.87,-139.33"/>
</g>
<!-- Node75 -->
<g id="node33" class="node">
<title>Node75</title>
<g id="a_node33"><a xlink:href="d__bg__w_8cpp.html" target="_top" xlink:title=" ">
<polygon fill="white" stroke="#666666" points="3323,-96 3216,-96 3216,-77 3323,-77 3323,-96"/>
<text text-anchor="middle" x="3269.5" y="-84" font-family="Helvetica,sans-Serif" font-size="10.00">src/d/bg/d_bg_w.cpp</text>
</a>
</g>
</g>
<!-- Node2&#45;&gt;Node75 -->
<g id="edge37" class="edge">
<title>Node2&#45;&gt;Node75</title>
<path fill="none" stroke="#63b8ff" d="M2296.27,-142.82C2698.37,-92.96 2809.96,-174.98 3206.5,-107 3219.82,-104.72 3234.24,-100.4 3245.92,-96.4"/>
<polygon fill="#63b8ff" stroke="#63b8ff" points="2295.88,-139.34 2286.4,-144.07 2296.76,-146.29 2295.88,-139.34"/>
</g>
<!-- Node76 -->
<g id="node34" class="node">
<title>Node76</title>
<g id="a_node34"><a xlink:href="d__cc__s_8cpp.html" target="_top" xlink:title=" ">
<polygon fill="white" stroke="#666666" points="3445.5,-96 3341.5,-96 3341.5,-77 3445.5,-77 3445.5,-96"/>
<text text-anchor="middle" x="3393.5" y="-84" font-family="Helvetica,sans-Serif" font-size="10.00">src/d/cc/d_cc_s.cpp</text>
</a>
</g>
</g>
<!-- Node2&#45;&gt;Node76 -->
<g id="edge38" class="edge">
<title>Node2&#45;&gt;Node76</title>
<path fill="none" stroke="#63b8ff" d="M2296.12,-142.85C2753.99,-87.01 2880.93,-185.45 3332.5,-107 3345.43,-104.75 3359.4,-100.44 3370.7,-96.43"/>
<polygon fill="#63b8ff" stroke="#63b8ff" points="2295.89,-139.35 2286.4,-144.05 2296.75,-146.3 2295.89,-139.35"/>
</g>
<!-- Node77 -->
<g id="node35" class="node">
<title>Node77</title>
<g id="a_node35"><a xlink:href="d__com__static_8cpp.html" target="_top" xlink:title=" ">
<polygon fill="white" stroke="#666666" points="3603.5,-96 3463.5,-96 3463.5,-77 3603.5,-77 3603.5,-96"/>
<text text-anchor="middle" x="3533.5" y="-84" font-family="Helvetica,sans-Serif" font-size="10.00">src/d/com/d_com_static.cpp</text>
</a>
</g>
</g>
<!-- Node2&#45;&gt;Node77 -->
<g id="edge40" class="edge">
<title>Node2&#45;&gt;Node77</title>
<path fill="none" stroke="#63b8ff" d="M2296.28,-142.83C2807.87,-80.99 2946.8,-176.73 3454.5,-107 3471.01,-104.73 3489.09,-100.41 3503.78,-96.41"/>
<polygon fill="#63b8ff" stroke="#63b8ff" points="2295.9,-139.35 2286.4,-144.04 2296.75,-146.3 2295.9,-139.35"/>
</g>
<!-- Node78 -->
<g id="node36" class="node">
<title>Node78</title>
<g id="a_node36"><a xlink:href="d__attention_8cpp.html" target="_top" xlink:title=" ">
<polygon fill="white" stroke="#666666" points="3729,-96 3622,-96 3622,-77 3729,-77 3729,-96"/>
<text text-anchor="middle" x="3675.5" y="-84" font-family="Helvetica,sans-Serif" font-size="10.00">src/d/d_attention.cpp</text>
</a>
</g>
</g>
<!-- Node2&#45;&gt;Node78 -->
<g id="edge41" class="edge">
<title>Node2&#45;&gt;Node78</title>
<path fill="none" stroke="#63b8ff" d="M2296.06,-142.91C2602.53,-108.65 3326.73,-154.21 3612.5,-107 3625.83,-104.8 3640.26,-100.48 3651.94,-96.47"/>
<polygon fill="#63b8ff" stroke="#63b8ff" points="2295.92,-139.4 2286.4,-144.04 2296.74,-146.35 2295.92,-139.4"/>
</g>
<!-- Node79 -->
<g id="node37" class="node">
<title>Node79</title>
<g id="a_node37"><a xlink:href="d__cam__param_8cpp.html" target="_top" xlink:title=" ">
<polygon fill="white" stroke="#666666" points="3868,-96 3747,-96 3747,-77 3868,-77 3868,-96"/>
<text text-anchor="middle" x="3807.5" y="-84" font-family="Helvetica,sans-Serif" font-size="10.00">src/d/d_cam_param.cpp</text>
</a>
</g>
</g>
<!-- Node2&#45;&gt;Node79 -->
<g id="edge42" class="edge">
<title>Node2&#45;&gt;Node79</title>
<path fill="none" stroke="#63b8ff" d="M2296.21,-142.85C2933.32,-67.61 3107.03,-202.55 3738.5,-107 3753.02,-104.8 3768.82,-100.49 3781.63,-96.47"/>
<polygon fill="#63b8ff" stroke="#63b8ff" points="2295.91,-139.36 2286.4,-144.03 2296.74,-146.32 2295.91,-139.36"/>
</g>
<!-- Node80 -->
<g id="node38" class="node">
<title>Node80</title>
<g id="a_node38"><a xlink:href="d__camera_8cpp.html" target="_top" xlink:title=" ">
<polygon fill="white" stroke="#666666" points="3988.5,-96 3886.5,-96 3886.5,-77 3988.5,-77 3988.5,-96"/>
<text text-anchor="middle" x="3937.5" y="-84" font-family="Helvetica,sans-Serif" font-size="10.00">src/d/d_camera.cpp</text>
</a>
</g>
</g>
<!-- Node2&#45;&gt;Node80 -->
<g id="edge43" class="edge">
<title>Node2&#45;&gt;Node80</title>
<path fill="none" stroke="#63b8ff" d="M2296.08,-142.91C2661.24,-102.5 3533.95,-165.43 3877.5,-107 3890.35,-104.81 3904.22,-100.45 3915.38,-96.4"/>
<polygon fill="#63b8ff" stroke="#63b8ff" points="2295.93,-139.4 2286.4,-144.03 2296.73,-146.36 2295.93,-139.4"/>
</g>
<!-- Node81 -->
<g id="node39" class="node">
<title>Node81</title>
<g id="a_node39"><a xlink:href="d__eye__hl_8cpp.html" target="_top" xlink:title=" ">
<polygon fill="white" stroke="#666666" points="4104.5,-96 4006.5,-96 4006.5,-77 4104.5,-77 4104.5,-96"/>
<text text-anchor="middle" x="4055.5" y="-84" font-family="Helvetica,sans-Serif" font-size="10.00">src/d/d_eye_hl.cpp</text>
</a>
</g>
</g>
<!-- Node2&#45;&gt;Node81 -->
<g id="edge45" class="edge">
<title>Node2&#45;&gt;Node81</title>
<path fill="none" stroke="#63b8ff" d="M2296.32,-142.88C2688.2,-99.75 3628.03,-171.46 3997.5,-107 4009.95,-104.83 4023.36,-100.46 4034.15,-96.41"/>
<polygon fill="#63b8ff" stroke="#63b8ff" points="2295.93,-139.41 2286.39,-144.02 2296.73,-146.36 2295.93,-139.41"/>
</g>
<!-- Node82 -->
<g id="node40" class="node">
<title>Node82</title>
<g id="a_node40"><a xlink:href="d__kyeff_8cpp.html" target="_top" xlink:title=" ">
<polygon fill="white" stroke="#666666" points="4212.5,-96 4122.5,-96 4122.5,-77 4212.5,-77 4212.5,-96"/>
<text text-anchor="middle" x="4167.5" y="-84" font-family="Helvetica,sans-Serif" font-size="10.00">src/d/d_kyeff.cpp</text>
</a>
</g>
</g>
<!-- Node2&#45;&gt;Node82 -->
<g id="edge46" class="edge">
<title>Node2&#45;&gt;Node82</title>
<path fill="none" stroke="#63b8ff" d="M2296.16,-142.9C2713.62,-97.08 3719.34,-180.01 4113.5,-107 4125.16,-104.84 4137.65,-100.47 4147.68,-96.42"/>
<polygon fill="#63b8ff" stroke="#63b8ff" points="2295.93,-139.41 2286.39,-144.02 2296.73,-146.36 2295.93,-139.41"/>
</g>
<!-- Node83 -->
<g id="node41" class="node">
<title>Node83</title>
<g id="a_node41"><a xlink:href="d__path_8cpp.html" target="_top" xlink:title=" ">
<polygon fill="white" stroke="#666666" points="4320,-96 4231,-96 4231,-77 4320,-77 4320,-96"/>
<text text-anchor="middle" x="4275.5" y="-84" font-family="Helvetica,sans-Serif" font-size="10.00">src/d/d_path.cpp</text>
</a>
</g>
</g>
<!-- Node2&#45;&gt;Node83 -->
<g id="edge47" class="edge">
<title>Node2&#45;&gt;Node83</title>
<path fill="none" stroke="#63b8ff" d="M2296.16,-142.9C2737.52,-94.53 3803.71,-184.15 4221.5,-107 4233.16,-104.85 4245.65,-100.48 4255.68,-96.43"/>
<polygon fill="#63b8ff" stroke="#63b8ff" points="2295.93,-139.41 2286.39,-144.01 2296.73,-146.36 2295.93,-139.41"/>
</g>
<!-- Node84 -->
<g id="node42" class="node">
<title>Node84</title>
<g id="a_node42"><a xlink:href="d__resorce_8cpp.html" target="_top" xlink:title=" ">
<polygon fill="white" stroke="#666666" points="4440.5,-96 4338.5,-96 4338.5,-77 4440.5,-77 4440.5,-96"/>
<text text-anchor="middle" x="4389.5" y="-84" font-family="Helvetica,sans-Serif" font-size="10.00">src/d/d_resorce.cpp</text>
</a>
</g>
</g>
<!-- Node2&#45;&gt;Node84 -->
<g id="edge48" class="edge">
<title>Node2&#45;&gt;Node84</title>
<path fill="none" stroke="#63b8ff" d="M2296.09,-142.91C2761.28,-91.85 3886.8,-181.15 4329.5,-107 4342.35,-104.85 4356.22,-100.48 4367.39,-96.43"/>
<polygon fill="#63b8ff" stroke="#63b8ff" points="2295.93,-139.41 2286.39,-144.01 2296.72,-146.36 2295.93,-139.41"/>
</g>
<!-- Node85 -->
<g id="node43" class="node">
<title>Node85</title>
<g id="a_node43"><a xlink:href="d__simple__model_8cpp.html" target="_top" xlink:title=" ">
<polygon fill="white" stroke="#666666" points="4588.5,-96 4458.5,-96 4458.5,-77 4588.5,-77 4588.5,-96"/>
<text text-anchor="middle" x="4523.5" y="-84" font-family="Helvetica,sans-Serif" font-size="10.00">src/d/d_simple_model.cpp</text>
</a>
</g>
</g>
<!-- Node2&#45;&gt;Node85 -->
<g id="edge49" class="edge">
<title>Node2&#45;&gt;Node85</title>
<path fill="none" stroke="#63b8ff" d="M2296.01,-142.92C2787.66,-88.81 3978.42,-172.03 4449.5,-107 4465.16,-104.84 4482.25,-100.47 4496.06,-96.42"/>
<polygon fill="#63b8ff" stroke="#63b8ff" points="2295.93,-139.4 2286.39,-144.01 2296.72,-146.36 2295.93,-139.4"/>
</g>
<!-- Node86 -->
<g id="node44" class="node">
<title>Node86</title>
<g id="a_node44"><a xlink:href="d__stage_8cpp.html" target="_top" xlink:title=" ">
<polygon fill="white" stroke="#666666" points="4700.5,-96 4606.5,-96 4606.5,-77 4700.5,-77 4700.5,-96"/>
<text text-anchor="middle" x="4653.5" y="-84" font-family="Helvetica,sans-Serif" font-size="10.00">src/d/d_stage.cpp</text>
</a>
</g>
</g>
<!-- Node2&#45;&gt;Node86 -->
<g id="edge50" class="edge">
<title>Node2&#45;&gt;Node86</title>
<path fill="none" stroke="#63b8ff" d="M2296.08,-143C2594.95,-114.49 4348.72,-151.08 4597.5,-107 4609.56,-104.86 4622.51,-100.5 4632.92,-96.44"/>
<polygon fill="#63b8ff" stroke="#63b8ff" points="2295.97,-139.49 2286.39,-144.02 2296.71,-146.45 2295.97,-139.49"/>
</g>
<!-- Node87 -->
<g id="node45" class="node">
<title>Node87</title>
<g id="a_node45"><a xlink:href="d__timer_8cpp.html" target="_top" xlink:title=" ">
<polygon fill="white" stroke="#666666" points="4810.5,-96 4718.5,-96 4718.5,-77 4810.5,-77 4810.5,-96"/>
<text text-anchor="middle" x="4764.5" y="-84" font-family="Helvetica,sans-Serif" font-size="10.00">src/d/d_timer.cpp</text>
</a>
</g>
</g>
<!-- Node2&#45;&gt;Node87 -->
<g id="edge51" class="edge">
<title>Node2&#45;&gt;Node87</title>
<path fill="none" stroke="#63b8ff" d="M2296.15,-142.99C2607.8,-113.22 4448.61,-153.88 4709.5,-107 4721.37,-104.87 4734.08,-100.5 4744.3,-96.44"/>
<polygon fill="#63b8ff" stroke="#63b8ff" points="2295.97,-139.49 2286.39,-144.01 2296.7,-146.45 2295.97,-139.49"/>
</g>
<!-- Node88 -->
<g id="node46" class="node">
<title>Node88</title>
<g id="a_node46"><a xlink:href="d__tresure_8cpp.html" target="_top" xlink:title=" ">
<polygon fill="white" stroke="#666666" points="4928.5,-96 4828.5,-96 4828.5,-77 4928.5,-77 4928.5,-96"/>
<text text-anchor="middle" x="4878.5" y="-84" font-family="Helvetica,sans-Serif" font-size="10.00">src/d/d_tresure.cpp</text>
</a>
</g>
</g>
<!-- Node2&#45;&gt;Node88 -->
<g id="edge52" class="edge">
<title>Node2&#45;&gt;Node88</title>
<path fill="none" stroke="#63b8ff" d="M2296.16,-142.98C2620.2,-111.88 4546.08,-153.01 4819.5,-107 4832.16,-104.87 4845.8,-100.51 4856.77,-96.45"/>
<polygon fill="#63b8ff" stroke="#63b8ff" points="2295.97,-139.48 2286.39,-144.01 2296.7,-146.45 2295.97,-139.48"/>
</g>
<!-- Node89 -->
<g id="node47" class="node">
<title>Node89</title>
<g id="a_node47"><a xlink:href="d__event__lib_8cpp.html" target="_top" xlink:title=" ">
<polygon fill="white" stroke="#666666" points="5050,-101.5 4947,-101.5 4947,-71.5 5050,-71.5 5050,-101.5"/>
<text text-anchor="start" x="4955" y="-89.5" font-family="Helvetica,sans-Serif" font-size="10.00">src/d/event/d_event</text>
<text text-anchor="middle" x="4998.5" y="-78.5" font-family="Helvetica,sans-Serif" font-size="10.00">_lib.cpp</text>
</a>
</g>
</g>
<!-- Node2&#45;&gt;Node89 -->
<g id="edge55" class="edge">
<title>Node2&#45;&gt;Node89</title>
<path fill="none" stroke="#63b8ff" d="M2296.17,-142.98C2633.47,-110.47 4650.92,-153.69 4937.5,-107 4944.63,-105.84 4952.08,-104.01 4959.21,-101.93"/>
<polygon fill="#63b8ff" stroke="#63b8ff" points="2295.97,-139.48 2286.39,-144.01 2296.7,-146.44 2295.97,-139.48"/>
</g>
<!-- Node15&#45;&gt;Node12 -->
<g id="edge5" class="edge">
<title>Node15&#45;&gt;Node12</title>
<path fill="none" stroke="#63b8ff" d="M760.58,-73.58C709.68,-59.76 626.95,-37.3 581.32,-24.91"/>
<polygon fill="#63b8ff" stroke="#63b8ff" points="759.53,-76.92 770.1,-76.16 761.36,-70.16 759.53,-76.92"/>
</g>
<!-- Node15&#45;&gt;Node16 -->
<g id="edge6" class="edge">
<title>Node15&#45;&gt;Node16</title>
<path fill="none" stroke="#63b8ff" d="M807.92,-65.71C810.23,-52.29 813.19,-35.2 814.95,-24.95"/>
<polygon fill="#63b8ff" stroke="#63b8ff" points="804.53,-64.76 806.28,-75.21 811.43,-65.95 804.53,-64.76"/>
</g>
<!-- Node15&#45;&gt;Node17 -->
<g id="edge7" class="edge">
<title>Node15&#45;&gt;Node17</title>
<path fill="none" stroke="#63b8ff" d="M833.82,-71.64C859.04,-59.71 895.3,-42.57 920.89,-30.47"/>
<polygon fill="#63b8ff" stroke="#63b8ff" points="832.33,-68.47 824.79,-75.91 835.32,-74.8 832.33,-68.47"/>
</g>
<!-- Node40&#45;&gt;Node12 -->
<g id="edge15" class="edge">
<title>Node40&#45;&gt;Node12</title>
<path fill="none" stroke="#63b8ff" d="M439.19,-66.31C468.6,-52.78 506.63,-35.27 529.21,-24.88"/>
<polygon fill="#63b8ff" stroke="#63b8ff" points="437.78,-63.11 430.16,-70.47 440.71,-69.47 437.78,-63.11"/>
</g>
<!-- Node40&#45;&gt;Node45 -->
<g id="edge16" class="edge">
<title>Node40&#45;&gt;Node45</title>
<path fill="none" stroke="#63b8ff" d="M338.96,-67.73C293.9,-54.06 233.49,-35.73 198.01,-24.96"/>
<polygon fill="#63b8ff" stroke="#63b8ff" points="337.74,-71.02 348.32,-70.58 339.77,-64.32 337.74,-71.02"/>
</g>
<!-- Node40&#45;&gt;Node46 -->
<g id="edge17" class="edge">
<title>Node40&#45;&gt;Node46</title>
<path fill="none" stroke="#63b8ff" d="M366.66,-64.69C346.97,-51.41 322.45,-34.86 307.66,-24.88"/>
<polygon fill="#63b8ff" stroke="#63b8ff" points="364.66,-67.56 374.9,-70.25 368.57,-61.76 364.66,-67.56"/>
</g>
<!-- Node40&#45;&gt;Node47 -->
<g id="edge18" class="edge">
<title>Node40&#45;&gt;Node47</title>
<path fill="none" stroke="#63b8ff" d="M407.25,-60.41C411.17,-50.32 415.55,-39.04 418.91,-30.38"/>
<polygon fill="#63b8ff" stroke="#63b8ff" points="404,-59.1 403.64,-69.69 410.53,-61.63 404,-59.1"/>
</g>
<!-- Node66&#45;&gt;Node12 -->
<g id="edge25" class="edge">
<title>Node66&#45;&gt;Node12</title>
<path fill="none" stroke="#63b8ff" d="M585.76,-62.24C575.36,-49.33 563.03,-34.04 555.49,-24.68"/>
<polygon fill="#63b8ff" stroke="#63b8ff" points="582.95,-64.33 591.95,-69.92 588.4,-59.94 582.95,-64.33"/>
</g>
<!-- Node66&#45;&gt;Node67 -->
<g id="edge26" class="edge">
<title>Node66&#45;&gt;Node67</title>
<path fill="none" stroke="#63b8ff" d="M628.07,-63.36C642.06,-50.23 659,-34.31 669.26,-24.68"/>
<polygon fill="#63b8ff" stroke="#63b8ff" points="625.83,-60.67 620.94,-70.06 630.62,-65.77 625.83,-60.67"/>
</g>
</g>
</svg>
        <g id="navigator" transform="translate(0 0)" fill="#404254">
                <rect fill="#f2f5e9" fill-opacity="0.5" stroke="#606060" stroke-width=".5" x="0" y="0" width="60" height="60"/>
                <use id="zoomplus" xlink:href="#zoomPlus" x="17" y="9" onmousedown="handleZoom(evt,'in')"/>
                <use id="zoomminus" xlink:href="#zoomMin" x="42" y="9" onmousedown="handleZoom(evt,'out')"/>
                <use id="reset" xlink:href="#resetDef" x="30" y="36" onmousedown="handleReset()"/>
                <g id="arrowUp" xlink:href="#dirArrow" transform="translate(30 24)" onmousedown="handlePan(0,-1)">
                  <use xlink:href="#rim" fill="#404040">
                        <set attributeName="fill" to="#808080" begin="arrowUp.mouseover" end="arrowUp.mouseout"/>
                  </use>
                  <path fill="none" stroke="white" stroke-width="1.5" d="M0,-3.0v7 M-2.5,-0.5L0,-3.0L2.5,-0.5"/>
                </g>
                <g id="arrowRight" xlink:href="#dirArrow" transform="rotate(90) translate(36 -43)" onmousedown="handlePan(1,0)">
                  <use xlink:href="#rim" fill="#404040">
                        <set attributeName="fill" to="#808080" begin="arrowRight.mouseover" end="arrowRight.mouseout"/>
                  </use>
                  <path fill="none" stroke="white" stroke-width="1.5" d="M0,-3.0v7 M-2.5,-0.5L0,-3.0L2.5,-0.5"/>
                </g>
                <g id="arrowDown" xlink:href="#dirArrow" transform="rotate(180) translate(-30 -48)" onmousedown="handlePan(0,1)">
                  <use xlink:href="#rim" fill="#404040">
                        <set attributeName="fill" to="#808080" begin="arrowDown.mouseover" end="arrowDown.mouseout"/>
                  </use>
                  <path fill="none" stroke="white" stroke-width="1.5" d="M0,-3.0v7 M-2.5,-0.5L0,-3.0L2.5,-0.5"/>
                </g>
                <g id="arrowLeft" xlink:href="#dirArrow" transform="rotate(270) translate(-36 17)" onmousedown="handlePan(-1,0)">
                  <use xlink:href="#rim" fill="#404040">
                        <set attributeName="fill" to="#808080" begin="arrowLeft.mouseover" end="arrowLeft.mouseout"/>
                  </use>
                  <path fill="none" stroke="white" stroke-width="1.5" d="M0,-3.0v7 M-2.5,-0.5L0,-3.0L2.5,-0.5"/>
                </g>
        </g>
        <svg viewBox="0 0 15 15" width="100%" height="30px" preserveAspectRatio="xMaxYMin meet">
         <g id="arrow_out" transform="scale(0.3 0.3)">
          <a xlink:href="f__op__camera__mng_8h__dep__incl_org.svg" target="_base">
           <rect id="button" ry="5" rx="5" y="6" x="6" height="38" width="38"
                fill="#f2f5e9" fill-opacity="0.5" stroke="#606060" stroke-width="1.0"/>
           <path id="arrow"
             d="M 11.500037,31.436501 C 11.940474,20.09759 22.043105,11.32322 32.158766,21.979434 L 37.068811,17.246167 C 37.068811,17.246167 37.088388,32 37.088388,32 L 22.160133,31.978069 C 22.160133,31.978069 26.997745,27.140456 26.997745,27.140456 C 18.528582,18.264221 13.291696,25.230495 11.500037,31.436501 z"
             style="fill:#404040;"/>
          </a>
         </g>
        </svg>
</svg>
