<?xml version="1.0" encoding="UTF-8" standalone="no"?>
<!DOCTYPE svg PUBLIC "-//W3C//DTD SVG 1.1//EN"
 "http://www.w3.org/Graphics/SVG/1.1/DTD/svg11.dtd">
<!-- Generated by graphviz version 7.0.4 (20221203.1631)
 -->
<!-- Title: include/f_op/f_op_draw_tag.h Pages: 1 -->
<svg width="5098pt" height="313pt"
 viewBox="0.00 0.00 5098.00 313.00" xmlns="http://www.w3.org/2000/svg" xmlns:xlink="http://www.w3.org/1999/xlink">
<g id="graph0" class="graph" transform="scale(1 1) rotate(0) translate(4 309)">
<title>include/f_op/f_op_draw_tag.h</title>
<!-- Node1 -->
<g id="node1" class="node">
<title>Node1</title>
<g id="a_node1"><a xlink:title=" ">
<polygon fill="#999999" stroke="#666666" points="4902.5,-305 4785.5,-305 4785.5,-275 4902.5,-275 4902.5,-305"/>
<text text-anchor="start" x="4793.5" y="-293" font-family="Helvetica,sans-Serif" font-size="10.00">include/f_op/f_op_draw</text>
<text text-anchor="middle" x="4844" y="-282" font-family="Helvetica,sans-Serif" font-size="10.00">_tag.h</text>
</a>
</g>
</g>
<!-- Node2 -->
<g id="node2" class="node">
<title>Node2</title>
<g id="a_node2"><a xlink:href="f__op__camera__mng_8h.html" target="_top" xlink:title=" ">
<polygon fill="white" stroke="#666666" points="4685,-239 4557,-239 4557,-209 4685,-209 4685,-239"/>
<text text-anchor="start" x="4565" y="-227" font-family="Helvetica,sans-Serif" font-size="10.00">include/f_op/f_op_camera</text>
<text text-anchor="middle" x="4621" y="-216" font-family="Helvetica,sans-Serif" font-size="10.00">_mng.h</text>
</a>
</g>
</g>
<!-- Node1&#45;&gt;Node2 -->
<g id="edge1" class="edge">
<title>Node1&#45;&gt;Node2</title>
<path fill="none" stroke="#63b8ff" d="M4782.61,-271.38C4747.55,-261.32 4704.14,-248.86 4671.14,-239.39"/>
<polygon fill="#63b8ff" stroke="#63b8ff" points="4781.64,-274.75 4792.22,-274.14 4783.58,-268.02 4781.64,-274.75"/>
</g>
<!-- Node59 -->
<g id="node20" class="node">
<title>Node59</title>
<g id="a_node20"><a xlink:href="f__op__camera_8cpp.html" target="_top" xlink:title=" ">
<polygon fill="white" stroke="#666666" points="4851.5,-24.5 4722.5,-24.5 4722.5,-5.5 4851.5,-5.5 4851.5,-24.5"/>
<text text-anchor="middle" x="4787" y="-12.5" font-family="Helvetica,sans-Serif" font-size="10.00">src/f_op/f_op_camera.cpp</text>
</a>
</g>
</g>
<!-- Node1&#45;&gt;Node59 -->
<g id="edge58" class="edge">
<title>Node1&#45;&gt;Node59</title>
<path fill="none" stroke="#63b8ff" d="M4841.85,-263.55C4839.1,-234.27 4833.65,-184.83 4825,-143 4817.79,-108.15 4813.31,-100.06 4803,-66 4798.62,-51.52 4793.19,-34.79 4789.92,-24.83"/>
<polygon fill="#63b8ff" stroke="#63b8ff" points="4838.34,-263.64 4842.72,-273.28 4845.31,-263.01 4838.34,-263.64"/>
</g>
<!-- Node110 -->
<g id="node47" class="node">
<title>Node110</title>
<g id="a_node47"><a xlink:href="f__ap__game_8cpp.html" target="_top" xlink:title=" ">
<polygon fill="white" stroke="#666666" points="4815.5,-167.5 4694.5,-167.5 4694.5,-148.5 4815.5,-148.5 4815.5,-167.5"/>
<text text-anchor="middle" x="4755" y="-155.5" font-family="Helvetica,sans-Serif" font-size="10.00">src/f_ap/f_ap_game.cpp</text>
</a>
</g>
</g>
<!-- Node1&#45;&gt;Node110 -->
<g id="edge57" class="edge">
<title>Node1&#45;&gt;Node110</title>
<path fill="none" stroke="#63b8ff" d="M4827.88,-265.45C4807.79,-236.11 4774.47,-187.44 4760.96,-167.71"/>
<polygon fill="#63b8ff" stroke="#63b8ff" points="4824.74,-267.07 4833.28,-273.34 4830.52,-263.11 4824.74,-267.07"/>
</g>
<!-- Node112 -->
<g id="node49" class="node">
<title>Node112</title>
<g id="a_node49"><a xlink:href="f__op__draw__iter_8cpp.html" target="_top" xlink:title=" ">
<polygon fill="white" stroke="#666666" points="4972,-239 4872,-239 4872,-209 4972,-209 4972,-239"/>
<text text-anchor="start" x="4880" y="-227" font-family="Helvetica,sans-Serif" font-size="10.00">src/f_op/f_op_draw</text>
<text text-anchor="middle" x="4922" y="-216" font-family="Helvetica,sans-Serif" font-size="10.00">_iter.cpp</text>
</a>
</g>
</g>
<!-- Node1&#45;&gt;Node112 -->
<g id="edge59" class="edge">
<title>Node1&#45;&gt;Node112</title>
<path fill="none" stroke="#63b8ff" d="M4869.96,-267.7C4881.3,-258.4 4894.3,-247.73 4904.47,-239.39"/>
<polygon fill="#63b8ff" stroke="#63b8ff" points="4867.99,-264.79 4862.48,-273.84 4872.43,-270.2 4867.99,-264.79"/>
</g>
<!-- Node113 -->
<g id="node50" class="node">
<title>Node113</title>
<g id="a_node50"><a xlink:href="f__op__draw__tag_8cpp.html" target="_top" xlink:title=" ">
<polygon fill="white" stroke="#666666" points="5090,-239 4990,-239 4990,-209 5090,-209 5090,-239"/>
<text text-anchor="start" x="4998" y="-227" font-family="Helvetica,sans-Serif" font-size="10.00">src/f_op/f_op_draw</text>
<text text-anchor="middle" x="5040" y="-216" font-family="Helvetica,sans-Serif" font-size="10.00">_tag.cpp</text>
</a>
</g>
</g>
<!-- Node1&#45;&gt;Node113 -->
<g id="edge60" class="edge">
<title>Node1&#45;&gt;Node113</title>
<path fill="none" stroke="#63b8ff" d="M4898.92,-271.07C4929.52,-261.07 4967.13,-248.79 4995.82,-239.43"/>
<polygon fill="#63b8ff" stroke="#63b8ff" points="4897.84,-267.74 4889.43,-274.17 4900.02,-274.39 4897.84,-267.74"/>
</g>
<!-- Node3 -->
<g id="node3" class="node">
<title>Node3</title>
<g id="a_node3"><a xlink:href="d__com__inf__game_8h.html" target="_top" xlink:title=" ">
<polygon fill="#fff0f0" stroke="red" points="2436,-173 2326,-173 2326,-143 2436,-143 2436,-173"/>
<text text-anchor="start" x="2334" y="-161" font-family="Helvetica,sans-Serif" font-size="10.00">include/d/com/d_com</text>
<text text-anchor="middle" x="2381" y="-150" font-family="Helvetica,sans-Serif" font-size="10.00">_inf_game.h</text>
</a>
</g>
</g>
<!-- Node2&#45;&gt;Node3 -->
<g id="edge2" class="edge">
<title>Node2&#45;&gt;Node3</title>
<path fill="none" stroke="#63b8ff" d="M4545.18,-220.83C4195.08,-210.83 2739.07,-169.23 2436.3,-160.58"/>
<polygon fill="#63b8ff" stroke="#63b8ff" points="4545.07,-224.33 4555.16,-221.12 4545.27,-217.33 4545.07,-224.33"/>
</g>
<!-- Node109 -->
<g id="node46" class="node">
<title>Node109</title>
<g id="a_node46"><a xlink:href="f__op__camera_8h.html" target="_top" xlink:title=" ">
<polygon fill="white" stroke="#666666" points="4547,-167.5 4411,-167.5 4411,-148.5 4547,-148.5 4547,-167.5"/>
<text text-anchor="middle" x="4479" y="-155.5" font-family="Helvetica,sans-Serif" font-size="10.00">include/f_op/f_op_camera.h</text>
</a>
</g>
</g>
<!-- Node2&#45;&gt;Node109 -->
<g id="edge53" class="edge">
<title>Node2&#45;&gt;Node109</title>
<path fill="none" stroke="#63b8ff" d="M4578.99,-204.06C4552.54,-192.14 4519.61,-177.3 4498.94,-167.99"/>
<polygon fill="#63b8ff" stroke="#63b8ff" points="4577.2,-207.1 4587.75,-208.02 4580.07,-200.72 4577.2,-207.1"/>
</g>
<!-- Node2&#45;&gt;Node110 -->
<g id="edge55" class="edge">
<title>Node2&#45;&gt;Node110</title>
<path fill="none" stroke="#63b8ff" d="M4661.31,-203.75C4686.16,-191.88 4716.85,-177.22 4736.19,-167.99"/>
<polygon fill="#63b8ff" stroke="#63b8ff" points="4659.95,-200.52 4652.44,-207.98 4662.97,-206.83 4659.95,-200.52"/>
</g>
<!-- Node111 -->
<g id="node48" class="node">
<title>Node111</title>
<g id="a_node48"><a xlink:href="f__op__camera__mng_8cpp.html" target="_top" xlink:title=" ">
<polygon fill="white" stroke="#666666" points="4676.5,-173 4565.5,-173 4565.5,-143 4676.5,-143 4676.5,-173"/>
<text text-anchor="start" x="4573.5" y="-161" font-family="Helvetica,sans-Serif" font-size="10.00">src/f_op/f_op_camera</text>
<text text-anchor="middle" x="4621" y="-150" font-family="Helvetica,sans-Serif" font-size="10.00">_mng.cpp</text>
</a>
</g>
</g>
<!-- Node2&#45;&gt;Node111 -->
<g id="edge56" class="edge">
<title>Node2&#45;&gt;Node111</title>
<path fill="none" stroke="#63b8ff" d="M4621,-197.39C4621,-189.13 4621,-180.28 4621,-173.16"/>
<polygon fill="#63b8ff" stroke="#63b8ff" points="4617.5,-197.28 4621,-207.28 4624.5,-197.28 4617.5,-197.28"/>
</g>
<!-- Node4 -->
<g id="node4" class="node">
<title>Node4</title>
<g id="a_node4"><a xlink:href="d__a__npc_8h.html" target="_top" xlink:title=" ">
<polygon fill="#fff0f0" stroke="red" points="4319.5,-96 4208.5,-96 4208.5,-77 4319.5,-77 4319.5,-96"/>
<text text-anchor="middle" x="4264" y="-84" font-family="Helvetica,sans-Serif" font-size="10.00">include/d/a/d_a_npc.h</text>
</a>
</g>
</g>
<!-- Node3&#45;&gt;Node4 -->
<g id="edge3" class="edge">
<title>Node3&#45;&gt;Node4</title>
<path fill="none" stroke="#63b8ff" d="M2447.38,-156.21C2753.77,-152.43 4023.76,-135.19 4199,-107 4212.73,-104.79 4227.61,-100.48 4239.66,-96.47"/>
<polygon fill="#63b8ff" stroke="#63b8ff" points="2447.52,-152.71 2437.56,-156.33 2447.6,-159.71 2447.52,-152.71"/>
</g>
<!-- Node10 -->
<g id="node5" class="node">
<title>Node10</title>
<g id="a_node5"><a xlink:href="d__cc__uty_8h.html" target="_top" xlink:title=" ">
<polygon fill="#fff0f0" stroke="red" points="4456.5,-96 4337.5,-96 4337.5,-77 4456.5,-77 4456.5,-96"/>
<text text-anchor="middle" x="4397" y="-84" font-family="Helvetica,sans-Serif" font-size="10.00">include/d/cc/d_cc_uty.h</text>
</a>
</g>
</g>
<!-- Node3&#45;&gt;Node10 -->
<g id="edge4" class="edge">
<title>Node3&#45;&gt;Node10</title>
<path fill="none" stroke="#63b8ff" d="M2447.87,-156.27C2768.33,-152.66 4139.25,-135.63 4328,-107 4342.52,-104.8 4358.32,-100.48 4371.13,-96.47"/>
<polygon fill="#63b8ff" stroke="#63b8ff" points="2447.95,-152.77 2437.99,-156.38 2448.03,-159.77 2447.95,-152.77"/>
</g>
<!-- Node16 -->
<g id="node6" class="node">
<title>Node16</title>
<g id="a_node6"><a xlink:href="d__item_8h.html" target="_top" xlink:title=" ">
<polygon fill="#fff0f0" stroke="red" points="4569.5,-96 4474.5,-96 4474.5,-77 4569.5,-77 4569.5,-96"/>
<text text-anchor="middle" x="4522" y="-84" font-family="Helvetica,sans-Serif" font-size="10.00">include/d/d_item.h</text>
</a>
</g>
</g>
<!-- Node3&#45;&gt;Node16 -->
<g id="edge5" class="edge">
<title>Node3&#45;&gt;Node16</title>
<path fill="none" stroke="#63b8ff" d="M2447.68,-156.61C2781.47,-154.49 4262.88,-143.11 4465,-107 4477.15,-104.83 4490.21,-100.52 4500.76,-96.5"/>
<polygon fill="#63b8ff" stroke="#63b8ff" points="2447.78,-153.11 2437.81,-156.67 2447.83,-160.11 2447.78,-153.11"/>
</g>
<!-- Node13 -->
<g id="node7" class="node">
<title>Node13</title>
<g id="a_node7"><a xlink:href="d__a__alink_8cpp.html" target="_top" xlink:title=" ">
<polygon fill="white" stroke="#666666" points="1021.5,-24.5 912.5,-24.5 912.5,-5.5 1021.5,-5.5 1021.5,-24.5"/>
<text text-anchor="middle" x="967" y="-12.5" font-family="Helvetica,sans-Serif" font-size="10.00">src/d/a/d_a_alink.cpp</text>
</a>
</g>
</g>
<!-- Node3&#45;&gt;Node13 -->
<g id="edge30" class="edge">
<title>Node3&#45;&gt;Node13</title>
<path fill="none" stroke="#63b8ff" d="M2314.05,-157.22C2037.08,-157.83 993.08,-156.78 945,-107 922.87,-84.08 947.52,-42.92 960.29,-24.88"/>
<polygon fill="#63b8ff" stroke="#63b8ff" points="2314,-160.72 2323.99,-157.2 2313.98,-153.72 2314,-160.72"/>
</g>
<!-- Node17 -->
<g id="node8" class="node">
<title>Node17</title>
<g id="a_node8"><a xlink:href="d__a__obj__item_8cpp.html" target="_top" xlink:title=" ">
<polygon fill="white" stroke="#666666" points="4622.5,-24.5 4497.5,-24.5 4497.5,-5.5 4622.5,-5.5 4622.5,-24.5"/>
<text text-anchor="middle" x="4560" y="-12.5" font-family="Helvetica,sans-Serif" font-size="10.00">src/d/a/d_a_obj_item.cpp</text>
</a>
</g>
</g>
<!-- Node3&#45;&gt;Node17 -->
<g id="edge33" class="edge">
<title>Node3&#45;&gt;Node17</title>
<path fill="none" stroke="#63b8ff" d="M2447.82,-156.75C2811.74,-155.25 4539.83,-146.05 4578,-107 4600.06,-84.43 4577.79,-43.08 4566.14,-24.93"/>
<polygon fill="#63b8ff" stroke="#63b8ff" points="2447.95,-153.25 2437.97,-156.79 2447.98,-160.25 2447.95,-153.25"/>
</g>
<!-- Node18 -->
<g id="node9" class="node">
<title>Node18</title>
<g id="a_node9"><a xlink:href="d__com__inf__game_8cpp.html" target="_top" xlink:title=" ">
<polygon fill="white" stroke="#666666" points="3097,-30 2989,-30 2989,0 3097,0 3097,-30"/>
<text text-anchor="start" x="2997" y="-18" font-family="Helvetica,sans-Serif" font-size="10.00">src/d/com/d_com_inf</text>
<text text-anchor="middle" x="3043" y="-7" font-family="Helvetica,sans-Serif" font-size="10.00">_game.cpp</text>
</a>
</g>
</g>
<!-- Node3&#45;&gt;Node18 -->
<g id="edge39" class="edge">
<title>Node3&#45;&gt;Node18</title>
<path fill="none" stroke="#63b8ff" d="M2314.68,-157.29C2148.17,-157.31 1722.7,-152.85 1680,-107 1667.58,-93.66 1667.35,-79.12 1680,-66 1726.14,-18.13 2740.69,-15.77 2988.68,-15.91"/>
<polygon fill="#63b8ff" stroke="#63b8ff" points="2314.23,-160.79 2324.23,-157.28 2314.23,-153.79 2314.23,-160.79"/>
</g>
<!-- Node21 -->
<g id="node10" class="node">
<title>Node21</title>
<g id="a_node10"><a xlink:href="d__kantera__icon__meter_8h.html" target="_top" xlink:title=" ">
<polygon fill="#fff0f0" stroke="red" points="277.5,-101.5 176.5,-101.5 176.5,-71.5 277.5,-71.5 277.5,-101.5"/>
<text text-anchor="start" x="184.5" y="-89.5" font-family="Helvetica,sans-Serif" font-size="10.00">include/d/d_kantera</text>
<text text-anchor="middle" x="227" y="-78.5" font-family="Helvetica,sans-Serif" font-size="10.00">_icon_meter.h</text>
</a>
</g>
</g>
<!-- Node3&#45;&gt;Node21 -->
<g id="edge9" class="edge">
<title>Node3&#45;&gt;Node21</title>
<path fill="none" stroke="#63b8ff" d="M2314.25,-156.58C1979.27,-154.3 489.43,-142.24 286,-107 279.2,-105.82 272.11,-104.01 265.3,-101.96"/>
<polygon fill="#63b8ff" stroke="#63b8ff" points="2314.14,-160.08 2324.16,-156.64 2314.19,-153.08 2314.14,-160.08"/>
</g>
<!-- Node24 -->
<g id="node11" class="node">
<title>Node24</title>
<g id="a_node11"><a xlink:href="d__model_8h.html" target="_top" xlink:title=" ">
<polygon fill="#fff0f0" stroke="red" points="398.5,-96 295.5,-96 295.5,-77 398.5,-77 398.5,-96"/>
<text text-anchor="middle" x="347" y="-84" font-family="Helvetica,sans-Serif" font-size="10.00">include/d/d_model.h</text>
</a>
</g>
</g>
<!-- Node3&#45;&gt;Node24 -->
<g id="edge10" class="edge">
<title>Node3&#45;&gt;Node24</title>
<path fill="none" stroke="#63b8ff" d="M2314.24,-156.45C1991.2,-153.65 597.98,-139.74 407,-107 394.26,-104.82 380.52,-100.5 369.4,-96.49"/>
<polygon fill="#63b8ff" stroke="#63b8ff" points="2314.18,-159.95 2324.21,-156.54 2314.24,-152.95 2314.18,-159.95"/>
</g>
<!-- Node26 -->
<g id="node12" class="node">
<title>Node26</title>
<g id="a_node12"><a xlink:href="d__name_8h.html" target="_top" xlink:title=" ">
<polygon fill="#fff0f0" stroke="red" points="517.5,-96 416.5,-96 416.5,-77 517.5,-77 517.5,-96"/>
<text text-anchor="middle" x="467" y="-84" font-family="Helvetica,sans-Serif" font-size="10.00">include/d/d_name.h</text>
</a>
</g>
</g>
<!-- Node3&#45;&gt;Node26 -->
<g id="edge11" class="edge">
<title>Node3&#45;&gt;Node26</title>
<path fill="none" stroke="#63b8ff" d="M2314.31,-156.34C2003.62,-153.09 705.57,-137.76 527,-107 514.26,-104.81 500.52,-100.49 489.4,-96.48"/>
<polygon fill="#63b8ff" stroke="#63b8ff" points="2314.26,-159.83 2324.29,-156.44 2314.33,-152.84 2314.26,-159.83"/>
</g>
<!-- Node28 -->
<g id="node13" class="node">
<title>Node28</title>
<g id="a_node13"><a xlink:href="d__file__sel__info_8h.html" target="_top" xlink:title=" ">
<polygon fill="#fff0f0" stroke="red" points="632,-101.5 536,-101.5 536,-71.5 632,-71.5 632,-101.5"/>
<text text-anchor="start" x="544" y="-89.5" font-family="Helvetica,sans-Serif" font-size="10.00">include/d/file/d_file</text>
<text text-anchor="middle" x="584" y="-78.5" font-family="Helvetica,sans-Serif" font-size="10.00">_sel_info.h</text>
</a>
</g>
</g>
<!-- Node3&#45;&gt;Node28 -->
<g id="edge12" class="edge">
<title>Node3&#45;&gt;Node28</title>
<path fill="none" stroke="#63b8ff" d="M2314.07,-156.27C2014.9,-152.82 807.53,-137.16 641,-107 634.41,-105.81 627.56,-103.99 620.98,-101.94"/>
<polygon fill="#63b8ff" stroke="#63b8ff" points="2314.02,-159.77 2324.06,-156.38 2314.1,-152.77 2314.02,-159.77"/>
</g>
<!-- Node31 -->
<g id="node14" class="node">
<title>Node31</title>
<g id="a_node14"><a xlink:href="d__file__sel__warning_8h.html" target="_top" xlink:title=" ">
<polygon fill="#fff0f0" stroke="red" points="746,-101.5 650,-101.5 650,-71.5 746,-71.5 746,-101.5"/>
<text text-anchor="start" x="658" y="-89.5" font-family="Helvetica,sans-Serif" font-size="10.00">include/d/file/d_file</text>
<text text-anchor="middle" x="698" y="-78.5" font-family="Helvetica,sans-Serif" font-size="10.00">_sel_warning.h</text>
</a>
</g>
</g>
<!-- Node3&#45;&gt;Node31 -->
<g id="edge13" class="edge">
<title>Node3&#45;&gt;Node31</title>
<path fill="none" stroke="#63b8ff" d="M2314.29,-156.12C2027.85,-152.2 909.84,-135.21 755,-107 748.41,-105.8 741.56,-103.98 734.98,-101.93"/>
<polygon fill="#63b8ff" stroke="#63b8ff" points="2314.15,-159.62 2324.2,-156.26 2314.25,-152.62 2314.15,-159.62"/>
</g>
<!-- Node33 -->
<g id="node15" class="node">
<title>Node33</title>
<g id="a_node15"><a xlink:href="d__meter2_8h.html" target="_top" xlink:title=" ">
<polygon fill="#fff0f0" stroke="red" points="898,-96 764,-96 764,-77 898,-77 898,-96"/>
<text text-anchor="middle" x="831" y="-84" font-family="Helvetica,sans-Serif" font-size="10.00">include/d/meter/d_meter2.h</text>
</a>
</g>
</g>
<!-- Node3&#45;&gt;Node33 -->
<g id="edge14" class="edge">
<title>Node3&#45;&gt;Node33</title>
<path fill="none" stroke="#63b8ff" d="M2314.4,-156.52C2065.3,-154.45 1188.6,-144.61 912,-107 895.23,-104.72 876.87,-100.45 861.88,-96.49"/>
<polygon fill="#63b8ff" stroke="#63b8ff" points="2314.24,-160.02 2324.27,-156.6 2314.3,-153.02 2314.24,-160.02"/>
</g>
<!-- Node41 -->
<g id="node16" class="node">
<title>Node41</title>
<g id="a_node16"><a xlink:href="d__msg__object_8h.html" target="_top" xlink:title=" ">
<polygon fill="#fff0f0" stroke="red" points="1064,-101.5 954,-101.5 954,-71.5 1064,-71.5 1064,-101.5"/>
<text text-anchor="start" x="962" y="-89.5" font-family="Helvetica,sans-Serif" font-size="10.00">include/d/msg/d_msg</text>
<text text-anchor="middle" x="1009" y="-78.5" font-family="Helvetica,sans-Serif" font-size="10.00">_object.h</text>
</a>
</g>
</g>
<!-- Node3&#45;&gt;Node41 -->
<g id="edge15" class="edge">
<title>Node3&#45;&gt;Node41</title>
<path fill="none" stroke="#63b8ff" d="M2314.42,-156.72C2083.15,-155.38 1315.54,-147.88 1073,-107 1065.78,-105.78 1058.24,-103.99 1050.98,-101.96"/>
<polygon fill="#63b8ff" stroke="#63b8ff" points="2314.14,-160.21 2324.16,-156.77 2314.18,-153.21 2314.14,-160.21"/>
</g>
<!-- Node46 -->
<g id="node17" class="node">
<title>Node46</title>
<g id="a_node17"><a xlink:href="d__demo_8cpp.html" target="_top" xlink:title=" ">
<polygon fill="white" stroke="#666666" points="1182,-24.5 1088,-24.5 1088,-5.5 1182,-5.5 1182,-24.5"/>
<text text-anchor="middle" x="1135" y="-12.5" font-family="Helvetica,sans-Serif" font-size="10.00">src/d/d_demo.cpp</text>
</a>
</g>
</g>
<!-- Node3&#45;&gt;Node46 -->
<g id="edge44" class="edge">
<title>Node3&#45;&gt;Node46</title>
<path fill="none" stroke="#63b8ff" d="M2314.22,-156.96C2085.19,-156.43 1340.3,-151.29 1243,-107 1220.11,-96.58 1222.93,-82.56 1204,-66 1185.96,-50.22 1163.12,-34.39 1148.78,-24.89"/>
<polygon fill="#63b8ff" stroke="#63b8ff" points="2314.17,-160.46 2324.18,-156.98 2314.18,-153.46 2314.17,-160.46"/>
</g>
<!-- Node55 -->
<g id="node18" class="node">
<title>Node55</title>
<g id="a_node18"><a xlink:href="d__s__logo_8h.html" target="_top" xlink:title=" ">
<polygon fill="#fff0f0" stroke="red" points="1195.5,-96 1082.5,-96 1082.5,-77 1195.5,-77 1195.5,-96"/>
<text text-anchor="middle" x="1139" y="-84" font-family="Helvetica,sans-Serif" font-size="10.00">include/d/s/d_s_logo.h</text>
</a>
</g>
</g>
<!-- Node3&#45;&gt;Node55 -->
<g id="edge18" class="edge">
<title>Node3&#45;&gt;Node55</title>
<path fill="none" stroke="#63b8ff" d="M2314.34,-156.13C2099.25,-153 1425.17,-140.7 1210,-107 1195.22,-104.69 1179.12,-100.41 1166,-96.46"/>
<polygon fill="#63b8ff" stroke="#63b8ff" points="2314.18,-159.63 2324.23,-156.27 2314.28,-152.63 2314.18,-159.63"/>
</g>
<!-- Node57 -->
<g id="node19" class="node">
<title>Node57</title>
<g id="a_node19"><a xlink:href="d__s__play_8h.html" target="_top" xlink:title=" ">
<polygon fill="#fff0f0" stroke="red" points="4739.5,-96 4626.5,-96 4626.5,-77 4739.5,-77 4739.5,-96"/>
<text text-anchor="middle" x="4683" y="-84" font-family="Helvetica,sans-Serif" font-size="10.00">include/d/s/d_s_play.h</text>
</a>
</g>
</g>
<!-- Node3&#45;&gt;Node57 -->
<g id="edge19" class="edge">
<title>Node3&#45;&gt;Node57</title>
<path fill="none" stroke="#63b8ff" d="M2447.79,-156.48C2795.79,-153.64 4393.58,-138.94 4612,-107 4626.92,-104.82 4643.18,-100.5 4656.36,-96.49"/>
<polygon fill="#63b8ff" stroke="#63b8ff" points="2447.91,-152.98 2437.94,-156.56 2447.96,-159.98 2447.91,-152.98"/>
</g>
<!-- Node3&#45;&gt;Node59 -->
<g id="edge52" class="edge">
<title>Node3&#45;&gt;Node59</title>
<path fill="none" stroke="#63b8ff" d="M2447.81,-156.58C2827.56,-154.07 4699.02,-140.04 4748,-107 4776.21,-87.97 4784.11,-43.94 4786.25,-24.97"/>
<polygon fill="#63b8ff" stroke="#63b8ff" points="2447.98,-153.08 2438,-156.64 2448.03,-160.08 2447.98,-153.08"/>
</g>
<!-- Node61 -->
<g id="node21" class="node">
<title>Node61</title>
<g id="a_node21"><a xlink:href="d__msg__scrn__base_8h.html" target="_top" xlink:title=" ">
<polygon fill="#fff0f0" stroke="red" points="1351.5,-101.5 1252.5,-101.5 1252.5,-71.5 1351.5,-71.5 1351.5,-101.5"/>
<text text-anchor="start" x="1260.5" y="-89.5" font-family="Helvetica,sans-Serif" font-size="10.00">include/msg/scrn/d</text>
<text text-anchor="middle" x="1302" y="-78.5" font-family="Helvetica,sans-Serif" font-size="10.00">_msg_scrn_base.h</text>
</a>
</g>
</g>
<!-- Node3&#45;&gt;Node61 -->
<g id="edge21" class="edge">
<title>Node3&#45;&gt;Node61</title>
<path fill="none" stroke="#63b8ff" d="M2314.29,-156.13C2117.87,-153.17 1543.91,-141.73 1360,-107 1353.42,-105.76 1346.57,-103.95 1339.98,-101.92"/>
<polygon fill="#63b8ff" stroke="#63b8ff" points="2314.01,-159.62 2324.06,-156.27 2314.11,-152.62 2314.01,-159.62"/>
</g>
<!-- Node65 -->
<g id="node22" class="node">
<title>Node65</title>
<g id="a_node22"><a xlink:href="d__a__b__zant_8h.html" target="_top" xlink:title=" ">
<polygon fill="white" stroke="#666666" points="1490.5,-101.5 1369.5,-101.5 1369.5,-71.5 1490.5,-71.5 1490.5,-101.5"/>
<text text-anchor="start" x="1377.5" y="-89.5" font-family="Helvetica,sans-Serif" font-size="10.00">include/rel/d/a/b/d</text>
<text text-anchor="middle" x="1430" y="-78.5" font-family="Helvetica,sans-Serif" font-size="10.00">_a_b_zant/d_a_b_zant.h</text>
</a>
</g>
</g>
<!-- Node3&#45;&gt;Node65 -->
<g id="edge22" class="edge">
<title>Node3&#45;&gt;Node65</title>
<path fill="none" stroke="#63b8ff" d="M2314.28,-155.07C2136.92,-149.65 1656.59,-132.94 1500,-107 1492.28,-105.72 1484.2,-103.92 1476.38,-101.92"/>
<polygon fill="#63b8ff" stroke="#63b8ff" points="2314.16,-158.57 2324.26,-155.37 2314.37,-151.57 2314.16,-158.57"/>
</g>
<!-- Node66 -->
<g id="node23" class="node">
<title>Node66</title>
<g id="a_node23"><a xlink:href="d__a__skip__2D_8h.html" target="_top" xlink:title=" ">
<polygon fill="white" stroke="#666666" points="1633,-101.5 1509,-101.5 1509,-71.5 1633,-71.5 1633,-101.5"/>
<text text-anchor="start" x="1517" y="-89.5" font-family="Helvetica,sans-Serif" font-size="10.00">include/rel/d/a/d_a</text>
<text text-anchor="middle" x="1571" y="-78.5" font-family="Helvetica,sans-Serif" font-size="10.00">_skip_2D/d_a_skip_2D.h</text>
</a>
</g>
</g>
<!-- Node3&#45;&gt;Node66 -->
<g id="edge23" class="edge">
<title>Node3&#45;&gt;Node66</title>
<path fill="none" stroke="#63b8ff" d="M2314.57,-156.53C2185.23,-154.74 1890.9,-146.26 1647,-107 1638.8,-105.68 1630.19,-103.88 1621.83,-101.91"/>
<polygon fill="#63b8ff" stroke="#63b8ff" points="2314.27,-160.03 2324.31,-156.66 2314.36,-153.03 2314.27,-160.03"/>
</g>
<!-- Node67 -->
<g id="node24" class="node">
<title>Node67</title>
<g id="a_node24"><a xlink:href="d__a__spinner_8h.html" target="_top" xlink:title=" ">
<polygon fill="white" stroke="#666666" points="158,-101.5 42,-101.5 42,-71.5 158,-71.5 158,-101.5"/>
<text text-anchor="start" x="50" y="-89.5" font-family="Helvetica,sans-Serif" font-size="10.00">include/rel/d/a/d_a</text>
<text text-anchor="middle" x="100" y="-78.5" font-family="Helvetica,sans-Serif" font-size="10.00">_spinner/d_a_spinner.h</text>
</a>
</g>
</g>
<!-- Node3&#45;&gt;Node67 -->
<g id="edge24" class="edge">
<title>Node3&#45;&gt;Node67</title>
<path fill="none" stroke="#63b8ff" d="M2314.43,-156.53C1968.46,-153.94 383.45,-140.36 167,-107 159.34,-105.82 151.32,-104.01 143.6,-101.96"/>
<polygon fill="#63b8ff" stroke="#63b8ff" points="2314.19,-160.03 2324.22,-156.6 2314.24,-153.03 2314.19,-160.03"/>
</g>
<!-- Node68 -->
<g id="node25" class="node">
<title>Node68</title>
<g id="a_node25"><a xlink:href="d__a__player_8cpp.html" target="_top" xlink:title=" ">
<polygon fill="white" stroke="#666666" points="114,-24.5 0,-24.5 0,-5.5 114,-5.5 114,-24.5"/>
<text text-anchor="middle" x="57" y="-12.5" font-family="Helvetica,sans-Serif" font-size="10.00">src/d/a/d_a_player.cpp</text>
</a>
</g>
</g>
<!-- Node3&#45;&gt;Node68 -->
<g id="edge34" class="edge">
<title>Node3&#45;&gt;Node68</title>
<path fill="none" stroke="#63b8ff" d="M2314.49,-156.85C1936.48,-155.87 74,-148.88 33,-107 10.6,-84.12 36.57,-42.93 49.97,-24.88"/>
<polygon fill="#63b8ff" stroke="#63b8ff" points="2314.24,-160.35 2324.25,-156.88 2314.25,-153.35 2314.24,-160.35"/>
</g>
<!-- Node69 -->
<g id="node26" class="node">
<title>Node69</title>
<g id="a_node26"><a xlink:href="d__a__obj__yobikusa_8h.html" target="_top" xlink:title=" ">
<polygon fill="white" stroke="#666666" points="1794.5,-107 1689.5,-107 1689.5,-66 1794.5,-66 1794.5,-107"/>
<text text-anchor="start" x="1697.5" y="-95" font-family="Helvetica,sans-Serif" font-size="10.00">include/rel/d/a/obj</text>
<text text-anchor="start" x="1697.5" y="-84" font-family="Helvetica,sans-Serif" font-size="10.00">/d_a_obj_yobikusa/d</text>
<text text-anchor="middle" x="1742" y="-73" font-family="Helvetica,sans-Serif" font-size="10.00">_a_obj_yobikusa.h</text>
</a>
</g>
</g>
<!-- Node3&#45;&gt;Node69 -->
<g id="edge27" class="edge">
<title>Node3&#45;&gt;Node69</title>
<path fill="none" stroke="#63b8ff" d="M2314.17,-155.93C2205.99,-153.14 1986.24,-143.1 1804,-107 1801.01,-106.41 1797.96,-105.72 1794.9,-104.97"/>
<polygon fill="#63b8ff" stroke="#63b8ff" points="2313.95,-159.42 2324.03,-156.17 2314.12,-152.42 2313.95,-159.42"/>
</g>
<!-- Node70 -->
<g id="node27" class="node">
<title>Node70</title>
<g id="a_node27"><a xlink:href="d__a__tag__telop_8h.html" target="_top" xlink:title=" ">
<polygon fill="white" stroke="#666666" points="1931,-107 1813,-107 1813,-66 1931,-66 1931,-107"/>
<text text-anchor="start" x="1821" y="-95" font-family="Helvetica,sans-Serif" font-size="10.00">include/rel/d/a/tag</text>
<text text-anchor="start" x="1821" y="-84" font-family="Helvetica,sans-Serif" font-size="10.00">/d_a_tag_telop/d_a_tag</text>
<text text-anchor="middle" x="1872" y="-73" font-family="Helvetica,sans-Serif" font-size="10.00">_telop.h</text>
</a>
</g>
</g>
<!-- Node3&#45;&gt;Node70 -->
<g id="edge28" class="edge">
<title>Node3&#45;&gt;Node70</title>
<path fill="none" stroke="#63b8ff" d="M2314.28,-152.9C2227.44,-146.79 2071.28,-133.08 1940,-107 1937.11,-106.43 1934.16,-105.79 1931.2,-105.1"/>
<polygon fill="#63b8ff" stroke="#63b8ff" points="2313.82,-156.38 2324.03,-153.58 2314.3,-149.4 2313.82,-156.38"/>
</g>
<!-- Node71 -->
<g id="node28" class="node">
<title>Node71</title>
<g id="a_node28"><a xlink:href="c__dylink_8cpp.html" target="_top" xlink:title=" ">
<polygon fill="white" stroke="#666666" points="2044.5,-96 1949.5,-96 1949.5,-77 2044.5,-77 2044.5,-96"/>
<text text-anchor="middle" x="1997" y="-84" font-family="Helvetica,sans-Serif" font-size="10.00">src/c/c_dylink.cpp</text>
</a>
</g>
</g>
<!-- Node3&#45;&gt;Node71 -->
<g id="edge29" class="edge">
<title>Node3&#45;&gt;Node71</title>
<path fill="none" stroke="#63b8ff" d="M2314.59,-150.35C2248.03,-142.87 2142.97,-128.84 2054,-107 2042.62,-104.21 2030.29,-100.13 2020.02,-96.42"/>
<polygon fill="#63b8ff" stroke="#63b8ff" points="2313.91,-153.8 2324.23,-151.42 2314.68,-146.84 2313.91,-153.8"/>
</g>
<!-- Node72 -->
<g id="node29" class="node">
<title>Node72</title>
<g id="a_node29"><a xlink:href="d__a__itembase_8cpp.html" target="_top" xlink:title=" ">
<polygon fill="white" stroke="#666666" points="2191,-96 2063,-96 2063,-77 2191,-77 2191,-96"/>
<text text-anchor="middle" x="2127" y="-84" font-family="Helvetica,sans-Serif" font-size="10.00">src/d/a/d_a_itembase.cpp</text>
</a>
</g>
</g>
<!-- Node3&#45;&gt;Node72 -->
<g id="edge31" class="edge">
<title>Node3&#45;&gt;Node72</title>
<path fill="none" stroke="#63b8ff" d="M2317.02,-139.49C2266.94,-125.79 2199.34,-107.29 2159.73,-96.46"/>
<polygon fill="#63b8ff" stroke="#63b8ff" points="2316.03,-142.85 2326.6,-142.12 2317.88,-136.1 2316.03,-142.85"/>
</g>
<!-- Node73 -->
<g id="node30" class="node">
<title>Node73</title>
<g id="a_node30"><a xlink:href="d__a__obj_8cpp.html" target="_top" xlink:title=" ">
<polygon fill="white" stroke="#666666" points="2310.5,-96 2209.5,-96 2209.5,-77 2310.5,-77 2310.5,-96"/>
<text text-anchor="middle" x="2260" y="-84" font-family="Helvetica,sans-Serif" font-size="10.00">src/d/a/d_a_obj.cpp</text>
</a>
</g>
</g>
<!-- Node3&#45;&gt;Node73 -->
<g id="edge32" class="edge">
<title>Node3&#45;&gt;Node73</title>
<path fill="none" stroke="#63b8ff" d="M2346.03,-136.92C2322.7,-123.51 2293.15,-106.54 2275.46,-96.38"/>
<polygon fill="#63b8ff" stroke="#63b8ff" points="2344.2,-139.9 2354.62,-141.85 2347.69,-133.83 2344.2,-139.9"/>
</g>
<!-- Node74 -->
<g id="node31" class="node">
<title>Node74</title>
<g id="a_node31"><a xlink:href="d__bg__s_8cpp.html" target="_top" xlink:title=" ">
<polygon fill="white" stroke="#666666" points="2433,-96 2329,-96 2329,-77 2433,-77 2433,-96"/>
<text text-anchor="middle" x="2381" y="-84" font-family="Helvetica,sans-Serif" font-size="10.00">src/d/bg/d_bg_s.cpp</text>
</a>
</g>
</g>
<!-- Node3&#45;&gt;Node74 -->
<g id="edge35" class="edge">
<title>Node3&#45;&gt;Node74</title>
<path fill="none" stroke="#63b8ff" d="M2381,-131.46C2381,-119.07 2381,-104.99 2381,-96.18"/>
<polygon fill="#63b8ff" stroke="#63b8ff" points="2377.5,-131.09 2381,-141.09 2384.5,-131.09 2377.5,-131.09"/>
</g>
<!-- Node75 -->
<g id="node32" class="node">
<title>Node75</title>
<g id="a_node32"><a xlink:href="d__bg__s__movebg__actor_8cpp.html" target="_top" xlink:title=" ">
<polygon fill="white" stroke="#666666" points="2577,-101.5 2451,-101.5 2451,-71.5 2577,-71.5 2577,-101.5"/>
<text text-anchor="start" x="2459" y="-89.5" font-family="Helvetica,sans-Serif" font-size="10.00">src/d/bg/d_bg_s_movebg</text>
<text text-anchor="middle" x="2514" y="-78.5" font-family="Helvetica,sans-Serif" font-size="10.00">_actor.cpp</text>
</a>
</g>
</g>
<!-- Node3&#45;&gt;Node75 -->
<g id="edge36" class="edge">
<title>Node3&#45;&gt;Node75</title>
<path fill="none" stroke="#63b8ff" d="M2418.7,-137.3C2440.27,-126.03 2466.87,-112.13 2486.48,-101.88"/>
<polygon fill="#63b8ff" stroke="#63b8ff" points="2417.14,-134.17 2409.9,-141.9 2420.38,-140.37 2417.14,-134.17"/>
</g>
<!-- Node76 -->
<g id="node33" class="node">
<title>Node76</title>
<g id="a_node33"><a xlink:href="d__bg__w_8cpp.html" target="_top" xlink:title=" ">
<polygon fill="white" stroke="#666666" points="2702.5,-96 2595.5,-96 2595.5,-77 2702.5,-77 2702.5,-96"/>
<text text-anchor="middle" x="2649" y="-84" font-family="Helvetica,sans-Serif" font-size="10.00">src/d/bg/d_bg_w.cpp</text>
</a>
</g>
</g>
<!-- Node3&#45;&gt;Node76 -->
<g id="edge37" class="edge">
<title>Node3&#45;&gt;Node76</title>
<path fill="none" stroke="#63b8ff" d="M2447.5,-141.86C2487.75,-132.43 2540.01,-119.71 2586,-107 2597.7,-103.77 2610.51,-99.87 2621.51,-96.41"/>
<polygon fill="#63b8ff" stroke="#63b8ff" points="2446.9,-138.41 2437.96,-144.09 2448.49,-145.23 2446.9,-138.41"/>
</g>
<!-- Node77 -->
<g id="node34" class="node">
<title>Node77</title>
<g id="a_node34"><a xlink:href="d__cc__s_8cpp.html" target="_top" xlink:title=" ">
<polygon fill="white" stroke="#666666" points="2825,-96 2721,-96 2721,-77 2825,-77 2825,-96"/>
<text text-anchor="middle" x="2773" y="-84" font-family="Helvetica,sans-Serif" font-size="10.00">src/d/cc/d_cc_s.cpp</text>
</a>
</g>
</g>
<!-- Node3&#45;&gt;Node77 -->
<g id="edge38" class="edge">
<title>Node3&#45;&gt;Node77</title>
<path fill="none" stroke="#63b8ff" d="M2447.61,-149.97C2514.67,-142.17 2620.81,-127.88 2711,-107 2723.2,-104.17 2736.48,-100.13 2747.6,-96.46"/>
<polygon fill="#63b8ff" stroke="#63b8ff" points="2447.42,-146.47 2437.88,-151.08 2448.22,-153.42 2447.42,-146.47"/>
</g>
<!-- Node78 -->
<g id="node35" class="node">
<title>Node78</title>
<g id="a_node35"><a xlink:href="d__com__static_8cpp.html" target="_top" xlink:title=" ">
<polygon fill="white" stroke="#666666" points="2983,-96 2843,-96 2843,-77 2983,-77 2983,-96"/>
<text text-anchor="middle" x="2913" y="-84" font-family="Helvetica,sans-Serif" font-size="10.00">src/d/com/d_com_static.cpp</text>
</a>
</g>
</g>
<!-- Node3&#45;&gt;Node78 -->
<g id="edge40" class="edge">
<title>Node3&#45;&gt;Node78</title>
<path fill="none" stroke="#63b8ff" d="M2447.66,-152.41C2536.35,-145.68 2697.8,-131.22 2834,-107 2849.58,-104.23 2866.65,-100.15 2880.92,-96.44"/>
<polygon fill="#63b8ff" stroke="#63b8ff" points="2447.64,-148.9 2437.93,-153.14 2448.17,-155.88 2447.64,-148.9"/>
</g>
<!-- Node79 -->
<g id="node36" class="node">
<title>Node79</title>
<g id="a_node36"><a xlink:href="d__attention_8cpp.html" target="_top" xlink:title=" ">
<polygon fill="white" stroke="#666666" points="3108.5,-96 3001.5,-96 3001.5,-77 3108.5,-77 3108.5,-96"/>
<text text-anchor="middle" x="3055" y="-84" font-family="Helvetica,sans-Serif" font-size="10.00">src/d/d_attention.cpp</text>
</a>
</g>
</g>
<!-- Node3&#45;&gt;Node79 -->
<g id="edge41" class="edge">
<title>Node3&#45;&gt;Node79</title>
<path fill="none" stroke="#63b8ff" d="M2447.51,-156.29C2560.45,-154.04 2796.51,-144.78 2992,-107 3004.93,-104.5 3018.95,-100.31 3030.48,-96.46"/>
<polygon fill="#63b8ff" stroke="#63b8ff" points="2447.76,-152.79 2437.83,-156.47 2447.89,-159.79 2447.76,-152.79"/>
</g>
<!-- Node80 -->
<g id="node37" class="node">
<title>Node80</title>
<g id="a_node37"><a xlink:href="d__cam__param_8cpp.html" target="_top" xlink:title=" ">
<polygon fill="white" stroke="#666666" points="3247.5,-96 3126.5,-96 3126.5,-77 3247.5,-77 3247.5,-96"/>
<text text-anchor="middle" x="3187" y="-84" font-family="Helvetica,sans-Serif" font-size="10.00">src/d/d_cam_param.cpp</text>
</a>
</g>
</g>
<!-- Node3&#45;&gt;Node80 -->
<g id="edge42" class="edge">
<title>Node3&#45;&gt;Node80</title>
<path fill="none" stroke="#63b8ff" d="M2447.69,-157C2577.51,-156 2872.85,-148.85 3117,-107 3131.3,-104.55 3146.88,-100.37 3159.7,-96.5"/>
<polygon fill="#63b8ff" stroke="#63b8ff" points="2447.88,-153.5 2437.9,-157.06 2447.93,-160.5 2447.88,-153.5"/>
</g>
<!-- Node81 -->
<g id="node38" class="node">
<title>Node81</title>
<g id="a_node38"><a xlink:href="d__camera_8cpp.html" target="_top" xlink:title=" ">
<polygon fill="white" stroke="#666666" points="3368,-96 3266,-96 3266,-77 3368,-77 3368,-96"/>
<text text-anchor="middle" x="3317" y="-84" font-family="Helvetica,sans-Serif" font-size="10.00">src/d/d_camera.cpp</text>
</a>
</g>
</g>
<!-- Node3&#45;&gt;Node81 -->
<g id="edge43" class="edge">
<title>Node3&#45;&gt;Node81</title>
<path fill="none" stroke="#63b8ff" d="M2447.94,-155.36C2624.74,-150.67 3101.17,-135.69 3256,-107 3268.79,-104.63 3282.63,-100.35 3293.89,-96.41"/>
<polygon fill="#63b8ff" stroke="#63b8ff" points="2447.91,-151.86 2438,-155.62 2448.09,-158.86 2447.91,-151.86"/>
</g>
<!-- Node82 -->
<g id="node39" class="node">
<title>Node82</title>
<g id="a_node39"><a xlink:href="d__eye__hl_8cpp.html" target="_top" xlink:title=" ">
<polygon fill="white" stroke="#666666" points="3484,-96 3386,-96 3386,-77 3484,-77 3484,-96"/>
<text text-anchor="middle" x="3435" y="-84" font-family="Helvetica,sans-Serif" font-size="10.00">src/d/d_eye_hl.cpp</text>
</a>
</g>
</g>
<!-- Node3&#45;&gt;Node82 -->
<g id="edge45" class="edge">
<title>Node3&#45;&gt;Node82</title>
<path fill="none" stroke="#63b8ff" d="M2447.71,-156.03C2640.85,-152.84 3198.11,-140.89 3377,-107 3389.21,-104.69 3402.38,-100.41 3413.07,-96.46"/>
<polygon fill="#63b8ff" stroke="#63b8ff" points="2447.79,-152.53 2437.85,-156.19 2447.9,-159.53 2447.79,-152.53"/>
</g>
<!-- Node83 -->
<g id="node40" class="node">
<title>Node83</title>
<g id="a_node40"><a xlink:href="d__kyeff_8cpp.html" target="_top" xlink:title=" ">
<polygon fill="white" stroke="#666666" points="3592,-96 3502,-96 3502,-77 3592,-77 3592,-96"/>
<text text-anchor="middle" x="3547" y="-84" font-family="Helvetica,sans-Serif" font-size="10.00">src/d/d_kyeff.cpp</text>
</a>
</g>
</g>
<!-- Node3&#45;&gt;Node83 -->
<g id="edge46" class="edge">
<title>Node3&#45;&gt;Node83</title>
<path fill="none" stroke="#63b8ff" d="M2447.57,-156.63C2655.53,-155.06 3291.14,-147.02 3493,-107 3504.44,-104.73 3516.7,-100.46 3526.65,-96.5"/>
<polygon fill="#63b8ff" stroke="#63b8ff" points="2447.73,-153.13 2437.75,-156.7 2447.78,-160.13 2447.73,-153.13"/>
</g>
<!-- Node84 -->
<g id="node41" class="node">
<title>Node84</title>
<g id="a_node41"><a xlink:href="d__path_8cpp.html" target="_top" xlink:title=" ">
<polygon fill="white" stroke="#666666" points="3699.5,-96 3610.5,-96 3610.5,-77 3699.5,-77 3699.5,-96"/>
<text text-anchor="middle" x="3655" y="-84" font-family="Helvetica,sans-Serif" font-size="10.00">src/d/d_path.cpp</text>
</a>
</g>
</g>
<!-- Node3&#45;&gt;Node84 -->
<g id="edge47" class="edge">
<title>Node3&#45;&gt;Node84</title>
<path fill="none" stroke="#63b8ff" d="M2447.56,-156.94C2668.68,-156.32 3377.35,-150.88 3601,-107 3612.54,-104.74 3624.92,-100.42 3634.9,-96.42"/>
<polygon fill="#63b8ff" stroke="#63b8ff" points="2447.67,-153.44 2437.68,-156.96 2447.69,-160.44 2447.67,-153.44"/>
</g>
<!-- Node85 -->
<g id="node42" class="node">
<title>Node85</title>
<g id="a_node42"><a xlink:href="d__resorce_8cpp.html" target="_top" xlink:title=" ">
<polygon fill="white" stroke="#666666" points="3820,-96 3718,-96 3718,-77 3820,-77 3820,-96"/>
<text text-anchor="middle" x="3769" y="-84" font-family="Helvetica,sans-Serif" font-size="10.00">src/d/d_resorce.cpp</text>
</a>
</g>
</g>
<!-- Node3&#45;&gt;Node85 -->
<g id="edge48" class="edge">
<title>Node3&#45;&gt;Node85</title>
<path fill="none" stroke="#63b8ff" d="M2447.77,-156.88C2681.5,-156.07 3461.94,-150.13 3708,-107 3720.92,-104.73 3734.89,-100.41 3746.2,-96.42"/>
<polygon fill="#63b8ff" stroke="#63b8ff" points="2447.91,-153.38 2437.92,-156.91 2447.93,-160.38 2447.91,-153.38"/>
</g>
<!-- Node86 -->
<g id="node43" class="node">
<title>Node86</title>
<g id="a_node43"><a xlink:href="d__simple__model_8cpp.html" target="_top" xlink:title=" ">
<polygon fill="white" stroke="#666666" points="3968,-96 3838,-96 3838,-77 3968,-77 3968,-96"/>
<text text-anchor="middle" x="3903" y="-84" font-family="Helvetica,sans-Serif" font-size="10.00">src/d/d_simple_model.cpp</text>
</a>
</g>
</g>
<!-- Node3&#45;&gt;Node86 -->
<g id="edge49" class="edge">
<title>Node3&#45;&gt;Node86</title>
<path fill="none" stroke="#63b8ff" d="M2447.5,-156.67C2694.25,-155.15 3557.08,-147.01 3829,-107 3844.51,-104.72 3861.44,-100.4 3875.19,-96.4"/>
<polygon fill="#63b8ff" stroke="#63b8ff" points="2447.71,-153.17 2437.74,-156.73 2447.76,-160.17 2447.71,-153.17"/>
</g>
<!-- Node87 -->
<g id="node44" class="node">
<title>Node87</title>
<g id="a_node44"><a xlink:href="d__stage_8cpp.html" target="_top" xlink:title=" ">
<polygon fill="white" stroke="#666666" points="4080,-96 3986,-96 3986,-77 4080,-77 4080,-96"/>
<text text-anchor="middle" x="4033" y="-84" font-family="Helvetica,sans-Serif" font-size="10.00">src/d/d_stage.cpp</text>
</a>
</g>
</g>
<!-- Node3&#45;&gt;Node87 -->
<g id="edge50" class="edge">
<title>Node3&#45;&gt;Node87</title>
<path fill="none" stroke="#63b8ff" d="M2447.42,-156.11C2730.08,-152.15 3825.27,-135.11 3977,-107 3988.94,-104.79 4001.78,-100.47 4012.14,-96.46"/>
<polygon fill="#63b8ff" stroke="#63b8ff" points="2447.61,-152.6 2437.66,-156.24 2447.7,-159.6 2447.61,-152.6"/>
</g>
<!-- Node88 -->
<g id="node45" class="node">
<title>Node88</title>
<g id="a_node45"><a xlink:href="d__timer_8cpp.html" target="_top" xlink:title=" ">
<polygon fill="white" stroke="#666666" points="4190,-96 4098,-96 4098,-77 4190,-77 4190,-96"/>
<text text-anchor="middle" x="4144" y="-84" font-family="Helvetica,sans-Serif" font-size="10.00">src/d/d_timer.cpp</text>
</a>
</g>
</g>
<!-- Node3&#45;&gt;Node88 -->
<g id="edge51" class="edge">
<title>Node3&#45;&gt;Node88</title>
<path fill="none" stroke="#63b8ff" d="M2447.68,-156.27C2743.02,-152.89 3925.88,-137.52 4089,-107 4100.75,-104.8 4113.35,-100.49 4123.53,-96.47"/>
<polygon fill="#63b8ff" stroke="#63b8ff" points="2447.8,-152.77 2437.84,-156.39 2447.88,-159.77 2447.8,-152.77"/>
</g>
<!-- Node16&#45;&gt;Node13 -->
<g id="edge6" class="edge">
<title>Node16&#45;&gt;Node13</title>
<path fill="none" stroke="#63b8ff" d="M4490.46,-72.71C4482.3,-69.96 4473.43,-67.45 4465,-66 4094.19,-2.3 1454.39,-55.37 1079,-30 1060.33,-28.74 1040,-26.47 1021.85,-24.12"/>
<polygon fill="#63b8ff" stroke="#63b8ff" points="4489.02,-75.92 4499.61,-76.02 4491.4,-69.33 4489.02,-75.92"/>
</g>
<!-- Node16&#45;&gt;Node17 -->
<g id="edge7" class="edge">
<title>Node16&#45;&gt;Node17</title>
<path fill="none" stroke="#63b8ff" d="M4532.15,-66.93C4539.58,-53.35 4549.33,-35.51 4555.11,-24.95"/>
<polygon fill="#63b8ff" stroke="#63b8ff" points="4529.27,-64.92 4527.54,-75.37 4535.41,-68.27 4529.27,-64.92"/>
</g>
<!-- Node16&#45;&gt;Node18 -->
<g id="edge8" class="edge">
<title>Node16&#45;&gt;Node18</title>
<path fill="none" stroke="#63b8ff" d="M4489.95,-72.7C4481.92,-70 4473.25,-67.52 4465,-66 4195.35,-16.27 3324.01,-15.19 3097.32,-15.78"/>
<polygon fill="#63b8ff" stroke="#63b8ff" points="4488.73,-75.98 4499.32,-76.05 4491.09,-69.39 4488.73,-75.98"/>
</g>
<!-- Node41&#45;&gt;Node13 -->
<g id="edge16" class="edge">
<title>Node41&#45;&gt;Node13</title>
<path fill="none" stroke="#63b8ff" d="M994.49,-61.49C986.78,-48.74 977.79,-33.86 972.24,-24.68"/>
<polygon fill="#63b8ff" stroke="#63b8ff" points="991.35,-63.06 999.51,-69.8 997.34,-59.44 991.35,-63.06"/>
</g>
<!-- Node41&#45;&gt;Node46 -->
<g id="edge17" class="edge">
<title>Node41&#45;&gt;Node46</title>
<path fill="none" stroke="#63b8ff" d="M1045.08,-65.6C1069.44,-52.16 1100.4,-35.09 1118.9,-24.88"/>
<polygon fill="#63b8ff" stroke="#63b8ff" points="1043.5,-62.47 1036.43,-70.37 1046.88,-68.6 1043.5,-62.47"/>
</g>
<!-- Node57&#45;&gt;Node59 -->
<g id="edge20" class="edge">
<title>Node57&#45;&gt;Node59</title>
<path fill="none" stroke="#63b8ff" d="M4705.51,-70.46C4726.27,-56.58 4756.4,-36.45 4773.61,-24.95"/>
<polygon fill="#63b8ff" stroke="#63b8ff" points="4703.8,-67.39 4697.43,-75.86 4707.69,-73.21 4703.8,-67.39"/>
</g>
<!-- Node67&#45;&gt;Node13 -->
<g id="edge25" class="edge">
<title>Node67&#45;&gt;Node13</title>
<path fill="none" stroke="#63b8ff" d="M155.9,-68.24C159.64,-67.4 163.36,-66.64 167,-66 443.92,-17.66 781.92,-14.48 912.19,-15.28"/>
<polygon fill="#63b8ff" stroke="#63b8ff" points="155.07,-64.84 146.2,-70.64 156.75,-71.64 155.07,-64.84"/>
</g>
<!-- Node67&#45;&gt;Node68 -->
<g id="edge26" class="edge">
<title>Node67&#45;&gt;Node68</title>
<path fill="none" stroke="#63b8ff" d="M85.14,-61.49C77.26,-48.74 68.05,-33.86 62.37,-24.68"/>
<polygon fill="#63b8ff" stroke="#63b8ff" points="82.06,-63.15 90.29,-69.81 88.01,-59.47 82.06,-63.15"/>
</g>
<!-- Node109&#45;&gt;Node59 -->
<g id="edge54" class="edge">
<title>Node109&#45;&gt;Node59</title>
<path fill="none" stroke="#63b8ff" d="M4538.65,-146.02C4544.51,-144.98 4550.37,-143.96 4556,-143 4606.13,-134.45 4747.94,-144.76 4782,-107 4802.77,-83.97 4794.67,-42.86 4789.73,-24.86"/>
<polygon fill="#63b8ff" stroke="#63b8ff" points="4538.16,-142.55 4528.93,-147.76 4539.39,-149.44 4538.16,-142.55"/>
</g>
</g>
</svg>
