<?xml version="1.0" encoding="UTF-8" standalone="no"?>
<!DOCTYPE svg PUBLIC "-//W3C//DTD SVG 1.1//EN"
 "http://www.w3.org/Graphics/SVG/1.1/DTD/svg11.dtd">
<!-- Generated by graphviz version 7.0.4 (20221203.1631)
 -->
<!-- Title: include/f_op/f_op_scene_pause.h Pages: 1 -->
<svg width="4399pt" height="313pt"
 viewBox="0.00 0.00 4399.13 313.00" xmlns="http://www.w3.org/2000/svg" xmlns:xlink="http://www.w3.org/1999/xlink">
<g id="graph0" class="graph" transform="scale(1 1) rotate(0) translate(4 309)">
<title>include/f_op/f_op_scene_pause.h</title>
<!-- Node1 -->
<g id="node1" class="node">
<title>Node1</title>
<g id="a_node1"><a xlink:title=" ">
<polygon fill="#999999" stroke="#666666" points="3466.24,-305 3344.24,-305 3344.24,-275 3466.24,-275 3466.24,-305"/>
<text text-anchor="start" x="3352.24" y="-293" font-family="Helvetica,sans-Serif" font-size="10.00">include/f_op/f_op_scene</text>
<text text-anchor="middle" x="3405.24" y="-282" font-family="Helvetica,sans-Serif" font-size="10.00">_pause.h</text>
</a>
</g>
</g>
<!-- Node2 -->
<g id="node2" class="node">
<title>Node2</title>
<g id="a_node2"><a xlink:href="f__op__scene__mng_8h.html" target="_top" xlink:title=" ">
<polygon fill="white" stroke="#666666" points="3207.24,-239 3085.24,-239 3085.24,-209 3207.24,-209 3207.24,-239"/>
<text text-anchor="start" x="3093.24" y="-227" font-family="Helvetica,sans-Serif" font-size="10.00">include/f_op/f_op_scene</text>
<text text-anchor="middle" x="3146.24" y="-216" font-family="Helvetica,sans-Serif" font-size="10.00">_mng.h</text>
</a>
</g>
</g>
<!-- Node1&#45;&gt;Node2 -->
<g id="edge1" class="edge">
<title>Node1&#45;&gt;Node2</title>
<path fill="none" stroke="#63b8ff" d="M3335.78,-271.84C3294.74,-261.7 3243.38,-249 3204.47,-239.39"/>
<polygon fill="#63b8ff" stroke="#63b8ff" points="3334.77,-275.19 3345.32,-274.19 3336.45,-268.4 3334.77,-275.19"/>
</g>
<!-- Node112 -->
<g id="node47" class="node">
<title>Node112</title>
<g id="a_node47"><a xlink:href="f__op__scene__req_8h.html" target="_top" xlink:title=" ">
<polygon fill="white" stroke="#666666" points="3399.24,-239 3277.24,-239 3277.24,-209 3399.24,-209 3399.24,-239"/>
<text text-anchor="start" x="3285.24" y="-227" font-family="Helvetica,sans-Serif" font-size="10.00">include/f_op/f_op_scene</text>
<text text-anchor="middle" x="3338.24" y="-216" font-family="Helvetica,sans-Serif" font-size="10.00">_req.h</text>
</a>
</g>
</g>
<!-- Node1&#45;&gt;Node112 -->
<g id="edge60" class="edge">
<title>Node1&#45;&gt;Node112</title>
<path fill="none" stroke="#63b8ff" d="M3382.3,-267.09C3372.62,-257.85 3361.64,-247.36 3353.06,-239.16"/>
<polygon fill="#63b8ff" stroke="#63b8ff" points="3379.62,-269.37 3389.27,-273.75 3384.46,-264.31 3379.62,-269.37"/>
</g>
<!-- Node114 -->
<g id="node49" class="node">
<title>Node114</title>
<g id="a_node49"><a xlink:href="f__op__overlap__mng_8cpp.html" target="_top" xlink:title=" ">
<polygon fill="white" stroke="#666666" points="3527.24,-239 3417.24,-239 3417.24,-209 3527.24,-209 3527.24,-239"/>
<text text-anchor="start" x="3425.24" y="-227" font-family="Helvetica,sans-Serif" font-size="10.00">src/f_op/f_op_overlap</text>
<text text-anchor="middle" x="3472.24" y="-216" font-family="Helvetica,sans-Serif" font-size="10.00">_mng.cpp</text>
</a>
</g>
</g>
<!-- Node1&#45;&gt;Node114 -->
<g id="edge63" class="edge">
<title>Node1&#45;&gt;Node114</title>
<path fill="none" stroke="#63b8ff" d="M3428.18,-267.09C3437.85,-257.85 3448.83,-247.36 3457.41,-239.16"/>
<polygon fill="#63b8ff" stroke="#63b8ff" points="3426.01,-264.31 3421.2,-273.75 3430.85,-269.37 3426.01,-264.31"/>
</g>
<!-- Node115 -->
<g id="node50" class="node">
<title>Node115</title>
<g id="a_node50"><a xlink:href="f__op__scene__pause_8cpp.html" target="_top" xlink:title=" ">
<polygon fill="white" stroke="#666666" points="3650.74,-239 3545.74,-239 3545.74,-209 3650.74,-209 3650.74,-239"/>
<text text-anchor="start" x="3553.74" y="-227" font-family="Helvetica,sans-Serif" font-size="10.00">src/f_op/f_op_scene</text>
<text text-anchor="middle" x="3598.24" y="-216" font-family="Helvetica,sans-Serif" font-size="10.00">_pause.cpp</text>
</a>
</g>
</g>
<!-- Node1&#45;&gt;Node115 -->
<g id="edge64" class="edge">
<title>Node1&#45;&gt;Node115</title>
<path fill="none" stroke="#63b8ff" d="M3459.31,-271.07C3489.45,-261.07 3526.48,-248.79 3554.73,-239.43"/>
<polygon fill="#63b8ff" stroke="#63b8ff" points="3458.38,-267.69 3449.99,-274.16 3460.58,-274.34 3458.38,-267.69"/>
</g>
<!-- Node3 -->
<g id="node3" class="node">
<title>Node3</title>
<g id="a_node3"><a xlink:href="c__dylink_8h.html" target="_top" xlink:title=" ">
<polygon fill="white" stroke="#666666" points="3267.74,-167.5 3166.74,-167.5 3166.74,-148.5 3267.74,-148.5 3267.74,-167.5"/>
<text text-anchor="middle" x="3217.24" y="-155.5" font-family="Helvetica,sans-Serif" font-size="10.00">include/c/c_dylink.h</text>
</a>
</g>
</g>
<!-- Node2&#45;&gt;Node3 -->
<g id="edge2" class="edge">
<title>Node2&#45;&gt;Node3</title>
<path fill="none" stroke="#63b8ff" d="M3170.34,-201.27C3183.03,-189.84 3197.89,-176.44 3207.42,-167.84"/>
<polygon fill="#63b8ff" stroke="#63b8ff" points="3168.2,-198.49 3163.12,-207.78 3172.89,-203.69 3168.2,-198.49"/>
</g>
<!-- Node7 -->
<g id="node7" class="node">
<title>Node7</title>
<g id="a_node7"><a xlink:href="d__com__inf__game_8h.html" target="_top" xlink:title=" ">
<polygon fill="#fff0f0" stroke="red" points="2124.24,-173 2014.24,-173 2014.24,-143 2124.24,-143 2124.24,-173"/>
<text text-anchor="start" x="2022.24" y="-161" font-family="Helvetica,sans-Serif" font-size="10.00">include/d/com/d_com</text>
<text text-anchor="middle" x="2069.24" y="-150" font-family="Helvetica,sans-Serif" font-size="10.00">_inf_game.h</text>
</a>
</g>
</g>
<!-- Node2&#45;&gt;Node7 -->
<g id="edge6" class="edge">
<title>Node2&#45;&gt;Node7</title>
<path fill="none" stroke="#63b8ff" d="M3073.48,-218.68C2871.04,-206.65 2304.27,-172.97 2124.61,-162.29"/>
<polygon fill="#63b8ff" stroke="#63b8ff" points="3073.15,-222.16 3083.34,-219.26 3073.57,-215.18 3073.15,-222.16"/>
</g>
<!-- Node24 -->
<g id="node14" class="node">
<title>Node24</title>
<g id="a_node14"><a xlink:href="d__s__play_8cpp.html" target="_top" xlink:title=" ">
<polygon fill="white" stroke="#666666" points="383.24,-24.5 277.24,-24.5 277.24,-5.5 383.24,-5.5 383.24,-24.5"/>
<text text-anchor="middle" x="330.24" y="-12.5" font-family="Helvetica,sans-Serif" font-size="10.00">src/d/s/d_s_play.cpp</text>
</a>
</g>
</g>
<!-- Node2&#45;&gt;Node24 -->
<g id="edge57" class="edge">
<title>Node2&#45;&gt;Node24</title>
<path fill="none" stroke="#63b8ff" d="M3073.44,-223.13C2612.84,-223.61 119.05,-220.95 9.24,-107 -3.41,-93.88 -2.62,-79.84 9.24,-66 26.41,-45.95 190.2,-28.48 276.93,-20.54"/>
<polygon fill="#63b8ff" stroke="#63b8ff" points="3073.38,-226.63 3083.38,-223.12 3073.38,-219.63 3073.38,-226.63"/>
</g>
<!-- Node110 -->
<g id="node45" class="node">
<title>Node110</title>
<g id="a_node45"><a xlink:href="f__ap__game_8cpp.html" target="_top" xlink:title=" ">
<polygon fill="white" stroke="#666666" points="1995.74,-167.5 1874.74,-167.5 1874.74,-148.5 1995.74,-148.5 1995.74,-167.5"/>
<text text-anchor="middle" x="1935.24" y="-155.5" font-family="Helvetica,sans-Serif" font-size="10.00">src/f_ap/f_ap_game.cpp</text>
</a>
</g>
</g>
<!-- Node2&#45;&gt;Node110 -->
<g id="edge58" class="edge">
<title>Node2&#45;&gt;Node110</title>
<path fill="none" stroke="#63b8ff" d="M3073.24,-223.68C2891.85,-224.51 2406.35,-221.61 2005.24,-173 1995.27,-171.79 1984.6,-169.95 1974.68,-167.99"/>
<polygon fill="#63b8ff" stroke="#63b8ff" points="3073.24,-227.18 3083.23,-223.62 3073.21,-220.18 3073.24,-227.18"/>
</g>
<!-- Node111 -->
<g id="node46" class="node">
<title>Node111</title>
<g id="a_node46"><a xlink:href="f__op__scene__mng_8cpp.html" target="_top" xlink:title=" ">
<polygon fill="white" stroke="#666666" points="3390.74,-173 3285.74,-173 3285.74,-143 3390.74,-143 3390.74,-173"/>
<text text-anchor="start" x="3293.74" y="-161" font-family="Helvetica,sans-Serif" font-size="10.00">src/f_op/f_op_scene</text>
<text text-anchor="middle" x="3338.24" y="-150" font-family="Helvetica,sans-Serif" font-size="10.00">_mng.cpp</text>
</a>
</g>
</g>
<!-- Node2&#45;&gt;Node111 -->
<g id="edge59" class="edge">
<title>Node2&#45;&gt;Node111</title>
<path fill="none" stroke="#63b8ff" d="M3200.03,-205.07C3230.02,-195.07 3266.86,-182.79 3294.96,-173.43"/>
<polygon fill="#63b8ff" stroke="#63b8ff" points="3199.14,-201.68 3190.76,-208.16 3201.35,-208.32 3199.14,-201.68"/>
</g>
<!-- Node4 -->
<g id="node4" class="node">
<title>Node4</title>
<g id="a_node4"><a xlink:href="c__dylink_8cpp.html" target="_top" xlink:title=" ">
<polygon fill="white" stroke="#666666" points="4223.74,-96 4128.74,-96 4128.74,-77 4223.74,-77 4223.74,-96"/>
<text text-anchor="middle" x="4176.24" y="-84" font-family="Helvetica,sans-Serif" font-size="10.00">src/c/c_dylink.cpp</text>
</a>
</g>
</g>
<!-- Node3&#45;&gt;Node4 -->
<g id="edge3" class="edge">
<title>Node3&#45;&gt;Node4</title>
<path fill="none" stroke="#63b8ff" d="M3261.07,-145.63C3266.16,-144.6 3271.29,-143.69 3276.24,-143 3648.13,-91.42 3751.46,-177.49 4120.24,-107 4132.17,-104.72 4145,-100.4 4155.36,-96.4"/>
<polygon fill="#63b8ff" stroke="#63b8ff" points="3260.6,-142.15 3251.58,-147.71 3262.1,-148.99 3260.6,-142.15"/>
</g>
<!-- Node5 -->
<g id="node5" class="node">
<title>Node5</title>
<g id="a_node5"><a xlink:href="d__s__logo_8cpp.html" target="_top" xlink:title=" ">
<polygon fill="white" stroke="#666666" points="4280.74,-24.5 4173.74,-24.5 4173.74,-5.5 4280.74,-5.5 4280.74,-24.5"/>
<text text-anchor="middle" x="4227.24" y="-12.5" font-family="Helvetica,sans-Serif" font-size="10.00">src/d/s/d_s_logo.cpp</text>
</a>
</g>
</g>
<!-- Node3&#45;&gt;Node5 -->
<g id="edge4" class="edge">
<title>Node3&#45;&gt;Node5</title>
<path fill="none" stroke="#63b8ff" d="M3260.88,-145.62C3266.03,-144.58 3271.23,-143.67 3276.24,-143 3337.17,-134.86 4339.48,-151.17 4382.24,-107 4394.91,-93.91 4392.96,-80.73 4382.24,-66 4359.27,-34.46 4316.02,-22.39 4281.03,-17.97"/>
<polygon fill="#63b8ff" stroke="#63b8ff" points="3260.28,-142.16 3251.26,-147.72 3261.78,-149 3260.28,-142.16"/>
</g>
<!-- Node6 -->
<g id="node6" class="node">
<title>Node6</title>
<g id="a_node6"><a xlink:href="m__Do__main_8cpp.html" target="_top" xlink:title=" ">
<polygon fill="white" stroke="#666666" points="4372.74,-96 4241.74,-96 4241.74,-77 4372.74,-77 4372.74,-96"/>
<text text-anchor="middle" x="4307.24" y="-84" font-family="Helvetica,sans-Serif" font-size="10.00">src/m_Do/m_Do_main.cpp</text>
</a>
</g>
</g>
<!-- Node3&#45;&gt;Node6 -->
<g id="edge5" class="edge">
<title>Node3&#45;&gt;Node6</title>
<path fill="none" stroke="#63b8ff" d="M3261.07,-145.6C3266.15,-144.58 3271.29,-143.67 3276.24,-143 3697.98,-85.59 3812.23,-169.61 4233.24,-107 4248.61,-104.71 4265.39,-100.44 4279.08,-96.48"/>
<polygon fill="#63b8ff" stroke="#63b8ff" points="3260.6,-142.12 3251.58,-147.68 3262.09,-148.96 3260.6,-142.12"/>
</g>
<!-- Node7&#45;&gt;Node4 -->
<g id="edge37" class="edge">
<title>Node7&#45;&gt;Node4</title>
<path fill="none" stroke="#63b8ff" d="M2135.92,-155.96C2477.67,-150.53 4020.56,-125.11 4120.24,-107 4132.19,-104.83 4145.02,-100.52 4155.38,-96.5"/>
<polygon fill="#63b8ff" stroke="#63b8ff" points="2135.97,-152.45 2126.02,-156.11 2136.08,-159.45 2135.97,-152.45"/>
</g>
<!-- Node7&#45;&gt;Node6 -->
<g id="edge56" class="edge">
<title>Node7&#45;&gt;Node6</title>
<path fill="none" stroke="#63b8ff" d="M2135.85,-155.9C2488.67,-150.02 4127.03,-122.01 4233.24,-107 4248.76,-104.81 4265.69,-100.49 4279.44,-96.48"/>
<polygon fill="#63b8ff" stroke="#63b8ff" points="2136.03,-152.4 2126.09,-156.06 2136.14,-159.4 2136.03,-152.4"/>
</g>
<!-- Node8 -->
<g id="node8" class="node">
<title>Node8</title>
<g id="a_node8"><a xlink:href="d__a__npc_8h.html" target="_top" xlink:title=" ">
<polygon fill="#fff0f0" stroke="red" points="129.74,-96 18.74,-96 18.74,-77 129.74,-77 129.74,-96"/>
<text text-anchor="middle" x="74.24" y="-84" font-family="Helvetica,sans-Serif" font-size="10.00">include/d/a/d_a_npc.h</text>
</a>
</g>
</g>
<!-- Node7&#45;&gt;Node8 -->
<g id="edge7" class="edge">
<title>Node7&#45;&gt;Node8</title>
<path fill="none" stroke="#63b8ff" d="M2002.77,-143.08C1573.96,-96.46 544.24,-171.49 138.24,-107 124.58,-104.83 109.8,-100.47 97.88,-96.41"/>
<polygon fill="#63b8ff" stroke="#63b8ff" points="2002.21,-146.54 2012.53,-144.18 2002.99,-139.59 2002.21,-146.54"/>
</g>
<!-- Node14 -->
<g id="node9" class="node">
<title>Node14</title>
<g id="a_node9"><a xlink:href="d__cc__uty_8h.html" target="_top" xlink:title=" ">
<polygon fill="#fff0f0" stroke="red" points="1009.74,-96 890.74,-96 890.74,-77 1009.74,-77 1009.74,-96"/>
<text text-anchor="middle" x="950.24" y="-84" font-family="Helvetica,sans-Serif" font-size="10.00">include/d/cc/d_cc_uty.h</text>
</a>
</g>
</g>
<!-- Node7&#45;&gt;Node14 -->
<g id="edge8" class="edge">
<title>Node7&#45;&gt;Node14</title>
<path fill="none" stroke="#63b8ff" d="M2002.7,-143.02C1567.07,-90.11 1447.6,-175.36 1018.24,-107 1003.92,-104.72 988.36,-100.4 975.74,-96.4"/>
<polygon fill="#63b8ff" stroke="#63b8ff" points="2002.17,-146.48 2012.53,-144.23 2003.03,-139.54 2002.17,-146.48"/>
</g>
<!-- Node20 -->
<g id="node10" class="node">
<title>Node20</title>
<g id="a_node10"><a xlink:href="d__item_8h.html" target="_top" xlink:title=" ">
<polygon fill="#fff0f0" stroke="red" points="833.74,-96 738.74,-96 738.74,-77 833.74,-77 833.74,-96"/>
<text text-anchor="middle" x="786.24" y="-84" font-family="Helvetica,sans-Serif" font-size="10.00">include/d/d_item.h</text>
</a>
</g>
</g>
<!-- Node7&#45;&gt;Node20 -->
<g id="edge9" class="edge">
<title>Node7&#45;&gt;Node20</title>
<path fill="none" stroke="#63b8ff" d="M2002.67,-143.03C1491.95,-82.26 1351.32,-192.28 848.24,-107 835.11,-104.77 820.91,-100.46 809.42,-96.45"/>
<polygon fill="#63b8ff" stroke="#63b8ff" points="2002.18,-146.49 2012.53,-144.22 2003.02,-139.54 2002.18,-146.49"/>
</g>
<!-- Node17 -->
<g id="node11" class="node">
<title>Node17</title>
<g id="a_node11"><a xlink:href="d__a__alink_8cpp.html" target="_top" xlink:title=" ">
<polygon fill="white" stroke="#666666" points="602.74,-24.5 493.74,-24.5 493.74,-5.5 602.74,-5.5 602.74,-24.5"/>
<text text-anchor="middle" x="548.24" y="-12.5" font-family="Helvetica,sans-Serif" font-size="10.00">src/d/a/d_a_alink.cpp</text>
</a>
</g>
</g>
<!-- Node7&#45;&gt;Node17 -->
<g id="edge38" class="edge">
<title>Node7&#45;&gt;Node17</title>
<path fill="none" stroke="#63b8ff" d="M2002.61,-143.49C1846.32,-135.13 614.37,-160.07 557.24,-107 534.32,-85.71 541.34,-43.3 545.8,-24.88"/>
<polygon fill="#63b8ff" stroke="#63b8ff" points="2002.29,-146.98 2012.53,-144.26 2002.83,-140 2002.29,-146.98"/>
</g>
<!-- Node21 -->
<g id="node12" class="node">
<title>Node21</title>
<g id="a_node12"><a xlink:href="d__a__obj__item_8cpp.html" target="_top" xlink:title=" ">
<polygon fill="white" stroke="#666666" points="907.74,-24.5 782.74,-24.5 782.74,-5.5 907.74,-5.5 907.74,-24.5"/>
<text text-anchor="middle" x="845.24" y="-12.5" font-family="Helvetica,sans-Serif" font-size="10.00">src/d/a/d_a_obj_item.cpp</text>
</a>
</g>
</g>
<!-- Node7&#45;&gt;Node21 -->
<g id="edge41" class="edge">
<title>Node7&#45;&gt;Node21</title>
<path fill="none" stroke="#63b8ff" d="M2002.67,-143.49C1870.54,-135.88 930.44,-141.62 881.24,-107 853.72,-87.64 847.23,-43.79 845.71,-24.92"/>
<polygon fill="#63b8ff" stroke="#63b8ff" points="2002.28,-146.97 2012.52,-144.28 2002.84,-139.99 2002.28,-146.97"/>
</g>
<!-- Node22 -->
<g id="node13" class="node">
<title>Node22</title>
<g id="a_node13"><a xlink:href="d__com__inf__game_8cpp.html" target="_top" xlink:title=" ">
<polygon fill="white" stroke="#666666" points="1372.24,-30 1264.24,-30 1264.24,0 1372.24,0 1372.24,-30"/>
<text text-anchor="start" x="1272.24" y="-18" font-family="Helvetica,sans-Serif" font-size="10.00">src/d/com/d_com_inf</text>
<text text-anchor="middle" x="1318.24" y="-7" font-family="Helvetica,sans-Serif" font-size="10.00">_game.cpp</text>
</a>
</g>
</g>
<!-- Node7&#45;&gt;Node22 -->
<g id="edge47" class="edge">
<title>Node7&#45;&gt;Node22</title>
<path fill="none" stroke="#63b8ff" d="M2002.82,-142.99C1856.43,-122.03 1803.43,-171.5 1675.24,-107 1653.04,-95.83 1659.16,-77.68 1637.24,-66 1592.4,-42.12 1451.14,-26.99 1372.48,-20.19"/>
<polygon fill="#63b8ff" stroke="#63b8ff" points="2002.08,-146.41 2012.49,-144.47 2003.14,-139.49 2002.08,-146.41"/>
</g>
<!-- Node25 -->
<g id="node15" class="node">
<title>Node25</title>
<g id="a_node15"><a xlink:href="d__kantera__icon__meter_8h.html" target="_top" xlink:title=" ">
<polygon fill="#fff0f0" stroke="red" points="1128.74,-101.5 1027.74,-101.5 1027.74,-71.5 1128.74,-71.5 1128.74,-101.5"/>
<text text-anchor="start" x="1035.74" y="-89.5" font-family="Helvetica,sans-Serif" font-size="10.00">include/d/d_kantera</text>
<text text-anchor="middle" x="1078.24" y="-78.5" font-family="Helvetica,sans-Serif" font-size="10.00">_icon_meter.h</text>
</a>
</g>
</g>
<!-- Node7&#45;&gt;Node25 -->
<g id="edge14" class="edge">
<title>Node7&#45;&gt;Node25</title>
<path fill="none" stroke="#63b8ff" d="M2002.61,-143C1619.59,-95.81 1512.94,-175.5 1137.24,-107 1130.55,-105.78 1123.58,-103.98 1116.87,-101.96"/>
<polygon fill="#63b8ff" stroke="#63b8ff" points="2002.17,-146.48 2012.53,-144.25 2003.04,-139.53 2002.17,-146.48"/>
</g>
<!-- Node28 -->
<g id="node16" class="node">
<title>Node28</title>
<g id="a_node16"><a xlink:href="d__model_8h.html" target="_top" xlink:title=" ">
<polygon fill="#fff0f0" stroke="red" points="381.74,-96 278.74,-96 278.74,-77 381.74,-77 381.74,-96"/>
<text text-anchor="middle" x="330.24" y="-84" font-family="Helvetica,sans-Serif" font-size="10.00">include/d/d_model.h</text>
</a>
</g>
</g>
<!-- Node7&#45;&gt;Node28 -->
<g id="edge15" class="edge">
<title>Node7&#45;&gt;Node28</title>
<path fill="none" stroke="#63b8ff" d="M2002.61,-143.07C1629.7,-102.39 741.22,-165.59 391.24,-107 378.19,-104.82 364.09,-100.45 352.74,-96.4"/>
<polygon fill="#63b8ff" stroke="#63b8ff" points="2002.2,-146.54 2012.53,-144.19 2002.99,-139.59 2002.2,-146.54"/>
</g>
<!-- Node30 -->
<g id="node17" class="node">
<title>Node30</title>
<g id="a_node17"><a xlink:href="d__name_8h.html" target="_top" xlink:title=" ">
<polygon fill="#fff0f0" stroke="red" points="1247.74,-96 1146.74,-96 1146.74,-77 1247.74,-77 1247.74,-96"/>
<text text-anchor="middle" x="1197.24" y="-84" font-family="Helvetica,sans-Serif" font-size="10.00">include/d/d_name.h</text>
</a>
</g>
</g>
<!-- Node7&#45;&gt;Node30 -->
<g id="edge17" class="edge">
<title>Node7&#45;&gt;Node30</title>
<path fill="none" stroke="#63b8ff" d="M2002.68,-143C1672.6,-101.35 1580.51,-166.22 1257.24,-107 1244.63,-104.69 1231.01,-100.42 1219.94,-96.46"/>
<polygon fill="#63b8ff" stroke="#63b8ff" points="2002.16,-146.46 2012.52,-144.27 2003.05,-139.52 2002.16,-146.46"/>
</g>
<!-- Node32 -->
<g id="node18" class="node">
<title>Node32</title>
<g id="a_node18"><a xlink:href="d__file__sel__info_8h.html" target="_top" xlink:title=" ">
<polygon fill="#fff0f0" stroke="red" points="1362.24,-101.5 1266.24,-101.5 1266.24,-71.5 1362.24,-71.5 1362.24,-101.5"/>
<text text-anchor="start" x="1274.24" y="-89.5" font-family="Helvetica,sans-Serif" font-size="10.00">include/d/file/d_file</text>
<text text-anchor="middle" x="1314.24" y="-78.5" font-family="Helvetica,sans-Serif" font-size="10.00">_sel_info.h</text>
</a>
</g>
</g>
<!-- Node7&#45;&gt;Node32 -->
<g id="edge18" class="edge">
<title>Node7&#45;&gt;Node32</title>
<path fill="none" stroke="#63b8ff" d="M2002.7,-142.99C1722.92,-106.67 1644.13,-160.39 1371.24,-107 1364.87,-105.75 1358.25,-103.97 1351.86,-101.98"/>
<polygon fill="#63b8ff" stroke="#63b8ff" points="2002.15,-146.45 2012.52,-144.3 2003.07,-139.51 2002.15,-146.45"/>
</g>
<!-- Node35 -->
<g id="node19" class="node">
<title>Node35</title>
<g id="a_node19"><a xlink:href="d__file__sel__warning_8h.html" target="_top" xlink:title=" ">
<polygon fill="#fff0f0" stroke="red" points="1476.24,-101.5 1380.24,-101.5 1380.24,-71.5 1476.24,-71.5 1476.24,-101.5"/>
<text text-anchor="start" x="1388.24" y="-89.5" font-family="Helvetica,sans-Serif" font-size="10.00">include/d/file/d_file</text>
<text text-anchor="middle" x="1428.24" y="-78.5" font-family="Helvetica,sans-Serif" font-size="10.00">_sel_warning.h</text>
</a>
</g>
</g>
<!-- Node7&#45;&gt;Node35 -->
<g id="edge19" class="edge">
<title>Node7&#45;&gt;Node35</title>
<path fill="none" stroke="#63b8ff" d="M2002.95,-143.01C1773.28,-111.87 1708.33,-152.09 1485.24,-107 1478.88,-105.72 1472.26,-103.91 1465.87,-101.91"/>
<polygon fill="#63b8ff" stroke="#63b8ff" points="2002.13,-146.43 2012.51,-144.34 2003.09,-139.49 2002.13,-146.43"/>
</g>
<!-- Node37 -->
<g id="node20" class="node">
<title>Node37</title>
<g id="a_node20"><a xlink:href="d__meter2_8h.html" target="_top" xlink:title=" ">
<polygon fill="#fff0f0" stroke="red" points="1628.24,-96 1494.24,-96 1494.24,-77 1628.24,-77 1628.24,-96"/>
<text text-anchor="middle" x="1561.24" y="-84" font-family="Helvetica,sans-Serif" font-size="10.00">include/d/meter/d_meter2.h</text>
</a>
</g>
</g>
<!-- Node7&#45;&gt;Node37 -->
<g id="edge20" class="edge">
<title>Node7&#45;&gt;Node37</title>
<path fill="none" stroke="#63b8ff" d="M2002.77,-142.92C1842.52,-118.64 1798.07,-133.38 1642.24,-107 1626.12,-104.27 1608.45,-100.15 1593.74,-96.4"/>
<polygon fill="#63b8ff" stroke="#63b8ff" points="2002.08,-146.36 2012.5,-144.43 2003.15,-139.44 2002.08,-146.36"/>
</g>
<!-- Node45 -->
<g id="node21" class="node">
<title>Node45</title>
<g id="a_node21"><a xlink:href="d__msg__object_8h.html" target="_top" xlink:title=" ">
<polygon fill="#fff0f0" stroke="red" points="510.24,-101.5 400.24,-101.5 400.24,-71.5 510.24,-71.5 510.24,-101.5"/>
<text text-anchor="start" x="408.24" y="-89.5" font-family="Helvetica,sans-Serif" font-size="10.00">include/d/msg/d_msg</text>
<text text-anchor="middle" x="455.24" y="-78.5" font-family="Helvetica,sans-Serif" font-size="10.00">_object.h</text>
</a>
</g>
</g>
<!-- Node7&#45;&gt;Node45 -->
<g id="edge21" class="edge">
<title>Node7&#45;&gt;Node45</title>
<path fill="none" stroke="#63b8ff" d="M2002.77,-143.08C1659.41,-105.32 845.96,-155.58 524.24,-107 516.36,-105.81 508.11,-104 500.16,-101.95"/>
<polygon fill="#63b8ff" stroke="#63b8ff" points="2002.2,-146.54 2012.53,-144.2 2003,-139.58 2002.2,-146.54"/>
</g>
<!-- Node50 -->
<g id="node22" class="node">
<title>Node50</title>
<g id="a_node22"><a xlink:href="d__demo_8cpp.html" target="_top" xlink:title=" ">
<polygon fill="white" stroke="#666666" points="148.24,-24.5 54.24,-24.5 54.24,-5.5 148.24,-5.5 148.24,-24.5"/>
<text text-anchor="middle" x="101.24" y="-12.5" font-family="Helvetica,sans-Serif" font-size="10.00">src/d/d_demo.cpp</text>
</a>
</g>
</g>
<!-- Node7&#45;&gt;Node50 -->
<g id="edge52" class="edge">
<title>Node7&#45;&gt;Node50</title>
<path fill="none" stroke="#63b8ff" d="M2002.69,-143.68C1832.18,-137.21 46.86,-145.31 9.24,-107 -3.53,-94 -0.08,-81.66 9.24,-66 21.69,-45.06 46.31,-32.34 66.95,-24.98"/>
<polygon fill="#63b8ff" stroke="#63b8ff" points="2002.34,-147.16 2012.53,-144.26 2002.75,-140.17 2002.34,-147.16"/>
</g>
<!-- Node59 -->
<g id="node23" class="node">
<title>Node59</title>
<g id="a_node23"><a xlink:href="d__s__logo_8h.html" target="_top" xlink:title=" ">
<polygon fill="white" stroke="#666666" points="4110.74,-96 3997.74,-96 3997.74,-77 4110.74,-77 4110.74,-96"/>
<text text-anchor="middle" x="4054.24" y="-84" font-family="Helvetica,sans-Serif" font-size="10.00">include/d/s/d_s_logo.h</text>
</a>
</g>
</g>
<!-- Node7&#45;&gt;Node59 -->
<g id="edge25" class="edge">
<title>Node7&#45;&gt;Node59</title>
<path fill="none" stroke="#63b8ff" d="M2135.71,-156.31C2452.73,-152.91 3803.45,-136.74 3989.24,-107 4002.96,-104.8 4017.85,-100.49 4029.9,-96.47"/>
<polygon fill="#63b8ff" stroke="#63b8ff" points="2135.91,-152.81 2125.95,-156.42 2135.98,-159.81 2135.91,-152.81"/>
</g>
<!-- Node60 -->
<g id="node24" class="node">
<title>Node60</title>
<g id="a_node24"><a xlink:href="d__s__play_8h.html" target="_top" xlink:title=" ">
<polygon fill="#fff0f0" stroke="red" points="260.74,-96 147.74,-96 147.74,-77 260.74,-77 260.74,-96"/>
<text text-anchor="middle" x="204.24" y="-84" font-family="Helvetica,sans-Serif" font-size="10.00">include/d/s/d_s_play.h</text>
</a>
</g>
</g>
<!-- Node7&#45;&gt;Node60 -->
<g id="edge27" class="edge">
<title>Node7&#45;&gt;Node60</title>
<path fill="none" stroke="#63b8ff" d="M2002.66,-143.07C1602.77,-99.49 646.56,-166.38 269.24,-107 255.39,-104.82 240.37,-100.45 228.26,-96.4"/>
<polygon fill="#63b8ff" stroke="#63b8ff" points="2002.2,-146.54 2012.53,-144.19 2002.99,-139.59 2002.2,-146.54"/>
</g>
<!-- Node64 -->
<g id="node25" class="node">
<title>Node64</title>
<g id="a_node25"><a xlink:href="d__msg__scrn__base_8h.html" target="_top" xlink:title=" ">
<polygon fill="#fff0f0" stroke="red" points="1783.74,-101.5 1684.74,-101.5 1684.74,-71.5 1783.74,-71.5 1783.74,-101.5"/>
<text text-anchor="start" x="1692.74" y="-89.5" font-family="Helvetica,sans-Serif" font-size="10.00">include/msg/scrn/d</text>
<text text-anchor="middle" x="1734.24" y="-78.5" font-family="Helvetica,sans-Serif" font-size="10.00">_msg_scrn_base.h</text>
</a>
</g>
</g>
<!-- Node7&#45;&gt;Node64 -->
<g id="edge29" class="edge">
<title>Node7&#45;&gt;Node64</title>
<path fill="none" stroke="#63b8ff" d="M2002.74,-142.8C1908.41,-125.29 1881.48,-129.43 1792.24,-107 1786.47,-105.55 1780.45,-103.8 1774.56,-101.95"/>
<polygon fill="#63b8ff" stroke="#63b8ff" points="2001.99,-146.22 2012.46,-144.64 2003.29,-139.34 2001.99,-146.22"/>
</g>
<!-- Node68 -->
<g id="node26" class="node">
<title>Node68</title>
<g id="a_node26"><a xlink:href="d__a__b__zant_8h.html" target="_top" xlink:title=" ">
<polygon fill="white" stroke="#666666" points="1922.74,-101.5 1801.74,-101.5 1801.74,-71.5 1922.74,-71.5 1922.74,-101.5"/>
<text text-anchor="start" x="1809.74" y="-89.5" font-family="Helvetica,sans-Serif" font-size="10.00">include/rel/d/a/b/d</text>
<text text-anchor="middle" x="1862.24" y="-78.5" font-family="Helvetica,sans-Serif" font-size="10.00">_a_b_zant/d_a_b_zant.h</text>
</a>
</g>
</g>
<!-- Node7&#45;&gt;Node68 -->
<g id="edge30" class="edge">
<title>Node7&#45;&gt;Node68</title>
<path fill="none" stroke="#63b8ff" d="M2015.33,-138.9C1981.05,-127.39 1937.28,-112.69 1905.32,-101.97"/>
<polygon fill="#63b8ff" stroke="#63b8ff" points="2014.07,-142.17 2024.66,-142.03 2016.29,-135.53 2014.07,-142.17"/>
</g>
<!-- Node69 -->
<g id="node27" class="node">
<title>Node69</title>
<g id="a_node27"><a xlink:href="d__a__skip__2D_8h.html" target="_top" xlink:title=" ">
<polygon fill="white" stroke="#666666" points="2065.24,-101.5 1941.24,-101.5 1941.24,-71.5 2065.24,-71.5 2065.24,-101.5"/>
<text text-anchor="start" x="1949.24" y="-89.5" font-family="Helvetica,sans-Serif" font-size="10.00">include/rel/d/a/d_a</text>
<text text-anchor="middle" x="2003.24" y="-78.5" font-family="Helvetica,sans-Serif" font-size="10.00">_skip_2D/d_a_skip_2D.h</text>
</a>
</g>
</g>
<!-- Node7&#45;&gt;Node69 -->
<g id="edge31" class="edge">
<title>Node7&#45;&gt;Node69</title>
<path fill="none" stroke="#63b8ff" d="M2047.85,-134.48C2037.68,-123.78 2025.83,-111.29 2016.89,-101.88"/>
<polygon fill="#63b8ff" stroke="#63b8ff" points="2045.09,-136.66 2054.52,-141.5 2050.17,-131.84 2045.09,-136.66"/>
</g>
<!-- Node70 -->
<g id="node28" class="node">
<title>Node70</title>
<g id="a_node28"><a xlink:href="d__a__spinner_8h.html" target="_top" xlink:title=" ">
<polygon fill="white" stroke="#666666" points="682.24,-101.5 566.24,-101.5 566.24,-71.5 682.24,-71.5 682.24,-101.5"/>
<text text-anchor="start" x="574.24" y="-89.5" font-family="Helvetica,sans-Serif" font-size="10.00">include/rel/d/a/d_a</text>
<text text-anchor="middle" x="624.24" y="-78.5" font-family="Helvetica,sans-Serif" font-size="10.00">_spinner/d_a_spinner.h</text>
</a>
</g>
</g>
<!-- Node7&#45;&gt;Node70 -->
<g id="edge32" class="edge">
<title>Node7&#45;&gt;Node70</title>
<path fill="none" stroke="#63b8ff" d="M2002.91,-143.06C1424.86,-74.97 1267.95,-191.07 696.24,-107 688.04,-105.79 679.44,-103.97 671.15,-101.92"/>
<polygon fill="#63b8ff" stroke="#63b8ff" points="2002.19,-146.5 2012.53,-144.21 2003.02,-139.55 2002.19,-146.5"/>
</g>
<!-- Node71 -->
<g id="node29" class="node">
<title>Node71</title>
<g id="a_node29"><a xlink:href="d__a__player_8cpp.html" target="_top" xlink:title=" ">
<polygon fill="white" stroke="#666666" points="746.24,-24.5 632.24,-24.5 632.24,-5.5 746.24,-5.5 746.24,-24.5"/>
<text text-anchor="middle" x="689.24" y="-12.5" font-family="Helvetica,sans-Serif" font-size="10.00">src/d/a/d_a_player.cpp</text>
</a>
</g>
</g>
<!-- Node7&#45;&gt;Node71 -->
<g id="edge42" class="edge">
<title>Node7&#45;&gt;Node71</title>
<path fill="none" stroke="#63b8ff" d="M2002.6,-143.47C1858.99,-135.25 786.07,-145.25 729.24,-107 700.89,-87.92 692.46,-43.92 690.1,-24.96"/>
<polygon fill="#63b8ff" stroke="#63b8ff" points="2002.28,-146.96 2012.53,-144.27 2002.84,-139.98 2002.28,-146.96"/>
</g>
<!-- Node72 -->
<g id="node30" class="node">
<title>Node72</title>
<g id="a_node30"><a xlink:href="d__a__obj__yobikusa_8h.html" target="_top" xlink:title=" ">
<polygon fill="white" stroke="#666666" points="2188.74,-107 2083.74,-107 2083.74,-66 2188.74,-66 2188.74,-107"/>
<text text-anchor="start" x="2091.74" y="-95" font-family="Helvetica,sans-Serif" font-size="10.00">include/rel/d/a/obj</text>
<text text-anchor="start" x="2091.74" y="-84" font-family="Helvetica,sans-Serif" font-size="10.00">/d_a_obj_yobikusa/d</text>
<text text-anchor="middle" x="2136.24" y="-73" font-family="Helvetica,sans-Serif" font-size="10.00">_a_obj_yobikusa.h</text>
</a>
</g>
</g>
<!-- Node7&#45;&gt;Node72 -->
<g id="edge35" class="edge">
<title>Node7&#45;&gt;Node72</title>
<path fill="none" stroke="#63b8ff" d="M2091.04,-134.39C2099.42,-125.69 2108.92,-115.84 2117.04,-107.42"/>
<polygon fill="#63b8ff" stroke="#63b8ff" points="2088.59,-131.88 2084.17,-141.51 2093.63,-136.74 2088.59,-131.88"/>
</g>
<!-- Node73 -->
<g id="node31" class="node">
<title>Node73</title>
<g id="a_node31"><a xlink:href="d__a__tag__telop_8h.html" target="_top" xlink:title=" ">
<polygon fill="white" stroke="#666666" points="2325.24,-107 2207.24,-107 2207.24,-66 2325.24,-66 2325.24,-107"/>
<text text-anchor="start" x="2215.24" y="-95" font-family="Helvetica,sans-Serif" font-size="10.00">include/rel/d/a/tag</text>
<text text-anchor="start" x="2215.24" y="-84" font-family="Helvetica,sans-Serif" font-size="10.00">/d_a_tag_telop/d_a_tag</text>
<text text-anchor="middle" x="2266.24" y="-73" font-family="Helvetica,sans-Serif" font-size="10.00">_telop.h</text>
</a>
</g>
</g>
<!-- Node7&#45;&gt;Node73 -->
<g id="edge36" class="edge">
<title>Node7&#45;&gt;Node73</title>
<path fill="none" stroke="#63b8ff" d="M2120.59,-138.88C2147.96,-129.23 2181.68,-117.33 2209.78,-107.42"/>
<polygon fill="#63b8ff" stroke="#63b8ff" points="2119.75,-135.47 2111.48,-142.1 2122.08,-142.07 2119.75,-135.47"/>
</g>
<!-- Node74 -->
<g id="node32" class="node">
<title>Node74</title>
<g id="a_node32"><a xlink:href="d__a__itembase_8cpp.html" target="_top" xlink:title=" ">
<polygon fill="white" stroke="#666666" points="2471.24,-96 2343.24,-96 2343.24,-77 2471.24,-77 2471.24,-96"/>
<text text-anchor="middle" x="2407.24" y="-84" font-family="Helvetica,sans-Serif" font-size="10.00">src/d/a/d_a_itembase.cpp</text>
</a>
</g>
</g>
<!-- Node7&#45;&gt;Node74 -->
<g id="edge39" class="edge">
<title>Node7&#45;&gt;Node74</title>
<path fill="none" stroke="#63b8ff" d="M2135.65,-145.88C2189.42,-136.54 2267,-122.3 2334.24,-107 2347.92,-103.89 2362.92,-99.97 2375.74,-96.46"/>
<polygon fill="#63b8ff" stroke="#63b8ff" points="2135.3,-142.39 2126.04,-147.54 2136.49,-149.29 2135.3,-142.39"/>
</g>
<!-- Node75 -->
<g id="node33" class="node">
<title>Node75</title>
<g id="a_node33"><a xlink:href="d__a__obj_8cpp.html" target="_top" xlink:title=" ">
<polygon fill="white" stroke="#666666" points="2590.74,-96 2489.74,-96 2489.74,-77 2590.74,-77 2590.74,-96"/>
<text text-anchor="middle" x="2540.24" y="-84" font-family="Helvetica,sans-Serif" font-size="10.00">src/d/a/d_a_obj.cpp</text>
</a>
</g>
</g>
<!-- Node7&#45;&gt;Node75 -->
<g id="edge40" class="edge">
<title>Node7&#45;&gt;Node75</title>
<path fill="none" stroke="#63b8ff" d="M2136.04,-152.85C2217.92,-146.86 2360.54,-133.47 2480.24,-107 2492.32,-104.33 2505.43,-100.21 2516.3,-96.45"/>
<polygon fill="#63b8ff" stroke="#63b8ff" points="2135.89,-149.36 2126.16,-153.56 2136.39,-156.34 2135.89,-149.36"/>
</g>
<!-- Node76 -->
<g id="node34" class="node">
<title>Node76</title>
<g id="a_node34"><a xlink:href="d__bg__s_8cpp.html" target="_top" xlink:title=" ">
<polygon fill="white" stroke="#666666" points="2713.24,-96 2609.24,-96 2609.24,-77 2713.24,-77 2713.24,-96"/>
<text text-anchor="middle" x="2661.24" y="-84" font-family="Helvetica,sans-Serif" font-size="10.00">src/d/bg/d_bg_s.cpp</text>
</a>
</g>
</g>
<!-- Node7&#45;&gt;Node76 -->
<g id="edge43" class="edge">
<title>Node7&#45;&gt;Node76</title>
<path fill="none" stroke="#63b8ff" d="M2135.98,-155.2C2237.12,-151.47 2434.81,-140.23 2599.24,-107 2611.84,-104.45 2625.52,-100.31 2636.81,-96.49"/>
<polygon fill="#63b8ff" stroke="#63b8ff" points="2136.11,-151.7 2126.24,-155.55 2136.36,-158.69 2136.11,-151.7"/>
</g>
<!-- Node77 -->
<g id="node35" class="node">
<title>Node77</title>
<g id="a_node35"><a xlink:href="d__bg__s__movebg__actor_8cpp.html" target="_top" xlink:title=" ">
<polygon fill="white" stroke="#666666" points="2857.24,-101.5 2731.24,-101.5 2731.24,-71.5 2857.24,-71.5 2857.24,-101.5"/>
<text text-anchor="start" x="2739.24" y="-89.5" font-family="Helvetica,sans-Serif" font-size="10.00">src/d/bg/d_bg_s_movebg</text>
<text text-anchor="middle" x="2794.24" y="-78.5" font-family="Helvetica,sans-Serif" font-size="10.00">_actor.cpp</text>
</a>
</g>
</g>
<!-- Node7&#45;&gt;Node77 -->
<g id="edge44" class="edge">
<title>Node7&#45;&gt;Node77</title>
<path fill="none" stroke="#63b8ff" d="M2136.11,-156.02C2254.92,-153.35 2510.23,-143.49 2722.24,-107 2729.89,-105.68 2737.92,-103.91 2745.71,-101.97"/>
<polygon fill="#63b8ff" stroke="#63b8ff" points="2136.14,-152.52 2126.22,-156.23 2136.29,-159.51 2136.14,-152.52"/>
</g>
<!-- Node78 -->
<g id="node36" class="node">
<title>Node78</title>
<g id="a_node36"><a xlink:href="d__bg__w_8cpp.html" target="_top" xlink:title=" ">
<polygon fill="white" stroke="#666666" points="2982.74,-96 2875.74,-96 2875.74,-77 2982.74,-77 2982.74,-96"/>
<text text-anchor="middle" x="2929.24" y="-84" font-family="Helvetica,sans-Serif" font-size="10.00">src/d/bg/d_bg_w.cpp</text>
</a>
</g>
</g>
<!-- Node7&#45;&gt;Node78 -->
<g id="edge45" class="edge">
<title>Node7&#45;&gt;Node78</title>
<path fill="none" stroke="#63b8ff" d="M2136.17,-154.85C2301.68,-149.19 2726.82,-132.57 2866.24,-107 2879.3,-104.6 2893.46,-100.38 2905.04,-96.47"/>
<polygon fill="#63b8ff" stroke="#63b8ff" points="2136.1,-151.35 2126.22,-155.18 2136.34,-158.34 2136.1,-151.35"/>
</g>
<!-- Node79 -->
<g id="node37" class="node">
<title>Node79</title>
<g id="a_node37"><a xlink:href="d__cc__s_8cpp.html" target="_top" xlink:title=" ">
<polygon fill="white" stroke="#666666" points="3105.24,-96 3001.24,-96 3001.24,-77 3105.24,-77 3105.24,-96"/>
<text text-anchor="middle" x="3053.24" y="-84" font-family="Helvetica,sans-Serif" font-size="10.00">src/d/cc/d_cc_s.cpp</text>
</a>
</g>
</g>
<!-- Node7&#45;&gt;Node79 -->
<g id="edge46" class="edge">
<title>Node7&#45;&gt;Node79</title>
<path fill="none" stroke="#63b8ff" d="M2135.95,-155.55C2319.08,-151.22 2826.88,-136.81 2991.24,-107 3004.23,-104.64 3018.29,-100.37 3029.74,-96.42"/>
<polygon fill="#63b8ff" stroke="#63b8ff" points="2136.05,-152.05 2126.13,-155.78 2136.21,-159.04 2136.05,-152.05"/>
</g>
<!-- Node80 -->
<g id="node38" class="node">
<title>Node80</title>
<g id="a_node38"><a xlink:href="d__com__static_8cpp.html" target="_top" xlink:title=" ">
<polygon fill="white" stroke="#666666" points="3263.24,-96 3123.24,-96 3123.24,-77 3263.24,-77 3263.24,-96"/>
<text text-anchor="middle" x="3193.24" y="-84" font-family="Helvetica,sans-Serif" font-size="10.00">src/d/com/d_com_static.cpp</text>
</a>
</g>
</g>
<!-- Node7&#45;&gt;Node80 -->
<g id="edge48" class="edge">
<title>Node7&#45;&gt;Node80</title>
<path fill="none" stroke="#63b8ff" d="M2136,-155.5C2335.37,-150.76 2924.25,-134.72 3114.24,-107 3130.45,-104.63 3148.19,-100.41 3162.75,-96.49"/>
<polygon fill="#63b8ff" stroke="#63b8ff" points="2135.99,-152 2126.07,-155.74 2136.15,-159 2135.99,-152"/>
</g>
<!-- Node81 -->
<g id="node39" class="node">
<title>Node81</title>
<g id="a_node39"><a xlink:href="d__attention_8cpp.html" target="_top" xlink:title=" ">
<polygon fill="white" stroke="#666666" points="3388.74,-96 3281.74,-96 3281.74,-77 3388.74,-77 3388.74,-96"/>
<text text-anchor="middle" x="3335.24" y="-84" font-family="Helvetica,sans-Serif" font-size="10.00">src/d/d_attention.cpp</text>
</a>
</g>
</g>
<!-- Node7&#45;&gt;Node81 -->
<g id="edge49" class="edge">
<title>Node7&#45;&gt;Node81</title>
<path fill="none" stroke="#63b8ff" d="M2135.92,-156.49C2355,-154.48 3051.15,-145.15 3272.24,-107 3285.44,-104.72 3299.73,-100.45 3311.36,-96.49"/>
<polygon fill="#63b8ff" stroke="#63b8ff" points="2136.11,-152.99 2126.14,-156.58 2136.17,-159.99 2136.11,-152.99"/>
</g>
<!-- Node82 -->
<g id="node40" class="node">
<title>Node82</title>
<g id="a_node40"><a xlink:href="d__cam__param_8cpp.html" target="_top" xlink:title=" ">
<polygon fill="white" stroke="#666666" points="3527.74,-96 3406.74,-96 3406.74,-77 3527.74,-77 3527.74,-96"/>
<text text-anchor="middle" x="3467.24" y="-84" font-family="Helvetica,sans-Serif" font-size="10.00">src/d/d_cam_param.cpp</text>
</a>
</g>
</g>
<!-- Node7&#45;&gt;Node82 -->
<g id="edge50" class="edge">
<title>Node7&#45;&gt;Node82</title>
<path fill="none" stroke="#63b8ff" d="M2136.06,-156.58C2369.97,-154.8 3151.1,-146 3398.24,-107 3412.62,-104.73 3428.27,-100.46 3441.02,-96.5"/>
<polygon fill="#63b8ff" stroke="#63b8ff" points="2136.17,-153.08 2126.2,-156.66 2136.22,-160.08 2136.17,-153.08"/>
</g>
<!-- Node83 -->
<g id="node41" class="node">
<title>Node83</title>
<g id="a_node41"><a xlink:href="d__camera_8cpp.html" target="_top" xlink:title=" ">
<polygon fill="white" stroke="#666666" points="3648.24,-96 3546.24,-96 3546.24,-77 3648.24,-77 3648.24,-96"/>
<text text-anchor="middle" x="3597.24" y="-84" font-family="Helvetica,sans-Serif" font-size="10.00">src/d/d_camera.cpp</text>
</a>
</g>
</g>
<!-- Node7&#45;&gt;Node83 -->
<g id="edge51" class="edge">
<title>Node7&#45;&gt;Node83</title>
<path fill="none" stroke="#63b8ff" d="M2135.89,-157.2C2385.2,-157.57 3262.5,-155.33 3537.24,-107 3549.96,-104.76 3563.71,-100.44 3574.82,-96.44"/>
<polygon fill="#63b8ff" stroke="#63b8ff" points="2136.02,-153.7 2126.01,-157.18 2136.01,-160.7 2136.02,-153.7"/>
</g>
<!-- Node84 -->
<g id="node42" class="node">
<title>Node84</title>
<g id="a_node42"><a xlink:href="d__eye__hl_8cpp.html" target="_top" xlink:title=" ">
<polygon fill="white" stroke="#666666" points="3764.24,-96 3666.24,-96 3666.24,-77 3764.24,-77 3764.24,-96"/>
<text text-anchor="middle" x="3715.24" y="-84" font-family="Helvetica,sans-Serif" font-size="10.00">src/d/d_eye_hl.cpp</text>
</a>
</g>
</g>
<!-- Node7&#45;&gt;Node84 -->
<g id="edge53" class="edge">
<title>Node7&#45;&gt;Node84</title>
<path fill="none" stroke="#63b8ff" d="M2135.79,-156.05C2417.74,-151.88 3506.2,-134.16 3657.24,-107 3669.57,-104.78 3682.86,-100.47 3693.6,-96.46"/>
<polygon fill="#63b8ff" stroke="#63b8ff" points="2135.99,-152.55 2126.05,-156.2 2136.1,-159.55 2135.99,-152.55"/>
</g>
<!-- Node85 -->
<g id="node43" class="node">
<title>Node85</title>
<g id="a_node43"><a xlink:href="d__kyeff_8cpp.html" target="_top" xlink:title=" ">
<polygon fill="white" stroke="#666666" points="3872.24,-96 3782.24,-96 3782.24,-77 3872.24,-77 3872.24,-96"/>
<text text-anchor="middle" x="3827.24" y="-84" font-family="Helvetica,sans-Serif" font-size="10.00">src/d/d_kyeff.cpp</text>
</a>
</g>
</g>
<!-- Node7&#45;&gt;Node85 -->
<g id="edge54" class="edge">
<title>Node7&#45;&gt;Node85</title>
<path fill="none" stroke="#63b8ff" d="M2135.77,-156.29C2430.43,-152.99 3610.59,-137.93 3773.24,-107 3784.79,-104.8 3797.17,-100.49 3807.15,-96.47"/>
<polygon fill="#63b8ff" stroke="#63b8ff" points="2135.91,-152.79 2125.95,-156.4 2135.99,-159.79 2135.91,-152.79"/>
</g>
<!-- Node86 -->
<g id="node44" class="node">
<title>Node86</title>
<g id="a_node44"><a xlink:href="d__path_8cpp.html" target="_top" xlink:title=" ">
<polygon fill="white" stroke="#666666" points="3979.74,-96 3890.74,-96 3890.74,-77 3979.74,-77 3979.74,-96"/>
<text text-anchor="middle" x="3935.24" y="-84" font-family="Helvetica,sans-Serif" font-size="10.00">src/d/d_path.cpp</text>
</a>
</g>
</g>
<!-- Node7&#45;&gt;Node86 -->
<g id="edge55" class="edge">
<title>Node7&#45;&gt;Node86</title>
<path fill="none" stroke="#63b8ff" d="M2135.94,-156.42C2442.37,-153.56 3707.51,-139.88 3881.24,-107 3892.79,-104.81 3905.17,-100.5 3915.15,-96.48"/>
<polygon fill="#63b8ff" stroke="#63b8ff" points="2136.08,-152.91 2126.11,-156.51 2136.14,-159.91 2136.08,-152.91"/>
</g>
<!-- Node20&#45;&gt;Node17 -->
<g id="edge10" class="edge">
<title>Node20&#45;&gt;Node17</title>
<path fill="none" stroke="#63b8ff" d="M744.81,-73.4C697.43,-59.57 620.99,-37.25 578.75,-24.91"/>
<polygon fill="#63b8ff" stroke="#63b8ff" points="743.58,-76.69 754.16,-76.13 745.54,-69.97 743.58,-76.69"/>
</g>
<!-- Node20&#45;&gt;Node21 -->
<g id="edge11" class="edge">
<title>Node20&#45;&gt;Node21</title>
<path fill="none" stroke="#63b8ff" d="M800.98,-68.13C812.63,-54.41 828.41,-35.82 837.64,-24.95"/>
<polygon fill="#63b8ff" stroke="#63b8ff" points="798.49,-65.66 794.69,-75.54 803.83,-70.19 798.49,-65.66"/>
</g>
<!-- Node20&#45;&gt;Node22 -->
<g id="edge12" class="edge">
<title>Node20&#45;&gt;Node22</title>
<path fill="none" stroke="#63b8ff" d="M836.97,-74.22C851.24,-71.28 866.8,-68.3 881.24,-66 1018.29,-44.14 1181.01,-28.12 1263.86,-20.66"/>
<polygon fill="#63b8ff" stroke="#63b8ff" points="836.39,-70.77 827.32,-76.24 837.83,-77.62 836.39,-70.77"/>
</g>
<!-- Node20&#45;&gt;Node24 -->
<g id="edge13" class="edge">
<title>Node20&#45;&gt;Node24</title>
<path fill="none" stroke="#63b8ff" d="M734.69,-74.29C720.63,-71.4 705.38,-68.43 691.24,-66 582.42,-47.32 454.22,-30.87 383.62,-22.3"/>
<polygon fill="#63b8ff" stroke="#63b8ff" points="733.68,-77.65 744.18,-76.26 735.1,-70.8 733.68,-77.65"/>
</g>
<!-- Node28&#45;&gt;Node24 -->
<g id="edge16" class="edge">
<title>Node28&#45;&gt;Node24</title>
<path fill="none" stroke="#63b8ff" d="M330.24,-65.3C330.24,-51.94 330.24,-35.09 330.24,-24.95"/>
<polygon fill="#63b8ff" stroke="#63b8ff" points="326.74,-65.18 330.24,-75.18 333.74,-65.18 326.74,-65.18"/>
</g>
<!-- Node45&#45;&gt;Node17 -->
<g id="edge22" class="edge">
<title>Node45&#45;&gt;Node17</title>
<path fill="none" stroke="#63b8ff" d="M483.32,-64.51C501.06,-51.25 523.06,-34.81 536.36,-24.88"/>
<polygon fill="#63b8ff" stroke="#63b8ff" points="481.63,-61.4 475.72,-70.19 485.82,-67.01 481.63,-61.4"/>
</g>
<!-- Node45&#45;&gt;Node24 -->
<g id="edge24" class="edge">
<title>Node45&#45;&gt;Node24</title>
<path fill="none" stroke="#63b8ff" d="M419.44,-65.6C395.28,-52.16 364.56,-35.09 346.2,-24.88"/>
<polygon fill="#63b8ff" stroke="#63b8ff" points="417.57,-68.56 428.01,-70.36 420.97,-62.45 417.57,-68.56"/>
</g>
<!-- Node45&#45;&gt;Node50 -->
<g id="edge23" class="edge">
<title>Node45&#45;&gt;Node50</title>
<path fill="none" stroke="#63b8ff" d="M398.65,-68.09C395.81,-67.35 393,-66.65 390.24,-66 305.98,-46.15 206.18,-30.61 148.64,-22.42"/>
<polygon fill="#63b8ff" stroke="#63b8ff" points="397.58,-71.42 408.15,-70.67 399.42,-64.67 397.58,-71.42"/>
</g>
<!-- Node59&#45;&gt;Node5 -->
<g id="edge26" class="edge">
<title>Node59&#45;&gt;Node5</title>
<path fill="none" stroke="#63b8ff" d="M4087,-72.34C4121.58,-58.44 4175.13,-36.93 4205.06,-24.91"/>
<polygon fill="#63b8ff" stroke="#63b8ff" points="4085.88,-69.02 4077.9,-75.99 4088.49,-75.51 4085.88,-69.02"/>
</g>
<!-- Node60&#45;&gt;Node24 -->
<g id="edge28" class="edge">
<title>Node60&#45;&gt;Node24</title>
<path fill="none" stroke="#63b8ff" d="M230.43,-71.05C255.63,-57.15 292.95,-36.57 314.08,-24.91"/>
<polygon fill="#63b8ff" stroke="#63b8ff" points="228.84,-67.93 221.78,-75.83 232.22,-74.06 228.84,-67.93"/>
</g>
<!-- Node70&#45;&gt;Node17 -->
<g id="edge33" class="edge">
<title>Node70&#45;&gt;Node17</title>
<path fill="none" stroke="#63b8ff" d="M600.03,-63.36C585.66,-50.23 568.26,-34.31 557.73,-24.68"/>
<polygon fill="#63b8ff" stroke="#63b8ff" points="597.63,-65.91 607.37,-70.08 602.35,-60.75 597.63,-65.91"/>
</g>
<!-- Node70&#45;&gt;Node71 -->
<g id="edge34" class="edge">
<title>Node70&#45;&gt;Node71</title>
<path fill="none" stroke="#63b8ff" d="M645.29,-62.99C657.51,-49.93 672.2,-34.22 681.12,-24.68"/>
<polygon fill="#63b8ff" stroke="#63b8ff" points="643.01,-60.3 638.74,-69.99 648.12,-65.08 643.01,-60.3"/>
</g>
<!-- Node112&#45;&gt;Node111 -->
<g id="edge61" class="edge">
<title>Node112&#45;&gt;Node111</title>
<path fill="none" stroke="#63b8ff" d="M3338.24,-197.39C3338.24,-189.13 3338.24,-180.28 3338.24,-173.16"/>
<polygon fill="#63b8ff" stroke="#63b8ff" points="3334.74,-197.28 3338.24,-207.28 3341.74,-197.28 3334.74,-197.28"/>
</g>
<!-- Node113 -->
<g id="node48" class="node">
<title>Node113</title>
<g id="a_node48"><a xlink:href="f__op__scene__req_8cpp.html" target="_top" xlink:title=" ">
<polygon fill="white" stroke="#666666" points="3513.74,-173 3408.74,-173 3408.74,-143 3513.74,-143 3513.74,-173"/>
<text text-anchor="start" x="3416.74" y="-161" font-family="Helvetica,sans-Serif" font-size="10.00">src/f_op/f_op_scene</text>
<text text-anchor="middle" x="3461.24" y="-150" font-family="Helvetica,sans-Serif" font-size="10.00">_req.cpp</text>
</a>
</g>
</g>
<!-- Node112&#45;&gt;Node113 -->
<g id="edge62" class="edge">
<title>Node112&#45;&gt;Node113</title>
<path fill="none" stroke="#63b8ff" d="M3375.8,-203.45C3394.48,-193.73 3416.65,-182.2 3433.72,-173.31"/>
<polygon fill="#63b8ff" stroke="#63b8ff" points="3374.44,-200.22 3367.18,-207.94 3377.67,-206.43 3374.44,-200.22"/>
</g>
</g>
</svg>
