<?xml version="1.0" encoding="UTF-8" standalone="no"?>
<!DOCTYPE svg PUBLIC "-//W3C//DTD SVG 1.1//EN"
 "http://www.w3.org/Graphics/SVG/1.1/DTD/svg11.dtd">
<!-- Generated by graphviz version 7.0.5 (20221223.1930)
 -->
<!-- Title: include/f_pc/f_pc_create_req.h Pages: 1 -->
<svg width="4297pt" height="368pt"
 viewBox="0.00 0.00 4296.90 368.00" xmlns="http://www.w3.org/2000/svg" xmlns:xlink="http://www.w3.org/1999/xlink">
<g id="graph0" class="graph" transform="scale(1 1) rotate(0) translate(4 364)">
<title>include/f_pc/f_pc_create_req.h</title>
<!-- Node1 -->
<g id="node1" class="node">
<title>Node1</title>
<g id="a_node1"><a xlink:title=" ">
<polygon fill="#999999" stroke="#666666" points="3986.9,-360 3863.9,-360 3863.9,-330 3986.9,-330 3986.9,-360"/>
<text text-anchor="start" x="3871.9" y="-348" font-family="Helvetica,sans-Serif" font-size="10.00">include/f_pc/f_pc_create</text>
<text text-anchor="middle" x="3925.4" y="-337" font-family="Helvetica,sans-Serif" font-size="10.00">_req.h</text>
</a>
</g>
</g>
<!-- Node2 -->
<g id="node2" class="node">
<title>Node2</title>
<g id="a_node2"><a xlink:href="f__pc__fstcreate__req_8h.html" target="_top" xlink:title=" ">
<polygon fill="white" stroke="#666666" points="3417.4,-228 3283.4,-228 3283.4,-198 3417.4,-198 3417.4,-228"/>
<text text-anchor="start" x="3291.4" y="-216" font-family="Helvetica,sans-Serif" font-size="10.00">include/f_pc/f_pc_fstcreate</text>
<text text-anchor="middle" x="3350.4" y="-205" font-family="Helvetica,sans-Serif" font-size="10.00">_req.h</text>
</a>
</g>
</g>
<!-- Node1&#45;&gt;Node2 -->
<g id="edge1" class="edge">
<title>Node1&#45;&gt;Node2</title>
<path fill="none" stroke="#63b8ff" d="M3852.62,-327.54C3739.24,-301.91 3522.29,-252.86 3414.49,-228.49"/>
<polygon fill="#63b8ff" stroke="#63b8ff" points="3851.59,-330.9 3862.12,-329.69 3853.14,-324.07 3851.59,-330.9"/>
</g>
<!-- Node139 -->
<g id="node35" class="node">
<title>Node139</title>
<g id="a_node35"><a xlink:href="f__pc__stdcreate__req_8h.html" target="_top" xlink:title=" ">
<polygon fill="white" stroke="#666666" points="3856.9,-294 3719.9,-294 3719.9,-264 3856.9,-264 3856.9,-294"/>
<text text-anchor="start" x="3727.9" y="-282" font-family="Helvetica,sans-Serif" font-size="10.00">include/f_pc/f_pc_stdcreate</text>
<text text-anchor="middle" x="3788.4" y="-271" font-family="Helvetica,sans-Serif" font-size="10.00">_req.h</text>
</a>
</g>
</g>
<!-- Node1&#45;&gt;Node139 -->
<g id="edge41" class="edge">
<title>Node1&#45;&gt;Node139</title>
<path fill="none" stroke="#63b8ff" d="M3884.42,-324.86C3863.44,-315.05 3838.33,-303.32 3819.05,-294.31"/>
<polygon fill="#63b8ff" stroke="#63b8ff" points="3882.74,-327.94 3893.29,-329 3885.71,-321.59 3882.74,-327.94"/>
</g>
<!-- Node152 -->
<g id="node46" class="node">
<title>Node152</title>
<g id="a_node46"><a xlink:href="f__pc__node__req_8cpp.html" target="_top" xlink:title=" ">
<polygon fill="white" stroke="#666666" points="4141.4,-228 4041.4,-228 4041.4,-198 4141.4,-198 4141.4,-228"/>
<text text-anchor="start" x="4049.4" y="-216" font-family="Helvetica,sans-Serif" font-size="10.00">src/f_pc/f_pc_node</text>
<text text-anchor="middle" x="4091.4" y="-205" font-family="Helvetica,sans-Serif" font-size="10.00">_req.cpp</text>
</a>
</g>
</g>
<!-- Node1&#45;&gt;Node152 -->
<g id="edge64" class="edge">
<title>Node1&#45;&gt;Node152</title>
<path fill="none" stroke="#63b8ff" d="M3908.99,-319.72C3899.67,-302.63 3892.09,-280.03 3904.4,-264 3906.55,-261.2 3986.41,-240.54 4041.07,-226.67"/>
<polygon fill="#63b8ff" stroke="#63b8ff" points="3905.95,-321.44 3914.08,-328.24 3911.96,-317.86 3905.95,-321.44"/>
</g>
<!-- Node154 -->
<g id="node48" class="node">
<title>Node154</title>
<g id="a_node48"><a xlink:href="f__pc__create__iter_8cpp.html" target="_top" xlink:title=" ">
<polygon fill="white" stroke="#666666" points="4019.4,-294 3913.4,-294 3913.4,-264 4019.4,-264 4019.4,-294"/>
<text text-anchor="start" x="3921.4" y="-282" font-family="Helvetica,sans-Serif" font-size="10.00">src/f_pc/f_pc_create</text>
<text text-anchor="middle" x="3966.4" y="-271" font-family="Helvetica,sans-Serif" font-size="10.00">_iter.cpp</text>
</a>
</g>
</g>
<!-- Node1&#45;&gt;Node154 -->
<g id="edge61" class="edge">
<title>Node1&#45;&gt;Node154</title>
<path fill="none" stroke="#63b8ff" d="M3940.71,-320.11C3946.3,-311.38 3952.45,-301.78 3957.33,-294.16"/>
<polygon fill="#63b8ff" stroke="#63b8ff" points="3937.77,-318.21 3935.32,-328.52 3943.66,-321.99 3937.77,-318.21"/>
</g>
<!-- Node155 -->
<g id="node49" class="node">
<title>Node155</title>
<g id="a_node49"><a xlink:href="f__pc__create__req_8cpp.html" target="_top" xlink:title=" ">
<polygon fill="white" stroke="#666666" points="4143.4,-294 4037.4,-294 4037.4,-264 4143.4,-264 4143.4,-294"/>
<text text-anchor="start" x="4045.4" y="-282" font-family="Helvetica,sans-Serif" font-size="10.00">src/f_pc/f_pc_create</text>
<text text-anchor="middle" x="4090.4" y="-271" font-family="Helvetica,sans-Serif" font-size="10.00">_req.cpp</text>
</a>
</g>
</g>
<!-- Node1&#45;&gt;Node155 -->
<g id="edge62" class="edge">
<title>Node1&#45;&gt;Node155</title>
<path fill="none" stroke="#63b8ff" d="M3973,-325.54C3998.51,-315.64 4029.48,-303.63 4053.21,-294.43"/>
<polygon fill="#63b8ff" stroke="#63b8ff" points="3971.9,-322.21 3963.84,-329.09 3974.43,-328.74 3971.9,-322.21"/>
</g>
<!-- Node156 -->
<g id="node50" class="node">
<title>Node156</title>
<g id="a_node50"><a xlink:href="f__pc__creator_8cpp.html" target="_top" xlink:title=" ">
<polygon fill="white" stroke="#666666" points="4288.9,-288.5 4161.9,-288.5 4161.9,-269.5 4288.9,-269.5 4288.9,-288.5"/>
<text text-anchor="middle" x="4225.4" y="-276.5" font-family="Helvetica,sans-Serif" font-size="10.00">src/f_pc/f_pc_creator.cpp</text>
</a>
</g>
</g>
<!-- Node1&#45;&gt;Node156 -->
<g id="edge63" class="edge">
<title>Node1&#45;&gt;Node156</title>
<path fill="none" stroke="#63b8ff" d="M3998.15,-328.48C4056.21,-316.09 4135.53,-299.17 4183.46,-288.95"/>
<polygon fill="#63b8ff" stroke="#63b8ff" points="3997.73,-324.99 3988.68,-330.5 3999.19,-331.84 3997.73,-324.99"/>
</g>
<!-- Node3 -->
<g id="node3" class="node">
<title>Node3</title>
<g id="a_node3"><a xlink:href="f__op__actor__mng_8h.html" target="_top" xlink:title=" ">
<polygon fill="white" stroke="#666666" points="1842.4,-162 1724.4,-162 1724.4,-132 1842.4,-132 1842.4,-162"/>
<text text-anchor="start" x="1732.4" y="-150" font-family="Helvetica,sans-Serif" font-size="10.00">include/f_op/f_op_actor</text>
<text text-anchor="middle" x="1783.4" y="-139" font-family="Helvetica,sans-Serif" font-size="10.00">_mng.h</text>
</a>
</g>
</g>
<!-- Node2&#45;&gt;Node3 -->
<g id="edge2" class="edge">
<title>Node2&#45;&gt;Node3</title>
<path fill="none" stroke="#63b8ff" d="M3271.63,-208.78C2996.93,-197.56 2084.84,-160.31 1842.8,-150.43"/>
<polygon fill="#63b8ff" stroke="#63b8ff" points="3271.42,-212.28 3281.56,-209.19 3271.71,-205.28 3271.42,-212.28"/>
</g>
<!-- Node138 -->
<g id="node33" class="node">
<title>Node138</title>
<g id="a_node33"><a xlink:href="f__pc__fstcreate__req_8cpp.html" target="_top" xlink:title=" ">
<polygon fill="white" stroke="#666666" points="3336.9,-162 3219.9,-162 3219.9,-132 3336.9,-132 3336.9,-162"/>
<text text-anchor="start" x="3227.9" y="-150" font-family="Helvetica,sans-Serif" font-size="10.00">src/f_pc/f_pc_fstcreate</text>
<text text-anchor="middle" x="3278.4" y="-139" font-family="Helvetica,sans-Serif" font-size="10.00">_req.cpp</text>
</a>
</g>
</g>
<!-- Node2&#45;&gt;Node138 -->
<g id="edge39" class="edge">
<title>Node2&#45;&gt;Node138</title>
<path fill="none" stroke="#63b8ff" d="M3326.13,-190.42C3315.74,-181.18 3303.88,-170.65 3294.59,-162.39"/>
<polygon fill="#63b8ff" stroke="#63b8ff" points="3323.49,-192.76 3333.29,-196.79 3328.14,-187.53 3323.49,-192.76"/>
</g>
<!-- Node109 -->
<g id="node34" class="node">
<title>Node109</title>
<g id="a_node34"><a xlink:href="f__pc__manager_8cpp.html" target="_top" xlink:title=" ">
<polygon fill="white" stroke="#666666" points="3489.4,-156.5 3355.4,-156.5 3355.4,-137.5 3489.4,-137.5 3489.4,-156.5"/>
<text text-anchor="middle" x="3422.4" y="-144.5" font-family="Helvetica,sans-Serif" font-size="10.00">src/f_pc/f_pc_manager.cpp</text>
</a>
</g>
</g>
<!-- Node2&#45;&gt;Node109 -->
<g id="edge40" class="edge">
<title>Node2&#45;&gt;Node109</title>
<path fill="none" stroke="#63b8ff" d="M3374.84,-190.27C3387.71,-178.84 3402.78,-165.44 3412.45,-156.84"/>
<polygon fill="#63b8ff" stroke="#63b8ff" points="3372.66,-187.53 3367.51,-196.79 3377.31,-192.76 3372.66,-187.53"/>
</g>
<!-- Node4 -->
<g id="node4" class="node">
<title>Node4</title>
<g id="a_node4"><a xlink:href="d__a__alink_8h.html" target="_top" xlink:title=" ">
<polygon fill="#fff0f0" stroke="red" points="138.4,-85 22.4,-85 22.4,-66 138.4,-66 138.4,-85"/>
<text text-anchor="middle" x="80.4" y="-73" font-family="Helvetica,sans-Serif" font-size="10.00">include/d/a/d_a_alink.h</text>
</a>
</g>
</g>
<!-- Node3&#45;&gt;Node4 -->
<g id="edge3" class="edge">
<title>Node3&#45;&gt;Node4</title>
<path fill="none" stroke="#63b8ff" d="M1712.72,-146.21C1439.94,-146.66 455.75,-144.78 147.4,-96 133.28,-93.77 117.95,-89.45 105.51,-85.44"/>
<polygon fill="#63b8ff" stroke="#63b8ff" points="1712.52,-149.71 1722.51,-146.19 1712.51,-142.71 1712.52,-149.71"/>
</g>
<!-- Node15 -->
<g id="node5" class="node">
<title>Node15</title>
<g id="a_node5"><a xlink:href="d__a__alink_8cpp.html" target="_top" xlink:title=" ">
<polygon fill="white" stroke="#666666" points="321.9,-19 212.9,-19 212.9,0 321.9,0 321.9,-19"/>
<text text-anchor="middle" x="267.4" y="-7" font-family="Helvetica,sans-Serif" font-size="10.00">src/d/a/d_a_alink.cpp</text>
</a>
</g>
</g>
<!-- Node3&#45;&gt;Node15 -->
<g id="edge27" class="edge">
<title>Node3&#45;&gt;Node15</title>
<path fill="none" stroke="#63b8ff" d="M1712.97,-145.34C1387.48,-142.13 43.53,-126.99 13.4,-96 -48.06,-32.78 120.65,-16.31 212.45,-12.01"/>
<polygon fill="#63b8ff" stroke="#63b8ff" points="1712.56,-148.84 1722.6,-145.43 1712.63,-141.84 1712.56,-148.84"/>
</g>
<!-- Node115 -->
<g id="node6" class="node">
<title>Node115</title>
<g id="a_node6"><a xlink:href="d__a__obj__item_8h.html" target="_top" xlink:title=" ">
<polygon fill="#fff0f0" stroke="red" points="811.9,-90.5 710.9,-90.5 710.9,-60.5 811.9,-60.5 811.9,-90.5"/>
<text text-anchor="start" x="718.9" y="-78.5" font-family="Helvetica,sans-Serif" font-size="10.00">include/d/a/d_a_obj</text>
<text text-anchor="middle" x="761.4" y="-67.5" font-family="Helvetica,sans-Serif" font-size="10.00">_item.h</text>
</a>
</g>
</g>
<!-- Node3&#45;&gt;Node115 -->
<g id="edge5" class="edge">
<title>Node3&#45;&gt;Node115</title>
<path fill="none" stroke="#63b8ff" d="M1712.58,-144.77C1520.31,-141.05 991.52,-128.12 820.4,-96 813.83,-94.77 806.98,-92.99 800.37,-91"/>
<polygon fill="#63b8ff" stroke="#63b8ff" points="1712.36,-148.27 1722.43,-144.96 1712.49,-141.27 1712.36,-148.27"/>
</g>
<!-- Node116 -->
<g id="node7" class="node">
<title>Node116</title>
<g id="a_node7"><a xlink:href="d__a__obj__ss__base_8h.html" target="_top" xlink:title=" ">
<polygon fill="#fff0f0" stroke="red" points="930.9,-90.5 829.9,-90.5 829.9,-60.5 930.9,-60.5 930.9,-90.5"/>
<text text-anchor="start" x="837.9" y="-78.5" font-family="Helvetica,sans-Serif" font-size="10.00">include/d/a/d_a_obj</text>
<text text-anchor="middle" x="880.4" y="-67.5" font-family="Helvetica,sans-Serif" font-size="10.00">_ss_base.h</text>
</a>
</g>
</g>
<!-- Node3&#45;&gt;Node116 -->
<g id="edge6" class="edge">
<title>Node3&#45;&gt;Node116</title>
<path fill="none" stroke="#63b8ff" d="M1712.65,-144.17C1537.42,-139.27 1086.83,-124.23 939.4,-96 932.83,-94.74 925.99,-92.95 919.38,-90.96"/>
<polygon fill="#63b8ff" stroke="#63b8ff" points="1712.43,-147.67 1722.52,-144.45 1712.62,-140.67 1712.43,-147.67"/>
</g>
<!-- Node118 -->
<g id="node8" class="node">
<title>Node118</title>
<g id="a_node8"><a xlink:href="d__bomb_8h.html" target="_top" xlink:title=" ">
<polygon fill="white" stroke="#666666" points="653.9,-85 552.9,-85 552.9,-66 653.9,-66 653.9,-85"/>
<text text-anchor="middle" x="603.4" y="-73" font-family="Helvetica,sans-Serif" font-size="10.00">include/d/d_bomb.h</text>
</a>
</g>
</g>
<!-- Node3&#45;&gt;Node118 -->
<g id="edge7" class="edge">
<title>Node3&#45;&gt;Node118</title>
<path fill="none" stroke="#63b8ff" d="M1712.68,-145.11C1500.33,-142.06 870.53,-130.31 668.4,-96 654.81,-93.69 640.07,-89.42 628.06,-85.46"/>
<polygon fill="#63b8ff" stroke="#63b8ff" points="1712.41,-148.6 1722.46,-145.24 1712.51,-141.6 1712.41,-148.6"/>
</g>
<!-- Node119 -->
<g id="node9" class="node">
<title>Node119</title>
<g id="a_node9"><a xlink:href="d__bomb_8cpp.html" target="_top" xlink:title=" ">
<polygon fill="white" stroke="#666666" points="689.4,-19 595.4,-19 595.4,0 689.4,0 689.4,-19"/>
<text text-anchor="middle" x="642.4" y="-7" font-family="Helvetica,sans-Serif" font-size="10.00">src/d/d_bomb.cpp</text>
</a>
</g>
</g>
<!-- Node3&#45;&gt;Node119 -->
<g id="edge32" class="edge">
<title>Node3&#45;&gt;Node119</title>
<path fill="none" stroke="#63b8ff" d="M1712.78,-146.34C1486.55,-146.95 789.39,-144.81 701.4,-96 670.33,-78.77 652.14,-37.42 645.41,-19.28"/>
<polygon fill="#63b8ff" stroke="#63b8ff" points="1712.65,-149.85 1722.64,-146.32 1712.63,-142.85 1712.65,-149.85"/>
</g>
<!-- Node120 -->
<g id="node10" class="node">
<title>Node120</title>
<g id="a_node10"><a xlink:href="d__a__arrow_8h.html" target="_top" xlink:title=" ">
<polygon fill="white" stroke="#666666" points="1049.9,-90.5 948.9,-90.5 948.9,-60.5 1049.9,-60.5 1049.9,-90.5"/>
<text text-anchor="start" x="956.9" y="-78.5" font-family="Helvetica,sans-Serif" font-size="10.00">include/rel/d/a/d_a</text>
<text text-anchor="middle" x="999.4" y="-67.5" font-family="Helvetica,sans-Serif" font-size="10.00">_arrow/d_a_arrow.h</text>
</a>
</g>
</g>
<!-- Node3&#45;&gt;Node120 -->
<g id="edge10" class="edge">
<title>Node3&#45;&gt;Node120</title>
<path fill="none" stroke="#63b8ff" d="M1712.83,-146.26C1583.27,-145.6 1299.2,-138.83 1064.4,-96 1057.33,-94.71 1049.94,-92.93 1042.78,-90.96"/>
<polygon fill="#63b8ff" stroke="#63b8ff" points="1712.61,-149.76 1722.62,-146.3 1712.64,-142.76 1712.61,-149.76"/>
</g>
<!-- Node121 -->
<g id="node11" class="node">
<title>Node121</title>
<g id="a_node11"><a xlink:href="d__a__boomerang_8h.html" target="_top" xlink:title=" ">
<polygon fill="white" stroke="#666666" points="1255.9,-90.5 1106.9,-90.5 1106.9,-60.5 1255.9,-60.5 1255.9,-90.5"/>
<text text-anchor="start" x="1114.9" y="-78.5" font-family="Helvetica,sans-Serif" font-size="10.00">include/rel/d/a/d_a</text>
<text text-anchor="middle" x="1181.4" y="-67.5" font-family="Helvetica,sans-Serif" font-size="10.00">_boomerang/d_a_boomerang.h</text>
</a>
</g>
</g>
<!-- Node3&#45;&gt;Node121 -->
<g id="edge11" class="edge">
<title>Node3&#45;&gt;Node121</title>
<path fill="none" stroke="#63b8ff" d="M1712.57,-142.13C1612.45,-135.99 1424.07,-121.96 1265.4,-96 1256.83,-94.6 1247.84,-92.83 1239.04,-90.93"/>
<polygon fill="#63b8ff" stroke="#63b8ff" points="1712.33,-145.62 1722.52,-142.73 1712.75,-138.63 1712.33,-145.62"/>
</g>
<!-- Node72 -->
<g id="node12" class="node">
<title>Node72</title>
<g id="a_node12"><a xlink:href="d__a__player_8cpp.html" target="_top" xlink:title=" ">
<polygon fill="white" stroke="#666666" points="1186.4,-19 1072.4,-19 1072.4,0 1186.4,0 1186.4,-19"/>
<text text-anchor="middle" x="1129.4" y="-7" font-family="Helvetica,sans-Serif" font-size="10.00">src/d/a/d_a_player.cpp</text>
</a>
</g>
</g>
<!-- Node3&#45;&gt;Node72 -->
<g id="edge28" class="edge">
<title>Node3&#45;&gt;Node72</title>
<path fill="none" stroke="#63b8ff" d="M1712.88,-146.17C1546.18,-145.82 1138.69,-140.4 1097.4,-96 1076.57,-73.6 1105.34,-36.38 1120.76,-19.42"/>
<polygon fill="#63b8ff" stroke="#63b8ff" points="1712.46,-149.66 1722.47,-146.18 1712.47,-142.66 1712.46,-149.66"/>
</g>
<!-- Node122 -->
<g id="node13" class="node">
<title>Node122</title>
<g id="a_node13"><a xlink:href="d__a__canoe_8h.html" target="_top" xlink:title=" ">
<polygon fill="white" stroke="#666666" points="1380.4,-90.5 1274.4,-90.5 1274.4,-60.5 1380.4,-60.5 1380.4,-90.5"/>
<text text-anchor="start" x="1282.4" y="-78.5" font-family="Helvetica,sans-Serif" font-size="10.00">include/rel/d/a/d_a</text>
<text text-anchor="middle" x="1327.4" y="-67.5" font-family="Helvetica,sans-Serif" font-size="10.00">_canoe/d_a_canoe.h</text>
</a>
</g>
</g>
<!-- Node3&#45;&gt;Node122 -->
<g id="edge13" class="edge">
<title>Node3&#45;&gt;Node122</title>
<path fill="none" stroke="#63b8ff" d="M1712.79,-140.86C1633.44,-134.2 1501.11,-120.45 1389.4,-96 1383.01,-94.6 1376.33,-92.83 1369.82,-90.94"/>
<polygon fill="#63b8ff" stroke="#63b8ff" points="1712.34,-144.34 1722.59,-141.67 1712.91,-137.36 1712.34,-144.34"/>
</g>
<!-- Node123 -->
<g id="node14" class="node">
<title>Node123</title>
<g id="a_node14"><a xlink:href="d__a__crod_8h.html" target="_top" xlink:title=" ">
<polygon fill="white" stroke="#666666" points="252.4,-90.5 156.4,-90.5 156.4,-60.5 252.4,-60.5 252.4,-90.5"/>
<text text-anchor="start" x="164.4" y="-78.5" font-family="Helvetica,sans-Serif" font-size="10.00">include/rel/d/a/d_a</text>
<text text-anchor="middle" x="204.4" y="-67.5" font-family="Helvetica,sans-Serif" font-size="10.00">_crod/d_a_crod.h</text>
</a>
</g>
</g>
<!-- Node3&#45;&gt;Node123 -->
<g id="edge14" class="edge">
<title>Node3&#45;&gt;Node123</title>
<path fill="none" stroke="#63b8ff" d="M1712.85,-146.45C1452.39,-147.68 545.35,-148.03 261.4,-96 254.82,-94.79 247.96,-92.97 241.39,-90.92"/>
<polygon fill="#63b8ff" stroke="#63b8ff" points="1712.54,-149.95 1722.52,-146.4 1712.5,-142.95 1712.54,-149.95"/>
</g>
<!-- Node124 -->
<g id="node15" class="node">
<title>Node124</title>
<g id="a_node15"><a xlink:href="d__a__scene__exit_8h.html" target="_top" xlink:title=" ">
<polygon fill="white" stroke="#666666" points="389.9,-96 270.9,-96 270.9,-55 389.9,-55 389.9,-96"/>
<text text-anchor="start" x="278.9" y="-84" font-family="Helvetica,sans-Serif" font-size="10.00">include/rel/d/a/d_a</text>
<text text-anchor="start" x="278.9" y="-73" font-family="Helvetica,sans-Serif" font-size="10.00">_scene_exit/d_a_scene</text>
<text text-anchor="middle" x="330.4" y="-62" font-family="Helvetica,sans-Serif" font-size="10.00">_exit.h</text>
</a>
</g>
</g>
<!-- Node3&#45;&gt;Node124 -->
<g id="edge16" class="edge">
<title>Node3&#45;&gt;Node124</title>
<path fill="none" stroke="#63b8ff" d="M1712.88,-145.68C1468.15,-144.22 656.45,-136.37 399.4,-96 396.33,-95.52 393.2,-94.94 390.05,-94.3"/>
<polygon fill="#63b8ff" stroke="#63b8ff" points="1712.57,-149.18 1722.59,-145.74 1712.61,-142.18 1712.57,-149.18"/>
</g>
<!-- Node125 -->
<g id="node16" class="node">
<title>Node125</title>
<g id="a_node16"><a xlink:href="d__a__tboxSw_8h.html" target="_top" xlink:title=" ">
<polygon fill="white" stroke="#666666" points="1516.4,-90.5 1398.4,-90.5 1398.4,-60.5 1516.4,-60.5 1516.4,-90.5"/>
<text text-anchor="start" x="1406.4" y="-78.5" font-family="Helvetica,sans-Serif" font-size="10.00">include/rel/d/a/d_a</text>
<text text-anchor="middle" x="1457.4" y="-67.5" font-family="Helvetica,sans-Serif" font-size="10.00">_tboxSw/d_a_tboxSw.h</text>
</a>
</g>
</g>
<!-- Node3&#45;&gt;Node125 -->
<g id="edge18" class="edge">
<title>Node3&#45;&gt;Node125</title>
<path fill="none" stroke="#63b8ff" d="M1712.79,-134.04C1660.73,-124.81 1588.33,-111.09 1525.4,-96 1519.07,-94.48 1512.45,-92.76 1505.93,-90.98"/>
<polygon fill="#63b8ff" stroke="#63b8ff" points="1711.96,-137.45 1722.42,-135.74 1713.18,-130.56 1711.96,-137.45"/>
</g>
<!-- Node126 -->
<g id="node17" class="node">
<title>Node126</title>
<g id="a_node17"><a xlink:href="d__a__tag__escape_8h.html" target="_top" xlink:title=" ">
<polygon fill="white" stroke="#666666" points="1644.4,-96 1534.4,-96 1534.4,-55 1644.4,-55 1644.4,-96"/>
<text text-anchor="start" x="1542.4" y="-84" font-family="Helvetica,sans-Serif" font-size="10.00">include/rel/d/a/tag</text>
<text text-anchor="start" x="1542.4" y="-73" font-family="Helvetica,sans-Serif" font-size="10.00">/d_a_tag_escape/d_a</text>
<text text-anchor="middle" x="1589.4" y="-62" font-family="Helvetica,sans-Serif" font-size="10.00">_tag_escape.h</text>
</a>
</g>
</g>
<!-- Node3&#45;&gt;Node126 -->
<g id="edge19" class="edge">
<title>Node3&#45;&gt;Node126</title>
<path fill="none" stroke="#63b8ff" d="M1732.43,-127.74C1705.43,-118.07 1672.24,-106.18 1644.63,-96.28"/>
<polygon fill="#63b8ff" stroke="#63b8ff" points="1731.19,-131.01 1741.78,-131.09 1733.55,-124.42 1731.19,-131.01"/>
</g>
<!-- Node127 -->
<g id="node18" class="node">
<title>Node127</title>
<g id="a_node18"><a xlink:href="d__a__tag__instruction_8h.html" target="_top" xlink:title=" ">
<polygon fill="white" stroke="#666666" points="1774.4,-96 1662.4,-96 1662.4,-55 1774.4,-55 1774.4,-96"/>
<text text-anchor="start" x="1670.4" y="-84" font-family="Helvetica,sans-Serif" font-size="10.00">include/rel/d/a/tag</text>
<text text-anchor="start" x="1670.4" y="-73" font-family="Helvetica,sans-Serif" font-size="10.00">/d_a_tag_instruction</text>
<text text-anchor="middle" x="1718.4" y="-62" font-family="Helvetica,sans-Serif" font-size="10.00">/d_a_tag_instruction.h</text>
</a>
</g>
</g>
<!-- Node3&#45;&gt;Node127 -->
<g id="edge20" class="edge">
<title>Node3&#45;&gt;Node127</title>
<path fill="none" stroke="#63b8ff" d="M1762.25,-123.39C1754.12,-114.69 1744.91,-104.84 1737.03,-96.42"/>
<polygon fill="#63b8ff" stroke="#63b8ff" points="1759.51,-125.58 1768.9,-130.49 1764.63,-120.8 1759.51,-125.58"/>
</g>
<!-- Node128 -->
<g id="node19" class="node">
<title>Node128</title>
<g id="a_node19"><a xlink:href="d__a__tag__lv5soup_8h.html" target="_top" xlink:title=" ">
<polygon fill="white" stroke="#666666" points="1904.4,-96 1792.4,-96 1792.4,-55 1904.4,-55 1904.4,-96"/>
<text text-anchor="start" x="1800.4" y="-84" font-family="Helvetica,sans-Serif" font-size="10.00">include/rel/d/a/tag</text>
<text text-anchor="start" x="1800.4" y="-73" font-family="Helvetica,sans-Serif" font-size="10.00">/d_a_tag_lv5soup/d_a</text>
<text text-anchor="middle" x="1848.4" y="-62" font-family="Helvetica,sans-Serif" font-size="10.00">_tag_lv5soup.h</text>
</a>
</g>
</g>
<!-- Node3&#45;&gt;Node128 -->
<g id="edge21" class="edge">
<title>Node3&#45;&gt;Node128</title>
<path fill="none" stroke="#63b8ff" d="M1804.55,-123.39C1812.68,-114.69 1821.9,-104.84 1829.78,-96.42"/>
<polygon fill="#63b8ff" stroke="#63b8ff" points="1802.18,-120.8 1797.9,-130.49 1807.29,-125.58 1802.18,-120.8"/>
</g>
<!-- Node129 -->
<g id="node20" class="node">
<title>Node129</title>
<g id="a_node20"><a xlink:href="d__a__tag__magne_8h.html" target="_top" xlink:title=" ">
<polygon fill="#fff0f0" stroke="red" points="534.4,-96 408.4,-96 408.4,-55 534.4,-55 534.4,-96"/>
<text text-anchor="start" x="416.4" y="-84" font-family="Helvetica,sans-Serif" font-size="10.00">include/rel/d/a/tag</text>
<text text-anchor="start" x="416.4" y="-73" font-family="Helvetica,sans-Serif" font-size="10.00">/d_a_tag_magne/d_a_tag</text>
<text text-anchor="middle" x="471.4" y="-62" font-family="Helvetica,sans-Serif" font-size="10.00">_magne.h</text>
</a>
</g>
</g>
<!-- Node3&#45;&gt;Node129 -->
<g id="edge22" class="edge">
<title>Node3&#45;&gt;Node129</title>
<path fill="none" stroke="#63b8ff" d="M1712.72,-145.23C1484.86,-142.43 771.3,-131 543.4,-96 540.59,-95.57 537.72,-95.07 534.84,-94.51"/>
<polygon fill="#63b8ff" stroke="#63b8ff" points="1712.6,-148.73 1722.64,-145.35 1712.69,-141.73 1712.6,-148.73"/>
</g>
<!-- Node130 -->
<g id="node21" class="node">
<title>Node130</title>
<g id="a_node21"><a xlink:href="d__a__tag__setBall_8h.html" target="_top" xlink:title=" ">
<polygon fill="white" stroke="#666666" points="2030.4,-96 1922.4,-96 1922.4,-55 2030.4,-55 2030.4,-96"/>
<text text-anchor="start" x="1930.4" y="-84" font-family="Helvetica,sans-Serif" font-size="10.00">include/rel/d/a/tag</text>
<text text-anchor="start" x="1930.4" y="-73" font-family="Helvetica,sans-Serif" font-size="10.00">/d_a_tag_setBall/d_a</text>
<text text-anchor="middle" x="1976.4" y="-62" font-family="Helvetica,sans-Serif" font-size="10.00">_tag_setBall.h</text>
</a>
</g>
</g>
<!-- Node3&#45;&gt;Node130 -->
<g id="edge24" class="edge">
<title>Node3&#45;&gt;Node130</title>
<path fill="none" stroke="#63b8ff" d="M1834.2,-127.71C1861.28,-117.96 1894.61,-105.95 1922.19,-96.02"/>
<polygon fill="#63b8ff" stroke="#63b8ff" points="1833.04,-124.41 1824.82,-131.09 1835.41,-130.99 1833.04,-124.41"/>
</g>
<!-- Node131 -->
<g id="node22" class="node">
<title>Node131</title>
<g id="a_node22"><a xlink:href="d__a__tag__setrestart_8h.html" target="_top" xlink:title=" ">
<polygon fill="white" stroke="#666666" points="2156.4,-96 2048.4,-96 2048.4,-55 2156.4,-55 2156.4,-96"/>
<text text-anchor="start" x="2056.4" y="-84" font-family="Helvetica,sans-Serif" font-size="10.00">include/rel/d/a/tag</text>
<text text-anchor="start" x="2056.4" y="-73" font-family="Helvetica,sans-Serif" font-size="10.00">/d_a_tag_setrestart</text>
<text text-anchor="middle" x="2102.4" y="-62" font-family="Helvetica,sans-Serif" font-size="10.00">/d_a_tag_setrestart.h</text>
</a>
</g>
</g>
<!-- Node3&#45;&gt;Node131 -->
<g id="edge25" class="edge">
<title>Node3&#45;&gt;Node131</title>
<path fill="none" stroke="#63b8ff" d="M1853.82,-134.35C1905.49,-125.28 1977.22,-111.65 2039.4,-96 2042.29,-95.27 2045.24,-94.49 2048.21,-93.68"/>
<polygon fill="#63b8ff" stroke="#63b8ff" points="1853.52,-130.84 1844.27,-136.01 1854.72,-137.74 1853.52,-130.84"/>
</g>
<!-- Node132 -->
<g id="node23" class="node">
<title>Node132</title>
<g id="a_node23"><a xlink:href="d__a__tag__wara__howl_8h.html" target="_top" xlink:title=" ">
<polygon fill="white" stroke="#666666" points="2288.4,-96 2174.4,-96 2174.4,-55 2288.4,-55 2288.4,-96"/>
<text text-anchor="start" x="2182.4" y="-84" font-family="Helvetica,sans-Serif" font-size="10.00">include/rel/d/a/tag</text>
<text text-anchor="start" x="2182.4" y="-73" font-family="Helvetica,sans-Serif" font-size="10.00">/d_a_tag_wara_howl/d</text>
<text text-anchor="middle" x="2231.4" y="-62" font-family="Helvetica,sans-Serif" font-size="10.00">_a_tag_wara_howl.h</text>
</a>
</g>
</g>
<!-- Node3&#45;&gt;Node132 -->
<g id="edge26" class="edge">
<title>Node3&#45;&gt;Node132</title>
<path fill="none" stroke="#63b8ff" d="M1853.79,-140.13C1930.86,-132.93 2057.82,-118.79 2165.4,-96 2168.21,-95.41 2171.07,-94.75 2173.95,-94.05"/>
<polygon fill="#63b8ff" stroke="#63b8ff" points="1853.93,-136.6 1844.29,-141 1854.57,-143.57 1853.93,-136.6"/>
</g>
<!-- Node133 -->
<g id="node24" class="node">
<title>Node133</title>
<g id="a_node24"><a xlink:href="d__bg__s__acch_8cpp.html" target="_top" xlink:title=" ">
<polygon fill="white" stroke="#666666" points="2437.9,-85 2306.9,-85 2306.9,-66 2437.9,-66 2437.9,-85"/>
<text text-anchor="middle" x="2372.4" y="-73" font-family="Helvetica,sans-Serif" font-size="10.00">src/d/bg/d_bg_s_acch.cpp</text>
</a>
</g>
</g>
<!-- Node3&#45;&gt;Node133 -->
<g id="edge29" class="edge">
<title>Node3&#45;&gt;Node133</title>
<path fill="none" stroke="#63b8ff" d="M1854.19,-142.64C1953.75,-137.13 2140.52,-123.85 2297.4,-96 2312.37,-93.34 2328.74,-89.23 2342.35,-85.47"/>
<polygon fill="#63b8ff" stroke="#63b8ff" points="1854.09,-139.14 1844.3,-143.18 1854.47,-146.13 1854.09,-139.14"/>
</g>
<!-- Node134 -->
<g id="node25" class="node">
<title>Node134</title>
<g id="a_node25"><a xlink:href="d__bg__s__lin__chk_8cpp.html" target="_top" xlink:title=" ">
<polygon fill="white" stroke="#666666" points="2556.9,-90.5 2455.9,-90.5 2455.9,-60.5 2556.9,-60.5 2556.9,-90.5"/>
<text text-anchor="start" x="2463.9" y="-78.5" font-family="Helvetica,sans-Serif" font-size="10.00">src/d/bg/d_bg_s_lin</text>
<text text-anchor="middle" x="2506.4" y="-67.5" font-family="Helvetica,sans-Serif" font-size="10.00">_chk.cpp</text>
</a>
</g>
</g>
<!-- Node3&#45;&gt;Node134 -->
<g id="edge30" class="edge">
<title>Node3&#45;&gt;Node134</title>
<path fill="none" stroke="#63b8ff" d="M1853.94,-146.18C1975.91,-145.27 2233.57,-137.98 2446.4,-96 2452.96,-94.71 2459.8,-92.92 2466.41,-90.96"/>
<polygon fill="#63b8ff" stroke="#63b8ff" points="1854.06,-142.68 1844.08,-146.24 1854.11,-149.68 1854.06,-142.68"/>
</g>
<!-- Node135 -->
<g id="node26" class="node">
<title>Node135</title>
<g id="a_node26"><a xlink:href="d__cc__d__nonmatching_8cpp.html" target="_top" xlink:title=" ">
<polygon fill="white" stroke="#666666" points="2739.9,-85 2574.9,-85 2574.9,-66 2739.9,-66 2739.9,-85"/>
<text text-anchor="middle" x="2657.4" y="-73" font-family="Helvetica,sans-Serif" font-size="10.00">src/d/cc/d_cc_d_nonmatching.cpp</text>
</a>
</g>
</g>
<!-- Node3&#45;&gt;Node135 -->
<g id="edge31" class="edge">
<title>Node3&#45;&gt;Node135</title>
<path fill="none" stroke="#63b8ff" d="M1853.72,-144.92C1991.1,-142.04 2304.53,-131.79 2565.4,-96 2584,-93.45 2604.46,-89.25 2621.35,-85.41"/>
<polygon fill="#63b8ff" stroke="#63b8ff" points="1853.99,-141.41 1844.07,-145.11 1854.14,-148.41 1853.99,-141.41"/>
</g>
<!-- Node87 -->
<g id="node27" class="node">
<title>Node87</title>
<g id="a_node27"><a xlink:href="d__insect_8cpp.html" target="_top" xlink:title=" ">
<polygon fill="white" stroke="#666666" points="2854.4,-85 2758.4,-85 2758.4,-66 2854.4,-66 2854.4,-85"/>
<text text-anchor="middle" x="2806.4" y="-73" font-family="Helvetica,sans-Serif" font-size="10.00">src/d/d_insect.cpp</text>
</a>
</g>
</g>
<!-- Node3&#45;&gt;Node87 -->
<g id="edge33" class="edge">
<title>Node3&#45;&gt;Node87</title>
<path fill="none" stroke="#63b8ff" d="M1854.04,-144.83C2046.45,-141.25 2576.91,-128.64 2748.4,-96 2760.61,-93.68 2773.78,-89.4 2784.47,-85.45"/>
<polygon fill="#63b8ff" stroke="#63b8ff" points="1854.12,-141.33 1844.19,-145.01 1854.25,-148.33 1854.12,-141.33"/>
</g>
<!-- Node136 -->
<g id="node28" class="node">
<title>Node136</title>
<g id="a_node28"><a xlink:href="d__jnt__col_8cpp.html" target="_top" xlink:title=" ">
<polygon fill="white" stroke="#666666" points="2970.4,-85 2872.4,-85 2872.4,-66 2970.4,-66 2970.4,-85"/>
<text text-anchor="middle" x="2921.4" y="-73" font-family="Helvetica,sans-Serif" font-size="10.00">src/d/d_jnt_col.cpp</text>
</a>
</g>
</g>
<!-- Node3&#45;&gt;Node136 -->
<g id="edge34" class="edge">
<title>Node3&#45;&gt;Node136</title>
<path fill="none" stroke="#63b8ff" d="M1854.07,-145.29C2061.94,-142.78 2668.87,-132.46 2863.4,-96 2875.62,-93.71 2888.78,-89.44 2899.48,-85.48"/>
<polygon fill="#63b8ff" stroke="#63b8ff" points="1854.19,-141.78 1844.23,-145.4 1854.27,-148.78 1854.19,-141.78"/>
</g>
<!-- Node50 -->
<g id="node29" class="node">
<title>Node50</title>
<g id="a_node29"><a xlink:href="d__event_8cpp.html" target="_top" xlink:title=" ">
<polygon fill="white" stroke="#666666" points="3109.9,-85 2988.9,-85 2988.9,-66 3109.9,-66 3109.9,-85"/>
<text text-anchor="middle" x="3049.4" y="-73" font-family="Helvetica,sans-Serif" font-size="10.00">src/d/event/d_event.cpp</text>
</a>
</g>
</g>
<!-- Node3&#45;&gt;Node50 -->
<g id="edge35" class="edge">
<title>Node3&#45;&gt;Node50</title>
<path fill="none" stroke="#63b8ff" d="M1854.21,-145.17C2076.81,-142.24 2760.6,-130.58 2979.4,-96 2993.98,-93.7 3009.86,-89.42 3022.8,-85.47"/>
<polygon fill="#63b8ff" stroke="#63b8ff" points="1854.18,-141.67 1844.22,-145.3 1854.27,-148.67 1854.18,-141.67"/>
</g>
<!-- Node96 -->
<g id="node30" class="node">
<title>Node96</title>
<g id="a_node30"><a xlink:href="d__event__lib_8cpp.html" target="_top" xlink:title=" ">
<polygon fill="white" stroke="#666666" points="3230.9,-90.5 3127.9,-90.5 3127.9,-60.5 3230.9,-60.5 3230.9,-90.5"/>
<text text-anchor="start" x="3135.9" y="-78.5" font-family="Helvetica,sans-Serif" font-size="10.00">src/d/event/d_event</text>
<text text-anchor="middle" x="3179.4" y="-67.5" font-family="Helvetica,sans-Serif" font-size="10.00">_lib.cpp</text>
</a>
</g>
</g>
<!-- Node3&#45;&gt;Node96 -->
<g id="edge36" class="edge">
<title>Node3&#45;&gt;Node96</title>
<path fill="none" stroke="#63b8ff" d="M1853.86,-145.88C2092.94,-145.09 2872,-139.17 3118.4,-96 3125.3,-94.79 3132.5,-93 3139.43,-90.98"/>
<polygon fill="#63b8ff" stroke="#63b8ff" points="1854.06,-142.38 1844.07,-145.91 1854.08,-149.38 1854.06,-142.38"/>
</g>
<!-- Node137 -->
<g id="node31" class="node">
<title>Node137</title>
<g id="a_node31"><a xlink:href="d__shop__item__ctrl_8cpp.html" target="_top" xlink:title=" ">
<polygon fill="white" stroke="#666666" points="3369.9,-90.5 3248.9,-90.5 3248.9,-60.5 3369.9,-60.5 3369.9,-90.5"/>
<text text-anchor="start" x="3256.9" y="-78.5" font-family="Helvetica,sans-Serif" font-size="10.00">src/d/shop/d_shop_item</text>
<text text-anchor="middle" x="3309.4" y="-67.5" font-family="Helvetica,sans-Serif" font-size="10.00">_ctrl.cpp</text>
</a>
</g>
</g>
<!-- Node3&#45;&gt;Node137 -->
<g id="edge37" class="edge">
<title>Node3&#45;&gt;Node137</title>
<path fill="none" stroke="#63b8ff" d="M1853.73,-145.79C2106.39,-144.7 2967.52,-137.93 3239.4,-96 3247.26,-94.79 3255.49,-92.99 3263.43,-90.97"/>
<polygon fill="#63b8ff" stroke="#63b8ff" points="1854.02,-142.29 1844.03,-145.83 1854.05,-149.29 1854.02,-142.29"/>
</g>
<!-- Node107 -->
<g id="node32" class="node">
<title>Node107</title>
<g id="a_node32"><a xlink:href="f__op__actor__mng_8cpp.html" target="_top" xlink:title=" ">
<polygon fill="white" stroke="#666666" points="3488.9,-90.5 3387.9,-90.5 3387.9,-60.5 3488.9,-60.5 3488.9,-90.5"/>
<text text-anchor="start" x="3395.9" y="-78.5" font-family="Helvetica,sans-Serif" font-size="10.00">src/f_op/f_op_actor</text>
<text text-anchor="middle" x="3438.4" y="-67.5" font-family="Helvetica,sans-Serif" font-size="10.00">_mng.cpp</text>
</a>
</g>
</g>
<!-- Node3&#45;&gt;Node107 -->
<g id="edge38" class="edge">
<title>Node3&#45;&gt;Node107</title>
<path fill="none" stroke="#63b8ff" d="M1853.71,-146.43C2121.71,-147.67 3079.08,-148.24 3378.4,-96 3385.31,-94.79 3392.51,-92.97 3399.43,-90.92"/>
<polygon fill="#63b8ff" stroke="#63b8ff" points="1854.13,-142.93 1844.11,-146.38 1854.09,-149.93 1854.13,-142.93"/>
</g>
<!-- Node4&#45;&gt;Node15 -->
<g id="edge4" class="edge">
<title>Node4&#45;&gt;Node15</title>
<path fill="none" stroke="#63b8ff" d="M117.12,-61.93C153.71,-49.41 209,-30.49 241.32,-19.43"/>
<polygon fill="#63b8ff" stroke="#63b8ff" points="116.16,-58.56 107.84,-65.11 118.43,-65.18 116.16,-58.56"/>
</g>
<!-- Node118&#45;&gt;Node15 -->
<g id="edge8" class="edge">
<title>Node118&#45;&gt;Node15</title>
<path fill="none" stroke="#63b8ff" d="M567.95,-61.98C559.94,-59.43 551.44,-56.94 543.4,-55 467.68,-36.71 378.42,-23.86 322.36,-16.82"/>
<polygon fill="#63b8ff" stroke="#63b8ff" points="566.81,-65.29 577.4,-65.09 569,-58.64 566.81,-65.29"/>
</g>
<!-- Node118&#45;&gt;Node119 -->
<g id="edge9" class="edge">
<title>Node118&#45;&gt;Node119</title>
<path fill="none" stroke="#63b8ff" d="M614.66,-56.03C622.01,-43.96 631.28,-28.75 637.03,-19.32"/>
<polygon fill="#63b8ff" stroke="#63b8ff" points="611.83,-53.95 609.61,-64.31 617.81,-57.59 611.83,-53.95"/>
</g>
<!-- Node121&#45;&gt;Node72 -->
<g id="edge12" class="edge">
<title>Node121&#45;&gt;Node72</title>
<path fill="none" stroke="#63b8ff" d="M1162.67,-51.45C1153.63,-40.31 1143.31,-27.61 1136.59,-19.34"/>
<polygon fill="#63b8ff" stroke="#63b8ff" points="1159.89,-53.57 1168.91,-59.12 1165.32,-49.15 1159.89,-53.57"/>
</g>
<!-- Node123&#45;&gt;Node15 -->
<g id="edge15" class="edge">
<title>Node123&#45;&gt;Node15</title>
<path fill="none" stroke="#63b8ff" d="M226.44,-52.11C237.55,-40.82 250.4,-27.78 258.7,-19.34"/>
<polygon fill="#63b8ff" stroke="#63b8ff" points="223.97,-49.64 219.45,-59.22 228.96,-54.55 223.97,-49.64"/>
</g>
<!-- Node124&#45;&gt;Node15 -->
<g id="edge17" class="edge">
<title>Node124&#45;&gt;Node15</title>
<path fill="none" stroke="#63b8ff" d="M302.85,-46.51C293.12,-36.63 282.89,-26.23 275.93,-19.16"/>
<polygon fill="#63b8ff" stroke="#63b8ff" points="300.24,-48.85 309.75,-53.52 305.23,-43.94 300.24,-48.85"/>
</g>
<!-- Node129&#45;&gt;Node15 -->
<g id="edge23" class="edge">
<title>Node129&#45;&gt;Node15</title>
<path fill="none" stroke="#63b8ff" d="M397.22,-51.23C362,-40.18 322,-27.63 295.82,-19.42"/>
<polygon fill="#63b8ff" stroke="#63b8ff" points="395.94,-54.49 406.53,-54.15 398.04,-47.81 395.94,-54.49"/>
</g>
<!-- Node139&#45;&gt;Node3 -->
<g id="edge42" class="edge">
<title>Node139&#45;&gt;Node3</title>
<path fill="none" stroke="#63b8ff" d="M3708.34,-272.81C3378.68,-251.43 2130.17,-170.48 1842.69,-151.84"/>
<polygon fill="#63b8ff" stroke="#63b8ff" points="3707.96,-276.29 3718.17,-273.45 3708.41,-269.31 3707.96,-276.29"/>
</g>
<!-- Node140 -->
<g id="node36" class="node">
<title>Node140</title>
<g id="a_node36"><a xlink:href="f__pc__manager_8h.html" target="_top" xlink:title=" ">
<polygon fill="#fff0f0" stroke="red" points="3717.9,-222.5 3576.9,-222.5 3576.9,-203.5 3717.9,-203.5 3717.9,-222.5"/>
<text text-anchor="middle" x="3647.4" y="-210.5" font-family="Helvetica,sans-Serif" font-size="10.00">include/f_pc/f_pc_manager.h</text>
</a>
</g>
</g>
<!-- Node139&#45;&gt;Node140 -->
<g id="edge43" class="edge">
<title>Node139&#45;&gt;Node140</title>
<path fill="none" stroke="#63b8ff" d="M3746.34,-258.91C3720.13,-247.01 3687.63,-232.26 3667.2,-222.99"/>
<polygon fill="#63b8ff" stroke="#63b8ff" points="3744.83,-262.07 3755.38,-263.01 3747.72,-255.69 3744.83,-262.07"/>
</g>
<!-- Node147 -->
<g id="node42" class="node">
<title>Node147</title>
<g id="a_node42"><a xlink:href="f__op__overlap__req_8cpp.html" target="_top" xlink:title=" ">
<polygon fill="white" stroke="#666666" points="4282.4,-162 4172.4,-162 4172.4,-132 4282.4,-132 4282.4,-162"/>
<text text-anchor="start" x="4180.4" y="-150" font-family="Helvetica,sans-Serif" font-size="10.00">src/f_op/f_op_overlap</text>
<text text-anchor="middle" x="4227.4" y="-139" font-family="Helvetica,sans-Serif" font-size="10.00">_req.cpp</text>
</a>
</g>
</g>
<!-- Node139&#45;&gt;Node147 -->
<g id="edge58" class="edge">
<title>Node139&#45;&gt;Node147</title>
<path fill="none" stroke="#63b8ff" d="M3770.94,-254.2C3760.37,-236.68 3751.39,-213.34 3765.4,-198 3795.35,-165.22 4119.52,-168.76 4163.4,-162 4166.21,-161.57 4169.09,-161.09 4171.98,-160.57"/>
<polygon fill="#63b8ff" stroke="#63b8ff" points="3767.95,-256.02 3776.35,-262.47 3773.81,-252.19 3767.95,-256.02"/>
</g>
<!-- Node151 -->
<g id="node45" class="node">
<title>Node151</title>
<g id="a_node45"><a xlink:href="f__op__camera__mng_8cpp.html" target="_top" xlink:title=" ">
<polygon fill="white" stroke="#666666" points="3885.9,-228 3774.9,-228 3774.9,-198 3885.9,-198 3885.9,-228"/>
<text text-anchor="start" x="3782.9" y="-216" font-family="Helvetica,sans-Serif" font-size="10.00">src/f_op/f_op_camera</text>
<text text-anchor="middle" x="3830.4" y="-205" font-family="Helvetica,sans-Serif" font-size="10.00">_mng.cpp</text>
</a>
</g>
</g>
<!-- Node139&#45;&gt;Node151 -->
<g id="edge57" class="edge">
<title>Node139&#45;&gt;Node151</title>
<path fill="none" stroke="#63b8ff" d="M3803.89,-254.39C3809.67,-245.59 3816.06,-235.86 3821.11,-228.16"/>
<polygon fill="#63b8ff" stroke="#63b8ff" points="3801.11,-252.25 3798.55,-262.53 3806.97,-256.09 3801.11,-252.25"/>
</g>
<!-- Node139&#45;&gt;Node152 -->
<g id="edge59" class="edge">
<title>Node139&#45;&gt;Node152</title>
<path fill="none" stroke="#63b8ff" d="M3868.34,-262.27C3916.04,-252.72 3977.78,-240.07 4032.4,-228 4035.28,-227.36 4038.24,-226.7 4041.22,-226.02"/>
<polygon fill="#63b8ff" stroke="#63b8ff" points="3867.75,-258.81 3858.63,-264.2 3869.13,-265.68 3867.75,-258.81"/>
</g>
<!-- Node153 -->
<g id="node47" class="node">
<title>Node153</title>
<g id="a_node47"><a xlink:href="f__pc__stdcreate__req_8cpp.html" target="_top" xlink:title=" ">
<polygon fill="white" stroke="#666666" points="4022.9,-228 3903.9,-228 3903.9,-198 4022.9,-198 4022.9,-228"/>
<text text-anchor="start" x="3911.9" y="-216" font-family="Helvetica,sans-Serif" font-size="10.00">src/f_pc/f_pc_stdcreate</text>
<text text-anchor="middle" x="3963.4" y="-205" font-family="Helvetica,sans-Serif" font-size="10.00">_req.cpp</text>
</a>
</g>
</g>
<!-- Node139&#45;&gt;Node153 -->
<g id="edge60" class="edge">
<title>Node139&#45;&gt;Node153</title>
<path fill="none" stroke="#63b8ff" d="M3838.16,-259.8C3865.35,-249.86 3898.57,-237.71 3923.96,-228.43"/>
<polygon fill="#63b8ff" stroke="#63b8ff" points="3837.29,-256.4 3829.1,-263.12 3839.69,-262.97 3837.29,-256.4"/>
</g>
<!-- Node140&#45;&gt;Node3 -->
<g id="edge44" class="edge">
<title>Node140&#45;&gt;Node3</title>
<path fill="none" stroke="#63b8ff" d="M3565.31,-206.16C3523.71,-203.36 3472.39,-200.16 3426.4,-198 2807.46,-168.99 2056.53,-153.22 1842.74,-149.1"/>
<polygon fill="#63b8ff" stroke="#63b8ff" points="3565.05,-209.65 3575.26,-206.83 3565.52,-202.66 3565.05,-209.65"/>
</g>
<!-- Node140&#45;&gt;Node109 -->
<g id="edge56" class="edge">
<title>Node140&#45;&gt;Node109</title>
<path fill="none" stroke="#63b8ff" d="M3605.21,-200C3561.21,-187.48 3493.26,-168.16 3453.78,-156.93"/>
<polygon fill="#63b8ff" stroke="#63b8ff" points="3604.09,-203.32 3614.66,-202.69 3606,-196.58 3604.09,-203.32"/>
</g>
<!-- Node141 -->
<g id="node37" class="node">
<title>Node141</title>
<g id="a_node37"><a xlink:href="f__op__kankyo_8h.html" target="_top" xlink:title=" ">
<polygon fill="white" stroke="#666666" points="3679.4,-85 3545.4,-85 3545.4,-66 3679.4,-66 3679.4,-85"/>
<text text-anchor="middle" x="3612.4" y="-73" font-family="Helvetica,sans-Serif" font-size="10.00">include/f_op/f_op_kankyo.h</text>
</a>
</g>
</g>
<!-- Node140&#45;&gt;Node141 -->
<g id="edge45" class="edge">
<title>Node140&#45;&gt;Node141</title>
<path fill="none" stroke="#63b8ff" d="M3613.93,-198.02C3598.97,-189.87 3582.84,-178.01 3574.4,-162 3560.09,-134.84 3587.62,-101.18 3603.01,-85.42"/>
<polygon fill="#63b8ff" stroke="#63b8ff" points="3612.13,-201.03 3622.64,-202.39 3615.27,-194.77 3612.13,-201.03"/>
</g>
<!-- Node63 -->
<g id="node38" class="node">
<title>Node63</title>
<g id="a_node38"><a xlink:href="f__op__kankyo_8cpp.html" target="_top" xlink:title=" ">
<polygon fill="white" stroke="#666666" points="3628.4,-19 3500.4,-19 3500.4,0 3628.4,0 3628.4,-19"/>
<text text-anchor="middle" x="3564.4" y="-7" font-family="Helvetica,sans-Serif" font-size="10.00">src/f_op/f_op_kankyo.cpp</text>
</a>
</g>
</g>
<!-- Node140&#45;&gt;Node63 -->
<g id="edge52" class="edge">
<title>Node140&#45;&gt;Node63</title>
<path fill="none" stroke="#63b8ff" d="M3616.23,-197.92C3600.03,-189.37 3580.87,-177.18 3567.4,-162 3545.9,-137.76 3543.46,-127.63 3536.4,-96 3532.43,-78.22 3531.35,-72.51 3536.4,-55 3540.35,-41.32 3549.88,-27.79 3556.73,-19.3"/>
<polygon fill="#63b8ff" stroke="#63b8ff" points="3614.49,-200.96 3625,-202.32 3617.63,-194.71 3614.49,-200.96"/>
</g>
<!-- Node142 -->
<g id="node39" class="node">
<title>Node142</title>
<g id="a_node39"><a xlink:href="f__op__kankyo__mng_8h.html" target="_top" xlink:title=" ">
<polygon fill="#fff0f0" stroke="red" points="3710.9,-162 3583.9,-162 3583.9,-132 3710.9,-132 3710.9,-162"/>
<text text-anchor="start" x="3591.9" y="-150" font-family="Helvetica,sans-Serif" font-size="10.00">include/f_op/f_op_kankyo</text>
<text text-anchor="middle" x="3647.4" y="-139" font-family="Helvetica,sans-Serif" font-size="10.00">_mng.h</text>
</a>
</g>
</g>
<!-- Node140&#45;&gt;Node142 -->
<g id="edge47" class="edge">
<title>Node140&#45;&gt;Node142</title>
<path fill="none" stroke="#63b8ff" d="M3647.4,-191.78C3647.4,-182.17 3647.4,-170.92 3647.4,-162.23"/>
<polygon fill="#63b8ff" stroke="#63b8ff" points="3643.9,-191.59 3647.4,-201.59 3650.9,-191.59 3643.9,-191.59"/>
</g>
<!-- Node143 -->
<g id="node40" class="node">
<title>Node143</title>
<g id="a_node40"><a xlink:href="f__op__scene__mng_8h.html" target="_top" xlink:title=" ">
<polygon fill="#fff0f0" stroke="red" points="3889.4,-162 3767.4,-162 3767.4,-132 3889.4,-132 3889.4,-162"/>
<text text-anchor="start" x="3775.4" y="-150" font-family="Helvetica,sans-Serif" font-size="10.00">include/f_op/f_op_scene</text>
<text text-anchor="middle" x="3828.4" y="-139" font-family="Helvetica,sans-Serif" font-size="10.00">_mng.h</text>
</a>
</g>
</g>
<!-- Node140&#45;&gt;Node143 -->
<g id="edge49" class="edge">
<title>Node140&#45;&gt;Node143</title>
<path fill="none" stroke="#63b8ff" d="M3683.4,-199.27C3713.4,-188.66 3756.15,-173.55 3787.46,-162.48"/>
<polygon fill="#63b8ff" stroke="#63b8ff" points="3682.26,-195.96 3674,-202.6 3684.59,-202.56 3682.26,-195.96"/>
</g>
<!-- Node145 -->
<g id="node41" class="node">
<title>Node145</title>
<g id="a_node41"><a xlink:href="f__ap__game_8cpp.html" target="_top" xlink:title=" ">
<polygon fill="white" stroke="#666666" points="3853.9,-85 3732.9,-85 3732.9,-66 3853.9,-66 3853.9,-85"/>
<text text-anchor="middle" x="3793.4" y="-73" font-family="Helvetica,sans-Serif" font-size="10.00">src/f_ap/f_ap_game.cpp</text>
</a>
</g>
</g>
<!-- Node140&#45;&gt;Node145 -->
<g id="edge51" class="edge">
<title>Node140&#45;&gt;Node145</title>
<path fill="none" stroke="#63b8ff" d="M3672.29,-196.93C3686.7,-187.67 3704.83,-175.1 3719.4,-162 3747.29,-136.93 3774.76,-101.68 3786.91,-85.39"/>
<polygon fill="#63b8ff" stroke="#63b8ff" points="3670.43,-193.96 3663.83,-202.24 3674.16,-199.89 3670.43,-193.96"/>
</g>
<!-- Node140&#45;&gt;Node147 -->
<g id="edge53" class="edge">
<title>Node140&#45;&gt;Node147</title>
<path fill="none" stroke="#63b8ff" d="M3708.76,-201.3C3716.7,-200.09 3724.74,-198.95 3732.4,-198 3923.17,-174.36 3973.32,-190.6 4163.4,-162 4166.21,-161.58 4169.09,-161.1 4171.98,-160.59"/>
<polygon fill="#63b8ff" stroke="#63b8ff" points="3708.48,-197.8 3699.14,-202.81 3709.56,-204.71 3708.48,-197.8"/>
</g>
<!-- Node148 -->
<g id="node43" class="node">
<title>Node148</title>
<g id="a_node43"><a xlink:href="f__op__scene_8cpp.html" target="_top" xlink:title=" ">
<polygon fill="white" stroke="#666666" points="4030.9,-156.5 3907.9,-156.5 3907.9,-137.5 4030.9,-137.5 4030.9,-156.5"/>
<text text-anchor="middle" x="3969.4" y="-144.5" font-family="Helvetica,sans-Serif" font-size="10.00">src/f_op/f_op_scene.cpp</text>
</a>
</g>
</g>
<!-- Node140&#45;&gt;Node148 -->
<g id="edge54" class="edge">
<title>Node140&#45;&gt;Node148</title>
<path fill="none" stroke="#63b8ff" d="M3703.77,-200.8C3766.5,-188.33 3866.6,-168.43 3924.34,-156.96"/>
<polygon fill="#63b8ff" stroke="#63b8ff" points="3703.13,-197.36 3694,-202.74 3704.49,-204.22 3703.13,-197.36"/>
</g>
<!-- Node149 -->
<g id="node44" class="node">
<title>Node149</title>
<g id="a_node44"><a xlink:href="f__op__scene__pause_8cpp.html" target="_top" xlink:title=" ">
<polygon fill="white" stroke="#666666" points="4153.9,-162 4048.9,-162 4048.9,-132 4153.9,-132 4153.9,-162"/>
<text text-anchor="start" x="4056.9" y="-150" font-family="Helvetica,sans-Serif" font-size="10.00">src/f_op/f_op_scene</text>
<text text-anchor="middle" x="4101.4" y="-139" font-family="Helvetica,sans-Serif" font-size="10.00">_pause.cpp</text>
</a>
</g>
</g>
<!-- Node140&#45;&gt;Node149 -->
<g id="edge55" class="edge">
<title>Node140&#45;&gt;Node149</title>
<path fill="none" stroke="#63b8ff" d="M3710.83,-201.22C3718.1,-200.08 3725.41,-198.98 3732.4,-198 3868.88,-178.8 3904.59,-185.45 4040.4,-162 4043.08,-161.54 4045.82,-161.03 4048.57,-160.5"/>
<polygon fill="#63b8ff" stroke="#63b8ff" points="3710.31,-197.76 3700.98,-202.79 3711.41,-204.67 3710.31,-197.76"/>
</g>
<!-- Node141&#45;&gt;Node63 -->
<g id="edge46" class="edge">
<title>Node141&#45;&gt;Node63</title>
<path fill="none" stroke="#63b8ff" d="M3598.82,-56.4C3589.73,-44.27 3578.16,-28.84 3571.02,-19.32"/>
<polygon fill="#63b8ff" stroke="#63b8ff" points="3596.02,-58.49 3604.82,-64.39 3601.62,-54.29 3596.02,-58.49"/>
</g>
<!-- Node142&#45;&gt;Node141 -->
<g id="edge48" class="edge">
<title>Node142&#45;&gt;Node141</title>
<path fill="none" stroke="#63b8ff" d="M3635.12,-121.61C3628.74,-108.94 3621.35,-94.27 3616.77,-85.18"/>
<polygon fill="#63b8ff" stroke="#63b8ff" points="3631.85,-122.89 3639.47,-130.25 3638.1,-119.74 3631.85,-122.89"/>
</g>
<!-- Node143&#45;&gt;Node145 -->
<g id="edge50" class="edge">
<title>Node143&#45;&gt;Node145</title>
<path fill="none" stroke="#63b8ff" d="M3816.12,-121.61C3809.74,-108.94 3802.35,-94.27 3797.77,-85.18"/>
<polygon fill="#63b8ff" stroke="#63b8ff" points="3812.85,-122.89 3820.47,-130.25 3819.1,-119.74 3812.85,-122.89"/>
</g>
</g>
</svg>
