<?xml version="1.0" encoding="UTF-8" standalone="no"?>
<!DOCTYPE svg PUBLIC "-//W3C//DTD SVG 1.1//EN"
 "http://www.w3.org/Graphics/SVG/1.1/DTD/svg11.dtd">
<!-- Generated by graphviz version 7.0.4 (20221203.1631)
 -->
<!-- Title: include/JSystem/JStudio/JStudio/functionvalue.h Pages: 1 -->
<svg width="2899pt" height="709pt"
 viewBox="0.00 0.00 2898.50 709.00" xmlns="http://www.w3.org/2000/svg" xmlns:xlink="http://www.w3.org/1999/xlink">
<g id="graph0" class="graph" transform="scale(1 1) rotate(0) translate(4 705)">
<title>include/JSystem/JStudio/JStudio/functionvalue.h</title>
<!-- Node1 -->
<g id="node1" class="node">
<title>Node1</title>
<g id="a_node1"><a xlink:title=" ">
<polygon fill="#999999" stroke="#666666" points="2074.5,-701 1949.5,-701 1949.5,-671 2074.5,-671 2074.5,-701"/>
<text text-anchor="start" x="1957.5" y="-689" font-family="Helvetica,sans-Serif" font-size="10.00">include/JSystem/JStudio</text>
<text text-anchor="middle" x="2012" y="-678" font-family="Helvetica,sans-Serif" font-size="10.00">/JStudio/functionvalue.h</text>
</a>
</g>
</g>
<!-- Node2 -->
<g id="node2" class="node">
<title>Node2</title>
<g id="a_node2"><a xlink:href="fvb-data_8h.html" target="_top" xlink:title=" ">
<polygon fill="white" stroke="#666666" points="1937.5,-629.5 1812.5,-629.5 1812.5,-599.5 1937.5,-599.5 1937.5,-629.5"/>
<text text-anchor="start" x="1820.5" y="-617.5" font-family="Helvetica,sans-Serif" font-size="10.00">include/JSystem/JStudio</text>
<text text-anchor="middle" x="1875" y="-606.5" font-family="Helvetica,sans-Serif" font-size="10.00">/JStudio/fvb&#45;data.h</text>
</a>
</g>
</g>
<!-- Node1&#45;&gt;Node2 -->
<g id="edge1" class="edge">
<title>Node1&#45;&gt;Node2</title>
<path fill="none" stroke="#63b8ff" d="M1973.47,-665.46C1951.19,-654.15 1923.64,-640.17 1903.35,-629.88"/>
<polygon fill="#63b8ff" stroke="#63b8ff" points="1971.76,-668.51 1982.26,-669.91 1974.93,-662.27 1971.76,-668.51"/>
</g>
<!-- Node65 -->
<g id="node49" class="node">
<title>Node65</title>
<g id="a_node49"><a xlink:href="functionvalue-inline_8cpp.html" target="_top" xlink:title=" ">
<polygon fill="white" stroke="#666666" points="2068.5,-635 1955.5,-635 1955.5,-594 2068.5,-594 2068.5,-635"/>
<text text-anchor="start" x="1963.5" y="-623" font-family="Helvetica,sans-Serif" font-size="10.00">libs/JSystem/JStudio</text>
<text text-anchor="start" x="1963.5" y="-612" font-family="Helvetica,sans-Serif" font-size="10.00">/JStudio/functionvalue</text>
<text text-anchor="middle" x="2012" y="-601" font-family="Helvetica,sans-Serif" font-size="10.00">&#45;inline.cpp</text>
</a>
</g>
</g>
<!-- Node1&#45;&gt;Node65 -->
<g id="edge58" class="edge">
<title>Node1&#45;&gt;Node65</title>
<path fill="none" stroke="#63b8ff" d="M2012,-659.36C2012,-651.45 2012,-642.87 2012,-635.42"/>
<polygon fill="#63b8ff" stroke="#63b8ff" points="2008.5,-659.09 2012,-669.09 2015.5,-659.09 2008.5,-659.09"/>
</g>
<!-- Node66 -->
<g id="node50" class="node">
<title>Node66</title>
<g id="a_node50"><a xlink:href="functionvalue_8cpp.html" target="_top" xlink:title=" ">
<polygon fill="white" stroke="#666666" points="2217.5,-629.5 2086.5,-629.5 2086.5,-599.5 2217.5,-599.5 2217.5,-629.5"/>
<text text-anchor="start" x="2094.5" y="-617.5" font-family="Helvetica,sans-Serif" font-size="10.00">libs/JSystem/JStudio</text>
<text text-anchor="middle" x="2152" y="-606.5" font-family="Helvetica,sans-Serif" font-size="10.00">/JStudio/functionvalue.cpp</text>
</a>
</g>
</g>
<!-- Node1&#45;&gt;Node66 -->
<g id="edge59" class="edge">
<title>Node1&#45;&gt;Node66</title>
<path fill="none" stroke="#63b8ff" d="M2051.06,-665.61C2073.88,-654.28 2102.2,-640.22 2123.03,-629.88"/>
<polygon fill="#63b8ff" stroke="#63b8ff" points="2049.76,-662.35 2042.36,-669.93 2052.88,-668.61 2049.76,-662.35"/>
</g>
<!-- Node3 -->
<g id="node3" class="node">
<title>Node3</title>
<g id="a_node3"><a xlink:href="resource_8h.html" target="_top" xlink:title=" ">
<polygon fill="white" stroke="#666666" points="1696.5,-360 1559.5,-360 1559.5,-330 1696.5,-330 1696.5,-360"/>
<text text-anchor="start" x="1567.5" y="-348" font-family="Helvetica,sans-Serif" font-size="10.00">include/JSystem/JMessage</text>
<text text-anchor="middle" x="1628" y="-337" font-family="Helvetica,sans-Serif" font-size="10.00">/resource.h</text>
</a>
</g>
</g>
<!-- Node2&#45;&gt;Node3 -->
<g id="edge2" class="edge">
<title>Node2&#45;&gt;Node3</title>
<path fill="none" stroke="#63b8ff" d="M1845.04,-592.33C1831.91,-582.5 1816.65,-570.28 1804,-558 1733.99,-490.02 1663.8,-395.76 1638.17,-360.27"/>
<polygon fill="#63b8ff" stroke="#63b8ff" points="1842.81,-595.04 1852.94,-598.14 1846.96,-589.4 1842.81,-595.04"/>
</g>
<!-- Node35 -->
<g id="node35" class="node">
<title>Node35</title>
<g id="a_node35"><a xlink:href="fvb-data-parse_8h.html" target="_top" xlink:title=" ">
<polygon fill="white" stroke="#666666" points="1937.5,-558 1812.5,-558 1812.5,-528 1937.5,-528 1937.5,-558"/>
<text text-anchor="start" x="1820.5" y="-546" font-family="Helvetica,sans-Serif" font-size="10.00">include/JSystem/JStudio</text>
<text text-anchor="middle" x="1875" y="-535" font-family="Helvetica,sans-Serif" font-size="10.00">/JStudio/fvb&#45;data&#45;parse.h</text>
</a>
</g>
</g>
<!-- Node2&#45;&gt;Node35 -->
<g id="edge41" class="edge">
<title>Node2&#45;&gt;Node35</title>
<path fill="none" stroke="#63b8ff" d="M1875,-587.76C1875,-577.83 1875,-566.86 1875,-558.38"/>
<polygon fill="#63b8ff" stroke="#63b8ff" points="1871.5,-587.59 1875,-597.59 1878.5,-587.59 1871.5,-587.59"/>
</g>
<!-- Node64 -->
<g id="node48" class="node">
<title>Node64</title>
<g id="a_node48"><a xlink:href="fvb-data_8cpp.html" target="_top" xlink:title=" ">
<polygon fill="white" stroke="#666666" points="2064.5,-558 1955.5,-558 1955.5,-528 2064.5,-528 2064.5,-558"/>
<text text-anchor="start" x="1963.5" y="-546" font-family="Helvetica,sans-Serif" font-size="10.00">libs/JSystem/JStudio</text>
<text text-anchor="middle" x="2010" y="-535" font-family="Helvetica,sans-Serif" font-size="10.00">/JStudio/fvb&#45;data.cpp</text>
</a>
</g>
</g>
<!-- Node2&#45;&gt;Node64 -->
<g id="edge57" class="edge">
<title>Node2&#45;&gt;Node64</title>
<path fill="none" stroke="#63b8ff" d="M1912.96,-593.96C1934.92,-582.65 1962.07,-568.67 1982.06,-558.38"/>
<polygon fill="#63b8ff" stroke="#63b8ff" points="1911.61,-590.72 1904.32,-598.41 1914.81,-596.94 1911.61,-590.72"/>
</g>
<!-- Node4 -->
<g id="node4" class="node">
<title>Node4</title>
<g id="a_node4"><a xlink:href="JMessage_2control_8h.html" target="_top" xlink:title=" ">
<polygon fill="white" stroke="#666666" points="1696.5,-294 1559.5,-294 1559.5,-264 1696.5,-264 1696.5,-294"/>
<text text-anchor="start" x="1567.5" y="-282" font-family="Helvetica,sans-Serif" font-size="10.00">include/JSystem/JMessage</text>
<text text-anchor="middle" x="1628" y="-271" font-family="Helvetica,sans-Serif" font-size="10.00">/control.h</text>
</a>
</g>
</g>
<!-- Node3&#45;&gt;Node4 -->
<g id="edge3" class="edge">
<title>Node3&#45;&gt;Node4</title>
<path fill="none" stroke="#63b8ff" d="M1628,-318.39C1628,-310.13 1628,-301.28 1628,-294.16"/>
<polygon fill="#63b8ff" stroke="#63b8ff" points="1624.5,-318.28 1628,-328.28 1631.5,-318.28 1624.5,-318.28"/>
</g>
<!-- Node14 -->
<g id="node14" class="node">
<title>Node14</title>
<g id="a_node14"><a xlink:href="d__msg__object_8h.html" target="_top" xlink:title=" ">
<polygon fill="white" stroke="#666666" points="1381,-222.5 1271,-222.5 1271,-192.5 1381,-192.5 1381,-222.5"/>
<text text-anchor="start" x="1279" y="-210.5" font-family="Helvetica,sans-Serif" font-size="10.00">include/d/msg/d_msg</text>
<text text-anchor="middle" x="1326" y="-199.5" font-family="Helvetica,sans-Serif" font-size="10.00">_object.h</text>
</a>
</g>
</g>
<!-- Node3&#45;&gt;Node14 -->
<g id="edge38" class="edge">
<title>Node3&#45;&gt;Node14</title>
<path fill="none" stroke="#63b8ff" d="M1548.23,-336.47C1505.45,-329.83 1453.03,-317.37 1411,-294 1378.62,-276 1350.38,-242.02 1336.04,-222.76"/>
<polygon fill="#63b8ff" stroke="#63b8ff" points="1547.56,-339.91 1557.96,-337.89 1548.57,-332.98 1547.56,-339.91"/>
</g>
<!-- Node33 -->
<g id="node33" class="node">
<title>Node33</title>
<g id="a_node33"><a xlink:href="processor_8cpp.html" target="_top" xlink:title=" ">
<polygon fill="white" stroke="#666666" points="1785.5,-222.5 1664.5,-222.5 1664.5,-192.5 1785.5,-192.5 1785.5,-222.5"/>
<text text-anchor="start" x="1672.5" y="-210.5" font-family="Helvetica,sans-Serif" font-size="10.00">libs/JSystem/JMessage</text>
<text text-anchor="middle" x="1725" y="-199.5" font-family="Helvetica,sans-Serif" font-size="10.00">/processor.cpp</text>
</a>
</g>
</g>
<!-- Node3&#45;&gt;Node33 -->
<g id="edge39" class="edge">
<title>Node3&#45;&gt;Node33</title>
<path fill="none" stroke="#63b8ff" d="M1671.76,-324.17C1684.52,-316.44 1697.34,-306.4 1706,-294 1721.06,-272.43 1724.44,-240.97 1725.05,-222.83"/>
<polygon fill="#63b8ff" stroke="#63b8ff" points="1670.39,-320.93 1663.4,-328.9 1673.83,-327.02 1670.39,-320.93"/>
</g>
<!-- Node34 -->
<g id="node34" class="node">
<title>Node34</title>
<g id="a_node34"><a xlink:href="resource_8cpp.html" target="_top" xlink:title=" ">
<polygon fill="white" stroke="#666666" points="1541.5,-294 1420.5,-294 1420.5,-264 1541.5,-264 1541.5,-294"/>
<text text-anchor="start" x="1428.5" y="-282" font-family="Helvetica,sans-Serif" font-size="10.00">libs/JSystem/JMessage</text>
<text text-anchor="middle" x="1481" y="-271" font-family="Helvetica,sans-Serif" font-size="10.00">/resource.cpp</text>
</a>
</g>
</g>
<!-- Node3&#45;&gt;Node34 -->
<g id="edge40" class="edge">
<title>Node3&#45;&gt;Node34</title>
<path fill="none" stroke="#63b8ff" d="M1584.68,-325.14C1562.13,-315.32 1534.99,-303.51 1514.13,-294.43"/>
<polygon fill="#63b8ff" stroke="#63b8ff" points="1583.06,-328.25 1593.62,-329.03 1585.85,-321.83 1583.06,-328.25"/>
</g>
<!-- Node5 -->
<g id="node5" class="node">
<title>Node5</title>
<g id="a_node5"><a xlink:href="d__demo_8h.html" target="_top" xlink:title=" ">
<polygon fill="white" stroke="#666666" points="2268.5,-217 2167.5,-217 2167.5,-198 2268.5,-198 2268.5,-217"/>
<text text-anchor="middle" x="2218" y="-205" font-family="Helvetica,sans-Serif" font-size="10.00">include/d/d_demo.h</text>
</a>
</g>
</g>
<!-- Node4&#45;&gt;Node5 -->
<g id="edge4" class="edge">
<title>Node4&#45;&gt;Node5</title>
<path fill="none" stroke="#63b8ff" d="M1708.06,-268.57C1831.43,-254.04 2064.49,-226.58 2167.2,-214.48"/>
<polygon fill="#63b8ff" stroke="#63b8ff" points="1707.86,-265.07 1698.34,-269.71 1708.68,-272.02 1707.86,-265.07"/>
</g>
<!-- Node4&#45;&gt;Node14 -->
<g id="edge13" class="edge">
<title>Node4&#45;&gt;Node14</title>
<path fill="none" stroke="#63b8ff" d="M1553.95,-260.96C1500.58,-248.68 1429.72,-232.37 1381.25,-221.21"/>
<polygon fill="#63b8ff" stroke="#63b8ff" points="1553.05,-264.34 1563.58,-263.18 1554.62,-257.52 1553.05,-264.34"/>
</g>
<!-- Node32 -->
<g id="node32" class="node">
<title>Node32</title>
<g id="a_node32"><a xlink:href="JMessage_2control_8cpp.html" target="_top" xlink:title=" ">
<polygon fill="white" stroke="#666666" points="1646.5,-222.5 1525.5,-222.5 1525.5,-192.5 1646.5,-192.5 1646.5,-222.5"/>
<text text-anchor="start" x="1533.5" y="-210.5" font-family="Helvetica,sans-Serif" font-size="10.00">libs/JSystem/JMessage</text>
<text text-anchor="middle" x="1586" y="-199.5" font-family="Helvetica,sans-Serif" font-size="10.00">/control.cpp</text>
</a>
</g>
</g>
<!-- Node4&#45;&gt;Node32 -->
<g id="edge36" class="edge">
<title>Node4&#45;&gt;Node32</title>
<path fill="none" stroke="#63b8ff" d="M1613.43,-253.88C1607.18,-243.55 1600.1,-231.82 1594.69,-222.88"/>
<polygon fill="#63b8ff" stroke="#63b8ff" points="1610.35,-255.56 1618.51,-262.3 1616.34,-251.94 1610.35,-255.56"/>
</g>
<!-- Node4&#45;&gt;Node33 -->
<g id="edge37" class="edge">
<title>Node4&#45;&gt;Node33</title>
<path fill="none" stroke="#63b8ff" d="M1657.22,-257.06C1672.63,-246.02 1691.15,-232.76 1704.93,-222.88"/>
<polygon fill="#63b8ff" stroke="#63b8ff" points="1655.42,-254.05 1649.33,-262.72 1659.5,-259.74 1655.42,-254.05"/>
</g>
<!-- Node6 -->
<g id="node6" class="node">
<title>Node6</title>
<g id="a_node6"><a xlink:href="d__a__alink_8cpp.html" target="_top" xlink:title=" ">
<polygon fill="white" stroke="#666666" points="2460.5,-145.5 2351.5,-145.5 2351.5,-126.5 2460.5,-126.5 2460.5,-145.5"/>
<text text-anchor="middle" x="2406" y="-133.5" font-family="Helvetica,sans-Serif" font-size="10.00">src/d/a/d_a_alink.cpp</text>
</a>
</g>
</g>
<!-- Node5&#45;&gt;Node6 -->
<g id="edge5" class="edge">
<title>Node5&#45;&gt;Node6</title>
<path fill="none" stroke="#63b8ff" d="M2252.64,-193.69C2290.18,-179.82 2349.09,-158.04 2381.9,-145.91"/>
<polygon fill="#63b8ff" stroke="#63b8ff" points="2251.78,-190.28 2243.61,-197.03 2254.21,-196.85 2251.78,-190.28"/>
</g>
<!-- Node7 -->
<g id="node7" class="node">
<title>Node7</title>
<g id="a_node7"><a xlink:href="d__com__static_8cpp.html" target="_top" xlink:title=" ">
<polygon fill="white" stroke="#666666" points="2619,-145.5 2479,-145.5 2479,-126.5 2619,-126.5 2619,-145.5"/>
<text text-anchor="middle" x="2549" y="-133.5" font-family="Helvetica,sans-Serif" font-size="10.00">src/d/com/d_com_static.cpp</text>
</a>
</g>
</g>
<!-- Node5&#45;&gt;Node7 -->
<g id="edge6" class="edge">
<title>Node5&#45;&gt;Node7</title>
<path fill="none" stroke="#63b8ff" d="M2253.7,-194.04C2261.64,-191.51 2270.06,-189.01 2278,-187 2298.98,-181.68 2425.77,-158.89 2498.25,-145.99"/>
<polygon fill="#63b8ff" stroke="#63b8ff" points="2252.74,-190.68 2244.33,-197.12 2254.92,-197.33 2252.74,-190.68"/>
</g>
<!-- Node8 -->
<g id="node8" class="node">
<title>Node8</title>
<g id="a_node8"><a xlink:href="d__demo_8cpp.html" target="_top" xlink:title=" ">
<polygon fill="white" stroke="#666666" points="1948,-145.5 1854,-145.5 1854,-126.5 1948,-126.5 1948,-145.5"/>
<text text-anchor="middle" x="1901" y="-133.5" font-family="Helvetica,sans-Serif" font-size="10.00">src/d/d_demo.cpp</text>
</a>
</g>
</g>
<!-- Node5&#45;&gt;Node8 -->
<g id="edge7" class="edge">
<title>Node5&#45;&gt;Node8</title>
<path fill="none" stroke="#63b8ff" d="M2163.09,-195.29C2110.4,-184.41 2028.62,-167.21 1958,-151 1951.15,-149.43 1943.85,-147.69 1936.84,-145.98"/>
<polygon fill="#63b8ff" stroke="#63b8ff" points="2162.22,-198.68 2172.72,-197.27 2163.64,-191.83 2162.22,-198.68"/>
</g>
<!-- Node9 -->
<g id="node9" class="node">
<title>Node9</title>
<g id="a_node9"><a xlink:href="d__event_8cpp.html" target="_top" xlink:title=" ">
<polygon fill="white" stroke="#666666" points="2087.5,-145.5 1966.5,-145.5 1966.5,-126.5 2087.5,-126.5 2087.5,-145.5"/>
<text text-anchor="middle" x="2027" y="-133.5" font-family="Helvetica,sans-Serif" font-size="10.00">src/d/event/d_event.cpp</text>
</a>
</g>
</g>
<!-- Node5&#45;&gt;Node9 -->
<g id="edge8" class="edge">
<title>Node5&#45;&gt;Node9</title>
<path fill="none" stroke="#63b8ff" d="M2182.81,-193.69C2144.67,-179.82 2084.81,-158.04 2051.48,-145.91"/>
<polygon fill="#63b8ff" stroke="#63b8ff" points="2181.4,-196.91 2192,-197.04 2183.8,-190.33 2181.4,-196.91"/>
</g>
<!-- Node10 -->
<g id="node10" class="node">
<title>Node10</title>
<g id="a_node10"><a xlink:href="d__event__data_8cpp.html" target="_top" xlink:title=" ">
<polygon fill="white" stroke="#666666" points="2208.5,-151 2105.5,-151 2105.5,-121 2208.5,-121 2208.5,-151"/>
<text text-anchor="start" x="2113.5" y="-139" font-family="Helvetica,sans-Serif" font-size="10.00">src/d/event/d_event</text>
<text text-anchor="middle" x="2157" y="-128" font-family="Helvetica,sans-Serif" font-size="10.00">_data.cpp</text>
</a>
</g>
</g>
<!-- Node5&#45;&gt;Node10 -->
<g id="edge9" class="edge">
<title>Node5&#45;&gt;Node10</title>
<path fill="none" stroke="#63b8ff" d="M2202.85,-189.24C2192.59,-177.54 2179.19,-162.28 2169.53,-151.27"/>
<polygon fill="#63b8ff" stroke="#63b8ff" points="2200.05,-191.35 2209.28,-196.56 2205.31,-186.74 2200.05,-191.35"/>
</g>
<!-- Node11 -->
<g id="node11" class="node">
<title>Node11</title>
<g id="a_node11"><a xlink:href="d__kankyo__rain_8cpp.html" target="_top" xlink:title=" ">
<polygon fill="white" stroke="#666666" points="2753,-151 2637,-151 2637,-121 2753,-121 2753,-151"/>
<text text-anchor="start" x="2645" y="-139" font-family="Helvetica,sans-Serif" font-size="10.00">src/d/kankyo/d_kankyo</text>
<text text-anchor="middle" x="2695" y="-128" font-family="Helvetica,sans-Serif" font-size="10.00">_rain.cpp</text>
</a>
</g>
</g>
<!-- Node5&#45;&gt;Node11 -->
<g id="edge10" class="edge">
<title>Node5&#45;&gt;Node11</title>
<path fill="none" stroke="#63b8ff" d="M2252.44,-193.93C2260.72,-191.29 2269.6,-188.78 2278,-187 2430.99,-154.65 2473.48,-175.02 2628,-151 2630.82,-150.56 2633.7,-150.08 2636.6,-149.57"/>
<polygon fill="#63b8ff" stroke="#63b8ff" points="2251.44,-190.57 2243.06,-197.06 2253.66,-197.21 2251.44,-190.57"/>
</g>
<!-- Node12 -->
<g id="node12" class="node">
<title>Node12</title>
<g id="a_node12"><a xlink:href="d__s__play_8cpp.html" target="_top" xlink:title=" ">
<polygon fill="white" stroke="#666666" points="2333,-145.5 2227,-145.5 2227,-126.5 2333,-126.5 2333,-145.5"/>
<text text-anchor="middle" x="2280" y="-133.5" font-family="Helvetica,sans-Serif" font-size="10.00">src/d/s/d_s_play.cpp</text>
</a>
</g>
</g>
<!-- Node5&#45;&gt;Node12 -->
<g id="edge11" class="edge">
<title>Node5&#45;&gt;Node12</title>
<path fill="none" stroke="#63b8ff" d="M2233.49,-189.13C2245.73,-175.41 2262.32,-156.82 2272.02,-145.95"/>
<polygon fill="#63b8ff" stroke="#63b8ff" points="2230.91,-186.78 2226.86,-196.57 2236.13,-191.44 2230.91,-186.78"/>
</g>
<!-- Node13 -->
<g id="node13" class="node">
<title>Node13</title>
<g id="a_node13"><a xlink:href="f__op__actor_8cpp.html" target="_top" xlink:title=" ">
<polygon fill="white" stroke="#666666" points="2890.5,-145.5 2771.5,-145.5 2771.5,-126.5 2890.5,-126.5 2890.5,-145.5"/>
<text text-anchor="middle" x="2831" y="-133.5" font-family="Helvetica,sans-Serif" font-size="10.00">src/f_op/f_op_actor.cpp</text>
</a>
</g>
</g>
<!-- Node5&#45;&gt;Node13 -->
<g id="edge12" class="edge">
<title>Node5&#45;&gt;Node13</title>
<path fill="none" stroke="#63b8ff" d="M2251.69,-193.99C2260.17,-191.27 2269.33,-188.71 2278,-187 2489.65,-145.36 2548.32,-180.5 2762,-151 2771.57,-149.68 2781.8,-147.84 2791.38,-145.93"/>
<polygon fill="#63b8ff" stroke="#63b8ff" points="2250.81,-190.59 2242.46,-197.1 2253.05,-197.22 2250.81,-190.59"/>
</g>
<!-- Node14&#45;&gt;Node6 -->
<g id="edge19" class="edge">
<title>Node14&#45;&gt;Node6</title>
<path fill="none" stroke="#63b8ff" d="M1392.21,-198.74C1428.68,-194.71 1474.79,-190.01 1516,-187 1882.48,-160.23 1977.62,-198.44 2342,-151 2351.25,-149.8 2361.14,-147.93 2370.31,-145.94"/>
<polygon fill="#63b8ff" stroke="#63b8ff" points="1392.27,-195.21 1382.72,-199.8 1393.04,-202.17 1392.27,-195.21"/>
</g>
<!-- Node14&#45;&gt;Node8 -->
<g id="edge20" class="edge">
<title>Node14&#45;&gt;Node8</title>
<path fill="none" stroke="#63b8ff" d="M1392.48,-199.64C1527.51,-185.67 1823.03,-154.9 1845,-151 1852.6,-149.65 1860.69,-147.85 1868.29,-145.98"/>
<polygon fill="#63b8ff" stroke="#63b8ff" points="1392.18,-196.15 1382.6,-200.66 1392.9,-203.11 1392.18,-196.15"/>
</g>
<!-- Node14&#45;&gt;Node9 -->
<g id="edge21" class="edge">
<title>Node14&#45;&gt;Node9</title>
<path fill="none" stroke="#63b8ff" d="M1392.26,-199.36C1428.75,-195.51 1474.85,-190.79 1516,-187 1711.82,-168.96 1762.26,-178.33 1957,-151 1966.57,-149.66 1976.81,-147.83 1986.42,-145.94"/>
<polygon fill="#63b8ff" stroke="#63b8ff" points="1392.34,-195.83 1382.76,-200.36 1393.08,-202.79 1392.34,-195.83"/>
</g>
<!-- Node14&#45;&gt;Node10 -->
<g id="edge22" class="edge">
<title>Node14&#45;&gt;Node10</title>
<path fill="none" stroke="#63b8ff" d="M1392.23,-199.04C1428.71,-195.1 1474.82,-190.39 1516,-187 1773.85,-165.79 1841.02,-188.53 2097,-151 2099.65,-150.61 2102.35,-150.17 2105.07,-149.68"/>
<polygon fill="#63b8ff" stroke="#63b8ff" points="1392.3,-195.51 1382.74,-200.07 1393.06,-202.47 1392.3,-195.51"/>
</g>
<!-- Node14&#45;&gt;Node12 -->
<g id="edge31" class="edge">
<title>Node14&#45;&gt;Node12</title>
<path fill="none" stroke="#63b8ff" d="M1392.22,-198.87C1428.69,-194.87 1474.8,-190.17 1516,-187 1827.49,-163.04 1908.5,-193.56 2218,-151 2226.85,-149.78 2236.31,-147.93 2245.11,-145.98"/>
<polygon fill="#63b8ff" stroke="#63b8ff" points="1392.28,-195.34 1382.73,-199.91 1393.05,-202.3 1392.28,-195.34"/>
</g>
<!-- Node15 -->
<g id="node15" class="node">
<title>Node15</title>
<g id="a_node15"><a xlink:href="d__msg__string__base_8h.html" target="_top" xlink:title=" ">
<polygon fill="white" stroke="#666666" points="1506,-151 1396,-151 1396,-121 1506,-121 1506,-151"/>
<text text-anchor="start" x="1404" y="-139" font-family="Helvetica,sans-Serif" font-size="10.00">include/d/msg/d_msg</text>
<text text-anchor="middle" x="1451" y="-128" font-family="Helvetica,sans-Serif" font-size="10.00">_string_base.h</text>
</a>
</g>
</g>
<!-- Node14&#45;&gt;Node15 -->
<g id="edge14" class="edge">
<title>Node14&#45;&gt;Node15</title>
<path fill="none" stroke="#63b8ff" d="M1361.71,-186.65C1381.94,-175.4 1406.79,-161.58 1425.13,-151.38"/>
<polygon fill="#63b8ff" stroke="#63b8ff" points="1360.26,-183.45 1353.22,-191.36 1363.66,-189.56 1360.26,-183.45"/>
</g>
<!-- Node20 -->
<g id="node20" class="node">
<title>Node20</title>
<g id="a_node20"><a xlink:href="d__kankyo_8cpp.html" target="_top" xlink:title=" ">
<polygon fill="white" stroke="#666666" points="1658,-145.5 1524,-145.5 1524,-126.5 1658,-126.5 1658,-145.5"/>
<text text-anchor="middle" x="1591" y="-133.5" font-family="Helvetica,sans-Serif" font-size="10.00">src/d/kankyo/d_kankyo.cpp</text>
</a>
</g>
</g>
<!-- Node14&#45;&gt;Node20 -->
<g id="edge23" class="edge">
<title>Node14&#45;&gt;Node20</title>
<path fill="none" stroke="#63b8ff" d="M1392.09,-189.17C1444.41,-175.45 1515.36,-156.84 1556.85,-145.96"/>
<polygon fill="#63b8ff" stroke="#63b8ff" points="1391.48,-185.71 1382.69,-191.63 1393.25,-192.48 1391.48,-185.71"/>
</g>
<!-- Node21 -->
<g id="node21" class="node">
<title>Node21</title>
<g id="a_node21"><a xlink:href="d__menu__window_8cpp.html" target="_top" xlink:title=" ">
<polygon fill="white" stroke="#666666" points="1835.5,-145.5 1676.5,-145.5 1676.5,-126.5 1835.5,-126.5 1835.5,-145.5"/>
<text text-anchor="middle" x="1756" y="-133.5" font-family="Helvetica,sans-Serif" font-size="10.00">src/d/menu/d_menu_window.cpp</text>
</a>
</g>
</g>
<!-- Node14&#45;&gt;Node21 -->
<g id="edge24" class="edge">
<title>Node14&#45;&gt;Node21</title>
<path fill="none" stroke="#63b8ff" d="M1392.61,-195.73C1477.2,-182.06 1621.64,-158.72 1700.54,-145.96"/>
<polygon fill="#63b8ff" stroke="#63b8ff" points="1392.14,-192.26 1382.83,-197.31 1393.26,-199.17 1392.14,-192.26"/>
</g>
<!-- Node22 -->
<g id="node22" class="node">
<title>Node22</title>
<g id="a_node22"><a xlink:href="d__meter2__draw_8cpp.html" target="_top" xlink:title=" ">
<polygon fill="white" stroke="#666666" points="110,-151 0,-151 0,-121 110,-121 110,-151"/>
<text text-anchor="start" x="8" y="-139" font-family="Helvetica,sans-Serif" font-size="10.00">src/d/meter/d_meter2</text>
<text text-anchor="middle" x="55" y="-128" font-family="Helvetica,sans-Serif" font-size="10.00">_draw.cpp</text>
</a>
</g>
</g>
<!-- Node14&#45;&gt;Node22 -->
<g id="edge25" class="edge">
<title>Node14&#45;&gt;Node22</title>
<path fill="none" stroke="#63b8ff" d="M1259.2,-204.92C1039.74,-199.5 342.23,-180.33 119,-151 116.18,-150.63 113.3,-150.2 110.4,-149.72"/>
<polygon fill="#63b8ff" stroke="#63b8ff" points="1258.92,-208.41 1269,-205.16 1259.09,-201.42 1258.92,-208.41"/>
</g>
<!-- Node23 -->
<g id="node23" class="node">
<title>Node23</title>
<g id="a_node23"><a xlink:href="d__meter2__info_8cpp.html" target="_top" xlink:title=" ">
<polygon fill="white" stroke="#666666" points="238,-151 128,-151 128,-121 238,-121 238,-151"/>
<text text-anchor="start" x="136" y="-139" font-family="Helvetica,sans-Serif" font-size="10.00">src/d/meter/d_meter2</text>
<text text-anchor="middle" x="183" y="-128" font-family="Helvetica,sans-Serif" font-size="10.00">_info.cpp</text>
</a>
</g>
</g>
<!-- Node14&#45;&gt;Node23 -->
<g id="edge26" class="edge">
<title>Node14&#45;&gt;Node23</title>
<path fill="none" stroke="#63b8ff" d="M1259.2,-206.86C1089.37,-206.95 627.54,-202.06 247,-151 244.18,-150.62 241.3,-150.18 238.4,-149.7"/>
<polygon fill="#63b8ff" stroke="#63b8ff" points="1259.17,-210.36 1269.17,-206.85 1259.17,-203.36 1259.17,-210.36"/>
</g>
<!-- Node24 -->
<g id="node24" class="node">
<title>Node24</title>
<g id="a_node24"><a xlink:href="d__meter__map_8cpp.html" target="_top" xlink:title=" ">
<polygon fill="white" stroke="#666666" points="360,-151 256,-151 256,-121 360,-121 360,-151"/>
<text text-anchor="start" x="264" y="-139" font-family="Helvetica,sans-Serif" font-size="10.00">src/d/meter/d_meter</text>
<text text-anchor="middle" x="308" y="-128" font-family="Helvetica,sans-Serif" font-size="10.00">_map.cpp</text>
</a>
</g>
</g>
<!-- Node14&#45;&gt;Node24 -->
<g id="edge27" class="edge">
<title>Node14&#45;&gt;Node24</title>
<path fill="none" stroke="#63b8ff" d="M1259.39,-206.47C1103.09,-205.56 700.91,-198.37 369,-151 366.2,-150.6 363.35,-150.14 360.47,-149.63"/>
<polygon fill="#63b8ff" stroke="#63b8ff" points="1259.13,-209.97 1269.14,-206.52 1259.16,-202.97 1259.13,-209.97"/>
</g>
<!-- Node25 -->
<g id="node25" class="node">
<title>Node25</title>
<g id="a_node25"><a xlink:href="d__msg__flow_8cpp.html" target="_top" xlink:title=" ">
<polygon fill="white" stroke="#666666" points="511.5,-145.5 378.5,-145.5 378.5,-126.5 511.5,-126.5 511.5,-145.5"/>
<text text-anchor="middle" x="445" y="-133.5" font-family="Helvetica,sans-Serif" font-size="10.00">src/d/msg/d_msg_flow.cpp</text>
</a>
</g>
</g>
<!-- Node14&#45;&gt;Node25 -->
<g id="edge28" class="edge">
<title>Node14&#45;&gt;Node25</title>
<path fill="none" stroke="#63b8ff" d="M1259.45,-204.46C1121.35,-199.68 793.74,-185.41 521,-151 510.62,-149.69 499.51,-147.88 489.07,-145.99"/>
<polygon fill="#63b8ff" stroke="#63b8ff" points="1259.02,-207.95 1269.13,-204.79 1259.26,-200.96 1259.02,-207.95"/>
</g>
<!-- Node26 -->
<g id="node26" class="node">
<title>Node26</title>
<g id="a_node26"><a xlink:href="d__msg__object_8cpp.html" target="_top" xlink:title=" ">
<polygon fill="white" stroke="#666666" points="672,-145.5 530,-145.5 530,-126.5 672,-126.5 672,-145.5"/>
<text text-anchor="middle" x="601" y="-133.5" font-family="Helvetica,sans-Serif" font-size="10.00">src/d/msg/d_msg_object.cpp</text>
</a>
</g>
</g>
<!-- Node14&#45;&gt;Node26 -->
<g id="edge29" class="edge">
<title>Node14&#45;&gt;Node26</title>
<path fill="none" stroke="#63b8ff" d="M1259.34,-202.69C1142.07,-195.56 891.33,-178.4 681,-151 670.37,-149.62 659.01,-147.82 648.27,-145.98"/>
<polygon fill="#63b8ff" stroke="#63b8ff" points="1258.9,-206.17 1269.1,-203.28 1259.32,-199.18 1258.9,-206.17"/>
</g>
<!-- Node27 -->
<g id="node27" class="node">
<title>Node27</title>
<g id="a_node27"><a xlink:href="d__msg__out__font_8cpp.html" target="_top" xlink:title=" ">
<polygon fill="white" stroke="#666666" points="801.5,-151 690.5,-151 690.5,-121 801.5,-121 801.5,-151"/>
<text text-anchor="start" x="698.5" y="-139" font-family="Helvetica,sans-Serif" font-size="10.00">src/d/msg/d_msg_out</text>
<text text-anchor="middle" x="746" y="-128" font-family="Helvetica,sans-Serif" font-size="10.00">_font.cpp</text>
</a>
</g>
</g>
<!-- Node14&#45;&gt;Node27 -->
<g id="edge30" class="edge">
<title>Node14&#45;&gt;Node27</title>
<path fill="none" stroke="#63b8ff" d="M1259.62,-201.58C1161.25,-193.79 971.13,-176.8 811,-151 808.04,-150.52 805.01,-150 801.95,-149.44"/>
<polygon fill="#63b8ff" stroke="#63b8ff" points="1259.12,-205.06 1269.36,-202.35 1259.67,-198.08 1259.12,-205.06"/>
</g>
<!-- Node28 -->
<g id="node28" class="node">
<title>Node28</title>
<g id="a_node28"><a xlink:href="d__shop__system_8cpp.html" target="_top" xlink:title=" ">
<polygon fill="white" stroke="#666666" points="972,-145.5 820,-145.5 820,-126.5 972,-126.5 972,-145.5"/>
<text text-anchor="middle" x="896" y="-133.5" font-family="Helvetica,sans-Serif" font-size="10.00">src/d/shop/d_shop_system.cpp</text>
</a>
</g>
</g>
<!-- Node14&#45;&gt;Node28 -->
<g id="edge32" class="edge">
<title>Node14&#45;&gt;Node28</title>
<path fill="none" stroke="#63b8ff" d="M1259.52,-195.88C1190.04,-184.76 1077.85,-166.77 981,-151 971.11,-149.39 960.57,-147.66 950.41,-145.99"/>
<polygon fill="#63b8ff" stroke="#63b8ff" points="1258.8,-199.31 1269.22,-197.43 1259.9,-192.4 1258.8,-199.31"/>
</g>
<!-- Node29 -->
<g id="node29" class="node">
<title>Node29</title>
<g id="a_node29"><a xlink:href="f__op__msg__mng_8cpp.html" target="_top" xlink:title=" ">
<polygon fill="white" stroke="#666666" points="1130,-145.5 990,-145.5 990,-126.5 1130,-126.5 1130,-145.5"/>
<text text-anchor="middle" x="1060" y="-133.5" font-family="Helvetica,sans-Serif" font-size="10.00">src/f_op/f_op_msg_mng.cpp</text>
</a>
</g>
</g>
<!-- Node14&#45;&gt;Node29 -->
<g id="edge33" class="edge">
<title>Node14&#45;&gt;Node29</title>
<path fill="none" stroke="#63b8ff" d="M1259.66,-189.17C1207.14,-175.45 1135.93,-156.84 1094.28,-145.96"/>
<polygon fill="#63b8ff" stroke="#63b8ff" points="1258.54,-192.49 1269.1,-191.63 1260.31,-185.72 1258.54,-192.49"/>
</g>
<!-- Node30 -->
<g id="node30" class="node">
<title>Node30</title>
<g id="a_node30"><a xlink:href="d__msg__scrn__base_8cpp.html" target="_top" xlink:title=" ">
<polygon fill="white" stroke="#666666" points="1254,-151 1148,-151 1148,-121 1254,-121 1254,-151"/>
<text text-anchor="start" x="1156" y="-139" font-family="Helvetica,sans-Serif" font-size="10.00">src/msg/scrn/d_msg</text>
<text text-anchor="middle" x="1201" y="-128" font-family="Helvetica,sans-Serif" font-size="10.00">_scrn_base.cpp</text>
</a>
</g>
</g>
<!-- Node14&#45;&gt;Node30 -->
<g id="edge34" class="edge">
<title>Node14&#45;&gt;Node30</title>
<path fill="none" stroke="#63b8ff" d="M1290.29,-186.65C1270.06,-175.4 1245.21,-161.58 1226.87,-151.38"/>
<polygon fill="#63b8ff" stroke="#63b8ff" points="1288.34,-189.56 1298.78,-191.36 1291.74,-183.45 1288.34,-189.56"/>
</g>
<!-- Node31 -->
<g id="node31" class="node">
<title>Node31</title>
<g id="a_node31"><a xlink:href="d__msg__scrn__boss_8cpp.html" target="_top" xlink:title=" ">
<polygon fill="white" stroke="#666666" points="1378,-151 1272,-151 1272,-121 1378,-121 1378,-151"/>
<text text-anchor="start" x="1280" y="-139" font-family="Helvetica,sans-Serif" font-size="10.00">src/msg/scrn/d_msg</text>
<text text-anchor="middle" x="1325" y="-128" font-family="Helvetica,sans-Serif" font-size="10.00">_scrn_boss.cpp</text>
</a>
</g>
</g>
<!-- Node14&#45;&gt;Node31 -->
<g id="edge35" class="edge">
<title>Node14&#45;&gt;Node31</title>
<path fill="none" stroke="#63b8ff" d="M1325.63,-180.76C1325.49,-170.83 1325.33,-159.86 1325.21,-151.38"/>
<polygon fill="#63b8ff" stroke="#63b8ff" points="1322.13,-180.64 1325.77,-190.59 1329.13,-180.54 1322.13,-180.64"/>
</g>
<!-- Node16 -->
<g id="node16" class="node">
<title>Node16</title>
<g id="a_node16"><a xlink:href="d__msg__string_8h.html" target="_top" xlink:title=" ">
<polygon fill="white" stroke="#666666" points="1439,-85 1329,-85 1329,-55 1439,-55 1439,-85"/>
<text text-anchor="start" x="1337" y="-73" font-family="Helvetica,sans-Serif" font-size="10.00">include/d/msg/d_msg</text>
<text text-anchor="middle" x="1384" y="-62" font-family="Helvetica,sans-Serif" font-size="10.00">_string.h</text>
</a>
</g>
</g>
<!-- Node15&#45;&gt;Node16 -->
<g id="edge15" class="edge">
<title>Node15&#45;&gt;Node16</title>
<path fill="none" stroke="#63b8ff" d="M1428.06,-113.09C1418.39,-103.85 1407.41,-93.36 1398.83,-85.16"/>
<polygon fill="#63b8ff" stroke="#63b8ff" points="1425.39,-115.37 1435.04,-119.75 1430.22,-110.31 1425.39,-115.37"/>
</g>
<!-- Node19 -->
<g id="node19" class="node">
<title>Node19</title>
<g id="a_node19"><a xlink:href="d__msg__string__base_8cpp.html" target="_top" xlink:title=" ">
<polygon fill="white" stroke="#666666" points="1579,-85 1457,-85 1457,-55 1579,-55 1579,-85"/>
<text text-anchor="start" x="1465" y="-73" font-family="Helvetica,sans-Serif" font-size="10.00">src/d/msg/d_msg_string</text>
<text text-anchor="middle" x="1518" y="-62" font-family="Helvetica,sans-Serif" font-size="10.00">_base.cpp</text>
</a>
</g>
</g>
<!-- Node15&#45;&gt;Node19 -->
<g id="edge18" class="edge">
<title>Node15&#45;&gt;Node19</title>
<path fill="none" stroke="#63b8ff" d="M1473.94,-113.09C1483.61,-103.85 1494.59,-93.36 1503.17,-85.16"/>
<polygon fill="#63b8ff" stroke="#63b8ff" points="1471.78,-110.31 1466.96,-119.75 1476.61,-115.37 1471.78,-110.31"/>
</g>
<!-- Node17 -->
<g id="node17" class="node">
<title>Node17</title>
<g id="a_node17"><a xlink:href="d__menu__save_8cpp.html" target="_top" xlink:title=" ">
<polygon fill="white" stroke="#666666" points="1376.5,-19 1229.5,-19 1229.5,0 1376.5,0 1376.5,-19"/>
<text text-anchor="middle" x="1303" y="-7" font-family="Helvetica,sans-Serif" font-size="10.00">src/d/menu/d_menu_save.cpp</text>
</a>
</g>
</g>
<!-- Node16&#45;&gt;Node17 -->
<g id="edge16" class="edge">
<title>Node16&#45;&gt;Node17</title>
<path fill="none" stroke="#63b8ff" d="M1354.86,-47.95C1341.12,-38.03 1325.49,-26.74 1315.01,-19.18"/>
<polygon fill="#63b8ff" stroke="#63b8ff" points="1352.59,-50.64 1362.75,-53.65 1356.69,-44.96 1352.59,-50.64"/>
</g>
<!-- Node18 -->
<g id="node18" class="node">
<title>Node18</title>
<g id="a_node18"><a xlink:href="d__msg__string_8cpp.html" target="_top" xlink:title=" ">
<polygon fill="white" stroke="#666666" points="1535,-19 1395,-19 1395,0 1535,0 1535,-19"/>
<text text-anchor="middle" x="1465" y="-7" font-family="Helvetica,sans-Serif" font-size="10.00">src/d/msg/d_msg_string.cpp</text>
</a>
</g>
</g>
<!-- Node16&#45;&gt;Node18 -->
<g id="edge17" class="edge">
<title>Node16&#45;&gt;Node18</title>
<path fill="none" stroke="#63b8ff" d="M1413.14,-47.95C1426.88,-38.03 1442.51,-26.74 1452.99,-19.18"/>
<polygon fill="#63b8ff" stroke="#63b8ff" points="1411.31,-44.96 1405.25,-53.65 1415.41,-50.64 1411.31,-44.96"/>
</g>
<!-- Node36 -->
<g id="node36" class="node">
<title>Node36</title>
<g id="a_node36"><a xlink:href="fvb_8h.html" target="_top" xlink:title=" ">
<polygon fill="white" stroke="#666666" points="2112.5,-492 1987.5,-492 1987.5,-462 2112.5,-462 2112.5,-492"/>
<text text-anchor="start" x="1995.5" y="-480" font-family="Helvetica,sans-Serif" font-size="10.00">include/JSystem/JStudio</text>
<text text-anchor="middle" x="2050" y="-469" font-family="Helvetica,sans-Serif" font-size="10.00">/JStudio/fvb.h</text>
</a>
</g>
</g>
<!-- Node35&#45;&gt;Node36 -->
<g id="edge42" class="edge">
<title>Node35&#45;&gt;Node36</title>
<path fill="none" stroke="#63b8ff" d="M1924.75,-523.8C1951.95,-513.86 1985.17,-501.71 2010.56,-492.43"/>
<polygon fill="#63b8ff" stroke="#63b8ff" points="1923.88,-520.4 1915.69,-527.12 1926.29,-526.97 1923.88,-520.4"/>
</g>
<!-- Node63 -->
<g id="node47" class="node">
<title>Node63</title>
<g id="a_node47"><a xlink:href="fvb-data-parse_8cpp.html" target="_top" xlink:title=" ">
<polygon fill="white" stroke="#666666" points="1943,-492 1807,-492 1807,-462 1943,-462 1943,-492"/>
<text text-anchor="start" x="1815" y="-480" font-family="Helvetica,sans-Serif" font-size="10.00">libs/JSystem/JStudio</text>
<text text-anchor="middle" x="1875" y="-469" font-family="Helvetica,sans-Serif" font-size="10.00">/JStudio/fvb&#45;data&#45;parse.cpp</text>
</a>
</g>
</g>
<!-- Node35&#45;&gt;Node63 -->
<g id="edge56" class="edge">
<title>Node35&#45;&gt;Node63</title>
<path fill="none" stroke="#63b8ff" d="M1875,-516.39C1875,-508.13 1875,-499.28 1875,-492.16"/>
<polygon fill="#63b8ff" stroke="#63b8ff" points="1871.5,-516.28 1875,-526.28 1878.5,-516.28 1871.5,-516.28"/>
</g>
<!-- Node37 -->
<g id="node37" class="node">
<title>Node37</title>
<g id="a_node37"><a xlink:href="jstudio-control_8h.html" target="_top" xlink:title=" ">
<polygon fill="white" stroke="#666666" points="2157.5,-426 2032.5,-426 2032.5,-396 2157.5,-396 2157.5,-426"/>
<text text-anchor="start" x="2040.5" y="-414" font-family="Helvetica,sans-Serif" font-size="10.00">include/JSystem/JStudio</text>
<text text-anchor="middle" x="2095" y="-403" font-family="Helvetica,sans-Serif" font-size="10.00">/JStudio/jstudio&#45;control.h</text>
</a>
</g>
</g>
<!-- Node36&#45;&gt;Node37 -->
<g id="edge43" class="edge">
<title>Node36&#45;&gt;Node37</title>
<path fill="none" stroke="#63b8ff" d="M2066.6,-452.39C2072.79,-443.59 2079.63,-433.86 2085.04,-426.16"/>
<polygon fill="#63b8ff" stroke="#63b8ff" points="2063.75,-450.36 2060.86,-460.56 2069.47,-454.39 2063.75,-450.36"/>
</g>
<!-- Node38 -->
<g id="node38" class="node">
<title>Node38</title>
<g id="a_node38"><a xlink:href="jstudio-object_8h.html" target="_top" xlink:title=" ">
<polygon fill="white" stroke="#666666" points="2112.5,-360 1987.5,-360 1987.5,-330 2112.5,-330 2112.5,-360"/>
<text text-anchor="start" x="1995.5" y="-348" font-family="Helvetica,sans-Serif" font-size="10.00">include/JSystem/JStudio</text>
<text text-anchor="middle" x="2050" y="-337" font-family="Helvetica,sans-Serif" font-size="10.00">/JStudio/jstudio&#45;object.h</text>
</a>
</g>
</g>
<!-- Node36&#45;&gt;Node38 -->
<g id="edge54" class="edge">
<title>Node36&#45;&gt;Node38</title>
<path fill="none" stroke="#63b8ff" d="M2034.64,-452.15C2030.32,-444.16 2026.2,-434.99 2024,-426 2020.83,-413.05 2020.83,-408.95 2024,-396 2027.16,-383.07 2034.3,-369.77 2040.3,-360.14"/>
<polygon fill="#63b8ff" stroke="#63b8ff" points="2031.48,-453.67 2039.54,-460.55 2037.53,-450.15 2031.48,-453.67"/>
</g>
<!-- Node62 -->
<g id="node46" class="node">
<title>Node62</title>
<g id="a_node46"><a xlink:href="fvb_8cpp.html" target="_top" xlink:title=" ">
<polygon fill="white" stroke="#666666" points="2284.5,-426 2175.5,-426 2175.5,-396 2284.5,-396 2284.5,-426"/>
<text text-anchor="start" x="2183.5" y="-414" font-family="Helvetica,sans-Serif" font-size="10.00">libs/JSystem/JStudio</text>
<text text-anchor="middle" x="2230" y="-403" font-family="Helvetica,sans-Serif" font-size="10.00">/JStudio/fvb.cpp</text>
</a>
</g>
</g>
<!-- Node36&#45;&gt;Node62 -->
<g id="edge55" class="edge">
<title>Node36&#45;&gt;Node62</title>
<path fill="none" stroke="#63b8ff" d="M2101.17,-457.8C2129.15,-447.86 2163.31,-435.71 2189.43,-426.43"/>
<polygon fill="#63b8ff" stroke="#63b8ff" points="2100.07,-454.48 2091.82,-461.13 2102.42,-461.08 2100.07,-454.48"/>
</g>
<!-- Node37&#45;&gt;Node38 -->
<g id="edge44" class="edge">
<title>Node37&#45;&gt;Node38</title>
<path fill="none" stroke="#63b8ff" d="M2078.4,-386.39C2072.21,-377.59 2065.37,-367.86 2059.96,-360.16"/>
<polygon fill="#63b8ff" stroke="#63b8ff" points="2075.53,-388.39 2084.14,-394.56 2081.25,-384.36 2075.53,-388.39"/>
</g>
<!-- Node61 -->
<g id="node45" class="node">
<title>Node61</title>
<g id="a_node45"><a xlink:href="jstudio-control_8cpp.html" target="_top" xlink:title=" ">
<polygon fill="white" stroke="#666666" points="2265,-360 2131,-360 2131,-330 2265,-330 2265,-360"/>
<text text-anchor="start" x="2139" y="-348" font-family="Helvetica,sans-Serif" font-size="10.00">libs/JSystem/JStudio</text>
<text text-anchor="middle" x="2198" y="-337" font-family="Helvetica,sans-Serif" font-size="10.00">/JStudio/jstudio&#45;control.cpp</text>
</a>
</g>
</g>
<!-- Node37&#45;&gt;Node61 -->
<g id="edge53" class="edge">
<title>Node37&#45;&gt;Node61</title>
<path fill="none" stroke="#63b8ff" d="M2127.77,-389.64C2143.13,-380.09 2161.06,-368.95 2174.96,-360.31"/>
<polygon fill="#63b8ff" stroke="#63b8ff" points="2126.05,-386.59 2119.4,-394.84 2129.74,-392.53 2126.05,-386.59"/>
</g>
<!-- Node38&#45;&gt;Node5 -->
<g id="edge51" class="edge">
<title>Node38&#45;&gt;Node5</title>
<path fill="none" stroke="#63b8ff" d="M2123.34,-326.64C2155.4,-317.64 2188.18,-306.03 2199,-294 2218.73,-272.07 2219.47,-234.28 2218.67,-217.26"/>
<polygon fill="#63b8ff" stroke="#63b8ff" points="2122.72,-323.19 2113.99,-329.19 2124.56,-329.94 2122.72,-323.19"/>
</g>
<!-- Node39 -->
<g id="node39" class="node">
<title>Node39</title>
<g id="a_node39"><a xlink:href="JStudio_2JStudio__JAudio2_2control_8h.html" target="_top" xlink:title=" ">
<polygon fill="white" stroke="#666666" points="2402.5,-294 2269.5,-294 2269.5,-264 2402.5,-264 2402.5,-294"/>
<text text-anchor="start" x="2277.5" y="-282" font-family="Helvetica,sans-Serif" font-size="10.00">include/JSystem/JStudio</text>
<text text-anchor="middle" x="2336" y="-271" font-family="Helvetica,sans-Serif" font-size="10.00">/JStudio_JAudio2/control.h</text>
</a>
</g>
</g>
<!-- Node38&#45;&gt;Node39 -->
<g id="edge45" class="edge">
<title>Node38&#45;&gt;Node39</title>
<path fill="none" stroke="#63b8ff" d="M2123.79,-327.49C2169.47,-317.27 2227.55,-304.27 2271.4,-294.46"/>
<polygon fill="#63b8ff" stroke="#63b8ff" points="2123.24,-324.03 2114.24,-329.62 2124.76,-330.86 2123.24,-324.03"/>
</g>
<!-- Node42 -->
<g id="node42" class="node">
<title>Node42</title>
<g id="a_node42"><a xlink:href="JStudio_2JStudio__JParticle_2control_8h.html" target="_top" xlink:title=" ">
<polygon fill="#fff0f0" stroke="red" points="1894,-294 1758,-294 1758,-264 1894,-264 1894,-294"/>
<text text-anchor="start" x="1766" y="-282" font-family="Helvetica,sans-Serif" font-size="10.00">include/JSystem/JStudio</text>
<text text-anchor="middle" x="1826" y="-271" font-family="Helvetica,sans-Serif" font-size="10.00">/JStudio_JParticle/control.h</text>
</a>
</g>
</g>
<!-- Node38&#45;&gt;Node42 -->
<g id="edge49" class="edge">
<title>Node38&#45;&gt;Node42</title>
<path fill="none" stroke="#63b8ff" d="M1988.79,-326.51C1953.49,-316.43 1909.65,-303.9 1876.37,-294.39"/>
<polygon fill="#63b8ff" stroke="#63b8ff" points="1987.42,-329.76 1998,-329.14 1989.34,-323.03 1987.42,-329.76"/>
</g>
<!-- Node46 -->
<g id="node43" class="node">
<title>Node46</title>
<g id="a_node43"><a xlink:href="JStudio_2JStudio__JStage_2control_8h.html" target="_top" xlink:title=" ">
<polygon fill="#fff0f0" stroke="red" points="2040,-294 1912,-294 1912,-264 2040,-264 2040,-294"/>
<text text-anchor="start" x="1920" y="-282" font-family="Helvetica,sans-Serif" font-size="10.00">include/JSystem/JStudio</text>
<text text-anchor="middle" x="1976" y="-271" font-family="Helvetica,sans-Serif" font-size="10.00">/JStudio_JStage/control.h</text>
</a>
</g>
</g>
<!-- Node38&#45;&gt;Node46 -->
<g id="edge50" class="edge">
<title>Node38&#45;&gt;Node46</title>
<path fill="none" stroke="#63b8ff" d="M2025.05,-322.42C2014.37,-313.18 2002.19,-302.65 1992.63,-294.39"/>
<polygon fill="#63b8ff" stroke="#63b8ff" points="2022.58,-324.91 2032.43,-328.81 2027.16,-319.62 2022.58,-324.91"/>
</g>
<!-- Node60 -->
<g id="node44" class="node">
<title>Node60</title>
<g id="a_node44"><a xlink:href="jstudio-object_8cpp.html" target="_top" xlink:title=" ">
<polygon fill="white" stroke="#666666" points="2189.5,-294 2058.5,-294 2058.5,-264 2189.5,-264 2189.5,-294"/>
<text text-anchor="start" x="2066.5" y="-282" font-family="Helvetica,sans-Serif" font-size="10.00">libs/JSystem/JStudio</text>
<text text-anchor="middle" x="2124" y="-271" font-family="Helvetica,sans-Serif" font-size="10.00">/JStudio/jstudio&#45;object.cpp</text>
</a>
</g>
</g>
<!-- Node38&#45;&gt;Node60 -->
<g id="edge52" class="edge">
<title>Node38&#45;&gt;Node60</title>
<path fill="none" stroke="#63b8ff" d="M2074.95,-322.42C2085.63,-313.18 2097.81,-302.65 2107.37,-294.39"/>
<polygon fill="#63b8ff" stroke="#63b8ff" points="2072.84,-319.62 2067.57,-328.81 2077.42,-324.91 2072.84,-319.62"/>
</g>
<!-- Node39&#45;&gt;Node5 -->
<g id="edge46" class="edge">
<title>Node39&#45;&gt;Node5</title>
<path fill="none" stroke="#63b8ff" d="M2301.9,-257.92C2279.14,-244.51 2250.33,-227.54 2233.07,-217.38"/>
<polygon fill="#63b8ff" stroke="#63b8ff" points="2299.85,-260.77 2310.25,-262.83 2303.41,-254.74 2299.85,-260.77"/>
</g>
<!-- Node40 -->
<g id="node40" class="node">
<title>Node40</title>
<g id="a_node40"><a xlink:href="JStudio_2JStudio__JAudio2_2control_8cpp.html" target="_top" xlink:title=" ">
<polygon fill="white" stroke="#666666" points="2429.5,-222.5 2286.5,-222.5 2286.5,-192.5 2429.5,-192.5 2429.5,-222.5"/>
<text text-anchor="start" x="2294.5" y="-210.5" font-family="Helvetica,sans-Serif" font-size="10.00">libs/JSystem/JStudio</text>
<text text-anchor="middle" x="2358" y="-199.5" font-family="Helvetica,sans-Serif" font-size="10.00">/JStudio_JAudio2/control.cpp</text>
</a>
</g>
</g>
<!-- Node39&#45;&gt;Node40 -->
<g id="edge47" class="edge">
<title>Node39&#45;&gt;Node40</title>
<path fill="none" stroke="#63b8ff" d="M2343.94,-252.91C2347.14,-242.82 2350.71,-231.54 2353.45,-222.88"/>
<polygon fill="#63b8ff" stroke="#63b8ff" points="2340.7,-251.57 2341.02,-262.16 2347.37,-253.68 2340.7,-251.57"/>
</g>
<!-- Node41 -->
<g id="node41" class="node">
<title>Node41</title>
<g id="a_node41"><a xlink:href="object-sound_8cpp.html" target="_top" xlink:title=" ">
<polygon fill="white" stroke="#666666" points="2570,-228 2448,-228 2448,-187 2570,-187 2570,-228"/>
<text text-anchor="start" x="2456" y="-216" font-family="Helvetica,sans-Serif" font-size="10.00">libs/JSystem/JStudio</text>
<text text-anchor="start" x="2456" y="-205" font-family="Helvetica,sans-Serif" font-size="10.00">/JStudio_JAudio2/object</text>
<text text-anchor="middle" x="2509" y="-194" font-family="Helvetica,sans-Serif" font-size="10.00">&#45;sound.cpp</text>
</a>
</g>
</g>
<!-- Node39&#45;&gt;Node41 -->
<g id="edge48" class="edge">
<title>Node39&#45;&gt;Node41</title>
<path fill="none" stroke="#63b8ff" d="M2382.38,-259.37C2406.18,-249.81 2435.18,-238.15 2459.43,-228.42"/>
<polygon fill="#63b8ff" stroke="#63b8ff" points="2381.22,-256.06 2373.25,-263.04 2383.83,-262.56 2381.22,-256.06"/>
</g>
</g>
</svg>
