<?xml version="1.0" encoding="UTF-8" standalone="no"?>
<!DOCTYPE svg PUBLIC "-//W3C//DTD SVG 1.1//EN"
 "http://www.w3.org/Graphics/SVG/1.1/DTD/svg11.dtd">
<!-- Generated by graphviz version 7.0.4 (20221203.1631)
 -->
<!-- Title: Graphical Class Hierarchy Pages: 1 -->
<svg width="496pt" height="1673pt"
 viewBox="0.00 0.00 496.00 1673.00" xmlns="http://www.w3.org/2000/svg" xmlns:xlink="http://www.w3.org/1999/xlink">
<g id="graph0" class="graph" transform="scale(1 1) rotate(0) translate(4 1669)">
<title>Graphical Class Hierarchy</title>
<!-- Node0 -->
<g id="node1" class="node">
<title>Node0</title>
<g id="a_node1"><a xlink:href="structleafdraw__class.html" target="_top" xlink:title=" ">
<polygon fill="white" stroke="#666666" points="82,-130 0,-130 0,-111 82,-111 82,-130"/>
<text text-anchor="middle" x="41" y="-118" font-family="Helvetica,sans-Serif" font-size="10.00">leafdraw_class</text>
</a>
</g>
</g>
<!-- Node1 -->
<g id="node2" class="node">
<title>Node1</title>
<g id="a_node2"><a xlink:href="structfopAc__ac__c.html" target="_top" xlink:title=" ">
<polygon fill="white" stroke="#666666" points="186,-925 118,-925 118,-906 186,-906 186,-925"/>
<text text-anchor="middle" x="152" y="-913" font-family="Helvetica,sans-Serif" font-size="10.00">fopAc_ac_c</text>
</a>
</g>
</g>
<!-- Node0&#45;&gt;Node1 -->
<g id="edge1" class="edge">
<title>Node0&#45;&gt;Node1</title>
<path fill="none" stroke="#63b8ff" d="M44.87,-141.42C60.83,-257.86 138.44,-823.9 149.65,-905.65"/>
<polygon fill="#63b8ff" stroke="#63b8ff" points="48.37,-141.2 43.54,-131.76 41.44,-142.15 48.37,-141.2"/>
</g>
<!-- Node47 -->
<g id="node48" class="node">
<title>Node47</title>
<g id="a_node48"><a xlink:href="classmsg__class.html" target="_top" xlink:title=" ">
<polygon fill="white" stroke="#666666" points="184,-130 120,-130 120,-111 184,-111 184,-130"/>
<text text-anchor="middle" x="152" y="-118" font-family="Helvetica,sans-Serif" font-size="10.00">msg_class</text>
</a>
</g>
</g>
<!-- Node0&#45;&gt;Node47 -->
<g id="edge47" class="edge">
<title>Node0&#45;&gt;Node47</title>
<path fill="none" stroke="#63b8ff" d="M93.5,-120.5C102.46,-120.5 111.54,-120.5 119.74,-120.5"/>
<polygon fill="#63b8ff" stroke="#63b8ff" points="93.79,-117 83.79,-120.5 93.79,-124 93.79,-117"/>
</g>
<!-- Node52 -->
<g id="node53" class="node">
<title>Node52</title>
<g id="a_node53"><a xlink:href="structview__class.html" target="_top" xlink:title=" ">
<polygon fill="white" stroke="#666666" points="184.5,-56 119.5,-56 119.5,-37 184.5,-37 184.5,-56"/>
<text text-anchor="middle" x="152" y="-44" font-family="Helvetica,sans-Serif" font-size="10.00">view_class</text>
</a>
</g>
</g>
<!-- Node0&#45;&gt;Node52 -->
<g id="edge52" class="edge">
<title>Node0&#45;&gt;Node52</title>
<path fill="none" stroke="#63b8ff" d="M66.16,-104.1C87.72,-89.46 118.58,-68.51 136.53,-56.32"/>
<polygon fill="#63b8ff" stroke="#63b8ff" points="64.26,-101.16 57.95,-109.67 68.19,-106.95 64.26,-101.16"/>
</g>
<!-- Node2 -->
<g id="node3" class="node">
<title>Node2</title>
<g id="a_node3"><a xlink:href="classdBgS__MoveBgActor.html" target="_top" xlink:title=" ">
<polygon fill="white" stroke="#666666" points="333,-1665 228,-1665 228,-1646 333,-1646 333,-1665"/>
<text text-anchor="middle" x="280.5" y="-1653" font-family="Helvetica,sans-Serif" font-size="10.00">dBgS_MoveBgActor</text>
</a>
</g>
</g>
<!-- Node1&#45;&gt;Node2 -->
<g id="edge2" class="edge">
<title>Node1&#45;&gt;Node2</title>
<path fill="none" stroke="#63b8ff" d="M153.65,-936.84C157.3,-1050.49 176.7,-1581.64 222,-1637.5 224.64,-1640.75 227.85,-1643.42 231.4,-1645.62"/>
<polygon fill="#63b8ff" stroke="#63b8ff" points="157.15,-936.75 153.34,-926.87 150.15,-936.97 157.15,-936.75"/>
</g>
<!-- Node3 -->
<g id="node4" class="node">
<title>Node3</title>
<g id="a_node4"><a xlink:href="classdaAlldie__c.html" target="_top" xlink:title=" ">
<polygon fill="white" stroke="#666666" points="311.5,-1628 249.5,-1628 249.5,-1609 311.5,-1609 311.5,-1628"/>
<text text-anchor="middle" x="280.5" y="-1616" font-family="Helvetica,sans-Serif" font-size="10.00">daAlldie_c</text>
</a>
</g>
</g>
<!-- Node1&#45;&gt;Node3 -->
<g id="edge3" class="edge">
<title>Node1&#45;&gt;Node3</title>
<path fill="none" stroke="#63b8ff" d="M153.76,-936.77C157.9,-1046.73 179,-1547.75 222,-1600.5 228.68,-1608.69 239.03,-1613.22 249.13,-1615.7"/>
<polygon fill="#63b8ff" stroke="#63b8ff" points="157.27,-936.73 153.4,-926.87 150.27,-936.99 157.27,-936.73"/>
</g>
<!-- Node4 -->
<g id="node5" class="node">
<title>Node4</title>
<g id="a_node5"><a xlink:href="classdaArrow__c.html" target="_top" xlink:title=" ">
<polygon fill="white" stroke="#666666" points="312,-1591 249,-1591 249,-1572 312,-1572 312,-1591"/>
<text text-anchor="middle" x="280.5" y="-1579" font-family="Helvetica,sans-Serif" font-size="10.00">daArrow_c</text>
</a>
</g>
</g>
<!-- Node1&#45;&gt;Node4 -->
<g id="edge4" class="edge">
<title>Node1&#45;&gt;Node4</title>
<path fill="none" stroke="#63b8ff" d="M153.89,-936.61C158.52,-1042.62 181.29,-1513.84 222,-1563.5 228.57,-1571.51 238.65,-1576.01 248.56,-1578.53"/>
<polygon fill="#63b8ff" stroke="#63b8ff" points="157.39,-936.66 153.47,-926.82 150.4,-936.96 157.39,-936.66"/>
</g>
<!-- Node5 -->
<g id="node6" class="node">
<title>Node5</title>
<g id="a_node6"><a xlink:href="classdaB__ZANT__c.html" target="_top" xlink:title=" ">
<polygon fill="white" stroke="#666666" points="318.5,-1554 242.5,-1554 242.5,-1535 318.5,-1535 318.5,-1554"/>
<text text-anchor="middle" x="280.5" y="-1542" font-family="Helvetica,sans-Serif" font-size="10.00">daB_ZANT_c</text>
</a>
</g>
</g>
<!-- Node1&#45;&gt;Node5 -->
<g id="edge5" class="edge">
<title>Node1&#45;&gt;Node5</title>
<path fill="none" stroke="#63b8ff" d="M154.03,-936.67C159.21,-1039.06 183.6,-1479.96 222,-1526.5 227.19,-1532.79 234.56,-1536.92 242.29,-1539.62"/>
<polygon fill="#63b8ff" stroke="#63b8ff" points="157.53,-936.54 153.54,-926.73 150.54,-936.89 157.53,-936.54"/>
</g>
<!-- Node6 -->
<g id="node7" class="node">
<title>Node6</title>
<g id="a_node7"><a xlink:href="classdaBoomerang__c.html" target="_top" xlink:title=" ">
<polygon fill="white" stroke="#666666" points="324,-1517 237,-1517 237,-1498 324,-1498 324,-1517"/>
<text text-anchor="middle" x="280.5" y="-1505" font-family="Helvetica,sans-Serif" font-size="10.00">daBoomerang_c</text>
</a>
</g>
</g>
<!-- Node1&#45;&gt;Node6 -->
<g id="edge6" class="edge">
<title>Node1&#45;&gt;Node6</title>
<path fill="none" stroke="#63b8ff" d="M152.59,-936.75C151.2,-1030.13 150.3,-1403.25 222,-1489.5 225.95,-1494.25 231.13,-1497.76 236.76,-1500.36"/>
<polygon fill="#63b8ff" stroke="#63b8ff" points="156.08,-937.06 152.75,-927 149.08,-936.94 156.08,-937.06"/>
</g>
<!-- Node7 -->
<g id="node8" class="node">
<title>Node7</title>
<g id="a_node8"><a xlink:href="classdaCanoe__c.html" target="_top" xlink:title=" ">
<polygon fill="white" stroke="#666666" points="313,-1480 248,-1480 248,-1461 313,-1461 313,-1480"/>
<text text-anchor="middle" x="280.5" y="-1468" font-family="Helvetica,sans-Serif" font-size="10.00">daCanoe_c</text>
</a>
</g>
</g>
<!-- Node1&#45;&gt;Node7 -->
<g id="edge7" class="edge">
<title>Node1&#45;&gt;Node7</title>
<path fill="none" stroke="#63b8ff" d="M152.78,-936.77C152.3,-1026.41 154.88,-1372.42 222,-1452.5 228.45,-1460.2 238.15,-1464.65 247.75,-1467.21"/>
<polygon fill="#63b8ff" stroke="#63b8ff" points="156.28,-936.81 152.86,-926.78 149.28,-936.75 156.28,-936.81"/>
</g>
<!-- Node8 -->
<g id="node9" class="node">
<title>Node8</title>
<g id="a_node9"><a xlink:href="classdaCrod__c.html" target="_top" xlink:title=" ">
<polygon fill="white" stroke="#666666" points="309.5,-1443 251.5,-1443 251.5,-1424 309.5,-1424 309.5,-1443"/>
<text text-anchor="middle" x="280.5" y="-1431" font-family="Helvetica,sans-Serif" font-size="10.00">daCrod_c</text>
</a>
</g>
</g>
<!-- Node1&#45;&gt;Node8 -->
<g id="edge8" class="edge">
<title>Node1&#45;&gt;Node8</title>
<path fill="none" stroke="#63b8ff" d="M153.01,-936.67C153.47,-1022.24 159.41,-1341.53 222,-1415.5 229.23,-1424.04 240.46,-1428.59 251.09,-1430.99"/>
<polygon fill="#63b8ff" stroke="#63b8ff" points="156.51,-936.9 152.98,-926.91 149.51,-936.92 156.51,-936.9"/>
</g>
<!-- Node9 -->
<g id="node10" class="node">
<title>Node9</title>
<g id="a_node10"><a xlink:href="classdaCstatue__c.html" target="_top" xlink:title=" ">
<polygon fill="white" stroke="#666666" points="316,-1406 245,-1406 245,-1387 316,-1387 316,-1406"/>
<text text-anchor="middle" x="280.5" y="-1394" font-family="Helvetica,sans-Serif" font-size="10.00">daCstatue_c</text>
</a>
</g>
</g>
<!-- Node1&#45;&gt;Node9 -->
<g id="edge9" class="edge">
<title>Node1&#45;&gt;Node9</title>
<path fill="none" stroke="#63b8ff" d="M153.27,-936.9C154.74,-1018.74 164.01,-1310.72 222,-1378.5 227.78,-1385.26 236.06,-1389.51 244.54,-1392.18"/>
<polygon fill="#63b8ff" stroke="#63b8ff" points="156.77,-936.9 153.12,-926.96 149.77,-937.01 156.77,-936.9"/>
</g>
<!-- Node10 -->
<g id="node11" class="node">
<title>Node10</title>
<g id="a_node11"><a xlink:href="structdaHorse__c.html" target="_top" xlink:title=" ">
<polygon fill="white" stroke="#666666" points="312.5,-1369 248.5,-1369 248.5,-1350 312.5,-1350 312.5,-1369"/>
<text text-anchor="middle" x="280.5" y="-1357" font-family="Helvetica,sans-Serif" font-size="10.00">daHorse_c</text>
</a>
</g>
</g>
<!-- Node1&#45;&gt;Node10 -->
<g id="edge10" class="edge">
<title>Node1&#45;&gt;Node10</title>
<path fill="none" stroke="#63b8ff" d="M153.56,-936.43C156.05,-1013.42 168.44,-1279.68 222,-1341.5 228.64,-1349.17 238.51,-1353.61 248.2,-1356.17"/>
<polygon fill="#63b8ff" stroke="#63b8ff" points="157.08,-936.8 153.28,-926.91 150.08,-937.01 157.08,-936.8"/>
</g>
<!-- Node11 -->
<g id="node12" class="node">
<title>Node11</title>
<g id="a_node12"><a xlink:href="classdaItemBase__c.html" target="_top" xlink:title=" ">
<polygon fill="white" stroke="#666666" points="320.5,-1332 240.5,-1332 240.5,-1313 320.5,-1313 320.5,-1332"/>
<text text-anchor="middle" x="280.5" y="-1320" font-family="Helvetica,sans-Serif" font-size="10.00">daItemBase_c</text>
</a>
</g>
</g>
<!-- Node1&#45;&gt;Node11 -->
<g id="edge11" class="edge">
<title>Node1&#45;&gt;Node11</title>
<path fill="none" stroke="#63b8ff" d="M153.92,-936.44C157.52,-1009.08 172.96,-1248.75 222,-1304.5 226.84,-1310 233.33,-1313.83 240.21,-1316.51"/>
<polygon fill="#63b8ff" stroke="#63b8ff" points="157.43,-936.58 153.46,-926.75 150.44,-936.91 157.43,-936.58"/>
</g>
<!-- Node14 -->
<g id="node15" class="node">
<title>Node14</title>
<g id="a_node15"><a xlink:href="classdaMP__c.html" target="_top" xlink:title=" ">
<polygon fill="white" stroke="#666666" points="307,-1295 254,-1295 254,-1276 307,-1276 307,-1295"/>
<text text-anchor="middle" x="280.5" y="-1283" font-family="Helvetica,sans-Serif" font-size="10.00">daMP_c</text>
</a>
</g>
</g>
<!-- Node1&#45;&gt;Node14 -->
<g id="edge14" class="edge">
<title>Node1&#45;&gt;Node14</title>
<path fill="none" stroke="#63b8ff" d="M154.36,-936.62C159.16,-1004.85 177.5,-1217.82 222,-1267.5 230.03,-1276.46 242.44,-1281 253.69,-1283.29"/>
<polygon fill="#63b8ff" stroke="#63b8ff" points="157.86,-936.57 153.7,-926.82 150.88,-937.04 157.86,-936.57"/>
</g>
<!-- Node15 -->
<g id="node16" class="node">
<title>Node15</title>
<g id="a_node16"><a xlink:href="structdaMidna__c.html" target="_top" xlink:title=" ">
<polygon fill="white" stroke="#666666" points="312.5,-1258 248.5,-1258 248.5,-1239 312.5,-1239 312.5,-1258"/>
<text text-anchor="middle" x="280.5" y="-1246" font-family="Helvetica,sans-Serif" font-size="10.00">daMidna_c</text>
</a>
</g>
</g>
<!-- Node1&#45;&gt;Node15 -->
<g id="edge15" class="edge">
<title>Node1&#45;&gt;Node15</title>
<path fill="none" stroke="#63b8ff" d="M154.87,-936.43C160.92,-999.61 181.94,-1186.76 222,-1230.5 228.78,-1237.91 238.56,-1242.29 248.14,-1244.87"/>
<polygon fill="#63b8ff" stroke="#63b8ff" points="158.38,-936.36 153.97,-926.73 151.41,-937.01 158.38,-936.36"/>
</g>
<!-- Node16 -->
<g id="node17" class="node">
<title>Node16</title>
<g id="a_node17"><a xlink:href="classdaNpcF__c.html" target="_top" xlink:title=" ">
<polygon fill="white" stroke="#666666" points="311.5,-1221 249.5,-1221 249.5,-1202 311.5,-1202 311.5,-1221"/>
<text text-anchor="middle" x="280.5" y="-1209" font-family="Helvetica,sans-Serif" font-size="10.00">daNpcF_c</text>
</a>
</g>
</g>
<!-- Node1&#45;&gt;Node16 -->
<g id="edge16" class="edge">
<title>Node1&#45;&gt;Node16</title>
<path fill="none" stroke="#63b8ff" d="M155.55,-936.58C162.99,-994.76 186.42,-1155.72 222,-1193.5 229.1,-1201.04 239.31,-1205.44 249.16,-1208"/>
<polygon fill="#63b8ff" stroke="#63b8ff" points="159.04,-936.24 154.33,-926.75 152.09,-937.1 159.04,-936.24"/>
</g>
<!-- Node17 -->
<g id="node18" class="node">
<title>Node17</title>
<g id="a_node18"><a xlink:href="classdaNpcT__c.html" target="_top" xlink:title=" ">
<polygon fill="white" stroke="#666666" points="311.5,-1184 249.5,-1184 249.5,-1165 311.5,-1165 311.5,-1184"/>
<text text-anchor="middle" x="280.5" y="-1172" font-family="Helvetica,sans-Serif" font-size="10.00">daNpcT_c</text>
</a>
</g>
</g>
<!-- Node1&#45;&gt;Node17 -->
<g id="edge17" class="edge">
<title>Node1&#45;&gt;Node17</title>
<path fill="none" stroke="#63b8ff" d="M152.74,-936.62C153.35,-982.97 161.43,-1094.43 222,-1156.5 229.16,-1163.84 239.26,-1168.19 249.01,-1170.78"/>
<polygon fill="#63b8ff" stroke="#63b8ff" points="156.24,-936.88 152.73,-926.88 149.24,-936.88 156.24,-936.88"/>
</g>
<!-- Node19 -->
<g id="node20" class="node">
<title>Node19</title>
<g id="a_node20"><a xlink:href="classdaObjCarry__c.html" target="_top" xlink:title=" ">
<polygon fill="white" stroke="#666666" points="318,-1147 243,-1147 243,-1128 318,-1128 318,-1147"/>
<text text-anchor="middle" x="280.5" y="-1135" font-family="Helvetica,sans-Serif" font-size="10.00">daObjCarry_c</text>
</a>
</g>
</g>
<!-- Node1&#45;&gt;Node19 -->
<g id="edge19" class="edge">
<title>Node1&#45;&gt;Node19</title>
<path fill="none" stroke="#63b8ff" d="M154.05,-936.68C157.25,-977.79 170.13,-1068.8 222,-1119.5 227.69,-1125.06 235.06,-1128.9 242.63,-1131.56"/>
<polygon fill="#63b8ff" stroke="#63b8ff" points="157.55,-936.46 153.42,-926.71 150.56,-936.91 157.55,-936.46"/>
</g>
<!-- Node20 -->
<g id="node21" class="node">
<title>Node20</title>
<g id="a_node21"><a xlink:href="classdaObjYobikusa__c.html" target="_top" xlink:title=" ">
<polygon fill="white" stroke="#666666" points="327,-1110 234,-1110 234,-1091 327,-1091 327,-1110"/>
<text text-anchor="middle" x="280.5" y="-1098" font-family="Helvetica,sans-Serif" font-size="10.00">daObjYobikusa_c</text>
</a>
</g>
</g>
<!-- Node1&#45;&gt;Node20 -->
<g id="edge20" class="edge">
<title>Node1&#45;&gt;Node20</title>
<path fill="none" stroke="#63b8ff" d="M155.9,-936.71C161.85,-972.02 178.72,-1042.89 222,-1082.5 225.55,-1085.75 229.68,-1088.41 234.07,-1090.59"/>
<polygon fill="#63b8ff" stroke="#63b8ff" points="159.38,-936.28 154.4,-926.93 152.46,-937.34 159.38,-936.28"/>
</g>
<!-- Node21 -->
<g id="node22" class="node">
<title>Node21</title>
<g id="a_node22"><a xlink:href="classdaObj__SSBase__c.html" target="_top" xlink:title=" ">
<polygon fill="white" stroke="#666666" points="327.5,-1073 233.5,-1073 233.5,-1054 327.5,-1054 327.5,-1073"/>
<text text-anchor="middle" x="280.5" y="-1061" font-family="Helvetica,sans-Serif" font-size="10.00">daObj_SSBase_c</text>
</a>
</g>
</g>
<!-- Node1&#45;&gt;Node21 -->
<g id="edge21" class="edge">
<title>Node1&#45;&gt;Node21</title>
<path fill="none" stroke="#63b8ff" d="M158.5,-936.02C167.21,-964.65 186.91,-1016.36 222,-1045.5 225.86,-1048.71 230.3,-1051.35 234.96,-1053.51"/>
<polygon fill="#63b8ff" stroke="#63b8ff" points="161.96,-935.39 155.84,-926.74 155.23,-937.32 161.96,-935.39"/>
</g>
<!-- Node22 -->
<g id="node23" class="node">
<title>Node22</title>
<g id="a_node23"><a xlink:href="structdaPy__py__c.html" target="_top" xlink:title=" ">
<polygon fill="white" stroke="#666666" points="312.5,-1036 248.5,-1036 248.5,-1017 312.5,-1017 312.5,-1036"/>
<text text-anchor="middle" x="280.5" y="-1024" font-family="Helvetica,sans-Serif" font-size="10.00">daPy_py_c</text>
</a>
</g>
</g>
<!-- Node1&#45;&gt;Node22 -->
<g id="edge22" class="edge">
<title>Node1&#45;&gt;Node22</title>
<path fill="none" stroke="#63b8ff" d="M162.82,-935.33C174.25,-956.43 195.05,-989.35 222,-1008.5 229.67,-1013.95 239.06,-1017.8 248,-1020.49"/>
<polygon fill="#63b8ff" stroke="#63b8ff" points="166,-933.85 158.28,-926.59 159.79,-937.08 166,-933.85"/>
</g>
<!-- Node24 -->
<g id="node25" class="node">
<title>Node24</title>
<g id="a_node25"><a xlink:href="classdaScex__c.html" target="_top" xlink:title=" ">
<polygon fill="white" stroke="#666666" points="310,-999 251,-999 251,-980 310,-980 310,-999"/>
<text text-anchor="middle" x="280.5" y="-987" font-family="Helvetica,sans-Serif" font-size="10.00">daScex_c</text>
</a>
</g>
</g>
<!-- Node1&#45;&gt;Node24 -->
<g id="edge24" class="edge">
<title>Node1&#45;&gt;Node24</title>
<path fill="none" stroke="#63b8ff" d="M170.55,-932.92C183.75,-945.18 202.78,-961.19 222,-971.5 230.85,-976.25 241.15,-979.97 250.56,-982.76"/>
<polygon fill="#63b8ff" stroke="#63b8ff" points="173.16,-930.58 163.52,-926.19 168.32,-935.64 173.16,-930.58"/>
</g>
<!-- Node25 -->
<g id="node26" class="node">
<title>Node25</title>
<g id="a_node26"><a xlink:href="classdaSkip2D__c.html" target="_top" xlink:title=" ">
<polygon fill="white" stroke="#666666" points="315,-962 246,-962 246,-943 315,-943 315,-962"/>
<text text-anchor="middle" x="280.5" y="-950" font-family="Helvetica,sans-Serif" font-size="10.00">daSkip2D_c</text>
</a>
</g>
</g>
<!-- Node1&#45;&gt;Node25 -->
<g id="edge25" class="edge">
<title>Node1&#45;&gt;Node25</title>
<path fill="none" stroke="#63b8ff" d="M196.93,-928.35C212.89,-933.02 230.65,-938.21 245.61,-942.59"/>
<polygon fill="#63b8ff" stroke="#63b8ff" points="198.27,-925.09 187.69,-925.65 196.3,-931.81 198.27,-925.09"/>
</g>
<!-- Node26 -->
<g id="node27" class="node">
<title>Node26</title>
<g id="a_node27"><a xlink:href="classdaSpinner__c.html" target="_top" xlink:title=" ">
<polygon fill="white" stroke="#666666" points="316,-925 245,-925 245,-906 316,-906 316,-925"/>
<text text-anchor="middle" x="280.5" y="-913" font-family="Helvetica,sans-Serif" font-size="10.00">daSpinner_c</text>
</a>
</g>
</g>
<!-- Node1&#45;&gt;Node26 -->
<g id="edge26" class="edge">
<title>Node1&#45;&gt;Node26</title>
<path fill="none" stroke="#63b8ff" d="M197.66,-915.5C213.11,-915.5 230.18,-915.5 244.72,-915.5"/>
<polygon fill="#63b8ff" stroke="#63b8ff" points="197.75,-912 187.75,-915.5 197.75,-919 197.75,-912"/>
</g>
<!-- Node27 -->
<g id="node28" class="node">
<title>Node27</title>
<g id="a_node28"><a xlink:href="classdaTagEscape__c.html" target="_top" xlink:title=" ">
<polygon fill="white" stroke="#666666" points="323.5,-888 237.5,-888 237.5,-869 323.5,-869 323.5,-888"/>
<text text-anchor="middle" x="280.5" y="-876" font-family="Helvetica,sans-Serif" font-size="10.00">daTagEscape_c</text>
</a>
</g>
</g>
<!-- Node1&#45;&gt;Node27 -->
<g id="edge27" class="edge">
<title>Node1&#45;&gt;Node27</title>
<path fill="none" stroke="#63b8ff" d="M196.93,-902.65C212.89,-897.98 230.65,-892.79 245.61,-888.41"/>
<polygon fill="#63b8ff" stroke="#63b8ff" points="196.3,-899.19 187.69,-905.35 198.27,-905.91 196.3,-899.19"/>
</g>
<!-- Node28 -->
<g id="node29" class="node">
<title>Node28</title>
<g id="a_node29"><a xlink:href="classdaTagGstart__c.html" target="_top" xlink:title=" ">
<polygon fill="white" stroke="#666666" points="321,-851 240,-851 240,-832 321,-832 321,-851"/>
<text text-anchor="middle" x="280.5" y="-839" font-family="Helvetica,sans-Serif" font-size="10.00">daTagGstart_c</text>
</a>
</g>
</g>
<!-- Node1&#45;&gt;Node28 -->
<g id="edge28" class="edge">
<title>Node1&#45;&gt;Node28</title>
<path fill="none" stroke="#63b8ff" d="M171.12,-898.08C184.34,-886.14 203.17,-870.69 222,-860.5 228.47,-857 235.7,-853.99 242.8,-851.47"/>
<polygon fill="#63b8ff" stroke="#63b8ff" points="168.99,-895.28 164.04,-904.64 173.75,-900.41 168.99,-895.28"/>
</g>
<!-- Node29 -->
<g id="node30" class="node">
<title>Node29</title>
<g id="a_node30"><a xlink:href="classdaTagHinit__c.html" target="_top" xlink:title=" ">
<polygon fill="white" stroke="#666666" points="317.5,-814 243.5,-814 243.5,-795 317.5,-795 317.5,-814"/>
<text text-anchor="middle" x="280.5" y="-802" font-family="Helvetica,sans-Serif" font-size="10.00">daTagHinit_c</text>
</a>
</g>
</g>
<!-- Node1&#45;&gt;Node29 -->
<g id="edge29" class="edge">
<title>Node1&#45;&gt;Node29</title>
<path fill="none" stroke="#63b8ff" d="M163.11,-895.65C174.67,-874.83 195.48,-842.56 222,-823.5 228.32,-818.96 235.79,-815.46 243.22,-812.77"/>
<polygon fill="#63b8ff" stroke="#63b8ff" points="160.13,-893.81 158.51,-904.28 166.3,-897.1 160.13,-893.81"/>
</g>
<!-- Node30 -->
<g id="node31" class="node">
<title>Node30</title>
<g id="a_node31"><a xlink:href="classdaTagHstop__c.html" target="_top" xlink:title=" ">
<polygon fill="white" stroke="#666666" points="320.5,-777 240.5,-777 240.5,-758 320.5,-758 320.5,-777"/>
<text text-anchor="middle" x="280.5" y="-765" font-family="Helvetica,sans-Serif" font-size="10.00">daTagHstop_c</text>
</a>
</g>
</g>
<!-- Node1&#45;&gt;Node30 -->
<g id="edge30" class="edge">
<title>Node1&#45;&gt;Node30</title>
<path fill="none" stroke="#63b8ff" d="M158.72,-894.83C167.63,-866.43 187.46,-815.55 222,-786.5 227.31,-782.03 233.7,-778.61 240.27,-775.98"/>
<polygon fill="#63b8ff" stroke="#63b8ff" points="155.38,-893.79 155.91,-904.37 162.1,-895.77 155.38,-893.79"/>
</g>
<!-- Node31 -->
<g id="node32" class="node">
<title>Node31</title>
<g id="a_node32"><a xlink:href="classdaTagInst__c.html" target="_top" xlink:title=" ">
<polygon fill="white" stroke="#666666" points="316,-740 245,-740 245,-721 316,-721 316,-740"/>
<text text-anchor="middle" x="280.5" y="-728" font-family="Helvetica,sans-Serif" font-size="10.00">daTagInst_c</text>
</a>
</g>
</g>
<!-- Node1&#45;&gt;Node31 -->
<g id="edge31" class="edge">
<title>Node1&#45;&gt;Node31</title>
<path fill="none" stroke="#63b8ff" d="M156.01,-894.49C162.11,-859.5 179.21,-789.2 222,-749.5 228.32,-743.64 236.49,-739.58 244.68,-736.77"/>
<polygon fill="#63b8ff" stroke="#63b8ff" points="152.58,-893.74 154.47,-904.17 159.5,-894.85 152.58,-893.74"/>
</g>
<!-- Node32 -->
<g id="node33" class="node">
<title>Node32</title>
<g id="a_node33"><a xlink:href="classdaTagMagne__c.html" target="_top" xlink:title=" ">
<polygon fill="white" stroke="#666666" points="322,-703 239,-703 239,-684 322,-684 322,-703"/>
<text text-anchor="middle" x="280.5" y="-691" font-family="Helvetica,sans-Serif" font-size="10.00">daTagMagne_c</text>
</a>
</g>
</g>
<!-- Node1&#45;&gt;Node32 -->
<g id="edge32" class="edge">
<title>Node1&#45;&gt;Node32</title>
<path fill="none" stroke="#63b8ff" d="M154.16,-894.5C157.54,-853.71 170.72,-763.35 222,-712.5 226.7,-707.84 232.57,-704.32 238.75,-701.66"/>
<polygon fill="#63b8ff" stroke="#63b8ff" points="150.67,-894.16 153.47,-904.37 157.66,-894.64 150.67,-894.16"/>
</g>
<!-- Node33 -->
<g id="node34" class="node">
<title>Node33</title>
<g id="a_node34"><a xlink:href="structdaTagMhint__c.html" target="_top" xlink:title=" ">
<polygon fill="white" stroke="#666666" points="319.5,-666 241.5,-666 241.5,-647 319.5,-647 319.5,-666"/>
<text text-anchor="middle" x="280.5" y="-654" font-family="Helvetica,sans-Serif" font-size="10.00">daTagMhint_c</text>
</a>
</g>
</g>
<!-- Node1&#45;&gt;Node33 -->
<g id="edge33" class="edge">
<title>Node1&#45;&gt;Node33</title>
<path fill="none" stroke="#63b8ff" d="M152.85,-894.24C153.69,-848.04 162.25,-737.64 222,-675.5 227.25,-670.04 234.09,-666.15 241.22,-663.38"/>
<polygon fill="#63b8ff" stroke="#63b8ff" points="149.35,-894.17 152.79,-904.2 156.35,-894.22 149.35,-894.17"/>
</g>
<!-- Node34 -->
<g id="node35" class="node">
<title>Node34</title>
<g id="a_node35"><a xlink:href="classdaTagMmsg__c.html" target="_top" xlink:title=" ">
<polygon fill="white" stroke="#666666" points="321,-629 240,-629 240,-610 321,-610 321,-629"/>
<text text-anchor="middle" x="280.5" y="-617" font-family="Helvetica,sans-Serif" font-size="10.00">daTagMmsg_c</text>
</a>
</g>
</g>
<!-- Node1&#45;&gt;Node34 -->
<g id="edge34" class="edge">
<title>Node1&#45;&gt;Node34</title>
<path fill="none" stroke="#63b8ff" d="M155.64,-894.13C163.25,-835.92 186.9,-676.33 222,-638.5 226.79,-633.34 233.01,-629.57 239.59,-626.83"/>
<polygon fill="#63b8ff" stroke="#63b8ff" points="152.18,-893.64 154.39,-904 159.12,-894.53 152.18,-893.64"/>
</g>
<!-- Node35 -->
<g id="node36" class="node">
<title>Node35</title>
<g id="a_node36"><a xlink:href="structdaTagMstop__c.html" target="_top" xlink:title=" ">
<polygon fill="white" stroke="#666666" points="321,-592 240,-592 240,-573 321,-573 321,-592"/>
<text text-anchor="middle" x="280.5" y="-580" font-family="Helvetica,sans-Serif" font-size="10.00">daTagMstop_c</text>
</a>
</g>
</g>
<!-- Node1&#45;&gt;Node35 -->
<g id="edge35" class="edge">
<title>Node1&#45;&gt;Node35</title>
<path fill="none" stroke="#63b8ff" d="M154.95,-894.25C161.17,-830.94 182.48,-645.31 222,-601.5 226.79,-596.19 233.09,-592.36 239.76,-589.6"/>
<polygon fill="#63b8ff" stroke="#63b8ff" points="151.49,-893.71 154.02,-904 158.46,-894.37 151.49,-893.71"/>
</g>
<!-- Node36 -->
<g id="node37" class="node">
<title>Node36</title>
<g id="a_node37"><a xlink:href="classdaTagRestart__c.html" target="_top" xlink:title=" ">
<polygon fill="white" stroke="#666666" points="323.5,-555 237.5,-555 237.5,-536 323.5,-536 323.5,-555"/>
<text text-anchor="middle" x="280.5" y="-543" font-family="Helvetica,sans-Serif" font-size="10.00">daTagRestart_c</text>
</a>
</g>
</g>
<!-- Node1&#45;&gt;Node36 -->
<g id="edge36" class="edge">
<title>Node1&#45;&gt;Node36</title>
<path fill="none" stroke="#63b8ff" d="M154.4,-894.47C159.32,-826.51 178,-614.38 222,-564.5 226.1,-559.85 231.37,-556.33 237.04,-553.67"/>
<polygon fill="#63b8ff" stroke="#63b8ff" points="150.92,-894 153.72,-904.22 157.91,-894.48 150.92,-894"/>
</g>
<!-- Node37 -->
<g id="node38" class="node">
<title>Node37</title>
<g id="a_node38"><a xlink:href="classdaTagSetBall__c.html" target="_top" xlink:title=" ">
<polygon fill="white" stroke="#666666" points="323.5,-518 237.5,-518 237.5,-499 323.5,-499 323.5,-518"/>
<text text-anchor="middle" x="280.5" y="-506" font-family="Helvetica,sans-Serif" font-size="10.00">daTagSetBall_c</text>
</a>
</g>
</g>
<!-- Node1&#45;&gt;Node37 -->
<g id="edge37" class="edge">
<title>Node1&#45;&gt;Node37</title>
<path fill="none" stroke="#63b8ff" d="M153.96,-894.64C157.69,-822.28 173.51,-583.48 222,-527.5 226.13,-522.73 231.48,-519.16 237.26,-516.47"/>
<polygon fill="#63b8ff" stroke="#63b8ff" points="150.48,-894.12 153.49,-904.28 157.47,-894.47 150.48,-894.12"/>
</g>
<!-- Node38 -->
<g id="node39" class="node">
<title>Node38</title>
<g id="a_node39"><a xlink:href="classdaTagWrHowl__c.html" target="_top" xlink:title=" ">
<polygon fill="white" stroke="#666666" points="325,-481 236,-481 236,-462 325,-462 325,-481"/>
<text text-anchor="middle" x="280.5" y="-469" font-family="Helvetica,sans-Serif" font-size="10.00">daTagWrHowl_c</text>
</a>
</g>
</g>
<!-- Node1&#45;&gt;Node38 -->
<g id="edge38" class="edge">
<title>Node1&#45;&gt;Node38</title>
<path fill="none" stroke="#63b8ff" d="M153.62,-894.17C156.28,-816.84 169.14,-552.46 222,-490.5 225.75,-486.1 230.55,-482.72 235.76,-480.11"/>
<polygon fill="#63b8ff" stroke="#63b8ff" points="150.12,-894.02 153.3,-904.13 157.12,-894.24 150.12,-894.02"/>
</g>
<!-- Node39 -->
<g id="node40" class="node">
<title>Node39</title>
<g id="a_node40"><a xlink:href="classdaTag__Lv5Soup__c.html" target="_top" xlink:title=" ">
<polygon fill="white" stroke="#666666" points="329.5,-444 231.5,-444 231.5,-425 329.5,-425 329.5,-444"/>
<text text-anchor="middle" x="280.5" y="-432" font-family="Helvetica,sans-Serif" font-size="10.00">daTag_Lv5Soup_c</text>
</a>
</g>
</g>
<!-- Node1&#45;&gt;Node39 -->
<g id="edge39" class="edge">
<title>Node1&#45;&gt;Node39</title>
<path fill="none" stroke="#63b8ff" d="M153.31,-894.17C154.92,-812.61 164.66,-521.58 222,-453.5 225.12,-449.8 228.97,-446.82 233.19,-444.41"/>
<polygon fill="#63b8ff" stroke="#63b8ff" points="149.81,-894.02 153.14,-904.07 156.81,-894.14 149.81,-894.02"/>
</g>
<!-- Node40 -->
<g id="node41" class="node">
<title>Node40</title>
<g id="a_node41"><a xlink:href="classdaTag__Telop__c.html" target="_top" xlink:title=" ">
<polygon fill="white" stroke="#666666" points="322,-407 239,-407 239,-388 322,-388 322,-407"/>
<text text-anchor="middle" x="280.5" y="-395" font-family="Helvetica,sans-Serif" font-size="10.00">daTag_Telop_c</text>
</a>
</g>
</g>
<!-- Node1&#45;&gt;Node40 -->
<g id="edge40" class="edge">
<title>Node1&#45;&gt;Node40</title>
<path fill="none" stroke="#63b8ff" d="M153.05,-894.14C153.67,-808.46 160.17,-490.73 222,-416.5 226.37,-411.25 232.23,-407.44 238.54,-404.68"/>
<polygon fill="#63b8ff" stroke="#63b8ff" points="149.55,-894.1 153,-904.12 156.55,-894.14 149.55,-894.1"/>
</g>
<!-- Node41 -->
<g id="node42" class="node">
<title>Node41</title>
<g id="a_node42"><a xlink:href="classdaTboxSw__c.html" target="_top" xlink:title=" ">
<polygon fill="white" stroke="#666666" points="317,-370 244,-370 244,-351 317,-351 317,-370"/>
<text text-anchor="middle" x="280.5" y="-358" font-family="Helvetica,sans-Serif" font-size="10.00">daTboxSw_c</text>
</a>
</g>
</g>
<!-- Node1&#45;&gt;Node41 -->
<g id="edge41" class="edge">
<title>Node1&#45;&gt;Node41</title>
<path fill="none" stroke="#63b8ff" d="M152.82,-894.29C152.5,-804.93 155.62,-459.95 222,-379.5 227.49,-372.85 235.36,-368.51 243.52,-365.68"/>
<polygon fill="#63b8ff" stroke="#63b8ff" points="149.32,-894.27 152.88,-904.25 156.32,-894.23 149.32,-894.27"/>
</g>
<!-- Node42 -->
<g id="node43" class="node">
<title>Node42</title>
<g id="a_node43"><a xlink:href="classdmg__rod__class.html" target="_top" xlink:title=" ">
<polygon fill="white" stroke="#666666" points="322,-333 239,-333 239,-314 322,-314 322,-333"/>
<text text-anchor="middle" x="280.5" y="-321" font-family="Helvetica,sans-Serif" font-size="10.00">dmg_rod_class</text>
</a>
</g>
</g>
<!-- Node1&#45;&gt;Node42 -->
<g id="edge42" class="edge">
<title>Node1&#45;&gt;Node42</title>
<path fill="none" stroke="#63b8ff" d="M152.63,-894.32C151.4,-801.21 151.1,-429.15 222,-342.5 226.39,-337.13 232.34,-333.27 238.76,-330.49"/>
<polygon fill="#63b8ff" stroke="#63b8ff" points="149.12,-894.08 152.77,-904.03 156.12,-893.98 149.12,-894.08"/>
</g>
<!-- Node43 -->
<g id="node44" class="node">
<title>Node43</title>
<g id="a_node44"><a xlink:href="classfopEn__enemy__c.html" target="_top" xlink:title=" ">
<polygon fill="white" stroke="#666666" points="323.5,-296 237.5,-296 237.5,-277 323.5,-277 323.5,-296"/>
<text text-anchor="middle" x="280.5" y="-284" font-family="Helvetica,sans-Serif" font-size="10.00">fopEn_enemy_c</text>
</a>
</g>
</g>
<!-- Node1&#45;&gt;Node43 -->
<g id="edge43" class="edge">
<title>Node1&#45;&gt;Node43</title>
<path fill="none" stroke="#63b8ff" d="M154.05,-894.38C159.31,-792.21 184.02,-352.26 222,-305.5 226.04,-300.52 231.42,-296.84 237.28,-294.11"/>
<polygon fill="#63b8ff" stroke="#63b8ff" points="150.56,-894.13 153.55,-904.29 157.55,-894.48 150.56,-894.13"/>
</g>
<!-- Node45 -->
<g id="node46" class="node">
<title>Node45</title>
<g id="a_node46"><a xlink:href="classkytag05__class.html" target="_top" xlink:title=" ">
<polygon fill="white" stroke="#666666" points="320,-259 241,-259 241,-240 320,-240 320,-259"/>
<text text-anchor="middle" x="280.5" y="-247" font-family="Helvetica,sans-Serif" font-size="10.00">kytag05_class</text>
</a>
</g>
</g>
<!-- Node1&#45;&gt;Node45 -->
<g id="edge45" class="edge">
<title>Node1&#45;&gt;Node45</title>
<path fill="none" stroke="#63b8ff" d="M153.9,-894.44C158.62,-788.65 181.74,-318.4 222,-268.5 226.82,-262.53 233.57,-258.42 240.75,-255.59"/>
<polygon fill="#63b8ff" stroke="#63b8ff" points="150.42,-894.06 153.48,-904.2 157.41,-894.37 150.42,-894.06"/>
</g>
<!-- Node46 -->
<g id="node47" class="node">
<title>Node46</title>
<g id="a_node47"><a xlink:href="classkytag14__class.html" target="_top" xlink:title=" ">
<polygon fill="white" stroke="#666666" points="320,-222 241,-222 241,-203 320,-203 320,-222"/>
<text text-anchor="middle" x="280.5" y="-210" font-family="Helvetica,sans-Serif" font-size="10.00">kytag14_class</text>
</a>
</g>
</g>
<!-- Node1&#45;&gt;Node46 -->
<g id="edge46" class="edge">
<title>Node1&#45;&gt;Node46</title>
<path fill="none" stroke="#63b8ff" d="M153.78,-894.28C158,-784.53 179.48,-284.51 222,-231.5 226.8,-225.51 233.54,-221.4 240.72,-218.57"/>
<polygon fill="#63b8ff" stroke="#63b8ff" points="150.29,-894.03 153.41,-904.16 157.28,-894.29 150.29,-894.03"/>
</g>
<!-- Node12 -->
<g id="node13" class="node">
<title>Node12</title>
<g id="a_node13"><a xlink:href="classdaItem__c.html" target="_top" xlink:title=" ">
<polygon fill="white" stroke="#666666" points="460,-1350 403,-1350 403,-1331 460,-1331 460,-1350"/>
<text text-anchor="middle" x="431.5" y="-1338" font-family="Helvetica,sans-Serif" font-size="10.00">daItem_c</text>
</a>
</g>
</g>
<!-- Node11&#45;&gt;Node12 -->
<g id="edge12" class="edge">
<title>Node11&#45;&gt;Node12</title>
<path fill="none" stroke="#63b8ff" d="M331.95,-1328.59C355.67,-1331.46 383.03,-1334.77 402.9,-1337.17"/>
<polygon fill="#63b8ff" stroke="#63b8ff" points="332.5,-1325.14 322.15,-1327.41 331.66,-1332.08 332.5,-1325.14"/>
</g>
<!-- Node13 -->
<g id="node14" class="node">
<title>Node13</title>
<g id="a_node14"><a xlink:href="classdaShopItem__c.html" target="_top" xlink:title=" ">
<polygon fill="white" stroke="#666666" points="471.5,-1313 391.5,-1313 391.5,-1294 471.5,-1294 471.5,-1313"/>
<text text-anchor="middle" x="431.5" y="-1301" font-family="Helvetica,sans-Serif" font-size="10.00">daShopItem_c</text>
</a>
</g>
</g>
<!-- Node11&#45;&gt;Node13 -->
<g id="edge13" class="edge">
<title>Node11&#45;&gt;Node13</title>
<path fill="none" stroke="#63b8ff" d="M331.99,-1316.06C351.28,-1313.6 372.98,-1310.83 391.1,-1308.52"/>
<polygon fill="#63b8ff" stroke="#63b8ff" points="331.63,-1312.58 322.15,-1317.32 332.51,-1319.52 331.63,-1312.58"/>
</g>
<!-- Node18 -->
<g id="node19" class="node">
<title>Node18</title>
<g id="a_node19"><a xlink:href="classdShopSystem__c.html" target="_top" xlink:title=" ">
<polygon fill="white" stroke="#666666" points="475.5,-1184 387.5,-1184 387.5,-1165 475.5,-1165 475.5,-1184"/>
<text text-anchor="middle" x="431.5" y="-1172" font-family="Helvetica,sans-Serif" font-size="10.00">dShopSystem_c</text>
</a>
</g>
</g>
<!-- Node17&#45;&gt;Node18 -->
<g id="edge18" class="edge">
<title>Node17&#45;&gt;Node18</title>
<path fill="none" stroke="#63b8ff" d="M322.9,-1174.5C342.89,-1174.5 366.87,-1174.5 387.12,-1174.5"/>
<polygon fill="#63b8ff" stroke="#63b8ff" points="323.17,-1171 313.17,-1174.5 323.17,-1178 323.17,-1171"/>
</g>
<!-- Node23 -->
<g id="node24" class="node">
<title>Node23</title>
<g id="a_node24"><a xlink:href="structdaAlink__c.html" target="_top" xlink:title=" ">
<polygon fill="white" stroke="#666666" points="461,-1036 402,-1036 402,-1017 461,-1017 461,-1036"/>
<text text-anchor="middle" x="431.5" y="-1024" font-family="Helvetica,sans-Serif" font-size="10.00">daAlink_c</text>
</a>
</g>
</g>
<!-- Node22&#45;&gt;Node23 -->
<g id="edge23" class="edge">
<title>Node22&#45;&gt;Node23</title>
<path fill="none" stroke="#63b8ff" d="M324.07,-1026.5C348.99,-1026.5 379.79,-1026.5 401.83,-1026.5"/>
<polygon fill="#63b8ff" stroke="#63b8ff" points="324.25,-1023 314.25,-1026.5 324.25,-1030 324.25,-1023"/>
</g>
<!-- Node44 -->
<g id="node45" class="node">
<title>Node44</title>
<g id="a_node45"><a xlink:href="classe__wb__class.html" target="_top" xlink:title=" ">
<polygon fill="white" stroke="#666666" points="465.5,-296 397.5,-296 397.5,-277 465.5,-277 465.5,-296"/>
<text text-anchor="middle" x="431.5" y="-284" font-family="Helvetica,sans-Serif" font-size="10.00">e_wb_class</text>
</a>
</g>
</g>
<!-- Node43&#45;&gt;Node44 -->
<g id="edge44" class="edge">
<title>Node43&#45;&gt;Node44</title>
<path fill="none" stroke="#63b8ff" d="M335.31,-286.5C355.95,-286.5 378.9,-286.5 397.09,-286.5"/>
<polygon fill="#63b8ff" stroke="#63b8ff" points="335.31,-283 325.31,-286.5 335.31,-290 335.31,-283"/>
</g>
<!-- Node48 -->
<g id="node49" class="node">
<title>Node48</title>
<g id="a_node49"><a xlink:href="structdGameover__c.html" target="_top" xlink:title=" ">
<polygon fill="white" stroke="#666666" points="319,-185 242,-185 242,-166 319,-166 319,-185"/>
<text text-anchor="middle" x="280.5" y="-173" font-family="Helvetica,sans-Serif" font-size="10.00">dGameover_c</text>
</a>
</g>
</g>
<!-- Node47&#45;&gt;Node48 -->
<g id="edge48" class="edge">
<title>Node47&#45;&gt;Node48</title>
<path fill="none" stroke="#63b8ff" d="M179.16,-136.04C191.82,-143.17 207.41,-151.37 222,-157.5 229.04,-160.46 236.74,-163.19 244.15,-165.59"/>
<polygon fill="#63b8ff" stroke="#63b8ff" points="181.03,-133.07 170.61,-131.13 177.54,-139.14 181.03,-133.07"/>
</g>
<!-- Node49 -->
<g id="node50" class="node">
<title>Node49</title>
<g id="a_node50"><a xlink:href="classdMeter2__c.html" target="_top" xlink:title=" ">
<polygon fill="white" stroke="#666666" points="311.5,-148 249.5,-148 249.5,-129 311.5,-129 311.5,-148"/>
<text text-anchor="middle" x="280.5" y="-136" font-family="Helvetica,sans-Serif" font-size="10.00">dMeter2_c</text>
</a>
</g>
</g>
<!-- Node47&#45;&gt;Node49 -->
<g id="edge49" class="edge">
<title>Node47&#45;&gt;Node49</title>
<path fill="none" stroke="#63b8ff" d="M195.65,-126.57C213.16,-129.06 233.02,-131.89 249.03,-134.16"/>
<polygon fill="#63b8ff" stroke="#63b8ff" points="196.16,-123.11 185.77,-125.16 195.18,-130.04 196.16,-123.11"/>
</g>
<!-- Node50 -->
<g id="node51" class="node">
<title>Node50</title>
<g id="a_node51"><a xlink:href="structdMsgObject__c.html" target="_top" xlink:title=" ">
<polygon fill="white" stroke="#666666" points="320.5,-111 240.5,-111 240.5,-92 320.5,-92 320.5,-111"/>
<text text-anchor="middle" x="280.5" y="-99" font-family="Helvetica,sans-Serif" font-size="10.00">dMsgObject_c</text>
</a>
</g>
</g>
<!-- Node47&#45;&gt;Node50 -->
<g id="edge50" class="edge">
<title>Node47&#45;&gt;Node50</title>
<path fill="none" stroke="#63b8ff" d="M195.5,-114.12C210.03,-111.93 226.2,-109.51 240.44,-107.37"/>
<polygon fill="#63b8ff" stroke="#63b8ff" points="195.14,-110.63 185.77,-115.58 196.18,-117.55 195.14,-110.63"/>
</g>
<!-- Node51 -->
<g id="node52" class="node">
<title>Node51</title>
<g id="a_node52"><a xlink:href="structdMw__c.html" target="_top" xlink:title=" ">
<polygon fill="white" stroke="#666666" points="304.5,-74 256.5,-74 256.5,-55 304.5,-55 304.5,-74"/>
<text text-anchor="middle" x="280.5" y="-62" font-family="Helvetica,sans-Serif" font-size="10.00">dMw_c</text>
</a>
</g>
</g>
<!-- Node47&#45;&gt;Node51 -->
<g id="edge51" class="edge">
<title>Node47&#45;&gt;Node51</title>
<path fill="none" stroke="#63b8ff" d="M179.46,-104.92C192.09,-97.85 207.56,-89.7 222,-83.5 233.01,-78.77 245.62,-74.48 256.22,-71.19"/>
<polygon fill="#63b8ff" stroke="#63b8ff" points="177.88,-101.79 170.93,-109.79 181.35,-107.87 177.88,-101.79"/>
</g>
<!-- Node53 -->
<g id="node54" class="node">
<title>Node53</title>
<g id="a_node54"><a xlink:href="classcamera__process__class.html" target="_top" xlink:title=" ">
<polygon fill="white" stroke="#666666" points="339,-37 222,-37 222,-18 339,-18 339,-37"/>
<text text-anchor="middle" x="280.5" y="-25" font-family="Helvetica,sans-Serif" font-size="10.00">camera_process_class</text>
</a>
</g>
</g>
<!-- Node52&#45;&gt;Node53 -->
<g id="edge53" class="edge">
<title>Node52&#45;&gt;Node53</title>
<path fill="none" stroke="#63b8ff" d="M196.23,-40.01C204.52,-38.76 213.32,-37.44 221.98,-36.14"/>
<polygon fill="#63b8ff" stroke="#63b8ff" points="195.79,-36.53 186.42,-41.48 196.83,-43.46 195.79,-36.53"/>
</g>
<!-- Node54 -->
<g id="node55" class="node">
<title>Node54</title>
<g id="a_node55"><a xlink:href="structcamera__class.html" target="_top" xlink:title=" ">
<polygon fill="white" stroke="#666666" points="470,-56 393,-56 393,-37 470,-37 470,-56"/>
<text text-anchor="middle" x="431.5" y="-44" font-family="Helvetica,sans-Serif" font-size="10.00">camera_class</text>
</a>
</g>
</g>
<!-- Node53&#45;&gt;Node54 -->
<g id="edge54" class="edge">
<title>Node53&#45;&gt;Node54</title>
<path fill="none" stroke="#63b8ff" d="M350.22,-36.26C364.88,-38.13 379.84,-40.04 392.81,-41.69"/>
<polygon fill="#63b8ff" stroke="#63b8ff" points="350.97,-32.83 340.61,-35.04 350.09,-39.77 350.97,-32.83"/>
</g>
<!-- Node55 -->
<g id="node56" class="node">
<title>Node55</title>
<g id="a_node56"><a xlink:href="classdScnName__camera__c.html" target="_top" xlink:title=" ">
<polygon fill="white" stroke="#666666" points="488,-19 375,-19 375,0 488,0 488,-19"/>
<text text-anchor="middle" x="431.5" y="-7" font-family="Helvetica,sans-Serif" font-size="10.00">dScnName_camera_c</text>
</a>
</g>
</g>
<!-- Node53&#45;&gt;Node55 -->
<g id="edge55" class="edge">
<title>Node53&#45;&gt;Node55</title>
<path fill="none" stroke="#63b8ff" d="M350.42,-19.17C358.49,-18.2 366.65,-17.21 374.52,-16.26"/>
<polygon fill="#63b8ff" stroke="#63b8ff" points="350.12,-15.69 340.61,-20.36 350.96,-22.63 350.12,-15.69"/>
</g>
</g>
</svg>
