<?xml version="1.0" encoding="UTF-8" standalone="no"?>
<!DOCTYPE svg PUBLIC "-//W3C//DTD SVG 1.1//EN"
 "http://www.w3.org/Graphics/SVG/1.1/DTD/svg11.dtd">
<!-- Generated by graphviz version 7.0.4 (20221203.1631)
 -->
<!-- Title: include/JSystem/J3DGraphBase/J3DDrawBuffer.h Pages: 1 -->
<svg width="3588pt" height="522pt"
 viewBox="0.00 0.00 3588.15 522.00" xmlns="http://www.w3.org/2000/svg" xmlns:xlink="http://www.w3.org/1999/xlink">
<g id="graph0" class="graph" transform="scale(1 1) rotate(0) translate(4 518)">
<title>include/JSystem/J3DGraphBase/J3DDrawBuffer.h</title>
<!-- Node1 -->
<g id="node1" class="node">
<title>Node1</title>
<g id="a_node1"><a xlink:title=" ">
<polygon fill="#999999" stroke="#666666" points="2322.65,-514 2187.65,-514 2187.65,-484 2322.65,-484 2322.65,-514"/>
<text text-anchor="start" x="2195.65" y="-502" font-family="Helvetica,sans-Serif" font-size="10.00">include/JSystem/J3DGraph</text>
<text text-anchor="middle" x="2255.15" y="-491" font-family="Helvetica,sans-Serif" font-size="10.00">Base/J3DDrawBuffer.h</text>
</a>
</g>
</g>
<!-- Node2 -->
<g id="node2" class="node">
<title>Node2</title>
<g id="a_node2"><a xlink:href="d__drawlist_8h.html" target="_top" xlink:title=" ">
<polygon fill="white" stroke="#666666" points="1623.15,-442.5 1513.15,-442.5 1513.15,-423.5 1623.15,-423.5 1623.15,-442.5"/>
<text text-anchor="middle" x="1568.15" y="-430.5" font-family="Helvetica,sans-Serif" font-size="10.00">include/d/d_drawlist.h</text>
</a>
</g>
</g>
<!-- Node1&#45;&gt;Node2 -->
<g id="edge1" class="edge">
<title>Node1&#45;&gt;Node2</title>
<path fill="none" stroke="#63b8ff" d="M2176.3,-490.65C2035.6,-477.55 1744.65,-450.44 1623.24,-439.13"/>
<polygon fill="#63b8ff" stroke="#63b8ff" points="2175.61,-494.11 2185.89,-491.55 2176.26,-487.14 2175.61,-494.11"/>
</g>
<!-- Node178 -->
<g id="node48" class="node">
<title>Node178</title>
<g id="a_node48"><a xlink:href="d__eye__hl_8h.html" target="_top" xlink:title=" ">
<polygon fill="white" stroke="#666666" points="2279.15,-305 2175.15,-305 2175.15,-286 2279.15,-286 2279.15,-305"/>
<text text-anchor="middle" x="2227.15" y="-293" font-family="Helvetica,sans-Serif" font-size="10.00">include/d/d_eye_hl.h</text>
</a>
</g>
</g>
<!-- Node1&#45;&gt;Node178 -->
<g id="edge64" class="edge">
<title>Node1&#45;&gt;Node178</title>
<path fill="none" stroke="#63b8ff" d="M2237.4,-474.35C2232.43,-466.39 2227.7,-457.19 2225.15,-448 2210.62,-395.53 2220.89,-328.86 2225.36,-305.26"/>
<polygon fill="#63b8ff" stroke="#63b8ff" points="2234.34,-476.07 2242.83,-482.41 2240.15,-472.16 2234.34,-476.07"/>
</g>
<!-- Node179 -->
<g id="node49" class="node">
<title>Node179</title>
<g id="a_node49"><a xlink:href="J3DDrawBuffer_8cpp.html" target="_top" xlink:title=" ">
<polygon fill="white" stroke="#666666" points="2376.15,-448 2234.15,-448 2234.15,-418 2376.15,-418 2376.15,-448"/>
<text text-anchor="start" x="2242.15" y="-436" font-family="Helvetica,sans-Serif" font-size="10.00">libs/JSystem/J3DGraphBase</text>
<text text-anchor="middle" x="2305.15" y="-425" font-family="Helvetica,sans-Serif" font-size="10.00">/J3DDrawBuffer.cpp</text>
</a>
</g>
</g>
<!-- Node1&#45;&gt;Node179 -->
<g id="edge67" class="edge">
<title>Node1&#45;&gt;Node179</title>
<path fill="none" stroke="#63b8ff" d="M2273.15,-474.96C2280.15,-466 2287.94,-456.03 2294.09,-448.16"/>
<polygon fill="#63b8ff" stroke="#63b8ff" points="2270.58,-472.57 2267.18,-482.6 2276.09,-476.88 2270.58,-472.57"/>
</g>
<!-- Node180 -->
<g id="node50" class="node">
<title>Node180</title>
<g id="a_node50"><a xlink:href="J3DPacket_8cpp.html" target="_top" xlink:title=" ">
<polygon fill="white" stroke="#666666" points="2536.15,-448 2394.15,-448 2394.15,-418 2536.15,-418 2536.15,-448"/>
<text text-anchor="start" x="2402.15" y="-436" font-family="Helvetica,sans-Serif" font-size="10.00">libs/JSystem/J3DGraphBase</text>
<text text-anchor="middle" x="2465.15" y="-425" font-family="Helvetica,sans-Serif" font-size="10.00">/J3DPacket.cpp</text>
</a>
</g>
</g>
<!-- Node1&#45;&gt;Node180 -->
<g id="edge68" class="edge">
<title>Node1&#45;&gt;Node180</title>
<path fill="none" stroke="#63b8ff" d="M2313.39,-480.25C2346.33,-470.21 2386.99,-457.82 2417.93,-448.39"/>
<polygon fill="#63b8ff" stroke="#63b8ff" points="2312.53,-476.85 2303.99,-483.12 2314.57,-483.55 2312.53,-476.85"/>
</g>
<!-- Node3 -->
<g id="node3" class="node">
<title>Node3</title>
<g id="a_node3"><a xlink:href="d__a__alink_8h.html" target="_top" xlink:title=" ">
<polygon fill="white" stroke="#666666" points="2115.15,-233.5 1999.15,-233.5 1999.15,-214.5 2115.15,-214.5 2115.15,-233.5"/>
<text text-anchor="middle" x="2057.15" y="-221.5" font-family="Helvetica,sans-Serif" font-size="10.00">include/d/a/d_a_alink.h</text>
</a>
</g>
</g>
<!-- Node2&#45;&gt;Node3 -->
<g id="edge2" class="edge">
<title>Node2&#45;&gt;Node3</title>
<path fill="none" stroke="#63b8ff" d="M1634.96,-429.67C1770.2,-424.41 2066.65,-409.81 2103.15,-382 2142,-352.41 2150.64,-318.35 2128.15,-275 2118.01,-255.46 2096.35,-241.95 2079.6,-233.94"/>
<polygon fill="#63b8ff" stroke="#63b8ff" points="1634.93,-426.17 1625.07,-430.05 1635.2,-433.17 1634.93,-426.17"/>
</g>
<!-- Node4 -->
<g id="node4" class="node">
<title>Node4</title>
<g id="a_node4"><a xlink:href="d__com__inf__game_8h.html" target="_top" xlink:title=" ">
<polygon fill="#fff0f0" stroke="red" points="1771.15,-173 1661.15,-173 1661.15,-143 1771.15,-143 1771.15,-173"/>
<text text-anchor="start" x="1669.15" y="-161" font-family="Helvetica,sans-Serif" font-size="10.00">include/d/com/d_com</text>
<text text-anchor="middle" x="1716.15" y="-150" font-family="Helvetica,sans-Serif" font-size="10.00">_inf_game.h</text>
</a>
</g>
</g>
<!-- Node2&#45;&gt;Node4 -->
<g id="edge54" class="edge">
<title>Node2&#45;&gt;Node4</title>
<path fill="none" stroke="#63b8ff" d="M1501.47,-428.11C1396.37,-421.3 1201.93,-405.63 1181.15,-382 1164.72,-363.31 1178.12,-306.76 1197.15,-275 1220.67,-235.75 1234.09,-227.01 1276.15,-209 1344.18,-179.87 1558.69,-166.28 1660.92,-161.33"/>
<polygon fill="#63b8ff" stroke="#63b8ff" points="1501.19,-431.6 1511.39,-428.75 1501.63,-424.62 1501.19,-431.6"/>
</g>
<!-- Node22 -->
<g id="node11" class="node">
<title>Node22</title>
<g id="a_node11"><a xlink:href="d__kantera__icon__meter_8h.html" target="_top" xlink:title=" ">
<polygon fill="#fff0f0" stroke="red" points="119.65,-101.5 18.65,-101.5 18.65,-71.5 119.65,-71.5 119.65,-101.5"/>
<text text-anchor="start" x="26.65" y="-89.5" font-family="Helvetica,sans-Serif" font-size="10.00">include/d/d_kantera</text>
<text text-anchor="middle" x="69.15" y="-78.5" font-family="Helvetica,sans-Serif" font-size="10.00">_icon_meter.h</text>
</a>
</g>
</g>
<!-- Node2&#45;&gt;Node22 -->
<g id="edge56" class="edge">
<title>Node2&#45;&gt;Node22</title>
<path fill="none" stroke="#63b8ff" d="M1501.86,-429.53C1211.85,-418.32 69.15,-369.51 69.15,-296.5 69.15,-296.5 69.15,-296.5 69.15,-223 69.15,-178.77 69.15,-126.43 69.15,-101.74"/>
<polygon fill="#63b8ff" stroke="#63b8ff" points="1501.38,-433.02 1511.51,-429.91 1501.65,-426.02 1501.38,-433.02"/>
</g>
<!-- Node109 -->
<g id="node35" class="node">
<title>Node109</title>
<g id="a_node35"><a xlink:href="d__a__player_8h.html" target="_top" xlink:title=" ">
<polygon fill="white" stroke="#666666" points="1971.65,-376.5 1850.65,-376.5 1850.65,-357.5 1971.65,-357.5 1971.65,-376.5"/>
<text text-anchor="middle" x="1911.15" y="-364.5" font-family="Helvetica,sans-Serif" font-size="10.00">include/d/a/d_a_player.h</text>
</a>
</g>
</g>
<!-- Node2&#45;&gt;Node109 -->
<g id="edge41" class="edge">
<title>Node2&#45;&gt;Node109</title>
<path fill="none" stroke="#63b8ff" d="M1629.54,-421.05C1684.91,-411.11 1768.54,-395.91 1841.15,-382 1849.43,-380.41 1858.25,-378.68 1866.74,-377"/>
<polygon fill="#63b8ff" stroke="#63b8ff" points="1629.23,-417.55 1620,-422.76 1630.46,-424.44 1629.23,-417.55"/>
</g>
<!-- Node147 -->
<g id="node41" class="node">
<title>Node147</title>
<g id="a_node41"><a xlink:href="d__camera_8h.html" target="_top" xlink:title=" ">
<polygon fill="#fff0f0" stroke="red" points="1314.65,-376.5 1205.65,-376.5 1205.65,-357.5 1314.65,-357.5 1314.65,-376.5"/>
<text text-anchor="middle" x="1260.15" y="-364.5" font-family="Helvetica,sans-Serif" font-size="10.00">include/d/d_camera.h</text>
</a>
</g>
</g>
<!-- Node2&#45;&gt;Node147 -->
<g id="edge55" class="edge">
<title>Node2&#45;&gt;Node147</title>
<path fill="none" stroke="#63b8ff" d="M1512.49,-420.81C1463.01,-410.81 1388.71,-395.68 1324.15,-382 1316.58,-380.4 1308.52,-378.66 1300.76,-376.97"/>
<polygon fill="#63b8ff" stroke="#63b8ff" points="1511.61,-424.21 1522.11,-422.75 1513,-417.34 1511.61,-424.21"/>
</g>
<!-- Node152 -->
<g id="node42" class="node">
<title>Node152</title>
<g id="a_node42"><a xlink:href="d__select__cursor_8h.html" target="_top" xlink:title=" ">
<polygon fill="#fff0f0" stroke="red" points="1427.65,-382 1332.65,-382 1332.65,-352 1427.65,-352 1427.65,-382"/>
<text text-anchor="start" x="1340.65" y="-370" font-family="Helvetica,sans-Serif" font-size="10.00">include/d/d_select</text>
<text text-anchor="middle" x="1380.15" y="-359" font-family="Helvetica,sans-Serif" font-size="10.00">_cursor.h</text>
</a>
</g>
</g>
<!-- Node2&#45;&gt;Node152 -->
<g id="edge57" class="edge">
<title>Node2&#45;&gt;Node152</title>
<path fill="none" stroke="#63b8ff" d="M1531.18,-419.41C1499.99,-408.8 1455.34,-393.6 1422.68,-382.48"/>
<polygon fill="#63b8ff" stroke="#63b8ff" points="1529.98,-422.7 1540.58,-422.61 1532.24,-416.08 1529.98,-422.7"/>
</g>
<!-- Node171 -->
<g id="node43" class="node">
<title>Node171</title>
<g id="a_node43"><a xlink:href="d__map__path_8h.html" target="_top" xlink:title=" ">
<polygon fill="#fff0f0" stroke="red" points="1556.15,-382 1446.15,-382 1446.15,-352 1556.15,-352 1556.15,-382"/>
<text text-anchor="start" x="1454.15" y="-370" font-family="Helvetica,sans-Serif" font-size="10.00">include/d/map/d_map</text>
<text text-anchor="middle" x="1501.15" y="-359" font-family="Helvetica,sans-Serif" font-size="10.00">_path.h</text>
</a>
</g>
</g>
<!-- Node2&#45;&gt;Node171 -->
<g id="edge58" class="edge">
<title>Node2&#45;&gt;Node171</title>
<path fill="none" stroke="#63b8ff" d="M1550.68,-415.31C1540.02,-405.12 1526.52,-392.23 1516.31,-382.48"/>
<polygon fill="#63b8ff" stroke="#63b8ff" points="1548.09,-417.68 1557.74,-422.06 1552.93,-412.62 1548.09,-417.68"/>
</g>
<!-- Node174 -->
<g id="node44" class="node">
<title>Node174</title>
<g id="a_node44"><a xlink:href="d__menu__fmap_8h.html" target="_top" xlink:title=" ">
<polygon fill="#fff0f0" stroke="red" points="1694.15,-382 1574.15,-382 1574.15,-352 1694.15,-352 1694.15,-382"/>
<text text-anchor="start" x="1582.15" y="-370" font-family="Helvetica,sans-Serif" font-size="10.00">include/d/menu/d_menu</text>
<text text-anchor="middle" x="1634.15" y="-359" font-family="Helvetica,sans-Serif" font-size="10.00">_fmap.h</text>
</a>
</g>
</g>
<!-- Node2&#45;&gt;Node174 -->
<g id="edge59" class="edge">
<title>Node2&#45;&gt;Node174</title>
<path fill="none" stroke="#63b8ff" d="M1585.42,-415.25C1596,-404.99 1609.4,-392 1619.47,-382.23"/>
<polygon fill="#63b8ff" stroke="#63b8ff" points="1583.16,-412.57 1578.41,-422.05 1588.03,-417.6 1583.16,-412.57"/>
</g>
<!-- Node36 -->
<g id="node45" class="node">
<title>Node36</title>
<g id="a_node45"><a xlink:href="d__menu__window_8h.html" target="_top" xlink:title=" ">
<polygon fill="#fff0f0" stroke="red" points="1832.15,-382 1712.15,-382 1712.15,-352 1832.15,-352 1832.15,-382"/>
<text text-anchor="start" x="1720.15" y="-370" font-family="Helvetica,sans-Serif" font-size="10.00">include/d/menu/d_menu</text>
<text text-anchor="middle" x="1772.15" y="-359" font-family="Helvetica,sans-Serif" font-size="10.00">_window.h</text>
</a>
</g>
</g>
<!-- Node2&#45;&gt;Node36 -->
<g id="edge60" class="edge">
<title>Node2&#45;&gt;Node36</title>
<path fill="none" stroke="#63b8ff" d="M1607.38,-419.69C1641.26,-409.06 1690.25,-393.69 1726,-382.48"/>
<polygon fill="#63b8ff" stroke="#63b8ff" points="1606.45,-416.32 1597.96,-422.65 1608.55,-422.99 1606.45,-416.32"/>
</g>
<!-- Node176 -->
<g id="node46" class="node">
<title>Node176</title>
<g id="a_node46"><a xlink:href="d__meter2__draw_8h.html" target="_top" xlink:title=" ">
<polygon fill="#fff0f0" stroke="red" points="1411.65,-239 1284.65,-239 1284.65,-209 1411.65,-209 1411.65,-239"/>
<text text-anchor="start" x="1292.65" y="-227" font-family="Helvetica,sans-Serif" font-size="10.00">include/d/meter/d_meter2</text>
<text text-anchor="middle" x="1348.15" y="-216" font-family="Helvetica,sans-Serif" font-size="10.00">_draw.h</text>
</a>
</g>
</g>
<!-- Node2&#45;&gt;Node176 -->
<g id="edge61" class="edge">
<title>Node2&#45;&gt;Node176</title>
<path fill="none" stroke="#63b8ff" d="M1501.54,-427.72C1400.18,-420.52 1216.85,-404.53 1197.15,-382 1149.48,-327.48 1257.63,-266.67 1315.15,-239.49"/>
<polygon fill="#63b8ff" stroke="#63b8ff" points="1501.15,-431.2 1511.37,-428.41 1501.64,-424.22 1501.15,-431.2"/>
</g>
<!-- Node177 -->
<g id="node47" class="node">
<title>Node177</title>
<g id="a_node47"><a xlink:href="d__drawlist_8cpp.html" target="_top" xlink:title=" ">
<polygon fill="white" stroke="#666666" points="2094.15,-376.5 1990.15,-376.5 1990.15,-357.5 2094.15,-357.5 2094.15,-376.5"/>
<text text-anchor="middle" x="2042.15" y="-364.5" font-family="Helvetica,sans-Serif" font-size="10.00">src/d/d_drawlist.cpp</text>
</a>
</g>
</g>
<!-- Node2&#45;&gt;Node177 -->
<g id="edge63" class="edge">
<title>Node2&#45;&gt;Node177</title>
<path fill="none" stroke="#63b8ff" d="M1634.93,-426.09C1716.85,-418.35 1859.81,-403.21 1981.15,-382 1989.18,-380.6 1997.74,-378.81 2005.83,-376.99"/>
<polygon fill="#63b8ff" stroke="#63b8ff" points="1634.67,-422.6 1625.04,-427.02 1635.32,-429.57 1634.67,-422.6"/>
</g>
<!-- Node3&#45;&gt;Node4 -->
<g id="edge3" class="edge">
<title>Node3&#45;&gt;Node4</title>
<path fill="none" stroke="#63b8ff" d="M1998.32,-211.96C1934.63,-200 1833.82,-181.08 1771.51,-169.39"/>
<polygon fill="#63b8ff" stroke="#63b8ff" points="1997.42,-215.35 2007.89,-213.75 1998.71,-208.47 1997.42,-215.35"/>
</g>
<!-- Node14 -->
<g id="node8" class="node">
<title>Node14</title>
<g id="a_node8"><a xlink:href="d__a__alink_8cpp.html" target="_top" xlink:title=" ">
<polygon fill="white" stroke="#666666" points="3179.65,-24.5 3070.65,-24.5 3070.65,-5.5 3179.65,-5.5 3179.65,-24.5"/>
<text text-anchor="middle" x="3125.15" y="-12.5" font-family="Helvetica,sans-Serif" font-size="10.00">src/d/a/d_a_alink.cpp</text>
</a>
</g>
</g>
<!-- Node3&#45;&gt;Node14 -->
<g id="edge40" class="edge">
<title>Node3&#45;&gt;Node14</title>
<path fill="none" stroke="#63b8ff" d="M2126.68,-222.7C2399.04,-220.81 3382.95,-207.05 3475.15,-107 3487.5,-93.6 3487.09,-79.77 3475.15,-66 3437.6,-22.7 3268.58,-15.97 3179.88,-15.49"/>
<polygon fill="#63b8ff" stroke="#63b8ff" points="2126.88,-219.2 2116.9,-222.76 2126.92,-226.2 2126.88,-219.2"/>
</g>
<!-- Node5 -->
<g id="node5" class="node">
<title>Node5</title>
<g id="a_node5"><a xlink:href="d__a__npc_8h.html" target="_top" xlink:title=" ">
<polygon fill="#fff0f0" stroke="red" points="2608.65,-96 2497.65,-96 2497.65,-77 2608.65,-77 2608.65,-96"/>
<text text-anchor="middle" x="2553.15" y="-84" font-family="Helvetica,sans-Serif" font-size="10.00">include/d/a/d_a_npc.h</text>
</a>
</g>
</g>
<!-- Node4&#45;&gt;Node5 -->
<g id="edge4" class="edge">
<title>Node4&#45;&gt;Node5</title>
<path fill="none" stroke="#63b8ff" d="M1782.72,-157.74C1917.18,-158.12 2230.31,-153.41 2488.15,-107 2501.6,-104.58 2516.21,-100.35 2528.16,-96.45"/>
<polygon fill="#63b8ff" stroke="#63b8ff" points="1782.95,-154.24 1772.94,-157.7 1782.92,-161.24 1782.95,-154.24"/>
</g>
<!-- Node11 -->
<g id="node6" class="node">
<title>Node11</title>
<g id="a_node6"><a xlink:href="d__cc__uty_8h.html" target="_top" xlink:title=" ">
<polygon fill="#fff0f0" stroke="red" points="2745.65,-96 2626.65,-96 2626.65,-77 2745.65,-77 2745.65,-96"/>
<text text-anchor="middle" x="2686.15" y="-84" font-family="Helvetica,sans-Serif" font-size="10.00">include/d/cc/d_cc_uty.h</text>
</a>
</g>
</g>
<!-- Node4&#45;&gt;Node11 -->
<g id="edge5" class="edge">
<title>Node4&#45;&gt;Node11</title>
<path fill="none" stroke="#63b8ff" d="M1782.92,-155.24C1963.27,-150.17 2457.46,-134.14 2618.15,-107 2632.2,-104.63 2647.48,-100.4 2659.99,-96.49"/>
<polygon fill="#63b8ff" stroke="#63b8ff" points="1782.91,-151.74 1773.01,-155.51 1783.11,-158.73 1782.91,-151.74"/>
</g>
<!-- Node17 -->
<g id="node7" class="node">
<title>Node17</title>
<g id="a_node7"><a xlink:href="d__item_8h.html" target="_top" xlink:title=" ">
<polygon fill="#fff0f0" stroke="red" points="2993.65,-96 2898.65,-96 2898.65,-77 2993.65,-77 2993.65,-96"/>
<text text-anchor="middle" x="2946.15" y="-84" font-family="Helvetica,sans-Serif" font-size="10.00">include/d/d_item.h</text>
</a>
</g>
</g>
<!-- Node4&#45;&gt;Node17 -->
<g id="edge6" class="edge">
<title>Node4&#45;&gt;Node17</title>
<path fill="none" stroke="#63b8ff" d="M1783.02,-156.66C1998.75,-155.19 2674.76,-147.37 2889.15,-107 2901.28,-104.72 2914.34,-100.39 2924.89,-96.4"/>
<polygon fill="#63b8ff" stroke="#63b8ff" points="1783.07,-153.16 1773.1,-156.73 1783.12,-160.16 1783.07,-153.16"/>
</g>
<!-- Node4&#45;&gt;Node14 -->
<g id="edge29" class="edge">
<title>Node4&#45;&gt;Node14</title>
<path fill="none" stroke="#63b8ff" d="M1782.84,-155.67C2040.87,-150.36 2962.21,-129.89 3020.15,-107 3042.92,-98 3095.6,-46.05 3116.44,-24.93"/>
<polygon fill="#63b8ff" stroke="#63b8ff" points="1782.86,-152.17 1772.94,-155.87 1783.01,-159.17 1782.86,-152.17"/>
</g>
<!-- Node18 -->
<g id="node9" class="node">
<title>Node18</title>
<g id="a_node9"><a xlink:href="d__a__obj__item_8cpp.html" target="_top" xlink:title=" ">
<polygon fill="white" stroke="#666666" points="2133.65,-24.5 2008.65,-24.5 2008.65,-5.5 2133.65,-5.5 2133.65,-24.5"/>
<text text-anchor="middle" x="2071.15" y="-12.5" font-family="Helvetica,sans-Serif" font-size="10.00">src/d/a/d_a_obj_item.cpp</text>
</a>
</g>
</g>
<!-- Node4&#45;&gt;Node18 -->
<g id="edge32" class="edge">
<title>Node4&#45;&gt;Node18</title>
<path fill="none" stroke="#63b8ff" d="M1649.69,-152.98C1546.03,-146.03 1355.53,-130.23 1335.15,-107 1323.13,-93.3 1322.71,-79.31 1335.15,-66 1380.65,-17.31 1838.63,-14.74 2008.33,-15.48"/>
<polygon fill="#63b8ff" stroke="#63b8ff" points="1649.25,-156.46 1659.46,-153.63 1649.71,-149.48 1649.25,-156.46"/>
</g>
<!-- Node19 -->
<g id="node10" class="node">
<title>Node19</title>
<g id="a_node10"><a xlink:href="d__com__inf__game_8cpp.html" target="_top" xlink:title=" ">
<polygon fill="white" stroke="#666666" points="3017.15,-30 2909.15,-30 2909.15,0 3017.15,0 3017.15,-30"/>
<text text-anchor="start" x="2917.15" y="-18" font-family="Helvetica,sans-Serif" font-size="10.00">src/d/com/d_com_inf</text>
<text text-anchor="middle" x="2963.15" y="-7" font-family="Helvetica,sans-Serif" font-size="10.00">_game.cpp</text>
</a>
</g>
</g>
<!-- Node4&#45;&gt;Node19 -->
<g id="edge38" class="edge">
<title>Node4&#45;&gt;Node19</title>
<path fill="none" stroke="#63b8ff" d="M1782.4,-155.66C2042.65,-150.25 2981.79,-129.21 3003.15,-107 3024.33,-84.99 2997.1,-49.91 2978.28,-30.36"/>
<polygon fill="#63b8ff" stroke="#63b8ff" points="1782.69,-152.15 1772.76,-155.86 1782.83,-159.15 1782.69,-152.15"/>
</g>
<!-- Node4&#45;&gt;Node22 -->
<g id="edge10" class="edge">
<title>Node4&#45;&gt;Node22</title>
<path fill="none" stroke="#63b8ff" d="M1649.75,-157.45C1388,-158.81 427.39,-160.01 128.15,-107 121.35,-105.8 114.27,-103.97 107.46,-101.92"/>
<polygon fill="#63b8ff" stroke="#63b8ff" points="1649.46,-160.95 1659.44,-157.39 1649.42,-153.95 1649.46,-160.95"/>
</g>
<!-- Node25 -->
<g id="node12" class="node">
<title>Node25</title>
<g id="a_node12"><a xlink:href="d__model_8h.html" target="_top" xlink:title=" ">
<polygon fill="#fff0f0" stroke="red" points="240.65,-96 137.65,-96 137.65,-77 240.65,-77 240.65,-96"/>
<text text-anchor="middle" x="189.15" y="-84" font-family="Helvetica,sans-Serif" font-size="10.00">include/d/d_model.h</text>
</a>
</g>
</g>
<!-- Node4&#45;&gt;Node25 -->
<g id="edge11" class="edge">
<title>Node4&#45;&gt;Node25</title>
<path fill="none" stroke="#63b8ff" d="M1649.59,-157.16C1400.65,-157.36 524.62,-154.61 250.15,-107 237.22,-104.76 223.25,-100.44 211.95,-96.44"/>
<polygon fill="#63b8ff" stroke="#63b8ff" points="1649.46,-160.66 1659.45,-157.15 1649.45,-153.66 1649.46,-160.66"/>
</g>
<!-- Node27 -->
<g id="node13" class="node">
<title>Node27</title>
<g id="a_node13"><a xlink:href="d__name_8h.html" target="_top" xlink:title=" ">
<polygon fill="#fff0f0" stroke="red" points="359.65,-96 258.65,-96 258.65,-77 359.65,-77 359.65,-96"/>
<text text-anchor="middle" x="309.15" y="-84" font-family="Helvetica,sans-Serif" font-size="10.00">include/d/d_name.h</text>
</a>
</g>
</g>
<!-- Node4&#45;&gt;Node27 -->
<g id="edge12" class="edge">
<title>Node4&#45;&gt;Node27</title>
<path fill="none" stroke="#63b8ff" d="M1649.17,-156.96C1412.89,-156.44 619.11,-151.37 369.15,-107 356.43,-104.74 342.68,-100.42 331.57,-96.42"/>
<polygon fill="#63b8ff" stroke="#63b8ff" points="1649.14,-160.46 1659.14,-156.98 1649.15,-153.46 1649.14,-160.46"/>
</g>
<!-- Node29 -->
<g id="node14" class="node">
<title>Node29</title>
<g id="a_node14"><a xlink:href="d__file__sel__info_8h.html" target="_top" xlink:title=" ">
<polygon fill="#fff0f0" stroke="red" points="474.15,-101.5 378.15,-101.5 378.15,-71.5 474.15,-71.5 474.15,-101.5"/>
<text text-anchor="start" x="386.15" y="-89.5" font-family="Helvetica,sans-Serif" font-size="10.00">include/d/file/d_file</text>
<text text-anchor="middle" x="426.15" y="-78.5" font-family="Helvetica,sans-Serif" font-size="10.00">_sel_info.h</text>
</a>
</g>
</g>
<!-- Node4&#45;&gt;Node29 -->
<g id="edge13" class="edge">
<title>Node4&#45;&gt;Node29</title>
<path fill="none" stroke="#63b8ff" d="M1649.29,-156.83C1426.34,-155.85 709.68,-149.41 483.15,-107 476.67,-105.79 469.93,-103.99 463.45,-101.97"/>
<polygon fill="#63b8ff" stroke="#63b8ff" points="1649.25,-160.33 1659.26,-156.87 1649.28,-153.33 1649.25,-160.33"/>
</g>
<!-- Node32 -->
<g id="node15" class="node">
<title>Node32</title>
<g id="a_node15"><a xlink:href="d__file__sel__warning_8h.html" target="_top" xlink:title=" ">
<polygon fill="#fff0f0" stroke="red" points="588.15,-101.5 492.15,-101.5 492.15,-71.5 588.15,-71.5 588.15,-101.5"/>
<text text-anchor="start" x="500.15" y="-89.5" font-family="Helvetica,sans-Serif" font-size="10.00">include/d/file/d_file</text>
<text text-anchor="middle" x="540.15" y="-78.5" font-family="Helvetica,sans-Serif" font-size="10.00">_sel_warning.h</text>
</a>
</g>
</g>
<!-- Node4&#45;&gt;Node32 -->
<g id="edge14" class="edge">
<title>Node4&#45;&gt;Node32</title>
<path fill="none" stroke="#63b8ff" d="M1649.53,-156.28C1441.4,-153.66 805.17,-142.85 602.15,-107 595.15,-105.76 587.84,-103.96 580.8,-101.93"/>
<polygon fill="#63b8ff" stroke="#63b8ff" points="1649.31,-159.77 1659.35,-156.4 1649.4,-152.77 1649.31,-159.77"/>
</g>
<!-- Node34 -->
<g id="node16" class="node">
<title>Node34</title>
<g id="a_node16"><a xlink:href="d__meter2_8h.html" target="_top" xlink:title=" ">
<polygon fill="#fff0f0" stroke="red" points="3350.15,-96 3216.15,-96 3216.15,-77 3350.15,-77 3350.15,-96"/>
<text text-anchor="middle" x="3283.15" y="-84" font-family="Helvetica,sans-Serif" font-size="10.00">include/d/meter/d_meter2.h</text>
</a>
</g>
</g>
<!-- Node4&#45;&gt;Node34 -->
<g id="edge15" class="edge">
<title>Node4&#45;&gt;Node34</title>
<path fill="none" stroke="#63b8ff" d="M1782.56,-155.62C2053.19,-149.9 3065.22,-127.34 3207.15,-107 3223.06,-104.72 3240.45,-100.4 3254.58,-96.4"/>
<polygon fill="#63b8ff" stroke="#63b8ff" points="1782.8,-152.12 1772.87,-155.83 1782.95,-159.12 1782.8,-152.12"/>
</g>
<!-- Node41 -->
<g id="node17" class="node">
<title>Node41</title>
<g id="a_node17"><a xlink:href="d__msg__object_8h.html" target="_top" xlink:title=" ">
<polygon fill="#fff0f0" stroke="red" points="3198.15,-101.5 3088.15,-101.5 3088.15,-71.5 3198.15,-71.5 3198.15,-101.5"/>
<text text-anchor="start" x="3096.15" y="-89.5" font-family="Helvetica,sans-Serif" font-size="10.00">include/d/msg/d_msg</text>
<text text-anchor="middle" x="3143.15" y="-78.5" font-family="Helvetica,sans-Serif" font-size="10.00">_object.h</text>
</a>
</g>
</g>
<!-- Node4&#45;&gt;Node41 -->
<g id="edge16" class="edge">
<title>Node4&#45;&gt;Node41</title>
<path fill="none" stroke="#63b8ff" d="M1782.86,-155.48C2038.29,-149.52 2946.19,-127.14 3074.15,-107 3081.9,-105.78 3090.01,-103.98 3097.84,-101.96"/>
<polygon fill="#63b8ff" stroke="#63b8ff" points="1782.98,-151.97 1773.07,-155.71 1783.15,-158.97 1782.98,-151.97"/>
</g>
<!-- Node55 -->
<g id="node18" class="node">
<title>Node55</title>
<g id="a_node18"><a xlink:href="d__s__logo_8h.html" target="_top" xlink:title=" ">
<polygon fill="#fff0f0" stroke="red" points="757.65,-96 644.65,-96 644.65,-77 757.65,-77 757.65,-96"/>
<text text-anchor="middle" x="701.15" y="-84" font-family="Helvetica,sans-Serif" font-size="10.00">include/d/s/d_s_logo.h</text>
</a>
</g>
</g>
<!-- Node4&#45;&gt;Node55 -->
<g id="edge18" class="edge">
<title>Node4&#45;&gt;Node55</title>
<path fill="none" stroke="#63b8ff" d="M1649.44,-155.52C1462.68,-151.05 937.18,-136.18 767.15,-107 753.37,-104.64 738.4,-100.36 726.21,-96.41"/>
<polygon fill="#63b8ff" stroke="#63b8ff" points="1649.13,-159.01 1659.21,-155.75 1649.29,-152.01 1649.13,-159.01"/>
</g>
<!-- Node57 -->
<g id="node19" class="node">
<title>Node57</title>
<g id="a_node19"><a xlink:href="d__s__play_8h.html" target="_top" xlink:title=" ">
<polygon fill="#fff0f0" stroke="red" points="888.65,-96 775.65,-96 775.65,-77 888.65,-77 888.65,-96"/>
<text text-anchor="middle" x="832.15" y="-84" font-family="Helvetica,sans-Serif" font-size="10.00">include/d/s/d_s_play.h</text>
</a>
</g>
</g>
<!-- Node4&#45;&gt;Node57 -->
<g id="edge19" class="edge">
<title>Node4&#45;&gt;Node57</title>
<path fill="none" stroke="#63b8ff" d="M1649.24,-154.86C1480.69,-149.16 1041.91,-132.29 898.15,-107 884.5,-104.6 869.67,-100.37 857.53,-96.46"/>
<polygon fill="#63b8ff" stroke="#63b8ff" points="1649.04,-158.36 1659.15,-155.19 1649.27,-151.36 1649.04,-158.36"/>
</g>
<!-- Node61 -->
<g id="node20" class="node">
<title>Node61</title>
<g id="a_node20"><a xlink:href="d__msg__scrn__base_8h.html" target="_top" xlink:title=" ">
<polygon fill="#fff0f0" stroke="red" points="1005.65,-101.5 906.65,-101.5 906.65,-71.5 1005.65,-71.5 1005.65,-101.5"/>
<text text-anchor="start" x="914.65" y="-89.5" font-family="Helvetica,sans-Serif" font-size="10.00">include/msg/scrn/d</text>
<text text-anchor="middle" x="956.15" y="-78.5" font-family="Helvetica,sans-Serif" font-size="10.00">_msg_scrn_base.h</text>
</a>
</g>
</g>
<!-- Node4&#45;&gt;Node61 -->
<g id="edge20" class="edge">
<title>Node4&#45;&gt;Node61</title>
<path fill="none" stroke="#63b8ff" d="M1649.72,-157.71C1524.39,-157.84 1244.97,-152.44 1015.15,-107 1008.7,-105.72 1001.97,-103.95 995.46,-101.98"/>
<polygon fill="#63b8ff" stroke="#63b8ff" points="1649.5,-161.21 1659.49,-157.68 1649.48,-154.21 1649.5,-161.21"/>
</g>
<!-- Node65 -->
<g id="node21" class="node">
<title>Node65</title>
<g id="a_node21"><a xlink:href="d__a__b__zant_8h.html" target="_top" xlink:title=" ">
<polygon fill="white" stroke="#666666" points="1144.65,-101.5 1023.65,-101.5 1023.65,-71.5 1144.65,-71.5 1144.65,-101.5"/>
<text text-anchor="start" x="1031.65" y="-89.5" font-family="Helvetica,sans-Serif" font-size="10.00">include/rel/d/a/b/d</text>
<text text-anchor="middle" x="1084.15" y="-78.5" font-family="Helvetica,sans-Serif" font-size="10.00">_a_b_zant/d_a_b_zant.h</text>
</a>
</g>
</g>
<!-- Node4&#45;&gt;Node65 -->
<g id="edge21" class="edge">
<title>Node4&#45;&gt;Node65</title>
<path fill="none" stroke="#63b8ff" d="M1649.21,-155C1543.34,-150.95 1331.1,-139.24 1154.15,-107 1146.7,-105.64 1138.9,-103.85 1131.32,-101.9"/>
<polygon fill="#63b8ff" stroke="#63b8ff" points="1649.02,-158.5 1659.15,-155.37 1649.28,-151.5 1649.02,-158.5"/>
</g>
<!-- Node66 -->
<g id="node22" class="node">
<title>Node66</title>
<g id="a_node22"><a xlink:href="d__a__skip__2D_8h.html" target="_top" xlink:title=" ">
<polygon fill="white" stroke="#666666" points="1287.15,-101.5 1163.15,-101.5 1163.15,-71.5 1287.15,-71.5 1287.15,-101.5"/>
<text text-anchor="start" x="1171.15" y="-89.5" font-family="Helvetica,sans-Serif" font-size="10.00">include/rel/d/a/d_a</text>
<text text-anchor="middle" x="1225.15" y="-78.5" font-family="Helvetica,sans-Serif" font-size="10.00">_skip_2D/d_a_skip_2D.h</text>
</a>
</g>
</g>
<!-- Node4&#45;&gt;Node66 -->
<g id="edge22" class="edge">
<title>Node4&#45;&gt;Node66</title>
<path fill="none" stroke="#63b8ff" d="M1649.3,-151.67C1566.94,-144.47 1422.96,-129.86 1301.15,-107 1293.52,-105.57 1285.52,-103.81 1277.69,-101.93"/>
<polygon fill="#63b8ff" stroke="#63b8ff" points="1648.98,-155.15 1659.25,-152.52 1649.58,-148.18 1648.98,-155.15"/>
</g>
<!-- Node67 -->
<g id="node23" class="node">
<title>Node67</title>
<g id="a_node23"><a xlink:href="d__a__spinner_8h.html" target="_top" xlink:title=" ">
<polygon fill="white" stroke="#666666" points="2880.15,-101.5 2764.15,-101.5 2764.15,-71.5 2880.15,-71.5 2880.15,-101.5"/>
<text text-anchor="start" x="2772.15" y="-89.5" font-family="Helvetica,sans-Serif" font-size="10.00">include/rel/d/a/d_a</text>
<text text-anchor="middle" x="2822.15" y="-78.5" font-family="Helvetica,sans-Serif" font-size="10.00">_spinner/d_a_spinner.h</text>
</a>
</g>
</g>
<!-- Node4&#45;&gt;Node67 -->
<g id="edge23" class="edge">
<title>Node4&#45;&gt;Node67</title>
<path fill="none" stroke="#63b8ff" d="M1782.93,-155.84C1981.64,-152.05 2566.98,-138.46 2755.15,-107 2762.56,-105.76 2770.31,-103.98 2777.8,-101.99"/>
<polygon fill="#63b8ff" stroke="#63b8ff" points="1782.97,-152.33 1773.04,-156.02 1783.1,-159.33 1782.97,-152.33"/>
</g>
<!-- Node68 -->
<g id="node24" class="node">
<title>Node68</title>
<g id="a_node24"><a xlink:href="d__a__player_8cpp.html" target="_top" xlink:title=" ">
<polygon fill="white" stroke="#666666" points="673.15,-24.5 559.15,-24.5 559.15,-5.5 673.15,-5.5 673.15,-24.5"/>
<text text-anchor="middle" x="616.15" y="-12.5" font-family="Helvetica,sans-Serif" font-size="10.00">src/d/a/d_a_player.cpp</text>
</a>
</g>
</g>
<!-- Node4&#45;&gt;Node68 -->
<g id="edge33" class="edge">
<title>Node4&#45;&gt;Node68</title>
<path fill="none" stroke="#63b8ff" d="M1649.29,-156.13C1419.62,-152.85 674.97,-139.72 636.15,-107 611.66,-86.36 613.09,-43.21 614.99,-24.72"/>
<polygon fill="#63b8ff" stroke="#63b8ff" points="1649.23,-159.63 1659.28,-156.27 1649.33,-152.63 1649.23,-159.63"/>
</g>
<!-- Node69 -->
<g id="node25" class="node">
<title>Node69</title>
<g id="a_node25"><a xlink:href="d__a__obj__yobikusa_8h.html" target="_top" xlink:title=" ">
<polygon fill="white" stroke="#666666" points="1448.65,-107 1343.65,-107 1343.65,-66 1448.65,-66 1448.65,-107"/>
<text text-anchor="start" x="1351.65" y="-95" font-family="Helvetica,sans-Serif" font-size="10.00">include/rel/d/a/obj</text>
<text text-anchor="start" x="1351.65" y="-84" font-family="Helvetica,sans-Serif" font-size="10.00">/d_a_obj_yobikusa/d</text>
<text text-anchor="middle" x="1396.15" y="-73" font-family="Helvetica,sans-Serif" font-size="10.00">_a_obj_yobikusa.h</text>
</a>
</g>
</g>
<!-- Node4&#45;&gt;Node69 -->
<g id="edge26" class="edge">
<title>Node4&#45;&gt;Node69</title>
<path fill="none" stroke="#63b8ff" d="M1649.74,-146.26C1597.36,-137.28 1522.64,-123.33 1458.15,-107 1455.2,-106.25 1452.18,-105.44 1449.14,-104.6"/>
<polygon fill="#63b8ff" stroke="#63b8ff" points="1648.96,-149.68 1659.4,-147.9 1650.13,-142.78 1648.96,-149.68"/>
</g>
<!-- Node70 -->
<g id="node26" class="node">
<title>Node70</title>
<g id="a_node26"><a xlink:href="d__a__tag__telop_8h.html" target="_top" xlink:title=" ">
<polygon fill="white" stroke="#666666" points="1585.15,-107 1467.15,-107 1467.15,-66 1585.15,-66 1585.15,-107"/>
<text text-anchor="start" x="1475.15" y="-95" font-family="Helvetica,sans-Serif" font-size="10.00">include/rel/d/a/tag</text>
<text text-anchor="start" x="1475.15" y="-84" font-family="Helvetica,sans-Serif" font-size="10.00">/d_a_tag_telop/d_a_tag</text>
<text text-anchor="middle" x="1526.15" y="-73" font-family="Helvetica,sans-Serif" font-size="10.00">_telop.h</text>
</a>
</g>
</g>
<!-- Node4&#45;&gt;Node70 -->
<g id="edge27" class="edge">
<title>Node4&#45;&gt;Node70</title>
<path fill="none" stroke="#63b8ff" d="M1666.27,-138.75C1639.94,-129.12 1607.58,-117.29 1580.6,-107.42"/>
<polygon fill="#63b8ff" stroke="#63b8ff" points="1664.77,-141.93 1675.36,-142.08 1667.17,-135.36 1664.77,-141.93"/>
</g>
<!-- Node71 -->
<g id="node27" class="node">
<title>Node71</title>
<g id="a_node27"><a xlink:href="c__dylink_8cpp.html" target="_top" xlink:title=" ">
<polygon fill="white" stroke="#666666" points="1698.65,-96 1603.65,-96 1603.65,-77 1698.65,-77 1698.65,-96"/>
<text text-anchor="middle" x="1651.15" y="-84" font-family="Helvetica,sans-Serif" font-size="10.00">src/c/c_dylink.cpp</text>
</a>
</g>
</g>
<!-- Node4&#45;&gt;Node71 -->
<g id="edge28" class="edge">
<title>Node4&#45;&gt;Node71</title>
<path fill="none" stroke="#63b8ff" d="M1695.1,-134.49C1682.88,-121.43 1668.19,-105.72 1659.27,-96.18"/>
<polygon fill="#63b8ff" stroke="#63b8ff" points="1692.26,-136.58 1701.65,-141.49 1697.37,-131.8 1692.26,-136.58"/>
</g>
<!-- Node72 -->
<g id="node28" class="node">
<title>Node72</title>
<g id="a_node28"><a xlink:href="d__a__itembase_8cpp.html" target="_top" xlink:title=" ">
<polygon fill="white" stroke="#666666" points="1845.15,-96 1717.15,-96 1717.15,-77 1845.15,-77 1845.15,-96"/>
<text text-anchor="middle" x="1781.15" y="-84" font-family="Helvetica,sans-Serif" font-size="10.00">src/d/a/d_a_itembase.cpp</text>
</a>
</g>
</g>
<!-- Node4&#45;&gt;Node72 -->
<g id="edge30" class="edge">
<title>Node4&#45;&gt;Node72</title>
<path fill="none" stroke="#63b8ff" d="M1737.2,-134.49C1749.42,-121.43 1764.11,-105.72 1773.03,-96.18"/>
<polygon fill="#63b8ff" stroke="#63b8ff" points="1734.93,-131.8 1730.65,-141.49 1740.04,-136.58 1734.93,-131.8"/>
</g>
<!-- Node73 -->
<g id="node29" class="node">
<title>Node73</title>
<g id="a_node29"><a xlink:href="d__a__obj_8cpp.html" target="_top" xlink:title=" ">
<polygon fill="white" stroke="#666666" points="1964.65,-96 1863.65,-96 1863.65,-77 1964.65,-77 1964.65,-96"/>
<text text-anchor="middle" x="1914.15" y="-84" font-family="Helvetica,sans-Serif" font-size="10.00">src/d/a/d_a_obj.cpp</text>
</a>
</g>
</g>
<!-- Node4&#45;&gt;Node73 -->
<g id="edge31" class="edge">
<title>Node4&#45;&gt;Node73</title>
<path fill="none" stroke="#63b8ff" d="M1767.76,-138.88C1806.59,-125.26 1858.14,-107.16 1888.57,-96.48"/>
<polygon fill="#63b8ff" stroke="#63b8ff" points="1766.88,-135.48 1758.6,-142.1 1769.2,-142.09 1766.88,-135.48"/>
</g>
<!-- Node74 -->
<g id="node30" class="node">
<title>Node74</title>
<g id="a_node30"><a xlink:href="d__bg__s_8cpp.html" target="_top" xlink:title=" ">
<polygon fill="white" stroke="#666666" points="2087.15,-96 1983.15,-96 1983.15,-77 2087.15,-77 2087.15,-96"/>
<text text-anchor="middle" x="2035.15" y="-84" font-family="Helvetica,sans-Serif" font-size="10.00">src/d/bg/d_bg_s.cpp</text>
</a>
</g>
</g>
<!-- Node4&#45;&gt;Node74 -->
<g id="edge34" class="edge">
<title>Node4&#45;&gt;Node74</title>
<path fill="none" stroke="#63b8ff" d="M1782.59,-146.35C1834.98,-137.41 1909.7,-123.48 1974.15,-107 1985.89,-104 1998.69,-100.02 2009.52,-96.43"/>
<polygon fill="#63b8ff" stroke="#63b8ff" points="1782.2,-142.86 1772.92,-147.98 1783.36,-149.76 1782.2,-142.86"/>
</g>
<!-- Node75 -->
<g id="node31" class="node">
<title>Node75</title>
<g id="a_node31"><a xlink:href="d__bg__s__movebg__actor_8cpp.html" target="_top" xlink:title=" ">
<polygon fill="white" stroke="#666666" points="2231.15,-101.5 2105.15,-101.5 2105.15,-71.5 2231.15,-71.5 2231.15,-101.5"/>
<text text-anchor="start" x="2113.15" y="-89.5" font-family="Helvetica,sans-Serif" font-size="10.00">src/d/bg/d_bg_s_movebg</text>
<text text-anchor="middle" x="2168.15" y="-78.5" font-family="Helvetica,sans-Serif" font-size="10.00">_actor.cpp</text>
</a>
</g>
</g>
<!-- Node4&#45;&gt;Node75 -->
<g id="edge35" class="edge">
<title>Node4&#45;&gt;Node75</title>
<path fill="none" stroke="#63b8ff" d="M1782.91,-150.94C1859.15,-143.4 1987.39,-128.78 2096.15,-107 2103.39,-105.55 2110.97,-103.78 2118.39,-101.9"/>
<polygon fill="#63b8ff" stroke="#63b8ff" points="1782.71,-147.45 1773.1,-151.9 1783.39,-154.41 1782.71,-147.45"/>
</g>
<!-- Node76 -->
<g id="node32" class="node">
<title>Node76</title>
<g id="a_node32"><a xlink:href="d__bg__w_8cpp.html" target="_top" xlink:title=" ">
<polygon fill="white" stroke="#666666" points="2356.65,-96 2249.65,-96 2249.65,-77 2356.65,-77 2356.65,-96"/>
<text text-anchor="middle" x="2303.15" y="-84" font-family="Helvetica,sans-Serif" font-size="10.00">src/d/bg/d_bg_w.cpp</text>
</a>
</g>
</g>
<!-- Node4&#45;&gt;Node76 -->
<g id="edge36" class="edge">
<title>Node4&#45;&gt;Node76</title>
<path fill="none" stroke="#63b8ff" d="M1782.83,-155.01C1883,-151.04 2077.89,-139.5 2240.15,-107 2252.95,-104.44 2266.84,-100.29 2278.32,-96.48"/>
<polygon fill="#63b8ff" stroke="#63b8ff" points="1782.76,-151.51 1772.9,-155.39 1783.02,-158.5 1782.76,-151.51"/>
</g>
<!-- Node77 -->
<g id="node33" class="node">
<title>Node77</title>
<g id="a_node33"><a xlink:href="d__cc__s_8cpp.html" target="_top" xlink:title=" ">
<polygon fill="white" stroke="#666666" points="2479.15,-96 2375.15,-96 2375.15,-77 2479.15,-77 2479.15,-96"/>
<text text-anchor="middle" x="2427.15" y="-84" font-family="Helvetica,sans-Serif" font-size="10.00">src/d/cc/d_cc_s.cpp</text>
</a>
</g>
</g>
<!-- Node4&#45;&gt;Node77 -->
<g id="edge37" class="edge">
<title>Node4&#45;&gt;Node77</title>
<path fill="none" stroke="#63b8ff" d="M1782.9,-156.96C1901.44,-155.76 2155.99,-148.09 2366.15,-107 2378.7,-104.55 2392.28,-100.36 2403.44,-96.5"/>
<polygon fill="#63b8ff" stroke="#63b8ff" points="1783,-153.46 1773.03,-157.04 1783.06,-160.46 1783,-153.46"/>
</g>
<!-- Node82 -->
<g id="node34" class="node">
<title>Node82</title>
<g id="a_node34"><a xlink:href="d__eye__hl_8cpp.html" target="_top" xlink:title=" ">
<polygon fill="white" stroke="#666666" points="3466.15,-96 3368.15,-96 3368.15,-77 3466.15,-77 3466.15,-96"/>
<text text-anchor="middle" x="3417.15" y="-84" font-family="Helvetica,sans-Serif" font-size="10.00">src/d/d_eye_hl.cpp</text>
</a>
</g>
</g>
<!-- Node4&#45;&gt;Node82 -->
<g id="edge39" class="edge">
<title>Node4&#45;&gt;Node82</title>
<path fill="none" stroke="#63b8ff" d="M1782.65,-156.13C2070.6,-152.2 3202.45,-135.09 3359.15,-107 3371.49,-104.79 3384.78,-100.47 3395.52,-96.46"/>
<polygon fill="#63b8ff" stroke="#63b8ff" points="1783.03,-152.62 1773.08,-156.26 1783.13,-159.62 1783.03,-152.62"/>
</g>
<!-- Node17&#45;&gt;Node14 -->
<g id="edge7" class="edge">
<title>Node17&#45;&gt;Node14</title>
<path fill="none" stroke="#63b8ff" d="M2979.59,-72.52C3015.35,-58.63 3071.1,-36.99 3102.2,-24.91"/>
<polygon fill="#63b8ff" stroke="#63b8ff" points="2978.65,-69.13 2970.6,-76.01 2981.19,-75.65 2978.65,-69.13"/>
</g>
<!-- Node17&#45;&gt;Node18 -->
<g id="edge8" class="edge">
<title>Node17&#45;&gt;Node18</title>
<path fill="none" stroke="#63b8ff" d="M2913.87,-72.78C2905.9,-70.11 2897.31,-67.61 2889.15,-66 2744.78,-37.43 2299.56,-22.39 2134.01,-17.66"/>
<polygon fill="#63b8ff" stroke="#63b8ff" points="2912.58,-76.04 2923.18,-76.09 2914.93,-69.44 2912.58,-76.04"/>
</g>
<!-- Node17&#45;&gt;Node19 -->
<g id="edge9" class="edge">
<title>Node17&#45;&gt;Node19</title>
<path fill="none" stroke="#63b8ff" d="M2950.98,-65.76C2953.75,-54.45 2957.15,-40.52 2959.66,-30.27"/>
<polygon fill="#63b8ff" stroke="#63b8ff" points="2947.64,-64.68 2948.66,-75.23 2954.44,-66.35 2947.64,-64.68"/>
</g>
<!-- Node41&#45;&gt;Node14 -->
<g id="edge17" class="edge">
<title>Node41&#45;&gt;Node14</title>
<path fill="none" stroke="#63b8ff" d="M3136.54,-59.96C3133.33,-47.57 3129.68,-33.49 3127.4,-24.68"/>
<polygon fill="#63b8ff" stroke="#63b8ff" points="3133.15,-60.83 3139.04,-69.63 3139.92,-59.08 3133.15,-60.83"/>
</g>
<!-- Node67&#45;&gt;Node14 -->
<g id="edge24" class="edge">
<title>Node67&#45;&gt;Node14</title>
<path fill="none" stroke="#63b8ff" d="M2882.18,-68.04C2884.87,-67.34 2887.54,-66.65 2890.15,-66 2955.11,-49.8 3030.99,-34.26 3078.56,-24.92"/>
<polygon fill="#63b8ff" stroke="#63b8ff" points="2881.28,-64.66 2872.53,-70.64 2883.1,-71.42 2881.28,-64.66"/>
</g>
<!-- Node67&#45;&gt;Node68 -->
<g id="edge25" class="edge">
<title>Node67&#45;&gt;Node68</title>
<path fill="none" stroke="#63b8ff" d="M2767.57,-68.36C2763.39,-67.43 2759.22,-66.63 2755.15,-66 2544.53,-33.46 992.46,-19.08 673.4,-16.45"/>
<polygon fill="#63b8ff" stroke="#63b8ff" points="2766.53,-71.71 2777.08,-70.69 2768.2,-64.91 2766.53,-71.71"/>
</g>
<!-- Node109&#45;&gt;Node3 -->
<g id="edge42" class="edge">
<title>Node109&#45;&gt;Node3</title>
<path fill="none" stroke="#63b8ff" d="M1923.81,-347.89C1937.79,-328.6 1961.59,-297.77 1986.15,-275 2003.84,-258.6 2027.15,-243.17 2042.15,-233.9"/>
<polygon fill="#63b8ff" stroke="#63b8ff" points="1921.11,-345.65 1918.16,-355.83 1926.81,-349.71 1921.11,-345.65"/>
</g>
<!-- Node109&#45;&gt;Node68 -->
<g id="edge53" class="edge">
<title>Node109&#45;&gt;Node68</title>
<path fill="none" stroke="#63b8ff" d="M1857.46,-354.9C1851.96,-353.87 1846.45,-352.88 1841.15,-352 1436.01,-284.47 279.65,-416.08 9.15,-107 -2.85,-93.29 -3.19,-79.4 9.15,-66 45.95,-26.04 414.81,-18.02 558.9,-16.4"/>
<polygon fill="#63b8ff" stroke="#63b8ff" points="1856.69,-358.31 1867.18,-356.76 1858.01,-351.44 1856.69,-358.31"/>
</g>
<!-- Node110 -->
<g id="node36" class="node">
<title>Node110</title>
<g id="a_node36"><a xlink:href="d__bg__s__acch_8h.html" target="_top" xlink:title=" ">
<polygon fill="#fff0f0" stroke="red" points="1939.15,-310.5 1835.15,-310.5 1835.15,-280.5 1939.15,-280.5 1939.15,-310.5"/>
<text text-anchor="start" x="1843.15" y="-298.5" font-family="Helvetica,sans-Serif" font-size="10.00">include/d/bg/d_bg_s</text>
<text text-anchor="middle" x="1887.15" y="-287.5" font-family="Helvetica,sans-Serif" font-size="10.00">_acch.h</text>
</a>
</g>
</g>
<!-- Node109&#45;&gt;Node110 -->
<g id="edge43" class="edge">
<title>Node109&#45;&gt;Node110</title>
<path fill="none" stroke="#63b8ff" d="M1904.46,-346.62C1900.53,-335.25 1895.65,-321.13 1892.08,-310.77"/>
<polygon fill="#63b8ff" stroke="#63b8ff" points="1901.04,-347.46 1907.62,-355.77 1907.66,-345.17 1901.04,-347.46"/>
</g>
<!-- Node143 -->
<g id="node37" class="node">
<title>Node143</title>
<g id="a_node37"><a xlink:href="d__attention_8h.html" target="_top" xlink:title=" ">
<polygon fill="#fff0f0" stroke="red" points="1817.15,-305 1703.15,-305 1703.15,-286 1817.15,-286 1817.15,-305"/>
<text text-anchor="middle" x="1760.15" y="-293" font-family="Helvetica,sans-Serif" font-size="10.00">include/d/d_attention.h</text>
</a>
</g>
</g>
<!-- Node109&#45;&gt;Node143 -->
<g id="edge44" class="edge">
<title>Node109&#45;&gt;Node143</title>
<path fill="none" stroke="#63b8ff" d="M1881.37,-352.29C1851.16,-338.39 1805.29,-317.28 1779.51,-305.41"/>
<polygon fill="#63b8ff" stroke="#63b8ff" points="1879.8,-355.42 1890.34,-356.42 1882.72,-349.06 1879.8,-355.42"/>
</g>
<!-- Node121 -->
<g id="node38" class="node">
<title>Node121</title>
<g id="a_node38"><a xlink:href="d__event_8h.html" target="_top" xlink:title=" ">
<polygon fill="#fff0f0" stroke="red" points="1734.15,-233.5 1606.15,-233.5 1606.15,-214.5 1734.15,-214.5 1734.15,-233.5"/>
<text text-anchor="middle" x="1670.15" y="-221.5" font-family="Helvetica,sans-Serif" font-size="10.00">include/d/event/d_event.h</text>
</a>
</g>
</g>
<!-- Node109&#45;&gt;Node121 -->
<g id="edge47" class="edge">
<title>Node109&#45;&gt;Node121</title>
<path fill="none" stroke="#63b8ff" d="M1855.79,-354.73C1793.46,-341.82 1700.04,-321.71 1694.15,-316 1671.15,-293.71 1669.3,-252.21 1669.7,-233.98"/>
<polygon fill="#63b8ff" stroke="#63b8ff" points="1855.06,-358.15 1865.56,-356.74 1856.47,-351.29 1855.06,-358.15"/>
</g>
<!-- Node145 -->
<g id="node39" class="node">
<title>Node145</title>
<g id="a_node39"><a xlink:href="d__a__crod_8h.html" target="_top" xlink:title=" ">
<polygon fill="white" stroke="#666666" points="3580.15,-173 3484.15,-173 3484.15,-143 3580.15,-143 3580.15,-173"/>
<text text-anchor="start" x="3492.15" y="-161" font-family="Helvetica,sans-Serif" font-size="10.00">include/rel/d/a/d_a</text>
<text text-anchor="middle" x="3532.15" y="-150" font-family="Helvetica,sans-Serif" font-size="10.00">_crod/d_a_crod.h</text>
</a>
</g>
</g>
<!-- Node109&#45;&gt;Node145 -->
<g id="edge49" class="edge">
<title>Node109&#45;&gt;Node145</title>
<path fill="none" stroke="#63b8ff" d="M1964.16,-354.93C1969.88,-353.87 1975.63,-352.87 1981.15,-352 2116.84,-330.51 2151.78,-332.6 2288.15,-316 2754.1,-259.28 3317.67,-186.73 3483.85,-165.25"/>
<polygon fill="#63b8ff" stroke="#63b8ff" points="1963.91,-351.42 1954.74,-356.73 1965.22,-358.29 1963.91,-351.42"/>
</g>
<!-- Node146 -->
<g id="node40" class="node">
<title>Node146</title>
<g id="a_node40"><a xlink:href="d__a__tag__mmsg_8h.html" target="_top" xlink:title=" ">
<polygon fill="white" stroke="#666666" points="2119.15,-316 1995.15,-316 1995.15,-275 2119.15,-275 2119.15,-316"/>
<text text-anchor="start" x="2003.15" y="-304" font-family="Helvetica,sans-Serif" font-size="10.00">include/rel/d/a/tag</text>
<text text-anchor="start" x="2003.15" y="-293" font-family="Helvetica,sans-Serif" font-size="10.00">/d_a_tag_mmsg/d_a_tag</text>
<text text-anchor="middle" x="2057.15" y="-282" font-family="Helvetica,sans-Serif" font-size="10.00">_mmsg.h</text>
</a>
</g>
</g>
<!-- Node109&#45;&gt;Node146 -->
<g id="edge51" class="edge">
<title>Node109&#45;&gt;Node146</title>
<path fill="none" stroke="#63b8ff" d="M1940.05,-352.24C1961.5,-342.03 1991.08,-327.95 2015.14,-316.5"/>
<polygon fill="#63b8ff" stroke="#63b8ff" points="1938.83,-348.95 1931.31,-356.41 1941.84,-355.27 1938.83,-348.95"/>
</g>
<!-- Node143&#45;&gt;Node3 -->
<g id="edge45" class="edge">
<title>Node143&#45;&gt;Node3</title>
<path fill="none" stroke="#63b8ff" d="M1799.37,-282.39C1808.15,-279.83 1817.44,-277.23 1826.15,-275 1889.76,-258.74 1964.09,-243.28 2010.9,-233.96"/>
<polygon fill="#63b8ff" stroke="#63b8ff" points="1798.65,-278.96 1790.06,-285.16 1800.65,-285.67 1798.65,-278.96"/>
</g>
<!-- Node143&#45;&gt;Node4 -->
<g id="edge46" class="edge">
<title>Node143&#45;&gt;Node4</title>
<path fill="none" stroke="#63b8ff" d="M1757.84,-274.12C1755.44,-256.5 1750.91,-230.55 1743.15,-209 1738.6,-196.38 1731.27,-183.05 1725.39,-173.34"/>
<polygon fill="#63b8ff" stroke="#63b8ff" points="1754.37,-274.53 1759.07,-284.02 1761.31,-273.67 1754.37,-274.53"/>
</g>
<!-- Node121&#45;&gt;Node4 -->
<g id="edge48" class="edge">
<title>Node121&#45;&gt;Node4</title>
<path fill="none" stroke="#63b8ff" d="M1683.08,-205.01C1690.31,-194.96 1699.18,-182.61 1705.92,-173.23"/>
<polygon fill="#63b8ff" stroke="#63b8ff" points="1680.42,-202.71 1677.43,-212.87 1686.11,-206.79 1680.42,-202.71"/>
</g>
<!-- Node145&#45;&gt;Node14 -->
<g id="edge50" class="edge">
<title>Node145&#45;&gt;Node14</title>
<path fill="none" stroke="#63b8ff" d="M3532.68,-131.34C3531.62,-110.56 3526.53,-82.16 3508.15,-66 3460.5,-24.09 3273.99,-16.82 3179.97,-15.88"/>
<polygon fill="#63b8ff" stroke="#63b8ff" points="3529.18,-131.39 3532.87,-141.32 3536.17,-131.26 3529.18,-131.39"/>
</g>
<!-- Node146&#45;&gt;Node3 -->
<g id="edge52" class="edge">
<title>Node146&#45;&gt;Node3</title>
<path fill="none" stroke="#63b8ff" d="M2057.15,-263.43C2057.15,-252.63 2057.15,-241.34 2057.15,-233.82"/>
<polygon fill="#63b8ff" stroke="#63b8ff" points="2053.65,-263.26 2057.15,-273.26 2060.65,-263.26 2053.65,-263.26"/>
</g>
<!-- Node176&#45;&gt;Node34 -->
<g id="edge62" class="edge">
<title>Node176&#45;&gt;Node34</title>
<path fill="none" stroke="#63b8ff" d="M1423.2,-218.71C1759.78,-199.44 3117.66,-121.14 3207.15,-107 3222.76,-104.53 3239.83,-100.3 3253.83,-96.4"/>
<polygon fill="#63b8ff" stroke="#63b8ff" points="1423.42,-215.2 1413.64,-219.26 1423.82,-222.18 1423.42,-215.2"/>
</g>
<!-- Node178&#45;&gt;Node3 -->
<g id="edge65" class="edge">
<title>Node178&#45;&gt;Node3</title>
<path fill="none" stroke="#63b8ff" d="M2194.95,-281.34C2160.97,-267.44 2108.35,-245.93 2078.94,-233.91"/>
<polygon fill="#63b8ff" stroke="#63b8ff" points="2193.29,-284.44 2203.87,-284.98 2195.94,-277.96 2193.29,-284.44"/>
</g>
<!-- Node178&#45;&gt;Node82 -->
<g id="edge66" class="edge">
<title>Node178&#45;&gt;Node82</title>
<path fill="none" stroke="#63b8ff" d="M2290.81,-287.58C2464.13,-267.98 2958.34,-206.89 3359.15,-107 3370.59,-104.15 3383.02,-100.1 3393.42,-96.44"/>
<polygon fill="#63b8ff" stroke="#63b8ff" points="2290.42,-284.1 2280.88,-288.7 2291.21,-291.06 2290.42,-284.1"/>
</g>
</g>
</svg>
