<?xml version="1.0" encoding="UTF-8" standalone="no"?>
<!DOCTYPE svg PUBLIC "-//W3C//DTD SVG 1.1//EN"
 "http://www.w3.org/Graphics/SVG/1.1/DTD/svg11.dtd">
<!-- Generated by graphviz version 7.0.4 (20221203.1631)
 -->
<!-- Title: include/JSystem/J3DGraphBase/J3DMatBlock.h Pages: 1 -->
<svg width="5115pt" height="313pt"
 viewBox="0.00 0.00 5115.00 313.00" xmlns="http://www.w3.org/2000/svg" xmlns:xlink="http://www.w3.org/1999/xlink">
<g id="graph0" class="graph" transform="scale(1 1) rotate(0) translate(4 309)">
<title>include/JSystem/J3DGraphBase/J3DMatBlock.h</title>
<!-- Node1 -->
<g id="node1" class="node">
<title>Node1</title>
<g id="a_node1"><a xlink:title=" ">
<polygon fill="#999999" stroke="#666666" points="732.5,-305 597.5,-305 597.5,-275 732.5,-275 732.5,-305"/>
<text text-anchor="start" x="605.5" y="-293" font-family="Helvetica,sans-Serif" font-size="10.00">include/JSystem/J3DGraph</text>
<text text-anchor="middle" x="665" y="-282" font-family="Helvetica,sans-Serif" font-size="10.00">Base/J3DMatBlock.h</text>
</a>
</g>
</g>
<!-- Node2 -->
<g id="node2" class="node">
<title>Node2</title>
<g id="a_node2"><a xlink:href="J3DMaterial_8h.html" target="_top" xlink:title=" ">
<polygon fill="white" stroke="#666666" points="534.5,-239 399.5,-239 399.5,-209 534.5,-209 534.5,-239"/>
<text text-anchor="start" x="407.5" y="-227" font-family="Helvetica,sans-Serif" font-size="10.00">include/JSystem/J3DGraph</text>
<text text-anchor="middle" x="467" y="-216" font-family="Helvetica,sans-Serif" font-size="10.00">Base/J3DMaterial.h</text>
</a>
</g>
</g>
<!-- Node1&#45;&gt;Node2 -->
<g id="edge1" class="edge">
<title>Node1&#45;&gt;Node2</title>
<path fill="none" stroke="#63b8ff" d="M609.93,-271.2C578.94,-261.18 540.74,-248.83 511.63,-239.43"/>
<polygon fill="#63b8ff" stroke="#63b8ff" points="608.53,-274.43 619.12,-274.17 610.69,-267.77 608.53,-274.43"/>
</g>
<!-- Node23 -->
<g id="node10" class="node">
<title>Node23</title>
<g id="a_node10"><a xlink:href="d__a__alink_8h.html" target="_top" xlink:title=" ">
<polygon fill="white" stroke="#666666" points="723,-233.5 607,-233.5 607,-214.5 723,-214.5 723,-233.5"/>
<text text-anchor="middle" x="665" y="-221.5" font-family="Helvetica,sans-Serif" font-size="10.00">include/d/a/d_a_alink.h</text>
</a>
</g>
</g>
<!-- Node1&#45;&gt;Node23 -->
<g id="edge9" class="edge">
<title>Node1&#45;&gt;Node23</title>
<path fill="none" stroke="#63b8ff" d="M665,-263.59C665,-253.06 665,-241.53 665,-233.84"/>
<polygon fill="#63b8ff" stroke="#63b8ff" points="661.5,-263.28 665,-273.28 668.5,-263.28 661.5,-263.28"/>
</g>
<!-- Node297 -->
<g id="node50" class="node">
<title>Node297</title>
<g id="a_node50"><a xlink:href="J3DMatBlock_8cpp.html" target="_top" xlink:title=" ">
<polygon fill="white" stroke="#666666" points="883,-239 741,-239 741,-209 883,-209 883,-239"/>
<text text-anchor="start" x="749" y="-227" font-family="Helvetica,sans-Serif" font-size="10.00">libs/JSystem/J3DGraphBase</text>
<text text-anchor="middle" x="812" y="-216" font-family="Helvetica,sans-Serif" font-size="10.00">/J3DMatBlock.cpp</text>
</a>
</g>
</g>
<!-- Node1&#45;&gt;Node297 -->
<g id="edge58" class="edge">
<title>Node1&#45;&gt;Node297</title>
<path fill="none" stroke="#63b8ff" d="M708.32,-270.14C730.87,-260.32 758.01,-248.51 778.87,-239.43"/>
<polygon fill="#63b8ff" stroke="#63b8ff" points="707.15,-266.83 699.38,-274.03 709.94,-273.25 707.15,-266.83"/>
</g>
<!-- Node3 -->
<g id="node3" class="node">
<title>Node3</title>
<g id="a_node3"><a xlink:href="J3DJoint_8h.html" target="_top" xlink:title=" ">
<polygon fill="white" stroke="#666666" points="438.5,-173 303.5,-173 303.5,-143 438.5,-143 438.5,-173"/>
<text text-anchor="start" x="311.5" y="-161" font-family="Helvetica,sans-Serif" font-size="10.00">include/JSystem/J3DGraph</text>
<text text-anchor="middle" x="371" y="-150" font-family="Helvetica,sans-Serif" font-size="10.00">Animator/J3DJoint.h</text>
</a>
</g>
</g>
<!-- Node2&#45;&gt;Node3 -->
<g id="edge2" class="edge">
<title>Node2&#45;&gt;Node3</title>
<path fill="none" stroke="#63b8ff" d="M436.29,-202.52C422.05,-193.03 405.47,-181.98 392.58,-173.39"/>
<polygon fill="#63b8ff" stroke="#63b8ff" points="434.17,-205.32 444.44,-207.96 438.06,-199.5 434.17,-205.32"/>
</g>
<!-- Node296 -->
<g id="node7" class="node">
<title>Node296</title>
<g id="a_node7"><a xlink:href="J3DMaterial_8cpp.html" target="_top" xlink:title=" ">
<polygon fill="white" stroke="#666666" points="637,-173 495,-173 495,-143 637,-143 637,-173"/>
<text text-anchor="start" x="503" y="-161" font-family="Helvetica,sans-Serif" font-size="10.00">libs/JSystem/J3DGraphBase</text>
<text text-anchor="middle" x="566" y="-150" font-family="Helvetica,sans-Serif" font-size="10.00">/J3DMaterial.cpp</text>
</a>
</g>
</g>
<!-- Node2&#45;&gt;Node296 -->
<g id="edge6" class="edge">
<title>Node2&#45;&gt;Node296</title>
<path fill="none" stroke="#63b8ff" d="M498.25,-202.8C513.03,-193.24 530.33,-182.06 543.75,-173.39"/>
<polygon fill="#63b8ff" stroke="#63b8ff" points="496.74,-199.61 490.24,-207.97 500.54,-205.48 496.74,-199.61"/>
</g>
<!-- Node285 -->
<g id="node8" class="node">
<title>Node285</title>
<g id="a_node8"><a xlink:href="J3DPacket_8cpp.html" target="_top" xlink:title=" ">
<polygon fill="white" stroke="#666666" points="285,-173 143,-173 143,-143 285,-143 285,-173"/>
<text text-anchor="start" x="151" y="-161" font-family="Helvetica,sans-Serif" font-size="10.00">libs/JSystem/J3DGraphBase</text>
<text text-anchor="middle" x="214" y="-150" font-family="Helvetica,sans-Serif" font-size="10.00">/J3DPacket.cpp</text>
</a>
</g>
</g>
<!-- Node2&#45;&gt;Node285 -->
<g id="edge7" class="edge">
<title>Node2&#45;&gt;Node285</title>
<path fill="none" stroke="#63b8ff" d="M398.9,-205.77C358.85,-195.64 308.81,-182.98 270.89,-173.39"/>
<polygon fill="#63b8ff" stroke="#63b8ff" points="397.89,-209.13 408.44,-208.19 399.6,-202.34 397.89,-209.13"/>
</g>
<!-- Node101 -->
<g id="node9" class="node">
<title>Node101</title>
<g id="a_node9"><a xlink:href="d__resorce_8cpp.html" target="_top" xlink:title=" ">
<polygon fill="white" stroke="#666666" points="599,-96 497,-96 497,-77 599,-77 599,-96"/>
<text text-anchor="middle" x="548" y="-84" font-family="Helvetica,sans-Serif" font-size="10.00">src/d/d_resorce.cpp</text>
</a>
</g>
</g>
<!-- Node2&#45;&gt;Node101 -->
<g id="edge8" class="edge">
<title>Node2&#45;&gt;Node101</title>
<path fill="none" stroke="#63b8ff" d="M469.07,-197.74C471.33,-181.22 476.07,-159.68 486,-143 497.9,-123.01 519.35,-106.22 533.64,-96.5"/>
<polygon fill="#63b8ff" stroke="#63b8ff" points="465.64,-196.91 467.99,-207.24 472.59,-197.7 465.64,-196.91"/>
</g>
<!-- Node4 -->
<g id="node4" class="node">
<title>Node4</title>
<g id="a_node4"><a xlink:href="J3DJointTree_8h.html" target="_top" xlink:title=" ">
<polygon fill="#fff0f0" stroke="red" points="478.5,-101.5 343.5,-101.5 343.5,-71.5 478.5,-71.5 478.5,-101.5"/>
<text text-anchor="start" x="351.5" y="-89.5" font-family="Helvetica,sans-Serif" font-size="10.00">include/JSystem/J3DGraph</text>
<text text-anchor="middle" x="411" y="-78.5" font-family="Helvetica,sans-Serif" font-size="10.00">Animator/J3DJointTree.h</text>
</a>
</g>
</g>
<!-- Node3&#45;&gt;Node4 -->
<g id="edge3" class="edge">
<title>Node3&#45;&gt;Node4</title>
<path fill="none" stroke="#63b8ff" d="M384.88,-132.88C390.83,-122.55 397.58,-110.82 402.72,-101.88"/>
<polygon fill="#63b8ff" stroke="#63b8ff" points="382,-130.87 380.04,-141.29 388.06,-134.37 382,-130.87"/>
</g>
<!-- Node290 -->
<g id="node5" class="node">
<title>Node290</title>
<g id="a_node5"><a xlink:href="J3DJoint_8cpp.html" target="_top" xlink:title=" ">
<polygon fill="white" stroke="#666666" points="158,-101.5 0,-101.5 0,-71.5 158,-71.5 158,-101.5"/>
<text text-anchor="start" x="8" y="-89.5" font-family="Helvetica,sans-Serif" font-size="10.00">libs/JSystem/J3DGraphAnimator</text>
<text text-anchor="middle" x="79" y="-78.5" font-family="Helvetica,sans-Serif" font-size="10.00">/J3DJoint.cpp</text>
</a>
</g>
</g>
<!-- Node3&#45;&gt;Node290 -->
<g id="edge4" class="edge">
<title>Node3&#45;&gt;Node290</title>
<path fill="none" stroke="#63b8ff" d="M299,-139.86C250.09,-128.22 186.12,-113 139.78,-101.97"/>
<polygon fill="#63b8ff" stroke="#63b8ff" points="298.13,-143.25 308.67,-142.16 299.75,-136.44 298.13,-143.25"/>
</g>
<!-- Node295 -->
<g id="node6" class="node">
<title>Node295</title>
<g id="a_node6"><a xlink:href="J3DJointFactory_8cpp.html" target="_top" xlink:title=" ">
<polygon fill="white" stroke="#666666" points="325.5,-101.5 176.5,-101.5 176.5,-71.5 325.5,-71.5 325.5,-101.5"/>
<text text-anchor="start" x="184.5" y="-89.5" font-family="Helvetica,sans-Serif" font-size="10.00">libs/JSystem/J3DGraphLoader</text>
<text text-anchor="middle" x="251" y="-78.5" font-family="Helvetica,sans-Serif" font-size="10.00">/J3DJointFactory.cpp</text>
</a>
</g>
</g>
<!-- Node3&#45;&gt;Node295 -->
<g id="edge5" class="edge">
<title>Node3&#45;&gt;Node295</title>
<path fill="none" stroke="#63b8ff" d="M336.19,-136.84C316.87,-125.65 293.28,-111.99 275.83,-101.88"/>
<polygon fill="#63b8ff" stroke="#63b8ff" points="334.42,-139.86 344.83,-141.84 337.93,-133.8 334.42,-139.86"/>
</g>
<!-- Node24 -->
<g id="node11" class="node">
<title>Node24</title>
<g id="a_node11"><a xlink:href="d__com__inf__game_8h.html" target="_top" xlink:title=" ">
<polygon fill="#fff0f0" stroke="red" points="2822,-173 2712,-173 2712,-143 2822,-143 2822,-173"/>
<text text-anchor="start" x="2720" y="-161" font-family="Helvetica,sans-Serif" font-size="10.00">include/d/com/d_com</text>
<text text-anchor="middle" x="2767" y="-150" font-family="Helvetica,sans-Serif" font-size="10.00">_inf_game.h</text>
</a>
</g>
</g>
<!-- Node23&#45;&gt;Node24 -->
<g id="edge10" class="edge">
<title>Node23&#45;&gt;Node24</title>
<path fill="none" stroke="#63b8ff" d="M713.18,-211.84C719.48,-210.71 725.88,-209.71 732,-209 1131.33,-162.76 2428.03,-159.22 2711.8,-159"/>
<polygon fill="#63b8ff" stroke="#63b8ff" points="712.65,-208.38 703.5,-213.73 713.99,-215.25 712.65,-208.38"/>
</g>
<!-- Node10 -->
<g id="node15" class="node">
<title>Node10</title>
<g id="a_node15"><a xlink:href="d__a__alink_8cpp.html" target="_top" xlink:title=" ">
<polygon fill="white" stroke="#666666" points="1625.5,-24.5 1516.5,-24.5 1516.5,-5.5 1625.5,-5.5 1625.5,-24.5"/>
<text text-anchor="middle" x="1571" y="-12.5" font-family="Helvetica,sans-Serif" font-size="10.00">src/d/a/d_a_alink.cpp</text>
</a>
</g>
</g>
<!-- Node23&#45;&gt;Node10 -->
<g id="edge57" class="edge">
<title>Node23&#45;&gt;Node10</title>
<path fill="none" stroke="#63b8ff" d="M660.34,-203.12C653.75,-169.42 646.35,-101.31 684,-66 714.43,-37.46 1327.08,-21.45 1516.01,-17.17"/>
<polygon fill="#63b8ff" stroke="#63b8ff" points="656.88,-203.69 662.41,-212.73 663.72,-202.22 656.88,-203.69"/>
</g>
<!-- Node24&#45;&gt;Node101 -->
<g id="edge55" class="edge">
<title>Node24&#45;&gt;Node101</title>
<path fill="none" stroke="#63b8ff" d="M2700.32,-156.52C2359.83,-153.9 823.05,-140.32 613,-107 599.27,-104.82 584.39,-100.51 572.33,-96.49"/>
<polygon fill="#63b8ff" stroke="#63b8ff" points="2700.15,-160.01 2710.18,-156.59 2700.2,-153.01 2700.15,-160.01"/>
</g>
<!-- Node25 -->
<g id="node12" class="node">
<title>Node25</title>
<g id="a_node12"><a xlink:href="d__a__npc_8h.html" target="_top" xlink:title=" ">
<polygon fill="#fff0f0" stroke="red" points="4682.5,-96 4571.5,-96 4571.5,-77 4682.5,-77 4682.5,-96"/>
<text text-anchor="middle" x="4627" y="-84" font-family="Helvetica,sans-Serif" font-size="10.00">include/d/a/d_a_npc.h</text>
</a>
</g>
</g>
<!-- Node24&#45;&gt;Node25 -->
<g id="edge11" class="edge">
<title>Node24&#45;&gt;Node25</title>
<path fill="none" stroke="#63b8ff" d="M2833.54,-156.18C3137.8,-152.32 4389.17,-134.83 4562,-107 4575.73,-104.79 4590.61,-100.47 4602.66,-96.46"/>
<polygon fill="#63b8ff" stroke="#63b8ff" points="2833.75,-152.68 2823.79,-156.31 2833.84,-159.68 2833.75,-152.68"/>
</g>
<!-- Node31 -->
<g id="node13" class="node">
<title>Node31</title>
<g id="a_node13"><a xlink:href="d__cc__uty_8h.html" target="_top" xlink:title=" ">
<polygon fill="#fff0f0" stroke="red" points="4819.5,-96 4700.5,-96 4700.5,-77 4819.5,-77 4819.5,-96"/>
<text text-anchor="middle" x="4760" y="-84" font-family="Helvetica,sans-Serif" font-size="10.00">include/d/cc/d_cc_uty.h</text>
</a>
</g>
</g>
<!-- Node24&#45;&gt;Node31 -->
<g id="edge12" class="edge">
<title>Node24&#45;&gt;Node31</title>
<path fill="none" stroke="#63b8ff" d="M2833.6,-156.25C3151.24,-152.57 4504.59,-135.31 4691,-107 4705.52,-104.79 4721.32,-100.48 4734.13,-96.47"/>
<polygon fill="#63b8ff" stroke="#63b8ff" points="2833.78,-152.75 2823.82,-156.37 2833.86,-159.75 2833.78,-152.75"/>
</g>
<!-- Node36 -->
<g id="node14" class="node">
<title>Node36</title>
<g id="a_node14"><a xlink:href="d__item_8h.html" target="_top" xlink:title=" ">
<polygon fill="#fff0f0" stroke="red" points="4971.5,-96 4876.5,-96 4876.5,-77 4971.5,-77 4971.5,-96"/>
<text text-anchor="middle" x="4924" y="-84" font-family="Helvetica,sans-Serif" font-size="10.00">include/d/d_item.h</text>
</a>
</g>
</g>
<!-- Node24&#45;&gt;Node36 -->
<g id="edge13" class="edge">
<title>Node24&#45;&gt;Node36</title>
<path fill="none" stroke="#63b8ff" d="M2833.74,-156.52C3168.67,-153.96 4658.32,-140.77 4862,-107 4875.14,-104.82 4889.33,-100.51 4900.83,-96.49"/>
<polygon fill="#63b8ff" stroke="#63b8ff" points="2833.8,-153.02 2823.83,-156.6 2833.86,-160.02 2833.8,-153.02"/>
</g>
<!-- Node24&#45;&gt;Node10 -->
<g id="edge37" class="edge">
<title>Node24&#45;&gt;Node10</title>
<path fill="none" stroke="#63b8ff" d="M2700.3,-156.41C2457.46,-153.98 1632.53,-143.09 1590,-107 1565.76,-86.43 1567.57,-43.63 1569.7,-24.99"/>
<polygon fill="#63b8ff" stroke="#63b8ff" points="2700.21,-159.91 2710.24,-156.51 2700.28,-152.91 2700.21,-159.91"/>
</g>
<!-- Node37 -->
<g id="node16" class="node">
<title>Node37</title>
<g id="a_node16"><a xlink:href="d__a__obj__item_8cpp.html" target="_top" xlink:title=" ">
<polygon fill="white" stroke="#666666" points="4980.5,-24.5 4855.5,-24.5 4855.5,-5.5 4980.5,-5.5 4980.5,-24.5"/>
<text text-anchor="middle" x="4918" y="-12.5" font-family="Helvetica,sans-Serif" font-size="10.00">src/d/a/d_a_obj_item.cpp</text>
</a>
</g>
</g>
<!-- Node24&#45;&gt;Node37 -->
<g id="edge40" class="edge">
<title>Node24&#45;&gt;Node37</title>
<path fill="none" stroke="#63b8ff" d="M2833.75,-156.76C3199.19,-155.32 4942.51,-146.37 4981,-107 4993.74,-93.97 4988.93,-82.41 4981,-66 4971.89,-47.14 4951.83,-33.22 4936.77,-24.92"/>
<polygon fill="#63b8ff" stroke="#63b8ff" points="2833.83,-153.26 2823.85,-156.8 2833.86,-160.26 2833.83,-153.26"/>
</g>
<!-- Node38 -->
<g id="node17" class="node">
<title>Node38</title>
<g id="a_node17"><a xlink:href="d__com__inf__game_8cpp.html" target="_top" xlink:title=" ">
<polygon fill="white" stroke="#666666" points="5107,-30 4999,-30 4999,0 5107,0 5107,-30"/>
<text text-anchor="start" x="5007" y="-18" font-family="Helvetica,sans-Serif" font-size="10.00">src/d/com/d_com_inf</text>
<text text-anchor="middle" x="5053" y="-7" font-family="Helvetica,sans-Serif" font-size="10.00">_game.cpp</text>
</a>
</g>
</g>
<!-- Node24&#45;&gt;Node38 -->
<g id="edge46" class="edge">
<title>Node24&#45;&gt;Node38</title>
<path fill="none" stroke="#63b8ff" d="M2833.53,-157.31C3194.19,-158.73 4902.07,-162.54 4998,-107 5027.08,-90.17 5042.61,-51.27 5049.16,-30.2"/>
<polygon fill="#63b8ff" stroke="#63b8ff" points="2833.79,-153.81 2823.78,-157.27 2833.77,-160.81 2833.79,-153.81"/>
</g>
<!-- Node41 -->
<g id="node18" class="node">
<title>Node41</title>
<g id="a_node18"><a xlink:href="d__kantera__icon__meter_8h.html" target="_top" xlink:title=" ">
<polygon fill="#fff0f0" stroke="red" points="922.5,-101.5 821.5,-101.5 821.5,-71.5 922.5,-71.5 922.5,-101.5"/>
<text text-anchor="start" x="829.5" y="-89.5" font-family="Helvetica,sans-Serif" font-size="10.00">include/d/d_kantera</text>
<text text-anchor="middle" x="872" y="-78.5" font-family="Helvetica,sans-Serif" font-size="10.00">_icon_meter.h</text>
</a>
</g>
</g>
<!-- Node24&#45;&gt;Node41 -->
<g id="edge17" class="edge">
<title>Node24&#45;&gt;Node41</title>
<path fill="none" stroke="#63b8ff" d="M2700.45,-156.34C2391.85,-153.11 1107.67,-137.91 931,-107 924.2,-105.81 917.11,-104 910.3,-101.95"/>
<polygon fill="#63b8ff" stroke="#63b8ff" points="2700.32,-159.84 2710.35,-156.44 2700.39,-152.84 2700.32,-159.84"/>
</g>
<!-- Node43 -->
<g id="node19" class="node">
<title>Node43</title>
<g id="a_node19"><a xlink:href="d__model_8h.html" target="_top" xlink:title=" ">
<polygon fill="#fff0f0" stroke="red" points="1043.5,-96 940.5,-96 940.5,-77 1043.5,-77 1043.5,-96"/>
<text text-anchor="middle" x="992" y="-84" font-family="Helvetica,sans-Serif" font-size="10.00">include/d/d_model.h</text>
</a>
</g>
</g>
<!-- Node24&#45;&gt;Node43 -->
<g id="edge18" class="edge">
<title>Node24&#45;&gt;Node43</title>
<path fill="none" stroke="#63b8ff" d="M2700.55,-156.18C2404.9,-152.39 1216.27,-135.48 1052,-107 1039.27,-104.79 1025.52,-100.48 1014.41,-96.47"/>
<polygon fill="#63b8ff" stroke="#63b8ff" points="2700.36,-159.68 2710.41,-156.31 2700.45,-152.68 2700.36,-159.68"/>
</g>
<!-- Node45 -->
<g id="node20" class="node">
<title>Node45</title>
<g id="a_node20"><a xlink:href="d__name_8h.html" target="_top" xlink:title=" ">
<polygon fill="#fff0f0" stroke="red" points="1162.5,-96 1061.5,-96 1061.5,-77 1162.5,-77 1162.5,-96"/>
<text text-anchor="middle" x="1112" y="-84" font-family="Helvetica,sans-Serif" font-size="10.00">include/d/d_name.h</text>
</a>
</g>
</g>
<!-- Node24&#45;&gt;Node45 -->
<g id="edge19" class="edge">
<title>Node24&#45;&gt;Node45</title>
<path fill="none" stroke="#63b8ff" d="M2700.31,-157.41C2437.44,-158.66 1472.69,-159.48 1172,-107 1159.27,-104.78 1145.53,-100.46 1134.41,-96.45"/>
<polygon fill="#63b8ff" stroke="#63b8ff" points="2700.07,-160.92 2710.05,-157.37 2700.03,-153.92 2700.07,-160.92"/>
</g>
<!-- Node46 -->
<g id="node21" class="node">
<title>Node46</title>
<g id="a_node21"><a xlink:href="d__file__sel__info_8h.html" target="_top" xlink:title=" ">
<polygon fill="#fff0f0" stroke="red" points="1277,-101.5 1181,-101.5 1181,-71.5 1277,-71.5 1277,-101.5"/>
<text text-anchor="start" x="1189" y="-89.5" font-family="Helvetica,sans-Serif" font-size="10.00">include/d/file/d_file</text>
<text text-anchor="middle" x="1229" y="-78.5" font-family="Helvetica,sans-Serif" font-size="10.00">_sel_info.h</text>
</a>
</g>
</g>
<!-- Node24&#45;&gt;Node46 -->
<g id="edge20" class="edge">
<title>Node24&#45;&gt;Node46</title>
<path fill="none" stroke="#63b8ff" d="M2700.15,-157.36C2449.12,-158.3 1562.94,-157.88 1286,-107 1279.42,-105.79 1272.56,-103.97 1265.98,-101.91"/>
<polygon fill="#63b8ff" stroke="#63b8ff" points="2700.12,-160.86 2710.11,-157.32 2700.09,-153.86 2700.12,-160.86"/>
</g>
<!-- Node48 -->
<g id="node22" class="node">
<title>Node48</title>
<g id="a_node22"><a xlink:href="d__file__sel__warning_8h.html" target="_top" xlink:title=" ">
<polygon fill="#fff0f0" stroke="red" points="1391,-101.5 1295,-101.5 1295,-71.5 1391,-71.5 1391,-101.5"/>
<text text-anchor="start" x="1303" y="-89.5" font-family="Helvetica,sans-Serif" font-size="10.00">include/d/file/d_file</text>
<text text-anchor="middle" x="1343" y="-78.5" font-family="Helvetica,sans-Serif" font-size="10.00">_sel_warning.h</text>
</a>
</g>
</g>
<!-- Node24&#45;&gt;Node48 -->
<g id="edge21" class="edge">
<title>Node24&#45;&gt;Node48</title>
<path fill="none" stroke="#63b8ff" d="M2700.58,-157.14C2462.68,-157.23 1653.88,-154.01 1400,-107 1393.52,-105.8 1386.78,-104.01 1380.3,-101.99"/>
<polygon fill="#63b8ff" stroke="#63b8ff" points="2700.29,-160.64 2710.29,-157.13 2700.28,-153.64 2700.29,-160.64"/>
</g>
<!-- Node50 -->
<g id="node23" class="node">
<title>Node50</title>
<g id="a_node23"><a xlink:href="d__meter2_8h.html" target="_top" xlink:title=" ">
<polygon fill="#fff0f0" stroke="red" points="1543,-96 1409,-96 1409,-77 1543,-77 1543,-96"/>
<text text-anchor="middle" x="1476" y="-84" font-family="Helvetica,sans-Serif" font-size="10.00">include/d/meter/d_meter2.h</text>
</a>
</g>
</g>
<!-- Node24&#45;&gt;Node50 -->
<g id="edge22" class="edge">
<title>Node24&#45;&gt;Node50</title>
<path fill="none" stroke="#63b8ff" d="M2700.39,-155.96C2480.74,-152.25 1780.62,-138.23 1557,-107 1540.24,-104.66 1521.88,-100.38 1506.88,-96.43"/>
<polygon fill="#63b8ff" stroke="#63b8ff" points="2700.14,-159.45 2710.2,-156.12 2700.26,-152.46 2700.14,-159.45"/>
</g>
<!-- Node57 -->
<g id="node24" class="node">
<title>Node57</title>
<g id="a_node24"><a xlink:href="d__msg__object_8h.html" target="_top" xlink:title=" ">
<polygon fill="#fff0f0" stroke="red" points="803,-101.5 693,-101.5 693,-71.5 803,-71.5 803,-101.5"/>
<text text-anchor="start" x="701" y="-89.5" font-family="Helvetica,sans-Serif" font-size="10.00">include/d/msg/d_msg</text>
<text text-anchor="middle" x="748" y="-78.5" font-family="Helvetica,sans-Serif" font-size="10.00">_object.h</text>
</a>
</g>
</g>
<!-- Node24&#45;&gt;Node57 -->
<g id="edge23" class="edge">
<title>Node24&#45;&gt;Node57</title>
<path fill="none" stroke="#63b8ff" d="M2700.37,-156.36C2379.51,-153.15 1001.32,-137.68 812,-107 804.66,-105.81 796.99,-104 789.62,-101.95"/>
<polygon fill="#63b8ff" stroke="#63b8ff" points="2700.23,-159.86 2710.26,-156.46 2700.3,-152.86 2700.23,-159.86"/>
</g>
<!-- Node62 -->
<g id="node25" class="node">
<title>Node62</title>
<g id="a_node25"><a xlink:href="d__demo_8cpp.html" target="_top" xlink:title=" ">
<polygon fill="white" stroke="#666666" points="735,-24.5 641,-24.5 641,-5.5 735,-5.5 735,-24.5"/>
<text text-anchor="middle" x="688" y="-12.5" font-family="Helvetica,sans-Serif" font-size="10.00">src/d/d_demo.cpp</text>
</a>
</g>
</g>
<!-- Node24&#45;&gt;Node62 -->
<g id="edge51" class="edge">
<title>Node24&#45;&gt;Node62</title>
<path fill="none" stroke="#63b8ff" d="M2700.27,-156.67C2348.08,-154.76 720.05,-143.93 684,-107 662.35,-84.82 676.2,-43.26 683.88,-25"/>
<polygon fill="#63b8ff" stroke="#63b8ff" points="2700,-160.17 2710.02,-156.72 2700.04,-153.17 2700,-160.17"/>
</g>
<!-- Node71 -->
<g id="node26" class="node">
<title>Node71</title>
<g id="a_node26"><a xlink:href="d__s__logo_8h.html" target="_top" xlink:title=" ">
<polygon fill="#fff0f0" stroke="red" points="1712.5,-96 1599.5,-96 1599.5,-77 1712.5,-77 1712.5,-96"/>
<text text-anchor="middle" x="1656" y="-84" font-family="Helvetica,sans-Serif" font-size="10.00">include/d/s/d_s_logo.h</text>
</a>
</g>
</g>
<!-- Node24&#45;&gt;Node71 -->
<g id="edge26" class="edge">
<title>Node24&#45;&gt;Node71</title>
<path fill="none" stroke="#63b8ff" d="M2700.1,-155.93C2500.36,-152.4 1910.42,-139.44 1721,-107 1707.41,-104.67 1692.67,-100.4 1680.66,-96.45"/>
<polygon fill="#63b8ff" stroke="#63b8ff" points="2700,-159.43 2710.06,-156.1 2700.12,-152.43 2700,-159.43"/>
</g>
<!-- Node73 -->
<g id="node27" class="node">
<title>Node73</title>
<g id="a_node27"><a xlink:href="d__s__play_8h.html" target="_top" xlink:title=" ">
<polygon fill="#fff0f0" stroke="red" points="1843.5,-96 1730.5,-96 1730.5,-77 1843.5,-77 1843.5,-96"/>
<text text-anchor="middle" x="1787" y="-84" font-family="Helvetica,sans-Serif" font-size="10.00">include/d/s/d_s_play.h</text>
</a>
</g>
</g>
<!-- Node24&#45;&gt;Node73 -->
<g id="edge27" class="edge">
<title>Node24&#45;&gt;Node73</title>
<path fill="none" stroke="#63b8ff" d="M2700.49,-155.41C2518.53,-150.73 2015.21,-135.52 1852,-107 1838.42,-104.63 1823.68,-100.35 1811.67,-96.4"/>
<polygon fill="#63b8ff" stroke="#63b8ff" points="2700.15,-158.9 2710.24,-155.66 2700.33,-151.9 2700.15,-158.9"/>
</g>
<!-- Node77 -->
<g id="node28" class="node">
<title>Node77</title>
<g id="a_node28"><a xlink:href="d__msg__scrn__base_8h.html" target="_top" xlink:title=" ">
<polygon fill="#fff0f0" stroke="red" points="1960.5,-101.5 1861.5,-101.5 1861.5,-71.5 1960.5,-71.5 1960.5,-101.5"/>
<text text-anchor="start" x="1869.5" y="-89.5" font-family="Helvetica,sans-Serif" font-size="10.00">include/msg/scrn/d</text>
<text text-anchor="middle" x="1911" y="-78.5" font-family="Helvetica,sans-Serif" font-size="10.00">_msg_scrn_base.h</text>
</a>
</g>
</g>
<!-- Node24&#45;&gt;Node77 -->
<g id="edge28" class="edge">
<title>Node24&#45;&gt;Node77</title>
<path fill="none" stroke="#63b8ff" d="M2700.24,-155.06C2534.64,-149.9 2108.35,-134.3 1969,-107 1962.54,-105.73 1955.8,-103.94 1949.31,-101.94"/>
<polygon fill="#63b8ff" stroke="#63b8ff" points="2700.09,-158.56 2710.19,-155.37 2700.3,-151.56 2700.09,-158.56"/>
</g>
<!-- Node81 -->
<g id="node29" class="node">
<title>Node81</title>
<g id="a_node29"><a xlink:href="d__a__b__zant_8h.html" target="_top" xlink:title=" ">
<polygon fill="white" stroke="#666666" points="2099.5,-101.5 1978.5,-101.5 1978.5,-71.5 2099.5,-71.5 2099.5,-101.5"/>
<text text-anchor="start" x="1986.5" y="-89.5" font-family="Helvetica,sans-Serif" font-size="10.00">include/rel/d/a/b/d</text>
<text text-anchor="middle" x="2039" y="-78.5" font-family="Helvetica,sans-Serif" font-size="10.00">_a_b_zant/d_a_b_zant.h</text>
</a>
</g>
</g>
<!-- Node24&#45;&gt;Node81 -->
<g id="edge29" class="edge">
<title>Node24&#45;&gt;Node81</title>
<path fill="none" stroke="#63b8ff" d="M2700.04,-156.23C2580.48,-153.89 2322.77,-144.52 2109,-107 2101.54,-105.69 2093.74,-103.92 2086.16,-101.99"/>
<polygon fill="#63b8ff" stroke="#63b8ff" points="2699.94,-159.73 2710.01,-156.41 2700.07,-152.73 2699.94,-159.73"/>
</g>
<!-- Node82 -->
<g id="node30" class="node">
<title>Node82</title>
<g id="a_node30"><a xlink:href="d__a__skip__2D_8h.html" target="_top" xlink:title=" ">
<polygon fill="white" stroke="#666666" points="2242,-101.5 2118,-101.5 2118,-71.5 2242,-71.5 2242,-101.5"/>
<text text-anchor="start" x="2126" y="-89.5" font-family="Helvetica,sans-Serif" font-size="10.00">include/rel/d/a/d_a</text>
<text text-anchor="middle" x="2180" y="-78.5" font-family="Helvetica,sans-Serif" font-size="10.00">_skip_2D/d_a_skip_2D.h</text>
</a>
</g>
</g>
<!-- Node24&#45;&gt;Node82 -->
<g id="edge30" class="edge">
<title>Node24&#45;&gt;Node82</title>
<path fill="none" stroke="#63b8ff" d="M2700.29,-154.19C2601.46,-149.21 2410.64,-136.43 2251,-107 2243.58,-105.63 2235.81,-103.86 2228.25,-101.94"/>
<polygon fill="#63b8ff" stroke="#63b8ff" points="2699.91,-157.68 2710.07,-154.67 2700.26,-150.69 2699.91,-157.68"/>
</g>
<!-- Node83 -->
<g id="node31" class="node">
<title>Node83</title>
<g id="a_node31"><a xlink:href="d__a__spinner_8h.html" target="_top" xlink:title=" ">
<polygon fill="white" stroke="#666666" points="2376,-101.5 2260,-101.5 2260,-71.5 2376,-71.5 2376,-101.5"/>
<text text-anchor="start" x="2268" y="-89.5" font-family="Helvetica,sans-Serif" font-size="10.00">include/rel/d/a/d_a</text>
<text text-anchor="middle" x="2318" y="-78.5" font-family="Helvetica,sans-Serif" font-size="10.00">_spinner/d_a_spinner.h</text>
</a>
</g>
</g>
<!-- Node24&#45;&gt;Node83 -->
<g id="edge31" class="edge">
<title>Node24&#45;&gt;Node83</title>
<path fill="none" stroke="#63b8ff" d="M2700.14,-151.37C2623.47,-144.2 2494.28,-129.91 2385,-107 2378.24,-105.58 2371.17,-103.83 2364.26,-101.96"/>
<polygon fill="#63b8ff" stroke="#63b8ff" points="2699.73,-154.85 2710.01,-152.28 2700.37,-147.88 2699.73,-154.85"/>
</g>
<!-- Node84 -->
<g id="node32" class="node">
<title>Node84</title>
<g id="a_node32"><a xlink:href="d__a__player_8cpp.html" target="_top" xlink:title=" ">
<polygon fill="white" stroke="#666666" points="3606,-24.5 3492,-24.5 3492,-5.5 3606,-5.5 3606,-24.5"/>
<text text-anchor="middle" x="3549" y="-12.5" font-family="Helvetica,sans-Serif" font-size="10.00">src/d/a/d_a_player.cpp</text>
</a>
</g>
</g>
<!-- Node24&#45;&gt;Node84 -->
<g id="edge41" class="edge">
<title>Node24&#45;&gt;Node84</title>
<path fill="none" stroke="#63b8ff" d="M2833.85,-156.65C3184.03,-154.65 4792.36,-143.51 4828,-107 4840.73,-93.96 4840.63,-79.13 4828,-66 4785.14,-21.43 3849.57,-16.57 3606.36,-16.06"/>
<polygon fill="#63b8ff" stroke="#63b8ff" points="2833.9,-153.15 2823.92,-156.7 2833.94,-160.15 2833.9,-153.15"/>
</g>
<!-- Node85 -->
<g id="node33" class="node">
<title>Node85</title>
<g id="a_node33"><a xlink:href="d__a__obj__yobikusa_8h.html" target="_top" xlink:title=" ">
<polygon fill="white" stroke="#666666" points="2499.5,-107 2394.5,-107 2394.5,-66 2499.5,-66 2499.5,-107"/>
<text text-anchor="start" x="2402.5" y="-95" font-family="Helvetica,sans-Serif" font-size="10.00">include/rel/d/a/obj</text>
<text text-anchor="start" x="2402.5" y="-84" font-family="Helvetica,sans-Serif" font-size="10.00">/d_a_obj_yobikusa/d</text>
<text text-anchor="middle" x="2447" y="-73" font-family="Helvetica,sans-Serif" font-size="10.00">_a_obj_yobikusa.h</text>
</a>
</g>
</g>
<!-- Node24&#45;&gt;Node85 -->
<g id="edge34" class="edge">
<title>Node24&#45;&gt;Node85</title>
<path fill="none" stroke="#63b8ff" d="M2700.58,-146.26C2648.21,-137.28 2573.49,-123.33 2509,-107 2506.05,-106.25 2503.03,-105.44 2499.99,-104.6"/>
<polygon fill="#63b8ff" stroke="#63b8ff" points="2699.8,-149.68 2710.25,-147.9 2700.98,-142.78 2699.8,-149.68"/>
</g>
<!-- Node86 -->
<g id="node34" class="node">
<title>Node86</title>
<g id="a_node34"><a xlink:href="d__a__tag__telop_8h.html" target="_top" xlink:title=" ">
<polygon fill="white" stroke="#666666" points="2636,-107 2518,-107 2518,-66 2636,-66 2636,-107"/>
<text text-anchor="start" x="2526" y="-95" font-family="Helvetica,sans-Serif" font-size="10.00">include/rel/d/a/tag</text>
<text text-anchor="start" x="2526" y="-84" font-family="Helvetica,sans-Serif" font-size="10.00">/d_a_tag_telop/d_a_tag</text>
<text text-anchor="middle" x="2577" y="-73" font-family="Helvetica,sans-Serif" font-size="10.00">_telop.h</text>
</a>
</g>
</g>
<!-- Node24&#45;&gt;Node86 -->
<g id="edge35" class="edge">
<title>Node24&#45;&gt;Node86</title>
<path fill="none" stroke="#63b8ff" d="M2717.12,-138.75C2690.79,-129.12 2658.43,-117.29 2631.45,-107.42"/>
<polygon fill="#63b8ff" stroke="#63b8ff" points="2715.62,-141.93 2726.21,-142.08 2718.02,-135.36 2715.62,-141.93"/>
</g>
<!-- Node87 -->
<g id="node35" class="node">
<title>Node87</title>
<g id="a_node35"><a xlink:href="c__dylink_8cpp.html" target="_top" xlink:title=" ">
<polygon fill="white" stroke="#666666" points="2749.5,-96 2654.5,-96 2654.5,-77 2749.5,-77 2749.5,-96"/>
<text text-anchor="middle" x="2702" y="-84" font-family="Helvetica,sans-Serif" font-size="10.00">src/c/c_dylink.cpp</text>
</a>
</g>
</g>
<!-- Node24&#45;&gt;Node87 -->
<g id="edge36" class="edge">
<title>Node24&#45;&gt;Node87</title>
<path fill="none" stroke="#63b8ff" d="M2745.95,-134.49C2733.73,-121.43 2719.04,-105.72 2710.12,-96.18"/>
<polygon fill="#63b8ff" stroke="#63b8ff" points="2743.11,-136.58 2752.5,-141.49 2748.22,-131.8 2743.11,-136.58"/>
</g>
<!-- Node88 -->
<g id="node36" class="node">
<title>Node88</title>
<g id="a_node36"><a xlink:href="d__a__itembase_8cpp.html" target="_top" xlink:title=" ">
<polygon fill="white" stroke="#666666" points="2896,-96 2768,-96 2768,-77 2896,-77 2896,-96"/>
<text text-anchor="middle" x="2832" y="-84" font-family="Helvetica,sans-Serif" font-size="10.00">src/d/a/d_a_itembase.cpp</text>
</a>
</g>
</g>
<!-- Node24&#45;&gt;Node88 -->
<g id="edge38" class="edge">
<title>Node24&#45;&gt;Node88</title>
<path fill="none" stroke="#63b8ff" d="M2788.05,-134.49C2800.27,-121.43 2814.96,-105.72 2823.88,-96.18"/>
<polygon fill="#63b8ff" stroke="#63b8ff" points="2785.78,-131.8 2781.5,-141.49 2790.89,-136.58 2785.78,-131.8"/>
</g>
<!-- Node89 -->
<g id="node37" class="node">
<title>Node89</title>
<g id="a_node37"><a xlink:href="d__a__obj_8cpp.html" target="_top" xlink:title=" ">
<polygon fill="white" stroke="#666666" points="3015.5,-96 2914.5,-96 2914.5,-77 3015.5,-77 3015.5,-96"/>
<text text-anchor="middle" x="2965" y="-84" font-family="Helvetica,sans-Serif" font-size="10.00">src/d/a/d_a_obj.cpp</text>
</a>
</g>
</g>
<!-- Node24&#45;&gt;Node89 -->
<g id="edge39" class="edge">
<title>Node24&#45;&gt;Node89</title>
<path fill="none" stroke="#63b8ff" d="M2818.61,-138.88C2857.44,-125.26 2908.99,-107.16 2939.42,-96.48"/>
<polygon fill="#63b8ff" stroke="#63b8ff" points="2817.73,-135.48 2809.45,-142.1 2820.05,-142.09 2817.73,-135.48"/>
</g>
<!-- Node90 -->
<g id="node38" class="node">
<title>Node90</title>
<g id="a_node38"><a xlink:href="d__bg__s_8cpp.html" target="_top" xlink:title=" ">
<polygon fill="white" stroke="#666666" points="3138,-96 3034,-96 3034,-77 3138,-77 3138,-96"/>
<text text-anchor="middle" x="3086" y="-84" font-family="Helvetica,sans-Serif" font-size="10.00">src/d/bg/d_bg_s.cpp</text>
</a>
</g>
</g>
<!-- Node24&#45;&gt;Node90 -->
<g id="edge42" class="edge">
<title>Node24&#45;&gt;Node90</title>
<path fill="none" stroke="#63b8ff" d="M2833.41,-146.2C2885.57,-137.2 2959.86,-123.27 3024,-107 3035.92,-103.98 3048.93,-99.99 3059.94,-96.41"/>
<polygon fill="#63b8ff" stroke="#63b8ff" points="2833.05,-142.71 2823.79,-147.84 2834.23,-149.61 2833.05,-142.71"/>
</g>
<!-- Node91 -->
<g id="node39" class="node">
<title>Node91</title>
<g id="a_node39"><a xlink:href="d__bg__s__movebg__actor_8cpp.html" target="_top" xlink:title=" ">
<polygon fill="white" stroke="#666666" points="3282,-101.5 3156,-101.5 3156,-71.5 3282,-71.5 3282,-101.5"/>
<text text-anchor="start" x="3164" y="-89.5" font-family="Helvetica,sans-Serif" font-size="10.00">src/d/bg/d_bg_s_movebg</text>
<text text-anchor="middle" x="3219" y="-78.5" font-family="Helvetica,sans-Serif" font-size="10.00">_actor.cpp</text>
</a>
</g>
</g>
<!-- Node24&#45;&gt;Node91 -->
<g id="edge43" class="edge">
<title>Node24&#45;&gt;Node91</title>
<path fill="none" stroke="#63b8ff" d="M2833.76,-150.94C2910,-143.4 3038.24,-128.78 3147,-107 3154.24,-105.55 3161.82,-103.78 3169.24,-101.9"/>
<polygon fill="#63b8ff" stroke="#63b8ff" points="2833.56,-147.45 2823.95,-151.9 2834.24,-154.41 2833.56,-147.45"/>
</g>
<!-- Node92 -->
<g id="node40" class="node">
<title>Node92</title>
<g id="a_node40"><a xlink:href="d__bg__w_8cpp.html" target="_top" xlink:title=" ">
<polygon fill="white" stroke="#666666" points="3407.5,-96 3300.5,-96 3300.5,-77 3407.5,-77 3407.5,-96"/>
<text text-anchor="middle" x="3354" y="-84" font-family="Helvetica,sans-Serif" font-size="10.00">src/d/bg/d_bg_w.cpp</text>
</a>
</g>
</g>
<!-- Node24&#45;&gt;Node92 -->
<g id="edge44" class="edge">
<title>Node24&#45;&gt;Node92</title>
<path fill="none" stroke="#63b8ff" d="M2833.68,-155.01C2933.85,-151.04 3128.74,-139.5 3291,-107 3303.8,-104.44 3317.69,-100.29 3329.17,-96.48"/>
<polygon fill="#63b8ff" stroke="#63b8ff" points="2833.6,-151.51 2823.74,-155.39 2833.87,-158.5 2833.6,-151.51"/>
</g>
<!-- Node93 -->
<g id="node41" class="node">
<title>Node93</title>
<g id="a_node41"><a xlink:href="d__cc__s_8cpp.html" target="_top" xlink:title=" ">
<polygon fill="white" stroke="#666666" points="3530,-96 3426,-96 3426,-77 3530,-77 3530,-96"/>
<text text-anchor="middle" x="3478" y="-84" font-family="Helvetica,sans-Serif" font-size="10.00">src/d/cc/d_cc_s.cpp</text>
</a>
</g>
</g>
<!-- Node24&#45;&gt;Node93 -->
<g id="edge45" class="edge">
<title>Node24&#45;&gt;Node93</title>
<path fill="none" stroke="#63b8ff" d="M2833.63,-156.85C2951.95,-155.47 3206.07,-147.55 3416,-107 3428.74,-104.54 3442.55,-100.35 3453.89,-96.49"/>
<polygon fill="#63b8ff" stroke="#63b8ff" points="2833.74,-153.34 2823.78,-156.95 2833.81,-160.34 2833.74,-153.34"/>
</g>
<!-- Node94 -->
<g id="node42" class="node">
<title>Node94</title>
<g id="a_node42"><a xlink:href="d__com__static_8cpp.html" target="_top" xlink:title=" ">
<polygon fill="white" stroke="#666666" points="3688,-96 3548,-96 3548,-77 3688,-77 3688,-96"/>
<text text-anchor="middle" x="3618" y="-84" font-family="Helvetica,sans-Serif" font-size="10.00">src/d/com/d_com_static.cpp</text>
</a>
</g>
</g>
<!-- Node24&#45;&gt;Node94 -->
<g id="edge47" class="edge">
<title>Node24&#45;&gt;Node94</title>
<path fill="none" stroke="#63b8ff" d="M2833.39,-156.65C2967.52,-155.08 3280.09,-147.02 3539,-107 3555.06,-104.52 3572.63,-100.33 3587.11,-96.47"/>
<polygon fill="#63b8ff" stroke="#63b8ff" points="2833.6,-153.15 2823.63,-156.76 2833.67,-160.15 2833.6,-153.15"/>
</g>
<!-- Node95 -->
<g id="node43" class="node">
<title>Node95</title>
<g id="a_node43"><a xlink:href="d__attention_8cpp.html" target="_top" xlink:title=" ">
<polygon fill="white" stroke="#666666" points="3813.5,-96 3706.5,-96 3706.5,-77 3813.5,-77 3813.5,-96"/>
<text text-anchor="middle" x="3760" y="-84" font-family="Helvetica,sans-Serif" font-size="10.00">src/d/d_attention.cpp</text>
</a>
</g>
</g>
<!-- Node24&#45;&gt;Node95 -->
<g id="edge48" class="edge">
<title>Node24&#45;&gt;Node95</title>
<path fill="none" stroke="#63b8ff" d="M2833.64,-155.55C3017.78,-151.2 3530.95,-136.69 3697,-107 3710.19,-104.64 3724.48,-100.37 3736.11,-96.42"/>
<polygon fill="#63b8ff" stroke="#63b8ff" points="2833.68,-152.05 2823.76,-155.78 2833.84,-159.04 2833.68,-152.05"/>
</g>
<!-- Node96 -->
<g id="node44" class="node">
<title>Node96</title>
<g id="a_node44"><a xlink:href="d__cam__param_8cpp.html" target="_top" xlink:title=" ">
<polygon fill="white" stroke="#666666" points="3952.5,-96 3831.5,-96 3831.5,-77 3952.5,-77 3952.5,-96"/>
<text text-anchor="middle" x="3892" y="-84" font-family="Helvetica,sans-Serif" font-size="10.00">src/d/d_cam_param.cpp</text>
</a>
</g>
</g>
<!-- Node24&#45;&gt;Node96 -->
<g id="edge49" class="edge">
<title>Node24&#45;&gt;Node96</title>
<path fill="none" stroke="#63b8ff" d="M2833.45,-155.8C3033.85,-151.87 3630.31,-137.84 3822,-107 3836.57,-104.66 3852.45,-100.38 3865.39,-96.43"/>
<polygon fill="#63b8ff" stroke="#63b8ff" points="2833.67,-152.29 2823.74,-155.99 2833.81,-159.29 2833.67,-152.29"/>
</g>
<!-- Node97 -->
<g id="node45" class="node">
<title>Node97</title>
<g id="a_node45"><a xlink:href="d__camera_8cpp.html" target="_top" xlink:title=" ">
<polygon fill="white" stroke="#666666" points="4073,-96 3971,-96 3971,-77 4073,-77 4073,-96"/>
<text text-anchor="middle" x="4022" y="-84" font-family="Helvetica,sans-Serif" font-size="10.00">src/d/d_camera.cpp</text>
</a>
</g>
</g>
<!-- Node24&#45;&gt;Node97 -->
<g id="edge50" class="edge">
<title>Node24&#45;&gt;Node97</title>
<path fill="none" stroke="#63b8ff" d="M2833.58,-156.55C3051.47,-154.71 3741.87,-145.89 3961,-107 3973.81,-104.73 3987.65,-100.46 3998.91,-96.49"/>
<polygon fill="#63b8ff" stroke="#63b8ff" points="2833.82,-153.05 2823.85,-156.63 2833.88,-160.05 2833.82,-153.05"/>
</g>
<!-- Node98 -->
<g id="node46" class="node">
<title>Node98</title>
<g id="a_node46"><a xlink:href="d__eye__hl_8cpp.html" target="_top" xlink:title=" ">
<polygon fill="white" stroke="#666666" points="4189,-96 4091,-96 4091,-77 4189,-77 4189,-96"/>
<text text-anchor="middle" x="4140" y="-84" font-family="Helvetica,sans-Serif" font-size="10.00">src/d/d_eye_hl.cpp</text>
</a>
</g>
</g>
<!-- Node24&#45;&gt;Node98 -->
<g id="edge52" class="edge">
<title>Node24&#45;&gt;Node98</title>
<path fill="none" stroke="#63b8ff" d="M2833.58,-156.98C3065.76,-156.52 3838.63,-151.58 4082,-107 4094.33,-104.74 4107.62,-100.42 4118.36,-96.42"/>
<polygon fill="#63b8ff" stroke="#63b8ff" points="2833.8,-153.48 2823.81,-157 2833.81,-160.48 2833.8,-153.48"/>
</g>
<!-- Node99 -->
<g id="node47" class="node">
<title>Node99</title>
<g id="a_node47"><a xlink:href="d__kyeff_8cpp.html" target="_top" xlink:title=" ">
<polygon fill="white" stroke="#666666" points="4297,-96 4207,-96 4207,-77 4297,-77 4297,-96"/>
<text text-anchor="middle" x="4252" y="-84" font-family="Helvetica,sans-Serif" font-size="10.00">src/d/d_kyeff.cpp</text>
</a>
</g>
</g>
<!-- Node24&#45;&gt;Node99 -->
<g id="edge53" class="edge">
<title>Node24&#45;&gt;Node99</title>
<path fill="none" stroke="#63b8ff" d="M2833.68,-157.41C3079.09,-158.51 3931.6,-158.44 4198,-107 4209.55,-104.77 4221.92,-100.45 4231.91,-96.45"/>
<polygon fill="#63b8ff" stroke="#63b8ff" points="2833.99,-153.91 2823.97,-157.37 2833.95,-160.91 2833.99,-153.91"/>
</g>
<!-- Node100 -->
<g id="node48" class="node">
<title>Node100</title>
<g id="a_node48"><a xlink:href="d__path_8cpp.html" target="_top" xlink:title=" ">
<polygon fill="white" stroke="#666666" points="4404.5,-96 4315.5,-96 4315.5,-77 4404.5,-77 4404.5,-96"/>
<text text-anchor="middle" x="4360" y="-84" font-family="Helvetica,sans-Serif" font-size="10.00">src/d/d_path.cpp</text>
</a>
</g>
</g>
<!-- Node24&#45;&gt;Node100 -->
<g id="edge54" class="edge">
<title>Node24&#45;&gt;Node100</title>
<path fill="none" stroke="#63b8ff" d="M2833.75,-156.06C3110.54,-152.01 4160.33,-134.94 4306,-107 4317.55,-104.78 4329.93,-100.47 4339.91,-96.46"/>
<polygon fill="#63b8ff" stroke="#63b8ff" points="2833.77,-152.56 2823.82,-156.21 2833.87,-159.56 2833.77,-152.56"/>
</g>
<!-- Node102 -->
<g id="node49" class="node">
<title>Node102</title>
<g id="a_node49"><a xlink:href="d__simple__model_8cpp.html" target="_top" xlink:title=" ">
<polygon fill="white" stroke="#666666" points="4553,-96 4423,-96 4423,-77 4553,-77 4553,-96"/>
<text text-anchor="middle" x="4488" y="-84" font-family="Helvetica,sans-Serif" font-size="10.00">src/d/d_simple_model.cpp</text>
</a>
</g>
</g>
<!-- Node24&#45;&gt;Node102 -->
<g id="edge56" class="edge">
<title>Node24&#45;&gt;Node102</title>
<path fill="none" stroke="#63b8ff" d="M2833.93,-156.96C3102.23,-156.51 4100.51,-151.79 4413,-107 4428.71,-104.75 4445.88,-100.43 4459.81,-96.43"/>
<polygon fill="#63b8ff" stroke="#63b8ff" points="2833.96,-153.46 2823.96,-156.98 2833.97,-160.46 2833.96,-153.46"/>
</g>
<!-- Node36&#45;&gt;Node10 -->
<g id="edge14" class="edge">
<title>Node36&#45;&gt;Node10</title>
<path fill="none" stroke="#63b8ff" d="M4877.28,-74.2C4861.7,-70.92 4844.19,-67.75 4828,-66 4497.51,-30.21 2026.62,-17.98 1625.85,-16.23"/>
<polygon fill="#63b8ff" stroke="#63b8ff" points="4876.24,-77.56 4886.75,-76.27 4877.73,-70.72 4876.24,-77.56"/>
</g>
<!-- Node36&#45;&gt;Node37 -->
<g id="edge15" class="edge">
<title>Node36&#45;&gt;Node37</title>
<path fill="none" stroke="#63b8ff" d="M4922.26,-65.3C4921.1,-51.94 4919.65,-35.09 4918.77,-24.95"/>
<polygon fill="#63b8ff" stroke="#63b8ff" points="4918.76,-65.53 4923.11,-75.19 4925.74,-64.93 4918.76,-65.53"/>
</g>
<!-- Node36&#45;&gt;Node38 -->
<g id="edge16" class="edge">
<title>Node36&#45;&gt;Node38</title>
<path fill="none" stroke="#63b8ff" d="M4950.63,-71.15C4972.72,-59.25 5003.98,-42.41 5026.14,-30.47"/>
<polygon fill="#63b8ff" stroke="#63b8ff" points="4949.08,-68.01 4941.93,-75.84 4952.4,-74.18 4949.08,-68.01"/>
</g>
<!-- Node57&#45;&gt;Node10 -->
<g id="edge24" class="edge">
<title>Node57&#45;&gt;Node10</title>
<path fill="none" stroke="#63b8ff" d="M801.71,-68.17C805.17,-67.35 808.62,-66.62 812,-66 1072.46,-18.4 1390.51,-14.69 1516.17,-15.32"/>
<polygon fill="#63b8ff" stroke="#63b8ff" points="800.97,-64.74 792.16,-70.63 802.72,-71.52 800.97,-64.74"/>
</g>
<!-- Node57&#45;&gt;Node62 -->
<g id="edge25" class="edge">
<title>Node57&#45;&gt;Node62</title>
<path fill="none" stroke="#63b8ff" d="M728.24,-62.62C717.03,-49.63 703.65,-34.13 695.49,-24.68"/>
<polygon fill="#63b8ff" stroke="#63b8ff" points="725.39,-64.67 734.58,-69.95 730.69,-60.1 725.39,-64.67"/>
</g>
<!-- Node83&#45;&gt;Node10 -->
<g id="edge32" class="edge">
<title>Node83&#45;&gt;Node10</title>
<path fill="none" stroke="#63b8ff" d="M2262.09,-68.29C2258.36,-67.43 2254.64,-66.66 2251,-66 2021.21,-24.59 1741.83,-17.31 1625.7,-16.15"/>
<polygon fill="#63b8ff" stroke="#63b8ff" points="2261.24,-71.68 2271.79,-70.71 2262.93,-64.89 2261.24,-71.68"/>
</g>
<!-- Node83&#45;&gt;Node84 -->
<g id="edge33" class="edge">
<title>Node83&#45;&gt;Node84</title>
<path fill="none" stroke="#63b8ff" d="M2373.16,-68.32C2377.14,-67.43 2381.12,-66.64 2385,-66 2601.68,-30.35 3288.13,-19.2 3491.62,-16.64"/>
<polygon fill="#63b8ff" stroke="#63b8ff" points="2372.33,-64.92 2363.45,-70.71 2374,-71.72 2372.33,-64.92"/>
</g>
</g>
</svg>
