<?xml version="1.0" encoding="UTF-8" standalone="no"?>
<!DOCTYPE svg PUBLIC "-//W3C//DTD SVG 1.1//EN"
 "http://www.w3.org/Graphics/SVG/1.1/DTD/svg11.dtd">
<!-- Generated by graphviz version 7.0.4 (20221203.1631)
 -->
<!-- Title: include/JSystem/J3DGraphAnimator/J3DMaterialAnm.h Pages: 1 -->
<!--zoomable 313 -->
<svg id="main" version="1.1" xmlns="http://www.w3.org/2000/svg" xmlns:xlink="http://www.w3.org/1999/xlink" xml:space="preserve" onload="init(evt)">
<style type="text/css"><![CDATA[
.edge:hover path { stroke: red; }
.edge:hover polygon { stroke: red; fill: red; }
]]></style>
<script type="text/javascript"><![CDATA[
var edges = document.getElementsByTagName('g');
if (edges && edges.length) {
  for (var i=0;i<edges.length;i++) {
    if (edges[i].id.substr(0,4)=='edge') {
      edges[i].setAttribute('class','edge');
    }
  }
}
]]></script>
        <defs>
                <circle id="rim" cx="0" cy="0" r="7"/>
                <circle id="rim2" cx="0" cy="0" r="3.5"/>
                <g id="zoomPlus">
                        <use xlink:href="#rim" fill="#404040">
                                <set attributeName="fill" to="#808080" begin="zoomplus.mouseover" end="zoomplus.mouseout"/>
                        </use>
                        <path d="M-4,0h8M0,-4v8" fill="none" stroke="white" stroke-width="1.5" pointer-events="none"/>
                </g>
                <g id="zoomMin">
                        <use xlink:href="#rim" fill="#404040">
                                <set attributeName="fill" to="#808080" begin="zoomminus.mouseover" end="zoomminus.mouseout"/>
                        </use>
                        <path d="M-4,0h8" fill="none" stroke="white" stroke-width="1.5" pointer-events="none"/>
                </g>
                <g id="dirArrow">
                        <path fill="none" stroke="white" stroke-width="1.5" d="M0,-3.0v7 M-2.5,-0.5L0,-3.0L2.5,-0.5"/>
                </g>
               <g id="resetDef">
                       <use xlink:href="#rim2" fill="#404040">
                               <set attributeName="fill" to="#808080" begin="reset.mouseover" end="reset.mouseout"/>
                       </use>
               </g>
        </defs>

<script type="text/javascript">
var viewWidth = 4906;
var viewHeight = 313;
var sectionId = 'dynsection-1';
</script>
<script xlink:href="svgpan.js"/>
<svg id="graph" class="graph">
<g id="viewport">
<title>include/JSystem/J3DGraphAnimator/J3DMaterialAnm.h</title>
<!-- Node1 -->
<g id="node1" class="node">
<title>Node1</title>
<g id="a_node1"><a xlink:title=" ">
<polygon fill="#999999" stroke="#666666" points="4122,-305 3984,-305 3984,-275 4122,-275 4122,-305"/>
<text text-anchor="start" x="3992" y="-293" font-family="Helvetica,sans-Serif" font-size="10.00">include/JSystem/J3DGraph</text>
<text text-anchor="middle" x="4053" y="-282" font-family="Helvetica,sans-Serif" font-size="10.00">Animator/J3DMaterialAnm.h</text>
</a>
</g>
</g>
<!-- Node2 -->
<g id="node2" class="node">
<title>Node2</title>
<g id="a_node2"><a xlink:href="d__a__alink_8h.html" target="_top" xlink:title=" ">
<polygon fill="white" stroke="#666666" points="2600,-233.5 2484,-233.5 2484,-214.5 2600,-214.5 2600,-233.5"/>
<text text-anchor="middle" x="2542" y="-221.5" font-family="Helvetica,sans-Serif" font-size="10.00">include/d/a/d_a_alink.h</text>
</a>
</g>
</g>
<!-- Node1&#45;&gt;Node2 -->
<g id="edge1" class="edge">
<title>Node1&#45;&gt;Node2</title>
<path fill="none" stroke="#63b8ff" d="M3972.39,-285.59C3702.42,-274.15 2833.93,-237.36 2600.32,-227.47"/>
<polygon fill="#63b8ff" stroke="#63b8ff" points="3972,-289.07 3982.14,-286 3972.3,-282.08 3972,-289.07"/>
</g>
<!-- Node84 -->
<g id="node41" class="node">
<title>Node84</title>
<g id="a_node41"><a xlink:href="d__resorce_8cpp.html" target="_top" xlink:title=" ">
<polygon fill="white" stroke="#666666" points="4898,-96 4796,-96 4796,-77 4898,-77 4898,-96"/>
<text text-anchor="middle" x="4847" y="-84" font-family="Helvetica,sans-Serif" font-size="10.00">src/d/d_resorce.cpp</text>
</a>
</g>
</g>
<!-- Node1&#45;&gt;Node84 -->
<g id="edge57" class="edge">
<title>Node1&#45;&gt;Node84</title>
<path fill="none" stroke="#63b8ff" d="M3972.51,-288.71C3875.81,-285.69 3733.13,-271.06 3789,-209 3933.87,-48.08 4544.25,-141.56 4758,-107 4775.33,-104.2 4794.37,-100.16 4810.37,-96.48"/>
<polygon fill="#63b8ff" stroke="#63b8ff" points="3972.16,-292.21 3982.25,-288.98 3972.35,-285.21 3972.16,-292.21"/>
</g>
<!-- Node108 -->
<g id="node46" class="node">
<title>Node108</title>
<g id="a_node46"><a xlink:href="J3DMaterialAnm_8cpp.html" target="_top" xlink:title=" ">
<polygon fill="white" stroke="#666666" points="3956,-239 3798,-239 3798,-209 3956,-209 3956,-239"/>
<text text-anchor="start" x="3806" y="-227" font-family="Helvetica,sans-Serif" font-size="10.00">libs/JSystem/J3DGraphAnimator</text>
<text text-anchor="middle" x="3877" y="-216" font-family="Helvetica,sans-Serif" font-size="10.00">/J3DMaterialAnm.cpp</text>
</a>
</g>
</g>
<!-- Node1&#45;&gt;Node108 -->
<g id="edge53" class="edge">
<title>Node1&#45;&gt;Node108</title>
<path fill="none" stroke="#63b8ff" d="M4002.96,-270.8C3975.61,-260.86 3942.21,-248.71 3916.67,-239.43"/>
<polygon fill="#63b8ff" stroke="#63b8ff" points="4001.49,-273.99 4012.08,-274.12 4003.88,-267.41 4001.49,-273.99"/>
</g>
<!-- Node109 -->
<g id="node47" class="node">
<title>Node109</title>
<g id="a_node47"><a xlink:href="J3DMaterialAttach_8cpp.html" target="_top" xlink:title=" ">
<polygon fill="white" stroke="#666666" points="4132,-239 3974,-239 3974,-209 4132,-209 4132,-239"/>
<text text-anchor="start" x="3982" y="-227" font-family="Helvetica,sans-Serif" font-size="10.00">libs/JSystem/J3DGraphAnimator</text>
<text text-anchor="middle" x="4053" y="-216" font-family="Helvetica,sans-Serif" font-size="10.00">/J3DMaterialAttach.cpp</text>
</a>
</g>
</g>
<!-- Node1&#45;&gt;Node109 -->
<g id="edge54" class="edge">
<title>Node1&#45;&gt;Node109</title>
<path fill="none" stroke="#63b8ff" d="M4053,-263.39C4053,-255.13 4053,-246.28 4053,-239.16"/>
<polygon fill="#63b8ff" stroke="#63b8ff" points="4049.5,-263.28 4053,-273.28 4056.5,-263.28 4049.5,-263.28"/>
</g>
<!-- Node110 -->
<g id="node48" class="node">
<title>Node110</title>
<g id="a_node48"><a xlink:href="J3DModel_8cpp.html" target="_top" xlink:title=" ">
<polygon fill="white" stroke="#666666" points="4308,-239 4150,-239 4150,-209 4308,-209 4308,-239"/>
<text text-anchor="start" x="4158" y="-227" font-family="Helvetica,sans-Serif" font-size="10.00">libs/JSystem/J3DGraphAnimator</text>
<text text-anchor="middle" x="4229" y="-216" font-family="Helvetica,sans-Serif" font-size="10.00">/J3DModel.cpp</text>
</a>
</g>
</g>
<!-- Node1&#45;&gt;Node110 -->
<g id="edge55" class="edge">
<title>Node1&#45;&gt;Node110</title>
<path fill="none" stroke="#63b8ff" d="M4103.04,-270.8C4130.39,-260.86 4163.79,-248.71 4189.33,-239.43"/>
<polygon fill="#63b8ff" stroke="#63b8ff" points="4102.12,-267.41 4093.92,-274.12 4104.51,-273.99 4102.12,-267.41"/>
</g>
<!-- Node111 -->
<g id="node49" class="node">
<title>Node111</title>
<g id="a_node49"><a xlink:href="J3DModelData_8cpp.html" target="_top" xlink:title=" ">
<polygon fill="white" stroke="#666666" points="4484,-239 4326,-239 4326,-209 4484,-209 4484,-239"/>
<text text-anchor="start" x="4334" y="-227" font-family="Helvetica,sans-Serif" font-size="10.00">libs/JSystem/J3DGraphAnimator</text>
<text text-anchor="middle" x="4405" y="-216" font-family="Helvetica,sans-Serif" font-size="10.00">/J3DModelData.cpp</text>
</a>
</g>
</g>
<!-- Node1&#45;&gt;Node111 -->
<g id="edge56" class="edge">
<title>Node1&#45;&gt;Node111</title>
<path fill="none" stroke="#63b8ff" d="M4133.37,-274.39C4190.97,-263.91 4268.2,-249.87 4325.58,-239.44"/>
<polygon fill="#63b8ff" stroke="#63b8ff" points="4132.83,-270.93 4123.61,-276.16 4134.08,-277.82 4132.83,-270.93"/>
</g>
<!-- Node112 -->
<g id="node50" class="node">
<title>Node112</title>
<g id="a_node50"><a xlink:href="m__Do__ext_8cpp.html" target="_top" xlink:title=" ">
<polygon fill="white" stroke="#666666" points="4625.5,-233.5 4502.5,-233.5 4502.5,-214.5 4625.5,-214.5 4625.5,-233.5"/>
<text text-anchor="middle" x="4564" y="-221.5" font-family="Helvetica,sans-Serif" font-size="10.00">src/m_Do/m_Do_ext.cpp</text>
</a>
</g>
</g>
<!-- Node1&#45;&gt;Node112 -->
<g id="edge58" class="edge">
<title>Node1&#45;&gt;Node112</title>
<path fill="none" stroke="#63b8ff" d="M4133.49,-281.84C4221.92,-273.51 4368,-258.39 4493,-239 4502.31,-237.56 4512.26,-235.76 4521.68,-233.93"/>
<polygon fill="#63b8ff" stroke="#63b8ff" points="4133.34,-278.34 4123.71,-282.75 4133.99,-285.31 4133.34,-278.34"/>
</g>
<!-- Node3 -->
<g id="node3" class="node">
<title>Node3</title>
<g id="a_node3"><a xlink:href="d__com__inf__game_8h.html" target="_top" xlink:title=" ">
<polygon fill="#fff0f0" stroke="red" points="2597,-173 2487,-173 2487,-143 2597,-143 2597,-173"/>
<text text-anchor="start" x="2495" y="-161" font-family="Helvetica,sans-Serif" font-size="10.00">include/d/com/d_com</text>
<text text-anchor="middle" x="2542" y="-150" font-family="Helvetica,sans-Serif" font-size="10.00">_inf_game.h</text>
</a>
</g>
</g>
<!-- Node2&#45;&gt;Node3 -->
<g id="edge2" class="edge">
<title>Node2&#45;&gt;Node3</title>
<path fill="none" stroke="#63b8ff" d="M2542,-202.78C2542,-193.17 2542,-181.92 2542,-173.23"/>
<polygon fill="#63b8ff" stroke="#63b8ff" points="2538.5,-202.59 2542,-212.59 2545.5,-202.59 2538.5,-202.59"/>
</g>
<!-- Node13 -->
<g id="node7" class="node">
<title>Node13</title>
<g id="a_node7"><a xlink:href="d__a__alink_8cpp.html" target="_top" xlink:title=" ">
<polygon fill="white" stroke="#666666" points="281.5,-24.5 172.5,-24.5 172.5,-5.5 281.5,-5.5 281.5,-24.5"/>
<text text-anchor="middle" x="227" y="-12.5" font-family="Helvetica,sans-Serif" font-size="10.00">src/d/a/d_a_alink.cpp</text>
</a>
</g>
</g>
<!-- Node2&#45;&gt;Node13 -->
<g id="edge52" class="edge">
<title>Node2&#45;&gt;Node13</title>
<path fill="none" stroke="#63b8ff" d="M2472.1,-222.4C2079.08,-218.71 159.03,-196.12 74,-107 61.42,-93.82 63.3,-80.75 74,-66 96.31,-35.23 138.1,-23.05 172.37,-18.38"/>
<polygon fill="#63b8ff" stroke="#63b8ff" points="2472.01,-225.9 2482.04,-222.49 2472.07,-218.9 2472.01,-225.9"/>
</g>
<!-- Node4 -->
<g id="node4" class="node">
<title>Node4</title>
<g id="a_node4"><a xlink:href="d__a__npc_8h.html" target="_top" xlink:title=" ">
<polygon fill="#fff0f0" stroke="red" points="4412.5,-96 4301.5,-96 4301.5,-77 4412.5,-77 4412.5,-96"/>
<text text-anchor="middle" x="4357" y="-84" font-family="Helvetica,sans-Serif" font-size="10.00">include/d/a/d_a_npc.h</text>
</a>
</g>
</g>
<!-- Node3&#45;&gt;Node4 -->
<g id="edge3" class="edge">
<title>Node3&#45;&gt;Node4</title>
<path fill="none" stroke="#63b8ff" d="M2608.35,-156.14C2907.53,-152.1 4123.78,-134.15 4292,-107 4305.72,-104.78 4320.61,-100.47 4332.66,-96.46"/>
<polygon fill="#63b8ff" stroke="#63b8ff" points="2608.73,-152.63 2598.78,-156.26 2608.83,-159.63 2608.73,-152.63"/>
</g>
<!-- Node10 -->
<g id="node5" class="node">
<title>Node10</title>
<g id="a_node5"><a xlink:href="d__cc__uty_8h.html" target="_top" xlink:title=" ">
<polygon fill="#fff0f0" stroke="red" points="4588.5,-96 4469.5,-96 4469.5,-77 4588.5,-77 4588.5,-96"/>
<text text-anchor="middle" x="4529" y="-84" font-family="Helvetica,sans-Serif" font-size="10.00">include/d/cc/d_cc_uty.h</text>
</a>
</g>
</g>
<!-- Node3&#45;&gt;Node10 -->
<g id="edge4" class="edge">
<title>Node3&#45;&gt;Node10</title>
<path fill="none" stroke="#63b8ff" d="M2608.73,-156.17C2925.46,-152.12 4269.52,-133.5 4455,-107 4470.52,-104.78 4487.45,-100.47 4501.2,-96.46"/>
<polygon fill="#63b8ff" stroke="#63b8ff" points="2608.93,-152.67 2598.97,-156.3 2609.02,-159.67 2608.93,-152.67"/>
</g>
<!-- Node16 -->
<g id="node6" class="node">
<title>Node16</title>
<g id="a_node6"><a xlink:href="d__item_8h.html" target="_top" xlink:title=" ">
<polygon fill="#fff0f0" stroke="red" points="4701.5,-96 4606.5,-96 4606.5,-77 4701.5,-77 4701.5,-96"/>
<text text-anchor="middle" x="4654" y="-84" font-family="Helvetica,sans-Serif" font-size="10.00">include/d/d_item.h</text>
</a>
</g>
</g>
<!-- Node3&#45;&gt;Node16 -->
<g id="edge5" class="edge">
<title>Node3&#45;&gt;Node16</title>
<path fill="none" stroke="#63b8ff" d="M2608.59,-156.61C2939.5,-154.49 4398.86,-143.18 4598,-107 4609.95,-104.83 4622.78,-100.52 4633.14,-96.5"/>
<polygon fill="#63b8ff" stroke="#63b8ff" points="2608.79,-153.11 2598.82,-156.67 2608.84,-160.11 2608.79,-153.11"/>
</g>
<!-- Node3&#45;&gt;Node13 -->
<g id="edge29" class="edge">
<title>Node3&#45;&gt;Node13</title>
<path fill="none" stroke="#63b8ff" d="M2475.32,-156.68C2102.36,-154.76 290.01,-143.57 246,-107 221.42,-86.58 223.5,-43.31 225.7,-24.75"/>
<polygon fill="#63b8ff" stroke="#63b8ff" points="2475.17,-160.18 2485.18,-156.73 2475.2,-153.18 2475.17,-160.18"/>
</g>
<!-- Node17 -->
<g id="node8" class="node">
<title>Node17</title>
<g id="a_node8"><a xlink:href="d__a__obj__item_8cpp.html" target="_top" xlink:title=" ">
<polygon fill="white" stroke="#666666" points="4705.5,-24.5 4580.5,-24.5 4580.5,-5.5 4705.5,-5.5 4705.5,-24.5"/>
<text text-anchor="middle" x="4643" y="-12.5" font-family="Helvetica,sans-Serif" font-size="10.00">src/d/a/d_a_obj_item.cpp</text>
</a>
</g>
</g>
<!-- Node3&#45;&gt;Node17 -->
<g id="edge32" class="edge">
<title>Node3&#45;&gt;Node17</title>
<path fill="none" stroke="#63b8ff" d="M2608.6,-156.09C2971.22,-151.08 4692.16,-126.28 4711,-107 4723.74,-93.97 4719.23,-82.26 4711,-66 4701.21,-46.65 4680.01,-32.96 4663.87,-24.86"/>
<polygon fill="#63b8ff" stroke="#63b8ff" points="2608.74,-152.59 2598.79,-156.23 2608.83,-159.59 2608.74,-152.59"/>
</g>
<!-- Node18 -->
<g id="node9" class="node">
<title>Node18</title>
<g id="a_node9"><a xlink:href="d__com__inf__game_8cpp.html" target="_top" xlink:title=" ">
<polygon fill="white" stroke="#666666" points="4832,-30 4724,-30 4724,0 4832,0 4832,-30"/>
<text text-anchor="start" x="4732" y="-18" font-family="Helvetica,sans-Serif" font-size="10.00">src/d/com/d_com_inf</text>
<text text-anchor="middle" x="4778" y="-7" font-family="Helvetica,sans-Serif" font-size="10.00">_game.cpp</text>
</a>
</g>
</g>
<!-- Node3&#45;&gt;Node18 -->
<g id="edge38" class="edge">
<title>Node3&#45;&gt;Node18</title>
<path fill="none" stroke="#63b8ff" d="M2608.79,-156.38C2970.65,-152.94 4681.58,-135.18 4728,-107 4755.89,-90.07 4769.34,-51.59 4774.82,-30.5"/>
<polygon fill="#63b8ff" stroke="#63b8ff" points="2608.97,-152.88 2599,-156.48 2609.03,-159.88 2608.97,-152.88"/>
</g>
<!-- Node21 -->
<g id="node10" class="node">
<title>Node21</title>
<g id="a_node10"><a xlink:href="d__kantera__icon__meter_8h.html" target="_top" xlink:title=" ">
<polygon fill="#fff0f0" stroke="red" points="484.5,-101.5 383.5,-101.5 383.5,-71.5 484.5,-71.5 484.5,-101.5"/>
<text text-anchor="start" x="391.5" y="-89.5" font-family="Helvetica,sans-Serif" font-size="10.00">include/d/d_kantera</text>
<text text-anchor="middle" x="434" y="-78.5" font-family="Helvetica,sans-Serif" font-size="10.00">_icon_meter.h</text>
</a>
</g>
</g>
<!-- Node3&#45;&gt;Node21 -->
<g id="edge9" class="edge">
<title>Node3&#45;&gt;Node21</title>
<path fill="none" stroke="#63b8ff" d="M2475.37,-156.54C2145.13,-154.1 691.69,-141.47 493,-107 486.2,-105.82 479.11,-104.01 472.3,-101.96"/>
<polygon fill="#63b8ff" stroke="#63b8ff" points="2475.1,-160.04 2485.13,-156.61 2475.16,-153.04 2475.1,-160.04"/>
</g>
<!-- Node24 -->
<g id="node11" class="node">
<title>Node24</title>
<g id="a_node11"><a xlink:href="d__model_8h.html" target="_top" xlink:title=" ">
<polygon fill="#fff0f0" stroke="red" points="605.5,-96 502.5,-96 502.5,-77 605.5,-77 605.5,-96"/>
<text text-anchor="middle" x="554" y="-84" font-family="Helvetica,sans-Serif" font-size="10.00">include/d/d_model.h</text>
</a>
</g>
</g>
<!-- Node3&#45;&gt;Node24 -->
<g id="edge10" class="edge">
<title>Node3&#45;&gt;Node24</title>
<path fill="none" stroke="#63b8ff" d="M2475.24,-156.41C2156.82,-153.44 800.21,-138.98 614,-107 601.26,-104.81 587.52,-100.5 576.4,-96.48"/>
<polygon fill="#63b8ff" stroke="#63b8ff" points="2475.02,-159.91 2485.05,-156.5 2475.08,-152.91 2475.02,-159.91"/>
</g>
<!-- Node26 -->
<g id="node12" class="node">
<title>Node26</title>
<g id="a_node12"><a xlink:href="d__name_8h.html" target="_top" xlink:title=" ">
<polygon fill="#fff0f0" stroke="red" points="724.5,-96 623.5,-96 623.5,-77 724.5,-77 724.5,-96"/>
<text text-anchor="middle" x="674" y="-84" font-family="Helvetica,sans-Serif" font-size="10.00">include/d/d_name.h</text>
</a>
</g>
</g>
<!-- Node3&#45;&gt;Node26 -->
<g id="edge11" class="edge">
<title>Node3&#45;&gt;Node26</title>
<path fill="none" stroke="#63b8ff" d="M2475.47,-156.29C2169.82,-152.86 907.85,-137.01 734,-107 721.26,-104.8 707.52,-100.49 696.41,-96.47"/>
<polygon fill="#63b8ff" stroke="#63b8ff" points="2475.23,-159.79 2485.26,-156.4 2475.3,-152.79 2475.23,-159.79"/>
</g>
<!-- Node28 -->
<g id="node13" class="node">
<title>Node28</title>
<g id="a_node13"><a xlink:href="d__file__sel__info_8h.html" target="_top" xlink:title=" ">
<polygon fill="#fff0f0" stroke="red" points="839,-101.5 743,-101.5 743,-71.5 839,-71.5 839,-101.5"/>
<text text-anchor="start" x="751" y="-89.5" font-family="Helvetica,sans-Serif" font-size="10.00">include/d/file/d_file</text>
<text text-anchor="middle" x="791" y="-78.5" font-family="Helvetica,sans-Serif" font-size="10.00">_sel_info.h</text>
</a>
</g>
</g>
<!-- Node3&#45;&gt;Node28 -->
<g id="edge12" class="edge">
<title>Node3&#45;&gt;Node28</title>
<path fill="none" stroke="#63b8ff" d="M2475.39,-156.21C2181.69,-152.59 1009.85,-136.38 848,-107 841.41,-105.8 834.56,-103.99 827.98,-101.94"/>
<polygon fill="#63b8ff" stroke="#63b8ff" points="2475.13,-159.71 2485.17,-156.33 2475.21,-152.71 2475.13,-159.71"/>
</g>
<!-- Node31 -->
<g id="node14" class="node">
<title>Node31</title>
<g id="a_node14"><a xlink:href="d__file__sel__warning_8h.html" target="_top" xlink:title=" ">
<polygon fill="#fff0f0" stroke="red" points="953,-101.5 857,-101.5 857,-71.5 953,-71.5 953,-101.5"/>
<text text-anchor="start" x="865" y="-89.5" font-family="Helvetica,sans-Serif" font-size="10.00">include/d/file/d_file</text>
<text text-anchor="middle" x="905" y="-78.5" font-family="Helvetica,sans-Serif" font-size="10.00">_sel_warning.h</text>
</a>
</g>
</g>
<!-- Node3&#45;&gt;Node31 -->
<g id="edge13" class="edge">
<title>Node3&#45;&gt;Node31</title>
<path fill="none" stroke="#63b8ff" d="M2475.31,-156.06C2194.04,-151.93 1112.12,-134.41 962,-107 955.42,-105.8 948.56,-103.98 941.98,-101.92"/>
<polygon fill="#63b8ff" stroke="#63b8ff" points="2474.98,-159.56 2485.03,-156.2 2475.08,-152.56 2474.98,-159.56"/>
</g>
<!-- Node33 -->
<g id="node15" class="node">
<title>Node33</title>
<g id="a_node15"><a xlink:href="d__meter2_8h.html" target="_top" xlink:title=" ">
<polygon fill="#fff0f0" stroke="red" points="1105,-96 971,-96 971,-77 1105,-77 1105,-96"/>
<text text-anchor="middle" x="1038" y="-84" font-family="Helvetica,sans-Serif" font-size="10.00">include/d/meter/d_meter2.h</text>
</a>
</g>
</g>
<!-- Node3&#45;&gt;Node33 -->
<g id="edge14" class="edge">
<title>Node3&#45;&gt;Node33</title>
<path fill="none" stroke="#63b8ff" d="M2475.6,-156.58C2231.2,-154.73 1381.98,-145.61 1114,-107 1098.23,-104.73 1080.99,-100.46 1066.93,-96.49"/>
<polygon fill="#63b8ff" stroke="#63b8ff" points="2475.24,-160.08 2485.26,-156.65 2475.29,-153.08 2475.24,-160.08"/>
</g>
<!-- Node40 -->
<g id="node16" class="node">
<title>Node40</title>
<g id="a_node16"><a xlink:href="d__msg__object_8h.html" target="_top" xlink:title=" ">
<polygon fill="#fff0f0" stroke="red" points="365,-101.5 255,-101.5 255,-71.5 365,-71.5 365,-101.5"/>
<text text-anchor="start" x="263" y="-89.5" font-family="Helvetica,sans-Serif" font-size="10.00">include/d/msg/d_msg</text>
<text text-anchor="middle" x="310" y="-78.5" font-family="Helvetica,sans-Serif" font-size="10.00">_object.h</text>
</a>
</g>
</g>
<!-- Node3&#45;&gt;Node40 -->
<g id="edge15" class="edge">
<title>Node3&#45;&gt;Node40</title>
<path fill="none" stroke="#63b8ff" d="M2475.16,-156.54C2133.01,-154.05 585.4,-140.99 374,-107 366.66,-105.82 358.99,-104.01 351.61,-101.96"/>
<polygon fill="#63b8ff" stroke="#63b8ff" points="2475.05,-160.04 2485.07,-156.61 2475.1,-153.04 2475.05,-160.04"/>
</g>
<!-- Node45 -->
<g id="node17" class="node">
<title>Node45</title>
<g id="a_node17"><a xlink:href="d__demo_8cpp.html" target="_top" xlink:title=" ">
<polygon fill="white" stroke="#666666" points="2441,-24.5 2347,-24.5 2347,-5.5 2441,-5.5 2441,-24.5"/>
<text text-anchor="middle" x="2394" y="-12.5" font-family="Helvetica,sans-Serif" font-size="10.00">src/d/d_demo.cpp</text>
</a>
</g>
</g>
<!-- Node3&#45;&gt;Node45 -->
<g id="edge43" class="edge">
<title>Node3&#45;&gt;Node45</title>
<path fill="none" stroke="#63b8ff" d="M2608.76,-156.49C2939.71,-153.8 4389.72,-140.15 4422,-107 4434.71,-93.94 4434.73,-79.04 4422,-66 4386.26,-29.37 2742.68,-18.03 2441.23,-16.26"/>
<polygon fill="#63b8ff" stroke="#63b8ff" points="2608.95,-152.99 2598.98,-156.57 2609.01,-159.99 2608.95,-152.99"/>
</g>
<!-- Node54 -->
<g id="node18" class="node">
<title>Node54</title>
<g id="a_node18"><a xlink:href="d__s__logo_8h.html" target="_top" xlink:title=" ">
<polygon fill="#fff0f0" stroke="red" points="1236.5,-96 1123.5,-96 1123.5,-77 1236.5,-77 1236.5,-96"/>
<text text-anchor="middle" x="1180" y="-84" font-family="Helvetica,sans-Serif" font-size="10.00">include/d/s/d_s_logo.h</text>
</a>
</g>
</g>
<!-- Node3&#45;&gt;Node54 -->
<g id="edge18" class="edge">
<title>Node3&#45;&gt;Node54</title>
<path fill="none" stroke="#63b8ff" d="M2475.59,-156.65C2245.81,-155.11 1485.45,-147.04 1245,-107 1231.29,-104.72 1216.41,-100.4 1204.35,-96.4"/>
<polygon fill="#63b8ff" stroke="#63b8ff" points="2475.24,-160.15 2485.26,-156.72 2475.28,-153.15 2475.24,-160.15"/>
</g>
<!-- Node56 -->
<g id="node19" class="node">
<title>Node56</title>
<g id="a_node19"><a xlink:href="d__s__play_8h.html" target="_top" xlink:title=" ">
<polygon fill="#fff0f0" stroke="red" points="1367.5,-96 1254.5,-96 1254.5,-77 1367.5,-77 1367.5,-96"/>
<text text-anchor="middle" x="1311" y="-84" font-family="Helvetica,sans-Serif" font-size="10.00">include/d/s/d_s_play.h</text>
</a>
</g>
</g>
<!-- Node3&#45;&gt;Node56 -->
<g id="edge19" class="edge">
<title>Node3&#45;&gt;Node56</title>
<path fill="none" stroke="#63b8ff" d="M2475.22,-156.31C2260.55,-153.77 1589.72,-143.06 1376,-107 1362.41,-104.71 1347.66,-100.44 1335.66,-96.48"/>
<polygon fill="#63b8ff" stroke="#63b8ff" points="2475.05,-159.81 2485.09,-156.43 2475.13,-152.81 2475.05,-159.81"/>
</g>
<!-- Node60 -->
<g id="node20" class="node">
<title>Node60</title>
<g id="a_node20"><a xlink:href="d__msg__scrn__base_8h.html" target="_top" xlink:title=" ">
<polygon fill="#fff0f0" stroke="red" points="1484.5,-101.5 1385.5,-101.5 1385.5,-71.5 1484.5,-71.5 1484.5,-101.5"/>
<text text-anchor="start" x="1393.5" y="-89.5" font-family="Helvetica,sans-Serif" font-size="10.00">include/msg/scrn/d</text>
<text text-anchor="middle" x="1435" y="-78.5" font-family="Helvetica,sans-Serif" font-size="10.00">_msg_scrn_base.h</text>
</a>
</g>
</g>
<!-- Node3&#45;&gt;Node60 -->
<g id="edge20" class="edge">
<title>Node3&#45;&gt;Node60</title>
<path fill="none" stroke="#63b8ff" d="M2475.21,-156.23C2275.08,-153.53 1682.52,-142.66 1493,-107 1486.42,-105.76 1479.57,-103.95 1472.98,-101.93"/>
<polygon fill="#63b8ff" stroke="#63b8ff" points="2475.14,-159.73 2485.18,-156.36 2475.23,-152.73 2475.14,-159.73"/>
</g>
<!-- Node64 -->
<g id="node21" class="node">
<title>Node64</title>
<g id="a_node21"><a xlink:href="d__a__b__zant_8h.html" target="_top" xlink:title=" ">
<polygon fill="white" stroke="#666666" points="1623.5,-101.5 1502.5,-101.5 1502.5,-71.5 1623.5,-71.5 1623.5,-101.5"/>
<text text-anchor="start" x="1510.5" y="-89.5" font-family="Helvetica,sans-Serif" font-size="10.00">include/rel/d/a/b/d</text>
<text text-anchor="middle" x="1563" y="-78.5" font-family="Helvetica,sans-Serif" font-size="10.00">_a_b_zant/d_a_b_zant.h</text>
</a>
</g>
</g>
<!-- Node3&#45;&gt;Node64 -->
<g id="edge21" class="edge">
<title>Node3&#45;&gt;Node64</title>
<path fill="none" stroke="#63b8ff" d="M2475.05,-155.2C2293.59,-150.02 1795.13,-133.72 1633,-107 1625.28,-105.73 1617.2,-103.93 1609.38,-101.93"/>
<polygon fill="#63b8ff" stroke="#63b8ff" points="2474.93,-158.7 2485.02,-155.48 2475.12,-151.7 2474.93,-158.7"/>
</g>
<!-- Node65 -->
<g id="node22" class="node">
<title>Node65</title>
<g id="a_node22"><a xlink:href="d__a__skip__2D_8h.html" target="_top" xlink:title=" ">
<polygon fill="white" stroke="#666666" points="1766,-101.5 1642,-101.5 1642,-71.5 1766,-71.5 1766,-101.5"/>
<text text-anchor="start" x="1650" y="-89.5" font-family="Helvetica,sans-Serif" font-size="10.00">include/rel/d/a/d_a</text>
<text text-anchor="middle" x="1704" y="-78.5" font-family="Helvetica,sans-Serif" font-size="10.00">_skip_2D/d_a_skip_2D.h</text>
</a>
</g>
</g>
<!-- Node3&#45;&gt;Node65 -->
<g id="edge22" class="edge">
<title>Node3&#45;&gt;Node65</title>
<path fill="none" stroke="#63b8ff" d="M2475.45,-157.18C2341.75,-156.56 2031.38,-150.1 1775,-107 1767.31,-105.71 1759.25,-103.92 1751.44,-101.96"/>
<polygon fill="#63b8ff" stroke="#63b8ff" points="2475.16,-160.68 2485.17,-157.22 2475.18,-153.68 2475.16,-160.68"/>
</g>
<!-- Node66 -->
<g id="node23" class="node">
<title>Node66</title>
<g id="a_node23"><a xlink:href="d__a__spinner_8h.html" target="_top" xlink:title=" ">
<polygon fill="white" stroke="#666666" points="199,-101.5 83,-101.5 83,-71.5 199,-71.5 199,-101.5"/>
<text text-anchor="start" x="91" y="-89.5" font-family="Helvetica,sans-Serif" font-size="10.00">include/rel/d/a/d_a</text>
<text text-anchor="middle" x="141" y="-78.5" font-family="Helvetica,sans-Serif" font-size="10.00">_spinner/d_a_spinner.h</text>
</a>
</g>
</g>
<!-- Node3&#45;&gt;Node66 -->
<g id="edge23" class="edge">
<title>Node3&#45;&gt;Node66</title>
<path fill="none" stroke="#63b8ff" d="M2475.18,-156.53C2117.99,-153.91 441.7,-139.92 213,-107 204.8,-105.82 196.19,-104.01 187.91,-101.96"/>
<polygon fill="#63b8ff" stroke="#63b8ff" points="2475.05,-160.03 2485.07,-156.61 2475.1,-153.03 2475.05,-160.03"/>
</g>
<!-- Node67 -->
<g id="node24" class="node">
<title>Node67</title>
<g id="a_node24"><a xlink:href="d__a__player_8cpp.html" target="_top" xlink:title=" ">
<polygon fill="white" stroke="#666666" points="114,-24.5 0,-24.5 0,-5.5 114,-5.5 114,-24.5"/>
<text text-anchor="middle" x="57" y="-12.5" font-family="Helvetica,sans-Serif" font-size="10.00">src/d/a/d_a_player.cpp</text>
</a>
</g>
</g>
<!-- Node3&#45;&gt;Node67 -->
<g id="edge33" class="edge">
<title>Node3&#45;&gt;Node67</title>
<path fill="none" stroke="#63b8ff" d="M2475.35,-156.8C2086,-155.5 121.12,-146.94 74,-107 49.73,-86.42 52.83,-43.24 55.48,-24.73"/>
<polygon fill="#63b8ff" stroke="#63b8ff" points="2475.15,-160.3 2485.16,-156.83 2475.18,-153.3 2475.15,-160.3"/>
</g>
<!-- Node68 -->
<g id="node25" class="node">
<title>Node68</title>
<g id="a_node25"><a xlink:href="d__a__obj__yobikusa_8h.html" target="_top" xlink:title=" ">
<polygon fill="white" stroke="#666666" points="1889.5,-107 1784.5,-107 1784.5,-66 1889.5,-66 1889.5,-107"/>
<text text-anchor="start" x="1792.5" y="-95" font-family="Helvetica,sans-Serif" font-size="10.00">include/rel/d/a/obj</text>
<text text-anchor="start" x="1792.5" y="-84" font-family="Helvetica,sans-Serif" font-size="10.00">/d_a_obj_yobikusa/d</text>
<text text-anchor="middle" x="1837" y="-73" font-family="Helvetica,sans-Serif" font-size="10.00">_a_obj_yobikusa.h</text>
</a>
</g>
</g>
<!-- Node3&#45;&gt;Node68 -->
<g id="edge26" class="edge">
<title>Node3&#45;&gt;Node68</title>
<path fill="none" stroke="#63b8ff" d="M2475.54,-156.78C2358.11,-155.3 2106.72,-147.2 1899,-107 1896.01,-106.42 1892.96,-105.75 1889.9,-105.01"/>
<polygon fill="#63b8ff" stroke="#63b8ff" points="2475.27,-160.28 2485.3,-156.89 2475.34,-153.28 2475.27,-160.28"/>
</g>
<!-- Node69 -->
<g id="node26" class="node">
<title>Node69</title>
<g id="a_node26"><a xlink:href="d__a__tag__telop_8h.html" target="_top" xlink:title=" ">
<polygon fill="white" stroke="#666666" points="2026,-107 1908,-107 1908,-66 2026,-66 2026,-107"/>
<text text-anchor="start" x="1916" y="-95" font-family="Helvetica,sans-Serif" font-size="10.00">include/rel/d/a/tag</text>
<text text-anchor="start" x="1916" y="-84" font-family="Helvetica,sans-Serif" font-size="10.00">/d_a_tag_telop/d_a_tag</text>
<text text-anchor="middle" x="1967" y="-73" font-family="Helvetica,sans-Serif" font-size="10.00">_telop.h</text>
</a>
</g>
</g>
<!-- Node3&#45;&gt;Node69 -->
<g id="edge27" class="edge">
<title>Node3&#45;&gt;Node69</title>
<path fill="none" stroke="#63b8ff" d="M2475.33,-154.27C2377.87,-149.42 2191.11,-136.83 2035,-107 2032.1,-106.45 2029.15,-105.83 2026.19,-105.16"/>
<polygon fill="#63b8ff" stroke="#63b8ff" points="2475.1,-157.76 2485.25,-154.75 2475.43,-150.77 2475.1,-157.76"/>
</g>
<!-- Node70 -->
<g id="node27" class="node">
<title>Node70</title>
<g id="a_node27"><a xlink:href="c__dylink_8cpp.html" target="_top" xlink:title=" ">
<polygon fill="white" stroke="#666666" points="2139.5,-96 2044.5,-96 2044.5,-77 2139.5,-77 2139.5,-96"/>
<text text-anchor="middle" x="2092" y="-84" font-family="Helvetica,sans-Serif" font-size="10.00">src/c/c_dylink.cpp</text>
</a>
</g>
</g>
<!-- Node3&#45;&gt;Node70 -->
<g id="edge28" class="edge">
<title>Node3&#45;&gt;Node70</title>
<path fill="none" stroke="#63b8ff" d="M2475.5,-152.68C2396.76,-146.61 2262.03,-133.24 2149,-107 2137.49,-104.33 2125.03,-100.22 2114.71,-96.45"/>
<polygon fill="#63b8ff" stroke="#63b8ff" points="2474.96,-156.14 2485.19,-153.4 2475.48,-149.16 2474.96,-156.14"/>
</g>
<!-- Node71 -->
<g id="node28" class="node">
<title>Node71</title>
<g id="a_node28"><a xlink:href="d__a__itembase_8cpp.html" target="_top" xlink:title=" ">
<polygon fill="white" stroke="#666666" points="2286,-96 2158,-96 2158,-77 2286,-77 2286,-96"/>
<text text-anchor="middle" x="2222" y="-84" font-family="Helvetica,sans-Serif" font-size="10.00">src/d/a/d_a_itembase.cpp</text>
</a>
</g>
</g>
<!-- Node3&#45;&gt;Node71 -->
<g id="edge30" class="edge">
<title>Node3&#45;&gt;Node71</title>
<path fill="none" stroke="#63b8ff" d="M2475.58,-144.7C2425.72,-135.19 2355.86,-121.27 2295,-107 2281.46,-103.82 2266.62,-99.94 2253.87,-96.47"/>
<polygon fill="#63b8ff" stroke="#63b8ff" points="2474.89,-148.13 2485.37,-146.56 2476.19,-141.25 2474.89,-148.13"/>
</g>
<!-- Node72 -->
<g id="node29" class="node">
<title>Node72</title>
<g id="a_node29"><a xlink:href="d__a__obj_8cpp.html" target="_top" xlink:title=" ">
<polygon fill="white" stroke="#666666" points="2405.5,-96 2304.5,-96 2304.5,-77 2405.5,-77 2405.5,-96"/>
<text text-anchor="middle" x="2355" y="-84" font-family="Helvetica,sans-Serif" font-size="10.00">src/d/a/d_a_obj.cpp</text>
</a>
</g>
</g>
<!-- Node3&#45;&gt;Node72 -->
<g id="edge31" class="edge">
<title>Node3&#45;&gt;Node72</title>
<path fill="none" stroke="#63b8ff" d="M2492.79,-138.71C2456.17,-125.1 2407.77,-107.11 2379.16,-96.48"/>
<polygon fill="#63b8ff" stroke="#63b8ff" points="2491.24,-141.87 2501.83,-142.07 2493.68,-135.31 2491.24,-141.87"/>
</g>
<!-- Node73 -->
<g id="node30" class="node">
<title>Node73</title>
<g id="a_node30"><a xlink:href="d__bg__s_8cpp.html" target="_top" xlink:title=" ">
<polygon fill="white" stroke="#666666" points="2528,-96 2424,-96 2424,-77 2528,-77 2528,-96"/>
<text text-anchor="middle" x="2476" y="-84" font-family="Helvetica,sans-Serif" font-size="10.00">src/d/bg/d_bg_s.cpp</text>
</a>
</g>
</g>
<!-- Node3&#45;&gt;Node73 -->
<g id="edge34" class="edge">
<title>Node3&#45;&gt;Node73</title>
<path fill="none" stroke="#63b8ff" d="M2520.62,-134.49C2508.22,-121.43 2493.3,-105.72 2484.24,-96.18"/>
<polygon fill="#63b8ff" stroke="#63b8ff" points="2517.86,-136.66 2527.28,-141.5 2522.93,-131.84 2517.86,-136.66"/>
</g>
<!-- Node74 -->
<g id="node31" class="node">
<title>Node74</title>
<g id="a_node31"><a xlink:href="d__bg__s__movebg__actor_8cpp.html" target="_top" xlink:title=" ">
<polygon fill="white" stroke="#666666" points="2672,-101.5 2546,-101.5 2546,-71.5 2672,-71.5 2672,-101.5"/>
<text text-anchor="start" x="2554" y="-89.5" font-family="Helvetica,sans-Serif" font-size="10.00">src/d/bg/d_bg_s_movebg</text>
<text text-anchor="middle" x="2609" y="-78.5" font-family="Helvetica,sans-Serif" font-size="10.00">_actor.cpp</text>
</a>
</g>
</g>
<!-- Node3&#45;&gt;Node74 -->
<g id="edge35" class="edge">
<title>Node3&#45;&gt;Node74</title>
<path fill="none" stroke="#63b8ff" d="M2563.71,-134.48C2574.03,-123.78 2586.07,-111.29 2595.14,-101.88"/>
<polygon fill="#63b8ff" stroke="#63b8ff" points="2561.35,-131.88 2556.93,-141.51 2566.39,-136.74 2561.35,-131.88"/>
</g>
<!-- Node75 -->
<g id="node32" class="node">
<title>Node75</title>
<g id="a_node32"><a xlink:href="d__bg__w_8cpp.html" target="_top" xlink:title=" ">
<polygon fill="white" stroke="#666666" points="2797.5,-96 2690.5,-96 2690.5,-77 2797.5,-77 2797.5,-96"/>
<text text-anchor="middle" x="2744" y="-84" font-family="Helvetica,sans-Serif" font-size="10.00">src/d/bg/d_bg_w.cpp</text>
</a>
</g>
</g>
<!-- Node3&#45;&gt;Node75 -->
<g id="edge36" class="edge">
<title>Node3&#45;&gt;Node75</title>
<path fill="none" stroke="#63b8ff" d="M2594.65,-138.88C2634.27,-125.26 2686.86,-107.16 2717.9,-96.48"/>
<polygon fill="#63b8ff" stroke="#63b8ff" points="2593.6,-135.54 2585.29,-142.11 2595.88,-142.16 2593.6,-135.54"/>
</g>
<!-- Node76 -->
<g id="node33" class="node">
<title>Node76</title>
<g id="a_node33"><a xlink:href="d__cc__s_8cpp.html" target="_top" xlink:title=" ">
<polygon fill="white" stroke="#666666" points="2920,-96 2816,-96 2816,-77 2920,-77 2920,-96"/>
<text text-anchor="middle" x="2868" y="-84" font-family="Helvetica,sans-Serif" font-size="10.00">src/d/cc/d_cc_s.cpp</text>
</a>
</g>
</g>
<!-- Node3&#45;&gt;Node76 -->
<g id="edge37" class="edge">
<title>Node3&#45;&gt;Node76</title>
<path fill="none" stroke="#63b8ff" d="M2608.35,-146.66C2662.03,-137.76 2739.37,-123.73 2806,-107 2817.93,-104.01 2830.94,-100.03 2841.95,-96.44"/>
<polygon fill="#63b8ff" stroke="#63b8ff" points="2608.06,-143.16 2598.76,-148.23 2609.2,-150.06 2608.06,-143.16"/>
</g>
<!-- Node77 -->
<g id="node34" class="node">
<title>Node77</title>
<g id="a_node34"><a xlink:href="d__com__static_8cpp.html" target="_top" xlink:title=" ">
<polygon fill="white" stroke="#666666" points="3078,-96 2938,-96 2938,-77 3078,-77 3078,-96"/>
<text text-anchor="middle" x="3008" y="-84" font-family="Helvetica,sans-Serif" font-size="10.00">src/d/com/d_com_static.cpp</text>
</a>
</g>
</g>
<!-- Node3&#45;&gt;Node77 -->
<g id="edge39" class="edge">
<title>Node3&#45;&gt;Node77</title>
<path fill="none" stroke="#63b8ff" d="M2608.44,-150.73C2685.82,-142.9 2817.3,-127.93 2929,-107 2944.41,-104.11 2961.31,-100.06 2975.51,-96.4"/>
<polygon fill="#63b8ff" stroke="#63b8ff" points="2608.53,-147.21 2598.93,-151.69 2609.23,-154.17 2608.53,-147.21"/>
</g>
<!-- Node78 -->
<g id="node35" class="node">
<title>Node78</title>
<g id="a_node35"><a xlink:href="d__attention_8cpp.html" target="_top" xlink:title=" ">
<polygon fill="white" stroke="#666666" points="3203.5,-96 3096.5,-96 3096.5,-77 3203.5,-77 3203.5,-96"/>
<text text-anchor="middle" x="3150" y="-84" font-family="Helvetica,sans-Serif" font-size="10.00">src/d/d_attention.cpp</text>
</a>
</g>
</g>
<!-- Node3&#45;&gt;Node78 -->
<g id="edge40" class="edge">
<title>Node3&#45;&gt;Node78</title>
<path fill="none" stroke="#63b8ff" d="M2608.97,-155.34C2712.43,-151.78 2916.94,-140.73 3087,-107 3099.8,-104.46 3113.7,-100.32 3125.17,-96.5"/>
<polygon fill="#63b8ff" stroke="#63b8ff" points="2608.86,-151.85 2598.98,-155.67 2609.09,-158.84 2608.86,-151.85"/>
</g>
<!-- Node79 -->
<g id="node36" class="node">
<title>Node79</title>
<g id="a_node36"><a xlink:href="d__cam__param_8cpp.html" target="_top" xlink:title=" ">
<polygon fill="white" stroke="#666666" points="3342.5,-96 3221.5,-96 3221.5,-77 3342.5,-77 3342.5,-96"/>
<text text-anchor="middle" x="3282" y="-84" font-family="Helvetica,sans-Serif" font-size="10.00">src/d/d_cam_param.cpp</text>
</a>
</g>
</g>
<!-- Node3&#45;&gt;Node79 -->
<g id="edge41" class="edge">
<title>Node3&#45;&gt;Node79</title>
<path fill="none" stroke="#63b8ff" d="M2608.42,-156.37C2729.37,-154.26 2993.28,-145.24 3212,-107 3226.29,-104.5 3241.87,-100.31 3254.69,-96.46"/>
<polygon fill="#63b8ff" stroke="#63b8ff" points="2608.62,-152.86 2598.68,-156.53 2608.74,-159.86 2608.62,-152.86"/>
</g>
<!-- Node80 -->
<g id="node37" class="node">
<title>Node80</title>
<g id="a_node37"><a xlink:href="d__camera_8cpp.html" target="_top" xlink:title=" ">
<polygon fill="white" stroke="#666666" points="3463,-96 3361,-96 3361,-77 3463,-77 3463,-96"/>
<text text-anchor="middle" x="3412" y="-84" font-family="Helvetica,sans-Serif" font-size="10.00">src/d/d_camera.cpp</text>
</a>
</g>
</g>
<!-- Node3&#45;&gt;Node80 -->
<g id="edge42" class="edge">
<title>Node3&#45;&gt;Node80</title>
<path fill="none" stroke="#63b8ff" d="M2608.56,-155.01C2775.58,-149.67 3209.21,-133.62 3351,-107 3363.68,-104.62 3377.39,-100.39 3388.6,-96.48"/>
<polygon fill="#63b8ff" stroke="#63b8ff" points="2608.87,-151.5 2598.99,-155.31 2609.09,-158.49 2608.87,-151.5"/>
</g>
<!-- Node81 -->
<g id="node38" class="node">
<title>Node81</title>
<g id="a_node38"><a xlink:href="d__eye__hl_8cpp.html" target="_top" xlink:title=" ">
<polygon fill="white" stroke="#666666" points="3579,-96 3481,-96 3481,-77 3579,-77 3579,-96"/>
<text text-anchor="middle" x="3530" y="-84" font-family="Helvetica,sans-Serif" font-size="10.00">src/d/d_eye_hl.cpp</text>
</a>
</g>
</g>
<!-- Node3&#45;&gt;Node81 -->
<g id="edge44" class="edge">
<title>Node3&#45;&gt;Node81</title>
<path fill="none" stroke="#63b8ff" d="M2608.67,-155.75C2792.92,-151.94 3306.32,-138.7 3472,-107 3484.21,-104.66 3497.37,-100.39 3508.07,-96.44"/>
<polygon fill="#63b8ff" stroke="#63b8ff" points="2608.72,-152.25 2598.79,-155.96 2608.86,-159.25 2608.72,-152.25"/>
</g>
<!-- Node82 -->
<g id="node39" class="node">
<title>Node82</title>
<g id="a_node39"><a xlink:href="d__kyeff_8cpp.html" target="_top" xlink:title=" ">
<polygon fill="white" stroke="#666666" points="3687,-96 3597,-96 3597,-77 3687,-77 3687,-96"/>
<text text-anchor="middle" x="3642" y="-84" font-family="Helvetica,sans-Serif" font-size="10.00">src/d/d_kyeff.cpp</text>
</a>
</g>
</g>
<!-- Node3&#45;&gt;Node82 -->
<g id="edge45" class="edge">
<title>Node3&#45;&gt;Node82</title>
<path fill="none" stroke="#63b8ff" d="M2608.64,-156.41C2808.3,-154.22 3399.43,-144.67 3588,-107 3599.44,-104.72 3611.7,-100.45 3621.64,-96.48"/>
<polygon fill="#63b8ff" stroke="#63b8ff" points="2608.65,-152.91 2598.69,-156.51 2608.73,-159.91 2608.65,-152.91"/>
</g>
<!-- Node83 -->
<g id="node40" class="node">
<title>Node83</title>
<g id="a_node40"><a xlink:href="d__path_8cpp.html" target="_top" xlink:title=" ">
<polygon fill="white" stroke="#666666" points="3794.5,-96 3705.5,-96 3705.5,-77 3794.5,-77 3794.5,-96"/>
<text text-anchor="middle" x="3750" y="-84" font-family="Helvetica,sans-Serif" font-size="10.00">src/d/d_path.cpp</text>
</a>
</g>
</g>
<!-- Node3&#45;&gt;Node83 -->
<g id="edge46" class="edge">
<title>Node3&#45;&gt;Node83</title>
<path fill="none" stroke="#63b8ff" d="M2608.54,-156.76C2821.66,-155.56 3485.67,-148.52 3696,-107 3707.54,-104.72 3719.91,-100.4 3729.9,-96.4"/>
<polygon fill="#63b8ff" stroke="#63b8ff" points="2608.74,-153.26 2598.76,-156.81 2608.78,-160.26 2608.74,-153.26"/>
</g>
<!-- Node3&#45;&gt;Node84 -->
<g id="edge47" class="edge">
<title>Node3&#45;&gt;Node84</title>
<path fill="none" stroke="#63b8ff" d="M2608.64,-156.02C2968.95,-150.64 4672.1,-124.38 4782,-107 4795.73,-104.83 4810.61,-100.52 4822.67,-96.5"/>
<polygon fill="#63b8ff" stroke="#63b8ff" points="2608.84,-152.51 2598.89,-156.16 2608.94,-159.51 2608.84,-152.51"/>
</g>
<!-- Node85 -->
<g id="node42" class="node">
<title>Node85</title>
<g id="a_node42"><a xlink:href="d__simple__model_8cpp.html" target="_top" xlink:title=" ">
<polygon fill="white" stroke="#666666" points="3943,-96 3813,-96 3813,-77 3943,-77 3943,-96"/>
<text text-anchor="middle" x="3878" y="-84" font-family="Helvetica,sans-Serif" font-size="10.00">src/d/d_simple_model.cpp</text>
</a>
</g>
</g>
<!-- Node3&#45;&gt;Node85 -->
<g id="edge48" class="edge">
<title>Node3&#45;&gt;Node85</title>
<path fill="none" stroke="#63b8ff" d="M2608.77,-156.24C2834.68,-153.39 3569.33,-141.6 3803,-107 3818.57,-104.69 3835.58,-100.42 3849.45,-96.46"/>
<polygon fill="#63b8ff" stroke="#63b8ff" points="2608.92,-152.74 2598.96,-156.37 2609,-159.74 2608.92,-152.74"/>
</g>
<!-- Node86 -->
<g id="node43" class="node">
<title>Node86</title>
<g id="a_node43"><a xlink:href="d__stage_8cpp.html" target="_top" xlink:title=" ">
<polygon fill="white" stroke="#666666" points="4055,-96 3961,-96 3961,-77 4055,-77 4055,-96"/>
<text text-anchor="middle" x="4008" y="-84" font-family="Helvetica,sans-Serif" font-size="10.00">src/d/d_stage.cpp</text>
</a>
</g>
</g>
<!-- Node3&#45;&gt;Node86 -->
<g id="edge49" class="edge">
<title>Node3&#45;&gt;Node86</title>
<path fill="none" stroke="#63b8ff" d="M2608.86,-157.27C2852.15,-157.86 3689.66,-156.17 3952,-107 3963.94,-104.76 3976.77,-100.44 3987.13,-96.44"/>
<polygon fill="#63b8ff" stroke="#63b8ff" points="2608.92,-153.77 2598.91,-157.25 2608.9,-160.77 2608.92,-153.77"/>
</g>
<!-- Node87 -->
<g id="node44" class="node">
<title>Node87</title>
<g id="a_node44"><a xlink:href="d__timer_8cpp.html" target="_top" xlink:title=" ">
<polygon fill="white" stroke="#666666" points="4165,-96 4073,-96 4073,-77 4165,-77 4165,-96"/>
<text text-anchor="middle" x="4119" y="-84" font-family="Helvetica,sans-Serif" font-size="10.00">src/d/d_timer.cpp</text>
</a>
</g>
</g>
<!-- Node3&#45;&gt;Node87 -->
<g id="edge50" class="edge">
<title>Node3&#45;&gt;Node87</title>
<path fill="none" stroke="#63b8ff" d="M2608.47,-156.02C2882.88,-151.81 3919.94,-134.22 4064,-107 4075.75,-104.78 4088.35,-100.46 4098.52,-96.46"/>
<polygon fill="#63b8ff" stroke="#63b8ff" points="2608.58,-152.52 2598.63,-156.17 2608.69,-159.52 2608.58,-152.52"/>
</g>
<!-- Node88 -->
<g id="node45" class="node">
<title>Node88</title>
<g id="a_node45"><a xlink:href="d__tresure_8cpp.html" target="_top" xlink:title=" ">
<polygon fill="white" stroke="#666666" points="4283,-96 4183,-96 4183,-77 4283,-77 4283,-96"/>
<text text-anchor="middle" x="4233" y="-84" font-family="Helvetica,sans-Serif" font-size="10.00">src/d/d_tresure.cpp</text>
</a>
</g>
</g>
<!-- Node3&#45;&gt;Node88 -->
<g id="edge51" class="edge">
<title>Node3&#45;&gt;Node88</title>
<path fill="none" stroke="#63b8ff" d="M2608.95,-156.09C2896.41,-152.02 4018.44,-134.49 4174,-107 4186.54,-104.78 4200.05,-100.47 4210.98,-96.46"/>
<polygon fill="#63b8ff" stroke="#63b8ff" points="2608.95,-152.59 2599,-156.23 2609.05,-159.59 2608.95,-152.59"/>
</g>
<!-- Node16&#45;&gt;Node13 -->
<g id="edge6" class="edge">
<title>Node16&#45;&gt;Node13</title>
<path fill="none" stroke="#63b8ff" d="M4622.75,-72.62C4614.81,-69.91 4606.2,-67.44 4598,-66 4486.42,-46.47 779.24,-19.87 281.95,-16.38"/>
<polygon fill="#63b8ff" stroke="#63b8ff" points="4621.41,-75.86 4632,-76.02 4623.82,-69.29 4621.41,-75.86"/>
</g>
<!-- Node16&#45;&gt;Node17 -->
<g id="edge7" class="edge">
<title>Node16&#45;&gt;Node17</title>
<path fill="none" stroke="#63b8ff" d="M4650.87,-65.71C4648.74,-52.29 4646.04,-35.2 4644.42,-24.95"/>
<polygon fill="#63b8ff" stroke="#63b8ff" points="4647.35,-65.87 4652.37,-75.2 4654.26,-64.78 4647.35,-65.87"/>
</g>
<!-- Node16&#45;&gt;Node18 -->
<g id="edge8" class="edge">
<title>Node16&#45;&gt;Node18</title>
<path fill="none" stroke="#63b8ff" d="M4679.89,-70.99C4701.1,-59.1 4730.98,-42.35 4752.18,-30.47"/>
<polygon fill="#63b8ff" stroke="#63b8ff" points="4678.29,-67.87 4671.28,-75.82 4681.71,-73.98 4678.29,-67.87"/>
</g>
<!-- Node40&#45;&gt;Node13 -->
<g id="edge16" class="edge">
<title>Node40&#45;&gt;Node13</title>
<path fill="none" stroke="#63b8ff" d="M284,-63.73C268.23,-50.53 248.98,-34.4 237.37,-24.68"/>
<polygon fill="#63b8ff" stroke="#63b8ff" points="281.73,-66.39 291.64,-70.13 286.22,-61.02 281.73,-66.39"/>
</g>
<!-- Node40&#45;&gt;Node45 -->
<g id="edge17" class="edge">
<title>Node40&#45;&gt;Node45</title>
<path fill="none" stroke="#63b8ff" d="M362.47,-68.28C366.34,-67.39 370.22,-66.61 374,-66 574.21,-33.64 2061.01,-18.94 2346.62,-16.4"/>
<polygon fill="#63b8ff" stroke="#63b8ff" points="361.91,-64.81 353.08,-70.67 363.64,-71.6 361.91,-64.81"/>
</g>
<!-- Node66&#45;&gt;Node13 -->
<g id="edge24" class="edge">
<title>Node66&#45;&gt;Node13</title>
<path fill="none" stroke="#63b8ff" d="M167.43,-64.14C183.75,-50.95 203.83,-34.72 216.01,-24.88"/>
<polygon fill="#63b8ff" stroke="#63b8ff" points="165.57,-61.14 160,-70.15 169.97,-66.58 165.57,-61.14"/>
</g>
<!-- Node66&#45;&gt;Node67 -->
<g id="edge25" class="edge">
<title>Node66&#45;&gt;Node67</title>
<path fill="none" stroke="#63b8ff" d="M115.14,-64.1C99.1,-50.83 79.35,-34.49 67.49,-24.68"/>
<polygon fill="#63b8ff" stroke="#63b8ff" points="112.49,-66.46 122.43,-70.13 116.96,-61.06 112.49,-66.46"/>
</g>
</g>
</svg>
        <g id="navigator" transform="translate(0 0)" fill="#404254">
                <rect fill="#f2f5e9" fill-opacity="0.5" stroke="#606060" stroke-width=".5" x="0" y="0" width="60" height="60"/>
                <use id="zoomplus" xlink:href="#zoomPlus" x="17" y="9" onmousedown="handleZoom(evt,'in')"/>
                <use id="zoomminus" xlink:href="#zoomMin" x="42" y="9" onmousedown="handleZoom(evt,'out')"/>
                <use id="reset" xlink:href="#resetDef" x="30" y="36" onmousedown="handleReset()"/>
                <g id="arrowUp" xlink:href="#dirArrow" transform="translate(30 24)" onmousedown="handlePan(0,-1)">
                  <use xlink:href="#rim" fill="#404040">
                        <set attributeName="fill" to="#808080" begin="arrowUp.mouseover" end="arrowUp.mouseout"/>
                  </use>
                  <path fill="none" stroke="white" stroke-width="1.5" d="M0,-3.0v7 M-2.5,-0.5L0,-3.0L2.5,-0.5"/>
                </g>
                <g id="arrowRight" xlink:href="#dirArrow" transform="rotate(90) translate(36 -43)" onmousedown="handlePan(1,0)">
                  <use xlink:href="#rim" fill="#404040">
                        <set attributeName="fill" to="#808080" begin="arrowRight.mouseover" end="arrowRight.mouseout"/>
                  </use>
                  <path fill="none" stroke="white" stroke-width="1.5" d="M0,-3.0v7 M-2.5,-0.5L0,-3.0L2.5,-0.5"/>
                </g>
                <g id="arrowDown" xlink:href="#dirArrow" transform="rotate(180) translate(-30 -48)" onmousedown="handlePan(0,1)">
                  <use xlink:href="#rim" fill="#404040">
                        <set attributeName="fill" to="#808080" begin="arrowDown.mouseover" end="arrowDown.mouseout"/>
                  </use>
                  <path fill="none" stroke="white" stroke-width="1.5" d="M0,-3.0v7 M-2.5,-0.5L0,-3.0L2.5,-0.5"/>
                </g>
                <g id="arrowLeft" xlink:href="#dirArrow" transform="rotate(270) translate(-36 17)" onmousedown="handlePan(-1,0)">
                  <use xlink:href="#rim" fill="#404040">
                        <set attributeName="fill" to="#808080" begin="arrowLeft.mouseover" end="arrowLeft.mouseout"/>
                  </use>
                  <path fill="none" stroke="white" stroke-width="1.5" d="M0,-3.0v7 M-2.5,-0.5L0,-3.0L2.5,-0.5"/>
                </g>
        </g>
        <svg viewBox="0 0 15 15" width="100%" height="30px" preserveAspectRatio="xMaxYMin meet">
         <g id="arrow_out" transform="scale(0.3 0.3)">
          <a xlink:href="J3DMaterialAnm_8h__dep__incl_org.svg" target="_base">
           <rect id="button" ry="5" rx="5" y="6" x="6" height="38" width="38"
                fill="#f2f5e9" fill-opacity="0.5" stroke="#606060" stroke-width="1.0"/>
           <path id="arrow"
             d="M 11.500037,31.436501 C 11.940474,20.09759 22.043105,11.32322 32.158766,21.979434 L 37.068811,17.246167 C 37.068811,17.246167 37.088388,32 37.088388,32 L 22.160133,31.978069 C 22.160133,31.978069 26.997745,27.140456 26.997745,27.140456 C 18.528582,18.264221 13.291696,25.230495 11.500037,31.436501 z"
             style="fill:#404040;"/>
          </a>
         </g>
        </svg>
</svg>
