<?xml version="1.0" encoding="UTF-8" standalone="no"?>
<!DOCTYPE svg PUBLIC "-//W3C//DTD SVG 1.1//EN"
 "http://www.w3.org/Graphics/SVG/1.1/DTD/svg11.dtd">
<!-- Generated by graphviz version 7.0.4 (20221203.1631)
 -->
<!-- Title: include/JSystem/J3DGraphBase/J3DTevs.h Pages: 1 -->
<svg width="4658pt" height="379pt"
 viewBox="0.00 0.00 4657.50 379.00" xmlns="http://www.w3.org/2000/svg" xmlns:xlink="http://www.w3.org/1999/xlink">
<g id="graph0" class="graph" transform="scale(1 1) rotate(0) translate(4 375)">
<title>include/JSystem/J3DGraphBase/J3DTevs.h</title>
<!-- Node1 -->
<g id="node1" class="node">
<title>Node1</title>
<g id="a_node1"><a xlink:title=" ">
<polygon fill="#999999" stroke="#666666" points="1015,-371 880,-371 880,-341 1015,-341 1015,-371"/>
<text text-anchor="start" x="888" y="-359" font-family="Helvetica,sans-Serif" font-size="10.00">include/JSystem/J3DGraph</text>
<text text-anchor="middle" x="947.5" y="-348" font-family="Helvetica,sans-Serif" font-size="10.00">Base/J3DTevs.h</text>
</a>
</g>
</g>
<!-- Node2 -->
<g id="node2" class="node">
<title>Node2</title>
<g id="a_node2"><a xlink:href="J3DMatBlock_8h.html" target="_top" xlink:title=" ">
<polygon fill="white" stroke="#666666" points="850,-305 715,-305 715,-275 850,-275 850,-305"/>
<text text-anchor="start" x="723" y="-293" font-family="Helvetica,sans-Serif" font-size="10.00">include/JSystem/J3DGraph</text>
<text text-anchor="middle" x="782.5" y="-282" font-family="Helvetica,sans-Serif" font-size="10.00">Base/J3DMatBlock.h</text>
</a>
</g>
</g>
<!-- Node1&#45;&gt;Node2 -->
<g id="edge1" class="edge">
<title>Node1&#45;&gt;Node2</title>
<path fill="none" stroke="#63b8ff" d="M899.91,-336.54C874.39,-326.64 843.42,-314.63 819.69,-305.43"/>
<polygon fill="#63b8ff" stroke="#63b8ff" points="898.47,-339.74 909.06,-340.09 901,-333.21 898.47,-339.74"/>
</g>
<!-- Node3 -->
<g id="node3" class="node">
<title>Node3</title>
<g id="a_node3"><a xlink:href="J3DMaterial_8h.html" target="_top" xlink:title=" ">
<polygon fill="white" stroke="#666666" points="638,-239 503,-239 503,-209 638,-209 638,-239"/>
<text text-anchor="start" x="511" y="-227" font-family="Helvetica,sans-Serif" font-size="10.00">include/JSystem/J3DGraph</text>
<text text-anchor="middle" x="570.5" y="-216" font-family="Helvetica,sans-Serif" font-size="10.00">Base/J3DMaterial.h</text>
</a>
</g>
</g>
<!-- Node1&#45;&gt;Node3 -->
<g id="edge54" class="edge">
<title>Node1&#45;&gt;Node3</title>
<path fill="none" stroke="#63b8ff" d="M868.13,-350.73C811.52,-345.3 734.71,-332.97 672.5,-305 636.78,-288.94 602.5,-257.76 584.2,-239.42"/>
<polygon fill="#63b8ff" stroke="#63b8ff" points="867.75,-354.21 878.03,-351.62 868.38,-347.24 867.75,-354.21"/>
</g>
<!-- Node102 -->
<g id="node10" class="node">
<title>Node102</title>
<g id="a_node10"><a xlink:href="d__resorce_8cpp.html" target="_top" xlink:title=" ">
<polygon fill="white" stroke="#666666" points="718.5,-96 616.5,-96 616.5,-77 718.5,-77 718.5,-96"/>
<text text-anchor="middle" x="667.5" y="-84" font-family="Helvetica,sans-Serif" font-size="10.00">src/d/d_resorce.cpp</text>
</a>
</g>
</g>
<!-- Node1&#45;&gt;Node102 -->
<g id="edge58" class="edge">
<title>Node1&#45;&gt;Node102</title>
<path fill="none" stroke="#63b8ff" d="M868.23,-348.19C806.55,-341.2 727.82,-328.01 705.5,-305 647.33,-245.01 660.67,-129.47 665.92,-96.49"/>
<polygon fill="#63b8ff" stroke="#63b8ff" points="867.7,-351.65 878.02,-349.25 868.46,-344.69 867.7,-351.65"/>
</g>
<!-- Node219 -->
<g id="node47" class="node">
<title>Node219</title>
<g id="a_node47"><a xlink:href="J3DMaterialAttach_8cpp.html" target="_top" xlink:title=" ">
<polygon fill="white" stroke="#666666" points="1026.5,-305 868.5,-305 868.5,-275 1026.5,-275 1026.5,-305"/>
<text text-anchor="start" x="876.5" y="-293" font-family="Helvetica,sans-Serif" font-size="10.00">libs/JSystem/J3DGraphAnimator</text>
<text text-anchor="middle" x="947.5" y="-282" font-family="Helvetica,sans-Serif" font-size="10.00">/J3DMaterialAttach.cpp</text>
</a>
</g>
</g>
<!-- Node1&#45;&gt;Node219 -->
<g id="edge55" class="edge">
<title>Node1&#45;&gt;Node219</title>
<path fill="none" stroke="#63b8ff" d="M947.5,-329.39C947.5,-321.13 947.5,-312.28 947.5,-305.16"/>
<polygon fill="#63b8ff" stroke="#63b8ff" points="944,-329.28 947.5,-339.28 951,-329.28 944,-329.28"/>
</g>
<!-- Node299 -->
<g id="node48" class="node">
<title>Node299</title>
<g id="a_node48"><a xlink:href="J3DSys_8cpp.html" target="_top" xlink:title=" ">
<polygon fill="white" stroke="#666666" points="1186.5,-305 1044.5,-305 1044.5,-275 1186.5,-275 1186.5,-305"/>
<text text-anchor="start" x="1052.5" y="-293" font-family="Helvetica,sans-Serif" font-size="10.00">libs/JSystem/J3DGraphBase</text>
<text text-anchor="middle" x="1115.5" y="-282" font-family="Helvetica,sans-Serif" font-size="10.00">/J3DSys.cpp</text>
</a>
</g>
</g>
<!-- Node1&#45;&gt;Node299 -->
<g id="edge56" class="edge">
<title>Node1&#45;&gt;Node299</title>
<path fill="none" stroke="#63b8ff" d="M995.96,-336.54C1021.94,-326.64 1053.47,-314.63 1077.63,-305.43"/>
<polygon fill="#63b8ff" stroke="#63b8ff" points="994.72,-333.27 986.62,-340.1 997.21,-339.81 994.72,-333.27"/>
</g>
<!-- Node300 -->
<g id="node49" class="node">
<title>Node300</title>
<g id="a_node49"><a xlink:href="J3DTevs_8cpp.html" target="_top" xlink:title=" ">
<polygon fill="white" stroke="#666666" points="1346.5,-305 1204.5,-305 1204.5,-275 1346.5,-275 1346.5,-305"/>
<text text-anchor="start" x="1212.5" y="-293" font-family="Helvetica,sans-Serif" font-size="10.00">libs/JSystem/J3DGraphBase</text>
<text text-anchor="middle" x="1275.5" y="-282" font-family="Helvetica,sans-Serif" font-size="10.00">/J3DTevs.cpp</text>
</a>
</g>
</g>
<!-- Node1&#45;&gt;Node300 -->
<g id="edge57" class="edge">
<title>Node1&#45;&gt;Node300</title>
<path fill="none" stroke="#63b8ff" d="M1026.74,-339.54C1080.83,-328.98 1151.9,-315.12 1204.22,-304.91"/>
<polygon fill="#63b8ff" stroke="#63b8ff" points="1026.09,-336.1 1016.95,-341.45 1027.43,-342.97 1026.09,-336.1"/>
</g>
<!-- Node222 -->
<g id="node50" class="node">
<title>Node222</title>
<g id="a_node50"><a xlink:href="m__Do__ext_8cpp.html" target="_top" xlink:title=" ">
<polygon fill="white" stroke="#666666" points="1488,-299.5 1365,-299.5 1365,-280.5 1488,-280.5 1488,-299.5"/>
<text text-anchor="middle" x="1426.5" y="-287.5" font-family="Helvetica,sans-Serif" font-size="10.00">src/m_Do/m_Do_ext.cpp</text>
</a>
</g>
</g>
<!-- Node1&#45;&gt;Node222 -->
<g id="edge59" class="edge">
<title>Node1&#45;&gt;Node222</title>
<path fill="none" stroke="#63b8ff" d="M1026.49,-347.04C1108.86,-338.34 1241.59,-323.19 1355.5,-305 1364.68,-303.53 1374.49,-301.75 1383.79,-299.94"/>
<polygon fill="#63b8ff" stroke="#63b8ff" points="1026.3,-343.54 1016.72,-348.07 1027.03,-350.5 1026.3,-343.54"/>
</g>
<!-- Node2&#45;&gt;Node3 -->
<g id="edge2" class="edge">
<title>Node2&#45;&gt;Node3</title>
<path fill="none" stroke="#63b8ff" d="M723.7,-271.25C690.45,-261.21 649.4,-248.82 618.17,-239.39"/>
<polygon fill="#63b8ff" stroke="#63b8ff" points="722.62,-274.58 733.21,-274.12 724.65,-267.88 722.62,-274.58"/>
</g>
<!-- Node24 -->
<g id="node11" class="node">
<title>Node24</title>
<g id="a_node11"><a xlink:href="d__a__alink_8h.html" target="_top" xlink:title=" ">
<polygon fill="white" stroke="#666666" points="835.5,-233.5 719.5,-233.5 719.5,-214.5 835.5,-214.5 835.5,-233.5"/>
<text text-anchor="middle" x="777.5" y="-221.5" font-family="Helvetica,sans-Serif" font-size="10.00">include/d/a/d_a_alink.h</text>
</a>
</g>
</g>
<!-- Node2&#45;&gt;Node24 -->
<g id="edge10" class="edge">
<title>Node2&#45;&gt;Node24</title>
<path fill="none" stroke="#63b8ff" d="M780.51,-263.59C779.69,-253.06 778.79,-241.53 778.19,-233.84"/>
<polygon fill="#63b8ff" stroke="#63b8ff" points="777,-263.59 781.27,-273.29 783.98,-263.05 777,-263.59"/>
</g>
<!-- Node298 -->
<g id="node46" class="node">
<title>Node298</title>
<g id="a_node46"><a xlink:href="J3DMatBlock_8cpp.html" target="_top" xlink:title=" ">
<polygon fill="white" stroke="#666666" points="995.5,-239 853.5,-239 853.5,-209 995.5,-209 995.5,-239"/>
<text text-anchor="start" x="861.5" y="-227" font-family="Helvetica,sans-Serif" font-size="10.00">libs/JSystem/J3DGraphBase</text>
<text text-anchor="middle" x="924.5" y="-216" font-family="Helvetica,sans-Serif" font-size="10.00">/J3DMatBlock.cpp</text>
</a>
</g>
</g>
<!-- Node2&#45;&gt;Node298 -->
<g id="edge53" class="edge">
<title>Node2&#45;&gt;Node298</title>
<path fill="none" stroke="#63b8ff" d="M824.68,-269.99C846.48,-260.16 872.66,-248.36 892.74,-239.31"/>
<polygon fill="#63b8ff" stroke="#63b8ff" points="823.43,-266.72 815.75,-274.02 826.3,-273.1 823.43,-266.72"/>
</g>
<!-- Node4 -->
<g id="node4" class="node">
<title>Node4</title>
<g id="a_node4"><a xlink:href="J3DJoint_8h.html" target="_top" xlink:title=" ">
<polygon fill="white" stroke="#666666" points="300,-173 165,-173 165,-143 300,-143 300,-173"/>
<text text-anchor="start" x="173" y="-161" font-family="Helvetica,sans-Serif" font-size="10.00">include/JSystem/J3DGraph</text>
<text text-anchor="middle" x="232.5" y="-150" font-family="Helvetica,sans-Serif" font-size="10.00">Animator/J3DJoint.h</text>
</a>
</g>
</g>
<!-- Node3&#45;&gt;Node4 -->
<g id="edge3" class="edge">
<title>Node3&#45;&gt;Node4</title>
<path fill="none" stroke="#63b8ff" d="M491.56,-208.05C433.57,-197.07 355.59,-182.31 300.38,-171.85"/>
<polygon fill="#63b8ff" stroke="#63b8ff" points="490.54,-211.42 501.02,-209.84 491.85,-204.54 490.54,-211.42"/>
</g>
<!-- Node297 -->
<g id="node8" class="node">
<title>Node297</title>
<g id="a_node8"><a xlink:href="J3DMaterial_8cpp.html" target="_top" xlink:title=" ">
<polygon fill="white" stroke="#666666" points="460.5,-173 318.5,-173 318.5,-143 460.5,-143 460.5,-173"/>
<text text-anchor="start" x="326.5" y="-161" font-family="Helvetica,sans-Serif" font-size="10.00">libs/JSystem/J3DGraphBase</text>
<text text-anchor="middle" x="389.5" y="-150" font-family="Helvetica,sans-Serif" font-size="10.00">/J3DMaterial.cpp</text>
</a>
</g>
</g>
<!-- Node3&#45;&gt;Node297 -->
<g id="edge7" class="edge">
<title>Node3&#45;&gt;Node297</title>
<path fill="none" stroke="#63b8ff" d="M519.04,-204.8C490.91,-194.86 456.56,-182.71 430.3,-173.43"/>
<polygon fill="#63b8ff" stroke="#63b8ff" points="517.86,-208.1 528.45,-208.13 520.19,-201.5 517.86,-208.1"/>
</g>
<!-- Node286 -->
<g id="node9" class="node">
<title>Node286</title>
<g id="a_node9"><a xlink:href="J3DPacket_8cpp.html" target="_top" xlink:title=" ">
<polygon fill="white" stroke="#666666" points="620.5,-173 478.5,-173 478.5,-143 620.5,-143 620.5,-173"/>
<text text-anchor="start" x="486.5" y="-161" font-family="Helvetica,sans-Serif" font-size="10.00">libs/JSystem/J3DGraphBase</text>
<text text-anchor="middle" x="549.5" y="-150" font-family="Helvetica,sans-Serif" font-size="10.00">/J3DPacket.cpp</text>
</a>
</g>
</g>
<!-- Node3&#45;&gt;Node286 -->
<g id="edge8" class="edge">
<title>Node3&#45;&gt;Node286</title>
<path fill="none" stroke="#63b8ff" d="M562.29,-197.97C559.52,-189.55 556.54,-180.45 554.15,-173.16"/>
<polygon fill="#63b8ff" stroke="#63b8ff" points="558.92,-198.95 565.37,-207.36 565.58,-196.77 558.92,-198.95"/>
</g>
<!-- Node3&#45;&gt;Node102 -->
<g id="edge9" class="edge">
<title>Node3&#45;&gt;Node102</title>
<path fill="none" stroke="#63b8ff" d="M600.93,-201.59C610.95,-193.48 621.55,-183.61 629.5,-173 648.1,-148.17 660.1,-112.8 664.99,-96.43"/>
<polygon fill="#63b8ff" stroke="#63b8ff" points="598.94,-198.71 593.18,-207.6 603.23,-204.24 598.94,-198.71"/>
</g>
<!-- Node5 -->
<g id="node5" class="node">
<title>Node5</title>
<g id="a_node5"><a xlink:href="J3DJointTree_8h.html" target="_top" xlink:title=" ">
<polygon fill="#fff0f0" stroke="red" points="135,-101.5 0,-101.5 0,-71.5 135,-71.5 135,-101.5"/>
<text text-anchor="start" x="8" y="-89.5" font-family="Helvetica,sans-Serif" font-size="10.00">include/JSystem/J3DGraph</text>
<text text-anchor="middle" x="67.5" y="-78.5" font-family="Helvetica,sans-Serif" font-size="10.00">Animator/J3DJointTree.h</text>
</a>
</g>
</g>
<!-- Node4&#45;&gt;Node5 -->
<g id="edge4" class="edge">
<title>Node4&#45;&gt;Node5</title>
<path fill="none" stroke="#63b8ff" d="M187.91,-138.22C160.77,-126.79 126.63,-112.41 101.64,-101.88"/>
<polygon fill="#63b8ff" stroke="#63b8ff" points="186.34,-141.36 196.92,-142.01 189.06,-134.9 186.34,-141.36"/>
</g>
<!-- Node291 -->
<g id="node6" class="node">
<title>Node291</title>
<g id="a_node6"><a xlink:href="J3DJoint_8cpp.html" target="_top" xlink:title=" ">
<polygon fill="white" stroke="#666666" points="311.5,-101.5 153.5,-101.5 153.5,-71.5 311.5,-71.5 311.5,-101.5"/>
<text text-anchor="start" x="161.5" y="-89.5" font-family="Helvetica,sans-Serif" font-size="10.00">libs/JSystem/J3DGraphAnimator</text>
<text text-anchor="middle" x="232.5" y="-78.5" font-family="Helvetica,sans-Serif" font-size="10.00">/J3DJoint.cpp</text>
</a>
</g>
</g>
<!-- Node4&#45;&gt;Node291 -->
<g id="edge5" class="edge">
<title>Node4&#45;&gt;Node291</title>
<path fill="none" stroke="#63b8ff" d="M232.5,-131.26C232.5,-121.33 232.5,-110.36 232.5,-101.88"/>
<polygon fill="#63b8ff" stroke="#63b8ff" points="229,-131.09 232.5,-141.09 236,-131.09 229,-131.09"/>
</g>
<!-- Node296 -->
<g id="node7" class="node">
<title>Node296</title>
<g id="a_node7"><a xlink:href="J3DJointFactory_8cpp.html" target="_top" xlink:title=" ">
<polygon fill="white" stroke="#666666" points="479,-101.5 330,-101.5 330,-71.5 479,-71.5 479,-101.5"/>
<text text-anchor="start" x="338" y="-89.5" font-family="Helvetica,sans-Serif" font-size="10.00">libs/JSystem/J3DGraphLoader</text>
<text text-anchor="middle" x="404.5" y="-78.5" font-family="Helvetica,sans-Serif" font-size="10.00">/J3DJointFactory.cpp</text>
</a>
</g>
</g>
<!-- Node4&#45;&gt;Node296 -->
<g id="edge6" class="edge">
<title>Node4&#45;&gt;Node296</title>
<path fill="none" stroke="#63b8ff" d="M278.61,-138.37C306.96,-126.91 342.74,-112.45 368.91,-101.88"/>
<polygon fill="#63b8ff" stroke="#63b8ff" points="277.5,-135.04 269.54,-142.03 280.12,-141.53 277.5,-135.04"/>
</g>
<!-- Node25 -->
<g id="node12" class="node">
<title>Node25</title>
<g id="a_node12"><a xlink:href="d__com__inf__game_8h.html" target="_top" xlink:title=" ">
<polygon fill="#fff0f0" stroke="red" points="2421.5,-173 2311.5,-173 2311.5,-143 2421.5,-143 2421.5,-173"/>
<text text-anchor="start" x="2319.5" y="-161" font-family="Helvetica,sans-Serif" font-size="10.00">include/d/com/d_com</text>
<text text-anchor="middle" x="2366.5" y="-150" font-family="Helvetica,sans-Serif" font-size="10.00">_inf_game.h</text>
</a>
</g>
</g>
<!-- Node24&#45;&gt;Node25 -->
<g id="edge11" class="edge">
<title>Node24&#45;&gt;Node25</title>
<path fill="none" stroke="#63b8ff" d="M825.69,-211.89C831.99,-210.75 838.38,-209.73 844.5,-209 1137.02,-173.9 2073.81,-162.02 2311.34,-159.53"/>
<polygon fill="#63b8ff" stroke="#63b8ff" points="825.15,-208.43 816.01,-213.78 826.49,-215.3 825.15,-208.43"/>
</g>
<!-- Node11 -->
<g id="node16" class="node">
<title>Node11</title>
<g id="a_node16"><a xlink:href="d__a__alink_8cpp.html" target="_top" xlink:title=" ">
<polygon fill="white" stroke="#666666" points="1189,-24.5 1080,-24.5 1080,-5.5 1189,-5.5 1189,-24.5"/>
<text text-anchor="middle" x="1134.5" y="-12.5" font-family="Helvetica,sans-Serif" font-size="10.00">src/d/a/d_a_alink.cpp</text>
</a>
</g>
</g>
<!-- Node24&#45;&gt;Node11 -->
<g id="edge52" class="edge">
<title>Node24&#45;&gt;Node11</title>
<path fill="none" stroke="#63b8ff" d="M768.23,-203.8C753.99,-171.18 731.7,-104.69 765.5,-66 805.64,-20.05 987.18,-14.68 1079.8,-15.03"/>
<polygon fill="#63b8ff" stroke="#63b8ff" points="765.01,-205.18 772.37,-212.8 771.37,-202.26 765.01,-205.18"/>
</g>
<!-- Node25&#45;&gt;Node102 -->
<g id="edge51" class="edge">
<title>Node25&#45;&gt;Node102</title>
<path fill="none" stroke="#63b8ff" d="M2300.15,-156.39C2037.5,-153.75 1070.07,-141.82 765.5,-107 745.33,-104.69 723.13,-100.42 704.97,-96.47"/>
<polygon fill="#63b8ff" stroke="#63b8ff" points="2299.85,-159.89 2309.88,-156.49 2299.92,-152.89 2299.85,-159.89"/>
</g>
<!-- Node26 -->
<g id="node13" class="node">
<title>Node26</title>
<g id="a_node13"><a xlink:href="d__a__npc_8h.html" target="_top" xlink:title=" ">
<polygon fill="#fff0f0" stroke="red" points="886,-96 775,-96 775,-77 886,-77 886,-96"/>
<text text-anchor="middle" x="830.5" y="-84" font-family="Helvetica,sans-Serif" font-size="10.00">include/d/a/d_a_npc.h</text>
</a>
</g>
</g>
<!-- Node25&#45;&gt;Node26 -->
<g id="edge12" class="edge">
<title>Node25&#45;&gt;Node26</title>
<path fill="none" stroke="#63b8ff" d="M2299.69,-157.05C2049.8,-156.87 1170.42,-152.9 894.5,-107 880.98,-104.75 866.33,-100.43 854.46,-96.43"/>
<polygon fill="#63b8ff" stroke="#63b8ff" points="2299.59,-160.55 2309.59,-157.05 2299.6,-153.55 2299.59,-160.55"/>
</g>
<!-- Node32 -->
<g id="node14" class="node">
<title>Node32</title>
<g id="a_node14"><a xlink:href="d__cc__uty_8h.html" target="_top" xlink:title=" ">
<polygon fill="#fff0f0" stroke="red" points="1023,-96 904,-96 904,-77 1023,-77 1023,-96"/>
<text text-anchor="middle" x="963.5" y="-84" font-family="Helvetica,sans-Serif" font-size="10.00">include/d/cc/d_cc_uty.h</text>
</a>
</g>
</g>
<!-- Node25&#45;&gt;Node32 -->
<g id="edge13" class="edge">
<title>Node25&#45;&gt;Node32</title>
<path fill="none" stroke="#63b8ff" d="M2299.7,-156.43C2065.87,-154.13 1284.97,-143.8 1037.5,-107 1022.12,-104.71 1005.35,-100.44 991.66,-96.48"/>
<polygon fill="#63b8ff" stroke="#63b8ff" points="2299.53,-159.93 2309.56,-156.52 2299.59,-152.93 2299.53,-159.93"/>
</g>
<!-- Node37 -->
<g id="node15" class="node">
<title>Node37</title>
<g id="a_node15"><a xlink:href="d__item_8h.html" target="_top" xlink:title=" ">
<polygon fill="#fff0f0" stroke="red" points="1475,-96 1380,-96 1380,-77 1475,-77 1475,-96"/>
<text text-anchor="middle" x="1427.5" y="-84" font-family="Helvetica,sans-Serif" font-size="10.00">include/d/d_item.h</text>
</a>
</g>
</g>
<!-- Node25&#45;&gt;Node37 -->
<g id="edge14" class="edge">
<title>Node25&#45;&gt;Node37</title>
<path fill="none" stroke="#63b8ff" d="M2299.72,-155.33C2122.79,-150.57 1644.84,-135.4 1489.5,-107 1476.51,-104.63 1462.45,-100.35 1451,-96.4"/>
<polygon fill="#63b8ff" stroke="#63b8ff" points="2299.58,-158.83 2309.67,-155.6 2299.77,-151.83 2299.58,-158.83"/>
</g>
<!-- Node25&#45;&gt;Node11 -->
<g id="edge37" class="edge">
<title>Node25&#45;&gt;Node11</title>
<path fill="none" stroke="#63b8ff" d="M2299.78,-156.96C2040.69,-156.48 1113.46,-151.64 1070.5,-107 1057.87,-93.87 1062.51,-82.38 1070.5,-66 1079.77,-46.99 1100.15,-33.09 1115.44,-24.84"/>
<polygon fill="#63b8ff" stroke="#63b8ff" points="2299.73,-160.46 2309.74,-156.98 2299.74,-153.46 2299.73,-160.46"/>
</g>
<!-- Node38 -->
<g id="node17" class="node">
<title>Node38</title>
<g id="a_node17"><a xlink:href="d__a__obj__item_8cpp.html" target="_top" xlink:title=" ">
<polygon fill="white" stroke="#666666" points="1479,-24.5 1354,-24.5 1354,-5.5 1479,-5.5 1479,-24.5"/>
<text text-anchor="middle" x="1416.5" y="-12.5" font-family="Helvetica,sans-Serif" font-size="10.00">src/d/a/d_a_obj_item.cpp</text>
</a>
</g>
</g>
<!-- Node25&#45;&gt;Node38 -->
<g id="edge40" class="edge">
<title>Node25&#45;&gt;Node38</title>
<path fill="none" stroke="#63b8ff" d="M2299.73,-157.75C2129.04,-158.89 1680.44,-156.92 1541.5,-107 1534.99,-104.66 1458.02,-47.16 1428.2,-24.79"/>
<polygon fill="#63b8ff" stroke="#63b8ff" points="2299.56,-161.25 2309.54,-157.67 2299.51,-154.25 2299.56,-161.25"/>
</g>
<!-- Node39 -->
<g id="node18" class="node">
<title>Node39</title>
<g id="a_node18"><a xlink:href="d__com__inf__game_8cpp.html" target="_top" xlink:title=" ">
<polygon fill="white" stroke="#666666" points="1605.5,-30 1497.5,-30 1497.5,0 1605.5,0 1605.5,-30"/>
<text text-anchor="start" x="1505.5" y="-18" font-family="Helvetica,sans-Serif" font-size="10.00">src/d/com/d_com_inf</text>
<text text-anchor="middle" x="1551.5" y="-7" font-family="Helvetica,sans-Serif" font-size="10.00">_game.cpp</text>
</a>
</g>
</g>
<!-- Node25&#45;&gt;Node39 -->
<g id="edge46" class="edge">
<title>Node25&#45;&gt;Node39</title>
<path fill="none" stroke="#63b8ff" d="M2299.82,-157.67C2116.4,-158.86 1614.39,-157.44 1561.5,-107 1540.91,-87.37 1544.23,-50.7 1548.08,-30.42"/>
<polygon fill="#63b8ff" stroke="#63b8ff" points="2299.68,-161.17 2309.66,-157.6 2299.63,-154.17 2299.68,-161.17"/>
</g>
<!-- Node42 -->
<g id="node19" class="node">
<title>Node42</title>
<g id="a_node19"><a xlink:href="d__kantera__icon__meter_8h.html" target="_top" xlink:title=" ">
<polygon fill="#fff0f0" stroke="red" points="1671,-101.5 1570,-101.5 1570,-71.5 1671,-71.5 1671,-101.5"/>
<text text-anchor="start" x="1578" y="-89.5" font-family="Helvetica,sans-Serif" font-size="10.00">include/d/d_kantera</text>
<text text-anchor="middle" x="1620.5" y="-78.5" font-family="Helvetica,sans-Serif" font-size="10.00">_icon_meter.h</text>
</a>
</g>
</g>
<!-- Node25&#45;&gt;Node42 -->
<g id="edge18" class="edge">
<title>Node25&#45;&gt;Node42</title>
<path fill="none" stroke="#63b8ff" d="M2299.74,-157.45C2176.27,-157.11 1904.42,-150.88 1680.5,-107 1673.94,-105.72 1667.1,-103.94 1660.49,-101.97"/>
<polygon fill="#63b8ff" stroke="#63b8ff" points="2299.7,-160.95 2309.7,-157.46 2299.71,-153.95 2299.7,-160.95"/>
</g>
<!-- Node44 -->
<g id="node20" class="node">
<title>Node44</title>
<g id="a_node20"><a xlink:href="d__model_8h.html" target="_top" xlink:title=" ">
<polygon fill="#fff0f0" stroke="red" points="1792,-96 1689,-96 1689,-77 1792,-77 1792,-96"/>
<text text-anchor="middle" x="1740.5" y="-84" font-family="Helvetica,sans-Serif" font-size="10.00">include/d/d_model.h</text>
</a>
</g>
</g>
<!-- Node25&#45;&gt;Node44 -->
<g id="edge19" class="edge">
<title>Node25&#45;&gt;Node44</title>
<path fill="none" stroke="#63b8ff" d="M2299.88,-155.86C2193.52,-152.97 1979.22,-142.81 1801.5,-107 1788.97,-104.47 1775.38,-100.28 1764.22,-96.43"/>
<polygon fill="#63b8ff" stroke="#63b8ff" points="2299.78,-159.36 2309.87,-156.11 2299.96,-152.36 2299.78,-159.36"/>
</g>
<!-- Node46 -->
<g id="node21" class="node">
<title>Node46</title>
<g id="a_node21"><a xlink:href="d__name_8h.html" target="_top" xlink:title=" ">
<polygon fill="#fff0f0" stroke="red" points="1911,-96 1810,-96 1810,-77 1911,-77 1911,-96"/>
<text text-anchor="middle" x="1860.5" y="-84" font-family="Helvetica,sans-Serif" font-size="10.00">include/d/d_name.h</text>
</a>
</g>
</g>
<!-- Node25&#45;&gt;Node46 -->
<g id="edge20" class="edge">
<title>Node25&#45;&gt;Node46</title>
<path fill="none" stroke="#63b8ff" d="M2299.96,-153.75C2212.19,-148.51 2053.33,-135.72 1920.5,-107 1908.3,-104.36 1895.06,-100.21 1884.14,-96.41"/>
<polygon fill="#63b8ff" stroke="#63b8ff" points="2299.64,-157.24 2309.83,-154.33 2300.05,-150.25 2299.64,-157.24"/>
</g>
<!-- Node47 -->
<g id="node22" class="node">
<title>Node47</title>
<g id="a_node22"><a xlink:href="d__file__sel__info_8h.html" target="_top" xlink:title=" ">
<polygon fill="#fff0f0" stroke="red" points="2025.5,-101.5 1929.5,-101.5 1929.5,-71.5 2025.5,-71.5 2025.5,-101.5"/>
<text text-anchor="start" x="1937.5" y="-89.5" font-family="Helvetica,sans-Serif" font-size="10.00">include/d/file/d_file</text>
<text text-anchor="middle" x="1977.5" y="-78.5" font-family="Helvetica,sans-Serif" font-size="10.00">_sel_info.h</text>
</a>
</g>
</g>
<!-- Node25&#45;&gt;Node47 -->
<g id="edge21" class="edge">
<title>Node25&#45;&gt;Node47</title>
<path fill="none" stroke="#63b8ff" d="M2299.97,-150.55C2232.45,-143.17 2125.23,-129.16 2034.5,-107 2028.71,-105.59 2022.67,-103.83 2016.78,-101.97"/>
<polygon fill="#63b8ff" stroke="#63b8ff" points="2299.45,-154.01 2309.77,-151.6 2300.2,-147.05 2299.45,-154.01"/>
</g>
<!-- Node49 -->
<g id="node23" class="node">
<title>Node49</title>
<g id="a_node23"><a xlink:href="d__file__sel__warning_8h.html" target="_top" xlink:title=" ">
<polygon fill="#fff0f0" stroke="red" points="2139.5,-101.5 2043.5,-101.5 2043.5,-71.5 2139.5,-71.5 2139.5,-101.5"/>
<text text-anchor="start" x="2051.5" y="-89.5" font-family="Helvetica,sans-Serif" font-size="10.00">include/d/file/d_file</text>
<text text-anchor="middle" x="2091.5" y="-78.5" font-family="Helvetica,sans-Serif" font-size="10.00">_sel_warning.h</text>
</a>
</g>
</g>
<!-- Node25&#45;&gt;Node49 -->
<g id="edge22" class="edge">
<title>Node25&#45;&gt;Node49</title>
<path fill="none" stroke="#63b8ff" d="M2300.44,-143.72C2256.98,-134.53 2199,-121.39 2148.5,-107 2143.17,-105.48 2137.6,-103.76 2132.13,-101.97"/>
<polygon fill="#63b8ff" stroke="#63b8ff" points="2299.46,-147.09 2309.97,-145.72 2300.9,-140.24 2299.46,-147.09"/>
</g>
<!-- Node51 -->
<g id="node24" class="node">
<title>Node51</title>
<g id="a_node24"><a xlink:href="d__meter2_8h.html" target="_top" xlink:title=" ">
<polygon fill="#fff0f0" stroke="red" points="2291.5,-96 2157.5,-96 2157.5,-77 2291.5,-77 2291.5,-96"/>
<text text-anchor="middle" x="2224.5" y="-84" font-family="Helvetica,sans-Serif" font-size="10.00">include/d/meter/d_meter2.h</text>
</a>
</g>
</g>
<!-- Node25&#45;&gt;Node51 -->
<g id="edge23" class="edge">
<title>Node25&#45;&gt;Node51</title>
<path fill="none" stroke="#63b8ff" d="M2326.93,-137.63C2299.33,-124.12 2263.78,-106.72 2242.64,-96.38"/>
<polygon fill="#63b8ff" stroke="#63b8ff" points="2325.2,-140.68 2335.72,-141.93 2328.27,-134.39 2325.2,-140.68"/>
</g>
<!-- Node58 -->
<g id="node25" class="node">
<title>Node58</title>
<g id="a_node25"><a xlink:href="d__msg__object_8h.html" target="_top" xlink:title=" ">
<polygon fill="#fff0f0" stroke="red" points="1189.5,-101.5 1079.5,-101.5 1079.5,-71.5 1189.5,-71.5 1189.5,-101.5"/>
<text text-anchor="start" x="1087.5" y="-89.5" font-family="Helvetica,sans-Serif" font-size="10.00">include/d/msg/d_msg</text>
<text text-anchor="middle" x="1134.5" y="-78.5" font-family="Helvetica,sans-Serif" font-size="10.00">_object.h</text>
</a>
</g>
</g>
<!-- Node25&#45;&gt;Node58 -->
<g id="edge24" class="edge">
<title>Node25&#45;&gt;Node58</title>
<path fill="none" stroke="#63b8ff" d="M2299.6,-156.36C2084.54,-153.94 1412.51,-143.57 1198.5,-107 1191.29,-105.77 1183.75,-103.96 1176.48,-101.94"/>
<polygon fill="#63b8ff" stroke="#63b8ff" points="2299.45,-159.85 2309.49,-156.47 2299.53,-152.86 2299.45,-159.85"/>
</g>
<!-- Node72 -->
<g id="node26" class="node">
<title>Node72</title>
<g id="a_node26"><a xlink:href="d__s__logo_8h.html" target="_top" xlink:title=" ">
<polygon fill="#fff0f0" stroke="red" points="2423,-96 2310,-96 2310,-77 2423,-77 2423,-96"/>
<text text-anchor="middle" x="2366.5" y="-84" font-family="Helvetica,sans-Serif" font-size="10.00">include/d/s/d_s_logo.h</text>
</a>
</g>
</g>
<!-- Node25&#45;&gt;Node72 -->
<g id="edge26" class="edge">
<title>Node25&#45;&gt;Node72</title>
<path fill="none" stroke="#63b8ff" d="M2366.5,-131.46C2366.5,-119.07 2366.5,-104.99 2366.5,-96.18"/>
<polygon fill="#63b8ff" stroke="#63b8ff" points="2363,-131.09 2366.5,-141.09 2370,-131.09 2363,-131.09"/>
</g>
<!-- Node74 -->
<g id="node27" class="node">
<title>Node74</title>
<g id="a_node27"><a xlink:href="d__s__play_8h.html" target="_top" xlink:title=" ">
<polygon fill="#fff0f0" stroke="red" points="2554,-96 2441,-96 2441,-77 2554,-77 2554,-96"/>
<text text-anchor="middle" x="2497.5" y="-84" font-family="Helvetica,sans-Serif" font-size="10.00">include/d/s/d_s_play.h</text>
</a>
</g>
</g>
<!-- Node25&#45;&gt;Node74 -->
<g id="edge27" class="edge">
<title>Node25&#45;&gt;Node74</title>
<path fill="none" stroke="#63b8ff" d="M2403.68,-137.28C2429.05,-123.82 2461.44,-106.63 2480.77,-96.38"/>
<polygon fill="#63b8ff" stroke="#63b8ff" points="2402.17,-134.11 2394.98,-141.89 2405.45,-140.3 2402.17,-134.11"/>
</g>
<!-- Node78 -->
<g id="node28" class="node">
<title>Node78</title>
<g id="a_node28"><a xlink:href="d__msg__scrn__base_8h.html" target="_top" xlink:title=" ">
<polygon fill="#fff0f0" stroke="red" points="2671,-101.5 2572,-101.5 2572,-71.5 2671,-71.5 2671,-101.5"/>
<text text-anchor="start" x="2580" y="-89.5" font-family="Helvetica,sans-Serif" font-size="10.00">include/msg/scrn/d</text>
<text text-anchor="middle" x="2621.5" y="-78.5" font-family="Helvetica,sans-Serif" font-size="10.00">_msg_scrn_base.h</text>
</a>
</g>
</g>
<!-- Node25&#45;&gt;Node78 -->
<g id="edge28" class="edge">
<title>Node25&#45;&gt;Node78</title>
<path fill="none" stroke="#63b8ff" d="M2432.62,-141.54C2471.02,-132.24 2520.22,-119.75 2563.5,-107 2568.8,-105.44 2574.34,-103.71 2579.8,-101.94"/>
<polygon fill="#63b8ff" stroke="#63b8ff" points="2431.95,-138.1 2423.05,-143.85 2433.59,-144.91 2431.95,-138.1"/>
</g>
<!-- Node82 -->
<g id="node29" class="node">
<title>Node82</title>
<g id="a_node29"><a xlink:href="d__a__b__zant_8h.html" target="_top" xlink:title=" ">
<polygon fill="white" stroke="#666666" points="2810,-101.5 2689,-101.5 2689,-71.5 2810,-71.5 2810,-101.5"/>
<text text-anchor="start" x="2697" y="-89.5" font-family="Helvetica,sans-Serif" font-size="10.00">include/rel/d/a/b/d</text>
<text text-anchor="middle" x="2749.5" y="-78.5" font-family="Helvetica,sans-Serif" font-size="10.00">_a_b_zant/d_a_b_zant.h</text>
</a>
</g>
</g>
<!-- Node25&#45;&gt;Node82 -->
<g id="edge29" class="edge">
<title>Node25&#45;&gt;Node82</title>
<path fill="none" stroke="#63b8ff" d="M2433,-148.72C2496.85,-140.23 2595.82,-125.64 2680.5,-107 2687.19,-105.53 2694.18,-103.79 2701.05,-101.96"/>
<polygon fill="#63b8ff" stroke="#63b8ff" points="2432.85,-145.21 2423.39,-149.99 2433.76,-152.15 2432.85,-145.21"/>
</g>
<!-- Node83 -->
<g id="node30" class="node">
<title>Node83</title>
<g id="a_node30"><a xlink:href="d__a__skip__2D_8h.html" target="_top" xlink:title=" ">
<polygon fill="white" stroke="#666666" points="2952.5,-101.5 2828.5,-101.5 2828.5,-71.5 2952.5,-71.5 2952.5,-101.5"/>
<text text-anchor="start" x="2836.5" y="-89.5" font-family="Helvetica,sans-Serif" font-size="10.00">include/rel/d/a/d_a</text>
<text text-anchor="middle" x="2890.5" y="-78.5" font-family="Helvetica,sans-Serif" font-size="10.00">_skip_2D/d_a_skip_2D.h</text>
</a>
</g>
</g>
<!-- Node25&#45;&gt;Node83 -->
<g id="edge30" class="edge">
<title>Node25&#45;&gt;Node83</title>
<path fill="none" stroke="#63b8ff" d="M2432.89,-152.97C2521.61,-146.84 2683.44,-133.02 2819.5,-107 2826.78,-105.61 2834.41,-103.84 2841.85,-101.95"/>
<polygon fill="#63b8ff" stroke="#63b8ff" points="2432.91,-149.46 2423.17,-153.63 2433.38,-156.45 2432.91,-149.46"/>
</g>
<!-- Node84 -->
<g id="node31" class="node">
<title>Node84</title>
<g id="a_node31"><a xlink:href="d__a__spinner_8h.html" target="_top" xlink:title=" ">
<polygon fill="white" stroke="#666666" points="1323.5,-101.5 1207.5,-101.5 1207.5,-71.5 1323.5,-71.5 1323.5,-101.5"/>
<text text-anchor="start" x="1215.5" y="-89.5" font-family="Helvetica,sans-Serif" font-size="10.00">include/rel/d/a/d_a</text>
<text text-anchor="middle" x="1265.5" y="-78.5" font-family="Helvetica,sans-Serif" font-size="10.00">_spinner/d_a_spinner.h</text>
</a>
</g>
</g>
<!-- Node25&#45;&gt;Node84 -->
<g id="edge31" class="edge">
<title>Node25&#45;&gt;Node84</title>
<path fill="none" stroke="#63b8ff" d="M2299.7,-155.64C2102.32,-151.31 1523.93,-136.42 1337.5,-107 1329.57,-105.75 1321.26,-103.96 1313.21,-101.97"/>
<polygon fill="#63b8ff" stroke="#63b8ff" points="2299.45,-159.13 2309.52,-155.85 2299.6,-152.13 2299.45,-159.13"/>
</g>
<!-- Node85 -->
<g id="node32" class="node">
<title>Node85</title>
<g id="a_node32"><a xlink:href="d__a__player_8cpp.html" target="_top" xlink:title=" ">
<polygon fill="white" stroke="#666666" points="1323.5,-24.5 1209.5,-24.5 1209.5,-5.5 1323.5,-5.5 1323.5,-24.5"/>
<text text-anchor="middle" x="1266.5" y="-12.5" font-family="Helvetica,sans-Serif" font-size="10.00">src/d/a/d_a_player.cpp</text>
</a>
</g>
</g>
<!-- Node25&#45;&gt;Node85 -->
<g id="edge41" class="edge">
<title>Node25&#45;&gt;Node85</title>
<path fill="none" stroke="#63b8ff" d="M2299.72,-156.55C2090.11,-154.74 1454.17,-146.06 1370.5,-107 1347.99,-96.49 1350.92,-82.68 1332.5,-66 1315.24,-50.37 1293.39,-34.5 1279.68,-24.95"/>
<polygon fill="#63b8ff" stroke="#63b8ff" points="2299.6,-160.05 2309.63,-156.63 2299.66,-153.05 2299.6,-160.05"/>
</g>
<!-- Node86 -->
<g id="node33" class="node">
<title>Node86</title>
<g id="a_node33"><a xlink:href="d__a__obj__yobikusa_8h.html" target="_top" xlink:title=" ">
<polygon fill="white" stroke="#666666" points="3076,-107 2971,-107 2971,-66 3076,-66 3076,-107"/>
<text text-anchor="start" x="2979" y="-95" font-family="Helvetica,sans-Serif" font-size="10.00">include/rel/d/a/obj</text>
<text text-anchor="start" x="2979" y="-84" font-family="Helvetica,sans-Serif" font-size="10.00">/d_a_obj_yobikusa/d</text>
<text text-anchor="middle" x="3023.5" y="-73" font-family="Helvetica,sans-Serif" font-size="10.00">_a_obj_yobikusa.h</text>
</a>
</g>
</g>
<!-- Node25&#45;&gt;Node86 -->
<g id="edge34" class="edge">
<title>Node25&#45;&gt;Node86</title>
<path fill="none" stroke="#63b8ff" d="M2432.91,-156.19C2543.55,-153.77 2772.15,-144.26 2961.5,-107 2964.49,-106.41 2967.54,-105.73 2970.6,-104.98"/>
<polygon fill="#63b8ff" stroke="#63b8ff" points="2433.05,-152.68 2423.13,-156.39 2433.2,-159.68 2433.05,-152.68"/>
</g>
<!-- Node87 -->
<g id="node34" class="node">
<title>Node87</title>
<g id="a_node34"><a xlink:href="d__a__tag__telop_8h.html" target="_top" xlink:title=" ">
<polygon fill="white" stroke="#666666" points="3212.5,-107 3094.5,-107 3094.5,-66 3212.5,-66 3212.5,-107"/>
<text text-anchor="start" x="3102.5" y="-95" font-family="Helvetica,sans-Serif" font-size="10.00">include/rel/d/a/tag</text>
<text text-anchor="start" x="3102.5" y="-84" font-family="Helvetica,sans-Serif" font-size="10.00">/d_a_tag_telop/d_a_tag</text>
<text text-anchor="middle" x="3153.5" y="-73" font-family="Helvetica,sans-Serif" font-size="10.00">_telop.h</text>
</a>
</g>
</g>
<!-- Node25&#45;&gt;Node87 -->
<g id="edge35" class="edge">
<title>Node25&#45;&gt;Node87</title>
<path fill="none" stroke="#63b8ff" d="M2433.02,-157.01C2560.57,-156.02 2847.99,-148.83 3085.5,-107 3088.4,-106.49 3091.36,-105.9 3094.33,-105.26"/>
<polygon fill="#63b8ff" stroke="#63b8ff" points="2433.04,-153.51 2423.06,-157.08 2433.08,-160.51 2433.04,-153.51"/>
</g>
<!-- Node88 -->
<g id="node35" class="node">
<title>Node88</title>
<g id="a_node35"><a xlink:href="c__dylink_8cpp.html" target="_top" xlink:title=" ">
<polygon fill="white" stroke="#666666" points="3326,-96 3231,-96 3231,-77 3326,-77 3326,-96"/>
<text text-anchor="middle" x="3278.5" y="-84" font-family="Helvetica,sans-Serif" font-size="10.00">src/c/c_dylink.cpp</text>
</a>
</g>
</g>
<!-- Node25&#45;&gt;Node88 -->
<g id="edge36" class="edge">
<title>Node25&#45;&gt;Node88</title>
<path fill="none" stroke="#63b8ff" d="M2433.18,-155.43C2606.98,-150.98 3070.87,-136.6 3221.5,-107 3233.51,-104.64 3246.45,-100.36 3256.96,-96.42"/>
<polygon fill="#63b8ff" stroke="#63b8ff" points="2433.33,-151.93 2423.42,-155.68 2433.51,-158.93 2433.33,-151.93"/>
</g>
<!-- Node89 -->
<g id="node36" class="node">
<title>Node89</title>
<g id="a_node36"><a xlink:href="d__a__itembase_8cpp.html" target="_top" xlink:title=" ">
<polygon fill="white" stroke="#666666" points="3472.5,-96 3344.5,-96 3344.5,-77 3472.5,-77 3472.5,-96"/>
<text text-anchor="middle" x="3408.5" y="-84" font-family="Helvetica,sans-Serif" font-size="10.00">src/d/a/d_a_itembase.cpp</text>
</a>
</g>
</g>
<!-- Node25&#45;&gt;Node89 -->
<g id="edge38" class="edge">
<title>Node25&#45;&gt;Node89</title>
<path fill="none" stroke="#63b8ff" d="M2433.24,-155.38C2622.66,-150.48 3161.1,-134.48 3335.5,-107 3350.53,-104.63 3366.93,-100.41 3380.37,-96.49"/>
<polygon fill="#63b8ff" stroke="#63b8ff" points="2433.23,-151.88 2423.32,-155.63 2433.41,-158.87 2433.23,-151.88"/>
</g>
<!-- Node90 -->
<g id="node37" class="node">
<title>Node90</title>
<g id="a_node37"><a xlink:href="d__a__obj_8cpp.html" target="_top" xlink:title=" ">
<polygon fill="white" stroke="#666666" points="3592,-96 3491,-96 3491,-77 3592,-77 3592,-96"/>
<text text-anchor="middle" x="3541.5" y="-84" font-family="Helvetica,sans-Serif" font-size="10.00">src/d/a/d_a_obj.cpp</text>
</a>
</g>
</g>
<!-- Node25&#45;&gt;Node90 -->
<g id="edge39" class="edge">
<title>Node25&#45;&gt;Node90</title>
<path fill="none" stroke="#63b8ff" d="M2433.2,-156.36C2641.56,-153.99 3278.48,-143.84 3481.5,-107 3494.11,-104.71 3507.73,-100.44 3518.79,-96.48"/>
<polygon fill="#63b8ff" stroke="#63b8ff" points="2433.32,-152.86 2423.36,-156.47 2433.4,-159.86 2433.32,-152.86"/>
</g>
<!-- Node91 -->
<g id="node38" class="node">
<title>Node91</title>
<g id="a_node38"><a xlink:href="d__bg__s_8cpp.html" target="_top" xlink:title=" ">
<polygon fill="white" stroke="#666666" points="3714.5,-96 3610.5,-96 3610.5,-77 3714.5,-77 3714.5,-96"/>
<text text-anchor="middle" x="3662.5" y="-84" font-family="Helvetica,sans-Serif" font-size="10.00">src/d/bg/d_bg_s.cpp</text>
</a>
</g>
</g>
<!-- Node25&#45;&gt;Node91 -->
<g id="edge42" class="edge">
<title>Node25&#45;&gt;Node91</title>
<path fill="none" stroke="#63b8ff" d="M2433.44,-156.66C2656.64,-155.14 3374.18,-147.18 3601.5,-107 3614.42,-104.72 3628.39,-100.4 3639.7,-96.4"/>
<polygon fill="#63b8ff" stroke="#63b8ff" points="2433.43,-153.16 2423.45,-156.72 2433.47,-160.16 2433.43,-153.16"/>
</g>
<!-- Node92 -->
<g id="node39" class="node">
<title>Node92</title>
<g id="a_node39"><a xlink:href="d__bg__s__movebg__actor_8cpp.html" target="_top" xlink:title=" ">
<polygon fill="white" stroke="#666666" points="3858.5,-101.5 3732.5,-101.5 3732.5,-71.5 3858.5,-71.5 3858.5,-101.5"/>
<text text-anchor="start" x="3740.5" y="-89.5" font-family="Helvetica,sans-Serif" font-size="10.00">src/d/bg/d_bg_s_movebg</text>
<text text-anchor="middle" x="3795.5" y="-78.5" font-family="Helvetica,sans-Serif" font-size="10.00">_actor.cpp</text>
</a>
</g>
</g>
<!-- Node25&#45;&gt;Node92 -->
<g id="edge43" class="edge">
<title>Node25&#45;&gt;Node92</title>
<path fill="none" stroke="#63b8ff" d="M2433.15,-156.55C2669.99,-154.64 3470.38,-145.43 3723.5,-107 3731.57,-105.78 3740.02,-103.97 3748.19,-101.95"/>
<polygon fill="#63b8ff" stroke="#63b8ff" points="2433.45,-153.05 2423.48,-156.63 2433.51,-160.05 2433.45,-153.05"/>
</g>
<!-- Node93 -->
<g id="node40" class="node">
<title>Node93</title>
<g id="a_node40"><a xlink:href="d__bg__w_8cpp.html" target="_top" xlink:title=" ">
<polygon fill="white" stroke="#666666" points="3984,-96 3877,-96 3877,-77 3984,-77 3984,-96"/>
<text text-anchor="middle" x="3930.5" y="-84" font-family="Helvetica,sans-Serif" font-size="10.00">src/d/bg/d_bg_w.cpp</text>
</a>
</g>
</g>
<!-- Node25&#45;&gt;Node93 -->
<g id="edge44" class="edge">
<title>Node25&#45;&gt;Node93</title>
<path fill="none" stroke="#63b8ff" d="M2432.97,-157.14C2685.55,-157.29 3585.63,-154.44 3867.5,-107 3880.82,-104.76 3895.25,-100.44 3906.93,-96.44"/>
<polygon fill="#63b8ff" stroke="#63b8ff" points="2433.31,-153.64 2423.3,-157.13 2433.3,-160.64 2433.31,-153.64"/>
</g>
<!-- Node94 -->
<g id="node41" class="node">
<title>Node94</title>
<g id="a_node41"><a xlink:href="d__cc__s_8cpp.html" target="_top" xlink:title=" ">
<polygon fill="white" stroke="#666666" points="4106.5,-96 4002.5,-96 4002.5,-77 4106.5,-77 4106.5,-96"/>
<text text-anchor="middle" x="4054.5" y="-84" font-family="Helvetica,sans-Serif" font-size="10.00">src/d/cc/d_cc_s.cpp</text>
</a>
</g>
</g>
<!-- Node25&#45;&gt;Node94 -->
<g id="edge45" class="edge">
<title>Node25&#45;&gt;Node94</title>
<path fill="none" stroke="#63b8ff" d="M2433.18,-157.42C2699.33,-158.72 3686.13,-159.78 3993.5,-107 4006.43,-104.78 4020.4,-100.46 4031.71,-96.45"/>
<polygon fill="#63b8ff" stroke="#63b8ff" points="2433.32,-153.92 2423.3,-157.37 2433.28,-160.92 2433.32,-153.92"/>
</g>
<!-- Node95 -->
<g id="node42" class="node">
<title>Node95</title>
<g id="a_node42"><a xlink:href="d__com__static_8cpp.html" target="_top" xlink:title=" ">
<polygon fill="white" stroke="#666666" points="4264.5,-96 4124.5,-96 4124.5,-77 4264.5,-77 4264.5,-96"/>
<text text-anchor="middle" x="4194.5" y="-84" font-family="Helvetica,sans-Serif" font-size="10.00">src/d/com/d_com_static.cpp</text>
</a>
</g>
</g>
<!-- Node25&#45;&gt;Node95 -->
<g id="edge47" class="edge">
<title>Node25&#45;&gt;Node95</title>
<path fill="none" stroke="#63b8ff" d="M2433,-157C2711.03,-156.68 3781.33,-152.49 4115.5,-107 4132.02,-104.75 4150.09,-100.43 4164.78,-96.43"/>
<polygon fill="#63b8ff" stroke="#63b8ff" points="2433.41,-153.49 2423.41,-157 2433.42,-160.49 2433.41,-153.49"/>
</g>
<!-- Node96 -->
<g id="node43" class="node">
<title>Node96</title>
<g id="a_node43"><a xlink:href="d__attention_8cpp.html" target="_top" xlink:title=" ">
<polygon fill="white" stroke="#666666" points="4390,-96 4283,-96 4283,-77 4390,-77 4390,-96"/>
<text text-anchor="middle" x="4336.5" y="-84" font-family="Helvetica,sans-Serif" font-size="10.00">src/d/d_attention.cpp</text>
</a>
</g>
</g>
<!-- Node25&#45;&gt;Node96 -->
<g id="edge48" class="edge">
<title>Node25&#45;&gt;Node96</title>
<path fill="none" stroke="#63b8ff" d="M2433.04,-156.34C2748.9,-153.04 4089.2,-137.35 4273.5,-107 4286.83,-104.8 4301.26,-100.49 4312.94,-96.48"/>
<polygon fill="#63b8ff" stroke="#63b8ff" points="2433.28,-152.83 2423.32,-156.44 2433.36,-159.83 2433.28,-152.83"/>
</g>
<!-- Node97 -->
<g id="node44" class="node">
<title>Node97</title>
<g id="a_node44"><a xlink:href="d__cam__param_8cpp.html" target="_top" xlink:title=" ">
<polygon fill="white" stroke="#666666" points="4529,-96 4408,-96 4408,-77 4529,-77 4529,-96"/>
<text text-anchor="middle" x="4468.5" y="-84" font-family="Helvetica,sans-Serif" font-size="10.00">src/d/d_cam_param.cpp</text>
</a>
</g>
</g>
<!-- Node25&#45;&gt;Node97 -->
<g id="edge49" class="edge">
<title>Node25&#45;&gt;Node97</title>
<path fill="none" stroke="#63b8ff" d="M2433.12,-156.35C2761.68,-153.04 4201.77,-136.89 4399.5,-107 4414.02,-104.8 4429.82,-100.49 4442.63,-96.48"/>
<polygon fill="#63b8ff" stroke="#63b8ff" points="2433.38,-152.85 2423.41,-156.45 2433.45,-159.85 2433.38,-152.85"/>
</g>
<!-- Node98 -->
<g id="node45" class="node">
<title>Node98</title>
<g id="a_node45"><a xlink:href="d__camera_8cpp.html" target="_top" xlink:title=" ">
<polygon fill="white" stroke="#666666" points="4649.5,-96 4547.5,-96 4547.5,-77 4649.5,-77 4649.5,-96"/>
<text text-anchor="middle" x="4598.5" y="-84" font-family="Helvetica,sans-Serif" font-size="10.00">src/d/d_camera.cpp</text>
</a>
</g>
</g>
<!-- Node25&#45;&gt;Node98 -->
<g id="edge50" class="edge">
<title>Node25&#45;&gt;Node98</title>
<path fill="none" stroke="#63b8ff" d="M2433.19,-156.62C2775.47,-154.51 4326.98,-143.01 4538.5,-107 4551.24,-104.83 4564.98,-100.52 4576.1,-96.5"/>
<polygon fill="#63b8ff" stroke="#63b8ff" points="2433.26,-153.12 2423.28,-156.68 2433.3,-160.12 2433.26,-153.12"/>
</g>
<!-- Node37&#45;&gt;Node11 -->
<g id="edge15" class="edge">
<title>Node37&#45;&gt;Node11</title>
<path fill="none" stroke="#63b8ff" d="M1378.7,-73.92C1320.56,-60.13 1224.72,-37.4 1172.06,-24.91"/>
<polygon fill="#63b8ff" stroke="#63b8ff" points="1377.78,-77.3 1388.32,-76.21 1379.4,-70.49 1377.78,-77.3"/>
</g>
<!-- Node37&#45;&gt;Node38 -->
<g id="edge16" class="edge">
<title>Node37&#45;&gt;Node38</title>
<path fill="none" stroke="#63b8ff" d="M1424.37,-65.71C1422.24,-52.29 1419.54,-35.2 1417.92,-24.95"/>
<polygon fill="#63b8ff" stroke="#63b8ff" points="1420.85,-65.87 1425.87,-75.2 1427.76,-64.78 1420.85,-65.87"/>
</g>
<!-- Node37&#45;&gt;Node39 -->
<g id="edge17" class="edge">
<title>Node37&#45;&gt;Node39</title>
<path fill="none" stroke="#63b8ff" d="M1453.39,-70.99C1474.6,-59.1 1504.48,-42.35 1525.68,-30.47"/>
<polygon fill="#63b8ff" stroke="#63b8ff" points="1451.79,-67.87 1444.78,-75.82 1455.21,-73.98 1451.79,-67.87"/>
</g>
<!-- Node58&#45;&gt;Node11 -->
<g id="edge25" class="edge">
<title>Node58&#45;&gt;Node11</title>
<path fill="none" stroke="#63b8ff" d="M1134.5,-59.96C1134.5,-47.57 1134.5,-33.49 1134.5,-24.68"/>
<polygon fill="#63b8ff" stroke="#63b8ff" points="1131,-59.59 1134.5,-69.59 1138,-59.59 1131,-59.59"/>
</g>
<!-- Node84&#45;&gt;Node11 -->
<g id="edge32" class="edge">
<title>Node84&#45;&gt;Node11</title>
<path fill="none" stroke="#63b8ff" d="M1228.32,-65.78C1202.95,-52.32 1170.56,-35.13 1151.23,-24.88"/>
<polygon fill="#63b8ff" stroke="#63b8ff" points="1226.55,-68.8 1237.02,-70.39 1229.83,-62.61 1226.55,-68.8"/>
</g>
<!-- Node84&#45;&gt;Node85 -->
<g id="edge33" class="edge">
<title>Node84&#45;&gt;Node85</title>
<path fill="none" stroke="#63b8ff" d="M1265.87,-59.96C1266.05,-47.57 1266.25,-33.49 1266.38,-24.68"/>
<polygon fill="#63b8ff" stroke="#63b8ff" points="1262.37,-59.54 1265.73,-69.59 1269.37,-59.64 1262.37,-59.54"/>
</g>
</g>
</svg>
