<?xml version="1.0" encoding="UTF-8" standalone="no"?>
<!DOCTYPE svg PUBLIC "-//W3C//DTD SVG 1.1//EN"
 "http://www.w3.org/Graphics/SVG/1.1/DTD/svg11.dtd">
<!-- Generated by graphviz version 7.0.4 (20221203.1631)
 -->
<!-- Title: include/JSystem/J3DGraphBase/J3DTexture.h Pages: 1 -->
<svg width="4621pt" height="379pt"
 viewBox="0.00 0.00 4621.00 379.00" xmlns="http://www.w3.org/2000/svg" xmlns:xlink="http://www.w3.org/1999/xlink">
<g id="graph0" class="graph" transform="scale(1 1) rotate(0) translate(4 375)">
<title>include/JSystem/J3DGraphBase/J3DTexture.h</title>
<!-- Node1 -->
<g id="node1" class="node">
<title>Node1</title>
<g id="a_node1"><a xlink:title=" ">
<polygon fill="#999999" stroke="#666666" points="610.5,-371 475.5,-371 475.5,-341 610.5,-341 610.5,-371"/>
<text text-anchor="start" x="483.5" y="-359" font-family="Helvetica,sans-Serif" font-size="10.00">include/JSystem/J3DGraph</text>
<text text-anchor="middle" x="543" y="-348" font-family="Helvetica,sans-Serif" font-size="10.00">Base/J3DTexture.h</text>
</a>
</g>
</g>
<!-- Node2 -->
<g id="node2" class="node">
<title>Node2</title>
<g id="a_node2"><a xlink:href="J3DMatBlock_8h.html" target="_top" xlink:title=" ">
<polygon fill="white" stroke="#666666" points="532.5,-305 397.5,-305 397.5,-275 532.5,-275 532.5,-305"/>
<text text-anchor="start" x="405.5" y="-293" font-family="Helvetica,sans-Serif" font-size="10.00">include/JSystem/J3DGraph</text>
<text text-anchor="middle" x="465" y="-282" font-family="Helvetica,sans-Serif" font-size="10.00">Base/J3DMatBlock.h</text>
</a>
</g>
</g>
<!-- Node1&#45;&gt;Node2 -->
<g id="edge1" class="edge">
<title>Node1&#45;&gt;Node2</title>
<path fill="none" stroke="#63b8ff" d="M517.04,-333.7C505.7,-324.4 492.7,-313.73 482.53,-305.39"/>
<polygon fill="#63b8ff" stroke="#63b8ff" points="514.57,-336.2 524.52,-339.84 519.01,-330.79 514.57,-336.2"/>
</g>
<!-- Node3 -->
<g id="node3" class="node">
<title>Node3</title>
<g id="a_node3"><a xlink:href="J3DMaterial_8h.html" target="_top" xlink:title=" ">
<polygon fill="white" stroke="#666666" points="436.5,-239 301.5,-239 301.5,-209 436.5,-209 436.5,-239"/>
<text text-anchor="start" x="309.5" y="-227" font-family="Helvetica,sans-Serif" font-size="10.00">include/JSystem/J3DGraph</text>
<text text-anchor="middle" x="369" y="-216" font-family="Helvetica,sans-Serif" font-size="10.00">Base/J3DMaterial.h</text>
</a>
</g>
</g>
<!-- Node1&#45;&gt;Node3 -->
<g id="edge56" class="edge">
<title>Node1&#45;&gt;Node3</title>
<path fill="none" stroke="#63b8ff" d="M464.5,-345.75C436.88,-338.73 407.82,-326.45 388,-305 371.34,-286.97 368.49,-257.05 368.41,-239.36"/>
<polygon fill="#63b8ff" stroke="#63b8ff" points="463.39,-349.08 473.92,-347.93 464.97,-342.26 463.39,-349.08"/>
</g>
<!-- Node102 -->
<g id="node10" class="node">
<title>Node102</title>
<g id="a_node10"><a xlink:href="d__resorce_8cpp.html" target="_top" xlink:title=" ">
<polygon fill="white" stroke="#666666" points="102,-96 0,-96 0,-77 102,-77 102,-96"/>
<text text-anchor="middle" x="51" y="-84" font-family="Helvetica,sans-Serif" font-size="10.00">src/d/d_resorce.cpp</text>
</a>
</g>
</g>
<!-- Node1&#45;&gt;Node102 -->
<g id="edge60" class="edge">
<title>Node1&#45;&gt;Node102</title>
<path fill="none" stroke="#63b8ff" d="M464.17,-342.29C365.39,-322.52 196.53,-275.45 93,-173 70.31,-150.55 57.96,-113.35 53.26,-96.41"/>
<polygon fill="#63b8ff" stroke="#63b8ff" points="463.3,-345.69 473.78,-344.17 464.64,-338.82 463.3,-345.69"/>
</g>
<!-- Node299 -->
<g id="node48" class="node">
<title>Node299</title>
<g id="a_node48"><a xlink:href="J3DSys_8cpp.html" target="_top" xlink:title=" ">
<polygon fill="white" stroke="#666666" points="693,-305 551,-305 551,-275 693,-275 693,-305"/>
<text text-anchor="start" x="559" y="-293" font-family="Helvetica,sans-Serif" font-size="10.00">libs/JSystem/J3DGraphBase</text>
<text text-anchor="middle" x="622" y="-282" font-family="Helvetica,sans-Serif" font-size="10.00">/J3DSys.cpp</text>
</a>
</g>
</g>
<!-- Node1&#45;&gt;Node299 -->
<g id="edge57" class="edge">
<title>Node1&#45;&gt;Node299</title>
<path fill="none" stroke="#63b8ff" d="M569.29,-333.7C580.78,-324.4 593.94,-313.73 604.24,-305.39"/>
<polygon fill="#63b8ff" stroke="#63b8ff" points="567.28,-330.83 561.71,-339.84 571.68,-336.27 567.28,-330.83"/>
</g>
<!-- Node300 -->
<g id="node49" class="node">
<title>Node300</title>
<g id="a_node49"><a xlink:href="J3DTevs_8cpp.html" target="_top" xlink:title=" ">
<polygon fill="white" stroke="#666666" points="853,-305 711,-305 711,-275 853,-275 853,-305"/>
<text text-anchor="start" x="719" y="-293" font-family="Helvetica,sans-Serif" font-size="10.00">libs/JSystem/J3DGraphBase</text>
<text text-anchor="middle" x="782" y="-282" font-family="Helvetica,sans-Serif" font-size="10.00">/J3DTevs.cpp</text>
</a>
</g>
</g>
<!-- Node1&#45;&gt;Node300 -->
<g id="edge58" class="edge">
<title>Node1&#45;&gt;Node300</title>
<path fill="none" stroke="#63b8ff" d="M607.82,-337.64C645.57,-327.53 692.59,-314.94 728.26,-305.39"/>
<polygon fill="#63b8ff" stroke="#63b8ff" points="607.15,-334.2 598.4,-340.17 608.96,-340.96 607.15,-334.2"/>
</g>
<!-- Node301 -->
<g id="node50" class="node">
<title>Node301</title>
<g id="a_node50"><a xlink:href="J3DTexture_8cpp.html" target="_top" xlink:title=" ">
<polygon fill="white" stroke="#666666" points="1013,-305 871,-305 871,-275 1013,-275 1013,-305"/>
<text text-anchor="start" x="879" y="-293" font-family="Helvetica,sans-Serif" font-size="10.00">libs/JSystem/J3DGraphBase</text>
<text text-anchor="middle" x="942" y="-282" font-family="Helvetica,sans-Serif" font-size="10.00">/J3DTexture.cpp</text>
</a>
</g>
</g>
<!-- Node1&#45;&gt;Node301 -->
<g id="edge59" class="edge">
<title>Node1&#45;&gt;Node301</title>
<path fill="none" stroke="#63b8ff" d="M622.2,-342.99C686.78,-333.09 780.35,-318.54 862,-305 864.92,-304.52 867.9,-304.02 870.91,-303.51"/>
<polygon fill="#63b8ff" stroke="#63b8ff" points="621.74,-339.52 612.38,-344.49 622.8,-346.44 621.74,-339.52"/>
</g>
<!-- Node2&#45;&gt;Node3 -->
<g id="edge2" class="edge">
<title>Node2&#45;&gt;Node3</title>
<path fill="none" stroke="#63b8ff" d="M434.29,-268.52C420.05,-259.03 403.47,-247.98 390.58,-239.39"/>
<polygon fill="#63b8ff" stroke="#63b8ff" points="432.17,-271.32 442.44,-273.96 436.06,-265.5 432.17,-271.32"/>
</g>
<!-- Node24 -->
<g id="node11" class="node">
<title>Node24</title>
<g id="a_node11"><a xlink:href="d__a__alink_8h.html" target="_top" xlink:title=" ">
<polygon fill="white" stroke="#666666" points="628,-233.5 512,-233.5 512,-214.5 628,-214.5 628,-233.5"/>
<text text-anchor="middle" x="570" y="-221.5" font-family="Helvetica,sans-Serif" font-size="10.00">include/d/a/d_a_alink.h</text>
</a>
</g>
</g>
<!-- Node2&#45;&gt;Node24 -->
<g id="edge10" class="edge">
<title>Node2&#45;&gt;Node24</title>
<path fill="none" stroke="#63b8ff" d="M498.16,-268.79C517.34,-257.1 540.51,-242.97 555.26,-233.99"/>
<polygon fill="#63b8ff" stroke="#63b8ff" points="496.57,-265.66 489.86,-273.85 500.22,-271.63 496.57,-265.66"/>
</g>
<!-- Node298 -->
<g id="node47" class="node">
<title>Node298</title>
<g id="a_node47"><a xlink:href="J3DMatBlock_8cpp.html" target="_top" xlink:title=" ">
<polygon fill="white" stroke="#666666" points="788,-239 646,-239 646,-209 788,-209 788,-239"/>
<text text-anchor="start" x="654" y="-227" font-family="Helvetica,sans-Serif" font-size="10.00">libs/JSystem/J3DGraphBase</text>
<text text-anchor="middle" x="717" y="-216" font-family="Helvetica,sans-Serif" font-size="10.00">/J3DMatBlock.cpp</text>
</a>
</g>
</g>
<!-- Node2&#45;&gt;Node298 -->
<g id="edge55" class="edge">
<title>Node2&#45;&gt;Node298</title>
<path fill="none" stroke="#63b8ff" d="M532.83,-271.77C572.72,-261.64 622.57,-248.98 660.34,-239.39"/>
<polygon fill="#63b8ff" stroke="#63b8ff" points="532.17,-268.33 523.33,-274.18 533.89,-275.12 532.17,-268.33"/>
</g>
<!-- Node4 -->
<g id="node4" class="node">
<title>Node4</title>
<g id="a_node4"><a xlink:href="J3DJoint_8h.html" target="_top" xlink:title=" ">
<polygon fill="white" stroke="#666666" points="279.5,-173 144.5,-173 144.5,-143 279.5,-143 279.5,-173"/>
<text text-anchor="start" x="152.5" y="-161" font-family="Helvetica,sans-Serif" font-size="10.00">include/JSystem/J3DGraph</text>
<text text-anchor="middle" x="212" y="-150" font-family="Helvetica,sans-Serif" font-size="10.00">Animator/J3DJoint.h</text>
</a>
</g>
</g>
<!-- Node3&#45;&gt;Node4 -->
<g id="edge3" class="edge">
<title>Node3&#45;&gt;Node4</title>
<path fill="none" stroke="#63b8ff" d="M323.39,-204.41C299.18,-194.54 269.86,-182.59 247.39,-173.43"/>
<polygon fill="#63b8ff" stroke="#63b8ff" points="321.78,-207.53 332.36,-208.07 324.43,-201.05 321.78,-207.53"/>
</g>
<!-- Node297 -->
<g id="node8" class="node">
<title>Node297</title>
<g id="a_node8"><a xlink:href="J3DMaterial_8cpp.html" target="_top" xlink:title=" ">
<polygon fill="white" stroke="#666666" points="440,-173 298,-173 298,-143 440,-143 440,-173"/>
<text text-anchor="start" x="306" y="-161" font-family="Helvetica,sans-Serif" font-size="10.00">libs/JSystem/J3DGraphBase</text>
<text text-anchor="middle" x="369" y="-150" font-family="Helvetica,sans-Serif" font-size="10.00">/J3DMaterial.cpp</text>
</a>
</g>
</g>
<!-- Node3&#45;&gt;Node297 -->
<g id="edge7" class="edge">
<title>Node3&#45;&gt;Node297</title>
<path fill="none" stroke="#63b8ff" d="M369,-197.39C369,-189.13 369,-180.28 369,-173.16"/>
<polygon fill="#63b8ff" stroke="#63b8ff" points="365.5,-197.28 369,-207.28 372.5,-197.28 365.5,-197.28"/>
</g>
<!-- Node286 -->
<g id="node9" class="node">
<title>Node286</title>
<g id="a_node9"><a xlink:href="J3DPacket_8cpp.html" target="_top" xlink:title=" ">
<polygon fill="white" stroke="#666666" points="600,-173 458,-173 458,-143 600,-143 600,-173"/>
<text text-anchor="start" x="466" y="-161" font-family="Helvetica,sans-Serif" font-size="10.00">libs/JSystem/J3DGraphBase</text>
<text text-anchor="middle" x="529" y="-150" font-family="Helvetica,sans-Serif" font-size="10.00">/J3DPacket.cpp</text>
</a>
</g>
</g>
<!-- Node3&#45;&gt;Node286 -->
<g id="edge8" class="edge">
<title>Node3&#45;&gt;Node286</title>
<path fill="none" stroke="#63b8ff" d="M415.48,-204.41C440.16,-194.54 470.03,-182.59 492.94,-173.43"/>
<polygon fill="#63b8ff" stroke="#63b8ff" points="414.3,-201.11 406.31,-208.08 416.9,-207.61 414.3,-201.11"/>
</g>
<!-- Node3&#45;&gt;Node102 -->
<g id="edge9" class="edge">
<title>Node3&#45;&gt;Node102</title>
<path fill="none" stroke="#63b8ff" d="M289.67,-217.55C242.38,-211.59 182.51,-199.1 135,-173 99.44,-153.46 69.31,-114.08 56.98,-96.42"/>
<polygon fill="#63b8ff" stroke="#63b8ff" points="289.26,-221.03 299.6,-218.72 290.08,-214.07 289.26,-221.03"/>
</g>
<!-- Node5 -->
<g id="node5" class="node">
<title>Node5</title>
<g id="a_node5"><a xlink:href="J3DJointTree_8h.html" target="_top" xlink:title=" ">
<polygon fill="#fff0f0" stroke="red" points="255.5,-101.5 120.5,-101.5 120.5,-71.5 255.5,-71.5 255.5,-101.5"/>
<text text-anchor="start" x="128.5" y="-89.5" font-family="Helvetica,sans-Serif" font-size="10.00">include/JSystem/J3DGraph</text>
<text text-anchor="middle" x="188" y="-78.5" font-family="Helvetica,sans-Serif" font-size="10.00">Animator/J3DJointTree.h</text>
</a>
</g>
</g>
<!-- Node4&#45;&gt;Node5 -->
<g id="edge4" class="edge">
<title>Node4&#45;&gt;Node5</title>
<path fill="none" stroke="#63b8ff" d="M203.34,-131.91C199.85,-121.82 195.96,-110.54 192.97,-101.88"/>
<polygon fill="#63b8ff" stroke="#63b8ff" points="199.96,-132.86 206.53,-141.17 206.58,-130.57 199.96,-132.86"/>
</g>
<!-- Node291 -->
<g id="node6" class="node">
<title>Node291</title>
<g id="a_node6"><a xlink:href="J3DJoint_8cpp.html" target="_top" xlink:title=" ">
<polygon fill="white" stroke="#666666" points="432,-101.5 274,-101.5 274,-71.5 432,-71.5 432,-101.5"/>
<text text-anchor="start" x="282" y="-89.5" font-family="Helvetica,sans-Serif" font-size="10.00">libs/JSystem/J3DGraphAnimator</text>
<text text-anchor="middle" x="353" y="-78.5" font-family="Helvetica,sans-Serif" font-size="10.00">/J3DJoint.cpp</text>
</a>
</g>
</g>
<!-- Node4&#45;&gt;Node291 -->
<g id="edge5" class="edge">
<title>Node4&#45;&gt;Node291</title>
<path fill="none" stroke="#63b8ff" d="M251.34,-137.61C274.33,-126.28 302.85,-112.22 323.82,-101.88"/>
<polygon fill="#63b8ff" stroke="#63b8ff" points="250,-134.37 242.57,-141.93 253.09,-140.65 250,-134.37"/>
</g>
<!-- Node296 -->
<g id="node7" class="node">
<title>Node296</title>
<g id="a_node7"><a xlink:href="J3DJointFactory_8cpp.html" target="_top" xlink:title=" ">
<polygon fill="white" stroke="#666666" points="599.5,-101.5 450.5,-101.5 450.5,-71.5 599.5,-71.5 599.5,-101.5"/>
<text text-anchor="start" x="458.5" y="-89.5" font-family="Helvetica,sans-Serif" font-size="10.00">libs/JSystem/J3DGraphLoader</text>
<text text-anchor="middle" x="525" y="-78.5" font-family="Helvetica,sans-Serif" font-size="10.00">/J3DJointFactory.cpp</text>
</a>
</g>
</g>
<!-- Node4&#45;&gt;Node296 -->
<g id="edge6" class="edge">
<title>Node4&#45;&gt;Node296</title>
<path fill="none" stroke="#63b8ff" d="M290.42,-140.15C334.66,-130.57 390.95,-118.27 441,-107 448.16,-105.39 455.65,-103.68 463.09,-101.97"/>
<polygon fill="#63b8ff" stroke="#63b8ff" points="289.95,-136.66 280.92,-142.2 291.43,-143.51 289.95,-136.66"/>
</g>
<!-- Node25 -->
<g id="node12" class="node">
<title>Node25</title>
<g id="a_node12"><a xlink:href="d__com__inf__game_8h.html" target="_top" xlink:title=" ">
<polygon fill="#fff0f0" stroke="red" points="2654,-173 2544,-173 2544,-143 2654,-143 2654,-173"/>
<text text-anchor="start" x="2552" y="-161" font-family="Helvetica,sans-Serif" font-size="10.00">include/d/com/d_com</text>
<text text-anchor="middle" x="2599" y="-150" font-family="Helvetica,sans-Serif" font-size="10.00">_inf_game.h</text>
</a>
</g>
</g>
<!-- Node24&#45;&gt;Node25 -->
<g id="edge11" class="edge">
<title>Node24&#45;&gt;Node25</title>
<path fill="none" stroke="#63b8ff" d="M618.18,-211.85C624.48,-210.71 630.88,-209.71 637,-209 1020.94,-164.37 2265.32,-159.57 2543.5,-159.06"/>
<polygon fill="#63b8ff" stroke="#63b8ff" points="617.65,-208.39 608.5,-213.73 618.99,-215.26 617.65,-208.39"/>
</g>
<!-- Node11 -->
<g id="node16" class="node">
<title>Node11</title>
<g id="a_node16"><a xlink:href="d__a__alink_8cpp.html" target="_top" xlink:title=" ">
<polygon fill="white" stroke="#666666" points="4210.5,-24.5 4101.5,-24.5 4101.5,-5.5 4210.5,-5.5 4210.5,-24.5"/>
<text text-anchor="middle" x="4156" y="-12.5" font-family="Helvetica,sans-Serif" font-size="10.00">src/d/a/d_a_alink.cpp</text>
</a>
</g>
</g>
<!-- Node24&#45;&gt;Node11 -->
<g id="edge54" class="edge">
<title>Node24&#45;&gt;Node11</title>
<path fill="none" stroke="#63b8ff" d="M584.06,-205.38C591.56,-195.87 600.9,-183.88 609,-173 643.84,-126.21 633.36,-93.13 685,-66 724.48,-45.25 3661.11,-20.1 4101.09,-16.45"/>
<polygon fill="#63b8ff" stroke="#63b8ff" points="581.44,-203.05 577.97,-213.06 586.92,-207.4 581.44,-203.05"/>
</g>
<!-- Node25&#45;&gt;Node102 -->
<g id="edge53" class="edge">
<title>Node25&#45;&gt;Node102</title>
<path fill="none" stroke="#63b8ff" d="M2532.41,-156.83C2161.21,-155.72 355.43,-148.24 111,-107 98.15,-104.83 84.28,-100.47 73.12,-96.41"/>
<polygon fill="#63b8ff" stroke="#63b8ff" points="2532.21,-160.33 2542.22,-156.86 2532.23,-153.33 2532.21,-160.33"/>
</g>
<!-- Node26 -->
<g id="node13" class="node">
<title>Node26</title>
<g id="a_node13"><a xlink:href="d__a__npc_8h.html" target="_top" xlink:title=" ">
<polygon fill="#fff0f0" stroke="red" points="3903.5,-96 3792.5,-96 3792.5,-77 3903.5,-77 3903.5,-96"/>
<text text-anchor="middle" x="3848" y="-84" font-family="Helvetica,sans-Serif" font-size="10.00">include/d/a/d_a_npc.h</text>
</a>
</g>
</g>
<!-- Node25&#45;&gt;Node26 -->
<g id="edge12" class="edge">
<title>Node25&#45;&gt;Node26</title>
<path fill="none" stroke="#63b8ff" d="M2665.69,-156.37C2882.44,-153.96 3565.6,-143.61 3783,-107 3796.59,-104.71 3811.34,-100.44 3823.34,-96.48"/>
<polygon fill="#63b8ff" stroke="#63b8ff" points="2665.68,-152.87 2655.72,-156.47 2665.75,-159.87 2665.68,-152.87"/>
</g>
<!-- Node32 -->
<g id="node14" class="node">
<title>Node32</title>
<g id="a_node14"><a xlink:href="d__cc__uty_8h.html" target="_top" xlink:title=" ">
<polygon fill="#fff0f0" stroke="red" points="4040.5,-96 3921.5,-96 3921.5,-77 4040.5,-77 4040.5,-96"/>
<text text-anchor="middle" x="3981" y="-84" font-family="Helvetica,sans-Serif" font-size="10.00">include/d/cc/d_cc_uty.h</text>
</a>
</g>
</g>
<!-- Node25&#45;&gt;Node32 -->
<g id="edge13" class="edge">
<title>Node25&#45;&gt;Node32</title>
<path fill="none" stroke="#63b8ff" d="M2665.47,-156.59C2897.24,-154.82 3668.87,-146.06 3913,-107 3927.19,-104.73 3942.61,-100.46 3955.18,-96.5"/>
<polygon fill="#63b8ff" stroke="#63b8ff" points="2665.68,-153.09 2655.71,-156.66 2665.73,-160.09 2665.68,-153.09"/>
</g>
<!-- Node37 -->
<g id="node15" class="node">
<title>Node37</title>
<g id="a_node15"><a xlink:href="d__item_8h.html" target="_top" xlink:title=" ">
<polygon fill="#fff0f0" stroke="red" points="4530.5,-96 4435.5,-96 4435.5,-77 4530.5,-77 4530.5,-96"/>
<text text-anchor="middle" x="4483" y="-84" font-family="Helvetica,sans-Serif" font-size="10.00">include/d/d_item.h</text>
</a>
</g>
</g>
<!-- Node25&#45;&gt;Node37 -->
<g id="edge14" class="edge">
<title>Node25&#45;&gt;Node37</title>
<path fill="none" stroke="#63b8ff" d="M2665.54,-156.27C2972.63,-152.73 4245.56,-136.41 4421,-107 4434.13,-104.8 4448.33,-100.48 4459.82,-96.47"/>
<polygon fill="#63b8ff" stroke="#63b8ff" points="2665.65,-152.76 2655.69,-156.38 2665.73,-159.76 2665.65,-152.76"/>
</g>
<!-- Node25&#45;&gt;Node11 -->
<g id="edge38" class="edge">
<title>Node25&#45;&gt;Node11</title>
<path fill="none" stroke="#63b8ff" d="M2665.57,-156.14C2962.32,-152.18 4151.28,-134.58 4178,-107 4200.17,-84.12 4175.49,-42.93 4162.71,-24.88"/>
<polygon fill="#63b8ff" stroke="#63b8ff" points="2665.62,-152.64 2655.67,-156.28 2665.71,-159.64 2665.62,-152.64"/>
</g>
<!-- Node38 -->
<g id="node17" class="node">
<title>Node38</title>
<g id="a_node17"><a xlink:href="d__a__obj__item_8cpp.html" target="_top" xlink:title=" ">
<polygon fill="white" stroke="#666666" points="4486.5,-24.5 4361.5,-24.5 4361.5,-5.5 4486.5,-5.5 4486.5,-24.5"/>
<text text-anchor="middle" x="4424" y="-12.5" font-family="Helvetica,sans-Serif" font-size="10.00">src/d/a/d_a_obj_item.cpp</text>
</a>
</g>
</g>
<!-- Node25&#45;&gt;Node38 -->
<g id="edge41" class="edge">
<title>Node25&#45;&gt;Node38</title>
<path fill="none" stroke="#63b8ff" d="M2665.26,-156.87C2977.71,-156.04 4291.89,-149.98 4367,-107 4399.2,-88.58 4415.78,-43.81 4421.57,-24.78"/>
<polygon fill="#63b8ff" stroke="#63b8ff" points="2665.64,-153.37 2655.65,-156.89 2665.66,-160.37 2665.64,-153.37"/>
</g>
<!-- Node39 -->
<g id="node18" class="node">
<title>Node39</title>
<g id="a_node18"><a xlink:href="d__com__inf__game_8cpp.html" target="_top" xlink:title=" ">
<polygon fill="white" stroke="#666666" points="4613,-30 4505,-30 4505,0 4613,0 4613,-30"/>
<text text-anchor="start" x="4513" y="-18" font-family="Helvetica,sans-Serif" font-size="10.00">src/d/com/d_com_inf</text>
<text text-anchor="middle" x="4559" y="-7" font-family="Helvetica,sans-Serif" font-size="10.00">_game.cpp</text>
</a>
</g>
</g>
<!-- Node25&#45;&gt;Node39 -->
<g id="edge47" class="edge">
<title>Node25&#45;&gt;Node39</title>
<path fill="none" stroke="#63b8ff" d="M2665.86,-156.41C3003.14,-153.28 4503.25,-137.66 4540,-107 4562.31,-88.39 4562.64,-50.96 4560.87,-30.38"/>
<polygon fill="#63b8ff" stroke="#63b8ff" points="2665.84,-152.91 2655.87,-156.5 2665.9,-159.91 2665.84,-152.91"/>
</g>
<!-- Node42 -->
<g id="node19" class="node">
<title>Node42</title>
<g id="a_node19"><a xlink:href="d__kantera__icon__meter_8h.html" target="_top" xlink:title=" ">
<polygon fill="#fff0f0" stroke="red" points="795.5,-101.5 694.5,-101.5 694.5,-71.5 795.5,-71.5 795.5,-101.5"/>
<text text-anchor="start" x="702.5" y="-89.5" font-family="Helvetica,sans-Serif" font-size="10.00">include/d/d_kantera</text>
<text text-anchor="middle" x="745" y="-78.5" font-family="Helvetica,sans-Serif" font-size="10.00">_icon_meter.h</text>
</a>
</g>
</g>
<!-- Node25&#45;&gt;Node42 -->
<g id="edge18" class="edge">
<title>Node25&#45;&gt;Node42</title>
<path fill="none" stroke="#63b8ff" d="M2532.44,-156.29C2228.1,-152.9 976.43,-137.23 804,-107 797.2,-105.81 790.11,-103.99 783.31,-101.94"/>
<polygon fill="#63b8ff" stroke="#63b8ff" points="2532.15,-159.79 2542.19,-156.4 2532.23,-152.79 2532.15,-159.79"/>
</g>
<!-- Node44 -->
<g id="node20" class="node">
<title>Node44</title>
<g id="a_node20"><a xlink:href="d__model_8h.html" target="_top" xlink:title=" ">
<polygon fill="#fff0f0" stroke="red" points="916.5,-96 813.5,-96 813.5,-77 916.5,-77 916.5,-96"/>
<text text-anchor="middle" x="865" y="-84" font-family="Helvetica,sans-Serif" font-size="10.00">include/d/d_model.h</text>
</a>
</g>
</g>
<!-- Node25&#45;&gt;Node44 -->
<g id="edge19" class="edge">
<title>Node25&#45;&gt;Node44</title>
<path fill="none" stroke="#63b8ff" d="M2532.7,-156.13C2241.73,-152.17 1085.07,-134.81 925,-107 912.27,-104.79 898.52,-100.47 887.41,-96.46"/>
<polygon fill="#63b8ff" stroke="#63b8ff" points="2532.34,-159.63 2542.38,-156.26 2532.43,-152.63 2532.34,-159.63"/>
</g>
<!-- Node46 -->
<g id="node21" class="node">
<title>Node46</title>
<g id="a_node21"><a xlink:href="d__name_8h.html" target="_top" xlink:title=" ">
<polygon fill="#fff0f0" stroke="red" points="1035.5,-96 934.5,-96 934.5,-77 1035.5,-77 1035.5,-96"/>
<text text-anchor="middle" x="985" y="-84" font-family="Helvetica,sans-Serif" font-size="10.00">include/d/d_name.h</text>
</a>
</g>
</g>
<!-- Node25&#45;&gt;Node46 -->
<g id="edge20" class="edge">
<title>Node25&#45;&gt;Node46</title>
<path fill="none" stroke="#63b8ff" d="M2532.35,-157.35C2273.83,-158.32 1337.31,-158.14 1045,-107 1032.27,-104.77 1018.53,-100.46 1007.41,-96.45"/>
<polygon fill="#63b8ff" stroke="#63b8ff" points="2532.28,-160.85 2542.27,-157.31 2532.25,-153.85 2532.28,-160.85"/>
</g>
<!-- Node47 -->
<g id="node22" class="node">
<title>Node47</title>
<g id="a_node22"><a xlink:href="d__file__sel__info_8h.html" target="_top" xlink:title=" ">
<polygon fill="#fff0f0" stroke="red" points="1150,-101.5 1054,-101.5 1054,-71.5 1150,-71.5 1150,-101.5"/>
<text text-anchor="start" x="1062" y="-89.5" font-family="Helvetica,sans-Serif" font-size="10.00">include/d/file/d_file</text>
<text text-anchor="middle" x="1102" y="-78.5" font-family="Helvetica,sans-Serif" font-size="10.00">_sel_info.h</text>
</a>
</g>
</g>
<!-- Node25&#45;&gt;Node47 -->
<g id="edge21" class="edge">
<title>Node25&#45;&gt;Node47</title>
<path fill="none" stroke="#63b8ff" d="M2532.35,-157.28C2286.04,-157.93 1427.65,-156.49 1159,-107 1152.42,-105.79 1145.56,-103.96 1138.99,-101.91"/>
<polygon fill="#63b8ff" stroke="#63b8ff" points="2532.1,-160.78 2542.09,-157.26 2532.08,-153.78 2532.1,-160.78"/>
</g>
<!-- Node49 -->
<g id="node23" class="node">
<title>Node49</title>
<g id="a_node23"><a xlink:href="d__file__sel__warning_8h.html" target="_top" xlink:title=" ">
<polygon fill="#fff0f0" stroke="red" points="1264,-101.5 1168,-101.5 1168,-71.5 1264,-71.5 1264,-101.5"/>
<text text-anchor="start" x="1176" y="-89.5" font-family="Helvetica,sans-Serif" font-size="10.00">include/d/file/d_file</text>
<text text-anchor="middle" x="1216" y="-78.5" font-family="Helvetica,sans-Serif" font-size="10.00">_sel_warning.h</text>
</a>
</g>
</g>
<!-- Node25&#45;&gt;Node49 -->
<g id="edge22" class="edge">
<title>Node25&#45;&gt;Node49</title>
<path fill="none" stroke="#63b8ff" d="M2532.25,-157.05C2298.59,-156.82 1518.43,-152.59 1273,-107 1266.52,-105.8 1259.78,-104 1253.3,-101.99"/>
<polygon fill="#63b8ff" stroke="#63b8ff" points="2532.09,-160.55 2542.1,-157.06 2532.1,-153.55 2532.09,-160.55"/>
</g>
<!-- Node51 -->
<g id="node24" class="node">
<title>Node51</title>
<g id="a_node24"><a xlink:href="d__meter2_8h.html" target="_top" xlink:title=" ">
<polygon fill="#fff0f0" stroke="red" points="1416,-96 1282,-96 1282,-77 1416,-77 1416,-96"/>
<text text-anchor="middle" x="1349" y="-84" font-family="Helvetica,sans-Serif" font-size="10.00">include/d/meter/d_meter2.h</text>
</a>
</g>
</g>
<!-- Node25&#45;&gt;Node51 -->
<g id="edge23" class="edge">
<title>Node25&#45;&gt;Node51</title>
<path fill="none" stroke="#63b8ff" d="M2532.25,-155.96C2316.88,-152.31 1641.86,-138.59 1426,-107 1410.04,-104.66 1392.58,-100.39 1378.33,-96.44"/>
<polygon fill="#63b8ff" stroke="#63b8ff" points="2532.1,-159.46 2542.15,-156.12 2532.21,-152.46 2532.1,-159.46"/>
</g>
<!-- Node58 -->
<g id="node25" class="node">
<title>Node58</title>
<g id="a_node25"><a xlink:href="d__msg__object_8h.html" target="_top" xlink:title=" ">
<polygon fill="#fff0f0" stroke="red" points="4169,-101.5 4059,-101.5 4059,-71.5 4169,-71.5 4169,-101.5"/>
<text text-anchor="start" x="4067" y="-89.5" font-family="Helvetica,sans-Serif" font-size="10.00">include/d/msg/d_msg</text>
<text text-anchor="middle" x="4114" y="-78.5" font-family="Helvetica,sans-Serif" font-size="10.00">_object.h</text>
</a>
</g>
</g>
<!-- Node25&#45;&gt;Node58 -->
<g id="edge24" class="edge">
<title>Node25&#45;&gt;Node58</title>
<path fill="none" stroke="#63b8ff" d="M2665.69,-157.01C2913.14,-156.68 3778.33,-152.26 4050,-107 4057.22,-105.8 4064.76,-104.01 4072.03,-101.99"/>
<polygon fill="#63b8ff" stroke="#63b8ff" points="2665.89,-153.51 2655.89,-157.02 2665.9,-160.51 2665.89,-153.51"/>
</g>
<!-- Node63 -->
<g id="node26" class="node">
<title>Node63</title>
<g id="a_node26"><a xlink:href="d__demo_8cpp.html" target="_top" xlink:title=" ">
<polygon fill="white" stroke="#666666" points="2398,-24.5 2304,-24.5 2304,-5.5 2398,-5.5 2398,-24.5"/>
<text text-anchor="middle" x="2351" y="-12.5" font-family="Helvetica,sans-Serif" font-size="10.00">src/d/d_demo.cpp</text>
</a>
</g>
</g>
<!-- Node25&#45;&gt;Node63 -->
<g id="edge52" class="edge">
<title>Node25&#45;&gt;Node63</title>
<path fill="none" stroke="#63b8ff" d="M2532.13,-156.52C2197.32,-153.97 717.91,-140.78 685,-107 672.28,-93.95 672.31,-79.08 685,-66 713.97,-36.15 2035.66,-19.58 2303.83,-16.52"/>
<polygon fill="#63b8ff" stroke="#63b8ff" points="2532.01,-160.02 2542.04,-156.6 2532.06,-153.02 2532.01,-160.02"/>
</g>
<!-- Node72 -->
<g id="node27" class="node">
<title>Node72</title>
<g id="a_node27"><a xlink:href="d__s__logo_8h.html" target="_top" xlink:title=" ">
<polygon fill="#fff0f0" stroke="red" points="1547.5,-96 1434.5,-96 1434.5,-77 1547.5,-77 1547.5,-96"/>
<text text-anchor="middle" x="1491" y="-84" font-family="Helvetica,sans-Serif" font-size="10.00">include/d/s/d_s_logo.h</text>
</a>
</g>
</g>
<!-- Node25&#45;&gt;Node72 -->
<g id="edge27" class="edge">
<title>Node25&#45;&gt;Node72</title>
<path fill="none" stroke="#63b8ff" d="M2532.36,-155.88C2333.4,-152.23 1745.76,-138.94 1557,-107 1543.22,-104.67 1528.25,-100.39 1516.05,-96.44"/>
<polygon fill="#63b8ff" stroke="#63b8ff" points="2532.21,-159.38 2542.27,-156.06 2532.34,-152.38 2532.21,-159.38"/>
</g>
<!-- Node74 -->
<g id="node28" class="node">
<title>Node74</title>
<g id="a_node28"><a xlink:href="d__s__play_8h.html" target="_top" xlink:title=" ">
<polygon fill="#fff0f0" stroke="red" points="1678.5,-96 1565.5,-96 1565.5,-77 1678.5,-77 1678.5,-96"/>
<text text-anchor="middle" x="1622" y="-84" font-family="Helvetica,sans-Serif" font-size="10.00">include/d/s/d_s_play.h</text>
</a>
</g>
</g>
<!-- Node25&#45;&gt;Node74 -->
<g id="edge28" class="edge">
<title>Node25&#45;&gt;Node74</title>
<path fill="none" stroke="#63b8ff" d="M2532.2,-155.35C2350.55,-150.53 1850.37,-135.05 1688,-107 1674.22,-104.62 1659.26,-100.34 1647.06,-96.4"/>
<polygon fill="#63b8ff" stroke="#63b8ff" points="2532.09,-158.85 2542.18,-155.61 2532.28,-151.85 2532.09,-158.85"/>
</g>
<!-- Node78 -->
<g id="node29" class="node">
<title>Node78</title>
<g id="a_node29"><a xlink:href="d__msg__scrn__base_8h.html" target="_top" xlink:title=" ">
<polygon fill="#fff0f0" stroke="red" points="1795.5,-101.5 1696.5,-101.5 1696.5,-71.5 1795.5,-71.5 1795.5,-101.5"/>
<text text-anchor="start" x="1704.5" y="-89.5" font-family="Helvetica,sans-Serif" font-size="10.00">include/msg/scrn/d</text>
<text text-anchor="middle" x="1746" y="-78.5" font-family="Helvetica,sans-Serif" font-size="10.00">_msg_scrn_base.h</text>
</a>
</g>
</g>
<!-- Node25&#45;&gt;Node78 -->
<g id="edge29" class="edge">
<title>Node25&#45;&gt;Node78</title>
<path fill="none" stroke="#63b8ff" d="M2532.29,-155C2367.33,-149.69 1943.64,-133.81 1805,-107 1798.43,-105.73 1791.59,-103.93 1784.98,-101.93"/>
<polygon fill="#63b8ff" stroke="#63b8ff" points="2532.09,-158.49 2542.19,-155.31 2532.31,-151.5 2532.09,-158.49"/>
</g>
<!-- Node82 -->
<g id="node30" class="node">
<title>Node82</title>
<g id="a_node30"><a xlink:href="d__a__b__zant_8h.html" target="_top" xlink:title=" ">
<polygon fill="white" stroke="#666666" points="1934.5,-101.5 1813.5,-101.5 1813.5,-71.5 1934.5,-71.5 1934.5,-101.5"/>
<text text-anchor="start" x="1821.5" y="-89.5" font-family="Helvetica,sans-Serif" font-size="10.00">include/rel/d/a/b/d</text>
<text text-anchor="middle" x="1874" y="-78.5" font-family="Helvetica,sans-Serif" font-size="10.00">_a_b_zant/d_a_b_zant.h</text>
</a>
</g>
</g>
<!-- Node25&#45;&gt;Node82 -->
<g id="edge30" class="edge">
<title>Node25&#45;&gt;Node82</title>
<path fill="none" stroke="#63b8ff" d="M2532.35,-156.2C2413.33,-153.82 2156.79,-144.39 1944,-107 1936.54,-105.69 1928.74,-103.92 1921.16,-101.99"/>
<polygon fill="#63b8ff" stroke="#63b8ff" points="2532.2,-159.7 2542.26,-156.39 2532.33,-152.7 2532.2,-159.7"/>
</g>
<!-- Node83 -->
<g id="node31" class="node">
<title>Node83</title>
<g id="a_node31"><a xlink:href="d__a__skip__2D_8h.html" target="_top" xlink:title=" ">
<polygon fill="white" stroke="#666666" points="2077,-101.5 1953,-101.5 1953,-71.5 2077,-71.5 2077,-101.5"/>
<text text-anchor="start" x="1961" y="-89.5" font-family="Helvetica,sans-Serif" font-size="10.00">include/rel/d/a/d_a</text>
<text text-anchor="middle" x="2015" y="-78.5" font-family="Helvetica,sans-Serif" font-size="10.00">_skip_2D/d_a_skip_2D.h</text>
</a>
</g>
</g>
<!-- Node25&#45;&gt;Node83 -->
<g id="edge31" class="edge">
<title>Node25&#45;&gt;Node83</title>
<path fill="none" stroke="#63b8ff" d="M2532.42,-154.05C2434.27,-148.91 2245.24,-135.95 2087,-107 2079.48,-105.63 2071.61,-103.85 2063.94,-101.93"/>
<polygon fill="#63b8ff" stroke="#63b8ff" points="2531.97,-157.54 2542.14,-154.55 2532.33,-150.55 2531.97,-157.54"/>
</g>
<!-- Node84 -->
<g id="node32" class="node">
<title>Node84</title>
<g id="a_node32"><a xlink:href="d__a__spinner_8h.html" target="_top" xlink:title=" ">
<polygon fill="white" stroke="#666666" points="4341,-101.5 4225,-101.5 4225,-71.5 4341,-71.5 4341,-101.5"/>
<text text-anchor="start" x="4233" y="-89.5" font-family="Helvetica,sans-Serif" font-size="10.00">include/rel/d/a/d_a</text>
<text text-anchor="middle" x="4283" y="-78.5" font-family="Helvetica,sans-Serif" font-size="10.00">_spinner/d_a_spinner.h</text>
</a>
</g>
</g>
<!-- Node25&#45;&gt;Node84 -->
<g id="edge32" class="edge">
<title>Node25&#45;&gt;Node84</title>
<path fill="none" stroke="#63b8ff" d="M2665.44,-157C2929.55,-156.7 3905.54,-152.46 4211,-107 4219.07,-105.8 4227.53,-104.01 4235.7,-101.99"/>
<polygon fill="#63b8ff" stroke="#63b8ff" points="2665.65,-153.5 2655.65,-157.01 2665.65,-160.5 2665.65,-153.5"/>
</g>
<!-- Node85 -->
<g id="node33" class="node">
<title>Node85</title>
<g id="a_node33"><a xlink:href="d__a__player_8cpp.html" target="_top" xlink:title=" ">
<polygon fill="white" stroke="#666666" points="4343,-24.5 4229,-24.5 4229,-5.5 4343,-5.5 4343,-24.5"/>
<text text-anchor="middle" x="4286" y="-12.5" font-family="Helvetica,sans-Serif" font-size="10.00">src/d/a/d_a_player.cpp</text>
</a>
</g>
</g>
<!-- Node25&#45;&gt;Node85 -->
<g id="edge42" class="edge">
<title>Node25&#45;&gt;Node85</title>
<path fill="none" stroke="#63b8ff" d="M2665.48,-156.36C2981.76,-153.15 4320.1,-137.77 4350,-107 4362.7,-93.93 4357.99,-82.38 4350,-66 4340.73,-46.99 4320.35,-33.09 4305.06,-24.84"/>
<polygon fill="#63b8ff" stroke="#63b8ff" points="2665.71,-152.86 2655.74,-156.46 2665.78,-159.85 2665.71,-152.86"/>
</g>
<!-- Node86 -->
<g id="node34" class="node">
<title>Node86</title>
<g id="a_node34"><a xlink:href="d__a__obj__yobikusa_8h.html" target="_top" xlink:title=" ">
<polygon fill="white" stroke="#666666" points="2200.5,-107 2095.5,-107 2095.5,-66 2200.5,-66 2200.5,-107"/>
<text text-anchor="start" x="2103.5" y="-95" font-family="Helvetica,sans-Serif" font-size="10.00">include/rel/d/a/obj</text>
<text text-anchor="start" x="2103.5" y="-84" font-family="Helvetica,sans-Serif" font-size="10.00">/d_a_obj_yobikusa/d</text>
<text text-anchor="middle" x="2148" y="-73" font-family="Helvetica,sans-Serif" font-size="10.00">_a_obj_yobikusa.h</text>
</a>
</g>
</g>
<!-- Node25&#45;&gt;Node86 -->
<g id="edge35" class="edge">
<title>Node25&#45;&gt;Node86</title>
<path fill="none" stroke="#63b8ff" d="M2532.63,-152.07C2454.7,-145.45 2321.88,-131.58 2210,-107 2207.02,-106.35 2203.99,-105.61 2200.93,-104.83"/>
<polygon fill="#63b8ff" stroke="#63b8ff" points="2531.95,-155.52 2542.21,-152.86 2532.53,-148.55 2531.95,-155.52"/>
</g>
<!-- Node87 -->
<g id="node35" class="node">
<title>Node87</title>
<g id="a_node35"><a xlink:href="d__a__tag__telop_8h.html" target="_top" xlink:title=" ">
<polygon fill="white" stroke="#666666" points="2337,-107 2219,-107 2219,-66 2337,-66 2337,-107"/>
<text text-anchor="start" x="2227" y="-95" font-family="Helvetica,sans-Serif" font-size="10.00">include/rel/d/a/tag</text>
<text text-anchor="start" x="2227" y="-84" font-family="Helvetica,sans-Serif" font-size="10.00">/d_a_tag_telop/d_a_tag</text>
<text text-anchor="middle" x="2278" y="-73" font-family="Helvetica,sans-Serif" font-size="10.00">_telop.h</text>
</a>
</g>
</g>
<!-- Node25&#45;&gt;Node87 -->
<g id="edge36" class="edge">
<title>Node25&#45;&gt;Node87</title>
<path fill="none" stroke="#63b8ff" d="M2532.47,-145.29C2481.48,-135.96 2409.5,-122.01 2347,-107 2343.85,-106.24 2340.63,-105.44 2337.39,-104.61"/>
<polygon fill="#63b8ff" stroke="#63b8ff" points="2531.71,-148.71 2542.18,-147.06 2532.97,-141.83 2531.71,-148.71"/>
</g>
<!-- Node88 -->
<g id="node36" class="node">
<title>Node88</title>
<g id="a_node36"><a xlink:href="c__dylink_8cpp.html" target="_top" xlink:title=" ">
<polygon fill="white" stroke="#666666" points="2450.5,-96 2355.5,-96 2355.5,-77 2450.5,-77 2450.5,-96"/>
<text text-anchor="middle" x="2403" y="-84" font-family="Helvetica,sans-Serif" font-size="10.00">src/c/c_dylink.cpp</text>
</a>
</g>
</g>
<!-- Node25&#45;&gt;Node88 -->
<g id="edge37" class="edge">
<title>Node25&#45;&gt;Node88</title>
<path fill="none" stroke="#63b8ff" d="M2547.91,-138.88C2509.48,-125.26 2458.44,-107.16 2428.32,-96.48"/>
<polygon fill="#63b8ff" stroke="#63b8ff" points="2546.37,-142.05 2556.96,-142.09 2548.71,-135.45 2546.37,-142.05"/>
</g>
<!-- Node89 -->
<g id="node37" class="node">
<title>Node89</title>
<g id="a_node37"><a xlink:href="d__a__itembase_8cpp.html" target="_top" xlink:title=" ">
<polygon fill="white" stroke="#666666" points="2597,-96 2469,-96 2469,-77 2597,-77 2597,-96"/>
<text text-anchor="middle" x="2533" y="-84" font-family="Helvetica,sans-Serif" font-size="10.00">src/d/a/d_a_itembase.cpp</text>
</a>
</g>
</g>
<!-- Node25&#45;&gt;Node89 -->
<g id="edge39" class="edge">
<title>Node25&#45;&gt;Node89</title>
<path fill="none" stroke="#63b8ff" d="M2577.62,-134.49C2565.22,-121.43 2550.3,-105.72 2541.24,-96.18"/>
<polygon fill="#63b8ff" stroke="#63b8ff" points="2574.86,-136.66 2584.28,-141.5 2579.93,-131.84 2574.86,-136.66"/>
</g>
<!-- Node90 -->
<g id="node38" class="node">
<title>Node90</title>
<g id="a_node38"><a xlink:href="d__a__obj_8cpp.html" target="_top" xlink:title=" ">
<polygon fill="white" stroke="#666666" points="2716.5,-96 2615.5,-96 2615.5,-77 2716.5,-77 2716.5,-96"/>
<text text-anchor="middle" x="2666" y="-84" font-family="Helvetica,sans-Serif" font-size="10.00">src/d/a/d_a_obj.cpp</text>
</a>
</g>
</g>
<!-- Node25&#45;&gt;Node90 -->
<g id="edge40" class="edge">
<title>Node25&#45;&gt;Node90</title>
<path fill="none" stroke="#63b8ff" d="M2620.7,-134.49C2633.29,-121.43 2648.44,-105.72 2657.63,-96.18"/>
<polygon fill="#63b8ff" stroke="#63b8ff" points="2618.35,-131.88 2613.93,-141.51 2623.39,-136.74 2618.35,-131.88"/>
</g>
<!-- Node91 -->
<g id="node39" class="node">
<title>Node91</title>
<g id="a_node39"><a xlink:href="d__bg__s_8cpp.html" target="_top" xlink:title=" ">
<polygon fill="white" stroke="#666666" points="2839,-96 2735,-96 2735,-77 2839,-77 2839,-96"/>
<text text-anchor="middle" x="2787" y="-84" font-family="Helvetica,sans-Serif" font-size="10.00">src/d/bg/d_bg_s.cpp</text>
</a>
</g>
</g>
<!-- Node25&#45;&gt;Node91 -->
<g id="edge43" class="edge">
<title>Node25&#45;&gt;Node91</title>
<path fill="none" stroke="#63b8ff" d="M2648.48,-138.71C2685.29,-125.1 2733.94,-107.11 2762.71,-96.48"/>
<polygon fill="#63b8ff" stroke="#63b8ff" points="2647.54,-135.32 2639.37,-142.07 2649.97,-141.89 2647.54,-135.32"/>
</g>
<!-- Node92 -->
<g id="node40" class="node">
<title>Node92</title>
<g id="a_node40"><a xlink:href="d__bg__s__movebg__actor_8cpp.html" target="_top" xlink:title=" ">
<polygon fill="white" stroke="#666666" points="2983,-101.5 2857,-101.5 2857,-71.5 2983,-71.5 2983,-101.5"/>
<text text-anchor="start" x="2865" y="-89.5" font-family="Helvetica,sans-Serif" font-size="10.00">src/d/bg/d_bg_s_movebg</text>
<text text-anchor="middle" x="2920" y="-78.5" font-family="Helvetica,sans-Serif" font-size="10.00">_actor.cpp</text>
</a>
</g>
</g>
<!-- Node25&#45;&gt;Node92 -->
<g id="edge44" class="edge">
<title>Node25&#45;&gt;Node92</title>
<path fill="none" stroke="#63b8ff" d="M2665.17,-144.95C2715.5,-135.49 2786.35,-121.52 2848,-107 2854.55,-105.46 2861.42,-103.73 2868.19,-101.97"/>
<polygon fill="#63b8ff" stroke="#63b8ff" points="2664.79,-141.46 2655.61,-146.74 2666.08,-148.34 2664.79,-141.46"/>
</g>
<!-- Node93 -->
<g id="node41" class="node">
<title>Node93</title>
<g id="a_node41"><a xlink:href="d__bg__w_8cpp.html" target="_top" xlink:title=" ">
<polygon fill="white" stroke="#666666" points="3108.5,-96 3001.5,-96 3001.5,-77 3108.5,-77 3108.5,-96"/>
<text text-anchor="middle" x="3055" y="-84" font-family="Helvetica,sans-Serif" font-size="10.00">src/d/bg/d_bg_w.cpp</text>
</a>
</g>
</g>
<!-- Node25&#45;&gt;Node93 -->
<g id="edge45" class="edge">
<title>Node25&#45;&gt;Node93</title>
<path fill="none" stroke="#63b8ff" d="M2665.37,-152.09C2743.99,-145.47 2878.6,-131.57 2992,-107 3004.53,-104.28 3018.16,-100.21 3029.52,-96.49"/>
<polygon fill="#63b8ff" stroke="#63b8ff" points="2665.37,-148.58 2655.7,-152.89 2665.95,-155.56 2665.37,-148.58"/>
</g>
<!-- Node94 -->
<g id="node42" class="node">
<title>Node94</title>
<g id="a_node42"><a xlink:href="d__cc__s_8cpp.html" target="_top" xlink:title=" ">
<polygon fill="white" stroke="#666666" points="3231,-96 3127,-96 3127,-77 3231,-77 3231,-96"/>
<text text-anchor="middle" x="3179" y="-84" font-family="Helvetica,sans-Serif" font-size="10.00">src/d/cc/d_cc_s.cpp</text>
</a>
</g>
</g>
<!-- Node25&#45;&gt;Node94 -->
<g id="edge46" class="edge">
<title>Node25&#45;&gt;Node94</title>
<path fill="none" stroke="#63b8ff" d="M2665.87,-155.11C2765.37,-151.27 2957.87,-139.91 3118,-107 3130.42,-104.45 3143.87,-100.3 3154.98,-96.49"/>
<polygon fill="#63b8ff" stroke="#63b8ff" points="2665.88,-151.61 2656.01,-155.47 2666.13,-158.6 2665.88,-151.61"/>
</g>
<!-- Node95 -->
<g id="node43" class="node">
<title>Node95</title>
<g id="a_node43"><a xlink:href="d__com__static_8cpp.html" target="_top" xlink:title=" ">
<polygon fill="white" stroke="#666666" points="3389,-96 3249,-96 3249,-77 3389,-77 3389,-96"/>
<text text-anchor="middle" x="3319" y="-84" font-family="Helvetica,sans-Serif" font-size="10.00">src/d/com/d_com_static.cpp</text>
</a>
</g>
</g>
<!-- Node25&#45;&gt;Node95 -->
<g id="edge48" class="edge">
<title>Node25&#45;&gt;Node95</title>
<path fill="none" stroke="#63b8ff" d="M2665.47,-155.41C2782.35,-151.8 3032.04,-140.54 3240,-107 3255.9,-104.44 3273.3,-100.29 3287.72,-96.48"/>
<polygon fill="#63b8ff" stroke="#63b8ff" points="2665.64,-151.9 2655.75,-155.7 2665.85,-158.9 2665.64,-151.9"/>
</g>
<!-- Node96 -->
<g id="node44" class="node">
<title>Node96</title>
<g id="a_node44"><a xlink:href="d__attention_8cpp.html" target="_top" xlink:title=" ">
<polygon fill="white" stroke="#666666" points="3514.5,-96 3407.5,-96 3407.5,-77 3514.5,-77 3514.5,-96"/>
<text text-anchor="middle" x="3461" y="-84" font-family="Helvetica,sans-Serif" font-size="10.00">src/d/d_attention.cpp</text>
</a>
</g>
</g>
<!-- Node25&#45;&gt;Node96 -->
<g id="edge49" class="edge">
<title>Node25&#45;&gt;Node96</title>
<path fill="none" stroke="#63b8ff" d="M2665.81,-154.86C2831.52,-149.23 3258.15,-132.64 3398,-107 3411.06,-104.6 3425.22,-100.38 3436.8,-96.47"/>
<polygon fill="#63b8ff" stroke="#63b8ff" points="2665.72,-151.36 2655.85,-155.2 2665.96,-158.36 2665.72,-151.36"/>
</g>
<!-- Node97 -->
<g id="node45" class="node">
<title>Node97</title>
<g id="a_node45"><a xlink:href="d__cam__param_8cpp.html" target="_top" xlink:title=" ">
<polygon fill="white" stroke="#666666" points="3653.5,-96 3532.5,-96 3532.5,-77 3653.5,-77 3653.5,-96"/>
<text text-anchor="middle" x="3593" y="-84" font-family="Helvetica,sans-Serif" font-size="10.00">src/d/d_cam_param.cpp</text>
</a>
</g>
</g>
<!-- Node25&#45;&gt;Node97 -->
<g id="edge50" class="edge">
<title>Node25&#45;&gt;Node97</title>
<path fill="none" stroke="#63b8ff" d="M2665.56,-155.32C2848.9,-150.37 3358.59,-134.49 3524,-107 3538.24,-104.63 3553.75,-100.41 3566.44,-96.49"/>
<polygon fill="#63b8ff" stroke="#63b8ff" points="2665.64,-151.81 2655.74,-155.58 2665.83,-158.81 2665.64,-151.81"/>
</g>
<!-- Node98 -->
<g id="node46" class="node">
<title>Node98</title>
<g id="a_node46"><a xlink:href="d__camera_8cpp.html" target="_top" xlink:title=" ">
<polygon fill="white" stroke="#666666" points="3774,-96 3672,-96 3672,-77 3774,-77 3774,-96"/>
<text text-anchor="middle" x="3723" y="-84" font-family="Helvetica,sans-Serif" font-size="10.00">src/d/d_camera.cpp</text>
</a>
</g>
</g>
<!-- Node25&#45;&gt;Node98 -->
<g id="edge51" class="edge">
<title>Node25&#45;&gt;Node98</title>
<path fill="none" stroke="#63b8ff" d="M2665.72,-156.19C2867.68,-153.38 3470.27,-142.19 3663,-107 3675.61,-104.7 3689.22,-100.43 3700.29,-96.47"/>
<polygon fill="#63b8ff" stroke="#63b8ff" points="2665.89,-152.69 2655.94,-156.33 2665.98,-159.69 2665.89,-152.69"/>
</g>
<!-- Node37&#45;&gt;Node11 -->
<g id="edge15" class="edge">
<title>Node37&#45;&gt;Node11</title>
<path fill="none" stroke="#63b8ff" d="M4428.96,-74.22C4375.77,-63.08 4292.26,-45.53 4220,-30 4212.44,-28.38 4204.38,-26.63 4196.62,-24.93"/>
<polygon fill="#63b8ff" stroke="#63b8ff" points="4428.17,-77.63 4438.68,-76.25 4429.61,-70.78 4428.17,-77.63"/>
</g>
<!-- Node37&#45;&gt;Node38 -->
<g id="edge16" class="edge">
<title>Node37&#45;&gt;Node38</title>
<path fill="none" stroke="#63b8ff" d="M4468.26,-68.13C4456.61,-54.41 4440.83,-35.82 4431.6,-24.95"/>
<polygon fill="#63b8ff" stroke="#63b8ff" points="4465.41,-70.19 4474.55,-75.54 4470.74,-65.66 4465.41,-70.19"/>
</g>
<!-- Node37&#45;&gt;Node39 -->
<g id="edge17" class="edge">
<title>Node37&#45;&gt;Node39</title>
<path fill="none" stroke="#63b8ff" d="M4500.75,-69.27C4513.67,-57.45 4531,-41.61 4543.39,-30.27"/>
<polygon fill="#63b8ff" stroke="#63b8ff" points="4498.76,-66.35 4493.74,-75.68 4503.48,-71.51 4498.76,-66.35"/>
</g>
<!-- Node58&#45;&gt;Node11 -->
<g id="edge25" class="edge">
<title>Node58&#45;&gt;Node11</title>
<path fill="none" stroke="#63b8ff" d="M4128.51,-61.49C4136.22,-48.74 4145.21,-33.86 4150.76,-24.68"/>
<polygon fill="#63b8ff" stroke="#63b8ff" points="4125.66,-59.44 4123.49,-69.8 4131.65,-63.06 4125.66,-59.44"/>
</g>
<!-- Node58&#45;&gt;Node63 -->
<g id="edge26" class="edge">
<title>Node58&#45;&gt;Node63</title>
<path fill="none" stroke="#63b8ff" d="M4061.53,-68.3C4057.65,-67.4 4053.78,-66.62 4050,-66 3719.3,-11.75 2638.06,-14.41 2398.35,-15.69"/>
<polygon fill="#63b8ff" stroke="#63b8ff" points="4060.36,-71.61 4070.91,-70.7 4062.09,-64.83 4060.36,-71.61"/>
</g>
<!-- Node84&#45;&gt;Node11 -->
<g id="edge33" class="edge">
<title>Node84&#45;&gt;Node11</title>
<path fill="none" stroke="#63b8ff" d="M4246.63,-65.6C4222.08,-52.16 4190.88,-35.09 4172.22,-24.88"/>
<polygon fill="#63b8ff" stroke="#63b8ff" points="4244.91,-68.64 4255.36,-70.37 4248.27,-62.5 4244.91,-68.64"/>
</g>
<!-- Node84&#45;&gt;Node85 -->
<g id="edge34" class="edge">
<title>Node84&#45;&gt;Node85</title>
<path fill="none" stroke="#63b8ff" d="M4284.1,-59.96C4284.64,-47.57 4285.24,-33.49 4285.63,-24.68"/>
<polygon fill="#63b8ff" stroke="#63b8ff" points="4280.62,-59.45 4283.69,-69.59 4287.61,-59.75 4280.62,-59.45"/>
</g>
</g>
</svg>
