<?xml version="1.0" encoding="UTF-8" standalone="no"?>
<!DOCTYPE svg PUBLIC "-//W3C//DTD SVG 1.1//EN"
 "http://www.w3.org/Graphics/SVG/1.1/DTD/svg11.dtd">
<!-- Generated by graphviz version 7.0.5 (20221223.1930)
 -->
<!-- Title: libs/JSystem/JAudio2/JASAiCtrl.cpp Pages: 1 -->
<svg width="2871pt" height="522pt"
 viewBox="0.00 0.00 2871.00 522.00" xmlns="http://www.w3.org/2000/svg" xmlns:xlink="http://www.w3.org/1999/xlink">
<g id="graph0" class="graph" transform="scale(1 1) rotate(0) translate(4 518)">
<title>libs/JSystem/JAudio2/JASAiCtrl.cpp</title>
<!-- Node1 -->
<g id="node1" class="node">
<title>Node1</title>
<g id="a_node1"><a xlink:title=" ">
<polygon fill="#999999" stroke="#666666" points="1234.5,-514 1123.5,-514 1123.5,-484 1234.5,-484 1234.5,-514"/>
<text text-anchor="start" x="1131.5" y="-502" font-family="Helvetica,sans-Serif" font-size="10.00">libs/JSystem/JAudio2</text>
<text text-anchor="middle" x="1179" y="-491" font-family="Helvetica,sans-Serif" font-size="10.00">/JASAiCtrl.cpp</text>
</a>
</g>
</g>
<!-- Node2 -->
<g id="node2" class="node">
<title>Node2</title>
<g id="a_node2"><a xlink:href="JASAiCtrl_8h.html" target="_top" xlink:title=" ">
<polygon fill="white" stroke="#666666" points="146,-140 0,-140 0,-121 146,-121 146,-140"/>
<text text-anchor="middle" x="73" y="-128" font-family="Helvetica,sans-Serif" font-size="10.00">JSystem/JAudio2/JASAiCtrl.h</text>
</a>
</g>
</g>
<!-- Node1&#45;&gt;Node2 -->
<g id="edge1" class="edge">
<title>Node1&#45;&gt;Node2</title>
<path fill="none" stroke="#63b8ff" d="M1123.26,-497.4C954,-495.17 447.9,-485.46 288,-448 191.34,-425.35 84,-456.28 84,-357 84,-357 84,-357 84,-239.5 84,-208.76 79.54,-173.36 76.3,-151.71"/>
<polygon fill="#63b8ff" stroke="#63b8ff" points="79.77,-151.26 74.76,-141.92 72.85,-152.35 79.77,-151.26"/>
</g>
<!-- Node5 -->
<g id="node5" class="node">
<title>Node5</title>
<g id="a_node5"><a xlink:href="JASAudioThread_8h.html" target="_top" xlink:title=" ">
<polygon fill="white" stroke="#666666" points="437,-442.5 297,-442.5 297,-412.5 437,-412.5 437,-442.5"/>
<text text-anchor="start" x="305" y="-430.5" font-family="Helvetica,sans-Serif" font-size="10.00">JSystem/JAudio2/JASAudio</text>
<text text-anchor="middle" x="367" y="-419.5" font-family="Helvetica,sans-Serif" font-size="10.00">Thread.h</text>
</a>
</g>
</g>
<!-- Node1&#45;&gt;Node5 -->
<g id="edge4" class="edge">
<title>Node1&#45;&gt;Node5</title>
<path fill="none" stroke="#63b8ff" d="M1123.19,-493.22C982.56,-481.19 613.18,-449.57 448.39,-435.47"/>
<polygon fill="#63b8ff" stroke="#63b8ff" points="449.13,-432.02 438.87,-434.65 448.53,-438.99 449.13,-432.02"/>
</g>
<!-- Node15 -->
<g id="node15" class="node">
<title>Node15</title>
<g id="a_node15"><a xlink:href="OSTime_8h.html" target="_top" xlink:title=" ">
<polygon fill="white" stroke="#666666" points="830.5,-305 723.5,-305 723.5,-286 830.5,-286 830.5,-305"/>
<text text-anchor="middle" x="777" y="-293" font-family="Helvetica,sans-Serif" font-size="10.00">dolphin/os/OSTime.h</text>
</a>
</g>
</g>
<!-- Node1&#45;&gt;Node15 -->
<g id="edge43" class="edge">
<title>Node1&#45;&gt;Node15</title>
<path fill="none" stroke="#63b8ff" d="M1123.26,-497.95C1031.77,-496.67 855.47,-488.82 811,-448 774.01,-414.05 772.85,-349.29 774.96,-316.54"/>
<polygon fill="#63b8ff" stroke="#63b8ff" points="778.42,-317.1 775.77,-306.84 771.45,-316.51 778.42,-317.1"/>
</g>
<!-- Node16 -->
<g id="node16" class="node">
<title>Node16</title>
<g id="a_node16"><a xlink:href="JASCalc_8h.html" target="_top" xlink:title=" ">
<polygon fill="white" stroke="#666666" points="869,-195 727,-195 727,-176 869,-176 869,-195"/>
<text text-anchor="middle" x="798" y="-183" font-family="Helvetica,sans-Serif" font-size="10.00">JSystem/JAudio2/JASCalc.h</text>
</a>
</g>
</g>
<!-- Node1&#45;&gt;Node16 -->
<g id="edge21" class="edge">
<title>Node1&#45;&gt;Node16</title>
<path fill="none" stroke="#63b8ff" d="M1123.29,-497.96C1037.71,-496.59 879.99,-488.49 844,-448 796.14,-394.17 854.08,-356.44 839,-286 832.72,-256.68 818.2,-225.01 808.24,-205.47"/>
<polygon fill="#63b8ff" stroke="#63b8ff" points="811.44,-204.04 803.7,-196.81 805.24,-207.29 811.44,-204.04"/>
</g>
<!-- Node17 -->
<g id="node17" class="node">
<title>Node17</title>
<g id="a_node17"><a xlink:href="JASCriticalSection_8h.html" target="_top" xlink:title=" ">
<polygon fill="white" stroke="#666666" points="998.5,-442.5 853.5,-442.5 853.5,-412.5 998.5,-412.5 998.5,-442.5"/>
<text text-anchor="start" x="861.5" y="-430.5" font-family="Helvetica,sans-Serif" font-size="10.00">JSystem/JAudio2/JASCritical</text>
<text text-anchor="middle" x="926" y="-419.5" font-family="Helvetica,sans-Serif" font-size="10.00">Section.h</text>
</a>
</g>
</g>
<!-- Node1&#45;&gt;Node17 -->
<g id="edge23" class="edge">
<title>Node1&#45;&gt;Node17</title>
<path fill="none" stroke="#63b8ff" d="M1126.27,-483.52C1086.52,-472.6 1031.84,-457.57 989.65,-445.99"/>
<polygon fill="#63b8ff" stroke="#63b8ff" points="990.69,-442.64 980.12,-443.37 988.84,-449.39 990.69,-442.64"/>
</g>
<!-- Node19 -->
<g id="node19" class="node">
<title>Node19</title>
<g id="a_node19"><a xlink:href="JASDSPInterface_8h.html" target="_top" xlink:title=" ">
<polygon fill="white" stroke="#666666" points="1106.5,-195 925.5,-195 925.5,-176 1106.5,-176 1106.5,-195"/>
<text text-anchor="middle" x="1016" y="-183" font-family="Helvetica,sans-Serif" font-size="10.00">JSystem/JAudio2/JASDSPInterface.h</text>
</a>
</g>
</g>
<!-- Node1&#45;&gt;Node19 -->
<g id="edge26" class="edge">
<title>Node1&#45;&gt;Node19</title>
<path fill="none" stroke="#63b8ff" d="M1123.2,-488.21C1097.91,-481.07 1069.58,-468.83 1051,-448 1023.16,-416.78 1027,-398.83 1027,-357 1027,-357 1027,-357 1027,-294.5 1027,-263.76 1022.54,-228.36 1019.3,-206.71"/>
<polygon fill="#63b8ff" stroke="#63b8ff" points="1022.77,-206.26 1017.76,-196.92 1015.85,-207.35 1022.77,-206.26"/>
</g>
<!-- Node20 -->
<g id="node20" class="node">
<title>Node20</title>
<g id="a_node20"><a xlink:href="JASHeapCtrl_8h.html" target="_top" xlink:title=" ">
<polygon fill="white" stroke="#666666" points="705.5,-305 544.5,-305 544.5,-286 705.5,-286 705.5,-305"/>
<text text-anchor="middle" x="625" y="-293" font-family="Helvetica,sans-Serif" font-size="10.00">JSystem/JAudio2/JASHeapCtrl.h</text>
</a>
</g>
</g>
<!-- Node1&#45;&gt;Node20 -->
<g id="edge28" class="edge">
<title>Node1&#45;&gt;Node20</title>
<path fill="none" stroke="#63b8ff" d="M1123.07,-495.3C1028.39,-490.02 841.06,-476.27 782,-448 716.64,-416.72 661.3,-347.59 637.49,-314.65"/>
<polygon fill="#63b8ff" stroke="#63b8ff" points="640.4,-312.7 631.77,-306.55 634.69,-316.74 640.4,-312.7"/>
</g>
<!-- Node21 -->
<g id="node21" class="node">
<title>Node21</title>
<g id="a_node21"><a xlink:href="JASLfo_8h.html" target="_top" xlink:title=" ">
<polygon fill="white" stroke="#666666" points="1133.5,-140 996.5,-140 996.5,-121 1133.5,-121 1133.5,-140"/>
<text text-anchor="middle" x="1065" y="-128" font-family="Helvetica,sans-Serif" font-size="10.00">JSystem/JAudio2/JASLfo.h</text>
</a>
</g>
</g>
<!-- Node1&#45;&gt;Node21 -->
<g id="edge31" class="edge">
<title>Node1&#45;&gt;Node21</title>
<path fill="none" stroke="#63b8ff" d="M1152.56,-483.54C1138.28,-474.72 1121.13,-462.39 1109,-448 1080.04,-413.65 1065,-401.92 1065,-357 1065,-357 1065,-357 1065,-294.5 1065,-265.04 1069.86,-256.84 1084,-231 1094.14,-212.48 1107.65,-214.79 1115,-195 1117.94,-187.08 1118.46,-183.7 1115,-176 1109.66,-164.11 1099.41,-154.1 1089.56,-146.6"/>
<polygon fill="#63b8ff" stroke="#63b8ff" points="1091.87,-143.94 1081.67,-141.07 1087.85,-149.67 1091.87,-143.94"/>
</g>
<!-- Node22 -->
<g id="node22" class="node">
<title>Node22</title>
<g id="a_node22"><a xlink:href="JASProbe_8h.html" target="_top" xlink:title=" ">
<polygon fill="white" stroke="#666666" points="1241,-250 1093,-250 1093,-231 1241,-231 1241,-250"/>
<text text-anchor="middle" x="1167" y="-238" font-family="Helvetica,sans-Serif" font-size="10.00">JSystem/JAudio2/JASProbe.h</text>
</a>
</g>
</g>
<!-- Node1&#45;&gt;Node22 -->
<g id="edge33" class="edge">
<title>Node1&#45;&gt;Node22</title>
<path fill="none" stroke="#63b8ff" d="M1157.17,-483.65C1145.88,-474.86 1133.18,-462.52 1127,-448 1098.8,-381.75 1101.23,-353.23 1127,-286 1131.11,-275.29 1139.11,-265.54 1146.89,-257.91"/>
<polygon fill="#63b8ff" stroke="#63b8ff" points="1149.16,-260.58 1154.23,-251.28 1144.47,-255.39 1149.16,-260.58"/>
</g>
<!-- Node23 -->
<g id="node23" class="node">
<title>Node23</title>
<g id="a_node23"><a xlink:href="JASReport_8h.html" target="_top" xlink:title=" ">
<polygon fill="white" stroke="#666666" points="1358.5,-437 1207.5,-437 1207.5,-418 1358.5,-418 1358.5,-437"/>
<text text-anchor="middle" x="1283" y="-425" font-family="Helvetica,sans-Serif" font-size="10.00">JSystem/JAudio2/JASReport.h</text>
</a>
</g>
</g>
<!-- Node1&#45;&gt;Node23 -->
<g id="edge35" class="edge">
<title>Node1&#45;&gt;Node23</title>
<path fill="none" stroke="#63b8ff" d="M1200.55,-483.6C1218.12,-471.86 1242.85,-455.33 1260.64,-443.44"/>
<polygon fill="#63b8ff" stroke="#63b8ff" points="1262.09,-446.69 1268.46,-438.22 1258.2,-440.87 1262.09,-446.69"/>
</g>
<!-- Node24 -->
<g id="node24" class="node">
<title>Node24</title>
<g id="a_node24"><a xlink:href="JKRSolidHeap_8h.html" target="_top" xlink:title=" ">
<polygon fill="white" stroke="#666666" points="595,-371 461,-371 461,-341 595,-341 595,-371"/>
<text text-anchor="start" x="469" y="-359" font-family="Helvetica,sans-Serif" font-size="10.00">JSystem/JKernel/JKRSolid</text>
<text text-anchor="middle" x="528" y="-348" font-family="Helvetica,sans-Serif" font-size="10.00">Heap.h</text>
</a>
</g>
</g>
<!-- Node1&#45;&gt;Node24 -->
<g id="edge36" class="edge">
<title>Node1&#45;&gt;Node24</title>
<path fill="none" stroke="#63b8ff" d="M1123.29,-495.88C1008.8,-490.99 750.86,-477.03 668,-448 623.7,-432.48 579.44,-400.19 552.88,-378.55"/>
<polygon fill="#63b8ff" stroke="#63b8ff" points="555.35,-376.05 545.42,-372.36 550.88,-381.44 555.35,-376.05"/>
</g>
<!-- Node25 -->
<g id="node25" class="node">
<title>Node25</title>
<g id="a_node25"><a xlink:href="dol2asm_8h.html" target="_top" xlink:title=" ">
<polygon fill="white" stroke="#666666" points="1437.5,-437 1376.5,-437 1376.5,-418 1437.5,-418 1437.5,-437"/>
<text text-anchor="middle" x="1407" y="-425" font-family="Helvetica,sans-Serif" font-size="10.00">dol2asm.h</text>
</a>
</g>
</g>
<!-- Node1&#45;&gt;Node25 -->
<g id="edge38" class="edge">
<title>Node1&#45;&gt;Node25</title>
<path fill="none" stroke="#63b8ff" d="M1235,-486.11C1272.85,-477.34 1323.64,-464.16 1367,-448 1371.35,-446.38 1375.87,-444.44 1380.23,-442.43"/>
<polygon fill="#63b8ff" stroke="#63b8ff" points="1381.75,-445.58 1389.22,-438.06 1378.69,-439.28 1381.75,-445.58"/>
</g>
<!-- Node26 -->
<g id="node26" class="node">
<title>Node26</title>
<g id="a_node26"><a xlink:href="ai_8h.html" target="_top" xlink:title=" ">
<polygon fill="white" stroke="#666666" points="1289,-140 1213,-140 1213,-121 1289,-121 1289,-140"/>
<text text-anchor="middle" x="1251" y="-128" font-family="Helvetica,sans-Serif" font-size="10.00">dolphin/ai/ai.h</text>
</a>
</g>
</g>
<!-- Node1&#45;&gt;Node26 -->
<g id="edge39" class="edge">
<title>Node1&#45;&gt;Node26</title>
<path fill="none" stroke="#63b8ff" d="M1177.61,-483.61C1176.24,-465.49 1175.12,-433.54 1181,-407 1197.49,-332.59 1234.02,-324.52 1250,-250 1257.28,-216.05 1255.4,-175.37 1253.27,-151.58"/>
<polygon fill="#63b8ff" stroke="#63b8ff" points="1256.76,-151.36 1252.27,-141.76 1249.8,-152.06 1256.76,-151.36"/>
</g>
<!-- Node27 -->
<g id="node27" class="node">
<title>Node27</title>
<g id="a_node27"><a xlink:href="OSCache_8h.html" target="_top" xlink:title=" ">
<polygon fill="white" stroke="#666666" points="1410.5,-250 1297.5,-250 1297.5,-231 1410.5,-231 1410.5,-250"/>
<text text-anchor="middle" x="1354" y="-238" font-family="Helvetica,sans-Serif" font-size="10.00">dolphin/os/OSCache.h</text>
</a>
</g>
</g>
<!-- Node1&#45;&gt;Node27 -->
<g id="edge41" class="edge">
<title>Node1&#45;&gt;Node27</title>
<path fill="none" stroke="#63b8ff" d="M1179.6,-483.64C1180.9,-464.99 1185.01,-431.9 1198,-407 1231.91,-342 1298.69,-284.23 1332.83,-257.39"/>
<polygon fill="#63b8ff" stroke="#63b8ff" points="1334.94,-260.18 1340.72,-251.3 1330.66,-254.64 1334.94,-260.18"/>
</g>
<!-- Node28 -->
<g id="node28" class="node">
<title>Node28</title>
<g id="a_node28"><a xlink:title=" ">
<polygon fill="#e0e0e0" stroke="#999999" points="1604,-448 1456,-448 1456,-407 1604,-407 1604,-448"/>
<text text-anchor="start" x="1464" y="-436" font-family="Helvetica,sans-Serif" font-size="10.00">asm/JSystem/JAudio2</text>
<text text-anchor="start" x="1464" y="-425" font-family="Helvetica,sans-Serif" font-size="10.00">/JASAiCtrl/initAI__9JASDriver</text>
<text text-anchor="middle" x="1530" y="-414" font-family="Helvetica,sans-Serif" font-size="10.00">FPFv_v.s</text>
</a>
</g>
</g>
<!-- Node1&#45;&gt;Node28 -->
<g id="edge44" class="edge">
<title>Node1&#45;&gt;Node28</title>
<path fill="none" stroke="#63b8ff" d="M1234.88,-488.26C1286.56,-479.08 1365.79,-464.61 1444.7,-448.22"/>
<polygon fill="#63b8ff" stroke="#63b8ff" points="1445.28,-451.68 1454.35,-446.21 1443.85,-444.83 1445.28,-451.68"/>
</g>
<!-- Node29 -->
<g id="node29" class="node">
<title>Node29</title>
<g id="a_node29"><a xlink:title=" ">
<polygon fill="#e0e0e0" stroke="#999999" points="1791.5,-448 1622.5,-448 1622.5,-407 1791.5,-407 1791.5,-448"/>
<text text-anchor="start" x="1630.5" y="-436" font-family="Helvetica,sans-Serif" font-size="10.00">asm/JSystem/JAudio2</text>
<text text-anchor="start" x="1630.5" y="-425" font-family="Helvetica,sans-Serif" font-size="10.00">/JASAiCtrl/setOutputRate</text>
<text text-anchor="middle" x="1707" y="-414" font-family="Helvetica,sans-Serif" font-size="10.00">__9JASDriverF13JASOutputRate.s</text>
</a>
</g>
</g>
<!-- Node1&#45;&gt;Node29 -->
<g id="edge45" class="edge">
<title>Node1&#45;&gt;Node29</title>
<path fill="none" stroke="#63b8ff" d="M1234.71,-493.2C1315.42,-485.88 1469.75,-470.56 1611,-448.25"/>
<polygon fill="#63b8ff" stroke="#63b8ff" points="1611.19,-451.76 1620.51,-446.73 1610.09,-444.85 1611.19,-451.76"/>
</g>
<!-- Node30 -->
<g id="node30" class="node">
<title>Node30</title>
<g id="a_node30"><a xlink:title=" ">
<polygon fill="#e0e0e0" stroke="#999999" points="1924.5,-448 1809.5,-448 1809.5,-407 1924.5,-407 1924.5,-448"/>
<text text-anchor="start" x="1817.5" y="-436" font-family="Helvetica,sans-Serif" font-size="10.00">asm/JSystem/JAudio2</text>
<text text-anchor="start" x="1817.5" y="-425" font-family="Helvetica,sans-Serif" font-size="10.00">/JASAiCtrl/updateDac</text>
<text text-anchor="middle" x="1867" y="-414" font-family="Helvetica,sans-Serif" font-size="10.00">__9JASDriverFv.s</text>
</a>
</g>
</g>
<!-- Node1&#45;&gt;Node30 -->
<g id="edge46" class="edge">
<title>Node1&#45;&gt;Node30</title>
<path fill="none" stroke="#63b8ff" d="M1234.84,-497.37C1342.49,-495.33 1586.12,-486.66 1798.18,-448.33"/>
<polygon fill="#63b8ff" stroke="#63b8ff" points="1798.52,-451.83 1807.73,-446.58 1797.26,-444.95 1798.52,-451.83"/>
</g>
<!-- Node31 -->
<g id="node31" class="node">
<title>Node31</title>
<g id="a_node31"><a xlink:title=" ">
<polygon fill="#e0e0e0" stroke="#999999" points="2057.5,-448 1942.5,-448 1942.5,-407 2057.5,-407 2057.5,-448"/>
<text text-anchor="start" x="1950.5" y="-436" font-family="Helvetica,sans-Serif" font-size="10.00">asm/JSystem/JAudio2</text>
<text text-anchor="start" x="1950.5" y="-425" font-family="Helvetica,sans-Serif" font-size="10.00">/JASAiCtrl/updateDSP</text>
<text text-anchor="middle" x="2000" y="-414" font-family="Helvetica,sans-Serif" font-size="10.00">__9JASDriverFv.s</text>
</a>
</g>
</g>
<!-- Node1&#45;&gt;Node31 -->
<g id="edge47" class="edge">
<title>Node1&#45;&gt;Node31</title>
<path fill="none" stroke="#63b8ff" d="M1234.92,-498.5C1359.1,-498.71 1667.11,-494.25 1931.27,-448.29"/>
<polygon fill="#63b8ff" stroke="#63b8ff" points="1931.5,-451.8 1940.73,-446.62 1930.28,-444.91 1931.5,-451.8"/>
</g>
<!-- Node32 -->
<g id="node32" class="node">
<title>Node32</title>
<g id="a_node32"><a xlink:title=" ">
<polygon fill="#e0e0e0" stroke="#999999" points="2202.5,-448 2075.5,-448 2075.5,-407 2202.5,-407 2202.5,-448"/>
<text text-anchor="start" x="2083.5" y="-436" font-family="Helvetica,sans-Serif" font-size="10.00">asm/JSystem/JAudio2</text>
<text text-anchor="start" x="2083.5" y="-425" font-family="Helvetica,sans-Serif" font-size="10.00">/JASAiCtrl/readDspBuffer</text>
<text text-anchor="middle" x="2139" y="-414" font-family="Helvetica,sans-Serif" font-size="10.00">__9JASDriverFPsUl.s</text>
</a>
</g>
</g>
<!-- Node1&#45;&gt;Node32 -->
<g id="edge48" class="edge">
<title>Node1&#45;&gt;Node32</title>
<path fill="none" stroke="#63b8ff" d="M1234.96,-496.37C1400.12,-491.34 1884.68,-474.82 2064.05,-448.25"/>
<polygon fill="#63b8ff" stroke="#63b8ff" points="2064.32,-451.75 2073.67,-446.76 2063.25,-444.84 2064.32,-451.75"/>
</g>
<!-- Node33 -->
<g id="node33" class="node">
<title>Node33</title>
<g id="a_node33"><a xlink:title=" ">
<polygon fill="#e0e0e0" stroke="#999999" points="2365,-448 2221,-448 2221,-407 2365,-407 2365,-448"/>
<text text-anchor="start" x="2229" y="-436" font-family="Helvetica,sans-Serif" font-size="10.00">asm/JSystem/JAudio2</text>
<text text-anchor="start" x="2229" y="-425" font-family="Helvetica,sans-Serif" font-size="10.00">/JASAiCtrl/mixMonoTrack</text>
<text text-anchor="middle" x="2293" y="-414" font-family="Helvetica,sans-Serif" font-size="10.00">__9JASDriverFPsUlPFl_Ps.s</text>
</a>
</g>
</g>
<!-- Node1&#45;&gt;Node33 -->
<g id="edge49" class="edge">
<title>Node1&#45;&gt;Node33</title>
<path fill="none" stroke="#63b8ff" d="M1234.97,-496.68C1418.12,-492.14 1999.3,-475.99 2209.49,-448.16"/>
<polygon fill="#63b8ff" stroke="#63b8ff" points="2209.78,-451.66 2219.21,-446.82 2208.82,-444.72 2209.78,-451.66"/>
</g>
<!-- Node34 -->
<g id="node34" class="node">
<title>Node34</title>
<g id="a_node34"><a xlink:title=" ">
<polygon fill="#e0e0e0" stroke="#999999" points="2534.5,-448 2383.5,-448 2383.5,-407 2534.5,-407 2534.5,-448"/>
<text text-anchor="start" x="2391.5" y="-436" font-family="Helvetica,sans-Serif" font-size="10.00">asm/JSystem/JAudio2</text>
<text text-anchor="start" x="2391.5" y="-425" font-family="Helvetica,sans-Serif" font-size="10.00">/JASAiCtrl/mixMonoTrackWide</text>
<text text-anchor="middle" x="2459" y="-414" font-family="Helvetica,sans-Serif" font-size="10.00">__9JASDriverFPsUlPFl_Ps.s</text>
</a>
</g>
</g>
<!-- Node1&#45;&gt;Node34 -->
<g id="edge50" class="edge">
<title>Node1&#45;&gt;Node34</title>
<path fill="none" stroke="#63b8ff" d="M1234.99,-497.02C1436.82,-493.29 2127.51,-478.65 2371.83,-448.1"/>
<polygon fill="#63b8ff" stroke="#63b8ff" points="2372.16,-451.59 2381.63,-446.83 2371.26,-444.64 2372.16,-451.59"/>
</g>
<!-- Node35 -->
<g id="node35" class="node">
<title>Node35</title>
<g id="a_node35"><a xlink:title=" ">
<polygon fill="#e0e0e0" stroke="#999999" points="2697,-448 2553,-448 2553,-407 2697,-407 2697,-448"/>
<text text-anchor="start" x="2561" y="-436" font-family="Helvetica,sans-Serif" font-size="10.00">asm/JSystem/JAudio2</text>
<text text-anchor="start" x="2561" y="-425" font-family="Helvetica,sans-Serif" font-size="10.00">/JASAiCtrl/mixExtraTrack</text>
<text text-anchor="middle" x="2625" y="-414" font-family="Helvetica,sans-Serif" font-size="10.00">__9JASDriverFPsUlPFl_Ps.s</text>
</a>
</g>
</g>
<!-- Node1&#45;&gt;Node35 -->
<g id="edge51" class="edge">
<title>Node1&#45;&gt;Node35</title>
<path fill="none" stroke="#63b8ff" d="M1234.76,-497.44C1454.57,-495.02 2262.19,-483.91 2541.41,-448.16"/>
<polygon fill="#63b8ff" stroke="#63b8ff" points="2541.76,-451.64 2551.21,-446.86 2540.84,-444.7 2541.76,-451.64"/>
</g>
<!-- Node36 -->
<g id="node36" class="node">
<title>Node36</title>
<g id="a_node36"><a xlink:title=" ">
<polygon fill="#e0e0e0" stroke="#999999" points="2863,-448 2715,-448 2715,-407 2863,-407 2863,-448"/>
<text text-anchor="start" x="2723" y="-436" font-family="Helvetica,sans-Serif" font-size="10.00">asm/JSystem/JAudio2</text>
<text text-anchor="start" x="2723" y="-425" font-family="Helvetica,sans-Serif" font-size="10.00">/JASAiCtrl/mixInterleaveTrack</text>
<text text-anchor="middle" x="2789" y="-414" font-family="Helvetica,sans-Serif" font-size="10.00">__9JASDriverFPsUlPFl_Ps.s</text>
</a>
</g>
</g>
<!-- Node1&#45;&gt;Node36 -->
<g id="edge52" class="edge">
<title>Node1&#45;&gt;Node36</title>
<path fill="none" stroke="#63b8ff" d="M1234.77,-497.65C1470.91,-495.96 2390.31,-487.03 2703.59,-448.13"/>
<polygon fill="#63b8ff" stroke="#63b8ff" points="2703.95,-451.61 2713.42,-446.86 2703.06,-444.67 2703.95,-451.61"/>
</g>
<!-- Node3 -->
<g id="node3" class="node">
<title>Node3</title>
<g id="a_node3"><a xlink:href="types_8h.html" target="_top" xlink:title=" ">
<polygon fill="white" stroke="#666666" points="838.5,-85 757.5,-85 757.5,-66 838.5,-66 838.5,-85"/>
<text text-anchor="middle" x="798" y="-73" font-family="Helvetica,sans-Serif" font-size="10.00">dolphin/types.h</text>
</a>
</g>
</g>
<!-- Node2&#45;&gt;Node3 -->
<g id="edge2" class="edge">
<title>Node2&#45;&gt;Node3</title>
<path fill="none" stroke="#63b8ff" d="M146.09,-122.21C150.79,-121.79 155.46,-121.38 160,-121 377.52,-102.79 637.19,-86.31 746.01,-79.64"/>
<polygon fill="#63b8ff" stroke="#63b8ff" points="746.01,-83.14 755.78,-79.04 745.58,-76.16 746.01,-83.14"/>
</g>
<!-- Node4 -->
<g id="node4" class="node">
<title>Node4</title>
<g id="a_node4"><a xlink:href="stddef_8h.html" target="_top" xlink:title=" ">
<polygon fill="white" stroke="#666666" points="866,-30 730,-30 730,0 866,0 866,-30"/>
<text text-anchor="start" x="738" y="-18" font-family="Helvetica,sans-Serif" font-size="10.00">MSL_C/MSL_Common/Src</text>
<text text-anchor="middle" x="798" y="-7" font-family="Helvetica,sans-Serif" font-size="10.00">/stddef.h</text>
</a>
</g>
</g>
<!-- Node3&#45;&gt;Node4 -->
<g id="edge3" class="edge">
<title>Node3&#45;&gt;Node4</title>
<path fill="none" stroke="#63b8ff" d="M798,-65.87C798,-59.4 798,-50.2 798,-41.45"/>
<polygon fill="#63b8ff" stroke="#63b8ff" points="801.5,-41.63 798,-31.63 794.5,-41.63 801.5,-41.63"/>
</g>
<!-- Node6 -->
<g id="node6" class="node">
<title>Node6</title>
<g id="a_node6"><a xlink:href="JASGadget_8h.html" target="_top" xlink:title=" ">
<polygon fill="white" stroke="#666666" points="271,-365.5 117,-365.5 117,-346.5 271,-346.5 271,-365.5"/>
<text text-anchor="middle" x="194" y="-353.5" font-family="Helvetica,sans-Serif" font-size="10.00">JSystem/JAudio2/JASGadget.h</text>
</a>
</g>
</g>
<!-- Node5&#45;&gt;Node6 -->
<g id="edge5" class="edge">
<title>Node5&#45;&gt;Node6</title>
<path fill="none" stroke="#63b8ff" d="M331.15,-412.1C300.53,-399.8 256.82,-382.24 227.03,-370.27"/>
<polygon fill="#63b8ff" stroke="#63b8ff" points="228.34,-367.02 217.75,-366.54 225.73,-373.52 228.34,-367.02"/>
</g>
<!-- Node7 -->
<g id="node7" class="node">
<title>Node7</title>
<g id="a_node7"><a xlink:href="JKRThread_8h.html" target="_top" xlink:title=" ">
<polygon fill="white" stroke="#666666" points="442,-365.5 292,-365.5 292,-346.5 442,-346.5 442,-365.5"/>
<text text-anchor="middle" x="367" y="-353.5" font-family="Helvetica,sans-Serif" font-size="10.00">JSystem/JKernel/JKRThread.h</text>
</a>
</g>
</g>
<!-- Node5&#45;&gt;Node7 -->
<g id="edge7" class="edge">
<title>Node5&#45;&gt;Node7</title>
<path fill="none" stroke="#63b8ff" d="M367,-412.1C367,-401.93 367,-388.17 367,-376.95"/>
<polygon fill="#63b8ff" stroke="#63b8ff" points="370.5,-377.19 367,-367.19 363.5,-377.19 370.5,-377.19"/>
</g>
<!-- Node6&#45;&gt;Node3 -->
<g id="edge6" class="edge">
<title>Node6&#45;&gt;Node3</title>
<path fill="none" stroke="#63b8ff" d="M191.39,-346.26C185.96,-327.35 174,-281.12 174,-241.5 174,-241.5 174,-241.5 174,-184.5 174,-119 243.83,-138.34 307,-121 388.53,-98.62 636.62,-84.28 745.65,-78.9"/>
<polygon fill="#63b8ff" stroke="#63b8ff" points="745.67,-82.4 755.49,-78.42 745.33,-75.41 745.67,-82.4"/>
</g>
<!-- Node7&#45;&gt;Node3 -->
<g id="edge20" class="edge">
<title>Node7&#45;&gt;Node3</title>
<path fill="none" stroke="#63b8ff" d="M309.12,-346.02C282.08,-339.04 251.42,-326.72 231,-305 210.82,-283.54 212,-270.96 212,-241.5 212,-241.5 212,-241.5 212,-184.5 212,-130.42 602.91,-92.64 746.18,-80.6"/>
<polygon fill="#63b8ff" stroke="#63b8ff" points="746.07,-84.12 755.75,-79.81 745.5,-77.15 746.07,-84.12"/>
</g>
<!-- Node8 -->
<g id="node8" class="node">
<title>Node8</title>
<g id="a_node8"><a xlink:href="JKRHeap_8h.html" target="_top" xlink:title=" ">
<polygon fill="white" stroke="#666666" points="526.5,-305 383.5,-305 383.5,-286 526.5,-286 526.5,-305"/>
<text text-anchor="middle" x="455" y="-293" font-family="Helvetica,sans-Serif" font-size="10.00">JSystem/JKernel/JKRHeap.h</text>
</a>
</g>
</g>
<!-- Node7&#45;&gt;Node8 -->
<g id="edge8" class="edge">
<title>Node7&#45;&gt;Node8</title>
<path fill="none" stroke="#63b8ff" d="M380.37,-346.12C394.06,-337.01 415.62,-322.68 432.06,-311.75"/>
<polygon fill="#63b8ff" stroke="#63b8ff" points="433.86,-314.76 440.25,-306.31 429.98,-308.93 433.86,-314.76"/>
</g>
<!-- Node14 -->
<g id="node14" class="node">
<title>Node14</title>
<g id="a_node14"><a xlink:href="OSMessage_8h.html" target="_top" xlink:title=" ">
<polygon fill="white" stroke="#666666" points="365.5,-305 240.5,-305 240.5,-286 365.5,-286 365.5,-305"/>
<text text-anchor="middle" x="303" y="-293" font-family="Helvetica,sans-Serif" font-size="10.00">dolphin/os/OSMessage.h</text>
</a>
</g>
</g>
<!-- Node7&#45;&gt;Node14 -->
<g id="edge16" class="edge">
<title>Node7&#45;&gt;Node14</title>
<path fill="none" stroke="#63b8ff" d="M357.28,-346.12C347.69,-337.35 332.81,-323.75 321.06,-313"/>
<polygon fill="#63b8ff" stroke="#63b8ff" points="323.67,-310.65 313.93,-306.49 318.95,-315.82 323.67,-310.65"/>
</g>
<!-- Node7&#45;&gt;Node15 -->
<g id="edge18" class="edge">
<title>Node7&#45;&gt;Node15</title>
<path fill="none" stroke="#63b8ff" d="M420.02,-346.04C430.6,-344.31 441.65,-342.56 452,-341 477.06,-337.22 624.41,-317.18 711.86,-305.32"/>
<polygon fill="#63b8ff" stroke="#63b8ff" points="712.32,-308.79 721.76,-303.98 711.38,-301.86 712.32,-308.79"/>
</g>
<!-- Node9 -->
<g id="node9" class="node">
<title>Node9</title>
<g id="a_node9"><a xlink:href="JKRDisposer_8h.html" target="_top" xlink:title=" ">
<polygon fill="white" stroke="#666666" points="489,-250 331,-250 331,-231 489,-231 489,-250"/>
<text text-anchor="middle" x="410" y="-238" font-family="Helvetica,sans-Serif" font-size="10.00">JSystem/JKernel/JKRDisposer.h</text>
</a>
</g>
</g>
<!-- Node8&#45;&gt;Node9 -->
<g id="edge9" class="edge">
<title>Node8&#45;&gt;Node9</title>
<path fill="none" stroke="#63b8ff" d="M447.57,-285.75C441.42,-278.5 432.49,-267.98 424.87,-259.02"/>
<polygon fill="#63b8ff" stroke="#63b8ff" points="427.71,-256.95 418.57,-251.6 422.38,-261.48 427.71,-256.95"/>
</g>
<!-- Node11 -->
<g id="node11" class="node">
<title>Node11</title>
<g id="a_node11"><a xlink:href="OSMutex_8h.html" target="_top" xlink:title=" ">
<polygon fill="white" stroke="#666666" points="619,-250 507,-250 507,-231 619,-231 619,-250"/>
<text text-anchor="middle" x="563" y="-238" font-family="Helvetica,sans-Serif" font-size="10.00">dolphin/os/OSMutex.h</text>
</a>
</g>
</g>
<!-- Node8&#45;&gt;Node11 -->
<g id="edge12" class="edge">
<title>Node8&#45;&gt;Node11</title>
<path fill="none" stroke="#63b8ff" d="M473.32,-285.51C490.18,-277.24 515.43,-264.84 534.85,-255.31"/>
<polygon fill="#63b8ff" stroke="#63b8ff" points="536.16,-258.57 543.59,-251.02 533.07,-252.29 536.16,-258.57"/>
</g>
<!-- Node10 -->
<g id="node10" class="node">
<title>Node10</title>
<g id="a_node10"><a xlink:href="JSUList_8h.html" target="_top" xlink:title=" ">
<polygon fill="white" stroke="#666666" points="670.5,-195 527.5,-195 527.5,-176 670.5,-176 670.5,-195"/>
<text text-anchor="middle" x="599" y="-183" font-family="Helvetica,sans-Serif" font-size="10.00">JSystem/JSupport/JSUList.h</text>
</a>
</g>
</g>
<!-- Node9&#45;&gt;Node10 -->
<g id="edge10" class="edge">
<title>Node9&#45;&gt;Node10</title>
<path fill="none" stroke="#63b8ff" d="M442.06,-230.51C473.52,-221.69 521.68,-208.18 556.35,-198.46"/>
<polygon fill="#63b8ff" stroke="#63b8ff" points="556.96,-201.93 565.64,-195.85 555.07,-195.19 556.96,-201.93"/>
</g>
<!-- Node10&#45;&gt;Node3 -->
<g id="edge11" class="edge">
<title>Node10&#45;&gt;Node3</title>
<path fill="none" stroke="#63b8ff" d="M609.25,-175.53C624.79,-162.28 655.61,-137.27 685,-121 708.51,-107.98 736.63,-96.9 758.93,-89.05"/>
<polygon fill="#63b8ff" stroke="#63b8ff" points="759.93,-92.4 768.25,-85.84 757.66,-85.78 759.93,-92.4"/>
</g>
<!-- Node12 -->
<g id="node12" class="node">
<title>Node12</title>
<g id="a_node12"><a xlink:href="OSThread_8h.html" target="_top" xlink:title=" ">
<polygon fill="white" stroke="#666666" points="509,-195 393,-195 393,-176 509,-176 509,-195"/>
<text text-anchor="middle" x="451" y="-183" font-family="Helvetica,sans-Serif" font-size="10.00">dolphin/os/OSThread.h</text>
</a>
</g>
</g>
<!-- Node11&#45;&gt;Node12 -->
<g id="edge13" class="edge">
<title>Node11&#45;&gt;Node12</title>
<path fill="none" stroke="#63b8ff" d="M544,-230.51C526.44,-222.2 500.08,-209.73 479.91,-200.18"/>
<polygon fill="#63b8ff" stroke="#63b8ff" points="481.62,-197.12 471.09,-196.01 478.63,-203.45 481.62,-197.12"/>
</g>
<!-- Node13 -->
<g id="node13" class="node">
<title>Node13</title>
<g id="a_node13"><a xlink:href="OSContext_8h.html" target="_top" xlink:title=" ">
<polygon fill="white" stroke="#666666" points="556.5,-140 437.5,-140 437.5,-121 556.5,-121 556.5,-140"/>
<text text-anchor="middle" x="497" y="-128" font-family="Helvetica,sans-Serif" font-size="10.00">dolphin/os/OSContext.h</text>
</a>
</g>
</g>
<!-- Node12&#45;&gt;Node13 -->
<g id="edge14" class="edge">
<title>Node12&#45;&gt;Node13</title>
<path fill="none" stroke="#63b8ff" d="M458.6,-175.75C464.88,-168.5 474.01,-157.98 481.8,-149.02"/>
<polygon fill="#63b8ff" stroke="#63b8ff" points="484.34,-151.43 488.25,-141.59 479.05,-146.84 484.34,-151.43"/>
</g>
<!-- Node13&#45;&gt;Node3 -->
<g id="edge15" class="edge">
<title>Node13&#45;&gt;Node3</title>
<path fill="none" stroke="#63b8ff" d="M548.06,-120.51C603.18,-110.8 690.51,-95.43 745.99,-85.66"/>
<polygon fill="#63b8ff" stroke="#63b8ff" points="746.6,-89.11 755.84,-83.92 745.38,-82.21 746.6,-89.11"/>
</g>
<!-- Node14&#45;&gt;Node12 -->
<g id="edge17" class="edge">
<title>Node14&#45;&gt;Node12</title>
<path fill="none" stroke="#63b8ff" d="M303.18,-285.88C303.94,-272.4 307.34,-246.28 322,-231 337.85,-214.47 360.13,-204.08 381.72,-197.55"/>
<polygon fill="#63b8ff" stroke="#63b8ff" points="382.39,-201 391.1,-194.96 380.53,-194.25 382.39,-201"/>
</g>
<!-- Node15&#45;&gt;Node3 -->
<g id="edge19" class="edge">
<title>Node15&#45;&gt;Node3</title>
<path fill="none" stroke="#63b8ff" d="M766.96,-285.62C746.45,-266.34 702.89,-218.92 718,-176 730.01,-141.89 759.21,-110.84 778.81,-92.81"/>
<polygon fill="#63b8ff" stroke="#63b8ff" points="781.01,-95.53 786.16,-86.27 776.36,-90.3 781.01,-95.53"/>
</g>
<!-- Node16&#45;&gt;Node3 -->
<g id="edge22" class="edge">
<title>Node16&#45;&gt;Node3</title>
<path fill="none" stroke="#63b8ff" d="M798,-175.66C798,-158.57 798,-120.61 798,-96.92"/>
<polygon fill="#63b8ff" stroke="#63b8ff" points="801.5,-96.97 798,-86.97 794.5,-96.97 801.5,-96.97"/>
</g>
<!-- Node18 -->
<g id="node18" class="node">
<title>Node18</title>
<g id="a_node18"><a xlink:href="OSInterrupt_8h.html" target="_top" xlink:title=" ">
<polygon fill="white" stroke="#666666" points="984,-365.5 862,-365.5 862,-346.5 984,-346.5 984,-365.5"/>
<text text-anchor="middle" x="923" y="-353.5" font-family="Helvetica,sans-Serif" font-size="10.00">dolphin/os/OSInterrupt.h</text>
</a>
</g>
</g>
<!-- Node17&#45;&gt;Node18 -->
<g id="edge24" class="edge">
<title>Node17&#45;&gt;Node18</title>
<path fill="none" stroke="#63b8ff" d="M925.38,-412.1C924.94,-401.93 924.35,-388.17 923.86,-376.95"/>
<polygon fill="#63b8ff" stroke="#63b8ff" points="927.37,-377.03 923.44,-367.19 920.37,-377.33 927.37,-377.03"/>
</g>
<!-- Node18&#45;&gt;Node3 -->
<g id="edge25" class="edge">
<title>Node18&#45;&gt;Node3</title>
<path fill="none" stroke="#63b8ff" d="M919.49,-346.04C912.4,-327.07 897,-281.32 897,-241.5 897,-241.5 897,-241.5 897,-184.5 897,-141.95 854.73,-108.9 825.43,-91.09"/>
<polygon fill="#63b8ff" stroke="#63b8ff" points="827.41,-88.2 817.01,-86.2 823.9,-94.25 827.41,-88.2"/>
</g>
<!-- Node19&#45;&gt;Node3 -->
<g id="edge27" class="edge">
<title>Node19&#45;&gt;Node3</title>
<path fill="none" stroke="#63b8ff" d="M1002.82,-175.53C983.32,-162.49 945.37,-138.01 911,-121 886.27,-108.76 857.29,-97.4 834.87,-89.23"/>
<polygon fill="#63b8ff" stroke="#63b8ff" points="836.14,-85.96 825.54,-85.88 833.77,-92.55 836.14,-85.96"/>
</g>
<!-- Node20&#45;&gt;Node10 -->
<g id="edge29" class="edge">
<title>Node20&#45;&gt;Node10</title>
<path fill="none" stroke="#63b8ff" d="M627.22,-285.65C629.96,-273.18 633.59,-249.83 628,-231 625.15,-221.41 619.51,-211.96 613.95,-204.25"/>
<polygon fill="#63b8ff" stroke="#63b8ff" points="616.78,-202.18 607.87,-196.45 611.26,-206.49 616.78,-202.18"/>
</g>
<!-- Node20&#45;&gt;Node11 -->
<g id="edge30" class="edge">
<title>Node20&#45;&gt;Node11</title>
<path fill="none" stroke="#63b8ff" d="M614.48,-285.51C605.61,-277.93 592.69,-266.88 582.01,-257.75"/>
<polygon fill="#63b8ff" stroke="#63b8ff" points="584.39,-255.18 574.51,-251.34 579.84,-260.5 584.39,-255.18"/>
</g>
<!-- Node21&#45;&gt;Node3 -->
<g id="edge32" class="edge">
<title>Node21&#45;&gt;Node3</title>
<path fill="none" stroke="#63b8ff" d="M1019.71,-120.51C972.64,-111.17 899.09,-96.57 849.76,-86.77"/>
<polygon fill="#63b8ff" stroke="#63b8ff" points="850.67,-83.39 840.18,-84.87 849.31,-90.25 850.67,-83.39"/>
</g>
<!-- Node22&#45;&gt;Node3 -->
<g id="edge34" class="edge">
<title>Node22&#45;&gt;Node3</title>
<path fill="none" stroke="#63b8ff" d="M1168.19,-230.75C1170.65,-208.64 1173.66,-150.25 1142,-121 1100.61,-82.76 935.89,-76.65 850.28,-76.13"/>
<polygon fill="#63b8ff" stroke="#63b8ff" points="850.53,-72.63 840.51,-76.09 850.5,-79.63 850.53,-72.63"/>
</g>
<!-- Node24&#45;&gt;Node8 -->
<g id="edge37" class="edge">
<title>Node24&#45;&gt;Node8</title>
<path fill="none" stroke="#63b8ff" d="M509.96,-340.54C499.24,-331.96 485.66,-321.07 474.67,-312.26"/>
<polygon fill="#63b8ff" stroke="#63b8ff" points="477,-309.64 467.01,-306.12 472.62,-315.11 477,-309.64"/>
</g>
<!-- Node26&#45;&gt;Node3 -->
<g id="edge40" class="edge">
<title>Node26&#45;&gt;Node3</title>
<path fill="none" stroke="#63b8ff" d="M1212.77,-124.31C1204.29,-123.19 1195.34,-122.03 1187,-121 1066.61,-106.12 925.04,-90.36 850.32,-82.18"/>
<polygon fill="#63b8ff" stroke="#63b8ff" points="850.74,-78.71 840.42,-81.1 849.98,-85.66 850.74,-78.71"/>
</g>
<!-- Node27&#45;&gt;Node3 -->
<g id="edge42" class="edge">
<title>Node27&#45;&gt;Node3</title>
<path fill="none" stroke="#63b8ff" d="M1352.83,-230.77C1349.28,-208.21 1336.45,-147.82 1298,-121 1261.9,-95.82 971.4,-82.67 850.5,-78.24"/>
<polygon fill="#63b8ff" stroke="#63b8ff" points="850.63,-74.75 840.51,-77.88 850.38,-81.74 850.63,-74.75"/>
</g>
</g>
</svg>
