<?xml version="1.0" encoding="UTF-8" standalone="no"?>
<!DOCTYPE svg PUBLIC "-//W3C//DTD SVG 1.1//EN"
 "http://www.w3.org/Graphics/SVG/1.1/DTD/svg11.dtd">
<!-- Generated by graphviz version 7.0.5 (20221223.1930)
 -->
<!-- Title: libs/JSystem/JAudio2/JASDSPInterface.cpp Pages: 1 -->
<!--zoomable 467 -->
<svg id="main" version="1.1" xmlns="http://www.w3.org/2000/svg" xmlns:xlink="http://www.w3.org/1999/xlink" xml:space="preserve" onload="init(evt)">
<style type="text/css"><![CDATA[
.edge:hover path { stroke: red; }
.edge:hover polygon { stroke: red; fill: red; }
]]></style>
<script type="text/javascript"><![CDATA[
var edges = document.getElementsByTagName('g');
if (edges && edges.length) {
  for (var i=0;i<edges.length;i++) {
    if (edges[i].id.substr(0,4)=='edge') {
      edges[i].setAttribute('class','edge');
    }
  }
}
]]></script>
        <defs>
                <circle id="rim" cx="0" cy="0" r="7"/>
                <circle id="rim2" cx="0" cy="0" r="3.5"/>
                <g id="zoomPlus">
                        <use xlink:href="#rim" fill="#404040">
                                <set attributeName="fill" to="#808080" begin="zoomplus.mouseover" end="zoomplus.mouseout"/>
                        </use>
                        <path d="M-4,0h8M0,-4v8" fill="none" stroke="white" stroke-width="1.5" pointer-events="none"/>
                </g>
                <g id="zoomMin">
                        <use xlink:href="#rim" fill="#404040">
                                <set attributeName="fill" to="#808080" begin="zoomminus.mouseover" end="zoomminus.mouseout"/>
                        </use>
                        <path d="M-4,0h8" fill="none" stroke="white" stroke-width="1.5" pointer-events="none"/>
                </g>
                <g id="dirArrow">
                        <path fill="none" stroke="white" stroke-width="1.5" d="M0,-3.0v7 M-2.5,-0.5L0,-3.0L2.5,-0.5"/>
                </g>
               <g id="resetDef">
                       <use xlink:href="#rim2" fill="#404040">
                               <set attributeName="fill" to="#808080" begin="reset.mouseover" end="reset.mouseout"/>
                       </use>
               </g>
        </defs>

<script type="text/javascript">
var viewWidth = 1511;
var viewHeight = 467;
var sectionId = 'dynsection-0';
</script>
<script xlink:href="svgpan.js"/>
<svg id="graph" class="graph">
<g id="viewport">
<title>libs/JSystem/JAudio2/JASDSPInterface.cpp</title>
<!-- Node1 -->
<g id="node1" class="node">
<title>Node1</title>
<g id="a_node1"><a xlink:title=" ">
<polygon fill="#999999" stroke="#666666" points="729,-459 614,-459 614,-429 729,-429 729,-459"/>
<text text-anchor="start" x="622" y="-447" font-family="Helvetica,sans-Serif" font-size="10.00">libs/JSystem/JAudio2</text>
<text text-anchor="middle" x="671.5" y="-436" font-family="Helvetica,sans-Serif" font-size="10.00">/JASDSPInterface.cpp</text>
</a>
</g>
</g>
<!-- Node2 -->
<g id="node2" class="node">
<title>Node2</title>
<g id="a_node2"><a xlink:href="JASDSPInterface_8h.html" target="_top" xlink:title=" ">
<polygon fill="white" stroke="#666666" points="181,-140 0,-140 0,-121 181,-121 181,-140"/>
<text text-anchor="middle" x="90.5" y="-128" font-family="Helvetica,sans-Serif" font-size="10.00">JSystem/JAudio2/JASDSPInterface.h</text>
</a>
</g>
</g>
<!-- Node1&#45;&gt;Node2 -->
<g id="edge1" class="edge">
<title>Node1&#45;&gt;Node2</title>
<path fill="none" stroke="#63b8ff" d="M613.63,-441.04C501.49,-436.59 258.8,-423.66 181.5,-393 115.93,-366.99 55.5,-367.04 55.5,-296.5 55.5,-296.5 55.5,-296.5 55.5,-239.5 55.5,-207.07 69.96,-171.72 80.29,-150.59"/>
<polygon fill="#63b8ff" stroke="#63b8ff" points="83.36,-152.27 84.8,-141.77 77.13,-149.08 83.36,-152.27"/>
</g>
<!-- Node5 -->
<g id="node5" class="node">
<title>Node5</title>
<g id="a_node5"><a xlink:href="JASCalc_8h.html" target="_top" xlink:title=" ">
<polygon fill="white" stroke="#666666" points="225.5,-195 83.5,-195 83.5,-176 225.5,-176 225.5,-195"/>
<text text-anchor="middle" x="154.5" y="-183" font-family="Helvetica,sans-Serif" font-size="10.00">JSystem/JAudio2/JASCalc.h</text>
</a>
</g>
</g>
<!-- Node1&#45;&gt;Node5 -->
<g id="edge4" class="edge">
<title>Node1&#45;&gt;Node5</title>
<path fill="none" stroke="#63b8ff" d="M613.54,-443.23C507.68,-442.58 288.36,-435.92 227.5,-393 165.83,-349.51 155.9,-249.34 154.56,-206.51"/>
<polygon fill="#63b8ff" stroke="#63b8ff" points="158.06,-206.64 154.39,-196.7 151.06,-206.76 158.06,-206.64"/>
</g>
<!-- Node6 -->
<g id="node6" class="node">
<title>Node6</title>
<g id="a_node6"><a xlink:href="JASHeapCtrl_8h.html" target="_top" xlink:title=" ">
<polygon fill="white" stroke="#666666" points="516,-305 355,-305 355,-286 516,-286 516,-305"/>
<text text-anchor="middle" x="435.5" y="-293" font-family="Helvetica,sans-Serif" font-size="10.00">JSystem/JAudio2/JASHeapCtrl.h</text>
</a>
</g>
</g>
<!-- Node1&#45;&gt;Node6 -->
<g id="edge6" class="edge">
<title>Node1&#45;&gt;Node6</title>
<path fill="none" stroke="#63b8ff" d="M613.57,-428.91C586.98,-420.86 555.8,-409.11 530.5,-393 496.6,-371.42 465.62,-335.63 448.77,-314.24"/>
<polygon fill="#63b8ff" stroke="#63b8ff" points="451.67,-312.26 442.8,-306.47 446.12,-316.53 451.67,-312.26"/>
</g>
<!-- Node11 -->
<g id="node11" class="node">
<title>Node11</title>
<g id="a_node11"><a xlink:href="JASWaveInfo_8h.html" target="_top" xlink:title=" ">
<polygon fill="white" stroke="#666666" points="631.5,-140 467.5,-140 467.5,-121 631.5,-121 631.5,-140"/>
<text text-anchor="middle" x="549.5" y="-128" font-family="Helvetica,sans-Serif" font-size="10.00">JSystem/JAudio2/JASWaveInfo.h</text>
</a>
</g>
</g>
<!-- Node1&#45;&gt;Node11 -->
<g id="edge13" class="edge">
<title>Node1&#45;&gt;Node11</title>
<path fill="none" stroke="#63b8ff" d="M634.15,-428.59C618,-420.5 600.35,-408.81 589.5,-393 537,-316.51 542.45,-197.91 547.08,-151.28"/>
<polygon fill="#63b8ff" stroke="#63b8ff" points="550.53,-151.96 548.15,-141.64 543.57,-151.19 550.53,-151.96"/>
</g>
<!-- Node12 -->
<g id="node12" class="node">
<title>Node12</title>
<g id="a_node12"><a xlink:href="dsptask_8h.html" target="_top" xlink:title=" ">
<polygon fill="white" stroke="#666666" points="710.5,-250 572.5,-250 572.5,-231 710.5,-231 710.5,-250"/>
<text text-anchor="middle" x="641.5" y="-238" font-family="Helvetica,sans-Serif" font-size="10.00">JSystem/JAudio2/dsptask.h</text>
</a>
</g>
</g>
<!-- Node1&#45;&gt;Node12 -->
<g id="edge15" class="edge">
<title>Node1&#45;&gt;Node12</title>
<path fill="none" stroke="#63b8ff" d="M639.07,-428.53C624.8,-420.32 609.5,-408.54 601.5,-393 578.44,-348.19 609.7,-288.9 628.74,-259.55"/>
<polygon fill="#63b8ff" stroke="#63b8ff" points="631.53,-261.67 634.23,-251.43 625.73,-257.75 631.53,-261.67"/>
</g>
<!-- Node13 -->
<g id="node13" class="node">
<title>Node13</title>
<g id="a_node13"><a xlink:href="osdsp__task_8h.html" target="_top" xlink:title=" ">
<polygon fill="white" stroke="#666666" points="732.5,-382 610.5,-382 610.5,-352 732.5,-352 732.5,-382"/>
<text text-anchor="start" x="618.5" y="-370" font-family="Helvetica,sans-Serif" font-size="10.00">JSystem/JAudio2/osdsp</text>
<text text-anchor="middle" x="671.5" y="-359" font-family="Helvetica,sans-Serif" font-size="10.00">_task.h</text>
</a>
</g>
</g>
<!-- Node1&#45;&gt;Node13 -->
<g id="edge17" class="edge">
<title>Node1&#45;&gt;Node13</title>
<path fill="none" stroke="#63b8ff" d="M671.5,-428.54C671.5,-418.68 671.5,-405.36 671.5,-393.72"/>
<polygon fill="#63b8ff" stroke="#63b8ff" points="675,-393.93 671.5,-383.93 668,-393.93 675,-393.93"/>
</g>
<!-- Node15 -->
<g id="node15" class="node">
<title>Node15</title>
<g id="a_node15"><a xlink:href="JKRSolidHeap_8h.html" target="_top" xlink:title=" ">
<polygon fill="white" stroke="#666666" points="370.5,-382 236.5,-382 236.5,-352 370.5,-352 370.5,-382"/>
<text text-anchor="start" x="244.5" y="-370" font-family="Helvetica,sans-Serif" font-size="10.00">JSystem/JKernel/JKRSolid</text>
<text text-anchor="middle" x="303.5" y="-359" font-family="Helvetica,sans-Serif" font-size="10.00">Heap.h</text>
</a>
</g>
</g>
<!-- Node1&#45;&gt;Node15 -->
<g id="edge20" class="edge">
<title>Node1&#45;&gt;Node15</title>
<path fill="none" stroke="#63b8ff" d="M613.6,-431.2C551.06,-418.45 451.07,-398.08 381.61,-383.92"/>
<polygon fill="#63b8ff" stroke="#63b8ff" points="382.71,-380.57 372.22,-382 381.32,-387.43 382.71,-380.57"/>
</g>
<!-- Node18 -->
<g id="node18" class="node">
<title>Node18</title>
<g id="a_node18"><a xlink:href="dol2asm_8h.html" target="_top" xlink:title=" ">
<polygon fill="white" stroke="#666666" points="960,-376.5 899,-376.5 899,-357.5 960,-357.5 960,-376.5"/>
<text text-anchor="middle" x="929.5" y="-364.5" font-family="Helvetica,sans-Serif" font-size="10.00">dol2asm.h</text>
</a>
</g>
</g>
<!-- Node1&#45;&gt;Node18 -->
<g id="edge25" class="edge">
<title>Node1&#45;&gt;Node18</title>
<path fill="none" stroke="#63b8ff" d="M729.29,-433.9C772.89,-425.98 833.66,-412.65 884.5,-393 891.72,-390.21 899.21,-386.44 905.95,-382.68"/>
<polygon fill="#63b8ff" stroke="#63b8ff" points="907.63,-385.76 914.49,-377.69 904.09,-379.72 907.63,-385.76"/>
</g>
<!-- Node19 -->
<g id="node19" class="node">
<title>Node19</title>
<g id="a_node19"><a xlink:href="dsp_8h.html" target="_top" xlink:title=" ">
<polygon fill="white" stroke="#666666" points="842.5,-376.5 750.5,-376.5 750.5,-357.5 842.5,-357.5 842.5,-376.5"/>
<text text-anchor="middle" x="796.5" y="-364.5" font-family="Helvetica,sans-Serif" font-size="10.00">dolphin/dsp/dsp.h</text>
</a>
</g>
</g>
<!-- Node1&#45;&gt;Node19 -->
<g id="edge26" class="edge">
<title>Node1&#45;&gt;Node19</title>
<path fill="none" stroke="#63b8ff" d="M695.6,-428.54C717.65,-415.31 750.11,-395.84 772.21,-382.57"/>
<polygon fill="#63b8ff" stroke="#63b8ff" points="773.78,-385.71 780.56,-377.57 770.18,-379.71 773.78,-385.71"/>
</g>
<!-- Node21 -->
<g id="node21" class="node">
<title>Node21</title>
<g id="a_node21"><a xlink:href="OSCache_8h.html" target="_top" xlink:title=" ">
<polygon fill="white" stroke="#666666" points="938,-250 825,-250 825,-231 938,-231 938,-250"/>
<text text-anchor="middle" x="881.5" y="-238" font-family="Helvetica,sans-Serif" font-size="10.00">dolphin/os/OSCache.h</text>
</a>
</g>
</g>
<!-- Node1&#45;&gt;Node21 -->
<g id="edge29" class="edge">
<title>Node1&#45;&gt;Node21</title>
<path fill="none" stroke="#63b8ff" d="M729.44,-442.06C769.32,-438.21 820.52,-426.41 851.5,-393 885.15,-356.71 885.87,-294 883.66,-261.83"/>
<polygon fill="#63b8ff" stroke="#63b8ff" points="887.15,-261.58 882.78,-251.93 880.17,-262.19 887.15,-261.58"/>
</g>
<!-- Node22 -->
<g id="node22" class="node">
<title>Node22</title>
<g id="a_node22"><a xlink:title=" ">
<polygon fill="#e0e0e0" stroke="#999999" points="1174.5,-393 978.5,-393 978.5,-341 1174.5,-341 1174.5,-393"/>
<text text-anchor="start" x="986.5" y="-381" font-family="Helvetica,sans-Serif" font-size="10.00">asm/JSystem/JAudio2</text>
<text text-anchor="start" x="986.5" y="-370" font-family="Helvetica,sans-Serif" font-size="10.00">/JASDSPInterface/setFXLine</text>
<text text-anchor="start" x="986.5" y="-359" font-family="Helvetica,sans-Serif" font-size="10.00">__6JASDspFUcPsPQ26JASDsp13Fxline</text>
<text text-anchor="middle" x="1076.5" y="-348" font-family="Helvetica,sans-Serif" font-size="10.00">Config_.s</text>
</a>
</g>
</g>
<!-- Node1&#45;&gt;Node22 -->
<g id="edge31" class="edge">
<title>Node1&#45;&gt;Node22</title>
<path fill="none" stroke="#63b8ff" d="M729.38,-434.4C787.16,-425.56 878.73,-410.89 966.99,-393.45"/>
<polygon fill="#63b8ff" stroke="#63b8ff" points="967.41,-396.94 976.53,-391.55 966.04,-390.07 967.41,-396.94"/>
</g>
<!-- Node23 -->
<g id="node23" class="node">
<title>Node23</title>
<g id="a_node23"><a xlink:title=" ">
<polygon fill="#e0e0e0" stroke="#999999" points="1338.5,-387.5 1192.5,-387.5 1192.5,-346.5 1338.5,-346.5 1338.5,-387.5"/>
<text text-anchor="start" x="1200.5" y="-375.5" font-family="Helvetica,sans-Serif" font-size="10.00">asm/JSystem/JAudio2</text>
<text text-anchor="start" x="1200.5" y="-364.5" font-family="Helvetica,sans-Serif" font-size="10.00">/JASDSPInterface/playStart</text>
<text text-anchor="middle" x="1265.5" y="-353.5" font-family="Helvetica,sans-Serif" font-size="10.00">__Q26JASDsp8TChannelFv.s</text>
</a>
</g>
</g>
<!-- Node1&#45;&gt;Node23 -->
<g id="edge32" class="edge">
<title>Node1&#45;&gt;Node23</title>
<path fill="none" stroke="#63b8ff" d="M729.25,-441.09C824.65,-437.11 1020.8,-425.41 1183.5,-393 1186.89,-392.32 1190.35,-391.56 1193.82,-390.74"/>
<polygon fill="#63b8ff" stroke="#63b8ff" points="1194.64,-394.15 1203.48,-388.3 1192.92,-387.36 1194.64,-394.15"/>
</g>
<!-- Node24 -->
<g id="node24" class="node">
<title>Node24</title>
<g id="a_node24"><a xlink:title=" ">
<polygon fill="#e0e0e0" stroke="#999999" points="1502.5,-387.5 1356.5,-387.5 1356.5,-346.5 1502.5,-346.5 1502.5,-387.5"/>
<text text-anchor="start" x="1364.5" y="-375.5" font-family="Helvetica,sans-Serif" font-size="10.00">asm/JSystem/JAudio2</text>
<text text-anchor="start" x="1364.5" y="-364.5" font-family="Helvetica,sans-Serif" font-size="10.00">/JASDSPInterface/initFilter</text>
<text text-anchor="middle" x="1429.5" y="-353.5" font-family="Helvetica,sans-Serif" font-size="10.00">__Q26JASDsp8TChannelFv.s</text>
</a>
</g>
</g>
<!-- Node1&#45;&gt;Node24 -->
<g id="edge33" class="edge">
<title>Node1&#45;&gt;Node24</title>
<path fill="none" stroke="#63b8ff" d="M729.48,-443.03C847.07,-442.13 1121.64,-435.24 1347.5,-393 1351.08,-392.33 1354.73,-391.56 1358.4,-390.71"/>
<polygon fill="#63b8ff" stroke="#63b8ff" points="1359.09,-394.15 1367.95,-388.34 1357.41,-387.35 1359.09,-394.15"/>
</g>
<!-- Node3 -->
<g id="node3" class="node">
<title>Node3</title>
<g id="a_node3"><a xlink:href="types_8h.html" target="_top" xlink:title=" ">
<polygon fill="white" stroke="#666666" points="590,-85 509,-85 509,-66 590,-66 590,-85"/>
<text text-anchor="middle" x="549.5" y="-73" font-family="Helvetica,sans-Serif" font-size="10.00">dolphin/types.h</text>
</a>
</g>
</g>
<!-- Node2&#45;&gt;Node3 -->
<g id="edge2" class="edge">
<title>Node2&#45;&gt;Node3</title>
<path fill="none" stroke="#63b8ff" d="M168.36,-120.51C262.1,-109.69 416.92,-91.81 497.35,-82.52"/>
<polygon fill="#63b8ff" stroke="#63b8ff" points="497.63,-86.01 507.16,-81.39 496.82,-79.06 497.63,-86.01"/>
</g>
<!-- Node4 -->
<g id="node4" class="node">
<title>Node4</title>
<g id="a_node4"><a xlink:href="stddef_8h.html" target="_top" xlink:title=" ">
<polygon fill="white" stroke="#666666" points="617.5,-30 481.5,-30 481.5,0 617.5,0 617.5,-30"/>
<text text-anchor="start" x="489.5" y="-18" font-family="Helvetica,sans-Serif" font-size="10.00">MSL_C/MSL_Common/Src</text>
<text text-anchor="middle" x="549.5" y="-7" font-family="Helvetica,sans-Serif" font-size="10.00">/stddef.h</text>
</a>
</g>
</g>
<!-- Node3&#45;&gt;Node4 -->
<g id="edge3" class="edge">
<title>Node3&#45;&gt;Node4</title>
<path fill="none" stroke="#63b8ff" d="M549.5,-65.87C549.5,-59.4 549.5,-50.2 549.5,-41.45"/>
<polygon fill="#63b8ff" stroke="#63b8ff" points="553,-41.63 549.5,-31.63 546,-41.63 553,-41.63"/>
</g>
<!-- Node5&#45;&gt;Node3 -->
<g id="edge5" class="edge">
<title>Node5&#45;&gt;Node3</title>
<path fill="none" stroke="#63b8ff" d="M165.45,-175.65C183.47,-161.59 221.02,-134.39 257.5,-121 337.83,-91.51 437.51,-81.56 497.18,-78.2"/>
<polygon fill="#63b8ff" stroke="#63b8ff" points="497.24,-81.7 507.05,-77.69 496.88,-74.71 497.24,-81.7"/>
</g>
<!-- Node7 -->
<g id="node7" class="node">
<title>Node7</title>
<g id="a_node7"><a xlink:href="JSUList_8h.html" target="_top" xlink:title=" ">
<polygon fill="white" stroke="#666666" points="521,-195 378,-195 378,-176 521,-176 521,-195"/>
<text text-anchor="middle" x="449.5" y="-183" font-family="Helvetica,sans-Serif" font-size="10.00">JSystem/JSupport/JSUList.h</text>
</a>
</g>
</g>
<!-- Node6&#45;&gt;Node7 -->
<g id="edge7" class="edge">
<title>Node6&#45;&gt;Node7</title>
<path fill="none" stroke="#63b8ff" d="M448.7,-285.68C459.26,-277.76 473.31,-265.07 479.5,-250 486,-234.18 476.37,-216.64 466.34,-204.01"/>
<polygon fill="#63b8ff" stroke="#63b8ff" points="469.05,-201.79 459.84,-196.55 463.78,-206.39 469.05,-201.79"/>
</g>
<!-- Node8 -->
<g id="node8" class="node">
<title>Node8</title>
<g id="a_node8"><a xlink:href="OSMutex_8h.html" target="_top" xlink:title=" ">
<polygon fill="white" stroke="#666666" points="470.5,-250 358.5,-250 358.5,-231 470.5,-231 470.5,-250"/>
<text text-anchor="middle" x="414.5" y="-238" font-family="Helvetica,sans-Serif" font-size="10.00">dolphin/os/OSMutex.h</text>
</a>
</g>
</g>
<!-- Node6&#45;&gt;Node8 -->
<g id="edge9" class="edge">
<title>Node6&#45;&gt;Node8</title>
<path fill="none" stroke="#63b8ff" d="M432.03,-285.75C429.37,-279.04 425.6,-269.52 422.24,-261.02"/>
<polygon fill="#63b8ff" stroke="#63b8ff" points="425.54,-259.86 418.6,-251.85 419.03,-262.44 425.54,-259.86"/>
</g>
<!-- Node7&#45;&gt;Node3 -->
<g id="edge8" class="edge">
<title>Node7&#45;&gt;Node3</title>
<path fill="none" stroke="#63b8ff" d="M448.34,-175.76C447.06,-162.57 446.59,-137.39 458.5,-121 469.19,-106.3 486.08,-96.21 502.42,-89.41"/>
<polygon fill="#63b8ff" stroke="#63b8ff" points="503.48,-92.75 511.6,-85.94 501,-86.21 503.48,-92.75"/>
</g>
<!-- Node9 -->
<g id="node9" class="node">
<title>Node9</title>
<g id="a_node9"><a xlink:href="OSThread_8h.html" target="_top" xlink:title=" ">
<polygon fill="white" stroke="#666666" points="359.5,-195 243.5,-195 243.5,-176 359.5,-176 359.5,-195"/>
<text text-anchor="middle" x="301.5" y="-183" font-family="Helvetica,sans-Serif" font-size="10.00">dolphin/os/OSThread.h</text>
</a>
</g>
</g>
<!-- Node8&#45;&gt;Node9 -->
<g id="edge10" class="edge">
<title>Node8&#45;&gt;Node9</title>
<path fill="none" stroke="#63b8ff" d="M395.33,-230.51C377.61,-222.2 351.02,-209.73 330.67,-200.18"/>
<polygon fill="#63b8ff" stroke="#63b8ff" points="332.3,-197.08 321.76,-196 329.32,-203.42 332.3,-197.08"/>
</g>
<!-- Node10 -->
<g id="node10" class="node">
<title>Node10</title>
<g id="a_node10"><a xlink:href="OSContext_8h.html" target="_top" xlink:title=" ">
<polygon fill="white" stroke="#666666" points="386,-140 267,-140 267,-121 386,-121 386,-140"/>
<text text-anchor="middle" x="326.5" y="-128" font-family="Helvetica,sans-Serif" font-size="10.00">dolphin/os/OSContext.h</text>
</a>
</g>
</g>
<!-- Node9&#45;&gt;Node10 -->
<g id="edge11" class="edge">
<title>Node9&#45;&gt;Node10</title>
<path fill="none" stroke="#63b8ff" d="M305.63,-175.75C308.83,-168.96 313.39,-159.3 317.43,-150.73"/>
<polygon fill="#63b8ff" stroke="#63b8ff" points="320.54,-152.35 321.64,-141.81 314.2,-149.36 320.54,-152.35"/>
</g>
<!-- Node10&#45;&gt;Node3 -->
<g id="edge12" class="edge">
<title>Node10&#45;&gt;Node3</title>
<path fill="none" stroke="#63b8ff" d="M364.33,-120.51C401.93,-111.57 459.75,-97.83 500.77,-88.08"/>
<polygon fill="#63b8ff" stroke="#63b8ff" points="501.47,-91.51 510.39,-85.8 499.85,-84.7 501.47,-91.51"/>
</g>
<!-- Node11&#45;&gt;Node3 -->
<g id="edge14" class="edge">
<title>Node11&#45;&gt;Node3</title>
<path fill="none" stroke="#63b8ff" d="M549.5,-120.75C549.5,-114.27 549.5,-105.16 549.5,-96.9"/>
<polygon fill="#63b8ff" stroke="#63b8ff" points="553,-96.96 549.5,-86.96 546,-96.96 553,-96.96"/>
</g>
<!-- Node12&#45;&gt;Node3 -->
<g id="edge16" class="edge">
<title>Node12&#45;&gt;Node3</title>
<path fill="none" stroke="#63b8ff" d="M644.34,-230.6C650.47,-209.61 662.65,-156.16 640.5,-121 631.12,-106.11 615.16,-96.06 599.21,-89.34"/>
<polygon fill="#63b8ff" stroke="#63b8ff" points="600.8,-86.2 590.21,-85.93 598.32,-92.75 600.8,-86.2"/>
</g>
<!-- Node14 -->
<g id="node14" class="node">
<title>Node14</title>
<g id="a_node14"><a xlink:href="OSInterrupt_8h.html" target="_top" xlink:title=" ">
<polygon fill="white" stroke="#666666" points="750.5,-305 628.5,-305 628.5,-286 750.5,-286 750.5,-305"/>
<text text-anchor="middle" x="689.5" y="-293" font-family="Helvetica,sans-Serif" font-size="10.00">dolphin/os/OSInterrupt.h</text>
</a>
</g>
</g>
<!-- Node13&#45;&gt;Node14 -->
<g id="edge18" class="edge">
<title>Node13&#45;&gt;Node14</title>
<path fill="none" stroke="#63b8ff" d="M675.23,-351.6C677.89,-341.32 681.5,-327.38 684.43,-316.09"/>
<polygon fill="#63b8ff" stroke="#63b8ff" points="687.75,-317.2 686.87,-306.64 680.98,-315.45 687.75,-317.2"/>
</g>
<!-- Node14&#45;&gt;Node3 -->
<g id="edge19" class="edge">
<title>Node14&#45;&gt;Node3</title>
<path fill="none" stroke="#63b8ff" d="M697.71,-285.8C705.04,-277.38 715.25,-263.9 719.5,-250 721.97,-241.92 721.59,-239.18 719.5,-231 705.74,-177.04 701.07,-158.05 659.5,-121 642.76,-106.08 620.37,-95.8 600.16,-88.92"/>
<polygon fill="#63b8ff" stroke="#63b8ff" points="601.24,-85.59 590.65,-85.89 599.12,-92.26 601.24,-85.59"/>
</g>
<!-- Node16 -->
<g id="node16" class="node">
<title>Node16</title>
<g id="a_node16"><a xlink:href="JKRHeap_8h.html" target="_top" xlink:title=" ">
<polygon fill="white" stroke="#666666" points="337,-305 194,-305 194,-286 337,-286 337,-305"/>
<text text-anchor="middle" x="265.5" y="-293" font-family="Helvetica,sans-Serif" font-size="10.00">JSystem/JKernel/JKRHeap.h</text>
</a>
</g>
</g>
<!-- Node15&#45;&gt;Node16 -->
<g id="edge21" class="edge">
<title>Node15&#45;&gt;Node16</title>
<path fill="none" stroke="#63b8ff" d="M295.63,-351.6C289.83,-340.99 281.89,-326.48 275.62,-315.02"/>
<polygon fill="#63b8ff" stroke="#63b8ff" points="278.84,-313.6 270.97,-306.51 272.7,-316.96 278.84,-313.6"/>
</g>
<!-- Node16&#45;&gt;Node8 -->
<g id="edge24" class="edge">
<title>Node16&#45;&gt;Node8</title>
<path fill="none" stroke="#63b8ff" d="M290.78,-285.51C315,-276.89 351.8,-263.8 378.97,-254.14"/>
<polygon fill="#63b8ff" stroke="#63b8ff" points="379.92,-257.51 388.17,-250.87 377.58,-250.92 379.92,-257.51"/>
</g>
<!-- Node17 -->
<g id="node17" class="node">
<title>Node17</title>
<g id="a_node17"><a xlink:href="JKRDisposer_8h.html" target="_top" xlink:title=" ">
<polygon fill="white" stroke="#666666" points="340.5,-250 182.5,-250 182.5,-231 340.5,-231 340.5,-250"/>
<text text-anchor="middle" x="261.5" y="-238" font-family="Helvetica,sans-Serif" font-size="10.00">JSystem/JKernel/JKRDisposer.h</text>
</a>
</g>
</g>
<!-- Node16&#45;&gt;Node17 -->
<g id="edge22" class="edge">
<title>Node16&#45;&gt;Node17</title>
<path fill="none" stroke="#63b8ff" d="M264.84,-285.75C264.35,-279.27 263.66,-270.16 263.04,-261.9"/>
<polygon fill="#63b8ff" stroke="#63b8ff" points="266.53,-261.66 262.29,-251.95 259.55,-262.19 266.53,-261.66"/>
</g>
<!-- Node17&#45;&gt;Node7 -->
<g id="edge23" class="edge">
<title>Node17&#45;&gt;Node7</title>
<path fill="none" stroke="#63b8ff" d="M293.39,-230.51C324.68,-221.69 372.59,-208.18 407.08,-198.46"/>
<polygon fill="#63b8ff" stroke="#63b8ff" points="407.63,-201.94 416.31,-195.86 405.73,-195.2 407.63,-201.94"/>
</g>
<!-- Node20 -->
<g id="node20" class="node">
<title>Node20</title>
<g id="a_node20"><a xlink:href="OSTime_8h.html" target="_top" xlink:title=" ">
<polygon fill="white" stroke="#666666" points="853,-195 746,-195 746,-176 853,-176 853,-195"/>
<text text-anchor="middle" x="799.5" y="-183" font-family="Helvetica,sans-Serif" font-size="10.00">dolphin/os/OSTime.h</text>
</a>
</g>
</g>
<!-- Node19&#45;&gt;Node20 -->
<g id="edge27" class="edge">
<title>Node19&#45;&gt;Node20</title>
<path fill="none" stroke="#63b8ff" d="M796.64,-357.34C797.1,-330.16 798.51,-246.02 799.16,-206.89"/>
<polygon fill="#63b8ff" stroke="#63b8ff" points="802.66,-207.06 799.32,-197.01 795.66,-206.95 802.66,-207.06"/>
</g>
<!-- Node20&#45;&gt;Node3 -->
<g id="edge28" class="edge">
<title>Node20&#45;&gt;Node3</title>
<path fill="none" stroke="#63b8ff" d="M792.59,-175.61C781.34,-161.75 757.65,-135.13 731.5,-121 690.91,-99.06 639.44,-87.78 601.59,-82.07"/>
<polygon fill="#63b8ff" stroke="#63b8ff" points="602.2,-78.62 591.81,-80.68 601.22,-85.55 602.2,-78.62"/>
</g>
<!-- Node21&#45;&gt;Node3 -->
<g id="edge30" class="edge">
<title>Node21&#45;&gt;Node3</title>
<path fill="none" stroke="#63b8ff" d="M880.82,-230.71C879.38,-217.45 874.93,-192.19 861.5,-176 828.36,-136.07 807.25,-138.8 758.5,-121 706.63,-102.06 644.42,-90.1 601.43,-83.41"/>
<polygon fill="#63b8ff" stroke="#63b8ff" points="602.02,-79.96 591.61,-81.92 600.97,-86.88 602.02,-79.96"/>
</g>
</g>
</svg>
        <g id="navigator" transform="translate(0 0)" fill="#404254">
                <rect fill="#f2f5e9" fill-opacity="0.5" stroke="#606060" stroke-width=".5" x="0" y="0" width="60" height="60"/>
                <use id="zoomplus" xlink:href="#zoomPlus" x="17" y="9" onmousedown="handleZoom(evt,'in')"/>
                <use id="zoomminus" xlink:href="#zoomMin" x="42" y="9" onmousedown="handleZoom(evt,'out')"/>
                <use id="reset" xlink:href="#resetDef" x="30" y="36" onmousedown="handleReset()"/>
                <g id="arrowUp" xlink:href="#dirArrow" transform="translate(30 24)" onmousedown="handlePan(0,-1)">
                  <use xlink:href="#rim" fill="#404040">
                        <set attributeName="fill" to="#808080" begin="arrowUp.mouseover" end="arrowUp.mouseout"/>
                  </use>
                  <path fill="none" stroke="white" stroke-width="1.5" d="M0,-3.0v7 M-2.5,-0.5L0,-3.0L2.5,-0.5"/>
                </g>
                <g id="arrowRight" xlink:href="#dirArrow" transform="rotate(90) translate(36 -43)" onmousedown="handlePan(1,0)">
                  <use xlink:href="#rim" fill="#404040">
                        <set attributeName="fill" to="#808080" begin="arrowRight.mouseover" end="arrowRight.mouseout"/>
                  </use>
                  <path fill="none" stroke="white" stroke-width="1.5" d="M0,-3.0v7 M-2.5,-0.5L0,-3.0L2.5,-0.5"/>
                </g>
                <g id="arrowDown" xlink:href="#dirArrow" transform="rotate(180) translate(-30 -48)" onmousedown="handlePan(0,1)">
                  <use xlink:href="#rim" fill="#404040">
                        <set attributeName="fill" to="#808080" begin="arrowDown.mouseover" end="arrowDown.mouseout"/>
                  </use>
                  <path fill="none" stroke="white" stroke-width="1.5" d="M0,-3.0v7 M-2.5,-0.5L0,-3.0L2.5,-0.5"/>
                </g>
                <g id="arrowLeft" xlink:href="#dirArrow" transform="rotate(270) translate(-36 17)" onmousedown="handlePan(-1,0)">
                  <use xlink:href="#rim" fill="#404040">
                        <set attributeName="fill" to="#808080" begin="arrowLeft.mouseover" end="arrowLeft.mouseout"/>
                  </use>
                  <path fill="none" stroke="white" stroke-width="1.5" d="M0,-3.0v7 M-2.5,-0.5L0,-3.0L2.5,-0.5"/>
                </g>
        </g>
        <svg viewBox="0 0 15 15" width="100%" height="30px" preserveAspectRatio="xMaxYMin meet">
         <g id="arrow_out" transform="scale(0.3 0.3)">
          <a xlink:href="JASDSPInterface_8cpp__incl_org.svg" target="_base">
           <rect id="button" ry="5" rx="5" y="6" x="6" height="38" width="38"
                fill="#f2f5e9" fill-opacity="0.5" stroke="#606060" stroke-width="1.0"/>
           <path id="arrow"
             d="M 11.500037,31.436501 C 11.940474,20.09759 22.043105,11.32322 32.158766,21.979434 L 37.068811,17.246167 C 37.068811,17.246167 37.088388,32 37.088388,32 L 22.160133,31.978069 C 22.160133,31.978069 26.997745,27.140456 26.997745,27.140456 C 18.528582,18.264221 13.291696,25.230495 11.500037,31.436501 z"
             style="fill:#404040;"/>
          </a>
         </g>
        </svg>
</svg>
