<?xml version="1.0" encoding="UTF-8" standalone="no"?>
<!DOCTYPE svg PUBLIC "-//W3C//DTD SVG 1.1//EN"
 "http://www.w3.org/Graphics/SVG/1.1/DTD/svg11.dtd">
<!-- Generated by graphviz version 7.0.5 (20221223.1930)
 -->
<!-- Title: include/JSystem/JKernel/JKRHeap.h Pages: 1 -->
<svg width="5750pt" height="181pt"
 viewBox="0.00 0.00 5749.50 181.00" xmlns="http://www.w3.org/2000/svg" xmlns:xlink="http://www.w3.org/1999/xlink">
<g id="graph0" class="graph" transform="scale(1 1) rotate(0) translate(4 177)">
<title>include/JSystem/JKernel/JKRHeap.h</title>
<!-- Node1 -->
<g id="node1" class="node">
<title>Node1</title>
<g id="a_node1"><a xlink:title=" ">
<polygon fill="#999999" stroke="#666666" points="3254,-173 3129,-173 3129,-143 3254,-143 3254,-173"/>
<text text-anchor="start" x="3137" y="-161" font-family="Helvetica,sans-Serif" font-size="10.00">include/JSystem/JKernel</text>
<text text-anchor="middle" x="3191.5" y="-150" font-family="Helvetica,sans-Serif" font-size="10.00">/JKRHeap.h</text>
</a>
</g>
</g>
<!-- Node2 -->
<g id="node2" class="node">
<title>Node2</title>
<g id="a_node2"><a xlink:href="JKRAssertHeap_8h.html" target="_top" xlink:title=" ">
<polygon fill="white" stroke="#666666" points="533,-101.5 408,-101.5 408,-71.5 533,-71.5 533,-101.5"/>
<text text-anchor="start" x="416" y="-89.5" font-family="Helvetica,sans-Serif" font-size="10.00">include/JSystem/JKernel</text>
<text text-anchor="middle" x="470.5" y="-78.5" font-family="Helvetica,sans-Serif" font-size="10.00">/JKRAssertHeap.h</text>
</a>
</g>
</g>
<!-- Node1&#45;&gt;Node2 -->
<g id="edge1" class="edge">
<title>Node1&#45;&gt;Node2</title>
<path fill="none" stroke="#63b8ff" d="M3117.04,-156.54C2750.57,-154.12 1135.96,-141.63 634.5,-107 601.03,-104.69 563.9,-100.42 533.44,-96.46"/>
<polygon fill="#63b8ff" stroke="#63b8ff" points="3117,-160.04 3127.02,-156.6 3117.04,-153.04 3117,-160.04"/>
</g>
<!-- Node8 -->
<g id="node8" class="node">
<title>Node8</title>
<g id="a_node8"><a xlink:href="JKRExpHeap_8h.html" target="_top" xlink:title=" ">
<polygon fill="#fff0f0" stroke="red" points="915,-101.5 790,-101.5 790,-71.5 915,-71.5 915,-101.5"/>
<text text-anchor="start" x="798" y="-89.5" font-family="Helvetica,sans-Serif" font-size="10.00">include/JSystem/JKernel</text>
<text text-anchor="middle" x="852.5" y="-78.5" font-family="Helvetica,sans-Serif" font-size="10.00">/JKRExpHeap.h</text>
</a>
</g>
</g>
<!-- Node1&#45;&gt;Node8 -->
<g id="edge7" class="edge">
<title>Node1&#45;&gt;Node8</title>
<path fill="none" stroke="#63b8ff" d="M3117.11,-156.43C2750.55,-153.48 1145.17,-138.83 924.5,-107 916.3,-105.82 907.7,-104.01 899.41,-101.96"/>
<polygon fill="#63b8ff" stroke="#63b8ff" points="3117.07,-159.93 3127.1,-156.51 3117.13,-152.93 3117.07,-159.93"/>
</g>
<!-- Node41 -->
<g id="node14" class="node">
<title>Node41</title>
<g id="a_node14"><a xlink:href="JKRSolidHeap_8h.html" target="_top" xlink:title=" ">
<polygon fill="#fff0f0" stroke="red" points="769,-101.5 644,-101.5 644,-71.5 769,-71.5 769,-101.5"/>
<text text-anchor="start" x="652" y="-89.5" font-family="Helvetica,sans-Serif" font-size="10.00">include/JSystem/JKernel</text>
<text text-anchor="middle" x="706.5" y="-78.5" font-family="Helvetica,sans-Serif" font-size="10.00">/JKRSolidHeap.h</text>
</a>
</g>
</g>
<!-- Node1&#45;&gt;Node41 -->
<g id="edge15" class="edge">
<title>Node1&#45;&gt;Node41</title>
<path fill="none" stroke="#63b8ff" d="M3117.37,-156.51C2737.33,-153.85 1016.33,-140.04 780.5,-107 772.08,-105.82 763.24,-104.01 754.73,-101.96"/>
<polygon fill="#63b8ff" stroke="#63b8ff" points="3117.2,-160.01 3127.23,-156.58 3117.25,-153.01 3117.2,-160.01"/>
</g>
<!-- Node52 -->
<g id="node15" class="node">
<title>Node52</title>
<g id="a_node15"><a xlink:href="JKRThread_8h.html" target="_top" xlink:title=" ">
<polygon fill="#fff0f0" stroke="red" points="308,-101.5 183,-101.5 183,-71.5 308,-71.5 308,-101.5"/>
<text text-anchor="start" x="191" y="-89.5" font-family="Helvetica,sans-Serif" font-size="10.00">include/JSystem/JKernel</text>
<text text-anchor="middle" x="245.5" y="-78.5" font-family="Helvetica,sans-Serif" font-size="10.00">/JKRThread.h</text>
</a>
</g>
</g>
<!-- Node1&#45;&gt;Node52 -->
<g id="edge17" class="edge">
<title>Node1&#45;&gt;Node52</title>
<path fill="none" stroke="#63b8ff" d="M3117.46,-156.77C2731.77,-155.39 949.49,-146.93 398.5,-107 368.72,-104.84 335.86,-100.86 308.25,-97.06"/>
<polygon fill="#63b8ff" stroke="#63b8ff" points="3117.2,-160.27 3127.21,-156.8 3117.22,-153.27 3117.2,-160.27"/>
</g>
<!-- Node81 -->
<g id="node16" class="node">
<title>Node81</title>
<g id="a_node16"><a xlink:href="d__a__guard__mng_8h.html" target="_top" xlink:title=" ">
<polygon fill="white" stroke="#666666" points="1082,-101.5 933,-101.5 933,-71.5 1082,-71.5 1082,-101.5"/>
<text text-anchor="start" x="941" y="-89.5" font-family="Helvetica,sans-Serif" font-size="10.00">include/rel/d/a/d_a</text>
<text text-anchor="middle" x="1007.5" y="-78.5" font-family="Helvetica,sans-Serif" font-size="10.00">_guard_mng/d_a_guard_mng.h</text>
</a>
</g>
</g>
<!-- Node1&#45;&gt;Node81 -->
<g id="edge20" class="edge">
<title>Node1&#45;&gt;Node81</title>
<path fill="none" stroke="#63b8ff" d="M3117.46,-157.26C2793.07,-158.11 1495.54,-158.16 1091.5,-107 1081.99,-105.8 1071.99,-103.98 1062.33,-101.92"/>
<polygon fill="#63b8ff" stroke="#63b8ff" points="3117.08,-160.77 3127.07,-157.24 3117.06,-153.77 3117.08,-160.77"/>
</g>
<!-- Node82 -->
<g id="node17" class="node">
<title>Node82</title>
<g id="a_node17"><a xlink:href="d__a__tag__arena_8h.html" target="_top" xlink:title=" ">
<polygon fill="white" stroke="#666666" points="1221,-107 1100,-107 1100,-66 1221,-66 1221,-107"/>
<text text-anchor="start" x="1108" y="-95" font-family="Helvetica,sans-Serif" font-size="10.00">include/rel/d/a/tag</text>
<text text-anchor="start" x="1108" y="-84" font-family="Helvetica,sans-Serif" font-size="10.00">/d_a_tag_arena/d_a_tag</text>
<text text-anchor="middle" x="1160.5" y="-73" font-family="Helvetica,sans-Serif" font-size="10.00">_arena.h</text>
</a>
</g>
</g>
<!-- Node1&#45;&gt;Node82 -->
<g id="edge21" class="edge">
<title>Node1&#45;&gt;Node82</title>
<path fill="none" stroke="#63b8ff" d="M3117.05,-156.19C2781.67,-152.37 1419.3,-135.26 1230.5,-107 1227.51,-106.55 1224.46,-106.02 1221.39,-105.41"/>
<polygon fill="#63b8ff" stroke="#63b8ff" points="3116.99,-159.69 3127.03,-156.3 3117.07,-152.69 3116.99,-159.69"/>
</g>
<!-- Node83 -->
<g id="node18" class="node">
<title>Node83</title>
<g id="a_node18"><a xlink:href="d__a__tag__assistance_8h.html" target="_top" xlink:title=" ">
<polygon fill="white" stroke="#666666" points="1353.5,-107 1239.5,-107 1239.5,-66 1353.5,-66 1353.5,-107"/>
<text text-anchor="start" x="1247.5" y="-95" font-family="Helvetica,sans-Serif" font-size="10.00">include/rel/d/a/tag</text>
<text text-anchor="start" x="1247.5" y="-84" font-family="Helvetica,sans-Serif" font-size="10.00">/d_a_tag_assistance</text>
<text text-anchor="middle" x="1296.5" y="-73" font-family="Helvetica,sans-Serif" font-size="10.00">/d_a_tag_assistance.h</text>
</a>
</g>
</g>
<!-- Node1&#45;&gt;Node83 -->
<g id="edge22" class="edge">
<title>Node1&#45;&gt;Node83</title>
<path fill="none" stroke="#63b8ff" d="M3117.12,-156.11C2796.08,-152.1 1537.45,-134.75 1362.5,-107 1359.67,-106.55 1356.79,-106.01 1353.89,-105.41"/>
<polygon fill="#63b8ff" stroke="#63b8ff" points="3117.03,-159.61 3127.08,-156.23 3117.12,-152.61 3117.03,-159.61"/>
</g>
<!-- Node84 -->
<g id="node19" class="node">
<title>Node84</title>
<g id="a_node19"><a xlink:href="d__a__tag__chkpoint_8h.html" target="_top" xlink:title=" ">
<polygon fill="white" stroke="#666666" points="1475.5,-107 1371.5,-107 1371.5,-66 1475.5,-66 1475.5,-107"/>
<text text-anchor="start" x="1379.5" y="-95" font-family="Helvetica,sans-Serif" font-size="10.00">include/rel/d/a/tag</text>
<text text-anchor="start" x="1379.5" y="-84" font-family="Helvetica,sans-Serif" font-size="10.00">/d_a_tag_chkpoint/d</text>
<text text-anchor="middle" x="1423.5" y="-73" font-family="Helvetica,sans-Serif" font-size="10.00">_a_tag_chkpoint.h</text>
</a>
</g>
</g>
<!-- Node1&#45;&gt;Node84 -->
<g id="edge23" class="edge">
<title>Node1&#45;&gt;Node84</title>
<path fill="none" stroke="#63b8ff" d="M3117.37,-156.03C2810.43,-151.85 1647.59,-134.32 1485.5,-107 1482.27,-106.46 1478.98,-105.79 1475.68,-105.02"/>
<polygon fill="#63b8ff" stroke="#63b8ff" points="3117.22,-159.53 3127.27,-156.16 3117.32,-152.53 3117.22,-159.53"/>
</g>
<!-- Node85 -->
<g id="node20" class="node">
<title>Node85</title>
<g id="a_node20"><a xlink:href="d__a__tag__gra_8h.html" target="_top" xlink:title=" ">
<polygon fill="white" stroke="#666666" points="1631,-101.5 1494,-101.5 1494,-71.5 1631,-71.5 1631,-101.5"/>
<text text-anchor="start" x="1502" y="-89.5" font-family="Helvetica,sans-Serif" font-size="10.00">include/rel/d/a/tag</text>
<text text-anchor="middle" x="1562.5" y="-78.5" font-family="Helvetica,sans-Serif" font-size="10.00">/d_a_tag_gra/d_a_tag_gra.h</text>
</a>
</g>
</g>
<!-- Node1&#45;&gt;Node85 -->
<g id="edge24" class="edge">
<title>Node1&#45;&gt;Node85</title>
<path fill="none" stroke="#63b8ff" d="M3117.42,-156.7C2849.43,-155.28 1931,-147.52 1640.5,-107 1631.79,-105.79 1622.64,-103.99 1613.8,-101.97"/>
<polygon fill="#63b8ff" stroke="#63b8ff" points="3117.03,-160.2 3127.05,-156.75 3117.06,-153.2 3117.03,-160.2"/>
</g>
<!-- Node86 -->
<g id="node21" class="node">
<title>Node86</title>
<g id="a_node21"><a xlink:href="d__a__tag__schedule_8h.html" target="_top" xlink:title=" ">
<polygon fill="white" stroke="#666666" points="1756,-107 1649,-107 1649,-66 1756,-66 1756,-107"/>
<text text-anchor="start" x="1657" y="-95" font-family="Helvetica,sans-Serif" font-size="10.00">include/rel/d/a/tag</text>
<text text-anchor="start" x="1657" y="-84" font-family="Helvetica,sans-Serif" font-size="10.00">/d_a_tag_schedule/d</text>
<text text-anchor="middle" x="1702.5" y="-73" font-family="Helvetica,sans-Serif" font-size="10.00">_a_tag_schedule.h</text>
</a>
</g>
</g>
<!-- Node1&#45;&gt;Node86 -->
<g id="edge25" class="edge">
<title>Node1&#45;&gt;Node86</title>
<path fill="none" stroke="#63b8ff" d="M3117.45,-156.99C2863.54,-156.55 2029.36,-151.64 1765.5,-107 1762.45,-106.48 1759.35,-105.86 1756.23,-105.16"/>
<polygon fill="#63b8ff" stroke="#63b8ff" points="3117.22,-160.49 3127.23,-157 3117.23,-153.49 3117.22,-160.49"/>
</g>
<!-- Node87 -->
<g id="node22" class="node">
<title>Node87</title>
<g id="a_node22"><a xlink:href="d__a__tag__theB__hint_8h.html" target="_top" xlink:title=" ">
<polygon fill="white" stroke="#666666" points="1883,-107 1774,-107 1774,-66 1883,-66 1883,-107"/>
<text text-anchor="start" x="1782" y="-95" font-family="Helvetica,sans-Serif" font-size="10.00">include/rel/d/a/tag</text>
<text text-anchor="start" x="1782" y="-84" font-family="Helvetica,sans-Serif" font-size="10.00">/d_a_tag_theB_hint/d</text>
<text text-anchor="middle" x="1828.5" y="-73" font-family="Helvetica,sans-Serif" font-size="10.00">_a_tag_theB_hint.h</text>
</a>
</g>
</g>
<!-- Node1&#45;&gt;Node87 -->
<g id="edge26" class="edge">
<title>Node1&#45;&gt;Node87</title>
<path fill="none" stroke="#63b8ff" d="M3117.29,-156.65C2878.33,-155.12 2130.62,-147.17 1892.5,-107 1889.52,-106.5 1886.49,-105.9 1883.44,-105.22"/>
<polygon fill="#63b8ff" stroke="#63b8ff" points="3117.08,-160.15 3127.1,-156.71 3117.13,-153.15 3117.08,-160.15"/>
</g>
<!-- Node88 -->
<g id="node23" class="node">
<title>Node88</title>
<g id="a_node23"><a xlink:href="J2DMaterial_8cpp.html" target="_top" xlink:title=" ">
<polygon fill="white" stroke="#666666" points="2020,-101.5 1901,-101.5 1901,-71.5 2020,-71.5 2020,-101.5"/>
<text text-anchor="start" x="1909" y="-89.5" font-family="Helvetica,sans-Serif" font-size="10.00">libs/JSystem/J2DGraph</text>
<text text-anchor="middle" x="1960.5" y="-78.5" font-family="Helvetica,sans-Serif" font-size="10.00">/J2DMaterial.cpp</text>
</a>
</g>
</g>
<!-- Node1&#45;&gt;Node88 -->
<g id="edge27" class="edge">
<title>Node1&#45;&gt;Node88</title>
<path fill="none" stroke="#63b8ff" d="M3117.38,-156.06C2895.72,-152.89 2240.3,-140.85 2029.5,-107 2021.76,-105.76 2013.65,-103.94 2005.82,-101.92"/>
<polygon fill="#63b8ff" stroke="#63b8ff" points="3117.29,-159.56 3127.34,-156.2 3117.39,-152.56 3117.29,-159.56"/>
</g>
<!-- Node89 -->
<g id="node24" class="node">
<title>Node89</title>
<g id="a_node24"><a xlink:href="J2DPrint_8cpp.html" target="_top" xlink:title=" ">
<polygon fill="white" stroke="#666666" points="2157,-101.5 2038,-101.5 2038,-71.5 2157,-71.5 2157,-101.5"/>
<text text-anchor="start" x="2046" y="-89.5" font-family="Helvetica,sans-Serif" font-size="10.00">libs/JSystem/J2DGraph</text>
<text text-anchor="middle" x="2097.5" y="-78.5" font-family="Helvetica,sans-Serif" font-size="10.00">/J2DPrint.cpp</text>
</a>
</g>
</g>
<!-- Node1&#45;&gt;Node89 -->
<g id="edge28" class="edge">
<title>Node1&#45;&gt;Node89</title>
<path fill="none" stroke="#63b8ff" d="M3117.17,-155.56C2913.52,-151.27 2349.65,-136.95 2166.5,-107 2158.88,-105.75 2150.91,-103.97 2143.2,-101.98"/>
<polygon fill="#63b8ff" stroke="#63b8ff" points="3117.03,-159.06 3127.1,-155.77 3117.18,-152.06 3117.03,-159.06"/>
</g>
<!-- Node90 -->
<g id="node25" class="node">
<title>Node90</title>
<g id="a_node25"><a xlink:href="J2DScreen_8cpp.html" target="_top" xlink:title=" ">
<polygon fill="white" stroke="#666666" points="2294,-101.5 2175,-101.5 2175,-71.5 2294,-71.5 2294,-101.5"/>
<text text-anchor="start" x="2183" y="-89.5" font-family="Helvetica,sans-Serif" font-size="10.00">libs/JSystem/J2DGraph</text>
<text text-anchor="middle" x="2234.5" y="-78.5" font-family="Helvetica,sans-Serif" font-size="10.00">/J2DScreen.cpp</text>
</a>
</g>
</g>
<!-- Node1&#45;&gt;Node90 -->
<g id="edge29" class="edge">
<title>Node1&#45;&gt;Node90</title>
<path fill="none" stroke="#63b8ff" d="M3117.35,-154.92C2933.33,-149.41 2459.3,-133.08 2303.5,-107 2295.89,-105.73 2287.92,-103.93 2280.2,-101.93"/>
<polygon fill="#63b8ff" stroke="#63b8ff" points="3117.18,-158.41 3127.28,-155.21 3117.38,-151.42 3117.18,-158.41"/>
</g>
<!-- Node91 -->
<g id="node26" class="node">
<title>Node91</title>
<g id="a_node26"><a xlink:href="J3DMtxBuffer_8cpp.html" target="_top" xlink:title=" ">
<polygon fill="white" stroke="#666666" points="2470.5,-101.5 2312.5,-101.5 2312.5,-71.5 2470.5,-71.5 2470.5,-101.5"/>
<text text-anchor="start" x="2320.5" y="-89.5" font-family="Helvetica,sans-Serif" font-size="10.00">libs/JSystem/J3DGraphAnimator</text>
<text text-anchor="middle" x="2391.5" y="-78.5" font-family="Helvetica,sans-Serif" font-size="10.00">/J3DMtxBuffer.cpp</text>
</a>
</g>
</g>
<!-- Node1&#45;&gt;Node91 -->
<g id="edge30" class="edge">
<title>Node1&#45;&gt;Node91</title>
<path fill="none" stroke="#63b8ff" d="M3117.44,-155.4C2987.61,-151.8 2710.73,-140.55 2479.5,-107 2470.21,-105.65 2460.44,-103.86 2450.92,-101.92"/>
<polygon fill="#63b8ff" stroke="#63b8ff" points="3117.18,-158.9 3127.27,-155.67 3117.37,-151.9 3117.18,-158.9"/>
</g>
<!-- Node92 -->
<g id="node27" class="node">
<title>Node92</title>
<g id="a_node27"><a xlink:href="J3DDrawBuffer_8cpp.html" target="_top" xlink:title=" ">
<polygon fill="white" stroke="#666666" points="2630.5,-101.5 2488.5,-101.5 2488.5,-71.5 2630.5,-71.5 2630.5,-101.5"/>
<text text-anchor="start" x="2496.5" y="-89.5" font-family="Helvetica,sans-Serif" font-size="10.00">libs/JSystem/J3DGraphBase</text>
<text text-anchor="middle" x="2559.5" y="-78.5" font-family="Helvetica,sans-Serif" font-size="10.00">/J3DDrawBuffer.cpp</text>
</a>
</g>
</g>
<!-- Node1&#45;&gt;Node92 -->
<g id="edge31" class="edge">
<title>Node1&#45;&gt;Node92</title>
<path fill="none" stroke="#63b8ff" d="M3117.37,-153.79C3011,-148.4 2809.16,-135.2 2639.5,-107 2631.18,-105.62 2622.45,-103.84 2613.93,-101.91"/>
<polygon fill="#63b8ff" stroke="#63b8ff" points="3116.94,-157.27 3127.1,-154.28 3117.29,-150.28 3116.94,-157.27"/>
</g>
<!-- Node93 -->
<g id="node28" class="node">
<title>Node93</title>
<g id="a_node28"><a xlink:href="J3DPacket_8cpp.html" target="_top" xlink:title=" ">
<polygon fill="white" stroke="#666666" points="2790.5,-101.5 2648.5,-101.5 2648.5,-71.5 2790.5,-71.5 2790.5,-101.5"/>
<text text-anchor="start" x="2656.5" y="-89.5" font-family="Helvetica,sans-Serif" font-size="10.00">libs/JSystem/J3DGraphBase</text>
<text text-anchor="middle" x="2719.5" y="-78.5" font-family="Helvetica,sans-Serif" font-size="10.00">/J3DPacket.cpp</text>
</a>
</g>
</g>
<!-- Node1&#45;&gt;Node93 -->
<g id="edge32" class="edge">
<title>Node1&#45;&gt;Node93</title>
<path fill="none" stroke="#63b8ff" d="M3117.4,-150.05C3038.29,-142.05 2909.45,-127.35 2799.5,-107 2791.63,-105.54 2783.37,-103.79 2775.28,-101.94"/>
<polygon fill="#63b8ff" stroke="#63b8ff" points="3116.9,-153.52 3127.2,-151.03 3117.6,-146.55 3116.9,-153.52"/>
</g>
<!-- Node94 -->
<g id="node29" class="node">
<title>Node94</title>
<g id="a_node29"><a xlink:href="J3DVertex_8cpp.html" target="_top" xlink:title=" ">
<polygon fill="white" stroke="#666666" points="2950.5,-101.5 2808.5,-101.5 2808.5,-71.5 2950.5,-71.5 2950.5,-101.5"/>
<text text-anchor="start" x="2816.5" y="-89.5" font-family="Helvetica,sans-Serif" font-size="10.00">libs/JSystem/J3DGraphBase</text>
<text text-anchor="middle" x="2879.5" y="-78.5" font-family="Helvetica,sans-Serif" font-size="10.00">/J3DVertex.cpp</text>
</a>
</g>
</g>
<!-- Node1&#45;&gt;Node94 -->
<g id="edge33" class="edge">
<title>Node1&#45;&gt;Node94</title>
<path fill="none" stroke="#63b8ff" d="M3117.44,-141.42C3072.08,-131.77 3012.86,-118.97 2960.5,-107 2953.45,-105.39 2946.06,-103.66 2938.74,-101.93"/>
<polygon fill="#63b8ff" stroke="#63b8ff" points="3116.68,-144.84 3127.19,-143.49 3118.13,-137.99 3116.68,-144.84"/>
</g>
<!-- Node95 -->
<g id="node30" class="node">
<title>Node95</title>
<g id="a_node30"><a xlink:href="J3DShapeFactory_8cpp.html" target="_top" xlink:title=" ">
<polygon fill="white" stroke="#666666" points="3118,-101.5 2969,-101.5 2969,-71.5 3118,-71.5 3118,-101.5"/>
<text text-anchor="start" x="2977" y="-89.5" font-family="Helvetica,sans-Serif" font-size="10.00">libs/JSystem/J3DGraphLoader</text>
<text text-anchor="middle" x="3043.5" y="-78.5" font-family="Helvetica,sans-Serif" font-size="10.00">/J3DShapeFactory.cpp</text>
</a>
</g>
</g>
<!-- Node1&#45;&gt;Node95 -->
<g id="edge34" class="edge">
<title>Node1&#45;&gt;Node95</title>
<path fill="none" stroke="#63b8ff" d="M3150.53,-137.76C3126.35,-126.41 3096.24,-112.27 3074.13,-101.88"/>
<polygon fill="#63b8ff" stroke="#63b8ff" points="3148.92,-140.87 3159.46,-141.96 3151.9,-134.54 3148.92,-140.87"/>
</g>
<!-- Node96 -->
<g id="node31" class="node">
<title>Node96</title>
<g id="a_node31"><a xlink:href="JAISeq_8cpp.html" target="_top" xlink:title=" ">
<polygon fill="white" stroke="#666666" points="3247,-101.5 3136,-101.5 3136,-71.5 3247,-71.5 3247,-101.5"/>
<text text-anchor="start" x="3144" y="-89.5" font-family="Helvetica,sans-Serif" font-size="10.00">libs/JSystem/JAudio2</text>
<text text-anchor="middle" x="3191.5" y="-78.5" font-family="Helvetica,sans-Serif" font-size="10.00">/JAISeq.cpp</text>
</a>
</g>
</g>
<!-- Node1&#45;&gt;Node96 -->
<g id="edge35" class="edge">
<title>Node1&#45;&gt;Node96</title>
<path fill="none" stroke="#63b8ff" d="M3191.5,-131.26C3191.5,-121.33 3191.5,-110.36 3191.5,-101.88"/>
<polygon fill="#63b8ff" stroke="#63b8ff" points="3188,-131.09 3191.5,-141.09 3195,-131.09 3188,-131.09"/>
</g>
<!-- Node97 -->
<g id="node32" class="node">
<title>Node97</title>
<g id="a_node32"><a xlink:href="JASBasicInst_8cpp.html" target="_top" xlink:title=" ">
<polygon fill="white" stroke="#666666" points="3376,-101.5 3265,-101.5 3265,-71.5 3376,-71.5 3376,-101.5"/>
<text text-anchor="start" x="3273" y="-89.5" font-family="Helvetica,sans-Serif" font-size="10.00">libs/JSystem/JAudio2</text>
<text text-anchor="middle" x="3320.5" y="-78.5" font-family="Helvetica,sans-Serif" font-size="10.00">/JASBasicInst.cpp</text>
</a>
</g>
</g>
<!-- Node1&#45;&gt;Node97 -->
<g id="edge36" class="edge">
<title>Node1&#45;&gt;Node97</title>
<path fill="none" stroke="#63b8ff" d="M3228.35,-137.15C3249.23,-125.9 3274.87,-112.08 3293.81,-101.88"/>
<polygon fill="#63b8ff" stroke="#63b8ff" points="3226.7,-134.06 3219.56,-141.88 3230.03,-140.22 3226.7,-134.06"/>
</g>
<!-- Node98 -->
<g id="node33" class="node">
<title>Node98</title>
<g id="a_node33"><a xlink:href="JASDrumSet_8cpp.html" target="_top" xlink:title=" ">
<polygon fill="white" stroke="#666666" points="3505,-101.5 3394,-101.5 3394,-71.5 3505,-71.5 3505,-101.5"/>
<text text-anchor="start" x="3402" y="-89.5" font-family="Helvetica,sans-Serif" font-size="10.00">libs/JSystem/JAudio2</text>
<text text-anchor="middle" x="3449.5" y="-78.5" font-family="Helvetica,sans-Serif" font-size="10.00">/JASDrumSet.cpp</text>
</a>
</g>
</g>
<!-- Node1&#45;&gt;Node98 -->
<g id="edge37" class="edge">
<title>Node1&#45;&gt;Node98</title>
<path fill="none" stroke="#63b8ff" d="M3260.95,-139.88C3298.02,-130.55 3344.36,-118.56 3385.5,-107 3391.2,-105.4 3397.17,-103.66 3403.08,-101.9"/>
<polygon fill="#63b8ff" stroke="#63b8ff" points="3260.57,-136.37 3251.72,-142.2 3262.27,-143.16 3260.57,-136.37"/>
</g>
<!-- Node99 -->
<g id="node34" class="node">
<title>Node99</title>
<g id="a_node34"><a xlink:href="JKRAramBlock_8cpp.html" target="_top" xlink:title=" ">
<polygon fill="white" stroke="#666666" points="3632,-101.5 3523,-101.5 3523,-71.5 3632,-71.5 3632,-101.5"/>
<text text-anchor="start" x="3531" y="-89.5" font-family="Helvetica,sans-Serif" font-size="10.00">libs/JSystem/JKernel</text>
<text text-anchor="middle" x="3577.5" y="-78.5" font-family="Helvetica,sans-Serif" font-size="10.00">/JKRAramBlock.cpp</text>
</a>
</g>
</g>
<!-- Node1&#45;&gt;Node99 -->
<g id="edge38" class="edge">
<title>Node1&#45;&gt;Node99</title>
<path fill="none" stroke="#63b8ff" d="M3265.33,-148.7C3331.18,-140.56 3429.96,-126.52 3514.5,-107 3520.75,-105.56 3527.28,-103.81 3533.66,-101.97"/>
<polygon fill="#63b8ff" stroke="#63b8ff" points="3265.24,-145.18 3255.74,-149.87 3266.09,-152.13 3265.24,-145.18"/>
</g>
<!-- Node100 -->
<g id="node35" class="node">
<title>Node100</title>
<g id="a_node35"><a xlink:href="JKRAramHeap_8cpp.html" target="_top" xlink:title=" ">
<polygon fill="white" stroke="#666666" points="3759,-101.5 3650,-101.5 3650,-71.5 3759,-71.5 3759,-101.5"/>
<text text-anchor="start" x="3658" y="-89.5" font-family="Helvetica,sans-Serif" font-size="10.00">libs/JSystem/JKernel</text>
<text text-anchor="middle" x="3704.5" y="-78.5" font-family="Helvetica,sans-Serif" font-size="10.00">/JKRAramHeap.cpp</text>
</a>
</g>
</g>
<!-- Node1&#45;&gt;Node100 -->
<g id="edge39" class="edge">
<title>Node1&#45;&gt;Node100</title>
<path fill="none" stroke="#63b8ff" d="M3265.75,-153.07C3355.52,-147.33 3510.83,-134.23 3641.5,-107 3648.11,-105.62 3655.02,-103.84 3661.74,-101.92"/>
<polygon fill="#63b8ff" stroke="#63b8ff" points="3265.6,-149.57 3255.84,-153.69 3266.04,-156.56 3265.6,-149.57"/>
</g>
<!-- Node101 -->
<g id="node36" class="node">
<title>Node101</title>
<g id="a_node36"><a xlink:href="JKRArchivePri_8cpp.html" target="_top" xlink:title=" ">
<polygon fill="white" stroke="#666666" points="3886,-101.5 3777,-101.5 3777,-71.5 3886,-71.5 3886,-101.5"/>
<text text-anchor="start" x="3785" y="-89.5" font-family="Helvetica,sans-Serif" font-size="10.00">libs/JSystem/JKernel</text>
<text text-anchor="middle" x="3831.5" y="-78.5" font-family="Helvetica,sans-Serif" font-size="10.00">/JKRArchivePri.cpp</text>
</a>
</g>
</g>
<!-- Node1&#45;&gt;Node101 -->
<g id="edge40" class="edge">
<title>Node1&#45;&gt;Node101</title>
<path fill="none" stroke="#63b8ff" d="M3265.78,-155.62C3376.34,-152.43 3590.28,-141.89 3768.5,-107 3775.24,-105.68 3782.28,-103.91 3789.12,-101.97"/>
<polygon fill="#63b8ff" stroke="#63b8ff" points="3265.85,-152.12 3255.95,-155.89 3266.05,-159.12 3265.85,-152.12"/>
</g>
<!-- Node102 -->
<g id="node37" class="node">
<title>Node102</title>
<g id="a_node37"><a xlink:href="JKRArchivePub_8cpp.html" target="_top" xlink:title=" ">
<polygon fill="white" stroke="#666666" points="4013,-101.5 3904,-101.5 3904,-71.5 4013,-71.5 4013,-101.5"/>
<text text-anchor="start" x="3912" y="-89.5" font-family="Helvetica,sans-Serif" font-size="10.00">libs/JSystem/JKernel</text>
<text text-anchor="middle" x="3958.5" y="-78.5" font-family="Helvetica,sans-Serif" font-size="10.00">/JKRArchivePub.cpp</text>
</a>
</g>
</g>
<!-- Node1&#45;&gt;Node102 -->
<g id="edge41" class="edge">
<title>Node1&#45;&gt;Node102</title>
<path fill="none" stroke="#63b8ff" d="M3265.55,-157.29C3394.63,-156.56 3668.72,-149.57 3895.5,-107 3902.36,-105.71 3909.53,-103.93 3916.47,-101.96"/>
<polygon fill="#63b8ff" stroke="#63b8ff" points="3265.77,-153.79 3255.78,-157.33 3265.8,-160.79 3265.77,-153.79"/>
</g>
<!-- Node103 -->
<g id="node38" class="node">
<title>Node103</title>
<g id="a_node38"><a xlink:href="JKRDisposer_8cpp.html" target="_top" xlink:title=" ">
<polygon fill="white" stroke="#666666" points="4140,-101.5 4031,-101.5 4031,-71.5 4140,-71.5 4140,-101.5"/>
<text text-anchor="start" x="4039" y="-89.5" font-family="Helvetica,sans-Serif" font-size="10.00">libs/JSystem/JKernel</text>
<text text-anchor="middle" x="4085.5" y="-78.5" font-family="Helvetica,sans-Serif" font-size="10.00">/JKRDisposer.cpp</text>
</a>
</g>
</g>
<!-- Node1&#45;&gt;Node103 -->
<g id="edge42" class="edge">
<title>Node1&#45;&gt;Node103</title>
<path fill="none" stroke="#63b8ff" d="M3265.84,-154.81C3441.52,-149.27 3878.39,-133.24 4022.5,-107 4029.48,-105.73 4036.78,-103.93 4043.83,-101.93"/>
<polygon fill="#63b8ff" stroke="#63b8ff" points="3265.8,-151.31 3255.91,-155.12 3266.01,-158.31 3265.8,-151.31"/>
</g>
<!-- Node104 -->
<g id="node39" class="node">
<title>Node104</title>
<g id="a_node39"><a xlink:href="JKRFileCache_8cpp.html" target="_top" xlink:title=" ">
<polygon fill="white" stroke="#666666" points="4267,-101.5 4158,-101.5 4158,-71.5 4267,-71.5 4267,-101.5"/>
<text text-anchor="start" x="4166" y="-89.5" font-family="Helvetica,sans-Serif" font-size="10.00">libs/JSystem/JKernel</text>
<text text-anchor="middle" x="4212.5" y="-78.5" font-family="Helvetica,sans-Serif" font-size="10.00">/JKRFileCache.cpp</text>
</a>
</g>
</g>
<!-- Node1&#45;&gt;Node104 -->
<g id="edge43" class="edge">
<title>Node1&#45;&gt;Node104</title>
<path fill="none" stroke="#63b8ff" d="M3265.68,-155.5C3459.92,-151.21 3980.08,-137.16 4149.5,-107 4156.49,-105.76 4163.79,-103.97 4170.84,-101.98"/>
<polygon fill="#63b8ff" stroke="#63b8ff" points="3265.62,-152 3255.7,-155.72 3265.78,-159 3265.62,-152"/>
</g>
<!-- Node75 -->
<g id="node40" class="node">
<title>Node75</title>
<g id="a_node40"><a xlink:href="JKRHeap_8cpp.html" target="_top" xlink:title=" ">
<polygon fill="white" stroke="#666666" points="4394,-101.5 4285,-101.5 4285,-71.5 4394,-71.5 4394,-101.5"/>
<text text-anchor="start" x="4293" y="-89.5" font-family="Helvetica,sans-Serif" font-size="10.00">libs/JSystem/JKernel</text>
<text text-anchor="middle" x="4339.5" y="-78.5" font-family="Helvetica,sans-Serif" font-size="10.00">/JKRHeap.cpp</text>
</a>
</g>
</g>
<!-- Node1&#45;&gt;Node75 -->
<g id="edge44" class="edge">
<title>Node1&#45;&gt;Node75</title>
<path fill="none" stroke="#63b8ff" d="M3265.45,-156.04C3476.94,-152.89 4081.57,-141.09 4276.5,-107 4283.61,-105.76 4291.03,-103.95 4298.18,-101.92"/>
<polygon fill="#63b8ff" stroke="#63b8ff" points="3265.64,-152.53 3255.7,-156.18 3265.75,-159.53 3265.64,-152.53"/>
</g>
<!-- Node105 -->
<g id="node41" class="node">
<title>Node105</title>
<g id="a_node41"><a xlink:href="JUTConsole_8cpp.html" target="_top" xlink:title=" ">
<polygon fill="white" stroke="#666666" points="4518.5,-101.5 4412.5,-101.5 4412.5,-71.5 4518.5,-71.5 4518.5,-101.5"/>
<text text-anchor="start" x="4420.5" y="-89.5" font-family="Helvetica,sans-Serif" font-size="10.00">libs/JSystem/JUtility</text>
<text text-anchor="middle" x="4465.5" y="-78.5" font-family="Helvetica,sans-Serif" font-size="10.00">/JUTConsole.cpp</text>
</a>
</g>
</g>
<!-- Node1&#45;&gt;Node105 -->
<g id="edge45" class="edge">
<title>Node1&#45;&gt;Node105</title>
<path fill="none" stroke="#63b8ff" d="M3265.72,-156.49C3493.93,-154.53 4183.15,-145.5 4403.5,-107 4410.5,-105.78 4417.81,-103.97 4424.86,-101.95"/>
<polygon fill="#63b8ff" stroke="#63b8ff" points="3265.72,-152.99 3255.75,-156.58 3265.78,-159.99 3265.72,-152.99"/>
</g>
<!-- Node106 -->
<g id="node42" class="node">
<title>Node106</title>
<g id="a_node42"><a xlink:href="JUTDbPrint_8cpp.html" target="_top" xlink:title=" ">
<polygon fill="white" stroke="#666666" points="4642.5,-101.5 4536.5,-101.5 4536.5,-71.5 4642.5,-71.5 4642.5,-101.5"/>
<text text-anchor="start" x="4544.5" y="-89.5" font-family="Helvetica,sans-Serif" font-size="10.00">libs/JSystem/JUtility</text>
<text text-anchor="middle" x="4589.5" y="-78.5" font-family="Helvetica,sans-Serif" font-size="10.00">/JUTDbPrint.cpp</text>
</a>
</g>
</g>
<!-- Node1&#45;&gt;Node106 -->
<g id="edge46" class="edge">
<title>Node1&#45;&gt;Node106</title>
<path fill="none" stroke="#63b8ff" d="M3265.37,-156.83C3508.45,-155.86 4281.95,-149.42 4527.5,-107 4534.5,-105.79 4541.82,-103.99 4548.86,-101.97"/>
<polygon fill="#63b8ff" stroke="#63b8ff" points="3265.7,-153.33 3255.71,-156.86 3265.72,-160.33 3265.7,-153.33"/>
</g>
<!-- Node107 -->
<g id="node43" class="node">
<title>Node107</title>
<g id="a_node43"><a xlink:href="JUTGraphFifo_8cpp.html" target="_top" xlink:title=" ">
<polygon fill="white" stroke="#666666" points="4766.5,-101.5 4660.5,-101.5 4660.5,-71.5 4766.5,-71.5 4766.5,-101.5"/>
<text text-anchor="start" x="4668.5" y="-89.5" font-family="Helvetica,sans-Serif" font-size="10.00">libs/JSystem/JUtility</text>
<text text-anchor="middle" x="4713.5" y="-78.5" font-family="Helvetica,sans-Serif" font-size="10.00">/JUTGraphFifo.cpp</text>
</a>
</g>
</g>
<!-- Node1&#45;&gt;Node107 -->
<g id="edge47" class="edge">
<title>Node1&#45;&gt;Node107</title>
<path fill="none" stroke="#63b8ff" d="M3265.56,-157.1C3523.41,-157.05 4380.83,-153.32 4651.5,-107 4658.51,-105.8 4665.82,-104.01 4672.86,-101.99"/>
<polygon fill="#63b8ff" stroke="#63b8ff" points="3265.61,-153.6 3255.61,-157.1 3265.61,-160.6 3265.61,-153.6"/>
</g>
<!-- Node108 -->
<g id="node44" class="node">
<title>Node108</title>
<g id="a_node44"><a xlink:href="JUTResFont_8cpp.html" target="_top" xlink:title=" ">
<polygon fill="white" stroke="#666666" points="4890.5,-101.5 4784.5,-101.5 4784.5,-71.5 4890.5,-71.5 4890.5,-101.5"/>
<text text-anchor="start" x="4792.5" y="-89.5" font-family="Helvetica,sans-Serif" font-size="10.00">libs/JSystem/JUtility</text>
<text text-anchor="middle" x="4837.5" y="-78.5" font-family="Helvetica,sans-Serif" font-size="10.00">/JUTResFont.cpp</text>
</a>
</g>
</g>
<!-- Node1&#45;&gt;Node108 -->
<g id="edge48" class="edge">
<title>Node1&#45;&gt;Node108</title>
<path fill="none" stroke="#63b8ff" d="M3265.4,-157.34C3537,-158.16 4479.5,-157.24 4775.5,-107 4782.62,-105.79 4790.05,-103.97 4797.2,-101.91"/>
<polygon fill="#63b8ff" stroke="#63b8ff" points="3265.64,-153.84 3255.63,-157.31 3265.62,-160.84 3265.64,-153.84"/>
</g>
<!-- Node109 -->
<g id="node45" class="node">
<title>Node109</title>
<g id="a_node45"><a xlink:href="JUTXfb_8cpp.html" target="_top" xlink:title=" ">
<polygon fill="white" stroke="#666666" points="5014.5,-101.5 4908.5,-101.5 4908.5,-71.5 5014.5,-71.5 5014.5,-101.5"/>
<text text-anchor="start" x="4916.5" y="-89.5" font-family="Helvetica,sans-Serif" font-size="10.00">libs/JSystem/JUtility</text>
<text text-anchor="middle" x="4961.5" y="-78.5" font-family="Helvetica,sans-Serif" font-size="10.00">/JUTXfb.cpp</text>
</a>
</g>
</g>
<!-- Node1&#45;&gt;Node109 -->
<g id="edge49" class="edge">
<title>Node1&#45;&gt;Node109</title>
<path fill="none" stroke="#63b8ff" d="M3265.72,-156.03C3573.02,-151.85 4737.22,-134.35 4899.5,-107 4906.62,-105.8 4914.06,-103.98 4921.2,-101.93"/>
<polygon fill="#63b8ff" stroke="#63b8ff" points="3265.76,-152.53 3255.81,-156.16 3265.85,-159.53 3265.76,-152.53"/>
</g>
<!-- Node110 -->
<g id="node46" class="node">
<title>Node110</title>
<g id="a_node46"><a xlink:href="c__malloc_8cpp.html" target="_top" xlink:title=" ">
<polygon fill="white" stroke="#666666" points="5166.5,-101.5 5032.5,-101.5 5032.5,-71.5 5166.5,-71.5 5166.5,-101.5"/>
<text text-anchor="start" x="5040.5" y="-89.5" font-family="Helvetica,sans-Serif" font-size="10.00">libs/SSystem/SComponent</text>
<text text-anchor="middle" x="5099.5" y="-78.5" font-family="Helvetica,sans-Serif" font-size="10.00">/c_malloc.cpp</text>
</a>
</g>
</g>
<!-- Node1&#45;&gt;Node110 -->
<g id="edge50" class="edge">
<title>Node1&#45;&gt;Node110</title>
<path fill="none" stroke="#63b8ff" d="M3265.65,-157.19C3563.76,-157.6 4675.44,-155.77 5023.5,-107 5032.13,-105.79 5041.2,-103.97 5049.94,-101.91"/>
<polygon fill="#63b8ff" stroke="#63b8ff" points="3265.66,-153.69 3255.66,-157.17 3265.65,-160.69 3265.66,-153.69"/>
</g>
<!-- Node111 -->
<g id="node47" class="node">
<title>Node111</title>
<g id="a_node47"><a xlink:href="Z2Audience_8cpp.html" target="_top" xlink:title=" ">
<polygon fill="white" stroke="#666666" points="5342,-96 5185,-96 5185,-77 5342,-77 5342,-96"/>
<text text-anchor="middle" x="5263.5" y="-84" font-family="Helvetica,sans-Serif" font-size="10.00">libs/Z2AudioLib/Z2Audience.cpp</text>
</a>
</g>
</g>
<!-- Node1&#45;&gt;Node111 -->
<g id="edge51" class="edge">
<title>Node1&#45;&gt;Node111</title>
<path fill="none" stroke="#63b8ff" d="M3265.5,-157.04C3578.54,-156.94 4795.23,-153.48 5175.5,-107 5193.83,-104.76 5213.96,-100.44 5230.33,-96.44"/>
<polygon fill="#63b8ff" stroke="#63b8ff" points="3265.83,-153.54 3255.83,-157.05 3265.83,-160.54 3265.83,-153.54"/>
</g>
<!-- Node112 -->
<g id="node48" class="node">
<title>Node112</title>
<g id="a_node48"><a xlink:href="d__gameover_8cpp.html" target="_top" xlink:title=" ">
<polygon fill="white" stroke="#666666" points="5473,-96 5360,-96 5360,-77 5473,-77 5473,-96"/>
<text text-anchor="middle" x="5416.5" y="-84" font-family="Helvetica,sans-Serif" font-size="10.00">src/d/d_gameover.cpp</text>
</a>
</g>
</g>
<!-- Node1&#45;&gt;Node112 -->
<g id="edge52" class="edge">
<title>Node1&#45;&gt;Node112</title>
<path fill="none" stroke="#63b8ff" d="M3265.84,-156.46C3621.67,-153.73 5142.37,-140.17 5351.5,-107 5365.23,-104.82 5380.11,-100.51 5392.17,-96.49"/>
<polygon fill="#63b8ff" stroke="#63b8ff" points="3265.9,-152.96 3255.93,-156.54 3265.95,-159.96 3265.9,-152.96"/>
</g>
<!-- Node113 -->
<g id="node49" class="node">
<title>Node113</title>
<g id="a_node49"><a xlink:href="d__kankyo__rain_8cpp.html" target="_top" xlink:title=" ">
<polygon fill="white" stroke="#666666" points="5607.5,-101.5 5491.5,-101.5 5491.5,-71.5 5607.5,-71.5 5607.5,-101.5"/>
<text text-anchor="start" x="5499.5" y="-89.5" font-family="Helvetica,sans-Serif" font-size="10.00">src/d/kankyo/d_kankyo</text>
<text text-anchor="middle" x="5549.5" y="-78.5" font-family="Helvetica,sans-Serif" font-size="10.00">_rain.cpp</text>
</a>
</g>
</g>
<!-- Node1&#45;&gt;Node113 -->
<g id="edge53" class="edge">
<title>Node1&#45;&gt;Node113</title>
<path fill="none" stroke="#63b8ff" d="M3265.81,-156.53C3634.62,-154.05 5259.62,-141.26 5482.5,-107 5490.16,-105.82 5498.18,-104.01 5505.9,-101.97"/>
<polygon fill="#63b8ff" stroke="#63b8ff" points="3265.99,-153.03 3256.01,-156.6 3266.03,-160.03 3265.99,-153.03"/>
</g>
<!-- Node114 -->
<g id="node50" class="node">
<title>Node114</title>
<g id="a_node50"><a xlink:href="d__kankyo__wether_8cpp.html" target="_top" xlink:title=" ">
<polygon fill="white" stroke="#666666" points="5741.5,-101.5 5625.5,-101.5 5625.5,-71.5 5741.5,-71.5 5741.5,-101.5"/>
<text text-anchor="start" x="5633.5" y="-89.5" font-family="Helvetica,sans-Serif" font-size="10.00">src/d/kankyo/d_kankyo</text>
<text text-anchor="middle" x="5683.5" y="-78.5" font-family="Helvetica,sans-Serif" font-size="10.00">_wether.cpp</text>
</a>
</g>
</g>
<!-- Node1&#45;&gt;Node114 -->
<g id="edge54" class="edge">
<title>Node1&#45;&gt;Node114</title>
<path fill="none" stroke="#63b8ff" d="M3265.77,-156.63C3647.46,-154.56 5379.68,-143.26 5616.5,-107 5624.16,-105.83 5632.18,-104.02 5639.9,-101.97"/>
<polygon fill="#63b8ff" stroke="#63b8ff" points="3265.84,-153.13 3255.86,-156.68 3265.88,-160.13 3265.84,-153.13"/>
</g>
<!-- Node3 -->
<g id="node3" class="node">
<title>Node3</title>
<g id="a_node3"><a xlink:href="JKRAssertHeap_8cpp.html" target="_top" xlink:title=" ">
<polygon fill="white" stroke="#666666" points="449,-30 340,-30 340,0 449,0 449,-30"/>
<text text-anchor="start" x="348" y="-18" font-family="Helvetica,sans-Serif" font-size="10.00">libs/JSystem/JKernel</text>
<text text-anchor="middle" x="394.5" y="-7" font-family="Helvetica,sans-Serif" font-size="10.00">/JKRAssertHeap.cpp</text>
</a>
</g>
</g>
<!-- Node2&#45;&gt;Node3 -->
<g id="edge2" class="edge">
<title>Node2&#45;&gt;Node3</title>
<path fill="none" stroke="#63b8ff" d="M446.57,-63.62C434.71,-52.77 420.72,-39.98 410.23,-30.38"/>
<polygon fill="#63b8ff" stroke="#63b8ff" points="443.89,-65.91 453.64,-70.08 448.62,-60.75 443.89,-65.91"/>
</g>
<!-- Node4 -->
<g id="node4" class="node">
<title>Node4</title>
<g id="a_node4"><a xlink:href="m__Do__DVDError_8cpp.html" target="_top" xlink:title=" ">
<polygon fill="white" stroke="#666666" points="151,-24.5 0,-24.5 0,-5.5 151,-5.5 151,-24.5"/>
<text text-anchor="middle" x="75.5" y="-12.5" font-family="Helvetica,sans-Serif" font-size="10.00">src/m_Do/m_Do_DVDError.cpp</text>
</a>
</g>
</g>
<!-- Node2&#45;&gt;Node4 -->
<g id="edge3" class="edge">
<title>Node2&#45;&gt;Node4</title>
<path fill="none" stroke="#63b8ff" d="M396.62,-72.5C317.84,-58.64 195.17,-37.06 126.49,-24.97"/>
<polygon fill="#63b8ff" stroke="#63b8ff" points="395.97,-75.94 406.42,-74.23 397.18,-69.05 395.97,-75.94"/>
</g>
<!-- Node5 -->
<g id="node5" class="node">
<title>Node5</title>
<g id="a_node5"><a xlink:href="m__Do__MemCard_8cpp.html" target="_top" xlink:title=" ">
<polygon fill="white" stroke="#666666" points="321.5,-24.5 169.5,-24.5 169.5,-5.5 321.5,-5.5 321.5,-24.5"/>
<text text-anchor="middle" x="245.5" y="-12.5" font-family="Helvetica,sans-Serif" font-size="10.00">src/m_Do/m_Do_MemCard.cpp</text>
</a>
</g>
</g>
<!-- Node2&#45;&gt;Node5 -->
<g id="edge4" class="edge">
<title>Node2&#45;&gt;Node5</title>
<path fill="none" stroke="#63b8ff" d="M412.7,-67.65C368.45,-53.98 309.28,-35.7 274.49,-24.96"/>
<polygon fill="#63b8ff" stroke="#63b8ff" points="411.57,-70.96 422.16,-70.57 413.64,-64.27 411.57,-70.96"/>
</g>
<!-- Node6 -->
<g id="node6" class="node">
<title>Node6</title>
<g id="a_node6"><a xlink:href="m__Do__dvd__thread_8cpp.html" target="_top" xlink:title=" ">
<polygon fill="white" stroke="#666666" points="625.5,-24.5 467.5,-24.5 467.5,-5.5 625.5,-5.5 625.5,-24.5"/>
<text text-anchor="middle" x="546.5" y="-12.5" font-family="Helvetica,sans-Serif" font-size="10.00">src/m_Do/m_Do_dvd_thread.cpp</text>
</a>
</g>
</g>
<!-- Node2&#45;&gt;Node6 -->
<g id="edge5" class="edge">
<title>Node2&#45;&gt;Node6</title>
<path fill="none" stroke="#63b8ff" d="M494.71,-63.36C509.07,-50.23 526.48,-34.31 537.01,-24.68"/>
<polygon fill="#63b8ff" stroke="#63b8ff" points="492.38,-60.75 487.36,-70.08 497.11,-65.91 492.38,-60.75"/>
</g>
<!-- Node7 -->
<g id="node7" class="node">
<title>Node7</title>
<g id="a_node7"><a xlink:href="m__Do__ext_8cpp.html" target="_top" xlink:title=" ">
<polygon fill="white" stroke="#666666" points="767,-24.5 644,-24.5 644,-5.5 767,-5.5 767,-24.5"/>
<text text-anchor="middle" x="705.5" y="-12.5" font-family="Helvetica,sans-Serif" font-size="10.00">src/m_Do/m_Do_ext.cpp</text>
</a>
</g>
</g>
<!-- Node2&#45;&gt;Node7 -->
<g id="edge6" class="edge">
<title>Node2&#45;&gt;Node7</title>
<path fill="none" stroke="#63b8ff" d="M530.28,-67.82C576.56,-54.13 638.73,-35.75 675.22,-24.96"/>
<polygon fill="#63b8ff" stroke="#63b8ff" points="529.53,-64.39 520.93,-70.59 531.51,-71.11 529.53,-64.39"/>
</g>
<!-- Node8&#45;&gt;Node6 -->
<g id="edge13" class="edge">
<title>Node8&#45;&gt;Node6</title>
<path fill="none" stroke="#63b8ff" d="M787.06,-68.32C783.83,-67.52 780.63,-66.75 777.5,-66 712.64,-50.55 637.04,-34.57 590.48,-24.96"/>
<polygon fill="#63b8ff" stroke="#63b8ff" points="786.07,-71.68 796.62,-70.7 787.76,-64.88 786.07,-71.68"/>
</g>
<!-- Node8&#45;&gt;Node7 -->
<g id="edge14" class="edge">
<title>Node8&#45;&gt;Node7</title>
<path fill="none" stroke="#63b8ff" d="M811.92,-66.31C783.29,-52.78 746.26,-35.27 724.28,-24.88"/>
<polygon fill="#63b8ff" stroke="#63b8ff" points="810.14,-69.34 820.67,-70.45 813.13,-63.01 810.14,-69.34"/>
</g>
<!-- Node9 -->
<g id="node9" class="node">
<title>Node9</title>
<g id="a_node9"><a xlink:href="m__Do__main_8h.html" target="_top" xlink:title=" ">
<polygon fill="#fff0f0" stroke="red" points="923.5,-24.5 785.5,-24.5 785.5,-5.5 923.5,-5.5 923.5,-24.5"/>
<text text-anchor="middle" x="854.5" y="-12.5" font-family="Helvetica,sans-Serif" font-size="10.00">include/m_Do/m_Do_main.h</text>
</a>
</g>
</g>
<!-- Node8&#45;&gt;Node9 -->
<g id="edge8" class="edge">
<title>Node8&#45;&gt;Node9</title>
<path fill="none" stroke="#63b8ff" d="M853.23,-59.96C853.59,-47.57 854,-33.49 854.25,-24.68"/>
<polygon fill="#63b8ff" stroke="#63b8ff" points="849.75,-59.49 852.96,-69.59 856.74,-59.69 849.75,-59.49"/>
</g>
<!-- Node18 -->
<g id="node10" class="node">
<title>Node18</title>
<g id="a_node10"><a xlink:href="JFWSystem_8cpp.html" target="_top" xlink:title=" ">
<polygon fill="white" stroke="#666666" points="1071.5,-30 941.5,-30 941.5,0 1071.5,0 1071.5,-30"/>
<text text-anchor="start" x="949.5" y="-18" font-family="Helvetica,sans-Serif" font-size="10.00">libs/JSystem/JFramework</text>
<text text-anchor="middle" x="1006.5" y="-7" font-family="Helvetica,sans-Serif" font-size="10.00">/JFWSystem.cpp</text>
</a>
</g>
</g>
<!-- Node8&#45;&gt;Node18 -->
<g id="edge9" class="edge">
<title>Node8&#45;&gt;Node18</title>
<path fill="none" stroke="#63b8ff" d="M894.79,-66.41C920.01,-55.03 951.52,-40.81 974.63,-30.38"/>
<polygon fill="#63b8ff" stroke="#63b8ff" points="893.46,-63.17 885.79,-70.48 896.34,-69.55 893.46,-63.17"/>
</g>
<!-- Node19 -->
<g id="node11" class="node">
<title>Node19</title>
<g id="a_node11"><a xlink:href="JKRAram_8cpp.html" target="_top" xlink:title=" ">
<polygon fill="white" stroke="#666666" points="1199,-30 1090,-30 1090,0 1199,0 1199,-30"/>
<text text-anchor="start" x="1098" y="-18" font-family="Helvetica,sans-Serif" font-size="10.00">libs/JSystem/JKernel</text>
<text text-anchor="middle" x="1144.5" y="-7" font-family="Helvetica,sans-Serif" font-size="10.00">/JKRAram.cpp</text>
</a>
</g>
</g>
<!-- Node8&#45;&gt;Node19 -->
<g id="edge10" class="edge">
<title>Node8&#45;&gt;Node19</title>
<path fill="none" stroke="#63b8ff" d="M915.64,-68.24C918.63,-67.47 921.6,-66.72 924.5,-66 955.29,-58.34 1035.21,-40.35 1089.75,-28.17"/>
<polygon fill="#63b8ff" stroke="#63b8ff" points="915,-64.79 906.2,-70.7 916.76,-71.57 915,-64.79"/>
</g>
<!-- Node20 -->
<g id="node12" class="node">
<title>Node20</title>
<g id="a_node12"><a xlink:href="JKRExpHeap_8cpp.html" target="_top" xlink:title=" ">
<polygon fill="white" stroke="#666666" points="1326,-30 1217,-30 1217,0 1326,0 1326,-30"/>
<text text-anchor="start" x="1225" y="-18" font-family="Helvetica,sans-Serif" font-size="10.00">libs/JSystem/JKernel</text>
<text text-anchor="middle" x="1271.5" y="-7" font-family="Helvetica,sans-Serif" font-size="10.00">/JKRExpHeap.cpp</text>
</a>
</g>
</g>
<!-- Node8&#45;&gt;Node20 -->
<g id="edge11" class="edge">
<title>Node8&#45;&gt;Node20</title>
<path fill="none" stroke="#63b8ff" d="M913.44,-68.37C917.17,-67.51 920.88,-66.72 924.5,-66 1049.31,-41.31 1083.15,-51.82 1208.5,-30 1211.15,-29.54 1213.86,-29.04 1216.58,-28.52"/>
<polygon fill="#63b8ff" stroke="#63b8ff" points="912.63,-64.96 903.73,-70.71 914.27,-71.77 912.63,-64.96"/>
</g>
<!-- Node21 -->
<g id="node13" class="node">
<title>Node21</title>
<g id="a_node13"><a xlink:href="DynamicLink_8cpp.html" target="_top" xlink:title=" ">
<polygon fill="white" stroke="#666666" points="1451,-24.5 1344,-24.5 1344,-5.5 1451,-5.5 1451,-24.5"/>
<text text-anchor="middle" x="1397.5" y="-12.5" font-family="Helvetica,sans-Serif" font-size="10.00">src/DynamicLink.cpp</text>
</a>
</g>
</g>
<!-- Node8&#45;&gt;Node21 -->
<g id="edge12" class="edge">
<title>Node8&#45;&gt;Node21</title>
<path fill="none" stroke="#63b8ff" d="M912.29,-68.45C916.41,-67.54 920.5,-66.71 924.5,-66 1105.04,-33.91 1154.32,-58.26 1335.5,-30 1344,-28.67 1353.08,-26.86 1361.59,-24.97"/>
<polygon fill="#63b8ff" stroke="#63b8ff" points="911.83,-64.96 902.9,-70.66 913.43,-71.77 911.83,-64.96"/>
</g>
<!-- Node41&#45;&gt;Node7 -->
<g id="edge16" class="edge">
<title>Node41&#45;&gt;Node7</title>
<path fill="none" stroke="#63b8ff" d="M706.13,-59.96C705.95,-47.57 705.75,-33.49 705.62,-24.68"/>
<polygon fill="#63b8ff" stroke="#63b8ff" points="702.63,-59.64 706.27,-69.59 709.63,-59.54 702.63,-59.64"/>
</g>
<!-- Node52&#45;&gt;Node4 -->
<g id="edge18" class="edge">
<title>Node52&#45;&gt;Node4</title>
<path fill="none" stroke="#63b8ff" d="M199.87,-66.84C166.59,-53.24 122.97,-35.41 97.22,-24.88"/>
<polygon fill="#63b8ff" stroke="#63b8ff" points="198.29,-69.98 208.87,-70.53 200.94,-63.5 198.29,-69.98"/>
</g>
<!-- Node52&#45;&gt;Node5 -->
<g id="edge19" class="edge">
<title>Node52&#45;&gt;Node5</title>
<path fill="none" stroke="#63b8ff" d="M245.5,-59.96C245.5,-47.57 245.5,-33.49 245.5,-24.68"/>
<polygon fill="#63b8ff" stroke="#63b8ff" points="242,-59.59 245.5,-69.59 249,-59.59 242,-59.59"/>
</g>
</g>
</svg>
