<?xml version="1.0" encoding="UTF-8" standalone="no"?>
<!DOCTYPE svg PUBLIC "-//W3C//DTD SVG 1.1//EN"
 "http://www.w3.org/Graphics/SVG/1.1/DTD/svg11.dtd">
<!-- Generated by graphviz version 7.0.4 (20221203.1631)
 -->
<!-- Title: include/JSystem/JMessage/control.h Pages: 1 -->
<!--zoomable 291 -->
<svg id="main" version="1.1" xmlns="http://www.w3.org/2000/svg" xmlns:xlink="http://www.w3.org/1999/xlink" xml:space="preserve" onload="init(evt)">
<style type="text/css"><![CDATA[
.edge:hover path { stroke: red; }
.edge:hover polygon { stroke: red; fill: red; }
]]></style>
<script type="text/javascript"><![CDATA[
var edges = document.getElementsByTagName('g');
if (edges && edges.length) {
  for (var i=0;i<edges.length;i++) {
    if (edges[i].id.substr(0,4)=='edge') {
      edges[i].setAttribute('class','edge');
    }
  }
}
]]></script>
        <defs>
                <circle id="rim" cx="0" cy="0" r="7"/>
                <circle id="rim2" cx="0" cy="0" r="3.5"/>
                <g id="zoomPlus">
                        <use xlink:href="#rim" fill="#404040">
                                <set attributeName="fill" to="#808080" begin="zoomplus.mouseover" end="zoomplus.mouseout"/>
                        </use>
                        <path d="M-4,0h8M0,-4v8" fill="none" stroke="white" stroke-width="1.5" pointer-events="none"/>
                </g>
                <g id="zoomMin">
                        <use xlink:href="#rim" fill="#404040">
                                <set attributeName="fill" to="#808080" begin="zoomminus.mouseover" end="zoomminus.mouseout"/>
                        </use>
                        <path d="M-4,0h8" fill="none" stroke="white" stroke-width="1.5" pointer-events="none"/>
                </g>
                <g id="dirArrow">
                        <path fill="none" stroke="white" stroke-width="1.5" d="M0,-3.0v7 M-2.5,-0.5L0,-3.0L2.5,-0.5"/>
                </g>
               <g id="resetDef">
                       <use xlink:href="#rim2" fill="#404040">
                               <set attributeName="fill" to="#808080" begin="reset.mouseover" end="reset.mouseout"/>
                       </use>
               </g>
        </defs>

<script type="text/javascript">
var viewWidth = 2899;
var viewHeight = 291;
var sectionId = 'dynsection-1';
</script>
<script xlink:href="svgpan.js"/>
<svg id="graph" class="graph">
<g id="viewport">
<title>include/JSystem/JMessage/control.h</title>
<!-- Node1 -->
<g id="node1" class="node">
<title>Node1</title>
<g id="a_node1"><a xlink:title=" ">
<polygon fill="#999999" stroke="#666666" points="1633.5,-283 1496.5,-283 1496.5,-253 1633.5,-253 1633.5,-283"/>
<text text-anchor="start" x="1504.5" y="-271" font-family="Helvetica,sans-Serif" font-size="10.00">include/JSystem/JMessage</text>
<text text-anchor="middle" x="1565" y="-260" font-family="Helvetica,sans-Serif" font-size="10.00">/control.h</text>
</a>
</g>
</g>
<!-- Node2 -->
<g id="node2" class="node">
<title>Node2</title>
<g id="a_node2"><a xlink:href="d__demo_8h.html" target="_top" xlink:title=" ">
<polygon fill="white" stroke="#666666" points="659.5,-211.5 558.5,-211.5 558.5,-192.5 659.5,-192.5 659.5,-211.5"/>
<text text-anchor="middle" x="609" y="-199.5" font-family="Helvetica,sans-Serif" font-size="10.00">include/d/d_demo.h</text>
</a>
</g>
</g>
<!-- Node1&#45;&gt;Node2 -->
<g id="edge1" class="edge">
<title>Node1&#45;&gt;Node2</title>
<path fill="none" stroke="#63b8ff" d="M1484.92,-261.64C1294.13,-248.87 816.97,-216.92 659.97,-206.41"/>
<polygon fill="#63b8ff" stroke="#63b8ff" points="1484.53,-265.12 1494.74,-262.3 1484.99,-258.14 1484.53,-265.12"/>
</g>
<!-- Node11 -->
<g id="node11" class="node">
<title>Node11</title>
<g id="a_node11"><a xlink:href="d__msg__object_8h.html" target="_top" xlink:title=" ">
<polygon fill="white" stroke="#666666" points="1553,-217 1443,-217 1443,-187 1553,-187 1553,-217"/>
<text text-anchor="start" x="1451" y="-205" font-family="Helvetica,sans-Serif" font-size="10.00">include/d/msg/d_msg</text>
<text text-anchor="middle" x="1498" y="-194" font-family="Helvetica,sans-Serif" font-size="10.00">_object.h</text>
</a>
</g>
</g>
<!-- Node1&#45;&gt;Node11 -->
<g id="edge10" class="edge">
<title>Node1&#45;&gt;Node11</title>
<path fill="none" stroke="#63b8ff" d="M1542.06,-245.09C1532.39,-235.85 1521.41,-225.36 1512.83,-217.16"/>
<polygon fill="#63b8ff" stroke="#63b8ff" points="1539.39,-247.37 1549.04,-251.75 1544.22,-242.31 1539.39,-247.37"/>
</g>
<!-- Node29 -->
<g id="node29" class="node">
<title>Node29</title>
<g id="a_node29"><a xlink:href="JMessage_2control_8cpp.html" target="_top" xlink:title=" ">
<polygon fill="white" stroke="#666666" points="1692.5,-217 1571.5,-217 1571.5,-187 1692.5,-187 1692.5,-217"/>
<text text-anchor="start" x="1579.5" y="-205" font-family="Helvetica,sans-Serif" font-size="10.00">libs/JSystem/JMessage</text>
<text text-anchor="middle" x="1632" y="-194" font-family="Helvetica,sans-Serif" font-size="10.00">/control.cpp</text>
</a>
</g>
</g>
<!-- Node1&#45;&gt;Node29 -->
<g id="edge33" class="edge">
<title>Node1&#45;&gt;Node29</title>
<path fill="none" stroke="#63b8ff" d="M1587.94,-245.09C1597.61,-235.85 1608.59,-225.36 1617.17,-217.16"/>
<polygon fill="#63b8ff" stroke="#63b8ff" points="1585.78,-242.31 1580.96,-251.75 1590.61,-247.37 1585.78,-242.31"/>
</g>
<!-- Node30 -->
<g id="node30" class="node">
<title>Node30</title>
<g id="a_node30"><a xlink:href="processor_8cpp.html" target="_top" xlink:title=" ">
<polygon fill="white" stroke="#666666" points="1831.5,-217 1710.5,-217 1710.5,-187 1831.5,-187 1831.5,-217"/>
<text text-anchor="start" x="1718.5" y="-205" font-family="Helvetica,sans-Serif" font-size="10.00">libs/JSystem/JMessage</text>
<text text-anchor="middle" x="1771" y="-194" font-family="Helvetica,sans-Serif" font-size="10.00">/processor.cpp</text>
</a>
</g>
</g>
<!-- Node1&#45;&gt;Node30 -->
<g id="edge34" class="edge">
<title>Node1&#45;&gt;Node30</title>
<path fill="none" stroke="#63b8ff" d="M1622.13,-249.25C1654.45,-239.21 1694.33,-226.82 1724.68,-217.39"/>
<polygon fill="#63b8ff" stroke="#63b8ff" points="1621.44,-245.8 1612.93,-252.11 1623.52,-252.48 1621.44,-245.8"/>
</g>
<!-- Node3 -->
<g id="node3" class="node">
<title>Node3</title>
<g id="a_node3"><a xlink:href="d__a__alink_8cpp.html" target="_top" xlink:title=" ">
<polygon fill="white" stroke="#666666" points="663.5,-145.5 554.5,-145.5 554.5,-126.5 663.5,-126.5 663.5,-145.5"/>
<text text-anchor="middle" x="609" y="-133.5" font-family="Helvetica,sans-Serif" font-size="10.00">src/d/a/d_a_alink.cpp</text>
</a>
</g>
</g>
<!-- Node2&#45;&gt;Node3 -->
<g id="edge2" class="edge">
<title>Node2&#45;&gt;Node3</title>
<path fill="none" stroke="#63b8ff" d="M609,-180.68C609,-168.94 609,-154.77 609,-145.82"/>
<polygon fill="#63b8ff" stroke="#63b8ff" points="605.5,-180.59 609,-190.59 612.5,-180.59 605.5,-180.59"/>
</g>
<!-- Node4 -->
<g id="node4" class="node">
<title>Node4</title>
<g id="a_node4"><a xlink:href="d__com__static_8cpp.html" target="_top" xlink:title=" ">
<polygon fill="white" stroke="#666666" points="140,-145.5 0,-145.5 0,-126.5 140,-126.5 140,-145.5"/>
<text text-anchor="middle" x="70" y="-133.5" font-family="Helvetica,sans-Serif" font-size="10.00">src/d/com/d_com_static.cpp</text>
</a>
</g>
</g>
<!-- Node2&#45;&gt;Node4 -->
<g id="edge3" class="edge">
<title>Node2&#45;&gt;Node4</title>
<path fill="none" stroke="#63b8ff" d="M546.7,-195.57C458.11,-187.54 290.75,-171.24 149,-151 138.8,-149.54 127.89,-147.76 117.54,-145.96"/>
<polygon fill="#63b8ff" stroke="#63b8ff" points="546.37,-199.05 556.64,-196.46 547,-192.08 546.37,-199.05"/>
</g>
<!-- Node5 -->
<g id="node5" class="node">
<title>Node5</title>
<g id="a_node5"><a xlink:href="d__demo_8cpp.html" target="_top" xlink:title=" ">
<polygon fill="white" stroke="#666666" points="776,-145.5 682,-145.5 682,-126.5 776,-126.5 776,-145.5"/>
<text text-anchor="middle" x="729" y="-133.5" font-family="Helvetica,sans-Serif" font-size="10.00">src/d/d_demo.cpp</text>
</a>
</g>
</g>
<!-- Node2&#45;&gt;Node5 -->
<g id="edge4" class="edge">
<title>Node2&#45;&gt;Node5</title>
<path fill="none" stroke="#63b8ff" d="M635.69,-186.76C659.18,-174.24 692.64,-156.39 712.46,-145.82"/>
<polygon fill="#63b8ff" stroke="#63b8ff" points="634.2,-183.59 627.02,-191.39 637.49,-189.77 634.2,-183.59"/>
</g>
<!-- Node6 -->
<g id="node6" class="node">
<title>Node6</title>
<g id="a_node6"><a xlink:href="d__event_8cpp.html" target="_top" xlink:title=" ">
<polygon fill="white" stroke="#666666" points="915.5,-145.5 794.5,-145.5 794.5,-126.5 915.5,-126.5 915.5,-145.5"/>
<text text-anchor="middle" x="855" y="-133.5" font-family="Helvetica,sans-Serif" font-size="10.00">src/d/event/d_event.cpp</text>
</a>
</g>
</g>
<!-- Node2&#45;&gt;Node6 -->
<g id="edge5" class="edge">
<title>Node2&#45;&gt;Node6</title>
<path fill="none" stroke="#63b8ff" d="M654.49,-189.16C702.61,-176.65 777.42,-157.18 820.77,-145.91"/>
<polygon fill="#63b8ff" stroke="#63b8ff" points="653.73,-185.75 644.93,-191.65 655.49,-192.52 653.73,-185.75"/>
</g>
<!-- Node7 -->
<g id="node7" class="node">
<title>Node7</title>
<g id="a_node7"><a xlink:href="d__event__data_8cpp.html" target="_top" xlink:title=" ">
<polygon fill="white" stroke="#666666" points="1036.5,-151 933.5,-151 933.5,-121 1036.5,-121 1036.5,-151"/>
<text text-anchor="start" x="941.5" y="-139" font-family="Helvetica,sans-Serif" font-size="10.00">src/d/event/d_event</text>
<text text-anchor="middle" x="985" y="-128" font-family="Helvetica,sans-Serif" font-size="10.00">_data.cpp</text>
</a>
</g>
</g>
<!-- Node2&#45;&gt;Node7 -->
<g id="edge6" class="edge">
<title>Node2&#45;&gt;Node7</title>
<path fill="none" stroke="#63b8ff" d="M670.97,-192.44C734.65,-183.34 836.57,-167.95 924,-151 926.99,-150.42 930.05,-149.8 933.14,-149.16"/>
<polygon fill="#63b8ff" stroke="#63b8ff" points="670.83,-188.92 661.42,-193.79 671.82,-195.85 670.83,-188.92"/>
</g>
<!-- Node8 -->
<g id="node8" class="node">
<title>Node8</title>
<g id="a_node8"><a xlink:href="d__kankyo__rain_8cpp.html" target="_top" xlink:title=" ">
<polygon fill="white" stroke="#666666" points="274,-151 158,-151 158,-121 274,-121 274,-151"/>
<text text-anchor="start" x="166" y="-139" font-family="Helvetica,sans-Serif" font-size="10.00">src/d/kankyo/d_kankyo</text>
<text text-anchor="middle" x="216" y="-128" font-family="Helvetica,sans-Serif" font-size="10.00">_rain.cpp</text>
</a>
</g>
</g>
<!-- Node2&#45;&gt;Node8 -->
<g id="edge7" class="edge">
<title>Node2&#45;&gt;Node8</title>
<path fill="none" stroke="#63b8ff" d="M546.65,-192.45C480.92,-183.21 374.42,-167.55 283,-151 280.19,-150.49 277.32,-149.96 274.43,-149.4"/>
<polygon fill="#63b8ff" stroke="#63b8ff" points="546.15,-195.92 556.54,-193.84 547.12,-188.99 546.15,-195.92"/>
</g>
<!-- Node9 -->
<g id="node9" class="node">
<title>Node9</title>
<g id="a_node9"><a xlink:href="d__s__play_8cpp.html" target="_top" xlink:title=" ">
<polygon fill="white" stroke="#666666" points="536,-145.5 430,-145.5 430,-126.5 536,-126.5 536,-145.5"/>
<text text-anchor="middle" x="483" y="-133.5" font-family="Helvetica,sans-Serif" font-size="10.00">src/d/s/d_s_play.cpp</text>
</a>
</g>
</g>
<!-- Node2&#45;&gt;Node9 -->
<g id="edge8" class="edge">
<title>Node2&#45;&gt;Node9</title>
<path fill="none" stroke="#63b8ff" d="M581.31,-186.93C556.63,-174.4 521.27,-156.44 500.37,-145.82"/>
<polygon fill="#63b8ff" stroke="#63b8ff" points="579.63,-190.01 590.13,-191.42 582.8,-183.77 579.63,-190.01"/>
</g>
<!-- Node10 -->
<g id="node10" class="node">
<title>Node10</title>
<g id="a_node10"><a xlink:href="f__op__actor_8cpp.html" target="_top" xlink:title=" ">
<polygon fill="white" stroke="#666666" points="411.5,-145.5 292.5,-145.5 292.5,-126.5 411.5,-126.5 411.5,-145.5"/>
<text text-anchor="middle" x="352" y="-133.5" font-family="Helvetica,sans-Serif" font-size="10.00">src/f_op/f_op_actor.cpp</text>
</a>
</g>
</g>
<!-- Node2&#45;&gt;Node10 -->
<g id="edge9" class="edge">
<title>Node2&#45;&gt;Node10</title>
<path fill="none" stroke="#63b8ff" d="M562.11,-189.32C511.87,-176.81 433.24,-157.23 387.76,-145.91"/>
<polygon fill="#63b8ff" stroke="#63b8ff" points="560.98,-192.65 571.53,-191.67 562.67,-185.86 560.98,-192.65"/>
</g>
<!-- Node11&#45;&gt;Node3 -->
<g id="edge16" class="edge">
<title>Node11&#45;&gt;Node3</title>
<path fill="none" stroke="#63b8ff" d="M1431.27,-200.45C1290.48,-198.52 952.94,-189.86 673,-151 663.99,-149.75 654.36,-147.91 645.38,-145.98"/>
<polygon fill="#63b8ff" stroke="#63b8ff" points="1431.12,-203.95 1441.16,-200.58 1431.21,-196.95 1431.12,-203.95"/>
</g>
<!-- Node11&#45;&gt;Node5 -->
<g id="edge17" class="edge">
<title>Node11&#45;&gt;Node5</title>
<path fill="none" stroke="#63b8ff" d="M1431.2,-200.2C1304.45,-197.83 1020.61,-188.42 785,-151 777.08,-149.74 768.64,-147.9 760.78,-145.97"/>
<polygon fill="#63b8ff" stroke="#63b8ff" points="1431.04,-203.7 1441.1,-200.38 1431.16,-196.7 1431.04,-203.7"/>
</g>
<!-- Node11&#45;&gt;Node6 -->
<g id="edge18" class="edge">
<title>Node11&#45;&gt;Node6</title>
<path fill="none" stroke="#63b8ff" d="M1431.48,-197.66C1324.24,-191.72 1106.68,-177.4 924,-151 914.68,-149.65 904.73,-147.85 895.37,-145.99"/>
<polygon fill="#63b8ff" stroke="#63b8ff" points="1431.06,-201.14 1441.24,-198.19 1431.45,-194.15 1431.06,-201.14"/>
</g>
<!-- Node11&#45;&gt;Node7 -->
<g id="edge19" class="edge">
<title>Node11&#45;&gt;Node7</title>
<path fill="none" stroke="#63b8ff" d="M1431.28,-196.04C1342.79,-188.92 1181.96,-174.04 1046,-151 1043,-150.49 1039.93,-149.93 1036.83,-149.32"/>
<polygon fill="#63b8ff" stroke="#63b8ff" points="1430.99,-199.53 1441.24,-196.84 1431.55,-192.55 1430.99,-199.53"/>
</g>
<!-- Node11&#45;&gt;Node9 -->
<g id="edge28" class="edge">
<title>Node11&#45;&gt;Node9</title>
<path fill="none" stroke="#63b8ff" d="M1431.4,-201.38C1275.58,-201.42 875.44,-196.64 545,-151 536.15,-149.78 526.69,-147.93 517.89,-145.97"/>
<polygon fill="#63b8ff" stroke="#63b8ff" points="1431.12,-204.88 1441.12,-201.37 1431.12,-197.88 1431.12,-204.88"/>
</g>
<!-- Node12 -->
<g id="node12" class="node">
<title>Node12</title>
<g id="a_node12"><a xlink:href="d__msg__string__base_8h.html" target="_top" xlink:title=" ">
<polygon fill="white" stroke="#666666" points="1413,-151 1303,-151 1303,-121 1413,-121 1413,-151"/>
<text text-anchor="start" x="1311" y="-139" font-family="Helvetica,sans-Serif" font-size="10.00">include/d/msg/d_msg</text>
<text text-anchor="middle" x="1358" y="-128" font-family="Helvetica,sans-Serif" font-size="10.00">_string_base.h</text>
</a>
</g>
</g>
<!-- Node11&#45;&gt;Node12 -->
<g id="edge11" class="edge">
<title>Node11&#45;&gt;Node12</title>
<path fill="none" stroke="#63b8ff" d="M1456.12,-181.86C1434.68,-172.05 1409.02,-160.32 1389.31,-151.31"/>
<polygon fill="#63b8ff" stroke="#63b8ff" points="1454.65,-185.03 1465.2,-186.01 1457.57,-178.67 1454.65,-185.03"/>
</g>
<!-- Node17 -->
<g id="node17" class="node">
<title>Node17</title>
<g id="a_node17"><a xlink:href="d__kankyo_8cpp.html" target="_top" xlink:title=" ">
<polygon fill="white" stroke="#666666" points="1565,-145.5 1431,-145.5 1431,-126.5 1565,-126.5 1565,-145.5"/>
<text text-anchor="middle" x="1498" y="-133.5" font-family="Helvetica,sans-Serif" font-size="10.00">src/d/kankyo/d_kankyo.cpp</text>
</a>
</g>
</g>
<!-- Node11&#45;&gt;Node17 -->
<g id="edge20" class="edge">
<title>Node11&#45;&gt;Node17</title>
<path fill="none" stroke="#63b8ff" d="M1498,-175.59C1498,-165.06 1498,-153.53 1498,-145.84"/>
<polygon fill="#63b8ff" stroke="#63b8ff" points="1494.5,-175.28 1498,-185.28 1501.5,-175.28 1494.5,-175.28"/>
</g>
<!-- Node18 -->
<g id="node18" class="node">
<title>Node18</title>
<g id="a_node18"><a xlink:href="d__menu__window_8cpp.html" target="_top" xlink:title=" ">
<polygon fill="white" stroke="#666666" points="1742.5,-145.5 1583.5,-145.5 1583.5,-126.5 1742.5,-126.5 1742.5,-145.5"/>
<text text-anchor="middle" x="1663" y="-133.5" font-family="Helvetica,sans-Serif" font-size="10.00">src/d/menu/d_menu_window.cpp</text>
</a>
</g>
</g>
<!-- Node11&#45;&gt;Node18 -->
<g id="edge21" class="edge">
<title>Node11&#45;&gt;Node18</title>
<path fill="none" stroke="#63b8ff" d="M1545.6,-182.54C1576.54,-170.54 1615.5,-155.43 1639.83,-145.99"/>
<polygon fill="#63b8ff" stroke="#63b8ff" points="1544.5,-179.21 1536.44,-186.09 1547.03,-185.74 1544.5,-179.21"/>
</g>
<!-- Node19 -->
<g id="node19" class="node">
<title>Node19</title>
<g id="a_node19"><a xlink:href="d__meter2__draw_8cpp.html" target="_top" xlink:title=" ">
<polygon fill="white" stroke="#666666" points="1871,-151 1761,-151 1761,-121 1871,-121 1871,-151"/>
<text text-anchor="start" x="1769" y="-139" font-family="Helvetica,sans-Serif" font-size="10.00">src/d/meter/d_meter2</text>
<text text-anchor="middle" x="1816" y="-128" font-family="Helvetica,sans-Serif" font-size="10.00">_draw.cpp</text>
</a>
</g>
</g>
<!-- Node11&#45;&gt;Node19 -->
<g id="edge22" class="edge">
<title>Node11&#45;&gt;Node19</title>
<path fill="none" stroke="#63b8ff" d="M1564.45,-186.74C1648.66,-169.82 1671.66,-167.44 1752,-151 1754.79,-150.43 1757.64,-149.84 1760.52,-149.23"/>
<polygon fill="#63b8ff" stroke="#63b8ff" points="1563.89,-183.28 1554.78,-188.7 1565.28,-190.15 1563.89,-183.28"/>
</g>
<!-- Node20 -->
<g id="node20" class="node">
<title>Node20</title>
<g id="a_node20"><a xlink:href="d__meter2__info_8cpp.html" target="_top" xlink:title=" ">
<polygon fill="white" stroke="#666666" points="1999,-151 1889,-151 1889,-121 1999,-121 1999,-151"/>
<text text-anchor="start" x="1897" y="-139" font-family="Helvetica,sans-Serif" font-size="10.00">src/d/meter/d_meter2</text>
<text text-anchor="middle" x="1944" y="-128" font-family="Helvetica,sans-Serif" font-size="10.00">_info.cpp</text>
</a>
</g>
</g>
<!-- Node11&#45;&gt;Node20 -->
<g id="edge23" class="edge">
<title>Node11&#45;&gt;Node20</title>
<path fill="none" stroke="#63b8ff" d="M1564.43,-186.9C1704.88,-164.54 1743.66,-173.59 1880,-151 1882.81,-150.54 1885.67,-150.03 1888.56,-149.49"/>
<polygon fill="#63b8ff" stroke="#63b8ff" points="1564.05,-183.41 1554.74,-188.47 1565.17,-190.32 1564.05,-183.41"/>
</g>
<!-- Node21 -->
<g id="node21" class="node">
<title>Node21</title>
<g id="a_node21"><a xlink:href="d__meter__map_8cpp.html" target="_top" xlink:title=" ">
<polygon fill="white" stroke="#666666" points="2121,-151 2017,-151 2017,-121 2121,-121 2121,-151"/>
<text text-anchor="start" x="2025" y="-139" font-family="Helvetica,sans-Serif" font-size="10.00">src/d/meter/d_meter</text>
<text text-anchor="middle" x="2069" y="-128" font-family="Helvetica,sans-Serif" font-size="10.00">_map.cpp</text>
</a>
</g>
</g>
<!-- Node11&#45;&gt;Node21 -->
<g id="edge24" class="edge">
<title>Node11&#45;&gt;Node21</title>
<path fill="none" stroke="#63b8ff" d="M1564.54,-186.94C1761.3,-158.89 1815.54,-180.71 2008,-151 2010.79,-150.57 2013.65,-150.08 2016.52,-149.55"/>
<polygon fill="#63b8ff" stroke="#63b8ff" points="1564.12,-183.47 1554.73,-188.37 1565.13,-190.39 1564.12,-183.47"/>
</g>
<!-- Node22 -->
<g id="node22" class="node">
<title>Node22</title>
<g id="a_node22"><a xlink:href="d__msg__flow_8cpp.html" target="_top" xlink:title=" ">
<polygon fill="white" stroke="#666666" points="2272.5,-145.5 2139.5,-145.5 2139.5,-126.5 2272.5,-126.5 2272.5,-145.5"/>
<text text-anchor="middle" x="2206" y="-133.5" font-family="Helvetica,sans-Serif" font-size="10.00">src/d/msg/d_msg_flow.cpp</text>
</a>
</g>
</g>
<!-- Node11&#45;&gt;Node22 -->
<g id="edge25" class="edge">
<title>Node11&#45;&gt;Node22</title>
<path fill="none" stroke="#63b8ff" d="M1564.52,-186.97C1815.1,-153.18 1883.06,-181.47 2130,-151 2140.52,-149.7 2151.78,-147.87 2162.33,-145.96"/>
<polygon fill="#63b8ff" stroke="#63b8ff" points="1564.15,-183.49 1554.72,-188.32 1565.1,-190.43 1564.15,-183.49"/>
</g>
<!-- Node23 -->
<g id="node23" class="node">
<title>Node23</title>
<g id="a_node23"><a xlink:href="d__msg__object_8cpp.html" target="_top" xlink:title=" ">
<polygon fill="white" stroke="#666666" points="2433,-145.5 2291,-145.5 2291,-126.5 2433,-126.5 2433,-145.5"/>
<text text-anchor="middle" x="2362" y="-133.5" font-family="Helvetica,sans-Serif" font-size="10.00">src/d/msg/d_msg_object.cpp</text>
</a>
</g>
</g>
<!-- Node11&#45;&gt;Node23 -->
<g id="edge26" class="edge">
<title>Node11&#45;&gt;Node23</title>
<path fill="none" stroke="#63b8ff" d="M1564.61,-186.98C1882.21,-146.14 1967.76,-186.23 2282,-151 2293.21,-149.74 2305.23,-147.9 2316.45,-145.97"/>
<polygon fill="#63b8ff" stroke="#63b8ff" points="1564.18,-183.51 1554.71,-188.28 1565.08,-190.45 1564.18,-183.51"/>
</g>
<!-- Node24 -->
<g id="node24" class="node">
<title>Node24</title>
<g id="a_node24"><a xlink:href="d__msg__out__font_8cpp.html" target="_top" xlink:title=" ">
<polygon fill="white" stroke="#666666" points="2562.5,-151 2451.5,-151 2451.5,-121 2562.5,-121 2562.5,-151"/>
<text text-anchor="start" x="2459.5" y="-139" font-family="Helvetica,sans-Serif" font-size="10.00">src/d/msg/d_msg_out</text>
<text text-anchor="middle" x="2507" y="-128" font-family="Helvetica,sans-Serif" font-size="10.00">_font.cpp</text>
</a>
</g>
</g>
<!-- Node11&#45;&gt;Node24 -->
<g id="edge27" class="edge">
<title>Node11&#45;&gt;Node24</title>
<path fill="none" stroke="#63b8ff" d="M1564.49,-187.02C1952.86,-138.84 2057.83,-199.87 2442,-151 2444.98,-150.62 2448.02,-150.17 2451.09,-149.68"/>
<polygon fill="#63b8ff" stroke="#63b8ff" points="1564.19,-183.53 1554.71,-188.25 1565.07,-190.47 1564.19,-183.53"/>
</g>
<!-- Node25 -->
<g id="node25" class="node">
<title>Node25</title>
<g id="a_node25"><a xlink:href="d__shop__system_8cpp.html" target="_top" xlink:title=" ">
<polygon fill="white" stroke="#666666" points="2733,-145.5 2581,-145.5 2581,-126.5 2733,-126.5 2733,-145.5"/>
<text text-anchor="middle" x="2657" y="-133.5" font-family="Helvetica,sans-Serif" font-size="10.00">src/d/shop/d_shop_system.cpp</text>
</a>
</g>
</g>
<!-- Node11&#45;&gt;Node25 -->
<g id="edge29" class="edge">
<title>Node11&#45;&gt;Node25</title>
<path fill="none" stroke="#63b8ff" d="M1564.47,-187.02C2010.26,-132.6 2129.19,-195.18 2572,-151 2584.05,-149.8 2596.99,-147.95 2609.04,-146"/>
<polygon fill="#63b8ff" stroke="#63b8ff" points="1564.2,-183.53 1554.71,-188.23 1565.06,-190.48 1564.2,-183.53"/>
</g>
<!-- Node26 -->
<g id="node26" class="node">
<title>Node26</title>
<g id="a_node26"><a xlink:href="f__op__msg__mng_8cpp.html" target="_top" xlink:title=" ">
<polygon fill="white" stroke="#666666" points="2891,-145.5 2751,-145.5 2751,-126.5 2891,-126.5 2891,-145.5"/>
<text text-anchor="middle" x="2821" y="-133.5" font-family="Helvetica,sans-Serif" font-size="10.00">src/f_op/f_op_msg_mng.cpp</text>
</a>
</g>
</g>
<!-- Node11&#45;&gt;Node26 -->
<g id="edge30" class="edge">
<title>Node11&#45;&gt;Node26</title>
<path fill="none" stroke="#63b8ff" d="M1564.4,-187.04C2085.35,-124.69 2224.22,-204.5 2742,-151 2753.36,-149.83 2765.55,-147.97 2776.87,-145.98"/>
<polygon fill="#63b8ff" stroke="#63b8ff" points="1564.21,-183.54 1554.71,-188.21 1565.05,-190.49 1564.21,-183.54"/>
</g>
<!-- Node27 -->
<g id="node27" class="node">
<title>Node27</title>
<g id="a_node27"><a xlink:href="d__msg__scrn__base_8cpp.html" target="_top" xlink:title=" ">
<polygon fill="white" stroke="#666666" points="1161,-151 1055,-151 1055,-121 1161,-121 1161,-151"/>
<text text-anchor="start" x="1063" y="-139" font-family="Helvetica,sans-Serif" font-size="10.00">src/msg/scrn/d_msg</text>
<text text-anchor="middle" x="1108" y="-128" font-family="Helvetica,sans-Serif" font-size="10.00">_scrn_base.cpp</text>
</a>
</g>
</g>
<!-- Node11&#45;&gt;Node27 -->
<g id="edge31" class="edge">
<title>Node11&#45;&gt;Node27</title>
<path fill="none" stroke="#63b8ff" d="M1431.53,-192.27C1365.1,-183.22 1260.16,-168.03 1170,-151 1167.18,-150.47 1164.29,-149.9 1161.38,-149.31"/>
<polygon fill="#63b8ff" stroke="#63b8ff" points="1430.79,-195.71 1441.16,-193.58 1431.73,-188.77 1430.79,-195.71"/>
</g>
<!-- Node28 -->
<g id="node28" class="node">
<title>Node28</title>
<g id="a_node28"><a xlink:href="d__msg__scrn__boss_8cpp.html" target="_top" xlink:title=" ">
<polygon fill="white" stroke="#666666" points="1285,-151 1179,-151 1179,-121 1285,-121 1285,-151"/>
<text text-anchor="start" x="1187" y="-139" font-family="Helvetica,sans-Serif" font-size="10.00">src/msg/scrn/d_msg</text>
<text text-anchor="middle" x="1232" y="-128" font-family="Helvetica,sans-Serif" font-size="10.00">_scrn_boss.cpp</text>
</a>
</g>
</g>
<!-- Node11&#45;&gt;Node28 -->
<g id="edge32" class="edge">
<title>Node11&#45;&gt;Node28</title>
<path fill="none" stroke="#63b8ff" d="M1431.38,-184.97C1386.15,-174.09 1327.16,-159.9 1285.1,-149.78"/>
<polygon fill="#63b8ff" stroke="#63b8ff" points="1430.55,-188.37 1441.09,-187.31 1432.19,-181.57 1430.55,-188.37"/>
</g>
<!-- Node13 -->
<g id="node13" class="node">
<title>Node13</title>
<g id="a_node13"><a xlink:href="d__msg__string_8h.html" target="_top" xlink:title=" ">
<polygon fill="white" stroke="#666666" points="1346,-85 1236,-85 1236,-55 1346,-55 1346,-85"/>
<text text-anchor="start" x="1244" y="-73" font-family="Helvetica,sans-Serif" font-size="10.00">include/d/msg/d_msg</text>
<text text-anchor="middle" x="1291" y="-62" font-family="Helvetica,sans-Serif" font-size="10.00">_string.h</text>
</a>
</g>
</g>
<!-- Node12&#45;&gt;Node13 -->
<g id="edge12" class="edge">
<title>Node12&#45;&gt;Node13</title>
<path fill="none" stroke="#63b8ff" d="M1335.06,-113.09C1325.39,-103.85 1314.41,-93.36 1305.83,-85.16"/>
<polygon fill="#63b8ff" stroke="#63b8ff" points="1332.39,-115.37 1342.04,-119.75 1337.22,-110.31 1332.39,-115.37"/>
</g>
<!-- Node16 -->
<g id="node16" class="node">
<title>Node16</title>
<g id="a_node16"><a xlink:href="d__msg__string__base_8cpp.html" target="_top" xlink:title=" ">
<polygon fill="white" stroke="#666666" points="1486,-85 1364,-85 1364,-55 1486,-55 1486,-85"/>
<text text-anchor="start" x="1372" y="-73" font-family="Helvetica,sans-Serif" font-size="10.00">src/d/msg/d_msg_string</text>
<text text-anchor="middle" x="1425" y="-62" font-family="Helvetica,sans-Serif" font-size="10.00">_base.cpp</text>
</a>
</g>
</g>
<!-- Node12&#45;&gt;Node16 -->
<g id="edge15" class="edge">
<title>Node12&#45;&gt;Node16</title>
<path fill="none" stroke="#63b8ff" d="M1380.94,-113.09C1390.61,-103.85 1401.59,-93.36 1410.17,-85.16"/>
<polygon fill="#63b8ff" stroke="#63b8ff" points="1378.78,-110.31 1373.96,-119.75 1383.61,-115.37 1378.78,-110.31"/>
</g>
<!-- Node14 -->
<g id="node14" class="node">
<title>Node14</title>
<g id="a_node14"><a xlink:href="d__menu__save_8cpp.html" target="_top" xlink:title=" ">
<polygon fill="white" stroke="#666666" points="1283.5,-19 1136.5,-19 1136.5,0 1283.5,0 1283.5,-19"/>
<text text-anchor="middle" x="1210" y="-7" font-family="Helvetica,sans-Serif" font-size="10.00">src/d/menu/d_menu_save.cpp</text>
</a>
</g>
</g>
<!-- Node13&#45;&gt;Node14 -->
<g id="edge13" class="edge">
<title>Node13&#45;&gt;Node14</title>
<path fill="none" stroke="#63b8ff" d="M1261.86,-47.95C1248.12,-38.03 1232.49,-26.74 1222.01,-19.18"/>
<polygon fill="#63b8ff" stroke="#63b8ff" points="1259.59,-50.64 1269.75,-53.65 1263.69,-44.96 1259.59,-50.64"/>
</g>
<!-- Node15 -->
<g id="node15" class="node">
<title>Node15</title>
<g id="a_node15"><a xlink:href="d__msg__string_8cpp.html" target="_top" xlink:title=" ">
<polygon fill="white" stroke="#666666" points="1442,-19 1302,-19 1302,0 1442,0 1442,-19"/>
<text text-anchor="middle" x="1372" y="-7" font-family="Helvetica,sans-Serif" font-size="10.00">src/d/msg/d_msg_string.cpp</text>
</a>
</g>
</g>
<!-- Node13&#45;&gt;Node15 -->
<g id="edge14" class="edge">
<title>Node13&#45;&gt;Node15</title>
<path fill="none" stroke="#63b8ff" d="M1320.14,-47.95C1333.88,-38.03 1349.51,-26.74 1359.99,-19.18"/>
<polygon fill="#63b8ff" stroke="#63b8ff" points="1318.31,-44.96 1312.25,-53.65 1322.41,-50.64 1318.31,-44.96"/>
</g>
</g>
</svg>
        <g id="navigator" transform="translate(0 0)" fill="#404254">
                <rect fill="#f2f5e9" fill-opacity="0.5" stroke="#606060" stroke-width=".5" x="0" y="0" width="60" height="60"/>
                <use id="zoomplus" xlink:href="#zoomPlus" x="17" y="9" onmousedown="handleZoom(evt,'in')"/>
                <use id="zoomminus" xlink:href="#zoomMin" x="42" y="9" onmousedown="handleZoom(evt,'out')"/>
                <use id="reset" xlink:href="#resetDef" x="30" y="36" onmousedown="handleReset()"/>
                <g id="arrowUp" xlink:href="#dirArrow" transform="translate(30 24)" onmousedown="handlePan(0,-1)">
                  <use xlink:href="#rim" fill="#404040">
                        <set attributeName="fill" to="#808080" begin="arrowUp.mouseover" end="arrowUp.mouseout"/>
                  </use>
                  <path fill="none" stroke="white" stroke-width="1.5" d="M0,-3.0v7 M-2.5,-0.5L0,-3.0L2.5,-0.5"/>
                </g>
                <g id="arrowRight" xlink:href="#dirArrow" transform="rotate(90) translate(36 -43)" onmousedown="handlePan(1,0)">
                  <use xlink:href="#rim" fill="#404040">
                        <set attributeName="fill" to="#808080" begin="arrowRight.mouseover" end="arrowRight.mouseout"/>
                  </use>
                  <path fill="none" stroke="white" stroke-width="1.5" d="M0,-3.0v7 M-2.5,-0.5L0,-3.0L2.5,-0.5"/>
                </g>
                <g id="arrowDown" xlink:href="#dirArrow" transform="rotate(180) translate(-30 -48)" onmousedown="handlePan(0,1)">
                  <use xlink:href="#rim" fill="#404040">
                        <set attributeName="fill" to="#808080" begin="arrowDown.mouseover" end="arrowDown.mouseout"/>
                  </use>
                  <path fill="none" stroke="white" stroke-width="1.5" d="M0,-3.0v7 M-2.5,-0.5L0,-3.0L2.5,-0.5"/>
                </g>
                <g id="arrowLeft" xlink:href="#dirArrow" transform="rotate(270) translate(-36 17)" onmousedown="handlePan(-1,0)">
                  <use xlink:href="#rim" fill="#404040">
                        <set attributeName="fill" to="#808080" begin="arrowLeft.mouseover" end="arrowLeft.mouseout"/>
                  </use>
                  <path fill="none" stroke="white" stroke-width="1.5" d="M0,-3.0v7 M-2.5,-0.5L0,-3.0L2.5,-0.5"/>
                </g>
        </g>
        <svg viewBox="0 0 15 15" width="100%" height="30px" preserveAspectRatio="xMaxYMin meet">
         <g id="arrow_out" transform="scale(0.3 0.3)">
          <a xlink:href="JMessage_2control_8h__dep__incl_org.svg" target="_base">
           <rect id="button" ry="5" rx="5" y="6" x="6" height="38" width="38"
                fill="#f2f5e9" fill-opacity="0.5" stroke="#606060" stroke-width="1.0"/>
           <path id="arrow"
             d="M 11.500037,31.436501 C 11.940474,20.09759 22.043105,11.32322 32.158766,21.979434 L 37.068811,17.246167 C 37.068811,17.246167 37.088388,32 37.088388,32 L 22.160133,31.978069 C 22.160133,31.978069 26.997745,27.140456 26.997745,27.140456 C 18.528582,18.264221 13.291696,25.230495 11.500037,31.436501 z"
             style="fill:#404040;"/>
          </a>
         </g>
        </svg>
</svg>
