<?xml version="1.0" encoding="UTF-8" standalone="no"?>
<!DOCTYPE svg PUBLIC "-//W3C//DTD SVG 1.1//EN"
 "http://www.w3.org/Graphics/SVG/1.1/DTD/svg11.dtd">
<!-- Generated by graphviz version 7.0.4 (20221203.1631)
 -->
<!-- Title: include/JSystem/JUtility/JUTGamePad.h Pages: 1 -->
<svg width="4008pt" height="489pt"
 viewBox="0.00 0.00 4008.36 489.00" xmlns="http://www.w3.org/2000/svg" xmlns:xlink="http://www.w3.org/1999/xlink">
<g id="graph0" class="graph" transform="scale(1 1) rotate(0) translate(4 485)">
<title>include/JSystem/JUtility/JUTGamePad.h</title>
<!-- Node1 -->
<g id="node1" class="node">
<title>Node1</title>
<g id="a_node1"><a xlink:title=" ">
<polygon fill="#999999" stroke="#666666" points="1987,-481 1865,-481 1865,-451 1987,-451 1987,-481"/>
<text text-anchor="start" x="1873" y="-469" font-family="Helvetica,sans-Serif" font-size="10.00">include/JSystem/JUtility</text>
<text text-anchor="middle" x="1926" y="-458" font-family="Helvetica,sans-Serif" font-size="10.00">/JUTGamePad.h</text>
</a>
</g>
</g>
<!-- Node2 -->
<g id="node2" class="node">
<title>Node2</title>
<g id="a_node2"><a xlink:href="JUTException_8h.html" target="_top" xlink:title=" ">
<polygon fill="white" stroke="#666666" points="1026,-415 904,-415 904,-385 1026,-385 1026,-415"/>
<text text-anchor="start" x="912" y="-403" font-family="Helvetica,sans-Serif" font-size="10.00">include/JSystem/JUtility</text>
<text text-anchor="middle" x="965" y="-392" font-family="Helvetica,sans-Serif" font-size="10.00">/JUTException.h</text>
</a>
</g>
</g>
<!-- Node1&#45;&gt;Node2 -->
<g id="edge1" class="edge">
<title>Node1&#45;&gt;Node2</title>
<path fill="none" stroke="#63b8ff" d="M1853.47,-460.17C1671.15,-448.03 1196.21,-416.4 1026.44,-405.09"/>
<polygon fill="#63b8ff" stroke="#63b8ff" points="1853.07,-463.65 1863.28,-460.82 1853.53,-456.67 1853.07,-463.65"/>
</g>
<!-- Node3 -->
<g id="node3" class="node">
<title>Node3</title>
<g id="a_node3"><a xlink:href="JFWSystem_8cpp.html" target="_top" xlink:title=" ">
<polygon fill="white" stroke="#666666" points="130,-349 0,-349 0,-319 130,-319 130,-349"/>
<text text-anchor="start" x="8" y="-337" font-family="Helvetica,sans-Serif" font-size="10.00">libs/JSystem/JFramework</text>
<text text-anchor="middle" x="65" y="-326" font-family="Helvetica,sans-Serif" font-size="10.00">/JFWSystem.cpp</text>
</a>
</g>
</g>
<!-- Node1&#45;&gt;Node3 -->
<g id="edge71" class="edge">
<title>Node1&#45;&gt;Node3</title>
<path fill="none" stroke="#63b8ff" d="M1853.58,-464.04C1610.33,-460.04 800.67,-440.24 139,-349 136.15,-348.61 133.24,-348.18 130.31,-347.72"/>
<polygon fill="#63b8ff" stroke="#63b8ff" points="1853.17,-467.54 1863.22,-464.2 1853.28,-460.54 1853.17,-467.54"/>
</g>
<!-- Node18 -->
<g id="node18" class="node">
<title>Node18</title>
<g id="a_node18"><a xlink:href="m__Do__controller__pad_8h.html" target="_top" xlink:title=" ">
<polygon fill="white" stroke="#666666" points="2053.5,-415 1904.5,-415 1904.5,-385 2053.5,-385 2053.5,-415"/>
<text text-anchor="start" x="1912.5" y="-403" font-family="Helvetica,sans-Serif" font-size="10.00">include/m_Do/m_Do_controller</text>
<text text-anchor="middle" x="1979" y="-392" font-family="Helvetica,sans-Serif" font-size="10.00">_pad.h</text>
</a>
</g>
</g>
<!-- Node1&#45;&gt;Node18 -->
<g id="edge17" class="edge">
<title>Node1&#45;&gt;Node18</title>
<path fill="none" stroke="#63b8ff" d="M1945.08,-441.96C1952.5,-433 1960.76,-423.03 1967.27,-415.16"/>
<polygon fill="#63b8ff" stroke="#63b8ff" points="1942.41,-439.7 1938.73,-449.63 1947.8,-444.16 1942.41,-439.7"/>
</g>
<!-- Node128 -->
<g id="node48" class="node">
<title>Node128</title>
<g id="a_node48"><a xlink:href="m__Do__machine_8h.html" target="_top" xlink:title=" ">
<polygon fill="white" stroke="#666666" points="1835,-156.5 1681,-156.5 1681,-137.5 1835,-137.5 1835,-156.5"/>
<text text-anchor="middle" x="1758" y="-144.5" font-family="Helvetica,sans-Serif" font-size="10.00">include/m_Do/m_Do_machine.h</text>
</a>
</g>
</g>
<!-- Node1&#45;&gt;Node128 -->
<g id="edge65" class="edge">
<title>Node1&#45;&gt;Node128</title>
<path fill="none" stroke="#63b8ff" d="M1909.35,-441.26C1904.22,-433.19 1898.91,-423.95 1895,-415 1880.24,-381.21 1873,-371.88 1873,-335 1873,-335 1873,-335 1873,-267 1873,-212.56 1809.99,-173.51 1777.25,-156.9"/>
<polygon fill="#63b8ff" stroke="#63b8ff" points="1906.34,-443.06 1914.78,-449.47 1912.18,-439.2 1906.34,-443.06"/>
</g>
<!-- Node129 -->
<g id="node49" class="node">
<title>Node129</title>
<g id="a_node49"><a xlink:href="JUTGamePad_8cpp.html" target="_top" xlink:title=" ">
<polygon fill="white" stroke="#666666" points="2178,-415 2072,-415 2072,-385 2178,-385 2178,-415"/>
<text text-anchor="start" x="2080" y="-403" font-family="Helvetica,sans-Serif" font-size="10.00">libs/JSystem/JUtility</text>
<text text-anchor="middle" x="2125" y="-392" font-family="Helvetica,sans-Serif" font-size="10.00">/JUTGamePad.cpp</text>
</a>
</g>
</g>
<!-- Node1&#45;&gt;Node129 -->
<g id="edge72" class="edge">
<title>Node1&#45;&gt;Node129</title>
<path fill="none" stroke="#63b8ff" d="M1981.35,-447.2C2012.5,-437.18 2050.89,-424.83 2080.15,-415.43"/>
<polygon fill="#63b8ff" stroke="#63b8ff" points="1980.55,-443.78 1972.1,-450.17 1982.69,-450.44 1980.55,-443.78"/>
</g>
<!-- Node130 -->
<g id="node50" class="node">
<title>Node130</title>
<g id="a_node50"><a xlink:href="m__Do__Reset_8cpp.html" target="_top" xlink:title=" ">
<polygon fill="white" stroke="#666666" points="2332,-409.5 2196,-409.5 2196,-390.5 2332,-390.5 2332,-409.5"/>
<text text-anchor="middle" x="2264" y="-397.5" font-family="Helvetica,sans-Serif" font-size="10.00">src/m_Do/m_Do_Reset.cpp</text>
</a>
</g>
</g>
<!-- Node1&#45;&gt;Node130 -->
<g id="edge73" class="edge">
<title>Node1&#45;&gt;Node130</title>
<path fill="none" stroke="#63b8ff" d="M1998.35,-451.3C2064.31,-438.81 2159.88,-420.72 2216.6,-409.98"/>
<polygon fill="#63b8ff" stroke="#63b8ff" points="1997.87,-447.83 1988.7,-453.13 1999.17,-454.71 1997.87,-447.83"/>
</g>
<!-- Node2&#45;&gt;Node3 -->
<g id="edge2" class="edge">
<title>Node2&#45;&gt;Node3</title>
<path fill="none" stroke="#63b8ff" d="M892.32,-397.69C748.14,-394.4 415.92,-383.44 139,-349 136.15,-348.65 133.24,-348.25 130.3,-347.82"/>
<polygon fill="#63b8ff" stroke="#63b8ff" points="892.03,-401.18 902.11,-397.9 892.19,-394.18 892.03,-401.18"/>
</g>
<!-- Node4 -->
<g id="node4" class="node">
<title>Node4</title>
<g id="a_node4"><a xlink:href="JKRAram_8cpp.html" target="_top" xlink:title=" ">
<polygon fill="white" stroke="#666666" points="1334.5,-349 1225.5,-349 1225.5,-319 1334.5,-319 1334.5,-349"/>
<text text-anchor="start" x="1233.5" y="-337" font-family="Helvetica,sans-Serif" font-size="10.00">libs/JSystem/JKernel</text>
<text text-anchor="middle" x="1280" y="-326" font-family="Helvetica,sans-Serif" font-size="10.00">/JKRAram.cpp</text>
</a>
</g>
</g>
<!-- Node2&#45;&gt;Node4 -->
<g id="edge3" class="edge">
<title>Node2&#45;&gt;Node4</title>
<path fill="none" stroke="#63b8ff" d="M1037.5,-384.93C1087.67,-375.1 1155.95,-361.55 1216,-349 1219.01,-348.37 1222.09,-347.72 1225.2,-347.06"/>
<polygon fill="#63b8ff" stroke="#63b8ff" points="1037.07,-381.45 1027.93,-386.8 1038.41,-388.32 1037.07,-381.45"/>
</g>
<!-- Node5 -->
<g id="node5" class="node">
<title>Node5</title>
<g id="a_node5"><a xlink:href="JKRAramPiece_8cpp.html" target="_top" xlink:title=" ">
<polygon fill="white" stroke="#666666" points="1461.5,-349 1352.5,-349 1352.5,-319 1461.5,-319 1461.5,-349"/>
<text text-anchor="start" x="1360.5" y="-337" font-family="Helvetica,sans-Serif" font-size="10.00">libs/JSystem/JKernel</text>
<text text-anchor="middle" x="1407" y="-326" font-family="Helvetica,sans-Serif" font-size="10.00">/JKRAramPiece.cpp</text>
</a>
</g>
</g>
<!-- Node2&#45;&gt;Node5 -->
<g id="edge4" class="edge">
<title>Node2&#45;&gt;Node5</title>
<path fill="none" stroke="#63b8ff" d="M1037.83,-391.2C1114.15,-382.6 1237.41,-367.5 1343,-349 1346.02,-348.47 1349.12,-347.9 1352.25,-347.29"/>
<polygon fill="#63b8ff" stroke="#63b8ff" points="1037.51,-387.72 1027.96,-392.31 1038.29,-394.67 1037.51,-387.72"/>
</g>
<!-- Node6 -->
<g id="node6" class="node">
<title>Node6</title>
<g id="a_node6"><a xlink:href="JKRAramStream_8cpp.html" target="_top" xlink:title=" ">
<polygon fill="white" stroke="#666666" points="1590.5,-349 1479.5,-349 1479.5,-319 1590.5,-319 1590.5,-349"/>
<text text-anchor="start" x="1487.5" y="-337" font-family="Helvetica,sans-Serif" font-size="10.00">libs/JSystem/JKernel</text>
<text text-anchor="middle" x="1535" y="-326" font-family="Helvetica,sans-Serif" font-size="10.00">/JKRAramStream.cpp</text>
</a>
</g>
</g>
<!-- Node2&#45;&gt;Node6 -->
<g id="edge5" class="edge">
<title>Node2&#45;&gt;Node6</title>
<path fill="none" stroke="#63b8ff" d="M1037.6,-394.41C1136,-387.6 1316.99,-372.97 1470,-349 1472.97,-348.54 1476,-348.02 1479.06,-347.47"/>
<polygon fill="#63b8ff" stroke="#63b8ff" points="1037.55,-390.91 1027.82,-395.08 1038.03,-397.89 1037.55,-390.91"/>
</g>
<!-- Node7 -->
<g id="node7" class="node">
<title>Node7</title>
<g id="a_node7"><a xlink:href="JKRDvdArchive_8cpp.html" target="_top" xlink:title=" ">
<polygon fill="white" stroke="#666666" points="1717.5,-349 1608.5,-349 1608.5,-319 1717.5,-319 1717.5,-349"/>
<text text-anchor="start" x="1616.5" y="-337" font-family="Helvetica,sans-Serif" font-size="10.00">libs/JSystem/JKernel</text>
<text text-anchor="middle" x="1663" y="-326" font-family="Helvetica,sans-Serif" font-size="10.00">/JKRDvdArchive.cpp</text>
</a>
</g>
</g>
<!-- Node2&#45;&gt;Node7 -->
<g id="edge6" class="edge">
<title>Node2&#45;&gt;Node7</title>
<path fill="none" stroke="#63b8ff" d="M1037.46,-396.51C1155.6,-391.72 1396.85,-378.94 1599,-349 1602.04,-348.55 1605.15,-348.04 1608.28,-347.49"/>
<polygon fill="#63b8ff" stroke="#63b8ff" points="1037.44,-393.01 1027.58,-396.9 1037.71,-400 1037.44,-393.01"/>
</g>
<!-- Node8 -->
<g id="node8" class="node">
<title>Node8</title>
<g id="a_node8"><a xlink:href="JKRDvdFile_8cpp.html" target="_top" xlink:title=" ">
<polygon fill="white" stroke="#666666" points="1844.5,-349 1735.5,-349 1735.5,-319 1844.5,-319 1844.5,-349"/>
<text text-anchor="start" x="1743.5" y="-337" font-family="Helvetica,sans-Serif" font-size="10.00">libs/JSystem/JKernel</text>
<text text-anchor="middle" x="1790" y="-326" font-family="Helvetica,sans-Serif" font-size="10.00">/JKRDvdFile.cpp</text>
</a>
</g>
</g>
<!-- Node2&#45;&gt;Node8 -->
<g id="edge7" class="edge">
<title>Node2&#45;&gt;Node8</title>
<path fill="none" stroke="#63b8ff" d="M1037.94,-397.83C1173.91,-394.86 1475.05,-384.49 1726,-349 1729.04,-348.57 1732.15,-348.07 1735.28,-347.53"/>
<polygon fill="#63b8ff" stroke="#63b8ff" points="1037.92,-394.33 1027.99,-398.04 1038.06,-401.33 1037.92,-394.33"/>
</g>
<!-- Node9 -->
<g id="node9" class="node">
<title>Node9</title>
<g id="a_node9"><a xlink:href="JKRDvdRipper_8cpp.html" target="_top" xlink:title=" ">
<polygon fill="white" stroke="#666666" points="257.5,-349 148.5,-349 148.5,-319 257.5,-319 257.5,-349"/>
<text text-anchor="start" x="156.5" y="-337" font-family="Helvetica,sans-Serif" font-size="10.00">libs/JSystem/JKernel</text>
<text text-anchor="middle" x="203" y="-326" font-family="Helvetica,sans-Serif" font-size="10.00">/JKRDvdRipper.cpp</text>
</a>
</g>
</g>
<!-- Node2&#45;&gt;Node9 -->
<g id="edge8" class="edge">
<title>Node2&#45;&gt;Node9</title>
<path fill="none" stroke="#63b8ff" d="M892.39,-397.32C764.98,-393.6 493.06,-382.17 266,-349 263.34,-348.61 260.62,-348.17 257.89,-347.7"/>
<polygon fill="#63b8ff" stroke="#63b8ff" points="892.29,-400.82 902.39,-397.61 892.49,-393.83 892.29,-400.82"/>
</g>
<!-- Node10 -->
<g id="node10" class="node">
<title>Node10</title>
<g id="a_node10"><a xlink:href="JKRExpHeap_8cpp.html" target="_top" xlink:title=" ">
<polygon fill="white" stroke="#666666" points="384.5,-349 275.5,-349 275.5,-319 384.5,-319 384.5,-349"/>
<text text-anchor="start" x="283.5" y="-337" font-family="Helvetica,sans-Serif" font-size="10.00">libs/JSystem/JKernel</text>
<text text-anchor="middle" x="330" y="-326" font-family="Helvetica,sans-Serif" font-size="10.00">/JKRExpHeap.cpp</text>
</a>
</g>
</g>
<!-- Node2&#45;&gt;Node10 -->
<g id="edge9" class="edge">
<title>Node2&#45;&gt;Node10</title>
<path fill="none" stroke="#63b8ff" d="M892.56,-395.73C783.64,-390.11 571.41,-376.5 393,-349 390.34,-348.59 387.63,-348.13 384.89,-347.64"/>
<polygon fill="#63b8ff" stroke="#63b8ff" points="892.06,-399.2 902.22,-396.22 892.41,-392.21 892.06,-399.2"/>
</g>
<!-- Node11 -->
<g id="node11" class="node">
<title>Node11</title>
<g id="a_node11"><a xlink:href="JKRHeap_8cpp.html" target="_top" xlink:title=" ">
<polygon fill="white" stroke="#666666" points="511.5,-349 402.5,-349 402.5,-319 511.5,-319 511.5,-349"/>
<text text-anchor="start" x="410.5" y="-337" font-family="Helvetica,sans-Serif" font-size="10.00">libs/JSystem/JKernel</text>
<text text-anchor="middle" x="457" y="-326" font-family="Helvetica,sans-Serif" font-size="10.00">/JKRHeap.cpp</text>
</a>
</g>
</g>
<!-- Node2&#45;&gt;Node11 -->
<g id="edge10" class="edge">
<title>Node2&#45;&gt;Node11</title>
<path fill="none" stroke="#63b8ff" d="M892.29,-393.23C803.91,-385.67 650.4,-370.75 520,-349 517.35,-348.56 514.64,-348.08 511.91,-347.56"/>
<polygon fill="#63b8ff" stroke="#63b8ff" points="891.76,-396.7 902.02,-394.06 892.35,-389.72 891.76,-396.7"/>
</g>
<!-- Node12 -->
<g id="node12" class="node">
<title>Node12</title>
<g id="a_node12"><a xlink:href="JKRMemArchive_8cpp.html" target="_top" xlink:title=" ">
<polygon fill="white" stroke="#666666" points="640.5,-349 529.5,-349 529.5,-319 640.5,-319 640.5,-349"/>
<text text-anchor="start" x="537.5" y="-337" font-family="Helvetica,sans-Serif" font-size="10.00">libs/JSystem/JKernel</text>
<text text-anchor="middle" x="585" y="-326" font-family="Helvetica,sans-Serif" font-size="10.00">/JKRMemArchive.cpp</text>
</a>
</g>
</g>
<!-- Node2&#45;&gt;Node12 -->
<g id="edge11" class="edge">
<title>Node2&#45;&gt;Node12</title>
<path fill="none" stroke="#63b8ff" d="M892.72,-388.13C829.81,-378.48 736.23,-363.67 655,-349 650.37,-348.16 645.56,-347.27 640.75,-346.35"/>
<polygon fill="#63b8ff" stroke="#63b8ff" points="891.8,-391.53 902.22,-389.58 892.86,-384.61 891.8,-391.53"/>
</g>
<!-- Node13 -->
<g id="node13" class="node">
<title>Node13</title>
<g id="a_node13"><a xlink:href="functionvalue_8cpp.html" target="_top" xlink:title=" ">
<polygon fill="white" stroke="#666666" points="828.5,-349 697.5,-349 697.5,-319 828.5,-319 828.5,-349"/>
<text text-anchor="start" x="705.5" y="-337" font-family="Helvetica,sans-Serif" font-size="10.00">libs/JSystem/JStudio</text>
<text text-anchor="middle" x="763" y="-326" font-family="Helvetica,sans-Serif" font-size="10.00">/JStudio/functionvalue.cpp</text>
</a>
</g>
</g>
<!-- Node2&#45;&gt;Node13 -->
<g id="edge12" class="edge">
<title>Node2&#45;&gt;Node13</title>
<path fill="none" stroke="#63b8ff" d="M908.56,-381.12C876.95,-371.1 838.05,-358.78 808.42,-349.39"/>
<polygon fill="#63b8ff" stroke="#63b8ff" points="907.38,-384.42 917.97,-384.1 909.5,-377.74 907.38,-384.42"/>
</g>
<!-- Node14 -->
<g id="node14" class="node">
<title>Node14</title>
<g id="a_node14"><a xlink:href="fvb_8cpp.html" target="_top" xlink:title=" ">
<polygon fill="white" stroke="#666666" points="955.5,-349 846.5,-349 846.5,-319 955.5,-319 955.5,-349"/>
<text text-anchor="start" x="854.5" y="-337" font-family="Helvetica,sans-Serif" font-size="10.00">libs/JSystem/JStudio</text>
<text text-anchor="middle" x="901" y="-326" font-family="Helvetica,sans-Serif" font-size="10.00">/JStudio/fvb.cpp</text>
</a>
</g>
</g>
<!-- Node2&#45;&gt;Node14 -->
<g id="edge13" class="edge">
<title>Node2&#45;&gt;Node14</title>
<path fill="none" stroke="#63b8ff" d="M942.81,-376.81C933.64,-367.64 923.28,-357.28 915.16,-349.16"/>
<polygon fill="#63b8ff" stroke="#63b8ff" points="940.18,-379.13 949.73,-383.73 945.13,-374.18 940.18,-379.13"/>
</g>
<!-- Node15 -->
<g id="node15" class="node">
<title>Node15</title>
<g id="a_node15"><a xlink:href="stb_8cpp.html" target="_top" xlink:title=" ">
<polygon fill="white" stroke="#666666" points="1082.5,-349 973.5,-349 973.5,-319 1082.5,-319 1082.5,-349"/>
<text text-anchor="start" x="981.5" y="-337" font-family="Helvetica,sans-Serif" font-size="10.00">libs/JSystem/JStudio</text>
<text text-anchor="middle" x="1028" y="-326" font-family="Helvetica,sans-Serif" font-size="10.00">/JStudio/stb.cpp</text>
</a>
</g>
</g>
<!-- Node2&#45;&gt;Node15 -->
<g id="edge14" class="edge">
<title>Node2&#45;&gt;Node15</title>
<path fill="none" stroke="#63b8ff" d="M986.85,-376.81C995.87,-367.64 1006.07,-357.28 1014.06,-349.16"/>
<polygon fill="#63b8ff" stroke="#63b8ff" points="984.56,-374.14 980.04,-383.72 989.55,-379.05 984.56,-374.14"/>
</g>
<!-- Node16 -->
<g id="node16" class="node">
<title>Node16</title>
<g id="a_node16"><a xlink:href="JUTException_8cpp.html" target="_top" xlink:title=" ">
<polygon fill="white" stroke="#666666" points="1207,-349 1101,-349 1101,-319 1207,-319 1207,-349"/>
<text text-anchor="start" x="1109" y="-337" font-family="Helvetica,sans-Serif" font-size="10.00">libs/JSystem/JUtility</text>
<text text-anchor="middle" x="1154" y="-326" font-family="Helvetica,sans-Serif" font-size="10.00">/JUTException.cpp</text>
</a>
</g>
</g>
<!-- Node2&#45;&gt;Node16 -->
<g id="edge15" class="edge">
<title>Node2&#45;&gt;Node16</title>
<path fill="none" stroke="#63b8ff" d="M1017.96,-381.07C1047.47,-371.07 1083.74,-358.79 1111.4,-349.43"/>
<polygon fill="#63b8ff" stroke="#63b8ff" points="1017.2,-377.63 1008.85,-384.15 1019.44,-384.26 1017.2,-377.63"/>
</g>
<!-- Node17 -->
<g id="node17" class="node">
<title>Node17</title>
<g id="a_node17"><a xlink:href="m__Do__machine_8cpp.html" target="_top" xlink:title=" ">
<polygon fill="white" stroke="#666666" points="1168.5,-90.5 1021.5,-90.5 1021.5,-71.5 1168.5,-71.5 1168.5,-90.5"/>
<text text-anchor="middle" x="1095" y="-78.5" font-family="Helvetica,sans-Serif" font-size="10.00">src/m_Do/m_Do_machine.cpp</text>
</a>
</g>
</g>
<!-- Node2&#45;&gt;Node17 -->
<g id="edge16" class="edge">
<title>Node2&#45;&gt;Node17</title>
<path fill="none" stroke="#63b8ff" d="M892.43,-394.77C820.44,-389.06 716.8,-376.27 688,-349 661.46,-323.87 669,-305.54 669,-269 669,-269 669,-269 669,-206.5 669,-133.97 899.36,-100.79 1021.28,-88.31"/>
<polygon fill="#63b8ff" stroke="#63b8ff" points="891.95,-398.24 902.19,-395.51 892.48,-391.26 891.95,-398.24"/>
</g>
<!-- Node19 -->
<g id="node19" class="node">
<title>Node19</title>
<g id="a_node19"><a xlink:href="d__menu__window_8h.html" target="_top" xlink:title=" ">
<polygon fill="white" stroke="#666666" points="2969,-349 2849,-349 2849,-319 2969,-319 2969,-349"/>
<text text-anchor="start" x="2857" y="-337" font-family="Helvetica,sans-Serif" font-size="10.00">include/d/menu/d_menu</text>
<text text-anchor="middle" x="2909" y="-326" font-family="Helvetica,sans-Serif" font-size="10.00">_window.h</text>
</a>
</g>
</g>
<!-- Node18&#45;&gt;Node19 -->
<g id="edge18" class="edge">
<title>Node18&#45;&gt;Node19</title>
<path fill="none" stroke="#63b8ff" d="M2064.71,-384.9C2364.92,-351.69 2711.19,-339.96 2848.55,-336.37"/>
<polygon fill="#63b8ff" stroke="#63b8ff" points="2064.65,-381.39 2055.1,-385.98 2065.43,-388.34 2064.65,-381.39"/>
</g>
<!-- Node122 -->
<g id="node43" class="node">
<title>Node122</title>
<g id="a_node43"><a xlink:href="m__Do__graphic_8cpp.html" target="_top" xlink:title=" ">
<polygon fill="white" stroke="#666666" points="2099,-90.5 1957,-90.5 1957,-71.5 2099,-71.5 2099,-90.5"/>
<text text-anchor="middle" x="2028" y="-78.5" font-family="Helvetica,sans-Serif" font-size="10.00">src/m_Do/m_Do_graphic.cpp</text>
</a>
</g>
</g>
<!-- Node18&#45;&gt;Node122 -->
<g id="edge63" class="edge">
<title>Node18&#45;&gt;Node122</title>
<path fill="none" stroke="#63b8ff" d="M2062.78,-382.19C2113.27,-371.34 2169.45,-357.67 2178,-349 2203.67,-322.99 2197,-305.54 2197,-269 2197,-269 2197,-269 2197,-206.5 2197,-140.72 2112.98,-105.81 2063.43,-90.94"/>
<polygon fill="#63b8ff" stroke="#63b8ff" points="2062.31,-378.72 2053.26,-384.22 2063.77,-385.56 2062.31,-378.72"/>
</g>
<!-- Node124 -->
<g id="node44" class="node">
<title>Node124</title>
<g id="a_node44"><a xlink:href="m__Do__main_8cpp.html" target="_top" xlink:title=" ">
<polygon fill="white" stroke="#666666" points="1938.5,-90.5 1807.5,-90.5 1807.5,-71.5 1938.5,-71.5 1938.5,-90.5"/>
<text text-anchor="middle" x="1873" y="-78.5" font-family="Helvetica,sans-Serif" font-size="10.00">src/m_Do/m_Do_main.cpp</text>
</a>
</g>
</g>
<!-- Node18&#45;&gt;Node124 -->
<g id="edge64" class="edge">
<title>Node18&#45;&gt;Node124</title>
<path fill="none" stroke="#63b8ff" d="M1952.23,-376.91C1944.02,-368.9 1935.67,-359.27 1930,-349 1912.34,-317 1911,-305.54 1911,-269 1911,-269 1911,-269 1911,-206.5 1911,-161.3 1887.81,-110.74 1877.66,-90.78"/>
<polygon fill="#63b8ff" stroke="#63b8ff" points="1949.78,-379.41 1959.51,-383.61 1954.52,-374.26 1949.78,-379.41"/>
</g>
<!-- Node125 -->
<g id="node45" class="node">
<title>Node125</title>
<g id="a_node45"><a xlink:href="c__API__controller__pad_8cpp.html" target="_top" xlink:title=" ">
<polygon fill="white" stroke="#666666" points="3121,-349 2987,-349 2987,-319 3121,-319 3121,-349"/>
<text text-anchor="start" x="2995" y="-337" font-family="Helvetica,sans-Serif" font-size="10.00">libs/SSystem/SComponent</text>
<text text-anchor="middle" x="3054" y="-326" font-family="Helvetica,sans-Serif" font-size="10.00">/c_API_controller_pad.cpp</text>
</a>
</g>
</g>
<!-- Node18&#45;&gt;Node125 -->
<g id="edge60" class="edge">
<title>Node18&#45;&gt;Node125</title>
<path fill="none" stroke="#63b8ff" d="M2065.04,-384.91C2469.84,-344.39 2577.26,-393.56 2978,-349 2980.8,-348.69 2983.65,-348.33 2986.53,-347.95"/>
<polygon fill="#63b8ff" stroke="#63b8ff" points="2064.69,-381.42 2055.09,-385.92 2065.4,-388.39 2064.69,-381.42"/>
</g>
<!-- Node126 -->
<g id="node46" class="node">
<title>Node126</title>
<g id="a_node46"><a xlink:href="d__lib_8cpp.html" target="_top" xlink:title=" ">
<polygon fill="white" stroke="#666666" points="2019,-343.5 1939,-343.5 1939,-324.5 2019,-324.5 2019,-343.5"/>
<text text-anchor="middle" x="1979" y="-331.5" font-family="Helvetica,sans-Serif" font-size="10.00">src/d/d_lib.cpp</text>
</a>
</g>
</g>
<!-- Node18&#45;&gt;Node126 -->
<g id="edge61" class="edge">
<title>Node18&#45;&gt;Node126</title>
<path fill="none" stroke="#63b8ff" d="M1979,-373.59C1979,-363.06 1979,-351.53 1979,-343.84"/>
<polygon fill="#63b8ff" stroke="#63b8ff" points="1975.5,-373.28 1979,-383.28 1982.5,-373.28 1975.5,-373.28"/>
</g>
<!-- Node127 -->
<g id="node47" class="node">
<title>Node127</title>
<g id="a_node47"><a xlink:href="m__Do__controller__pad_8cpp.html" target="_top" xlink:title=" ">
<polygon fill="white" stroke="#666666" points="2169,-349 2037,-349 2037,-319 2169,-319 2169,-349"/>
<text text-anchor="start" x="2045" y="-337" font-family="Helvetica,sans-Serif" font-size="10.00">src/m_Do/m_Do_controller</text>
<text text-anchor="middle" x="2103" y="-326" font-family="Helvetica,sans-Serif" font-size="10.00">_pad.cpp</text>
</a>
</g>
</g>
<!-- Node18&#45;&gt;Node127 -->
<g id="edge62" class="edge">
<title>Node18&#45;&gt;Node127</title>
<path fill="none" stroke="#63b8ff" d="M2016.87,-379.45C2035.7,-369.73 2058.05,-358.2 2075.26,-349.31"/>
<polygon fill="#63b8ff" stroke="#63b8ff" points="2015.45,-376.25 2008.17,-383.94 2018.66,-382.47 2015.45,-376.25"/>
</g>
<!-- Node20 -->
<g id="node20" class="node">
<title>Node20</title>
<g id="a_node20"><a xlink:href="d__meter2__info_8h.html" target="_top" xlink:title=" ">
<polygon fill="white" stroke="#666666" points="3703.5,-283 3576.5,-283 3576.5,-253 3703.5,-253 3703.5,-283"/>
<text text-anchor="start" x="3584.5" y="-271" font-family="Helvetica,sans-Serif" font-size="10.00">include/d/meter/d_meter2</text>
<text text-anchor="middle" x="3640" y="-260" font-family="Helvetica,sans-Serif" font-size="10.00">_info.h</text>
</a>
</g>
</g>
<!-- Node19&#45;&gt;Node20 -->
<g id="edge19" class="edge">
<title>Node19&#45;&gt;Node20</title>
<path fill="none" stroke="#63b8ff" d="M2980.47,-317.48C3211.22,-287.42 3275.61,-304.92 3513,-283 3533.44,-281.11 3555.82,-278.58 3576.07,-276.18"/>
<polygon fill="#63b8ff" stroke="#63b8ff" points="2980.31,-313.98 2970.85,-318.75 2981.22,-320.92 2980.31,-313.98"/>
</g>
<!-- Node63 -->
<g id="node37" class="node">
<title>Node63</title>
<g id="a_node37"><a xlink:href="d__menu__window_8cpp.html" target="_top" xlink:title=" ">
<polygon fill="white" stroke="#666666" points="3335.5,-24.5 3176.5,-24.5 3176.5,-5.5 3335.5,-5.5 3335.5,-24.5"/>
<text text-anchor="middle" x="3256" y="-12.5" font-family="Helvetica,sans-Serif" font-size="10.00">src/d/menu/d_menu_window.cpp</text>
</a>
</g>
</g>
<!-- Node19&#45;&gt;Node63 -->
<g id="edge58" class="edge">
<title>Node19&#45;&gt;Node63</title>
<path fill="none" stroke="#63b8ff" d="M2980.53,-318.37C3139.45,-285.82 3508,-210.17 3508,-208.5 3508,-208.5 3508,-208.5 3508,-146 3508,-67.23 3409.56,-36.14 3335.73,-23.9"/>
<polygon fill="#63b8ff" stroke="#63b8ff" points="2980.03,-314.89 2970.94,-320.33 2981.44,-321.75 2980.03,-314.89"/>
</g>
<!-- Node64 -->
<g id="node38" class="node">
<title>Node64</title>
<g id="a_node38"><a xlink:href="d__meter__map_8cpp.html" target="_top" xlink:title=" ">
<polygon fill="white" stroke="#666666" points="2349,-30 2245,-30 2245,0 2349,0 2349,-30"/>
<text text-anchor="start" x="2253" y="-18" font-family="Helvetica,sans-Serif" font-size="10.00">src/d/meter/d_meter</text>
<text text-anchor="middle" x="2297" y="-7" font-family="Helvetica,sans-Serif" font-size="10.00">_map.cpp</text>
</a>
</g>
</g>
<!-- Node19&#45;&gt;Node64 -->
<g id="edge59" class="edge">
<title>Node19&#45;&gt;Node64</title>
<path fill="none" stroke="#63b8ff" d="M2837.47,-326.75C2668.55,-311.02 2259,-266.87 2259,-208.5 2259,-208.5 2259,-208.5 2259,-146 2259,-102.5 2278.84,-53.98 2289.85,-30.41"/>
<polygon fill="#63b8ff" stroke="#63b8ff" points="2836.94,-330.21 2847.22,-327.65 2837.58,-323.24 2836.94,-330.21"/>
</g>
<!-- Node20&#45;&gt;Node19 -->
<g id="edge53" class="edge">
<title>Node20&#45;&gt;Node19</title>
<path fill="none" stroke="#63b8ff" d="M3564.93,-279.51C3553.59,-280.78 3542.02,-281.98 3531,-283 3289.72,-305.28 3227.16,-286.84 2987,-319 2981.31,-319.76 2975.38,-320.72 2969.44,-321.77"/>
<polygon fill="#63b8ff" stroke="#63b8ff" points="3565.12,-283.01 3574.66,-278.39 3564.33,-276.05 3565.12,-283.01"/>
</g>
<!-- Node21 -->
<g id="node21" class="node">
<title>Node21</title>
<g id="a_node21"><a xlink:href="d__a__alink_8h.html" target="_top" xlink:title=" ">
<polygon fill="white" stroke="#666666" points="3652,-217 3536,-217 3536,-198 3652,-198 3652,-217"/>
<text text-anchor="middle" x="3594" y="-205" font-family="Helvetica,sans-Serif" font-size="10.00">include/d/a/d_a_alink.h</text>
</a>
</g>
</g>
<!-- Node20&#45;&gt;Node21 -->
<g id="edge20" class="edge">
<title>Node20&#45;&gt;Node21</title>
<path fill="none" stroke="#63b8ff" d="M3621.63,-243.64C3614.3,-234.32 3606.31,-224.16 3600.82,-217.18"/>
<polygon fill="#63b8ff" stroke="#63b8ff" points="3618.76,-245.65 3627.69,-251.35 3624.26,-241.33 3618.76,-245.65"/>
</g>
<!-- Node28 -->
<g id="node24" class="node">
<title>Node28</title>
<g id="a_node24"><a xlink:href="d__meter2__info_8cpp.html" target="_top" xlink:title=" ">
<polygon fill="white" stroke="#666666" points="2697,-30 2587,-30 2587,0 2697,0 2697,-30"/>
<text text-anchor="start" x="2595" y="-18" font-family="Helvetica,sans-Serif" font-size="10.00">src/d/meter/d_meter2</text>
<text text-anchor="middle" x="2642" y="-7" font-family="Helvetica,sans-Serif" font-size="10.00">_info.cpp</text>
</a>
</g>
</g>
<!-- Node20&#45;&gt;Node28 -->
<g id="edge56" class="edge">
<title>Node20&#45;&gt;Node28</title>
<path fill="none" stroke="#63b8ff" d="M3564.86,-262.68C3302.01,-246.8 2435.4,-187.81 2355,-96 2346.22,-85.97 2346.42,-76.21 2355,-66 2384.01,-31.5 2511.76,-20.8 2586.69,-17.49"/>
<polygon fill="#63b8ff" stroke="#63b8ff" points="3564.47,-266.16 3574.66,-263.27 3564.89,-259.17 3564.47,-266.16"/>
</g>
<!-- Node37 -->
<g id="node28" class="node">
<title>Node37</title>
<g id="a_node28"><a xlink:href="d__com__inf__game_8cpp.html" target="_top" xlink:title=" ">
<polygon fill="white" stroke="#666666" points="3676,-30 3568,-30 3568,0 3676,0 3676,-30"/>
<text text-anchor="start" x="3576" y="-18" font-family="Helvetica,sans-Serif" font-size="10.00">src/d/com/d_com_inf</text>
<text text-anchor="middle" x="3622" y="-7" font-family="Helvetica,sans-Serif" font-size="10.00">_game.cpp</text>
</a>
</g>
</g>
<!-- Node20&#45;&gt;Node37 -->
<g id="edge54" class="edge">
<title>Node20&#45;&gt;Node37</title>
<path fill="none" stroke="#63b8ff" d="M3714.8,-251.65C3833.86,-224.01 4045.12,-159.85 3964,-66 3945.46,-44.55 3767.88,-27.52 3676.21,-20.07"/>
<polygon fill="#63b8ff" stroke="#63b8ff" points="3714.38,-248.16 3705.41,-253.8 3715.94,-254.98 3714.38,-248.16"/>
</g>
<!-- Node38 -->
<g id="node29" class="node">
<title>Node38</title>
<g id="a_node29"><a xlink:href="d__item_8cpp.html" target="_top" xlink:title=" ">
<polygon fill="white" stroke="#666666" points="3924.5,-24.5 3835.5,-24.5 3835.5,-5.5 3924.5,-5.5 3924.5,-24.5"/>
<text text-anchor="middle" x="3880" y="-12.5" font-family="Helvetica,sans-Serif" font-size="10.00">src/d/d_item.cpp</text>
</a>
</g>
</g>
<!-- Node20&#45;&gt;Node38 -->
<g id="edge55" class="edge">
<title>Node20&#45;&gt;Node38</title>
<path fill="none" stroke="#63b8ff" d="M3715.05,-254.48C3804.78,-237.76 3946.7,-205.17 3977,-162 4001.62,-126.92 4008.95,-102.19 3986,-66 3972.33,-44.43 3946.59,-32 3923.89,-24.92"/>
<polygon fill="#63b8ff" stroke="#63b8ff" points="3714.52,-251.02 3705.32,-256.26 3715.79,-257.9 3714.52,-251.02"/>
</g>
<!-- Node115 -->
<g id="node42" class="node">
<title>Node115</title>
<g id="a_node42"><a xlink:href="d__save_8cpp.html" target="_top" xlink:title=" ">
<polygon fill="white" stroke="#666666" points="3802.5,-90.5 3687.5,-90.5 3687.5,-71.5 3802.5,-71.5 3802.5,-90.5"/>
<text text-anchor="middle" x="3745" y="-78.5" font-family="Helvetica,sans-Serif" font-size="10.00">src/d/save/d_save.cpp</text>
</a>
</g>
</g>
<!-- Node20&#45;&gt;Node115 -->
<g id="edge57" class="edge">
<title>Node20&#45;&gt;Node115</title>
<path fill="none" stroke="#63b8ff" d="M3653.64,-242.97C3677.18,-201.5 3724.4,-118.29 3739.93,-90.94"/>
<polygon fill="#63b8ff" stroke="#63b8ff" points="3650.7,-241.05 3648.81,-251.47 3656.79,-244.51 3650.7,-241.05"/>
</g>
<!-- Node22 -->
<g id="node22" class="node">
<title>Node22</title>
<g id="a_node22"><a xlink:href="d__com__inf__game_8h.html" target="_top" xlink:title=" ">
<polygon fill="#fff0f0" stroke="red" points="2993,-162 2883,-162 2883,-132 2993,-132 2993,-162"/>
<text text-anchor="start" x="2891" y="-150" font-family="Helvetica,sans-Serif" font-size="10.00">include/d/com/d_com</text>
<text text-anchor="middle" x="2938" y="-139" font-family="Helvetica,sans-Serif" font-size="10.00">_inf_game.h</text>
</a>
</g>
</g>
<!-- Node21&#45;&gt;Node22 -->
<g id="edge21" class="edge">
<title>Node21&#45;&gt;Node22</title>
<path fill="none" stroke="#63b8ff" d="M3524.33,-200.29C3393.26,-188.6 3112.45,-163.56 2993.29,-152.93"/>
<polygon fill="#63b8ff" stroke="#63b8ff" points="3524.01,-203.77 3534.28,-201.17 3524.63,-196.8 3524.01,-203.77"/>
</g>
<!-- Node32 -->
<g id="node27" class="node">
<title>Node32</title>
<g id="a_node27"><a xlink:href="d__a__alink_8cpp.html" target="_top" xlink:title=" ">
<polygon fill="white" stroke="#666666" points="3506.5,-24.5 3397.5,-24.5 3397.5,-5.5 3506.5,-5.5 3506.5,-24.5"/>
<text text-anchor="middle" x="3452" y="-12.5" font-family="Helvetica,sans-Serif" font-size="10.00">src/d/a/d_a_alink.cpp</text>
</a>
</g>
</g>
<!-- Node21&#45;&gt;Node32 -->
<g id="edge52" class="edge">
<title>Node21&#45;&gt;Node32</title>
<path fill="none" stroke="#63b8ff" d="M3587.45,-187.12C3577.02,-158.32 3554.44,-103.58 3522,-66 3506.78,-48.36 3484.11,-33.65 3468.73,-24.85"/>
<polygon fill="#63b8ff" stroke="#63b8ff" points="3584.06,-188.04 3590.67,-196.32 3590.67,-185.73 3584.06,-188.04"/>
</g>
<!-- Node23 -->
<g id="node23" class="node">
<title>Node23</title>
<g id="a_node23"><a xlink:href="d__a__npc_8h.html" target="_top" xlink:title=" ">
<polygon fill="#fff0f0" stroke="red" points="2474.5,-90.5 2363.5,-90.5 2363.5,-71.5 2474.5,-71.5 2474.5,-90.5"/>
<text text-anchor="middle" x="2419" y="-78.5" font-family="Helvetica,sans-Serif" font-size="10.00">include/d/a/d_a_npc.h</text>
</a>
</g>
</g>
<!-- Node22&#45;&gt;Node23 -->
<g id="edge22" class="edge">
<title>Node22&#45;&gt;Node23</title>
<path fill="none" stroke="#63b8ff" d="M2871.3,-140.81C2782.53,-133.41 2620.85,-118.21 2484,-96 2475.34,-94.59 2466.09,-92.79 2457.37,-90.95"/>
<polygon fill="#63b8ff" stroke="#63b8ff" points="2870.78,-144.28 2881.03,-141.61 2871.36,-137.3 2870.78,-144.28"/>
</g>
<!-- Node22&#45;&gt;Node28 -->
<g id="edge46" class="edge">
<title>Node22&#45;&gt;Node28</title>
<path fill="none" stroke="#63b8ff" d="M2913.34,-124.23C2887.91,-101.95 2850.9,-70.03 2843,-66 2796.88,-42.46 2739.04,-29.59 2697.27,-22.82"/>
<polygon fill="#63b8ff" stroke="#63b8ff" points="2910.82,-126.68 2920.64,-130.65 2915.44,-121.42 2910.82,-126.68"/>
</g>
<!-- Node29 -->
<g id="node25" class="node">
<title>Node29</title>
<g id="a_node25"><a xlink:href="d__cc__uty_8h.html" target="_top" xlink:title=" ">
<polygon fill="#fff0f0" stroke="red" points="3441.5,-90.5 3322.5,-90.5 3322.5,-71.5 3441.5,-71.5 3441.5,-90.5"/>
<text text-anchor="middle" x="3382" y="-78.5" font-family="Helvetica,sans-Serif" font-size="10.00">include/d/cc/d_cc_uty.h</text>
</a>
</g>
</g>
<!-- Node22&#45;&gt;Node29 -->
<g id="edge24" class="edge">
<title>Node22&#45;&gt;Node29</title>
<path fill="none" stroke="#63b8ff" d="M3004.32,-138.11C3078.48,-129.03 3202.1,-113.16 3308,-96 3317.29,-94.49 3327.21,-92.73 3336.67,-90.97"/>
<polygon fill="#63b8ff" stroke="#63b8ff" points="3004.3,-134.58 2994.8,-139.27 3005.15,-141.53 3004.3,-134.58"/>
</g>
<!-- Node35 -->
<g id="node26" class="node">
<title>Node35</title>
<g id="a_node26"><a xlink:href="d__item_8h.html" target="_top" xlink:title=" ">
<polygon fill="#fff0f0" stroke="red" points="3669.5,-90.5 3574.5,-90.5 3574.5,-71.5 3669.5,-71.5 3669.5,-90.5"/>
<text text-anchor="middle" x="3622" y="-78.5" font-family="Helvetica,sans-Serif" font-size="10.00">include/d/d_item.h</text>
</a>
</g>
</g>
<!-- Node22&#45;&gt;Node35 -->
<g id="edge25" class="edge">
<title>Node22&#45;&gt;Node35</title>
<path fill="none" stroke="#63b8ff" d="M3004.88,-140.09C3107.83,-130.94 3311.34,-112.66 3484,-96 3513.96,-93.11 3547.57,-89.7 3574.11,-86.97"/>
<polygon fill="#63b8ff" stroke="#63b8ff" points="3004.59,-136.6 2994.94,-140.97 3005.21,-143.57 3004.59,-136.6"/>
</g>
<!-- Node22&#45;&gt;Node32 -->
<g id="edge43" class="edge">
<title>Node22&#45;&gt;Node32</title>
<path fill="none" stroke="#63b8ff" d="M3004.85,-142.11C3070.68,-136.78 3173.38,-124.36 3258,-96 3284.77,-87.03 3288.22,-77.51 3314,-66 3351,-49.49 3395.27,-34.2 3423.51,-24.98"/>
<polygon fill="#63b8ff" stroke="#63b8ff" points="3004.61,-138.62 2994.91,-142.88 3005.15,-145.6 3004.61,-138.62"/>
</g>
<!-- Node22&#45;&gt;Node37 -->
<g id="edge44" class="edge">
<title>Node22&#45;&gt;Node37</title>
<path fill="none" stroke="#63b8ff" d="M3004.73,-146.65C3103.87,-146.04 3295.13,-138.7 3451,-96 3506.32,-80.85 3565.92,-49.03 3598.09,-30.41"/>
<polygon fill="#63b8ff" stroke="#63b8ff" points="3004.89,-143.15 2994.91,-146.69 3004.92,-150.15 3004.89,-143.15"/>
</g>
<!-- Node40 -->
<g id="node30" class="node">
<title>Node40</title>
<g id="a_node30"><a xlink:href="d__kantera__icon__meter_8h.html" target="_top" xlink:title=" ">
<polygon fill="#fff0f0" stroke="red" points="2593.5,-96 2492.5,-96 2492.5,-66 2593.5,-66 2593.5,-96"/>
<text text-anchor="start" x="2500.5" y="-84" font-family="Helvetica,sans-Serif" font-size="10.00">include/d/d_kantera</text>
<text text-anchor="middle" x="2543" y="-73" font-family="Helvetica,sans-Serif" font-size="10.00">_icon_meter.h</text>
</a>
</g>
</g>
<!-- Node22&#45;&gt;Node40 -->
<g id="edge29" class="edge">
<title>Node22&#45;&gt;Node40</title>
<path fill="none" stroke="#63b8ff" d="M2871.28,-137.66C2803.48,-128.81 2695.55,-113.67 2603,-96 2599.95,-95.42 2596.83,-94.79 2593.68,-94.13"/>
<polygon fill="#63b8ff" stroke="#63b8ff" points="2870.77,-141.13 2881.14,-138.94 2871.67,-134.18 2870.77,-141.13"/>
</g>
<!-- Node43 -->
<g id="node31" class="node">
<title>Node43</title>
<g id="a_node31"><a xlink:href="d__model_8h.html" target="_top" xlink:title=" ">
<polygon fill="#fff0f0" stroke="red" points="2714.5,-90.5 2611.5,-90.5 2611.5,-71.5 2714.5,-71.5 2714.5,-90.5"/>
<text text-anchor="middle" x="2663" y="-78.5" font-family="Helvetica,sans-Serif" font-size="10.00">include/d/d_model.h</text>
</a>
</g>
</g>
<!-- Node22&#45;&gt;Node43 -->
<g id="edge30" class="edge">
<title>Node22&#45;&gt;Node43</title>
<path fill="none" stroke="#63b8ff" d="M2871.63,-130.55C2818.36,-118.16 2745.44,-101.19 2701.42,-90.94"/>
<polygon fill="#63b8ff" stroke="#63b8ff" points="2870.67,-133.92 2881.21,-132.78 2872.26,-127.11 2870.67,-133.92"/>
</g>
<!-- Node45 -->
<g id="node32" class="node">
<title>Node45</title>
<g id="a_node32"><a xlink:href="d__name_8h.html" target="_top" xlink:title=" ">
<polygon fill="#fff0f0" stroke="red" points="2833.5,-90.5 2732.5,-90.5 2732.5,-71.5 2833.5,-71.5 2833.5,-90.5"/>
<text text-anchor="middle" x="2783" y="-78.5" font-family="Helvetica,sans-Serif" font-size="10.00">include/d/d_name.h</text>
</a>
</g>
</g>
<!-- Node22&#45;&gt;Node45 -->
<g id="edge31" class="edge">
<title>Node22&#45;&gt;Node45</title>
<path fill="none" stroke="#63b8ff" d="M2892.9,-127.38C2863.91,-115.41 2827.52,-100.38 2804.76,-90.99"/>
<polygon fill="#63b8ff" stroke="#63b8ff" points="2891.24,-130.48 2901.82,-131.06 2893.91,-124.01 2891.24,-130.48"/>
</g>
<!-- Node47 -->
<g id="node33" class="node">
<title>Node47</title>
<g id="a_node33"><a xlink:href="d__file__sel__info_8h.html" target="_top" xlink:title=" ">
<polygon fill="#fff0f0" stroke="red" points="2986,-96 2890,-96 2890,-66 2986,-66 2986,-96"/>
<text text-anchor="start" x="2898" y="-84" font-family="Helvetica,sans-Serif" font-size="10.00">include/d/file/d_file</text>
<text text-anchor="middle" x="2938" y="-73" font-family="Helvetica,sans-Serif" font-size="10.00">_sel_info.h</text>
</a>
</g>
</g>
<!-- Node22&#45;&gt;Node47 -->
<g id="edge32" class="edge">
<title>Node22&#45;&gt;Node47</title>
<path fill="none" stroke="#63b8ff" d="M2938,-120.39C2938,-112.13 2938,-103.28 2938,-96.16"/>
<polygon fill="#63b8ff" stroke="#63b8ff" points="2934.5,-120.28 2938,-130.28 2941.5,-120.28 2934.5,-120.28"/>
</g>
<!-- Node50 -->
<g id="node34" class="node">
<title>Node50</title>
<g id="a_node34"><a xlink:href="d__file__sel__warning_8h.html" target="_top" xlink:title=" ">
<polygon fill="#fff0f0" stroke="red" points="3100,-96 3004,-96 3004,-66 3100,-66 3100,-96"/>
<text text-anchor="start" x="3012" y="-84" font-family="Helvetica,sans-Serif" font-size="10.00">include/d/file/d_file</text>
<text text-anchor="middle" x="3052" y="-73" font-family="Helvetica,sans-Serif" font-size="10.00">_sel_warning.h</text>
</a>
</g>
</g>
<!-- Node22&#45;&gt;Node50 -->
<g id="edge33" class="edge">
<title>Node22&#45;&gt;Node50</title>
<path fill="none" stroke="#63b8ff" d="M2973.3,-126.18C2990.51,-116.52 3010.82,-105.12 3026.5,-96.31"/>
<polygon fill="#63b8ff" stroke="#63b8ff" points="2971.91,-122.95 2964.9,-130.9 2975.34,-129.05 2971.91,-122.95"/>
</g>
<!-- Node52 -->
<g id="node35" class="node">
<title>Node52</title>
<g id="a_node35"><a xlink:href="d__meter2_8h.html" target="_top" xlink:title=" ">
<polygon fill="#fff0f0" stroke="red" points="3955,-90.5 3821,-90.5 3821,-71.5 3955,-71.5 3955,-90.5"/>
<text text-anchor="middle" x="3888" y="-78.5" font-family="Helvetica,sans-Serif" font-size="10.00">include/d/meter/d_meter2.h</text>
</a>
</g>
</g>
<!-- Node22&#45;&gt;Node52 -->
<g id="edge34" class="edge">
<title>Node22&#45;&gt;Node52</title>
<path fill="none" stroke="#63b8ff" d="M3004.87,-145.02C3151.53,-142.25 3512.29,-132.04 3812,-96 3822.66,-94.72 3834.07,-92.87 3844.74,-90.94"/>
<polygon fill="#63b8ff" stroke="#63b8ff" points="3004.88,-141.52 2994.94,-145.2 3005.01,-148.52 3004.88,-141.52"/>
</g>
<!-- Node54 -->
<g id="node36" class="node">
<title>Node54</title>
<g id="a_node36"><a xlink:href="d__msg__object_8h.html" target="_top" xlink:title=" ">
<polygon fill="#fff0f0" stroke="red" points="3228,-96 3118,-96 3118,-66 3228,-66 3228,-96"/>
<text text-anchor="start" x="3126" y="-84" font-family="Helvetica,sans-Serif" font-size="10.00">include/d/msg/d_msg</text>
<text text-anchor="middle" x="3173" y="-73" font-family="Helvetica,sans-Serif" font-size="10.00">_object.h</text>
</a>
</g>
</g>
<!-- Node22&#45;&gt;Node54 -->
<g id="edge36" class="edge">
<title>Node22&#45;&gt;Node54</title>
<path fill="none" stroke="#63b8ff" d="M3001.74,-128.64C3038.85,-118.53 3085.09,-105.94 3120.16,-96.39"/>
<polygon fill="#63b8ff" stroke="#63b8ff" points="3001.22,-125.15 2992.49,-131.16 3003.06,-131.91 3001.22,-125.15"/>
</g>
<!-- Node22&#45;&gt;Node63 -->
<g id="edge45" class="edge">
<title>Node22&#45;&gt;Node63</title>
<path fill="none" stroke="#63b8ff" d="M3004.33,-143.27C3081.98,-138.69 3204.15,-126.7 3237,-96 3257.02,-77.28 3257.7,-41.64 3256.79,-24.99"/>
<polygon fill="#63b8ff" stroke="#63b8ff" points="3004.52,-139.76 2994.73,-143.81 3004.91,-146.75 3004.52,-139.76"/>
</g>
<!-- Node22&#45;&gt;Node64 -->
<g id="edge47" class="edge">
<title>Node22&#45;&gt;Node64</title>
<path fill="none" stroke="#63b8ff" d="M2871.47,-143.4C2728.04,-137.35 2399.07,-120.92 2355,-96 2328.72,-81.14 2311.16,-48.9 2302.75,-30.2"/>
<polygon fill="#63b8ff" stroke="#63b8ff" points="2871.05,-146.88 2881.19,-143.8 2871.34,-139.89 2871.05,-146.88"/>
</g>
<!-- Node70 -->
<g id="node39" class="node">
<title>Node70</title>
<g id="a_node39"><a xlink:href="d__s__logo_8h.html" target="_top" xlink:title=" ">
<polygon fill="white" stroke="#666666" points="2230.5,-90.5 2117.5,-90.5 2117.5,-71.5 2230.5,-71.5 2230.5,-90.5"/>
<text text-anchor="middle" x="2174" y="-78.5" font-family="Helvetica,sans-Serif" font-size="10.00">include/d/s/d_s_logo.h</text>
</a>
</g>
</g>
<!-- Node22&#45;&gt;Node70 -->
<g id="edge41" class="edge">
<title>Node22&#45;&gt;Node70</title>
<path fill="none" stroke="#63b8ff" d="M2871.33,-142.05C2752.79,-134.77 2497.65,-117.96 2283,-96 2266.01,-94.26 2247.58,-92.03 2230.79,-89.86"/>
<polygon fill="#63b8ff" stroke="#63b8ff" points="2871,-145.54 2881.2,-142.65 2871.43,-138.55 2871,-145.54"/>
</g>
<!-- Node113 -->
<g id="node41" class="node">
<title>Node113</title>
<g id="a_node41"><a xlink:href="d__s__name_8cpp.html" target="_top" xlink:title=" ">
<polygon fill="white" stroke="#666666" points="1789.5,-90.5 1676.5,-90.5 1676.5,-71.5 1789.5,-71.5 1789.5,-90.5"/>
<text text-anchor="middle" x="1733" y="-78.5" font-family="Helvetica,sans-Serif" font-size="10.00">src/d/s/d_s_name.cpp</text>
</a>
</g>
</g>
<!-- Node22&#45;&gt;Node113 -->
<g id="edge48" class="edge">
<title>Node22&#45;&gt;Node113</title>
<path fill="none" stroke="#63b8ff" d="M2871.36,-144.55C2660.23,-139.73 2007.7,-122.99 1798,-96 1788.61,-94.79 1778.57,-92.92 1769.25,-90.94"/>
<polygon fill="#63b8ff" stroke="#63b8ff" points="2870.97,-148.04 2881.05,-144.77 2871.13,-141.05 2870.97,-148.04"/>
</g>
<!-- Node22&#45;&gt;Node115 -->
<g id="edge49" class="edge">
<title>Node22&#45;&gt;Node115</title>
<path fill="none" stroke="#63b8ff" d="M3004.43,-144.67C3134.51,-141.37 3431.68,-130.4 3679,-96 3688.17,-94.73 3697.96,-92.9 3707.12,-91"/>
<polygon fill="#63b8ff" stroke="#63b8ff" points="3004.54,-141.16 2994.63,-144.91 3004.72,-148.16 3004.54,-141.16"/>
</g>
<!-- Node22&#45;&gt;Node122 -->
<g id="edge50" class="edge">
<title>Node22&#45;&gt;Node122</title>
<path fill="none" stroke="#63b8ff" d="M2871.51,-144.54C2730.41,-140.9 2390.75,-129.15 2108,-96 2096.94,-94.7 2085.08,-92.87 2073.98,-90.96"/>
<polygon fill="#63b8ff" stroke="#63b8ff" points="2871.34,-148.04 2881.42,-144.8 2871.52,-141.04 2871.34,-148.04"/>
</g>
<!-- Node22&#45;&gt;Node124 -->
<g id="edge51" class="edge">
<title>Node22&#45;&gt;Node124</title>
<path fill="none" stroke="#63b8ff" d="M2871.45,-145.71C2711.66,-144.35 2293.9,-136.83 1948,-96 1937.48,-94.76 1926.21,-92.92 1915.68,-90.99"/>
<polygon fill="#63b8ff" stroke="#63b8ff" points="2870.96,-149.21 2880.99,-145.79 2871.02,-142.21 2870.96,-149.21"/>
</g>
<!-- Node23&#45;&gt;Node28 -->
<g id="edge23" class="edge">
<title>Node23&#45;&gt;Node28</title>
<path fill="none" stroke="#63b8ff" d="M2460.93,-67.97C2497.99,-57.33 2552.13,-41.79 2591.55,-30.48"/>
<polygon fill="#63b8ff" stroke="#63b8ff" points="2460.11,-64.56 2451.46,-70.68 2462.04,-71.29 2460.11,-64.56"/>
</g>
<!-- Node35&#45;&gt;Node32 -->
<g id="edge26" class="edge">
<title>Node35&#45;&gt;Node32</title>
<path fill="none" stroke="#63b8ff" d="M3587.76,-67.11C3554.49,-54.58 3504.84,-35.89 3475.71,-24.93"/>
<polygon fill="#63b8ff" stroke="#63b8ff" points="3586.35,-70.32 3596.95,-70.57 3588.82,-63.77 3586.35,-70.32"/>
</g>
<!-- Node35&#45;&gt;Node37 -->
<g id="edge27" class="edge">
<title>Node35&#45;&gt;Node37</title>
<path fill="none" stroke="#63b8ff" d="M3622,-59.78C3622,-50.17 3622,-38.92 3622,-30.23"/>
<polygon fill="#63b8ff" stroke="#63b8ff" points="3618.5,-59.59 3622,-69.59 3625.5,-59.59 3618.5,-59.59"/>
</g>
<!-- Node35&#45;&gt;Node38 -->
<g id="edge28" class="edge">
<title>Node35&#45;&gt;Node38</title>
<path fill="none" stroke="#63b8ff" d="M3669.07,-68.32C3719.51,-55.81 3798.45,-36.23 3844.1,-24.91"/>
<polygon fill="#63b8ff" stroke="#63b8ff" points="3668.48,-64.86 3659.61,-70.67 3670.16,-71.66 3668.48,-64.86"/>
</g>
<!-- Node52&#45;&gt;Node20 -->
<g id="edge35" class="edge">
<title>Node52&#45;&gt;Node20</title>
<path fill="none" stroke="#63b8ff" d="M3866.95,-97.7C3819.46,-133.13 3704.58,-218.82 3659.05,-252.79"/>
<polygon fill="#63b8ff" stroke="#63b8ff" points="3868.88,-100.63 3874.8,-91.84 3864.69,-95.02 3868.88,-100.63"/>
</g>
<!-- Node54&#45;&gt;Node28 -->
<g id="edge39" class="edge">
<title>Node54&#45;&gt;Node28</title>
<path fill="none" stroke="#63b8ff" d="M3106.54,-65.71C2952.9,-41.27 2782.87,-26.52 2697.26,-19.96"/>
<polygon fill="#63b8ff" stroke="#63b8ff" points="3105.64,-69.11 3116.07,-67.25 3106.76,-62.2 3105.64,-69.11"/>
</g>
<!-- Node54&#45;&gt;Node32 -->
<g id="edge37" class="edge">
<title>Node54&#45;&gt;Node32</title>
<path fill="none" stroke="#63b8ff" d="M3239.66,-64.71C3293.68,-52.32 3367.96,-35.28 3412.83,-24.99"/>
<polygon fill="#63b8ff" stroke="#63b8ff" points="3238.89,-61.29 3229.93,-66.94 3240.46,-68.12 3238.89,-61.29"/>
</g>
<!-- Node54&#45;&gt;Node63 -->
<g id="edge38" class="edge">
<title>Node54&#45;&gt;Node63</title>
<path fill="none" stroke="#63b8ff" d="M3200.32,-58.93C3215.34,-47.35 3233.17,-33.61 3244.53,-24.84"/>
<polygon fill="#63b8ff" stroke="#63b8ff" points="3198.4,-55.99 3192.62,-64.87 3202.68,-61.54 3198.4,-55.99"/>
</g>
<!-- Node54&#45;&gt;Node64 -->
<g id="edge40" class="edge">
<title>Node54&#45;&gt;Node64</title>
<path fill="none" stroke="#63b8ff" d="M3106.21,-65.92C2995.28,-53.47 2510.64,-27.3 2349.35,-18.75"/>
<polygon fill="#63b8ff" stroke="#63b8ff" points="3105.73,-69.39 3116.09,-67.15 3106.6,-62.44 3105.73,-69.39"/>
</g>
<!-- Node71 -->
<g id="node40" class="node">
<title>Node71</title>
<g id="a_node40"><a xlink:href="d__s__logo_8cpp.html" target="_top" xlink:title=" ">
<polygon fill="white" stroke="#666666" points="1964.5,-24.5 1857.5,-24.5 1857.5,-5.5 1964.5,-5.5 1964.5,-24.5"/>
<text text-anchor="middle" x="1911" y="-12.5" font-family="Helvetica,sans-Serif" font-size="10.00">src/d/s/d_s_logo.cpp</text>
</a>
</g>
</g>
<!-- Node70&#45;&gt;Node71 -->
<g id="edge42" class="edge">
<title>Node70&#45;&gt;Node71</title>
<path fill="none" stroke="#63b8ff" d="M2126.01,-68.32C2074.6,-55.81 1994.13,-36.23 1947.6,-24.91"/>
<polygon fill="#63b8ff" stroke="#63b8ff" points="2125.14,-71.71 2135.68,-70.68 2126.79,-64.91 2125.14,-71.71"/>
</g>
<!-- Node128&#45;&gt;Node17 -->
<g id="edge69" class="edge">
<title>Node128&#45;&gt;Node17</title>
<path fill="none" stroke="#63b8ff" d="M1669.4,-137.45C1537.44,-124.71 1291.63,-100.98 1168.82,-89.13"/>
<polygon fill="#63b8ff" stroke="#63b8ff" points="1668.85,-140.91 1679.14,-138.39 1669.52,-133.94 1668.85,-140.91"/>
</g>
<!-- Node128&#45;&gt;Node71 -->
<g id="edge66" class="edge">
<title>Node128&#45;&gt;Node71</title>
<path fill="none" stroke="#63b8ff" d="M1722.32,-132.6C1688.31,-117.84 1645.28,-92.62 1667,-66 1690.51,-37.19 1792.57,-24.52 1857.02,-19.31"/>
<polygon fill="#63b8ff" stroke="#63b8ff" points="1720.97,-135.83 1731.55,-136.44 1723.66,-129.37 1720.97,-135.83"/>
</g>
<!-- Node128&#45;&gt;Node113 -->
<g id="edge67" class="edge">
<title>Node128&#45;&gt;Node113</title>
<path fill="none" stroke="#63b8ff" d="M1750.35,-126.43C1745.71,-114.55 1740.02,-99.96 1736.45,-90.82"/>
<polygon fill="#63b8ff" stroke="#63b8ff" points="1747.07,-127.65 1753.97,-135.69 1753.59,-125.1 1747.07,-127.65"/>
</g>
<!-- Node128&#45;&gt;Node122 -->
<g id="edge68" class="edge">
<title>Node128&#45;&gt;Node122</title>
<path fill="none" stroke="#63b8ff" d="M1806.93,-134.4C1859.7,-121.89 1942.55,-102.25 1990.43,-90.91"/>
<polygon fill="#63b8ff" stroke="#63b8ff" points="1806.22,-130.97 1797.3,-136.68 1807.84,-137.78 1806.22,-130.97"/>
</g>
<!-- Node128&#45;&gt;Node124 -->
<g id="edge70" class="edge">
<title>Node128&#45;&gt;Node124</title>
<path fill="none" stroke="#63b8ff" d="M1783.88,-131.59C1806.38,-119.08 1838.24,-101.34 1857.15,-90.82"/>
<polygon fill="#63b8ff" stroke="#63b8ff" points="1782.35,-128.44 1775.31,-136.37 1785.75,-134.56 1782.35,-128.44"/>
</g>
</g>
</svg>
