<?xml version="1.0" encoding="UTF-8" standalone="no"?>
<!DOCTYPE svg PUBLIC "-//W3C//DTD SVG 1.1//EN"
 "http://www.w3.org/Graphics/SVG/1.1/DTD/svg11.dtd">
<!-- Generated by graphviz version 7.0.4 (20221203.1631)
 -->
<!-- Title: include/JSystem/JUtility/JUTXfb.h Pages: 1 -->
<svg width="4734pt" height="566pt"
 viewBox="0.00 0.00 4734.06 566.00" xmlns="http://www.w3.org/2000/svg" xmlns:xlink="http://www.w3.org/1999/xlink">
<g id="graph0" class="graph" transform="scale(1 1) rotate(0) translate(4 562)">
<title>include/JSystem/JUtility/JUTXfb.h</title>
<!-- Node1 -->
<g id="node1" class="node">
<title>Node1</title>
<g id="a_node1"><a xlink:title=" ">
<polygon fill="#999999" stroke="#666666" points="4518.06,-558 4396.06,-558 4396.06,-528 4518.06,-528 4518.06,-558"/>
<text text-anchor="start" x="4404.06" y="-546" font-family="Helvetica,sans-Serif" font-size="10.00">include/JSystem/JUtility</text>
<text text-anchor="middle" x="4457.06" y="-535" font-family="Helvetica,sans-Serif" font-size="10.00">/JUTXfb.h</text>
</a>
</g>
</g>
<!-- Node2 -->
<g id="node2" class="node">
<title>Node2</title>
<g id="a_node2"><a xlink:href="JFWDisplay_8h.html" target="_top" xlink:title=" ">
<polygon fill="white" stroke="#666666" points="4324.06,-492 4178.06,-492 4178.06,-462 4324.06,-462 4324.06,-492"/>
<text text-anchor="start" x="4186.06" y="-480" font-family="Helvetica,sans-Serif" font-size="10.00">include/JSystem/JFramework</text>
<text text-anchor="middle" x="4251.06" y="-469" font-family="Helvetica,sans-Serif" font-size="10.00">/JFWDisplay.h</text>
</a>
</g>
</g>
<!-- Node1&#45;&gt;Node2 -->
<g id="edge1" class="edge">
<title>Node1&#45;&gt;Node2</title>
<path fill="none" stroke="#63b8ff" d="M4399.93,-524.25C4367.61,-514.21 4327.72,-501.82 4297.37,-492.39"/>
<polygon fill="#63b8ff" stroke="#63b8ff" points="4398.54,-527.48 4409.12,-527.11 4400.61,-520.8 4398.54,-527.48"/>
</g>
<!-- Node113 -->
<g id="node48" class="node">
<title>Node113</title>
<g id="a_node48"><a xlink:href="JUTVideo_8cpp.html" target="_top" xlink:title=" ">
<polygon fill="white" stroke="#666666" points="4448.06,-492 4342.06,-492 4342.06,-462 4448.06,-462 4448.06,-492"/>
<text text-anchor="start" x="4350.06" y="-480" font-family="Helvetica,sans-Serif" font-size="10.00">libs/JSystem/JUtility</text>
<text text-anchor="middle" x="4395.06" y="-469" font-family="Helvetica,sans-Serif" font-size="10.00">/JUTVideo.cpp</text>
</a>
</g>
</g>
<!-- Node1&#45;&gt;Node113 -->
<g id="edge68" class="edge">
<title>Node1&#45;&gt;Node113</title>
<path fill="none" stroke="#63b8ff" d="M4435.56,-519.81C4426.67,-510.64 4416.64,-500.28 4408.78,-492.16"/>
<polygon fill="#63b8ff" stroke="#63b8ff" points="4432.77,-521.96 4442.24,-526.71 4437.8,-517.09 4432.77,-521.96"/>
</g>
<!-- Node114 -->
<g id="node49" class="node">
<title>Node114</title>
<g id="a_node49"><a xlink:href="JUTXfb_8cpp.html" target="_top" xlink:title=" ">
<polygon fill="white" stroke="#666666" points="4572.06,-492 4466.06,-492 4466.06,-462 4572.06,-462 4572.06,-492"/>
<text text-anchor="start" x="4474.06" y="-480" font-family="Helvetica,sans-Serif" font-size="10.00">libs/JSystem/JUtility</text>
<text text-anchor="middle" x="4519.06" y="-469" font-family="Helvetica,sans-Serif" font-size="10.00">/JUTXfb.cpp</text>
</a>
</g>
</g>
<!-- Node1&#45;&gt;Node114 -->
<g id="edge69" class="edge">
<title>Node1&#45;&gt;Node114</title>
<path fill="none" stroke="#63b8ff" d="M4478.56,-519.81C4487.44,-510.64 4497.48,-500.28 4505.34,-492.16"/>
<polygon fill="#63b8ff" stroke="#63b8ff" points="4476.31,-517.09 4471.87,-526.71 4481.34,-521.96 4476.31,-517.09"/>
</g>
<!-- Node115 -->
<g id="node50" class="node">
<title>Node115</title>
<g id="a_node50"><a xlink:href="m__Do__Reset_8cpp.html" target="_top" xlink:title=" ">
<polygon fill="white" stroke="#666666" points="4726.06,-486.5 4590.06,-486.5 4590.06,-467.5 4726.06,-467.5 4726.06,-486.5"/>
<text text-anchor="middle" x="4658.06" y="-474.5" font-family="Helvetica,sans-Serif" font-size="10.00">src/m_Do/m_Do_Reset.cpp</text>
</a>
</g>
</g>
<!-- Node1&#45;&gt;Node115 -->
<g id="edge70" class="edge">
<title>Node1&#45;&gt;Node115</title>
<path fill="none" stroke="#63b8ff" d="M4513.33,-524.08C4551.31,-511.99 4599.82,-496.54 4629.91,-486.96"/>
<polygon fill="#63b8ff" stroke="#63b8ff" points="4512.32,-520.73 4503.86,-527.1 4514.45,-527.4 4512.32,-520.73"/>
</g>
<!-- Node3 -->
<g id="node3" class="node">
<title>Node3</title>
<g id="a_node3"><a xlink:href="m__Do__graphic_8h.html" target="_top" xlink:title=" ">
<polygon fill="white" stroke="#666666" points="4246.56,-420.5 4097.56,-420.5 4097.56,-401.5 4246.56,-401.5 4246.56,-420.5"/>
<text text-anchor="middle" x="4172.06" y="-408.5" font-family="Helvetica,sans-Serif" font-size="10.00">include/m_Do/m_Do_graphic.h</text>
</a>
</g>
</g>
<!-- Node2&#45;&gt;Node3 -->
<g id="edge2" class="edge">
<title>Node2&#45;&gt;Node3</title>
<path fill="none" stroke="#63b8ff" d="M4224.65,-454.6C4210.44,-443.1 4193.69,-429.52 4182.97,-420.84"/>
<polygon fill="#63b8ff" stroke="#63b8ff" points="4222.37,-457.27 4232.35,-460.84 4226.78,-451.83 4222.37,-457.27"/>
</g>
<!-- Node112 -->
<g id="node47" class="node">
<title>Node112</title>
<g id="a_node47"><a xlink:href="JFWDisplay_8cpp.html" target="_top" xlink:title=" ">
<polygon fill="white" stroke="#666666" points="4395.06,-426 4265.06,-426 4265.06,-396 4395.06,-396 4395.06,-426"/>
<text text-anchor="start" x="4273.06" y="-414" font-family="Helvetica,sans-Serif" font-size="10.00">libs/JSystem/JFramework</text>
<text text-anchor="middle" x="4330.06" y="-403" font-family="Helvetica,sans-Serif" font-size="10.00">/JFWDisplay.cpp</text>
</a>
</g>
</g>
<!-- Node2&#45;&gt;Node112 -->
<g id="edge67" class="edge">
<title>Node2&#45;&gt;Node112</title>
<path fill="none" stroke="#63b8ff" d="M4277.35,-454.7C4288.83,-445.4 4302,-434.73 4312.3,-426.39"/>
<polygon fill="#63b8ff" stroke="#63b8ff" points="4275.33,-451.83 4269.77,-460.84 4279.74,-457.27 4275.33,-451.83"/>
</g>
<!-- Node4 -->
<g id="node4" class="node">
<title>Node4</title>
<g id="a_node4"><a xlink:href="d__menu__window_8h.html" target="_top" xlink:title=" ">
<polygon fill="white" stroke="#666666" points="1297.06,-360 1177.06,-360 1177.06,-330 1297.06,-330 1297.06,-360"/>
<text text-anchor="start" x="1185.06" y="-348" font-family="Helvetica,sans-Serif" font-size="10.00">include/d/menu/d_menu</text>
<text text-anchor="middle" x="1237.06" y="-337" font-family="Helvetica,sans-Serif" font-size="10.00">_window.h</text>
</a>
</g>
</g>
<!-- Node3&#45;&gt;Node4 -->
<g id="edge3" class="edge">
<title>Node3&#45;&gt;Node4</title>
<path fill="none" stroke="#63b8ff" d="M4086,-408.12C3647.66,-398.57 1669.34,-355.43 1297.43,-347.32"/>
<polygon fill="#63b8ff" stroke="#63b8ff" points="4085.71,-411.62 4095.79,-408.34 4085.86,-404.62 4085.71,-411.62"/>
</g>
<!-- Node107 -->
<g id="node43" class="node">
<title>Node107</title>
<g id="a_node43"><a xlink:href="m__Do__graphic_8cpp.html" target="_top" xlink:title=" ">
<polygon fill="white" stroke="#666666" points="4040.06,-96 3898.06,-96 3898.06,-77 4040.06,-77 4040.06,-96"/>
<text text-anchor="middle" x="3969.06" y="-84" font-family="Helvetica,sans-Serif" font-size="10.00">src/m_Do/m_Do_graphic.cpp</text>
</a>
</g>
</g>
<!-- Node3&#45;&gt;Node107 -->
<g id="edge65" class="edge">
<title>Node3&#45;&gt;Node107</title>
<path fill="none" stroke="#63b8ff" d="M4160.49,-391.62C4122.4,-331.12 4001.84,-139.59 3974.58,-96.27"/>
<polygon fill="#63b8ff" stroke="#63b8ff" points="4157.32,-393.16 4165.61,-399.76 4163.24,-389.43 4157.32,-393.16"/>
</g>
<!-- Node109 -->
<g id="node44" class="node">
<title>Node109</title>
<g id="a_node44"><a xlink:href="m__Do__main_8cpp.html" target="_top" xlink:title=" ">
<polygon fill="white" stroke="#666666" points="4227.56,-96 4096.56,-96 4096.56,-77 4227.56,-77 4227.56,-96"/>
<text text-anchor="middle" x="4162.06" y="-84" font-family="Helvetica,sans-Serif" font-size="10.00">src/m_Do/m_Do_main.cpp</text>
</a>
</g>
</g>
<!-- Node3&#45;&gt;Node109 -->
<g id="edge66" class="edge">
<title>Node3&#45;&gt;Node109</title>
<path fill="none" stroke="#63b8ff" d="M4172.06,-389.74C4172.06,-364.17 4172.06,-318.82 4172.06,-280 4172.06,-280 4172.06,-280 4172.06,-217.5 4172.06,-171.78 4165.83,-117.27 4163.2,-96.31"/>
<polygon fill="#63b8ff" stroke="#63b8ff" points="4168.56,-389.66 4172.06,-399.66 4175.56,-389.66 4168.56,-389.66"/>
</g>
<!-- Node110 -->
<g id="node45" class="node">
<title>Node110</title>
<g id="a_node45"><a xlink:href="d__drawlist_8cpp.html" target="_top" xlink:title=" ">
<polygon fill="white" stroke="#666666" points="4304.06,-354.5 4200.06,-354.5 4200.06,-335.5 4304.06,-335.5 4304.06,-354.5"/>
<text text-anchor="middle" x="4252.06" y="-342.5" font-family="Helvetica,sans-Serif" font-size="10.00">src/d/d_drawlist.cpp</text>
</a>
</g>
</g>
<!-- Node3&#45;&gt;Node110 -->
<g id="edge63" class="edge">
<title>Node3&#45;&gt;Node110</title>
<path fill="none" stroke="#63b8ff" d="M4192.01,-394.04C4207.5,-381.64 4228.41,-364.92 4241.03,-354.82"/>
<polygon fill="#63b8ff" stroke="#63b8ff" points="4189.98,-391.18 4184.36,-400.16 4194.36,-396.64 4189.98,-391.18"/>
</g>
<!-- Node111 -->
<g id="node46" class="node">
<title>Node111</title>
<g id="a_node46"><a xlink:href="d__pane__class_8cpp.html" target="_top" xlink:title=" ">
<polygon fill="white" stroke="#666666" points="4465.56,-354.5 4322.56,-354.5 4322.56,-335.5 4465.56,-335.5 4465.56,-354.5"/>
<text text-anchor="middle" x="4394.06" y="-342.5" font-family="Helvetica,sans-Serif" font-size="10.00">src/d/pane/d_pane_class.cpp</text>
</a>
</g>
</g>
<!-- Node3&#45;&gt;Node111 -->
<g id="edge64" class="edge">
<title>Node3&#45;&gt;Node111</title>
<path fill="none" stroke="#63b8ff" d="M4213.97,-397.92C4257.39,-385.4 4324.22,-366.13 4363.09,-354.93"/>
<polygon fill="#63b8ff" stroke="#63b8ff" points="4213.02,-394.55 4204.38,-400.68 4214.96,-401.27 4213.02,-394.55"/>
</g>
<!-- Node5 -->
<g id="node5" class="node">
<title>Node5</title>
<g id="a_node5"><a xlink:href="d__meter2__info_8h.html" target="_top" xlink:title=" ">
<polygon fill="white" stroke="#666666" points="1300.56,-294 1173.56,-294 1173.56,-264 1300.56,-264 1300.56,-294"/>
<text text-anchor="start" x="1181.56" y="-282" font-family="Helvetica,sans-Serif" font-size="10.00">include/d/meter/d_meter2</text>
<text text-anchor="middle" x="1237.06" y="-271" font-family="Helvetica,sans-Serif" font-size="10.00">_info.h</text>
</a>
</g>
</g>
<!-- Node4&#45;&gt;Node5 -->
<g id="edge4" class="edge">
<title>Node4&#45;&gt;Node5</title>
<path fill="none" stroke="#63b8ff" d="M1230.43,-318.39C1230.11,-310.13 1230.42,-301.28 1231.34,-294.16"/>
<polygon fill="#63b8ff" stroke="#63b8ff" points="1226.93,-318.6 1231.22,-328.29 1233.91,-318.04 1226.93,-318.6"/>
</g>
<!-- Node48 -->
<g id="node23" class="node">
<title>Node48</title>
<g id="a_node23"><a xlink:href="d__menu__window_8cpp.html" target="_top" xlink:title=" ">
<polygon fill="white" stroke="#666666" points="573.56,-24.5 414.56,-24.5 414.56,-5.5 573.56,-5.5 573.56,-24.5"/>
<text text-anchor="middle" x="494.06" y="-12.5" font-family="Helvetica,sans-Serif" font-size="10.00">src/d/menu/d_menu_window.cpp</text>
</a>
</g>
</g>
<!-- Node4&#45;&gt;Node48 -->
<g id="edge61" class="edge">
<title>Node4&#45;&gt;Node48</title>
<path fill="none" stroke="#63b8ff" d="M1165.29,-344.12C906.73,-343.63 38.06,-333.51 38.06,-219.5 38.06,-219.5 38.06,-219.5 38.06,-157 38.06,-115.68 26.38,-93.68 57.06,-66 114.78,-13.92 327.96,-40.04 405.06,-30 416.38,-28.52 428.48,-26.75 440,-24.97"/>
<polygon fill="#63b8ff" stroke="#63b8ff" points="1165.26,-347.62 1175.26,-344.14 1165.27,-340.62 1165.26,-347.62"/>
</g>
<!-- Node49 -->
<g id="node24" class="node">
<title>Node49</title>
<g id="a_node24"><a xlink:href="d__meter__map_8cpp.html" target="_top" xlink:title=" ">
<polygon fill="white" stroke="#666666" points="396.06,-30 292.06,-30 292.06,0 396.06,0 396.06,-30"/>
<text text-anchor="start" x="300.06" y="-18" font-family="Helvetica,sans-Serif" font-size="10.00">src/d/meter/d_meter</text>
<text text-anchor="middle" x="344.06" y="-7" font-family="Helvetica,sans-Serif" font-size="10.00">_map.cpp</text>
</a>
</g>
</g>
<!-- Node4&#45;&gt;Node49 -->
<g id="edge62" class="edge">
<title>Node4&#45;&gt;Node49</title>
<path fill="none" stroke="#63b8ff" d="M1165.25,-343.33C930.93,-340.82 197.93,-330.11 98.06,-294 46.6,-275.4 0.06,-274.21 0.06,-219.5 0.06,-219.5 0.06,-219.5 0.06,-157 0.06,-114.13 -0.85,-93.48 32.06,-66 70.58,-33.83 213.46,-22.1 291.81,-18.03"/>
<polygon fill="#63b8ff" stroke="#63b8ff" points="1165.13,-346.83 1175.17,-343.44 1165.21,-339.83 1165.13,-346.83"/>
</g>
<!-- Node5&#45;&gt;Node4 -->
<g id="edge56" class="edge">
<title>Node5&#45;&gt;Node4</title>
<path fill="none" stroke="#63b8ff" d="M1243.68,-305.56C1244,-313.82 1243.7,-322.67 1242.78,-329.8"/>
<polygon fill="#63b8ff" stroke="#63b8ff" points="1247.18,-305.36 1242.89,-295.67 1240.2,-305.92 1247.18,-305.36"/>
</g>
<!-- Node6 -->
<g id="node6" class="node">
<title>Node6</title>
<g id="a_node6"><a xlink:href="d__a__alink_8h.html" target="_top" xlink:title=" ">
<polygon fill="white" stroke="#666666" points="1295.06,-228 1179.06,-228 1179.06,-209 1295.06,-209 1295.06,-228"/>
<text text-anchor="middle" x="1237.06" y="-216" font-family="Helvetica,sans-Serif" font-size="10.00">include/d/a/d_a_alink.h</text>
</a>
</g>
</g>
<!-- Node5&#45;&gt;Node6 -->
<g id="edge5" class="edge">
<title>Node5&#45;&gt;Node6</title>
<path fill="none" stroke="#63b8ff" d="M1237.06,-252.3C1237.06,-243.65 1237.06,-234.58 1237.06,-228.18"/>
<polygon fill="#63b8ff" stroke="#63b8ff" points="1233.56,-252.03 1237.06,-262.03 1240.56,-252.03 1233.56,-252.03"/>
</g>
<!-- Node13 -->
<g id="node9" class="node">
<title>Node13</title>
<g id="a_node9"><a xlink:href="d__meter2__info_8cpp.html" target="_top" xlink:title=" ">
<polygon fill="white" stroke="#666666" points="3250.06,-30 3140.06,-30 3140.06,0 3250.06,0 3250.06,-30"/>
<text text-anchor="start" x="3148.06" y="-18" font-family="Helvetica,sans-Serif" font-size="10.00">src/d/meter/d_meter2</text>
<text text-anchor="middle" x="3195.06" y="-7" font-family="Helvetica,sans-Serif" font-size="10.00">_info.cpp</text>
</a>
</g>
</g>
<!-- Node5&#45;&gt;Node13 -->
<g id="edge59" class="edge">
<title>Node5&#45;&gt;Node13</title>
<path fill="none" stroke="#63b8ff" d="M1312.43,-275.54C1713.09,-262.13 3577.96,-195.09 3660.06,-107 3672.48,-93.67 3672.23,-79.56 3660.06,-66 3633.1,-35.99 3367.72,-22.44 3250.38,-17.88"/>
<polygon fill="#63b8ff" stroke="#63b8ff" points="1312.4,-272.04 1302.52,-275.87 1312.63,-279.04 1312.4,-272.04"/>
</g>
<!-- Node22 -->
<g id="node14" class="node">
<title>Node22</title>
<g id="a_node14"><a xlink:href="d__com__inf__game_8cpp.html" target="_top" xlink:title=" ">
<polygon fill="white" stroke="#666666" points="3924.06,-30 3816.06,-30 3816.06,0 3924.06,0 3924.06,-30"/>
<text text-anchor="start" x="3824.06" y="-18" font-family="Helvetica,sans-Serif" font-size="10.00">src/d/com/d_com_inf</text>
<text text-anchor="middle" x="3870.06" y="-7" font-family="Helvetica,sans-Serif" font-size="10.00">_game.cpp</text>
</a>
</g>
</g>
<!-- Node5&#45;&gt;Node22 -->
<g id="edge57" class="edge">
<title>Node5&#45;&gt;Node22</title>
<path fill="none" stroke="#63b8ff" d="M1312.12,-276.18C1520.56,-270.93 2124.05,-254.43 2625.06,-228 2942.2,-211.27 3836.45,-342.92 4049.06,-107 4061.26,-93.46 4060.07,-80.52 4049.06,-66 4033.89,-46.02 3971.1,-31.86 3924.15,-23.83"/>
<polygon fill="#63b8ff" stroke="#63b8ff" points="1312.15,-272.68 1302.24,-276.43 1312.33,-279.67 1312.15,-272.68"/>
</g>
<!-- Node23 -->
<g id="node15" class="node">
<title>Node23</title>
<g id="a_node15"><a xlink:href="d__item_8cpp.html" target="_top" xlink:title=" ">
<polygon fill="white" stroke="#666666" points="4165.56,-24.5 4076.56,-24.5 4076.56,-5.5 4165.56,-5.5 4165.56,-24.5"/>
<text text-anchor="middle" x="4121.06" y="-12.5" font-family="Helvetica,sans-Serif" font-size="10.00">src/d/d_item.cpp</text>
</a>
</g>
</g>
<!-- Node5&#45;&gt;Node23 -->
<g id="edge58" class="edge">
<title>Node5&#45;&gt;Node23</title>
<path fill="none" stroke="#63b8ff" d="M1312.3,-277.83C1698.3,-276.54 3458.85,-265.62 3996.06,-173 4105.07,-154.2 4169,-194.99 4236.06,-107 4247.1,-92.51 4246.05,-81.24 4236.06,-66 4220.54,-42.33 4191.13,-29.81 4165.93,-23.21"/>
<polygon fill="#63b8ff" stroke="#63b8ff" points="1312.52,-274.33 1302.53,-277.86 1312.54,-281.33 1312.52,-274.33"/>
</g>
<!-- Node100 -->
<g id="node42" class="node">
<title>Node100</title>
<g id="a_node42"><a xlink:href="d__save_8cpp.html" target="_top" xlink:title=" ">
<polygon fill="white" stroke="#666666" points="181.56,-96 66.56,-96 66.56,-77 181.56,-77 181.56,-96"/>
<text text-anchor="middle" x="124.06" y="-84" font-family="Helvetica,sans-Serif" font-size="10.00">src/d/save/d_save.cpp</text>
</a>
</g>
</g>
<!-- Node5&#45;&gt;Node100 -->
<g id="edge60" class="edge">
<title>Node5&#45;&gt;Node100</title>
<path fill="none" stroke="#63b8ff" d="M1162.12,-273.29C1058.88,-266.27 867.24,-251.32 705.06,-228 578.23,-209.76 546.66,-202.85 422.06,-173 321.82,-148.99 204.79,-113.06 152.19,-96.47"/>
<polygon fill="#63b8ff" stroke="#63b8ff" points="1161.63,-276.76 1171.84,-273.94 1162.1,-269.78 1161.63,-276.76"/>
</g>
<!-- Node7 -->
<g id="node7" class="node">
<title>Node7</title>
<g id="a_node7"><a xlink:href="d__com__inf__game_8h.html" target="_top" xlink:title=" ">
<polygon fill="#fff0f0" stroke="red" points="2147.06,-173 2037.06,-173 2037.06,-143 2147.06,-143 2147.06,-173"/>
<text text-anchor="start" x="2045.06" y="-161" font-family="Helvetica,sans-Serif" font-size="10.00">include/d/com/d_com</text>
<text text-anchor="middle" x="2092.06" y="-150" font-family="Helvetica,sans-Serif" font-size="10.00">_inf_game.h</text>
</a>
</g>
</g>
<!-- Node6&#45;&gt;Node7 -->
<g id="edge6" class="edge">
<title>Node6&#45;&gt;Node7</title>
<path fill="none" stroke="#63b8ff" d="M1306.49,-212.75C1471.9,-201.43 1886.63,-173.06 2036.73,-162.79"/>
<polygon fill="#63b8ff" stroke="#63b8ff" points="1306.74,-209.22 1297,-213.4 1307.21,-216.21 1306.74,-209.22"/>
</g>
<!-- Node17 -->
<g id="node12" class="node">
<title>Node17</title>
<g id="a_node12"><a xlink:href="d__a__alink_8cpp.html" target="_top" xlink:title=" ">
<polygon fill="white" stroke="#666666" points="1547.56,-24.5 1438.56,-24.5 1438.56,-5.5 1547.56,-5.5 1547.56,-24.5"/>
<text text-anchor="middle" x="1493.06" y="-12.5" font-family="Helvetica,sans-Serif" font-size="10.00">src/d/a/d_a_alink.cpp</text>
</a>
</g>
</g>
<!-- Node6&#45;&gt;Node17 -->
<g id="edge55" class="edge">
<title>Node6&#45;&gt;Node17</title>
<path fill="none" stroke="#63b8ff" d="M1167.25,-215.01C957.95,-206.32 356.13,-171.92 457.06,-66 491.16,-30.21 1229.25,-19.03 1438.32,-16.57"/>
<polygon fill="#63b8ff" stroke="#63b8ff" points="1167.05,-218.5 1177.18,-215.41 1167.33,-211.51 1167.05,-218.5"/>
</g>
<!-- Node8 -->
<g id="node8" class="node">
<title>Node8</title>
<g id="a_node8"><a xlink:href="d__a__npc_8h.html" target="_top" xlink:title=" ">
<polygon fill="#fff0f0" stroke="red" points="3292.56,-96 3181.56,-96 3181.56,-77 3292.56,-77 3292.56,-96"/>
<text text-anchor="middle" x="3237.06" y="-84" font-family="Helvetica,sans-Serif" font-size="10.00">include/d/a/d_a_npc.h</text>
</a>
</g>
</g>
<!-- Node7&#45;&gt;Node8 -->
<g id="edge7" class="edge">
<title>Node7&#45;&gt;Node8</title>
<path fill="none" stroke="#63b8ff" d="M2158.7,-155.86C2361.86,-152.09 2971.39,-138.39 3167.06,-107 3181.63,-104.66 3197.5,-100.39 3210.45,-96.44"/>
<polygon fill="#63b8ff" stroke="#63b8ff" points="2158.78,-152.36 2148.85,-156.04 2158.91,-159.36 2158.78,-152.36"/>
</g>
<!-- Node7&#45;&gt;Node13 -->
<g id="edge50" class="edge">
<title>Node7&#45;&gt;Node13</title>
<path fill="none" stroke="#63b8ff" d="M2158.8,-157.22C2375.2,-157.47 3048.42,-154.38 3133.06,-107 3148.65,-98.27 3174.55,-53.74 3187.37,-30.37"/>
<polygon fill="#63b8ff" stroke="#63b8ff" points="2158.84,-153.72 2148.83,-157.21 2158.83,-160.72 2158.84,-153.72"/>
</g>
<!-- Node14 -->
<g id="node10" class="node">
<title>Node14</title>
<g id="a_node10"><a xlink:href="d__cc__uty_8h.html" target="_top" xlink:title=" ">
<polygon fill="#fff0f0" stroke="red" points="3124.56,-96 3005.56,-96 3005.56,-77 3124.56,-77 3124.56,-96"/>
<text text-anchor="middle" x="3065.06" y="-84" font-family="Helvetica,sans-Serif" font-size="10.00">include/d/cc/d_cc_uty.h</text>
</a>
</g>
</g>
<!-- Node7&#45;&gt;Node14 -->
<g id="edge9" class="edge">
<title>Node7&#45;&gt;Node14</title>
<path fill="none" stroke="#63b8ff" d="M2158.89,-155.04C2338.83,-149.47 2830.72,-132.32 2991.06,-107 3006.28,-104.6 3022.9,-100.37 3036.53,-96.46"/>
<polygon fill="#63b8ff" stroke="#63b8ff" points="2158.89,-151.53 2149.01,-155.34 2159.11,-158.53 2158.89,-151.53"/>
</g>
<!-- Node20 -->
<g id="node11" class="node">
<title>Node20</title>
<g id="a_node11"><a xlink:href="d__item_8h.html" target="_top" xlink:title=" ">
<polygon fill="#fff0f0" stroke="red" points="3841.56,-96 3746.56,-96 3746.56,-77 3841.56,-77 3841.56,-96"/>
<text text-anchor="middle" x="3794.06" y="-84" font-family="Helvetica,sans-Serif" font-size="10.00">include/d/d_item.h</text>
</a>
</g>
</g>
<!-- Node7&#45;&gt;Node20 -->
<g id="edge10" class="edge">
<title>Node7&#45;&gt;Node20</title>
<path fill="none" stroke="#63b8ff" d="M2158.44,-156.36C2421.25,-153.59 3389.23,-141.25 3694.06,-107 3714.62,-104.69 3737.28,-100.42 3755.82,-96.46"/>
<polygon fill="#63b8ff" stroke="#63b8ff" points="2158.67,-152.85 2148.71,-156.46 2158.74,-159.85 2158.67,-152.85"/>
</g>
<!-- Node7&#45;&gt;Node17 -->
<g id="edge38" class="edge">
<title>Node7&#45;&gt;Node17</title>
<path fill="none" stroke="#63b8ff" d="M2025.49,-155.66C1881.25,-152.14 1549.79,-140.46 1512.06,-107 1488.27,-85.9 1489.84,-43.39 1491.83,-24.91"/>
<polygon fill="#63b8ff" stroke="#63b8ff" points="2025.19,-159.15 2035.27,-155.89 2025.36,-152.16 2025.19,-159.15"/>
</g>
<!-- Node21 -->
<g id="node13" class="node">
<title>Node21</title>
<g id="a_node13"><a xlink:href="d__a__obj__item_8cpp.html" target="_top" xlink:title=" ">
<polygon fill="white" stroke="#666666" points="3769.56,-24.5 3644.56,-24.5 3644.56,-5.5 3769.56,-5.5 3769.56,-24.5"/>
<text text-anchor="middle" x="3707.06" y="-12.5" font-family="Helvetica,sans-Serif" font-size="10.00">src/d/a/d_a_obj_item.cpp</text>
</a>
</g>
</g>
<!-- Node7&#45;&gt;Node21 -->
<g id="edge41" class="edge">
<title>Node7&#45;&gt;Node21</title>
<path fill="none" stroke="#63b8ff" d="M2158.29,-156.75C2448.43,-155.42 3595.7,-147.61 3660.06,-107 3689.98,-88.12 3701.78,-43.6 3705.55,-24.72"/>
<polygon fill="#63b8ff" stroke="#63b8ff" points="2158.62,-153.25 2148.64,-156.79 2158.65,-160.25 2158.62,-153.25"/>
</g>
<!-- Node7&#45;&gt;Node22 -->
<g id="edge47" class="edge">
<title>Node7&#45;&gt;Node22</title>
<path fill="none" stroke="#63b8ff" d="M2158.3,-157.38C2470.63,-158.87 3783.77,-161.87 3850.06,-107 3872.49,-88.43 3873.26,-50.99 3871.75,-30.39"/>
<polygon fill="#63b8ff" stroke="#63b8ff" points="2158.71,-153.88 2148.7,-157.33 2158.68,-160.88 2158.71,-153.88"/>
</g>
<!-- Node25 -->
<g id="node16" class="node">
<title>Node25</title>
<g id="a_node16"><a xlink:href="d__kantera__icon__meter_8h.html" target="_top" xlink:title=" ">
<polygon fill="#fff0f0" stroke="red" points="3411.56,-101.5 3310.56,-101.5 3310.56,-71.5 3411.56,-71.5 3411.56,-101.5"/>
<text text-anchor="start" x="3318.56" y="-89.5" font-family="Helvetica,sans-Serif" font-size="10.00">include/d/d_kantera</text>
<text text-anchor="middle" x="3361.06" y="-78.5" font-family="Helvetica,sans-Serif" font-size="10.00">_icon_meter.h</text>
</a>
</g>
</g>
<!-- Node7&#45;&gt;Node25 -->
<g id="edge15" class="edge">
<title>Node7&#45;&gt;Node25</title>
<path fill="none" stroke="#63b8ff" d="M2158.72,-156.63C2378.53,-155.04 3079.01,-146.9 3301.06,-107 3307.85,-105.78 3314.93,-103.98 3321.75,-101.96"/>
<polygon fill="#63b8ff" stroke="#63b8ff" points="2158.88,-153.13 2148.9,-156.7 2158.93,-160.13 2158.88,-153.13"/>
</g>
<!-- Node28 -->
<g id="node17" class="node">
<title>Node28</title>
<g id="a_node17"><a xlink:href="d__model_8h.html" target="_top" xlink:title=" ">
<polygon fill="#fff0f0" stroke="red" points="3532.56,-96 3429.56,-96 3429.56,-77 3532.56,-77 3532.56,-96"/>
<text text-anchor="middle" x="3481.06" y="-84" font-family="Helvetica,sans-Serif" font-size="10.00">include/d/d_model.h</text>
</a>
</g>
</g>
<!-- Node7&#45;&gt;Node28 -->
<g id="edge16" class="edge">
<title>Node7&#45;&gt;Node28</title>
<path fill="none" stroke="#63b8ff" d="M2158.88,-156.88C2392.78,-156.08 3173.81,-150.16 3420.06,-107 3432.98,-104.73 3446.95,-100.41 3458.26,-96.42"/>
<polygon fill="#63b8ff" stroke="#63b8ff" points="2159.01,-153.38 2149.02,-156.91 2159.03,-160.38 2159.01,-153.38"/>
</g>
<!-- Node30 -->
<g id="node18" class="node">
<title>Node30</title>
<g id="a_node18"><a xlink:href="d__name_8h.html" target="_top" xlink:title=" ">
<polygon fill="#fff0f0" stroke="red" points="3651.56,-96 3550.56,-96 3550.56,-77 3651.56,-77 3651.56,-96"/>
<text text-anchor="middle" x="3601.06" y="-84" font-family="Helvetica,sans-Serif" font-size="10.00">include/d/d_name.h</text>
</a>
</g>
</g>
<!-- Node7&#45;&gt;Node30 -->
<g id="edge17" class="edge">
<title>Node7&#45;&gt;Node30</title>
<path fill="none" stroke="#63b8ff" d="M2158.68,-157.17C2405.89,-157.4 3270.19,-154.71 3541.06,-107 3553.79,-104.76 3567.53,-100.44 3578.64,-96.44"/>
<polygon fill="#63b8ff" stroke="#63b8ff" points="2158.9,-153.67 2148.9,-157.16 2158.89,-160.67 2158.9,-153.67"/>
</g>
<!-- Node32 -->
<g id="node19" class="node">
<title>Node32</title>
<g id="a_node19"><a xlink:href="d__file__sel__info_8h.html" target="_top" xlink:title=" ">
<polygon fill="#fff0f0" stroke="red" points="562.06,-101.5 466.06,-101.5 466.06,-71.5 562.06,-71.5 562.06,-101.5"/>
<text text-anchor="start" x="474.06" y="-89.5" font-family="Helvetica,sans-Serif" font-size="10.00">include/d/file/d_file</text>
<text text-anchor="middle" x="514.06" y="-78.5" font-family="Helvetica,sans-Serif" font-size="10.00">_sel_info.h</text>
</a>
</g>
</g>
<!-- Node7&#45;&gt;Node32 -->
<g id="edge18" class="edge">
<title>Node7&#45;&gt;Node32</title>
<path fill="none" stroke="#63b8ff" d="M2025.51,-157.43C1770.6,-158.66 856.27,-159.27 571.06,-107 564.47,-105.79 557.62,-103.97 551.04,-101.92"/>
<polygon fill="#63b8ff" stroke="#63b8ff" points="2025.3,-160.93 2035.28,-157.38 2025.26,-153.93 2025.3,-160.93"/>
</g>
<!-- Node35 -->
<g id="node20" class="node">
<title>Node35</title>
<g id="a_node20"><a xlink:href="d__file__sel__warning_8h.html" target="_top" xlink:title=" ">
<polygon fill="#fff0f0" stroke="red" points="676.06,-101.5 580.06,-101.5 580.06,-71.5 676.06,-71.5 676.06,-101.5"/>
<text text-anchor="start" x="588.06" y="-89.5" font-family="Helvetica,sans-Serif" font-size="10.00">include/d/file/d_file</text>
<text text-anchor="middle" x="628.06" y="-78.5" font-family="Helvetica,sans-Serif" font-size="10.00">_sel_warning.h</text>
</a>
</g>
</g>
<!-- Node7&#45;&gt;Node35 -->
<g id="edge19" class="edge">
<title>Node7&#45;&gt;Node35</title>
<path fill="none" stroke="#63b8ff" d="M2025.34,-157.22C1782.6,-157.62 946.97,-155.36 685.06,-107 678.58,-105.8 671.83,-104.02 665.35,-102"/>
<polygon fill="#63b8ff" stroke="#63b8ff" points="2025.28,-160.72 2035.27,-157.2 2025.27,-153.72 2025.28,-160.72"/>
</g>
<!-- Node37 -->
<g id="node21" class="node">
<title>Node37</title>
<g id="a_node21"><a xlink:href="d__meter2_8h.html" target="_top" xlink:title=" ">
<polygon fill="#fff0f0" stroke="red" points="334.06,-96 200.06,-96 200.06,-77 334.06,-77 334.06,-96"/>
<text text-anchor="middle" x="267.06" y="-84" font-family="Helvetica,sans-Serif" font-size="10.00">include/d/meter/d_meter2.h</text>
</a>
</g>
</g>
<!-- Node7&#45;&gt;Node37 -->
<g id="edge20" class="edge">
<title>Node7&#45;&gt;Node37</title>
<path fill="none" stroke="#63b8ff" d="M2025.5,-156.23C1751.9,-152.91 712.81,-138.42 386.06,-107 361.78,-104.67 334.95,-100.42 312.93,-96.48"/>
<polygon fill="#63b8ff" stroke="#63b8ff" points="2025.26,-159.73 2035.3,-156.35 2025.35,-152.73 2025.26,-159.73"/>
</g>
<!-- Node39 -->
<g id="node22" class="node">
<title>Node39</title>
<g id="a_node22"><a xlink:href="d__msg__object_8h.html" target="_top" xlink:title=" ">
<polygon fill="#fff0f0" stroke="red" points="804.06,-101.5 694.06,-101.5 694.06,-71.5 804.06,-71.5 804.06,-101.5"/>
<text text-anchor="start" x="702.06" y="-89.5" font-family="Helvetica,sans-Serif" font-size="10.00">include/d/msg/d_msg</text>
<text text-anchor="middle" x="749.06" y="-78.5" font-family="Helvetica,sans-Serif" font-size="10.00">_object.h</text>
</a>
</g>
</g>
<!-- Node7&#45;&gt;Node39 -->
<g id="edge22" class="edge">
<title>Node7&#45;&gt;Node39</title>
<path fill="none" stroke="#63b8ff" d="M2025.45,-156.65C1797.51,-155.09 1049.69,-146.99 813.06,-107 805.84,-105.78 798.3,-103.98 791.03,-101.96"/>
<polygon fill="#63b8ff" stroke="#63b8ff" points="2025.33,-160.15 2035.35,-156.71 2025.38,-153.15 2025.33,-160.15"/>
</g>
<!-- Node7&#45;&gt;Node48 -->
<g id="edge49" class="edge">
<title>Node7&#45;&gt;Node48</title>
<path fill="none" stroke="#63b8ff" d="M2025.6,-156.22C1722.51,-152.51 484.81,-135.62 457.06,-107 433.9,-83.13 467.49,-42.82 484.81,-24.97"/>
<polygon fill="#63b8ff" stroke="#63b8ff" points="2025.27,-159.72 2035.31,-156.34 2025.35,-152.72 2025.27,-159.72"/>
</g>
<!-- Node7&#45;&gt;Node49 -->
<g id="edge51" class="edge">
<title>Node7&#45;&gt;Node49</title>
<path fill="none" stroke="#63b8ff" d="M2025.34,-156.25C1726.27,-152.71 520.46,-136.67 446.06,-107 405.94,-91 371.31,-51.76 354.64,-30.41"/>
<polygon fill="#63b8ff" stroke="#63b8ff" points="2025.28,-159.75 2035.32,-156.36 2025.36,-152.75 2025.28,-159.75"/>
</g>
<!-- Node55 -->
<g id="node25" class="node">
<title>Node55</title>
<g id="a_node25"><a xlink:href="d__s__logo_8h.html" target="_top" xlink:title=" ">
<polygon fill="#fff0f0" stroke="red" points="935.56,-96 822.56,-96 822.56,-77 935.56,-77 935.56,-96"/>
<text text-anchor="middle" x="879.06" y="-84" font-family="Helvetica,sans-Serif" font-size="10.00">include/d/s/d_s_logo.h</text>
</a>
</g>
</g>
<!-- Node7&#45;&gt;Node55 -->
<g id="edge27" class="edge">
<title>Node7&#45;&gt;Node55</title>
<path fill="none" stroke="#63b8ff" d="M2025.58,-156.27C1813.44,-153.58 1154.23,-142.53 944.06,-107 930.47,-104.7 915.72,-100.43 903.71,-96.47"/>
<polygon fill="#63b8ff" stroke="#63b8ff" points="2025.27,-159.76 2035.32,-156.39 2025.36,-152.76 2025.27,-159.76"/>
</g>
<!-- Node57 -->
<g id="node26" class="node">
<title>Node57</title>
<g id="a_node26"><a xlink:href="d__s__play_8h.html" target="_top" xlink:title=" ">
<polygon fill="#fff0f0" stroke="red" points="1066.56,-96 953.56,-96 953.56,-77 1066.56,-77 1066.56,-96"/>
<text text-anchor="middle" x="1010.06" y="-84" font-family="Helvetica,sans-Serif" font-size="10.00">include/d/s/d_s_play.h</text>
</a>
</g>
</g>
<!-- Node7&#45;&gt;Node57 -->
<g id="edge28" class="edge">
<title>Node7&#45;&gt;Node57</title>
<path fill="none" stroke="#63b8ff" d="M2025.31,-155.83C1829.48,-152.05 1258.68,-138.58 1075.06,-107 1061.47,-104.66 1046.73,-100.39 1034.72,-96.44"/>
<polygon fill="#63b8ff" stroke="#63b8ff" points="2024.99,-159.32 2035.05,-156.01 2025.12,-152.32 2024.99,-159.32"/>
</g>
<!-- Node61 -->
<g id="node27" class="node">
<title>Node61</title>
<g id="a_node27"><a xlink:href="d__msg__scrn__base_8h.html" target="_top" xlink:title=" ">
<polygon fill="#fff0f0" stroke="red" points="1183.56,-101.5 1084.56,-101.5 1084.56,-71.5 1183.56,-71.5 1183.56,-101.5"/>
<text text-anchor="start" x="1092.56" y="-89.5" font-family="Helvetica,sans-Serif" font-size="10.00">include/msg/scrn/d</text>
<text text-anchor="middle" x="1134.06" y="-78.5" font-family="Helvetica,sans-Serif" font-size="10.00">_msg_scrn_base.h</text>
</a>
</g>
</g>
<!-- Node7&#45;&gt;Node61 -->
<g id="edge29" class="edge">
<title>Node7&#45;&gt;Node61</title>
<path fill="none" stroke="#63b8ff" d="M2025.37,-155.61C1845.24,-151.5 1351.74,-137.7 1192.06,-107 1185.59,-105.76 1178.85,-103.97 1172.36,-101.98"/>
<polygon fill="#63b8ff" stroke="#63b8ff" points="2025.18,-159.11 2035.26,-155.84 2025.34,-152.11 2025.18,-159.11"/>
</g>
<!-- Node65 -->
<g id="node28" class="node">
<title>Node65</title>
<g id="a_node28"><a xlink:href="d__a__b__zant_8h.html" target="_top" xlink:title=" ">
<polygon fill="white" stroke="#666666" points="1322.56,-101.5 1201.56,-101.5 1201.56,-71.5 1322.56,-71.5 1322.56,-101.5"/>
<text text-anchor="start" x="1209.56" y="-89.5" font-family="Helvetica,sans-Serif" font-size="10.00">include/rel/d/a/b/d</text>
<text text-anchor="middle" x="1262.06" y="-78.5" font-family="Helvetica,sans-Serif" font-size="10.00">_a_b_zant/d_a_b_zant.h</text>
</a>
</g>
</g>
<!-- Node7&#45;&gt;Node65 -->
<g id="edge30" class="edge">
<title>Node7&#45;&gt;Node65</title>
<path fill="none" stroke="#63b8ff" d="M2025.6,-157.21C1892.83,-156.61 1585.7,-150.2 1332.06,-107 1324.47,-105.71 1316.53,-103.92 1308.82,-101.96"/>
<polygon fill="#63b8ff" stroke="#63b8ff" points="2025.24,-160.7 2035.25,-157.24 2025.26,-153.7 2025.24,-160.7"/>
</g>
<!-- Node66 -->
<g id="node29" class="node">
<title>Node66</title>
<g id="a_node29"><a xlink:href="d__a__skip__2D_8h.html" target="_top" xlink:title=" ">
<polygon fill="white" stroke="#666666" points="1465.06,-101.5 1341.06,-101.5 1341.06,-71.5 1465.06,-71.5 1465.06,-101.5"/>
<text text-anchor="start" x="1349.06" y="-89.5" font-family="Helvetica,sans-Serif" font-size="10.00">include/rel/d/a/d_a</text>
<text text-anchor="middle" x="1403.06" y="-78.5" font-family="Helvetica,sans-Serif" font-size="10.00">_skip_2D/d_a_skip_2D.h</text>
</a>
</g>
</g>
<!-- Node7&#45;&gt;Node66 -->
<g id="edge31" class="edge">
<title>Node7&#45;&gt;Node66</title>
<path fill="none" stroke="#63b8ff" d="M2025.52,-155.27C1912.49,-151.5 1676.06,-140.06 1479.06,-107 1471,-105.65 1462.54,-103.86 1454.31,-101.91"/>
<polygon fill="#63b8ff" stroke="#63b8ff" points="2025.1,-158.76 2035.21,-155.58 2025.33,-151.76 2025.1,-158.76"/>
</g>
<!-- Node67 -->
<g id="node30" class="node">
<title>Node67</title>
<g id="a_node30"><a xlink:href="d__a__spinner_8h.html" target="_top" xlink:title=" ">
<polygon fill="white" stroke="#666666" points="2949.06,-101.5 2833.06,-101.5 2833.06,-71.5 2949.06,-71.5 2949.06,-101.5"/>
<text text-anchor="start" x="2841.06" y="-89.5" font-family="Helvetica,sans-Serif" font-size="10.00">include/rel/d/a/d_a</text>
<text text-anchor="middle" x="2891.06" y="-78.5" font-family="Helvetica,sans-Serif" font-size="10.00">_spinner/d_a_spinner.h</text>
</a>
</g>
</g>
<!-- Node7&#45;&gt;Node67 -->
<g id="edge32" class="edge">
<title>Node7&#45;&gt;Node67</title>
<path fill="none" stroke="#63b8ff" d="M2158.42,-157.22C2287.62,-156.6 2581.48,-150.07 2824.06,-107 2831.33,-105.71 2838.95,-103.92 2846.32,-101.96"/>
<polygon fill="#63b8ff" stroke="#63b8ff" points="2158.68,-153.72 2148.7,-157.25 2158.71,-160.72 2158.68,-153.72"/>
</g>
<!-- Node68 -->
<g id="node31" class="node">
<title>Node68</title>
<g id="a_node31"><a xlink:href="d__a__player_8cpp.html" target="_top" xlink:title=" ">
<polygon fill="white" stroke="#666666" points="2991.06,-24.5 2877.06,-24.5 2877.06,-5.5 2991.06,-5.5 2991.06,-24.5"/>
<text text-anchor="middle" x="2934.06" y="-12.5" font-family="Helvetica,sans-Serif" font-size="10.00">src/d/a/d_a_player.cpp</text>
</a>
</g>
</g>
<!-- Node7&#45;&gt;Node68 -->
<g id="edge42" class="edge">
<title>Node7&#45;&gt;Node68</title>
<path fill="none" stroke="#63b8ff" d="M2158.88,-155.62C2357.26,-151.2 2930.72,-135.96 2958.06,-107 2980.04,-83.71 2954.29,-42.74 2941.02,-24.82"/>
<polygon fill="#63b8ff" stroke="#63b8ff" points="2158.91,-152.12 2148.99,-155.84 2159.07,-159.12 2158.91,-152.12"/>
</g>
<!-- Node69 -->
<g id="node32" class="node">
<title>Node69</title>
<g id="a_node32"><a xlink:href="d__a__obj__yobikusa_8h.html" target="_top" xlink:title=" ">
<polygon fill="white" stroke="#666666" points="1626.56,-107 1521.56,-107 1521.56,-66 1626.56,-66 1626.56,-107"/>
<text text-anchor="start" x="1529.56" y="-95" font-family="Helvetica,sans-Serif" font-size="10.00">include/rel/d/a/obj</text>
<text text-anchor="start" x="1529.56" y="-84" font-family="Helvetica,sans-Serif" font-size="10.00">/d_a_obj_yobikusa/d</text>
<text text-anchor="middle" x="1574.06" y="-73" font-family="Helvetica,sans-Serif" font-size="10.00">_a_obj_yobikusa.h</text>
</a>
</g>
</g>
<!-- Node7&#45;&gt;Node69 -->
<g id="edge35" class="edge">
<title>Node7&#45;&gt;Node69</title>
<path fill="none" stroke="#63b8ff" d="M2025.44,-153.78C1936.05,-148.53 1772.7,-135.69 1636.06,-107 1633.08,-106.37 1630.03,-105.66 1626.98,-104.89"/>
<polygon fill="#63b8ff" stroke="#63b8ff" points="2025.07,-157.26 2035.25,-154.34 2025.46,-150.28 2025.07,-157.26"/>
</g>
<!-- Node70 -->
<g id="node33" class="node">
<title>Node70</title>
<g id="a_node33"><a xlink:href="d__a__tag__telop_8h.html" target="_top" xlink:title=" ">
<polygon fill="white" stroke="#666666" points="1763.06,-107 1645.06,-107 1645.06,-66 1763.06,-66 1763.06,-107"/>
<text text-anchor="start" x="1653.06" y="-95" font-family="Helvetica,sans-Serif" font-size="10.00">include/rel/d/a/tag</text>
<text text-anchor="start" x="1653.06" y="-84" font-family="Helvetica,sans-Serif" font-size="10.00">/d_a_tag_telop/d_a_tag</text>
<text text-anchor="middle" x="1704.06" y="-73" font-family="Helvetica,sans-Serif" font-size="10.00">_telop.h</text>
</a>
</g>
</g>
<!-- Node7&#45;&gt;Node70 -->
<g id="edge36" class="edge">
<title>Node7&#45;&gt;Node70</title>
<path fill="none" stroke="#63b8ff" d="M2025.43,-149.04C1960.39,-140.7 1858.82,-126.14 1772.06,-107 1769.18,-106.37 1766.24,-105.68 1763.28,-104.95"/>
<polygon fill="#63b8ff" stroke="#63b8ff" points="2024.88,-152.5 2035.24,-150.29 2025.76,-145.56 2024.88,-152.5"/>
</g>
<!-- Node71 -->
<g id="node34" class="node">
<title>Node71</title>
<g id="a_node34"><a xlink:href="c__dylink_8cpp.html" target="_top" xlink:title=" ">
<polygon fill="white" stroke="#666666" points="1876.56,-96 1781.56,-96 1781.56,-77 1876.56,-77 1876.56,-96"/>
<text text-anchor="middle" x="1829.06" y="-84" font-family="Helvetica,sans-Serif" font-size="10.00">src/c/c_dylink.cpp</text>
</a>
</g>
</g>
<!-- Node7&#45;&gt;Node71 -->
<g id="edge37" class="edge">
<title>Node7&#45;&gt;Node71</title>
<path fill="none" stroke="#63b8ff" d="M2025.51,-142.48C1984.96,-133.22 1932.24,-120.47 1886.06,-107 1875.31,-103.87 1863.59,-99.94 1853.59,-96.44"/>
<polygon fill="#63b8ff" stroke="#63b8ff" points="2024.61,-145.86 2035.13,-144.66 2026.15,-139.03 2024.61,-145.86"/>
</g>
<!-- Node72 -->
<g id="node35" class="node">
<title>Node72</title>
<g id="a_node35"><a xlink:href="d__a__itembase_8cpp.html" target="_top" xlink:title=" ">
<polygon fill="white" stroke="#666666" points="2023.06,-96 1895.06,-96 1895.06,-77 2023.06,-77 2023.06,-96"/>
<text text-anchor="middle" x="1959.06" y="-84" font-family="Helvetica,sans-Serif" font-size="10.00">src/d/a/d_a_itembase.cpp</text>
</a>
</g>
</g>
<!-- Node7&#45;&gt;Node72 -->
<g id="edge39" class="edge">
<title>Node7&#45;&gt;Node72</title>
<path fill="none" stroke="#63b8ff" d="M2054.31,-137.28C2028.56,-123.82 1995.67,-106.63 1976.05,-96.38"/>
<polygon fill="#63b8ff" stroke="#63b8ff" points="2052.67,-140.37 2063.16,-141.9 2055.92,-134.17 2052.67,-140.37"/>
</g>
<!-- Node73 -->
<g id="node36" class="node">
<title>Node73</title>
<g id="a_node36"><a xlink:href="d__a__obj_8cpp.html" target="_top" xlink:title=" ">
<polygon fill="white" stroke="#666666" points="2142.56,-96 2041.56,-96 2041.56,-77 2142.56,-77 2142.56,-96"/>
<text text-anchor="middle" x="2092.06" y="-84" font-family="Helvetica,sans-Serif" font-size="10.00">src/d/a/d_a_obj.cpp</text>
</a>
</g>
</g>
<!-- Node7&#45;&gt;Node73 -->
<g id="edge40" class="edge">
<title>Node7&#45;&gt;Node73</title>
<path fill="none" stroke="#63b8ff" d="M2092.06,-131.46C2092.06,-119.07 2092.06,-104.99 2092.06,-96.18"/>
<polygon fill="#63b8ff" stroke="#63b8ff" points="2088.56,-131.09 2092.06,-141.09 2095.56,-131.09 2088.56,-131.09"/>
</g>
<!-- Node74 -->
<g id="node37" class="node">
<title>Node74</title>
<g id="a_node37"><a xlink:href="d__bg__s_8cpp.html" target="_top" xlink:title=" ">
<polygon fill="white" stroke="#666666" points="2265.06,-96 2161.06,-96 2161.06,-77 2265.06,-77 2265.06,-96"/>
<text text-anchor="middle" x="2213.06" y="-84" font-family="Helvetica,sans-Serif" font-size="10.00">src/d/bg/d_bg_s.cpp</text>
</a>
</g>
</g>
<!-- Node7&#45;&gt;Node74 -->
<g id="edge43" class="edge">
<title>Node7&#45;&gt;Node74</title>
<path fill="none" stroke="#63b8ff" d="M2127.02,-136.92C2150.36,-123.51 2179.91,-106.54 2197.6,-96.38"/>
<polygon fill="#63b8ff" stroke="#63b8ff" points="2125.37,-133.83 2118.44,-141.85 2128.86,-139.9 2125.37,-133.83"/>
</g>
<!-- Node75 -->
<g id="node38" class="node">
<title>Node75</title>
<g id="a_node38"><a xlink:href="d__bg__s__movebg__actor_8cpp.html" target="_top" xlink:title=" ">
<polygon fill="white" stroke="#666666" points="2409.06,-101.5 2283.06,-101.5 2283.06,-71.5 2409.06,-71.5 2409.06,-101.5"/>
<text text-anchor="start" x="2291.06" y="-89.5" font-family="Helvetica,sans-Serif" font-size="10.00">src/d/bg/d_bg_s_movebg</text>
<text text-anchor="middle" x="2346.06" y="-78.5" font-family="Helvetica,sans-Serif" font-size="10.00">_actor.cpp</text>
</a>
</g>
</g>
<!-- Node7&#45;&gt;Node75 -->
<g id="edge44" class="edge">
<title>Node7&#45;&gt;Node75</title>
<path fill="none" stroke="#63b8ff" d="M2156.03,-139.49C2198.4,-127.9 2253.3,-112.88 2293.19,-101.97"/>
<polygon fill="#63b8ff" stroke="#63b8ff" points="2155.18,-136.1 2146.45,-142.12 2157.02,-142.85 2155.18,-136.1"/>
</g>
<!-- Node76 -->
<g id="node39" class="node">
<title>Node76</title>
<g id="a_node39"><a xlink:href="d__bg__w_8cpp.html" target="_top" xlink:title=" ">
<polygon fill="white" stroke="#666666" points="2534.56,-96 2427.56,-96 2427.56,-77 2534.56,-77 2534.56,-96"/>
<text text-anchor="middle" x="2481.06" y="-84" font-family="Helvetica,sans-Serif" font-size="10.00">src/d/bg/d_bg_w.cpp</text>
</a>
</g>
</g>
<!-- Node7&#45;&gt;Node76 -->
<g id="edge45" class="edge">
<title>Node7&#45;&gt;Node76</title>
<path fill="none" stroke="#63b8ff" d="M2158.43,-149.74C2224.69,-141.81 2329.17,-127.45 2418.06,-107 2430.44,-104.15 2443.93,-100.11 2455.24,-96.44"/>
<polygon fill="#63b8ff" stroke="#63b8ff" points="2158.35,-146.23 2148.83,-150.87 2159.17,-153.18 2158.35,-146.23"/>
</g>
<!-- Node77 -->
<g id="node40" class="node">
<title>Node77</title>
<g id="a_node40"><a xlink:href="d__cc__s_8cpp.html" target="_top" xlink:title=" ">
<polygon fill="white" stroke="#666666" points="2657.06,-96 2553.06,-96 2553.06,-77 2657.06,-77 2657.06,-96"/>
<text text-anchor="middle" x="2605.06" y="-84" font-family="Helvetica,sans-Serif" font-size="10.00">src/d/cc/d_cc_s.cpp</text>
</a>
</g>
</g>
<!-- Node7&#45;&gt;Node77 -->
<g id="edge46" class="edge">
<title>Node7&#45;&gt;Node77</title>
<path fill="none" stroke="#63b8ff" d="M2158.94,-153.65C2247.57,-148.29 2408.42,-135.36 2543.06,-107 2555.53,-104.37 2569.08,-100.27 2580.31,-96.5"/>
<polygon fill="#63b8ff" stroke="#63b8ff" points="2158.74,-150.16 2148.96,-154.24 2159.15,-157.15 2158.74,-150.16"/>
</g>
<!-- Node78 -->
<g id="node41" class="node">
<title>Node78</title>
<g id="a_node41"><a xlink:href="d__com__static_8cpp.html" target="_top" xlink:title=" ">
<polygon fill="white" stroke="#666666" points="2815.06,-96 2675.06,-96 2675.06,-77 2815.06,-77 2815.06,-96"/>
<text text-anchor="middle" x="2745.06" y="-84" font-family="Helvetica,sans-Serif" font-size="10.00">src/d/com/d_com_static.cpp</text>
</a>
</g>
</g>
<!-- Node7&#45;&gt;Node78 -->
<g id="edge48" class="edge">
<title>Node7&#45;&gt;Node78</title>
<path fill="none" stroke="#63b8ff" d="M2158.72,-154.55C2266.15,-149.85 2483.96,-137.22 2666.06,-107 2681.94,-104.36 2699.35,-100.21 2713.77,-96.41"/>
<polygon fill="#63b8ff" stroke="#63b8ff" points="2158.78,-151.04 2148.94,-154.97 2159.08,-158.04 2158.78,-151.04"/>
</g>
<!-- Node7&#45;&gt;Node100 -->
<g id="edge52" class="edge">
<title>Node7&#45;&gt;Node100</title>
<path fill="none" stroke="#63b8ff" d="M2025.73,-156.27C1710.92,-152.64 375.02,-135.7 191.06,-107 176.93,-104.8 161.59,-100.48 149.16,-96.47"/>
<polygon fill="#63b8ff" stroke="#63b8ff" points="2025.38,-159.76 2035.42,-156.38 2025.46,-152.76 2025.38,-159.76"/>
</g>
<!-- Node7&#45;&gt;Node107 -->
<g id="edge53" class="edge">
<title>Node7&#45;&gt;Node107</title>
<path fill="none" stroke="#63b8ff" d="M2158.76,-156.9C2441.3,-156.22 3540.71,-150.74 3884.06,-107 3901.78,-104.74 3921.22,-100.42 3937.04,-96.42"/>
<polygon fill="#63b8ff" stroke="#63b8ff" points="2158.99,-153.4 2149,-156.92 2159,-160.4 2158.99,-153.4"/>
</g>
<!-- Node7&#45;&gt;Node109 -->
<g id="edge54" class="edge">
<title>Node7&#45;&gt;Node109</title>
<path fill="none" stroke="#63b8ff" d="M2158.85,-156.6C2457.28,-154.6 3670.44,-144.31 4049.06,-107 4072.24,-104.72 4097.83,-100.45 4118.79,-96.48"/>
<polygon fill="#63b8ff" stroke="#63b8ff" points="2158.88,-153.1 2148.9,-156.66 2158.92,-160.1 2158.88,-153.1"/>
</g>
<!-- Node8&#45;&gt;Node13 -->
<g id="edge8" class="edge">
<title>Node8&#45;&gt;Node13</title>
<path fill="none" stroke="#63b8ff" d="M3225.99,-67.19C3219.01,-55.64 3210.14,-40.95 3203.68,-30.27"/>
<polygon fill="#63b8ff" stroke="#63b8ff" points="3222.79,-68.65 3230.95,-75.4 3228.78,-65.03 3222.79,-68.65"/>
</g>
<!-- Node20&#45;&gt;Node17 -->
<g id="edge11" class="edge">
<title>Node20&#45;&gt;Node17</title>
<path fill="none" stroke="#63b8ff" d="M3735.05,-75.33C3711.76,-71.74 3684.72,-68.07 3660.06,-66 3231.62,-30.02 1841.57,-18.43 1547.87,-16.36"/>
<polygon fill="#63b8ff" stroke="#63b8ff" points="3734.23,-78.75 3744.66,-76.85 3735.33,-71.84 3734.23,-78.75"/>
</g>
<!-- Node20&#45;&gt;Node21 -->
<g id="edge12" class="edge">
<title>Node20&#45;&gt;Node21</title>
<path fill="none" stroke="#63b8ff" d="M3774.27,-69.69C3756.94,-55.85 3732.4,-36.24 3718.26,-24.95"/>
<polygon fill="#63b8ff" stroke="#63b8ff" points="3771.86,-72.25 3781.86,-75.75 3776.23,-66.78 3771.86,-72.25"/>
</g>
<!-- Node20&#45;&gt;Node22 -->
<g id="edge13" class="edge">
<title>Node20&#45;&gt;Node22</title>
<path fill="none" stroke="#63b8ff" d="M3811.81,-69.27C3824.73,-57.45 3842.06,-41.61 3854.45,-30.27"/>
<polygon fill="#63b8ff" stroke="#63b8ff" points="3809.82,-66.35 3804.8,-75.68 3814.54,-71.51 3809.82,-66.35"/>
</g>
<!-- Node20&#45;&gt;Node23 -->
<g id="edge14" class="edge">
<title>Node20&#45;&gt;Node23</title>
<path fill="none" stroke="#63b8ff" d="M3847.3,-74.18C3911.95,-60.44 4019.68,-37.55 4078.88,-24.96"/>
<polygon fill="#63b8ff" stroke="#63b8ff" points="3846.67,-70.74 3837.62,-76.24 3848.13,-77.59 3846.67,-70.74"/>
</g>
<!-- Node37&#45;&gt;Node5 -->
<g id="edge21" class="edge">
<title>Node37&#45;&gt;Node5</title>
<path fill="none" stroke="#63b8ff" d="M300.99,-100.55C350.6,-119.17 446.15,-153.28 530.06,-173 764.1,-228.02 1048.85,-259.9 1173.49,-272.15"/>
<polygon fill="#63b8ff" stroke="#63b8ff" points="302.27,-97.3 291.67,-97.03 299.79,-103.84 302.27,-97.3"/>
</g>
<!-- Node39&#45;&gt;Node13 -->
<g id="edge25" class="edge">
<title>Node39&#45;&gt;Node13</title>
<path fill="none" stroke="#63b8ff" d="M801.34,-68.29C805.28,-67.39 809.21,-66.61 813.06,-66 1053.13,-28.22 2757.26,-40.71 3000.06,-30 3047.19,-27.92 3100.63,-23.97 3139.63,-20.8"/>
<polygon fill="#63b8ff" stroke="#63b8ff" points="800.61,-64.86 791.79,-70.72 802.34,-71.64 800.61,-64.86"/>
</g>
<!-- Node39&#45;&gt;Node17 -->
<g id="edge23" class="edge">
<title>Node39&#45;&gt;Node17</title>
<path fill="none" stroke="#63b8ff" d="M802.78,-68.2C806.24,-67.37 809.68,-66.63 813.06,-66 1042.58,-23.15 1322.11,-16.65 1438.32,-15.92"/>
<polygon fill="#63b8ff" stroke="#63b8ff" points="802.03,-64.78 793.23,-70.68 803.79,-71.55 802.03,-64.78"/>
</g>
<!-- Node39&#45;&gt;Node48 -->
<g id="edge24" class="edge">
<title>Node39&#45;&gt;Node48</title>
<path fill="none" stroke="#63b8ff" d="M691.44,-67.83C689.28,-67.2 687.15,-66.59 685.06,-66 631.3,-50.78 568.56,-34.67 530.08,-24.98"/>
<polygon fill="#63b8ff" stroke="#63b8ff" points="690.25,-71.13 700.83,-70.59 692.22,-64.41 690.25,-71.13"/>
</g>
<!-- Node39&#45;&gt;Node49 -->
<g id="edge26" class="edge">
<title>Node39&#45;&gt;Node49</title>
<path fill="none" stroke="#63b8ff" d="M694.15,-68.12C691.09,-67.36 688.04,-66.64 685.06,-66 562.39,-39.62 528.57,-52.06 405.06,-30 402.17,-29.48 399.21,-28.92 396.23,-28.33"/>
<polygon fill="#63b8ff" stroke="#63b8ff" points="693.22,-71.5 703.78,-70.7 695.03,-64.74 693.22,-71.5"/>
</g>
<!-- Node67&#45;&gt;Node17 -->
<g id="edge33" class="edge">
<title>Node67&#45;&gt;Node17</title>
<path fill="none" stroke="#63b8ff" d="M2835.9,-68.3C2831.92,-67.41 2827.94,-66.63 2824.06,-66 2572.24,-25.26 1765.89,-17.61 1547.85,-16.27"/>
<polygon fill="#63b8ff" stroke="#63b8ff" points="2835.06,-71.7 2845.61,-70.68 2836.73,-64.9 2835.06,-71.7"/>
</g>
<!-- Node67&#45;&gt;Node68 -->
<g id="edge34" class="edge">
<title>Node67&#45;&gt;Node68</title>
<path fill="none" stroke="#63b8ff" d="M2905.91,-61.49C2913.8,-48.74 2923.01,-33.86 2928.69,-24.68"/>
<polygon fill="#63b8ff" stroke="#63b8ff" points="2903.05,-59.47 2900.76,-69.81 2909,-63.15 2903.05,-59.47"/>
</g>
</g>
</svg>
