<?xml version="1.0" encoding="UTF-8" standalone="no"?>
<!DOCTYPE svg PUBLIC "-//W3C//DTD SVG 1.1//EN"
 "http://www.w3.org/Graphics/SVG/1.1/DTD/svg11.dtd">
<!-- Generated by graphviz version 7.0.4 (20221203.1631)
 -->
<!-- Title: include/JSystem/JGadget/linklist.h Pages: 1 -->
<svg width="3332pt" height="434pt"
 viewBox="0.00 0.00 3332.00 434.00" xmlns="http://www.w3.org/2000/svg" xmlns:xlink="http://www.w3.org/1999/xlink">
<g id="graph0" class="graph" transform="scale(1 1) rotate(0) translate(4 430)">
<title>include/JSystem/JGadget/linklist.h</title>
<!-- Node1 -->
<g id="node1" class="node">
<title>Node1</title>
<g id="a_node1"><a xlink:title=" ">
<polygon fill="#999999" stroke="#666666" points="2206,-426 2078,-426 2078,-396 2206,-396 2206,-426"/>
<text text-anchor="start" x="2086" y="-414" font-family="Helvetica,sans-Serif" font-size="10.00">include/JSystem/JGadget</text>
<text text-anchor="middle" x="2142" y="-403" font-family="Helvetica,sans-Serif" font-size="10.00">/linklist.h</text>
</a>
</g>
</g>
<!-- Node2 -->
<g id="node2" class="node">
<title>Node2</title>
<g id="a_node2"><a xlink:href="resource_8h.html" target="_top" xlink:title=" ">
<polygon fill="white" stroke="#666666" points="1444.5,-228 1307.5,-228 1307.5,-198 1444.5,-198 1444.5,-228"/>
<text text-anchor="start" x="1315.5" y="-216" font-family="Helvetica,sans-Serif" font-size="10.00">include/JSystem/JMessage</text>
<text text-anchor="middle" x="1376" y="-205" font-family="Helvetica,sans-Serif" font-size="10.00">/resource.h</text>
</a>
</g>
</g>
<!-- Node1&#45;&gt;Node2 -->
<g id="edge1" class="edge">
<title>Node1&#45;&gt;Node2</title>
<path fill="none" stroke="#63b8ff" d="M2066.18,-402.84C1995.61,-395.29 1887.81,-381.46 1796,-360 1704.03,-338.5 1683.24,-324.94 1594,-294 1530.58,-272.01 1457.44,-244.78 1414.05,-228.43"/>
<polygon fill="#63b8ff" stroke="#63b8ff" points="2065.8,-406.32 2076.11,-403.89 2066.53,-399.36 2065.8,-406.32"/>
</g>
<!-- Node34 -->
<g id="node27" class="node">
<title>Node34</title>
<g id="a_node27"><a xlink:href="ctb_8h.html" target="_top" xlink:title=" ">
<polygon fill="white" stroke="#666666" points="1929.5,-360 1804.5,-360 1804.5,-330 1929.5,-330 1929.5,-360"/>
<text text-anchor="start" x="1812.5" y="-348" font-family="Helvetica,sans-Serif" font-size="10.00">include/JSystem/JStudio</text>
<text text-anchor="middle" x="1867" y="-337" font-family="Helvetica,sans-Serif" font-size="10.00">/JStudio/ctb.h</text>
</a>
</g>
</g>
<!-- Node1&#45;&gt;Node34 -->
<g id="edge33" class="edge">
<title>Node1&#45;&gt;Node34</title>
<path fill="none" stroke="#63b8ff" d="M2068.81,-392.97C2025.15,-382.81 1970.32,-370.04 1928.83,-360.39"/>
<polygon fill="#63b8ff" stroke="#63b8ff" points="2067.93,-396.36 2078.47,-395.21 2069.52,-389.54 2067.93,-396.36"/>
</g>
<!-- Node62 -->
<g id="node37" class="node">
<title>Node62</title>
<g id="a_node37"><a xlink:href="fvb_8h.html" target="_top" xlink:title=" ">
<polygon fill="white" stroke="#666666" points="2102.5,-360 1977.5,-360 1977.5,-330 2102.5,-330 2102.5,-360"/>
<text text-anchor="start" x="1985.5" y="-348" font-family="Helvetica,sans-Serif" font-size="10.00">include/JSystem/JStudio</text>
<text text-anchor="middle" x="2040" y="-337" font-family="Helvetica,sans-Serif" font-size="10.00">/JStudio/fvb.h</text>
</a>
</g>
</g>
<!-- Node1&#45;&gt;Node62 -->
<g id="edge46" class="edge">
<title>Node1&#45;&gt;Node62</title>
<path fill="none" stroke="#63b8ff" d="M2109.55,-389.64C2094.34,-380.09 2076.58,-368.95 2062.81,-360.31"/>
<polygon fill="#63b8ff" stroke="#63b8ff" points="2107.5,-392.48 2117.83,-394.83 2111.22,-386.55 2107.5,-392.48"/>
</g>
<!-- Node64 -->
<g id="node39" class="node">
<title>Node64</title>
<g id="a_node39"><a xlink:href="stb_8h.html" target="_top" xlink:title=" ">
<polygon fill="white" stroke="#666666" points="2276.5,-360 2151.5,-360 2151.5,-330 2276.5,-330 2276.5,-360"/>
<text text-anchor="start" x="2159.5" y="-348" font-family="Helvetica,sans-Serif" font-size="10.00">include/JSystem/JStudio</text>
<text text-anchor="middle" x="2214" y="-337" font-family="Helvetica,sans-Serif" font-size="10.00">/JStudio/stb.h</text>
</a>
</g>
</g>
<!-- Node1&#45;&gt;Node64 -->
<g id="edge50" class="edge">
<title>Node1&#45;&gt;Node64</title>
<path fill="none" stroke="#63b8ff" d="M2166.28,-388.42C2176.67,-379.18 2188.52,-368.65 2197.82,-360.39"/>
<polygon fill="#63b8ff" stroke="#63b8ff" points="2164.26,-385.53 2159.11,-394.79 2168.91,-390.76 2164.26,-385.53"/>
</g>
<!-- Node66 -->
<g id="node41" class="node">
<title>Node66</title>
<g id="a_node41"><a xlink:href="JUTConsole_8h.html" target="_top" xlink:title=" ">
<polygon fill="white" stroke="#666666" points="2779,-360 2657,-360 2657,-330 2779,-330 2779,-360"/>
<text text-anchor="start" x="2665" y="-348" font-family="Helvetica,sans-Serif" font-size="10.00">include/JSystem/JUtility</text>
<text text-anchor="middle" x="2718" y="-337" font-family="Helvetica,sans-Serif" font-size="10.00">/JUTConsole.h</text>
</a>
</g>
</g>
<!-- Node1&#45;&gt;Node66 -->
<g id="edge55" class="edge">
<title>Node1&#45;&gt;Node66</title>
<path fill="none" stroke="#63b8ff" d="M2217.57,-401.6C2332.86,-388.79 2550.47,-364.61 2656.63,-352.82"/>
<polygon fill="#63b8ff" stroke="#63b8ff" points="2217.45,-398.09 2207.9,-402.68 2218.23,-405.05 2217.45,-398.09"/>
</g>
<!-- Node80 -->
<g id="node50" class="node">
<title>Node80</title>
<g id="a_node50"><a xlink:href="linklist_8cpp.html" target="_top" xlink:title=" ">
<polygon fill="white" stroke="#666666" points="2910.5,-360 2797.5,-360 2797.5,-330 2910.5,-330 2910.5,-360"/>
<text text-anchor="start" x="2805.5" y="-348" font-family="Helvetica,sans-Serif" font-size="10.00">libs/JSystem/JGadget</text>
<text text-anchor="middle" x="2854" y="-337" font-family="Helvetica,sans-Serif" font-size="10.00">/linklist.cpp</text>
</a>
</g>
</g>
<!-- Node1&#45;&gt;Node80 -->
<g id="edge66" class="edge">
<title>Node1&#45;&gt;Node80</title>
<path fill="none" stroke="#63b8ff" d="M2217.82,-407.37C2338.87,-402.45 2583.07,-389.53 2788,-360 2791.01,-359.57 2794.1,-359.07 2797.2,-358.54"/>
<polygon fill="#63b8ff" stroke="#63b8ff" points="2217.86,-403.87 2208,-407.76 2218.14,-410.86 2217.86,-403.87"/>
</g>
<!-- Node3 -->
<g id="node3" class="node">
<title>Node3</title>
<g id="a_node3"><a xlink:href="JMessage_2control_8h.html" target="_top" xlink:title=" ">
<polygon fill="white" stroke="#666666" points="1541.5,-162 1404.5,-162 1404.5,-132 1541.5,-132 1541.5,-162"/>
<text text-anchor="start" x="1412.5" y="-150" font-family="Helvetica,sans-Serif" font-size="10.00">include/JSystem/JMessage</text>
<text text-anchor="middle" x="1473" y="-139" font-family="Helvetica,sans-Serif" font-size="10.00">/control.h</text>
</a>
</g>
</g>
<!-- Node2&#45;&gt;Node3 -->
<g id="edge2" class="edge">
<title>Node2&#45;&gt;Node3</title>
<path fill="none" stroke="#63b8ff" d="M1407.03,-191.52C1421.42,-182.03 1438.17,-170.98 1451.2,-162.39"/>
<polygon fill="#63b8ff" stroke="#63b8ff" points="1405.21,-188.53 1398.79,-196.96 1409.07,-194.38 1405.21,-188.53"/>
</g>
<!-- Node13 -->
<g id="node10" class="node">
<title>Node13</title>
<g id="a_node10"><a xlink:href="d__msg__object_8h.html" target="_top" xlink:title=" ">
<polygon fill="white" stroke="#666666" points="1392,-96 1282,-96 1282,-66 1392,-66 1392,-96"/>
<text text-anchor="start" x="1290" y="-84" font-family="Helvetica,sans-Serif" font-size="10.00">include/d/msg/d_msg</text>
<text text-anchor="middle" x="1337" y="-73" font-family="Helvetica,sans-Serif" font-size="10.00">_object.h</text>
</a>
</g>
</g>
<!-- Node2&#45;&gt;Node13 -->
<g id="edge30" class="edge">
<title>Node2&#45;&gt;Node13</title>
<path fill="none" stroke="#63b8ff" d="M1370.97,-186.62C1367.59,-170.76 1362.7,-150 1357,-132 1353.1,-119.7 1347.6,-106.13 1343.35,-96.24"/>
<polygon fill="#63b8ff" stroke="#63b8ff" points="1367.5,-187.1 1372.95,-196.18 1374.35,-185.68 1367.5,-187.1"/>
</g>
<!-- Node32 -->
<g id="node25" class="node">
<title>Node32</title>
<g id="a_node25"><a xlink:href="processor_8cpp.html" target="_top" xlink:title=" ">
<polygon fill="white" stroke="#666666" points="1261.5,-96 1140.5,-96 1140.5,-66 1261.5,-66 1261.5,-96"/>
<text text-anchor="start" x="1148.5" y="-84" font-family="Helvetica,sans-Serif" font-size="10.00">libs/JSystem/JMessage</text>
<text text-anchor="middle" x="1201" y="-73" font-family="Helvetica,sans-Serif" font-size="10.00">/processor.cpp</text>
</a>
</g>
</g>
<!-- Node2&#45;&gt;Node32 -->
<g id="edge31" class="edge">
<title>Node2&#45;&gt;Node32</title>
<path fill="none" stroke="#63b8ff" d="M1296.19,-203.86C1267.49,-196.99 1237.23,-184.53 1217,-162 1200.72,-143.87 1199.09,-113.99 1199.78,-96.33"/>
<polygon fill="#63b8ff" stroke="#63b8ff" points="1295.1,-207.2 1305.61,-205.9 1296.58,-200.36 1295.1,-207.2"/>
</g>
<!-- Node33 -->
<g id="node26" class="node">
<title>Node33</title>
<g id="a_node26"><a xlink:href="resource_8cpp.html" target="_top" xlink:title=" ">
<polygon fill="white" stroke="#666666" points="1347.5,-162 1226.5,-162 1226.5,-132 1347.5,-132 1347.5,-162"/>
<text text-anchor="start" x="1234.5" y="-150" font-family="Helvetica,sans-Serif" font-size="10.00">libs/JSystem/JMessage</text>
<text text-anchor="middle" x="1287" y="-139" font-family="Helvetica,sans-Serif" font-size="10.00">/resource.cpp</text>
</a>
</g>
</g>
<!-- Node2&#45;&gt;Node33 -->
<g id="edge32" class="edge">
<title>Node2&#45;&gt;Node33</title>
<path fill="none" stroke="#63b8ff" d="M1347.14,-191.25C1334.03,-181.82 1318.84,-170.9 1307,-162.39"/>
<polygon fill="#63b8ff" stroke="#63b8ff" points="1344.86,-193.92 1355.02,-196.91 1348.94,-188.23 1344.86,-193.92"/>
</g>
<!-- Node4 -->
<g id="node4" class="node">
<title>Node4</title>
<g id="a_node4"><a xlink:href="d__demo_8h.html" target="_top" xlink:title=" ">
<polygon fill="#fff0f0" stroke="red" points="2095.5,-90.5 1994.5,-90.5 1994.5,-71.5 2095.5,-71.5 2095.5,-90.5"/>
<text text-anchor="middle" x="2045" y="-78.5" font-family="Helvetica,sans-Serif" font-size="10.00">include/d/d_demo.h</text>
</a>
</g>
</g>
<!-- Node3&#45;&gt;Node4 -->
<g id="edge3" class="edge">
<title>Node3&#45;&gt;Node4</title>
<path fill="none" stroke="#63b8ff" d="M1553.31,-135.18C1561.98,-134.08 1570.67,-133 1579,-132 1729.88,-113.94 1908.61,-95.62 1994.27,-87.03"/>
<polygon fill="#63b8ff" stroke="#63b8ff" points="1552.94,-131.7 1543.46,-136.45 1553.83,-138.64 1552.94,-131.7"/>
</g>
<!-- Node3&#45;&gt;Node13 -->
<g id="edge9" class="edge">
<title>Node3&#45;&gt;Node13</title>
<path fill="none" stroke="#63b8ff" d="M1432.32,-126.86C1411.49,-117.05 1386.56,-105.32 1367.42,-96.31"/>
<polygon fill="#63b8ff" stroke="#63b8ff" points="1430.57,-129.9 1441.11,-130.99 1433.55,-123.57 1430.57,-129.9"/>
</g>
<!-- Node31 -->
<g id="node24" class="node">
<title>Node31</title>
<g id="a_node24"><a xlink:href="JMessage_2control_8cpp.html" target="_top" xlink:title=" ">
<polygon fill="white" stroke="#666666" points="1533.5,-96 1412.5,-96 1412.5,-66 1533.5,-66 1533.5,-96"/>
<text text-anchor="start" x="1420.5" y="-84" font-family="Helvetica,sans-Serif" font-size="10.00">libs/JSystem/JMessage</text>
<text text-anchor="middle" x="1473" y="-73" font-family="Helvetica,sans-Serif" font-size="10.00">/control.cpp</text>
</a>
</g>
</g>
<!-- Node3&#45;&gt;Node31 -->
<g id="edge28" class="edge">
<title>Node3&#45;&gt;Node31</title>
<path fill="none" stroke="#63b8ff" d="M1473,-120.39C1473,-112.13 1473,-103.28 1473,-96.16"/>
<polygon fill="#63b8ff" stroke="#63b8ff" points="1469.5,-120.28 1473,-130.28 1476.5,-120.28 1469.5,-120.28"/>
</g>
<!-- Node3&#45;&gt;Node32 -->
<g id="edge29" class="edge">
<title>Node3&#45;&gt;Node32</title>
<path fill="none" stroke="#63b8ff" d="M1400.57,-128.96C1357.22,-118.76 1302.76,-105.94 1261.69,-96.28"/>
<polygon fill="#63b8ff" stroke="#63b8ff" points="1399.61,-132.33 1410.15,-131.21 1401.21,-125.51 1399.61,-132.33"/>
</g>
<!-- Node5 -->
<g id="node5" class="node">
<title>Node5</title>
<g id="a_node5"><a xlink:href="d__a__alink_8cpp.html" target="_top" xlink:title=" ">
<polygon fill="white" stroke="#666666" points="2336.5,-24.5 2227.5,-24.5 2227.5,-5.5 2336.5,-5.5 2336.5,-24.5"/>
<text text-anchor="middle" x="2282" y="-12.5" font-family="Helvetica,sans-Serif" font-size="10.00">src/d/a/d_a_alink.cpp</text>
</a>
</g>
</g>
<!-- Node4&#45;&gt;Node5 -->
<g id="edge4" class="edge">
<title>Node4&#45;&gt;Node5</title>
<path fill="none" stroke="#63b8ff" d="M2089.12,-68.09C2135.48,-55.57 2207.35,-36.16 2249.02,-24.91"/>
<polygon fill="#63b8ff" stroke="#63b8ff" points="2088.41,-64.65 2079.66,-70.64 2090.23,-71.41 2088.41,-64.65"/>
</g>
<!-- Node7 -->
<g id="node6" class="node">
<title>Node7</title>
<g id="a_node6"><a xlink:href="d__demo_8cpp.html" target="_top" xlink:title=" ">
<polygon fill="white" stroke="#666666" points="2209,-24.5 2115,-24.5 2115,-5.5 2209,-5.5 2209,-24.5"/>
<text text-anchor="middle" x="2162" y="-12.5" font-family="Helvetica,sans-Serif" font-size="10.00">src/d/d_demo.cpp</text>
</a>
</g>
</g>
<!-- Node4&#45;&gt;Node7 -->
<g id="edge5" class="edge">
<title>Node4&#45;&gt;Node7</title>
<path fill="none" stroke="#63b8ff" d="M2071.33,-65.59C2094.22,-53.08 2126.64,-35.34 2145.87,-24.82"/>
<polygon fill="#63b8ff" stroke="#63b8ff" points="2069.69,-62.51 2062.6,-70.37 2073.05,-68.65 2069.69,-62.51"/>
</g>
<!-- Node8 -->
<g id="node7" class="node">
<title>Node8</title>
<g id="a_node7"><a xlink:href="d__event_8cpp.html" target="_top" xlink:title=" ">
<polygon fill="white" stroke="#666666" points="1975.5,-24.5 1854.5,-24.5 1854.5,-5.5 1975.5,-5.5 1975.5,-24.5"/>
<text text-anchor="middle" x="1915" y="-12.5" font-family="Helvetica,sans-Serif" font-size="10.00">src/d/event/d_event.cpp</text>
</a>
</g>
</g>
<!-- Node4&#45;&gt;Node8 -->
<g id="edge6" class="edge">
<title>Node4&#45;&gt;Node8</title>
<path fill="none" stroke="#63b8ff" d="M2016.77,-66.1C1991.29,-53.56 1954.58,-35.49 1932.92,-24.82"/>
<polygon fill="#63b8ff" stroke="#63b8ff" points="2015.05,-69.16 2025.57,-70.43 2018.14,-62.88 2015.05,-69.16"/>
</g>
<!-- Node9 -->
<g id="node8" class="node">
<title>Node9</title>
<g id="a_node8"><a xlink:href="d__event__data_8cpp.html" target="_top" xlink:title=" ">
<polygon fill="white" stroke="#666666" points="2096.5,-30 1993.5,-30 1993.5,0 2096.5,0 2096.5,-30"/>
<text text-anchor="start" x="2001.5" y="-18" font-family="Helvetica,sans-Serif" font-size="10.00">src/d/event/d_event</text>
<text text-anchor="middle" x="2045" y="-7" font-family="Helvetica,sans-Serif" font-size="10.00">_data.cpp</text>
</a>
</g>
</g>
<!-- Node4&#45;&gt;Node9 -->
<g id="edge7" class="edge">
<title>Node4&#45;&gt;Node9</title>
<path fill="none" stroke="#63b8ff" d="M2045,-59.78C2045,-50.17 2045,-38.92 2045,-30.23"/>
<polygon fill="#63b8ff" stroke="#63b8ff" points="2041.5,-59.59 2045,-69.59 2048.5,-59.59 2041.5,-59.59"/>
</g>
<!-- Node11 -->
<g id="node9" class="node">
<title>Node11</title>
<g id="a_node9"><a xlink:href="d__s__play_8cpp.html" target="_top" xlink:title=" ">
<polygon fill="white" stroke="#666666" points="2461,-24.5 2355,-24.5 2355,-5.5 2461,-5.5 2461,-24.5"/>
<text text-anchor="middle" x="2408" y="-12.5" font-family="Helvetica,sans-Serif" font-size="10.00">src/d/s/d_s_play.cpp</text>
</a>
</g>
</g>
<!-- Node4&#45;&gt;Node11 -->
<g id="edge8" class="edge">
<title>Node4&#45;&gt;Node11</title>
<path fill="none" stroke="#63b8ff" d="M2107.1,-70.75C2168.1,-61.42 2263.71,-46.11 2346,-30 2353.8,-28.47 2362.11,-26.7 2370.04,-24.93"/>
<polygon fill="#63b8ff" stroke="#63b8ff" points="2106.61,-67.29 2097.25,-72.25 2107.66,-74.21 2106.61,-67.29"/>
</g>
<!-- Node13&#45;&gt;Node5 -->
<g id="edge11" class="edge">
<title>Node13&#45;&gt;Node5</title>
<path fill="none" stroke="#63b8ff" d="M1403.65,-66.04C1403.76,-66.03 1403.88,-66.01 1404,-66 1763.3,-20.82 1858.91,-76.86 2218,-30 2227.25,-28.79 2237.14,-26.92 2246.31,-24.94"/>
<polygon fill="#63b8ff" stroke="#63b8ff" points="1403.34,-62.55 1393.95,-67.47 1404.36,-69.48 1403.34,-62.55"/>
</g>
<!-- Node13&#45;&gt;Node7 -->
<g id="edge12" class="edge">
<title>Node13&#45;&gt;Node7</title>
<path fill="none" stroke="#63b8ff" d="M1403.65,-66.05C1403.76,-66.03 1403.88,-66.02 1404,-66 1713.83,-25.93 1797.01,-76.1 2106,-30 2114.13,-28.79 2122.79,-26.92 2130.82,-24.93"/>
<polygon fill="#63b8ff" stroke="#63b8ff" points="1403.33,-62.55 1393.96,-67.5 1404.36,-69.48 1403.33,-62.55"/>
</g>
<!-- Node13&#45;&gt;Node8 -->
<g id="edge13" class="edge">
<title>Node13&#45;&gt;Node8</title>
<path fill="none" stroke="#63b8ff" d="M1403.65,-66.05C1403.76,-66.03 1403.88,-66.02 1404,-66 1598.62,-37.83 1650.26,-57.33 1845,-30 1854.57,-28.66 1864.81,-26.83 1874.42,-24.94"/>
<polygon fill="#63b8ff" stroke="#63b8ff" points="1403.29,-62.56 1393.97,-67.61 1404.4,-69.47 1403.29,-62.56"/>
</g>
<!-- Node13&#45;&gt;Node9 -->
<g id="edge14" class="edge">
<title>Node13&#45;&gt;Node9</title>
<path fill="none" stroke="#63b8ff" d="M1403.65,-66.05C1403.76,-66.03 1403.88,-66.02 1404,-66 1660.4,-31.45 1729.02,-67.53 1985,-30 1987.65,-29.61 1990.35,-29.17 1993.07,-28.68"/>
<polygon fill="#63b8ff" stroke="#63b8ff" points="1403.31,-62.56 1393.96,-67.54 1404.38,-69.48 1403.31,-62.56"/>
</g>
<!-- Node13&#45;&gt;Node11 -->
<g id="edge23" class="edge">
<title>Node13&#45;&gt;Node11</title>
<path fill="none" stroke="#63b8ff" d="M1403.65,-66.04C1403.76,-66.03 1403.88,-66.01 1404,-66 1819.85,-14.97 1930.57,-84.37 2346,-30 2354.97,-28.83 2364.56,-26.97 2373.44,-24.98"/>
<polygon fill="#63b8ff" stroke="#63b8ff" points="1403.34,-62.55 1393.95,-67.45 1404.35,-69.48 1403.34,-62.55"/>
</g>
<!-- Node14 -->
<g id="node11" class="node">
<title>Node14</title>
<g id="a_node11"><a xlink:href="d__msg__string__base_8h.html" target="_top" xlink:title=" ">
<polygon fill="#fff0f0" stroke="red" points="516,-30 406,-30 406,0 516,0 516,-30"/>
<text text-anchor="start" x="414" y="-18" font-family="Helvetica,sans-Serif" font-size="10.00">include/d/msg/d_msg</text>
<text text-anchor="middle" x="461" y="-7" font-family="Helvetica,sans-Serif" font-size="10.00">_string_base.h</text>
</a>
</g>
</g>
<!-- Node13&#45;&gt;Node14 -->
<g id="edge10" class="edge">
<title>Node13&#45;&gt;Node14</title>
<path fill="none" stroke="#63b8ff" d="M1270.35,-66.05C1270.24,-66.03 1270.12,-66.02 1270,-66 941.18,-23.97 853.62,-73.57 525,-30 522.18,-29.63 519.3,-29.19 516.4,-28.71"/>
<polygon fill="#63b8ff" stroke="#63b8ff" points="1269.64,-69.48 1280.05,-67.49 1270.67,-62.55 1269.64,-69.48"/>
</g>
<!-- Node19 -->
<g id="node12" class="node">
<title>Node19</title>
<g id="a_node12"><a xlink:href="d__kankyo_8cpp.html" target="_top" xlink:title=" ">
<polygon fill="white" stroke="#666666" points="668,-24.5 534,-24.5 534,-5.5 668,-5.5 668,-24.5"/>
<text text-anchor="middle" x="601" y="-12.5" font-family="Helvetica,sans-Serif" font-size="10.00">src/d/kankyo/d_kankyo.cpp</text>
</a>
</g>
</g>
<!-- Node13&#45;&gt;Node19 -->
<g id="edge15" class="edge">
<title>Node13&#45;&gt;Node19</title>
<path fill="none" stroke="#63b8ff" d="M1270.35,-66.05C1270.24,-66.03 1270.12,-66.02 1270,-66 1008.3,-30.9 939.1,-61.98 677,-30 666.48,-28.72 655.21,-26.89 644.67,-24.98"/>
<polygon fill="#63b8ff" stroke="#63b8ff" points="1269.62,-69.48 1280.04,-67.53 1270.69,-62.56 1269.62,-69.48"/>
</g>
<!-- Node20 -->
<g id="node13" class="node">
<title>Node20</title>
<g id="a_node13"><a xlink:href="d__menu__window_8cpp.html" target="_top" xlink:title=" ">
<polygon fill="white" stroke="#666666" points="845.5,-24.5 686.5,-24.5 686.5,-5.5 845.5,-5.5 845.5,-24.5"/>
<text text-anchor="middle" x="766" y="-12.5" font-family="Helvetica,sans-Serif" font-size="10.00">src/d/menu/d_menu_window.cpp</text>
</a>
</g>
</g>
<!-- Node13&#45;&gt;Node20 -->
<g id="edge16" class="edge">
<title>Node13&#45;&gt;Node20</title>
<path fill="none" stroke="#63b8ff" d="M1270.35,-66.05C1270.24,-66.03 1270.12,-66.02 1270,-66 1086.84,-39.02 1038.78,-52.4 855,-30 843.36,-28.58 830.89,-26.79 819.1,-24.97"/>
<polygon fill="#63b8ff" stroke="#63b8ff" points="1269.59,-69.47 1280.03,-67.63 1270.72,-62.57 1269.59,-69.47"/>
</g>
<!-- Node21 -->
<g id="node14" class="node">
<title>Node21</title>
<g id="a_node14"><a xlink:href="d__meter2__draw_8cpp.html" target="_top" xlink:title=" ">
<polygon fill="white" stroke="#666666" points="974,-30 864,-30 864,0 974,0 974,-30"/>
<text text-anchor="start" x="872" y="-18" font-family="Helvetica,sans-Serif" font-size="10.00">src/d/meter/d_meter2</text>
<text text-anchor="middle" x="919" y="-7" font-family="Helvetica,sans-Serif" font-size="10.00">_draw.cpp</text>
</a>
</g>
</g>
<!-- Node13&#45;&gt;Node21 -->
<g id="edge17" class="edge">
<title>Node13&#45;&gt;Node21</title>
<path fill="none" stroke="#63b8ff" d="M1270.73,-66.12C1270.48,-66.08 1270.24,-66.04 1270,-66 1143.2,-44.84 1109.7,-51.76 983,-30 980.2,-29.52 977.33,-29 974.44,-28.45"/>
<polygon fill="#63b8ff" stroke="#63b8ff" points="1269.91,-69.53 1280.37,-67.84 1271.14,-62.64 1269.91,-69.53"/>
</g>
<!-- Node22 -->
<g id="node15" class="node">
<title>Node22</title>
<g id="a_node15"><a xlink:href="d__meter2__info_8cpp.html" target="_top" xlink:title=" ">
<polygon fill="white" stroke="#666666" points="1102,-30 992,-30 992,0 1102,0 1102,-30"/>
<text text-anchor="start" x="1000" y="-18" font-family="Helvetica,sans-Serif" font-size="10.00">src/d/meter/d_meter2</text>
<text text-anchor="middle" x="1047" y="-7" font-family="Helvetica,sans-Serif" font-size="10.00">_info.cpp</text>
</a>
</g>
</g>
<!-- Node13&#45;&gt;Node22 -->
<g id="edge18" class="edge">
<title>Node13&#45;&gt;Node22</title>
<path fill="none" stroke="#63b8ff" d="M1270.53,-65.33C1219.52,-54.07 1149.94,-38.72 1102.02,-28.14"/>
<polygon fill="#63b8ff" stroke="#63b8ff" points="1269.77,-68.75 1280.29,-67.49 1271.28,-61.91 1269.77,-68.75"/>
</g>
<!-- Node23 -->
<g id="node16" class="node">
<title>Node23</title>
<g id="a_node16"><a xlink:href="d__meter__map_8cpp.html" target="_top" xlink:title=" ">
<polygon fill="white" stroke="#666666" points="1224,-30 1120,-30 1120,0 1224,0 1224,-30"/>
<text text-anchor="start" x="1128" y="-18" font-family="Helvetica,sans-Serif" font-size="10.00">src/d/meter/d_meter</text>
<text text-anchor="middle" x="1172" y="-7" font-family="Helvetica,sans-Serif" font-size="10.00">_map.cpp</text>
</a>
</g>
</g>
<!-- Node13&#45;&gt;Node23 -->
<g id="edge19" class="edge">
<title>Node13&#45;&gt;Node23</title>
<path fill="none" stroke="#63b8ff" d="M1289.41,-61.54C1263.89,-51.64 1232.92,-39.63 1209.19,-30.43"/>
<polygon fill="#63b8ff" stroke="#63b8ff" points="1287.97,-64.74 1298.56,-65.09 1290.5,-58.21 1287.97,-64.74"/>
</g>
<!-- Node24 -->
<g id="node17" class="node">
<title>Node24</title>
<g id="a_node17"><a xlink:href="d__msg__flow_8cpp.html" target="_top" xlink:title=" ">
<polygon fill="white" stroke="#666666" points="1375.5,-24.5 1242.5,-24.5 1242.5,-5.5 1375.5,-5.5 1375.5,-24.5"/>
<text text-anchor="middle" x="1309" y="-12.5" font-family="Helvetica,sans-Serif" font-size="10.00">src/d/msg/d_msg_flow.cpp</text>
</a>
</g>
</g>
<!-- Node13&#45;&gt;Node24 -->
<g id="edge20" class="edge">
<title>Node13&#45;&gt;Node24</title>
<path fill="none" stroke="#63b8ff" d="M1326.18,-55.27C1321.49,-44.55 1316.3,-32.7 1312.87,-24.84"/>
<polygon fill="#63b8ff" stroke="#63b8ff" points="1322.96,-56.65 1330.18,-64.41 1329.38,-53.85 1322.96,-56.65"/>
</g>
<!-- Node25 -->
<g id="node18" class="node">
<title>Node25</title>
<g id="a_node18"><a xlink:href="d__msg__object_8cpp.html" target="_top" xlink:title=" ">
<polygon fill="white" stroke="#666666" points="1536,-24.5 1394,-24.5 1394,-5.5 1536,-5.5 1536,-24.5"/>
<text text-anchor="middle" x="1465" y="-12.5" font-family="Helvetica,sans-Serif" font-size="10.00">src/d/msg/d_msg_object.cpp</text>
</a>
</g>
</g>
<!-- Node13&#45;&gt;Node25 -->
<g id="edge21" class="edge">
<title>Node13&#45;&gt;Node25</title>
<path fill="none" stroke="#63b8ff" d="M1375.82,-60.59C1399.5,-48.75 1428.64,-34.18 1447.03,-24.99"/>
<polygon fill="#63b8ff" stroke="#63b8ff" points="1374.46,-57.36 1367.08,-64.96 1377.59,-63.62 1374.46,-57.36"/>
</g>
<!-- Node26 -->
<g id="node19" class="node">
<title>Node26</title>
<g id="a_node19"><a xlink:href="d__msg__out__font_8cpp.html" target="_top" xlink:title=" ">
<polygon fill="white" stroke="#666666" points="1665.5,-30 1554.5,-30 1554.5,0 1665.5,0 1665.5,-30"/>
<text text-anchor="start" x="1562.5" y="-18" font-family="Helvetica,sans-Serif" font-size="10.00">src/d/msg/d_msg_out</text>
<text text-anchor="middle" x="1610" y="-7" font-family="Helvetica,sans-Serif" font-size="10.00">_font.cpp</text>
</a>
</g>
</g>
<!-- Node13&#45;&gt;Node26 -->
<g id="edge22" class="edge">
<title>Node13&#45;&gt;Node26</title>
<path fill="none" stroke="#63b8ff" d="M1403.37,-64.44C1449.63,-53.59 1510.65,-39.29 1554.37,-29.04"/>
<polygon fill="#63b8ff" stroke="#63b8ff" points="1402.66,-61.01 1393.72,-66.7 1404.25,-67.83 1402.66,-61.01"/>
</g>
<!-- Node27 -->
<g id="node20" class="node">
<title>Node27</title>
<g id="a_node20"><a xlink:href="d__shop__system_8cpp.html" target="_top" xlink:title=" ">
<polygon fill="white" stroke="#666666" points="1836,-24.5 1684,-24.5 1684,-5.5 1836,-5.5 1836,-24.5"/>
<text text-anchor="middle" x="1760" y="-12.5" font-family="Helvetica,sans-Serif" font-size="10.00">src/d/shop/d_shop_system.cpp</text>
</a>
</g>
</g>
<!-- Node13&#45;&gt;Node27 -->
<g id="edge24" class="edge">
<title>Node13&#45;&gt;Node27</title>
<path fill="none" stroke="#63b8ff" d="M1403.27,-66.12C1403.52,-66.08 1403.76,-66.04 1404,-66 1523.77,-45.56 1554.82,-47.88 1675,-30 1685.36,-28.46 1696.4,-26.72 1706.99,-24.99"/>
<polygon fill="#63b8ff" stroke="#63b8ff" points="1402.85,-62.64 1393.64,-67.87 1404.1,-69.53 1402.85,-62.64"/>
</g>
<!-- Node28 -->
<g id="node21" class="node">
<title>Node28</title>
<g id="a_node21"><a xlink:href="f__op__msg__mng_8cpp.html" target="_top" xlink:title=" ">
<polygon fill="white" stroke="#666666" points="140,-24.5 0,-24.5 0,-5.5 140,-5.5 140,-24.5"/>
<text text-anchor="middle" x="70" y="-12.5" font-family="Helvetica,sans-Serif" font-size="10.00">src/f_op/f_op_msg_mng.cpp</text>
</a>
</g>
</g>
<!-- Node13&#45;&gt;Node28 -->
<g id="edge25" class="edge">
<title>Node13&#45;&gt;Node28</title>
<path fill="none" stroke="#63b8ff" d="M1270.35,-66.04C1270.24,-66.03 1270.12,-66.01 1270,-66 775.05,-6.8 644.8,-81.62 149,-30 137.64,-28.82 125.45,-26.96 114.13,-24.97"/>
<polygon fill="#63b8ff" stroke="#63b8ff" points="1269.66,-69.48 1280.05,-67.43 1270.65,-62.55 1269.66,-69.48"/>
</g>
<!-- Node29 -->
<g id="node22" class="node">
<title>Node29</title>
<g id="a_node22"><a xlink:href="d__msg__scrn__base_8cpp.html" target="_top" xlink:title=" ">
<polygon fill="white" stroke="#666666" points="264,-30 158,-30 158,0 264,0 264,-30"/>
<text text-anchor="start" x="166" y="-18" font-family="Helvetica,sans-Serif" font-size="10.00">src/msg/scrn/d_msg</text>
<text text-anchor="middle" x="211" y="-7" font-family="Helvetica,sans-Serif" font-size="10.00">_scrn_base.cpp</text>
</a>
</g>
</g>
<!-- Node13&#45;&gt;Node29 -->
<g id="edge26" class="edge">
<title>Node13&#45;&gt;Node29</title>
<path fill="none" stroke="#63b8ff" d="M1270.35,-66.04C1270.24,-66.03 1270.12,-66.01 1270,-66 829.84,-12.46 712.71,-87.08 273,-30 270.15,-29.63 267.25,-29.19 264.32,-28.7"/>
<polygon fill="#63b8ff" stroke="#63b8ff" points="1269.65,-69.48 1280.05,-67.44 1270.65,-62.55 1269.65,-69.48"/>
</g>
<!-- Node30 -->
<g id="node23" class="node">
<title>Node30</title>
<g id="a_node23"><a xlink:href="d__msg__scrn__boss_8cpp.html" target="_top" xlink:title=" ">
<polygon fill="white" stroke="#666666" points="388,-30 282,-30 282,0 388,0 388,-30"/>
<text text-anchor="start" x="290" y="-18" font-family="Helvetica,sans-Serif" font-size="10.00">src/msg/scrn/d_msg</text>
<text text-anchor="middle" x="335" y="-7" font-family="Helvetica,sans-Serif" font-size="10.00">_scrn_boss.cpp</text>
</a>
</g>
</g>
<!-- Node13&#45;&gt;Node30 -->
<g id="edge27" class="edge">
<title>Node13&#45;&gt;Node30</title>
<path fill="none" stroke="#63b8ff" d="M1270.35,-66.04C1270.24,-66.03 1270.12,-66.01 1270,-66 884.63,-18.12 781.97,-80.98 397,-30 394.16,-29.62 391.25,-29.18 388.32,-28.68"/>
<polygon fill="#63b8ff" stroke="#63b8ff" points="1269.65,-69.48 1280.05,-67.46 1270.66,-62.55 1269.65,-69.48"/>
</g>
<!-- Node35 -->
<g id="node28" class="node">
<title>Node35</title>
<g id="a_node28"><a xlink:href="jstudio-control_8h.html" target="_top" xlink:title=" ">
<polygon fill="white" stroke="#666666" points="2058.5,-294 1933.5,-294 1933.5,-264 2058.5,-264 2058.5,-294"/>
<text text-anchor="start" x="1941.5" y="-282" font-family="Helvetica,sans-Serif" font-size="10.00">include/JSystem/JStudio</text>
<text text-anchor="middle" x="1996" y="-271" font-family="Helvetica,sans-Serif" font-size="10.00">/JStudio/jstudio&#45;control.h</text>
</a>
</g>
</g>
<!-- Node34&#45;&gt;Node35 -->
<g id="edge34" class="edge">
<title>Node34&#45;&gt;Node35</title>
<path fill="none" stroke="#63b8ff" d="M1906.13,-324.59C1925.77,-314.84 1949.16,-303.24 1967.15,-294.31"/>
<polygon fill="#63b8ff" stroke="#63b8ff" points="1904.71,-321.38 1897.31,-328.96 1907.82,-327.66 1904.71,-321.38"/>
</g>
<!-- Node36 -->
<g id="node29" class="node">
<title>Node36</title>
<g id="a_node29"><a xlink:href="jstudio-object_8h.html" target="_top" xlink:title=" ">
<polygon fill="white" stroke="#666666" points="1982.5,-228 1857.5,-228 1857.5,-198 1982.5,-198 1982.5,-228"/>
<text text-anchor="start" x="1865.5" y="-216" font-family="Helvetica,sans-Serif" font-size="10.00">include/JSystem/JStudio</text>
<text text-anchor="middle" x="1920" y="-205" font-family="Helvetica,sans-Serif" font-size="10.00">/JStudio/jstudio&#45;object.h</text>
</a>
</g>
</g>
<!-- Node34&#45;&gt;Node36 -->
<g id="edge43" class="edge">
<title>Node34&#45;&gt;Node36</title>
<path fill="none" stroke="#63b8ff" d="M1872.98,-318.63C1877.15,-302.62 1883.33,-281.71 1891,-264 1896.42,-251.48 1904.27,-238.15 1910.43,-228.4"/>
<polygon fill="#63b8ff" stroke="#63b8ff" points="1869.59,-317.75 1870.56,-328.31 1876.39,-319.45 1869.59,-317.75"/>
</g>
<!-- Node60 -->
<g id="node35" class="node">
<title>Node60</title>
<g id="a_node35"><a xlink:href="ctb-data_8cpp.html" target="_top" xlink:title=" ">
<polygon fill="white" stroke="#666666" points="1711.5,-294 1602.5,-294 1602.5,-264 1711.5,-264 1711.5,-294"/>
<text text-anchor="start" x="1610.5" y="-282" font-family="Helvetica,sans-Serif" font-size="10.00">libs/JSystem/JStudio</text>
<text text-anchor="middle" x="1657" y="-271" font-family="Helvetica,sans-Serif" font-size="10.00">/JStudio/ctb&#45;data.cpp</text>
</a>
</g>
</g>
<!-- Node34&#45;&gt;Node60 -->
<g id="edge44" class="edge">
<title>Node34&#45;&gt;Node60</title>
<path fill="none" stroke="#63b8ff" d="M1808.76,-326.25C1775.82,-316.21 1735.16,-303.82 1704.22,-294.39"/>
<polygon fill="#63b8ff" stroke="#63b8ff" points="1807.58,-329.55 1818.16,-329.12 1809.62,-322.85 1807.58,-329.55"/>
</g>
<!-- Node61 -->
<g id="node36" class="node">
<title>Node61</title>
<g id="a_node36"><a xlink:href="ctb_8cpp.html" target="_top" xlink:title=" ">
<polygon fill="white" stroke="#666666" points="1838.5,-294 1729.5,-294 1729.5,-264 1838.5,-264 1838.5,-294"/>
<text text-anchor="start" x="1737.5" y="-282" font-family="Helvetica,sans-Serif" font-size="10.00">libs/JSystem/JStudio</text>
<text text-anchor="middle" x="1784" y="-271" font-family="Helvetica,sans-Serif" font-size="10.00">/JStudio/ctb.cpp</text>
</a>
</g>
</g>
<!-- Node34&#45;&gt;Node61 -->
<g id="edge45" class="edge">
<title>Node34&#45;&gt;Node61</title>
<path fill="none" stroke="#63b8ff" d="M1839.73,-322.97C1827.58,-313.61 1813.58,-302.81 1802.66,-294.39"/>
<polygon fill="#63b8ff" stroke="#63b8ff" points="1837.32,-325.54 1847.38,-328.87 1841.6,-319.99 1837.32,-325.54"/>
</g>
<!-- Node35&#45;&gt;Node36 -->
<g id="edge35" class="edge">
<title>Node35&#45;&gt;Node36</title>
<path fill="none" stroke="#63b8ff" d="M1970.38,-256.42C1959.41,-247.18 1946.89,-236.65 1937.08,-228.39"/>
<polygon fill="#63b8ff" stroke="#63b8ff" points="1968.07,-259.06 1977.98,-262.82 1972.58,-253.7 1968.07,-259.06"/>
</g>
<!-- Node59 -->
<g id="node34" class="node">
<title>Node59</title>
<g id="a_node34"><a xlink:href="jstudio-control_8cpp.html" target="_top" xlink:title=" ">
<polygon fill="white" stroke="#666666" points="2135,-228 2001,-228 2001,-198 2135,-198 2135,-228"/>
<text text-anchor="start" x="2009" y="-216" font-family="Helvetica,sans-Serif" font-size="10.00">libs/JSystem/JStudio</text>
<text text-anchor="middle" x="2068" y="-205" font-family="Helvetica,sans-Serif" font-size="10.00">/JStudio/jstudio&#45;control.cpp</text>
</a>
</g>
</g>
<!-- Node35&#45;&gt;Node59 -->
<g id="edge42" class="edge">
<title>Node35&#45;&gt;Node59</title>
<path fill="none" stroke="#63b8ff" d="M2020.28,-256.42C2030.67,-247.18 2042.52,-236.65 2051.82,-228.39"/>
<polygon fill="#63b8ff" stroke="#63b8ff" points="2018.26,-253.53 2013.11,-262.79 2022.91,-258.76 2018.26,-253.53"/>
</g>
<!-- Node36&#45;&gt;Node4 -->
<g id="edge40" class="edge">
<title>Node36&#45;&gt;Node4</title>
<path fill="none" stroke="#63b8ff" d="M1983.72,-193.04C1999.5,-185.63 2015.01,-175.54 2026,-162 2043.18,-140.83 2045.3,-106.72 2045.27,-90.76"/>
<polygon fill="#63b8ff" stroke="#63b8ff" points="1982.52,-189.74 1974.74,-196.94 1985.31,-196.17 1982.52,-189.74"/>
</g>
<!-- Node37 -->
<g id="node30" class="node">
<title>Node37</title>
<g id="a_node30"><a xlink:href="JStudio_2JStudio__JAudio2_2control_8h.html" target="_top" xlink:title=" ">
<polygon fill="#fff0f0" stroke="red" points="2016.5,-162 1883.5,-162 1883.5,-132 2016.5,-132 2016.5,-162"/>
<text text-anchor="start" x="1891.5" y="-150" font-family="Helvetica,sans-Serif" font-size="10.00">include/JSystem/JStudio</text>
<text text-anchor="middle" x="1950" y="-139" font-family="Helvetica,sans-Serif" font-size="10.00">/JStudio_JAudio2/control.h</text>
</a>
</g>
</g>
<!-- Node36&#45;&gt;Node37 -->
<g id="edge36" class="edge">
<title>Node36&#45;&gt;Node37</title>
<path fill="none" stroke="#63b8ff" d="M1931.47,-187.54C1935.49,-178.96 1939.87,-169.61 1943.36,-162.16"/>
<polygon fill="#63b8ff" stroke="#63b8ff" points="1928.38,-185.89 1927.3,-196.43 1934.71,-188.86 1928.38,-185.89"/>
</g>
<!-- Node40 -->
<g id="node31" class="node">
<title>Node40</title>
<g id="a_node31"><a xlink:href="JStudio_2JStudio__JParticle_2control_8h.html" target="_top" xlink:title=" ">
<polygon fill="#fff0f0" stroke="red" points="2209,-162 2073,-162 2073,-132 2209,-132 2209,-162"/>
<text text-anchor="start" x="2081" y="-150" font-family="Helvetica,sans-Serif" font-size="10.00">include/JSystem/JStudio</text>
<text text-anchor="middle" x="2141" y="-139" font-family="Helvetica,sans-Serif" font-size="10.00">/JStudio_JParticle/control.h</text>
</a>
</g>
</g>
<!-- Node36&#45;&gt;Node40 -->
<g id="edge38" class="edge">
<title>Node36&#45;&gt;Node40</title>
<path fill="none" stroke="#63b8ff" d="M1980.84,-194.38C2015.59,-184.32 2058.61,-171.86 2091.31,-162.39"/>
<polygon fill="#63b8ff" stroke="#63b8ff" points="1979.96,-190.99 1971.33,-197.14 1981.91,-197.72 1979.96,-190.99"/>
</g>
<!-- Node44 -->
<g id="node32" class="node">
<title>Node44</title>
<g id="a_node32"><a xlink:href="JStudio_2JStudio__JStage_2control_8h.html" target="_top" xlink:title=" ">
<polygon fill="#fff0f0" stroke="red" points="1716,-162 1588,-162 1588,-132 1716,-132 1716,-162"/>
<text text-anchor="start" x="1596" y="-150" font-family="Helvetica,sans-Serif" font-size="10.00">include/JSystem/JStudio</text>
<text text-anchor="middle" x="1652" y="-139" font-family="Helvetica,sans-Serif" font-size="10.00">/JStudio_JStage/control.h</text>
</a>
</g>
</g>
<!-- Node36&#45;&gt;Node44 -->
<g id="edge39" class="edge">
<title>Node36&#45;&gt;Node44</title>
<path fill="none" stroke="#63b8ff" d="M1848.4,-194.9C1805.89,-184.75 1752.6,-172.02 1712.26,-162.39"/>
<polygon fill="#63b8ff" stroke="#63b8ff" points="1847.51,-198.29 1858.05,-197.21 1849.14,-191.48 1847.51,-198.29"/>
</g>
<!-- Node58 -->
<g id="node33" class="node">
<title>Node58</title>
<g id="a_node33"><a xlink:href="jstudio-object_8cpp.html" target="_top" xlink:title=" ">
<polygon fill="white" stroke="#666666" points="1865.5,-162 1734.5,-162 1734.5,-132 1865.5,-132 1865.5,-162"/>
<text text-anchor="start" x="1742.5" y="-150" font-family="Helvetica,sans-Serif" font-size="10.00">libs/JSystem/JStudio</text>
<text text-anchor="middle" x="1800" y="-139" font-family="Helvetica,sans-Serif" font-size="10.00">/JStudio/jstudio&#45;object.cpp</text>
</a>
</g>
</g>
<!-- Node36&#45;&gt;Node58 -->
<g id="edge41" class="edge">
<title>Node36&#45;&gt;Node58</title>
<path fill="none" stroke="#63b8ff" d="M1883.1,-192.32C1864.93,-182.63 1843.42,-171.16 1826.84,-162.31"/>
<polygon fill="#63b8ff" stroke="#63b8ff" points="1881.26,-195.31 1891.73,-196.92 1884.56,-189.13 1881.26,-195.31"/>
</g>
<!-- Node37&#45;&gt;Node4 -->
<g id="edge37" class="edge">
<title>Node37&#45;&gt;Node4</title>
<path fill="none" stroke="#63b8ff" d="M1980.3,-125.58C1997.69,-113.87 2018.62,-99.77 2031.87,-90.84"/>
<polygon fill="#63b8ff" stroke="#63b8ff" points="1978.68,-122.46 1972.34,-130.95 1982.59,-128.27 1978.68,-122.46"/>
</g>
<!-- Node62&#45;&gt;Node35 -->
<g id="edge47" class="edge">
<title>Node62&#45;&gt;Node35</title>
<path fill="none" stroke="#63b8ff" d="M2023.77,-320.39C2017.72,-311.59 2011.03,-301.86 2005.74,-294.16"/>
<polygon fill="#63b8ff" stroke="#63b8ff" points="2020.83,-322.29 2029.38,-328.55 2026.6,-318.33 2020.83,-322.29"/>
</g>
<!-- Node62&#45;&gt;Node36 -->
<g id="edge48" class="edge">
<title>Node62&#45;&gt;Node36</title>
<path fill="none" stroke="#63b8ff" d="M1967.03,-326.36C1950.73,-319 1935.25,-308.61 1925,-294 1911.42,-274.63 1913.67,-245.71 1916.72,-228.46"/>
<polygon fill="#63b8ff" stroke="#63b8ff" points="1965.28,-329.42 1975.86,-329.99 1967.94,-322.94 1965.28,-329.42"/>
</g>
<!-- Node63 -->
<g id="node38" class="node">
<title>Node63</title>
<g id="a_node38"><a xlink:href="fvb_8cpp.html" target="_top" xlink:title=" ">
<polygon fill="white" stroke="#666666" points="2185.5,-294 2076.5,-294 2076.5,-264 2185.5,-264 2185.5,-294"/>
<text text-anchor="start" x="2084.5" y="-282" font-family="Helvetica,sans-Serif" font-size="10.00">libs/JSystem/JStudio</text>
<text text-anchor="middle" x="2131" y="-271" font-family="Helvetica,sans-Serif" font-size="10.00">/JStudio/fvb.cpp</text>
</a>
</g>
</g>
<!-- Node62&#45;&gt;Node63 -->
<g id="edge49" class="edge">
<title>Node62&#45;&gt;Node63</title>
<path fill="none" stroke="#63b8ff" d="M2069.5,-323.25C2082.91,-313.82 2098.45,-302.9 2110.55,-294.39"/>
<polygon fill="#63b8ff" stroke="#63b8ff" points="2067.6,-320.31 2061.43,-328.93 2071.63,-326.04 2067.6,-320.31"/>
</g>
<!-- Node64&#45;&gt;Node5 -->
<g id="edge54" class="edge">
<title>Node64&#45;&gt;Node5</title>
<path fill="none" stroke="#63b8ff" d="M2225.78,-319.29C2236.94,-293.59 2252,-251.89 2252,-214 2252,-214 2252,-214 2252,-146 2252,-99.44 2270.49,-45.85 2278.44,-24.98"/>
<polygon fill="#63b8ff" stroke="#63b8ff" points="2222.68,-317.65 2221.77,-328.21 2229.07,-320.53 2222.68,-317.65"/>
</g>
<!-- Node64&#45;&gt;Node35 -->
<g id="edge51" class="edge">
<title>Node64&#45;&gt;Node35</title>
<path fill="none" stroke="#63b8ff" d="M2153.99,-326.38C2119.71,-316.32 2077.27,-303.86 2045.02,-294.39"/>
<polygon fill="#63b8ff" stroke="#63b8ff" points="2152.77,-329.67 2163.35,-329.13 2154.74,-322.96 2152.77,-329.67"/>
</g>
<!-- Node64&#45;&gt;Node36 -->
<g id="edge52" class="edge">
<title>Node64&#45;&gt;Node36</title>
<path fill="none" stroke="#63b8ff" d="M2214.8,-318.27C2213.89,-300.54 2209.59,-277.77 2195,-264 2128.37,-201.1 2082.09,-244.75 1992,-228 1989,-227.44 1985.92,-226.86 1982.82,-226.28"/>
<polygon fill="#63b8ff" stroke="#63b8ff" points="2211.29,-318.11 2214.94,-328.06 2218.29,-318.01 2211.29,-318.11"/>
</g>
<!-- Node65 -->
<g id="node40" class="node">
<title>Node65</title>
<g id="a_node40"><a xlink:href="stb_8cpp.html" target="_top" xlink:title=" ">
<polygon fill="white" stroke="#666666" points="2389.5,-294 2280.5,-294 2280.5,-264 2389.5,-264 2389.5,-294"/>
<text text-anchor="start" x="2288.5" y="-282" font-family="Helvetica,sans-Serif" font-size="10.00">libs/JSystem/JStudio</text>
<text text-anchor="middle" x="2335" y="-271" font-family="Helvetica,sans-Serif" font-size="10.00">/JStudio/stb.cpp</text>
</a>
</g>
</g>
<!-- Node64&#45;&gt;Node65 -->
<g id="edge53" class="edge">
<title>Node64&#45;&gt;Node65</title>
<path fill="none" stroke="#63b8ff" d="M2251.21,-324.32C2269.53,-314.63 2291.22,-303.16 2307.94,-294.31"/>
<polygon fill="#63b8ff" stroke="#63b8ff" points="2249.7,-321.16 2242.49,-328.93 2252.97,-327.35 2249.7,-321.16"/>
</g>
<!-- Node66&#45;&gt;Node11 -->
<g id="edge64" class="edge">
<title>Node66&#45;&gt;Node11</title>
<path fill="none" stroke="#63b8ff" d="M2701.16,-320.34C2696.02,-312.28 2690.75,-303.02 2687,-294 2672.97,-260.26 2668,-250.54 2668,-214 2668,-214 2668,-214 2668,-146 2668,-54.4 2537.31,-27.34 2461.24,-19.35"/>
<polygon fill="#63b8ff" stroke="#63b8ff" points="2698.17,-322.16 2706.63,-328.54 2703.99,-318.27 2698.17,-322.16"/>
</g>
<!-- Node67 -->
<g id="node42" class="node">
<title>Node67</title>
<g id="a_node42"><a xlink:href="JFWSystem_8h.html" target="_top" xlink:title=" ">
<polygon fill="#fff0f0" stroke="red" points="2842,-294 2696,-294 2696,-264 2842,-264 2842,-294"/>
<text text-anchor="start" x="2704" y="-282" font-family="Helvetica,sans-Serif" font-size="10.00">include/JSystem/JFramework</text>
<text text-anchor="middle" x="2769" y="-271" font-family="Helvetica,sans-Serif" font-size="10.00">/JFWSystem.h</text>
</a>
</g>
</g>
<!-- Node66&#45;&gt;Node67 -->
<g id="edge56" class="edge">
<title>Node66&#45;&gt;Node67</title>
<path fill="none" stroke="#63b8ff" d="M2736.36,-320.96C2743.5,-312 2751.45,-302.03 2757.71,-294.16"/>
<polygon fill="#63b8ff" stroke="#63b8ff" points="2733.76,-318.61 2730.26,-328.61 2739.23,-322.97 2733.76,-318.61"/>
</g>
<!-- Node71 -->
<g id="node44" class="node">
<title>Node71</title>
<g id="a_node44"><a xlink:href="m__Do__machine__exception_8cpp.html" target="_top" xlink:title=" ">
<polygon fill="white" stroke="#666666" points="2973.5,-228 2844.5,-228 2844.5,-198 2973.5,-198 2973.5,-228"/>
<text text-anchor="start" x="2852.5" y="-216" font-family="Helvetica,sans-Serif" font-size="10.00">src/m_Do/m_Do_machine</text>
<text text-anchor="middle" x="2909" y="-205" font-family="Helvetica,sans-Serif" font-size="10.00">_exception.cpp</text>
</a>
</g>
</g>
<!-- Node66&#45;&gt;Node71 -->
<g id="edge65" class="edge">
<title>Node66&#45;&gt;Node71</title>
<path fill="none" stroke="#63b8ff" d="M2788.74,-325.98C2810.1,-318.37 2832.71,-307.95 2851,-294 2874.46,-276.11 2892.58,-246.14 2901.94,-228.41"/>
<polygon fill="#63b8ff" stroke="#63b8ff" points="2787.83,-322.59 2779.48,-329.12 2790.08,-329.22 2787.83,-322.59"/>
</g>
<!-- Node73 -->
<g id="node45" class="node">
<title>Node73</title>
<g id="a_node45"><a xlink:href="m__Do__machine_8h.html" target="_top" xlink:title=" ">
<polygon fill="#fff0f0" stroke="red" points="3052,-288.5 2898,-288.5 2898,-269.5 3052,-269.5 3052,-288.5"/>
<text text-anchor="middle" x="2975" y="-276.5" font-family="Helvetica,sans-Serif" font-size="10.00">include/m_Do/m_Do_machine.h</text>
</a>
</g>
</g>
<!-- Node66&#45;&gt;Node73 -->
<g id="edge59" class="edge">
<title>Node66&#45;&gt;Node73</title>
<path fill="none" stroke="#63b8ff" d="M2787.15,-326.78C2836.11,-314.59 2899.79,-298.73 2939.01,-288.96"/>
<polygon fill="#63b8ff" stroke="#63b8ff" points="2786.32,-323.38 2777.46,-329.19 2788.01,-330.17 2786.32,-323.38"/>
</g>
<!-- Node76 -->
<g id="node46" class="node">
<title>Node76</title>
<g id="a_node46"><a xlink:href="JFWDisplay_8cpp.html" target="_top" xlink:title=" ">
<polygon fill="white" stroke="#666666" points="3200,-294 3070,-294 3070,-264 3200,-264 3200,-294"/>
<text text-anchor="start" x="3078" y="-282" font-family="Helvetica,sans-Serif" font-size="10.00">libs/JSystem/JFramework</text>
<text text-anchor="middle" x="3135" y="-271" font-family="Helvetica,sans-Serif" font-size="10.00">/JFWDisplay.cpp</text>
</a>
</g>
</g>
<!-- Node66&#45;&gt;Node76 -->
<g id="edge60" class="edge">
<title>Node66&#45;&gt;Node76</title>
<path fill="none" stroke="#63b8ff" d="M2790.34,-329.86C2911.23,-310.36 2944.13,-312.77 3061,-294 3063.84,-293.54 3066.74,-293.06 3069.66,-292.56"/>
<polygon fill="#63b8ff" stroke="#63b8ff" points="2789.95,-326.38 2780.64,-331.44 2791.07,-333.29 2789.95,-326.38"/>
</g>
<!-- Node77 -->
<g id="node47" class="node">
<title>Node77</title>
<g id="a_node47"><a xlink:href="JUTConsole_8cpp.html" target="_top" xlink:title=" ">
<polygon fill="white" stroke="#666666" points="3324,-294 3218,-294 3218,-264 3324,-264 3324,-294"/>
<text text-anchor="start" x="3226" y="-282" font-family="Helvetica,sans-Serif" font-size="10.00">libs/JSystem/JUtility</text>
<text text-anchor="middle" x="3271" y="-271" font-family="Helvetica,sans-Serif" font-size="10.00">/JUTConsole.cpp</text>
</a>
</g>
</g>
<!-- Node66&#45;&gt;Node77 -->
<g id="edge61" class="edge">
<title>Node66&#45;&gt;Node77</title>
<path fill="none" stroke="#63b8ff" d="M2790.4,-329.94C2976.49,-304.56 3027.48,-322.14 3209,-294 3211.84,-293.56 3214.73,-293.07 3217.65,-292.53"/>
<polygon fill="#63b8ff" stroke="#63b8ff" points="2790.04,-326.46 2780.62,-331.3 2791,-333.39 2790.04,-326.46"/>
</g>
<!-- Node78 -->
<g id="node48" class="node">
<title>Node78</title>
<g id="a_node48"><a xlink:href="JUTException_8cpp.html" target="_top" xlink:title=" ">
<polygon fill="white" stroke="#666666" points="2514,-294 2408,-294 2408,-264 2514,-264 2514,-294"/>
<text text-anchor="start" x="2416" y="-282" font-family="Helvetica,sans-Serif" font-size="10.00">libs/JSystem/JUtility</text>
<text text-anchor="middle" x="2461" y="-271" font-family="Helvetica,sans-Serif" font-size="10.00">/JUTException.cpp</text>
</a>
</g>
</g>
<!-- Node66&#45;&gt;Node78 -->
<g id="edge62" class="edge">
<title>Node66&#45;&gt;Node78</title>
<path fill="none" stroke="#63b8ff" d="M2648.96,-326.81C2606.7,-316.28 2553.43,-303.02 2514.4,-293.3"/>
<polygon fill="#63b8ff" stroke="#63b8ff" points="2647.99,-330.17 2658.54,-329.19 2649.68,-323.38 2647.99,-330.17"/>
</g>
<!-- Node79 -->
<g id="node49" class="node">
<title>Node79</title>
<g id="a_node49"><a xlink:href="DynamicLink_8cpp.html" target="_top" xlink:title=" ">
<polygon fill="white" stroke="#666666" points="2639.5,-288.5 2532.5,-288.5 2532.5,-269.5 2639.5,-269.5 2639.5,-288.5"/>
<text text-anchor="middle" x="2586" y="-276.5" font-family="Helvetica,sans-Serif" font-size="10.00">src/DynamicLink.cpp</text>
</a>
</g>
</g>
<!-- Node66&#45;&gt;Node79 -->
<g id="edge63" class="edge">
<title>Node66&#45;&gt;Node79</title>
<path fill="none" stroke="#63b8ff" d="M2678.29,-324.75C2653.82,-312.88 2623.58,-298.22 2604.53,-288.99"/>
<polygon fill="#63b8ff" stroke="#63b8ff" points="2676.49,-327.76 2687.01,-328.98 2679.54,-321.46 2676.49,-327.76"/>
</g>
<!-- Node68 -->
<g id="node43" class="node">
<title>Node68</title>
<g id="a_node43"><a xlink:href="JFWSystem_8cpp.html" target="_top" xlink:title=" ">
<polygon fill="white" stroke="#666666" points="2826,-228 2696,-228 2696,-198 2826,-198 2826,-228"/>
<text text-anchor="start" x="2704" y="-216" font-family="Helvetica,sans-Serif" font-size="10.00">libs/JSystem/JFramework</text>
<text text-anchor="middle" x="2761" y="-205" font-family="Helvetica,sans-Serif" font-size="10.00">/JFWSystem.cpp</text>
</a>
</g>
</g>
<!-- Node67&#45;&gt;Node68 -->
<g id="edge57" class="edge">
<title>Node67&#45;&gt;Node68</title>
<path fill="none" stroke="#63b8ff" d="M2765.8,-252.39C2764.77,-244.13 2763.66,-235.28 2762.77,-228.16"/>
<polygon fill="#63b8ff" stroke="#63b8ff" points="2762.32,-252.81 2767.04,-262.29 2769.27,-251.94 2762.32,-252.81"/>
</g>
<!-- Node67&#45;&gt;Node71 -->
<g id="edge58" class="edge">
<title>Node67&#45;&gt;Node71</title>
<path fill="none" stroke="#63b8ff" d="M2810.88,-258.86C2832.32,-249.05 2857.98,-237.32 2877.69,-228.31"/>
<polygon fill="#63b8ff" stroke="#63b8ff" points="2809.43,-255.67 2801.8,-263.01 2812.35,-262.03 2809.43,-255.67"/>
</g>
</g>
</svg>
