<?xml version="1.0" encoding="UTF-8" standalone="no"?>
<!DOCTYPE svg PUBLIC "-//W3C//DTD SVG 1.1//EN"
 "http://www.w3.org/Graphics/SVG/1.1/DTD/svg11.dtd">
<!-- Generated by graphviz version 7.0.4 (20221203.1631)
 -->
<!-- Title: include/m_Do/m_Do_graphic.h Pages: 1 -->
<svg width="5004pt" height="423pt"
 viewBox="0.00 0.00 5004.06 423.00" xmlns="http://www.w3.org/2000/svg" xmlns:xlink="http://www.w3.org/1999/xlink">
<g id="graph0" class="graph" transform="scale(1 1) rotate(0) translate(4 419)">
<title>include/m_Do/m_Do_graphic.h</title>
<!-- Node1 -->
<g id="node1" class="node">
<title>Node1</title>
<g id="a_node1"><a xlink:title=" ">
<polygon fill="#999999" stroke="#666666" points="4777.06,-415 4628.06,-415 4628.06,-396 4777.06,-396 4777.06,-415"/>
<text text-anchor="middle" x="4702.56" y="-403" font-family="Helvetica,sans-Serif" font-size="10.00">include/m_Do/m_Do_graphic.h</text>
</a>
</g>
</g>
<!-- Node2 -->
<g id="node2" class="node">
<title>Node2</title>
<g id="a_node2"><a xlink:href="d__menu__window_8h.html" target="_top" xlink:title=" ">
<polygon fill="white" stroke="#666666" points="1658.56,-360 1538.56,-360 1538.56,-330 1658.56,-330 1658.56,-360"/>
<text text-anchor="start" x="1546.56" y="-348" font-family="Helvetica,sans-Serif" font-size="10.00">include/d/menu/d_menu</text>
<text text-anchor="middle" x="1598.56" y="-337" font-family="Helvetica,sans-Serif" font-size="10.00">_window.h</text>
</a>
</g>
</g>
<!-- Node1&#45;&gt;Node2 -->
<g id="edge1" class="edge">
<title>Node1&#45;&gt;Node2</title>
<path fill="none" stroke="#63b8ff" d="M4616.36,-402.88C4161.3,-394.3 2044.67,-354.41 1658.97,-347.14"/>
<polygon fill="#63b8ff" stroke="#63b8ff" points="4616.18,-406.37 4626.24,-403.06 4616.31,-399.37 4616.18,-406.37"/>
</g>
<!-- Node105 -->
<g id="node47" class="node">
<title>Node105</title>
<g id="a_node47"><a xlink:href="m__Do__graphic_8cpp.html" target="_top" xlink:title=" ">
<polygon fill="white" stroke="#666666" points="4728.56,-96 4586.56,-96 4586.56,-77 4728.56,-77 4728.56,-96"/>
<text text-anchor="middle" x="4657.56" y="-84" font-family="Helvetica,sans-Serif" font-size="10.00">src/m_Do/m_Do_graphic.cpp</text>
</a>
</g>
</g>
<!-- Node1&#45;&gt;Node105 -->
<g id="edge70" class="edge">
<title>Node1&#45;&gt;Node105</title>
<path fill="none" stroke="#63b8ff" d="M4692.95,-385.59C4681.69,-361.65 4664.56,-318.84 4664.56,-280 4664.56,-280 4664.56,-280 4664.56,-217.5 4664.56,-171.84 4660.21,-117.3 4658.37,-96.32"/>
<polygon fill="#63b8ff" stroke="#63b8ff" points="4689.7,-386.91 4697.24,-394.36 4695.99,-383.84 4689.7,-386.91"/>
</g>
<!-- Node107 -->
<g id="node48" class="node">
<title>Node107</title>
<g id="a_node48"><a xlink:href="m__Do__main_8cpp.html" target="_top" xlink:title=" ">
<polygon fill="white" stroke="#666666" points="4878.06,-96 4747.06,-96 4747.06,-77 4878.06,-77 4878.06,-96"/>
<text text-anchor="middle" x="4812.56" y="-84" font-family="Helvetica,sans-Serif" font-size="10.00">src/m_Do/m_Do_main.cpp</text>
</a>
</g>
</g>
<!-- Node1&#45;&gt;Node107 -->
<g id="edge71" class="edge">
<title>Node1&#45;&gt;Node107</title>
<path fill="none" stroke="#63b8ff" d="M4702.56,-384.39C4702.56,-359.78 4702.56,-316.83 4702.56,-280 4702.56,-280 4702.56,-280 4702.56,-217.5 4702.56,-159.85 4766.39,-114.6 4796.8,-96.31"/>
<polygon fill="#63b8ff" stroke="#63b8ff" points="4699.06,-384.23 4702.56,-394.23 4706.06,-384.23 4699.06,-384.23"/>
</g>
<!-- Node108 -->
<g id="node49" class="node">
<title>Node108</title>
<g id="a_node49"><a xlink:href="d__drawlist_8cpp.html" target="_top" xlink:title=" ">
<polygon fill="white" stroke="#666666" points="4834.56,-354.5 4730.56,-354.5 4730.56,-335.5 4834.56,-335.5 4834.56,-354.5"/>
<text text-anchor="middle" x="4782.56" y="-342.5" font-family="Helvetica,sans-Serif" font-size="10.00">src/d/d_drawlist.cpp</text>
</a>
</g>
</g>
<!-- Node1&#45;&gt;Node108 -->
<g id="edge68" class="edge">
<title>Node1&#45;&gt;Node108</title>
<path fill="none" stroke="#63b8ff" d="M4723.71,-389.04C4738.57,-378.17 4757.92,-364.02 4770.3,-354.97"/>
<polygon fill="#63b8ff" stroke="#63b8ff" points="4721.94,-385.99 4715.94,-394.72 4726.07,-391.64 4721.94,-385.99"/>
</g>
<!-- Node109 -->
<g id="node50" class="node">
<title>Node109</title>
<g id="a_node50"><a xlink:href="d__pane__class_8cpp.html" target="_top" xlink:title=" ">
<polygon fill="white" stroke="#666666" points="4996.06,-354.5 4853.06,-354.5 4853.06,-335.5 4996.06,-335.5 4996.06,-354.5"/>
<text text-anchor="middle" x="4924.56" y="-342.5" font-family="Helvetica,sans-Serif" font-size="10.00">src/d/pane/d_pane_class.cpp</text>
</a>
</g>
</g>
<!-- Node1&#45;&gt;Node109 -->
<g id="edge69" class="edge">
<title>Node1&#45;&gt;Node109</title>
<path fill="none" stroke="#63b8ff" d="M4747.37,-392.69C4789.67,-381.55 4852.17,-365.08 4890.53,-354.97"/>
<polygon fill="#63b8ff" stroke="#63b8ff" points="4746.52,-389.3 4737.75,-395.23 4748.31,-396.07 4746.52,-389.3"/>
</g>
<!-- Node3 -->
<g id="node3" class="node">
<title>Node3</title>
<g id="a_node3"><a xlink:href="d__meter2__info_8h.html" target="_top" xlink:title=" ">
<polygon fill="white" stroke="#666666" points="1662.06,-294 1535.06,-294 1535.06,-264 1662.06,-264 1662.06,-294"/>
<text text-anchor="start" x="1543.06" y="-282" font-family="Helvetica,sans-Serif" font-size="10.00">include/d/meter/d_meter2</text>
<text text-anchor="middle" x="1598.56" y="-271" font-family="Helvetica,sans-Serif" font-size="10.00">_info.h</text>
</a>
</g>
</g>
<!-- Node2&#45;&gt;Node3 -->
<g id="edge2" class="edge">
<title>Node2&#45;&gt;Node3</title>
<path fill="none" stroke="#63b8ff" d="M1591.94,-318.39C1591.62,-310.13 1591.92,-301.28 1592.85,-294.16"/>
<polygon fill="#63b8ff" stroke="#63b8ff" points="1588.44,-318.6 1592.72,-328.29 1595.42,-318.04 1588.44,-318.6"/>
</g>
<!-- Node46 -->
<g id="node22" class="node">
<title>Node46</title>
<g id="a_node22"><a xlink:href="d__menu__window_8cpp.html" target="_top" xlink:title=" ">
<polygon fill="white" stroke="#666666" points="4364.06,-24.5 4205.06,-24.5 4205.06,-5.5 4364.06,-5.5 4364.06,-24.5"/>
<text text-anchor="middle" x="4284.56" y="-12.5" font-family="Helvetica,sans-Serif" font-size="10.00">src/d/menu/d_menu_window.cpp</text>
</a>
</g>
</g>
<!-- Node2&#45;&gt;Node46 -->
<g id="edge66" class="edge">
<title>Node2&#45;&gt;Node46</title>
<path fill="none" stroke="#63b8ff" d="M1670.37,-343.2C2078.74,-337.97 4096.77,-302.27 4281.56,-107 4302.86,-84.5 4293.31,-43.11 4287.66,-24.94"/>
<polygon fill="#63b8ff" stroke="#63b8ff" points="1670.51,-339.7 1660.56,-343.33 1670.6,-346.7 1670.51,-339.7"/>
</g>
<!-- Node47 -->
<g id="node23" class="node">
<title>Node47</title>
<g id="a_node23"><a xlink:href="d__meter__map_8cpp.html" target="_top" xlink:title=" ">
<polygon fill="white" stroke="#666666" points="414.56,-30 310.56,-30 310.56,0 414.56,0 414.56,-30"/>
<text text-anchor="start" x="318.56" y="-18" font-family="Helvetica,sans-Serif" font-size="10.00">src/d/meter/d_meter</text>
<text text-anchor="middle" x="362.56" y="-7" font-family="Helvetica,sans-Serif" font-size="10.00">_map.cpp</text>
</a>
</g>
</g>
<!-- Node2&#45;&gt;Node47 -->
<g id="edge67" class="edge">
<title>Node2&#45;&gt;Node47</title>
<path fill="none" stroke="#63b8ff" d="M1527.41,-342.23C1217.82,-334.05 3.56,-297.05 3.56,-219.5 3.56,-219.5 3.56,-219.5 3.56,-157 3.56,-116.01 -10.69,-94.71 18.56,-66 58.9,-26.43 224.27,-18 310.19,-16.32"/>
<polygon fill="#63b8ff" stroke="#63b8ff" points="1526.87,-345.71 1536.96,-342.48 1527.05,-338.72 1526.87,-345.71"/>
</g>
<!-- Node3&#45;&gt;Node2 -->
<g id="edge61" class="edge">
<title>Node3&#45;&gt;Node2</title>
<path fill="none" stroke="#63b8ff" d="M1605.19,-305.56C1605.51,-313.82 1605.21,-322.67 1604.28,-329.8"/>
<polygon fill="#63b8ff" stroke="#63b8ff" points="1608.69,-305.36 1604.4,-295.67 1601.71,-305.92 1608.69,-305.36"/>
</g>
<!-- Node4 -->
<g id="node4" class="node">
<title>Node4</title>
<g id="a_node4"><a xlink:href="d__a__alink_8h.html" target="_top" xlink:title=" ">
<polygon fill="white" stroke="#666666" points="1656.56,-228 1540.56,-228 1540.56,-209 1656.56,-209 1656.56,-228"/>
<text text-anchor="middle" x="1598.56" y="-216" font-family="Helvetica,sans-Serif" font-size="10.00">include/d/a/d_a_alink.h</text>
</a>
</g>
</g>
<!-- Node3&#45;&gt;Node4 -->
<g id="edge3" class="edge">
<title>Node3&#45;&gt;Node4</title>
<path fill="none" stroke="#63b8ff" d="M1598.56,-252.3C1598.56,-243.65 1598.56,-234.58 1598.56,-228.18"/>
<polygon fill="#63b8ff" stroke="#63b8ff" points="1595.06,-252.03 1598.56,-262.03 1602.06,-252.03 1595.06,-252.03"/>
</g>
<!-- Node11 -->
<g id="node7" class="node">
<title>Node11</title>
<g id="a_node7"><a xlink:href="d__meter2__info_8cpp.html" target="_top" xlink:title=" ">
<polygon fill="white" stroke="#666666" points="542.56,-30 432.56,-30 432.56,0 542.56,0 542.56,-30"/>
<text text-anchor="start" x="440.56" y="-18" font-family="Helvetica,sans-Serif" font-size="10.00">src/d/meter/d_meter2</text>
<text text-anchor="middle" x="487.56" y="-7" font-family="Helvetica,sans-Serif" font-size="10.00">_info.cpp</text>
</a>
</g>
</g>
<!-- Node3&#45;&gt;Node11 -->
<g id="edge64" class="edge">
<title>Node3&#45;&gt;Node11</title>
<path fill="none" stroke="#63b8ff" d="M1523.15,-275.66C1226.83,-265.69 154.01,-221.83 60.56,-107 -18.78,-9.5 -31.27,-102.05 423.56,-30 426.37,-29.56 429.24,-29.06 432.14,-28.54"/>
<polygon fill="#63b8ff" stroke="#63b8ff" points="1522.98,-279.16 1533.1,-276 1523.22,-272.16 1522.98,-279.16"/>
</g>
<!-- Node20 -->
<g id="node12" class="node">
<title>Node20</title>
<g id="a_node12"><a xlink:href="d__com__inf__game_8cpp.html" target="_top" xlink:title=" ">
<polygon fill="white" stroke="#666666" points="4633.56,-30 4525.56,-30 4525.56,0 4633.56,0 4633.56,-30"/>
<text text-anchor="start" x="4533.56" y="-18" font-family="Helvetica,sans-Serif" font-size="10.00">src/d/com/d_com_inf</text>
<text text-anchor="middle" x="4579.56" y="-7" font-family="Helvetica,sans-Serif" font-size="10.00">_game.cpp</text>
</a>
</g>
</g>
<!-- Node3&#45;&gt;Node20 -->
<g id="edge62" class="edge">
<title>Node3&#45;&gt;Node20</title>
<path fill="none" stroke="#63b8ff" d="M1673.82,-278.12C2108.86,-278.21 4291.05,-270.46 4535.56,-107 4561.97,-89.35 4573.03,-51.17 4577.25,-30.31"/>
<polygon fill="#63b8ff" stroke="#63b8ff" points="1673.87,-274.62 1663.87,-278.11 1673.87,-281.62 1673.87,-274.62"/>
</g>
<!-- Node21 -->
<g id="node13" class="node">
<title>Node21</title>
<g id="a_node13"><a xlink:href="d__item_8cpp.html" target="_top" xlink:title=" ">
<polygon fill="white" stroke="#666666" points="4846.06,-24.5 4757.06,-24.5 4757.06,-5.5 4846.06,-5.5 4846.06,-24.5"/>
<text text-anchor="middle" x="4801.56" y="-12.5" font-family="Helvetica,sans-Serif" font-size="10.00">src/d/d_item.cpp</text>
</a>
</g>
</g>
<!-- Node3&#45;&gt;Node21 -->
<g id="edge63" class="edge">
<title>Node3&#45;&gt;Node21</title>
<path fill="none" stroke="#63b8ff" d="M1673.77,-277.16C2014.63,-273.21 3416.93,-255.57 3855.56,-228 4091.92,-213.14 4150.37,-200.66 4385.56,-173 4609.06,-146.72 4739.18,-276.17 4887.56,-107 4899.58,-93.3 4896.65,-81.79 4887.56,-66 4875.68,-45.34 4851.62,-32.43 4831.96,-24.91"/>
<polygon fill="#63b8ff" stroke="#63b8ff" points="1673.8,-273.66 1663.84,-277.27 1673.88,-280.66 1673.8,-273.66"/>
</g>
<!-- Node98 -->
<g id="node46" class="node">
<title>Node98</title>
<g id="a_node46"><a xlink:href="d__save_8cpp.html" target="_top" xlink:title=" ">
<polygon fill="white" stroke="#666666" points="337.06,-96 222.06,-96 222.06,-77 337.06,-77 337.06,-96"/>
<text text-anchor="middle" x="279.56" y="-84" font-family="Helvetica,sans-Serif" font-size="10.00">src/d/save/d_save.cpp</text>
</a>
</g>
</g>
<!-- Node3&#45;&gt;Node98 -->
<g id="edge65" class="edge">
<title>Node3&#45;&gt;Node98</title>
<path fill="none" stroke="#63b8ff" d="M1523.24,-270.69C1371.49,-255.59 1018.3,-218.5 723.56,-173 574.42,-149.98 398.88,-113.31 320.71,-96.48"/>
<polygon fill="#63b8ff" stroke="#63b8ff" points="1522.88,-274.17 1533.18,-271.68 1523.57,-267.21 1522.88,-274.17"/>
</g>
<!-- Node5 -->
<g id="node5" class="node">
<title>Node5</title>
<g id="a_node5"><a xlink:href="d__com__inf__game_8h.html" target="_top" xlink:title=" ">
<polygon fill="#fff0f0" stroke="red" points="2514.56,-173 2404.56,-173 2404.56,-143 2514.56,-143 2514.56,-173"/>
<text text-anchor="start" x="2412.56" y="-161" font-family="Helvetica,sans-Serif" font-size="10.00">include/d/com/d_com</text>
<text text-anchor="middle" x="2459.56" y="-150" font-family="Helvetica,sans-Serif" font-size="10.00">_inf_game.h</text>
</a>
</g>
</g>
<!-- Node4&#45;&gt;Node5 -->
<g id="edge4" class="edge">
<title>Node4&#45;&gt;Node5</title>
<path fill="none" stroke="#63b8ff" d="M1667.78,-212.8C1834.05,-201.5 2253.29,-173.02 2404.29,-162.76"/>
<polygon fill="#63b8ff" stroke="#63b8ff" points="1667.98,-209.28 1658.24,-213.45 1668.46,-216.26 1667.98,-209.28"/>
</g>
<!-- Node15 -->
<g id="node10" class="node">
<title>Node15</title>
<g id="a_node10"><a xlink:href="d__a__alink_8cpp.html" target="_top" xlink:title=" ">
<polygon fill="white" stroke="#666666" points="4054.06,-24.5 3945.06,-24.5 3945.06,-5.5 4054.06,-5.5 4054.06,-24.5"/>
<text text-anchor="middle" x="3999.56" y="-12.5" font-family="Helvetica,sans-Serif" font-size="10.00">src/d/a/d_a_alink.cpp</text>
</a>
</g>
</g>
<!-- Node4&#45;&gt;Node15 -->
<g id="edge60" class="edge">
<title>Node4&#45;&gt;Node15</title>
<path fill="none" stroke="#63b8ff" d="M1528.77,-215.74C1307.88,-209 645.1,-179.2 756.56,-66 785.73,-36.39 3521.53,-18.86 3944.82,-16.32"/>
<polygon fill="#63b8ff" stroke="#63b8ff" points="1528.58,-219.24 1538.68,-216.04 1528.79,-212.24 1528.58,-219.24"/>
</g>
<!-- Node6 -->
<g id="node6" class="node">
<title>Node6</title>
<g id="a_node6"><a xlink:href="d__a__npc_8h.html" target="_top" xlink:title=" ">
<polygon fill="#fff0f0" stroke="red" points="543.06,-96 432.06,-96 432.06,-77 543.06,-77 543.06,-96"/>
<text text-anchor="middle" x="487.56" y="-84" font-family="Helvetica,sans-Serif" font-size="10.00">include/d/a/d_a_npc.h</text>
</a>
</g>
</g>
<!-- Node5&#45;&gt;Node6 -->
<g id="edge5" class="edge">
<title>Node5&#45;&gt;Node6</title>
<path fill="none" stroke="#63b8ff" d="M2393.03,-156.3C2077.2,-152.85 736.99,-136.54 552.56,-107 538.84,-104.8 523.95,-100.49 511.9,-96.47"/>
<polygon fill="#63b8ff" stroke="#63b8ff" points="2392.71,-159.8 2402.75,-156.41 2392.79,-152.8 2392.71,-159.8"/>
</g>
<!-- Node5&#45;&gt;Node11 -->
<g id="edge55" class="edge">
<title>Node5&#45;&gt;Node11</title>
<path fill="none" stroke="#63b8ff" d="M2392.93,-156.63C2045.67,-154.55 457.77,-143.08 422.56,-107 409.84,-93.96 414.52,-82.35 422.56,-66 430.11,-50.67 444.87,-38.73 458.41,-30.36"/>
<polygon fill="#63b8ff" stroke="#63b8ff" points="2392.75,-160.13 2402.77,-156.69 2392.79,-153.13 2392.75,-160.13"/>
</g>
<!-- Node12 -->
<g id="node8" class="node">
<title>Node12</title>
<g id="a_node8"><a xlink:href="d__cc__uty_8h.html" target="_top" xlink:title=" ">
<polygon fill="#fff0f0" stroke="red" points="885.06,-96 766.06,-96 766.06,-77 885.06,-77 885.06,-96"/>
<text text-anchor="middle" x="825.56" y="-84" font-family="Helvetica,sans-Serif" font-size="10.00">include/d/cc/d_cc_uty.h</text>
</a>
</g>
</g>
<!-- Node5&#45;&gt;Node12 -->
<g id="edge7" class="edge">
<title>Node5&#45;&gt;Node12</title>
<path fill="none" stroke="#63b8ff" d="M2392.88,-157.06C2133.18,-156.97 1189.16,-153.37 893.56,-107 879.25,-104.75 863.68,-100.44 851.06,-96.43"/>
<polygon fill="#63b8ff" stroke="#63b8ff" points="2392.86,-160.56 2402.86,-157.06 2392.86,-153.56 2392.86,-160.56"/>
</g>
<!-- Node18 -->
<g id="node9" class="node">
<title>Node18</title>
<g id="a_node9"><a xlink:href="d__item_8h.html" target="_top" xlink:title=" ">
<polygon fill="#fff0f0" stroke="red" points="4492.06,-96 4397.06,-96 4397.06,-77 4492.06,-77 4492.06,-96"/>
<text text-anchor="middle" x="4444.56" y="-84" font-family="Helvetica,sans-Serif" font-size="10.00">include/d/d_item.h</text>
</a>
</g>
</g>
<!-- Node5&#45;&gt;Node18 -->
<g id="edge8" class="edge">
<title>Node5&#45;&gt;Node18</title>
<path fill="none" stroke="#63b8ff" d="M2525.84,-156.72C2816.61,-155.26 3981.1,-146.98 4344.56,-107 4365.31,-104.72 4388.18,-100.4 4406.8,-96.4"/>
<polygon fill="#63b8ff" stroke="#63b8ff" points="2526.15,-153.22 2516.17,-156.77 2526.19,-160.22 2526.15,-153.22"/>
</g>
<!-- Node5&#45;&gt;Node15 -->
<g id="edge37" class="edge">
<title>Node5&#45;&gt;Node15</title>
<path fill="none" stroke="#63b8ff" d="M2525.75,-156.18C2824.78,-152.34 4036.37,-135.05 4063.56,-107 4076.25,-93.92 4071.55,-82.38 4063.56,-66 4054.29,-46.99 4033.91,-33.09 4018.63,-24.84"/>
<polygon fill="#63b8ff" stroke="#63b8ff" points="2526.14,-152.68 2516.18,-156.31 2526.23,-159.68 2526.14,-152.68"/>
</g>
<!-- Node19 -->
<g id="node11" class="node">
<title>Node19</title>
<g id="a_node11"><a xlink:href="d__a__obj__item_8cpp.html" target="_top" xlink:title=" ">
<polygon fill="white" stroke="#666666" points="4507.06,-24.5 4382.06,-24.5 4382.06,-5.5 4507.06,-5.5 4507.06,-24.5"/>
<text text-anchor="middle" x="4444.56" y="-12.5" font-family="Helvetica,sans-Serif" font-size="10.00">src/d/a/d_a_obj_item.cpp</text>
</a>
</g>
</g>
<!-- Node5&#45;&gt;Node19 -->
<g id="edge40" class="edge">
<title>Node5&#45;&gt;Node19</title>
<path fill="none" stroke="#63b8ff" d="M2526.28,-157.05C2834.15,-157.05 4110.04,-154.16 4281.56,-107 4343.75,-89.9 4407.75,-44.4 4433.17,-24.98"/>
<polygon fill="#63b8ff" stroke="#63b8ff" points="2526.4,-153.55 2516.4,-157.05 2526.4,-160.55 2526.4,-153.55"/>
</g>
<!-- Node5&#45;&gt;Node20 -->
<g id="edge46" class="edge">
<title>Node5&#45;&gt;Node20</title>
<path fill="none" stroke="#63b8ff" d="M2526.22,-156.88C2867.78,-156.05 4409.36,-149.96 4500.56,-107 4518.26,-98.66 4552.26,-53.95 4569.3,-30.45"/>
<polygon fill="#63b8ff" stroke="#63b8ff" points="2526.32,-153.38 2516.33,-156.9 2526.34,-160.38 2526.32,-153.38"/>
</g>
<!-- Node23 -->
<g id="node14" class="node">
<title>Node23</title>
<g id="a_node14"><a xlink:href="d__kantera__icon__meter_8h.html" target="_top" xlink:title=" ">
<polygon fill="#fff0f0" stroke="red" points="1004.06,-101.5 903.06,-101.5 903.06,-71.5 1004.06,-71.5 1004.06,-101.5"/>
<text text-anchor="start" x="911.06" y="-89.5" font-family="Helvetica,sans-Serif" font-size="10.00">include/d/d_kantera</text>
<text text-anchor="middle" x="953.56" y="-78.5" font-family="Helvetica,sans-Serif" font-size="10.00">_icon_meter.h</text>
</a>
</g>
</g>
<!-- Node5&#45;&gt;Node23 -->
<g id="edge13" class="edge">
<title>Node5&#45;&gt;Node23</title>
<path fill="none" stroke="#63b8ff" d="M2393.02,-157.21C2146.13,-157.58 1282.94,-155.33 1012.56,-107 1005.87,-105.8 998.9,-104.02 992.2,-102"/>
<polygon fill="#63b8ff" stroke="#63b8ff" points="2392.8,-160.71 2402.79,-157.19 2392.79,-153.71 2392.8,-160.71"/>
</g>
<!-- Node26 -->
<g id="node15" class="node">
<title>Node26</title>
<g id="a_node15"><a xlink:href="d__model_8h.html" target="_top" xlink:title=" ">
<polygon fill="#fff0f0" stroke="red" points="1125.06,-96 1022.06,-96 1022.06,-77 1125.06,-77 1125.06,-96"/>
<text text-anchor="middle" x="1073.56" y="-84" font-family="Helvetica,sans-Serif" font-size="10.00">include/d/d_model.h</text>
</a>
</g>
</g>
<!-- Node5&#45;&gt;Node26 -->
<g id="edge14" class="edge">
<title>Node5&#45;&gt;Node26</title>
<path fill="none" stroke="#63b8ff" d="M2392.84,-156.92C2159.26,-156.24 1379.34,-150.7 1133.56,-107 1120.84,-104.74 1107.1,-100.42 1095.98,-96.42"/>
<polygon fill="#63b8ff" stroke="#63b8ff" points="2392.67,-160.42 2402.68,-156.94 2392.69,-153.42 2392.67,-160.42"/>
</g>
<!-- Node28 -->
<g id="node16" class="node">
<title>Node28</title>
<g id="a_node16"><a xlink:href="d__name_8h.html" target="_top" xlink:title=" ">
<polygon fill="#fff0f0" stroke="red" points="1244.06,-96 1143.06,-96 1143.06,-77 1244.06,-77 1244.06,-96"/>
<text text-anchor="middle" x="1193.56" y="-84" font-family="Helvetica,sans-Serif" font-size="10.00">include/d/d_name.h</text>
</a>
</g>
</g>
<!-- Node5&#45;&gt;Node28 -->
<g id="edge15" class="edge">
<title>Node5&#45;&gt;Node28</title>
<path fill="none" stroke="#63b8ff" d="M2393.07,-156.62C2173.8,-155.01 1475.06,-146.81 1253.56,-107 1240.95,-104.73 1227.34,-100.47 1216.27,-96.5"/>
<polygon fill="#63b8ff" stroke="#63b8ff" points="2392.83,-160.12 2402.86,-156.69 2392.88,-153.12 2392.83,-160.12"/>
</g>
<!-- Node30 -->
<g id="node17" class="node">
<title>Node30</title>
<g id="a_node17"><a xlink:href="d__file__sel__info_8h.html" target="_top" xlink:title=" ">
<polygon fill="#fff0f0" stroke="red" points="1358.56,-101.5 1262.56,-101.5 1262.56,-71.5 1358.56,-71.5 1358.56,-101.5"/>
<text text-anchor="start" x="1270.56" y="-89.5" font-family="Helvetica,sans-Serif" font-size="10.00">include/d/file/d_file</text>
<text text-anchor="middle" x="1310.56" y="-78.5" font-family="Helvetica,sans-Serif" font-size="10.00">_sel_info.h</text>
</a>
</g>
</g>
<!-- Node5&#45;&gt;Node30 -->
<g id="edge16" class="edge">
<title>Node5&#45;&gt;Node30</title>
<path fill="none" stroke="#63b8ff" d="M2392.85,-156.42C2187.31,-154.24 1565.67,-144.62 1367.56,-107 1361.09,-105.77 1354.35,-103.97 1347.87,-101.94"/>
<polygon fill="#63b8ff" stroke="#63b8ff" points="2392.79,-159.92 2402.83,-156.52 2392.87,-152.92 2392.79,-159.92"/>
</g>
<!-- Node33 -->
<g id="node18" class="node">
<title>Node33</title>
<g id="a_node18"><a xlink:href="d__file__sel__warning_8h.html" target="_top" xlink:title=" ">
<polygon fill="#fff0f0" stroke="red" points="1472.56,-101.5 1376.56,-101.5 1376.56,-71.5 1472.56,-71.5 1472.56,-101.5"/>
<text text-anchor="start" x="1384.56" y="-89.5" font-family="Helvetica,sans-Serif" font-size="10.00">include/d/file/d_file</text>
<text text-anchor="middle" x="1424.56" y="-78.5" font-family="Helvetica,sans-Serif" font-size="10.00">_sel_warning.h</text>
</a>
</g>
</g>
<!-- Node5&#45;&gt;Node33 -->
<g id="edge17" class="edge">
<title>Node5&#45;&gt;Node33</title>
<path fill="none" stroke="#63b8ff" d="M2393.05,-156.01C2202.46,-152.78 1656.82,-140.77 1481.56,-107 1475.09,-105.75 1468.36,-103.94 1461.88,-101.91"/>
<polygon fill="#63b8ff" stroke="#63b8ff" points="2392.71,-159.5 2402.77,-156.17 2392.83,-152.5 2392.71,-159.5"/>
</g>
<!-- Node35 -->
<g id="node19" class="node">
<title>Node35</title>
<g id="a_node19"><a xlink:href="d__meter2_8h.html" target="_top" xlink:title=" ">
<polygon fill="#fff0f0" stroke="red" points="203.56,-96 69.56,-96 69.56,-77 203.56,-77 203.56,-96"/>
<text text-anchor="middle" x="136.56" y="-84" font-family="Helvetica,sans-Serif" font-size="10.00">include/d/meter/d_meter2.h</text>
</a>
</g>
</g>
<!-- Node5&#45;&gt;Node35 -->
<g id="edge18" class="edge">
<title>Node5&#45;&gt;Node35</title>
<path fill="none" stroke="#63b8ff" d="M2392.87,-156.43C2043.61,-153.3 432.94,-137.32 212.56,-107 196.64,-104.81 179.25,-100.5 165.13,-96.48"/>
<polygon fill="#63b8ff" stroke="#63b8ff" points="2392.74,-159.92 2402.77,-156.51 2392.8,-152.92 2392.74,-159.92"/>
</g>
<!-- Node37 -->
<g id="node20" class="node">
<title>Node37</title>
<g id="a_node20"><a xlink:href="d__msg__object_8h.html" target="_top" xlink:title=" ">
<polygon fill="#fff0f0" stroke="red" points="671.56,-101.5 561.56,-101.5 561.56,-71.5 671.56,-71.5 671.56,-101.5"/>
<text text-anchor="start" x="569.56" y="-89.5" font-family="Helvetica,sans-Serif" font-size="10.00">include/d/msg/d_msg</text>
<text text-anchor="middle" x="616.56" y="-78.5" font-family="Helvetica,sans-Serif" font-size="10.00">_object.h</text>
</a>
</g>
</g>
<!-- Node5&#45;&gt;Node37 -->
<g id="edge20" class="edge">
<title>Node5&#45;&gt;Node37</title>
<path fill="none" stroke="#63b8ff" d="M2393.01,-157.32C2112.31,-158.34 1024.08,-158.79 685.56,-107 677.69,-105.8 669.44,-103.97 661.49,-101.92"/>
<polygon fill="#63b8ff" stroke="#63b8ff" points="2392.71,-160.82 2402.7,-157.28 2392.68,-153.82 2392.71,-160.82"/>
</g>
<!-- Node42 -->
<g id="node21" class="node">
<title>Node42</title>
<g id="a_node21"><a xlink:href="d__demo_8cpp.html" target="_top" xlink:title=" ">
<polygon fill="white" stroke="#666666" points="704.56,-24.5 610.56,-24.5 610.56,-5.5 704.56,-5.5 704.56,-24.5"/>
<text text-anchor="middle" x="657.56" y="-12.5" font-family="Helvetica,sans-Serif" font-size="10.00">src/d/d_demo.cpp</text>
</a>
</g>
</g>
<!-- Node5&#45;&gt;Node42 -->
<g id="edge51" class="edge">
<title>Node5&#45;&gt;Node42</title>
<path fill="none" stroke="#63b8ff" d="M2393.01,-156.35C2087.8,-153.18 833.53,-138.31 756.56,-107 713.53,-89.5 677.58,-44.22 663.7,-24.92"/>
<polygon fill="#63b8ff" stroke="#63b8ff" points="2392.76,-159.84 2402.8,-156.45 2392.83,-152.84 2392.76,-159.84"/>
</g>
<!-- Node5&#45;&gt;Node46 -->
<g id="edge54" class="edge">
<title>Node5&#45;&gt;Node46</title>
<path fill="none" stroke="#63b8ff" d="M2526.04,-157.27C2842.5,-158.3 4184.02,-159.53 4254.56,-107 4280.98,-87.33 4284.48,-43.65 4284.71,-24.87"/>
<polygon fill="#63b8ff" stroke="#63b8ff" points="2526.31,-153.77 2516.3,-157.24 2526.28,-160.77 2526.31,-153.77"/>
</g>
<!-- Node5&#45;&gt;Node47 -->
<g id="edge56" class="edge">
<title>Node5&#45;&gt;Node47</title>
<path fill="none" stroke="#63b8ff" d="M2392.76,-157.25C2049.61,-158.27 497.8,-159.94 411.56,-107 383.89,-90.01 370.85,-51.55 365.59,-30.48"/>
<polygon fill="#63b8ff" stroke="#63b8ff" points="2392.72,-160.75 2402.71,-157.21 2392.69,-153.75 2392.72,-160.75"/>
</g>
<!-- Node53 -->
<g id="node24" class="node">
<title>Node53</title>
<g id="a_node24"><a xlink:href="d__s__logo_8h.html" target="_top" xlink:title=" ">
<polygon fill="#fff0f0" stroke="red" points="1604.06,-96 1491.06,-96 1491.06,-77 1604.06,-77 1604.06,-96"/>
<text text-anchor="middle" x="1547.56" y="-84" font-family="Helvetica,sans-Serif" font-size="10.00">include/d/s/d_s_logo.h</text>
</a>
</g>
</g>
<!-- Node5&#45;&gt;Node53 -->
<g id="edge26" class="edge">
<title>Node5&#45;&gt;Node53</title>
<path fill="none" stroke="#63b8ff" d="M2392.7,-155.06C2219.99,-149.73 1762.07,-133.47 1612.56,-107 1599.11,-104.62 1584.5,-100.39 1572.55,-96.48"/>
<polygon fill="#63b8ff" stroke="#63b8ff" points="2392.53,-158.56 2402.63,-155.36 2392.75,-151.56 2392.53,-158.56"/>
</g>
<!-- Node55 -->
<g id="node25" class="node">
<title>Node55</title>
<g id="a_node25"><a xlink:href="d__s__play_8h.html" target="_top" xlink:title=" ">
<polygon fill="#fff0f0" stroke="red" points="1735.06,-96 1622.06,-96 1622.06,-77 1735.06,-77 1735.06,-96"/>
<text text-anchor="middle" x="1678.56" y="-84" font-family="Helvetica,sans-Serif" font-size="10.00">include/d/s/d_s_play.h</text>
</a>
</g>
</g>
<!-- Node5&#45;&gt;Node55 -->
<g id="edge27" class="edge">
<title>Node5&#45;&gt;Node55</title>
<path fill="none" stroke="#63b8ff" d="M2392.8,-157.25C2265.45,-156.64 1979.52,-150.08 1743.56,-107 1730.12,-104.55 1715.51,-100.31 1703.56,-96.41"/>
<polygon fill="#63b8ff" stroke="#63b8ff" points="2392.73,-160.75 2402.74,-157.28 2392.75,-153.75 2392.73,-160.75"/>
</g>
<!-- Node59 -->
<g id="node26" class="node">
<title>Node59</title>
<g id="a_node26"><a xlink:href="d__msg__scrn__base_8h.html" target="_top" xlink:title=" ">
<polygon fill="#fff0f0" stroke="red" points="1852.06,-101.5 1753.06,-101.5 1753.06,-71.5 1852.06,-71.5 1852.06,-101.5"/>
<text text-anchor="start" x="1761.06" y="-89.5" font-family="Helvetica,sans-Serif" font-size="10.00">include/msg/scrn/d</text>
<text text-anchor="middle" x="1802.56" y="-78.5" font-family="Helvetica,sans-Serif" font-size="10.00">_msg_scrn_base.h</text>
</a>
</g>
</g>
<!-- Node5&#45;&gt;Node59 -->
<g id="edge28" class="edge">
<title>Node5&#45;&gt;Node59</title>
<path fill="none" stroke="#63b8ff" d="M2393.06,-156.65C2281.72,-154.92 2051.06,-146.37 1860.56,-107 1854.22,-105.69 1847.6,-103.89 1841.21,-101.92"/>
<polygon fill="#63b8ff" stroke="#63b8ff" points="2392.86,-160.15 2402.91,-156.79 2392.96,-153.15 2392.86,-160.15"/>
</g>
<!-- Node63 -->
<g id="node27" class="node">
<title>Node63</title>
<g id="a_node27"><a xlink:href="d__a__b__zant_8h.html" target="_top" xlink:title=" ">
<polygon fill="white" stroke="#666666" points="1991.06,-101.5 1870.06,-101.5 1870.06,-71.5 1991.06,-71.5 1991.06,-101.5"/>
<text text-anchor="start" x="1878.06" y="-89.5" font-family="Helvetica,sans-Serif" font-size="10.00">include/rel/d/a/b/d</text>
<text text-anchor="middle" x="1930.56" y="-78.5" font-family="Helvetica,sans-Serif" font-size="10.00">_a_b_zant/d_a_b_zant.h</text>
</a>
</g>
</g>
<!-- Node5&#45;&gt;Node63 -->
<g id="edge29" class="edge">
<title>Node5&#45;&gt;Node63</title>
<path fill="none" stroke="#63b8ff" d="M2393.01,-153.17C2303.27,-147.22 2138.75,-133.59 2000.56,-107 1993.38,-105.62 1985.86,-103.86 1978.52,-101.97"/>
<polygon fill="#63b8ff" stroke="#63b8ff" points="2392.66,-156.65 2402.87,-153.81 2393.11,-149.67 2392.66,-156.65"/>
</g>
<!-- Node64 -->
<g id="node28" class="node">
<title>Node64</title>
<g id="a_node28"><a xlink:href="d__a__skip__2D_8h.html" target="_top" xlink:title=" ">
<polygon fill="white" stroke="#666666" points="2133.56,-101.5 2009.56,-101.5 2009.56,-71.5 2133.56,-71.5 2133.56,-101.5"/>
<text text-anchor="start" x="2017.56" y="-89.5" font-family="Helvetica,sans-Serif" font-size="10.00">include/rel/d/a/d_a</text>
<text text-anchor="middle" x="2071.56" y="-78.5" font-family="Helvetica,sans-Serif" font-size="10.00">_skip_2D/d_a_skip_2D.h</text>
</a>
</g>
</g>
<!-- Node5&#45;&gt;Node64 -->
<g id="edge30" class="edge">
<title>Node5&#45;&gt;Node64</title>
<path fill="none" stroke="#63b8ff" d="M2393.04,-148.71C2328.62,-140.16 2228.37,-125.49 2142.56,-107 2135.69,-105.52 2128.5,-103.77 2121.43,-101.95"/>
<polygon fill="#63b8ff" stroke="#63b8ff" points="2392.37,-152.15 2402.74,-149.98 2393.28,-145.21 2392.37,-152.15"/>
</g>
<!-- Node65 -->
<g id="node29" class="node">
<title>Node65</title>
<g id="a_node29"><a xlink:href="d__a__spinner_8h.html" target="_top" xlink:title=" ">
<polygon fill="white" stroke="#666666" points="4226.56,-101.5 4110.56,-101.5 4110.56,-71.5 4226.56,-71.5 4226.56,-101.5"/>
<text text-anchor="start" x="4118.56" y="-89.5" font-family="Helvetica,sans-Serif" font-size="10.00">include/rel/d/a/d_a</text>
<text text-anchor="middle" x="4168.56" y="-78.5" font-family="Helvetica,sans-Serif" font-size="10.00">_spinner/d_a_spinner.h</text>
</a>
</g>
</g>
<!-- Node5&#45;&gt;Node65 -->
<g id="edge31" class="edge">
<title>Node5&#45;&gt;Node65</title>
<path fill="none" stroke="#63b8ff" d="M2526.14,-157.04C2793.03,-156.88 3786.01,-153.15 4096.56,-107 4104.63,-105.8 4113.09,-104.01 4121.26,-101.99"/>
<polygon fill="#63b8ff" stroke="#63b8ff" points="2526.23,-153.54 2516.24,-157.05 2526.24,-160.54 2526.23,-153.54"/>
</g>
<!-- Node66 -->
<g id="node30" class="node">
<title>Node66</title>
<g id="a_node30"><a xlink:href="d__a__player_8cpp.html" target="_top" xlink:title=" ">
<polygon fill="white" stroke="#666666" points="4186.56,-24.5 4072.56,-24.5 4072.56,-5.5 4186.56,-5.5 4186.56,-24.5"/>
<text text-anchor="middle" x="4129.56" y="-12.5" font-family="Helvetica,sans-Serif" font-size="10.00">src/d/a/d_a_player.cpp</text>
</a>
</g>
</g>
<!-- Node5&#45;&gt;Node66 -->
<g id="edge41" class="edge">
<title>Node5&#45;&gt;Node66</title>
<path fill="none" stroke="#63b8ff" d="M2525.95,-156.39C2844.82,-153.28 4205.2,-138.23 4235.56,-107 4248.27,-93.93 4245.32,-81.39 4235.56,-66 4221.89,-44.43 4196.15,-32 4173.46,-24.92"/>
<polygon fill="#63b8ff" stroke="#63b8ff" points="2526.08,-152.88 2516.12,-156.48 2526.15,-159.88 2526.08,-152.88"/>
</g>
<!-- Node67 -->
<g id="node31" class="node">
<title>Node67</title>
<g id="a_node31"><a xlink:href="d__a__obj__yobikusa_8h.html" target="_top" xlink:title=" ">
<polygon fill="white" stroke="#666666" points="2257.06,-107 2152.06,-107 2152.06,-66 2257.06,-66 2257.06,-107"/>
<text text-anchor="start" x="2160.06" y="-95" font-family="Helvetica,sans-Serif" font-size="10.00">include/rel/d/a/obj</text>
<text text-anchor="start" x="2160.06" y="-84" font-family="Helvetica,sans-Serif" font-size="10.00">/d_a_obj_yobikusa/d</text>
<text text-anchor="middle" x="2204.56" y="-73" font-family="Helvetica,sans-Serif" font-size="10.00">_a_obj_yobikusa.h</text>
</a>
</g>
</g>
<!-- Node5&#45;&gt;Node67 -->
<g id="edge34" class="edge">
<title>Node5&#45;&gt;Node67</title>
<path fill="none" stroke="#63b8ff" d="M2393.69,-140.82C2356.28,-131.42 2308.66,-119.06 2266.56,-107 2263.53,-106.13 2260.41,-105.22 2257.27,-104.28"/>
<polygon fill="#63b8ff" stroke="#63b8ff" points="2392.44,-144.12 2402.99,-143.15 2394.14,-137.33 2392.44,-144.12"/>
</g>
<!-- Node68 -->
<g id="node32" class="node">
<title>Node68</title>
<g id="a_node32"><a xlink:href="d__a__tag__telop_8h.html" target="_top" xlink:title=" ">
<polygon fill="white" stroke="#666666" points="2393.56,-107 2275.56,-107 2275.56,-66 2393.56,-66 2393.56,-107"/>
<text text-anchor="start" x="2283.56" y="-95" font-family="Helvetica,sans-Serif" font-size="10.00">include/rel/d/a/tag</text>
<text text-anchor="start" x="2283.56" y="-84" font-family="Helvetica,sans-Serif" font-size="10.00">/d_a_tag_telop/d_a_tag</text>
<text text-anchor="middle" x="2334.56" y="-73" font-family="Helvetica,sans-Serif" font-size="10.00">_telop.h</text>
</a>
</g>
</g>
<!-- Node5&#45;&gt;Node68 -->
<g id="edge35" class="edge">
<title>Node5&#45;&gt;Node68</title>
<path fill="none" stroke="#63b8ff" d="M2423.71,-137.06C2406.98,-127.76 2387.11,-116.72 2370.38,-107.42"/>
<polygon fill="#63b8ff" stroke="#63b8ff" points="2421.9,-140.06 2432.34,-141.86 2425.3,-133.95 2421.9,-140.06"/>
</g>
<!-- Node69 -->
<g id="node33" class="node">
<title>Node69</title>
<g id="a_node33"><a xlink:href="c__dylink_8cpp.html" target="_top" xlink:title=" ">
<polygon fill="white" stroke="#666666" points="2507.06,-96 2412.06,-96 2412.06,-77 2507.06,-77 2507.06,-96"/>
<text text-anchor="middle" x="2459.56" y="-84" font-family="Helvetica,sans-Serif" font-size="10.00">src/c/c_dylink.cpp</text>
</a>
</g>
</g>
<!-- Node5&#45;&gt;Node69 -->
<g id="edge36" class="edge">
<title>Node5&#45;&gt;Node69</title>
<path fill="none" stroke="#63b8ff" d="M2459.56,-131.46C2459.56,-119.07 2459.56,-104.99 2459.56,-96.18"/>
<polygon fill="#63b8ff" stroke="#63b8ff" points="2456.06,-131.09 2459.56,-141.09 2463.06,-131.09 2456.06,-131.09"/>
</g>
<!-- Node70 -->
<g id="node34" class="node">
<title>Node70</title>
<g id="a_node34"><a xlink:href="d__a__itembase_8cpp.html" target="_top" xlink:title=" ">
<polygon fill="white" stroke="#666666" points="2653.56,-96 2525.56,-96 2525.56,-77 2653.56,-77 2653.56,-96"/>
<text text-anchor="middle" x="2589.56" y="-84" font-family="Helvetica,sans-Serif" font-size="10.00">src/d/a/d_a_itembase.cpp</text>
</a>
</g>
</g>
<!-- Node5&#45;&gt;Node70 -->
<g id="edge38" class="edge">
<title>Node5&#45;&gt;Node70</title>
<path fill="none" stroke="#63b8ff" d="M2496.46,-137.28C2521.63,-123.82 2553.78,-106.63 2572.96,-96.38"/>
<polygon fill="#63b8ff" stroke="#63b8ff" points="2495,-134.08 2487.84,-141.89 2498.3,-140.26 2495,-134.08"/>
</g>
<!-- Node71 -->
<g id="node35" class="node">
<title>Node71</title>
<g id="a_node35"><a xlink:href="d__a__obj_8cpp.html" target="_top" xlink:title=" ">
<polygon fill="white" stroke="#666666" points="2773.06,-96 2672.06,-96 2672.06,-77 2773.06,-77 2773.06,-96"/>
<text text-anchor="middle" x="2722.56" y="-84" font-family="Helvetica,sans-Serif" font-size="10.00">src/d/a/d_a_obj.cpp</text>
</a>
</g>
</g>
<!-- Node5&#45;&gt;Node71 -->
<g id="edge39" class="edge">
<title>Node5&#45;&gt;Node71</title>
<path fill="none" stroke="#63b8ff" d="M2526.15,-141.89C2565.93,-132.54 2617.36,-119.9 2662.56,-107 2673.73,-103.82 2685.94,-99.92 2696.41,-96.46"/>
<polygon fill="#63b8ff" stroke="#63b8ff" points="2525.41,-138.47 2516.47,-144.15 2527,-145.28 2525.41,-138.47"/>
</g>
<!-- Node72 -->
<g id="node36" class="node">
<title>Node72</title>
<g id="a_node36"><a xlink:href="d__bg__s_8cpp.html" target="_top" xlink:title=" ">
<polygon fill="white" stroke="#666666" points="2895.56,-96 2791.56,-96 2791.56,-77 2895.56,-77 2895.56,-96"/>
<text text-anchor="middle" x="2843.56" y="-84" font-family="Helvetica,sans-Serif" font-size="10.00">src/d/bg/d_bg_s.cpp</text>
</a>
</g>
</g>
<!-- Node5&#45;&gt;Node72 -->
<g id="edge42" class="edge">
<title>Node5&#45;&gt;Node72</title>
<path fill="none" stroke="#63b8ff" d="M2526.42,-149.6C2591.94,-141.65 2694.38,-127.36 2781.56,-107 2793.76,-104.15 2807.04,-100.11 2818.16,-96.44"/>
<polygon fill="#63b8ff" stroke="#63b8ff" points="2526.05,-146.12 2516.53,-150.78 2526.88,-153.07 2526.05,-146.12"/>
</g>
<!-- Node73 -->
<g id="node37" class="node">
<title>Node73</title>
<g id="a_node37"><a xlink:href="d__bg__s__movebg__actor_8cpp.html" target="_top" xlink:title=" ">
<polygon fill="white" stroke="#666666" points="3039.56,-101.5 2913.56,-101.5 2913.56,-71.5 3039.56,-71.5 3039.56,-101.5"/>
<text text-anchor="start" x="2921.56" y="-89.5" font-family="Helvetica,sans-Serif" font-size="10.00">src/d/bg/d_bg_s_movebg</text>
<text text-anchor="middle" x="2976.56" y="-78.5" font-family="Helvetica,sans-Serif" font-size="10.00">_actor.cpp</text>
</a>
</g>
</g>
<!-- Node5&#45;&gt;Node73 -->
<g id="edge43" class="edge">
<title>Node5&#45;&gt;Node73</title>
<path fill="none" stroke="#63b8ff" d="M2526.11,-152.71C2613.53,-146.34 2771.54,-132.33 2904.56,-107 2911.94,-105.59 2919.67,-103.83 2927.22,-101.93"/>
<polygon fill="#63b8ff" stroke="#63b8ff" points="2526.01,-149.2 2516.28,-153.41 2526.51,-156.19 2526.01,-149.2"/>
</g>
<!-- Node74 -->
<g id="node38" class="node">
<title>Node74</title>
<g id="a_node38"><a xlink:href="d__bg__w_8cpp.html" target="_top" xlink:title=" ">
<polygon fill="white" stroke="#666666" points="3165.06,-96 3058.06,-96 3058.06,-77 3165.06,-77 3165.06,-96"/>
<text text-anchor="middle" x="3111.56" y="-84" font-family="Helvetica,sans-Serif" font-size="10.00">src/d/bg/d_bg_w.cpp</text>
</a>
</g>
</g>
<!-- Node5&#45;&gt;Node74 -->
<g id="edge44" class="edge">
<title>Node5&#45;&gt;Node74</title>
<path fill="none" stroke="#63b8ff" d="M2526.14,-156C2635.95,-153.32 2861.53,-143.44 3048.56,-107 3061.49,-104.48 3075.51,-100.29 3087.04,-96.44"/>
<polygon fill="#63b8ff" stroke="#63b8ff" points="2526.35,-152.5 2516.44,-156.23 2526.51,-159.5 2526.35,-152.5"/>
</g>
<!-- Node75 -->
<g id="node39" class="node">
<title>Node75</title>
<g id="a_node39"><a xlink:href="d__cc__s_8cpp.html" target="_top" xlink:title=" ">
<polygon fill="white" stroke="#666666" points="3287.56,-96 3183.56,-96 3183.56,-77 3287.56,-77 3287.56,-96"/>
<text text-anchor="middle" x="3235.56" y="-84" font-family="Helvetica,sans-Serif" font-size="10.00">src/d/cc/d_cc_s.cpp</text>
</a>
</g>
</g>
<!-- Node5&#45;&gt;Node75 -->
<g id="edge45" class="edge">
<title>Node5&#45;&gt;Node75</title>
<path fill="none" stroke="#63b8ff" d="M2526.2,-157.52C2653.28,-157.37 2938.56,-151.54 3173.56,-107 3186.42,-104.56 3200.36,-100.33 3211.76,-96.43"/>
<polygon fill="#63b8ff" stroke="#63b8ff" points="2526.28,-154.02 2516.28,-157.52 2526.28,-161.02 2526.28,-154.02"/>
</g>
<!-- Node76 -->
<g id="node40" class="node">
<title>Node76</title>
<g id="a_node40"><a xlink:href="d__com__static_8cpp.html" target="_top" xlink:title=" ">
<polygon fill="white" stroke="#666666" points="3445.56,-96 3305.56,-96 3305.56,-77 3445.56,-77 3445.56,-96"/>
<text text-anchor="middle" x="3375.56" y="-84" font-family="Helvetica,sans-Serif" font-size="10.00">src/d/com/d_com_static.cpp</text>
</a>
</g>
</g>
<!-- Node5&#45;&gt;Node76 -->
<g id="edge47" class="edge">
<title>Node5&#45;&gt;Node76</title>
<path fill="none" stroke="#63b8ff" d="M2526.13,-157.13C2668.4,-156.51 3012.29,-150.21 3296.56,-107 3312.77,-104.54 3330.51,-100.3 3345.06,-96.41"/>
<polygon fill="#63b8ff" stroke="#63b8ff" points="2526.52,-153.63 2516.53,-157.16 2526.54,-160.63 2526.52,-153.63"/>
</g>
<!-- Node77 -->
<g id="node41" class="node">
<title>Node77</title>
<g id="a_node41"><a xlink:href="d__attention_8cpp.html" target="_top" xlink:title=" ">
<polygon fill="white" stroke="#666666" points="3571.06,-96 3464.06,-96 3464.06,-77 3571.06,-77 3571.06,-96"/>
<text text-anchor="middle" x="3517.56" y="-84" font-family="Helvetica,sans-Serif" font-size="10.00">src/d/d_attention.cpp</text>
</a>
</g>
</g>
<!-- Node5&#45;&gt;Node77 -->
<g id="edge48" class="edge">
<title>Node5&#45;&gt;Node77</title>
<path fill="none" stroke="#63b8ff" d="M2526.17,-155.82C2719.01,-152.06 3275.46,-138.7 3454.56,-107 3467.76,-104.67 3482.05,-100.39 3493.68,-96.44"/>
<polygon fill="#63b8ff" stroke="#63b8ff" points="2526.26,-152.32 2516.33,-156.01 2526.39,-159.32 2526.26,-152.32"/>
</g>
<!-- Node78 -->
<g id="node42" class="node">
<title>Node78</title>
<g id="a_node42"><a xlink:href="d__cam__param_8cpp.html" target="_top" xlink:title=" ">
<polygon fill="white" stroke="#666666" points="3710.06,-96 3589.06,-96 3589.06,-77 3710.06,-77 3710.06,-96"/>
<text text-anchor="middle" x="3649.56" y="-84" font-family="Helvetica,sans-Serif" font-size="10.00">src/d/d_cam_param.cpp</text>
</a>
</g>
</g>
<!-- Node5&#45;&gt;Node78 -->
<g id="edge49" class="edge">
<title>Node5&#45;&gt;Node78</title>
<path fill="none" stroke="#63b8ff" d="M2526.14,-156.01C2734.87,-152.59 3374.77,-139.66 3579.56,-107 3594.14,-104.68 3610.01,-100.4 3622.96,-96.45"/>
<polygon fill="#63b8ff" stroke="#63b8ff" points="2526.22,-152.51 2516.28,-156.17 2526.34,-159.51 2526.22,-152.51"/>
</g>
<!-- Node79 -->
<g id="node43" class="node">
<title>Node79</title>
<g id="a_node43"><a xlink:href="d__camera_8cpp.html" target="_top" xlink:title=" ">
<polygon fill="white" stroke="#666666" points="3830.56,-96 3728.56,-96 3728.56,-77 3830.56,-77 3830.56,-96"/>
<text text-anchor="middle" x="3779.56" y="-84" font-family="Helvetica,sans-Serif" font-size="10.00">src/d/d_camera.cpp</text>
</a>
</g>
</g>
<!-- Node5&#45;&gt;Node79 -->
<g id="edge50" class="edge">
<title>Node5&#45;&gt;Node79</title>
<path fill="none" stroke="#63b8ff" d="M2526.3,-156.72C2752.11,-155.39 3486.31,-147.96 3718.56,-107 3731.48,-104.72 3745.45,-100.4 3756.76,-96.4"/>
<polygon fill="#63b8ff" stroke="#63b8ff" points="2526.48,-153.22 2516.5,-156.77 2526.52,-160.22 2526.48,-153.22"/>
</g>
<!-- Node80 -->
<g id="node44" class="node">
<title>Node80</title>
<g id="a_node44"><a xlink:href="d__eye__hl_8cpp.html" target="_top" xlink:title=" ">
<polygon fill="white" stroke="#666666" points="3946.56,-96 3848.56,-96 3848.56,-77 3946.56,-77 3946.56,-96"/>
<text text-anchor="middle" x="3897.56" y="-84" font-family="Helvetica,sans-Serif" font-size="10.00">src/d/d_eye_hl.cpp</text>
</a>
</g>
</g>
<!-- Node5&#45;&gt;Node80 -->
<g id="edge52" class="edge">
<title>Node5&#45;&gt;Node80</title>
<path fill="none" stroke="#63b8ff" d="M2526.2,-157.12C2765.82,-157.15 3583,-153.76 3839.56,-107 3851.9,-104.75 3865.18,-100.43 3875.92,-96.43"/>
<polygon fill="#63b8ff" stroke="#63b8ff" points="2526.42,-153.62 2516.41,-157.12 2526.41,-160.62 2526.42,-153.62"/>
</g>
<!-- Node81 -->
<g id="node45" class="node">
<title>Node81</title>
<g id="a_node45"><a xlink:href="d__kyeff_8cpp.html" target="_top" xlink:title=" ">
<polygon fill="white" stroke="#666666" points="4054.56,-96 3964.56,-96 3964.56,-77 4054.56,-77 4054.56,-96"/>
<text text-anchor="middle" x="4009.56" y="-84" font-family="Helvetica,sans-Serif" font-size="10.00">src/d/d_kyeff.cpp</text>
</a>
</g>
</g>
<!-- Node5&#45;&gt;Node81 -->
<g id="edge53" class="edge">
<title>Node5&#45;&gt;Node81</title>
<path fill="none" stroke="#63b8ff" d="M2526.26,-156C2798.04,-151.75 3814.29,-134.17 3955.56,-107 3967.11,-104.78 3979.49,-100.46 3989.48,-96.45"/>
<polygon fill="#63b8ff" stroke="#63b8ff" points="2526.47,-152.49 2516.52,-156.15 2526.58,-159.49 2526.47,-152.49"/>
</g>
<!-- Node5&#45;&gt;Node98 -->
<g id="edge57" class="edge">
<title>Node5&#45;&gt;Node98</title>
<path fill="none" stroke="#63b8ff" d="M2392.71,-156.37C2056.36,-153.08 557.21,-136.84 351.56,-107 336.44,-104.81 319.96,-100.49 306.59,-96.48"/>
<polygon fill="#63b8ff" stroke="#63b8ff" points="2392.63,-159.87 2402.67,-156.47 2392.7,-152.87 2392.63,-159.87"/>
</g>
<!-- Node5&#45;&gt;Node105 -->
<g id="edge58" class="edge">
<title>Node5&#45;&gt;Node105</title>
<path fill="none" stroke="#63b8ff" d="M2526.3,-156.59C2835.53,-154.5 4131.09,-143.68 4534.56,-107 4559.76,-104.71 4587.61,-100.44 4610.44,-96.48"/>
<polygon fill="#63b8ff" stroke="#63b8ff" points="2526.35,-153.09 2516.38,-156.65 2526.4,-160.09 2526.35,-153.09"/>
</g>
<!-- Node5&#45;&gt;Node107 -->
<g id="edge59" class="edge">
<title>Node5&#45;&gt;Node107</title>
<path fill="none" stroke="#63b8ff" d="M2526.32,-156.46C2878.61,-153.48 4514.02,-138.08 4737.56,-107 4753.29,-104.81 4770.45,-100.5 4784.39,-96.48"/>
<polygon fill="#63b8ff" stroke="#63b8ff" points="2526.3,-152.96 2516.33,-156.54 2526.36,-159.96 2526.3,-152.96"/>
</g>
<!-- Node6&#45;&gt;Node11 -->
<g id="edge6" class="edge">
<title>Node6&#45;&gt;Node11</title>
<path fill="none" stroke="#63b8ff" d="M487.56,-65.39C487.56,-54.15 487.56,-40.41 487.56,-30.27"/>
<polygon fill="#63b8ff" stroke="#63b8ff" points="484.06,-65.18 487.56,-75.18 491.06,-65.18 484.06,-65.18"/>
</g>
<!-- Node18&#45;&gt;Node15 -->
<g id="edge9" class="edge">
<title>Node18&#45;&gt;Node15</title>
<path fill="none" stroke="#63b8ff" d="M4385.48,-78.21C4310.4,-68.65 4176.94,-50.63 4063.56,-30 4055.4,-28.51 4046.68,-26.74 4038.4,-24.96"/>
<polygon fill="#63b8ff" stroke="#63b8ff" points="4384.71,-81.64 4395.07,-79.43 4385.59,-74.7 4384.71,-81.64"/>
</g>
<!-- Node18&#45;&gt;Node19 -->
<g id="edge10" class="edge">
<title>Node18&#45;&gt;Node19</title>
<path fill="none" stroke="#63b8ff" d="M4444.56,-65.3C4444.56,-51.94 4444.56,-35.09 4444.56,-24.95"/>
<polygon fill="#63b8ff" stroke="#63b8ff" points="4441.06,-65.18 4444.56,-75.18 4448.06,-65.18 4441.06,-65.18"/>
</g>
<!-- Node18&#45;&gt;Node20 -->
<g id="edge11" class="edge">
<title>Node18&#45;&gt;Node20</title>
<path fill="none" stroke="#63b8ff" d="M4472.12,-71.32C4495.25,-59.41 4528.16,-42.46 4551.45,-30.47"/>
<polygon fill="#63b8ff" stroke="#63b8ff" points="4470.57,-68.17 4463.28,-75.86 4473.78,-74.4 4470.57,-68.17"/>
</g>
<!-- Node18&#45;&gt;Node21 -->
<g id="edge12" class="edge">
<title>Node18&#45;&gt;Node21</title>
<path fill="none" stroke="#63b8ff" d="M4501.44,-74.43C4572.29,-60.63 4691.88,-37.35 4756.64,-24.75"/>
<polygon fill="#63b8ff" stroke="#63b8ff" points="4501.14,-70.92 4491.99,-76.27 4502.48,-77.79 4501.14,-70.92"/>
</g>
<!-- Node35&#45;&gt;Node3 -->
<g id="edge19" class="edge">
<title>Node35&#45;&gt;Node3</title>
<path fill="none" stroke="#63b8ff" d="M180.73,-99.31C191.14,-101.96 202.22,-104.67 212.56,-107 363.17,-140.86 401.17,-148.37 553.56,-173 740.72,-203.25 788.02,-208.18 976.56,-228 1180.19,-249.41 1422.18,-266.46 1534.89,-273.92"/>
<polygon fill="#63b8ff" stroke="#63b8ff" points="181.78,-95.96 171.22,-96.85 180.03,-102.74 181.78,-95.96"/>
</g>
<!-- Node37&#45;&gt;Node11 -->
<g id="edge24" class="edge">
<title>Node37&#45;&gt;Node11</title>
<path fill="none" stroke="#63b8ff" d="M579.72,-65.65C558.84,-54.4 533.19,-40.58 514.26,-30.38"/>
<polygon fill="#63b8ff" stroke="#63b8ff" points="578.04,-68.72 588.5,-70.38 581.36,-62.56 578.04,-68.72"/>
</g>
<!-- Node37&#45;&gt;Node15 -->
<g id="edge21" class="edge">
<title>Node37&#45;&gt;Node15</title>
<path fill="none" stroke="#63b8ff" d="M682.93,-71.65C696.32,-69.35 710.35,-67.3 723.56,-66 1056.41,-33.36 3542.67,-18.49 3944.73,-16.29"/>
<polygon fill="#63b8ff" stroke="#63b8ff" points="682.57,-68.16 673.34,-73.36 683.8,-75.05 682.57,-68.16"/>
</g>
<!-- Node37&#45;&gt;Node42 -->
<g id="edge22" class="edge">
<title>Node37&#45;&gt;Node42</title>
<path fill="none" stroke="#63b8ff" d="M630.73,-61.49C638.25,-48.74 647.03,-33.86 652.44,-24.68"/>
<polygon fill="#63b8ff" stroke="#63b8ff" points="627.9,-59.4 625.83,-69.8 633.92,-62.96 627.9,-59.4"/>
</g>
<!-- Node37&#45;&gt;Node46 -->
<g id="edge23" class="edge">
<title>Node37&#45;&gt;Node46</title>
<path fill="none" stroke="#63b8ff" d="M683.03,-74.47C706.23,-71.09 732.48,-67.8 756.56,-66 1518.71,-9.17 3433.95,-93.55 4195.56,-30 4208.66,-28.91 4222.74,-27.02 4235.75,-24.99"/>
<polygon fill="#63b8ff" stroke="#63b8ff" points="682.79,-70.97 673.41,-75.91 683.82,-77.89 682.79,-70.97"/>
</g>
<!-- Node37&#45;&gt;Node47 -->
<g id="edge25" class="edge">
<title>Node37&#45;&gt;Node47</title>
<path fill="none" stroke="#63b8ff" d="M558.04,-67.84C555.85,-67.22 553.69,-66.6 551.56,-66 505.51,-53 452.85,-39.15 414.83,-29.34"/>
<polygon fill="#63b8ff" stroke="#63b8ff" points="557.02,-71.19 567.59,-70.63 558.97,-64.47 557.02,-71.19"/>
</g>
<!-- Node65&#45;&gt;Node15 -->
<g id="edge32" class="edge">
<title>Node65&#45;&gt;Node15</title>
<path fill="none" stroke="#63b8ff" d="M4123.2,-66.84C4090.12,-53.24 4046.75,-35.41 4021.15,-24.88"/>
<polygon fill="#63b8ff" stroke="#63b8ff" points="4121.57,-69.96 4132.15,-70.52 4124.23,-63.48 4121.57,-69.96"/>
</g>
<!-- Node65&#45;&gt;Node66 -->
<g id="edge33" class="edge">
<title>Node65&#45;&gt;Node66</title>
<path fill="none" stroke="#63b8ff" d="M4154.88,-61.11C4147.77,-48.44 4139.53,-33.77 4134.44,-24.68"/>
<polygon fill="#63b8ff" stroke="#63b8ff" points="4151.8,-62.77 4159.74,-69.78 4157.9,-59.35 4151.8,-62.77"/>
</g>
</g>
</svg>
