<?xml version="1.0" encoding="UTF-8" standalone="no"?>
<!DOCTYPE svg PUBLIC "-//W3C//DTD SVG 1.1//EN"
 "http://www.w3.org/Graphics/SVG/1.1/DTD/svg11.dtd">
<!-- Generated by graphviz version 7.0.4 (20221203.1631)
 -->
<!-- Title: include/MSL_C/MSL_Common/Src/printf.h Pages: 1 -->
<svg width="3981pt" height="577pt"
 viewBox="0.00 0.00 3981.00 577.00" xmlns="http://www.w3.org/2000/svg" xmlns:xlink="http://www.w3.org/1999/xlink">
<g id="graph0" class="graph" transform="scale(1 1) rotate(0) translate(4 573)">
<title>include/MSL_C/MSL_Common/Src/printf.h</title>
<!-- Node1 -->
<g id="node1" class="node">
<title>Node1</title>
<g id="a_node1"><a xlink:title=" ">
<polygon fill="#999999" stroke="#666666" points="3344.5,-569 3192.5,-569 3192.5,-539 3344.5,-539 3344.5,-569"/>
<text text-anchor="start" x="3200.5" y="-557" font-family="Helvetica,sans-Serif" font-size="10.00">include/MSL_C/MSL_Common</text>
<text text-anchor="middle" x="3268.5" y="-546" font-family="Helvetica,sans-Serif" font-size="10.00">/Src/printf.h</text>
</a>
</g>
</g>
<!-- Node2 -->
<g id="node2" class="node">
<title>Node2</title>
<g id="a_node2"><a xlink:href="J2DPrint_8h.html" target="_top" xlink:title=" ">
<polygon fill="white" stroke="#666666" points="409,-503 274,-503 274,-473 409,-473 409,-503"/>
<text text-anchor="start" x="282" y="-491" font-family="Helvetica,sans-Serif" font-size="10.00">include/JSystem/J2DGraph</text>
<text text-anchor="middle" x="341.5" y="-480" font-family="Helvetica,sans-Serif" font-size="10.00">/J2DPrint.h</text>
</a>
</g>
</g>
<!-- Node1&#45;&gt;Node2 -->
<g id="edge1" class="edge">
<title>Node1&#45;&gt;Node2</title>
<path fill="none" stroke="#63b8ff" d="M3180.8,-551.08C2742.83,-541.51 798.2,-498.99 409.32,-490.48"/>
<polygon fill="#63b8ff" stroke="#63b8ff" points="3180.5,-554.58 3190.58,-551.3 3180.65,-547.58 3180.5,-554.58"/>
</g>
<!-- Node8 -->
<g id="node8" class="node">
<title>Node8</title>
<g id="a_node8"><a xlink:href="d__save_8h.html" target="_top" xlink:title=" ">
<polygon fill="white" stroke="#666666" points="2005.5,-497.5 1883.5,-497.5 1883.5,-478.5 2005.5,-478.5 2005.5,-497.5"/>
<text text-anchor="middle" x="1944.5" y="-485.5" font-family="Helvetica,sans-Serif" font-size="10.00">include/d/save/d_save.h</text>
</a>
</g>
</g>
<!-- Node1&#45;&gt;Node8 -->
<g id="edge7" class="edge">
<title>Node1&#45;&gt;Node8</title>
<path fill="none" stroke="#63b8ff" d="M3180.89,-548.77C2931.09,-536.69 2219.56,-502.3 2005.9,-491.97"/>
<polygon fill="#63b8ff" stroke="#63b8ff" points="3180.41,-552.25 3190.57,-549.23 3180.75,-545.25 3180.41,-552.25"/>
</g>
<!-- Node111 -->
<g id="node32" class="node">
<title>Node111</title>
<g id="a_node32"><a xlink:href="m__Do__MemCardRWmng_8cpp.html" target="_top" xlink:title=" ">
<polygon fill="white" stroke="#666666" points="3089,-96 2902,-96 2902,-77 3089,-77 3089,-96"/>
<text text-anchor="middle" x="2995.5" y="-84" font-family="Helvetica,sans-Serif" font-size="10.00">src/m_Do/m_Do_MemCardRWmng.cpp</text>
</a>
</g>
</g>
<!-- Node1&#45;&gt;Node111 -->
<g id="edge68" class="edge">
<title>Node1&#45;&gt;Node111</title>
<path fill="none" stroke="#63b8ff" d="M3180.91,-551.33C3090.76,-547.75 2958.4,-536.71 2921.5,-503 2894.52,-478.35 2902.5,-459.54 2902.5,-423 2902.5,-423 2902.5,-423 2902.5,-217.5 2902.5,-162.83 2957.57,-115.32 2982.96,-96.32"/>
<polygon fill="#63b8ff" stroke="#63b8ff" points="3180.6,-554.82 3190.73,-551.69 3180.86,-547.82 3180.6,-554.82"/>
</g>
<!-- Node167 -->
<g id="node42" class="node">
<title>Node167</title>
<g id="a_node42"><a xlink:href="m__Do__printf_8h.html" target="_top" xlink:title=" ">
<polygon fill="white" stroke="#666666" points="3070,-497.5 2931,-497.5 2931,-478.5 3070,-478.5 3070,-497.5"/>
<text text-anchor="middle" x="3000.5" y="-485.5" font-family="Helvetica,sans-Serif" font-size="10.00">include/m_Do/m_Do_printf.h</text>
</a>
</g>
</g>
<!-- Node1&#45;&gt;Node167 -->
<g id="edge59" class="edge">
<title>Node1&#45;&gt;Node167</title>
<path fill="none" stroke="#63b8ff" d="M3197.03,-535.93C3145.9,-523.72 3079.1,-507.77 3038.03,-497.96"/>
<polygon fill="#63b8ff" stroke="#63b8ff" points="3196.01,-539.29 3206.55,-538.21 3197.64,-532.48 3196.01,-539.29"/>
</g>
<!-- Node169 -->
<g id="node44" class="node">
<title>Node169</title>
<g id="a_node44"><a xlink:href="JKRThread_8cpp.html" target="_top" xlink:title=" ">
<polygon fill="white" stroke="#666666" points="3197,-503 3088,-503 3088,-473 3197,-473 3197,-503"/>
<text text-anchor="start" x="3096" y="-491" font-family="Helvetica,sans-Serif" font-size="10.00">libs/JSystem/JKernel</text>
<text text-anchor="middle" x="3142.5" y="-480" font-family="Helvetica,sans-Serif" font-size="10.00">/JKRThread.cpp</text>
</a>
</g>
</g>
<!-- Node1&#45;&gt;Node169 -->
<g id="edge61" class="edge">
<title>Node1&#45;&gt;Node169</title>
<path fill="none" stroke="#63b8ff" d="M3230.02,-533.45C3210.88,-523.73 3188.17,-512.2 3170.68,-503.31"/>
<polygon fill="#63b8ff" stroke="#63b8ff" points="3228.37,-536.54 3238.87,-537.95 3231.54,-530.3 3228.37,-536.54"/>
</g>
<!-- Node170 -->
<g id="node45" class="node">
<title>Node170</title>
<g id="a_node45"><a xlink:href="JUTConsole_8cpp.html" target="_top" xlink:title=" ">
<polygon fill="white" stroke="#666666" points="3321.5,-503 3215.5,-503 3215.5,-473 3321.5,-473 3321.5,-503"/>
<text text-anchor="start" x="3223.5" y="-491" font-family="Helvetica,sans-Serif" font-size="10.00">libs/JSystem/JUtility</text>
<text text-anchor="middle" x="3268.5" y="-480" font-family="Helvetica,sans-Serif" font-size="10.00">/JUTConsole.cpp</text>
</a>
</g>
</g>
<!-- Node1&#45;&gt;Node170 -->
<g id="edge62" class="edge">
<title>Node1&#45;&gt;Node170</title>
<path fill="none" stroke="#63b8ff" d="M3268.5,-527.39C3268.5,-519.13 3268.5,-510.28 3268.5,-503.16"/>
<polygon fill="#63b8ff" stroke="#63b8ff" points="3265,-527.28 3268.5,-537.28 3272,-527.28 3265,-527.28"/>
</g>
<!-- Node171 -->
<g id="node46" class="node">
<title>Node171</title>
<g id="a_node46"><a xlink:href="JUTDbPrint_8cpp.html" target="_top" xlink:title=" ">
<polygon fill="white" stroke="#666666" points="3445.5,-503 3339.5,-503 3339.5,-473 3445.5,-473 3445.5,-503"/>
<text text-anchor="start" x="3347.5" y="-491" font-family="Helvetica,sans-Serif" font-size="10.00">libs/JSystem/JUtility</text>
<text text-anchor="middle" x="3392.5" y="-480" font-family="Helvetica,sans-Serif" font-size="10.00">/JUTDbPrint.cpp</text>
</a>
</g>
</g>
<!-- Node1&#45;&gt;Node171 -->
<g id="edge63" class="edge">
<title>Node1&#45;&gt;Node171</title>
<path fill="none" stroke="#63b8ff" d="M3306.37,-533.45C3325.2,-523.73 3347.55,-512.2 3364.76,-503.31"/>
<polygon fill="#63b8ff" stroke="#63b8ff" points="3304.95,-530.25 3297.67,-537.94 3308.16,-536.47 3304.95,-530.25"/>
</g>
<!-- Node172 -->
<g id="node47" class="node">
<title>Node172</title>
<g id="a_node47"><a xlink:href="JUTDirectPrint_8cpp.html" target="_top" xlink:title=" ">
<polygon fill="white" stroke="#666666" points="3569.5,-503 3463.5,-503 3463.5,-473 3569.5,-473 3569.5,-503"/>
<text text-anchor="start" x="3471.5" y="-491" font-family="Helvetica,sans-Serif" font-size="10.00">libs/JSystem/JUtility</text>
<text text-anchor="middle" x="3516.5" y="-480" font-family="Helvetica,sans-Serif" font-size="10.00">/JUTDirectPrint.cpp</text>
</a>
</g>
</g>
<!-- Node1&#45;&gt;Node172 -->
<g id="edge64" class="edge">
<title>Node1&#45;&gt;Node172</title>
<path fill="none" stroke="#63b8ff" d="M3335.49,-535.71C3375.61,-525.36 3425.9,-512.38 3463.29,-502.73"/>
<polygon fill="#63b8ff" stroke="#63b8ff" points="3334.74,-532.29 3325.93,-538.18 3336.49,-539.07 3334.74,-532.29"/>
</g>
<!-- Node173 -->
<g id="node48" class="node">
<title>Node173</title>
<g id="a_node48"><a xlink:href="JUTException_8cpp.html" target="_top" xlink:title=" ">
<polygon fill="white" stroke="#666666" points="3693.5,-503 3587.5,-503 3587.5,-473 3693.5,-473 3693.5,-503"/>
<text text-anchor="start" x="3595.5" y="-491" font-family="Helvetica,sans-Serif" font-size="10.00">libs/JSystem/JUtility</text>
<text text-anchor="middle" x="3640.5" y="-480" font-family="Helvetica,sans-Serif" font-size="10.00">/JUTException.cpp</text>
</a>
</g>
</g>
<!-- Node1&#45;&gt;Node173 -->
<g id="edge65" class="edge">
<title>Node1&#45;&gt;Node173</title>
<path fill="none" stroke="#63b8ff" d="M3356.19,-540.34C3418.41,-531 3503.8,-517.44 3578.5,-503 3581.32,-502.46 3584.2,-501.88 3587.11,-501.28"/>
<polygon fill="#63b8ff" stroke="#63b8ff" points="3355.72,-536.87 3346.35,-541.81 3356.76,-543.8 3355.72,-536.87"/>
</g>
<!-- Node174 -->
<g id="node49" class="node">
<title>Node174</title>
<g id="a_node49"><a xlink:href="printf_8c.html" target="_top" xlink:title=" ">
<polygon fill="white" stroke="#666666" points="3847.5,-503 3711.5,-503 3711.5,-473 3847.5,-473 3847.5,-503"/>
<text text-anchor="start" x="3719.5" y="-491" font-family="Helvetica,sans-Serif" font-size="10.00">libs/MSL_C/MSL_Common</text>
<text text-anchor="middle" x="3779.5" y="-480" font-family="Helvetica,sans-Serif" font-size="10.00">/Src/printf.c</text>
</a>
</g>
</g>
<!-- Node1&#45;&gt;Node174 -->
<g id="edge66" class="edge">
<title>Node1&#45;&gt;Node174</title>
<path fill="none" stroke="#63b8ff" d="M3355.99,-544.61C3443.8,-535.79 3582.83,-520.75 3702.5,-503 3705.32,-502.58 3708.2,-502.14 3711.1,-501.67"/>
<polygon fill="#63b8ff" stroke="#63b8ff" points="3355.85,-541.11 3346.25,-545.58 3356.55,-548.07 3355.85,-541.11"/>
</g>
<!-- Node175 -->
<g id="node50" class="node">
<title>Node175</title>
<g id="a_node50"><a xlink:href="DynamicLink_8cpp.html" target="_top" xlink:title=" ">
<polygon fill="white" stroke="#666666" points="3973,-497.5 3866,-497.5 3866,-478.5 3973,-478.5 3973,-497.5"/>
<text text-anchor="middle" x="3919.5" y="-485.5" font-family="Helvetica,sans-Serif" font-size="10.00">src/DynamicLink.cpp</text>
</a>
</g>
</g>
<!-- Node1&#45;&gt;Node175 -->
<g id="edge67" class="edge">
<title>Node1&#45;&gt;Node175</title>
<path fill="none" stroke="#63b8ff" d="M3355.72,-549.24C3470.91,-543.43 3679.84,-530.02 3856.5,-503 3865.14,-501.68 3874.36,-499.86 3883.01,-497.98"/>
<polygon fill="#63b8ff" stroke="#63b8ff" points="3355.86,-545.72 3346.04,-549.72 3356.2,-552.72 3355.86,-545.72"/>
</g>
<!-- Node3 -->
<g id="node3" class="node">
<title>Node3</title>
<g id="a_node3"><a xlink:href="J2DTextBoxEx_8h.html" target="_top" xlink:title=" ">
<polygon fill="white" stroke="#666666" points="195,-437 60,-437 60,-407 195,-407 195,-437"/>
<text text-anchor="start" x="68" y="-425" font-family="Helvetica,sans-Serif" font-size="10.00">include/JSystem/J2DGraph</text>
<text text-anchor="middle" x="127.5" y="-414" font-family="Helvetica,sans-Serif" font-size="10.00">/J2DTextBoxEx.h</text>
</a>
</g>
</g>
<!-- Node2&#45;&gt;Node3 -->
<g id="edge2" class="edge">
<title>Node2&#45;&gt;Node3</title>
<path fill="none" stroke="#63b8ff" d="M282.59,-469.38C248.94,-459.32 207.28,-446.86 175.62,-437.39"/>
<polygon fill="#63b8ff" stroke="#63b8ff" points="281.17,-472.61 291.76,-472.12 283.18,-465.91 281.17,-472.61"/>
</g>
<!-- Node6 -->
<g id="node6" class="node">
<title>Node6</title>
<g id="a_node6"><a xlink:href="J2DPrint_8cpp.html" target="_top" xlink:title=" ">
<polygon fill="white" stroke="#666666" points="332,-437 213,-437 213,-407 332,-407 332,-437"/>
<text text-anchor="start" x="221" y="-425" font-family="Helvetica,sans-Serif" font-size="10.00">libs/JSystem/J2DGraph</text>
<text text-anchor="middle" x="272.5" y="-414" font-family="Helvetica,sans-Serif" font-size="10.00">/J2DPrint.cpp</text>
</a>
</g>
</g>
<!-- Node2&#45;&gt;Node6 -->
<g id="edge5" class="edge">
<title>Node2&#45;&gt;Node6</title>
<path fill="none" stroke="#63b8ff" d="M317.88,-465.09C307.91,-455.85 296.61,-445.36 287.77,-437.16"/>
<polygon fill="#63b8ff" stroke="#63b8ff" points="315.37,-467.53 325.08,-471.77 320.13,-462.4 315.37,-467.53"/>
</g>
<!-- Node7 -->
<g id="node7" class="node">
<title>Node7</title>
<g id="a_node7"><a xlink:href="J2DTextBox_8cpp.html" target="_top" xlink:title=" ">
<polygon fill="white" stroke="#666666" points="469,-437 350,-437 350,-407 469,-407 469,-437"/>
<text text-anchor="start" x="358" y="-425" font-family="Helvetica,sans-Serif" font-size="10.00">libs/JSystem/J2DGraph</text>
<text text-anchor="middle" x="409.5" y="-414" font-family="Helvetica,sans-Serif" font-size="10.00">/J2DTextBox.cpp</text>
</a>
</g>
</g>
<!-- Node2&#45;&gt;Node7 -->
<g id="edge6" class="edge">
<title>Node2&#45;&gt;Node7</title>
<path fill="none" stroke="#63b8ff" d="M364.78,-465.09C374.6,-455.85 385.74,-445.36 394.45,-437.16"/>
<polygon fill="#63b8ff" stroke="#63b8ff" points="362.58,-462.36 357.69,-471.76 367.37,-467.45 362.58,-462.36"/>
</g>
<!-- Node4 -->
<g id="node4" class="node">
<title>Node4</title>
<g id="a_node4"><a xlink:href="J2DScreen_8cpp.html" target="_top" xlink:title=" ">
<polygon fill="white" stroke="#666666" points="256,-371 137,-371 137,-341 256,-341 256,-371"/>
<text text-anchor="start" x="145" y="-359" font-family="Helvetica,sans-Serif" font-size="10.00">libs/JSystem/J2DGraph</text>
<text text-anchor="middle" x="196.5" y="-348" font-family="Helvetica,sans-Serif" font-size="10.00">/J2DScreen.cpp</text>
</a>
</g>
</g>
<!-- Node3&#45;&gt;Node4 -->
<g id="edge3" class="edge">
<title>Node3&#45;&gt;Node4</title>
<path fill="none" stroke="#63b8ff" d="M151.12,-399.09C161.09,-389.85 172.39,-379.36 181.23,-371.16"/>
<polygon fill="#63b8ff" stroke="#63b8ff" points="148.87,-396.4 143.92,-405.77 153.63,-401.53 148.87,-396.4"/>
</g>
<!-- Node5 -->
<g id="node5" class="node">
<title>Node5</title>
<g id="a_node5"><a xlink:href="J2DTextBoxEx_8cpp.html" target="_top" xlink:title=" ">
<polygon fill="white" stroke="#666666" points="119,-371 0,-371 0,-341 119,-341 119,-371"/>
<text text-anchor="start" x="8" y="-359" font-family="Helvetica,sans-Serif" font-size="10.00">libs/JSystem/J2DGraph</text>
<text text-anchor="middle" x="59.5" y="-348" font-family="Helvetica,sans-Serif" font-size="10.00">/J2DTextBoxEx.cpp</text>
</a>
</g>
</g>
<!-- Node3&#45;&gt;Node5 -->
<g id="edge4" class="edge">
<title>Node3&#45;&gt;Node5</title>
<path fill="none" stroke="#63b8ff" d="M104.22,-399.09C94.4,-389.85 83.26,-379.36 74.55,-371.16"/>
<polygon fill="#63b8ff" stroke="#63b8ff" points="101.63,-401.45 111.31,-405.76 106.42,-396.36 101.63,-401.45"/>
</g>
<!-- Node9 -->
<g id="node9" class="node">
<title>Node9</title>
<g id="a_node9"><a xlink:href="d__a__player_8h.html" target="_top" xlink:title=" ">
<polygon fill="white" stroke="#666666" points="2139,-365.5 2018,-365.5 2018,-346.5 2139,-346.5 2139,-365.5"/>
<text text-anchor="middle" x="2078.5" y="-353.5" font-family="Helvetica,sans-Serif" font-size="10.00">include/d/a/d_a_player.h</text>
</a>
</g>
</g>
<!-- Node8&#45;&gt;Node9 -->
<g id="edge8" class="edge">
<title>Node8&#45;&gt;Node9</title>
<path fill="none" stroke="#63b8ff" d="M1961.63,-470.38C1990.29,-442.58 2046.97,-387.59 2069.23,-366"/>
<polygon fill="#63b8ff" stroke="#63b8ff" points="1959.54,-467.54 1954.8,-477.01 1964.41,-472.56 1959.54,-467.54"/>
</g>
<!-- Node11 -->
<g id="node11" class="node">
<title>Node11</title>
<g id="a_node11"><a xlink:href="d__com__inf__game_8h.html" target="_top" xlink:title=" ">
<polygon fill="#fff0f0" stroke="red" points="2016.5,-173 1906.5,-173 1906.5,-143 2016.5,-143 2016.5,-173"/>
<text text-anchor="start" x="1914.5" y="-161" font-family="Helvetica,sans-Serif" font-size="10.00">include/d/com/d_com</text>
<text text-anchor="middle" x="1961.5" y="-150" font-family="Helvetica,sans-Serif" font-size="10.00">_inf_game.h</text>
</a>
</g>
</g>
<!-- Node8&#45;&gt;Node11 -->
<g id="edge45" class="edge">
<title>Node8&#45;&gt;Node11</title>
<path fill="none" stroke="#63b8ff" d="M2017.07,-484.61C2164.35,-477.79 2484.5,-452.04 2484.5,-357 2484.5,-357 2484.5,-357 2484.5,-283.5 2484.5,-188.18 2151.58,-165.71 2016.98,-160.52"/>
<polygon fill="#63b8ff" stroke="#63b8ff" points="2017.27,-481.1 2007.43,-485.04 2017.58,-488.1 2017.27,-481.1"/>
</g>
<!-- Node17 -->
<g id="node13" class="node">
<title>Node17</title>
<g id="a_node13"><a xlink:href="d__meter2__info_8cpp.html" target="_top" xlink:title=" ">
<polygon fill="white" stroke="#666666" points="833.5,-30 723.5,-30 723.5,0 833.5,0 833.5,-30"/>
<text text-anchor="start" x="731.5" y="-18" font-family="Helvetica,sans-Serif" font-size="10.00">src/d/meter/d_meter2</text>
<text text-anchor="middle" x="778.5" y="-7" font-family="Helvetica,sans-Serif" font-size="10.00">_info.cpp</text>
</a>
</g>
</g>
<!-- Node8&#45;&gt;Node17 -->
<g id="edge56" class="edge">
<title>Node8&#45;&gt;Node17</title>
<path fill="none" stroke="#63b8ff" d="M1871.92,-484.33C1578.75,-473.06 497.5,-426.77 497.5,-357 497.5,-357 497.5,-357 497.5,-157 497.5,-115.68 487.03,-94.96 516.5,-66 545.11,-37.88 654.99,-24.92 723.04,-19.48"/>
<polygon fill="#63b8ff" stroke="#63b8ff" points="1871.61,-487.82 1881.74,-484.7 1871.88,-480.82 1871.61,-487.82"/>
</g>
<!-- Node46 -->
<g id="node31" class="node">
<title>Node46</title>
<g id="a_node31"><a xlink:href="d__save_8cpp.html" target="_top" xlink:title=" ">
<polygon fill="white" stroke="#666666" points="641,-96 526,-96 526,-77 641,-77 641,-96"/>
<text text-anchor="middle" x="583.5" y="-84" font-family="Helvetica,sans-Serif" font-size="10.00">src/d/save/d_save.cpp</text>
</a>
</g>
</g>
<!-- Node8&#45;&gt;Node46 -->
<g id="edge58" class="edge">
<title>Node8&#45;&gt;Node46</title>
<path fill="none" stroke="#63b8ff" d="M1872.1,-483.46C1667.28,-472.48 1098.5,-434.98 1098.5,-357 1098.5,-357 1098.5,-357 1098.5,-217.5 1098.5,-114.96 749.53,-133.61 650.5,-107 638.22,-103.7 624.74,-99.83 613.11,-96.4"/>
<polygon fill="#63b8ff" stroke="#63b8ff" points="1871.63,-486.94 1881.81,-483.97 1872.01,-479.95 1871.63,-486.94"/>
</g>
<!-- Node149 -->
<g id="node34" class="node">
<title>Node149</title>
<g id="a_node34"><a xlink:href="d__attention_8h.html" target="_top" xlink:title=" ">
<polygon fill="#fff0f0" stroke="red" points="2456.5,-294 2342.5,-294 2342.5,-275 2456.5,-275 2456.5,-294"/>
<text text-anchor="middle" x="2399.5" y="-282" font-family="Helvetica,sans-Serif" font-size="10.00">include/d/d_attention.h</text>
</a>
</g>
</g>
<!-- Node8&#45;&gt;Node149 -->
<g id="edge46" class="edge">
<title>Node8&#45;&gt;Node149</title>
<path fill="none" stroke="#63b8ff" d="M1975.09,-473.45C2061.73,-435.08 2307.21,-326.37 2379.34,-294.43"/>
<polygon fill="#63b8ff" stroke="#63b8ff" points="1973.75,-470.22 1966.02,-477.47 1976.58,-476.62 1973.75,-470.22"/>
</g>
<!-- Node127 -->
<g id="node35" class="node">
<title>Node127</title>
<g id="a_node35"><a xlink:href="d__event_8h.html" target="_top" xlink:title=" ">
<polygon fill="#fff0f0" stroke="red" points="1908.5,-294 1780.5,-294 1780.5,-275 1908.5,-275 1908.5,-294"/>
<text text-anchor="middle" x="1844.5" y="-282" font-family="Helvetica,sans-Serif" font-size="10.00">include/d/event/d_event.h</text>
</a>
</g>
</g>
<!-- Node8&#45;&gt;Node127 -->
<g id="edge54" class="edge">
<title>Node8&#45;&gt;Node127</title>
<path fill="none" stroke="#63b8ff" d="M1941.48,-467.26C1938.5,-450.69 1933.12,-426.64 1924.5,-407 1904.4,-361.21 1867.54,-313.57 1851.86,-294.33"/>
<polygon fill="#63b8ff" stroke="#63b8ff" points="1937.97,-467.49 1943.06,-476.79 1944.88,-466.35 1937.97,-467.49"/>
</g>
<!-- Node153 -->
<g id="node38" class="node">
<title>Node153</title>
<g id="a_node38"><a xlink:href="d__stage_8h.html" target="_top" xlink:title=" ">
<polygon fill="#fff0f0" stroke="red" points="1916,-431.5 1815,-431.5 1815,-412.5 1916,-412.5 1916,-431.5"/>
<text text-anchor="middle" x="1865.5" y="-419.5" font-family="Helvetica,sans-Serif" font-size="10.00">include/d/d_stage.h</text>
</a>
</g>
</g>
<!-- Node8&#45;&gt;Node153 -->
<g id="edge47" class="edge">
<title>Node8&#45;&gt;Node153</title>
<path fill="none" stroke="#63b8ff" d="M1924.8,-471.04C1909.5,-458.64 1888.85,-441.92 1876.39,-431.82"/>
<polygon fill="#63b8ff" stroke="#63b8ff" points="1922.37,-473.57 1932.34,-477.15 1926.77,-468.13 1922.37,-473.57"/>
</g>
<!-- Node159 -->
<g id="node39" class="node">
<title>Node159</title>
<g id="a_node39"><a xlink:href="d__event__data_8h.html" target="_top" xlink:title=" ">
<polygon fill="#fff0f0" stroke="red" points="1724.5,-371 1604.5,-371 1604.5,-341 1724.5,-341 1724.5,-371"/>
<text text-anchor="start" x="1612.5" y="-359" font-family="Helvetica,sans-Serif" font-size="10.00">include/d/event/d_event</text>
<text text-anchor="middle" x="1664.5" y="-348" font-family="Helvetica,sans-Serif" font-size="10.00">_data.h</text>
</a>
</g>
</g>
<!-- Node8&#45;&gt;Node159 -->
<g id="edge55" class="edge">
<title>Node8&#45;&gt;Node159</title>
<path fill="none" stroke="#63b8ff" d="M1871.66,-481.8C1804.04,-475.48 1709.97,-462.33 1683.5,-437 1665.66,-419.92 1663.25,-389.39 1663.57,-371.39"/>
<polygon fill="#63b8ff" stroke="#63b8ff" points="1871.32,-485.29 1881.6,-482.7 1871.95,-478.32 1871.32,-485.29"/>
</g>
<!-- Node164 -->
<g id="node40" class="node">
<title>Node164</title>
<g id="a_node40"><a xlink:href="d__vibration_8h.html" target="_top" xlink:title=" ">
<polygon fill="#fff0f0" stroke="red" points="2874,-228 2761,-228 2761,-209 2874,-209 2874,-228"/>
<text text-anchor="middle" x="2817.5" y="-216" font-family="Helvetica,sans-Serif" font-size="10.00">include/d/d_vibration.h</text>
</a>
</g>
</g>
<!-- Node8&#45;&gt;Node164 -->
<g id="edge52" class="edge">
<title>Node8&#45;&gt;Node164</title>
<path fill="none" stroke="#63b8ff" d="M2016.94,-484.04C2145.94,-478.17 2410.23,-463.3 2498.5,-437 2618.16,-401.35 2649.68,-383.85 2746.5,-305 2775.22,-281.61 2800.8,-245.21 2811.79,-228.47"/>
<polygon fill="#63b8ff" stroke="#63b8ff" points="2016.98,-480.53 2007.15,-484.48 2017.29,-487.52 2016.98,-480.53"/>
</g>
<!-- Node166 -->
<g id="node41" class="node">
<title>Node166</title>
<g id="a_node41"><a xlink:href="d__meter__HIO_8cpp.html" target="_top" xlink:title=" ">
<polygon fill="white" stroke="#666666" points="1796.5,-437 1692.5,-437 1692.5,-407 1796.5,-407 1796.5,-437"/>
<text text-anchor="start" x="1700.5" y="-425" font-family="Helvetica,sans-Serif" font-size="10.00">src/d/meter/d_meter</text>
<text text-anchor="middle" x="1744.5" y="-414" font-family="Helvetica,sans-Serif" font-size="10.00">_HIO.cpp</text>
</a>
</g>
</g>
<!-- Node8&#45;&gt;Node166 -->
<g id="edge57" class="edge">
<title>Node8&#45;&gt;Node166</title>
<path fill="none" stroke="#63b8ff" d="M1906.04,-474.69C1872.82,-464.06 1824.79,-448.69 1789.74,-437.48"/>
<polygon fill="#63b8ff" stroke="#63b8ff" points="1904.66,-477.93 1915.25,-477.64 1906.79,-471.26 1904.66,-477.93"/>
</g>
<!-- Node10 -->
<g id="node10" class="node">
<title>Node10</title>
<g id="a_node10"><a xlink:href="d__a__alink_8h.html" target="_top" xlink:title=" ">
<polygon fill="#fff0f0" stroke="red" points="2099.5,-228 1983.5,-228 1983.5,-209 2099.5,-209 2099.5,-228"/>
<text text-anchor="middle" x="2041.5" y="-216" font-family="Helvetica,sans-Serif" font-size="10.00">include/d/a/d_a_alink.h</text>
</a>
</g>
</g>
<!-- Node9&#45;&gt;Node10 -->
<g id="edge9" class="edge">
<title>Node9&#45;&gt;Node10</title>
<path fill="none" stroke="#63b8ff" d="M2075.37,-334.93C2072.22,-316.31 2066.78,-287.96 2059.5,-264 2055.62,-251.24 2049.56,-237.05 2045.56,-228.2"/>
<polygon fill="#63b8ff" stroke="#63b8ff" points="2071.88,-335.28 2076.94,-344.59 2078.79,-334.16 2071.88,-335.28"/>
</g>
<!-- Node75 -->
<g id="node29" class="node">
<title>Node75</title>
<g id="a_node29"><a xlink:href="d__a__player_8cpp.html" target="_top" xlink:title=" ">
<polygon fill="white" stroke="#666666" points="2616.5,-24.5 2502.5,-24.5 2502.5,-5.5 2616.5,-5.5 2616.5,-24.5"/>
<text text-anchor="middle" x="2559.5" y="-12.5" font-family="Helvetica,sans-Serif" font-size="10.00">src/d/a/d_a_player.cpp</text>
</a>
</g>
</g>
<!-- Node9&#45;&gt;Node75 -->
<g id="edge44" class="edge">
<title>Node9&#45;&gt;Node75</title>
<path fill="none" stroke="#63b8ff" d="M2150.66,-349.91C2228.95,-343.42 2357.27,-329.9 2465.5,-305 2596.17,-274.93 2623.6,-249.25 2751.5,-209 2904.83,-160.75 3002.19,-235.7 3098.5,-107 3109.42,-92.41 3110.78,-79.47 3098.5,-66 3066.49,-30.88 2748.63,-20.05 2616.57,-17.04"/>
<polygon fill="#63b8ff" stroke="#63b8ff" points="2150.67,-346.4 2140.99,-350.7 2151.24,-353.38 2150.67,-346.4"/>
</g>
<!-- Node116 -->
<g id="node33" class="node">
<title>Node116</title>
<g id="a_node33"><a xlink:href="d__bg__s__acch_8h.html" target="_top" xlink:title=" ">
<polygon fill="#fff0f0" stroke="red" points="2324.5,-299.5 2220.5,-299.5 2220.5,-269.5 2324.5,-269.5 2324.5,-299.5"/>
<text text-anchor="start" x="2228.5" y="-287.5" font-family="Helvetica,sans-Serif" font-size="10.00">include/d/bg/d_bg_s</text>
<text text-anchor="middle" x="2272.5" y="-276.5" font-family="Helvetica,sans-Serif" font-size="10.00">_acch.h</text>
</a>
</g>
</g>
<!-- Node9&#45;&gt;Node116 -->
<g id="edge35" class="edge">
<title>Node9&#45;&gt;Node116</title>
<path fill="none" stroke="#63b8ff" d="M2114.1,-342.25C2147.46,-330.3 2197.27,-312.45 2232.1,-299.97"/>
<polygon fill="#63b8ff" stroke="#63b8ff" points="2113.12,-338.88 2104.89,-345.55 2115.48,-345.47 2113.12,-338.88"/>
</g>
<!-- Node9&#45;&gt;Node149 -->
<g id="edge36" class="edge">
<title>Node9&#45;&gt;Node149</title>
<path fill="none" stroke="#63b8ff" d="M2143.07,-344.06C2194.84,-334.88 2269.21,-320.76 2333.5,-305 2346.03,-301.93 2359.74,-297.98 2371.39,-294.44"/>
<polygon fill="#63b8ff" stroke="#63b8ff" points="2142.79,-340.56 2133.54,-345.74 2144,-347.46 2142.79,-340.56"/>
</g>
<!-- Node9&#45;&gt;Node127 -->
<g id="edge39" class="edge">
<title>Node9&#45;&gt;Node127</title>
<path fill="none" stroke="#63b8ff" d="M2037.47,-342.81C1990.87,-328.97 1915.94,-306.72 1874.5,-294.41"/>
<polygon fill="#63b8ff" stroke="#63b8ff" points="2036.35,-346.13 2046.94,-345.63 2038.35,-339.42 2036.35,-346.13"/>
</g>
<!-- Node151 -->
<g id="node36" class="node">
<title>Node151</title>
<g id="a_node36"><a xlink:href="d__a__crod_8h.html" target="_top" xlink:title=" ">
<polygon fill="#fff0f0" stroke="red" points="2202.5,-299.5 2106.5,-299.5 2106.5,-269.5 2202.5,-269.5 2202.5,-299.5"/>
<text text-anchor="start" x="2114.5" y="-287.5" font-family="Helvetica,sans-Serif" font-size="10.00">include/rel/d/a/d_a</text>
<text text-anchor="middle" x="2154.5" y="-276.5" font-family="Helvetica,sans-Serif" font-size="10.00">_crod/d_a_crod.h</text>
</a>
</g>
</g>
<!-- Node9&#45;&gt;Node151 -->
<g id="edge41" class="edge">
<title>Node9&#45;&gt;Node151</title>
<path fill="none" stroke="#63b8ff" d="M2096.25,-338.77C2109.17,-326.95 2126.5,-311.11 2138.89,-299.77"/>
<polygon fill="#63b8ff" stroke="#63b8ff" points="2094.26,-335.85 2089.24,-345.18 2098.98,-341.01 2094.26,-335.85"/>
</g>
<!-- Node152 -->
<g id="node37" class="node">
<title>Node152</title>
<g id="a_node37"><a xlink:href="d__a__tag__mmsg_8h.html" target="_top" xlink:title=" ">
<polygon fill="white" stroke="#666666" points="2050.5,-305 1926.5,-305 1926.5,-264 2050.5,-264 2050.5,-305"/>
<text text-anchor="start" x="1934.5" y="-293" font-family="Helvetica,sans-Serif" font-size="10.00">include/rel/d/a/tag</text>
<text text-anchor="start" x="1934.5" y="-282" font-family="Helvetica,sans-Serif" font-size="10.00">/d_a_tag_mmsg/d_a_tag</text>
<text text-anchor="middle" x="1988.5" y="-271" font-family="Helvetica,sans-Serif" font-size="10.00">_mmsg.h</text>
</a>
</g>
</g>
<!-- Node9&#45;&gt;Node152 -->
<g id="edge42" class="edge">
<title>Node9&#45;&gt;Node152</title>
<path fill="none" stroke="#63b8ff" d="M2058.03,-339.19C2045.01,-329.14 2028.05,-316.04 2014.13,-305.29"/>
<polygon fill="#63b8ff" stroke="#63b8ff" points="2055.85,-341.93 2065.9,-345.27 2060.13,-336.39 2055.85,-341.93"/>
</g>
<!-- Node10&#45;&gt;Node11 -->
<g id="edge10" class="edge">
<title>Node10&#45;&gt;Node11</title>
<path fill="none" stroke="#63b8ff" d="M2020.39,-202.06C2008.27,-193.2 1993.13,-182.13 1981.25,-173.44"/>
<polygon fill="#63b8ff" stroke="#63b8ff" points="2017.99,-204.64 2028.13,-207.72 2022.12,-198.99 2017.99,-204.64"/>
</g>
<!-- Node12 -->
<g id="node12" class="node">
<title>Node12</title>
<g id="a_node12"><a xlink:href="d__a__npc_8h.html" target="_top" xlink:title=" ">
<polygon fill="#fff0f0" stroke="red" points="899,-96 788,-96 788,-77 899,-77 899,-96"/>
<text text-anchor="middle" x="843.5" y="-84" font-family="Helvetica,sans-Serif" font-size="10.00">include/d/a/d_a_npc.h</text>
</a>
</g>
</g>
<!-- Node11&#45;&gt;Node12 -->
<g id="edge11" class="edge">
<title>Node11&#45;&gt;Node12</title>
<path fill="none" stroke="#63b8ff" d="M1895.08,-156C1694.77,-152.66 1098.62,-140.12 907.5,-107 894.11,-104.68 879.59,-100.41 867.77,-96.45"/>
<polygon fill="#63b8ff" stroke="#63b8ff" points="1894.73,-159.5 1904.78,-156.16 1894.84,-152.5 1894.73,-159.5"/>
</g>
<!-- Node11&#45;&gt;Node17 -->
<g id="edge32" class="edge">
<title>Node11&#45;&gt;Node17</title>
<path fill="none" stroke="#63b8ff" d="M1963.61,-131.34C1963.77,-110.35 1960.14,-81.66 1941.5,-66 1898.66,-30.01 1059.3,-18.87 833.84,-16.52"/>
<polygon fill="#63b8ff" stroke="#63b8ff" points="1960.12,-131.01 1963.21,-141.14 1967.11,-131.29 1960.12,-131.01"/>
</g>
<!-- Node18 -->
<g id="node14" class="node">
<title>Node18</title>
<g id="a_node14"><a xlink:href="d__cc__uty_8h.html" target="_top" xlink:title=" ">
<polygon fill="#fff0f0" stroke="red" points="1820,-96 1701,-96 1701,-77 1820,-77 1820,-96"/>
<text text-anchor="middle" x="1760.5" y="-84" font-family="Helvetica,sans-Serif" font-size="10.00">include/d/cc/d_cc_uty.h</text>
</a>
</g>
</g>
<!-- Node11&#45;&gt;Node18 -->
<g id="edge13" class="edge">
<title>Node11&#45;&gt;Node18</title>
<path fill="none" stroke="#63b8ff" d="M1909.11,-138.88C1869.69,-125.26 1817.36,-107.16 1786.47,-96.48"/>
<polygon fill="#63b8ff" stroke="#63b8ff" points="1907.83,-142.14 1918.42,-142.1 1910.12,-135.53 1907.83,-142.14"/>
</g>
<!-- Node24 -->
<g id="node15" class="node">
<title>Node24</title>
<g id="a_node15"><a xlink:href="d__item_8h.html" target="_top" xlink:title=" ">
<polygon fill="#fff0f0" stroke="red" points="1933,-96 1838,-96 1838,-77 1933,-77 1933,-96"/>
<text text-anchor="middle" x="1885.5" y="-84" font-family="Helvetica,sans-Serif" font-size="10.00">include/d/d_item.h</text>
</a>
</g>
</g>
<!-- Node11&#45;&gt;Node24 -->
<g id="edge14" class="edge">
<title>Node11&#45;&gt;Node24</title>
<path fill="none" stroke="#63b8ff" d="M1937.29,-134.86C1922.93,-121.73 1905.52,-105.81 1894.99,-96.18"/>
<polygon fill="#63b8ff" stroke="#63b8ff" points="1934.89,-137.41 1944.64,-141.58 1939.62,-132.25 1934.89,-137.41"/>
</g>
<!-- Node29 -->
<g id="node16" class="node">
<title>Node29</title>
<g id="a_node16"><a xlink:href="d__kantera__icon__meter_8h.html" target="_top" xlink:title=" ">
<polygon fill="#fff0f0" stroke="red" points="2129,-101.5 2028,-101.5 2028,-71.5 2129,-71.5 2129,-101.5"/>
<text text-anchor="start" x="2036" y="-89.5" font-family="Helvetica,sans-Serif" font-size="10.00">include/d/d_kantera</text>
<text text-anchor="middle" x="2078.5" y="-78.5" font-family="Helvetica,sans-Serif" font-size="10.00">_icon_meter.h</text>
</a>
</g>
</g>
<!-- Node11&#45;&gt;Node29 -->
<g id="edge15" class="edge">
<title>Node11&#45;&gt;Node29</title>
<path fill="none" stroke="#63b8ff" d="M1995.44,-136.84C2014.28,-125.65 2037.27,-111.99 2054.29,-101.88"/>
<polygon fill="#63b8ff" stroke="#63b8ff" points="1993.85,-133.71 1987.04,-141.83 1997.43,-139.73 1993.85,-133.71"/>
</g>
<!-- Node32 -->
<g id="node17" class="node">
<title>Node32</title>
<g id="a_node17"><a xlink:href="d__model_8h.html" target="_top" xlink:title=" ">
<polygon fill="#fff0f0" stroke="red" points="2250,-96 2147,-96 2147,-77 2250,-77 2250,-96"/>
<text text-anchor="middle" x="2198.5" y="-84" font-family="Helvetica,sans-Serif" font-size="10.00">include/d/d_model.h</text>
</a>
</g>
</g>
<!-- Node11&#45;&gt;Node32 -->
<g id="edge16" class="edge">
<title>Node11&#45;&gt;Node32</title>
<path fill="none" stroke="#63b8ff" d="M2025.03,-139.49C2058.56,-130.11 2100.34,-118.21 2137.5,-107 2148.57,-103.66 2160.71,-99.81 2171.23,-96.43"/>
<polygon fill="#63b8ff" stroke="#63b8ff" points="2024.15,-136.1 2015.46,-142.16 2026.03,-142.85 2024.15,-136.1"/>
</g>
<!-- Node34 -->
<g id="node18" class="node">
<title>Node34</title>
<g id="a_node18"><a xlink:href="d__name_8h.html" target="_top" xlink:title=" ">
<polygon fill="#fff0f0" stroke="red" points="2369,-96 2268,-96 2268,-77 2369,-77 2369,-96"/>
<text text-anchor="middle" x="2318.5" y="-84" font-family="Helvetica,sans-Serif" font-size="10.00">include/d/d_name.h</text>
</a>
</g>
</g>
<!-- Node11&#45;&gt;Node34 -->
<g id="edge17" class="edge">
<title>Node11&#45;&gt;Node34</title>
<path fill="none" stroke="#63b8ff" d="M2028.05,-148.66C2088.62,-140.39 2180.26,-126.19 2258.5,-107 2270.2,-104.13 2282.92,-100.13 2293.63,-96.49"/>
<polygon fill="#63b8ff" stroke="#63b8ff" points="2027.68,-145.18 2018.23,-149.98 2028.61,-152.11 2027.68,-145.18"/>
</g>
<!-- Node36 -->
<g id="node19" class="node">
<title>Node36</title>
<g id="a_node19"><a xlink:href="d__file__sel__info_8h.html" target="_top" xlink:title=" ">
<polygon fill="#fff0f0" stroke="red" points="2483.5,-101.5 2387.5,-101.5 2387.5,-71.5 2483.5,-71.5 2483.5,-101.5"/>
<text text-anchor="start" x="2395.5" y="-89.5" font-family="Helvetica,sans-Serif" font-size="10.00">include/d/file/d_file</text>
<text text-anchor="middle" x="2435.5" y="-78.5" font-family="Helvetica,sans-Serif" font-size="10.00">_sel_info.h</text>
</a>
</g>
</g>
<!-- Node11&#45;&gt;Node36 -->
<g id="edge18" class="edge">
<title>Node11&#45;&gt;Node36</title>
<path fill="none" stroke="#63b8ff" d="M2028.21,-153.2C2110.98,-147.52 2256.02,-134.42 2377.5,-107 2383.61,-105.62 2389.99,-103.84 2396.18,-101.92"/>
<polygon fill="#63b8ff" stroke="#63b8ff" points="2028.21,-149.69 2018.47,-153.85 2028.68,-156.68 2028.21,-149.69"/>
</g>
<!-- Node39 -->
<g id="node20" class="node">
<title>Node39</title>
<g id="a_node20"><a xlink:href="d__file__sel__warning_8h.html" target="_top" xlink:title=" ">
<polygon fill="#fff0f0" stroke="red" points="2731.5,-101.5 2635.5,-101.5 2635.5,-71.5 2731.5,-71.5 2731.5,-101.5"/>
<text text-anchor="start" x="2643.5" y="-89.5" font-family="Helvetica,sans-Serif" font-size="10.00">include/d/file/d_file</text>
<text text-anchor="middle" x="2683.5" y="-78.5" font-family="Helvetica,sans-Serif" font-size="10.00">_sel_warning.h</text>
</a>
</g>
</g>
<!-- Node11&#45;&gt;Node39 -->
<g id="edge19" class="edge">
<title>Node11&#45;&gt;Node39</title>
<path fill="none" stroke="#63b8ff" d="M2028.12,-157.56C2148.76,-157.34 2410.88,-151.23 2626.5,-107 2632.75,-105.72 2639.26,-103.94 2645.55,-101.97"/>
<polygon fill="#63b8ff" stroke="#63b8ff" points="2028.4,-154.06 2018.41,-157.56 2028.41,-161.06 2028.4,-154.06"/>
</g>
<!-- Node41 -->
<g id="node21" class="node">
<title>Node41</title>
<g id="a_node21"><a xlink:href="d__meter2_8h.html" target="_top" xlink:title=" ">
<polygon fill="#fff0f0" stroke="red" points="2883.5,-96 2749.5,-96 2749.5,-77 2883.5,-77 2883.5,-96"/>
<text text-anchor="middle" x="2816.5" y="-84" font-family="Helvetica,sans-Serif" font-size="10.00">include/d/meter/d_meter2.h</text>
</a>
</g>
</g>
<!-- Node11&#45;&gt;Node41 -->
<g id="edge20" class="edge">
<title>Node11&#45;&gt;Node41</title>
<path fill="none" stroke="#63b8ff" d="M2028.02,-156.91C2163.14,-155.8 2479.1,-148.55 2740.5,-107 2755.97,-104.54 2772.88,-100.36 2786.81,-96.49"/>
<polygon fill="#63b8ff" stroke="#63b8ff" points="2028.16,-153.41 2018.18,-156.98 2028.21,-160.41 2028.16,-153.41"/>
</g>
<!-- Node48 -->
<g id="node22" class="node">
<title>Node48</title>
<g id="a_node22"><a xlink:href="d__msg__object_8h.html" target="_top" xlink:title=" ">
<polygon fill="#fff0f0" stroke="red" points="769.5,-101.5 659.5,-101.5 659.5,-71.5 769.5,-71.5 769.5,-101.5"/>
<text text-anchor="start" x="667.5" y="-89.5" font-family="Helvetica,sans-Serif" font-size="10.00">include/d/msg/d_msg</text>
<text text-anchor="middle" x="714.5" y="-78.5" font-family="Helvetica,sans-Serif" font-size="10.00">_object.h</text>
</a>
</g>
</g>
<!-- Node11&#45;&gt;Node48 -->
<g id="edge21" class="edge">
<title>Node11&#45;&gt;Node48</title>
<path fill="none" stroke="#63b8ff" d="M1894.86,-156.4C1678.27,-154.11 995.63,-144.05 778.5,-107 771.29,-105.77 763.75,-103.96 756.48,-101.94"/>
<polygon fill="#63b8ff" stroke="#63b8ff" points="1894.79,-159.9 1904.83,-156.5 1894.86,-152.9 1894.79,-159.9"/>
</g>
<!-- Node62 -->
<g id="node23" class="node">
<title>Node62</title>
<g id="a_node23"><a xlink:href="d__s__logo_8h.html" target="_top" xlink:title=" ">
<polygon fill="#fff0f0" stroke="red" points="1030,-96 917,-96 917,-77 1030,-77 1030,-96"/>
<text text-anchor="middle" x="973.5" y="-84" font-family="Helvetica,sans-Serif" font-size="10.00">include/d/s/d_s_logo.h</text>
</a>
</g>
</g>
<!-- Node11&#45;&gt;Node62 -->
<g id="edge23" class="edge">
<title>Node11&#45;&gt;Node62</title>
<path fill="none" stroke="#63b8ff" d="M1894.73,-155.44C1711.45,-150.83 1203.23,-135.75 1038.5,-107 1024.92,-104.63 1010.18,-100.35 998.17,-96.41"/>
<polygon fill="#63b8ff" stroke="#63b8ff" points="1894.47,-158.93 1904.56,-155.68 1894.65,-151.94 1894.47,-158.93"/>
</g>
<!-- Node64 -->
<g id="node24" class="node">
<title>Node64</title>
<g id="a_node24"><a xlink:href="d__s__play_8h.html" target="_top" xlink:title=" ">
<polygon fill="#fff0f0" stroke="red" points="1161,-96 1048,-96 1048,-77 1161,-77 1161,-96"/>
<text text-anchor="middle" x="1104.5" y="-84" font-family="Helvetica,sans-Serif" font-size="10.00">include/d/s/d_s_play.h</text>
</a>
</g>
</g>
<!-- Node11&#45;&gt;Node64 -->
<g id="edge24" class="edge">
<title>Node11&#45;&gt;Node64</title>
<path fill="none" stroke="#63b8ff" d="M1894.75,-157.9C1757.67,-158.62 1435.03,-154.56 1169.5,-107 1156.05,-104.59 1141.44,-100.36 1129.49,-96.45"/>
<polygon fill="#63b8ff" stroke="#63b8ff" points="1894.76,-161.4 1904.74,-157.83 1894.72,-154.4 1894.76,-161.4"/>
</g>
<!-- Node68 -->
<g id="node25" class="node">
<title>Node68</title>
<g id="a_node25"><a xlink:href="d__msg__scrn__base_8h.html" target="_top" xlink:title=" ">
<polygon fill="#fff0f0" stroke="red" points="1278,-101.5 1179,-101.5 1179,-71.5 1278,-71.5 1278,-101.5"/>
<text text-anchor="start" x="1187" y="-89.5" font-family="Helvetica,sans-Serif" font-size="10.00">include/msg/scrn/d</text>
<text text-anchor="middle" x="1228.5" y="-78.5" font-family="Helvetica,sans-Serif" font-size="10.00">_msg_scrn_base.h</text>
</a>
</g>
</g>
<!-- Node11&#45;&gt;Node68 -->
<g id="edge25" class="edge">
<title>Node11&#45;&gt;Node68</title>
<path fill="none" stroke="#63b8ff" d="M1894.84,-157.55C1772.85,-157.35 1506.05,-151.31 1286.5,-107 1280.15,-105.72 1273.53,-103.94 1267.13,-101.97"/>
<polygon fill="#63b8ff" stroke="#63b8ff" points="1894.67,-161.05 1904.67,-157.55 1894.67,-154.05 1894.67,-161.05"/>
</g>
<!-- Node72 -->
<g id="node26" class="node">
<title>Node72</title>
<g id="a_node26"><a xlink:href="d__a__b__zant_8h.html" target="_top" xlink:title=" ">
<polygon fill="white" stroke="#666666" points="1417,-101.5 1296,-101.5 1296,-71.5 1417,-71.5 1417,-101.5"/>
<text text-anchor="start" x="1304" y="-89.5" font-family="Helvetica,sans-Serif" font-size="10.00">include/rel/d/a/b/d</text>
<text text-anchor="middle" x="1356.5" y="-78.5" font-family="Helvetica,sans-Serif" font-size="10.00">_a_b_zant/d_a_b_zant.h</text>
</a>
</g>
</g>
<!-- Node11&#45;&gt;Node72 -->
<g id="edge26" class="edge">
<title>Node11&#45;&gt;Node72</title>
<path fill="none" stroke="#63b8ff" d="M1895.07,-154.6C1793.4,-150.08 1593.45,-137.8 1426.5,-107 1419.18,-105.65 1411.52,-103.89 1404.06,-101.97"/>
<polygon fill="#63b8ff" stroke="#63b8ff" points="1894.72,-158.09 1904.86,-155.03 1895.02,-151.1 1894.72,-158.09"/>
</g>
<!-- Node73 -->
<g id="node27" class="node">
<title>Node73</title>
<g id="a_node27"><a xlink:href="d__a__skip__2D_8h.html" target="_top" xlink:title=" ">
<polygon fill="white" stroke="#666666" points="1559.5,-101.5 1435.5,-101.5 1435.5,-71.5 1559.5,-71.5 1559.5,-101.5"/>
<text text-anchor="start" x="1443.5" y="-89.5" font-family="Helvetica,sans-Serif" font-size="10.00">include/rel/d/a/d_a</text>
<text text-anchor="middle" x="1497.5" y="-78.5" font-family="Helvetica,sans-Serif" font-size="10.00">_skip_2D/d_a_skip_2D.h</text>
</a>
</g>
</g>
<!-- Node11&#45;&gt;Node73 -->
<g id="edge27" class="edge">
<title>Node11&#45;&gt;Node73</title>
<path fill="none" stroke="#63b8ff" d="M1894.93,-151.43C1816.39,-144.18 1682.12,-129.71 1568.5,-107 1561.36,-105.57 1553.87,-103.81 1546.56,-101.94"/>
<polygon fill="#63b8ff" stroke="#63b8ff" points="1894.32,-154.89 1904.6,-152.31 1894.95,-147.91 1894.32,-154.89"/>
</g>
<!-- Node74 -->
<g id="node28" class="node">
<title>Node74</title>
<g id="a_node28"><a xlink:href="d__a__spinner_8h.html" target="_top" xlink:title=" ">
<polygon fill="#fff0f0" stroke="red" points="2617.5,-101.5 2501.5,-101.5 2501.5,-71.5 2617.5,-71.5 2617.5,-101.5"/>
<text text-anchor="start" x="2509.5" y="-89.5" font-family="Helvetica,sans-Serif" font-size="10.00">include/rel/d/a/d_a</text>
<text text-anchor="middle" x="2559.5" y="-78.5" font-family="Helvetica,sans-Serif" font-size="10.00">_spinner/d_a_spinner.h</text>
</a>
</g>
</g>
<!-- Node11&#45;&gt;Node74 -->
<g id="edge28" class="edge">
<title>Node11&#45;&gt;Node74</title>
<path fill="none" stroke="#63b8ff" d="M2027.88,-154.78C2128.97,-150.5 2327.19,-138.54 2492.5,-107 2499.52,-105.66 2506.86,-103.9 2514.01,-101.99"/>
<polygon fill="#63b8ff" stroke="#63b8ff" points="2028,-151.27 2018.15,-155.18 2028.28,-158.27 2028,-151.27"/>
</g>
<!-- Node11&#45;&gt;Node75 -->
<g id="edge31" class="edge">
<title>Node11&#45;&gt;Node75</title>
<path fill="none" stroke="#63b8ff" d="M1969.89,-132.1C1978.51,-110.7 1994.14,-80.99 2018.5,-66 2059.02,-41.07 2371.68,-24.38 2502.37,-18.43"/>
<polygon fill="#63b8ff" stroke="#63b8ff" points="1966.68,-130.69 1966.44,-141.28 1973.23,-133.15 1966.68,-130.69"/>
</g>
<!-- Node76 -->
<g id="node30" class="node">
<title>Node76</title>
<g id="a_node30"><a xlink:href="d__a__obj__yobikusa_8h.html" target="_top" xlink:title=" ">
<polygon fill="white" stroke="#666666" points="1683,-107 1578,-107 1578,-66 1683,-66 1683,-107"/>
<text text-anchor="start" x="1586" y="-95" font-family="Helvetica,sans-Serif" font-size="10.00">include/rel/d/a/obj</text>
<text text-anchor="start" x="1586" y="-84" font-family="Helvetica,sans-Serif" font-size="10.00">/d_a_obj_yobikusa/d</text>
<text text-anchor="middle" x="1630.5" y="-73" font-family="Helvetica,sans-Serif" font-size="10.00">_a_obj_yobikusa.h</text>
</a>
</g>
</g>
<!-- Node11&#45;&gt;Node76 -->
<g id="edge30" class="edge">
<title>Node11&#45;&gt;Node76</title>
<path fill="none" stroke="#63b8ff" d="M1894.91,-147.07C1839.95,-138.31 1760.13,-124.25 1691.5,-107 1688.8,-106.32 1686.05,-105.59 1683.28,-104.82"/>
<polygon fill="#63b8ff" stroke="#63b8ff" points="1894.33,-150.52 1904.75,-148.63 1895.42,-143.61 1894.33,-150.52"/>
</g>
<!-- Node11&#45;&gt;Node46 -->
<g id="edge33" class="edge">
<title>Node11&#45;&gt;Node46</title>
<path fill="none" stroke="#63b8ff" d="M1894.79,-156.61C1663.04,-154.93 893.85,-146.44 650.5,-107 636.51,-104.73 621.31,-100.46 608.93,-96.5"/>
<polygon fill="#63b8ff" stroke="#63b8ff" points="1894.52,-160.11 1904.54,-156.68 1894.57,-153.11 1894.52,-160.11"/>
</g>
<!-- Node11&#45;&gt;Node111 -->
<g id="edge34" class="edge">
<title>Node11&#45;&gt;Node111</title>
<path fill="none" stroke="#63b8ff" d="M2028.31,-156.46C2181.62,-154.57 2570.27,-145.98 2892.5,-107 2913.28,-104.49 2936.17,-100.3 2955.09,-96.44"/>
<polygon fill="#63b8ff" stroke="#63b8ff" points="2028.29,-152.96 2018.33,-156.58 2028.37,-159.96 2028.29,-152.96"/>
</g>
<!-- Node12&#45;&gt;Node17 -->
<g id="edge12" class="edge">
<title>Node12&#45;&gt;Node17</title>
<path fill="none" stroke="#63b8ff" d="M827.68,-68.58C816.7,-56.85 802.24,-41.39 791.85,-30.27"/>
<polygon fill="#63b8ff" stroke="#63b8ff" points="824.85,-70.68 834.23,-75.59 829.96,-65.9 824.85,-70.68"/>
</g>
<!-- Node48&#45;&gt;Node17 -->
<g id="edge22" class="edge">
<title>Node48&#45;&gt;Node17</title>
<path fill="none" stroke="#63b8ff" d="M735.53,-62.67C745.32,-52.03 756.68,-39.7 765.26,-30.38"/>
<polygon fill="#63b8ff" stroke="#63b8ff" points="732.99,-60.26 728.79,-69.99 738.13,-65 732.99,-60.26"/>
</g>
<!-- Node74&#45;&gt;Node75 -->
<g id="edge29" class="edge">
<title>Node74&#45;&gt;Node75</title>
<path fill="none" stroke="#63b8ff" d="M2559.5,-59.96C2559.5,-47.57 2559.5,-33.49 2559.5,-24.68"/>
<polygon fill="#63b8ff" stroke="#63b8ff" points="2556,-59.59 2559.5,-69.59 2563,-59.59 2556,-59.59"/>
</g>
<!-- Node149&#45;&gt;Node10 -->
<g id="edge37" class="edge">
<title>Node149&#45;&gt;Node10</title>
<path fill="none" stroke="#63b8ff" d="M2361.66,-271.36C2352.5,-268.69 2342.7,-266.05 2333.5,-264 2253.29,-246.13 2159.08,-233.19 2099.83,-226.02"/>
<polygon fill="#63b8ff" stroke="#63b8ff" points="2360.39,-274.63 2370.97,-274.16 2362.4,-267.93 2360.39,-274.63"/>
</g>
<!-- Node149&#45;&gt;Node11 -->
<g id="edge38" class="edge">
<title>Node149&#45;&gt;Node11</title>
<path fill="none" stroke="#63b8ff" d="M2358.62,-271.34C2350.31,-268.89 2341.63,-266.35 2333.5,-264 2219.55,-231.09 2085.62,-193.57 2013.62,-173.49"/>
<polygon fill="#63b8ff" stroke="#63b8ff" points="2357.59,-274.68 2368.17,-274.16 2359.57,-267.97 2357.59,-274.68"/>
</g>
<!-- Node127&#45;&gt;Node11 -->
<g id="edge40" class="edge">
<title>Node127&#45;&gt;Node11</title>
<path fill="none" stroke="#63b8ff" d="M1860.51,-266.47C1883.68,-241.8 1926.19,-196.57 1947.92,-173.45"/>
<polygon fill="#63b8ff" stroke="#63b8ff" points="1858.25,-263.76 1853.95,-273.44 1863.35,-268.55 1858.25,-263.76"/>
</g>
<!-- Node152&#45;&gt;Node10 -->
<g id="edge43" class="edge">
<title>Node152&#45;&gt;Node10</title>
<path fill="none" stroke="#63b8ff" d="M2012.17,-254.91C2020.21,-245.21 2028.59,-235.09 2034.33,-228.16"/>
<polygon fill="#63b8ff" stroke="#63b8ff" points="2009.63,-252.5 2005.94,-262.44 2015.02,-256.97 2009.63,-252.5"/>
</g>
<!-- Node153&#45;&gt;Node9 -->
<g id="edge48" class="edge">
<title>Node153&#45;&gt;Node9</title>
<path fill="none" stroke="#63b8ff" d="M1905.98,-408.84C1947.64,-396.32 2011.58,-377.11 2048.79,-365.93"/>
<polygon fill="#63b8ff" stroke="#63b8ff" points="1905.14,-405.44 1896.57,-411.67 1907.15,-412.14 1905.14,-405.44"/>
</g>
<!-- Node153&#45;&gt;Node11 -->
<g id="edge49" class="edge">
<title>Node153&#45;&gt;Node11</title>
<path fill="none" stroke="#63b8ff" d="M1843.87,-405.45C1807.48,-377.3 1740.83,-315.99 1771.5,-264 1800.41,-214.98 1861.32,-187.26 1906.42,-172.76"/>
<polygon fill="#63b8ff" stroke="#63b8ff" points="1841.51,-408.05 1851.6,-411.26 1845.71,-402.46 1841.51,-408.05"/>
</g>
<!-- Node153&#45;&gt;Node127 -->
<g id="edge50" class="edge">
<title>Node153&#45;&gt;Node127</title>
<path fill="none" stroke="#63b8ff" d="M1862.4,-400.98C1857.75,-370.99 1849.17,-315.63 1845.86,-294.25"/>
<polygon fill="#63b8ff" stroke="#63b8ff" points="1858.9,-401.27 1863.89,-410.61 1865.82,-400.2 1858.9,-401.27"/>
</g>
<!-- Node153&#45;&gt;Node159 -->
<g id="edge51" class="edge">
<title>Node153&#45;&gt;Node159</title>
<path fill="none" stroke="#63b8ff" d="M1826.84,-408.69C1793.46,-398.06 1745.2,-382.69 1709.97,-371.48"/>
<polygon fill="#63b8ff" stroke="#63b8ff" points="1825.52,-411.94 1836.11,-411.64 1827.64,-405.27 1825.52,-411.94"/>
</g>
<!-- Node164&#45;&gt;Node11 -->
<g id="edge53" class="edge">
<title>Node164&#45;&gt;Node11</title>
<path fill="none" stroke="#63b8ff" d="M2749.25,-212.84C2584.52,-201.58 2167.6,-173.09 2016.91,-162.79"/>
<polygon fill="#63b8ff" stroke="#63b8ff" points="2748.95,-216.32 2759.16,-213.51 2749.42,-209.34 2748.95,-216.32"/>
</g>
<!-- Node168 -->
<g id="node43" class="node">
<title>Node168</title>
<g id="a_node43"><a xlink:href="m__Do__printf_8cpp.html" target="_top" xlink:title=" ">
<polygon fill="white" stroke="#666666" points="3066.5,-431.5 2934.5,-431.5 2934.5,-412.5 3066.5,-412.5 3066.5,-431.5"/>
<text text-anchor="middle" x="3000.5" y="-419.5" font-family="Helvetica,sans-Serif" font-size="10.00">src/m_Do/m_Do_printf.cpp</text>
</a>
</g>
</g>
<!-- Node167&#45;&gt;Node168 -->
<g id="edge60" class="edge">
<title>Node167&#45;&gt;Node168</title>
<path fill="none" stroke="#63b8ff" d="M3000.5,-466.68C3000.5,-454.94 3000.5,-440.77 3000.5,-431.82"/>
<polygon fill="#63b8ff" stroke="#63b8ff" points="2997,-466.59 3000.5,-476.59 3004,-466.59 2997,-466.59"/>
</g>
</g>
</svg>
