<?xml version="1.0" encoding="UTF-8" standalone="no"?>
<!DOCTYPE svg PUBLIC "-//W3C//DTD SVG 1.1//EN"
 "http://www.w3.org/Graphics/SVG/1.1/DTD/svg11.dtd">
<!-- Generated by graphviz version 7.0.4 (20221203.1631)
 -->
<!-- Title: include/JSystem/JMessage/resource.h Pages: 1 -->
<!--zoomable 357 -->
<svg id="main" version="1.1" xmlns="http://www.w3.org/2000/svg" xmlns:xlink="http://www.w3.org/1999/xlink" xml:space="preserve" onload="init(evt)">
<style type="text/css"><![CDATA[
.edge:hover path { stroke: red; }
.edge:hover polygon { stroke: red; fill: red; }
]]></style>
<script type="text/javascript"><![CDATA[
var edges = document.getElementsByTagName('g');
if (edges && edges.length) {
  for (var i=0;i<edges.length;i++) {
    if (edges[i].id.substr(0,4)=='edge') {
      edges[i].setAttribute('class','edge');
    }
  }
}
]]></script>
        <defs>
                <circle id="rim" cx="0" cy="0" r="7"/>
                <circle id="rim2" cx="0" cy="0" r="3.5"/>
                <g id="zoomPlus">
                        <use xlink:href="#rim" fill="#404040">
                                <set attributeName="fill" to="#808080" begin="zoomplus.mouseover" end="zoomplus.mouseout"/>
                        </use>
                        <path d="M-4,0h8M0,-4v8" fill="none" stroke="white" stroke-width="1.5" pointer-events="none"/>
                </g>
                <g id="zoomMin">
                        <use xlink:href="#rim" fill="#404040">
                                <set attributeName="fill" to="#808080" begin="zoomminus.mouseover" end="zoomminus.mouseout"/>
                        </use>
                        <path d="M-4,0h8" fill="none" stroke="white" stroke-width="1.5" pointer-events="none"/>
                </g>
                <g id="dirArrow">
                        <path fill="none" stroke="white" stroke-width="1.5" d="M0,-3.0v7 M-2.5,-0.5L0,-3.0L2.5,-0.5"/>
                </g>
               <g id="resetDef">
                       <use xlink:href="#rim2" fill="#404040">
                               <set attributeName="fill" to="#808080" begin="reset.mouseover" end="reset.mouseout"/>
                       </use>
               </g>
        </defs>

<script type="text/javascript">
var viewWidth = 2899;
var viewHeight = 357;
var sectionId = 'dynsection-1';
</script>
<script xlink:href="svgpan.js"/>
<svg id="graph" class="graph">
<g id="viewport">
<title>include/JSystem/JMessage/resource.h</title>
<!-- Node1 -->
<g id="node1" class="node">
<title>Node1</title>
<g id="a_node1"><a xlink:title=" ">
<polygon fill="#999999" stroke="#666666" points="2398.5,-349 2261.5,-349 2261.5,-319 2398.5,-319 2398.5,-349"/>
<text text-anchor="start" x="2269.5" y="-337" font-family="Helvetica,sans-Serif" font-size="10.00">include/JSystem/JMessage</text>
<text text-anchor="middle" x="2330" y="-326" font-family="Helvetica,sans-Serif" font-size="10.00">/resource.h</text>
</a>
</g>
</g>
<!-- Node2 -->
<g id="node2" class="node">
<title>Node2</title>
<g id="a_node2"><a xlink:href="JMessage_2control_8h.html" target="_top" xlink:title=" ">
<polygon fill="white" stroke="#666666" points="2350.5,-283 2213.5,-283 2213.5,-253 2350.5,-253 2350.5,-283"/>
<text text-anchor="start" x="2221.5" y="-271" font-family="Helvetica,sans-Serif" font-size="10.00">include/JSystem/JMessage</text>
<text text-anchor="middle" x="2282" y="-260" font-family="Helvetica,sans-Serif" font-size="10.00">/control.h</text>
</a>
</g>
</g>
<!-- Node1&#45;&gt;Node2 -->
<g id="edge1" class="edge">
<title>Node1&#45;&gt;Node2</title>
<path fill="none" stroke="#63b8ff" d="M2312.51,-309.68C2305.85,-300.79 2298.46,-290.95 2292.62,-283.16"/>
<polygon fill="#63b8ff" stroke="#63b8ff" points="2309.64,-311.69 2318.44,-317.59 2315.24,-307.49 2309.64,-311.69"/>
</g>
<!-- Node12 -->
<g id="node12" class="node">
<title>Node12</title>
<g id="a_node12"><a xlink:href="d__msg__object_8h.html" target="_top" xlink:title=" ">
<polygon fill="white" stroke="#666666" points="1443,-217 1333,-217 1333,-187 1443,-187 1443,-217"/>
<text text-anchor="start" x="1341" y="-205" font-family="Helvetica,sans-Serif" font-size="10.00">include/d/msg/d_msg</text>
<text text-anchor="middle" x="1388" y="-194" font-family="Helvetica,sans-Serif" font-size="10.00">_object.h</text>
</a>
</g>
</g>
<!-- Node1&#45;&gt;Node12 -->
<g id="edge36" class="edge">
<title>Node1&#45;&gt;Node12</title>
<path fill="none" stroke="#63b8ff" d="M2249.75,-321.92C2062.94,-296.14 1602.84,-232.65 1443.44,-210.65"/>
<polygon fill="#63b8ff" stroke="#63b8ff" points="2249.23,-325.39 2259.61,-323.29 2250.19,-318.45 2249.23,-325.39"/>
</g>
<!-- Node31 -->
<g id="node31" class="node">
<title>Node31</title>
<g id="a_node31"><a xlink:href="processor_8cpp.html" target="_top" xlink:title=" ">
<polygon fill="white" stroke="#666666" points="2546.5,-217 2425.5,-217 2425.5,-187 2546.5,-187 2546.5,-217"/>
<text text-anchor="start" x="2433.5" y="-205" font-family="Helvetica,sans-Serif" font-size="10.00">libs/JSystem/JMessage</text>
<text text-anchor="middle" x="2486" y="-194" font-family="Helvetica,sans-Serif" font-size="10.00">/processor.cpp</text>
</a>
</g>
</g>
<!-- Node1&#45;&gt;Node31 -->
<g id="edge37" class="edge">
<title>Node1&#45;&gt;Node31</title>
<path fill="none" stroke="#63b8ff" d="M2346.52,-309.92C2359.5,-292.85 2378.72,-269.75 2399,-253 2416.19,-238.8 2437.94,-226.3 2455.39,-217.35"/>
<polygon fill="#63b8ff" stroke="#63b8ff" points="2344.05,-307.38 2340.89,-317.49 2349.67,-311.55 2344.05,-307.38"/>
</g>
<!-- Node32 -->
<g id="node32" class="node">
<title>Node32</title>
<g id="a_node32"><a xlink:href="resource_8cpp.html" target="_top" xlink:title=" ">
<polygon fill="white" stroke="#666666" points="2528.5,-283 2407.5,-283 2407.5,-253 2528.5,-253 2528.5,-283"/>
<text text-anchor="start" x="2415.5" y="-271" font-family="Helvetica,sans-Serif" font-size="10.00">libs/JSystem/JMessage</text>
<text text-anchor="middle" x="2468" y="-260" font-family="Helvetica,sans-Serif" font-size="10.00">/resource.cpp</text>
</a>
</g>
</g>
<!-- Node1&#45;&gt;Node32 -->
<g id="edge38" class="edge">
<title>Node1&#45;&gt;Node32</title>
<path fill="none" stroke="#63b8ff" d="M2371.28,-313.86C2392.41,-304.05 2417.71,-292.32 2437.13,-283.31"/>
<polygon fill="#63b8ff" stroke="#63b8ff" points="2369.94,-310.62 2362.34,-318 2372.89,-316.97 2369.94,-310.62"/>
</g>
<!-- Node3 -->
<g id="node3" class="node">
<title>Node3</title>
<g id="a_node3"><a xlink:href="d__demo_8h.html" target="_top" xlink:title=" ">
<polygon fill="white" stroke="#666666" points="2268.5,-211.5 2167.5,-211.5 2167.5,-192.5 2268.5,-192.5 2268.5,-211.5"/>
<text text-anchor="middle" x="2218" y="-199.5" font-family="Helvetica,sans-Serif" font-size="10.00">include/d/d_demo.h</text>
</a>
</g>
</g>
<!-- Node2&#45;&gt;Node3 -->
<g id="edge2" class="edge">
<title>Node2&#45;&gt;Node3</title>
<path fill="none" stroke="#63b8ff" d="M2259.94,-244.94C2248.58,-233.58 2235.36,-220.36 2226.84,-211.84"/>
<polygon fill="#63b8ff" stroke="#63b8ff" points="2257.18,-247.13 2266.73,-251.73 2262.13,-242.18 2257.18,-247.13"/>
</g>
<!-- Node2&#45;&gt;Node12 -->
<g id="edge11" class="edge">
<title>Node2&#45;&gt;Node12</title>
<path fill="none" stroke="#63b8ff" d="M2201.93,-261.27C2023.33,-248.48 1596.07,-217.9 1443.4,-206.97"/>
<polygon fill="#63b8ff" stroke="#63b8ff" points="2201.6,-264.75 2211.82,-261.98 2202.1,-257.77 2201.6,-264.75"/>
</g>
<!-- Node30 -->
<g id="node30" class="node">
<title>Node30</title>
<g id="a_node30"><a xlink:href="JMessage_2control_8cpp.html" target="_top" xlink:title=" ">
<polygon fill="white" stroke="#666666" points="2407.5,-217 2286.5,-217 2286.5,-187 2407.5,-187 2407.5,-217"/>
<text text-anchor="start" x="2294.5" y="-205" font-family="Helvetica,sans-Serif" font-size="10.00">libs/JSystem/JMessage</text>
<text text-anchor="middle" x="2347" y="-194" font-family="Helvetica,sans-Serif" font-size="10.00">/control.cpp</text>
</a>
</g>
</g>
<!-- Node2&#45;&gt;Node30 -->
<g id="edge34" class="edge">
<title>Node2&#45;&gt;Node30</title>
<path fill="none" stroke="#63b8ff" d="M2304.54,-244.81C2313.85,-235.64 2324.38,-225.28 2332.61,-217.16"/>
<polygon fill="#63b8ff" stroke="#63b8ff" points="2302.17,-242.22 2297.5,-251.73 2307.09,-247.21 2302.17,-242.22"/>
</g>
<!-- Node2&#45;&gt;Node31 -->
<g id="edge35" class="edge">
<title>Node2&#45;&gt;Node31</title>
<path fill="none" stroke="#63b8ff" d="M2338.99,-249.12C2370.92,-239.1 2410.21,-226.78 2440.13,-217.39"/>
<polygon fill="#63b8ff" stroke="#63b8ff" points="2337.97,-245.77 2329.48,-252.1 2340.07,-252.45 2337.97,-245.77"/>
</g>
<!-- Node4 -->
<g id="node4" class="node">
<title>Node4</title>
<g id="a_node4"><a xlink:href="d__a__alink_8cpp.html" target="_top" xlink:title=" ">
<polygon fill="white" stroke="#666666" points="2460.5,-145.5 2351.5,-145.5 2351.5,-126.5 2460.5,-126.5 2460.5,-145.5"/>
<text text-anchor="middle" x="2406" y="-133.5" font-family="Helvetica,sans-Serif" font-size="10.00">src/d/a/d_a_alink.cpp</text>
</a>
</g>
</g>
<!-- Node3&#45;&gt;Node4 -->
<g id="edge3" class="edge">
<title>Node3&#45;&gt;Node4</title>
<path fill="none" stroke="#63b8ff" d="M2254.91,-188.43C2291.7,-175.91 2347.28,-156.99 2379.78,-145.93"/>
<polygon fill="#63b8ff" stroke="#63b8ff" points="2253.91,-185.08 2245.57,-191.61 2256.17,-191.7 2253.91,-185.08"/>
</g>
<!-- Node5 -->
<g id="node5" class="node">
<title>Node5</title>
<g id="a_node5"><a xlink:href="d__com__static_8cpp.html" target="_top" xlink:title=" ">
<polygon fill="white" stroke="#666666" points="2619,-145.5 2479,-145.5 2479,-126.5 2619,-126.5 2619,-145.5"/>
<text text-anchor="middle" x="2549" y="-133.5" font-family="Helvetica,sans-Serif" font-size="10.00">src/d/com/d_com_static.cpp</text>
</a>
</g>
</g>
<!-- Node3&#45;&gt;Node5 -->
<g id="edge4" class="edge">
<title>Node3&#45;&gt;Node5</title>
<path fill="none" stroke="#63b8ff" d="M2266.22,-189.54C2270.2,-188.66 2274.17,-187.8 2278,-187 2319.33,-178.37 2432.49,-157.87 2498.78,-145.97"/>
<polygon fill="#63b8ff" stroke="#63b8ff" points="2265.52,-186.11 2256.54,-191.73 2267.07,-192.94 2265.52,-186.11"/>
</g>
<!-- Node6 -->
<g id="node6" class="node">
<title>Node6</title>
<g id="a_node6"><a xlink:href="d__demo_8cpp.html" target="_top" xlink:title=" ">
<polygon fill="white" stroke="#666666" points="1948,-145.5 1854,-145.5 1854,-126.5 1948,-126.5 1948,-145.5"/>
<text text-anchor="middle" x="1901" y="-133.5" font-family="Helvetica,sans-Serif" font-size="10.00">src/d/d_demo.cpp</text>
</a>
</g>
</g>
<!-- Node3&#45;&gt;Node6 -->
<g id="edge5" class="edge">
<title>Node3&#45;&gt;Node6</title>
<path fill="none" stroke="#63b8ff" d="M2156.06,-190.14C2103.05,-180.6 2024.79,-165.95 1957,-151 1950.05,-149.47 1942.65,-147.71 1935.58,-145.97"/>
<polygon fill="#63b8ff" stroke="#63b8ff" points="2155.36,-193.57 2165.82,-191.89 2156.59,-186.68 2155.36,-193.57"/>
</g>
<!-- Node7 -->
<g id="node7" class="node">
<title>Node7</title>
<g id="a_node7"><a xlink:href="d__event_8cpp.html" target="_top" xlink:title=" ">
<polygon fill="white" stroke="#666666" points="2087.5,-145.5 1966.5,-145.5 1966.5,-126.5 2087.5,-126.5 2087.5,-145.5"/>
<text text-anchor="middle" x="2027" y="-133.5" font-family="Helvetica,sans-Serif" font-size="10.00">src/d/event/d_event.cpp</text>
</a>
</g>
</g>
<!-- Node3&#45;&gt;Node7 -->
<g id="edge6" class="edge">
<title>Node3&#45;&gt;Node7</title>
<path fill="none" stroke="#63b8ff" d="M2180.98,-188.6C2143.61,-176.07 2086.8,-157.04 2053.64,-145.93"/>
<polygon fill="#63b8ff" stroke="#63b8ff" points="2179.41,-191.76 2190.01,-191.62 2181.64,-185.12 2179.41,-191.76"/>
</g>
<!-- Node8 -->
<g id="node8" class="node">
<title>Node8</title>
<g id="a_node8"><a xlink:href="d__event__data_8cpp.html" target="_top" xlink:title=" ">
<polygon fill="white" stroke="#666666" points="2208.5,-151 2105.5,-151 2105.5,-121 2208.5,-121 2208.5,-151"/>
<text text-anchor="start" x="2113.5" y="-139" font-family="Helvetica,sans-Serif" font-size="10.00">src/d/event/d_event</text>
<text text-anchor="middle" x="2157" y="-128" font-family="Helvetica,sans-Serif" font-size="10.00">_data.cpp</text>
</a>
</g>
</g>
<!-- Node3&#45;&gt;Node8 -->
<g id="edge7" class="edge">
<title>Node3&#45;&gt;Node8</title>
<path fill="none" stroke="#63b8ff" d="M2201.75,-183.95C2192.01,-173.73 2179.78,-160.9 2170.57,-151.23"/>
<polygon fill="#63b8ff" stroke="#63b8ff" points="2199.04,-186.18 2208.47,-191.01 2204.11,-181.35 2199.04,-186.18"/>
</g>
<!-- Node9 -->
<g id="node9" class="node">
<title>Node9</title>
<g id="a_node9"><a xlink:href="d__kankyo__rain_8cpp.html" target="_top" xlink:title=" ">
<polygon fill="white" stroke="#666666" points="2753,-151 2637,-151 2637,-121 2753,-121 2753,-151"/>
<text text-anchor="start" x="2645" y="-139" font-family="Helvetica,sans-Serif" font-size="10.00">src/d/kankyo/d_kankyo</text>
<text text-anchor="middle" x="2695" y="-128" font-family="Helvetica,sans-Serif" font-size="10.00">_rain.cpp</text>
</a>
</g>
</g>
<!-- Node3&#45;&gt;Node9 -->
<g id="edge8" class="edge">
<title>Node3&#45;&gt;Node9</title>
<path fill="none" stroke="#63b8ff" d="M2263.97,-189.65C2268.69,-188.67 2273.43,-187.76 2278,-187 2432.23,-161.18 2473.48,-175.02 2628,-151 2630.82,-150.56 2633.7,-150.08 2636.6,-149.57"/>
<polygon fill="#63b8ff" stroke="#63b8ff" points="2263.57,-186.16 2254.55,-191.71 2265.06,-192.99 2263.57,-186.16"/>
</g>
<!-- Node10 -->
<g id="node10" class="node">
<title>Node10</title>
<g id="a_node10"><a xlink:href="d__s__play_8cpp.html" target="_top" xlink:title=" ">
<polygon fill="white" stroke="#666666" points="2333,-145.5 2227,-145.5 2227,-126.5 2333,-126.5 2333,-145.5"/>
<text text-anchor="middle" x="2280" y="-133.5" font-family="Helvetica,sans-Serif" font-size="10.00">src/d/s/d_s_play.cpp</text>
</a>
</g>
</g>
<!-- Node3&#45;&gt;Node10 -->
<g id="edge9" class="edge">
<title>Node3&#45;&gt;Node10</title>
<path fill="none" stroke="#63b8ff" d="M2234.49,-183.98C2246.38,-171.7 2261.95,-155.63 2271.45,-145.82"/>
<polygon fill="#63b8ff" stroke="#63b8ff" points="2232.12,-181.4 2227.67,-191.01 2237.15,-186.27 2232.12,-181.4"/>
</g>
<!-- Node11 -->
<g id="node11" class="node">
<title>Node11</title>
<g id="a_node11"><a xlink:href="f__op__actor_8cpp.html" target="_top" xlink:title=" ">
<polygon fill="white" stroke="#666666" points="2890.5,-145.5 2771.5,-145.5 2771.5,-126.5 2890.5,-126.5 2890.5,-145.5"/>
<text text-anchor="middle" x="2831" y="-133.5" font-family="Helvetica,sans-Serif" font-size="10.00">src/f_op/f_op_actor.cpp</text>
</a>
</g>
</g>
<!-- Node3&#45;&gt;Node11 -->
<g id="edge10" class="edge">
<title>Node3&#45;&gt;Node11</title>
<path fill="none" stroke="#63b8ff" d="M2263.58,-189.59C2268.43,-188.61 2273.3,-187.72 2278,-187 2491.23,-154.39 2548.32,-180.5 2762,-151 2771.57,-149.68 2781.8,-147.84 2791.38,-145.93"/>
<polygon fill="#63b8ff" stroke="#63b8ff" points="2262.92,-186.15 2253.88,-191.69 2264.4,-192.99 2262.92,-186.15"/>
</g>
<!-- Node12&#45;&gt;Node4 -->
<g id="edge17" class="edge">
<title>Node12&#45;&gt;Node4</title>
<path fill="none" stroke="#63b8ff" d="M1454.65,-201.23C1610.59,-200.96 2011.07,-195.57 2342,-151 2351.13,-149.77 2360.89,-147.92 2369.97,-145.96"/>
<polygon fill="#63b8ff" stroke="#63b8ff" points="1454.92,-197.73 1444.92,-201.24 1454.92,-204.73 1454.92,-197.73"/>
</g>
<!-- Node12&#45;&gt;Node6 -->
<g id="edge18" class="edge">
<title>Node12&#45;&gt;Node6</title>
<path fill="none" stroke="#63b8ff" d="M1454.73,-196.45C1543.92,-189.74 1706.7,-175.28 1844,-151 1851.73,-149.63 1859.96,-147.82 1867.7,-145.96"/>
<polygon fill="#63b8ff" stroke="#63b8ff" points="1454.66,-192.94 1444.94,-197.17 1455.18,-199.93 1454.66,-192.94"/>
</g>
<!-- Node12&#45;&gt;Node7 -->
<g id="edge19" class="edge">
<title>Node12&#45;&gt;Node7</title>
<path fill="none" stroke="#63b8ff" d="M1454.35,-197.54C1560.79,-191.45 1776.11,-176.96 1957,-151 1966.45,-149.64 1976.54,-147.84 1986.04,-145.97"/>
<polygon fill="#63b8ff" stroke="#63b8ff" points="1454.46,-194.03 1444.67,-198.08 1454.85,-201.02 1454.46,-194.03"/>
</g>
<!-- Node12&#45;&gt;Node8 -->
<g id="edge20" class="edge">
<title>Node12&#45;&gt;Node8</title>
<path fill="none" stroke="#63b8ff" d="M1454.74,-199.73C1580.73,-196.58 1861.99,-185.9 2096,-151 2099.01,-150.55 2102.09,-150.03 2105.19,-149.47"/>
<polygon fill="#63b8ff" stroke="#63b8ff" points="1454.82,-196.23 1444.91,-199.97 1454.99,-203.23 1454.82,-196.23"/>
</g>
<!-- Node12&#45;&gt;Node10 -->
<g id="edge29" class="edge">
<title>Node12&#45;&gt;Node10</title>
<path fill="none" stroke="#63b8ff" d="M1454.63,-200.64C1596,-199.06 1936.15,-191.04 2218,-151 2226.74,-149.76 2236.07,-147.93 2244.77,-145.99"/>
<polygon fill="#63b8ff" stroke="#63b8ff" points="1454.66,-197.14 1444.7,-200.74 1454.73,-204.13 1454.66,-197.14"/>
</g>
<!-- Node13 -->
<g id="node13" class="node">
<title>Node13</title>
<g id="a_node13"><a xlink:href="d__msg__string__base_8h.html" target="_top" xlink:title=" ">
<polygon fill="white" stroke="#666666" points="1506,-151 1396,-151 1396,-121 1506,-121 1506,-151"/>
<text text-anchor="start" x="1404" y="-139" font-family="Helvetica,sans-Serif" font-size="10.00">include/d/msg/d_msg</text>
<text text-anchor="middle" x="1451" y="-128" font-family="Helvetica,sans-Serif" font-size="10.00">_string_base.h</text>
</a>
</g>
</g>
<!-- Node12&#45;&gt;Node13 -->
<g id="edge12" class="edge">
<title>Node12&#45;&gt;Node13</title>
<path fill="none" stroke="#63b8ff" d="M1409.85,-178.81C1418.87,-169.64 1429.07,-159.28 1437.06,-151.16"/>
<polygon fill="#63b8ff" stroke="#63b8ff" points="1407.56,-176.14 1403.04,-185.72 1412.55,-181.05 1407.56,-176.14"/>
</g>
<!-- Node18 -->
<g id="node18" class="node">
<title>Node18</title>
<g id="a_node18"><a xlink:href="d__kankyo_8cpp.html" target="_top" xlink:title=" ">
<polygon fill="white" stroke="#666666" points="1658,-145.5 1524,-145.5 1524,-126.5 1658,-126.5 1658,-145.5"/>
<text text-anchor="middle" x="1591" y="-133.5" font-family="Helvetica,sans-Serif" font-size="10.00">src/d/kankyo/d_kankyo.cpp</text>
</a>
</g>
</g>
<!-- Node12&#45;&gt;Node18 -->
<g id="edge21" class="edge">
<title>Node12&#45;&gt;Node18</title>
<path fill="none" stroke="#63b8ff" d="M1444.34,-183.24C1482.77,-171.12 1532.05,-155.59 1562.57,-145.96"/>
<polygon fill="#63b8ff" stroke="#63b8ff" points="1443.74,-179.76 1435.25,-186.1 1445.84,-186.43 1443.74,-179.76"/>
</g>
<!-- Node19 -->
<g id="node19" class="node">
<title>Node19</title>
<g id="a_node19"><a xlink:href="d__menu__window_8cpp.html" target="_top" xlink:title=" ">
<polygon fill="white" stroke="#666666" points="1835.5,-145.5 1676.5,-145.5 1676.5,-126.5 1835.5,-126.5 1835.5,-145.5"/>
<text text-anchor="middle" x="1756" y="-133.5" font-family="Helvetica,sans-Serif" font-size="10.00">src/d/menu/d_menu_window.cpp</text>
</a>
</g>
</g>
<!-- Node12&#45;&gt;Node19 -->
<g id="edge22" class="edge">
<title>Node12&#45;&gt;Node19</title>
<path fill="none" stroke="#63b8ff" d="M1454.65,-189.41C1526.47,-176.92 1639.21,-157.31 1704.52,-145.95"/>
<polygon fill="#63b8ff" stroke="#63b8ff" points="1454.24,-185.93 1444.98,-191.09 1455.43,-192.82 1454.24,-185.93"/>
</g>
<!-- Node20 -->
<g id="node20" class="node">
<title>Node20</title>
<g id="a_node20"><a xlink:href="d__meter2__draw_8cpp.html" target="_top" xlink:title=" ">
<polygon fill="white" stroke="#666666" points="110,-151 0,-151 0,-121 110,-121 110,-151"/>
<text text-anchor="start" x="8" y="-139" font-family="Helvetica,sans-Serif" font-size="10.00">src/d/meter/d_meter2</text>
<text text-anchor="middle" x="55" y="-128" font-family="Helvetica,sans-Serif" font-size="10.00">_draw.cpp</text>
</a>
</g>
</g>
<!-- Node12&#45;&gt;Node20 -->
<g id="edge23" class="edge">
<title>Node12&#45;&gt;Node20</title>
<path fill="none" stroke="#63b8ff" d="M1321.25,-199.92C1094.51,-196.01 354.92,-181.21 119,-151 116.18,-150.64 113.3,-150.21 110.4,-149.74"/>
<polygon fill="#63b8ff" stroke="#63b8ff" points="1321.03,-203.42 1331.09,-200.09 1321.15,-196.42 1321.03,-203.42"/>
</g>
<!-- Node21 -->
<g id="node21" class="node">
<title>Node21</title>
<g id="a_node21"><a xlink:href="d__meter2__info_8cpp.html" target="_top" xlink:title=" ">
<polygon fill="white" stroke="#666666" points="238,-151 128,-151 128,-121 238,-121 238,-151"/>
<text text-anchor="start" x="136" y="-139" font-family="Helvetica,sans-Serif" font-size="10.00">src/d/meter/d_meter2</text>
<text text-anchor="middle" x="183" y="-128" font-family="Helvetica,sans-Serif" font-size="10.00">_info.cpp</text>
</a>
</g>
</g>
<!-- Node12&#45;&gt;Node21 -->
<g id="edge24" class="edge">
<title>Node12&#45;&gt;Node21</title>
<path fill="none" stroke="#63b8ff" d="M1321.3,-199.58C1109.97,-194.85 456.84,-178.34 247,-151 244.18,-150.63 241.3,-150.2 238.4,-149.73"/>
<polygon fill="#63b8ff" stroke="#63b8ff" points="1320.92,-203.07 1331,-199.8 1321.08,-196.08 1320.92,-203.07"/>
</g>
<!-- Node22 -->
<g id="node22" class="node">
<title>Node22</title>
<g id="a_node22"><a xlink:href="d__meter__map_8cpp.html" target="_top" xlink:title=" ">
<polygon fill="white" stroke="#666666" points="360,-151 256,-151 256,-121 360,-121 360,-151"/>
<text text-anchor="start" x="264" y="-139" font-family="Helvetica,sans-Serif" font-size="10.00">src/d/meter/d_meter</text>
<text text-anchor="middle" x="308" y="-128" font-family="Helvetica,sans-Serif" font-size="10.00">_map.cpp</text>
</a>
</g>
</g>
<!-- Node12&#45;&gt;Node22 -->
<g id="edge25" class="edge">
<title>Node12&#45;&gt;Node22</title>
<path fill="none" stroke="#63b8ff" d="M1321.45,-201.78C1158.28,-202.83 725.61,-200.28 369,-151 366.2,-150.61 363.34,-150.16 360.46,-149.66"/>
<polygon fill="#63b8ff" stroke="#63b8ff" points="1321.24,-205.28 1331.22,-201.71 1321.19,-198.28 1321.24,-205.28"/>
</g>
<!-- Node23 -->
<g id="node23" class="node">
<title>Node23</title>
<g id="a_node23"><a xlink:href="d__msg__flow_8cpp.html" target="_top" xlink:title=" ">
<polygon fill="white" stroke="#666666" points="511.5,-145.5 378.5,-145.5 378.5,-126.5 511.5,-126.5 511.5,-145.5"/>
<text text-anchor="middle" x="445" y="-133.5" font-family="Helvetica,sans-Serif" font-size="10.00">src/d/msg/d_msg_flow.cpp</text>
</a>
</g>
</g>
<!-- Node12&#45;&gt;Node23 -->
<g id="edge26" class="edge">
<title>Node12&#45;&gt;Node23</title>
<path fill="none" stroke="#63b8ff" d="M1321.13,-199.98C1175.3,-197.13 817.95,-186.77 521,-151 510.34,-149.72 498.93,-147.87 488.26,-145.93"/>
<polygon fill="#63b8ff" stroke="#63b8ff" points="1320.93,-203.47 1330.99,-200.16 1321.06,-196.48 1320.93,-203.47"/>
</g>
<!-- Node24 -->
<g id="node24" class="node">
<title>Node24</title>
<g id="a_node24"><a xlink:href="d__msg__object_8cpp.html" target="_top" xlink:title=" ">
<polygon fill="white" stroke="#666666" points="672,-145.5 530,-145.5 530,-126.5 672,-126.5 672,-145.5"/>
<text text-anchor="middle" x="601" y="-133.5" font-family="Helvetica,sans-Serif" font-size="10.00">src/d/msg/d_msg_object.cpp</text>
</a>
</g>
</g>
<!-- Node12&#45;&gt;Node24 -->
<g id="edge27" class="edge">
<title>Node12&#45;&gt;Node24</title>
<path fill="none" stroke="#63b8ff" d="M1321.51,-198.58C1195.96,-193.49 915.51,-179.73 681,-151 670.08,-149.66 658.39,-147.84 647.41,-145.95"/>
<polygon fill="#63b8ff" stroke="#63b8ff" points="1321.17,-202.06 1331.3,-198.97 1321.45,-195.07 1321.17,-202.06"/>
</g>
<!-- Node25 -->
<g id="node25" class="node">
<title>Node25</title>
<g id="a_node25"><a xlink:href="d__msg__out__font_8cpp.html" target="_top" xlink:title=" ">
<polygon fill="white" stroke="#666666" points="801.5,-151 690.5,-151 690.5,-121 801.5,-121 801.5,-151"/>
<text text-anchor="start" x="698.5" y="-139" font-family="Helvetica,sans-Serif" font-size="10.00">src/d/msg/d_msg_out</text>
<text text-anchor="middle" x="746" y="-128" font-family="Helvetica,sans-Serif" font-size="10.00">_font.cpp</text>
</a>
</g>
</g>
<!-- Node12&#45;&gt;Node25 -->
<g id="edge28" class="edge">
<title>Node12&#45;&gt;Node25</title>
<path fill="none" stroke="#63b8ff" d="M1321.51,-197.96C1213.81,-192.42 994.72,-178.63 811,-151 808.03,-150.55 805,-150.05 801.94,-149.52"/>
<polygon fill="#63b8ff" stroke="#63b8ff" points="1321.16,-201.45 1331.32,-198.46 1321.51,-194.45 1321.16,-201.45"/>
</g>
<!-- Node26 -->
<g id="node26" class="node">
<title>Node26</title>
<g id="a_node26"><a xlink:href="d__shop__system_8cpp.html" target="_top" xlink:title=" ">
<polygon fill="white" stroke="#666666" points="972,-145.5 820,-145.5 820,-126.5 972,-126.5 972,-145.5"/>
<text text-anchor="middle" x="896" y="-133.5" font-family="Helvetica,sans-Serif" font-size="10.00">src/d/shop/d_shop_system.cpp</text>
</a>
</g>
</g>
<!-- Node12&#45;&gt;Node26 -->
<g id="edge30" class="edge">
<title>Node12&#45;&gt;Node26</title>
<path fill="none" stroke="#63b8ff" d="M1321.63,-193.69C1240.97,-184.62 1100.8,-168.22 981,-151 970.34,-149.47 958.95,-147.69 948.09,-145.93"/>
<polygon fill="#63b8ff" stroke="#63b8ff" points="1320.77,-197.12 1331.1,-194.76 1321.55,-190.16 1320.77,-197.12"/>
</g>
<!-- Node27 -->
<g id="node27" class="node">
<title>Node27</title>
<g id="a_node27"><a xlink:href="f__op__msg__mng_8cpp.html" target="_top" xlink:title=" ">
<polygon fill="white" stroke="#666666" points="1130,-145.5 990,-145.5 990,-126.5 1130,-126.5 1130,-145.5"/>
<text text-anchor="middle" x="1060" y="-133.5" font-family="Helvetica,sans-Serif" font-size="10.00">src/f_op/f_op_msg_mng.cpp</text>
</a>
</g>
</g>
<!-- Node12&#45;&gt;Node27 -->
<g id="edge31" class="edge">
<title>Node12&#45;&gt;Node27</title>
<path fill="none" stroke="#63b8ff" d="M1321.53,-188.03C1257.42,-175.52 1162.07,-156.92 1105.95,-145.97"/>
<polygon fill="#63b8ff" stroke="#63b8ff" points="1320.76,-191.45 1331.24,-189.93 1322.1,-184.58 1320.76,-191.45"/>
</g>
<!-- Node28 -->
<g id="node28" class="node">
<title>Node28</title>
<g id="a_node28"><a xlink:href="d__msg__scrn__base_8cpp.html" target="_top" xlink:title=" ">
<polygon fill="white" stroke="#666666" points="1254,-151 1148,-151 1148,-121 1254,-121 1254,-151"/>
<text text-anchor="start" x="1156" y="-139" font-family="Helvetica,sans-Serif" font-size="10.00">src/msg/scrn/d_msg</text>
<text text-anchor="middle" x="1201" y="-128" font-family="Helvetica,sans-Serif" font-size="10.00">_scrn_base.cpp</text>
</a>
</g>
</g>
<!-- Node12&#45;&gt;Node28 -->
<g id="edge32" class="edge">
<title>Node12&#45;&gt;Node28</title>
<path fill="none" stroke="#63b8ff" d="M1335.22,-182.94C1306.09,-172.97 1270.4,-160.75 1243.15,-151.43"/>
<polygon fill="#63b8ff" stroke="#63b8ff" points="1334.01,-186.22 1344.6,-186.15 1336.27,-179.6 1334.01,-186.22"/>
</g>
<!-- Node29 -->
<g id="node29" class="node">
<title>Node29</title>
<g id="a_node29"><a xlink:href="d__msg__scrn__boss_8cpp.html" target="_top" xlink:title=" ">
<polygon fill="white" stroke="#666666" points="1378,-151 1272,-151 1272,-121 1378,-121 1378,-151"/>
<text text-anchor="start" x="1280" y="-139" font-family="Helvetica,sans-Serif" font-size="10.00">src/msg/scrn/d_msg</text>
<text text-anchor="middle" x="1325" y="-128" font-family="Helvetica,sans-Serif" font-size="10.00">_scrn_boss.cpp</text>
</a>
</g>
</g>
<!-- Node12&#45;&gt;Node29 -->
<g id="edge33" class="edge">
<title>Node12&#45;&gt;Node29</title>
<path fill="none" stroke="#63b8ff" d="M1366.15,-178.81C1357.13,-169.64 1346.93,-159.28 1338.94,-151.16"/>
<polygon fill="#63b8ff" stroke="#63b8ff" points="1363.45,-181.05 1372.96,-185.72 1368.44,-176.14 1363.45,-181.05"/>
</g>
<!-- Node14 -->
<g id="node14" class="node">
<title>Node14</title>
<g id="a_node14"><a xlink:href="d__msg__string_8h.html" target="_top" xlink:title=" ">
<polygon fill="white" stroke="#666666" points="1439,-85 1329,-85 1329,-55 1439,-55 1439,-85"/>
<text text-anchor="start" x="1337" y="-73" font-family="Helvetica,sans-Serif" font-size="10.00">include/d/msg/d_msg</text>
<text text-anchor="middle" x="1384" y="-62" font-family="Helvetica,sans-Serif" font-size="10.00">_string.h</text>
</a>
</g>
</g>
<!-- Node13&#45;&gt;Node14 -->
<g id="edge13" class="edge">
<title>Node13&#45;&gt;Node14</title>
<path fill="none" stroke="#63b8ff" d="M1428.06,-113.09C1418.39,-103.85 1407.41,-93.36 1398.83,-85.16"/>
<polygon fill="#63b8ff" stroke="#63b8ff" points="1425.39,-115.37 1435.04,-119.75 1430.22,-110.31 1425.39,-115.37"/>
</g>
<!-- Node17 -->
<g id="node17" class="node">
<title>Node17</title>
<g id="a_node17"><a xlink:href="d__msg__string__base_8cpp.html" target="_top" xlink:title=" ">
<polygon fill="white" stroke="#666666" points="1579,-85 1457,-85 1457,-55 1579,-55 1579,-85"/>
<text text-anchor="start" x="1465" y="-73" font-family="Helvetica,sans-Serif" font-size="10.00">src/d/msg/d_msg_string</text>
<text text-anchor="middle" x="1518" y="-62" font-family="Helvetica,sans-Serif" font-size="10.00">_base.cpp</text>
</a>
</g>
</g>
<!-- Node13&#45;&gt;Node17 -->
<g id="edge16" class="edge">
<title>Node13&#45;&gt;Node17</title>
<path fill="none" stroke="#63b8ff" d="M1473.94,-113.09C1483.61,-103.85 1494.59,-93.36 1503.17,-85.16"/>
<polygon fill="#63b8ff" stroke="#63b8ff" points="1471.78,-110.31 1466.96,-119.75 1476.61,-115.37 1471.78,-110.31"/>
</g>
<!-- Node15 -->
<g id="node15" class="node">
<title>Node15</title>
<g id="a_node15"><a xlink:href="d__menu__save_8cpp.html" target="_top" xlink:title=" ">
<polygon fill="white" stroke="#666666" points="1376.5,-19 1229.5,-19 1229.5,0 1376.5,0 1376.5,-19"/>
<text text-anchor="middle" x="1303" y="-7" font-family="Helvetica,sans-Serif" font-size="10.00">src/d/menu/d_menu_save.cpp</text>
</a>
</g>
</g>
<!-- Node14&#45;&gt;Node15 -->
<g id="edge14" class="edge">
<title>Node14&#45;&gt;Node15</title>
<path fill="none" stroke="#63b8ff" d="M1354.86,-47.95C1341.12,-38.03 1325.49,-26.74 1315.01,-19.18"/>
<polygon fill="#63b8ff" stroke="#63b8ff" points="1352.59,-50.64 1362.75,-53.65 1356.69,-44.96 1352.59,-50.64"/>
</g>
<!-- Node16 -->
<g id="node16" class="node">
<title>Node16</title>
<g id="a_node16"><a xlink:href="d__msg__string_8cpp.html" target="_top" xlink:title=" ">
<polygon fill="white" stroke="#666666" points="1535,-19 1395,-19 1395,0 1535,0 1535,-19"/>
<text text-anchor="middle" x="1465" y="-7" font-family="Helvetica,sans-Serif" font-size="10.00">src/d/msg/d_msg_string.cpp</text>
</a>
</g>
</g>
<!-- Node14&#45;&gt;Node16 -->
<g id="edge15" class="edge">
<title>Node14&#45;&gt;Node16</title>
<path fill="none" stroke="#63b8ff" d="M1413.14,-47.95C1426.88,-38.03 1442.51,-26.74 1452.99,-19.18"/>
<polygon fill="#63b8ff" stroke="#63b8ff" points="1411.31,-44.96 1405.25,-53.65 1415.41,-50.64 1411.31,-44.96"/>
</g>
</g>
</svg>
        <g id="navigator" transform="translate(0 0)" fill="#404254">
                <rect fill="#f2f5e9" fill-opacity="0.5" stroke="#606060" stroke-width=".5" x="0" y="0" width="60" height="60"/>
                <use id="zoomplus" xlink:href="#zoomPlus" x="17" y="9" onmousedown="handleZoom(evt,'in')"/>
                <use id="zoomminus" xlink:href="#zoomMin" x="42" y="9" onmousedown="handleZoom(evt,'out')"/>
                <use id="reset" xlink:href="#resetDef" x="30" y="36" onmousedown="handleReset()"/>
                <g id="arrowUp" xlink:href="#dirArrow" transform="translate(30 24)" onmousedown="handlePan(0,-1)">
                  <use xlink:href="#rim" fill="#404040">
                        <set attributeName="fill" to="#808080" begin="arrowUp.mouseover" end="arrowUp.mouseout"/>
                  </use>
                  <path fill="none" stroke="white" stroke-width="1.5" d="M0,-3.0v7 M-2.5,-0.5L0,-3.0L2.5,-0.5"/>
                </g>
                <g id="arrowRight" xlink:href="#dirArrow" transform="rotate(90) translate(36 -43)" onmousedown="handlePan(1,0)">
                  <use xlink:href="#rim" fill="#404040">
                        <set attributeName="fill" to="#808080" begin="arrowRight.mouseover" end="arrowRight.mouseout"/>
                  </use>
                  <path fill="none" stroke="white" stroke-width="1.5" d="M0,-3.0v7 M-2.5,-0.5L0,-3.0L2.5,-0.5"/>
                </g>
                <g id="arrowDown" xlink:href="#dirArrow" transform="rotate(180) translate(-30 -48)" onmousedown="handlePan(0,1)">
                  <use xlink:href="#rim" fill="#404040">
                        <set attributeName="fill" to="#808080" begin="arrowDown.mouseover" end="arrowDown.mouseout"/>
                  </use>
                  <path fill="none" stroke="white" stroke-width="1.5" d="M0,-3.0v7 M-2.5,-0.5L0,-3.0L2.5,-0.5"/>
                </g>
                <g id="arrowLeft" xlink:href="#dirArrow" transform="rotate(270) translate(-36 17)" onmousedown="handlePan(-1,0)">
                  <use xlink:href="#rim" fill="#404040">
                        <set attributeName="fill" to="#808080" begin="arrowLeft.mouseover" end="arrowLeft.mouseout"/>
                  </use>
                  <path fill="none" stroke="white" stroke-width="1.5" d="M0,-3.0v7 M-2.5,-0.5L0,-3.0L2.5,-0.5"/>
                </g>
        </g>
        <svg viewBox="0 0 15 15" width="100%" height="30px" preserveAspectRatio="xMaxYMin meet">
         <g id="arrow_out" transform="scale(0.3 0.3)">
          <a xlink:href="resource_8h__dep__incl_org.svg" target="_base">
           <rect id="button" ry="5" rx="5" y="6" x="6" height="38" width="38"
                fill="#f2f5e9" fill-opacity="0.5" stroke="#606060" stroke-width="1.0"/>
           <path id="arrow"
             d="M 11.500037,31.436501 C 11.940474,20.09759 22.043105,11.32322 32.158766,21.979434 L 37.068811,17.246167 C 37.068811,17.246167 37.088388,32 37.088388,32 L 22.160133,31.978069 C 22.160133,31.978069 26.997745,27.140456 26.997745,27.140456 C 18.528582,18.264221 13.291696,25.230495 11.500037,31.436501 z"
             style="fill:#404040;"/>
          </a>
         </g>
        </svg>
</svg>
