<?xml version="1.0" encoding="UTF-8" standalone="no"?>
<!DOCTYPE svg PUBLIC "-//W3C//DTD SVG 1.1//EN"
 "http://www.w3.org/Graphics/SVG/1.1/DTD/svg11.dtd">
<!-- Generated by graphviz version 7.0.4 (20221203.1631)
 -->
<!-- Title: leafdraw_class Pages: 1 -->
<!--zoomable 1655 -->
<svg id="main" version="1.1" xmlns="http://www.w3.org/2000/svg" xmlns:xlink="http://www.w3.org/1999/xlink" xml:space="preserve" onload="init(evt)">
<style type="text/css"><![CDATA[
.edge:hover path { stroke: red; }
.edge:hover polygon { stroke: red; fill: red; }
]]></style>
<script type="text/javascript"><![CDATA[
var edges = document.getElementsByTagName('g');
if (edges && edges.length) {
  for (var i=0;i<edges.length;i++) {
    if (edges[i].id.substr(0,4)=='edge') {
      edges[i].setAttribute('class','edge');
    }
  }
}
]]></script>
        <defs>
                <circle id="rim" cx="0" cy="0" r="7"/>
                <circle id="rim2" cx="0" cy="0" r="3.5"/>
                <g id="zoomPlus">
                        <use xlink:href="#rim" fill="#404040">
                                <set attributeName="fill" to="#808080" begin="zoomplus.mouseover" end="zoomplus.mouseout"/>
                        </use>
                        <path d="M-4,0h8M0,-4v8" fill="none" stroke="white" stroke-width="1.5" pointer-events="none"/>
                </g>
                <g id="zoomMin">
                        <use xlink:href="#rim" fill="#404040">
                                <set attributeName="fill" to="#808080" begin="zoomminus.mouseover" end="zoomminus.mouseout"/>
                        </use>
                        <path d="M-4,0h8" fill="none" stroke="white" stroke-width="1.5" pointer-events="none"/>
                </g>
                <g id="dirArrow">
                        <path fill="none" stroke="white" stroke-width="1.5" d="M0,-3.0v7 M-2.5,-0.5L0,-3.0L2.5,-0.5"/>
                </g>
               <g id="resetDef">
                       <use xlink:href="#rim2" fill="#404040">
                               <set attributeName="fill" to="#808080" begin="reset.mouseover" end="reset.mouseout"/>
                       </use>
               </g>
        </defs>

<script type="text/javascript">
var viewWidth = 347;
var viewHeight = 1655;
var sectionId = 'dynsection-0';
</script>
<script xlink:href="svgpan.js"/>
<svg id="graph" class="graph">
<g id="viewport">
<title>leafdraw_class</title>
<!-- Node1 -->
<g id="node1" class="node">
<title>Node1</title>
<g id="a_node1"><a xlink:title=" ">
<polygon fill="#999999" stroke="#666666" points="82,-112 0,-112 0,-93 82,-93 82,-112"/>
<text text-anchor="middle" x="41" y="-100" font-family="Helvetica,sans-Serif" font-size="10.00">leafdraw_class</text>
</a>
</g>
</g>
<!-- Node2 -->
<g id="node2" class="node">
<title>Node2</title>
<g id="a_node2"><a xlink:href="structfopAc__ac__c.html" target="_top" xlink:title=" ">
<polygon fill="white" stroke="#666666" points="186,-888 118,-888 118,-869 186,-869 186,-888"/>
<text text-anchor="middle" x="152" y="-876" font-family="Helvetica,sans-Serif" font-size="10.00">fopAc_ac_c</text>
</a>
</g>
</g>
<!-- Node1&#45;&gt;Node2 -->
<g id="edge1" class="edge">
<title>Node1&#45;&gt;Node2</title>
<path fill="none" stroke="#63b8ff" d="M44.97,-123.64C61.14,-238.78 138.31,-788.15 149.62,-868.65"/>
<polygon fill="#63b8ff" stroke="#63b8ff" points="48.45,-123.23 43.59,-113.81 41.51,-124.2 48.45,-123.23"/>
</g>
<!-- Node48 -->
<g id="node43" class="node">
<title>Node48</title>
<g id="a_node43"><a xlink:href="classmsg__class.html" target="_top" xlink:title=" ">
<polygon fill="white" stroke="#666666" points="184,-112 120,-112 120,-93 184,-93 184,-112"/>
<text text-anchor="middle" x="152" y="-100" font-family="Helvetica,sans-Serif" font-size="10.00">msg_class</text>
</a>
</g>
</g>
<!-- Node1&#45;&gt;Node48 -->
<g id="edge43" class="edge">
<title>Node1&#45;&gt;Node48</title>
<path fill="none" stroke="#63b8ff" d="M93.5,-102.5C102.46,-102.5 111.54,-102.5 119.74,-102.5"/>
<polygon fill="#63b8ff" stroke="#63b8ff" points="93.79,-99 83.79,-102.5 93.79,-106 93.79,-99"/>
</g>
<!-- Node53 -->
<g id="node48" class="node">
<title>Node53</title>
<g id="a_node48"><a xlink:href="structview__class.html" target="_top" xlink:title=" ">
<polygon fill="white" stroke="#666666" points="184.5,-38 119.5,-38 119.5,-19 184.5,-19 184.5,-38"/>
<text text-anchor="middle" x="152" y="-26" font-family="Helvetica,sans-Serif" font-size="10.00">view_class</text>
</a>
</g>
</g>
<!-- Node1&#45;&gt;Node53 -->
<g id="edge48" class="edge">
<title>Node1&#45;&gt;Node53</title>
<path fill="none" stroke="#63b8ff" d="M66.16,-86.1C87.72,-71.46 118.58,-50.51 136.53,-38.32"/>
<polygon fill="#63b8ff" stroke="#63b8ff" points="64.26,-83.16 57.95,-91.67 68.19,-88.95 64.26,-83.16"/>
</g>
<!-- Node3 -->
<g id="node3" class="node">
<title>Node3</title>
<g id="a_node3"><a xlink:href="classdBgS__MoveBgActor.html" target="_top" xlink:title=" ">
<polygon fill="white" stroke="#666666" points="333,-1647 228,-1647 228,-1628 333,-1628 333,-1647"/>
<text text-anchor="middle" x="280.5" y="-1635" font-family="Helvetica,sans-Serif" font-size="10.00">dBgS_MoveBgActor</text>
</a>
</g>
</g>
<!-- Node2&#45;&gt;Node3 -->
<g id="edge2" class="edge">
<title>Node2&#45;&gt;Node3</title>
<path fill="none" stroke="#63b8ff" d="M153.59,-899.68C156.99,-1014.78 175.5,-1562.01 222,-1619.5 224.63,-1622.75 227.84,-1625.43 231.39,-1627.63"/>
<polygon fill="#63b8ff" stroke="#63b8ff" points="157.1,-899.76 153.31,-889.86 150.1,-899.96 157.1,-899.76"/>
</g>
<!-- Node4 -->
<g id="node4" class="node">
<title>Node4</title>
<g id="a_node4"><a xlink:href="classdaAlldie__c.html" target="_top" xlink:title=" ">
<polygon fill="white" stroke="#666666" points="311.5,-1610 249.5,-1610 249.5,-1591 311.5,-1591 311.5,-1610"/>
<text text-anchor="middle" x="280.5" y="-1598" font-family="Helvetica,sans-Serif" font-size="10.00">daAlldie_c</text>
</a>
</g>
</g>
<!-- Node2&#45;&gt;Node4 -->
<g id="edge3" class="edge">
<title>Node2&#45;&gt;Node4</title>
<path fill="none" stroke="#63b8ff" d="M153.7,-899.66C157.57,-1011.23 177.8,-1528.13 222,-1582.5 228.66,-1590.7 239.02,-1595.23 249.12,-1597.71"/>
<polygon fill="#63b8ff" stroke="#63b8ff" points="157.21,-899.75 153.37,-889.88 150.21,-899.99 157.21,-899.75"/>
</g>
<!-- Node5 -->
<g id="node5" class="node">
<title>Node5</title>
<g id="a_node5"><a xlink:href="classdaArrow__c.html" target="_top" xlink:title=" ">
<polygon fill="white" stroke="#666666" points="312,-1573 249,-1573 249,-1554 312,-1554 312,-1573"/>
<text text-anchor="middle" x="280.5" y="-1561" font-family="Helvetica,sans-Serif" font-size="10.00">daArrow_c</text>
</a>
</g>
</g>
<!-- Node2&#45;&gt;Node5 -->
<g id="edge4" class="edge">
<title>Node2&#45;&gt;Node5</title>
<path fill="none" stroke="#63b8ff" d="M153.82,-899.54C158.18,-1007.28 180.09,-1494.23 222,-1545.5 228.55,-1553.52 238.64,-1558.03 248.54,-1560.54"/>
<polygon fill="#63b8ff" stroke="#63b8ff" points="157.32,-899.46 153.42,-889.61 150.32,-899.74 157.32,-899.46"/>
</g>
<!-- Node6 -->
<g id="node6" class="node">
<title>Node6</title>
<g id="a_node6"><a xlink:href="classdaB__ZANT__c.html" target="_top" xlink:title=" ">
<polygon fill="white" stroke="#666666" points="318.5,-1536 242.5,-1536 242.5,-1517 318.5,-1517 318.5,-1536"/>
<text text-anchor="middle" x="280.5" y="-1524" font-family="Helvetica,sans-Serif" font-size="10.00">daB_ZANT_c</text>
</a>
</g>
</g>
<!-- Node2&#45;&gt;Node6 -->
<g id="edge5" class="edge">
<title>Node2&#45;&gt;Node6</title>
<path fill="none" stroke="#63b8ff" d="M153.94,-899.34C158.8,-1003.03 182.37,-1460.32 222,-1508.5 227.18,-1514.8 234.54,-1518.93 242.28,-1521.63"/>
<polygon fill="#63b8ff" stroke="#63b8ff" points="157.45,-899.37 153.49,-889.55 150.45,-899.7 157.45,-899.37"/>
</g>
<!-- Node7 -->
<g id="node7" class="node">
<title>Node7</title>
<g id="a_node7"><a xlink:href="classdaBoomerang__c.html" target="_top" xlink:title=" ">
<polygon fill="white" stroke="#666666" points="324,-1499 237,-1499 237,-1480 324,-1480 324,-1499"/>
<text text-anchor="middle" x="280.5" y="-1487" font-family="Helvetica,sans-Serif" font-size="10.00">daBoomerang_c</text>
</a>
</g>
</g>
<!-- Node2&#45;&gt;Node7 -->
<g id="edge6" class="edge">
<title>Node2&#45;&gt;Node7</title>
<path fill="none" stroke="#63b8ff" d="M154.11,-899.68C159.56,-1000.24 184.72,-1426.47 222,-1471.5 225.94,-1476.25 231.11,-1479.77 236.75,-1482.37"/>
<polygon fill="#63b8ff" stroke="#63b8ff" points="157.62,-899.71 153.59,-889.91 150.63,-900.08 157.62,-899.71"/>
</g>
<!-- Node8 -->
<g id="node8" class="node">
<title>Node8</title>
<g id="a_node8"><a xlink:href="classdaCanoe__c.html" target="_top" xlink:title=" ">
<polygon fill="white" stroke="#666666" points="313,-1462 248,-1462 248,-1443 313,-1443 313,-1462"/>
<text text-anchor="middle" x="280.5" y="-1450" font-family="Helvetica,sans-Serif" font-size="10.00">daCanoe_c</text>
</a>
</g>
</g>
<!-- Node2&#45;&gt;Node8 -->
<g id="edge7" class="edge">
<title>Node2&#45;&gt;Node8</title>
<path fill="none" stroke="#63b8ff" d="M152.68,-899.65C151.73,-991.04 152.5,-1351.22 222,-1434.5 228.43,-1442.21 238.13,-1446.67 247.73,-1449.23"/>
<polygon fill="#63b8ff" stroke="#63b8ff" points="156.18,-899.73 152.81,-889.69 149.18,-899.65 156.18,-899.73"/>
</g>
<!-- Node9 -->
<g id="node9" class="node">
<title>Node9</title>
<g id="a_node9"><a xlink:href="classdaCrod__c.html" target="_top" xlink:title=" ">
<polygon fill="white" stroke="#666666" points="309.5,-1425 251.5,-1425 251.5,-1406 309.5,-1406 309.5,-1425"/>
<text text-anchor="middle" x="280.5" y="-1413" font-family="Helvetica,sans-Serif" font-size="10.00">daCrod_c</text>
</a>
</g>
</g>
<!-- Node2&#45;&gt;Node9 -->
<g id="edge8" class="edge">
<title>Node2&#45;&gt;Node9</title>
<path fill="none" stroke="#63b8ff" d="M152.89,-899.62C152.86,-987.15 157.06,-1320.37 222,-1397.5 229.21,-1406.06 240.44,-1410.61 251.06,-1413.01"/>
<polygon fill="#63b8ff" stroke="#63b8ff" points="156.39,-899.88 152.92,-889.87 149.39,-899.86 156.39,-899.88"/>
</g>
<!-- Node10 -->
<g id="node10" class="node">
<title>Node10</title>
<g id="a_node10"><a xlink:href="classdaCstatue__c.html" target="_top" xlink:title=" ">
<polygon fill="white" stroke="#666666" points="316,-1388 245,-1388 245,-1369 316,-1369 316,-1388"/>
<text text-anchor="middle" x="280.5" y="-1376" font-family="Helvetica,sans-Serif" font-size="10.00">daCstatue_c</text>
</a>
</g>
</g>
<!-- Node2&#45;&gt;Node10 -->
<g id="edge9" class="edge">
<title>Node2&#45;&gt;Node10</title>
<path fill="none" stroke="#63b8ff" d="M153.13,-899.7C154.07,-983.37 161.63,-1289.52 222,-1360.5 227.76,-1367.27 236.03,-1371.53 244.52,-1374.2"/>
<polygon fill="#63b8ff" stroke="#63b8ff" points="156.63,-899.93 153.04,-889.96 149.63,-899.99 156.63,-899.93"/>
</g>
<!-- Node11 -->
<g id="node11" class="node">
<title>Node11</title>
<g id="a_node11"><a xlink:href="structdaHorse__c.html" target="_top" xlink:title=" ">
<polygon fill="white" stroke="#666666" points="312.5,-1351 248.5,-1351 248.5,-1332 312.5,-1332 312.5,-1351"/>
<text text-anchor="middle" x="280.5" y="-1339" font-family="Helvetica,sans-Serif" font-size="10.00">daHorse_c</text>
</a>
</g>
</g>
<!-- Node2&#45;&gt;Node11 -->
<g id="edge10" class="edge">
<title>Node2&#45;&gt;Node11</title>
<path fill="none" stroke="#63b8ff" d="M153.41,-899.83C155.38,-979.54 166.2,-1258.67 222,-1323.5 228.62,-1331.19 238.48,-1335.64 248.17,-1338.19"/>
<polygon fill="#63b8ff" stroke="#63b8ff" points="156.91,-899.88 153.19,-889.96 149.92,-900.03 156.91,-899.88"/>
</g>
<!-- Node12 -->
<g id="node12" class="node">
<title>Node12</title>
<g id="a_node12"><a xlink:href="classdaItemBase__c.html" target="_top" xlink:title=" ">
<polygon fill="#fff0f0" stroke="red" points="320.5,-1314 240.5,-1314 240.5,-1295 320.5,-1295 320.5,-1314"/>
<text text-anchor="middle" x="280.5" y="-1302" font-family="Helvetica,sans-Serif" font-size="10.00">daItemBase_c</text>
</a>
</g>
</g>
<!-- Node2&#45;&gt;Node12 -->
<g id="edge11" class="edge">
<title>Node2&#45;&gt;Node12</title>
<path fill="none" stroke="#63b8ff" d="M153.73,-899.49C156.75,-974.47 170.65,-1227.66 222,-1286.5 226.81,-1292.02 233.29,-1295.86 240.17,-1298.54"/>
<polygon fill="#63b8ff" stroke="#63b8ff" points="157.24,-899.72 153.37,-889.86 150.25,-899.98 157.24,-899.72"/>
</g>
<!-- Node15 -->
<g id="node13" class="node">
<title>Node15</title>
<g id="a_node13"><a xlink:href="classdaMP__c.html" target="_top" xlink:title=" ">
<polygon fill="white" stroke="#666666" points="307,-1277 254,-1277 254,-1258 307,-1258 307,-1277"/>
<text text-anchor="middle" x="280.5" y="-1265" font-family="Helvetica,sans-Serif" font-size="10.00">daMP_c</text>
</a>
</g>
</g>
<!-- Node2&#45;&gt;Node15 -->
<g id="edge12" class="edge">
<title>Node2&#45;&gt;Node15</title>
<path fill="none" stroke="#63b8ff" d="M154.14,-899.84C158.34,-970.71 175.24,-1196.79 222,-1249.5 229.98,-1258.5 242.4,-1263.05 253.65,-1265.32"/>
<polygon fill="#63b8ff" stroke="#63b8ff" points="157.64,-899.78 153.58,-890 150.65,-900.18 157.64,-899.78"/>
</g>
<!-- Node16 -->
<g id="node14" class="node">
<title>Node16</title>
<g id="a_node14"><a xlink:href="structdaMidna__c.html" target="_top" xlink:title=" ">
<polygon fill="white" stroke="#666666" points="312.5,-1240 248.5,-1240 248.5,-1221 312.5,-1221 312.5,-1240"/>
<text text-anchor="middle" x="280.5" y="-1228" font-family="Helvetica,sans-Serif" font-size="10.00">daMidna_c</text>
</a>
</g>
</g>
<!-- Node2&#45;&gt;Node16 -->
<g id="edge13" class="edge">
<title>Node2&#45;&gt;Node16</title>
<path fill="none" stroke="#63b8ff" d="M154.62,-899.82C160.05,-965.93 179.72,-1165.79 222,-1212.5 228.74,-1219.95 238.51,-1224.34 248.09,-1226.92"/>
<polygon fill="#63b8ff" stroke="#63b8ff" points="158.12,-899.67 153.84,-889.98 151.14,-900.22 158.12,-899.67"/>
</g>
<!-- Node17 -->
<g id="node15" class="node">
<title>Node17</title>
<g id="a_node15"><a xlink:href="classdaNpcF__c.html" target="_top" xlink:title=" ">
<polygon fill="white" stroke="#666666" points="311.5,-1203 249.5,-1203 249.5,-1184 311.5,-1184 311.5,-1203"/>
<text text-anchor="middle" x="280.5" y="-1191" font-family="Helvetica,sans-Serif" font-size="10.00">daNpcF_c</text>
</a>
</g>
</g>
<!-- Node2&#45;&gt;Node17 -->
<g id="edge14" class="edge">
<title>Node2&#45;&gt;Node17</title>
<path fill="none" stroke="#63b8ff" d="M155.17,-899.42C161.87,-960.13 184.11,-1134.65 222,-1175.5 229.04,-1183.09 239.24,-1187.5 249.09,-1190.06"/>
<polygon fill="#63b8ff" stroke="#63b8ff" points="158.68,-899.35 154.14,-889.78 151.72,-900.1 158.68,-899.35"/>
</g>
<!-- Node18 -->
<g id="node16" class="node">
<title>Node18</title>
<g id="a_node16"><a xlink:href="classdaNpcT__c.html" target="_top" xlink:title=" ">
<polygon fill="#fff0f0" stroke="red" points="311.5,-1166 249.5,-1166 249.5,-1147 311.5,-1147 311.5,-1166"/>
<text text-anchor="middle" x="280.5" y="-1154" font-family="Helvetica,sans-Serif" font-size="10.00">daNpcT_c</text>
</a>
</g>
</g>
<!-- Node2&#45;&gt;Node18 -->
<g id="edge15" class="edge">
<title>Node2&#45;&gt;Node18</title>
<path fill="none" stroke="#63b8ff" d="M152.2,-899.59C151.55,-948.48 156.94,-1070.51 222,-1138.5 229.16,-1145.98 239.38,-1150.37 249.23,-1152.94"/>
<polygon fill="#63b8ff" stroke="#63b8ff" points="155.7,-899.93 152.45,-889.85 148.7,-899.75 155.7,-899.93"/>
</g>
<!-- Node20 -->
<g id="node17" class="node">
<title>Node20</title>
<g id="a_node17"><a xlink:href="classdaObjCarry__c.html" target="_top" xlink:title=" ">
<polygon fill="white" stroke="#666666" points="318,-1129 243,-1129 243,-1110 318,-1110 318,-1129"/>
<text text-anchor="middle" x="280.5" y="-1117" font-family="Helvetica,sans-Serif" font-size="10.00">daObjCarry_c</text>
</a>
</g>
</g>
<!-- Node2&#45;&gt;Node20 -->
<g id="edge16" class="edge">
<title>Node2&#45;&gt;Node20</title>
<path fill="none" stroke="#63b8ff" d="M153.32,-899.51C155.15,-943.3 165.62,-1044.93 222,-1101.5 227.61,-1107.13 234.96,-1111 242.52,-1113.67"/>
<polygon fill="#63b8ff" stroke="#63b8ff" points="156.82,-899.52 153.04,-889.63 149.83,-899.72 156.82,-899.52"/>
</g>
<!-- Node21 -->
<g id="node18" class="node">
<title>Node21</title>
<g id="a_node18"><a xlink:href="classdaObjYobikusa__c.html" target="_top" xlink:title=" ">
<polygon fill="white" stroke="#666666" points="327,-1092 234,-1092 234,-1073 327,-1073 327,-1092"/>
<text text-anchor="middle" x="280.5" y="-1080" font-family="Helvetica,sans-Serif" font-size="10.00">daObjYobikusa_c</text>
</a>
</g>
</g>
<!-- Node2&#45;&gt;Node21 -->
<g id="edge17" class="edge">
<title>Node2&#45;&gt;Node21</title>
<path fill="none" stroke="#63b8ff" d="M154.86,-899.65C159.37,-938 174.31,-1019.22 222,-1064.5 225.41,-1067.74 229.4,-1070.4 233.66,-1072.58"/>
<polygon fill="#63b8ff" stroke="#63b8ff" points="158.34,-899.3 153.84,-889.71 151.38,-900.02 158.34,-899.3"/>
</g>
<!-- Node22 -->
<g id="node19" class="node">
<title>Node22</title>
<g id="a_node19"><a xlink:href="classdaObj__SSBase__c.html" target="_top" xlink:title=" ">
<polygon fill="white" stroke="#666666" points="327.5,-1055 233.5,-1055 233.5,-1036 327.5,-1036 327.5,-1055"/>
<text text-anchor="middle" x="280.5" y="-1043" font-family="Helvetica,sans-Serif" font-size="10.00">daObj_SSBase_c</text>
</a>
</g>
</g>
<!-- Node2&#45;&gt;Node22 -->
<g id="edge18" class="edge">
<title>Node2&#45;&gt;Node22</title>
<path fill="none" stroke="#63b8ff" d="M156.99,-899.22C164.25,-931.32 182.65,-992.97 222,-1027.5 225.7,-1030.74 229.97,-1033.4 234.49,-1035.58"/>
<polygon fill="#63b8ff" stroke="#63b8ff" points="160.46,-898.68 154.98,-889.61 153.6,-900.11 160.46,-898.68"/>
</g>
<!-- Node23 -->
<g id="node20" class="node">
<title>Node23</title>
<g id="a_node20"><a xlink:href="structdaPy__py__c.html" target="_top" xlink:title=" ">
<polygon fill="#fff0f0" stroke="red" points="312.5,-1018 248.5,-1018 248.5,-999 312.5,-999 312.5,-1018"/>
<text text-anchor="middle" x="280.5" y="-1006" font-family="Helvetica,sans-Serif" font-size="10.00">daPy_py_c</text>
</a>
</g>
</g>
<!-- Node2&#45;&gt;Node23 -->
<g id="edge19" class="edge">
<title>Node2&#45;&gt;Node23</title>
<path fill="none" stroke="#63b8ff" d="M160.28,-898.69C170.35,-923.79 190.87,-966.29 222,-990.5 229.6,-996.41 239.16,-1000.39 248.29,-1003.08"/>
<polygon fill="#63b8ff" stroke="#63b8ff" points="163.66,-897.72 156.82,-889.62 157.12,-900.21 163.66,-897.72"/>
</g>
<!-- Node25 -->
<g id="node21" class="node">
<title>Node25</title>
<g id="a_node21"><a xlink:href="classdaScex__c.html" target="_top" xlink:title=" ">
<polygon fill="white" stroke="#666666" points="310,-981 251,-981 251,-962 310,-962 310,-981"/>
<text text-anchor="middle" x="280.5" y="-969" font-family="Helvetica,sans-Serif" font-size="10.00">daScex_c</text>
</a>
</g>
</g>
<!-- Node2&#45;&gt;Node25 -->
<g id="edge20" class="edge">
<title>Node2&#45;&gt;Node25</title>
<path fill="none" stroke="#63b8ff" d="M165.81,-897.29C178.3,-914.26 198.77,-938.77 222,-953.5 230.66,-958.99 241.11,-962.92 250.72,-965.67"/>
<polygon fill="#63b8ff" stroke="#63b8ff" points="168.95,-895.66 160.3,-889.54 163.24,-899.71 168.95,-895.66"/>
</g>
<!-- Node26 -->
<g id="node22" class="node">
<title>Node26</title>
<g id="a_node22"><a xlink:href="classdaSkip2D__c.html" target="_top" xlink:title=" ">
<polygon fill="white" stroke="#666666" points="315,-944 246,-944 246,-925 315,-925 315,-944"/>
<text text-anchor="middle" x="280.5" y="-932" font-family="Helvetica,sans-Serif" font-size="10.00">daSkip2D_c</text>
</a>
</g>
</g>
<!-- Node2&#45;&gt;Node26 -->
<g id="edge21" class="edge">
<title>Node2&#45;&gt;Node26</title>
<path fill="none" stroke="#63b8ff" d="M178.61,-894.21C191.35,-901.6 207.16,-910.17 222,-916.5 229.5,-919.7 237.77,-922.62 245.65,-925.14"/>
<polygon fill="#63b8ff" stroke="#63b8ff" points="180.4,-891.2 170.02,-889.11 176.84,-897.22 180.4,-891.2"/>
</g>
<!-- Node27 -->
<g id="node23" class="node">
<title>Node27</title>
<g id="a_node23"><a xlink:href="classdaSpinner__c.html" target="_top" xlink:title=" ">
<polygon fill="white" stroke="#666666" points="316,-907 245,-907 245,-888 316,-888 316,-907"/>
<text text-anchor="middle" x="280.5" y="-895" font-family="Helvetica,sans-Serif" font-size="10.00">daSpinner_c</text>
</a>
</g>
</g>
<!-- Node2&#45;&gt;Node27 -->
<g id="edge22" class="edge">
<title>Node2&#45;&gt;Node27</title>
<path fill="none" stroke="#63b8ff" d="M197.21,-885.14C212.78,-887.48 230.04,-890.07 244.72,-892.28"/>
<polygon fill="#63b8ff" stroke="#63b8ff" points="198.14,-881.74 187.73,-883.72 197.1,-888.66 198.14,-881.74"/>
</g>
<!-- Node28 -->
<g id="node24" class="node">
<title>Node28</title>
<g id="a_node24"><a xlink:href="classdaTagEscape__c.html" target="_top" xlink:title=" ">
<polygon fill="white" stroke="#666666" points="323.5,-870 237.5,-870 237.5,-851 323.5,-851 323.5,-870"/>
<text text-anchor="middle" x="280.5" y="-858" font-family="Helvetica,sans-Serif" font-size="10.00">daTagEscape_c</text>
</a>
</g>
</g>
<!-- Node2&#45;&gt;Node28 -->
<g id="edge23" class="edge">
<title>Node2&#45;&gt;Node28</title>
<path fill="none" stroke="#63b8ff" d="M197.31,-872.19C210.34,-870.34 224.54,-868.32 237.42,-866.49"/>
<polygon fill="#63b8ff" stroke="#63b8ff" points="197.14,-868.68 187.73,-873.56 198.13,-875.61 197.14,-868.68"/>
</g>
<!-- Node29 -->
<g id="node25" class="node">
<title>Node29</title>
<g id="a_node25"><a xlink:href="classdaTagGstart__c.html" target="_top" xlink:title=" ">
<polygon fill="white" stroke="#666666" points="321,-833 240,-833 240,-814 321,-814 321,-833"/>
<text text-anchor="middle" x="280.5" y="-821" font-family="Helvetica,sans-Serif" font-size="10.00">daTagGstart_c</text>
</a>
</g>
</g>
<!-- Node2&#45;&gt;Node29 -->
<g id="edge24" class="edge">
<title>Node2&#45;&gt;Node29</title>
<path fill="none" stroke="#63b8ff" d="M180.02,-863.11C192.56,-856.3 207.81,-848.5 222,-842.5 229.75,-839.22 238.27,-836.14 246.32,-833.45"/>
<polygon fill="#63b8ff" stroke="#63b8ff" points="178.59,-859.9 171.53,-867.8 181.98,-866.02 178.59,-859.9"/>
</g>
<!-- Node30 -->
<g id="node26" class="node">
<title>Node30</title>
<g id="a_node26"><a xlink:href="classdaTagHinit__c.html" target="_top" xlink:title=" ">
<polygon fill="white" stroke="#666666" points="317.5,-796 243.5,-796 243.5,-777 317.5,-777 317.5,-796"/>
<text text-anchor="middle" x="280.5" y="-784" font-family="Helvetica,sans-Serif" font-size="10.00">daTagHinit_c</text>
</a>
</g>
</g>
<!-- Node2&#45;&gt;Node30 -->
<g id="edge25" class="edge">
<title>Node2&#45;&gt;Node30</title>
<path fill="none" stroke="#63b8ff" d="M166.74,-859.31C179.4,-842.91 199.58,-819.76 222,-805.5 228.48,-801.38 235.94,-798.07 243.29,-795.43"/>
<polygon fill="#63b8ff" stroke="#63b8ff" points="163.96,-857.19 160.78,-867.3 169.57,-861.37 163.96,-857.19"/>
</g>
<!-- Node31 -->
<g id="node27" class="node">
<title>Node31</title>
<g id="a_node27"><a xlink:href="classdaTagHstop__c.html" target="_top" xlink:title=" ">
<polygon fill="white" stroke="#666666" points="320.5,-759 240.5,-759 240.5,-740 320.5,-740 320.5,-759"/>
<text text-anchor="middle" x="280.5" y="-747" font-family="Helvetica,sans-Serif" font-size="10.00">daTagHstop_c</text>
</a>
</g>
</g>
<!-- Node2&#45;&gt;Node31 -->
<g id="edge26" class="edge">
<title>Node2&#45;&gt;Node31</title>
<path fill="none" stroke="#63b8ff" d="M158.58,-857.64C168.03,-830.64 189.38,-785.07 222,-759.5 227.38,-755.28 233.73,-751.98 240.22,-749.55"/>
<polygon fill="#63b8ff" stroke="#63b8ff" points="155.25,-856.56 155.54,-867.15 161.92,-858.69 155.25,-856.56"/>
</g>
<!-- Node2&#45;&gt;Node31 -->
<g id="edge27" class="edge">
<title>Node2&#45;&gt;Node31</title>
<path fill="none" stroke="#63b8ff" d="M163.57,-858.4C174.62,-835.55 194.23,-799.27 222,-777.5 233.75,-768.29 250.16,-763.45 262.44,-759.43"/>
<polygon fill="#63b8ff" stroke="#63b8ff" points="160.46,-856.78 159.36,-867.32 166.79,-859.77 160.46,-856.78"/>
</g>
<!-- Node32 -->
<g id="node28" class="node">
<title>Node32</title>
<g id="a_node28"><a xlink:href="classdaTagInst__c.html" target="_top" xlink:title=" ">
<polygon fill="white" stroke="#666666" points="316,-722 245,-722 245,-703 316,-703 316,-722"/>
<text text-anchor="middle" x="280.5" y="-710" font-family="Helvetica,sans-Serif" font-size="10.00">daTagInst_c</text>
</a>
</g>
</g>
<!-- Node2&#45;&gt;Node32 -->
<g id="edge28" class="edge">
<title>Node2&#45;&gt;Node32</title>
<path fill="none" stroke="#63b8ff" d="M157.25,-857.67C164.78,-825.97 183.46,-765.69 222,-731.5 228.37,-725.85 236.47,-721.87 244.56,-719.08"/>
<polygon fill="#63b8ff" stroke="#63b8ff" points="153.89,-856.66 155.14,-867.18 160.72,-858.18 153.89,-856.66"/>
</g>
<!-- Node33 -->
<g id="node29" class="node">
<title>Node33</title>
<g id="a_node29"><a xlink:href="classdaTagMagne__c.html" target="_top" xlink:title=" ">
<polygon fill="white" stroke="#666666" points="322,-685 239,-685 239,-666 322,-666 322,-685"/>
<text text-anchor="middle" x="280.5" y="-673" font-family="Helvetica,sans-Serif" font-size="10.00">daTagMagne_c</text>
</a>
</g>
</g>
<!-- Node2&#45;&gt;Node33 -->
<g id="edge29" class="edge">
<title>Node2&#45;&gt;Node33</title>
<path fill="none" stroke="#63b8ff" d="M155.04,-857.35C159.82,-819.41 175.15,-739.53 222,-694.5 226.7,-689.98 232.5,-686.54 238.58,-683.91"/>
<polygon fill="#63b8ff" stroke="#63b8ff" points="151.59,-856.67 153.96,-867 158.55,-857.45 151.59,-856.67"/>
</g>
<!-- Node34 -->
<g id="node30" class="node">
<title>Node34</title>
<g id="a_node30"><a xlink:href="structdaTagMhint__c.html" target="_top" xlink:title=" ">
<polygon fill="white" stroke="#666666" points="319.5,-648 241.5,-648 241.5,-629 319.5,-629 319.5,-648"/>
<text text-anchor="middle" x="280.5" y="-636" font-family="Helvetica,sans-Serif" font-size="10.00">daTagMhint_c</text>
</a>
</g>
</g>
<!-- Node2&#45;&gt;Node34 -->
<g id="edge30" class="edge">
<title>Node2&#45;&gt;Node34</title>
<path fill="none" stroke="#63b8ff" d="M153.48,-857.14C155.64,-813.55 166.71,-713.71 222,-657.5 227.23,-652.18 233.99,-648.35 241.02,-645.59"/>
<polygon fill="#63b8ff" stroke="#63b8ff" points="149.99,-856.9 153.12,-867.02 156.99,-857.15 149.99,-856.9"/>
</g>
<!-- Node35 -->
<g id="node31" class="node">
<title>Node35</title>
<g id="a_node31"><a xlink:href="classdaTagMmsg__c.html" target="_top" xlink:title=" ">
<polygon fill="white" stroke="#666666" points="321,-611 240,-611 240,-592 321,-592 321,-611"/>
<text text-anchor="middle" x="280.5" y="-599" font-family="Helvetica,sans-Serif" font-size="10.00">daTagMmsg_c</text>
</a>
</g>
</g>
<!-- Node2&#45;&gt;Node35 -->
<g id="edge31" class="edge">
<title>Node2&#45;&gt;Node35</title>
<path fill="none" stroke="#63b8ff" d="M152.33,-857.3C151.98,-808.71 158.02,-688.29 222,-620.5 226.83,-615.38 233.08,-611.63 239.66,-608.9"/>
<polygon fill="#63b8ff" stroke="#63b8ff" points="148.82,-857.07 152.51,-867 155.82,-856.94 148.82,-857.07"/>
</g>
<!-- Node36 -->
<g id="node32" class="node">
<title>Node36</title>
<g id="a_node32"><a xlink:href="structdaTagMstop__c.html" target="_top" xlink:title=" ">
<polygon fill="white" stroke="#666666" points="321,-574 240,-574 240,-555 321,-555 321,-574"/>
<text text-anchor="middle" x="280.5" y="-562" font-family="Helvetica,sans-Serif" font-size="10.00">daTagMstop_c</text>
</a>
</g>
</g>
<!-- Node2&#45;&gt;Node36 -->
<g id="edge32" class="edge">
<title>Node2&#45;&gt;Node36</title>
<path fill="none" stroke="#63b8ff" d="M155.26,-857.37C162.16,-796.8 184.72,-624.27 222,-583.5 226.75,-578.3 232.96,-574.52 239.53,-571.78"/>
<polygon fill="#63b8ff" stroke="#63b8ff" points="151.79,-856.97 154.17,-867.29 158.75,-857.74 151.79,-856.97"/>
</g>
<!-- Node37 -->
<g id="node33" class="node">
<title>Node37</title>
<g id="a_node33"><a xlink:href="classdaTagRestart__c.html" target="_top" xlink:title=" ">
<polygon fill="white" stroke="#666666" points="323.5,-537 237.5,-537 237.5,-518 323.5,-518 323.5,-537"/>
<text text-anchor="middle" x="280.5" y="-525" font-family="Helvetica,sans-Serif" font-size="10.00">daTagRestart_c</text>
</a>
</g>
</g>
<!-- Node2&#45;&gt;Node37 -->
<g id="edge33" class="edge">
<title>Node2&#45;&gt;Node37</title>
<path fill="none" stroke="#63b8ff" d="M154.67,-857.33C160.25,-791.7 180.31,-593.25 222,-546.5 226.13,-541.87 231.41,-538.37 237.09,-535.71"/>
<polygon fill="#63b8ff" stroke="#63b8ff" points="151.2,-856.84 153.87,-867.1 158.17,-857.42 151.2,-856.84"/>
</g>
<!-- Node38 -->
<g id="node34" class="node">
<title>Node38</title>
<g id="a_node34"><a xlink:href="classdaTagSetBall__c.html" target="_top" xlink:title=" ">
<polygon fill="white" stroke="#666666" points="323.5,-500 237.5,-500 237.5,-481 323.5,-481 323.5,-500"/>
<text text-anchor="middle" x="280.5" y="-488" font-family="Helvetica,sans-Serif" font-size="10.00">daTagSetBall_c</text>
</a>
</g>
</g>
<!-- Node2&#45;&gt;Node38 -->
<g id="edge34" class="edge">
<title>Node2&#45;&gt;Node38</title>
<path fill="none" stroke="#63b8ff" d="M154.19,-857.31C158.55,-786.9 175.87,-562.28 222,-509.5 226.08,-504.83 231.34,-501.3 237.01,-498.64"/>
<polygon fill="#63b8ff" stroke="#63b8ff" points="150.71,-856.88 153.61,-867.07 157.69,-857.29 150.71,-856.88"/>
</g>
<!-- Node39 -->
<g id="node35" class="node">
<title>Node39</title>
<g id="a_node35"><a xlink:href="classdaTagWrHowl__c.html" target="_top" xlink:title=" ">
<polygon fill="white" stroke="#666666" points="325,-463 236,-463 236,-444 325,-444 325,-463"/>
<text text-anchor="middle" x="280.5" y="-451" font-family="Helvetica,sans-Serif" font-size="10.00">daTagWrHowl_c</text>
</a>
</g>
</g>
<!-- Node2&#45;&gt;Node39 -->
<g id="edge35" class="edge">
<title>Node2&#45;&gt;Node39</title>
<path fill="none" stroke="#63b8ff" d="M153.78,-857.63C156.96,-783.12 171.34,-531.44 222,-472.5 225.7,-468.19 230.4,-464.86 235.51,-462.28"/>
<polygon fill="#63b8ff" stroke="#63b8ff" points="150.3,-857.07 153.39,-867.2 157.29,-857.35 150.3,-857.07"/>
</g>
<!-- Node40 -->
<g id="node36" class="node">
<title>Node40</title>
<g id="a_node36"><a xlink:href="classdaTag__Lv5Soup__c.html" target="_top" xlink:title=" ">
<polygon fill="white" stroke="#666666" points="329.5,-426 231.5,-426 231.5,-407 329.5,-407 329.5,-426"/>
<text text-anchor="middle" x="280.5" y="-414" font-family="Helvetica,sans-Serif" font-size="10.00">daTag_Lv5Soup_c</text>
</a>
</g>
</g>
<!-- Node2&#45;&gt;Node40 -->
<g id="edge36" class="edge">
<title>Node2&#45;&gt;Node40</title>
<path fill="none" stroke="#63b8ff" d="M153.46,-857.29C155.59,-778.03 166.94,-500.47 222,-435.5 225.13,-431.81 228.99,-428.83 233.21,-426.43"/>
<polygon fill="#63b8ff" stroke="#63b8ff" points="149.96,-857.02 153.22,-867.1 156.96,-857.19 149.96,-857.02"/>
</g>
<!-- Node41 -->
<g id="node37" class="node">
<title>Node41</title>
<g id="a_node37"><a xlink:href="classdaTag__Telop__c.html" target="_top" xlink:title=" ">
<polygon fill="white" stroke="#666666" points="322,-389 239,-389 239,-370 322,-370 322,-389"/>
<text text-anchor="middle" x="280.5" y="-377" font-family="Helvetica,sans-Serif" font-size="10.00">daTag_Telop_c</text>
</a>
</g>
</g>
<!-- Node2&#45;&gt;Node41 -->
<g id="edge37" class="edge">
<title>Node2&#45;&gt;Node41</title>
<path fill="none" stroke="#63b8ff" d="M153.18,-857.15C154.3,-773.56 162.48,-469.57 222,-398.5 226.39,-393.26 232.25,-389.46 238.57,-386.7"/>
<polygon fill="#63b8ff" stroke="#63b8ff" points="149.68,-857.06 153.07,-867.1 156.68,-857.13 149.68,-857.06"/>
</g>
<!-- Node42 -->
<g id="node38" class="node">
<title>Node42</title>
<g id="a_node38"><a xlink:href="classdaTboxSw__c.html" target="_top" xlink:title=" ">
<polygon fill="white" stroke="#666666" points="317,-352 244,-352 244,-333 317,-333 317,-352"/>
<text text-anchor="middle" x="280.5" y="-340" font-family="Helvetica,sans-Serif" font-size="10.00">daTboxSw_c</text>
</a>
</g>
</g>
<!-- Node2&#45;&gt;Node42 -->
<g id="edge38" class="edge">
<title>Node2&#45;&gt;Node42</title>
<path fill="none" stroke="#63b8ff" d="M152.93,-857.21C153.09,-769.72 157.96,-438.75 222,-361.5 227.5,-354.86 235.38,-350.53 243.54,-347.7"/>
<polygon fill="#63b8ff" stroke="#63b8ff" points="149.43,-857.19 152.94,-867.18 156.43,-857.18 149.43,-857.19"/>
</g>
<!-- Node43 -->
<g id="node39" class="node">
<title>Node43</title>
<g id="a_node39"><a xlink:href="classdmg__rod__class.html" target="_top" xlink:title=" ">
<polygon fill="white" stroke="#666666" points="322,-315 239,-315 239,-296 322,-296 322,-315"/>
<text text-anchor="middle" x="280.5" y="-303" font-family="Helvetica,sans-Serif" font-size="10.00">dmg_rod_class</text>
</a>
</g>
</g>
<!-- Node2&#45;&gt;Node43 -->
<g id="edge39" class="edge">
<title>Node2&#45;&gt;Node43</title>
<path fill="none" stroke="#63b8ff" d="M152.72,-857.46C151.95,-766.51 153.38,-408.01 222,-324.5 226.41,-319.14 232.36,-315.28 238.77,-312.5"/>
<polygon fill="#63b8ff" stroke="#63b8ff" points="149.22,-857.39 152.83,-867.36 156.22,-857.32 149.22,-857.39"/>
</g>
<!-- Node44 -->
<g id="node40" class="node">
<title>Node44</title>
<g id="a_node40"><a xlink:href="classfopEn__enemy__c.html" target="_top" xlink:title=" ">
<polygon fill="#fff0f0" stroke="red" points="323.5,-278 237.5,-278 237.5,-259 323.5,-259 323.5,-278"/>
<text text-anchor="middle" x="280.5" y="-266" font-family="Helvetica,sans-Serif" font-size="10.00">fopEn_enemy_c</text>
</a>
</g>
</g>
<!-- Node2&#45;&gt;Node44 -->
<g id="edge40" class="edge">
<title>Node2&#45;&gt;Node44</title>
<path fill="none" stroke="#63b8ff" d="M152.54,-857.27C150.9,-762.29 148.91,-377.16 222,-287.5 225.99,-282.61 231.26,-278.97 237,-276.26"/>
<polygon fill="#63b8ff" stroke="#63b8ff" points="149.04,-857.24 152.73,-867.17 156.03,-857.1 149.04,-857.24"/>
</g>
<!-- Node46 -->
<g id="node41" class="node">
<title>Node46</title>
<g id="a_node41"><a xlink:href="classkytag05__class.html" target="_top" xlink:title=" ">
<polygon fill="white" stroke="#666666" points="320,-241 241,-241 241,-222 320,-222 320,-241"/>
<text text-anchor="middle" x="280.5" y="-229" font-family="Helvetica,sans-Serif" font-size="10.00">kytag05_class</text>
</a>
</g>
</g>
<!-- Node2&#45;&gt;Node46 -->
<g id="edge41" class="edge">
<title>Node2&#45;&gt;Node46</title>
<path fill="none" stroke="#63b8ff" d="M153.99,-857.08C159.02,-752.51 182.95,-298.73 222,-250.5 226.83,-244.53 233.58,-240.43 240.76,-237.6"/>
<polygon fill="#63b8ff" stroke="#63b8ff" points="150.5,-856.85 153.52,-867.01 157.49,-857.19 150.5,-856.85"/>
</g>
<!-- Node47 -->
<g id="node42" class="node">
<title>Node47</title>
<g id="a_node42"><a xlink:href="classkytag14__class.html" target="_top" xlink:title=" ">
<polygon fill="white" stroke="#666666" points="320,-204 241,-204 241,-185 320,-185 320,-204"/>
<text text-anchor="middle" x="280.5" y="-192" font-family="Helvetica,sans-Serif" font-size="10.00">kytag14_class</text>
</a>
</g>
</g>
<!-- Node2&#45;&gt;Node47 -->
<g id="edge42" class="edge">
<title>Node2&#45;&gt;Node47</title>
<path fill="none" stroke="#63b8ff" d="M153.84,-857.54C158.29,-750.17 180.62,-264.94 222,-213.5 226.81,-207.52 233.55,-203.41 240.74,-200.58"/>
<polygon fill="#63b8ff" stroke="#63b8ff" points="150.34,-857.29 153.43,-867.43 157.34,-857.58 150.34,-857.29"/>
</g>
<!-- Node49 -->
<g id="node44" class="node">
<title>Node49</title>
<g id="a_node44"><a xlink:href="structdGameover__c.html" target="_top" xlink:title=" ">
<polygon fill="white" stroke="#666666" points="319,-167 242,-167 242,-148 319,-148 319,-167"/>
<text text-anchor="middle" x="280.5" y="-155" font-family="Helvetica,sans-Serif" font-size="10.00">dGameover_c</text>
</a>
</g>
</g>
<!-- Node48&#45;&gt;Node49 -->
<g id="edge44" class="edge">
<title>Node48&#45;&gt;Node49</title>
<path fill="none" stroke="#63b8ff" d="M179.16,-118.04C191.82,-125.17 207.41,-133.37 222,-139.5 229.04,-142.46 236.74,-145.19 244.15,-147.59"/>
<polygon fill="#63b8ff" stroke="#63b8ff" points="181.03,-115.07 170.61,-113.13 177.54,-121.14 181.03,-115.07"/>
</g>
<!-- Node50 -->
<g id="node45" class="node">
<title>Node50</title>
<g id="a_node45"><a xlink:href="classdMeter2__c.html" target="_top" xlink:title=" ">
<polygon fill="white" stroke="#666666" points="311.5,-130 249.5,-130 249.5,-111 311.5,-111 311.5,-130"/>
<text text-anchor="middle" x="280.5" y="-118" font-family="Helvetica,sans-Serif" font-size="10.00">dMeter2_c</text>
</a>
</g>
</g>
<!-- Node48&#45;&gt;Node50 -->
<g id="edge45" class="edge">
<title>Node48&#45;&gt;Node50</title>
<path fill="none" stroke="#63b8ff" d="M195.65,-108.57C213.16,-111.06 233.02,-113.89 249.03,-116.16"/>
<polygon fill="#63b8ff" stroke="#63b8ff" points="196.16,-105.11 185.77,-107.16 195.18,-112.04 196.16,-105.11"/>
</g>
<!-- Node51 -->
<g id="node46" class="node">
<title>Node51</title>
<g id="a_node46"><a xlink:href="structdMsgObject__c.html" target="_top" xlink:title=" ">
<polygon fill="white" stroke="#666666" points="320.5,-93 240.5,-93 240.5,-74 320.5,-74 320.5,-93"/>
<text text-anchor="middle" x="280.5" y="-81" font-family="Helvetica,sans-Serif" font-size="10.00">dMsgObject_c</text>
</a>
</g>
</g>
<!-- Node48&#45;&gt;Node51 -->
<g id="edge46" class="edge">
<title>Node48&#45;&gt;Node51</title>
<path fill="none" stroke="#63b8ff" d="M195.5,-96.12C210.03,-93.93 226.2,-91.51 240.44,-89.37"/>
<polygon fill="#63b8ff" stroke="#63b8ff" points="195.14,-92.63 185.77,-97.58 196.18,-99.55 195.14,-92.63"/>
</g>
<!-- Node52 -->
<g id="node47" class="node">
<title>Node52</title>
<g id="a_node47"><a xlink:href="structdMw__c.html" target="_top" xlink:title=" ">
<polygon fill="white" stroke="#666666" points="304.5,-56 256.5,-56 256.5,-37 304.5,-37 304.5,-56"/>
<text text-anchor="middle" x="280.5" y="-44" font-family="Helvetica,sans-Serif" font-size="10.00">dMw_c</text>
</a>
</g>
</g>
<!-- Node48&#45;&gt;Node52 -->
<g id="edge47" class="edge">
<title>Node48&#45;&gt;Node52</title>
<path fill="none" stroke="#63b8ff" d="M179.46,-86.92C192.09,-79.85 207.56,-71.7 222,-65.5 233.01,-60.77 245.62,-56.48 256.22,-53.19"/>
<polygon fill="#63b8ff" stroke="#63b8ff" points="177.88,-83.79 170.93,-91.79 181.35,-89.87 177.88,-83.79"/>
</g>
<!-- Node54 -->
<g id="node49" class="node">
<title>Node54</title>
<g id="a_node49"><a xlink:href="classcamera__process__class.html" target="_top" xlink:title=" ">
<polygon fill="#fff0f0" stroke="red" points="339,-19 222,-19 222,0 339,0 339,-19"/>
<text text-anchor="middle" x="280.5" y="-7" font-family="Helvetica,sans-Serif" font-size="10.00">camera_process_class</text>
</a>
</g>
</g>
<!-- Node53&#45;&gt;Node54 -->
<g id="edge49" class="edge">
<title>Node53&#45;&gt;Node54</title>
<path fill="none" stroke="#63b8ff" d="M196.23,-22.01C204.52,-20.76 213.32,-19.44 221.98,-18.14"/>
<polygon fill="#63b8ff" stroke="#63b8ff" points="195.79,-18.53 186.42,-23.48 196.83,-25.46 195.79,-18.53"/>
</g>
</g>
</svg>
        <g id="navigator" transform="translate(0 0)" fill="#404254">
                <rect fill="#f2f5e9" fill-opacity="0.5" stroke="#606060" stroke-width=".5" x="0" y="0" width="60" height="60"/>
                <use id="zoomplus" xlink:href="#zoomPlus" x="17" y="9" onmousedown="handleZoom(evt,'in')"/>
                <use id="zoomminus" xlink:href="#zoomMin" x="42" y="9" onmousedown="handleZoom(evt,'out')"/>
                <use id="reset" xlink:href="#resetDef" x="30" y="36" onmousedown="handleReset()"/>
                <g id="arrowUp" xlink:href="#dirArrow" transform="translate(30 24)" onmousedown="handlePan(0,-1)">
                  <use xlink:href="#rim" fill="#404040">
                        <set attributeName="fill" to="#808080" begin="arrowUp.mouseover" end="arrowUp.mouseout"/>
                  </use>
                  <path fill="none" stroke="white" stroke-width="1.5" d="M0,-3.0v7 M-2.5,-0.5L0,-3.0L2.5,-0.5"/>
                </g>
                <g id="arrowRight" xlink:href="#dirArrow" transform="rotate(90) translate(36 -43)" onmousedown="handlePan(1,0)">
                  <use xlink:href="#rim" fill="#404040">
                        <set attributeName="fill" to="#808080" begin="arrowRight.mouseover" end="arrowRight.mouseout"/>
                  </use>
                  <path fill="none" stroke="white" stroke-width="1.5" d="M0,-3.0v7 M-2.5,-0.5L0,-3.0L2.5,-0.5"/>
                </g>
                <g id="arrowDown" xlink:href="#dirArrow" transform="rotate(180) translate(-30 -48)" onmousedown="handlePan(0,1)">
                  <use xlink:href="#rim" fill="#404040">
                        <set attributeName="fill" to="#808080" begin="arrowDown.mouseover" end="arrowDown.mouseout"/>
                  </use>
                  <path fill="none" stroke="white" stroke-width="1.5" d="M0,-3.0v7 M-2.5,-0.5L0,-3.0L2.5,-0.5"/>
                </g>
                <g id="arrowLeft" xlink:href="#dirArrow" transform="rotate(270) translate(-36 17)" onmousedown="handlePan(-1,0)">
                  <use xlink:href="#rim" fill="#404040">
                        <set attributeName="fill" to="#808080" begin="arrowLeft.mouseover" end="arrowLeft.mouseout"/>
                  </use>
                  <path fill="none" stroke="white" stroke-width="1.5" d="M0,-3.0v7 M-2.5,-0.5L0,-3.0L2.5,-0.5"/>
                </g>
        </g>
        <svg viewBox="0 0 15 15" width="100%" height="30px" preserveAspectRatio="xMaxYMin meet">
         <g id="arrow_out" transform="scale(0.3 0.3)">
          <a xlink:href="structleafdraw__class__inherit__graph_org.svg" target="_base">
           <rect id="button" ry="5" rx="5" y="6" x="6" height="38" width="38"
                fill="#f2f5e9" fill-opacity="0.5" stroke="#606060" stroke-width="1.0"/>
           <path id="arrow"
             d="M 11.500037,31.436501 C 11.940474,20.09759 22.043105,11.32322 32.158766,21.979434 L 37.068811,17.246167 C 37.068811,17.246167 37.088388,32 37.088388,32 L 22.160133,31.978069 C 22.160133,31.978069 26.997745,27.140456 26.997745,27.140456 C 18.528582,18.264221 13.291696,25.230495 11.500037,31.436501 z"
             style="fill:#404040;"/>
          </a>
         </g>
        </svg>
</svg>
