<?xml version="1.0" encoding="UTF-8" standalone="no"?>
<!DOCTYPE svg PUBLIC "-//W3C//DTD SVG 1.1//EN"
 "http://www.w3.org/Graphics/SVG/1.1/DTD/svg11.dtd">
<!-- Generated by graphviz version 7.0.4 (20221203.1631)
 -->
<!-- Title: fopAc_ac_c Pages: 1 -->
<svg width="459pt" height="1470pt"
 viewBox="0.00 0.00 459.00 1470.00" xmlns="http://www.w3.org/2000/svg" xmlns:xlink="http://www.w3.org/1999/xlink">
<g id="graph0" class="graph" transform="scale(1 1) rotate(0) translate(4 1466)">
<title>fopAc_ac_c</title>
<!-- Node1 -->
<g id="node1" class="node">
<title>Node1</title>
<g id="a_node1"><a xlink:title=" ">
<polygon fill="#999999" stroke="#666666" points="186,-722 118,-722 118,-703 186,-703 186,-722"/>
<text text-anchor="middle" x="152" y="-710" font-family="Helvetica,sans-Serif" font-size="10.00">fopAc_ac_c</text>
</a>
</g>
</g>
<!-- Node3 -->
<g id="node3" class="node">
<title>Node3</title>
<g id="a_node3"><a xlink:href="classdBgS__MoveBgActor.html" target="_top" xlink:title=" ">
<polygon fill="white" stroke="#666666" points="327,-1462 222,-1462 222,-1443 327,-1443 327,-1462"/>
<text text-anchor="middle" x="274.5" y="-1450" font-family="Helvetica,sans-Serif" font-size="10.00">dBgS_MoveBgActor</text>
</a>
</g>
</g>
<!-- Node1&#45;&gt;Node3 -->
<g id="edge2" class="edge">
<title>Node1&#45;&gt;Node3</title>
<path fill="none" stroke="#63b8ff" d="M153.68,-733.81C157.5,-847.33 177.63,-1377.9 222,-1434.5 224.57,-1437.78 227.78,-1440.46 231.33,-1442.66"/>
<polygon fill="#63b8ff" stroke="#63b8ff" points="157.18,-733.74 153.36,-723.86 150.19,-733.97 157.18,-733.74"/>
</g>
<!-- Node4 -->
<g id="node4" class="node">
<title>Node4</title>
<g id="a_node4"><a xlink:href="classdaAlldie__c.html" target="_top" xlink:title=" ">
<polygon fill="white" stroke="#666666" points="305.5,-1425 243.5,-1425 243.5,-1406 305.5,-1406 305.5,-1425"/>
<text text-anchor="middle" x="274.5" y="-1413" font-family="Helvetica,sans-Serif" font-size="10.00">daAlldie_c</text>
</a>
</g>
</g>
<!-- Node1&#45;&gt;Node4 -->
<g id="edge3" class="edge">
<title>Node1&#45;&gt;Node4</title>
<path fill="none" stroke="#63b8ff" d="M153.8,-733.74C158.09,-843.58 179.88,-1344.05 222,-1397.5 227.22,-1404.12 235.03,-1408.31 243.01,-1410.97"/>
<polygon fill="#63b8ff" stroke="#63b8ff" points="157.3,-733.71 153.42,-723.85 150.3,-733.98 157.3,-733.71"/>
</g>
<!-- Node5 -->
<g id="node5" class="node">
<title>Node5</title>
<g id="a_node5"><a xlink:href="classdaArrow__c.html" target="_top" xlink:title=" ">
<polygon fill="white" stroke="#666666" points="306,-1388 243,-1388 243,-1369 306,-1369 306,-1388"/>
<text text-anchor="middle" x="274.5" y="-1376" font-family="Helvetica,sans-Serif" font-size="10.00">daArrow_c</text>
</a>
</g>
</g>
<!-- Node1&#45;&gt;Node5 -->
<g id="edge4" class="edge">
<title>Node1&#45;&gt;Node5</title>
<path fill="none" stroke="#63b8ff" d="M153.92,-733.58C158.7,-839.47 182.11,-1310.18 222,-1360.5 227.18,-1367.03 234.88,-1371.2 242.76,-1373.86"/>
<polygon fill="#63b8ff" stroke="#63b8ff" points="157.42,-733.64 153.48,-723.81 150.43,-733.95 157.42,-733.64"/>
</g>
<!-- Node6 -->
<g id="node6" class="node">
<title>Node6</title>
<g id="a_node6"><a xlink:href="classdaB__ZANT__c.html" target="_top" xlink:title=" ">
<polygon fill="white" stroke="#666666" points="312.5,-1351 236.5,-1351 236.5,-1332 312.5,-1332 312.5,-1351"/>
<text text-anchor="middle" x="274.5" y="-1339" font-family="Helvetica,sans-Serif" font-size="10.00">daB_ZANT_c</text>
</a>
</g>
</g>
<!-- Node1&#45;&gt;Node6 -->
<g id="edge5" class="edge">
<title>Node1&#45;&gt;Node6</title>
<path fill="none" stroke="#63b8ff" d="M154.06,-733.64C159.39,-835.91 184.37,-1276.34 222,-1323.5 225.72,-1328.16 230.73,-1331.62 236.17,-1334.19"/>
<polygon fill="#63b8ff" stroke="#63b8ff" points="157.56,-733.52 153.56,-723.72 150.57,-733.88 157.56,-733.52"/>
</g>
<!-- Node7 -->
<g id="node7" class="node">
<title>Node7</title>
<g id="a_node7"><a xlink:href="classdaBoomerang__c.html" target="_top" xlink:title=" ">
<polygon fill="white" stroke="#666666" points="318,-1314 231,-1314 231,-1295 318,-1295 318,-1314"/>
<text text-anchor="middle" x="274.5" y="-1302" font-family="Helvetica,sans-Serif" font-size="10.00">daBoomerang_c</text>
</a>
</g>
</g>
<!-- Node1&#45;&gt;Node7 -->
<g id="edge6" class="edge">
<title>Node1&#45;&gt;Node7</title>
<path fill="none" stroke="#63b8ff" d="M152.66,-733.69C151.56,-826.83 151.73,-1199.08 222,-1286.5 224.61,-1289.75 227.85,-1292.41 231.41,-1294.59"/>
<polygon fill="#63b8ff" stroke="#63b8ff" points="156.15,-734.02 152.79,-723.97 149.15,-733.93 156.15,-734.02"/>
</g>
<!-- Node8 -->
<g id="node8" class="node">
<title>Node8</title>
<g id="a_node8"><a xlink:href="classdaCanoe__c.html" target="_top" xlink:title=" ">
<polygon fill="white" stroke="#666666" points="307,-1277 242,-1277 242,-1258 307,-1258 307,-1277"/>
<text text-anchor="middle" x="274.5" y="-1265" font-family="Helvetica,sans-Serif" font-size="10.00">daCanoe_c</text>
</a>
</g>
</g>
<!-- Node1&#45;&gt;Node8 -->
<g id="edge7" class="edge">
<title>Node1&#45;&gt;Node8</title>
<path fill="none" stroke="#63b8ff" d="M152.85,-733.72C152.65,-823.13 156.2,-1168.33 222,-1249.5 226.95,-1255.61 234.1,-1259.65 241.51,-1262.32"/>
<polygon fill="#63b8ff" stroke="#63b8ff" points="156.35,-733.77 152.9,-723.75 149.35,-733.74 156.35,-733.77"/>
</g>
<!-- Node9 -->
<g id="node9" class="node">
<title>Node9</title>
<g id="a_node9"><a xlink:href="classdaCrod__c.html" target="_top" xlink:title=" ">
<polygon fill="white" stroke="#666666" points="303.5,-1240 245.5,-1240 245.5,-1221 303.5,-1221 303.5,-1240"/>
<text text-anchor="middle" x="274.5" y="-1228" font-family="Helvetica,sans-Serif" font-size="10.00">daCrod_c</text>
</a>
</g>
</g>
<!-- Node1&#45;&gt;Node9 -->
<g id="edge8" class="edge">
<title>Node1&#45;&gt;Node9</title>
<path fill="none" stroke="#63b8ff" d="M153.08,-733.87C153.81,-819.61 160.7,-1137.59 222,-1212.5 227.76,-1219.54 236.44,-1223.83 245.04,-1226.44"/>
<polygon fill="#63b8ff" stroke="#63b8ff" points="156.58,-733.86 153.02,-723.89 149.58,-733.91 156.58,-733.86"/>
</g>
<!-- Node10 -->
<g id="node10" class="node">
<title>Node10</title>
<g id="a_node10"><a xlink:href="classdaCstatue__c.html" target="_top" xlink:title=" ">
<polygon fill="white" stroke="#666666" points="310,-1203 239,-1203 239,-1184 310,-1184 310,-1203"/>
<text text-anchor="middle" x="274.5" y="-1191" font-family="Helvetica,sans-Serif" font-size="10.00">daCstatue_c</text>
</a>
</g>
</g>
<!-- Node1&#45;&gt;Node10 -->
<g id="edge9" class="edge">
<title>Node1&#45;&gt;Node10</title>
<path fill="none" stroke="#63b8ff" d="M153.34,-733.84C155.06,-815.47 165.13,-1106.78 222,-1175.5 226.35,-1180.75 232.32,-1184.48 238.67,-1187.11"/>
<polygon fill="#63b8ff" stroke="#63b8ff" points="156.84,-733.87 153.16,-723.93 149.84,-734 156.84,-733.87"/>
</g>
<!-- Node11 -->
<g id="node11" class="node">
<title>Node11</title>
<g id="a_node11"><a xlink:href="structdaHorse__c.html" target="_top" xlink:title=" ">
<polygon fill="white" stroke="#666666" points="306.5,-1166 242.5,-1166 242.5,-1147 306.5,-1147 306.5,-1166"/>
<text text-anchor="middle" x="274.5" y="-1154" font-family="Helvetica,sans-Serif" font-size="10.00">daHorse_c</text>
</a>
</g>
</g>
<!-- Node1&#45;&gt;Node11 -->
<g id="edge10" class="edge">
<title>Node1&#45;&gt;Node11</title>
<path fill="none" stroke="#63b8ff" d="M153.65,-733.85C156.4,-811.26 169.57,-1075.94 222,-1138.5 227.17,-1144.67 234.59,-1148.73 242.18,-1151.39"/>
<polygon fill="#63b8ff" stroke="#63b8ff" points="157.15,-733.76 153.32,-723.88 150.15,-733.99 157.15,-733.76"/>
</g>
<!-- Node12 -->
<g id="node12" class="node">
<title>Node12</title>
<g id="a_node12"><a xlink:href="classdaItemBase__c.html" target="_top" xlink:title=" ">
<polygon fill="white" stroke="#666666" points="314.5,-1129 234.5,-1129 234.5,-1110 314.5,-1110 314.5,-1129"/>
<text text-anchor="middle" x="274.5" y="-1117" font-family="Helvetica,sans-Serif" font-size="10.00">daItemBase_c</text>
</a>
</g>
</g>
<!-- Node1&#45;&gt;Node12 -->
<g id="edge11" class="edge">
<title>Node1&#45;&gt;Node12</title>
<path fill="none" stroke="#63b8ff" d="M153.98,-733.39C157.8,-805.83 173.88,-1044.95 222,-1101.5 225.31,-1105.4 229.52,-1108.45 234.1,-1110.84"/>
<polygon fill="#63b8ff" stroke="#63b8ff" points="157.5,-733.54 153.5,-723.73 150.51,-733.89 157.5,-733.54"/>
</g>
<!-- Node15 -->
<g id="node15" class="node">
<title>Node15</title>
<g id="a_node15"><a xlink:href="classdaMP__c.html" target="_top" xlink:title=" ">
<polygon fill="white" stroke="#666666" points="301,-1092 248,-1092 248,-1073 301,-1073 301,-1092"/>
<text text-anchor="middle" x="274.5" y="-1080" font-family="Helvetica,sans-Serif" font-size="10.00">daMP_c</text>
</a>
</g>
</g>
<!-- Node1&#45;&gt;Node15 -->
<g id="edge14" class="edge">
<title>Node1&#45;&gt;Node15</title>
<path fill="none" stroke="#63b8ff" d="M154.42,-733.56C159.43,-801.62 178.32,-1014.1 222,-1064.5 228.51,-1072.02 238.35,-1076.39 247.68,-1078.94"/>
<polygon fill="#63b8ff" stroke="#63b8ff" points="157.93,-733.52 153.73,-723.8 150.95,-734.02 157.93,-733.52"/>
</g>
<!-- Node16 -->
<g id="node16" class="node">
<title>Node16</title>
<g id="a_node16"><a xlink:href="structdaMidna__c.html" target="_top" xlink:title=" ">
<polygon fill="white" stroke="#666666" points="306.5,-1055 242.5,-1055 242.5,-1036 306.5,-1036 306.5,-1055"/>
<text text-anchor="middle" x="274.5" y="-1043" font-family="Helvetica,sans-Serif" font-size="10.00">daMidna_c</text>
</a>
</g>
</g>
<!-- Node1&#45;&gt;Node16 -->
<g id="edge15" class="edge">
<title>Node1&#45;&gt;Node16</title>
<path fill="none" stroke="#63b8ff" d="M154.94,-733.37C161.17,-796.38 182.66,-983.11 222,-1027.5 227.28,-1033.45 234.64,-1037.44 242.14,-1040.11"/>
<polygon fill="#63b8ff" stroke="#63b8ff" points="158.45,-733.32 154.01,-723.7 151.48,-733.99 158.45,-733.32"/>
</g>
<!-- Node17 -->
<g id="node17" class="node">
<title>Node17</title>
<g id="a_node17"><a xlink:href="classdaNpcF__c.html" target="_top" xlink:title=" ">
<polygon fill="white" stroke="#666666" points="305.5,-1018 243.5,-1018 243.5,-999 305.5,-999 305.5,-1018"/>
<text text-anchor="middle" x="274.5" y="-1006" font-family="Helvetica,sans-Serif" font-size="10.00">daNpcF_c</text>
</a>
</g>
</g>
<!-- Node1&#45;&gt;Node17 -->
<g id="edge16" class="edge">
<title>Node1&#45;&gt;Node17</title>
<path fill="none" stroke="#63b8ff" d="M155.62,-733.52C163.22,-791.54 187.05,-952.14 222,-990.5 227.55,-996.59 235.28,-1000.62 243.06,-1003.29"/>
<polygon fill="#63b8ff" stroke="#63b8ff" points="159.1,-733.19 154.36,-723.72 152.16,-734.08 159.1,-733.19"/>
</g>
<!-- Node18 -->
<g id="node18" class="node">
<title>Node18</title>
<g id="a_node18"><a xlink:href="classdaNpcT__c.html" target="_top" xlink:title=" ">
<polygon fill="white" stroke="#666666" points="305.5,-981 243.5,-981 243.5,-962 305.5,-962 305.5,-981"/>
<text text-anchor="middle" x="274.5" y="-969" font-family="Helvetica,sans-Serif" font-size="10.00">daNpcT_c</text>
</a>
</g>
</g>
<!-- Node1&#45;&gt;Node18 -->
<g id="edge17" class="edge">
<title>Node1&#45;&gt;Node18</title>
<path fill="none" stroke="#63b8ff" d="M152.9,-733.77C153.84,-780.01 162.59,-890.58 222,-953.5 227.66,-959.49 235.42,-963.49 243.2,-966.16"/>
<polygon fill="#63b8ff" stroke="#63b8ff" points="156.4,-733.78 152.82,-723.81 149.4,-733.84 156.4,-733.78"/>
</g>
<!-- Node20 -->
<g id="node20" class="node">
<title>Node20</title>
<g id="a_node20"><a xlink:href="classdaObjCarry__c.html" target="_top" xlink:title=" ">
<polygon fill="white" stroke="#666666" points="312,-944 237,-944 237,-925 312,-925 312,-944"/>
<text text-anchor="middle" x="274.5" y="-932" font-family="Helvetica,sans-Serif" font-size="10.00">daObjCarry_c</text>
</a>
</g>
</g>
<!-- Node1&#45;&gt;Node20 -->
<g id="edge19" class="edge">
<title>Node1&#45;&gt;Node20</title>
<path fill="none" stroke="#63b8ff" d="M154.2,-733.53C157.66,-774.38 170.97,-864.95 222,-916.5 226.13,-920.67 231.28,-923.88 236.72,-926.35"/>
<polygon fill="#63b8ff" stroke="#63b8ff" points="157.7,-733.36 153.5,-723.64 150.72,-733.86 157.7,-733.36"/>
</g>
<!-- Node21 -->
<g id="node21" class="node">
<title>Node21</title>
<g id="a_node21"><a xlink:href="classdaObjYobikusa__c.html" target="_top" xlink:title=" ">
<polygon fill="white" stroke="#666666" points="321,-907 228,-907 228,-888 321,-888 321,-907"/>
<text text-anchor="middle" x="274.5" y="-895" font-family="Helvetica,sans-Serif" font-size="10.00">daObjYobikusa_c</text>
</a>
</g>
</g>
<!-- Node1&#45;&gt;Node21 -->
<g id="edge20" class="edge">
<title>Node1&#45;&gt;Node21</title>
<path fill="none" stroke="#63b8ff" d="M156.04,-733.55C162.2,-768.64 179.38,-839.18 222,-879.5 225.44,-882.75 229.5,-885.42 233.81,-887.61"/>
<polygon fill="#63b8ff" stroke="#63b8ff" points="159.53,-733.17 154.49,-723.85 152.62,-734.28 159.53,-733.17"/>
</g>
<!-- Node22 -->
<g id="node22" class="node">
<title>Node22</title>
<g id="a_node22"><a xlink:href="classdaObj__SSBase__c.html" target="_top" xlink:title=" ">
<polygon fill="white" stroke="#666666" points="321.5,-870 227.5,-870 227.5,-851 321.5,-851 321.5,-870"/>
<text text-anchor="middle" x="274.5" y="-858" font-family="Helvetica,sans-Serif" font-size="10.00">daObj_SSBase_c</text>
</a>
</g>
</g>
<!-- Node1&#45;&gt;Node22 -->
<g id="edge21" class="edge">
<title>Node1&#45;&gt;Node22</title>
<path fill="none" stroke="#63b8ff" d="M158.75,-733.24C167.68,-761.77 187.55,-812.92 222,-842.5 225.74,-845.71 230.08,-848.36 234.63,-850.54"/>
<polygon fill="#63b8ff" stroke="#63b8ff" points="162.11,-732.26 155.92,-723.66 155.39,-734.24 162.11,-732.26"/>
</g>
<!-- Node23 -->
<g id="node23" class="node">
<title>Node23</title>
<g id="a_node23"><a xlink:href="structdaPy__py__c.html" target="_top" xlink:title=" ">
<polygon fill="white" stroke="#666666" points="306.5,-833 242.5,-833 242.5,-814 306.5,-814 306.5,-833"/>
<text text-anchor="middle" x="274.5" y="-821" font-family="Helvetica,sans-Serif" font-size="10.00">daPy_py_c</text>
</a>
</g>
</g>
<!-- Node1&#45;&gt;Node23 -->
<g id="edge22" class="edge">
<title>Node1&#45;&gt;Node23</title>
<path fill="none" stroke="#63b8ff" d="M163.12,-732.48C174.7,-753.45 195.51,-786.01 222,-805.5 227.95,-809.88 235.06,-813.26 242.06,-815.85"/>
<polygon fill="#63b8ff" stroke="#63b8ff" points="166.29,-730.98 158.51,-723.78 160.1,-734.26 166.29,-730.98"/>
</g>
<!-- Node25 -->
<g id="node25" class="node">
<title>Node25</title>
<g id="a_node25"><a xlink:href="classdaScex__c.html" target="_top" xlink:title=" ">
<polygon fill="white" stroke="#666666" points="304,-796 245,-796 245,-777 304,-777 304,-796"/>
<text text-anchor="middle" x="274.5" y="-784" font-family="Helvetica,sans-Serif" font-size="10.00">daScex_c</text>
</a>
</g>
</g>
<!-- Node1&#45;&gt;Node25 -->
<g id="edge24" class="edge">
<title>Node1&#45;&gt;Node25</title>
<path fill="none" stroke="#63b8ff" d="M171.23,-729.72C184.5,-741.56 203.35,-756.99 222,-767.5 229.06,-771.48 237.11,-774.91 244.71,-777.72"/>
<polygon fill="#63b8ff" stroke="#63b8ff" points="173.86,-727.39 164.11,-723.22 169.13,-732.55 173.86,-727.39"/>
</g>
<!-- Node26 -->
<g id="node26" class="node">
<title>Node26</title>
<g id="a_node26"><a xlink:href="classdaSkip2D__c.html" target="_top" xlink:title=" ">
<polygon fill="white" stroke="#666666" points="309,-759 240,-759 240,-740 309,-740 309,-759"/>
<text text-anchor="middle" x="274.5" y="-747" font-family="Helvetica,sans-Serif" font-size="10.00">daSkip2D_c</text>
</a>
</g>
</g>
<!-- Node1&#45;&gt;Node26 -->
<g id="edge25" class="edge">
<title>Node1&#45;&gt;Node26</title>
<path fill="none" stroke="#63b8ff" d="M196.25,-725.78C211.05,-730.32 227.33,-735.32 241.12,-739.56"/>
<polygon fill="#63b8ff" stroke="#63b8ff" points="197.33,-722.45 186.74,-722.86 195.27,-729.14 197.33,-722.45"/>
</g>
<!-- Node27 -->
<g id="node27" class="node">
<title>Node27</title>
<g id="a_node27"><a xlink:href="classdaSpinner__c.html" target="_top" xlink:title=" ">
<polygon fill="white" stroke="#666666" points="310,-722 239,-722 239,-703 310,-703 310,-722"/>
<text text-anchor="middle" x="274.5" y="-710" font-family="Helvetica,sans-Serif" font-size="10.00">daSpinner_c</text>
</a>
</g>
</g>
<!-- Node1&#45;&gt;Node27 -->
<g id="edge26" class="edge">
<title>Node1&#45;&gt;Node27</title>
<path fill="none" stroke="#63b8ff" d="M197.35,-712.5C210.98,-712.5 225.78,-712.5 238.68,-712.5"/>
<polygon fill="#63b8ff" stroke="#63b8ff" points="197.76,-709 187.76,-712.5 197.76,-716 197.76,-709"/>
</g>
<!-- Node28 -->
<g id="node28" class="node">
<title>Node28</title>
<g id="a_node28"><a xlink:href="classdaTagEscape__c.html" target="_top" xlink:title=" ">
<polygon fill="white" stroke="#666666" points="317.5,-685 231.5,-685 231.5,-666 317.5,-666 317.5,-685"/>
<text text-anchor="middle" x="274.5" y="-673" font-family="Helvetica,sans-Serif" font-size="10.00">daTagEscape_c</text>
</a>
</g>
</g>
<!-- Node1&#45;&gt;Node28 -->
<g id="edge27" class="edge">
<title>Node1&#45;&gt;Node28</title>
<path fill="none" stroke="#63b8ff" d="M196.25,-699.22C211.05,-694.68 227.33,-689.68 241.12,-685.44"/>
<polygon fill="#63b8ff" stroke="#63b8ff" points="195.27,-695.86 186.74,-702.14 197.33,-702.55 195.27,-695.86"/>
</g>
<!-- Node29 -->
<g id="node29" class="node">
<title>Node29</title>
<g id="a_node29"><a xlink:href="classdaTagGstart__c.html" target="_top" xlink:title=" ">
<polygon fill="white" stroke="#666666" points="315,-648 234,-648 234,-629 315,-629 315,-648"/>
<text text-anchor="middle" x="274.5" y="-636" font-family="Helvetica,sans-Serif" font-size="10.00">daTagGstart_c</text>
</a>
</g>
</g>
<!-- Node1&#45;&gt;Node29 -->
<g id="edge28" class="edge">
<title>Node1&#45;&gt;Node29</title>
<path fill="none" stroke="#63b8ff" d="M171.12,-694.84C184.34,-682.73 203.17,-667.01 222,-656.5 227.46,-653.45 233.53,-650.78 239.52,-648.49"/>
<polygon fill="#63b8ff" stroke="#63b8ff" points="168.92,-692.11 164.03,-701.51 173.71,-697.21 168.92,-692.11"/>
</g>
<!-- Node30 -->
<g id="node30" class="node">
<title>Node30</title>
<g id="a_node30"><a xlink:href="classdaTagHinit__c.html" target="_top" xlink:title=" ">
<polygon fill="white" stroke="#666666" points="311.5,-611 237.5,-611 237.5,-592 311.5,-592 311.5,-611"/>
<text text-anchor="middle" x="274.5" y="-599" font-family="Helvetica,sans-Serif" font-size="10.00">daTagHinit_c</text>
</a>
</g>
</g>
<!-- Node1&#45;&gt;Node30 -->
<g id="edge29" class="edge">
<title>Node1&#45;&gt;Node30</title>
<path fill="none" stroke="#63b8ff" d="M163.12,-692.52C174.7,-671.55 195.51,-638.99 222,-619.5 226.58,-616.13 231.84,-613.35 237.21,-611.07"/>
<polygon fill="#63b8ff" stroke="#63b8ff" points="160.1,-690.74 158.51,-701.22 166.29,-694.02 160.1,-690.74"/>
</g>
<!-- Node31 -->
<g id="node31" class="node">
<title>Node31</title>
<g id="a_node31"><a xlink:href="classdaTagHstop__c.html" target="_top" xlink:title=" ">
<polygon fill="white" stroke="#666666" points="314.5,-574 234.5,-574 234.5,-555 314.5,-555 314.5,-574"/>
<text text-anchor="middle" x="274.5" y="-562" font-family="Helvetica,sans-Serif" font-size="10.00">daTagHstop_c</text>
</a>
</g>
</g>
<!-- Node1&#45;&gt;Node31 -->
<g id="edge30" class="edge">
<title>Node1&#45;&gt;Node31</title>
<path fill="none" stroke="#63b8ff" d="M157.18,-691.52C165.22,-660.81 185.37,-604.96 222,-573.5 225.59,-570.41 229.75,-567.85 234.11,-565.78"/>
<polygon fill="#63b8ff" stroke="#63b8ff" points="153.79,-690.64 154.89,-701.18 160.6,-692.26 153.79,-690.64"/>
</g>
<!-- Node1&#45;&gt;Node31 -->
<g id="edge31" class="edge">
<title>Node1&#45;&gt;Node31</title>
<path fill="none" stroke="#63b8ff" d="M160.74,-692.15C170.48,-665.32 189.92,-619.05 222,-591.5 232.06,-582.86 246.52,-578.29 257.56,-574.44"/>
<polygon fill="#63b8ff" stroke="#63b8ff" points="157.56,-690.64 157.55,-701.23 164.17,-692.96 157.56,-690.64"/>
</g>
<!-- Node32 -->
<g id="node32" class="node">
<title>Node32</title>
<g id="a_node32"><a xlink:href="classdaTagInst__c.html" target="_top" xlink:title=" ">
<polygon fill="white" stroke="#666666" points="310,-537 239,-537 239,-518 310,-518 310,-537"/>
<text text-anchor="middle" x="274.5" y="-525" font-family="Helvetica,sans-Serif" font-size="10.00">daTagInst_c</text>
</a>
</g>
</g>
<!-- Node1&#45;&gt;Node32 -->
<g id="edge32" class="edge">
<title>Node1&#45;&gt;Node32</title>
<path fill="none" stroke="#63b8ff" d="M156.04,-691.45C162.2,-656.36 179.38,-585.82 222,-545.5 226.68,-541.07 232.51,-537.73 238.54,-535.2"/>
<polygon fill="#63b8ff" stroke="#63b8ff" points="152.62,-690.72 154.49,-701.15 159.53,-691.83 152.62,-690.72"/>
</g>
<!-- Node33 -->
<g id="node33" class="node">
<title>Node33</title>
<g id="a_node33"><a xlink:href="classdaTagMagne__c.html" target="_top" xlink:title=" ">
<polygon fill="white" stroke="#666666" points="316,-500 233,-500 233,-481 316,-481 316,-500"/>
<text text-anchor="middle" x="274.5" y="-488" font-family="Helvetica,sans-Serif" font-size="10.00">daTagMagne_c</text>
</a>
</g>
</g>
<!-- Node1&#45;&gt;Node33 -->
<g id="edge33" class="edge">
<title>Node1&#45;&gt;Node33</title>
<path fill="none" stroke="#63b8ff" d="M154.2,-691.47C157.66,-650.62 170.97,-560.05 222,-508.5 225.2,-505.27 229.01,-502.62 233.09,-500.44"/>
<polygon fill="#63b8ff" stroke="#63b8ff" points="150.72,-691.14 153.5,-701.36 157.7,-691.64 150.72,-691.14"/>
</g>
<!-- Node34 -->
<g id="node34" class="node">
<title>Node34</title>
<g id="a_node34"><a xlink:href="structdaTagMhint__c.html" target="_top" xlink:title=" ">
<polygon fill="white" stroke="#666666" points="313.5,-463 235.5,-463 235.5,-444 313.5,-444 313.5,-463"/>
<text text-anchor="middle" x="274.5" y="-451" font-family="Helvetica,sans-Serif" font-size="10.00">daTagMhint_c</text>
</a>
</g>
</g>
<!-- Node1&#45;&gt;Node34 -->
<g id="edge34" class="edge">
<title>Node1&#45;&gt;Node34</title>
<path fill="none" stroke="#63b8ff" d="M152.9,-691.23C153.84,-644.99 162.59,-534.42 222,-471.5 225.71,-467.57 230.32,-464.5 235.24,-462.1"/>
<polygon fill="#63b8ff" stroke="#63b8ff" points="149.4,-691.16 152.82,-701.19 156.4,-691.22 149.4,-691.16"/>
</g>
<!-- Node35 -->
<g id="node35" class="node">
<title>Node35</title>
<g id="a_node35"><a xlink:href="classdaTagMmsg__c.html" target="_top" xlink:title=" ">
<polygon fill="white" stroke="#666666" points="315,-426 234,-426 234,-407 315,-407 315,-426"/>
<text text-anchor="middle" x="274.5" y="-414" font-family="Helvetica,sans-Serif" font-size="10.00">daTagMmsg_c</text>
</a>
</g>
</g>
<!-- Node1&#45;&gt;Node35 -->
<g id="edge35" class="edge">
<title>Node1&#45;&gt;Node35</title>
<path fill="none" stroke="#63b8ff" d="M155.62,-691.48C163.22,-633.46 187.05,-472.86 222,-434.5 225.25,-430.93 229.25,-428.07 233.58,-425.77"/>
<polygon fill="#63b8ff" stroke="#63b8ff" points="152.16,-690.92 154.36,-701.28 159.1,-691.81 152.16,-690.92"/>
</g>
<!-- Node36 -->
<g id="node36" class="node">
<title>Node36</title>
<g id="a_node36"><a xlink:href="structdaTagMstop__c.html" target="_top" xlink:title=" ">
<polygon fill="white" stroke="#666666" points="315,-389 234,-389 234,-370 315,-370 315,-389"/>
<text text-anchor="middle" x="274.5" y="-377" font-family="Helvetica,sans-Serif" font-size="10.00">daTagMstop_c</text>
</a>
</g>
</g>
<!-- Node1&#45;&gt;Node36 -->
<g id="edge36" class="edge">
<title>Node1&#45;&gt;Node36</title>
<path fill="none" stroke="#63b8ff" d="M154.94,-691.63C161.17,-628.62 182.66,-441.89 222,-397.5 225.27,-393.81 229.33,-390.88 233.73,-388.55"/>
<polygon fill="#63b8ff" stroke="#63b8ff" points="151.48,-691.01 154.01,-701.3 158.45,-691.68 151.48,-691.01"/>
</g>
<!-- Node37 -->
<g id="node37" class="node">
<title>Node37</title>
<g id="a_node37"><a xlink:href="classdaTagRestart__c.html" target="_top" xlink:title=" ">
<polygon fill="white" stroke="#666666" points="317.5,-352 231.5,-352 231.5,-333 317.5,-333 317.5,-352"/>
<text text-anchor="middle" x="274.5" y="-340" font-family="Helvetica,sans-Serif" font-size="10.00">daTagRestart_c</text>
</a>
</g>
</g>
<!-- Node1&#45;&gt;Node37 -->
<g id="edge37" class="edge">
<title>Node1&#45;&gt;Node37</title>
<path fill="none" stroke="#63b8ff" d="M154.42,-691.44C159.43,-623.38 178.32,-410.9 222,-360.5 224.85,-357.21 228.34,-354.52 232.15,-352.32"/>
<polygon fill="#63b8ff" stroke="#63b8ff" points="150.95,-690.98 153.73,-701.2 157.93,-691.48 150.95,-690.98"/>
</g>
<!-- Node38 -->
<g id="node38" class="node">
<title>Node38</title>
<g id="a_node38"><a xlink:href="classdaTagSetBall__c.html" target="_top" xlink:title=" ">
<polygon fill="white" stroke="#666666" points="317.5,-315 231.5,-315 231.5,-296 317.5,-296 317.5,-315"/>
<text text-anchor="middle" x="274.5" y="-303" font-family="Helvetica,sans-Serif" font-size="10.00">daTagSetBall_c</text>
</a>
</g>
</g>
<!-- Node1&#45;&gt;Node38 -->
<g id="edge38" class="edge">
<title>Node1&#45;&gt;Node38</title>
<path fill="none" stroke="#63b8ff" d="M153.98,-691.61C157.8,-619.17 173.88,-380.05 222,-323.5 224.82,-320.18 228.3,-317.48 232.09,-315.27"/>
<polygon fill="#63b8ff" stroke="#63b8ff" points="150.51,-691.11 153.5,-701.27 157.5,-691.46 150.51,-691.11"/>
</g>
<!-- Node39 -->
<g id="node39" class="node">
<title>Node39</title>
<g id="a_node39"><a xlink:href="classdaTagWrHowl__c.html" target="_top" xlink:title=" ">
<polygon fill="white" stroke="#666666" points="319,-278 230,-278 230,-259 319,-259 319,-278"/>
<text text-anchor="middle" x="274.5" y="-266" font-family="Helvetica,sans-Serif" font-size="10.00">daTagWrHowl_c</text>
</a>
</g>
</g>
<!-- Node1&#45;&gt;Node39 -->
<g id="edge39" class="edge">
<title>Node1&#45;&gt;Node39</title>
<path fill="none" stroke="#63b8ff" d="M153.65,-691.15C156.4,-613.74 169.57,-349.06 222,-286.5 224.8,-283.16 228.25,-280.44 232.04,-278.22"/>
<polygon fill="#63b8ff" stroke="#63b8ff" points="150.15,-691.01 153.32,-701.12 157.15,-691.24 150.15,-691.01"/>
</g>
<!-- Node40 -->
<g id="node40" class="node">
<title>Node40</title>
<g id="a_node40"><a xlink:href="classdaTag__Lv5Soup__c.html" target="_top" xlink:title=" ">
<polygon fill="white" stroke="#666666" points="323.5,-241 225.5,-241 225.5,-222 323.5,-222 323.5,-241"/>
<text text-anchor="middle" x="274.5" y="-229" font-family="Helvetica,sans-Serif" font-size="10.00">daTag_Lv5Soup_c</text>
</a>
</g>
</g>
<!-- Node1&#45;&gt;Node40 -->
<g id="edge40" class="edge">
<title>Node1&#45;&gt;Node40</title>
<path fill="none" stroke="#63b8ff" d="M153.34,-691.16C155.06,-609.53 165.13,-318.22 222,-249.5 224.66,-246.29 227.92,-243.65 231.51,-241.48"/>
<polygon fill="#63b8ff" stroke="#63b8ff" points="149.84,-691 153.16,-701.07 156.84,-691.13 149.84,-691"/>
</g>
<!-- Node41 -->
<g id="node41" class="node">
<title>Node41</title>
<g id="a_node41"><a xlink:href="classdaTag__Telop__c.html" target="_top" xlink:title=" ">
<polygon fill="white" stroke="#666666" points="316,-204 233,-204 233,-185 316,-185 316,-204"/>
<text text-anchor="middle" x="274.5" y="-192" font-family="Helvetica,sans-Serif" font-size="10.00">daTag_Telop_c</text>
</a>
</g>
</g>
<!-- Node1&#45;&gt;Node41 -->
<g id="edge41" class="edge">
<title>Node1&#45;&gt;Node41</title>
<path fill="none" stroke="#63b8ff" d="M153.08,-691.13C153.81,-605.39 160.7,-287.41 222,-212.5 224.94,-208.91 228.64,-206.03 232.7,-203.73"/>
<polygon fill="#63b8ff" stroke="#63b8ff" points="149.58,-691.09 153.02,-701.11 156.58,-691.14 149.58,-691.09"/>
</g>
<!-- Node42 -->
<g id="node42" class="node">
<title>Node42</title>
<g id="a_node42"><a xlink:href="classdaTboxSw__c.html" target="_top" xlink:title=" ">
<polygon fill="white" stroke="#666666" points="311,-167 238,-167 238,-148 311,-148 311,-167"/>
<text text-anchor="middle" x="274.5" y="-155" font-family="Helvetica,sans-Serif" font-size="10.00">daTboxSw_c</text>
</a>
</g>
</g>
<!-- Node1&#45;&gt;Node42 -->
<g id="edge42" class="edge">
<title>Node1&#45;&gt;Node42</title>
<path fill="none" stroke="#63b8ff" d="M152.85,-691.28C152.65,-601.87 156.2,-256.67 222,-175.5 226.06,-170.5 231.59,-166.88 237.53,-164.27"/>
<polygon fill="#63b8ff" stroke="#63b8ff" points="149.35,-691.26 152.9,-701.25 156.35,-691.23 149.35,-691.26"/>
</g>
<!-- Node43 -->
<g id="node43" class="node">
<title>Node43</title>
<g id="a_node43"><a xlink:href="classdmg__rod__class.html" target="_top" xlink:title=" ">
<polygon fill="white" stroke="#666666" points="316,-130 233,-130 233,-111 316,-111 316,-130"/>
<text text-anchor="middle" x="274.5" y="-118" font-family="Helvetica,sans-Serif" font-size="10.00">dmg_rod_class</text>
</a>
</g>
</g>
<!-- Node1&#45;&gt;Node43 -->
<g id="edge43" class="edge">
<title>Node1&#45;&gt;Node43</title>
<path fill="none" stroke="#63b8ff" d="M152.66,-691.31C151.56,-598.17 151.73,-225.92 222,-138.5 224.97,-134.81 228.74,-131.87 232.89,-129.54"/>
<polygon fill="#63b8ff" stroke="#63b8ff" points="149.15,-691.07 152.79,-701.03 156.15,-690.98 149.15,-691.07"/>
</g>
<!-- Node44 -->
<g id="node44" class="node">
<title>Node44</title>
<g id="a_node44"><a xlink:href="classfopEn__enemy__c.html" target="_top" xlink:title=" ">
<polygon fill="white" stroke="#666666" points="317.5,-93 231.5,-93 231.5,-74 317.5,-74 317.5,-93"/>
<text text-anchor="middle" x="274.5" y="-81" font-family="Helvetica,sans-Serif" font-size="10.00">fopEn_enemy_c</text>
</a>
</g>
</g>
<!-- Node1&#45;&gt;Node44 -->
<g id="edge44" class="edge">
<title>Node1&#45;&gt;Node44</title>
<path fill="none" stroke="#63b8ff" d="M154.06,-691.36C159.39,-589.09 184.37,-148.66 222,-101.5 224.6,-98.24 227.83,-95.57 231.39,-93.39"/>
<polygon fill="#63b8ff" stroke="#63b8ff" points="150.57,-691.12 153.56,-701.28 157.56,-691.48 150.57,-691.12"/>
</g>
<!-- Node46 -->
<g id="node46" class="node">
<title>Node46</title>
<g id="a_node46"><a xlink:href="classkytag05__class.html" target="_top" xlink:title=" ">
<polygon fill="white" stroke="#666666" points="314,-56 235,-56 235,-37 314,-37 314,-56"/>
<text text-anchor="middle" x="274.5" y="-44" font-family="Helvetica,sans-Serif" font-size="10.00">kytag05_class</text>
</a>
</g>
</g>
<!-- Node1&#45;&gt;Node46 -->
<g id="edge46" class="edge">
<title>Node1&#45;&gt;Node46</title>
<path fill="none" stroke="#63b8ff" d="M153.92,-691.42C158.7,-585.53 182.11,-114.82 222,-64.5 225.35,-60.27 229.77,-57.03 234.6,-54.55"/>
<polygon fill="#63b8ff" stroke="#63b8ff" points="150.43,-691.05 153.48,-701.19 157.42,-691.36 150.43,-691.05"/>
</g>
<!-- Node47 -->
<g id="node47" class="node">
<title>Node47</title>
<g id="a_node47"><a xlink:href="classkytag14__class.html" target="_top" xlink:title=" ">
<polygon fill="white" stroke="#666666" points="314,-19 235,-19 235,0 314,0 314,-19"/>
<text text-anchor="middle" x="274.5" y="-7" font-family="Helvetica,sans-Serif" font-size="10.00">kytag14_class</text>
</a>
</g>
</g>
<!-- Node1&#45;&gt;Node47 -->
<g id="edge47" class="edge">
<title>Node1&#45;&gt;Node47</title>
<path fill="none" stroke="#63b8ff" d="M153.8,-691.26C158.09,-581.42 179.88,-80.95 222,-27.5 225.34,-23.26 229.75,-20.02 234.58,-17.53"/>
<polygon fill="#63b8ff" stroke="#63b8ff" points="150.3,-691.02 153.42,-701.15 157.3,-691.29 150.3,-691.02"/>
</g>
<!-- Node2 -->
<g id="node2" class="node">
<title>Node2</title>
<g id="a_node2"><a xlink:href="structleafdraw__class.html" target="_top" xlink:title=" ">
<polygon fill="white" stroke="#666666" points="82,-722 0,-722 0,-703 82,-703 82,-722"/>
<text text-anchor="middle" x="41" y="-710" font-family="Helvetica,sans-Serif" font-size="10.00">leafdraw_class</text>
</a>
</g>
</g>
<!-- Node2&#45;&gt;Node1 -->
<g id="edge1" class="edge">
<title>Node2&#45;&gt;Node1</title>
<path fill="none" stroke="#63b8ff" d="M93.68,-712.5C101.83,-712.5 110.07,-712.5 117.67,-712.5"/>
<polygon fill="#63b8ff" stroke="#63b8ff" points="93.79,-709 83.79,-712.5 93.79,-716 93.79,-709"/>
</g>
<!-- Node13 -->
<g id="node13" class="node">
<title>Node13</title>
<g id="a_node13"><a xlink:href="classdaItem__c.html" target="_top" xlink:title=" ">
<polygon fill="white" stroke="#666666" points="435.5,-1147 378.5,-1147 378.5,-1128 435.5,-1128 435.5,-1147"/>
<text text-anchor="middle" x="407" y="-1135" font-family="Helvetica,sans-Serif" font-size="10.00">daItem_c</text>
</a>
</g>
</g>
<!-- Node12&#45;&gt;Node13 -->
<g id="edge12" class="edge">
<title>Node12&#45;&gt;Node13</title>
<path fill="none" stroke="#63b8ff" d="M326,-1126.47C343.69,-1128.91 362.9,-1131.56 378.06,-1133.65"/>
<polygon fill="#63b8ff" stroke="#63b8ff" points="326.54,-1123.01 316.15,-1125.11 325.58,-1129.94 326.54,-1123.01"/>
</g>
<!-- Node14 -->
<g id="node14" class="node">
<title>Node14</title>
<g id="a_node14"><a xlink:href="classdaShopItem__c.html" target="_top" xlink:title=" ">
<polygon fill="white" stroke="#666666" points="447,-1110 367,-1110 367,-1091 447,-1091 447,-1110"/>
<text text-anchor="middle" x="407" y="-1098" font-family="Helvetica,sans-Serif" font-size="10.00">daShopItem_c</text>
</a>
</g>
</g>
<!-- Node12&#45;&gt;Node14 -->
<g id="edge13" class="edge">
<title>Node12&#45;&gt;Node14</title>
<path fill="none" stroke="#63b8ff" d="M325.82,-1112.17C339.44,-1110.19 353.97,-1108.07 366.87,-1106.2"/>
<polygon fill="#63b8ff" stroke="#63b8ff" points="325.54,-1108.68 316.15,-1113.58 326.55,-1115.6 325.54,-1108.68"/>
</g>
<!-- Node19 -->
<g id="node19" class="node">
<title>Node19</title>
<g id="a_node19"><a xlink:href="classdShopSystem__c.html" target="_top" xlink:title=" ">
<polygon fill="white" stroke="#666666" points="451,-981 363,-981 363,-962 451,-962 451,-981"/>
<text text-anchor="middle" x="407" y="-969" font-family="Helvetica,sans-Serif" font-size="10.00">dShopSystem_c</text>
</a>
</g>
</g>
<!-- Node18&#45;&gt;Node19 -->
<g id="edge18" class="edge">
<title>Node18&#45;&gt;Node19</title>
<path fill="none" stroke="#63b8ff" d="M316.96,-971.5C331.5,-971.5 347.85,-971.5 362.55,-971.5"/>
<polygon fill="#63b8ff" stroke="#63b8ff" points="317.28,-968 307.28,-971.5 317.28,-975 317.28,-968"/>
</g>
<!-- Node24 -->
<g id="node24" class="node">
<title>Node24</title>
<g id="a_node24"><a xlink:href="structdaAlink__c.html" target="_top" xlink:title=" ">
<polygon fill="white" stroke="#666666" points="436.5,-833 377.5,-833 377.5,-814 436.5,-814 436.5,-833"/>
<text text-anchor="middle" x="407" y="-821" font-family="Helvetica,sans-Serif" font-size="10.00">daAlink_c</text>
</a>
</g>
</g>
<!-- Node23&#45;&gt;Node24 -->
<g id="edge23" class="edge">
<title>Node23&#45;&gt;Node24</title>
<path fill="none" stroke="#63b8ff" d="M318.06,-823.5C337.44,-823.5 359.87,-823.5 377.23,-823.5"/>
<polygon fill="#63b8ff" stroke="#63b8ff" points="318.27,-820 308.27,-823.5 318.27,-827 318.27,-820"/>
</g>
<!-- Node45 -->
<g id="node45" class="node">
<title>Node45</title>
<g id="a_node45"><a xlink:href="classe__wb__class.html" target="_top" xlink:title=" ">
<polygon fill="white" stroke="#666666" points="441,-93 373,-93 373,-74 441,-74 441,-93"/>
<text text-anchor="middle" x="407" y="-81" font-family="Helvetica,sans-Serif" font-size="10.00">e_wb_class</text>
</a>
</g>
</g>
<!-- Node44&#45;&gt;Node45 -->
<g id="edge45" class="edge">
<title>Node44&#45;&gt;Node45</title>
<path fill="none" stroke="#63b8ff" d="M329.36,-83.5C343.98,-83.5 359.38,-83.5 372.51,-83.5"/>
<polygon fill="#63b8ff" stroke="#63b8ff" points="329.38,-80 319.38,-83.5 329.38,-87 329.38,-80"/>
</g>
</g>
</svg>
