<?xml version="1.0" encoding="UTF-8" standalone="no"?>
<!DOCTYPE svg PUBLIC "-//W3C//DTD SVG 1.1//EN"
 "http://www.w3.org/Graphics/SVG/1.1/DTD/svg11.dtd">
<!-- Generated by graphviz version 7.0.4 (20221203.1631)
 -->
<!-- Title: include/JSystem/JGadget/vector.h Pages: 1 -->
<svg width="2899pt" height="764pt"
 viewBox="0.00 0.00 2898.50 764.00" xmlns="http://www.w3.org/2000/svg" xmlns:xlink="http://www.w3.org/1999/xlink">
<g id="graph0" class="graph" transform="scale(1 1) rotate(0) translate(4 760)">
<title>include/JSystem/JGadget/vector.h</title>
<!-- Node1 -->
<g id="node1" class="node">
<title>Node1</title>
<g id="a_node1"><a xlink:title=" ">
<polygon fill="#999999" stroke="#666666" points="2045,-756 1917,-756 1917,-726 2045,-726 2045,-756"/>
<text text-anchor="start" x="1925" y="-744" font-family="Helvetica,sans-Serif" font-size="10.00">include/JSystem/JGadget</text>
<text text-anchor="middle" x="1981" y="-733" font-family="Helvetica,sans-Serif" font-size="10.00">/vector.h</text>
</a>
</g>
</g>
<!-- Node2 -->
<g id="node2" class="node">
<title>Node2</title>
<g id="a_node2"><a xlink:href="functionvalue_8h.html" target="_top" xlink:title=" ">
<polygon fill="white" stroke="#666666" points="2043.5,-690 1918.5,-690 1918.5,-660 2043.5,-660 2043.5,-690"/>
<text text-anchor="start" x="1926.5" y="-678" font-family="Helvetica,sans-Serif" font-size="10.00">include/JSystem/JStudio</text>
<text text-anchor="middle" x="1981" y="-667" font-family="Helvetica,sans-Serif" font-size="10.00">/JStudio/functionvalue.h</text>
</a>
</g>
</g>
<!-- Node1&#45;&gt;Node2 -->
<g id="edge1" class="edge">
<title>Node1&#45;&gt;Node2</title>
<path fill="none" stroke="#63b8ff" d="M1981,-714.39C1981,-706.13 1981,-697.28 1981,-690.16"/>
<polygon fill="#63b8ff" stroke="#63b8ff" points="1977.5,-714.28 1981,-724.28 1984.5,-714.28 1977.5,-714.28"/>
</g>
<!-- Node3 -->
<g id="node3" class="node">
<title>Node3</title>
<g id="a_node3"><a xlink:href="fvb-data_8h.html" target="_top" xlink:title=" ">
<polygon fill="white" stroke="#666666" points="1906.5,-618.5 1781.5,-618.5 1781.5,-588.5 1906.5,-588.5 1906.5,-618.5"/>
<text text-anchor="start" x="1789.5" y="-606.5" font-family="Helvetica,sans-Serif" font-size="10.00">include/JSystem/JStudio</text>
<text text-anchor="middle" x="1844" y="-595.5" font-family="Helvetica,sans-Serif" font-size="10.00">/JStudio/fvb&#45;data.h</text>
</a>
</g>
</g>
<!-- Node2&#45;&gt;Node3 -->
<g id="edge2" class="edge">
<title>Node2&#45;&gt;Node3</title>
<path fill="none" stroke="#63b8ff" d="M1942.47,-654.46C1920.19,-643.15 1892.64,-629.17 1872.35,-618.88"/>
<polygon fill="#63b8ff" stroke="#63b8ff" points="1940.76,-657.51 1951.26,-658.91 1943.93,-651.27 1940.76,-657.51"/>
</g>
<!-- Node66 -->
<g id="node49" class="node">
<title>Node66</title>
<g id="a_node49"><a xlink:href="functionvalue-inline_8cpp.html" target="_top" xlink:title=" ">
<polygon fill="white" stroke="#666666" points="2037.5,-624 1924.5,-624 1924.5,-583 2037.5,-583 2037.5,-624"/>
<text text-anchor="start" x="1932.5" y="-612" font-family="Helvetica,sans-Serif" font-size="10.00">libs/JSystem/JStudio</text>
<text text-anchor="start" x="1932.5" y="-601" font-family="Helvetica,sans-Serif" font-size="10.00">/JStudio/functionvalue</text>
<text text-anchor="middle" x="1981" y="-590" font-family="Helvetica,sans-Serif" font-size="10.00">&#45;inline.cpp</text>
</a>
</g>
</g>
<!-- Node2&#45;&gt;Node66 -->
<g id="edge58" class="edge">
<title>Node2&#45;&gt;Node66</title>
<path fill="none" stroke="#63b8ff" d="M1981,-648.36C1981,-640.45 1981,-631.87 1981,-624.42"/>
<polygon fill="#63b8ff" stroke="#63b8ff" points="1977.5,-648.09 1981,-658.09 1984.5,-648.09 1977.5,-648.09"/>
</g>
<!-- Node67 -->
<g id="node50" class="node">
<title>Node67</title>
<g id="a_node50"><a xlink:href="functionvalue_8cpp.html" target="_top" xlink:title=" ">
<polygon fill="white" stroke="#666666" points="2186.5,-618.5 2055.5,-618.5 2055.5,-588.5 2186.5,-588.5 2186.5,-618.5"/>
<text text-anchor="start" x="2063.5" y="-606.5" font-family="Helvetica,sans-Serif" font-size="10.00">libs/JSystem/JStudio</text>
<text text-anchor="middle" x="2121" y="-595.5" font-family="Helvetica,sans-Serif" font-size="10.00">/JStudio/functionvalue.cpp</text>
</a>
</g>
</g>
<!-- Node2&#45;&gt;Node67 -->
<g id="edge59" class="edge">
<title>Node2&#45;&gt;Node67</title>
<path fill="none" stroke="#63b8ff" d="M2020.06,-654.61C2042.88,-643.28 2071.2,-629.22 2092.03,-618.88"/>
<polygon fill="#63b8ff" stroke="#63b8ff" points="2018.76,-651.35 2011.36,-658.93 2021.88,-657.61 2018.76,-651.35"/>
</g>
<!-- Node4 -->
<g id="node4" class="node">
<title>Node4</title>
<g id="a_node4"><a xlink:href="resource_8h.html" target="_top" xlink:title=" ">
<polygon fill="white" stroke="#666666" points="1665.5,-349 1528.5,-349 1528.5,-319 1665.5,-319 1665.5,-349"/>
<text text-anchor="start" x="1536.5" y="-337" font-family="Helvetica,sans-Serif" font-size="10.00">include/JSystem/JMessage</text>
<text text-anchor="middle" x="1597" y="-326" font-family="Helvetica,sans-Serif" font-size="10.00">/resource.h</text>
</a>
</g>
</g>
<!-- Node3&#45;&gt;Node4 -->
<g id="edge3" class="edge">
<title>Node3&#45;&gt;Node4</title>
<path fill="none" stroke="#63b8ff" d="M1814.04,-581.33C1800.91,-571.5 1785.65,-559.28 1773,-547 1702.99,-479.02 1632.8,-384.76 1607.17,-349.27"/>
<polygon fill="#63b8ff" stroke="#63b8ff" points="1811.81,-584.04 1821.94,-587.14 1815.96,-578.4 1811.81,-584.04"/>
</g>
<!-- Node36 -->
<g id="node36" class="node">
<title>Node36</title>
<g id="a_node36"><a xlink:href="fvb-data-parse_8h.html" target="_top" xlink:title=" ">
<polygon fill="white" stroke="#666666" points="1906.5,-547 1781.5,-547 1781.5,-517 1906.5,-517 1906.5,-547"/>
<text text-anchor="start" x="1789.5" y="-535" font-family="Helvetica,sans-Serif" font-size="10.00">include/JSystem/JStudio</text>
<text text-anchor="middle" x="1844" y="-524" font-family="Helvetica,sans-Serif" font-size="10.00">/JStudio/fvb&#45;data&#45;parse.h</text>
</a>
</g>
</g>
<!-- Node3&#45;&gt;Node36 -->
<g id="edge42" class="edge">
<title>Node3&#45;&gt;Node36</title>
<path fill="none" stroke="#63b8ff" d="M1844,-576.76C1844,-566.83 1844,-555.86 1844,-547.38"/>
<polygon fill="#63b8ff" stroke="#63b8ff" points="1840.5,-576.59 1844,-586.59 1847.5,-576.59 1840.5,-576.59"/>
</g>
<!-- Node65 -->
<g id="node48" class="node">
<title>Node65</title>
<g id="a_node48"><a xlink:href="fvb-data_8cpp.html" target="_top" xlink:title=" ">
<polygon fill="white" stroke="#666666" points="2033.5,-547 1924.5,-547 1924.5,-517 2033.5,-517 2033.5,-547"/>
<text text-anchor="start" x="1932.5" y="-535" font-family="Helvetica,sans-Serif" font-size="10.00">libs/JSystem/JStudio</text>
<text text-anchor="middle" x="1979" y="-524" font-family="Helvetica,sans-Serif" font-size="10.00">/JStudio/fvb&#45;data.cpp</text>
</a>
</g>
</g>
<!-- Node3&#45;&gt;Node65 -->
<g id="edge57" class="edge">
<title>Node3&#45;&gt;Node65</title>
<path fill="none" stroke="#63b8ff" d="M1881.96,-582.96C1903.92,-571.65 1931.07,-557.67 1951.06,-547.38"/>
<polygon fill="#63b8ff" stroke="#63b8ff" points="1880.61,-579.72 1873.32,-587.41 1883.81,-585.94 1880.61,-579.72"/>
</g>
<!-- Node5 -->
<g id="node5" class="node">
<title>Node5</title>
<g id="a_node5"><a xlink:href="JMessage_2control_8h.html" target="_top" xlink:title=" ">
<polygon fill="white" stroke="#666666" points="1665.5,-283 1528.5,-283 1528.5,-253 1665.5,-253 1665.5,-283"/>
<text text-anchor="start" x="1536.5" y="-271" font-family="Helvetica,sans-Serif" font-size="10.00">include/JSystem/JMessage</text>
<text text-anchor="middle" x="1597" y="-260" font-family="Helvetica,sans-Serif" font-size="10.00">/control.h</text>
</a>
</g>
</g>
<!-- Node4&#45;&gt;Node5 -->
<g id="edge4" class="edge">
<title>Node4&#45;&gt;Node5</title>
<path fill="none" stroke="#63b8ff" d="M1597,-307.39C1597,-299.13 1597,-290.28 1597,-283.16"/>
<polygon fill="#63b8ff" stroke="#63b8ff" points="1593.5,-307.28 1597,-317.28 1600.5,-307.28 1593.5,-307.28"/>
</g>
<!-- Node15 -->
<g id="node15" class="node">
<title>Node15</title>
<g id="a_node15"><a xlink:href="d__msg__object_8h.html" target="_top" xlink:title=" ">
<polygon fill="white" stroke="#666666" points="1381,-217 1271,-217 1271,-187 1381,-187 1381,-217"/>
<text text-anchor="start" x="1279" y="-205" font-family="Helvetica,sans-Serif" font-size="10.00">include/d/msg/d_msg</text>
<text text-anchor="middle" x="1326" y="-194" font-family="Helvetica,sans-Serif" font-size="10.00">_object.h</text>
</a>
</g>
</g>
<!-- Node4&#45;&gt;Node15 -->
<g id="edge39" class="edge">
<title>Node4&#45;&gt;Node15</title>
<path fill="none" stroke="#63b8ff" d="M1517.05,-328.75C1473.38,-323.12 1420.17,-310.58 1380,-283 1355.96,-266.49 1339.66,-235.47 1331.67,-217.29"/>
<polygon fill="#63b8ff" stroke="#63b8ff" points="1516.38,-332.2 1526.72,-329.89 1517.2,-325.24 1516.38,-332.2"/>
</g>
<!-- Node34 -->
<g id="node34" class="node">
<title>Node34</title>
<g id="a_node34"><a xlink:href="processor_8cpp.html" target="_top" xlink:title=" ">
<polygon fill="white" stroke="#666666" points="1754.5,-217 1633.5,-217 1633.5,-187 1754.5,-187 1754.5,-217"/>
<text text-anchor="start" x="1641.5" y="-205" font-family="Helvetica,sans-Serif" font-size="10.00">libs/JSystem/JMessage</text>
<text text-anchor="middle" x="1694" y="-194" font-family="Helvetica,sans-Serif" font-size="10.00">/processor.cpp</text>
</a>
</g>
</g>
<!-- Node4&#45;&gt;Node34 -->
<g id="edge40" class="edge">
<title>Node4&#45;&gt;Node34</title>
<path fill="none" stroke="#63b8ff" d="M1640.65,-313.1C1653.4,-305.36 1666.25,-295.34 1675,-283 1689.04,-263.21 1692.81,-234.42 1693.76,-217.32"/>
<polygon fill="#63b8ff" stroke="#63b8ff" points="1639.28,-309.85 1632.3,-317.83 1642.73,-315.94 1639.28,-309.85"/>
</g>
<!-- Node35 -->
<g id="node35" class="node">
<title>Node35</title>
<g id="a_node35"><a xlink:href="resource_8cpp.html" target="_top" xlink:title=" ">
<polygon fill="white" stroke="#666666" points="1510.5,-283 1389.5,-283 1389.5,-253 1510.5,-253 1510.5,-283"/>
<text text-anchor="start" x="1397.5" y="-271" font-family="Helvetica,sans-Serif" font-size="10.00">libs/JSystem/JMessage</text>
<text text-anchor="middle" x="1450" y="-260" font-family="Helvetica,sans-Serif" font-size="10.00">/resource.cpp</text>
</a>
</g>
</g>
<!-- Node4&#45;&gt;Node35 -->
<g id="edge41" class="edge">
<title>Node4&#45;&gt;Node35</title>
<path fill="none" stroke="#63b8ff" d="M1553.68,-314.14C1531.13,-304.32 1503.99,-292.51 1483.13,-283.43"/>
<polygon fill="#63b8ff" stroke="#63b8ff" points="1552.06,-317.25 1562.62,-318.03 1554.85,-310.83 1552.06,-317.25"/>
</g>
<!-- Node6 -->
<g id="node6" class="node">
<title>Node6</title>
<g id="a_node6"><a xlink:href="d__demo_8h.html" target="_top" xlink:title=" ">
<polygon fill="white" stroke="#666666" points="2268.5,-211.5 2167.5,-211.5 2167.5,-192.5 2268.5,-192.5 2268.5,-211.5"/>
<text text-anchor="middle" x="2218" y="-199.5" font-family="Helvetica,sans-Serif" font-size="10.00">include/d/d_demo.h</text>
</a>
</g>
</g>
<!-- Node5&#45;&gt;Node6 -->
<g id="edge5" class="edge">
<title>Node5&#45;&gt;Node6</title>
<path fill="none" stroke="#63b8ff" d="M1677.11,-257.55C1690.75,-256 1704.78,-254.43 1718,-253 1882.15,-235.3 2076.85,-216.44 2167.23,-207.81"/>
<polygon fill="#63b8ff" stroke="#63b8ff" points="1676.81,-254.07 1667.27,-258.68 1677.61,-261.02 1676.81,-254.07"/>
</g>
<!-- Node5&#45;&gt;Node15 -->
<g id="edge14" class="edge">
<title>Node5&#45;&gt;Node15</title>
<path fill="none" stroke="#63b8ff" d="M1524.69,-249.92C1479.72,-239.3 1422.79,-225.86 1381.4,-216.08"/>
<polygon fill="#63b8ff" stroke="#63b8ff" points="1523.83,-253.32 1534.37,-252.21 1525.44,-246.5 1523.83,-253.32"/>
</g>
<!-- Node33 -->
<g id="node33" class="node">
<title>Node33</title>
<g id="a_node33"><a xlink:href="JMessage_2control_8cpp.html" target="_top" xlink:title=" ">
<polygon fill="white" stroke="#666666" points="1615.5,-217 1494.5,-217 1494.5,-187 1615.5,-187 1615.5,-217"/>
<text text-anchor="start" x="1502.5" y="-205" font-family="Helvetica,sans-Serif" font-size="10.00">libs/JSystem/JMessage</text>
<text text-anchor="middle" x="1555" y="-194" font-family="Helvetica,sans-Serif" font-size="10.00">/control.cpp</text>
</a>
</g>
</g>
<!-- Node5&#45;&gt;Node33 -->
<g id="edge37" class="edge">
<title>Node5&#45;&gt;Node33</title>
<path fill="none" stroke="#63b8ff" d="M1581.51,-243.39C1575.73,-234.59 1569.35,-224.86 1564.3,-217.16"/>
<polygon fill="#63b8ff" stroke="#63b8ff" points="1578.44,-245.09 1586.85,-251.53 1584.29,-241.25 1578.44,-245.09"/>
</g>
<!-- Node5&#45;&gt;Node34 -->
<g id="edge38" class="edge">
<title>Node5&#45;&gt;Node34</title>
<path fill="none" stroke="#63b8ff" d="M1628.03,-246.52C1642.42,-237.03 1659.17,-225.98 1672.2,-217.39"/>
<polygon fill="#63b8ff" stroke="#63b8ff" points="1626.21,-243.53 1619.79,-251.96 1630.07,-249.38 1626.21,-243.53"/>
</g>
<!-- Node7 -->
<g id="node7" class="node">
<title>Node7</title>
<g id="a_node7"><a xlink:href="d__a__alink_8cpp.html" target="_top" xlink:title=" ">
<polygon fill="white" stroke="#666666" points="2460.5,-145.5 2351.5,-145.5 2351.5,-126.5 2460.5,-126.5 2460.5,-145.5"/>
<text text-anchor="middle" x="2406" y="-133.5" font-family="Helvetica,sans-Serif" font-size="10.00">src/d/a/d_a_alink.cpp</text>
</a>
</g>
</g>
<!-- Node6&#45;&gt;Node7 -->
<g id="edge6" class="edge">
<title>Node6&#45;&gt;Node7</title>
<path fill="none" stroke="#63b8ff" d="M2254.91,-188.43C2291.7,-175.91 2347.28,-156.99 2379.78,-145.93"/>
<polygon fill="#63b8ff" stroke="#63b8ff" points="2253.91,-185.08 2245.57,-191.61 2256.17,-191.7 2253.91,-185.08"/>
</g>
<!-- Node8 -->
<g id="node8" class="node">
<title>Node8</title>
<g id="a_node8"><a xlink:href="d__com__static_8cpp.html" target="_top" xlink:title=" ">
<polygon fill="white" stroke="#666666" points="2619,-145.5 2479,-145.5 2479,-126.5 2619,-126.5 2619,-145.5"/>
<text text-anchor="middle" x="2549" y="-133.5" font-family="Helvetica,sans-Serif" font-size="10.00">src/d/com/d_com_static.cpp</text>
</a>
</g>
</g>
<!-- Node6&#45;&gt;Node8 -->
<g id="edge7" class="edge">
<title>Node6&#45;&gt;Node8</title>
<path fill="none" stroke="#63b8ff" d="M2266.22,-189.54C2270.2,-188.66 2274.17,-187.8 2278,-187 2319.33,-178.37 2432.49,-157.87 2498.78,-145.97"/>
<polygon fill="#63b8ff" stroke="#63b8ff" points="2265.52,-186.11 2256.54,-191.73 2267.07,-192.94 2265.52,-186.11"/>
</g>
<!-- Node9 -->
<g id="node9" class="node">
<title>Node9</title>
<g id="a_node9"><a xlink:href="d__demo_8cpp.html" target="_top" xlink:title=" ">
<polygon fill="white" stroke="#666666" points="1948,-145.5 1854,-145.5 1854,-126.5 1948,-126.5 1948,-145.5"/>
<text text-anchor="middle" x="1901" y="-133.5" font-family="Helvetica,sans-Serif" font-size="10.00">src/d/d_demo.cpp</text>
</a>
</g>
</g>
<!-- Node6&#45;&gt;Node9 -->
<g id="edge8" class="edge">
<title>Node6&#45;&gt;Node9</title>
<path fill="none" stroke="#63b8ff" d="M2156.31,-190.05C2103.52,-180.46 2025.56,-165.78 1958,-151 1950.93,-149.45 1943.4,-147.69 1936.21,-145.94"/>
<polygon fill="#63b8ff" stroke="#63b8ff" points="2155.56,-193.47 2166.03,-191.81 2156.81,-186.58 2155.56,-193.47"/>
</g>
<!-- Node10 -->
<g id="node10" class="node">
<title>Node10</title>
<g id="a_node10"><a xlink:href="d__event_8cpp.html" target="_top" xlink:title=" ">
<polygon fill="white" stroke="#666666" points="2087.5,-145.5 1966.5,-145.5 1966.5,-126.5 2087.5,-126.5 2087.5,-145.5"/>
<text text-anchor="middle" x="2027" y="-133.5" font-family="Helvetica,sans-Serif" font-size="10.00">src/d/event/d_event.cpp</text>
</a>
</g>
</g>
<!-- Node6&#45;&gt;Node10 -->
<g id="edge9" class="edge">
<title>Node6&#45;&gt;Node10</title>
<path fill="none" stroke="#63b8ff" d="M2180.98,-188.6C2143.61,-176.07 2086.8,-157.04 2053.64,-145.93"/>
<polygon fill="#63b8ff" stroke="#63b8ff" points="2179.41,-191.76 2190.01,-191.62 2181.64,-185.12 2179.41,-191.76"/>
</g>
<!-- Node11 -->
<g id="node11" class="node">
<title>Node11</title>
<g id="a_node11"><a xlink:href="d__event__data_8cpp.html" target="_top" xlink:title=" ">
<polygon fill="white" stroke="#666666" points="2208.5,-151 2105.5,-151 2105.5,-121 2208.5,-121 2208.5,-151"/>
<text text-anchor="start" x="2113.5" y="-139" font-family="Helvetica,sans-Serif" font-size="10.00">src/d/event/d_event</text>
<text text-anchor="middle" x="2157" y="-128" font-family="Helvetica,sans-Serif" font-size="10.00">_data.cpp</text>
</a>
</g>
</g>
<!-- Node6&#45;&gt;Node11 -->
<g id="edge10" class="edge">
<title>Node6&#45;&gt;Node11</title>
<path fill="none" stroke="#63b8ff" d="M2201.75,-183.95C2192.01,-173.73 2179.78,-160.9 2170.57,-151.23"/>
<polygon fill="#63b8ff" stroke="#63b8ff" points="2199.04,-186.18 2208.47,-191.01 2204.11,-181.35 2199.04,-186.18"/>
</g>
<!-- Node12 -->
<g id="node12" class="node">
<title>Node12</title>
<g id="a_node12"><a xlink:href="d__kankyo__rain_8cpp.html" target="_top" xlink:title=" ">
<polygon fill="white" stroke="#666666" points="2753,-151 2637,-151 2637,-121 2753,-121 2753,-151"/>
<text text-anchor="start" x="2645" y="-139" font-family="Helvetica,sans-Serif" font-size="10.00">src/d/kankyo/d_kankyo</text>
<text text-anchor="middle" x="2695" y="-128" font-family="Helvetica,sans-Serif" font-size="10.00">_rain.cpp</text>
</a>
</g>
</g>
<!-- Node6&#45;&gt;Node12 -->
<g id="edge11" class="edge">
<title>Node6&#45;&gt;Node12</title>
<path fill="none" stroke="#63b8ff" d="M2263.97,-189.65C2268.69,-188.67 2273.43,-187.76 2278,-187 2432.23,-161.18 2473.48,-175.02 2628,-151 2630.82,-150.56 2633.7,-150.08 2636.6,-149.57"/>
<polygon fill="#63b8ff" stroke="#63b8ff" points="2263.57,-186.16 2254.55,-191.71 2265.06,-192.99 2263.57,-186.16"/>
</g>
<!-- Node13 -->
<g id="node13" class="node">
<title>Node13</title>
<g id="a_node13"><a xlink:href="d__s__play_8cpp.html" target="_top" xlink:title=" ">
<polygon fill="white" stroke="#666666" points="2333,-145.5 2227,-145.5 2227,-126.5 2333,-126.5 2333,-145.5"/>
<text text-anchor="middle" x="2280" y="-133.5" font-family="Helvetica,sans-Serif" font-size="10.00">src/d/s/d_s_play.cpp</text>
</a>
</g>
</g>
<!-- Node6&#45;&gt;Node13 -->
<g id="edge12" class="edge">
<title>Node6&#45;&gt;Node13</title>
<path fill="none" stroke="#63b8ff" d="M2234.49,-183.98C2246.38,-171.7 2261.95,-155.63 2271.45,-145.82"/>
<polygon fill="#63b8ff" stroke="#63b8ff" points="2232.12,-181.4 2227.67,-191.01 2237.15,-186.27 2232.12,-181.4"/>
</g>
<!-- Node14 -->
<g id="node14" class="node">
<title>Node14</title>
<g id="a_node14"><a xlink:href="f__op__actor_8cpp.html" target="_top" xlink:title=" ">
<polygon fill="white" stroke="#666666" points="2890.5,-145.5 2771.5,-145.5 2771.5,-126.5 2890.5,-126.5 2890.5,-145.5"/>
<text text-anchor="middle" x="2831" y="-133.5" font-family="Helvetica,sans-Serif" font-size="10.00">src/f_op/f_op_actor.cpp</text>
</a>
</g>
</g>
<!-- Node6&#45;&gt;Node14 -->
<g id="edge13" class="edge">
<title>Node6&#45;&gt;Node14</title>
<path fill="none" stroke="#63b8ff" d="M2263.58,-189.59C2268.43,-188.61 2273.3,-187.72 2278,-187 2491.23,-154.39 2548.32,-180.5 2762,-151 2771.57,-149.68 2781.8,-147.84 2791.38,-145.93"/>
<polygon fill="#63b8ff" stroke="#63b8ff" points="2262.92,-186.15 2253.88,-191.69 2264.4,-192.99 2262.92,-186.15"/>
</g>
<!-- Node15&#45;&gt;Node7 -->
<g id="edge20" class="edge">
<title>Node15&#45;&gt;Node7</title>
<path fill="none" stroke="#63b8ff" d="M1392.58,-194.45C1421.03,-191.83 1454.62,-188.97 1485,-187 1865.42,-162.27 1963.93,-199.92 2342,-151 2351.25,-149.8 2361.14,-147.94 2370.31,-145.95"/>
<polygon fill="#63b8ff" stroke="#63b8ff" points="1392.28,-190.97 1382.65,-195.38 1392.93,-197.94 1392.28,-190.97"/>
</g>
<!-- Node15&#45;&gt;Node9 -->
<g id="edge21" class="edge">
<title>Node15&#45;&gt;Node9</title>
<path fill="none" stroke="#63b8ff" d="M1392.73,-195.13C1522.82,-183.61 1801.49,-158.49 1845,-151 1852.7,-149.67 1860.91,-147.86 1868.6,-145.97"/>
<polygon fill="#63b8ff" stroke="#63b8ff" points="1392.53,-191.64 1382.87,-196 1393.14,-198.61 1392.53,-191.64"/>
</g>
<!-- Node15&#45;&gt;Node10 -->
<g id="edge22" class="edge">
<title>Node15&#45;&gt;Node10</title>
<path fill="none" stroke="#63b8ff" d="M1392.62,-194.96C1421.08,-192.42 1454.66,-189.49 1485,-187 1694.68,-169.77 1748.58,-179.68 1957,-151 1966.58,-149.68 1976.82,-147.87 1986.43,-145.98"/>
<polygon fill="#63b8ff" stroke="#63b8ff" points="1392.33,-191.47 1382.68,-195.85 1392.95,-198.44 1392.33,-191.47"/>
</g>
<!-- Node15&#45;&gt;Node11 -->
<g id="edge23" class="edge">
<title>Node15&#45;&gt;Node11</title>
<path fill="none" stroke="#63b8ff" d="M1392.6,-194.7C1421.05,-192.12 1454.64,-189.23 1485,-187 1756.74,-167.05 1827.35,-190.1 2097,-151 2099.65,-150.62 2102.35,-150.17 2105.07,-149.69"/>
<polygon fill="#63b8ff" stroke="#63b8ff" points="1392.3,-191.21 1382.66,-195.61 1392.94,-198.19 1392.3,-191.21"/>
</g>
<!-- Node15&#45;&gt;Node13 -->
<g id="edge32" class="edge">
<title>Node15&#45;&gt;Node13</title>
<path fill="none" stroke="#63b8ff" d="M1392.59,-194.56C1421.04,-191.96 1454.63,-189.08 1485,-187 1810.41,-164.69 1894.82,-195.09 2218,-151 2226.86,-149.79 2236.32,-147.95 2245.11,-145.99"/>
<polygon fill="#63b8ff" stroke="#63b8ff" points="1392.29,-191.07 1382.65,-195.48 1392.93,-198.04 1392.29,-191.07"/>
</g>
<!-- Node16 -->
<g id="node16" class="node">
<title>Node16</title>
<g id="a_node16"><a xlink:href="d__msg__string__base_8h.html" target="_top" xlink:title=" ">
<polygon fill="white" stroke="#666666" points="1506,-151 1396,-151 1396,-121 1506,-121 1506,-151"/>
<text text-anchor="start" x="1404" y="-139" font-family="Helvetica,sans-Serif" font-size="10.00">include/d/msg/d_msg</text>
<text text-anchor="middle" x="1451" y="-128" font-family="Helvetica,sans-Serif" font-size="10.00">_string_base.h</text>
</a>
</g>
</g>
<!-- Node15&#45;&gt;Node16 -->
<g id="edge15" class="edge">
<title>Node15&#45;&gt;Node16</title>
<path fill="none" stroke="#63b8ff" d="M1364.18,-181.45C1383.16,-171.73 1405.69,-160.2 1423.04,-151.31"/>
<polygon fill="#63b8ff" stroke="#63b8ff" points="1362.71,-178.27 1355.4,-185.95 1365.9,-184.51 1362.71,-178.27"/>
</g>
<!-- Node21 -->
<g id="node21" class="node">
<title>Node21</title>
<g id="a_node21"><a xlink:href="d__kankyo_8cpp.html" target="_top" xlink:title=" ">
<polygon fill="white" stroke="#666666" points="1658,-145.5 1524,-145.5 1524,-126.5 1658,-126.5 1658,-145.5"/>
<text text-anchor="middle" x="1591" y="-133.5" font-family="Helvetica,sans-Serif" font-size="10.00">src/d/kankyo/d_kankyo.cpp</text>
</a>
</g>
</g>
<!-- Node15&#45;&gt;Node21 -->
<g id="edge24" class="edge">
<title>Node15&#45;&gt;Node21</title>
<path fill="none" stroke="#63b8ff" d="M1392.16,-185.02C1443.18,-172.7 1511.9,-156.1 1553.74,-146"/>
<polygon fill="#63b8ff" stroke="#63b8ff" points="1391.6,-181.56 1382.7,-187.31 1393.24,-188.36 1391.6,-181.56"/>
</g>
<!-- Node22 -->
<g id="node22" class="node">
<title>Node22</title>
<g id="a_node22"><a xlink:href="d__menu__window_8cpp.html" target="_top" xlink:title=" ">
<polygon fill="white" stroke="#666666" points="1835.5,-145.5 1676.5,-145.5 1676.5,-126.5 1835.5,-126.5 1835.5,-145.5"/>
<text text-anchor="middle" x="1756" y="-133.5" font-family="Helvetica,sans-Serif" font-size="10.00">src/d/menu/d_menu_window.cpp</text>
</a>
</g>
</g>
<!-- Node15&#45;&gt;Node22 -->
<g id="edge25" class="edge">
<title>Node15&#45;&gt;Node22</title>
<path fill="none" stroke="#63b8ff" d="M1392.33,-191.48C1461.07,-181.57 1571.6,-165.5 1667,-151 1677.52,-149.4 1688.72,-147.67 1699.52,-145.98"/>
<polygon fill="#63b8ff" stroke="#63b8ff" points="1392.15,-187.97 1382.75,-192.86 1393.14,-194.9 1392.15,-187.97"/>
</g>
<!-- Node23 -->
<g id="node23" class="node">
<title>Node23</title>
<g id="a_node23"><a xlink:href="d__meter2__draw_8cpp.html" target="_top" xlink:title=" ">
<polygon fill="white" stroke="#666666" points="110,-151 0,-151 0,-121 110,-121 110,-151"/>
<text text-anchor="start" x="8" y="-139" font-family="Helvetica,sans-Serif" font-size="10.00">src/d/meter/d_meter2</text>
<text text-anchor="middle" x="55" y="-128" font-family="Helvetica,sans-Serif" font-size="10.00">_draw.cpp</text>
</a>
</g>
</g>
<!-- Node15&#45;&gt;Node23 -->
<g id="edge26" class="edge">
<title>Node15&#45;&gt;Node23</title>
<path fill="none" stroke="#63b8ff" d="M1259.2,-199.76C1039.75,-195.46 342.25,-179.82 119,-151 116.18,-150.64 113.3,-150.21 110.4,-149.74"/>
<polygon fill="#63b8ff" stroke="#63b8ff" points="1258.94,-203.26 1269,-199.95 1259.07,-196.26 1258.94,-203.26"/>
</g>
<!-- Node24 -->
<g id="node24" class="node">
<title>Node24</title>
<g id="a_node24"><a xlink:href="d__meter2__info_8cpp.html" target="_top" xlink:title=" ">
<polygon fill="white" stroke="#666666" points="238,-151 128,-151 128,-121 238,-121 238,-151"/>
<text text-anchor="start" x="136" y="-139" font-family="Helvetica,sans-Serif" font-size="10.00">src/d/meter/d_meter2</text>
<text text-anchor="middle" x="183" y="-128" font-family="Helvetica,sans-Serif" font-size="10.00">_info.cpp</text>
</a>
</g>
</g>
<!-- Node15&#45;&gt;Node24 -->
<g id="edge27" class="edge">
<title>Node15&#45;&gt;Node24</title>
<path fill="none" stroke="#63b8ff" d="M1259.18,-199.38C1055.48,-194.23 444.2,-176.95 247,-151 244.18,-150.63 241.3,-150.2 238.4,-149.72"/>
<polygon fill="#63b8ff" stroke="#63b8ff" points="1258.98,-202.88 1269.06,-199.63 1259.15,-195.88 1258.98,-202.88"/>
</g>
<!-- Node25 -->
<g id="node25" class="node">
<title>Node25</title>
<g id="a_node25"><a xlink:href="d__meter__map_8cpp.html" target="_top" xlink:title=" ">
<polygon fill="white" stroke="#666666" points="360,-151 256,-151 256,-121 360,-121 360,-151"/>
<text text-anchor="start" x="264" y="-139" font-family="Helvetica,sans-Serif" font-size="10.00">src/d/meter/d_meter</text>
<text text-anchor="middle" x="308" y="-128" font-family="Helvetica,sans-Serif" font-size="10.00">_map.cpp</text>
</a>
</g>
</g>
<!-- Node15&#45;&gt;Node25 -->
<g id="edge28" class="edge">
<title>Node15&#45;&gt;Node25</title>
<path fill="none" stroke="#63b8ff" d="M1259.39,-201.48C1103.1,-201.74 700.94,-197.41 369,-151 366.2,-150.61 363.34,-150.15 360.46,-149.65"/>
<polygon fill="#63b8ff" stroke="#63b8ff" points="1259.16,-204.98 1269.15,-201.45 1259.14,-197.98 1259.16,-204.98"/>
</g>
<!-- Node26 -->
<g id="node26" class="node">
<title>Node26</title>
<g id="a_node26"><a xlink:href="d__msg__flow_8cpp.html" target="_top" xlink:title=" ">
<polygon fill="white" stroke="#666666" points="511.5,-145.5 378.5,-145.5 378.5,-126.5 511.5,-126.5 511.5,-145.5"/>
<text text-anchor="middle" x="445" y="-133.5" font-family="Helvetica,sans-Serif" font-size="10.00">src/d/msg/d_msg_flow.cpp</text>
</a>
</g>
</g>
<!-- Node15&#45;&gt;Node26 -->
<g id="edge29" class="edge">
<title>Node15&#45;&gt;Node26</title>
<path fill="none" stroke="#63b8ff" d="M1259.45,-199.57C1121.35,-196.01 793.73,-184.47 521,-151 510.48,-149.71 499.22,-147.88 488.67,-145.97"/>
<polygon fill="#63b8ff" stroke="#63b8ff" points="1259.05,-203.06 1269.13,-199.81 1259.22,-196.06 1259.05,-203.06"/>
</g>
<!-- Node27 -->
<g id="node27" class="node">
<title>Node27</title>
<g id="a_node27"><a xlink:href="d__msg__object_8cpp.html" target="_top" xlink:title=" ">
<polygon fill="white" stroke="#666666" points="672,-145.5 530,-145.5 530,-126.5 672,-126.5 672,-145.5"/>
<text text-anchor="middle" x="601" y="-133.5" font-family="Helvetica,sans-Serif" font-size="10.00">src/d/msg/d_msg_object.cpp</text>
</a>
</g>
</g>
<!-- Node15&#45;&gt;Node27 -->
<g id="edge30" class="edge">
<title>Node15&#45;&gt;Node27</title>
<path fill="none" stroke="#63b8ff" d="M1259.33,-197.94C1142.05,-192.1 891.29,-177.49 681,-151 670.23,-149.64 658.7,-147.84 647.84,-145.97"/>
<polygon fill="#63b8ff" stroke="#63b8ff" points="1258.93,-201.43 1269.09,-198.42 1259.27,-194.44 1258.93,-201.43"/>
</g>
<!-- Node28 -->
<g id="node28" class="node">
<title>Node28</title>
<g id="a_node28"><a xlink:href="d__msg__out__font_8cpp.html" target="_top" xlink:title=" ">
<polygon fill="white" stroke="#666666" points="801.5,-151 690.5,-151 690.5,-121 801.5,-121 801.5,-151"/>
<text text-anchor="start" x="698.5" y="-139" font-family="Helvetica,sans-Serif" font-size="10.00">src/d/msg/d_msg_out</text>
<text text-anchor="middle" x="746" y="-128" font-family="Helvetica,sans-Serif" font-size="10.00">_font.cpp</text>
</a>
</g>
</g>
<!-- Node15&#45;&gt;Node28 -->
<g id="edge31" class="edge">
<title>Node15&#45;&gt;Node28</title>
<path fill="none" stroke="#63b8ff" d="M1259.61,-197.01C1161.23,-190.55 971.09,-175.93 811,-151 808.03,-150.54 805,-150.03 801.94,-149.48"/>
<polygon fill="#63b8ff" stroke="#63b8ff" points="1259.15,-200.49 1269.35,-197.64 1259.6,-193.5 1259.15,-200.49"/>
</g>
<!-- Node29 -->
<g id="node29" class="node">
<title>Node29</title>
<g id="a_node29"><a xlink:href="d__shop__system_8cpp.html" target="_top" xlink:title=" ">
<polygon fill="white" stroke="#666666" points="972,-145.5 820,-145.5 820,-126.5 972,-126.5 972,-145.5"/>
<text text-anchor="middle" x="896" y="-133.5" font-family="Helvetica,sans-Serif" font-size="10.00">src/d/shop/d_shop_system.cpp</text>
</a>
</g>
</g>
<!-- Node15&#45;&gt;Node29 -->
<g id="edge33" class="edge">
<title>Node15&#45;&gt;Node29</title>
<path fill="none" stroke="#63b8ff" d="M1259.48,-191.75C1189.96,-181.99 1077.74,-165.98 981,-151 970.8,-149.42 959.93,-147.68 949.48,-145.97"/>
<polygon fill="#63b8ff" stroke="#63b8ff" points="1258.79,-195.19 1269.18,-193.11 1259.76,-188.25 1258.79,-195.19"/>
</g>
<!-- Node30 -->
<g id="node30" class="node">
<title>Node30</title>
<g id="a_node30"><a xlink:href="f__op__msg__mng_8cpp.html" target="_top" xlink:title=" ">
<polygon fill="white" stroke="#666666" points="1130,-145.5 990,-145.5 990,-126.5 1130,-126.5 1130,-145.5"/>
<text text-anchor="middle" x="1060" y="-133.5" font-family="Helvetica,sans-Serif" font-size="10.00">src/f_op/f_op_msg_mng.cpp</text>
</a>
</g>
</g>
<!-- Node15&#45;&gt;Node30 -->
<g id="edge34" class="edge">
<title>Node15&#45;&gt;Node30</title>
<path fill="none" stroke="#63b8ff" d="M1259.59,-185.02C1208.37,-172.7 1139.4,-156.1 1097.4,-146"/>
<polygon fill="#63b8ff" stroke="#63b8ff" points="1258.55,-188.37 1269.09,-187.31 1260.19,-181.57 1258.55,-188.37"/>
</g>
<!-- Node31 -->
<g id="node31" class="node">
<title>Node31</title>
<g id="a_node31"><a xlink:href="d__msg__scrn__base_8cpp.html" target="_top" xlink:title=" ">
<polygon fill="white" stroke="#666666" points="1254,-151 1148,-151 1148,-121 1254,-121 1254,-151"/>
<text text-anchor="start" x="1156" y="-139" font-family="Helvetica,sans-Serif" font-size="10.00">src/msg/scrn/d_msg</text>
<text text-anchor="middle" x="1201" y="-128" font-family="Helvetica,sans-Serif" font-size="10.00">_scrn_base.cpp</text>
</a>
</g>
</g>
<!-- Node15&#45;&gt;Node31 -->
<g id="edge35" class="edge">
<title>Node15&#45;&gt;Node31</title>
<path fill="none" stroke="#63b8ff" d="M1287.82,-181.45C1268.84,-171.73 1246.31,-160.2 1228.96,-151.31"/>
<polygon fill="#63b8ff" stroke="#63b8ff" points="1286.1,-184.51 1296.6,-185.95 1289.29,-178.27 1286.1,-184.51"/>
</g>
<!-- Node32 -->
<g id="node32" class="node">
<title>Node32</title>
<g id="a_node32"><a xlink:href="d__msg__scrn__boss_8cpp.html" target="_top" xlink:title=" ">
<polygon fill="white" stroke="#666666" points="1378,-151 1272,-151 1272,-121 1378,-121 1378,-151"/>
<text text-anchor="start" x="1280" y="-139" font-family="Helvetica,sans-Serif" font-size="10.00">src/msg/scrn/d_msg</text>
<text text-anchor="middle" x="1325" y="-128" font-family="Helvetica,sans-Serif" font-size="10.00">_scrn_boss.cpp</text>
</a>
</g>
</g>
<!-- Node15&#45;&gt;Node32 -->
<g id="edge36" class="edge">
<title>Node15&#45;&gt;Node32</title>
<path fill="none" stroke="#63b8ff" d="M1325.6,-175.39C1325.47,-167.13 1325.33,-158.28 1325.22,-151.16"/>
<polygon fill="#63b8ff" stroke="#63b8ff" points="1322.1,-175.34 1325.75,-185.28 1329.1,-175.23 1322.1,-175.34"/>
</g>
<!-- Node17 -->
<g id="node17" class="node">
<title>Node17</title>
<g id="a_node17"><a xlink:href="d__msg__string_8h.html" target="_top" xlink:title=" ">
<polygon fill="white" stroke="#666666" points="1439,-85 1329,-85 1329,-55 1439,-55 1439,-85"/>
<text text-anchor="start" x="1337" y="-73" font-family="Helvetica,sans-Serif" font-size="10.00">include/d/msg/d_msg</text>
<text text-anchor="middle" x="1384" y="-62" font-family="Helvetica,sans-Serif" font-size="10.00">_string.h</text>
</a>
</g>
</g>
<!-- Node16&#45;&gt;Node17 -->
<g id="edge16" class="edge">
<title>Node16&#45;&gt;Node17</title>
<path fill="none" stroke="#63b8ff" d="M1428.06,-113.09C1418.39,-103.85 1407.41,-93.36 1398.83,-85.16"/>
<polygon fill="#63b8ff" stroke="#63b8ff" points="1425.39,-115.37 1435.04,-119.75 1430.22,-110.31 1425.39,-115.37"/>
</g>
<!-- Node20 -->
<g id="node20" class="node">
<title>Node20</title>
<g id="a_node20"><a xlink:href="d__msg__string__base_8cpp.html" target="_top" xlink:title=" ">
<polygon fill="white" stroke="#666666" points="1579,-85 1457,-85 1457,-55 1579,-55 1579,-85"/>
<text text-anchor="start" x="1465" y="-73" font-family="Helvetica,sans-Serif" font-size="10.00">src/d/msg/d_msg_string</text>
<text text-anchor="middle" x="1518" y="-62" font-family="Helvetica,sans-Serif" font-size="10.00">_base.cpp</text>
</a>
</g>
</g>
<!-- Node16&#45;&gt;Node20 -->
<g id="edge19" class="edge">
<title>Node16&#45;&gt;Node20</title>
<path fill="none" stroke="#63b8ff" d="M1473.94,-113.09C1483.61,-103.85 1494.59,-93.36 1503.17,-85.16"/>
<polygon fill="#63b8ff" stroke="#63b8ff" points="1471.78,-110.31 1466.96,-119.75 1476.61,-115.37 1471.78,-110.31"/>
</g>
<!-- Node18 -->
<g id="node18" class="node">
<title>Node18</title>
<g id="a_node18"><a xlink:href="d__menu__save_8cpp.html" target="_top" xlink:title=" ">
<polygon fill="white" stroke="#666666" points="1376.5,-19 1229.5,-19 1229.5,0 1376.5,0 1376.5,-19"/>
<text text-anchor="middle" x="1303" y="-7" font-family="Helvetica,sans-Serif" font-size="10.00">src/d/menu/d_menu_save.cpp</text>
</a>
</g>
</g>
<!-- Node17&#45;&gt;Node18 -->
<g id="edge17" class="edge">
<title>Node17&#45;&gt;Node18</title>
<path fill="none" stroke="#63b8ff" d="M1354.86,-47.95C1341.12,-38.03 1325.49,-26.74 1315.01,-19.18"/>
<polygon fill="#63b8ff" stroke="#63b8ff" points="1352.59,-50.64 1362.75,-53.65 1356.69,-44.96 1352.59,-50.64"/>
</g>
<!-- Node19 -->
<g id="node19" class="node">
<title>Node19</title>
<g id="a_node19"><a xlink:href="d__msg__string_8cpp.html" target="_top" xlink:title=" ">
<polygon fill="white" stroke="#666666" points="1535,-19 1395,-19 1395,0 1535,0 1535,-19"/>
<text text-anchor="middle" x="1465" y="-7" font-family="Helvetica,sans-Serif" font-size="10.00">src/d/msg/d_msg_string.cpp</text>
</a>
</g>
</g>
<!-- Node17&#45;&gt;Node19 -->
<g id="edge18" class="edge">
<title>Node17&#45;&gt;Node19</title>
<path fill="none" stroke="#63b8ff" d="M1413.14,-47.95C1426.88,-38.03 1442.51,-26.74 1452.99,-19.18"/>
<polygon fill="#63b8ff" stroke="#63b8ff" points="1411.31,-44.96 1405.25,-53.65 1415.41,-50.64 1411.31,-44.96"/>
</g>
<!-- Node37 -->
<g id="node37" class="node">
<title>Node37</title>
<g id="a_node37"><a xlink:href="fvb_8h.html" target="_top" xlink:title=" ">
<polygon fill="white" stroke="#666666" points="2081.5,-481 1956.5,-481 1956.5,-451 2081.5,-451 2081.5,-481"/>
<text text-anchor="start" x="1964.5" y="-469" font-family="Helvetica,sans-Serif" font-size="10.00">include/JSystem/JStudio</text>
<text text-anchor="middle" x="2019" y="-458" font-family="Helvetica,sans-Serif" font-size="10.00">/JStudio/fvb.h</text>
</a>
</g>
</g>
<!-- Node36&#45;&gt;Node37 -->
<g id="edge43" class="edge">
<title>Node36&#45;&gt;Node37</title>
<path fill="none" stroke="#63b8ff" d="M1893.75,-512.8C1920.95,-502.86 1954.17,-490.71 1979.56,-481.43"/>
<polygon fill="#63b8ff" stroke="#63b8ff" points="1892.88,-509.4 1884.69,-516.12 1895.29,-515.97 1892.88,-509.4"/>
</g>
<!-- Node64 -->
<g id="node47" class="node">
<title>Node64</title>
<g id="a_node47"><a xlink:href="fvb-data-parse_8cpp.html" target="_top" xlink:title=" ">
<polygon fill="white" stroke="#666666" points="1912,-481 1776,-481 1776,-451 1912,-451 1912,-481"/>
<text text-anchor="start" x="1784" y="-469" font-family="Helvetica,sans-Serif" font-size="10.00">libs/JSystem/JStudio</text>
<text text-anchor="middle" x="1844" y="-458" font-family="Helvetica,sans-Serif" font-size="10.00">/JStudio/fvb&#45;data&#45;parse.cpp</text>
</a>
</g>
</g>
<!-- Node36&#45;&gt;Node64 -->
<g id="edge56" class="edge">
<title>Node36&#45;&gt;Node64</title>
<path fill="none" stroke="#63b8ff" d="M1844,-505.39C1844,-497.13 1844,-488.28 1844,-481.16"/>
<polygon fill="#63b8ff" stroke="#63b8ff" points="1840.5,-505.28 1844,-515.28 1847.5,-505.28 1840.5,-505.28"/>
</g>
<!-- Node38 -->
<g id="node38" class="node">
<title>Node38</title>
<g id="a_node38"><a xlink:href="jstudio-control_8h.html" target="_top" xlink:title=" ">
<polygon fill="white" stroke="#666666" points="2126.5,-415 2001.5,-415 2001.5,-385 2126.5,-385 2126.5,-415"/>
<text text-anchor="start" x="2009.5" y="-403" font-family="Helvetica,sans-Serif" font-size="10.00">include/JSystem/JStudio</text>
<text text-anchor="middle" x="2064" y="-392" font-family="Helvetica,sans-Serif" font-size="10.00">/JStudio/jstudio&#45;control.h</text>
</a>
</g>
</g>
<!-- Node37&#45;&gt;Node38 -->
<g id="edge44" class="edge">
<title>Node37&#45;&gt;Node38</title>
<path fill="none" stroke="#63b8ff" d="M2035.6,-441.39C2041.79,-432.59 2048.63,-422.86 2054.04,-415.16"/>
<polygon fill="#63b8ff" stroke="#63b8ff" points="2032.75,-439.36 2029.86,-449.56 2038.47,-443.39 2032.75,-439.36"/>
</g>
<!-- Node39 -->
<g id="node39" class="node">
<title>Node39</title>
<g id="a_node39"><a xlink:href="jstudio-object_8h.html" target="_top" xlink:title=" ">
<polygon fill="white" stroke="#666666" points="2081.5,-349 1956.5,-349 1956.5,-319 2081.5,-319 2081.5,-349"/>
<text text-anchor="start" x="1964.5" y="-337" font-family="Helvetica,sans-Serif" font-size="10.00">include/JSystem/JStudio</text>
<text text-anchor="middle" x="2019" y="-326" font-family="Helvetica,sans-Serif" font-size="10.00">/JStudio/jstudio&#45;object.h</text>
</a>
</g>
</g>
<!-- Node37&#45;&gt;Node39 -->
<g id="edge54" class="edge">
<title>Node37&#45;&gt;Node39</title>
<path fill="none" stroke="#63b8ff" d="M2003.64,-441.15C1999.32,-433.16 1995.2,-423.99 1993,-415 1989.83,-402.05 1989.83,-397.95 1993,-385 1996.16,-372.07 2003.3,-358.77 2009.3,-349.14"/>
<polygon fill="#63b8ff" stroke="#63b8ff" points="2000.48,-442.67 2008.54,-449.55 2006.53,-439.15 2000.48,-442.67"/>
</g>
<!-- Node63 -->
<g id="node46" class="node">
<title>Node63</title>
<g id="a_node46"><a xlink:href="fvb_8cpp.html" target="_top" xlink:title=" ">
<polygon fill="white" stroke="#666666" points="2253.5,-415 2144.5,-415 2144.5,-385 2253.5,-385 2253.5,-415"/>
<text text-anchor="start" x="2152.5" y="-403" font-family="Helvetica,sans-Serif" font-size="10.00">libs/JSystem/JStudio</text>
<text text-anchor="middle" x="2199" y="-392" font-family="Helvetica,sans-Serif" font-size="10.00">/JStudio/fvb.cpp</text>
</a>
</g>
</g>
<!-- Node37&#45;&gt;Node63 -->
<g id="edge55" class="edge">
<title>Node37&#45;&gt;Node63</title>
<path fill="none" stroke="#63b8ff" d="M2070.17,-446.8C2098.15,-436.86 2132.31,-424.71 2158.43,-415.43"/>
<polygon fill="#63b8ff" stroke="#63b8ff" points="2069.07,-443.48 2060.82,-450.13 2071.42,-450.08 2069.07,-443.48"/>
</g>
<!-- Node38&#45;&gt;Node39 -->
<g id="edge45" class="edge">
<title>Node38&#45;&gt;Node39</title>
<path fill="none" stroke="#63b8ff" d="M2047.4,-375.39C2041.21,-366.59 2034.37,-356.86 2028.96,-349.16"/>
<polygon fill="#63b8ff" stroke="#63b8ff" points="2044.53,-377.39 2053.14,-383.56 2050.25,-373.36 2044.53,-377.39"/>
</g>
<!-- Node62 -->
<g id="node45" class="node">
<title>Node62</title>
<g id="a_node45"><a xlink:href="jstudio-control_8cpp.html" target="_top" xlink:title=" ">
<polygon fill="white" stroke="#666666" points="2234,-349 2100,-349 2100,-319 2234,-319 2234,-349"/>
<text text-anchor="start" x="2108" y="-337" font-family="Helvetica,sans-Serif" font-size="10.00">libs/JSystem/JStudio</text>
<text text-anchor="middle" x="2167" y="-326" font-family="Helvetica,sans-Serif" font-size="10.00">/JStudio/jstudio&#45;control.cpp</text>
</a>
</g>
</g>
<!-- Node38&#45;&gt;Node62 -->
<g id="edge53" class="edge">
<title>Node38&#45;&gt;Node62</title>
<path fill="none" stroke="#63b8ff" d="M2096.77,-378.64C2112.13,-369.09 2130.06,-357.95 2143.96,-349.31"/>
<polygon fill="#63b8ff" stroke="#63b8ff" points="2095.05,-375.59 2088.4,-383.84 2098.74,-381.53 2095.05,-375.59"/>
</g>
<!-- Node39&#45;&gt;Node6 -->
<g id="edge51" class="edge">
<title>Node39&#45;&gt;Node6</title>
<path fill="none" stroke="#63b8ff" d="M2085.26,-315.52C2118.53,-305.81 2154.57,-293.6 2168,-283 2192.69,-263.52 2208.47,-228.26 2214.82,-211.85"/>
<polygon fill="#63b8ff" stroke="#63b8ff" points="2084.7,-312.04 2076.05,-318.16 2086.62,-318.77 2084.7,-312.04"/>
</g>
<!-- Node40 -->
<g id="node40" class="node">
<title>Node40</title>
<g id="a_node40"><a xlink:href="JStudio_2JStudio__JAudio2_2control_8h.html" target="_top" xlink:title=" ">
<polygon fill="#fff0f0" stroke="red" points="2348.5,-283 2215.5,-283 2215.5,-253 2348.5,-253 2348.5,-283"/>
<text text-anchor="start" x="2223.5" y="-271" font-family="Helvetica,sans-Serif" font-size="10.00">include/JSystem/JStudio</text>
<text text-anchor="middle" x="2282" y="-260" font-family="Helvetica,sans-Serif" font-size="10.00">/JStudio_JAudio2/control.h</text>
</a>
</g>
</g>
<!-- Node39&#45;&gt;Node40 -->
<g id="edge46" class="edge">
<title>Node39&#45;&gt;Node40</title>
<path fill="none" stroke="#63b8ff" d="M2089.53,-315.84C2131.2,-305.7 2183.36,-293 2222.87,-283.39"/>
<polygon fill="#63b8ff" stroke="#63b8ff" points="2088.71,-312.43 2079.82,-318.2 2090.36,-319.24 2088.71,-312.43"/>
</g>
<!-- Node43 -->
<g id="node42" class="node">
<title>Node43</title>
<g id="a_node42"><a xlink:href="JStudio_2JStudio__JParticle_2control_8h.html" target="_top" xlink:title=" ">
<polygon fill="#fff0f0" stroke="red" points="1863,-283 1727,-283 1727,-253 1863,-253 1863,-283"/>
<text text-anchor="start" x="1735" y="-271" font-family="Helvetica,sans-Serif" font-size="10.00">include/JSystem/JStudio</text>
<text text-anchor="middle" x="1795" y="-260" font-family="Helvetica,sans-Serif" font-size="10.00">/JStudio_JParticle/control.h</text>
</a>
</g>
</g>
<!-- Node39&#45;&gt;Node43 -->
<g id="edge49" class="edge">
<title>Node39&#45;&gt;Node43</title>
<path fill="none" stroke="#63b8ff" d="M1957.79,-315.51C1922.49,-305.43 1878.65,-292.9 1845.37,-283.39"/>
<polygon fill="#63b8ff" stroke="#63b8ff" points="1956.42,-318.76 1967,-318.14 1958.34,-312.03 1956.42,-318.76"/>
</g>
<!-- Node47 -->
<g id="node43" class="node">
<title>Node47</title>
<g id="a_node43"><a xlink:href="JStudio_2JStudio__JStage_2control_8h.html" target="_top" xlink:title=" ">
<polygon fill="#fff0f0" stroke="red" points="2009,-283 1881,-283 1881,-253 2009,-253 2009,-283"/>
<text text-anchor="start" x="1889" y="-271" font-family="Helvetica,sans-Serif" font-size="10.00">include/JSystem/JStudio</text>
<text text-anchor="middle" x="1945" y="-260" font-family="Helvetica,sans-Serif" font-size="10.00">/JStudio_JStage/control.h</text>
</a>
</g>
</g>
<!-- Node39&#45;&gt;Node47 -->
<g id="edge50" class="edge">
<title>Node39&#45;&gt;Node47</title>
<path fill="none" stroke="#63b8ff" d="M1994.05,-311.42C1983.37,-302.18 1971.19,-291.65 1961.63,-283.39"/>
<polygon fill="#63b8ff" stroke="#63b8ff" points="1991.58,-313.91 2001.43,-317.81 1996.16,-308.62 1991.58,-313.91"/>
</g>
<!-- Node61 -->
<g id="node44" class="node">
<title>Node61</title>
<g id="a_node44"><a xlink:href="jstudio-object_8cpp.html" target="_top" xlink:title=" ">
<polygon fill="white" stroke="#666666" points="2158.5,-283 2027.5,-283 2027.5,-253 2158.5,-253 2158.5,-283"/>
<text text-anchor="start" x="2035.5" y="-271" font-family="Helvetica,sans-Serif" font-size="10.00">libs/JSystem/JStudio</text>
<text text-anchor="middle" x="2093" y="-260" font-family="Helvetica,sans-Serif" font-size="10.00">/JStudio/jstudio&#45;object.cpp</text>
</a>
</g>
</g>
<!-- Node39&#45;&gt;Node61 -->
<g id="edge52" class="edge">
<title>Node39&#45;&gt;Node61</title>
<path fill="none" stroke="#63b8ff" d="M2043.95,-311.42C2054.63,-302.18 2066.81,-291.65 2076.37,-283.39"/>
<polygon fill="#63b8ff" stroke="#63b8ff" points="2041.84,-308.62 2036.57,-317.81 2046.42,-313.91 2041.84,-308.62"/>
</g>
<!-- Node40&#45;&gt;Node6 -->
<g id="edge47" class="edge">
<title>Node40&#45;&gt;Node6</title>
<path fill="none" stroke="#63b8ff" d="M2259.94,-244.94C2248.58,-233.58 2235.36,-220.36 2226.84,-211.84"/>
<polygon fill="#63b8ff" stroke="#63b8ff" points="2257.18,-247.13 2266.73,-251.73 2262.13,-242.18 2257.18,-247.13"/>
</g>
<!-- Node41 -->
<g id="node41" class="node">
<title>Node41</title>
<g id="a_node41"><a xlink:href="JStudio_2JStudio__JAudio2_2control_8cpp.html" target="_top" xlink:title=" ">
<polygon fill="white" stroke="#666666" points="2429.5,-217 2286.5,-217 2286.5,-187 2429.5,-187 2429.5,-217"/>
<text text-anchor="start" x="2294.5" y="-205" font-family="Helvetica,sans-Serif" font-size="10.00">libs/JSystem/JStudio</text>
<text text-anchor="middle" x="2358" y="-194" font-family="Helvetica,sans-Serif" font-size="10.00">/JStudio_JAudio2/control.cpp</text>
</a>
</g>
</g>
<!-- Node40&#45;&gt;Node41 -->
<g id="edge48" class="edge">
<title>Node40&#45;&gt;Node41</title>
<path fill="none" stroke="#63b8ff" d="M2307.62,-245.42C2318.59,-236.18 2331.11,-225.65 2340.92,-217.39"/>
<polygon fill="#63b8ff" stroke="#63b8ff" points="2305.42,-242.7 2300.02,-251.82 2309.93,-248.06 2305.42,-242.7"/>
</g>
</g>
</svg>
