<?xml version="1.0" encoding="UTF-8" standalone="no"?>
<!DOCTYPE svg PUBLIC "-//W3C//DTD SVG 1.1//EN"
 "http://www.w3.org/Graphics/SVG/1.1/DTD/svg11.dtd">
<!-- Generated by graphviz version 7.0.4 (20221203.1631)
 -->
<!-- Title: include/Z2AudioLib/Z2SoundHandles.h Pages: 1 -->
<svg width="3564pt" height="566pt"
 viewBox="0.00 0.00 3563.86 566.00" xmlns="http://www.w3.org/2000/svg" xmlns:xlink="http://www.w3.org/1999/xlink">
<g id="graph0" class="graph" transform="scale(1 1) rotate(0) translate(4 562)">
<title>include/Z2AudioLib/Z2SoundHandles.h</title>
<!-- Node1 -->
<g id="node1" class="node">
<title>Node1</title>
<g id="a_node1"><a xlink:title=" ">
<polygon fill="#999999" stroke="#666666" points="2855.5,-558 2753.5,-558 2753.5,-528 2855.5,-528 2855.5,-558"/>
<text text-anchor="start" x="2761.5" y="-546" font-family="Helvetica,sans-Serif" font-size="10.00">include/Z2AudioLib</text>
<text text-anchor="middle" x="2804.5" y="-535" font-family="Helvetica,sans-Serif" font-size="10.00">/Z2SoundHandles.h</text>
</a>
</g>
</g>
<!-- Node2 -->
<g id="node2" class="node">
<title>Node2</title>
<g id="a_node2"><a xlink:href="Z2SoundObject_8h.html" target="_top" xlink:title=" ">
<polygon fill="white" stroke="#666666" points="2775.5,-492 2675.5,-492 2675.5,-462 2775.5,-462 2775.5,-492"/>
<text text-anchor="start" x="2683.5" y="-480" font-family="Helvetica,sans-Serif" font-size="10.00">include/Z2AudioLib</text>
<text text-anchor="middle" x="2725.5" y="-469" font-family="Helvetica,sans-Serif" font-size="10.00">/Z2SoundObject.h</text>
</a>
</g>
</g>
<!-- Node1&#45;&gt;Node2 -->
<g id="edge1" class="edge">
<title>Node1&#45;&gt;Node2</title>
<path fill="none" stroke="#63b8ff" d="M2778.21,-520.7C2766.72,-511.4 2753.56,-500.73 2743.26,-492.39"/>
<polygon fill="#63b8ff" stroke="#63b8ff" points="2775.82,-523.27 2785.79,-526.84 2780.22,-517.83 2775.82,-523.27"/>
</g>
<!-- Node254 -->
<g id="node50" class="node">
<title>Node254</title>
<g id="a_node50"><a xlink:href="Z2SoundHandles_8cpp.html" target="_top" xlink:title=" ">
<polygon fill="white" stroke="#666666" points="2973.5,-486.5 2793.5,-486.5 2793.5,-467.5 2973.5,-467.5 2973.5,-486.5"/>
<text text-anchor="middle" x="2883.5" y="-474.5" font-family="Helvetica,sans-Serif" font-size="10.00">libs/Z2AudioLib/Z2SoundHandles.cpp</text>
</a>
</g>
</g>
<!-- Node1&#45;&gt;Node254 -->
<g id="edge72" class="edge">
<title>Node1&#45;&gt;Node254</title>
<path fill="none" stroke="#63b8ff" d="M2830.91,-520.6C2845.12,-509.1 2861.87,-495.52 2872.58,-486.84"/>
<polygon fill="#63b8ff" stroke="#63b8ff" points="2828.78,-517.83 2823.21,-526.84 2833.18,-523.27 2828.78,-517.83"/>
</g>
<!-- Node3 -->
<g id="node3" class="node">
<title>Node3</title>
<g id="a_node3"><a xlink:href="Z2Creature_8h.html" target="_top" xlink:title=" ">
<polygon fill="white" stroke="#666666" points="622.5,-426 522.5,-426 522.5,-396 622.5,-396 622.5,-426"/>
<text text-anchor="start" x="530.5" y="-414" font-family="Helvetica,sans-Serif" font-size="10.00">include/Z2AudioLib</text>
<text text-anchor="middle" x="572.5" y="-403" font-family="Helvetica,sans-Serif" font-size="10.00">/Z2Creature.h</text>
</a>
</g>
</g>
<!-- Node2&#45;&gt;Node3 -->
<g id="edge2" class="edge">
<title>Node2&#45;&gt;Node3</title>
<path fill="none" stroke="#63b8ff" d="M2663.99,-474.17C2347.95,-464.78 910.46,-422.05 622.72,-413.49"/>
<polygon fill="#63b8ff" stroke="#63b8ff" points="2663.58,-477.66 2673.68,-474.46 2663.78,-470.66 2663.58,-477.66"/>
</g>
<!-- Node251 -->
<g id="node43" class="node">
<title>Node251</title>
<g id="a_node43"><a xlink:href="Z2WolfHowlMgr_8h.html" target="_top" xlink:title=" ">
<polygon fill="white" stroke="#666666" points="2384.5,-426 2284.5,-426 2284.5,-396 2384.5,-396 2384.5,-426"/>
<text text-anchor="start" x="2292.5" y="-414" font-family="Helvetica,sans-Serif" font-size="10.00">include/Z2AudioLib</text>
<text text-anchor="middle" x="2334.5" y="-403" font-family="Helvetica,sans-Serif" font-size="10.00">/Z2WolfHowlMgr.h</text>
</a>
</g>
</g>
<!-- Node2&#45;&gt;Node251 -->
<g id="edge62" class="edge">
<title>Node2&#45;&gt;Node251</title>
<path fill="none" stroke="#63b8ff" d="M2664.22,-465.97C2587.21,-453.36 2456.46,-431.96 2384.93,-420.25"/>
<polygon fill="#63b8ff" stroke="#63b8ff" points="2663.26,-469.36 2673.69,-467.52 2664.39,-462.45 2663.26,-469.36"/>
</g>
<!-- Node141 -->
<g id="node45" class="node">
<title>Node141</title>
<g id="a_node45"><a xlink:href="d__bomb_8h.html" target="_top" xlink:title=" ">
<polygon fill="white" stroke="#666666" points="2816,-420.5 2715,-420.5 2715,-401.5 2816,-401.5 2816,-420.5"/>
<text text-anchor="middle" x="2765.5" y="-408.5" font-family="Helvetica,sans-Serif" font-size="10.00">include/d/d_bomb.h</text>
</a>
</g>
</g>
<!-- Node2&#45;&gt;Node141 -->
<g id="edge65" class="edge">
<title>Node2&#45;&gt;Node141</title>
<path fill="none" stroke="#63b8ff" d="M2740.33,-452.28C2747.18,-441.31 2754.91,-428.94 2759.97,-420.84"/>
<polygon fill="#63b8ff" stroke="#63b8ff" points="2737.51,-450.18 2735.18,-460.51 2743.45,-453.89 2737.51,-450.18"/>
</g>
<!-- Node144 -->
<g id="node47" class="node">
<title>Node144</title>
<g id="a_node47"><a xlink:href="d__a__boomerang_8h.html" target="_top" xlink:title=" ">
<polygon fill="white" stroke="#666666" points="3015,-294 2866,-294 2866,-264 3015,-264 3015,-294"/>
<text text-anchor="start" x="2874" y="-282" font-family="Helvetica,sans-Serif" font-size="10.00">include/rel/d/a/d_a</text>
<text text-anchor="middle" x="2940.5" y="-271" font-family="Helvetica,sans-Serif" font-size="10.00">_boomerang/d_a_boomerang.h</text>
</a>
</g>
</g>
<!-- Node2&#45;&gt;Node144 -->
<g id="edge68" class="edge">
<title>Node2&#45;&gt;Node144</title>
<path fill="none" stroke="#63b8ff" d="M2712.84,-451.26C2698.47,-419.3 2680.54,-363.76 2709.5,-330 2729.64,-306.53 2806.16,-293.36 2865.68,-286.5"/>
<polygon fill="#63b8ff" stroke="#63b8ff" points="2709.6,-452.6 2717.05,-460.14 2715.93,-449.61 2709.6,-452.6"/>
</g>
<!-- Node148 -->
<g id="node48" class="node">
<title>Node148</title>
<g id="a_node48"><a xlink:href="d__a__canoe_8h.html" target="_top" xlink:title=" ">
<polygon fill="white" stroke="#666666" points="2940.5,-426 2834.5,-426 2834.5,-396 2940.5,-396 2940.5,-426"/>
<text text-anchor="start" x="2842.5" y="-414" font-family="Helvetica,sans-Serif" font-size="10.00">include/rel/d/a/d_a</text>
<text text-anchor="middle" x="2887.5" y="-403" font-family="Helvetica,sans-Serif" font-size="10.00">_canoe/d_a_canoe.h</text>
</a>
</g>
</g>
<!-- Node2&#45;&gt;Node148 -->
<g id="edge70" class="edge">
<title>Node2&#45;&gt;Node148</title>
<path fill="none" stroke="#63b8ff" d="M2772.56,-457.41C2797.55,-447.54 2827.79,-435.59 2850.99,-426.43"/>
<polygon fill="#63b8ff" stroke="#63b8ff" points="2771.28,-454.15 2763.26,-461.08 2773.85,-460.66 2771.28,-454.15"/>
</g>
<!-- Node253 -->
<g id="node49" class="node">
<title>Node253</title>
<g id="a_node49"><a xlink:href="Z2SoundObject_8cpp.html" target="_top" xlink:title=" ">
<polygon fill="white" stroke="#666666" points="3132,-420.5 2959,-420.5 2959,-401.5 3132,-401.5 3132,-420.5"/>
<text text-anchor="middle" x="3045.5" y="-408.5" font-family="Helvetica,sans-Serif" font-size="10.00">libs/Z2AudioLib/Z2SoundObject.cpp</text>
</a>
</g>
</g>
<!-- Node2&#45;&gt;Node253 -->
<g id="edge71" class="edge">
<title>Node2&#45;&gt;Node253</title>
<path fill="none" stroke="#63b8ff" d="M2787.01,-461.51C2865.16,-444.92 2945.05,-430.05 2995.33,-420.94"/>
<polygon fill="#63b8ff" stroke="#63b8ff" points="2786.53,-458.04 2777.48,-463.55 2787.99,-464.88 2786.53,-458.04"/>
</g>
<!-- Node4 -->
<g id="node4" class="node">
<title>Node4</title>
<g id="a_node4"><a xlink:href="Z2SoundObjMgr_8h.html" target="_top" xlink:title=" ">
<polygon fill="white" stroke="#666666" points="740.5,-294 640.5,-294 640.5,-264 740.5,-264 740.5,-294"/>
<text text-anchor="start" x="648.5" y="-282" font-family="Helvetica,sans-Serif" font-size="10.00">include/Z2AudioLib</text>
<text text-anchor="middle" x="690.5" y="-271" font-family="Helvetica,sans-Serif" font-size="10.00">/Z2SoundObjMgr.h</text>
</a>
</g>
</g>
<!-- Node3&#45;&gt;Node4 -->
<g id="edge3" class="edge">
<title>Node3&#45;&gt;Node4</title>
<path fill="none" stroke="#63b8ff" d="M593.17,-387.22C617.44,-360.49 656.95,-316.96 677.36,-294.47"/>
<polygon fill="#63b8ff" stroke="#63b8ff" points="590.73,-384.71 586.6,-394.47 595.91,-389.42 590.73,-384.71"/>
</g>
<!-- Node9 -->
<g id="node14" class="node">
<title>Node9</title>
<g id="a_node14"><a xlink:href="d__a__alink_8h.html" target="_top" xlink:title=" ">
<polygon fill="white" stroke="#666666" points="1739.5,-354.5 1623.5,-354.5 1623.5,-335.5 1739.5,-335.5 1739.5,-354.5"/>
<text text-anchor="middle" x="1681.5" y="-342.5" font-family="Helvetica,sans-Serif" font-size="10.00">include/d/a/d_a_alink.h</text>
</a>
</g>
</g>
<!-- Node3&#45;&gt;Node9 -->
<g id="edge15" class="edge">
<title>Node3&#45;&gt;Node9</title>
<path fill="none" stroke="#63b8ff" d="M634.11,-406.44C829.3,-395.18 1432.33,-360.38 1623.05,-349.37"/>
<polygon fill="#63b8ff" stroke="#63b8ff" points="633.96,-402.95 624.18,-407.02 634.37,-409.94 633.96,-402.95"/>
</g>
<!-- Node18 -->
<g id="node18" class="node">
<title>Node18</title>
<g id="a_node18"><a xlink:href="d__a__e__wb_8h.html" target="_top" xlink:title=" ">
<polygon fill="white" stroke="#666666" points="406.5,-151 296.5,-151 296.5,-121 406.5,-121 406.5,-151"/>
<text text-anchor="start" x="304.5" y="-139" font-family="Helvetica,sans-Serif" font-size="10.00">include/rel/d/a/e/d</text>
<text text-anchor="middle" x="351.5" y="-128" font-family="Helvetica,sans-Serif" font-size="10.00">_a_e_wb/d_a_e_wb.h</text>
</a>
</g>
</g>
<!-- Node3&#45;&gt;Node18 -->
<g id="edge59" class="edge">
<title>Node3&#45;&gt;Node18</title>
<path fill="none" stroke="#63b8ff" d="M534.26,-390C498.51,-369.75 445.5,-335.52 410.5,-294 373.53,-250.14 358.52,-180.81 353.57,-151.19"/>
<polygon fill="#63b8ff" stroke="#63b8ff" points="532.55,-393.06 542.99,-394.85 535.95,-386.94 532.55,-393.06"/>
</g>
<!-- Node132 -->
<g id="node39" class="node">
<title>Node132</title>
<g id="a_node39"><a xlink:href="d__a__horse_8h.html" target="_top" xlink:title=" ">
<polygon fill="white" stroke="#666666" points="521,-294 420,-294 420,-264 521,-264 521,-294"/>
<text text-anchor="start" x="428" y="-282" font-family="Helvetica,sans-Serif" font-size="10.00">include/rel/d/a/d_a</text>
<text text-anchor="middle" x="470.5" y="-271" font-family="Helvetica,sans-Serif" font-size="10.00">_horse/d_a_horse.h</text>
</a>
</g>
</g>
<!-- Node3&#45;&gt;Node132 -->
<g id="edge53" class="edge">
<title>Node3&#45;&gt;Node132</title>
<path fill="none" stroke="#63b8ff" d="M554.36,-386.87C533.36,-360.11 499.43,-316.87 481.86,-294.47"/>
<polygon fill="#63b8ff" stroke="#63b8ff" points="551.33,-388.69 560.26,-394.4 556.84,-384.37 551.33,-388.69"/>
</g>
<!-- Node149 -->
<g id="node40" class="node">
<title>Node149</title>
<g id="a_node40"><a xlink:href="d__a__mg__rod_8h.html" target="_top" xlink:title=" ">
<polygon fill="white" stroke="#666666" points="772.5,-85 654.5,-85 654.5,-55 772.5,-55 772.5,-85"/>
<text text-anchor="start" x="662.5" y="-73" font-family="Helvetica,sans-Serif" font-size="10.00">include/rel/d/a/d_a</text>
<text text-anchor="middle" x="713.5" y="-62" font-family="Helvetica,sans-Serif" font-size="10.00">_mg_rod/d_a_mg_rod.h</text>
</a>
</g>
</g>
<!-- Node3&#45;&gt;Node149 -->
<g id="edge57" class="edge">
<title>Node3&#45;&gt;Node149</title>
<path fill="none" stroke="#63b8ff" d="M578.45,-384.54C584.03,-358.45 591.5,-316.62 591.5,-280 591.5,-280 591.5,-280 591.5,-206.5 591.5,-150.15 650.48,-106.66 686.42,-85.38"/>
<polygon fill="#63b8ff" stroke="#63b8ff" points="575.06,-383.67 576.31,-394.19 581.89,-385.19 575.06,-383.67"/>
</g>
<!-- Node249 -->
<g id="node41" class="node">
<title>Node249</title>
<g id="a_node41"><a xlink:href="Z2Creature_8cpp.html" target="_top" xlink:title=" ">
<polygon fill="white" stroke="#666666" points="153,-354.5 0,-354.5 0,-335.5 153,-335.5 153,-354.5"/>
<text text-anchor="middle" x="76.5" y="-342.5" font-family="Helvetica,sans-Serif" font-size="10.00">libs/Z2AudioLib/Z2Creature.cpp</text>
</a>
</g>
</g>
<!-- Node3&#45;&gt;Node249 -->
<g id="edge60" class="edge">
<title>Node3&#45;&gt;Node249</title>
<path fill="none" stroke="#63b8ff" d="M510.87,-403.26C430.56,-394.3 285.82,-377.55 162.5,-360 151.87,-358.49 140.52,-356.74 129.67,-355"/>
<polygon fill="#63b8ff" stroke="#63b8ff" points="510.41,-406.73 520.73,-404.36 511.18,-399.78 510.41,-406.73"/>
</g>
<!-- Node250 -->
<g id="node42" class="node">
<title>Node250</title>
<g id="a_node42"><a xlink:href="Z2LinkMgr_8cpp.html" target="_top" xlink:title=" ">
<polygon fill="white" stroke="#666666" points="323.5,-354.5 171.5,-354.5 171.5,-335.5 323.5,-335.5 323.5,-354.5"/>
<text text-anchor="middle" x="247.5" y="-342.5" font-family="Helvetica,sans-Serif" font-size="10.00">libs/Z2AudioLib/Z2LinkMgr.cpp</text>
</a>
</g>
</g>
<!-- Node3&#45;&gt;Node250 -->
<g id="edge61" class="edge">
<title>Node3&#45;&gt;Node250</title>
<path fill="none" stroke="#63b8ff" d="M511.03,-397.89C447.54,-385.39 349.96,-366.18 293.05,-354.97"/>
<polygon fill="#63b8ff" stroke="#63b8ff" points="510.1,-401.28 520.59,-399.78 511.46,-394.41 510.1,-401.28"/>
</g>
<!-- Node5 -->
<g id="node5" class="node">
<title>Node5</title>
<g id="a_node5"><a xlink:href="Z2AudioMgr_8h.html" target="_top" xlink:title=" ">
<polygon fill="white" stroke="#666666" points="1054.5,-222.5 954.5,-222.5 954.5,-192.5 1054.5,-192.5 1054.5,-222.5"/>
<text text-anchor="start" x="962.5" y="-210.5" font-family="Helvetica,sans-Serif" font-size="10.00">include/Z2AudioLib</text>
<text text-anchor="middle" x="1004.5" y="-199.5" font-family="Helvetica,sans-Serif" font-size="10.00">/Z2AudioMgr.h</text>
</a>
</g>
</g>
<!-- Node4&#45;&gt;Node5 -->
<g id="edge4" class="edge">
<title>Node4&#45;&gt;Node5</title>
<path fill="none" stroke="#63b8ff" d="M751.99,-264.39C811.04,-251.32 899.18,-231.81 954.18,-219.64"/>
<polygon fill="#63b8ff" stroke="#63b8ff" points="751.43,-260.93 742.43,-266.51 752.95,-267.76 751.43,-260.93"/>
</g>
<!-- Node248 -->
<g id="node13" class="node">
<title>Node248</title>
<g id="a_node13"><a xlink:href="Z2SoundObjMgr_8cpp.html" target="_top" xlink:title=" ">
<polygon fill="white" stroke="#666666" points="761,-222.5 620,-222.5 620,-192.5 761,-192.5 761,-222.5"/>
<text text-anchor="start" x="628" y="-210.5" font-family="Helvetica,sans-Serif" font-size="10.00">libs/Z2AudioLib/Z2SoundObj</text>
<text text-anchor="middle" x="690.5" y="-199.5" font-family="Helvetica,sans-Serif" font-size="10.00">Mgr.cpp</text>
</a>
</g>
</g>
<!-- Node4&#45;&gt;Node248 -->
<g id="edge14" class="edge">
<title>Node4&#45;&gt;Node248</title>
<path fill="none" stroke="#63b8ff" d="M690.5,-252.26C690.5,-242.33 690.5,-231.36 690.5,-222.88"/>
<polygon fill="#63b8ff" stroke="#63b8ff" points="687,-252.09 690.5,-262.09 694,-252.09 687,-252.09"/>
</g>
<!-- Node6 -->
<g id="node6" class="node">
<title>Node6</title>
<g id="a_node6"><a xlink:href="m__Do__audio_8h.html" target="_top" xlink:title=" ">
<polygon fill="#fff0f0" stroke="red" points="1274.5,-145.5 1134.5,-145.5 1134.5,-126.5 1274.5,-126.5 1274.5,-145.5"/>
<text text-anchor="middle" x="1204.5" y="-133.5" font-family="Helvetica,sans-Serif" font-size="10.00">include/m_Do/m_Do_audio.h</text>
</a>
</g>
</g>
<!-- Node5&#45;&gt;Node6 -->
<g id="edge5" class="edge">
<title>Node5&#45;&gt;Node6</title>
<path fill="none" stroke="#63b8ff" d="M1056.63,-188.38C1095.85,-174.76 1147.93,-156.66 1178.66,-145.98"/>
<polygon fill="#63b8ff" stroke="#63b8ff" points="1055.67,-185.01 1047.37,-191.6 1057.96,-191.63 1055.67,-185.01"/>
</g>
<!-- Node20 -->
<g id="node7" class="node">
<title>Node20</title>
<g id="a_node7"><a xlink:href="d__a__alink_8cpp.html" target="_top" xlink:title=" ">
<polygon fill="white" stroke="#666666" points="1395,-19 1286,-19 1286,0 1395,0 1395,-19"/>
<text text-anchor="middle" x="1340.5" y="-7" font-family="Helvetica,sans-Serif" font-size="10.00">src/d/a/d_a_alink.cpp</text>
</a>
</g>
</g>
<!-- Node5&#45;&gt;Node20 -->
<g id="edge9" class="edge">
<title>Node5&#45;&gt;Node20</title>
<path fill="none" stroke="#63b8ff" d="M1060.51,-188.98C1063.2,-188.28 1065.88,-187.62 1068.5,-187 1162.82,-164.83 1207.9,-211.59 1283.5,-151 1294.54,-142.15 1327.24,-49.07 1337.43,-19.48"/>
<polygon fill="#63b8ff" stroke="#63b8ff" points="1059.59,-185.6 1050.87,-191.62 1061.43,-192.36 1059.59,-185.6"/>
</g>
<!-- Node97 -->
<g id="node8" class="node">
<title>Node97</title>
<g id="a_node8"><a xlink:href="d__event__manager_8cpp.html" target="_top" xlink:title=" ">
<polygon fill="white" stroke="#666666" points="982,-85 879,-85 879,-55 982,-55 982,-85"/>
<text text-anchor="start" x="887" y="-73" font-family="Helvetica,sans-Serif" font-size="10.00">src/d/event/d_event</text>
<text text-anchor="middle" x="930.5" y="-62" font-family="Helvetica,sans-Serif" font-size="10.00">_manager.cpp</text>
</a>
</g>
</g>
<!-- Node5&#45;&gt;Node97 -->
<g id="edge10" class="edge">
<title>Node5&#45;&gt;Node97</title>
<path fill="none" stroke="#63b8ff" d="M977.16,-184.6C967.1,-175.24 956.48,-163.57 949.5,-151 937.85,-130.03 933.31,-102.13 931.56,-85.43"/>
<polygon fill="#63b8ff" stroke="#63b8ff" points="974.8,-187.19 984.61,-191.2 979.45,-181.95 974.8,-187.19"/>
</g>
<!-- Node247 -->
<g id="node9" class="node">
<title>Node247</title>
<g id="a_node9"><a xlink:href="Z2AudioMgr_8cpp.html" target="_top" xlink:title=" ">
<polygon fill="white" stroke="#666666" points="1116.5,-145.5 958.5,-145.5 958.5,-126.5 1116.5,-126.5 1116.5,-145.5"/>
<text text-anchor="middle" x="1037.5" y="-133.5" font-family="Helvetica,sans-Serif" font-size="10.00">libs/Z2AudioLib/Z2AudioMgr.cpp</text>
</a>
</g>
</g>
<!-- Node5&#45;&gt;Node247 -->
<g id="edge8" class="edge">
<title>Node5&#45;&gt;Node247</title>
<path fill="none" stroke="#63b8ff" d="M1016.26,-181.73C1022.23,-169.15 1029.11,-154.67 1033.38,-145.68"/>
<polygon fill="#63b8ff" stroke="#63b8ff" points="1013.11,-180.2 1011.99,-190.73 1019.44,-183.2 1013.11,-180.2"/>
</g>
<!-- Node43 -->
<g id="node10" class="node">
<title>Node43</title>
<g id="a_node10"><a xlink:href="d__menu__window_8cpp.html" target="_top" xlink:title=" ">
<polygon fill="white" stroke="#666666" points="2662,-145.5 2503,-145.5 2503,-126.5 2662,-126.5 2662,-145.5"/>
<text text-anchor="middle" x="2582.5" y="-133.5" font-family="Helvetica,sans-Serif" font-size="10.00">src/d/menu/d_menu_window.cpp</text>
</a>
</g>
</g>
<!-- Node5&#45;&gt;Node43 -->
<g id="edge11" class="edge">
<title>Node5&#45;&gt;Node43</title>
<path fill="none" stroke="#63b8ff" d="M1065.92,-192.57C1077.68,-190.35 1089.93,-188.35 1101.5,-187 1240.61,-170.78 2214.57,-145.98 2502.51,-138.93"/>
<polygon fill="#63b8ff" stroke="#63b8ff" points="1065.47,-189.09 1056.33,-194.45 1066.82,-195.96 1065.47,-189.09"/>
</g>
<!-- Node44 -->
<g id="node11" class="node">
<title>Node44</title>
<g id="a_node11"><a xlink:href="d__meter__map_8cpp.html" target="_top" xlink:title=" ">
<polygon fill="white" stroke="#666666" points="2784.5,-151 2680.5,-151 2680.5,-121 2784.5,-121 2784.5,-151"/>
<text text-anchor="start" x="2688.5" y="-139" font-family="Helvetica,sans-Serif" font-size="10.00">src/d/meter/d_meter</text>
<text text-anchor="middle" x="2732.5" y="-128" font-family="Helvetica,sans-Serif" font-size="10.00">_map.cpp</text>
</a>
</g>
</g>
<!-- Node5&#45;&gt;Node44 -->
<g id="edge12" class="edge">
<title>Node5&#45;&gt;Node44</title>
<path fill="none" stroke="#63b8ff" d="M1065.91,-192.47C1077.67,-190.26 1089.92,-188.29 1101.5,-187 1794.75,-109.97 1978.21,-236.24 2670.5,-151 2673.68,-150.61 2676.93,-150.13 2680.2,-149.58"/>
<polygon fill="#63b8ff" stroke="#63b8ff" points="1065.46,-188.99 1056.32,-194.35 1066.8,-195.86 1065.46,-188.99"/>
</g>
<!-- Node45 -->
<g id="node12" class="node">
<title>Node45</title>
<g id="a_node12"><a xlink:href="d__save_8cpp.html" target="_top" xlink:title=" ">
<polygon fill="white" stroke="#666666" points="1928,-145.5 1813,-145.5 1813,-126.5 1928,-126.5 1928,-145.5"/>
<text text-anchor="middle" x="1870.5" y="-133.5" font-family="Helvetica,sans-Serif" font-size="10.00">src/d/save/d_save.cpp</text>
</a>
</g>
</g>
<!-- Node5&#45;&gt;Node45 -->
<g id="edge13" class="edge">
<title>Node5&#45;&gt;Node45</title>
<path fill="none" stroke="#63b8ff" d="M1065.96,-192.86C1077.71,-190.62 1089.95,-188.53 1101.5,-187 1365.77,-152 1684.51,-141.2 1812.84,-138.12"/>
<polygon fill="#63b8ff" stroke="#63b8ff" points="1065.5,-189.38 1056.37,-194.75 1066.85,-196.25 1065.5,-189.38"/>
</g>
<!-- Node6&#45;&gt;Node20 -->
<g id="edge6" class="edge">
<title>Node6&#45;&gt;Node20</title>
<path fill="none" stroke="#63b8ff" d="M1220.96,-118.83C1237.72,-102.48 1264.57,-76.61 1288.5,-55 1302.61,-42.26 1319.4,-28.06 1330,-19.21"/>
<polygon fill="#63b8ff" stroke="#63b8ff" points="1218.96,-115.88 1214.27,-125.38 1223.86,-120.88 1218.96,-115.88"/>
</g>
<!-- Node6&#45;&gt;Node97 -->
<g id="edge7" class="edge">
<title>Node6&#45;&gt;Node97</title>
<path fill="none" stroke="#63b8ff" d="M1155.19,-123.48C1106.34,-112.07 1031.84,-94.67 982.18,-83.07"/>
<polygon fill="#63b8ff" stroke="#63b8ff" points="1154.11,-126.82 1164.64,-125.69 1155.7,-120.01 1154.11,-126.82"/>
</g>
<!-- Node9&#45;&gt;Node20 -->
<g id="edge52" class="edge">
<title>Node9&#45;&gt;Node20</title>
<path fill="none" stroke="#63b8ff" d="M1611.87,-340.73C1472.12,-332.54 1165.38,-305.92 1101.5,-228 1089.95,-213.91 1089.78,-200.95 1101.5,-187 1160.99,-116.16 1237.27,-212.36 1306.5,-151 1345.75,-116.21 1343.57,-44.58 1341.45,-19.45"/>
<polygon fill="#63b8ff" stroke="#63b8ff" points="1611.55,-344.21 1621.74,-341.29 1611.95,-337.22 1611.55,-344.21"/>
</g>
<!-- Node10 -->
<g id="node15" class="node">
<title>Node10</title>
<g id="a_node15"><a xlink:href="d__com__inf__game_8h.html" target="_top" xlink:title=" ">
<polygon fill="#fff0f0" stroke="red" points="2336.5,-294 2226.5,-294 2226.5,-264 2336.5,-264 2336.5,-294"/>
<text text-anchor="start" x="2234.5" y="-282" font-family="Helvetica,sans-Serif" font-size="10.00">include/d/com/d_com</text>
<text text-anchor="middle" x="2281.5" y="-271" font-family="Helvetica,sans-Serif" font-size="10.00">_inf_game.h</text>
</a>
</g>
</g>
<!-- Node9&#45;&gt;Node10 -->
<g id="edge16" class="edge">
<title>Node9&#45;&gt;Node10</title>
<path fill="none" stroke="#63b8ff" d="M1751.1,-336.58C1871.52,-323.73 2116.32,-297.62 2226.08,-285.91"/>
<polygon fill="#63b8ff" stroke="#63b8ff" points="1750.93,-333.07 1741.35,-337.62 1751.67,-340.04 1750.93,-333.07"/>
</g>
<!-- Node10&#45;&gt;Node20 -->
<g id="edge45" class="edge">
<title>Node10&#45;&gt;Node20</title>
<path fill="none" stroke="#63b8ff" d="M2348.34,-276.3C2589.52,-270.03 3401.86,-247.48 3420.5,-228 3433.1,-214.84 3432.02,-201.12 3420.5,-187 3288.58,-25.4 1711.35,-11.71 1395.4,-10.59"/>
<polygon fill="#63b8ff" stroke="#63b8ff" points="2348.37,-272.8 2338.46,-276.56 2348.55,-279.8 2348.37,-272.8"/>
</g>
<!-- Node10&#45;&gt;Node97 -->
<g id="edge48" class="edge">
<title>Node10&#45;&gt;Node97</title>
<path fill="none" stroke="#63b8ff" d="M2215.08,-277.85C1951.74,-276.98 993.08,-270.86 945.5,-228 905.01,-191.54 918.41,-116.89 926.38,-85.46"/>
<polygon fill="#63b8ff" stroke="#63b8ff" points="2214.83,-281.35 2224.84,-277.89 2214.86,-274.35 2214.83,-281.35"/>
</g>
<!-- Node10&#45;&gt;Node43 -->
<g id="edge49" class="edge">
<title>Node10&#45;&gt;Node43</title>
<path fill="none" stroke="#63b8ff" d="M2347.89,-274.25C2454.07,-267.56 2652.37,-252 2673.5,-228 2685.54,-214.32 2682.78,-202.68 2673.5,-187 2661.11,-166.05 2636.48,-153.3 2615.97,-145.91"/>
<polygon fill="#63b8ff" stroke="#63b8ff" points="2347.94,-270.74 2338.17,-274.85 2348.37,-277.73 2347.94,-270.74"/>
</g>
<!-- Node10&#45;&gt;Node44 -->
<g id="edge50" class="edge">
<title>Node10&#45;&gt;Node44</title>
<path fill="none" stroke="#63b8ff" d="M2348.29,-277.71C2450.5,-276 2639.44,-267.41 2692.5,-228 2717.44,-209.48 2727.08,-172.01 2730.61,-151.4"/>
<polygon fill="#63b8ff" stroke="#63b8ff" points="2348.34,-274.21 2338.39,-277.86 2348.44,-281.21 2348.34,-274.21"/>
</g>
<!-- Node10&#45;&gt;Node45 -->
<g id="edge51" class="edge">
<title>Node10&#45;&gt;Node45</title>
<path fill="none" stroke="#63b8ff" d="M2283.57,-252.12C2283.7,-231.44 2280.15,-203.31 2262.5,-187 2215.07,-143.18 2025.43,-136.77 1928.37,-136.44"/>
<polygon fill="#63b8ff" stroke="#63b8ff" points="2280.08,-251.94 2283.19,-262.06 2287.07,-252.2 2280.08,-251.94"/>
</g>
<!-- Node11 -->
<g id="node16" class="node">
<title>Node11</title>
<g id="a_node16"><a xlink:href="d__a__npc_8h.html" target="_top" xlink:title=" ">
<polygon fill="#fff0f0" stroke="red" points="3171,-217 3060,-217 3060,-198 3171,-198 3171,-217"/>
<text text-anchor="middle" x="3115.5" y="-205" font-family="Helvetica,sans-Serif" font-size="10.00">include/d/a/d_a_npc.h</text>
</a>
</g>
</g>
<!-- Node10&#45;&gt;Node11 -->
<g id="edge17" class="edge">
<title>Node10&#45;&gt;Node11</title>
<path fill="none" stroke="#63b8ff" d="M2347.8,-278.24C2481.01,-277.72 2790.21,-271.43 3045.5,-228 3059.93,-225.55 3075.65,-221.31 3088.54,-217.41"/>
<polygon fill="#63b8ff" stroke="#63b8ff" points="2348.11,-274.74 2338.12,-278.27 2348.13,-281.74 2348.11,-274.74"/>
</g>
<!-- Node17 -->
<g id="node17" class="node">
<title>Node17</title>
<g id="a_node17"><a xlink:href="d__cc__uty_8h.html" target="_top" xlink:title=" ">
<polygon fill="#fff0f0" stroke="red" points="898,-217 779,-217 779,-198 898,-198 898,-217"/>
<text text-anchor="middle" x="838.5" y="-205" font-family="Helvetica,sans-Serif" font-size="10.00">include/d/cc/d_cc_uty.h</text>
</a>
</g>
</g>
<!-- Node10&#45;&gt;Node17 -->
<g id="edge18" class="edge">
<title>Node10&#45;&gt;Node17</title>
<path fill="none" stroke="#63b8ff" d="M2215.08,-277.52C1977.19,-275.49 1168.28,-265.89 912.5,-228 897.12,-225.72 880.35,-221.45 866.66,-217.49"/>
<polygon fill="#63b8ff" stroke="#63b8ff" points="2214.76,-281.02 2224.79,-277.6 2214.82,-274.02 2214.76,-281.02"/>
</g>
<!-- Node23 -->
<g id="node20" class="node">
<title>Node23</title>
<g id="a_node20"><a xlink:href="d__item_8h.html" target="_top" xlink:title=" ">
<polygon fill="#fff0f0" stroke="red" points="3525,-79.5 3430,-79.5 3430,-60.5 3525,-60.5 3525,-79.5"/>
<text text-anchor="middle" x="3477.5" y="-67.5" font-family="Helvetica,sans-Serif" font-size="10.00">include/d/d_item.h</text>
</a>
</g>
</g>
<!-- Node10&#45;&gt;Node23 -->
<g id="edge22" class="edge">
<title>Node10&#45;&gt;Node23</title>
<path fill="none" stroke="#63b8ff" d="M2348.14,-276.29C2593.4,-269.87 3432.79,-246.57 3453.5,-228 3497.03,-188.98 3484.92,-106.92 3479.47,-79.86"/>
<polygon fill="#63b8ff" stroke="#63b8ff" points="2348.33,-272.79 2338.43,-276.55 2348.52,-279.78 2348.33,-272.79"/>
</g>
<!-- Node28 -->
<g id="node21" class="node">
<title>Node28</title>
<g id="a_node21"><a xlink:href="d__kantera__icon__meter_8h.html" target="_top" xlink:title=" ">
<polygon fill="#fff0f0" stroke="red" points="3290,-222.5 3189,-222.5 3189,-192.5 3290,-192.5 3290,-222.5"/>
<text text-anchor="start" x="3197" y="-210.5" font-family="Helvetica,sans-Serif" font-size="10.00">include/d/d_kantera</text>
<text text-anchor="middle" x="3239.5" y="-199.5" font-family="Helvetica,sans-Serif" font-size="10.00">_icon_meter.h</text>
</a>
</g>
</g>
<!-- Node10&#45;&gt;Node28 -->
<g id="edge24" class="edge">
<title>Node10&#45;&gt;Node28</title>
<path fill="none" stroke="#63b8ff" d="M2348.11,-276.57C2528.01,-272.34 3020.92,-258.26 3180.5,-228 3187.07,-226.75 3193.92,-224.97 3200.53,-222.98"/>
<polygon fill="#63b8ff" stroke="#63b8ff" points="2348.14,-273.07 2338.23,-276.8 2348.31,-280.06 2348.14,-273.07"/>
</g>
<!-- Node31 -->
<g id="node22" class="node">
<title>Node31</title>
<g id="a_node22"><a xlink:href="d__model_8h.html" target="_top" xlink:title=" ">
<polygon fill="#fff0f0" stroke="red" points="3411,-217 3308,-217 3308,-198 3411,-198 3411,-217"/>
<text text-anchor="middle" x="3359.5" y="-205" font-family="Helvetica,sans-Serif" font-size="10.00">include/d/d_model.h</text>
</a>
</g>
</g>
<!-- Node10&#45;&gt;Node31 -->
<g id="edge25" class="edge">
<title>Node10&#45;&gt;Node31</title>
<path fill="none" stroke="#63b8ff" d="M2348,-277.03C2543.8,-273.81 3115.96,-261.71 3299.5,-228 3312.1,-225.68 3325.72,-221.41 3336.79,-217.46"/>
<polygon fill="#63b8ff" stroke="#63b8ff" points="2348.21,-273.53 2338.27,-277.19 2348.32,-280.53 2348.21,-273.53"/>
</g>
<!-- Node33 -->
<g id="node23" class="node">
<title>Node33</title>
<g id="a_node23"><a xlink:href="d__name_8h.html" target="_top" xlink:title=" ">
<polygon fill="#fff0f0" stroke="red" points="1212,-217 1111,-217 1111,-198 1212,-198 1212,-217"/>
<text text-anchor="middle" x="1161.5" y="-205" font-family="Helvetica,sans-Serif" font-size="10.00">include/d/d_name.h</text>
</a>
</g>
</g>
<!-- Node10&#45;&gt;Node33 -->
<g id="edge26" class="edge">
<title>Node10&#45;&gt;Node33</title>
<path fill="none" stroke="#63b8ff" d="M2215.03,-277.18C2013.83,-274.34 1413.5,-263.07 1221.5,-228 1208.89,-225.7 1195.28,-221.43 1184.21,-217.47"/>
<polygon fill="#63b8ff" stroke="#63b8ff" points="2214.73,-280.68 2224.77,-277.32 2214.82,-273.68 2214.73,-280.68"/>
</g>
<!-- Node35 -->
<g id="node24" class="node">
<title>Node35</title>
<g id="a_node24"><a xlink:href="d__file__sel__info_8h.html" target="_top" xlink:title=" ">
<polygon fill="#fff0f0" stroke="red" points="1326.5,-222.5 1230.5,-222.5 1230.5,-192.5 1326.5,-192.5 1326.5,-222.5"/>
<text text-anchor="start" x="1238.5" y="-210.5" font-family="Helvetica,sans-Serif" font-size="10.00">include/d/file/d_file</text>
<text text-anchor="middle" x="1278.5" y="-199.5" font-family="Helvetica,sans-Serif" font-size="10.00">_sel_info.h</text>
</a>
</g>
</g>
<!-- Node10&#45;&gt;Node35 -->
<g id="edge27" class="edge">
<title>Node10&#45;&gt;Node35</title>
<path fill="none" stroke="#63b8ff" d="M2214.94,-276.87C2028.59,-273.33 1504.33,-260.68 1335.5,-228 1329.13,-226.77 1322.51,-224.99 1316.12,-223"/>
<polygon fill="#63b8ff" stroke="#63b8ff" points="2214.61,-280.37 2224.68,-277.05 2214.74,-273.37 2214.61,-280.37"/>
</g>
<!-- Node38 -->
<g id="node25" class="node">
<title>Node38</title>
<g id="a_node25"><a xlink:href="d__file__sel__warning_8h.html" target="_top" xlink:title=" ">
<polygon fill="#fff0f0" stroke="red" points="1440.5,-222.5 1344.5,-222.5 1344.5,-192.5 1440.5,-192.5 1440.5,-222.5"/>
<text text-anchor="start" x="1352.5" y="-210.5" font-family="Helvetica,sans-Serif" font-size="10.00">include/d/file/d_file</text>
<text text-anchor="middle" x="1392.5" y="-199.5" font-family="Helvetica,sans-Serif" font-size="10.00">_sel_warning.h</text>
</a>
</g>
</g>
<!-- Node10&#45;&gt;Node38 -->
<g id="edge28" class="edge">
<title>Node10&#45;&gt;Node38</title>
<path fill="none" stroke="#63b8ff" d="M2214.85,-276.31C2044.36,-271.61 1595.56,-256.82 1449.5,-228 1443.14,-226.74 1436.51,-224.95 1430.13,-222.96"/>
<polygon fill="#63b8ff" stroke="#63b8ff" points="2214.55,-279.8 2224.64,-276.58 2214.74,-272.81 2214.55,-279.8"/>
</g>
<!-- Node40 -->
<g id="node26" class="node">
<title>Node40</title>
<g id="a_node26"><a xlink:href="d__meter2_8h.html" target="_top" xlink:title=" ">
<polygon fill="#fff0f0" stroke="red" points="1592.5,-217 1458.5,-217 1458.5,-198 1592.5,-198 1592.5,-217"/>
<text text-anchor="middle" x="1525.5" y="-205" font-family="Helvetica,sans-Serif" font-size="10.00">include/d/meter/d_meter2.h</text>
</a>
</g>
</g>
<!-- Node10&#45;&gt;Node40 -->
<g id="edge29" class="edge">
<title>Node10&#45;&gt;Node40</title>
<path fill="none" stroke="#63b8ff" d="M2214.63,-277.01C2092.21,-274.34 1824.16,-264.45 1601.5,-228 1586.04,-225.47 1569.13,-221.28 1555.2,-217.43"/>
<polygon fill="#63b8ff" stroke="#63b8ff" points="2214.44,-280.51 2224.51,-277.22 2214.58,-273.51 2214.44,-280.51"/>
</g>
<!-- Node47 -->
<g id="node27" class="node">
<title>Node47</title>
<g id="a_node27"><a xlink:href="d__msg__object_8h.html" target="_top" xlink:title=" ">
<polygon fill="#fff0f0" stroke="red" points="2869.5,-222.5 2759.5,-222.5 2759.5,-192.5 2869.5,-192.5 2869.5,-222.5"/>
<text text-anchor="start" x="2767.5" y="-210.5" font-family="Helvetica,sans-Serif" font-size="10.00">include/d/msg/d_msg</text>
<text text-anchor="middle" x="2814.5" y="-199.5" font-family="Helvetica,sans-Serif" font-size="10.00">_object.h</text>
</a>
</g>
</g>
<!-- Node10&#45;&gt;Node47 -->
<g id="edge30" class="edge">
<title>Node10&#45;&gt;Node47</title>
<path fill="none" stroke="#63b8ff" d="M2348.42,-274.33C2439.08,-268.55 2605.67,-255.09 2745.5,-228 2752.59,-226.63 2760.01,-224.87 2767.24,-222.99"/>
<polygon fill="#63b8ff" stroke="#63b8ff" points="2348.22,-270.84 2338.46,-274.95 2348.65,-277.82 2348.22,-270.84"/>
</g>
<!-- Node61 -->
<g id="node28" class="node">
<title>Node61</title>
<g id="a_node28"><a xlink:href="d__s__logo_8h.html" target="_top" xlink:title=" ">
<polygon fill="#fff0f0" stroke="red" points="1724,-217 1611,-217 1611,-198 1724,-198 1724,-217"/>
<text text-anchor="middle" x="1667.5" y="-205" font-family="Helvetica,sans-Serif" font-size="10.00">include/d/s/d_s_logo.h</text>
</a>
</g>
</g>
<!-- Node10&#45;&gt;Node61 -->
<g id="edge34" class="edge">
<title>Node10&#45;&gt;Node61</title>
<path fill="none" stroke="#63b8ff" d="M2214.8,-276.23C2110.87,-272.51 1904.35,-261.25 1732.5,-228 1719.31,-225.45 1704.98,-221.3 1693.14,-217.49"/>
<polygon fill="#63b8ff" stroke="#63b8ff" points="2214.42,-279.72 2224.54,-276.57 2214.66,-272.73 2214.42,-279.72"/>
</g>
<!-- Node63 -->
<g id="node29" class="node">
<title>Node63</title>
<g id="a_node29"><a xlink:href="d__s__play_8h.html" target="_top" xlink:title=" ">
<polygon fill="#fff0f0" stroke="red" points="1855,-217 1742,-217 1742,-198 1855,-198 1855,-217"/>
<text text-anchor="middle" x="1798.5" y="-205" font-family="Helvetica,sans-Serif" font-size="10.00">include/d/s/d_s_play.h</text>
</a>
</g>
</g>
<!-- Node10&#45;&gt;Node63 -->
<g id="edge35" class="edge">
<title>Node10&#45;&gt;Node63</title>
<path fill="none" stroke="#63b8ff" d="M2214.96,-273.6C2132,-267.29 1986.17,-253.54 1863.5,-228 1850.47,-225.29 1836.27,-221.17 1824.49,-217.42"/>
<polygon fill="#63b8ff" stroke="#63b8ff" points="2214.49,-277.07 2224.73,-274.32 2215.01,-270.09 2214.49,-277.07"/>
</g>
<!-- Node67 -->
<g id="node30" class="node">
<title>Node67</title>
<g id="a_node30"><a xlink:href="d__msg__scrn__base_8h.html" target="_top" xlink:title=" ">
<polygon fill="#fff0f0" stroke="red" points="1972,-222.5 1873,-222.5 1873,-192.5 1972,-192.5 1972,-222.5"/>
<text text-anchor="start" x="1881" y="-210.5" font-family="Helvetica,sans-Serif" font-size="10.00">include/msg/scrn/d</text>
<text text-anchor="middle" x="1922.5" y="-199.5" font-family="Helvetica,sans-Serif" font-size="10.00">_msg_scrn_base.h</text>
</a>
</g>
</g>
<!-- Node10&#45;&gt;Node67 -->
<g id="edge36" class="edge">
<title>Node10&#45;&gt;Node67</title>
<path fill="none" stroke="#63b8ff" d="M2214.95,-270.05C2153.54,-261.99 2060.1,-247.86 1980.5,-228 1974.73,-226.56 1968.71,-224.82 1962.82,-222.97"/>
<polygon fill="#63b8ff" stroke="#63b8ff" points="2214.17,-273.48 2224.53,-271.29 2215.06,-266.54 2214.17,-273.48"/>
</g>
<!-- Node71 -->
<g id="node31" class="node">
<title>Node71</title>
<g id="a_node31"><a xlink:href="d__a__b__zant_8h.html" target="_top" xlink:title=" ">
<polygon fill="white" stroke="#666666" points="2111,-222.5 1990,-222.5 1990,-192.5 2111,-192.5 2111,-222.5"/>
<text text-anchor="start" x="1998" y="-210.5" font-family="Helvetica,sans-Serif" font-size="10.00">include/rel/d/a/b/d</text>
<text text-anchor="middle" x="2050.5" y="-199.5" font-family="Helvetica,sans-Serif" font-size="10.00">_a_b_zant/d_a_b_zant.h</text>
</a>
</g>
</g>
<!-- Node10&#45;&gt;Node71 -->
<g id="edge37" class="edge">
<title>Node10&#45;&gt;Node71</title>
<path fill="none" stroke="#63b8ff" d="M2222.33,-260.2C2183.94,-248.65 2134.55,-233.79 2098.58,-222.97"/>
<polygon fill="#63b8ff" stroke="#63b8ff" points="2221.32,-263.55 2231.91,-263.08 2223.34,-256.85 2221.32,-263.55"/>
</g>
<!-- Node72 -->
<g id="node32" class="node">
<title>Node72</title>
<g id="a_node32"><a xlink:href="d__a__skip__2D_8h.html" target="_top" xlink:title=" ">
<polygon fill="white" stroke="#666666" points="2253.5,-222.5 2129.5,-222.5 2129.5,-192.5 2253.5,-192.5 2253.5,-222.5"/>
<text text-anchor="start" x="2137.5" y="-210.5" font-family="Helvetica,sans-Serif" font-size="10.00">include/rel/d/a/d_a</text>
<text text-anchor="middle" x="2191.5" y="-199.5" font-family="Helvetica,sans-Serif" font-size="10.00">_skip_2D/d_a_skip_2D.h</text>
</a>
</g>
</g>
<!-- Node10&#45;&gt;Node72 -->
<g id="edge38" class="edge">
<title>Node10&#45;&gt;Node72</title>
<path fill="none" stroke="#63b8ff" d="M2253.98,-256.75C2239.76,-245.77 2222.79,-232.66 2210.12,-222.88"/>
<polygon fill="#63b8ff" stroke="#63b8ff" points="2251.6,-259.33 2261.65,-262.67 2255.88,-253.79 2251.6,-259.33"/>
</g>
<!-- Node73 -->
<g id="node33" class="node">
<title>Node73</title>
<g id="a_node33"><a xlink:href="d__a__spinner_8h.html" target="_top" xlink:title=" ">
<polygon fill="white" stroke="#666666" points="3003.5,-222.5 2887.5,-222.5 2887.5,-192.5 3003.5,-192.5 3003.5,-222.5"/>
<text text-anchor="start" x="2895.5" y="-210.5" font-family="Helvetica,sans-Serif" font-size="10.00">include/rel/d/a/d_a</text>
<text text-anchor="middle" x="2945.5" y="-199.5" font-family="Helvetica,sans-Serif" font-size="10.00">_spinner/d_a_spinner.h</text>
</a>
</g>
</g>
<!-- Node10&#45;&gt;Node73 -->
<g id="edge39" class="edge">
<title>Node10&#45;&gt;Node73</title>
<path fill="none" stroke="#63b8ff" d="M2348.04,-276.75C2458.93,-273.71 2688.12,-263.31 2878.5,-228 2885.65,-226.67 2893.12,-224.9 2900.38,-222.96"/>
<polygon fill="#63b8ff" stroke="#63b8ff" points="2348.14,-273.25 2338.24,-277.01 2348.32,-280.24 2348.14,-273.25"/>
</g>
<!-- Node74 -->
<g id="node34" class="node">
<title>Node74</title>
<g id="a_node34"><a xlink:href="d__a__player_8cpp.html" target="_top" xlink:title=" ">
<polygon fill="white" stroke="#666666" points="3088.5,-145.5 2974.5,-145.5 2974.5,-126.5 3088.5,-126.5 3088.5,-145.5"/>
<text text-anchor="middle" x="3031.5" y="-133.5" font-family="Helvetica,sans-Serif" font-size="10.00">src/d/a/d_a_player.cpp</text>
</a>
</g>
</g>
<!-- Node10&#45;&gt;Node74 -->
<g id="edge46" class="edge">
<title>Node10&#45;&gt;Node74</title>
<path fill="none" stroke="#63b8ff" d="M2348.27,-277.95C2519.27,-277.19 2963.07,-271.06 3012.5,-228 3036.47,-207.12 3034.8,-164.49 3032.76,-145.94"/>
<polygon fill="#63b8ff" stroke="#63b8ff" points="2348.42,-274.45 2338.43,-277.99 2348.45,-281.45 2348.42,-274.45"/>
</g>
<!-- Node75 -->
<g id="node35" class="node">
<title>Node75</title>
<g id="a_node35"><a xlink:href="d__a__obj__yobikusa_8h.html" target="_top" xlink:title=" ">
<polygon fill="white" stroke="#666666" points="2415,-228 2310,-228 2310,-187 2415,-187 2415,-228"/>
<text text-anchor="start" x="2318" y="-216" font-family="Helvetica,sans-Serif" font-size="10.00">include/rel/d/a/obj</text>
<text text-anchor="start" x="2318" y="-205" font-family="Helvetica,sans-Serif" font-size="10.00">/d_a_obj_yobikusa/d</text>
<text text-anchor="middle" x="2362.5" y="-194" font-family="Helvetica,sans-Serif" font-size="10.00">_a_obj_yobikusa.h</text>
</a>
</g>
</g>
<!-- Node10&#45;&gt;Node75 -->
<g id="edge42" class="edge">
<title>Node10&#45;&gt;Node75</title>
<path fill="none" stroke="#63b8ff" d="M2306.91,-256.2C2317.27,-247.31 2329.17,-237.1 2339.29,-228.42"/>
<polygon fill="#63b8ff" stroke="#63b8ff" points="2304.74,-253.45 2299.43,-262.61 2309.3,-258.76 2304.74,-253.45"/>
</g>
<!-- Node76 -->
<g id="node36" class="node">
<title>Node76</title>
<g id="a_node36"><a xlink:href="d__a__tag__telop_8h.html" target="_top" xlink:title=" ">
<polygon fill="white" stroke="#666666" points="2551.5,-228 2433.5,-228 2433.5,-187 2551.5,-187 2551.5,-228"/>
<text text-anchor="start" x="2441.5" y="-216" font-family="Helvetica,sans-Serif" font-size="10.00">include/rel/d/a/tag</text>
<text text-anchor="start" x="2441.5" y="-205" font-family="Helvetica,sans-Serif" font-size="10.00">/d_a_tag_telop/d_a_tag</text>
<text text-anchor="middle" x="2492.5" y="-194" font-family="Helvetica,sans-Serif" font-size="10.00">_telop.h</text>
</a>
</g>
</g>
<!-- Node10&#45;&gt;Node76 -->
<g id="edge43" class="edge">
<title>Node10&#45;&gt;Node76</title>
<path fill="none" stroke="#63b8ff" d="M2336.11,-260.01C2365.93,-250.19 2402.88,-238.02 2433.37,-227.98"/>
<polygon fill="#63b8ff" stroke="#63b8ff" points="2335.32,-256.59 2326.91,-263.04 2337.51,-263.24 2335.32,-256.59"/>
</g>
<!-- Node77 -->
<g id="node37" class="node">
<title>Node77</title>
<g id="a_node37"><a xlink:href="c__dylink_8cpp.html" target="_top" xlink:title=" ">
<polygon fill="white" stroke="#666666" points="2665,-217 2570,-217 2570,-198 2665,-198 2665,-217"/>
<text text-anchor="middle" x="2617.5" y="-205" font-family="Helvetica,sans-Serif" font-size="10.00">src/c/c_dylink.cpp</text>
</a>
</g>
</g>
<!-- Node10&#45;&gt;Node77 -->
<g id="edge44" class="edge">
<title>Node10&#45;&gt;Node77</title>
<path fill="none" stroke="#63b8ff" d="M2348.19,-268.97C2405.11,-260.57 2488.86,-246.56 2560.5,-228 2571.64,-225.11 2583.73,-221.11 2593.9,-217.48"/>
<polygon fill="#63b8ff" stroke="#63b8ff" points="2347.72,-265.5 2338.32,-270.41 2348.72,-272.43 2347.72,-265.5"/>
</g>
<!-- Node82 -->
<g id="node38" class="node">
<title>Node82</title>
<g id="a_node38"><a xlink:href="d__bg__w_8cpp.html" target="_top" xlink:title=" ">
<polygon fill="white" stroke="#666666" points="563,-217 456,-217 456,-198 563,-198 563,-217"/>
<text text-anchor="middle" x="509.5" y="-205" font-family="Helvetica,sans-Serif" font-size="10.00">src/d/bg/d_bg_w.cpp</text>
</a>
</g>
</g>
<!-- Node10&#45;&gt;Node82 -->
<g id="edge47" class="edge">
<title>Node10&#45;&gt;Node82</title>
<path fill="none" stroke="#63b8ff" d="M2214.94,-277.44C1944.8,-274.94 929.54,-263.34 610.5,-228 589.73,-225.7 566.85,-221.43 548.13,-217.47"/>
<polygon fill="#63b8ff" stroke="#63b8ff" points="2214.57,-280.94 2224.6,-277.53 2214.63,-273.94 2214.57,-280.94"/>
</g>
<!-- Node17&#45;&gt;Node18 -->
<g id="edge19" class="edge">
<title>Node17&#45;&gt;Node18</title>
<path fill="none" stroke="#63b8ff" d="M799.53,-194.34C789.8,-191.62 779.33,-188.96 769.5,-187 640.85,-161.29 487.11,-147.05 406.71,-140.84"/>
<polygon fill="#63b8ff" stroke="#63b8ff" points="798.51,-197.69 809.09,-197.1 800.45,-190.96 798.51,-197.69"/>
</g>
<!-- Node19 -->
<g id="node19" class="node">
<title>Node19</title>
<g id="a_node19"><a xlink:href="d__a__horse__static_8h.html" target="_top" xlink:title=" ">
<polygon fill="#fff0f0" stroke="red" points="406.5,-85 294.5,-85 294.5,-55 406.5,-55 406.5,-85"/>
<text text-anchor="start" x="302.5" y="-73" font-family="Helvetica,sans-Serif" font-size="10.00">include/d/a/d_a_horse</text>
<text text-anchor="middle" x="350.5" y="-62" font-family="Helvetica,sans-Serif" font-size="10.00">_static.h</text>
</a>
</g>
</g>
<!-- Node18&#45;&gt;Node19 -->
<g id="edge20" class="edge">
<title>Node18&#45;&gt;Node19</title>
<path fill="none" stroke="#63b8ff" d="M351.1,-109.39C350.97,-101.13 350.83,-92.28 350.72,-85.16"/>
<polygon fill="#63b8ff" stroke="#63b8ff" points="347.6,-109.34 351.25,-119.28 354.6,-109.23 347.6,-109.34"/>
</g>
<!-- Node19&#45;&gt;Node20 -->
<g id="edge21" class="edge">
<title>Node19&#45;&gt;Node20</title>
<path fill="none" stroke="#63b8ff" d="M418,-55.32C418.83,-55.21 419.67,-55.1 420.5,-55 746.83,-14.7 1142.48,-10.43 1285.56,-10.31"/>
<polygon fill="#63b8ff" stroke="#63b8ff" points="417.8,-51.81 408.42,-56.74 418.83,-58.73 417.8,-51.81"/>
</g>
<!-- Node23&#45;&gt;Node20 -->
<g id="edge23" class="edge">
<title>Node23&#45;&gt;Node20</title>
<path fill="none" stroke="#63b8ff" d="M3432.71,-57.77C3426.95,-56.66 3421.11,-55.69 3415.5,-55 3007.99,-5.13 1681.85,-8.78 1395.38,-10.19"/>
<polygon fill="#63b8ff" stroke="#63b8ff" points="3431.62,-61.12 3442.12,-59.75 3433.06,-54.27 3431.62,-61.12"/>
</g>
<!-- Node47&#45;&gt;Node20 -->
<g id="edge31" class="edge">
<title>Node47&#45;&gt;Node20</title>
<path fill="none" stroke="#63b8ff" d="M2815.63,-180.65C2814.96,-161.17 2810.51,-135.42 2793.5,-121 2685.05,-29.11 1647.11,-13.4 1395.32,-10.93"/>
<polygon fill="#63b8ff" stroke="#63b8ff" points="2812.13,-180.58 2815.63,-190.58 2819.13,-180.58 2812.13,-180.58"/>
</g>
<!-- Node47&#45;&gt;Node43 -->
<g id="edge32" class="edge">
<title>Node47&#45;&gt;Node43</title>
<path fill="none" stroke="#63b8ff" d="M2755.19,-188.73C2709.54,-175.06 2648.34,-156.73 2612.4,-145.96"/>
<polygon fill="#63b8ff" stroke="#63b8ff" points="2754.11,-192.06 2764.7,-191.58 2756.12,-185.36 2754.11,-192.06"/>
</g>
<!-- Node47&#45;&gt;Node44 -->
<g id="edge33" class="edge">
<title>Node47&#45;&gt;Node44</title>
<path fill="none" stroke="#63b8ff" d="M2789.06,-184.93C2776.18,-174.02 2760.9,-161.07 2749.47,-151.38"/>
<polygon fill="#63b8ff" stroke="#63b8ff" points="2786.46,-187.33 2796.35,-191.12 2790.99,-181.99 2786.46,-187.33"/>
</g>
<!-- Node73&#45;&gt;Node20 -->
<g id="edge40" class="edge">
<title>Node73&#45;&gt;Node20</title>
<path fill="none" stroke="#63b8ff" d="M2918.59,-185.35C2893.23,-166.29 2853.54,-138.61 2815.5,-121 2720.93,-77.22 2693.37,-71.65 2590.5,-55 2355.37,-16.94 1605.3,-11.43 1395.5,-10.64"/>
<polygon fill="#63b8ff" stroke="#63b8ff" points="2916.3,-188.01 2926.37,-191.28 2920.54,-182.44 2916.3,-188.01"/>
</g>
<!-- Node73&#45;&gt;Node74 -->
<g id="edge41" class="edge">
<title>Node73&#45;&gt;Node74</title>
<path fill="none" stroke="#63b8ff" d="M2971.93,-185.14C2988.25,-171.95 3008.33,-155.72 3020.51,-145.88"/>
<polygon fill="#63b8ff" stroke="#63b8ff" points="2970.07,-182.14 2964.5,-191.15 2974.47,-187.58 2970.07,-182.14"/>
</g>
<!-- Node132&#45;&gt;Node20 -->
<g id="edge55" class="edge">
<title>Node132&#45;&gt;Node20</title>
<path fill="none" stroke="#63b8ff" d="M454.79,-253.73C444.63,-234.71 435.21,-208.04 446.5,-187 496.69,-93.48 544.92,-88.87 645.5,-55 763.74,-15.19 1143.01,-10.64 1285.61,-10.38"/>
<polygon fill="#63b8ff" stroke="#63b8ff" points="451.76,-255.47 459.79,-262.37 457.82,-251.96 451.76,-255.47"/>
</g>
<!-- Node132&#45;&gt;Node18 -->
<g id="edge54" class="edge">
<title>Node132&#45;&gt;Node18</title>
<path fill="none" stroke="#63b8ff" d="M443.05,-256.36C433.22,-248 422.38,-238.04 413.5,-228 391.46,-203.09 370.74,-170 359.72,-151.36"/>
<polygon fill="#63b8ff" stroke="#63b8ff" points="440.61,-258.89 450.54,-262.58 445.08,-253.5 440.61,-258.89"/>
</g>
<!-- Node132&#45;&gt;Node82 -->
<g id="edge56" class="edge">
<title>Node132&#45;&gt;Node82</title>
<path fill="none" stroke="#63b8ff" d="M484.19,-253.61C491.29,-240.94 499.53,-226.27 504.63,-217.18"/>
<polygon fill="#63b8ff" stroke="#63b8ff" points="481.16,-251.85 479.32,-262.28 487.27,-255.27 481.16,-251.85"/>
</g>
<!-- Node149&#45;&gt;Node20 -->
<g id="edge58" class="edge">
<title>Node149&#45;&gt;Node20</title>
<path fill="none" stroke="#63b8ff" d="M784.19,-62.4C910.44,-50.63 1172.1,-26.21 1285.78,-15.61"/>
<polygon fill="#63b8ff" stroke="#63b8ff" points="783.91,-58.92 774.28,-63.33 784.56,-65.89 783.91,-58.92"/>
</g>
<!-- Node251&#45;&gt;Node9 -->
<g id="edge63" class="edge">
<title>Node251&#45;&gt;Node9</title>
<path fill="none" stroke="#63b8ff" d="M2272.76,-403.95C2146.94,-391.62 1862.36,-363.73 1739.63,-351.7"/>
<polygon fill="#63b8ff" stroke="#63b8ff" points="2272.27,-407.42 2282.57,-404.91 2272.96,-400.45 2272.27,-407.42"/>
</g>
<!-- Node252 -->
<g id="node44" class="node">
<title>Node252</title>
<g id="a_node44"><a xlink:href="Z2WolfHowlMgr_8cpp.html" target="_top" xlink:title=" ">
<polygon fill="white" stroke="#666666" points="2404.5,-360 2264.5,-360 2264.5,-330 2404.5,-330 2404.5,-360"/>
<text text-anchor="start" x="2272.5" y="-348" font-family="Helvetica,sans-Serif" font-size="10.00">libs/Z2AudioLib/Z2WolfHowl</text>
<text text-anchor="middle" x="2334.5" y="-337" font-family="Helvetica,sans-Serif" font-size="10.00">Mgr.cpp</text>
</a>
</g>
</g>
<!-- Node251&#45;&gt;Node252 -->
<g id="edge64" class="edge">
<title>Node251&#45;&gt;Node252</title>
<path fill="none" stroke="#63b8ff" d="M2334.5,-384.39C2334.5,-376.13 2334.5,-367.28 2334.5,-360.16"/>
<polygon fill="#63b8ff" stroke="#63b8ff" points="2331,-384.28 2334.5,-394.28 2338,-384.28 2331,-384.28"/>
</g>
<!-- Node141&#45;&gt;Node20 -->
<g id="edge66" class="edge">
<title>Node141&#45;&gt;Node20</title>
<path fill="none" stroke="#63b8ff" d="M2812.99,-398.59C2817.21,-397.68 2821.43,-396.8 2825.5,-396 2986.26,-364.48 3553.5,-443.82 3553.5,-280 3553.5,-280 3553.5,-280 3553.5,-135 3553.5,-98.46 3562.94,-77.95 3534.5,-55 3491.59,-20.37 1731.19,-11.98 1395.49,-10.69"/>
<polygon fill="#63b8ff" stroke="#63b8ff" points="2812.37,-395.14 2803.38,-400.74 2813.9,-401.97 2812.37,-395.14"/>
</g>
<!-- Node142 -->
<g id="node46" class="node">
<title>Node142</title>
<g id="a_node46"><a xlink:href="d__bomb_8cpp.html" target="_top" xlink:title=" ">
<polygon fill="white" stroke="#666666" points="2812.5,-354.5 2718.5,-354.5 2718.5,-335.5 2812.5,-335.5 2812.5,-354.5"/>
<text text-anchor="middle" x="2765.5" y="-342.5" font-family="Helvetica,sans-Serif" font-size="10.00">src/d/d_bomb.cpp</text>
</a>
</g>
</g>
<!-- Node141&#45;&gt;Node142 -->
<g id="edge67" class="edge">
<title>Node141&#45;&gt;Node142</title>
<path fill="none" stroke="#63b8ff" d="M2765.5,-389.68C2765.5,-377.94 2765.5,-363.77 2765.5,-354.82"/>
<polygon fill="#63b8ff" stroke="#63b8ff" points="2762,-389.59 2765.5,-399.59 2769,-389.59 2762,-389.59"/>
</g>
<!-- Node144&#45;&gt;Node74 -->
<g id="edge69" class="edge">
<title>Node144&#45;&gt;Node74</title>
<path fill="none" stroke="#63b8ff" d="M3026.64,-275.16C3157.67,-269.95 3394.68,-256.65 3420.5,-228 3432.7,-214.46 3432.54,-200.68 3420.5,-187 3398.94,-162.49 3191.44,-146.65 3088.64,-140.24"/>
<polygon fill="#63b8ff" stroke="#63b8ff" points="3026.83,-271.65 3016.97,-275.54 3027.1,-278.65 3026.83,-271.65"/>
</g>
</g>
</svg>
