<?xml version="1.0" encoding="UTF-8" standalone="no"?>
<!DOCTYPE svg PUBLIC "-//W3C//DTD SVG 1.1//EN"
 "http://www.w3.org/Graphics/SVG/1.1/DTD/svg11.dtd">
<!-- Generated by graphviz version 7.0.4 (20221203.1631)
 -->
<!-- Title: include/Z2AudioLib/Z2SoundObject.h Pages: 1 -->
<svg width="3830pt" height="500pt"
 viewBox="0.00 0.00 3829.87 500.00" xmlns="http://www.w3.org/2000/svg" xmlns:xlink="http://www.w3.org/1999/xlink">
<g id="graph0" class="graph" transform="scale(1 1) rotate(0) translate(4 496)">
<title>include/Z2AudioLib/Z2SoundObject.h</title>
<!-- Node1 -->
<g id="node1" class="node">
<title>Node1</title>
<g id="a_node1"><a xlink:title=" ">
<polygon fill="#999999" stroke="#666666" points="2915.5,-492 2815.5,-492 2815.5,-462 2915.5,-462 2915.5,-492"/>
<text text-anchor="start" x="2823.5" y="-480" font-family="Helvetica,sans-Serif" font-size="10.00">include/Z2AudioLib</text>
<text text-anchor="middle" x="2865.5" y="-469" font-family="Helvetica,sans-Serif" font-size="10.00">/Z2SoundObject.h</text>
</a>
</g>
</g>
<!-- Node2 -->
<g id="node2" class="node">
<title>Node2</title>
<g id="a_node2"><a xlink:href="Z2Creature_8h.html" target="_top" xlink:title=" ">
<polygon fill="white" stroke="#666666" points="622.5,-426 522.5,-426 522.5,-396 622.5,-396 622.5,-426"/>
<text text-anchor="start" x="530.5" y="-414" font-family="Helvetica,sans-Serif" font-size="10.00">include/Z2AudioLib</text>
<text text-anchor="middle" x="572.5" y="-403" font-family="Helvetica,sans-Serif" font-size="10.00">/Z2Creature.h</text>
</a>
</g>
</g>
<!-- Node1&#45;&gt;Node2 -->
<g id="edge1" class="edge">
<title>Node1&#45;&gt;Node2</title>
<path fill="none" stroke="#63b8ff" d="M2804.01,-474.28C2474.64,-465.09 922.93,-421.78 622.82,-413.4"/>
<polygon fill="#63b8ff" stroke="#63b8ff" points="2803.6,-477.77 2813.69,-474.55 2803.79,-470.78 2803.6,-477.77"/>
</g>
<!-- Node250 -->
<g id="node44" class="node">
<title>Node250</title>
<g id="a_node44"><a xlink:href="Z2WolfHowlMgr_8h.html" target="_top" xlink:title=" ">
<polygon fill="white" stroke="#666666" points="2491.5,-426 2391.5,-426 2391.5,-396 2491.5,-396 2491.5,-426"/>
<text text-anchor="start" x="2399.5" y="-414" font-family="Helvetica,sans-Serif" font-size="10.00">include/Z2AudioLib</text>
<text text-anchor="middle" x="2441.5" y="-403" font-family="Helvetica,sans-Serif" font-size="10.00">/Z2WolfHowlMgr.h</text>
</a>
</g>
</g>
<!-- Node1&#45;&gt;Node250 -->
<g id="edge63" class="edge">
<title>Node1&#45;&gt;Node250</title>
<path fill="none" stroke="#63b8ff" d="M2804,-466.72C2719.66,-453.99 2569.71,-431.35 2491.74,-419.58"/>
<polygon fill="#63b8ff" stroke="#63b8ff" points="2803.29,-470.15 2813.7,-468.18 2804.33,-463.23 2803.29,-470.15"/>
</g>
<!-- Node140 -->
<g id="node46" class="node">
<title>Node140</title>
<g id="a_node46"><a xlink:href="d__bomb_8h.html" target="_top" xlink:title=" ">
<polygon fill="white" stroke="#666666" points="2956,-420.5 2855,-420.5 2855,-401.5 2956,-401.5 2956,-420.5"/>
<text text-anchor="middle" x="2905.5" y="-408.5" font-family="Helvetica,sans-Serif" font-size="10.00">include/d/d_bomb.h</text>
</a>
</g>
</g>
<!-- Node1&#45;&gt;Node140 -->
<g id="edge66" class="edge">
<title>Node1&#45;&gt;Node140</title>
<path fill="none" stroke="#63b8ff" d="M2880.33,-452.28C2887.18,-441.31 2894.91,-428.94 2899.97,-420.84"/>
<polygon fill="#63b8ff" stroke="#63b8ff" points="2877.51,-450.18 2875.18,-460.51 2883.45,-453.89 2877.51,-450.18"/>
</g>
<!-- Node143 -->
<g id="node48" class="node">
<title>Node143</title>
<g id="a_node48"><a xlink:href="d__a__boomerang_8h.html" target="_top" xlink:title=" ">
<polygon fill="white" stroke="#666666" points="3188,-294 3039,-294 3039,-264 3188,-264 3188,-294"/>
<text text-anchor="start" x="3047" y="-282" font-family="Helvetica,sans-Serif" font-size="10.00">include/rel/d/a/d_a</text>
<text text-anchor="middle" x="3113.5" y="-271" font-family="Helvetica,sans-Serif" font-size="10.00">_boomerang/d_a_boomerang.h</text>
</a>
</g>
</g>
<!-- Node1&#45;&gt;Node143 -->
<g id="edge69" class="edge">
<title>Node1&#45;&gt;Node143</title>
<path fill="none" stroke="#63b8ff" d="M2852.93,-451.64C2838.38,-419.63 2819.95,-363.55 2849.5,-330 2873.97,-302.21 2969.61,-289.66 3038.75,-284.13"/>
<polygon fill="#63b8ff" stroke="#63b8ff" points="2849.71,-453 2857.18,-460.51 2856.02,-449.98 2849.71,-453"/>
</g>
<!-- Node147 -->
<g id="node49" class="node">
<title>Node147</title>
<g id="a_node49"><a xlink:href="d__a__canoe_8h.html" target="_top" xlink:title=" ">
<polygon fill="white" stroke="#666666" points="3080.5,-426 2974.5,-426 2974.5,-396 3080.5,-396 3080.5,-426"/>
<text text-anchor="start" x="2982.5" y="-414" font-family="Helvetica,sans-Serif" font-size="10.00">include/rel/d/a/d_a</text>
<text text-anchor="middle" x="3027.5" y="-403" font-family="Helvetica,sans-Serif" font-size="10.00">_canoe/d_a_canoe.h</text>
</a>
</g>
</g>
<!-- Node1&#45;&gt;Node147 -->
<g id="edge71" class="edge">
<title>Node1&#45;&gt;Node147</title>
<path fill="none" stroke="#63b8ff" d="M2912.56,-457.41C2937.55,-447.54 2967.79,-435.59 2990.99,-426.43"/>
<polygon fill="#63b8ff" stroke="#63b8ff" points="2911.28,-454.15 2903.26,-461.08 2913.85,-460.66 2911.28,-454.15"/>
</g>
<!-- Node252 -->
<g id="node50" class="node">
<title>Node252</title>
<g id="a_node50"><a xlink:href="Z2SoundObject_8cpp.html" target="_top" xlink:title=" ">
<polygon fill="white" stroke="#666666" points="3272,-420.5 3099,-420.5 3099,-401.5 3272,-401.5 3272,-420.5"/>
<text text-anchor="middle" x="3185.5" y="-408.5" font-family="Helvetica,sans-Serif" font-size="10.00">libs/Z2AudioLib/Z2SoundObject.cpp</text>
</a>
</g>
</g>
<!-- Node1&#45;&gt;Node252 -->
<g id="edge72" class="edge">
<title>Node1&#45;&gt;Node252</title>
<path fill="none" stroke="#63b8ff" d="M2927.13,-463.67C2989.64,-451.17 3084.9,-432.12 3140.61,-420.98"/>
<polygon fill="#63b8ff" stroke="#63b8ff" points="2926.46,-460.24 2917.34,-465.63 2927.83,-467.1 2926.46,-460.24"/>
</g>
<!-- Node3 -->
<g id="node3" class="node">
<title>Node3</title>
<g id="a_node3"><a xlink:href="Z2SoundObjMgr_8h.html" target="_top" xlink:title=" ">
<polygon fill="white" stroke="#666666" points="740.5,-294 640.5,-294 640.5,-264 740.5,-264 740.5,-294"/>
<text text-anchor="start" x="648.5" y="-282" font-family="Helvetica,sans-Serif" font-size="10.00">include/Z2AudioLib</text>
<text text-anchor="middle" x="690.5" y="-271" font-family="Helvetica,sans-Serif" font-size="10.00">/Z2SoundObjMgr.h</text>
</a>
</g>
</g>
<!-- Node2&#45;&gt;Node3 -->
<g id="edge2" class="edge">
<title>Node2&#45;&gt;Node3</title>
<path fill="none" stroke="#63b8ff" d="M593.17,-387.22C617.44,-360.49 656.95,-316.96 677.36,-294.47"/>
<polygon fill="#63b8ff" stroke="#63b8ff" points="590.73,-384.71 586.6,-394.47 595.91,-389.42 590.73,-384.71"/>
</g>
<!-- Node8 -->
<g id="node13" class="node">
<title>Node8</title>
<g id="a_node13"><a xlink:href="d__a__alink_8h.html" target="_top" xlink:title=" ">
<polygon fill="white" stroke="#666666" points="1780.5,-354.5 1664.5,-354.5 1664.5,-335.5 1780.5,-335.5 1780.5,-354.5"/>
<text text-anchor="middle" x="1722.5" y="-342.5" font-family="Helvetica,sans-Serif" font-size="10.00">include/d/a/d_a_alink.h</text>
</a>
</g>
</g>
<!-- Node2&#45;&gt;Node8 -->
<g id="edge14" class="edge">
<title>Node2&#45;&gt;Node8</title>
<path fill="none" stroke="#63b8ff" d="M634.12,-406.57C834.81,-395.4 1467.92,-360.17 1664.01,-349.25"/>
<polygon fill="#63b8ff" stroke="#63b8ff" points="633.95,-403.07 624.16,-407.12 634.34,-410.06 633.95,-403.07"/>
</g>
<!-- Node17 -->
<g id="node17" class="node">
<title>Node17</title>
<g id="a_node17"><a xlink:href="d__a__e__wb_8h.html" target="_top" xlink:title=" ">
<polygon fill="white" stroke="#666666" points="406.5,-151 296.5,-151 296.5,-121 406.5,-121 406.5,-151"/>
<text text-anchor="start" x="304.5" y="-139" font-family="Helvetica,sans-Serif" font-size="10.00">include/rel/d/a/e/d</text>
<text text-anchor="middle" x="351.5" y="-128" font-family="Helvetica,sans-Serif" font-size="10.00">_a_e_wb/d_a_e_wb.h</text>
</a>
</g>
</g>
<!-- Node2&#45;&gt;Node17 -->
<g id="edge60" class="edge">
<title>Node2&#45;&gt;Node17</title>
<path fill="none" stroke="#63b8ff" d="M533.94,-390.33C497.78,-370.27 444.24,-336.13 409.5,-294 373.09,-249.83 358.37,-180.67 353.52,-151.14"/>
<polygon fill="#63b8ff" stroke="#63b8ff" points="531.86,-393.19 542.31,-394.89 535.2,-387.04 531.86,-393.19"/>
</g>
<!-- Node131 -->
<g id="node40" class="node">
<title>Node131</title>
<g id="a_node40"><a xlink:href="d__a__horse_8h.html" target="_top" xlink:title=" ">
<polygon fill="white" stroke="#666666" points="520,-294 419,-294 419,-264 520,-264 520,-294"/>
<text text-anchor="start" x="427" y="-282" font-family="Helvetica,sans-Serif" font-size="10.00">include/rel/d/a/d_a</text>
<text text-anchor="middle" x="469.5" y="-271" font-family="Helvetica,sans-Serif" font-size="10.00">_horse/d_a_horse.h</text>
</a>
</g>
</g>
<!-- Node2&#45;&gt;Node131 -->
<g id="edge54" class="edge">
<title>Node2&#45;&gt;Node131</title>
<path fill="none" stroke="#63b8ff" d="M554.18,-386.87C532.98,-360.11 498.71,-316.87 480.97,-294.47"/>
<polygon fill="#63b8ff" stroke="#63b8ff" points="551.19,-388.74 560.14,-394.4 556.68,-384.39 551.19,-388.74"/>
</g>
<!-- Node148 -->
<g id="node41" class="node">
<title>Node148</title>
<g id="a_node41"><a xlink:href="d__a__mg__rod_8h.html" target="_top" xlink:title=" ">
<polygon fill="white" stroke="#666666" points="738.5,-85 620.5,-85 620.5,-55 738.5,-55 738.5,-85"/>
<text text-anchor="start" x="628.5" y="-73" font-family="Helvetica,sans-Serif" font-size="10.00">include/rel/d/a/d_a</text>
<text text-anchor="middle" x="679.5" y="-62" font-family="Helvetica,sans-Serif" font-size="10.00">_mg_rod/d_a_mg_rod.h</text>
</a>
</g>
</g>
<!-- Node2&#45;&gt;Node148 -->
<g id="edge58" class="edge">
<title>Node2&#45;&gt;Node148</title>
<path fill="none" stroke="#63b8ff" d="M578.45,-384.54C584.03,-358.45 591.5,-316.62 591.5,-280 591.5,-280 591.5,-280 591.5,-206.5 591.5,-155.17 636.47,-107.98 662.11,-85.25"/>
<polygon fill="#63b8ff" stroke="#63b8ff" points="575.06,-383.67 576.31,-394.19 581.89,-385.19 575.06,-383.67"/>
</g>
<!-- Node248 -->
<g id="node42" class="node">
<title>Node248</title>
<g id="a_node42"><a xlink:href="Z2Creature_8cpp.html" target="_top" xlink:title=" ">
<polygon fill="white" stroke="#666666" points="153,-354.5 0,-354.5 0,-335.5 153,-335.5 153,-354.5"/>
<text text-anchor="middle" x="76.5" y="-342.5" font-family="Helvetica,sans-Serif" font-size="10.00">libs/Z2AudioLib/Z2Creature.cpp</text>
</a>
</g>
</g>
<!-- Node2&#45;&gt;Node248 -->
<g id="edge61" class="edge">
<title>Node2&#45;&gt;Node248</title>
<path fill="none" stroke="#63b8ff" d="M510.87,-403.26C430.56,-394.3 285.82,-377.55 162.5,-360 151.87,-358.49 140.52,-356.74 129.67,-355"/>
<polygon fill="#63b8ff" stroke="#63b8ff" points="510.41,-406.73 520.73,-404.36 511.18,-399.78 510.41,-406.73"/>
</g>
<!-- Node249 -->
<g id="node43" class="node">
<title>Node249</title>
<g id="a_node43"><a xlink:href="Z2LinkMgr_8cpp.html" target="_top" xlink:title=" ">
<polygon fill="white" stroke="#666666" points="323.5,-354.5 171.5,-354.5 171.5,-335.5 323.5,-335.5 323.5,-354.5"/>
<text text-anchor="middle" x="247.5" y="-342.5" font-family="Helvetica,sans-Serif" font-size="10.00">libs/Z2AudioLib/Z2LinkMgr.cpp</text>
</a>
</g>
</g>
<!-- Node2&#45;&gt;Node249 -->
<g id="edge62" class="edge">
<title>Node2&#45;&gt;Node249</title>
<path fill="none" stroke="#63b8ff" d="M511.03,-397.89C447.54,-385.39 349.96,-366.18 293.05,-354.97"/>
<polygon fill="#63b8ff" stroke="#63b8ff" points="510.1,-401.28 520.59,-399.78 511.46,-394.41 510.1,-401.28"/>
</g>
<!-- Node4 -->
<g id="node4" class="node">
<title>Node4</title>
<g id="a_node4"><a xlink:href="Z2AudioMgr_8h.html" target="_top" xlink:title=" ">
<polygon fill="white" stroke="#666666" points="1054.5,-222.5 954.5,-222.5 954.5,-192.5 1054.5,-192.5 1054.5,-222.5"/>
<text text-anchor="start" x="962.5" y="-210.5" font-family="Helvetica,sans-Serif" font-size="10.00">include/Z2AudioLib</text>
<text text-anchor="middle" x="1004.5" y="-199.5" font-family="Helvetica,sans-Serif" font-size="10.00">/Z2AudioMgr.h</text>
</a>
</g>
</g>
<!-- Node3&#45;&gt;Node4 -->
<g id="edge3" class="edge">
<title>Node3&#45;&gt;Node4</title>
<path fill="none" stroke="#63b8ff" d="M751.99,-264.39C811.04,-251.32 899.18,-231.81 954.18,-219.64"/>
<polygon fill="#63b8ff" stroke="#63b8ff" points="751.43,-260.93 742.43,-266.51 752.95,-267.76 751.43,-260.93"/>
</g>
<!-- Node247 -->
<g id="node12" class="node">
<title>Node247</title>
<g id="a_node12"><a xlink:href="Z2SoundObjMgr_8cpp.html" target="_top" xlink:title=" ">
<polygon fill="white" stroke="#666666" points="761,-222.5 620,-222.5 620,-192.5 761,-192.5 761,-222.5"/>
<text text-anchor="start" x="628" y="-210.5" font-family="Helvetica,sans-Serif" font-size="10.00">libs/Z2AudioLib/Z2SoundObj</text>
<text text-anchor="middle" x="690.5" y="-199.5" font-family="Helvetica,sans-Serif" font-size="10.00">Mgr.cpp</text>
</a>
</g>
</g>
<!-- Node3&#45;&gt;Node247 -->
<g id="edge13" class="edge">
<title>Node3&#45;&gt;Node247</title>
<path fill="none" stroke="#63b8ff" d="M690.5,-252.26C690.5,-242.33 690.5,-231.36 690.5,-222.88"/>
<polygon fill="#63b8ff" stroke="#63b8ff" points="687,-252.09 690.5,-262.09 694,-252.09 687,-252.09"/>
</g>
<!-- Node5 -->
<g id="node5" class="node">
<title>Node5</title>
<g id="a_node5"><a xlink:href="m__Do__audio_8h.html" target="_top" xlink:title=" ">
<polygon fill="#fff0f0" stroke="red" points="1157.5,-145.5 1017.5,-145.5 1017.5,-126.5 1157.5,-126.5 1157.5,-145.5"/>
<text text-anchor="middle" x="1087.5" y="-133.5" font-family="Helvetica,sans-Serif" font-size="10.00">include/m_Do/m_Do_audio.h</text>
</a>
</g>
</g>
<!-- Node4&#45;&gt;Node5 -->
<g id="edge4" class="edge">
<title>Node4&#45;&gt;Node5</title>
<path fill="none" stroke="#63b8ff" d="M1030.5,-184.73C1046.27,-171.53 1065.52,-155.4 1077.13,-145.68"/>
<polygon fill="#63b8ff" stroke="#63b8ff" points="1028.28,-182.02 1022.86,-191.13 1032.77,-187.39 1028.28,-182.02"/>
</g>
<!-- Node19 -->
<g id="node6" class="node">
<title>Node19</title>
<g id="a_node6"><a xlink:href="d__a__alink_8cpp.html" target="_top" xlink:title=" ">
<polygon fill="white" stroke="#666666" points="1278,-19 1169,-19 1169,0 1278,0 1278,-19"/>
<text text-anchor="middle" x="1223.5" y="-7" font-family="Helvetica,sans-Serif" font-size="10.00">src/d/a/d_a_alink.cpp</text>
</a>
</g>
</g>
<!-- Node4&#45;&gt;Node19 -->
<g id="edge8" class="edge">
<title>Node4&#45;&gt;Node19</title>
<path fill="none" stroke="#63b8ff" d="M1060.57,-188.51C1105.73,-173.83 1162.39,-154.89 1166.5,-151 1176.78,-141.28 1210,-48.79 1220.37,-19.41"/>
<polygon fill="#63b8ff" stroke="#63b8ff" points="1059.54,-185.16 1051.11,-191.58 1061.7,-191.82 1059.54,-185.16"/>
</g>
<!-- Node96 -->
<g id="node7" class="node">
<title>Node96</title>
<g id="a_node7"><a xlink:href="d__event__manager_8cpp.html" target="_top" xlink:title=" ">
<polygon fill="white" stroke="#666666" points="865,-85 762,-85 762,-55 865,-55 865,-85"/>
<text text-anchor="start" x="770" y="-73" font-family="Helvetica,sans-Serif" font-size="10.00">src/d/event/d_event</text>
<text text-anchor="middle" x="813.5" y="-62" font-family="Helvetica,sans-Serif" font-size="10.00">_manager.cpp</text>
</a>
</g>
</g>
<!-- Node4&#45;&gt;Node96 -->
<g id="edge9" class="edge">
<title>Node4&#45;&gt;Node96</title>
<path fill="none" stroke="#63b8ff" d="M946.96,-188.66C897.77,-173.29 834.57,-153.24 832.5,-151 815.84,-132.97 812.99,-103.05 812.91,-85.36"/>
<polygon fill="#63b8ff" stroke="#63b8ff" points="945.81,-191.97 956.4,-191.6 947.89,-185.28 945.81,-191.97"/>
</g>
<!-- Node246 -->
<g id="node8" class="node">
<title>Node246</title>
<g id="a_node8"><a xlink:href="Z2AudioMgr_8cpp.html" target="_top" xlink:title=" ">
<polygon fill="white" stroke="#666666" points="999.5,-145.5 841.5,-145.5 841.5,-126.5 999.5,-126.5 999.5,-145.5"/>
<text text-anchor="middle" x="920.5" y="-133.5" font-family="Helvetica,sans-Serif" font-size="10.00">libs/Z2AudioLib/Z2AudioMgr.cpp</text>
</a>
</g>
</g>
<!-- Node4&#45;&gt;Node246 -->
<g id="edge7" class="edge">
<title>Node4&#45;&gt;Node246</title>
<path fill="none" stroke="#63b8ff" d="M978.64,-185.1C962.6,-171.83 942.85,-155.49 930.99,-145.68"/>
<polygon fill="#63b8ff" stroke="#63b8ff" points="975.99,-187.46 985.93,-191.13 980.46,-182.06 975.99,-187.46"/>
</g>
<!-- Node42 -->
<g id="node9" class="node">
<title>Node42</title>
<g id="a_node9"><a xlink:href="d__menu__window_8cpp.html" target="_top" xlink:title=" ">
<polygon fill="white" stroke="#666666" points="2974,-145.5 2815,-145.5 2815,-126.5 2974,-126.5 2974,-145.5"/>
<text text-anchor="middle" x="2894.5" y="-133.5" font-family="Helvetica,sans-Serif" font-size="10.00">src/d/menu/d_menu_window.cpp</text>
</a>
</g>
</g>
<!-- Node4&#45;&gt;Node42 -->
<g id="edge10" class="edge">
<title>Node4&#45;&gt;Node42</title>
<path fill="none" stroke="#63b8ff" d="M1066.29,-196.05C1089.22,-192.58 1115.48,-189.07 1139.5,-187 1471.56,-158.38 2516.99,-142.17 2814.68,-138.05"/>
<polygon fill="#63b8ff" stroke="#63b8ff" points="1065.83,-192.58 1056.48,-197.57 1066.9,-199.5 1065.83,-192.58"/>
</g>
<!-- Node43 -->
<g id="node10" class="node">
<title>Node43</title>
<g id="a_node10"><a xlink:href="d__meter__map_8cpp.html" target="_top" xlink:title=" ">
<polygon fill="white" stroke="#666666" points="3134.5,-151 3030.5,-151 3030.5,-121 3134.5,-121 3134.5,-151"/>
<text text-anchor="start" x="3038.5" y="-139" font-family="Helvetica,sans-Serif" font-size="10.00">src/d/meter/d_meter</text>
<text text-anchor="middle" x="3082.5" y="-128" font-family="Helvetica,sans-Serif" font-size="10.00">_map.cpp</text>
</a>
</g>
</g>
<!-- Node4&#45;&gt;Node43 -->
<g id="edge11" class="edge">
<title>Node4&#45;&gt;Node43</title>
<path fill="none" stroke="#63b8ff" d="M1066.28,-195.93C1089.21,-192.45 1115.47,-188.96 1139.5,-187 1956.49,-120.28 2166.41,-216.51 2983.5,-151 2998.73,-149.78 3015.18,-147.74 3030.22,-145.6"/>
<polygon fill="#63b8ff" stroke="#63b8ff" points="1065.81,-192.46 1056.47,-197.46 1066.89,-199.38 1065.81,-192.46"/>
</g>
<!-- Node44 -->
<g id="node11" class="node">
<title>Node44</title>
<g id="a_node11"><a xlink:href="d__save_8cpp.html" target="_top" xlink:title=" ">
<polygon fill="white" stroke="#666666" points="1367,-145.5 1252,-145.5 1252,-126.5 1367,-126.5 1367,-145.5"/>
<text text-anchor="middle" x="1309.5" y="-133.5" font-family="Helvetica,sans-Serif" font-size="10.00">src/d/save/d_save.cpp</text>
</a>
</g>
</g>
<!-- Node4&#45;&gt;Node44 -->
<g id="edge12" class="edge">
<title>Node4&#45;&gt;Node44</title>
<path fill="none" stroke="#63b8ff" d="M1065.87,-192.52C1126.83,-178.63 1218.46,-157.75 1270.23,-145.95"/>
<polygon fill="#63b8ff" stroke="#63b8ff" points="1065.31,-189.05 1056.34,-194.69 1066.87,-195.88 1065.31,-189.05"/>
</g>
<!-- Node5&#45;&gt;Node19 -->
<g id="edge5" class="edge">
<title>Node5&#45;&gt;Node19</title>
<path fill="none" stroke="#63b8ff" d="M1103.96,-118.83C1120.72,-102.48 1147.57,-76.61 1171.5,-55 1185.61,-42.26 1202.4,-28.06 1213,-19.21"/>
<polygon fill="#63b8ff" stroke="#63b8ff" points="1101.96,-115.88 1097.27,-125.38 1106.86,-120.88 1101.96,-115.88"/>
</g>
<!-- Node5&#45;&gt;Node96 -->
<g id="edge6" class="edge">
<title>Node5&#45;&gt;Node96</title>
<path fill="none" stroke="#63b8ff" d="M1038.19,-123.48C989.34,-112.07 914.84,-94.67 865.18,-83.07"/>
<polygon fill="#63b8ff" stroke="#63b8ff" points="1037.11,-126.82 1047.64,-125.69 1038.7,-120.01 1037.11,-126.82"/>
</g>
<!-- Node8&#45;&gt;Node19 -->
<g id="edge53" class="edge">
<title>Node8&#45;&gt;Node19</title>
<path fill="none" stroke="#63b8ff" d="M1652.84,-341.11C1510.35,-333.58 1193.43,-308.02 1127.5,-228 1115.91,-213.94 1118.46,-202.82 1127.5,-187 1143.11,-159.66 1168.88,-175.62 1188.5,-151 1220.93,-110.31 1223.8,-43.56 1223.71,-19.5"/>
<polygon fill="#63b8ff" stroke="#63b8ff" points="1652.35,-344.59 1662.52,-341.6 1652.71,-337.6 1652.35,-344.59"/>
</g>
<!-- Node9 -->
<g id="node14" class="node">
<title>Node9</title>
<g id="a_node14"><a xlink:href="d__com__inf__game_8h.html" target="_top" xlink:title=" ">
<polygon fill="#fff0f0" stroke="red" points="2417.5,-294 2307.5,-294 2307.5,-264 2417.5,-264 2417.5,-294"/>
<text text-anchor="start" x="2315.5" y="-282" font-family="Helvetica,sans-Serif" font-size="10.00">include/d/com/d_com</text>
<text text-anchor="middle" x="2362.5" y="-271" font-family="Helvetica,sans-Serif" font-size="10.00">_inf_game.h</text>
</a>
</g>
</g>
<!-- Node8&#45;&gt;Node9 -->
<g id="edge15" class="edge">
<title>Node8&#45;&gt;Node9</title>
<path fill="none" stroke="#63b8ff" d="M1792.19,-337.03C1920.26,-324.22 2190.58,-297.19 2307.12,-285.54"/>
<polygon fill="#63b8ff" stroke="#63b8ff" points="1792.1,-333.52 1782.5,-338 1792.8,-340.49 1792.1,-333.52"/>
</g>
<!-- Node9&#45;&gt;Node19 -->
<g id="edge44" class="edge">
<title>Node9&#45;&gt;Node19</title>
<path fill="none" stroke="#63b8ff" d="M2429.31,-276.72C2695.15,-271.49 3664.48,-250.87 3686.5,-228 3699.14,-214.87 3698.02,-201.12 3686.5,-187 3593.84,-73.5 3507.87,-146.04 3363.5,-121 3159.13,-85.56 3108.18,-72.45 2901.5,-55 2575.36,-27.47 1529.66,-13.99 1278.24,-11.1"/>
<polygon fill="#63b8ff" stroke="#63b8ff" points="2429.37,-273.22 2419.44,-276.92 2429.51,-280.22 2429.37,-273.22"/>
</g>
<!-- Node9&#45;&gt;Node96 -->
<g id="edge49" class="edge">
<title>Node9&#45;&gt;Node96</title>
<path fill="none" stroke="#63b8ff" d="M2295.87,-277.05C2023.68,-272.98 1007.67,-255.98 945.5,-228 922.57,-217.68 927.4,-200.99 906.5,-187 869.67,-162.35 838.55,-187.56 813.5,-151 800.15,-131.52 804.53,-102.64 808.98,-85.42"/>
<polygon fill="#63b8ff" stroke="#63b8ff" points="2295.57,-280.54 2305.62,-277.19 2295.67,-273.54 2295.57,-280.54"/>
</g>
<!-- Node9&#45;&gt;Node42 -->
<g id="edge50" class="edge">
<title>Node9&#45;&gt;Node42</title>
<path fill="none" stroke="#63b8ff" d="M2429.1,-277.19C2573.77,-274.73 2906.51,-265.06 2940.5,-228 2963.71,-202.69 2925.33,-163.48 2905.37,-145.97"/>
<polygon fill="#63b8ff" stroke="#63b8ff" points="2429.23,-273.68 2419.29,-277.35 2429.34,-280.68 2429.23,-273.68"/>
</g>
<!-- Node9&#45;&gt;Node43 -->
<g id="edge51" class="edge">
<title>Node9&#45;&gt;Node43</title>
<path fill="none" stroke="#63b8ff" d="M2429.18,-278.59C2603.19,-279.42 3060.78,-276.9 3106.5,-228 3126.36,-206.76 3107,-171.06 3093.36,-151.28"/>
<polygon fill="#63b8ff" stroke="#63b8ff" points="2429.42,-275.09 2419.4,-278.53 2429.38,-282.09 2429.42,-275.09"/>
</g>
<!-- Node9&#45;&gt;Node44 -->
<g id="edge52" class="edge">
<title>Node9&#45;&gt;Node44</title>
<path fill="none" stroke="#63b8ff" d="M2295.85,-277.8C2046.35,-276.72 1179.79,-269.97 1139.5,-228 1126.88,-214.85 1128.58,-201.59 1139.5,-187 1147.47,-176.35 1222.3,-157.26 1269.99,-146"/>
<polygon fill="#63b8ff" stroke="#63b8ff" points="2295.73,-281.3 2305.74,-277.84 2295.76,-274.3 2295.73,-281.3"/>
</g>
<!-- Node10 -->
<g id="node15" class="node">
<title>Node10</title>
<g id="a_node15"><a xlink:href="d__a__npc_8h.html" target="_top" xlink:title=" ">
<polygon fill="#fff0f0" stroke="red" points="3437,-217 3326,-217 3326,-198 3437,-198 3437,-217"/>
<text text-anchor="middle" x="3381.5" y="-205" font-family="Helvetica,sans-Serif" font-size="10.00">include/d/a/d_a_npc.h</text>
</a>
</g>
</g>
<!-- Node9&#45;&gt;Node10 -->
<g id="edge16" class="edge">
<title>Node9&#45;&gt;Node10</title>
<path fill="none" stroke="#63b8ff" d="M2429.19,-276.39C2615.89,-271.57 3141.25,-255.85 3311.5,-228 3325.94,-225.64 3341.67,-221.41 3354.55,-217.5"/>
<polygon fill="#63b8ff" stroke="#63b8ff" points="2429.33,-272.88 2419.42,-276.64 2429.51,-279.88 2429.33,-272.88"/>
</g>
<!-- Node16 -->
<g id="node16" class="node">
<title>Node16</title>
<g id="a_node16"><a xlink:href="d__cc__uty_8h.html" target="_top" xlink:title=" ">
<polygon fill="#fff0f0" stroke="red" points="898,-217 779,-217 779,-198 898,-198 898,-217"/>
<text text-anchor="middle" x="838.5" y="-205" font-family="Helvetica,sans-Serif" font-size="10.00">include/d/cc/d_cc_uty.h</text>
</a>
</g>
</g>
<!-- Node9&#45;&gt;Node16 -->
<g id="edge17" class="edge">
<title>Node9&#45;&gt;Node16</title>
<path fill="none" stroke="#63b8ff" d="M2295.91,-277.67C2048.82,-276.16 1184.79,-268.06 912.5,-228 896.99,-225.72 880.06,-221.4 866.31,-217.4"/>
<polygon fill="#63b8ff" stroke="#63b8ff" points="2295.67,-281.17 2305.69,-277.73 2295.71,-274.17 2295.67,-281.17"/>
</g>
<!-- Node22 -->
<g id="node19" class="node">
<title>Node22</title>
<g id="a_node19"><a xlink:href="d__item_8h.html" target="_top" xlink:title=" ">
<polygon fill="#fff0f0" stroke="red" points="3791,-79.5 3696,-79.5 3696,-60.5 3791,-60.5 3791,-79.5"/>
<text text-anchor="middle" x="3743.5" y="-67.5" font-family="Helvetica,sans-Serif" font-size="10.00">include/d/d_item.h</text>
</a>
</g>
</g>
<!-- Node9&#45;&gt;Node22 -->
<g id="edge21" class="edge">
<title>Node9&#45;&gt;Node22</title>
<path fill="none" stroke="#63b8ff" d="M2429.12,-276.69C2698.65,-271.25 3695.16,-249.7 3719.5,-228 3763.14,-189.11 3750.96,-106.96 3745.48,-79.87"/>
<polygon fill="#63b8ff" stroke="#63b8ff" points="2429.4,-273.18 2419.47,-276.88 2429.54,-280.18 2429.4,-273.18"/>
</g>
<!-- Node27 -->
<g id="node20" class="node">
<title>Node27</title>
<g id="a_node20"><a xlink:href="d__kantera__icon__meter_8h.html" target="_top" xlink:title=" ">
<polygon fill="#fff0f0" stroke="red" points="3556,-222.5 3455,-222.5 3455,-192.5 3556,-192.5 3556,-222.5"/>
<text text-anchor="start" x="3463" y="-210.5" font-family="Helvetica,sans-Serif" font-size="10.00">include/d/d_kantera</text>
<text text-anchor="middle" x="3505.5" y="-199.5" font-family="Helvetica,sans-Serif" font-size="10.00">_icon_meter.h</text>
</a>
</g>
</g>
<!-- Node9&#45;&gt;Node27 -->
<g id="edge23" class="edge">
<title>Node9&#45;&gt;Node27</title>
<path fill="none" stroke="#63b8ff" d="M2429.42,-277.3C2634.12,-274.78 3249.89,-264.32 3446.5,-228 3453.18,-226.77 3460.15,-224.96 3466.86,-222.93"/>
<polygon fill="#63b8ff" stroke="#63b8ff" points="2429.44,-273.8 2419.48,-277.42 2429.52,-280.8 2429.44,-273.8"/>
</g>
<!-- Node30 -->
<g id="node21" class="node">
<title>Node30</title>
<g id="a_node21"><a xlink:href="d__model_8h.html" target="_top" xlink:title=" ">
<polygon fill="#fff0f0" stroke="red" points="3677,-217 3574,-217 3574,-198 3677,-198 3677,-217"/>
<text text-anchor="middle" x="3625.5" y="-205" font-family="Helvetica,sans-Serif" font-size="10.00">include/d/d_model.h</text>
</a>
</g>
</g>
<!-- Node9&#45;&gt;Node30 -->
<g id="edge24" class="edge">
<title>Node9&#45;&gt;Node30</title>
<path fill="none" stroke="#63b8ff" d="M2429.3,-276.29C2665.6,-270.08 3453.78,-248.09 3565.5,-228 3578.11,-225.73 3591.73,-221.46 3602.8,-217.5"/>
<polygon fill="#63b8ff" stroke="#63b8ff" points="2429.23,-272.79 2419.32,-276.55 2429.41,-279.79 2429.23,-272.79"/>
</g>
<!-- Node32 -->
<g id="node22" class="node">
<title>Node32</title>
<g id="a_node22"><a xlink:href="d__name_8h.html" target="_top" xlink:title=" ">
<polygon fill="#fff0f0" stroke="red" points="1250,-217 1149,-217 1149,-198 1250,-198 1250,-217"/>
<text text-anchor="middle" x="1199.5" y="-205" font-family="Helvetica,sans-Serif" font-size="10.00">include/d/d_name.h</text>
</a>
</g>
</g>
<!-- Node9&#45;&gt;Node32 -->
<g id="edge25" class="edge">
<title>Node9&#45;&gt;Node32</title>
<path fill="none" stroke="#63b8ff" d="M2295.81,-277.32C2088.95,-274.85 1460.1,-264.46 1259.5,-228 1246.89,-225.71 1233.28,-221.44 1222.21,-217.48"/>
<polygon fill="#63b8ff" stroke="#63b8ff" points="2295.53,-280.82 2305.57,-277.44 2295.61,-273.82 2295.53,-280.82"/>
</g>
<!-- Node34 -->
<g id="node23" class="node">
<title>Node34</title>
<g id="a_node23"><a xlink:href="d__file__sel__info_8h.html" target="_top" xlink:title=" ">
<polygon fill="#fff0f0" stroke="red" points="1364.5,-222.5 1268.5,-222.5 1268.5,-192.5 1364.5,-192.5 1364.5,-222.5"/>
<text text-anchor="start" x="1276.5" y="-210.5" font-family="Helvetica,sans-Serif" font-size="10.00">include/d/file/d_file</text>
<text text-anchor="middle" x="1316.5" y="-199.5" font-family="Helvetica,sans-Serif" font-size="10.00">_sel_info.h</text>
</a>
</g>
</g>
<!-- Node9&#45;&gt;Node34 -->
<g id="edge26" class="edge">
<title>Node9&#45;&gt;Node34</title>
<path fill="none" stroke="#63b8ff" d="M2295.91,-277.05C2103.8,-273.92 1550.94,-262.14 1373.5,-228 1367.03,-226.76 1360.29,-224.94 1353.81,-222.92"/>
<polygon fill="#63b8ff" stroke="#63b8ff" points="2295.66,-280.55 2305.72,-277.21 2295.77,-273.55 2295.66,-280.55"/>
</g>
<!-- Node37 -->
<g id="node24" class="node">
<title>Node37</title>
<g id="a_node24"><a xlink:href="d__file__sel__warning_8h.html" target="_top" xlink:title=" ">
<polygon fill="#fff0f0" stroke="red" points="1478.5,-222.5 1382.5,-222.5 1382.5,-192.5 1478.5,-192.5 1478.5,-222.5"/>
<text text-anchor="start" x="1390.5" y="-210.5" font-family="Helvetica,sans-Serif" font-size="10.00">include/d/file/d_file</text>
<text text-anchor="middle" x="1430.5" y="-199.5" font-family="Helvetica,sans-Serif" font-size="10.00">_sel_warning.h</text>
</a>
</g>
</g>
<!-- Node9&#45;&gt;Node37 -->
<g id="edge27" class="edge">
<title>Node9&#45;&gt;Node37</title>
<path fill="none" stroke="#63b8ff" d="M2295.84,-276.54C2119.21,-272.29 1642.12,-258.27 1487.5,-228 1481.14,-226.75 1474.51,-224.97 1468.13,-222.98"/>
<polygon fill="#63b8ff" stroke="#63b8ff" points="2295.69,-280.03 2305.77,-276.77 2295.85,-273.04 2295.69,-280.03"/>
</g>
<!-- Node39 -->
<g id="node25" class="node">
<title>Node39</title>
<g id="a_node25"><a xlink:href="d__meter2_8h.html" target="_top" xlink:title=" ">
<polygon fill="#fff0f0" stroke="red" points="1630.5,-217 1496.5,-217 1496.5,-198 1630.5,-198 1630.5,-217"/>
<text text-anchor="middle" x="1563.5" y="-205" font-family="Helvetica,sans-Serif" font-size="10.00">include/d/meter/d_meter2.h</text>
</a>
</g>
</g>
<!-- Node9&#45;&gt;Node39 -->
<g id="edge28" class="edge">
<title>Node9&#45;&gt;Node39</title>
<path fill="none" stroke="#63b8ff" d="M2296.1,-277.44C2168.21,-275.47 1879.14,-266.7 1639.5,-228 1624.04,-225.5 1607.13,-221.31 1593.19,-217.46"/>
<polygon fill="#63b8ff" stroke="#63b8ff" points="2295.67,-280.93 2305.72,-277.58 2295.77,-273.93 2295.67,-280.93"/>
</g>
<!-- Node46 -->
<g id="node26" class="node">
<title>Node46</title>
<g id="a_node26"><a xlink:href="d__msg__object_8h.html" target="_top" xlink:title=" ">
<polygon fill="#fff0f0" stroke="red" points="3097.5,-222.5 2987.5,-222.5 2987.5,-192.5 3097.5,-192.5 3097.5,-222.5"/>
<text text-anchor="start" x="2995.5" y="-210.5" font-family="Helvetica,sans-Serif" font-size="10.00">include/d/msg/d_msg</text>
<text text-anchor="middle" x="3042.5" y="-199.5" font-family="Helvetica,sans-Serif" font-size="10.00">_object.h</text>
</a>
</g>
</g>
<!-- Node9&#45;&gt;Node46 -->
<g id="edge29" class="edge">
<title>Node9&#45;&gt;Node46</title>
<path fill="none" stroke="#63b8ff" d="M2428.91,-276.77C2541.71,-273.74 2777.56,-263.36 2973.5,-228 2980.85,-226.67 2988.55,-224.9 2996.02,-222.96"/>
<polygon fill="#63b8ff" stroke="#63b8ff" points="2429.15,-273.26 2419.25,-277.02 2429.33,-280.26 2429.15,-273.26"/>
</g>
<!-- Node60 -->
<g id="node27" class="node">
<title>Node60</title>
<g id="a_node27"><a xlink:href="d__s__logo_8h.html" target="_top" xlink:title=" ">
<polygon fill="#fff0f0" stroke="red" points="1762,-217 1649,-217 1649,-198 1762,-198 1762,-217"/>
<text text-anchor="middle" x="1705.5" y="-205" font-family="Helvetica,sans-Serif" font-size="10.00">include/d/s/d_s_logo.h</text>
</a>
</g>
</g>
<!-- Node9&#45;&gt;Node60 -->
<g id="edge33" class="edge">
<title>Node9&#45;&gt;Node60</title>
<path fill="none" stroke="#63b8ff" d="M2296.05,-276.86C2185.89,-273.98 1958.89,-263.81 1770.5,-228 1757.19,-225.47 1742.72,-221.28 1730.82,-217.43"/>
<polygon fill="#63b8ff" stroke="#63b8ff" points="2295.7,-280.35 2305.79,-277.1 2295.88,-273.36 2295.7,-280.35"/>
</g>
<!-- Node62 -->
<g id="node28" class="node">
<title>Node62</title>
<g id="a_node28"><a xlink:href="d__s__play_8h.html" target="_top" xlink:title=" ">
<polygon fill="#fff0f0" stroke="red" points="1893,-217 1780,-217 1780,-198 1893,-198 1893,-217"/>
<text text-anchor="middle" x="1836.5" y="-205" font-family="Helvetica,sans-Serif" font-size="10.00">include/d/s/d_s_play.h</text>
</a>
</g>
</g>
<!-- Node9&#45;&gt;Node62 -->
<g id="edge34" class="edge">
<title>Node9&#45;&gt;Node62</title>
<path fill="none" stroke="#63b8ff" d="M2295.58,-274.6C2205.35,-269.14 2040.02,-256.04 1901.5,-228 1888.45,-225.36 1874.26,-221.25 1862.47,-217.48"/>
<polygon fill="#63b8ff" stroke="#63b8ff" points="2295.3,-278.09 2305.49,-275.18 2295.71,-271.1 2295.3,-278.09"/>
</g>
<!-- Node66 -->
<g id="node29" class="node">
<title>Node66</title>
<g id="a_node29"><a xlink:href="d__msg__scrn__base_8h.html" target="_top" xlink:title=" ">
<polygon fill="#fff0f0" stroke="red" points="2010,-222.5 1911,-222.5 1911,-192.5 2010,-192.5 2010,-222.5"/>
<text text-anchor="start" x="1919" y="-210.5" font-family="Helvetica,sans-Serif" font-size="10.00">include/msg/scrn/d</text>
<text text-anchor="middle" x="1960.5" y="-199.5" font-family="Helvetica,sans-Serif" font-size="10.00">_msg_scrn_base.h</text>
</a>
</g>
</g>
<!-- Node9&#45;&gt;Node66 -->
<g id="edge35" class="edge">
<title>Node9&#45;&gt;Node66</title>
<path fill="none" stroke="#63b8ff" d="M2295.86,-271.91C2226.07,-264.69 2113.58,-250.7 2018.5,-228 2012.61,-226.59 2006.47,-224.85 2000.48,-222.98"/>
<polygon fill="#63b8ff" stroke="#63b8ff" points="2295.3,-275.37 2305.6,-272.9 2296.01,-268.4 2295.3,-275.37"/>
</g>
<!-- Node70 -->
<g id="node30" class="node">
<title>Node70</title>
<g id="a_node30"><a xlink:href="d__a__b__zant_8h.html" target="_top" xlink:title=" ">
<polygon fill="white" stroke="#666666" points="2149,-222.5 2028,-222.5 2028,-192.5 2149,-192.5 2149,-222.5"/>
<text text-anchor="start" x="2036" y="-210.5" font-family="Helvetica,sans-Serif" font-size="10.00">include/rel/d/a/b/d</text>
<text text-anchor="middle" x="2088.5" y="-199.5" font-family="Helvetica,sans-Serif" font-size="10.00">_a_b_zant/d_a_b_zant.h</text>
</a>
</g>
</g>
<!-- Node9&#45;&gt;Node70 -->
<g id="edge36" class="edge">
<title>Node9&#45;&gt;Node70</title>
<path fill="none" stroke="#63b8ff" d="M2296.45,-262.37C2256.45,-252.76 2204.45,-240.03 2158.5,-228 2152.4,-226.4 2146.01,-224.69 2139.68,-222.96"/>
<polygon fill="#63b8ff" stroke="#63b8ff" points="2295.39,-265.71 2305.93,-264.64 2297.02,-258.9 2295.39,-265.71"/>
</g>
<!-- Node71 -->
<g id="node31" class="node">
<title>Node71</title>
<g id="a_node31"><a xlink:href="d__a__skip__2D_8h.html" target="_top" xlink:title=" ">
<polygon fill="white" stroke="#666666" points="2291.5,-222.5 2167.5,-222.5 2167.5,-192.5 2291.5,-192.5 2291.5,-222.5"/>
<text text-anchor="start" x="2175.5" y="-210.5" font-family="Helvetica,sans-Serif" font-size="10.00">include/rel/d/a/d_a</text>
<text text-anchor="middle" x="2229.5" y="-199.5" font-family="Helvetica,sans-Serif" font-size="10.00">_skip_2D/d_a_skip_2D.h</text>
</a>
</g>
</g>
<!-- Node9&#45;&gt;Node71 -->
<g id="edge37" class="edge">
<title>Node9&#45;&gt;Node71</title>
<path fill="none" stroke="#63b8ff" d="M2324.8,-258.3C2303.23,-247.03 2276.63,-233.13 2257.02,-222.88"/>
<polygon fill="#63b8ff" stroke="#63b8ff" points="2323.12,-261.37 2333.6,-262.9 2326.36,-255.17 2323.12,-261.37"/>
</g>
<!-- Node72 -->
<g id="node32" class="node">
<title>Node72</title>
<g id="a_node32"><a xlink:href="d__a__spinner_8h.html" target="_top" xlink:title=" ">
<polygon fill="white" stroke="#666666" points="3269.5,-222.5 3153.5,-222.5 3153.5,-192.5 3269.5,-192.5 3269.5,-222.5"/>
<text text-anchor="start" x="3161.5" y="-210.5" font-family="Helvetica,sans-Serif" font-size="10.00">include/rel/d/a/d_a</text>
<text text-anchor="middle" x="3211.5" y="-199.5" font-family="Helvetica,sans-Serif" font-size="10.00">_spinner/d_a_spinner.h</text>
</a>
</g>
</g>
<!-- Node9&#45;&gt;Node72 -->
<g id="edge38" class="edge">
<title>Node9&#45;&gt;Node72</title>
<path fill="none" stroke="#63b8ff" d="M2428.89,-278.19C2563.76,-277.59 2879.05,-271.2 3139.5,-228 3147.29,-226.71 3155.46,-224.92 3163.38,-222.96"/>
<polygon fill="#63b8ff" stroke="#63b8ff" points="2429.07,-274.69 2419.08,-278.22 2429.09,-281.69 2429.07,-274.69"/>
</g>
<!-- Node73 -->
<g id="node33" class="node">
<title>Node73</title>
<g id="a_node33"><a xlink:href="d__a__player_8cpp.html" target="_top" xlink:title=" ">
<polygon fill="white" stroke="#666666" points="3354.5,-145.5 3240.5,-145.5 3240.5,-126.5 3354.5,-126.5 3354.5,-145.5"/>
<text text-anchor="middle" x="3297.5" y="-133.5" font-family="Helvetica,sans-Serif" font-size="10.00">src/d/a/d_a_player.cpp</text>
</a>
</g>
</g>
<!-- Node9&#45;&gt;Node73 -->
<g id="edge47" class="edge">
<title>Node9&#45;&gt;Node73</title>
<path fill="none" stroke="#63b8ff" d="M2429.06,-276.57C2634.43,-271.87 3246.36,-255.61 3278.5,-228 3302.62,-207.28 3300.87,-164.56 3298.78,-145.97"/>
<polygon fill="#63b8ff" stroke="#63b8ff" points="2429.28,-273.06 2419.37,-276.79 2429.44,-280.06 2429.28,-273.06"/>
</g>
<!-- Node74 -->
<g id="node34" class="node">
<title>Node74</title>
<g id="a_node34"><a xlink:href="d__a__obj__yobikusa_8h.html" target="_top" xlink:title=" ">
<polygon fill="white" stroke="#666666" points="2415,-228 2310,-228 2310,-187 2415,-187 2415,-228"/>
<text text-anchor="start" x="2318" y="-216" font-family="Helvetica,sans-Serif" font-size="10.00">include/rel/d/a/obj</text>
<text text-anchor="start" x="2318" y="-205" font-family="Helvetica,sans-Serif" font-size="10.00">/d_a_obj_yobikusa/d</text>
<text text-anchor="middle" x="2362.5" y="-194" font-family="Helvetica,sans-Serif" font-size="10.00">_a_obj_yobikusa.h</text>
</a>
</g>
</g>
<!-- Node9&#45;&gt;Node74 -->
<g id="edge41" class="edge">
<title>Node9&#45;&gt;Node74</title>
<path fill="none" stroke="#63b8ff" d="M2362.5,-252.36C2362.5,-244.45 2362.5,-235.87 2362.5,-228.42"/>
<polygon fill="#63b8ff" stroke="#63b8ff" points="2359,-252.09 2362.5,-262.09 2366,-252.09 2359,-252.09"/>
</g>
<!-- Node75 -->
<g id="node35" class="node">
<title>Node75</title>
<g id="a_node35"><a xlink:href="d__a__tag__telop_8h.html" target="_top" xlink:title=" ">
<polygon fill="white" stroke="#666666" points="2551.5,-228 2433.5,-228 2433.5,-187 2551.5,-187 2551.5,-228"/>
<text text-anchor="start" x="2441.5" y="-216" font-family="Helvetica,sans-Serif" font-size="10.00">include/rel/d/a/tag</text>
<text text-anchor="start" x="2441.5" y="-205" font-family="Helvetica,sans-Serif" font-size="10.00">/d_a_tag_telop/d_a_tag</text>
<text text-anchor="middle" x="2492.5" y="-194" font-family="Helvetica,sans-Serif" font-size="10.00">_telop.h</text>
</a>
</g>
</g>
<!-- Node9&#45;&gt;Node75 -->
<g id="edge42" class="edge">
<title>Node9&#45;&gt;Node75</title>
<path fill="none" stroke="#63b8ff" d="M2399.3,-258.33C2416.8,-248.97 2437.69,-237.8 2455.25,-228.42"/>
<polygon fill="#63b8ff" stroke="#63b8ff" points="2397.94,-255.08 2390.77,-262.89 2401.24,-261.26 2397.94,-255.08"/>
</g>
<!-- Node76 -->
<g id="node36" class="node">
<title>Node76</title>
<g id="a_node36"><a xlink:href="c__dylink_8cpp.html" target="_top" xlink:title=" ">
<polygon fill="white" stroke="#666666" points="2665,-217 2570,-217 2570,-198 2665,-198 2665,-217"/>
<text text-anchor="middle" x="2617.5" y="-205" font-family="Helvetica,sans-Serif" font-size="10.00">src/c/c_dylink.cpp</text>
</a>
</g>
</g>
<!-- Node9&#45;&gt;Node76 -->
<g id="edge43" class="edge">
<title>Node9&#45;&gt;Node76</title>
<path fill="none" stroke="#63b8ff" d="M2428.98,-262.66C2467.59,-253.39 2517.04,-240.9 2560.5,-228 2571.13,-224.85 2582.73,-220.96 2592.67,-217.49"/>
<polygon fill="#63b8ff" stroke="#63b8ff" points="2428.27,-259.23 2419.35,-264.95 2429.89,-266.04 2428.27,-259.23"/>
</g>
<!-- Node77 -->
<g id="node37" class="node">
<title>Node77</title>
<g id="a_node37"><a xlink:href="d__a__itembase_8cpp.html" target="_top" xlink:title=" ">
<polygon fill="white" stroke="#666666" points="2811.5,-217 2683.5,-217 2683.5,-198 2811.5,-198 2811.5,-217"/>
<text text-anchor="middle" x="2747.5" y="-205" font-family="Helvetica,sans-Serif" font-size="10.00">src/d/a/d_a_itembase.cpp</text>
</a>
</g>
</g>
<!-- Node9&#45;&gt;Node77 -->
<g id="edge45" class="edge">
<title>Node9&#45;&gt;Node77</title>
<path fill="none" stroke="#63b8ff" d="M2429.25,-269.2C2492.47,-260.42 2589.89,-245.69 2673.5,-228 2687.67,-225 2703.19,-221.02 2716.34,-217.44"/>
<polygon fill="#63b8ff" stroke="#63b8ff" points="2428.79,-265.73 2419.36,-270.57 2429.74,-272.67 2428.79,-265.73"/>
</g>
<!-- Node78 -->
<g id="node38" class="node">
<title>Node78</title>
<g id="a_node38"><a xlink:href="d__a__obj_8cpp.html" target="_top" xlink:title=" ">
<polygon fill="white" stroke="#666666" points="2931,-217 2830,-217 2830,-198 2931,-198 2931,-217"/>
<text text-anchor="middle" x="2880.5" y="-205" font-family="Helvetica,sans-Serif" font-size="10.00">src/d/a/d_a_obj.cpp</text>
</a>
</g>
</g>
<!-- Node9&#45;&gt;Node78 -->
<g id="edge46" class="edge">
<title>Node9&#45;&gt;Node78</title>
<path fill="none" stroke="#63b8ff" d="M2429.08,-275.02C2518.83,-270.04 2683.21,-257.48 2820.5,-228 2832.71,-225.38 2845.94,-221.23 2856.87,-217.42"/>
<polygon fill="#63b8ff" stroke="#63b8ff" points="2429.03,-271.52 2419.23,-275.55 2429.4,-278.51 2429.03,-271.52"/>
</g>
<!-- Node81 -->
<g id="node39" class="node">
<title>Node81</title>
<g id="a_node39"><a xlink:href="d__bg__w_8cpp.html" target="_top" xlink:title=" ">
<polygon fill="white" stroke="#666666" points="563,-217 456,-217 456,-198 563,-198 563,-217"/>
<text text-anchor="middle" x="509.5" y="-205" font-family="Helvetica,sans-Serif" font-size="10.00">src/d/bg/d_bg_w.cpp</text>
</a>
</g>
</g>
<!-- Node9&#45;&gt;Node81 -->
<g id="edge48" class="edge">
<title>Node9&#45;&gt;Node81</title>
<path fill="none" stroke="#63b8ff" d="M2295.94,-277.55C2017.66,-275.42 946.31,-264.96 610.5,-228 589.73,-225.71 566.85,-221.44 548.12,-217.48"/>
<polygon fill="#63b8ff" stroke="#63b8ff" points="2295.51,-281.04 2305.54,-277.62 2295.56,-274.04 2295.51,-281.04"/>
</g>
<!-- Node16&#45;&gt;Node17 -->
<g id="edge18" class="edge">
<title>Node16&#45;&gt;Node17</title>
<path fill="none" stroke="#63b8ff" d="M799.53,-194.34C789.8,-191.62 779.33,-188.96 769.5,-187 640.85,-161.29 487.11,-147.05 406.71,-140.84"/>
<polygon fill="#63b8ff" stroke="#63b8ff" points="798.51,-197.69 809.09,-197.1 800.45,-190.96 798.51,-197.69"/>
</g>
<!-- Node18 -->
<g id="node18" class="node">
<title>Node18</title>
<g id="a_node18"><a xlink:href="d__a__horse__static_8h.html" target="_top" xlink:title=" ">
<polygon fill="#fff0f0" stroke="red" points="406.5,-85 294.5,-85 294.5,-55 406.5,-55 406.5,-85"/>
<text text-anchor="start" x="302.5" y="-73" font-family="Helvetica,sans-Serif" font-size="10.00">include/d/a/d_a_horse</text>
<text text-anchor="middle" x="350.5" y="-62" font-family="Helvetica,sans-Serif" font-size="10.00">_static.h</text>
</a>
</g>
</g>
<!-- Node17&#45;&gt;Node18 -->
<g id="edge19" class="edge">
<title>Node17&#45;&gt;Node18</title>
<path fill="none" stroke="#63b8ff" d="M351.1,-109.39C350.97,-101.13 350.83,-92.28 350.72,-85.16"/>
<polygon fill="#63b8ff" stroke="#63b8ff" points="347.6,-109.34 351.25,-119.28 354.6,-109.23 347.6,-109.34"/>
</g>
<!-- Node18&#45;&gt;Node19 -->
<g id="edge20" class="edge">
<title>Node18&#45;&gt;Node19</title>
<path fill="none" stroke="#63b8ff" d="M418,-55.33C418.84,-55.22 419.67,-55.11 420.5,-55 700.29,-19.45 1038.5,-12.3 1168.73,-10.86"/>
<polygon fill="#63b8ff" stroke="#63b8ff" points="417.79,-51.82 408.43,-56.77 418.84,-58.74 417.79,-51.82"/>
</g>
<!-- Node22&#45;&gt;Node19 -->
<g id="edge22" class="edge">
<title>Node22&#45;&gt;Node19</title>
<path fill="none" stroke="#63b8ff" d="M3698.71,-57.75C3692.95,-56.64 3687.11,-55.68 3681.5,-55 3435.87,-25.36 1618.65,-12.91 1278.33,-10.82"/>
<polygon fill="#63b8ff" stroke="#63b8ff" points="3697.62,-61.1 3708.13,-59.73 3699.06,-54.25 3697.62,-61.1"/>
</g>
<!-- Node46&#45;&gt;Node19 -->
<g id="edge30" class="edge">
<title>Node46&#45;&gt;Node19</title>
<path fill="none" stroke="#63b8ff" d="M3032.83,-181.93C3023.48,-161.76 3007.21,-134.41 2983.5,-121 2831.94,-35.28 1559.82,-14.65 1278.45,-11.12"/>
<polygon fill="#63b8ff" stroke="#63b8ff" points="3029.53,-183.1 3036.72,-190.87 3035.95,-180.31 3029.53,-183.1"/>
</g>
<!-- Node46&#45;&gt;Node42 -->
<g id="edge31" class="edge">
<title>Node46&#45;&gt;Node42</title>
<path fill="none" stroke="#63b8ff" d="M3001.64,-187.31C2972.82,-173.78 2935.53,-156.27 2913.41,-145.88"/>
<polygon fill="#63b8ff" stroke="#63b8ff" points="2999.92,-190.37 3010.46,-191.46 3002.9,-184.04 2999.92,-190.37"/>
</g>
<!-- Node46&#45;&gt;Node43 -->
<g id="edge32" class="edge">
<title>Node46&#45;&gt;Node43</title>
<path fill="none" stroke="#63b8ff" d="M3056.38,-182.38C3062.33,-172.05 3069.08,-160.32 3074.22,-151.38"/>
<polygon fill="#63b8ff" stroke="#63b8ff" points="3053.5,-180.37 3051.54,-190.79 3059.56,-183.87 3053.5,-180.37"/>
</g>
<!-- Node72&#45;&gt;Node19 -->
<g id="edge39" class="edge">
<title>Node72&#45;&gt;Node19</title>
<path fill="none" stroke="#63b8ff" d="M3199.04,-182.35C3187.46,-162.48 3168.26,-135.35 3143.5,-121 2975.06,-23.42 2904.37,-72.61 2710.5,-55 2424.19,-28.99 1511.3,-14.57 1278.13,-11.25"/>
<polygon fill="#63b8ff" stroke="#63b8ff" points="3195.89,-183.88 3203.81,-190.92 3202.01,-180.47 3195.89,-183.88"/>
</g>
<!-- Node72&#45;&gt;Node73 -->
<g id="edge40" class="edge">
<title>Node72&#45;&gt;Node73</title>
<path fill="none" stroke="#63b8ff" d="M3237.93,-185.14C3254.25,-171.95 3274.33,-155.72 3286.51,-145.88"/>
<polygon fill="#63b8ff" stroke="#63b8ff" points="3236.07,-182.14 3230.5,-191.15 3240.47,-187.58 3236.07,-182.14"/>
</g>
<!-- Node131&#45;&gt;Node19 -->
<g id="edge56" class="edge">
<title>Node131&#45;&gt;Node19</title>
<path fill="none" stroke="#63b8ff" d="M454.56,-253.64C445.04,-234.77 436.24,-208.34 446.5,-187 487.18,-102.36 524.07,-89.28 611.5,-55 712.17,-15.53 1038.01,-10.68 1168.61,-10.36"/>
<polygon fill="#63b8ff" stroke="#63b8ff" points="451.37,-255.09 459.24,-262.19 457.51,-251.74 451.37,-255.09"/>
</g>
<!-- Node131&#45;&gt;Node17 -->
<g id="edge55" class="edge">
<title>Node131&#45;&gt;Node17</title>
<path fill="none" stroke="#63b8ff" d="M442.77,-256.48C433.06,-248.08 422.32,-238.05 413.5,-228 391.57,-202.99 370.81,-169.94 359.76,-151.33"/>
<polygon fill="#63b8ff" stroke="#63b8ff" points="440.26,-258.94 450.16,-262.73 444.78,-253.6 440.26,-258.94"/>
</g>
<!-- Node131&#45;&gt;Node81 -->
<g id="edge57" class="edge">
<title>Node131&#45;&gt;Node81</title>
<path fill="none" stroke="#63b8ff" d="M483.32,-253.99C490.66,-241.24 499.22,-226.36 504.5,-217.18"/>
<polygon fill="#63b8ff" stroke="#63b8ff" points="480.5,-251.87 478.54,-262.29 486.56,-255.37 480.5,-251.87"/>
</g>
<!-- Node148&#45;&gt;Node19 -->
<g id="edge59" class="edge">
<title>Node148&#45;&gt;Node19</title>
<path fill="none" stroke="#63b8ff" d="M749.97,-55.37C750.82,-55.24 751.66,-55.12 752.5,-55 902.31,-33.61 1080.46,-19.96 1168.55,-13.99"/>
<polygon fill="#63b8ff" stroke="#63b8ff" points="749.61,-51.88 740.28,-56.9 750.7,-58.8 749.61,-51.88"/>
</g>
<!-- Node250&#45;&gt;Node8 -->
<g id="edge64" class="edge">
<title>Node250&#45;&gt;Node8</title>
<path fill="none" stroke="#63b8ff" d="M2380.16,-404.54C2243.39,-392.37 1915.02,-363.14 1780.98,-351.21"/>
<polygon fill="#63b8ff" stroke="#63b8ff" points="2379.45,-407.99 2389.72,-405.39 2380.07,-401.02 2379.45,-407.99"/>
</g>
<!-- Node251 -->
<g id="node45" class="node">
<title>Node251</title>
<g id="a_node45"><a xlink:href="Z2WolfHowlMgr_8cpp.html" target="_top" xlink:title=" ">
<polygon fill="white" stroke="#666666" points="2511.5,-360 2371.5,-360 2371.5,-330 2511.5,-330 2511.5,-360"/>
<text text-anchor="start" x="2379.5" y="-348" font-family="Helvetica,sans-Serif" font-size="10.00">libs/Z2AudioLib/Z2WolfHowl</text>
<text text-anchor="middle" x="2441.5" y="-337" font-family="Helvetica,sans-Serif" font-size="10.00">Mgr.cpp</text>
</a>
</g>
</g>
<!-- Node250&#45;&gt;Node251 -->
<g id="edge65" class="edge">
<title>Node250&#45;&gt;Node251</title>
<path fill="none" stroke="#63b8ff" d="M2441.5,-384.39C2441.5,-376.13 2441.5,-367.28 2441.5,-360.16"/>
<polygon fill="#63b8ff" stroke="#63b8ff" points="2438,-384.28 2441.5,-394.28 2445,-384.28 2438,-384.28"/>
</g>
<!-- Node140&#45;&gt;Node19 -->
<g id="edge67" class="edge">
<title>Node140&#45;&gt;Node19</title>
<path fill="none" stroke="#63b8ff" d="M2952.42,-398.61C2956.83,-397.67 2961.24,-396.78 2965.5,-396 3059.68,-378.66 3819.5,-375.76 3819.5,-280 3819.5,-280 3819.5,-280 3819.5,-135 3819.5,-98.46 3828.97,-77.91 3800.5,-55 3749.6,-14.06 1646.51,-10.78 1278.25,-10.52"/>
<polygon fill="#63b8ff" stroke="#63b8ff" points="2952.04,-395.11 2943.03,-400.68 2953.55,-401.94 2952.04,-395.11"/>
</g>
<!-- Node141 -->
<g id="node47" class="node">
<title>Node141</title>
<g id="a_node47"><a xlink:href="d__bomb_8cpp.html" target="_top" xlink:title=" ">
<polygon fill="white" stroke="#666666" points="2952.5,-354.5 2858.5,-354.5 2858.5,-335.5 2952.5,-335.5 2952.5,-354.5"/>
<text text-anchor="middle" x="2905.5" y="-342.5" font-family="Helvetica,sans-Serif" font-size="10.00">src/d/d_bomb.cpp</text>
</a>
</g>
</g>
<!-- Node140&#45;&gt;Node141 -->
<g id="edge68" class="edge">
<title>Node140&#45;&gt;Node141</title>
<path fill="none" stroke="#63b8ff" d="M2905.5,-389.68C2905.5,-377.94 2905.5,-363.77 2905.5,-354.82"/>
<polygon fill="#63b8ff" stroke="#63b8ff" points="2902,-389.59 2905.5,-399.59 2909,-389.59 2902,-389.59"/>
</g>
<!-- Node143&#45;&gt;Node73 -->
<g id="edge70" class="edge">
<title>Node143&#45;&gt;Node73</title>
<path fill="none" stroke="#63b8ff" d="M3199.4,-276.76C3351.27,-273.68 3654.29,-263.15 3686.5,-228 3698.81,-214.57 3698.54,-200.68 3686.5,-187 3664.94,-162.49 3457.44,-146.65 3354.64,-140.24"/>
<polygon fill="#63b8ff" stroke="#63b8ff" points="3199.73,-273.26 3189.8,-276.95 3199.87,-280.26 3199.73,-273.26"/>
</g>
</g>
</svg>
