<?xml version="1.0" encoding="UTF-8" standalone="no"?>
<!DOCTYPE svg PUBLIC "-//W3C//DTD SVG 1.1//EN"
 "http://www.w3.org/Graphics/SVG/1.1/DTD/svg11.dtd">
<!-- Generated by graphviz version 7.0.4 (20221203.1631)
 -->
<!-- Title: include/Z2AudioLib/Z2WolfHowlMgr.h Pages: 1 -->
<svg width="5199pt" height="313pt"
 viewBox="0.00 0.00 5199.08 313.00" xmlns="http://www.w3.org/2000/svg" xmlns:xlink="http://www.w3.org/1999/xlink">
<g id="graph0" class="graph" transform="scale(1 1) rotate(0) translate(4 309)">
<title>include/Z2AudioLib/Z2WolfHowlMgr.h</title>
<!-- Node1 -->
<g id="node1" class="node">
<title>Node1</title>
<g id="a_node1"><a xlink:title=" ">
<polygon fill="#999999" stroke="#666666" points="1455.5,-305 1355.5,-305 1355.5,-275 1455.5,-275 1455.5,-305"/>
<text text-anchor="start" x="1363.5" y="-293" font-family="Helvetica,sans-Serif" font-size="10.00">include/Z2AudioLib</text>
<text text-anchor="middle" x="1405.5" y="-282" font-family="Helvetica,sans-Serif" font-size="10.00">/Z2WolfHowlMgr.h</text>
</a>
</g>
</g>
<!-- Node2 -->
<g id="node2" class="node">
<title>Node2</title>
<g id="a_node2"><a xlink:href="d__a__alink_8h.html" target="_top" xlink:title=" ">
<polygon fill="white" stroke="#666666" points="1390.5,-233.5 1274.5,-233.5 1274.5,-214.5 1390.5,-214.5 1390.5,-233.5"/>
<text text-anchor="middle" x="1332.5" y="-221.5" font-family="Helvetica,sans-Serif" font-size="10.00">include/d/a/d_a_alink.h</text>
</a>
</g>
</g>
<!-- Node1&#45;&gt;Node2 -->
<g id="edge1" class="edge">
<title>Node1&#45;&gt;Node2</title>
<path fill="none" stroke="#63b8ff" d="M1380.72,-267.27C1367.67,-255.84 1352.39,-242.44 1342.59,-233.84"/>
<polygon fill="#63b8ff" stroke="#63b8ff" points="1378.33,-269.84 1388.16,-273.8 1382.95,-264.57 1378.33,-269.84"/>
</g>
<!-- Node108 -->
<g id="node50" class="node">
<title>Node108</title>
<g id="a_node50"><a xlink:href="Z2WolfHowlMgr_8cpp.html" target="_top" xlink:title=" ">
<polygon fill="white" stroke="#666666" points="1548.5,-239 1408.5,-239 1408.5,-209 1548.5,-209 1548.5,-239"/>
<text text-anchor="start" x="1416.5" y="-227" font-family="Helvetica,sans-Serif" font-size="10.00">libs/Z2AudioLib/Z2WolfHowl</text>
<text text-anchor="middle" x="1478.5" y="-216" font-family="Helvetica,sans-Serif" font-size="10.00">Mgr.cpp</text>
</a>
</g>
</g>
<!-- Node1&#45;&gt;Node108 -->
<g id="edge59" class="edge">
<title>Node1&#45;&gt;Node108</title>
<path fill="none" stroke="#63b8ff" d="M1430.11,-267.42C1440.65,-258.18 1452.67,-247.65 1462.09,-239.39"/>
<polygon fill="#63b8ff" stroke="#63b8ff" points="1428.05,-264.57 1422.84,-273.8 1432.67,-269.84 1428.05,-264.57"/>
</g>
<!-- Node3 -->
<g id="node3" class="node">
<title>Node3</title>
<g id="a_node3"><a xlink:href="d__com__inf__game_8h.html" target="_top" xlink:title=" ">
<polygon fill="#fff0f0" stroke="red" points="2419.5,-173 2309.5,-173 2309.5,-143 2419.5,-143 2419.5,-173"/>
<text text-anchor="start" x="2317.5" y="-161" font-family="Helvetica,sans-Serif" font-size="10.00">include/d/com/d_com</text>
<text text-anchor="middle" x="2364.5" y="-150" font-family="Helvetica,sans-Serif" font-size="10.00">_inf_game.h</text>
</a>
</g>
</g>
<!-- Node2&#45;&gt;Node3 -->
<g id="edge2" class="edge">
<title>Node2&#45;&gt;Node3</title>
<path fill="none" stroke="#63b8ff" d="M1381.16,-211.92C1387.31,-210.79 1393.53,-209.77 1399.5,-209 1743.26,-164.45 2160.76,-159.24 2309.02,-158.89"/>
<polygon fill="#63b8ff" stroke="#63b8ff" points="1380.87,-208.41 1371.73,-213.76 1382.21,-215.28 1380.87,-208.41"/>
</g>
<!-- Node13 -->
<g id="node7" class="node">
<title>Node13</title>
<g id="a_node7"><a xlink:href="d__a__alink_8cpp.html" target="_top" xlink:title=" ">
<polygon fill="white" stroke="#666666" points="431,-24.5 322,-24.5 322,-5.5 431,-5.5 431,-24.5"/>
<text text-anchor="middle" x="376.5" y="-12.5" font-family="Helvetica,sans-Serif" font-size="10.00">src/d/a/d_a_alink.cpp</text>
</a>
</g>
</g>
<!-- Node2&#45;&gt;Node13 -->
<g id="edge58" class="edge">
<title>Node2&#45;&gt;Node13</title>
<path fill="none" stroke="#63b8ff" d="M1262.99,-219.84C1052.15,-209.54 430.65,-173.72 371.5,-107 350.93,-83.79 364.79,-42.78 372.41,-24.83"/>
<polygon fill="#63b8ff" stroke="#63b8ff" points="1262.53,-223.32 1272.69,-220.31 1262.87,-216.33 1262.53,-223.32"/>
</g>
<!-- Node4 -->
<g id="node4" class="node">
<title>Node4</title>
<g id="a_node4"><a xlink:href="d__a__npc_8h.html" target="_top" xlink:title=" ">
<polygon fill="#fff0f0" stroke="red" points="5172,-96 5061,-96 5061,-77 5172,-77 5172,-96"/>
<text text-anchor="middle" x="5116.5" y="-84" font-family="Helvetica,sans-Serif" font-size="10.00">include/d/a/d_a_npc.h</text>
</a>
</g>
</g>
<!-- Node3&#45;&gt;Node4 -->
<g id="edge3" class="edge">
<title>Node3&#45;&gt;Node4</title>
<path fill="none" stroke="#63b8ff" d="M2431.07,-156.86C2819.66,-155.92 4786.8,-149.11 5052.5,-107 5066.15,-104.84 5080.94,-100.47 5092.86,-96.42"/>
<polygon fill="#63b8ff" stroke="#63b8ff" points="2431.27,-153.36 2421.28,-156.89 2431.29,-160.36 2431.27,-153.36"/>
</g>
<!-- Node10 -->
<g id="node5" class="node">
<title>Node10</title>
<g id="a_node5"><a xlink:href="d__cc__uty_8h.html" target="_top" xlink:title=" ">
<polygon fill="#fff0f0" stroke="red" points="159,-96 40,-96 40,-77 159,-77 159,-96"/>
<text text-anchor="middle" x="99.5" y="-84" font-family="Helvetica,sans-Serif" font-size="10.00">include/d/cc/d_cc_uty.h</text>
</a>
</g>
</g>
<!-- Node3&#45;&gt;Node10 -->
<g id="edge4" class="edge">
<title>Node3&#45;&gt;Node10</title>
<path fill="none" stroke="#63b8ff" d="M2297.66,-156.48C1952.86,-153.68 383.15,-139.24 168.5,-107 153.97,-104.82 138.18,-100.5 125.37,-96.49"/>
<polygon fill="#63b8ff" stroke="#63b8ff" points="2297.62,-159.98 2307.65,-156.56 2297.68,-152.98 2297.62,-159.98"/>
</g>
<!-- Node16 -->
<g id="node6" class="node">
<title>Node16</title>
<g id="a_node6"><a xlink:href="d__item_8h.html" target="_top" xlink:title=" ">
<polygon fill="#fff0f0" stroke="red" points="272,-96 177,-96 177,-77 272,-77 272,-96"/>
<text text-anchor="middle" x="224.5" y="-84" font-family="Helvetica,sans-Serif" font-size="10.00">include/d/d_item.h</text>
</a>
</g>
</g>
<!-- Node3&#45;&gt;Node16 -->
<g id="edge5" class="edge">
<title>Node3&#45;&gt;Node16</title>
<path fill="none" stroke="#63b8ff" d="M2297.86,-156.87C1991.91,-156.06 720.03,-150.1 324.5,-107 303.75,-104.74 280.88,-100.42 262.26,-96.42"/>
<polygon fill="#63b8ff" stroke="#63b8ff" points="2297.65,-160.37 2307.66,-156.9 2297.67,-153.37 2297.65,-160.37"/>
</g>
<!-- Node3&#45;&gt;Node13 -->
<g id="edge31" class="edge">
<title>Node3&#45;&gt;Node13</title>
<path fill="none" stroke="#63b8ff" d="M2297.8,-156.43C1958.01,-153.36 433.97,-137.92 396.5,-107 371.8,-86.61 373.34,-43.33 375.31,-24.76"/>
<polygon fill="#63b8ff" stroke="#63b8ff" points="2297.61,-159.92 2307.64,-156.51 2297.67,-152.92 2297.61,-159.92"/>
</g>
<!-- Node17 -->
<g id="node8" class="node">
<title>Node17</title>
<g id="a_node8"><a xlink:href="d__a__obj__item_8cpp.html" target="_top" xlink:title=" ">
<polygon fill="white" stroke="#666666" points="125,-24.5 0,-24.5 0,-5.5 125,-5.5 125,-24.5"/>
<text text-anchor="middle" x="62.5" y="-12.5" font-family="Helvetica,sans-Serif" font-size="10.00">src/d/a/d_a_obj_item.cpp</text>
</a>
</g>
</g>
<!-- Node3&#45;&gt;Node17 -->
<g id="edge34" class="edge">
<title>Node3&#45;&gt;Node17</title>
<path fill="none" stroke="#63b8ff" d="M2297.78,-156.84C1920.64,-155.81 71.23,-148.61 30.5,-107 7.54,-83.54 38.5,-42.66 54.27,-24.79"/>
<polygon fill="#63b8ff" stroke="#63b8ff" points="2297.5,-160.34 2307.51,-156.87 2297.52,-153.34 2297.5,-160.34"/>
</g>
<!-- Node18 -->
<g id="node9" class="node">
<title>Node18</title>
<g id="a_node9"><a xlink:href="d__com__inf__game_8cpp.html" target="_top" xlink:title=" ">
<polygon fill="white" stroke="#666666" points="290.5,-30 182.5,-30 182.5,0 290.5,0 290.5,-30"/>
<text text-anchor="start" x="190.5" y="-18" font-family="Helvetica,sans-Serif" font-size="10.00">src/d/com/d_com_inf</text>
<text text-anchor="middle" x="236.5" y="-7" font-family="Helvetica,sans-Serif" font-size="10.00">_game.cpp</text>
</a>
</g>
</g>
<!-- Node3&#45;&gt;Node18 -->
<g id="edge40" class="edge">
<title>Node3&#45;&gt;Node18</title>
<path fill="none" stroke="#63b8ff" d="M2297.7,-156.38C1961.31,-153.1 465.11,-136.89 371.5,-107 322.5,-91.35 274.94,-51.96 251.54,-30.49"/>
<polygon fill="#63b8ff" stroke="#63b8ff" points="2297.63,-159.88 2307.66,-156.47 2297.7,-152.88 2297.63,-159.88"/>
</g>
<!-- Node21 -->
<g id="node10" class="node">
<title>Node21</title>
<g id="a_node10"><a xlink:href="d__kantera__icon__meter_8h.html" target="_top" xlink:title=" ">
<polygon fill="#fff0f0" stroke="red" points="506,-101.5 405,-101.5 405,-71.5 506,-71.5 506,-101.5"/>
<text text-anchor="start" x="413" y="-89.5" font-family="Helvetica,sans-Serif" font-size="10.00">include/d/d_kantera</text>
<text text-anchor="middle" x="455.5" y="-78.5" font-family="Helvetica,sans-Serif" font-size="10.00">_icon_meter.h</text>
</a>
</g>
</g>
<!-- Node3&#45;&gt;Node21 -->
<g id="edge9" class="edge">
<title>Node3&#45;&gt;Node21</title>
<path fill="none" stroke="#63b8ff" d="M2297.99,-156.33C1988.13,-153.07 693.59,-137.69 515.5,-107 508.59,-105.81 501.39,-104 494.47,-101.94"/>
<polygon fill="#63b8ff" stroke="#63b8ff" points="2297.9,-159.83 2307.94,-156.44 2297.98,-152.83 2297.9,-159.83"/>
</g>
<!-- Node24 -->
<g id="node11" class="node">
<title>Node24</title>
<g id="a_node11"><a xlink:href="d__model_8h.html" target="_top" xlink:title=" ">
<polygon fill="#fff0f0" stroke="red" points="627,-96 524,-96 524,-77 627,-77 627,-96"/>
<text text-anchor="middle" x="575.5" y="-84" font-family="Helvetica,sans-Serif" font-size="10.00">include/d/d_model.h</text>
</a>
</g>
</g>
<!-- Node3&#45;&gt;Node24 -->
<g id="edge10" class="edge">
<title>Node3&#45;&gt;Node24</title>
<path fill="none" stroke="#63b8ff" d="M2297.55,-156.17C1999.68,-152.34 802.09,-135.28 636.5,-107 623.57,-104.79 609.6,-100.48 598.29,-96.46"/>
<polygon fill="#63b8ff" stroke="#63b8ff" points="2297.45,-159.67 2307.49,-156.3 2297.54,-152.67 2297.45,-159.67"/>
</g>
<!-- Node26 -->
<g id="node12" class="node">
<title>Node26</title>
<g id="a_node12"><a xlink:href="d__name_8h.html" target="_top" xlink:title=" ">
<polygon fill="#fff0f0" stroke="red" points="746,-96 645,-96 645,-77 746,-77 746,-96"/>
<text text-anchor="middle" x="695.5" y="-84" font-family="Helvetica,sans-Serif" font-size="10.00">include/d/d_name.h</text>
</a>
</g>
</g>
<!-- Node3&#45;&gt;Node26 -->
<g id="edge11" class="edge">
<title>Node3&#45;&gt;Node26</title>
<path fill="none" stroke="#63b8ff" d="M2298.11,-157.43C2034.22,-158.77 1059.17,-159.96 755.5,-107 742.77,-104.78 729.03,-100.46 717.91,-96.45"/>
<polygon fill="#63b8ff" stroke="#63b8ff" points="2297.91,-160.94 2307.89,-157.38 2297.87,-153.94 2297.91,-160.94"/>
</g>
<!-- Node28 -->
<g id="node13" class="node">
<title>Node28</title>
<g id="a_node13"><a xlink:href="d__file__sel__info_8h.html" target="_top" xlink:title=" ">
<polygon fill="#fff0f0" stroke="red" points="860.5,-101.5 764.5,-101.5 764.5,-71.5 860.5,-71.5 860.5,-101.5"/>
<text text-anchor="start" x="772.5" y="-89.5" font-family="Helvetica,sans-Serif" font-size="10.00">include/d/file/d_file</text>
<text text-anchor="middle" x="812.5" y="-78.5" font-family="Helvetica,sans-Serif" font-size="10.00">_sel_info.h</text>
</a>
</g>
</g>
<!-- Node3&#45;&gt;Node28 -->
<g id="edge12" class="edge">
<title>Node3&#45;&gt;Node28</title>
<path fill="none" stroke="#63b8ff" d="M2298.25,-157.38C2046.52,-158.43 1149.52,-158.4 869.5,-107 862.92,-105.79 856.06,-103.97 849.48,-101.91"/>
<polygon fill="#63b8ff" stroke="#63b8ff" points="2297.9,-160.88 2307.88,-157.34 2297.86,-153.88 2297.9,-160.88"/>
</g>
<!-- Node31 -->
<g id="node14" class="node">
<title>Node31</title>
<g id="a_node14"><a xlink:href="d__file__sel__warning_8h.html" target="_top" xlink:title=" ">
<polygon fill="#fff0f0" stroke="red" points="974.5,-101.5 878.5,-101.5 878.5,-71.5 974.5,-71.5 974.5,-101.5"/>
<text text-anchor="start" x="886.5" y="-89.5" font-family="Helvetica,sans-Serif" font-size="10.00">include/d/file/d_file</text>
<text text-anchor="middle" x="926.5" y="-78.5" font-family="Helvetica,sans-Serif" font-size="10.00">_sel_warning.h</text>
</a>
</g>
</g>
<!-- Node3&#45;&gt;Node31 -->
<g id="edge13" class="edge">
<title>Node3&#45;&gt;Node31</title>
<path fill="none" stroke="#63b8ff" d="M2297.8,-157.17C2057.99,-157.37 1240.13,-154.47 983.5,-107 977.02,-105.8 970.28,-104.01 963.8,-101.99"/>
<polygon fill="#63b8ff" stroke="#63b8ff" points="2297.61,-160.67 2307.6,-157.16 2297.6,-153.67 2297.61,-160.67"/>
</g>
<!-- Node33 -->
<g id="node15" class="node">
<title>Node33</title>
<g id="a_node15"><a xlink:href="d__meter2_8h.html" target="_top" xlink:title=" ">
<polygon fill="#fff0f0" stroke="red" points="1126.5,-96 992.5,-96 992.5,-77 1126.5,-77 1126.5,-96"/>
<text text-anchor="middle" x="1059.5" y="-84" font-family="Helvetica,sans-Serif" font-size="10.00">include/d/meter/d_meter2.h</text>
</a>
</g>
</g>
<!-- Node3&#45;&gt;Node33 -->
<g id="edge14" class="edge">
<title>Node3&#45;&gt;Node33</title>
<path fill="none" stroke="#63b8ff" d="M2297.88,-155.99C2076.55,-152.38 1366.97,-138.58 1140.5,-107 1123.74,-104.66 1105.38,-100.39 1090.38,-96.44"/>
<polygon fill="#63b8ff" stroke="#63b8ff" points="2297.72,-159.49 2307.77,-156.15 2297.83,-152.49 2297.72,-159.49"/>
</g>
<!-- Node40 -->
<g id="node16" class="node">
<title>Node40</title>
<g id="a_node16"><a xlink:href="d__msg__object_8h.html" target="_top" xlink:title=" ">
<polygon fill="#fff0f0" stroke="red" points="1292.5,-101.5 1182.5,-101.5 1182.5,-71.5 1292.5,-71.5 1292.5,-101.5"/>
<text text-anchor="start" x="1190.5" y="-89.5" font-family="Helvetica,sans-Serif" font-size="10.00">include/d/msg/d_msg</text>
<text text-anchor="middle" x="1237.5" y="-78.5" font-family="Helvetica,sans-Serif" font-size="10.00">_object.h</text>
</a>
</g>
</g>
<!-- Node3&#45;&gt;Node40 -->
<g id="edge15" class="edge">
<title>Node3&#45;&gt;Node40</title>
<path fill="none" stroke="#63b8ff" d="M2297.86,-155.84C2096.87,-152.02 1498.67,-138.27 1306.5,-107 1298.88,-105.76 1290.91,-103.98 1283.19,-101.99"/>
<polygon fill="#63b8ff" stroke="#63b8ff" points="2297.53,-159.33 2307.6,-156.02 2297.66,-152.33 2297.53,-159.33"/>
</g>
<!-- Node45 -->
<g id="node17" class="node">
<title>Node45</title>
<g id="a_node17"><a xlink:href="d__demo_8cpp.html" target="_top" xlink:title=" ">
<polygon fill="white" stroke="#666666" points="1211.5,-24.5 1117.5,-24.5 1117.5,-5.5 1211.5,-5.5 1211.5,-24.5"/>
<text text-anchor="middle" x="1164.5" y="-12.5" font-family="Helvetica,sans-Serif" font-size="10.00">src/d/d_demo.cpp</text>
</a>
</g>
</g>
<!-- Node3&#45;&gt;Node45 -->
<g id="edge45" class="edge">
<title>Node3&#45;&gt;Node45</title>
<path fill="none" stroke="#63b8ff" d="M2298.07,-156.6C2053.41,-154.8 1214.59,-145.83 1173.5,-107 1150.77,-85.52 1157.69,-43.21 1162.09,-24.85"/>
<polygon fill="#63b8ff" stroke="#63b8ff" points="2297.73,-160.09 2307.75,-156.66 2297.78,-153.09 2297.73,-160.09"/>
</g>
<!-- Node46 -->
<g id="node18" class="node">
<title>Node46</title>
<g id="a_node18"><a xlink:href="d__event_8cpp.html" target="_top" xlink:title=" ">
<polygon fill="white" stroke="#666666" points="1361,-24.5 1240,-24.5 1240,-5.5 1361,-5.5 1361,-24.5"/>
<text text-anchor="middle" x="1300.5" y="-12.5" font-family="Helvetica,sans-Serif" font-size="10.00">src/d/event/d_event.cpp</text>
</a>
</g>
</g>
<!-- Node3&#45;&gt;Node46 -->
<g id="edge54" class="edge">
<title>Node3&#45;&gt;Node46</title>
<path fill="none" stroke="#63b8ff" d="M2297.61,-155.66C2076.36,-150.98 1379.93,-134.14 1340.5,-107 1312.35,-87.63 1303.82,-43.79 1301.39,-24.91"/>
<polygon fill="#63b8ff" stroke="#63b8ff" points="2297.44,-159.16 2307.51,-155.87 2297.59,-152.16 2297.44,-159.16"/>
</g>
<!-- Node47 -->
<g id="node19" class="node">
<title>Node47</title>
<g id="a_node19"><a xlink:href="d__event__data_8cpp.html" target="_top" xlink:title=" ">
<polygon fill="white" stroke="#666666" points="1913,-30 1810,-30 1810,0 1913,0 1913,-30"/>
<text text-anchor="start" x="1818" y="-18" font-family="Helvetica,sans-Serif" font-size="10.00">src/d/event/d_event</text>
<text text-anchor="middle" x="1861.5" y="-7" font-family="Helvetica,sans-Serif" font-size="10.00">_data.cpp</text>
</a>
</g>
</g>
<!-- Node3&#45;&gt;Node47 -->
<g id="edge55" class="edge">
<title>Node3&#45;&gt;Node47</title>
<path fill="none" stroke="#63b8ff" d="M2297.62,-151.95C2215.64,-144.87 2082.24,-130.2 2038.5,-107 2016.55,-95.36 2021.22,-79.71 2000.5,-66 1974.08,-48.53 1940.8,-36.28 1913.43,-28.28"/>
<polygon fill="#63b8ff" stroke="#63b8ff" points="2297.31,-155.44 2307.56,-152.79 2297.89,-148.46 2297.31,-155.44"/>
</g>
<!-- Node54 -->
<g id="node20" class="node">
<title>Node54</title>
<g id="a_node20"><a xlink:href="d__s__logo_8h.html" target="_top" xlink:title=" ">
<polygon fill="#fff0f0" stroke="red" points="1462,-96 1349,-96 1349,-77 1462,-77 1462,-96"/>
<text text-anchor="middle" x="1405.5" y="-84" font-family="Helvetica,sans-Serif" font-size="10.00">include/d/s/d_s_logo.h</text>
</a>
</g>
</g>
<!-- Node3&#45;&gt;Node54 -->
<g id="edge20" class="edge">
<title>Node3&#45;&gt;Node54</title>
<path fill="none" stroke="#63b8ff" d="M2297.76,-155.26C2118.65,-150.28 1630.29,-134.52 1471.5,-107 1457.84,-104.63 1443.01,-100.41 1430.87,-96.49"/>
<polygon fill="#63b8ff" stroke="#63b8ff" points="2297.49,-158.76 2307.59,-155.53 2297.69,-151.76 2297.49,-158.76"/>
</g>
<!-- Node56 -->
<g id="node21" class="node">
<title>Node56</title>
<g id="a_node21"><a xlink:href="d__s__play_8h.html" target="_top" xlink:title=" ">
<polygon fill="#fff0f0" stroke="red" points="1593,-96 1480,-96 1480,-77 1593,-77 1593,-96"/>
<text text-anchor="middle" x="1536.5" y="-84" font-family="Helvetica,sans-Serif" font-size="10.00">include/d/s/d_s_play.h</text>
</a>
</g>
</g>
<!-- Node3&#45;&gt;Node56 -->
<g id="edge21" class="edge">
<title>Node3&#45;&gt;Node56</title>
<path fill="none" stroke="#63b8ff" d="M2297.81,-157.56C2164.58,-157.61 1856.46,-152.27 1602.5,-107 1588.86,-104.57 1574.02,-100.34 1561.88,-96.43"/>
<polygon fill="#63b8ff" stroke="#63b8ff" points="2297.5,-161.06 2307.5,-157.55 2297.49,-154.06 2297.5,-161.06"/>
</g>
<!-- Node60 -->
<g id="node22" class="node">
<title>Node60</title>
<g id="a_node22"><a xlink:href="d__msg__scrn__base_8h.html" target="_top" xlink:title=" ">
<polygon fill="#fff0f0" stroke="red" points="1710,-101.5 1611,-101.5 1611,-71.5 1710,-71.5 1710,-101.5"/>
<text text-anchor="start" x="1619" y="-89.5" font-family="Helvetica,sans-Serif" font-size="10.00">include/msg/scrn/d</text>
<text text-anchor="middle" x="1660.5" y="-78.5" font-family="Helvetica,sans-Serif" font-size="10.00">_msg_scrn_base.h</text>
</a>
</g>
</g>
<!-- Node3&#45;&gt;Node60 -->
<g id="edge22" class="edge">
<title>Node3&#45;&gt;Node60</title>
<path fill="none" stroke="#63b8ff" d="M2297.77,-157.11C2179.89,-156.14 1927.57,-148.81 1719.5,-107 1713.05,-105.7 1706.32,-103.92 1699.82,-101.95"/>
<polygon fill="#63b8ff" stroke="#63b8ff" points="2297.56,-160.61 2307.58,-157.18 2297.6,-153.61 2297.56,-160.61"/>
</g>
<!-- Node64 -->
<g id="node23" class="node">
<title>Node64</title>
<g id="a_node23"><a xlink:href="d__a__b__zant_8h.html" target="_top" xlink:title=" ">
<polygon fill="white" stroke="#666666" points="1849,-101.5 1728,-101.5 1728,-71.5 1849,-71.5 1849,-101.5"/>
<text text-anchor="start" x="1736" y="-89.5" font-family="Helvetica,sans-Serif" font-size="10.00">include/rel/d/a/b/d</text>
<text text-anchor="middle" x="1788.5" y="-78.5" font-family="Helvetica,sans-Serif" font-size="10.00">_a_b_zant/d_a_b_zant.h</text>
</a>
</g>
</g>
<!-- Node3&#45;&gt;Node64 -->
<g id="edge23" class="edge">
<title>Node3&#45;&gt;Node64</title>
<path fill="none" stroke="#63b8ff" d="M2297.6,-154.08C2200.26,-149 2014.21,-136.15 1858.5,-107 1851.18,-105.63 1843.52,-103.86 1836.06,-101.94"/>
<polygon fill="#63b8ff" stroke="#63b8ff" points="2297.35,-157.57 2307.51,-154.59 2297.7,-150.58 2297.35,-157.57"/>
</g>
<!-- Node65 -->
<g id="node24" class="node">
<title>Node65</title>
<g id="a_node24"><a xlink:href="d__a__skip__2D_8h.html" target="_top" xlink:title=" ">
<polygon fill="white" stroke="#666666" points="1991.5,-101.5 1867.5,-101.5 1867.5,-71.5 1991.5,-71.5 1991.5,-101.5"/>
<text text-anchor="start" x="1875.5" y="-89.5" font-family="Helvetica,sans-Serif" font-size="10.00">include/rel/d/a/d_a</text>
<text text-anchor="middle" x="1929.5" y="-78.5" font-family="Helvetica,sans-Serif" font-size="10.00">_skip_2D/d_a_skip_2D.h</text>
</a>
</g>
</g>
<!-- Node3&#45;&gt;Node65 -->
<g id="edge24" class="edge">
<title>Node3&#45;&gt;Node65</title>
<path fill="none" stroke="#63b8ff" d="M2297.93,-150C2225.57,-141.87 2106.74,-126.97 2005.5,-107 1998.02,-105.52 1990.17,-103.76 1982.48,-101.91"/>
<polygon fill="#63b8ff" stroke="#63b8ff" points="2297.3,-153.46 2307.63,-151.08 2298.08,-146.5 2297.3,-153.46"/>
</g>
<!-- Node66 -->
<g id="node25" class="node">
<title>Node66</title>
<g id="a_node25"><a xlink:href="d__a__spinner_8h.html" target="_top" xlink:title=" ">
<polygon fill="white" stroke="#666666" points="2163.5,-101.5 2047.5,-101.5 2047.5,-71.5 2163.5,-71.5 2163.5,-101.5"/>
<text text-anchor="start" x="2055.5" y="-89.5" font-family="Helvetica,sans-Serif" font-size="10.00">include/rel/d/a/d_a</text>
<text text-anchor="middle" x="2105.5" y="-78.5" font-family="Helvetica,sans-Serif" font-size="10.00">_spinner/d_a_spinner.h</text>
</a>
</g>
</g>
<!-- Node3&#45;&gt;Node66 -->
<g id="edge25" class="edge">
<title>Node3&#45;&gt;Node66</title>
<path fill="none" stroke="#63b8ff" d="M2298.16,-140.04C2261.37,-130.53 2214.84,-118.34 2173.5,-107 2167.58,-105.38 2161.38,-103.64 2155.23,-101.9"/>
<polygon fill="#63b8ff" stroke="#63b8ff" points="2297.22,-143.41 2307.78,-142.52 2298.97,-136.63 2297.22,-143.41"/>
</g>
<!-- Node67 -->
<g id="node26" class="node">
<title>Node67</title>
<g id="a_node26"><a xlink:href="d__a__player_8cpp.html" target="_top" xlink:title=" ">
<polygon fill="white" stroke="#666666" points="2319.5,-24.5 2205.5,-24.5 2205.5,-5.5 2319.5,-5.5 2319.5,-24.5"/>
<text text-anchor="middle" x="2262.5" y="-12.5" font-family="Helvetica,sans-Serif" font-size="10.00">src/d/a/d_a_player.cpp</text>
</a>
</g>
</g>
<!-- Node3&#45;&gt;Node67 -->
<g id="edge35" class="edge">
<title>Node3&#45;&gt;Node67</title>
<path fill="none" stroke="#63b8ff" d="M2431.05,-157.1C2852.25,-157.55 5131.73,-157.67 5181.5,-107 5194.27,-94 5194.27,-78.99 5181.5,-66 5129.42,-13.03 2723.46,-15.15 2319.71,-15.88"/>
<polygon fill="#63b8ff" stroke="#63b8ff" points="2431.23,-153.6 2421.22,-157.09 2431.22,-160.6 2431.23,-153.6"/>
</g>
<!-- Node68 -->
<g id="node27" class="node">
<title>Node68</title>
<g id="a_node27"><a xlink:href="d__a__obj__yobikusa_8h.html" target="_top" xlink:title=" ">
<polygon fill="white" stroke="#666666" points="2287,-107 2182,-107 2182,-66 2287,-66 2287,-107"/>
<text text-anchor="start" x="2190" y="-95" font-family="Helvetica,sans-Serif" font-size="10.00">include/rel/d/a/obj</text>
<text text-anchor="start" x="2190" y="-84" font-family="Helvetica,sans-Serif" font-size="10.00">/d_a_obj_yobikusa/d</text>
<text text-anchor="middle" x="2234.5" y="-73" font-family="Helvetica,sans-Serif" font-size="10.00">_a_obj_yobikusa.h</text>
</a>
</g>
</g>
<!-- Node3&#45;&gt;Node68 -->
<g id="edge28" class="edge">
<title>Node3&#45;&gt;Node68</title>
<path fill="none" stroke="#63b8ff" d="M2327.7,-137.33C2310.2,-127.97 2289.31,-116.8 2271.75,-107.42"/>
<polygon fill="#63b8ff" stroke="#63b8ff" points="2325.76,-140.26 2336.23,-141.89 2329.06,-134.08 2325.76,-140.26"/>
</g>
<!-- Node69 -->
<g id="node28" class="node">
<title>Node69</title>
<g id="a_node28"><a xlink:href="d__a__tag__telop_8h.html" target="_top" xlink:title=" ">
<polygon fill="white" stroke="#666666" points="2423.5,-107 2305.5,-107 2305.5,-66 2423.5,-66 2423.5,-107"/>
<text text-anchor="start" x="2313.5" y="-95" font-family="Helvetica,sans-Serif" font-size="10.00">include/rel/d/a/tag</text>
<text text-anchor="start" x="2313.5" y="-84" font-family="Helvetica,sans-Serif" font-size="10.00">/d_a_tag_telop/d_a_tag</text>
<text text-anchor="middle" x="2364.5" y="-73" font-family="Helvetica,sans-Serif" font-size="10.00">_telop.h</text>
</a>
</g>
</g>
<!-- Node3&#45;&gt;Node69 -->
<g id="edge29" class="edge">
<title>Node3&#45;&gt;Node69</title>
<path fill="none" stroke="#63b8ff" d="M2364.5,-131.36C2364.5,-123.45 2364.5,-114.87 2364.5,-107.42"/>
<polygon fill="#63b8ff" stroke="#63b8ff" points="2361,-131.09 2364.5,-141.09 2368,-131.09 2361,-131.09"/>
</g>
<!-- Node70 -->
<g id="node29" class="node">
<title>Node70</title>
<g id="a_node29"><a xlink:href="c__dylink_8cpp.html" target="_top" xlink:title=" ">
<polygon fill="white" stroke="#666666" points="2537,-96 2442,-96 2442,-77 2537,-77 2537,-96"/>
<text text-anchor="middle" x="2489.5" y="-84" font-family="Helvetica,sans-Serif" font-size="10.00">src/c/c_dylink.cpp</text>
</a>
</g>
</g>
<!-- Node3&#45;&gt;Node70 -->
<g id="edge30" class="edge">
<title>Node3&#45;&gt;Node70</title>
<path fill="none" stroke="#63b8ff" d="M2400.3,-137.1C2424.46,-123.66 2455.17,-106.59 2473.53,-96.38"/>
<polygon fill="#63b8ff" stroke="#63b8ff" points="2398.76,-133.95 2391.72,-141.86 2402.16,-140.06 2398.76,-133.95"/>
</g>
<!-- Node71 -->
<g id="node30" class="node">
<title>Node71</title>
<g id="a_node30"><a xlink:href="d__a__itembase_8cpp.html" target="_top" xlink:title=" ">
<polygon fill="white" stroke="#666666" points="2683.5,-96 2555.5,-96 2555.5,-77 2683.5,-77 2683.5,-96"/>
<text text-anchor="middle" x="2619.5" y="-84" font-family="Helvetica,sans-Serif" font-size="10.00">src/d/a/d_a_itembase.cpp</text>
</a>
</g>
</g>
<!-- Node3&#45;&gt;Node71 -->
<g id="edge32" class="edge">
<title>Node3&#45;&gt;Node71</title>
<path fill="none" stroke="#63b8ff" d="M2428.73,-139.49C2479.01,-125.79 2546.88,-107.29 2586.64,-96.46"/>
<polygon fill="#63b8ff" stroke="#63b8ff" points="2427.83,-136.11 2419.11,-142.12 2429.67,-142.86 2427.83,-136.11"/>
</g>
<!-- Node72 -->
<g id="node31" class="node">
<title>Node72</title>
<g id="a_node31"><a xlink:href="d__a__obj_8cpp.html" target="_top" xlink:title=" ">
<polygon fill="white" stroke="#666666" points="2803,-96 2702,-96 2702,-77 2803,-77 2803,-96"/>
<text text-anchor="middle" x="2752.5" y="-84" font-family="Helvetica,sans-Serif" font-size="10.00">src/d/a/d_a_obj.cpp</text>
</a>
</g>
</g>
<!-- Node3&#45;&gt;Node72 -->
<g id="edge33" class="edge">
<title>Node3&#45;&gt;Node72</title>
<path fill="none" stroke="#63b8ff" d="M2431.05,-150.08C2497.75,-142.39 2603.09,-128.19 2692.5,-107 2704.33,-104.2 2717.18,-100.16 2727.94,-96.48"/>
<polygon fill="#63b8ff" stroke="#63b8ff" points="2430.91,-146.57 2421.37,-151.18 2431.7,-153.53 2430.91,-146.57"/>
</g>
<!-- Node73 -->
<g id="node32" class="node">
<title>Node73</title>
<g id="a_node32"><a xlink:href="d__bg__s_8cpp.html" target="_top" xlink:title=" ">
<polygon fill="white" stroke="#666666" points="2925.5,-96 2821.5,-96 2821.5,-77 2925.5,-77 2925.5,-96"/>
<text text-anchor="middle" x="2873.5" y="-84" font-family="Helvetica,sans-Serif" font-size="10.00">src/d/bg/d_bg_s.cpp</text>
</a>
</g>
</g>
<!-- Node3&#45;&gt;Node73 -->
<g id="edge36" class="edge">
<title>Node3&#45;&gt;Node73</title>
<path fill="none" stroke="#63b8ff" d="M2431.32,-153.68C2519.45,-148.37 2679.01,-135.49 2812.5,-107 2824.9,-104.35 2838.35,-100.2 2849.46,-96.4"/>
<polygon fill="#63b8ff" stroke="#63b8ff" points="2431.18,-150.19 2421.4,-154.27 2431.59,-157.17 2431.18,-150.19"/>
</g>
<!-- Node74 -->
<g id="node33" class="node">
<title>Node74</title>
<g id="a_node33"><a xlink:href="d__bg__s__movebg__actor_8cpp.html" target="_top" xlink:title=" ">
<polygon fill="white" stroke="#666666" points="3069.5,-101.5 2943.5,-101.5 2943.5,-71.5 3069.5,-71.5 3069.5,-101.5"/>
<text text-anchor="start" x="2951.5" y="-89.5" font-family="Helvetica,sans-Serif" font-size="10.00">src/d/bg/d_bg_s_movebg</text>
<text text-anchor="middle" x="3006.5" y="-78.5" font-family="Helvetica,sans-Serif" font-size="10.00">_actor.cpp</text>
</a>
</g>
</g>
<!-- Node3&#45;&gt;Node74 -->
<g id="edge37" class="edge">
<title>Node3&#45;&gt;Node74</title>
<path fill="none" stroke="#63b8ff" d="M2431.2,-154.97C2538.14,-150.87 2754.26,-139.05 2934.5,-107 2942.02,-105.66 2949.9,-103.91 2957.57,-101.99"/>
<polygon fill="#63b8ff" stroke="#63b8ff" points="2431.33,-151.47 2421.46,-155.34 2431.59,-158.46 2431.33,-151.47"/>
</g>
<!-- Node75 -->
<g id="node34" class="node">
<title>Node75</title>
<g id="a_node34"><a xlink:href="d__bg__w_8cpp.html" target="_top" xlink:title=" ">
<polygon fill="white" stroke="#666666" points="3195,-96 3088,-96 3088,-77 3195,-77 3195,-96"/>
<text text-anchor="middle" x="3141.5" y="-84" font-family="Helvetica,sans-Serif" font-size="10.00">src/d/bg/d_bg_w.cpp</text>
</a>
</g>
</g>
<!-- Node3&#45;&gt;Node75 -->
<g id="edge38" class="edge">
<title>Node3&#45;&gt;Node75</title>
<path fill="none" stroke="#63b8ff" d="M2431.12,-157.42C2558.17,-157.1 2843.39,-151.01 3078.5,-107 3091.55,-104.56 3105.71,-100.32 3117.3,-96.42"/>
<polygon fill="#63b8ff" stroke="#63b8ff" points="2431.2,-153.92 2421.2,-157.43 2431.2,-160.92 2431.2,-153.92"/>
</g>
<!-- Node76 -->
<g id="node35" class="node">
<title>Node76</title>
<g id="a_node35"><a xlink:href="d__cc__s_8cpp.html" target="_top" xlink:title=" ">
<polygon fill="white" stroke="#666666" points="3317.5,-96 3213.5,-96 3213.5,-77 3317.5,-77 3317.5,-96"/>
<text text-anchor="middle" x="3265.5" y="-84" font-family="Helvetica,sans-Serif" font-size="10.00">src/d/cc/d_cc_s.cpp</text>
</a>
</g>
</g>
<!-- Node3&#45;&gt;Node76 -->
<g id="edge39" class="edge">
<title>Node3&#45;&gt;Node76</title>
<path fill="none" stroke="#63b8ff" d="M2431.14,-155.18C2602.73,-150.16 3056.57,-134.6 3204.5,-107 3217.18,-104.63 3230.89,-100.41 3242.1,-96.5"/>
<polygon fill="#63b8ff" stroke="#63b8ff" points="2431.18,-151.68 2421.28,-155.47 2431.38,-158.68 2431.18,-151.68"/>
</g>
<!-- Node77 -->
<g id="node36" class="node">
<title>Node77</title>
<g id="a_node36"><a xlink:href="d__com__static_8cpp.html" target="_top" xlink:title=" ">
<polygon fill="white" stroke="#666666" points="3475.5,-96 3335.5,-96 3335.5,-77 3475.5,-77 3475.5,-96"/>
<text text-anchor="middle" x="3405.5" y="-84" font-family="Helvetica,sans-Serif" font-size="10.00">src/d/com/d_com_static.cpp</text>
</a>
</g>
</g>
<!-- Node3&#45;&gt;Node77 -->
<g id="edge41" class="edge">
<title>Node3&#45;&gt;Node77</title>
<path fill="none" stroke="#63b8ff" d="M2431.07,-155.19C2619.34,-149.8 3153.21,-132.65 3326.5,-107 3342.71,-104.6 3360.45,-100.37 3375.01,-96.46"/>
<polygon fill="#63b8ff" stroke="#63b8ff" points="2431.11,-151.69 2421.21,-155.47 2431.31,-158.68 2431.11,-151.69"/>
</g>
<!-- Node78 -->
<g id="node37" class="node">
<title>Node78</title>
<g id="a_node37"><a xlink:href="d__attention_8cpp.html" target="_top" xlink:title=" ">
<polygon fill="white" stroke="#666666" points="3601,-96 3494,-96 3494,-77 3601,-77 3601,-96"/>
<text text-anchor="middle" x="3547.5" y="-84" font-family="Helvetica,sans-Serif" font-size="10.00">src/d/d_attention.cpp</text>
</a>
</g>
</g>
<!-- Node3&#45;&gt;Node78 -->
<g id="edge42" class="edge">
<title>Node3&#45;&gt;Node78</title>
<path fill="none" stroke="#63b8ff" d="M2431.11,-156.26C2639.97,-153.57 3280.19,-142.57 3484.5,-107 3497.7,-104.7 3511.99,-100.43 3523.62,-96.47"/>
<polygon fill="#63b8ff" stroke="#63b8ff" points="2431.2,-152.75 2421.25,-156.38 2431.29,-159.75 2431.2,-152.75"/>
</g>
<!-- Node79 -->
<g id="node38" class="node">
<title>Node79</title>
<g id="a_node38"><a xlink:href="d__cam__param_8cpp.html" target="_top" xlink:title=" ">
<polygon fill="white" stroke="#666666" points="3740,-96 3619,-96 3619,-77 3740,-77 3740,-96"/>
<text text-anchor="middle" x="3679.5" y="-84" font-family="Helvetica,sans-Serif" font-size="10.00">src/d/d_cam_param.cpp</text>
</a>
</g>
</g>
<!-- Node3&#45;&gt;Node79 -->
<g id="edge43" class="edge">
<title>Node3&#45;&gt;Node79</title>
<path fill="none" stroke="#63b8ff" d="M2430.88,-156.39C2654.64,-154.03 3380.12,-143.65 3610.5,-107 3624.88,-104.71 3640.53,-100.44 3653.29,-96.48"/>
<polygon fill="#63b8ff" stroke="#63b8ff" points="2431.15,-152.89 2421.18,-156.49 2431.22,-159.89 2431.15,-152.89"/>
</g>
<!-- Node80 -->
<g id="node39" class="node">
<title>Node80</title>
<g id="a_node39"><a xlink:href="d__camera_8cpp.html" target="_top" xlink:title=" ">
<polygon fill="white" stroke="#666666" points="3860.5,-96 3758.5,-96 3758.5,-77 3860.5,-77 3860.5,-96"/>
<text text-anchor="middle" x="3809.5" y="-84" font-family="Helvetica,sans-Serif" font-size="10.00">src/d/d_camera.cpp</text>
</a>
</g>
</g>
<!-- Node3&#45;&gt;Node80 -->
<g id="edge44" class="edge">
<title>Node3&#45;&gt;Node80</title>
<path fill="none" stroke="#63b8ff" d="M2430.96,-157.04C2670.86,-156.81 3491.62,-152.64 3749.5,-107 3762.23,-104.75 3775.97,-100.43 3787.09,-96.43"/>
<polygon fill="#63b8ff" stroke="#63b8ff" points="2431.15,-153.54 2421.16,-157.05 2431.16,-160.54 2431.15,-153.54"/>
</g>
<!-- Node81 -->
<g id="node40" class="node">
<title>Node81</title>
<g id="a_node40"><a xlink:href="d__eye__hl_8cpp.html" target="_top" xlink:title=" ">
<polygon fill="white" stroke="#666666" points="3976.5,-96 3878.5,-96 3878.5,-77 3976.5,-77 3976.5,-96"/>
<text text-anchor="middle" x="3927.5" y="-84" font-family="Helvetica,sans-Serif" font-size="10.00">src/d/d_eye_hl.cpp</text>
</a>
</g>
</g>
<!-- Node3&#45;&gt;Node81 -->
<g id="edge46" class="edge">
<title>Node3&#45;&gt;Node81</title>
<path fill="none" stroke="#63b8ff" d="M2431.19,-157.36C2684.57,-158.31 3587.47,-157.96 3869.5,-107 3881.84,-104.77 3895.12,-100.45 3905.86,-96.45"/>
<polygon fill="#63b8ff" stroke="#63b8ff" points="2431.5,-153.86 2421.48,-157.32 2431.47,-160.86 2431.5,-153.86"/>
</g>
<!-- Node82 -->
<g id="node41" class="node">
<title>Node82</title>
<g id="a_node41"><a xlink:href="d__kyeff_8cpp.html" target="_top" xlink:title=" ">
<polygon fill="white" stroke="#666666" points="4084.5,-96 3994.5,-96 3994.5,-77 4084.5,-77 4084.5,-96"/>
<text text-anchor="middle" x="4039.5" y="-84" font-family="Helvetica,sans-Serif" font-size="10.00">src/d/d_kyeff.cpp</text>
</a>
</g>
</g>
<!-- Node3&#45;&gt;Node82 -->
<g id="edge47" class="edge">
<title>Node3&#45;&gt;Node82</title>
<path fill="none" stroke="#63b8ff" d="M2431.02,-156.18C2716.63,-152.52 3831.38,-136.43 3985.5,-107 3997.05,-104.79 4009.43,-100.48 4019.41,-96.47"/>
<polygon fill="#63b8ff" stroke="#63b8ff" points="2431.1,-152.68 2421.14,-156.31 2431.19,-159.68 2431.1,-152.68"/>
</g>
<!-- Node83 -->
<g id="node42" class="node">
<title>Node83</title>
<g id="a_node42"><a xlink:href="d__path_8cpp.html" target="_top" xlink:title=" ">
<polygon fill="white" stroke="#666666" points="4192,-96 4103,-96 4103,-77 4192,-77 4192,-96"/>
<text text-anchor="middle" x="4147.5" y="-84" font-family="Helvetica,sans-Serif" font-size="10.00">src/d/d_path.cpp</text>
</a>
</g>
</g>
<!-- Node3&#45;&gt;Node83 -->
<g id="edge48" class="edge">
<title>Node3&#45;&gt;Node83</title>
<path fill="none" stroke="#63b8ff" d="M2431.02,-156.32C2728.35,-153.13 3928.28,-138.39 4093.5,-107 4105.06,-104.8 4117.43,-100.49 4127.42,-96.48"/>
<polygon fill="#63b8ff" stroke="#63b8ff" points="2431.07,-152.82 2421.1,-156.43 2431.14,-159.82 2431.07,-152.82"/>
</g>
<!-- Node84 -->
<g id="node43" class="node">
<title>Node84</title>
<g id="a_node43"><a xlink:href="d__resorce_8cpp.html" target="_top" xlink:title=" ">
<polygon fill="white" stroke="#666666" points="4312.5,-96 4210.5,-96 4210.5,-77 4312.5,-77 4312.5,-96"/>
<text text-anchor="middle" x="4261.5" y="-84" font-family="Helvetica,sans-Serif" font-size="10.00">src/d/d_resorce.cpp</text>
</a>
</g>
</g>
<!-- Node3&#45;&gt;Node84 -->
<g id="edge49" class="edge">
<title>Node3&#45;&gt;Node84</title>
<path fill="none" stroke="#63b8ff" d="M2431.08,-156.32C2739.83,-153.01 4024.66,-137.49 4201.5,-107 4214.24,-104.8 4227.98,-100.49 4239.09,-96.48"/>
<polygon fill="#63b8ff" stroke="#63b8ff" points="2431.14,-152.82 2421.17,-156.42 2431.21,-159.82 2431.14,-152.82"/>
</g>
<!-- Node85 -->
<g id="node44" class="node">
<title>Node85</title>
<g id="a_node44"><a xlink:href="d__simple__model_8cpp.html" target="_top" xlink:title=" ">
<polygon fill="white" stroke="#666666" points="4460.5,-96 4330.5,-96 4330.5,-77 4460.5,-77 4460.5,-96"/>
<text text-anchor="middle" x="4395.5" y="-84" font-family="Helvetica,sans-Serif" font-size="10.00">src/d/d_simple_model.cpp</text>
</a>
</g>
</g>
<!-- Node3&#45;&gt;Node85 -->
<g id="edge50" class="edge">
<title>Node3&#45;&gt;Node85</title>
<path fill="none" stroke="#63b8ff" d="M2431.39,-157.37C2730.22,-158.71 3944.85,-160.69 4321.5,-107 4337.02,-104.79 4353.96,-100.47 4367.7,-96.46"/>
<polygon fill="#63b8ff" stroke="#63b8ff" points="2431.44,-153.87 2421.42,-157.33 2431.4,-160.87 2431.44,-153.87"/>
</g>
<!-- Node86 -->
<g id="node45" class="node">
<title>Node86</title>
<g id="a_node45"><a xlink:href="d__stage_8cpp.html" target="_top" xlink:title=" ">
<polygon fill="white" stroke="#666666" points="4572.5,-96 4478.5,-96 4478.5,-77 4572.5,-77 4572.5,-96"/>
<text text-anchor="middle" x="4525.5" y="-84" font-family="Helvetica,sans-Serif" font-size="10.00">src/d/d_stage.cpp</text>
</a>
</g>
</g>
<!-- Node3&#45;&gt;Node86 -->
<g id="edge51" class="edge">
<title>Node3&#45;&gt;Node86</title>
<path fill="none" stroke="#63b8ff" d="M2431.3,-156.65C2767.39,-154.71 4265.33,-144.03 4469.5,-107 4481.55,-104.81 4494.5,-100.45 4504.91,-96.4"/>
<polygon fill="#63b8ff" stroke="#63b8ff" points="2431.34,-153.15 2421.36,-156.7 2431.38,-160.15 2431.34,-153.15"/>
</g>
<!-- Node87 -->
<g id="node46" class="node">
<title>Node87</title>
<g id="a_node46"><a xlink:href="d__timer_8cpp.html" target="_top" xlink:title=" ">
<polygon fill="white" stroke="#666666" points="4682.5,-96 4590.5,-96 4590.5,-77 4682.5,-77 4682.5,-96"/>
<text text-anchor="middle" x="4636.5" y="-84" font-family="Helvetica,sans-Serif" font-size="10.00">src/d/d_timer.cpp</text>
</a>
</g>
</g>
<!-- Node3&#45;&gt;Node87 -->
<g id="edge52" class="edge">
<title>Node3&#45;&gt;Node87</title>
<path fill="none" stroke="#63b8ff" d="M2431.2,-156.76C2777.83,-155.32 4365.81,-146.61 4581.5,-107 4593.36,-104.82 4606.08,-100.46 4616.29,-96.41"/>
<polygon fill="#63b8ff" stroke="#63b8ff" points="2431.37,-153.26 2421.39,-156.8 2431.4,-160.26 2431.37,-153.26"/>
</g>
<!-- Node88 -->
<g id="node47" class="node">
<title>Node88</title>
<g id="a_node47"><a xlink:href="d__tresure_8cpp.html" target="_top" xlink:title=" ">
<polygon fill="white" stroke="#666666" points="4800.5,-96 4700.5,-96 4700.5,-77 4800.5,-77 4800.5,-96"/>
<text text-anchor="middle" x="4750.5" y="-84" font-family="Helvetica,sans-Serif" font-size="10.00">src/d/d_tresure.cpp</text>
</a>
</g>
</g>
<!-- Node3&#45;&gt;Node88 -->
<g id="edge53" class="edge">
<title>Node3&#45;&gt;Node88</title>
<path fill="none" stroke="#63b8ff" d="M2431.3,-156.75C2788.36,-155.24 4463.98,-146.14 4691.5,-107 4704.15,-104.82 4717.79,-100.46 4728.76,-96.41"/>
<polygon fill="#63b8ff" stroke="#63b8ff" points="2431.39,-153.25 2421.41,-156.79 2431.42,-160.25 2431.39,-153.25"/>
</g>
<!-- Node89 -->
<g id="node48" class="node">
<title>Node89</title>
<g id="a_node48"><a xlink:href="d__event__lib_8cpp.html" target="_top" xlink:title=" ">
<polygon fill="white" stroke="#666666" points="4922,-101.5 4819,-101.5 4819,-71.5 4922,-71.5 4922,-101.5"/>
<text text-anchor="start" x="4827" y="-89.5" font-family="Helvetica,sans-Serif" font-size="10.00">src/d/event/d_event</text>
<text text-anchor="middle" x="4870.5" y="-78.5" font-family="Helvetica,sans-Serif" font-size="10.00">_lib.cpp</text>
</a>
</g>
</g>
<!-- Node3&#45;&gt;Node89 -->
<g id="edge56" class="edge">
<title>Node3&#45;&gt;Node89</title>
<path fill="none" stroke="#63b8ff" d="M2431.39,-156.78C2799.4,-155.44 4569.53,-146.94 4809.5,-107 4816.52,-105.83 4823.84,-104.03 4830.88,-101.98"/>
<polygon fill="#63b8ff" stroke="#63b8ff" points="2431.41,-153.28 2421.42,-156.82 2431.43,-160.28 2431.41,-153.28"/>
</g>
<!-- Node90 -->
<g id="node49" class="node">
<title>Node90</title>
<g id="a_node49"><a xlink:href="d__event__manager_8cpp.html" target="_top" xlink:title=" ">
<polygon fill="white" stroke="#666666" points="5043,-101.5 4940,-101.5 4940,-71.5 5043,-71.5 5043,-101.5"/>
<text text-anchor="start" x="4948" y="-89.5" font-family="Helvetica,sans-Serif" font-size="10.00">src/d/event/d_event</text>
<text text-anchor="middle" x="4991.5" y="-78.5" font-family="Helvetica,sans-Serif" font-size="10.00">_manager.cpp</text>
</a>
</g>
</g>
<!-- Node3&#45;&gt;Node90 -->
<g id="edge57" class="edge">
<title>Node3&#45;&gt;Node90</title>
<path fill="none" stroke="#63b8ff" d="M2431.08,-156.87C2809.24,-156 4678.83,-149.55 4931.5,-107 4938.41,-105.84 4945.62,-104.03 4952.54,-101.99"/>
<polygon fill="#63b8ff" stroke="#63b8ff" points="2431.31,-153.37 2421.32,-156.9 2431.33,-160.37 2431.31,-153.37"/>
</g>
<!-- Node16&#45;&gt;Node13 -->
<g id="edge6" class="edge">
<title>Node16&#45;&gt;Node13</title>
<path fill="none" stroke="#63b8ff" d="M254.48,-71.79C284.89,-57.89 331.06,-36.78 357.01,-24.91"/>
<polygon fill="#63b8ff" stroke="#63b8ff" points="253.08,-68.59 245.44,-75.93 255.99,-74.95 253.08,-68.59"/>
</g>
<!-- Node16&#45;&gt;Node17 -->
<g id="edge7" class="edge">
<title>Node16&#45;&gt;Node17</title>
<path fill="none" stroke="#63b8ff" d="M193.39,-72.15C161,-58.26 111.17,-36.88 83.27,-24.91"/>
<polygon fill="#63b8ff" stroke="#63b8ff" points="191.69,-75.23 202.26,-75.96 194.45,-68.8 191.69,-75.23"/>
</g>
<!-- Node16&#45;&gt;Node18 -->
<g id="edge8" class="edge">
<title>Node16&#45;&gt;Node18</title>
<path fill="none" stroke="#63b8ff" d="M227.97,-65.39C229.91,-54.15 232.29,-40.41 234.04,-30.27"/>
<polygon fill="#63b8ff" stroke="#63b8ff" points="224.53,-64.76 226.28,-75.21 231.43,-65.95 224.53,-64.76"/>
</g>
<!-- Node40&#45;&gt;Node13 -->
<g id="edge16" class="edge">
<title>Node40&#45;&gt;Node13</title>
<path fill="none" stroke="#63b8ff" d="M1170.98,-71.56C1159.2,-69.44 1147.02,-67.47 1135.5,-66 873.2,-32.42 556.84,-20.78 431.49,-17.3"/>
<polygon fill="#63b8ff" stroke="#63b8ff" points="1170.16,-74.97 1180.63,-73.35 1171.43,-68.08 1170.16,-74.97"/>
</g>
<!-- Node40&#45;&gt;Node45 -->
<g id="edge17" class="edge">
<title>Node40&#45;&gt;Node45</title>
<path fill="none" stroke="#63b8ff" d="M1214.25,-63.36C1200.45,-50.23 1183.73,-34.31 1173.62,-24.68"/>
<polygon fill="#63b8ff" stroke="#63b8ff" points="1211.62,-65.7 1221.28,-70.06 1216.45,-60.63 1211.62,-65.7"/>
</g>
<!-- Node40&#45;&gt;Node46 -->
<g id="edge18" class="edge">
<title>Node40&#45;&gt;Node46</title>
<path fill="none" stroke="#63b8ff" d="M1258.24,-62.62C1270.02,-49.63 1284.07,-34.13 1292.63,-24.68"/>
<polygon fill="#63b8ff" stroke="#63b8ff" points="1255.69,-60.22 1251.57,-69.98 1260.88,-64.92 1255.69,-60.22"/>
</g>
<!-- Node40&#45;&gt;Node47 -->
<g id="edge19" class="edge">
<title>Node40&#45;&gt;Node47</title>
<path fill="none" stroke="#63b8ff" d="M1303.93,-72C1316.06,-69.8 1328.64,-67.69 1340.5,-66 1511.42,-41.67 1715.62,-25.91 1809.55,-19.41"/>
<polygon fill="#63b8ff" stroke="#63b8ff" points="1303.62,-68.5 1294.43,-73.77 1304.9,-75.38 1303.62,-68.5"/>
</g>
<!-- Node66&#45;&gt;Node13 -->
<g id="edge26" class="edge">
<title>Node66&#45;&gt;Node13</title>
<path fill="none" stroke="#63b8ff" d="M2035.98,-71.05C2024.18,-69.04 2012.03,-67.24 2000.5,-66 1841.95,-48.94 696.42,-23.01 431.21,-17.19"/>
<polygon fill="#63b8ff" stroke="#63b8ff" points="2035.19,-74.46 2045.65,-72.76 2036.42,-67.57 2035.19,-74.46"/>
</g>
<!-- Node66&#45;&gt;Node67 -->
<g id="edge27" class="edge">
<title>Node66&#45;&gt;Node67</title>
<path fill="none" stroke="#63b8ff" d="M2148.44,-66.49C2179.08,-52.93 2218.87,-35.31 2242.44,-24.88"/>
<polygon fill="#63b8ff" stroke="#63b8ff" points="2147.14,-63.24 2139.41,-70.49 2149.98,-69.64 2147.14,-63.24"/>
</g>
</g>
</svg>
